<?xml version="1.0" encoding="UTF-8"?>
<svg xmlns="http://www.w3.org/2000/svg"
    xmlns:xlink="http://www.w3.org/1999/xlink">
    <symbol viewBox="0 0 281 256" id="00_Cute-cartoon-owl-illustration" xmlns="http://www.w3.org/2000/svg">
        <path
            d="M153.25 54.375 155 55v3l1.688-1c2.615-1.131 4.493-1.157 7.312-1l1 4 3.125.063c12.965 1.678 24.252 10.988 32.187 20.812C208.405 92.384 211 105.136 211 119a114.933 114.933 0 0 1-1.25 6.125c-1.486 7.166 1.356 12.424 4.25 18.875 3.438 10.106 1.27 22.598-3 32l-1.145 2.539c-6.107 11.625-19.301 22.961-31.574 27.457-3.296 1.45-3.732 3.842-5.281 7.004-2.375 1.937-2.375 1.937-5 3-2.812-.313-2.812-.313-5-1v8l2.125.75c3.325 1.445 6.033 2.99 8.875 5.25.875 2.75.875 2.75 1 5-3.517 0-4.371-.824-7-3l1 7c-3.698-1.233-3.935-2.201-5.688-5.563l-1.324-2.503L161 228c-1.982 2.585-3.626 5.04-5 8h-2c-.528-5.149.944-8.302 3.109-12.809 1.142-2.809 1.198-5.195.891-8.191l-2.375-.375C153 214 153 214 151 212c-3.297.33-4.623.623-7 3-2.125.625-2.125.625-4 1-.091 5.633.646 9.135 4.5 13.375l1.906 1.898C148 233 148 233 149 236c-4 0-4 0-5.484-1.313L140 230c-1.654 1.654-1.635 3.809-2.062 6.063l-.536 2.785L137 241l-3-1v-8l-1.242 1.531-1.633 1.969-1.617 1.969L128 239h-2c.522-4.154 1.697-6.126 4.5-9.187 3.916-4.757 4.589-8.755 4.5-14.813l-2.812-.125C129 214 129 214 127.125 210.937L126 208l-2.438 2c-3.516 2.383-6.334 2.218-10.468 2.004-2.234-.139-2.234-.139-4.656 1.059-3.753 1.443-6.511.709-10.438-.063l-2-2c-2.132-.604-2.132-.604-4.5-1-4.278-.778-4.278-.778-6.5-3 .327-2.616.82-4.641 2-7l-4-2c-.344-2.199-.344-2.199 0-5 2.406-2.457 2.406-2.457 5.5-4.813l3.094-2.394L94 184l-1.242-2.379-1.633-3.184-1.617-3.128c-5.386-11.819-4.781-24.242-.774-36.344C90 136 90 136 92.137 132.828c2.802-4.767 2.166-9.655 1.925-15.015-.327-16.253 3.375-31.957 15.004-44.079 10.169-9.121 21.582-13.664 34.649-16.839 9.36-2.549 9.36-2.549 9.535-2.52ZM147 61l1 2Zm37 11v2l2-1-2-1Zm-62 4-3 3h6v-2l-3-1Zm5 1-1 2 4-1-3-1Zm43 3 1 2Zm-67 11c-6.345 10.434-7.358 23.336-4.875 35.063 2.463 9.015 7.823 15.227 15.875 19.937 1.327.357 2.66.694 4 1l-.84 3.473-1.098 4.59-.552 2.279c-2.808 11.794-5.347 26.199.017 37.599 3.47 4.851 8.672 7.886 14.473 9.059l-.125 2.375c-.162 2.786-.162 2.786 2.125 4.625 2 .043 4 .04 6 0l2.188.687L142 212l1.32-1.469c2.213-2.017 3.426-1.846 6.368-1.718l2.449.082L154 209l1 2 3.438-.063C162 211 162 211 163 212c3.459.15 3.459.15 7-1 .717-1.726 1.424-3.46 2.012-5.234 1.672-2.988 4.488-3.566 7.57-4.743 5.973-2.528 10.461-6.242 13.418-12.023 4.546-14.275 4.058-29.172-2-43l2.188-.75c4.163-1.85 7.123-3.692 9-7.937L203 135l2-1c3.728-13.554 2.807-28.139-2.238-41.207-2.154-3.414-3.998-4.422-7.637-6.106l-3.117-1.488c-7.12-2.838-13.876-3.209-21.07-.574C162.33 88.414 158.042 93.618 154 102c-1.558-2.009-2.996-3.993-4.289-6.184-4.365-7.365-9.345-10.179-17.211-13.129-10.72-2.105-21.896-.033-29.5 8.313Zm-8 46 2 2v-2h-2Zm4 1-1 2h2l-1-2Zm-6 1 1 3 2-2-3-1Zm-2 6 1 2 1-2h-2Zm118 1 1 2Zm-8 17 1 2Zm-1 7 1 2Zm7 1 1 2Zm-100 4-2 6 2 1 1-7h-1Zm-8 6 1 2Zm2 1v3l2 1-1-4h-1Zm-9.062 9-2.786 2.25L87 195c3.092.846 4.971 1.27 8 0a100.66 100.66 0 0 0 3-4h2l-2-4c-2.173 0-4.494 2.729-6.062 4ZM109 189l2 4v-3l-2-1Zm6 13c-.224 2.925-.224 2.925 1 5h5v-3l-6-2Zm-14 5-1 2h2l-1-2Z" />
        <path
            d="M130 105c2.716 1.93 3.747 3.342 4.938 6.438.083 3.409-.851 4.9-2.938 7.562-2.523 1.914-3.808 2.004-7 1.938-3.866-1.209-5.071-2.388-7-5.938 0-3.779.167-6.007 2.625-8.938 3.352-1.499 5.745-1.516 9.375-1.062Zm-7 2-1 5 5-1-2-4h-2ZM182 104.438c3.805.712 5.451 1.638 8 4.561.524 3.666.453 5.99-1.062 9.377-2.931 2.456-5.159 2.623-8.938 2.623-3.821-1.992-4.782-3.334-6.125-7.436.125-3.564.125-3.564 2.187-6.5 2.938-2.064 2.938-2.064 5.938-2.626Zm-3 2.561-2 4 3 2c.66-.658 1.32-1.319 2-2v-3c-.99-.328-1.98-.658-3-1ZM154.563 114.313l2.316.3c2.121.388 2.121.388 5.121 1.388-.566 5.948-2.629 10.022-7.25 13.874-.867.556-.867.556-1.75 1.125-3.692-3.296-5.867-6.575-8-11 0-2.313 0-2.313 1-4 3.05-1.93 5.02-2.186 8.563-1.688Z" />
    </symbol>
    <symbol viewBox="0 0 281 256" id="01_Bird-on-branch" xmlns="http://www.w3.org/2000/svg">
        <path
            d="M118 43c9.218 7.989 13.416 19.784 16.875 31.125C137.449 82.421 141.306 88.392 147 95l2.086 2.648c4.965 6.294 10.354 12.15 15.866 17.963 3.388 3.576 6.645 7.213 9.78 11.015 1.242 1.508 1.242 1.508 3.268 2.374v2c4.803.335 8.815-.349 13.5-1.5 8.77-2.117 8.77-2.117 13.5-1.5 2.616 1.831 2.97 2.91 4 6l2.5 1.438C214 137 214 137 215 138.875c0 3.196-.994 4.666-3 7.125a508.001 508.001 0 0 1-6 2 288.451 288.451 0 0 0-1 4c-6.083 4.482-13.312 3.492-20.426 2.543a353.58 353.58 0 0 1-6.629-1.105c-5.621-.993-5.621-.993-10.566 1.468l-2.817 2.594c-15.158 13.321-33.61 19.814-53.562 21.5v12l7 3v2c6.635-.042 13.269-.115 19.904-.208 2.252-.028 4.505-.049 6.758-.063 3.255-.022 6.509-.068 9.764-.12l3.009-.003c7.164-.147 12.988-1.798 19.565-4.606l-.25-3.688c.011-3.189.219-4.258 1.875-7.124 2.689-2.477 4.924-3.966 8.375-5.188 2.375.813 2.375.813 4 2-.512 3.755-1.218 6.667-3 10 6.587-2.894 6.587-2.894 12.188-7.25 2.774-2.679 5.023-2.686 8.812-2.75 2.525.776 4.63 1.791 7 3v4c-2.511 2.323-4.472 3.952-8.004 4.062-2.854-.346-5.57-.946-8.343-1.701-3.093-.421-4.351.041-7.122 1.405l-2.48 1.199-2.551 1.285-2.551 1.238c-4.094 2.005-8.09 4.076-11.949 6.512l3.211.551 4.164.761 2.117.358c1.857.348 3.686.833 5.508 1.33l2 3c-2.887 1.443-5.178.891-8.375.625l-3.461-.273c-2.5-.278-4.757-.653-7.164-1.352 4.394 4.834 8.869 5.396 15.188 6 6.052.648 11.941 1.323 17.812 3l1 2c-6.115.097-11.933-.23-18-1l1.488 1.27c2.354 2.694 1.706 5.297 1.512 8.73-3.369 1.09-4.81 1.071-8.188-.188-2.904-1.871-3.88-2.55-4.812-5.812-.125-3.25-.125-3.25 0-6l-2.633-.316c-3.551-.721-6.052-1.927-9.242-3.622-14.665-6.881-31.793-5.315-47.625-5.187-2.191.01-4.383.019-6.574.027-5.309.022-10.617.055-15.926.098v-2c-8.715.76-15.864 1.466-23 7l2 1.625C76 211 76 211 76.375 214c-.583 4.662-.583 4.662-2.375 7-2.303 1.787-4.276 2.779-7 4-2.438-.75-2.438-.75-4-2-.25-7.5-.25-7.5 2-12l-12 4v-3c2.484-1.648 2.484-1.648 5.75-3.375 4.479-2.369 7.309-4.471 10.25-8.625-5.735-3.511-11.805-4.193-18.375-5.188l-3.387-.537c-2.745-.434-5.49-.858-8.238-1.275v-2c6.95-.266 13.235.388 20 2v-2l-2.312-.688c-3.437-1.678-4.319-2.736-5.688-6.312.056-3.056.457-5.995 1-9 2.062-.875 2.062-.875 5-1 2.918 1.525 5.05 3.347 7 6 .967 4.111.071 7.983-1 12 4.25.504 8.5 1.002 12.75 1.5l3.656.434 3.516.41 3.237.381c3.029.339 3.029.339 6.841.275l-3-1 2-4h14v-12l-5.625-.188c-15.602-1.236-30.346-8.59-41.055-19.953-11.189-13.788-15.496-29.588-15.508-47.109l-.037-2.988C43.763 101.274 44.469 95.305 46 89c-4.569-2.399-9.158-4.247-14-6 .702-3.803 2.162-5.425 5.184-7.879 1.992-1.23 3.669-1.607 5.941-2.121 2.124-.588 2.124-.588 3.875-2 1.368-3.137 2.175-6.26 3.023-9.574C52.459 52.883 57.587 45.884 65 41c17.41-9.155 36.818-10.13 53 2Zm-55.75 5.312c-5.044 6.026-9.492 12.953-10.75 20.813.255 3.097.255 3.097 2.938 5.313C57 77 57 77 58.062 80.562 58 84 58 84 56.312 86.375 54.069 87.952 52.624 88.436 50 89c-4.248 21.467-3.094 43.576 9.312 62.312 5.484 7.316 11.423 11.802 19.5 15.938l1.938.999c9.206 4.489 18.294 6.3 28.5 6.189l3.041-.028c23.883-.552 42.971-12.852 59.885-28.797 2.865-2.651 5.806-5.139 8.824-7.613-2.687-2.692-5.38-5.378-8.086-8.051-10.491-10.388-10.491-10.388-15.258-16.019a135.376 135.376 0 0 0-3.687-4.11c-9.765-10.487-18.712-21.489-23.059-35.277-4.303-13.638-9.788-26.49-23.035-33.418-14.742-7.112-33.406-3.088-45.625 7.187ZM38 79l-1 2c8.225 3.515 8.225 3.515 17 4l1-1c-.176-3.481-.176-3.481-1-7-5.808-3.872-10.528-1.503-16 2Zm152.75 54.188-3.141.667c-2.81.89-2.81.89-3.711 3.528L183 140c-1.945 1.949-1.945 1.949-4.125 3.688A73.554 73.554 0 0 0 175 147v2c13.918 3.189 13.918 3.189 27 0l-1-4 1.934-.332 2.504-.48 2.496-.458L210 143l1-3-1-2c-1.937-.027-3.875-.046-5.812-.062l-3.27-.036c-2.983-.038-2.983-.038-5.918 1.098v-3l9-2-1-2c-4.273-.122-8.082.24-12.25 1.188ZM55 178c-1.401 3.072-1.401 3.072.438 6.188L57 187h4l-1-7-5-2Zm127.312 3.25c-2.741 2.661-2.741 2.661-2.312 6.75 3.315-.986 4.749-1.654 6.812-4.5 1.331-2.34 1.331-2.34 1.188-4.5-3.201-.321-3.201-.321-5.688 2.25ZM203 181v3c5.282 1.2 5.282 1.2 10-1v-2h-10ZM67.312 213.125c-1.847 2.64-1.521 4.733-1.312 7.875 2.32-.4 3.863-.906 5.812-2.25 1.482-1.773 1.482-1.773.876-4.438L72 212c-2.922-.277-2.922-.277-4.688 1.125ZM181 213l-1 4 5 4 2-1c-1.168-3.814-1.168-3.814-4.125-6.312L181 213Z" />
        <path
            d="M81.125 66.938c2.666.543 3.758.963 5.875 2.75 1.34 3.1 1.547 4.963 1 8.311-2.063 2.939-2.063 2.939-5 5-3.992.072-6.154-.413-9.437-2.686-2.088-3.09-2.236-4.651-1.563-8.314 2.619-3.846 4.5-5.42 9.125-5.061ZM76 69.999l1 5c.99-.328 1.98-.658 3-1l-1-4h-3ZM131 100c4.041.54 6.298 1.676 9.438 4.25l2.355 1.922L145 108l1.738 1.328c4.25 3.295 8.576 7.31 9.688 12.758l.199 2.102c.396 4.021 1.05 4.779 3.375 7.812.438 3 .438 3 0 6-1.813 2-1.813 2-4 4l-1.125 2.938c-3.282 5.361-8.777 7.234-14.695 8.816-13.469 2.682-25.39.572-37.18-6.754-6.81-4.937-11.23-10.52-15-18l-1.031-1.887C83.924 120.616 84.555 113.004 85 106l1-2h3l-.141 2.168c-.382 10.553 1.475 20.807 8.461 29.062L99 137l1.742 1.863c7.161 6.939 16.628 10.627 26.508 11.387 4.607-.307 8.461-1.616 12.75-3.25.957-4.21 1.132-6.257-1-10l2.992.254 3.883.308 3.867.317c3.144.378 3.144.378 5.258-.879v-4l-2.59-.988-3.348-1.324-3.339-1.301C143 128 143 128 142 125l10 1c-2.099-9.329-9.927-15.034-17.087-20.675-1.338-1.067-2.63-2.192-3.913-3.325v-2Zm15 42-1 6c3.628-1.866 3.628-1.866 6-5l-5-1ZM199 192c3.664 1.629 5.992 3.512 8 7v4c-4.879 2.074-8.951 2.624-14 1-3.252-2.616-5.422-5.127-7-9 4.27-3.203 7.833-3.776 13-3Zm-8 4 1 4 3.812 1.062 2.145.598c2.235.536 2.235.536 5.043-.66l-1-4-3.812-1.062-2.145-.598c-2.235-.536-2.235-.536-5.043.66Z" />
    </symbol>
    <symbol viewBox="0 0 281 256" id="02_Simple-drawing-of-a-cute-bird" xmlns="http://www.w3.org/2000/svg">
        <path
            d="M136 67c10.749 11.78 14.069 27.183 17.415 42.309 4.072 18.29 10.252 36.58 21.585 51.691v2l2.887-2.223c1.266-.947 2.533-1.894 3.801-2.839l1.896-1.471c4.717-3.482 4.717-3.482 8.291-3.405 2.125.938 2.125.938 3.437 3L196 158l2.312-.25c2.688.25 2.688.25 4.5 2.062C204 162 204 162 204 165l6 1c.75 2.688.75 2.688 1 6-2.819 4.52-5.815 6.163-10.688 8.125l-1.876.773a112.075 112.075 0 0 1-10.561 3.664c-3.115.963-3.72 1.238-5.813 3.938-2.74 3.322-5.346 3.781-9.429 4.824-5.628 1.445-10.116 3.436-15.071 6.488-10.021 5.932-20.799 9.884-32.562 10.188.033 2.105.102 4.209.188 6.312l.105 3.551c.396 3.334.396 3.334 3.258 5.055L131 226l-1 3-3-1.312c-2.628-.791-3.625-.866-6.141.328a82.56 82.56 0 0 0-4.062 2.918L115 232l-3-1v-3l2-1-8 1-1-2c-5.118-.301-7.756.17-12 3h-3l1-4h-8l1-4c1.581-.365 3.165-.717 4.75-1.062l2.672-.598C94 219 94 219 98 220v-11l-2.75-.188c-14.554-2.191-29.394-12.571-38.047-24.234C42.428 162.732 43.696 139.774 48 115a4255.985 4255.985 0 0 0-4.875-3.438l-2.742-1.933c-2.26-1.624-2.26-1.624-4.383-2.629.062-1.75.062-1.75 1-4 4.076-2.743 7.15-4.172 12-5l.699-2.711c3.842-14.244 9.172-26.329 22.051-34.664C92.248 49.372 118.649 50.409 136 67Zm-68.328 2.258C60.944 76.269 55.89 84.359 54 94c.215 3.082.583 4.499 2.562 6.875 2.188 3.234 2.03 5.309 1.438 9.125l-2.918 2.719c-3.624 3.461-4.342 6.538-4.957 11.406l-.336 2.357C47.248 146.184 48.323 165.136 60 182c10.853 13.332 25.677 22.901 43 25 18.069 1.167 34.606-1.157 51-9v-1l-3.883-.48c-16.949-2.226-33.345-5.754-45.344-18.973-9.606-13-10.78-25.992-8.773-41.547h3l-.48 2.055c-2.175 12.326-.32 23.064 6.23 33.695 8.813 12.23 22.134 18.058 36.654 20.533 4.92.739 9.635.983 14.596.717v-3a784.315 784.315 0 0 0-4.375-2.5l-2.461-1.406c-2.057-1.244-2.057-1.244-4.164-1.094v-3l3.332 1.75c11.715 6.136 11.715 6.136 24.668 6.25 3.593-.957 3.593-.957 6-3 .68-2.56.68-2.56 1-5-6.197-4.372-12.601-7.976-19.375-11.387C158 169 158 169 157 166l1.712.918c2.552 1.365 5.108 2.724 7.663 4.082l2.695 1.445 2.578 1.367 2.381 1.27c1.911 1.059 1.911 1.059 3.971.918-1.461-5.413-4.07-9.376-7.188-13.938-12.04-18.224-18.049-38.021-22.937-59.187C144.271 87.35 139.64 73.592 126 64c-17.753-10.652-43.106-9.398-58.328 5.258ZM183.375 162l-3.039 2.25L178 166l.84 2.266 1.098 2.984 1.089 2.953c.787 2.262 1.446 4.465 1.973 6.797 5.364-.564 9.843-1.876 14.812-3.938l2.022-.802c2.847-1.158 4.971-2.065 7.166-4.26v-3c-5.565.398-9.464 1.433-14.336 4.16C191 174 191 174 189 174l-1-2 2.062-.75c3.507-1.492 6.654-3.318 9.938-5.25l-1-5c-4.972 1.492-9.418 3.605-14 6l1.312-1.461 1.688-1.914 1.688-1.898c1.514-1.631 1.514-1.631 1.312-3.727-3.232 0-5.084 2.109-7.625 4ZM102 210v11c3.327 2.472 5.079 3.069 9.293 2.754A212.588 212.588 0 0 0 121 222v-11l-19-1Z" />
        <path
            d="M85 93c3.421 2.475 4.795 3.883 5.562 8.062-.698 3.651-1.544 4.794-4.562 6.938-2.875 1.062-2.875 1.062-6 1-3.375-2-3.375-2-6-5-.705-4.019-.648-5.99 1.562-9.438C78.983 92.37 81.01 92.37 85 93Zm-6 3-1 4h4l-1-4h-2ZM29 185c2.736 0 4.454.562 6.594 2.277 4.076 4.247 4.954 7.754 5.773 13.477.745 2.644 1.488 3.388 3.758 4.871L48 207l-.289-1.828-.336-2.422-.352-2.391c-.026-2.681.611-4.086 1.977-6.359 2.938.304 3.841.807 5.75 3.125 1.559 3.585 1.666 5.996 1.25 9.875-1.5 2.938-1.5 2.938-3 5l2.199.805c2.803 1.196 5.106 2.598 7.613 4.32l2.395 1.633L67 220l-2 2-1.898-1.094-2.477-1.406-2.461-1.406C56.107 216.85 56.107 216.85 54 217l-1.938 1.938c-2.826 2.826-4.592 3.045-8.562 3.187C40 222 40 222 37 221c.188-2.312.188-2.312 1-5 2.312-1.688 2.312-1.688 5-3l2.312-1.188L47 211c-2.239-2.014-3.462-2.967-6.516-3.152l-2.734.214c-5.229.148-9.685-.54-13.75-4.062-.711-2.141-.711-2.141-1-4 2.957-1.478 5.742-1.06 9-1l-.875-1.574c-3.78-7.101-3.78-7.101-3.125-11.426l1-1Zm2 3c.53 4.507 2.196 7.454 5 11h3c-1.487-4.596-3.798-7.47-7-11h-1Zm19 10c-.269 4.651-.269 4.651 1 9h2c1.033-2.788 1.045-3.868.062-6.75L52 198h-2Zm-23 3v2c3.823 1.423 6.913 2.24 11 2-1.559-2.146-1.559-2.146-4-4-3.668-.334-3.668-.334-7 0Zm14 16v2l8-1 1-3c-3.625-.201-5.865.142-9 2Z" />
    </symbol>
    <symbol viewBox="0 0 281 256" id="03_Cartoon-bird-with-black-and-white-plumage" xmlns="http://www.w3.org/2000/svg">
        <path
            d="M194.625 59.11c5.468 4.352 9.76 9.353 12.375 15.89l.031 2.421c1.172 3.12 1.833 3.293 4.758 4.676 1.604.675 3.217 1.33 4.836 1.965 5.694 2.33 11.173 4.622 16.375 7.938.937 2.25.937 2.25 1 4-3.645 1.635-6.762 2.335-10.738 2.632l-3.233.254-3.342.24-3.4.26c-2.762.212-5.524.416-8.287.614-.648 1.916-1.293 3.832-1.937 5.75l-1.09 3.234L201 112l-.766 2.09c-.339 2.765.671 4.273 1.953 6.722 4.916 10.407 7.161 20.251 7.25 31.688l.031 2.535c-.076 5.345-.733 9.32-3.468 13.965a279.88 279.88 0 0 1-5 2c-1.377 2.274-2.457 4.333-3.5 6.75-5.769 13.028-16.404 20.913-29.32 26.472C166 205 166 205 164 205l-.75 2.625c-1.587 4.285-3.378 8.2-7.345 10.69-2.155 1.567-2.155 1.567-2.451 4.32l-.063 3.126-.098 3.39-.043 3.536-.09 3.572A749.452 749.452 0 0 0 153 245l2.738.402 3.575.535 3.55.527C166 247 166 247 169 248v3l-10-1 3 2v3a52.145 52.145 0 0 1-8.625-4.063c-3.217-1.995-3.217-1.995-6.375-2.937l1-3h2c-.11-3.397-.241-6.792-.375-10.188l-.094-2.908-.117-2.822-.095-2.587c-.58-4.534-2.066-7.64-5.444-10.683-1.633-1.48-1.633-1.48-2.875-2.812v-2h-2l-.687 2.187C137 216 137 216 134.437 218.312c-4.88 5.381-3.565 14.243-3.5 21.188l.014 2.781c.012 2.24.03 4.48.049 6.72l14 2v5l-2.047-.255-2.703-.309-2.672-.316c-2.524-.25-2.524-.25-4.672.441-3.391.778-5.865-1.1-8.906-2.562l1-4h2c.035-4.356-.007-8.708-.063-13.063l.034-3.724c.026-6.566.026-6.566-2.486-12.436-1.819-1.79-1.819-1.79-3.787-3.315C119 215 119 215 117.492 211.644c-1.281-2.977-1.281-2.977-4.672-3.633l-3.695-.324-3.68-.363L102 207a141.198 141.198 0 0 1-5-1l-.516 1.976C94.99 213.367 93.398 217.547 90 222l-3.687-.75c-3.487-.46-3.994-.48-7 1.687L77 225c-2.812.25-2.812.25-5 0l-2-4h-2v2c-6.329 4.746-6.329 4.746-10 5l-3-2c-.406-4.949-.256-8.489 2-13l-4-3c.944-6.716 5.004-12.534 10.207-16.817l2.168-1.62c2.878-2.369 2.878-2.369 4.105-5.77.058-1.793.104-3.586.141-5.379 1.913-17.233 12.573-36.594 25.824-47.41 5.514-4.019 11.369-7.149 17.555-10.004-.442-5.254-1.053-10.387-2.063-15.563-2.338-13.714-2.304-26.352 5.75-38.062 18.72-24.36 53.064-27.293 77.938-10.266ZM179 56l6 7c-2.455 4.91-3.695 4.997-8.75 6.687l-3.672 1.262c-11.07 3.251-21.986 2.86-32.641-1.863-2.679-1.585-3.822-2.743-4.812-5.71A82.914 82.914 0 0 1 135 59c-9.235 2.597-14.195 10.321-18.652 18.23-5.33 10.954-2.78 26.111-.004 37.473.698 3.51.765 6.728.656 10.297l-2.93 1.433C105.637 130.673 98.626 135.15 92 142l-1.766 1.773C85.266 149.118 81.531 155.838 80 163l7-2-2.063 2.25L83 166c.316 2.141.316 2.141 1 4l2.117-.875L88.875 168l2.742-1.125C94 166 94 166 96 166l-1.934 1.32c-5.291 3.611-5.291 3.611-8.129 9.117L86 179c5.083-1.196 7.97-2.546 12-6h2l-3.906 4.492c-1.29 1.467-1.29 1.467-1.094 3.508 4.826-.509 7.86-1.87 11.875-4.563l2.93-1.94c1.086-.742 1.086-.742 2.195-1.497l-1 2c-.167 3.041-.167 3.041 0 6 1.17 1.396 1.17 1.396 4.437 1.125 6.342-.89 10.466-5.528 14.563-10.125 4.568-6.56 6.142-11.78 6.063-19.75l-.028-3.547L136 146h2c.906 13.214-.957 22.09-9.563 32.687-4.63 4.887-10.106 8.545-15.722 12.195a476.08 476.08 0 0 0-5.219 3.461c-2.826 1.895-5.658 3.78-8.496 5.657.787 2.143.787 2.143 2.715 2.632 5.833 1.292 11.32 1.592 17.285 1.368l.063 2.5c1.331 4.97 4.408 7.87 7.937 11.5 4.527-1.36 6.251-3.208 8.813-7.125l1.832-2.758L139 206l2.125 2.187c.955.941 1.913 1.88 2.875 2.813l1.492 1.48c3.03 2.851 3.03 2.851 6.992 3.457 3.338-1.244 4.066-2.726 5.766-5.812l1.516-2.68c1.327-2.483 1.327-2.483 2.234-5.445 2.301-1.07 2.301-1.07 5.313-2.125 12.939-5.12 22.745-13.87 28.652-26.387 2.261-5.435 3.332-10.558 3.035-16.488h2l.375 2.937L202 163l2 1c4.018-14.71.907-30.355-6.375-43.625-1.88-3.905-1.925-5.302-.625-9.375l1.563-3.5c1.468-3.575 1.86-5.693 1.437-9.5l-1.063-2c-1.437-3.066-.856-4.754.063-8 .9-1.49 1.818-2.968 2.75-4.438 2.173-3.754 2.173-3.754 1.5-8.125-5.018-8.67-12.476-15.209-21.813-18.812L179 56Zm26 28-2 3.25-1.125 1.828c-1.151 2.176-1.151 2.176-.875 5.922 3.187.03 6.375.047 9.563.062.895.01 1.79.017 2.712.026 5.025.018 9.773-.226 14.725-1.088-3.646-3.095-7.715-4.813-12.063-6.688l-2.181-.97C210.692 85.006 208.377 84 205 84Z" />
        <path
            d="M182 83c2.96 2.59 3.855 4.129 4.5 8-.645 3.871-1.54 5.41-4.5 8-3.982 1.355-6.983 1.42-10.875-.188-2.269-1.934-3.308-2.951-4.125-5.812.154-3.685.553-5.466 2.938-8.312 3.915-3.204 7.3-3.053 12.062-1.688Zm-7 3-1 4h4v-4h-3Z" />
    </symbol>
    <symbol viewBox="0 0 281 256" id="04_Cute-cartoon-chick-illustration" xmlns="http://www.w3.org/2000/svg">
        <path
            d="M165 20c2.29 3.435 2.178 4.985 2 9l3.25-.25c3.75.25 3.75.25 6.25 2C178 33 178 33 177.594 35.141L177 37l2.965 1.469c15.823 8.01 25.31 17.587 32.07 34.304 1.068 3.572 1.404 6.89 1.715 10.602.726 6.964 2.957 10.997 6.853 16.568 7.571 10.888 9.964 24.349 7.709 37.432-2.55 10.203-7.152 19.354-16.312 24.937a112.203 112.203 0 0 1-8 4.063c-2.94 1.593-5.086 3.34-7.625 5.5-7.459 6.099-15.748 9.57-25.375 10.125-.222 4.827-.208 9.303 1 14 3.024 2.694 6.126 3.917 10 5v4l-2.375-1c-2.468-1.119-2.468-1.119-4.625-1l1 5c-4.248-.472-6.2-2.967-9-6l-7 4c0-4 0-4 1.875-6.25C164 198 164 198 166 198v-14l-3.395.035c-1.472.01-2.945.019-4.417.027l-2.237.026c-3.25.015-5.845-.053-8.951-1.088-.4 8.553-.4 8.553 2.625 16.195 1.887 1.573 1.887 1.573 3.879 2.789L155 203v2c-3.344-.557-6.033-1.352-9-3l-2.312 3c-1.301 1.687-1.301 1.687-2.688 3h-3l.5-1.875c.576-2.086.576-2.086.5-4.125l-2.312 1.562L134 205l-3-1c1.018-2.661 1.667-3.805 4.164-5.266L142 196v-13l-3.184-1.102c-9.401-3.334-17.233-6.888-24.816-13.523-2.609-2.065-4.431-3.08-7.438-4.313C97.936 160.401 92.931 154.445 89 146c-5.153-14.51-3.457-28.086 2.5-42.004 1.508-3.012 3.249-5.621 5.188-8.371 3.545-5.3 4.158-9.88 4.808-16.137C103.366 66.546 111.916 54.103 122 46c7.523-4.989 15.109-9.033 24-11 .118-2.954.118-2.954-.625-5.562L145 27l2-2c2.625.375 2.625.375 5 1l1.25-2.875C155 20 155 20 156.812 18.5c3.237-.74 5.215.143 8.188 1.5Zm-6 2c-2.681 2.681-2.387 4.392-2.625 8.125l-.227 3.32L156 36l-4-4v5l-1.625.375c-17.526 4.612-31.195 13.548-40.496 29.176-2.975 5.46-4.532 10.438-5.242 16.601-.841 7.282-2.303 11.472-6.821 17.235-7.686 11.058-9.419 25.036-7.238 38.066 2.131 8.175 5.93 14.105 12.422 19.547a96.69 96.69 0 0 0 6 3l-.586-2.09A984.375 984.375 0 0 1 106 150l-.645-2.312c-1.578-6.177-1.799-12.332-1.355-18.688l1-1 .516 3.77c2.104 14.749 4.569 29.061 16.769 39.113 13.728 8.884 32.074 11.415 48.031 8.398 11.697-2.579 22.191-6.514 29.684-16.281 6.316-10.396 8.75-22.943 8-35l2 1c.7 11.353-1.432 21.297-5 32 6.166-1.734 11.12-6.094 14.555-11.402 6.561-12.599 7-24.532 2.793-38.118-2.588-6.682-6.39-12.543-10.348-18.48a211.153 211.153 0 0 1-1.25-7.938c-1.243-7.87-3.652-14.179-7.75-21.062l-1.254-2.266c-5.591-9.669-13.781-15.787-23.996-20.109-6.835-1.554-10.848.02-16.75 3.375 1.317-3.952 3.026-4.471 6.562-6.562A99.307 99.307 0 0 0 173 35v-2l-9 1c-1.158-3.473-1-6.358-1-10l-1-2h-3Z" />
        <path
            d="M133 76c3.363 2.486 4.801 3.914 5.562 8.062-.698 3.651-1.544 4.794-4.562 6.938-3.138.915-5.111 1.272-8.25.312-2.227-1.669-2.952-2.627-3.75-5.312.214-6.097.214-6.097 2.688-8.938 3.098-1.423 4.934-1.614 8.312-1.062Zm-5 2-2 4 4 1 1-4-3-1ZM187 76c3.323 2.456 4.776 3.926 5.625 8-.857 4.113-2.202 5.597-5.625 8-4.292.151-6.221-.337-9.5-3.125-1.988-3.81-1.709-5.795-.5-9.875 2.912-3.343 5.709-3.701 10-3Zm-6 3-1 4h4v-4h-3ZM159.188 85.313c3.435 2.06 6.622 4.261 9.812 6.688-1.507 3.36-3.438 6-5.813 8.811-.666.812-1.333 1.623-2.02 2.457C159 105 159 105 156.507 105.031c-3.102-1.276-4.625-2.818-6.82-5.344l-2.113-2.362C146 95 146 95 146 91c3.793-3.403 8.028-6.194 13.189-5.688Z" />
    </symbol>
    <symbol viewBox="0 0 281 256" id="05_Cute-cartoon-owl-illustration" xmlns="http://www.w3.org/2000/svg">
        <path
            d="M148.313 34.688c2.688.311 2.688.311 4.938 1.874 2.231 3.11 2.393 5.674 2.75 9.438 1.86 1.861 4.999 1.79 7.5 2.25 6.303 1.325 11.228 3.064 16.5 6.75l1.855 1.27C191.014 63.285 195.62 73.993 198 85c.293 2.58.565 5.165.813 7.75.72 6.237 2.18 9.412 6.312 14.035 8.536 10.083 11.603 24.5 11.16 37.465-1.076 10.387-3.927 18.988-10.222 27.313-2.835 1.976-4.681 1.869-8.063 1.437l-3-2c-.166.68-.33 1.362-.5 2.063-4.534 8.877-14.743 13.41-23.684 16.754-3.093.95-5.542 1.183-8.816 1.183l1 15 3.313 1.313c2.76 1.185 4.86 2.215 6.688 4.687v2l-6-1v4c-3.367-1.442-5.512-3.333-8-6l-1.814 1.5C155 214 155 214 152 214c1.25-3.654 1.67-4.78 5-7a65.29 65.29 0 0 0 .688-7.625L158 192h-15l-.314 7.188c-.046.738-.09 1.475-.138 2.235-.084 4.01.29 5.394 2.97 8.44L148 212v2c-3.486-.645-6.029-2.101-9-4l-.75 2.375c-1.404 2.948-2.256 3.528-5.25 4.625-1-2-1-2-1-4l-4 1-1-2c3.222-3.867 6.15-4.88 11-6l-1-14-5 4c-5.6 1.218-9.246-.101-14-3-2.602-.373-5.167-.561-7.792-.691-2.207-.31-2.207-.31-4.207-2.31-.552-4.846.605-7.81 3-12-3.466-3.464-3.466-3.464-7-7l-2 2c-2.752.564-2.752.564-6 0-6.543-4.827-9.677-13.828-11.623-21.424C79.96 135.14 84.18 119.876 93.002 106c2.23-2.528 2.23-2.528 4.373-4.624 4.399-4.484 4.583-8.726 5.154-14.81 1.63-12.306 8.853-21.888 18.05-29.742C127.16 51.867 133.952 49.43 142 48l-1-6 2-1 2 1-.063-2.937c.08-3.93.08-3.93 3.375-4.374Zm10.812 36.061C156 73 156 73 154.118 72.797c-3.374-1.27-6.493-2.969-9.68-4.64-6.466-3.069-13.346-3.013-20.125-.907-7.17 2.68-12.492 6.719-16.29 13.493-3.379 7.61-3.162 16.06-.21 23.757 1.09 2.505 2.127 4.427 3.854 6.55 1.334 1.95 1.334 1.95.834 5.638a194.585 194.585 0 0 1-1.5 5.311c-.194.654-.386 1.309-.584 1.982-1.805 6.136-1.805 6.136-2.651 8.903-3.336 11.012-4.838 22.224.261 32.898.974 2.218.974 2.218 1.329 4.75 1.317 5.046 6.5 7.698 10.645 10.468 14.904 8.298 32.657 9.369 49.124 5.438 10.014-3.126 18.681-8.072 23.875-17.438 7.305-15.625 6.101-30.882 1-47a195.254 195.254 0 0 0-1.938-4.75L191 114c1.188-2.063 1.188-2.063 3-4 1.916-5.204 2.166-9.573 1.438-15-.094-.731-.186-1.464-.282-2.218C193.806 83.338 191.568 73.19 185 66c-7.945-3.689-19.322-.287-25.875 4.75ZM91 119c.328.99.659 1.982 1 3 .328-.989.659-1.98 1-3h-2Zm-1 3c-1.258 2.907-2 4.797-2 8 .659-.328 1.319-.658 2-1a109.15 109.15 0 0 0 1-7h-1Zm2 2 1 2Zm118 7 1 4Zm-108 1v2h2v-2h-2Zm-1 2-1 5 1-2c.659-.328 1.319-.658 2-1-.66-.658-1.32-1.319-2-2Zm100 0 1 3Zm2 2 1 2Zm-102 5 1 2Zm101 0 1 4Zm4 1 1 2Zm-4 6 1 2Zm-108 5v1h5v-1h-5Zm-6 1 2 4-1-4h-1Zm3 0 1 2Zm-1 4 2 2v-2h-2Zm22 24v4h2v-4h-2Zm12 9v1h6v-1h-6Z" />
        <path
            d="M132 81c2.781 1.925 3.732 3.303 4.938 6.438.083 3.409-.851 4.9-2.938 7.562-2.523 1.914-3.808 2.004-7 1.938-3.866-1.209-5.071-2.388-7-5.938.06-3.468.39-5.888 2.062-8.938 3.197-1.752 6.441-1.697 9.938-1.062Zm-6 2-2 4 3 2 2-1-1-5h-2ZM178 80.375c4.148.864 5.605 2.142 8 5.625.436 2.946.17 5.259-1 8-2.688 2.125-2.688 2.125-6 3-3.131-.614-5.234-1.489-7.875-3.25-1.773-2.758-1.638-4.546-1.125-7.75 2.456-3.323 3.926-4.776 8-5.625ZM174 84l1 5 4-2-2-4c-1.224-.075-1.224-.075-3 1ZM156 90.313l2.062.237C160 91 160 91 163 93c.454 2.974.227 4.567-1.172 7.239l-1.578 2.073-1.547 2.114C157 106 157 106 153 106c-1.887-1.392-1.887-1.392-3.688-3.25-.601-.605-1.203-1.208-1.824-1.83-1.585-2.047-2.24-3.35-2.488-5.92 3.193-3.993 5.956-5.329 11-4.689Z" />
    </symbol>
    <symbol viewBox="0 0 281 256" id="06_Cute-cartoon-owl-illustration" xmlns="http://www.w3.org/2000/svg">
        <path
            d="M163.656 58.648c3.207 1.85 4.821 1.286 8.344.352l3.125-1.063C178 57 178 57 182 57c-.02.948-.04 1.897-.063 2.875-.163 3.031-.163 3.031 1.063 5.125l-1.313 2.5c-.965 4.915 1.076 6.822 3.707 10.886 5.447 8.865 5.692 19.481 4.606 29.614a111.956 111.956 0 0 1-1.875 6.312c-1.474 4.958-.824 7.31 1.562 11.875l1.74 3.02c5.624 9.98 4.572 22.733 1.948 33.48C188.468 179.145 178.893 189.625 164 198l-2.23 1c-2.107.967-2.107.967-3.208 4-1.562 3-1.562 3-4.25 4.375L152 208v5l9 3v3l-8-1-2 6-3-1-1-5-9 1 2-4c3.125-.75 3.125-.75 6-1-.189-2.445-.189-2.445-1-5a88.222 88.222 0 0 0-4-2c-.75-2.125-.75-2.125-1-4h-5l-.813 2.437L133 208l-3 1-1 5 7 2v3c-3.2 1.6-5.723.031-9-1l-1 7h-2l-3-6-7 1v-4l9-2v-5l-1.875-.875C119 207 119 207 117 205l-2 1.5c-4.01 2.005-6.544 1.792-11 1.5l-2-1c-2.29.252-4.539.642-6.809 1.04-2.19-.04-2.19-.04-3.976-1.392C90 205 90 205 90 203l-2.188.687c-3.568.397-4.95-.644-7.812-2.687.507-4.774 1.81-7.735 4.5-11.688 1.913-2.835 3.416-5.062 4.5-8.312-1.08-2.129-1.08-2.129-2.688-4.375-7.839-12.7-9.4-27.005-6.547-41.52 1.318-4.574 2.625-8.609 5.61-12.355 1.891-3.2 1.702-3.877.937-7.375A170.434 170.434 0 0 0 85 111c-3.17-10.37-1.227-22.28 3-32a75.697 75.697 0 0 1 6-9l-2-2c-.196-2.602-.196-2.602-.125-5.625l.054-3.039L92 57c7.517.751 7.517.751 10.187 2.125 2.598 1.254 4.037.59 6.813-.125 2.016-.794 4.016-1.63 6-2.5 14.29-6.27 35.162-6.226 48.656 2.148ZM130 57v1h5v-1h-5Zm10 0v1h5v-1h-5Zm-17 1 1 2 2-1-3-1Zm13-1-1 2-2 2c-.643 2.068-.643 2.068-1 4h2v2l-5-1v2l-1.906-.657C121.485 65.52 116.89 64.673 111 65l-1-2-1.688.625c-2.97.481-4.569-.5-7.312-1.625l-3 1v4h2c-1.466 2.465-2.945 4.913-4.5 7.324C88.838 84.82 86.605 94.511 88 107c1.196 4.842 3.026 9.424 5 14h-2l-2 5 2 2-2 2 4 1c-1 2-1 2-2.848 2.632l-2.215.493-2.222.507L84 135c-1.163 4.634-1.184 9.13-1.188 13.875l-.037 2.355c-.012 4.977.633 9.051 2.225 13.77l1-2 2.375.062c2.606.124 2.606.124 4.625-1.062v2l1.812.812c2.16 1.172 3.546 2.381 5.188 4.188 1.754-5.262 2.136-9.948 2.125-15.5l.008-3.907c-.112-3.016-.425-5.67-1.133-8.593l-1 4-7 1 1-5-5-3c3.088-1.765 4.233-2 8-2v-3l5 1c1.704 5.338 2.62 10.41 3 16l.164 2.351c.267 7.842-1.095 15.398-2.41 23.098-.712 4.172-1.259 8.347-1.754 12.551 5.544 4.12 10.75 7.65 17.285 9.98C120 199 120 199 120.61 200.996L121 203c2.125 2.025 2.125 2.025 5 3 3.268-.7 3.268-.7 6-2v-3l11-1v4c2.175 1.32 3.431 2.071 6 1.75l2-.75 2.187-.75L155 203l.222-2.364C156 198 156 198 158.765 196.191l3.485-1.629c5.368-2.52 8.7-4.5 11.75-9.562-.31-2.987-.783-5.138-1.688-7.938-2.032-7.446-2.725-14.41-2.687-22.125l-.003-2.88c.086-5.744.373-11.615 2.378-17.057l2-1c-.16 1.225-.323 2.451-.489 3.714-.657 5.95-.695 11.868-.699 17.848l-.037 3.287c-.01 6.083.44 11.328 2.225 17.151h2l.75-3.375C179 169 179 169 181.125 167.562L183 167l-1-5 7 1c4.414-11.344 2.618-24.432-2.02-35.414-1.713-3.984-1.713-3.984-4.98-6.586l.621-1.829c.27-.799.54-1.598.816-2.42l.81-2.392c3.533-11.06 3.206-23.483-1.872-33.94-1.145-2.014-2.318-3.949-3.625-5.857-2.469-3.615-2.982-6.074-2.313-10.375.28-1.083.28-1.083.563-2.187l-2.563.437L171 63l-3.5.812c-4.498.241-5.92-1.203-9.5-3.812-4.118-1.445-7.636-2.265-12-2l1 3h-2v3l-3-2h-3v-5h-3Zm-24 5 1 2 2.117-.473 2.758-.59 2.742-.598C123 62 123 62 125 63l-1-3c-4.933-1.645-7.54-.187-12 2Zm15-2v1h5v-1h-5Zm2 2v2h2v-2h-2Zm-30 72 1 3Zm-13 31 1 2Zm8 0 2 2v-2h-2Zm-2 1 1 2Zm.375 2.25L91 170c.227 2.163.227 2.163 1 4l2-1c.657-3.03.657-3.03 1-6-1.21-.102-1.21-.102-2.625 1.25ZM96 167l1 2Zm2 2 1 2Zm83 2c-.467 2.125-.467 2.125-.625 4.562l-.227 2.504L180 180c2.743-3.2 4.63-6.005 6-10-2.926-.224-2.926-.224-5 1Zm-82 0-1 3 2 2v-5h-1Zm-5 3-2 4 3 3v-7h-1Zm-2 12c-3.49 3.821-6.448 8.032-8 13 4.167.508 6.384.008 9.687-2.438l1.7-1.37C97 194 97 194 100 193l-6 10c3.287.8 4.71 1.096 8 0l1-3c2.062-.688 2.062-.688 4-1l-1 5c4.79.234 4.79.234 9-2v-2l-2.52-1.207-3.293-1.606-3.269-1.582c-2.515-1.384-3.982-2.57-5.918-4.605h-2v-2c-2.637-2.399-2.637-2.399-6-3ZM136 62l2 1Z" />
        <path
            d="M138 63h4v2h-5l1-2ZM161 64l2 1ZM155 65l2 1ZM137 66l2 1ZM144 66l2 1ZM140 67l2 1ZM147 67l2 1ZM131 69l2 1ZM107 91l1.75 1.125L111 93a88.747 88.747 0 0 0 4-2c3.615-.452 5.301-.491 8.312 1.625C125.412 95.58 126 97.369 126 101c-1.918 3.452-3.215 4.716-6.938 6.062-3.957-.08-5.308-1.308-8.062-4.062-1.354-2.709-1.065-5.009-1-8l-3-1v-3Zm7 3v4l4-1-1-3h-3ZM166 92l2-1-1 4h-2l.188 3.25C165 102 165 102 163.875 104.375c-2.624 2.274-4.423 2.556-7.875 2.625-4.565-2.13-4.565-2.13-6-5-.355-3.836-.547-6.146 1.562-9.438 4.627-2.965 9.337-1.582 14.438-.562Zm-13 2v4l3 1 2-3-1-2h-4ZM143 106l2 3c-.539 2.594-.539 2.594-1.625 5.5l-1.039 2.906c-1.432 2.78-2.712 3.955-5.336 5.594-4.355-4.936-6.391-9.359-6-16 4.02-2.847 7.417-1.961 12-1Zm-8 5 1 2ZM88 135l3 1ZM175 136l2 1ZM175 153l2 1v2h4l-1 5h-3c-1.765-3.088-2-4.233-2-8ZM94 155h5c-.875 4.75-.875 4.75-2 7h-2l-1-7Z" />
    </symbol>
    <symbol viewBox="0 0 281 256" id="07_Cute-cartoon-bird-illustration" xmlns="http://www.w3.org/2000/svg">
        <path
            d="M148.875 21.313C150 23 150 23 150 27l3.187-.689C157 26 157 26 159.875 27.063 162 29 162 29 163.063 31.813c-.081 4.113-1.562 6.005-4.063 9.189l2.258.789c9.594 4.236 15.364 15.172 19.031 24.483 2.468 7.475 4.095 15.05 3.56 22.959-.347 6.93 1.331 11.127 4.838 17.019C196.259 119.773 201.506 133.3 201 149c.804-.166 1.609-.332 2.437-.5 2.794-.393 5.439-.66 8.25-.75l2.262-.08c2.638.423 3.366 1.298 5.051 3.33l1.422 1.612c2.358 3.018 3.55 4.661 3.703 8.575-1.392 3.48-2.987 4.822-6.125 6.813h-2l.375 2.186C216 173 216 173 213.5 175.813c-2.941 2.163-5.371 2.795-9.086 2.56-4.176-.643-8.265-1.603-12.363-2.619-1.007-.247-2.014-.496-3.051-.752-.822-.263-1.645-.525-2.492-.793-3.674-.304-5.747 1.15-8.945 2.917C166.709 182.895 154.48 188.238 142 188c.07 3.4.24 6.678 1 10 2.373 2.214 2.373 2.214 5 3l-1 3-2.563-.813c-4.314-.235-5.634.992-8.824 3.684-1.613 1.13-1.613 1.13-4.613 1.13l1-4h-3a94.603 94.603 0 0 1-4-1c.813-1.939.813-1.939 2-4 2.751-.918 4.359-1.11 7.187-1.064L138 198v-10h-18c-.763 6.627-.763 6.627 2 9.313l2 1.688v2a2719.84 2719.84 0 0 0-3.063-.314c-4.502.357-6.05 1.464-9.359 4.316l-1.578.998c-.99-.332-1.98-.66-3-1l1-3h-6c.33-2.476.58-3.665 2.563-5.25 3.546-1.093 6.732-.875 10.437-.75v-10l-3.012-.282c-4.342-.629-7.913-2.243-11.801-4.219l-2.11-1.061c-6.919-3.631-12.308-8.456-17.659-14.11-1.519-1.55-1.519-1.55-4.293-2.767-8.001-4-12.256-10.199-15.172-18.566-4.201-15.515-.632-27.903 7.012-41.649 2.035-3.346 2.035-3.346 4.289-5.823 2.408-3.48 2.011-5.781 1.746-9.962-.511-14.92 4.986-27.895 14.5-39.25 7.787-8.147 16.567-12.89 27.437-15.374 5.768-1.343 8.806-2.735 12.583-7.259 5-5.672 13.65-9.06 20.355-4.366ZM143 23l-1 3h2l1 2 1-4c-.99-.33-1.98-.662-3-1Zm13 8 2 2v-2h-2Zm-31 4c-2.603.32-2.603.32-5 1 1.952 1.952 3.532 2.848 6 4l1-3-2-2Zm7 5v2l4-1-4-1Zm16 4-1 2c-3.079 1.834-6.328 2.739-9.75 3.75-4.941 1.602-8.578 3.536-12.531 6.882-1.812 1.44-3.622 2.401-5.719 3.367l-2-2.188c-5.787-5.72-10.964-8.108-19-8.811l-1-2C86.69 54.903 81.004 65.39 78 78c-.681 6.285-.679 12.816.641 19.002.465 3.885-.406 6.697-1.516 10.434-4.598 15.675-5.615 34.3 1.771 49.394 7.306 13.166 18.999 20.24 32.842 25.138 22.428 6.417 44.964 1.192 65.262-8.969 2.348-1.587 2.348-1.587 4-3-1.123-.23-2.246-.462-3.402-.7-13.326-2.855-23.293-6.336-31.399-18.097-6.347-11.66-7.305-24.538-4.199-37.203l.629-2.597c1.622-5.998 4.138-11.113 7.371-16.403l2.195.106c5.725.16 9.876.18 14.805-3.105l2-2a87.703 87.703 0 0 1 4-2c-3.244-4.709-3.244-4.709-8.313-6.877L162 81.001v-2c.763-.27 1.526-.537 2.313-.814 2.679-1.183 3.885-1.934 5.687-4.186.573-2.273.573-2.273.687-4.689l.2-2.448L171 65l3-1a601.185 601.185 0 0 0-1.875-3.876l-1.055-2.178c-1.036-2.097-1.036-2.097-3.07-3.945l-1.875-.377c-2.125-.623-2.125-.623-3.875-2.623-3.272-2.91-5.934-2.713-10.25-3l1-3-5-1Zm9 1 1 3c.99.328 1.98.659 3 1l-2-4h-2Zm-42 8 1 3Zm58 12 1 3 1-3h-2Zm2 3 1 2Zm1 2 1 2Zm1 4 1 2Zm0 5-2 2h2v2h-5c.99.328 1.98.659 3 1l1 5c2.354-2.552 2.983-3.712 3.187-7.25L179 79h-2Zm1 8 1 2Zm-8 6v2h2v-2h-2Zm-3 1c-.99.658-1.98 1.319-3 2 1.32.328 2.64.658 4 1l-1-3Zm16 14-1 4c1.32.328 2.64.658 4 1v2h-2c.703 2.508.703 2.508 2 5 2.015.733 2.015.733 4 1l1 2c-.604-3.852-1.768-6.863-3.563-10.314l-1.378-2.675L185 108h-2Zm-4 2c.66.658 1.32 1.319 2 2v-2h-2Zm7 11 1 2Zm-34 2v2c2.31.328 4.62.658 7 1l-1-2c-3.029-.659-3.029-.659-6-1Zm-88 2v15c1.32.328 2.64.658 4 1v-2h2v-7l-5-1c1.255-2.511 2.501-2.873 5-4l-6-2Zm107 0v2h2v-2h-2Zm-27 1c-.422 6.322.847 12.042 3 18 .66.658 1.32 1.319 2 2l4-2v-2h-2l1-5-3-1v-2h-3l-1-7c.99.328 1.98.658 3 1v-2h-4Zm24 1v2l3-1-3-1Zm7 0 1 2Zm-29 1 1 4 3-1h-2l-1-3h-1Zm-78 1 1 2Zm91 4-1 2c1.32.328 2.64.658 4 1v-3h-3Zm-5 0c-.66.658-1.32 1.319-2 2h3l-1-2Zm-89 8 1 2Zm125 3v3c1.833 1.124 1.833 1.124 4 2 .99-.332 1.98-.66 3-1l-1-4c-.99.658-1.98 1.319-3 2l-3-2Zm-4 4-2.375 2.874c-1.489 1.803-2.969 3.469-4.625 5.125l4 2 3-3h-2c2.174-2.5 3.73-3.436 7-4l-5-3Zm7 5-1 2h3l-1 3h2v-4c-.99-.332-1.98-.66-3-1Zm8 1 1 2 1-2h-2Zm-29 2v1h5v-1h-5Zm12 1 1 2Zm5 2 2 2v-2h-2Zm-17 0-3 3v-2l-6 1c2.972 1.98 4.511 2.659 8 3 2.269-.841 2.269-.841 4-2l1 3h10c-3.911-3.675-6.704-4.501-12-5-.66-.332-1.32-.66-2-1Zm42 2-1 3c1.65-.332 3.3-.66 5-1l-1-2h-3Zm-4 8-1 4c.99-.332 1.98-.66 3-1l-1-3h-1ZM124 37l2 1ZM150 46l2 1ZM145 47l2 1ZM148 47l2 1ZM158 50l2 1ZM160 51l2 1Z" />
        <path
            d="M165 55h2l-1 2-1-2ZM104 69c2.5 2.188 2.5 2.188 4 5-.063 3.165-.456 5.124-2.125 7.812-2.896 1.834-5.49 2.01-8.875 2.188-2.796-.956-3.676-1.353-5-4-.691-7.141-.691-7.141 2.062-10.562 3.887-1.903 5.827-1.709 9.938-.438Zm-8 2-1 4 4 1 1-4-4-1ZM152 69c2.909 1.745 3.028 3.102 3.938 6.438C156 79 156 79 154.5 81.375 151.197 83.522 148.938 84 145 84c-3.506-1.905-4.705-3.184-6.062-6.938.08-3.957 1.308-5.308 4.062-8.062 3.15-1.575 5.635-.708 9 0Zm-8 2-1 4 4 1 1-4-4-1ZM121.313 77.938c4.337 1.25 5.871 2.828 8.718 6.175.97 1.886.97 1.886.75 3.993-2.091 5.07-7.925 7.079-12.598 9.258-2.486.724-3.77.483-6.183-.365-1.192-3.721-1.335-7.112-1-11 2.597-4.745 4.58-7.953 10.313-8.061Zm-5.063 5.624c-1.663 3.243-1.457 5.847-1.25 9.438 1.463-.398 2.92-.819 4.374-1.25l2.462-.704c2.621-1.268 3.157-2.37 4.165-5.047-1.75-2.082-1.75-2.082-4-4-3.895-.444-3.895-.444-5.75 1.564ZM177 83l1 2-2 2 1-4ZM146 137l2 1ZM149 137h2l-1 3-1-3Z" />
    </symbol>
    <symbol viewBox="0 0 281 256" id="08_Black-and-white-bird-illustration" xmlns="http://www.w3.org/2000/svg">
        <path
            d="m150.063 9.313 3.606.644 3.428.656c1.016.195 2.032.388 3.08.588 3.037.86 5.27 1.947 7.823 3.8.645 3.592-.166 5.903-2 9l2.313.75c3.004 1.396 4.178 2.313 5.688 5.25-.242 3.37-.589 4.586-3 7 0 2.046 0 2.046.405 4.378.481 3.895.594 7.543.375 11.46-1.07 13.279-1.07 13.279 4.344 24.849C178.524 80.06 178.524 80.06 181 82l1.934 1.75c1.718 1.555 1.718 1.555 4.066 3.25 4.67-1.4 7.262-4.044 10.375-7.627l1.459-1.632A585.775 585.775 0 0 0 203 73l2.024-2.325 1.726-1.987c11.416-13.079 11.416-13.079 18.45-13.966 4.68-.193 8.204-.002 11.8 3.279 4.707 7.53 2.577 15.664 1 24 .805.617 1.608 1.236 2.438 1.873 3.06 2.54 3.45 3.223 3.937 7.127-.399 12.143-11.444 20.989-19.375 29-.536.542-1.07 1.087-1.623 1.646A680.122 680.122 0 0 1 215 130c.445.52.89 1.038 1.347 1.575 4.62 5.692 4.62 5.692 4.778 9.175-1.395 2.792-2.625 4.358-5.125 6.25-3.25.75-3.25.75-6 1l-.25 1.75c-1.01 3.032-2.24 4.268-4.75 6.25-3.036 1.094-6.007 1.825-9.184 2.387-5.215.934-9.966 2.325-14.941 4.175-5.061 1.88-9.495 3.115-14.875 3.438l-1 7-2.938.938c-2.903.758-2.903.758-4.062 2.063-2.69-.178-5.328-.62-8-1l-1 12 2.875.936C155 189 155 189 157 190v4l-1.938-.5c-7.875-1.286-12.802-.651-19.8 3.406C133 198 133 198 129 198l1-4h-6l-1-5-2.047.91-2.703 1.153-2.672 1.16c-2.73.823-3.948.754-6.578-.223l1-3h-6c0-4 0-4 1.624-6.188 2.898-2.21 4.76-2.59 8.377-2.812l5 1-1-11-5-2c-1.345-1.882-1.345-1.882-2.5-4.125-2.653-4.285-5.399-6.304-9.75-8.813C86.547 146.869 78.323 134.694 74 119a97.662 97.662 0 0 1-.5-5.063c-.249-1.948-.249-1.948-.5-3.936-1.944-1.154-1.944-1.154-4-2-3.725-7.449.606-17.606 3-25 2.536-7.382 5.248-14.698 8-22a342.221 342.221 0 0 0-4.75-.127l-2.672-.07c-2.692.204-4.278.83-6.578 2.197-2-2-2-2-2.119-4.172.527-5.61 1.148-9.562 5.119-13.828 4.7-3.29 9.198-5.554 15-6 .163-1.26.328-2.517.5-3.813 2.13-9.394 8.847-16.65 16.78-21.755 15.827-8.345 31.774-7.21 48.781-4.12Zm-53.688 12C94.48 23.526 94.48 23.526 93 26l-1.623 2.401c-2.38 3.88-3.377 5.95-3.377 10.599.906.37 1.814.742 2.75 1.123 4.678 2.7 6.65 5.78 8.123 10.938.144 3.349-.161 5.059-1.873 7.939-4.181 3.565-7.764 3.266-13 3-2.83 6.857-5.362 13.768-7.689 20.812-.306.915-.614 1.828-.931 2.77-.294.888-.59 1.773-.892 2.686l-.797 2.394c-1.444 4.877-1.791 9.246-1.691 14.338 1.483-.497 1.483-.497 3-1 .108.625.218 1.251.331 1.897.159.818.318 1.635.48 2.477.151.813.303 1.624.457 2.46.606 2.524.606 2.524 3.731 4.166 2.9-2.397 3.501-4.314 4-8h2c.124.762.248 1.525.374 2.311.508 2.89.508 2.89 2.627 5.689 5.037-.839 7.12-4.032 10-8 1.835-3.25 1.835-3.25 3-6l1.623.436c.785.187 1.569.371 2.377.564l2.936.811c3.103.456 3.103.456 5.688-1.188 3.844-4.248 5.537-9.236 7.418-14.596 3.15-8.508 7.394-13.04 14.695-18.275 4.874-3.639 7.466-8.025 9.262-13.752 1.506-10.607-.685-18.054-6.871-26.58-7.362-8.373-18.351-9.669-28.885-10.553-5.52-.24-9.46-.281-13.87 3.445ZM161 29v2c.66-.33 1.32-.662 2-1-.66-.33-1.32-.662-2-1Zm6 0-1 2a78.897 78.897 0 0 1-5 2l1 2c3.61-.657 3.61-.657 7-2l-1-4h-1Zm-4 8c.99 1.483.99 1.483 2 3v-3h-2Zm2 3 1 2Zm-94.126 8.373c-2.108 2.954-2.623 5.033-2.873 8.627l1.867-.47c5.293-.898 10.645-.93 16.004-1.136l2.635-.114 2.395-.091c2.29-.127 2.29-.127 5.099-1.19-.45-4.833-1.44-7.632-5-11-6.788-2.814-14.678 1.234-20.127 5.374Zm13.127 9.627v1h9v-1h-9Zm150 5c-.332 2.64-.66 5.28-1 8l2 1v-9h-1Zm-24 8v3l2-2-2-1Zm-44 2v2l2-1-2-1Zm2 2-1 2 3-1-2-1Zm70 12v3Zm-116 2-1 5 2.436.373 2.564.627 1 2h2c.328-1.651.659-3.3 1-5h2v-2c-3.436-.626-6.492-1-10-1Zm72 0c-.992.989-1.98 1.98-3 3 1.319.989 2.638 1.98 4 3 .33-.99.659-1.982 1-3-.66-.99-1.32-1.982-2-3Zm-71 6 1 2Zm11 1v2l2-1-2-1Zm-8 3 1 2Zm73 1v2l2-1-2-1Zm5 3 1 2Zm-2 1 1 2Zm-21 2c-.662 3.024-1.095 5.983-1.376 9.061-.596 3.758-.994 5.308-3.625 7.939-4.052 2.024-8.537 2.13-13 2 1.198 3.083 2.477 6.061 4 9l5-2v-2c.698-.195 1.398-.388 2.118-.587 1.365-.39 1.365-.39 2.757-.79l2.743-.772c2.528-.713 2.528-.713 4.382-2.852.501-2.294.501-2.294.688-4.876l.262-2.617c.049-2.41-.326-4.2-.95-6.507.438-2.25.438-2.25 1-4l-4-1Zm-95 15 1 2Zm-6 1 1 2Zm3 0 1 2Zm-2 2v2l2-1-2-1Zm99 5 3 2v-2h-3Zm-36 12c.99.99 1.98 1.978 3 3l-1-3h-2Zm71-2v2l-3 1 3 1c.33-1.32.658-2.64 1-4h-1Zm-8 3c-.332.659-.66 1.319-1 2h6c-2.383-1.415-2.383-1.415-5-2Zm-69 1 1 2Zm-43 1 1 2Zm54 1 2 2v-2h-2Zm-51 1-1 2h2l-1-2Zm43 1c.328.659.659 1.319 1 2 .659-.332 1.319-.66 2-1-.992-.332-1.982-.66-3-1Zm62 1 1 2 1-2h-2Zm-79 8v2l-3 1c1.831 1.124 1.831 1.124 4 2 3.276-.752 3.276-.752 5-4-2.977-.703-2.977-.703-6-1Zm-6 0-2 2 4 1-1-3h-1Zm5 10 4 1Zm0 4v13c2.242-1.813 2.242-1.813 2.194-4.383-.022-.905-.046-1.81-.07-2.743l-.055-2.757c-.022-.7-.046-1.398-.07-2.118l-2-1Zm5 3v9c4.163 2.478 4.163 2.478 8.874 2.686L139 184c1.099-3.297.871-4.405.063-7.688l-.59-2.449c-.157-.614-.313-1.23-.473-1.863-3.938-1.225-6.161-.483-10 1Zm15 2v13c-1.651.33-3.302.659-5 1 3.623 1.207 4.64.542 8-1a589.34 589.34 0 0 0-.376-5.939c-.105-1.653-.105-1.653-.21-3.34L145 176l-2-1ZM102 19l3 1Z" />
        <path
            d="M117 37c3.363 2.486 4.801 3.914 5.562 8.062C122 48 122 48 120.438 50.375c-3.388 2.258-5.44 2.186-9.438 1.625-2.938-1.562-2.938-1.562-5-4-.625-3.5-.625-3.5 0-7 3.295-3.78 6.052-4.928 11-4Zm-6 3-1 4h4l1-2-1-2h-3ZM124 91l5 1-2 1-1 2v-2h-2v-2ZM193 92l2 1ZM124 158l2 1Z" />
    </symbol>
    <symbol viewBox="0 0 281 256" id="09_Simple-drawing-of-a-bird" xmlns="http://www.w3.org/2000/svg">
        <path
            d="M137 13c2.375 1.188 2.375 1.188 4 3 1.08 3.323 1.12 4.641 0 8l2-1c5.169-.591 10.333-1.152 14.625 2.188 3.468 4.106 3.468 4.106 3.375 7.812-1.386 2.837-2.77 4.77-5 7l1.574 1.547c10.133 10.563 13.797 23.42 13.729 37.746.328 11.37 6.867 21.213 12.822 30.519l1.99 3.148c4.603 7.215 9.432 14.208 14.615 21.017C203 137 203 137 204.828 140.406c1.988 2.985 1.988 2.985 5.676 2.961a95.35 95.35 0 0 0 4.058-.492c1.436-.145 2.873-.289 4.309-.43l2.129-.237c6.823-.709 13.161-1.296 19 2.792 1.938 1.812 1.938 1.812 3 4-.375 2.938-.375 2.938-1 6l.688 2.562c.312 2.438.312 2.438-1.126 5-5.056 4.81-9.536 6.686-16.562 6.938-6.757-.197-12.993-1.726-19.469-3.527L202 165l-2.512-.883c-3.905-.184-6.607 1.941-9.8 3.945C173.874 177.401 155.546 183.553 137 183c-.254 6.758-.254 6.758 2.402 12.621 1.811 1.222 1.811 1.222 4.598 2.379l-1 3-1.688-.395c-4.823-.871-7.544-.901-11.687 1.895l-1.898 1.469L126 205l-3-1 1-4c-2.249-.048-2.249-.048-5.438.5-3.562.5-3.562.5-6.562.5l1-4h-4l-3-1c.688-1.918.688-1.918 2-4 2.312-.863 2.312-.863 5-1.312l2.688-.489C118 190 118 190 120 191v-10l-3.25-.188c-15.394-1.981-29.394-12.351-38.688-24.304-10.245-14.883-12.834-32.035-9.945-49.637 1.33-5.83 3.078-11.526 4.938-17.208l.8-2.487.739-2.222C75.212 82.8 75.212 82.8 74 80c-1.86-1.233-1.86-1.233-4.062-2.188l-2.223-1.042L66 76c.608-3.042 1.496-4.641 4.031-6.445C76.287 66 76.287 66 80 66l.188-3.875C81.317 52.391 86.892 44.497 94 38c6.13-4.572 15.135-10 23-10l.75-2.688c2.097-5.557 5.197-8.848 10.383-11.585 3.092-1.204 5.613-1.157 8.867-.727Zm-14 10a77.512 77.512 0 0 0-1.5 4.062c-1.436 3.32-2.382 3.888-5.797 5.348-1.988.641-3.988 1.225-5.994 1.806-9.988 2.926-17.936 10.098-23.064 19.186C84.904 57.178 83.535 60.851 83 65l3.25.688c4.202 1.47 5.477 2.553 7.75 6.312 1.209 3.224 1.182 4.5 0 7.75-2 2.25-2 2.25-5.375 3.125-3.173.109-5.564-.191-8.625-.875-9.362 21.165-11.876 41.939-3.973 63.848 6.186 13.89 18.896 23.744 32.805 29.086 25.428 8.559 51.088 3.983 74.672-7.664 6.44-3.381 12.532-7.114 18.496-11.27a815.866 815.866 0 0 1 3.562-2.375L208 152c-1.252-3.756-2.569-4.31-5.812-6.5-6.585-4.631-12.358-9.965-18.188-15.5l3-1c2.043 1.215 2.043 1.215 4.188 2.938l2.167 1.714L195 135c-1.371-3.794-3.117-6.866-5.414-10.176l-2.046-2.983-2.165-3.153c-10.324-15.397-16.784-26.109-17.973-44.754-.801-11.655-5.156-22.863-13.632-31.102a111.29 111.29 0 0 0-4.266-3.492L148 38v-2l2.812.188c3.124.078 3.124.078 5.126-1.438 1.261-1.704 1.261-1.704.937-3.812-.828-2.289-.828-2.289-3.875-3.938-6.897-.769-13.342.254-20 2l1.375-2.25A89.514 89.514 0 0 0 138 20c-1.666-3.258-1.666-3.258-4.688-3.562-4.665.792-7.29 2.971-10.312 6.562ZM71 73v2c2.203.872 4.41 1.722 6.625 2.562l3.727 1.442c3.759 1.026 5.917.955 9.648-.004.794-1.747.794-1.747 1-4-1.148-2.244-2.21-4.21-4-6-6.423-.683-11.194 1.383-17 4Zm140 74 .5 3.188c-.5 3.812-.5 3.812-2.281 5.32a83.39 83.39 0 0 1-4.469 2.449L203 159v2c15.133 4.721 15.133 4.721 30.562 2.75 2.396-1.72 3.888-3.253 5.438-5.75-.982-1.659-.982-1.659-3-3a71.8 71.8 0 0 0-8.188-.188l-2.271.042A465.68 465.68 0 0 0 220 155v-4h18v-3c-8.75-3.182-17.928-2.396-27-1Zm-86 35v10l8 1v-10l-8-1Z" />
        <path
            d="M123 63c2.82 2.365 2.979 3.828 3.438 7.5-.438 3.5-.438 3.5-2 5.938C121.017 78.63 118.99 78.63 115 78c-3.427-2.479-4.813-3.855-5.5-8.062.547-3.217 1.208-4.646 3.5-6.938 3.795-1.265 6.124-.9 10 0Zm-6 2-2 1v4h4l1-3-3-2ZM121 114l3 1 .191 2.352c1.269 11.188 5.189 22.521 13.871 30.195 11.584 8.688 24.743 13.038 39.36 10.969L180 158v-2l-2.562-.75c-3.822-1.39-6.957-3.161-10.438-5.25l1-3c2.81.887 5.557 1.797 8.238 3.023 6.435 2.894 11.744 3.457 18.762 2.977-2.731-3.126-6.167-5.078-9.688-7.188l-1.837-1.115c-1.49-.903-2.982-1.8-4.475-2.697l1-3c4.733 1.372 8.683 3.43 12.812 6.062l1.772 1.104c4.24 2.658 4.24 2.658 5.416 3.834.312 2.375.312 2.375 0 5-3.138 3.116-5.62 3.345-9.938 3.438-5.011.286-7.424.924-11.062 4.562-10.579 3.424-23.455-.101-33.188-4.562-12.474-6.762-20.187-16.229-24.687-29.563-1.288-4.737-1.436-8.984-1.125-13.875l1-1Z" />
    </symbol>
    <symbol viewBox="0 0 281 256" id="10_Cute-cartoon-owl-illustration" xmlns="http://www.w3.org/2000/svg">
        <path
            d="M146 5c6.385.368 6.385.368 9.375 3.438 2.639 4.161 2.717 6.611 2.625 11.562l3.75.188c12.266 1.39 22.859 8.122 30.594 17.527 5.655 7.802 8.085 15.669 10.031 24.973 1.545 7.287 2.981 11.977 8.566 17.171 8.261 8.59 11.86 22.151 12.149 33.746-.541 12.707-4.233 22.196-13.09 31.395-2.998 2.588-6.026 4.389-10 5 .384 3.327 1.307 4.343 3.625 6.938C206 160 206 160 206.188 162.625c-1.705 3.408-3.862 4.614-7.188 6.375h-4l-.75 2.312c-1.426 3.066-2.253 4.149-5.25 5.688-4.353.564-6.484.277-10.375-1.812C176 173 176 173 175 170l-1.461 1.277-1.914 1.661-1.898 1.652C168 176 168 176 166 177v14l10 5v4l-6-2 1 5c-2.604-1.116-4.061-2.067-6-4.188L163 197c-2.983.186-5.387 1.6-8 3l-1-2 1.312-1.074c4.013-3.836 5.244-6.921 5.563-12.488-.147-3.745-.267-5.707-2.68-8.61-2.004-1.498-3.949-2.73-6.195-3.828l-2.875 2.5C146.25 177 146.25 177 144 177c-.33 10.425-.33 10.425 4.062 19.438L151 199c-3.796 0-5.629-.502-9-2l-2.25 2.5C137 202 137 202 133 202l1-4-5 2v-4a431.988 431.988 0 0 1 3.812-2l2.145-1.125C137 192 137 192 140 192a265.46 265.46 0 0 0-.125-7.25l.008-2.066c-.031-2.31-.031-2.31-.883-5.684-2.831-2.235-2.831-2.235-6-4l-1.422-2.504c-2.195-3.472-5.237-4.719-8.828-6.434-6.276-3.166-12.203-6.186-16.188-12.25-2.091-2.425-4.493-2.84-7.445-3.867C91.044 144.341 87.083 135.806 84 128c-4.151-13.462-1.483-27.778 4.574-40.238 2.61-4.709 4.989-8.595 9.176-12.012 4.08-3.717 4.399-8.308 5.204-13.494 2.139-13.706 7.794-24.572 18.718-33.42C129.385 23.597 137.874 20.692 147 19l-2.5-1.812L142 15v-3h8l-2-1.812C146 8 146 8 146 5Zm-16 24-1 2h2l-1-2Zm43 0 4 2-1-2h-3Zm-48 3v3l2-2-2-1Zm55 1 1 2 2-1-3-1Zm-69 16c-2.21 3.581-3.515 6.829-4 11l-.23 1.961c-.386 5.936 1.218 9.701 4.234 14.777C112 79 112 79 111.762 81.086 111 83 111 83 109.25 86.312c-2.054 3.988-3.526 8.127-4.938 12.376l-.649 1.944C99.298 114.032 99.23 129.009 105 142c5.824 11.251 14.933 17.467 26.496 21.973 16.217 5.06 35.49 3.281 50.754-3.661 10.488-5.599 16.751-13.809 20.339-25.178 4.608-16.885.588-34.911-7.589-50.072l-1.312-2.089C193 81 193 81 193.773 78.41 195 76 195 76 196.625 73.375c2.694-6.612 2.1-13.172-.313-19.813-1.824-3.983-3.322-6.48-7.312-8.562-11.288-3.353-20.079-1.958-31 2l-2.078 1.195c-4.098 1.716-8.228-.635-12.11-2.195-10.565-3.876-23.834-5.08-32.812 3Zm-9 43 1 2Zm-13 6 1 3Zm125 0 2 3v-3h-2Zm-9 2 1 2 1-2h-2Zm-117 1 1 3Zm118 1 1 2 1-2h-2Zm3 2v3l6-1v-1l-6-1Zm8 1c-1.011 3.049-1.011 3.049 0 6l-2 1 3 1v-8h-1Zm-10 1 1 4 2-2h-2l-1-2Zm-120 2 1 2Zm124 2 1 3v-3h-1Zm-3 4 1 4v-4h-1Zm4 2 2 2v-2h-2Zm-116 1 1 2Zm-9 3 1 2Zm9 0-1 2h2l-1-2Zm-8 4 1 2Zm116 17 1 2Zm-4 19 1 3Zm-63 10c1.165 1.666 1.165 1.666 3 3 2.655-.23 2.655-.23 5-1-3.228-2.152-4.284-2.201-8-2Zm28 0v2l2-1-2-1Z" />
        <path
            d="M128.063 52.438c3.65.698 4.793 1.544 6.938 4.561.915 3.14 1.27 5.111.311 8.25-1.67 2.228-2.627 2.953-5.312 3.75-3.38-.176-5.987-.41-8.938-2.123-1.761-3.11-1.543-5.385-1.061-8.877 2.474-3.42 3.881-4.794 8.061-5.562ZM125 55.998l-1 4 4 1 1-4c-1.32-.329-2.642-.659-4-1ZM182 54c2.383 1.588 2.886 2.691 3.875 5.375.164 3.444-.818 4.907-2.875 7.625-3 2-3 2-6.438 1.938C173 68 173 68 170.5 65.812 169 63 169 63 168.938 59.938c2.421-6.696 6.508-7.759 13.062-5.938Zm-9 3 1 4 4-1-1-4c-2.075-.149-2.075-.149-4 1ZM156 62c2.04 1.27 4.05 2.594 6 4-.569 3.863-1.659 6.5-3.812 9.75l-1.52 2.359C154.8 80.227 153.755 80.641 151 81a494.237 494.237 0 0 1-3.438-4.688l-1.933-2.636C144.01 71.017 143.392 69.061 143 66c4.509-3.778 7.144-5.77 13-4Z" />
    </symbol>
    <symbol viewBox="0 0 281 256" id="11_Simple-cartoon-bird-illustration" xmlns="http://www.w3.org/2000/svg">
        <path
            d="M207.395 65.746C215.317 72.276 220.865 80.898 223 91c.157 1.891.312 3.782.457 5.673.368 6.318.368 6.318 3.633 11.448 2.415 1.538 2.415 1.538 4.914 2.605C234 112 234 112 234.778 114.648L235 117l-2.992.723c-4.256 1.345-8.065 2.8-11.008 6.277-2.162 6.427-1.735 13.551-1.875 20.263C218.337 161.54 208.074 177.384 196 189l-1.765 1.824c-8.346 8.03-20.182 11.884-31.235 14.176v17h8c2.632.384 4.482 1.023 7 2l1 3c-2.762.597-5.16 1-8 1l1 4c-3.115-.679-5.851-1.74-8.75-3.063l-2.421-1.097-1.83-.84-1 4-7-1 1 4c-4 0-4 0-5.874-1.438-3.486-2.563-6.794-2.765-11-2.125L133 231c.75-1.938.75-1.938 2-4l4-1-1-20-7.937-1.5c-13.307-2.807-30.576-8.99-39.285-20.053-2.236-2.723-3.79-4.242-7.31-4.972-3.043-.184-6.045-.203-9.093-.163a773.37 773.37 0 0 1-6.464-.12l-3.105-.07c-6.645-.289-12.528-1.356-17.868-5.497A75.025 75.025 0 0 1 42 166l-2-2c.125-3.5.125-3.5 1-7 3.152-2.788 6.983-2.155 11-2l.188-2.375C53 150 53 150 55.016 148.715c4.233-1.014 7.425.058 11.547 1.222 1.499.414 3 .82 4.504 1.215l1.998.563c2.287.337 3.762.045 5.935-.715 6.924-5.693 12.445-13.023 18-20 .948-1.159 1.898-2.316 2.848-3.473 10.84-13.243 19.746-26.027 26.59-41.779 5.92-13.419 14.2-21.905 27.777-27.713 17.348-6.447 38.265-3.165 53.18 7.711ZM178 60l3 2 2-1-5-1Zm-15 2 1 2 2-1-3-1Zm26 0v2l2-1-2-1Zm-17-3 1 2-2 1c.619.31 1.238.62 1.875.937L177 65l-4 2-.75-1.938c-1.065-2.25-1.065-2.25-3.375-2.812L167 62v4l-3-1-1-2c-4.834-1.543-7.493-1.077-12.062 1.125C143.433 68.138 143.433 68.138 139 75l4 2-4 4 2 2-1 1-1-2h-4l-1 2h-2c-3.594 6.79-6.323 13.804-9 21l3 3-4 2 2 2v4c-2.812.625-2.812.625-6 1l-3-2a2206.044 2206.044 0 0 0-6 7.875l-1.734 2.262-1.641 2.168-1.523 2c-1.283 1.637-1.283 1.637-1.102 3.695.908-.04 1.815-.083 2.75-.125C109 133 109 133 113 135l9-6 1 1-1.33 1.298c-2 1.957-3.99 3.923-5.982 5.89l-2.092 2.04c-6.211 5.808-6.211 5.808-8.783 13.584L105 155c4.162.082 7.948-.018 12-1l-2.062 3.25c-1.703 2.883-1.703 2.883-1.688 6.187L114 165c4.922.167 8.504.248 13-2l-1.062 1.75c-1.103 2.648-.74 3.582.062 6.25 10.205.782 18.187-1.899 26.184-8.297 4.729-4.434 8.266-9.752 10.816-15.703v-2h3c-4.135 11.87-9.885 19.908-21.238 25.633-16.638 7.528-35.72 9.135-53.363 3.925-2.522-.807-2.522-.807-5.4.442 15.549 16.993 37.46 26.802 60.33 27.996 19.249.02 36.174-6.29 50.285-19.516 14.257-14.817 19.576-33.562 19.993-53.752-.075-3.253-.218-5.257-2.321-7.806-2.06-1.237-4.042-2.084-6.286-2.922l-2-2c.313-2.875.313-2.875 1-6l.313-2.25c.687-1.75.687-1.75 2.375-2.938 3.37-1.184 6.735-1.812 10.312-1.812a397.89 397.89 0 0 0-.375-4.75l-.21-2.672c-.413-2.569-1.126-4.337-2.415-6.578l-1 4-2.25.375c-2.551.58-4.476 1.362-6.75 2.625-2.948-2.106-5.483-4.394-8-7l3 1a167.998 167.998 0 0 0 6-2h3v-2h-2l-2-4-6 2v-2l2.188-.375c3.503-.779 6.609-2.024 9.812-3.625-4.253-6.573-9.508-12.406-17.273-14.66L194 64l-2 3-3-1v3c-8.035-2.277-8.035-2.277-10.5-6.688L177 59h-5Zm11 4v3h2v-3h-2Zm-46 13-1 2h2l-1-2Zm-2 3 1 2Zm71 12 1 2ZM92 143l-2.312 2.875c-1.843 2.291-3.156 3.437-5.688 5.125v2l-1.625.687C79.15 155.47 76.704 157.481 74 160v3l5 2 1.11-1.434C85.315 157.21 91.336 152.727 98 148c-.852-1.998-.852-1.998-2-4-2.05-.805-2.05-.805-4-1Zm3.438 11.5c-1.24.974-1.24.974-2.504 1.97L91 158l1 2h2v-2l1.75.625c2.77.462 3.896-.196 6.25-1.625l-1-6c-2.07 0-4.031 2.292-5.562 3.5ZM46 159l1 2 7-1v-1h-8Zm-2 1v2l3-1-3-1Zm62 0-1 3a175.385 175.385 0 0 1-2 4h3v2l4-1v-8h-4Zm-39 3-2 2 6 1-1-3h-3Zm44 5 1 2 1-2h-2Zm-56 1-1 4 8 1-3-2a527.43 527.43 0 0 1-4-3Zm48 0 1 2h5c-2.842-1.573-2.842-1.573-6-2Zm10 0 1 5 9-1c-1.622-2.125-1.622-2.125-4-4-3.167-.335-3.167-.335-6 0Zm-61 1-1 2 3-1-2-1Zm50 1-3 2h7l-4-2Zm-27 3 4 1Zm68 32v19l6.313.75 3.55.422c3.145.14 3.145.14 5.04-1.746 1.422-3.143 1.426-5.548 1.347-8.989l-.046-3.44c-.081-3.048-.081-3.048-1.204-5.997h-15ZM176 62l2 1Z" />
        <path
            d="m176 67 3 1-3 1v-2ZM192 68l4 1ZM194 70l2 1ZM180 71h4v2l-5 1 1-3ZM202 76l2 1h-3l1-1ZM145 78l2 1ZM204 79l3 1ZM148 80l4 1-5 1 1-2ZM152 81l2 1ZM195 82l2 1ZM143 83l3 1h-3v-1ZM136 84l3 1-3 1v-2ZM206 85l2 1ZM201 86l6 1v1h-5l-1 2-2-2h2v-2ZM163 88l1 2-2-1 1-1ZM141 89l3 1-3 1v-2ZM155 89l2 1h-3l1-1ZM156 95h2l-1 2-1-2ZM203 95l3 3-3-1v-2ZM154 97h3l-1 3v-2l-2-1ZM215 97l2 1ZM186 99c3 2.625 3 2.625 5 6 .16 4.012-.472 5.426-3.188 8.375-3.358 1.94-4.994 2.261-8.812 1.625-3.082-1.849-4.63-3.098-6-6.438 0-3.357.992-4.909 3-7.562 3.765-2.51 5.543-2.615 10-2Zm-5 3-1 3 4 2 1-5h-4ZM127 108h5l-4 2-1-2ZM130 113l6 1v1c-6.286 2.429-6.286 2.429-10 1l4-1v-2ZM139 115l2 1-2 1v-2ZM130 118l2 1-2 1v-2ZM125 119c2.622 1.049 3.794 1.649 5.25 4.125L131 125c-2.438-.75-2.438-.75-5-2-.812-2.125-.812-2.125-1-4ZM153 120l2 1ZM121 121l3 1-3 1v-2ZM135 120l1 2h-5l4-2ZM151 120l2 2-8 2-1-2 7-2ZM138 122c2.007.287 4.009.619 6 1-3.01.934-3.867 1.044-7 0l1-1ZM132 123l5 1-3 1-2-2ZM131 125l3 1ZM129 126l2 1ZM67 164l2 1Z" />
    </symbol>
    <symbol viewBox="0 0 281 256" id="12_Cute-cartoon-bird-illustration" xmlns="http://www.w3.org/2000/svg">
        <path
            d="m159 17 2 5 3.812-.188c2.565.019 3.903.036 6.188 1.25 1.527 2.959 1.185 5.675 1 8.938l2.379 1.102C185.371 38.362 191.502 43.684 198 54l1.188 1.824c5.647 9.817 7.111 21.645 6.624 32.738-.271 5.649-.271 5.649 1.52 10.926 1.765 1.91 1.765 1.91 3.719 3.602 7.38 7.232 9.95 18.431 10.199 28.41-.229 9.66-2.424 18.158-9.039 25.48-4.506 4.21-10.758 9.02-17.211 9.02l-.785 1.785C188.724 177.797 176.063 181.392 166 185v10l2.75.312c3.27.692 4.787 1.509 7.25 3.688l-1 3-5-1 1 3h-4l-1.438-2-1.562-2c-2.626-.334-2.626-.334-5 0v2l-3 1v-4l1.938-1.625c3.251-3.744 2.805-7.499 3.062-12.375h-17l.25 5.875.141 3.305L145 197c1.936 1.239 1.936 1.239 4 2l1 3-3 1-1.188-1.5c-2.363-1.956-3.826-1.742-6.812-1.5l-.812 1.938C137 204 137 204 134 205v-5l-5 2v-4c3.73-2.034 5.669-3 10-3l-1-5-2.25 2.438c-3.728 3.473-3.728 3.473-6.75 3.562-3.901-.89-6.661-1.774-10-4-2.27-.555-4.541-.945-6.844-1.34-2.488-.762-3.517-1.669-5.156-3.66-.875-1.812-.875-1.812-1-4 1.652-4.173 3.668-7.013 7-10-1.686-3.762-3.279-6.306-7.199-7.887l-2.489-.801c-8.013-3.107-12.618-8.301-16.25-16C82.348 137.269 82.891 125.183 87 114c2.855-5.862 6.094-11.183 10.5-16l2.5-3c-.29-1.969-.29-1.969-1-4-1.535-15.496 3.456-31.179 12.805-43.391C118.048 40.189 124.755 35.152 134 32h3l-.688-2.812C136 26 136 26 136.938 24.125c3.306-1.803 6.336-1.308 10.062-1.125l.25-1.812c2.065-6.023 6.296-5.342 11.75-4.188Zm-7 3c-2.411 1.956-2.411 1.956-2.125 5.625L150 29l-1.68-.691-2.195-.871c-.719-.291-1.439-.581-2.18-.879-2.001-.813-2.001-.813-3.945.441v3l3 2v2l-3.812.625c-11.804 2.701-21.374 10.086-28.004 20.125-6.283 11.589-10.479 26.515-7.676 39.625 1.449 4.53 3.462 7.145 7.492 9.625h2l-1.023 2.859c-6.122 17.452-9.628 36.304-1.758 53.86 5.789 10.678 14.752 15.547 26.039 18.965 15.267 3.752 32.681 2.064 46.234-5.957 8.807-6.064 13.269-13.056 15.758-23.352 2.712-16.024-.373-31.44-6.25-46.375l2.312-.812c3.819-1.688 5.203-2.963 6.747-6.864 3.776-13.334-.033-29.084-6.528-40.984-6.036-9.223-13.652-16.31-24.343-19.465-4.028.158-5.239 1.487-8.188 4.125-2.812.75-2.812.75-5 1 1.742-1.834 3.494-3.383 5.5-4.938 2.329-1.921 4.022-3.435 5.5-6.062-.217-2.208-.217-2.208-1-4-5.076-.615-7.83 1.383-12 4l1.562-2.25c1.687-2.582 1.687-2.582 1.126-5.062L157 21c-2.397-.68-2.397-.68-5-1ZM89 125l1 2Zm12 7 1 2Zm102 10 1 4Z" />
        <path
            d="M131 76c2.632 1.724 2.964 2.871 3.812 5.938.198 3.23.11 4.499-1.812 7.062-2.676 2.082-4.118 1.996-7.562 1.875C122 90 122 90 120.062 88.312c-1.4-3.048-1.546-4.991-1.062-8.312 3.815-4.705 6.153-5.432 12-4Zm-6 2-2 3 4 2 1-5h-3ZM183 76c2.046 1.482 2.814 2.57 3.812 4.875.258 2.921-.428 4.554-1.812 7.125-1.688 1.875-1.688 1.875-4 3-3.752-.066-6.063-.184-8.938-2.688-1.4-3.048-1.546-4.991-1.062-8.312 3.815-4.705 6.153-5.432 12-4Zm-7 2-1 4 4 1 1-3-1-2h-3ZM153.563 85c2.957 1.213 5.055 2.889 7.438 5-.304 6.055-3.279 9.515-7 14-2.763-.361-3.823-.807-5.74-2.891l-1.573-2.359-1.613-2.328c-1.33-2.995-1.167-4.364-.075-7.422 2.871-2.48 4.7-4 8.563-4ZM148 91c1.185 3.375 2.275 5.647 5 8 2.129-2.817 2.129-2.817 4-6l-1-3c-4.179-1.189-4.179-1.189-8 1Z" />
    </symbol>
    <symbol viewBox="0 0 281 256" id="13_Cute-bird-illustration" xmlns="http://www.w3.org/2000/svg">
        <path
            d="M132 0h5l2 4c-3 0-3 0-5.188-2L132 0ZM141 0h5v1h-5V0ZM176 47l1.926 1.516c11.894 10.443 15.712 28.95 17.386 43.898.874 3.286 2.496 5.002 4.688 7.586 9.561 15.328 18.721 32.107 18.039 50.621l-.08 2.192a325.206 325.206 0 0 1-.494 8.881c-.839 9.015-.839 9.015 2.647 16.978 2.537 2.015 5.123 3.648 7.888 5.328 3.917 3.43 3.917 3.43 4.438 7-.493 3.378-.952 4.68-3.438 7l-2.875.938c-3.313.837-3.313.837-5.437 3.687-2.84 2.51-3.416 2.784-7 2.937-8.03-.505-13.17-4.575-18.536-10.269-3.283-1.972-5.471-1.089-9.152-.293l-2.04.438c-2.2.481-4.392.988-6.585 1.5A248.618 248.618 0 0 1 155 201c-.25 2.901-.25 2.901 0 6 2.885 2.424 2.885 2.424 6 4l-1 3-2.875-1.312c-3.836-1.151-5.894-.135-9.375 1.687l-2.516 1.461C143 217 143 217 140 217l1-5h-6v-3c-5.07.654-9.42 2.855-14 5v-4h-3l-3-1c1-3 1-3 2.734-4.18 2.649-.959 4.707-1.019 7.516-.945l2.703.055L130 204l-1-6-2.422-.664c-17.98-5.192-33.318-14.101-42.759-30.686-8.651-15.886-10.642-33.179-6.069-50.838A196.57 196.57 0 0 1 80 109l1.086-3.113a335.284 335.284 0 0 1 2.031-5.5C84.26 97.296 85.151 94.183 86 91l-3.312-.75C78.941 88.98 77.894 88.342 76 85c3.047-4.51 5.877-6.23 11-8h3l.562-3.125c3.342-13.157 10.74-24.622 22.313-31.75C132.738 31.318 158.356 32.386 176 47Zm-26-6c.776 3.075.776 3.075 3 5 1.986 0 3.972-.005 5.957-.062 2.652.081 4.686.884 7.043 2.062v2l4-2c-6.56-4.362-11.877-7.387-20-7Zm-31 3-2 2h5l1-2h-4Zm-4 2 2 3v-3h-2Zm-2 1c-1.637 1.96-1.637 1.96-3 4l2 3c2.584.25 2.584.25 5 0l1-4h-4l1-3h-2Zm42 0-1 2 3-1-2-1Zm6 0-1 3 3-1-2-2Zm-5 3v2l3-1-3-1Zm-19 4 3 2h-3l-2-3-2.125 1.562c-3.605 1.803-4.965 1.159-8.875.438-11.581-.987-11.581-.987-22 3-2.039 2.852-3.553 5.813-5 9l-1.375 2.75c-.972 3.499-.286 6.044 1.437 9.188 1.303 2.866 1.256 4.943.938 8.062-1.125 2.75-1.125 2.75-3 5l-2.953.688c-3.351 1.048-3.351 1.048-4.586 4.515a113.297 113.297 0 0 0-1.086 4.047l-.601 2.167a376.451 376.451 0 0 0-1.195 4.435c-.533 1.979-1.135 3.94-1.743 5.898-5.114 16.481-4.701 32.587 2.605 48.414 8.837 16.078 22.152 25.404 39.352 31.09 19.923 5.763 42.905 4.116 62.207-3.254l-1-2-2.188-.688c-3.222-1.503-4.626-3.455-6.812-6.187-2.573-2.734-5.496-4.898-8.5-7.125-11.166-8.41-18.427-19.097-21.5-33-.267-3.276-.285-6.527-.25-9.812l.016-2.682c.108-7.42.318-14.979 4.234-21.506 3.147-.994 5.666-1 9-1 2.015-.62 4.019-1.28 6-2-3.056-2.588-3.056-2.588-7-3-1.936-3.872-2.011-6.45-1.562-10.688l.308-3.011L158 85h6l1-2h-2v-3l4-1-1-1h2v-5l-2-1v-4h-2l-1 4c-1.458.168-2.917.334-4.375.5l-2.461.281C154 73 154 73 152 73c-1.656-1.645-1.656-1.645-3.5-3.812l-1.844-2.145C145 65 145 65 143 62l1.938-.75c2.249-1.066 2.249-1.066 2.812-3.375L148 56l8-2v-2h-4v-2c-6.401-.512-9.98-.119-15 4Zm16 1-1 2h2l-1-2Zm-5 4v2l3-1-3-1Zm31 1c-1.108 1.883-1.108 1.883-2 4l1 2-2 1v2c3.088 1.765 4.233 2 8 2l1 2c.841-2.4 1.112-3.649.328-6.105l-1.078-2.083-1.047-2.105c-1.176-2.028-1.176-2.028-4.203-2.707Zm-8 6v2l4-1-4-1Zm0 3-1 2 3-1-2-1Zm-2 3v2h2v-2h-2Zm4.375 1.5L172 75c3.766 1.255 5.372.371 9-1-3.929-2.37-3.929-2.37-7.625-.5ZM169 76l1 4h2l-1-4h-2Zm-2 5v2l3-1-3-1Zm-83 2 1 2 5-2c-3.049-1.011-3.049-1.011-6 0Zm6 0 1 2 2-2h-3Zm98 3-2 2h2c-2.255 5.535-3.55 8.457-9 11 5.075 1.263 9.728 2.27 15 2l-.586-1.758L189 86h-1Zm-20 18-2 2 4-1-2-1Zm-15 2 1 2 1-2h-2Zm12 2v1h6v-1h-6Zm-4 1v2h2v-2h-2Zm5 3 1 2Zm3 0 2 2 1-2h-3Zm35 5-2 5 4 2 1-2c-.894-2.609-.894-2.609-2-5h-1Zm-54 4v14h3l2-5h-2v-2h2v-2l2-2-2.938-.375L151 123l-1-2Zm52 4 1 2Zm5-1-2 2h3l-1-2Zm-11 8 1 2Zm14 11-.516 2.047c-2.407 8.86-2.407 8.86-6.484 11.953 2.229 2.646 2.229 2.646 5 5 2.173-.147 2.173-.147 4-1l2 1c.027-2.604.047-5.208.062-7.812l.026-2.237c.015-3.25-.053-5.845-1.088-8.951h-3Zm-56 6 1 2Zm3 0-2 5 3 3c1.158-2.947 1.158-2.947 1-6l-2-2Zm3 0v2h2v-2h-2Zm43 0-2 3 3-1-1-2Zm-43 5v2h2v-2h-2Zm34 1c.34 3.175 1.025 4.023 3.438 6.25 2.32 1.938 2.32 1.938 4.562 1.75-1.02-3.773-1.659-4.802-5.125-6.812L194 155Zm-1 4 1 4 1-3-2-1Zm3 2 1 2Zm-5 1 1 2Zm-12 3 3 3-1-3h-2Zm7 0 2 2v-2h-2Zm-3 3 1 2Zm6 0 1 5 1-4-2-1Zm-4 3-1 2h2l-1-2Zm-10 2 3 3 3-1-6-2Zm28 7 1 2 2-1-3-1Zm12 0v3l2-2-2-1Zm-16 9-2 1 1 3 3-3-2-1Zm-64 10-1 4 5 2v2h11v-7l-15-1ZM155 44l3 1ZM112 50l2 1Z" />
        <path
            d="m144 51 5 2c-3 2-3 2-6 3l-1-3h2v-2ZM131 57l2 1ZM136 59h3l-1 2-2-2ZM103 64l4 1-2 4h-3l1-5ZM124 73c2.375 1.062 2.375 1.062 4 3 1.209 4.08 1.488 6.065-.5 9.875-3.263 2.773-5.236 3.2-9.5 3.125-3.509-1.907-4.711-3.151-6-6.938 0-3.634.8-5.211 3-8.062 3.057-1.528 5.63-1.232 9-1Zm-7 3v4h4l-1-5c-1.224-.075-1.224-.075-3 1ZM161 74h2v2h-2v-2ZM188 94l2 1-2 1v-2ZM186 96l2 1ZM155 99l3 3-3-1v-2ZM154 101l2 2h-2v-2ZM158 102l2 1ZM160 103l2 1ZM157 104l3 1Z" />
    </symbol>
    <symbol viewBox="0 0 281 256" id="14_Black-and-white-bird-on-branch" xmlns="http://www.w3.org/2000/svg">
        <path
            d="M143 20c9.14 8.441 13.079 18.79 13.625 31.125l.119 2.231c.28 5.676.278 11.327.096 17.007.166 2.741.75 4.31 2.16 6.637 9.52-.041 15.828-3.004 22.688-9.574 4.964-5.172 9.384-10.748 13.75-16.426 3.694-4.801 7.554-9.313 11.812-13.625l1.427-1.469c4.167-4.114 8.633-7.368 14.448-8.531 3.308.719 4.948 1.914 6.965 4.645 2.218 4.827 1.483 10.189-.09 15.105L229 49l2-1c6.977-.563 6.977-.563 10.5 1.375 2.378 4.162 2.292 7.957 1.5 12.625-2.754 7.045-8.911 12.589-14 18l1.473 1.301C232 83 232 83 232.438 86.188 230.928 99.339 218.977 109.298 210 118a1371.36 1371.36 0 0 0-4 4l2-1c3.992-1.331 6.785-1.335 11-1 2.5 1.375 2.5 1.375 4 3v2l3.188-.25c4.35.285 5.744 1.274 8.812 4.25-.637 3.045-1.171 5.331-3.656 7.336-1.267.815-2.533 1.629-3.801 2.441-1.809 1.19-1.809 1.19-2.293 3.848L225 145c-3.54 4.936-10.894 5.451-16.511 6.601-3.529.566-7.048.739-10.614.931-10.622.587-17.791 2.775-26.887 8.202C164 164.879 155.196 168.478 147 168l-.75 2.312c-1.389 2.986-2.398 4.094-5.25 5.688h-4v8c1.66.683 3.328 1.346 5 2l2.449.977c6.006 1.73 12.207 2.183 18.405 2.878l3.033.364 2.756.31C171 191 171 191 174 193c.188 2.625.188 2.625 0 5-9.996-1.179-19.742-3.128-29.559-5.323-8.209-1.788-13.822-2.91-21.441 1.323-2.375.688-2.375.688-4 1l-1-5-7 2-1-4c-3.949.551-7.349 1.389-11 3l-1-4c-4.643-.505-9.287-1-13.934-1.473a361.254 361.254 0 0 1-8.976-1.023c-6.793-.771-10.579-.733-16.09 3.496l.688 3.25c.312 3.75.312 3.75-.75 6.125-2.75 2.306-4.334 2.558-7.938 2.625-3.085-.796-6.037-1.834-9-3-.492-3.443-.208-4.716 1.875-7.562 4.056-3.164 8.298-4.76 13.125-6.438-11.306-1.963-22.601-3.68-34-5v-4l5-1-1.938-1.562c-2.635-3.115-2.835-5.422-3.062-9.438 1-1 1-1 4.188-1.25 4.946.324 8.114 1.609 11.687 5.062 1.479 2.877 1.403 4.996 1.125 8.188l-1 2h13l-3.062-3.141c-1.314-1.369-2.626-2.739-3.938-4.109l-2.023-2.066-1.915-2.012-1.777-1.841C38 161 38 161 38 157l5 2 .367-1.898.508-2.477.492-2.461C45 150 45 150 47 148c2.375-.062 2.375-.062 5 1 2.969 3.828 4.379 6.38 3.938 11.25-1.214 4.855-1.214 4.855-3.938 6.75 1.519 4.101 4.413 6.657 8 9 3.539 1.167 3.539 1.167 7.375 1.688l2.077.338c2.18.347 4.363.661 6.548.974l2.253.349C86.983 181.3 86.983 181.3 95 179c4.683-.831 8.361-1.305 13 0v-8l-2.312-.688C103 169 103 169 101.742 166.621c-2.288-3.442-4.538-4.234-8.304-5.871-6.008-2.759-10.425-6.058-15.2-10.691-2.067-1.902-3.995-3.241-6.426-4.621-8.185-4.845-12.529-12.389-15.394-21.235C54.507 114.131 55.435 103.196 60 94c.824-1.08 1.658-2.152 2.5-3.219 3.126-4.234 3.915-8.612 4.812-13.719l.51-2.65c.408-2.134.795-4.273 1.178-6.412l-3.75-.5-2.109-.281c-2.446-.287-2.446-.287-6.141-.219-1.603-3.206-1.346-6.514-1-10 1.863-5.479 5.393-8.711 10-12l2.109-.855c2.674-1.619 2.857-3.244 3.703-6.207 3.38-10.048 10.096-17.356 19.532-22.122C108.601 8.362 127.662 8.581 143 20Zm-61.461 7.969C77.824 32.872 75 37.798 75 44l2.25 1.25c3.875 2.466 5.282 5.466 6.75 9.75.453 3.818.282 6.206-1 9.812-2.925 3.2-5.805 3.253-10 4.188-.821 3.79-1.63 7.582-2.438 11.375l-.697 3.215c-4.078 19.268-5.282 39.544 5.701 56.883 6.953 9.404 14.824 15.148 25.395 19.789 3.335 1.907 4.342 3.366 6.039 6.738 3.419 2.565 6.856 2.159 11 2l-3-9h3l.688 2.188c1.922 4.119 4.511 6.91 8.597 8.957 3.141.989 5.558 1.052 8.84.855l3.133-.125L142 171l1.449-2.941C145 165 145 165 148.012 163.785l3.676-.723C167.173 159.574 181.351 153.06 191 140c2.174-4.349 1.522-9.217.199-13.734-6.873-17.479-18.169-31.59-31.502-44.585l-1.756-1.712-1.572-1.518c-3.443-3.649-3.618-6.062-3.642-10.92l-.063-3.922a781.793 781.793 0 0 1-.045-6.127c-.059-12.106-1.586-23.209-10.334-32.255-8.793-8.254-17.742-10.552-29.551-10.442-11.51.662-23.219 4.565-31.195 13.184ZM61.5 53.438C59.806 56.331 59.309 58.68 59 62c3.092 1.546 5.436.387 8.75-.375C72.156 60.622 76.535 59.699 81 59c-.286-5.86-2.913-9.075-7-13-4.246 0-9.651 4.66-12.5 7.438ZM68 65c5.472 1.243 5.472 1.243 10.5-.438L80 63a282.077 282.077 0 0 0-4.312-.125l-2.426-.07c-2.546.037-2.546.037-5.262 2.195Zm-6 35 1 3Zm-1 3c-2.247 9.903-1.897 19.946 3 29 2.037 2.263 2.037 2.263 4 4l-.875-3.812c-1.9-8.624-3.327-17.019-3.781-25.852L63 104l-2-1Zm133 18v3l2-1-2-2Zm2 10c-1.577 2.759-1.795 4.484-1.891 7.629-.17 3.685-1.893 5.511-4.109 8.371l-1 2c16.764.133 16.764.133 31.359-6.105L222 141l-1-1a71.021 71.021 0 0 0-4.812.375l-2.645.273c-2.246.311-4.36.751-6.543 1.352v-2c4.29-1.794 7.979-3.129 12.625-3.5 4-.326 6.885-1.442 10.375-3.5v-3c-4.902-1.139-8.499-.712-13.375.438l-3.773.871L210 132v-3l9-3-2-2c-7.189 0-15.026 2.969-21 7ZM48 152c-1.493 2.986-1.118 5.709-1 9l1 2 4-1c.296-5.322.296-5.322-2-10h-2Zm-21 12c.472 4.252 2.85 6.3 6 9h3c.334-2.374.334-2.374 0-5-2.678-2.777-5.238-3.478-9-4Zm85 8v9l2-1c.465-1.895.465-1.895.625-4.062L115 172h-3Zm6 2c-.913 3.471-.913 3.471-1 7 1.787 2.214 1.787 2.214 4.164 2.195l2.461-.07 2.477-.055L128 183c.346-4.031.346-4.031 0-8-3.912-3.294-5.724-3.85-10-1Zm13 2-1 8-3.25.875c-2.844.853-5.185 1.689-7.75 3.125 1.611 1.269 1.611 1.269 4 2a377.18 377.18 0 0 0 7-2c3.009-.172 5.99-.123 9 0-2.676-2.185-2.676-2.185-5-2v-10h-3Zm-34 6 4 1Zm12 1v1h5v-1h-5Zm-63 10v2l9 1a88.578 88.578 0 0 0 1-5c-1.04-1.249-1.04-1.249-3.312-1.25-3.154.293-4.428 1.074-6.688 3.25Z" />
        <path
            d="M103 42c3.018 2.144 3.864 3.287 4.562 6.938-.761 4.148-2.199 5.576-5.562 8.062-3.818.716-5.465.291-8.875-1.562C91 53 91 53 90.5 49.5c.51-3.569.937-5.032 3.5-7.5 3.584-1.195 5.369-.963 9 0Zm-7 3v4l4-1-1-3h-3ZM150.441 88.902c4.882 4.684 8.18 8.911 8.996 15.785C159 108 159 108 157.437 110c-3.434 1.41-5.868.793-9.437 0l-2-1 .125 2.812C146 115 146 115 144 118c-3.948.43-6.613.084-10-2 .917 2.645.917 2.645 3 5 3.536.825 6.778.71 9.937-1.125 1.45-2.556 1.741-4.979 2.063-7.875 5.107-.209 9.141.441 14 2l1.993.441c8.598 2.394 19.373 11.047 24.007 18.56 1.494 3.931 1.311 5.257-.313 9.124-5.533 5.918-12.584 7.11-20.398 7.593-2.548.192-2.548.192-5.602 1.844-10.24 3.992-21.987 1.191-31.824-2.85-12.402-5.82-20.519-14.09-25.738-26.9-3.333-11.293-1.792-20.435 3.656-30.816 1.22-1.996 1.22-1.996 3.22-3.996 2.624.375 2.624.375 5 1v-2c11.54-6.173 22.964-5.26 33.44 2.902ZM109.001 101l1 2Zm-1 7 1 3Zm76 26v4c-5.336 2.766-9.989 4.292-16 5v2c9.232-.389 9.232-.389 17-5 .04-2 .041-4 0-6h-1Zm-22 5 1 5 1-4-2-1Zm-3 6 3 2 1-2h-4Z" />
    </symbol>
</svg>
