<?xml version="1.0" encoding="UTF-8"?>
<svg xmlns="http://www.w3.org/2000/svg" xmlns:xlink="http://www.w3.org/1999/xlink">
    <symbol viewBox="0 0 281 256" id="01_Bird-on-branch" xmlns="http://www.w3.org/2000/svg">
        <path
            d="M118 43c9.218 7.989 13.416 19.784 16.875 31.125C137.449 82.421 141.306 88.392 147 95l2.086 2.648c4.965 6.294 10.354 12.15 15.866 17.963 3.388 3.576 6.645 7.213 9.78 11.015 1.242 1.508 1.242 1.508 3.268 2.374v2c4.803.335 8.815-.349 13.5-1.5 8.77-2.117 8.77-2.117 13.5-1.5 2.616 1.831 2.97 2.91 4 6l2.5 1.438C214 137 214 137 215 138.875c0 3.196-.994 4.666-3 7.125a508.001 508.001 0 0 1-6 2 288.451 288.451 0 0 0-1 4c-6.083 4.482-13.312 3.492-20.426 2.543a353.58 353.58 0 0 1-6.629-1.105c-5.621-.993-5.621-.993-10.566 1.468l-2.817 2.594c-15.158 13.321-33.61 19.814-53.562 21.5v12l7 3v2c6.635-.042 13.269-.115 19.904-.208 2.252-.028 4.505-.049 6.758-.063 3.255-.022 6.509-.068 9.764-.12l3.009-.003c7.164-.147 12.988-1.798 19.565-4.606l-.25-3.688c.011-3.189.219-4.258 1.875-7.124 2.689-2.477 4.924-3.966 8.375-5.188 2.375.813 2.375.813 4 2-.512 3.755-1.218 6.667-3 10 6.587-2.894 6.587-2.894 12.188-7.25 2.774-2.679 5.023-2.686 8.812-2.75 2.525.776 4.63 1.791 7 3v4c-2.511 2.323-4.472 3.952-8.004 4.062-2.854-.346-5.57-.946-8.343-1.701-3.093-.421-4.351.041-7.122 1.405l-2.48 1.199-2.551 1.285-2.551 1.238c-4.094 2.005-8.09 4.076-11.949 6.512l3.211.551 4.164.761 2.117.358c1.857.348 3.686.833 5.508 1.33l2 3c-2.887 1.443-5.178.891-8.375.625l-3.461-.273c-2.5-.278-4.757-.653-7.164-1.352 4.394 4.834 8.869 5.396 15.188 6 6.052.648 11.941 1.323 17.812 3l1 2c-6.115.097-11.933-.23-18-1l1.488 1.27c2.354 2.694 1.706 5.297 1.512 8.73-3.369 1.09-4.81 1.071-8.188-.188-2.904-1.871-3.88-2.55-4.812-5.812-.125-3.25-.125-3.25 0-6l-2.633-.316c-3.551-.721-6.052-1.927-9.242-3.622-14.665-6.881-31.793-5.315-47.625-5.187-2.191.01-4.383.019-6.574.027-5.309.022-10.617.055-15.926.098v-2c-8.715.76-15.864 1.466-23 7l2 1.625C76 211 76 211 76.375 214c-.583 4.662-.583 4.662-2.375 7-2.303 1.787-4.276 2.779-7 4-2.438-.75-2.438-.75-4-2-.25-7.5-.25-7.5 2-12l-12 4v-3c2.484-1.648 2.484-1.648 5.75-3.375 4.479-2.369 7.309-4.471 10.25-8.625-5.735-3.511-11.805-4.193-18.375-5.188l-3.387-.537c-2.745-.434-5.49-.858-8.238-1.275v-2c6.95-.266 13.235.388 20 2v-2l-2.312-.688c-3.437-1.678-4.319-2.736-5.688-6.312.056-3.056.457-5.995 1-9 2.062-.875 2.062-.875 5-1 2.918 1.525 5.05 3.347 7 6 .967 4.111.071 7.983-1 12 4.25.504 8.5 1.002 12.75 1.5l3.656.434 3.516.41 3.237.381c3.029.339 3.029.339 6.841.275l-3-1 2-4h14v-12l-5.625-.188c-15.602-1.236-30.346-8.59-41.055-19.953-11.189-13.788-15.496-29.588-15.508-47.109l-.037-2.988C43.763 101.274 44.469 95.305 46 89c-4.569-2.399-9.158-4.247-14-6 .702-3.803 2.162-5.425 5.184-7.879 1.992-1.23 3.669-1.607 5.941-2.121 2.124-.588 2.124-.588 3.875-2 1.368-3.137 2.175-6.26 3.023-9.574C52.459 52.883 57.587 45.884 65 41c17.41-9.155 36.818-10.13 53 2Zm-55.75 5.312c-5.044 6.026-9.492 12.953-10.75 20.813.255 3.097.255 3.097 2.938 5.313C57 77 57 77 58.062 80.562 58 84 58 84 56.312 86.375 54.069 87.952 52.624 88.436 50 89c-4.248 21.467-3.094 43.576 9.312 62.312 5.484 7.316 11.423 11.802 19.5 15.938l1.938.999c9.206 4.489 18.294 6.3 28.5 6.189l3.041-.028c23.883-.552 42.971-12.852 59.885-28.797 2.865-2.651 5.806-5.139 8.824-7.613-2.687-2.692-5.38-5.378-8.086-8.051-10.491-10.388-10.491-10.388-15.258-16.019a135.376 135.376 0 0 0-3.687-4.11c-9.765-10.487-18.712-21.489-23.059-35.277-4.303-13.638-9.788-26.49-23.035-33.418-14.742-7.112-33.406-3.088-45.625 7.187ZM38 79l-1 2c8.225 3.515 8.225 3.515 17 4l1-1c-.176-3.481-.176-3.481-1-7-5.808-3.872-10.528-1.503-16 2Zm152.75 54.188-3.141.667c-2.81.89-2.81.89-3.711 3.528L183 140c-1.945 1.949-1.945 1.949-4.125 3.688A73.554 73.554 0 0 0 175 147v2c13.918 3.189 13.918 3.189 27 0l-1-4 1.934-.332 2.504-.48 2.496-.458L210 143l1-3-1-2c-1.937-.027-3.875-.046-5.812-.062l-3.27-.036c-2.983-.038-2.983-.038-5.918 1.098v-3l9-2-1-2c-4.273-.122-8.082.24-12.25 1.188ZM55 178c-1.401 3.072-1.401 3.072.438 6.188L57 187h4l-1-7-5-2Zm127.312 3.25c-2.741 2.661-2.741 2.661-2.312 6.75 3.315-.986 4.749-1.654 6.812-4.5 1.331-2.34 1.331-2.34 1.188-4.5-3.201-.321-3.201-.321-5.688 2.25ZM203 181v3c5.282 1.2 5.282 1.2 10-1v-2h-10ZM67.312 213.125c-1.847 2.64-1.521 4.733-1.312 7.875 2.32-.4 3.863-.906 5.812-2.25 1.482-1.773 1.482-1.773.876-4.438L72 212c-2.922-.277-2.922-.277-4.688 1.125ZM181 213l-1 4 5 4 2-1c-1.168-3.814-1.168-3.814-4.125-6.312L181 213Z" />
        <path
            d="M81.125 66.938c2.666.543 3.758.963 5.875 2.75 1.34 3.1 1.547 4.963 1 8.311-2.063 2.939-2.063 2.939-5 5-3.992.072-6.154-.413-9.437-2.686-2.088-3.09-2.236-4.651-1.563-8.314 2.619-3.846 4.5-5.42 9.125-5.061ZM76 69.999l1 5c.99-.328 1.98-.658 3-1l-1-4h-3ZM131 100c4.041.54 6.298 1.676 9.438 4.25l2.355 1.922L145 108l1.738 1.328c4.25 3.295 8.576 7.31 9.688 12.758l.199 2.102c.396 4.021 1.05 4.779 3.375 7.812.438 3 .438 3 0 6-1.813 2-1.813 2-4 4l-1.125 2.938c-3.282 5.361-8.777 7.234-14.695 8.816-13.469 2.682-25.39.572-37.18-6.754-6.81-4.937-11.23-10.52-15-18l-1.031-1.887C83.924 120.616 84.555 113.004 85 106l1-2h3l-.141 2.168c-.382 10.553 1.475 20.807 8.461 29.062L99 137l1.742 1.863c7.161 6.939 16.628 10.627 26.508 11.387 4.607-.307 8.461-1.616 12.75-3.25.957-4.21 1.132-6.257-1-10l2.992.254 3.883.308 3.867.317c3.144.378 3.144.378 5.258-.879v-4l-2.59-.988-3.348-1.324-3.339-1.301C143 128 143 128 142 125l10 1c-2.099-9.329-9.927-15.034-17.087-20.675-1.338-1.067-2.63-2.192-3.913-3.325v-2Zm15 42-1 6c3.628-1.866 3.628-1.866 6-5l-5-1ZM199 192c3.664 1.629 5.992 3.512 8 7v4c-4.879 2.074-8.951 2.624-14 1-3.252-2.616-5.422-5.127-7-9 4.27-3.203 7.833-3.776 13-3Zm-8 4 1 4 3.812 1.062 2.145.598c2.235.536 2.235.536 5.043-.66l-1-4-3.812-1.062-2.145-.598c-2.235-.536-2.235-.536-5.043.66Z" />
    </symbol>
    <symbol viewBox="0 0 281 256" id="02_Simple-drawing-of-a-cute-bird" xmlns="http://www.w3.org/2000/svg">
        <path
            d="M136 67c10.749 11.78 14.069 27.183 17.415 42.309 4.072 18.29 10.252 36.58 21.585 51.691v2l2.887-2.223c1.266-.947 2.533-1.894 3.801-2.839l1.896-1.471c4.717-3.482 4.717-3.482 8.291-3.405 2.125.938 2.125.938 3.437 3L196 158l2.312-.25c2.688.25 2.688.25 4.5 2.062C204 162 204 162 204 165l6 1c.75 2.688.75 2.688 1 6-2.819 4.52-5.815 6.163-10.688 8.125l-1.876.773a112.075 112.075 0 0 1-10.561 3.664c-3.115.963-3.72 1.238-5.813 3.938-2.74 3.322-5.346 3.781-9.429 4.824-5.628 1.445-10.116 3.436-15.071 6.488-10.021 5.932-20.799 9.884-32.562 10.188.033 2.105.102 4.209.188 6.312l.105 3.551c.396 3.334.396 3.334 3.258 5.055L131 226l-1 3-3-1.312c-2.628-.791-3.625-.866-6.141.328a82.56 82.56 0 0 0-4.062 2.918L115 232l-3-1v-3l2-1-8 1-1-2c-5.118-.301-7.756.17-12 3h-3l1-4h-8l1-4c1.581-.365 3.165-.717 4.75-1.062l2.672-.598C94 219 94 219 98 220v-11l-2.75-.188c-14.554-2.191-29.394-12.571-38.047-24.234C42.428 162.732 43.696 139.774 48 115a4255.985 4255.985 0 0 0-4.875-3.438l-2.742-1.933c-2.26-1.624-2.26-1.624-4.383-2.629.062-1.75.062-1.75 1-4 4.076-2.743 7.15-4.172 12-5l.699-2.711c3.842-14.244 9.172-26.329 22.051-34.664C92.248 49.372 118.649 50.409 136 67Zm-68.328 2.258C60.944 76.269 55.89 84.359 54 94c.215 3.082.583 4.499 2.562 6.875 2.188 3.234 2.03 5.309 1.438 9.125l-2.918 2.719c-3.624 3.461-4.342 6.538-4.957 11.406l-.336 2.357C47.248 146.184 48.323 165.136 60 182c10.853 13.332 25.677 22.901 43 25 18.069 1.167 34.606-1.157 51-9v-1l-3.883-.48c-16.949-2.226-33.345-5.754-45.344-18.973-9.606-13-10.78-25.992-8.773-41.547h3l-.48 2.055c-2.175 12.326-.32 23.064 6.23 33.695 8.813 12.23 22.134 18.058 36.654 20.533 4.92.739 9.635.983 14.596.717v-3a784.315 784.315 0 0 0-4.375-2.5l-2.461-1.406c-2.057-1.244-2.057-1.244-4.164-1.094v-3l3.332 1.75c11.715 6.136 11.715 6.136 24.668 6.25 3.593-.957 3.593-.957 6-3 .68-2.56.68-2.56 1-5-6.197-4.372-12.601-7.976-19.375-11.387C158 169 158 169 157 166l1.712.918c2.552 1.365 5.108 2.724 7.663 4.082l2.695 1.445 2.578 1.367 2.381 1.27c1.911 1.059 1.911 1.059 3.971.918-1.461-5.413-4.07-9.376-7.188-13.938-12.04-18.224-18.049-38.021-22.937-59.187C144.271 87.35 139.64 73.592 126 64c-17.753-10.652-43.106-9.398-58.328 5.258ZM183.375 162l-3.039 2.25L178 166l.84 2.266 1.098 2.984 1.089 2.953c.787 2.262 1.446 4.465 1.973 6.797 5.364-.564 9.843-1.876 14.812-3.938l2.022-.802c2.847-1.158 4.971-2.065 7.166-4.26v-3c-5.565.398-9.464 1.433-14.336 4.16C191 174 191 174 189 174l-1-2 2.062-.75c3.507-1.492 6.654-3.318 9.938-5.25l-1-5c-4.972 1.492-9.418 3.605-14 6l1.312-1.461 1.688-1.914 1.688-1.898c1.514-1.631 1.514-1.631 1.312-3.727-3.232 0-5.084 2.109-7.625 4ZM102 210v11c3.327 2.472 5.079 3.069 9.293 2.754A212.588 212.588 0 0 0 121 222v-11l-19-1Z" />
        <path
            d="M85 93c3.421 2.475 4.795 3.883 5.562 8.062-.698 3.651-1.544 4.794-4.562 6.938-2.875 1.062-2.875 1.062-6 1-3.375-2-3.375-2-6-5-.705-4.019-.648-5.99 1.562-9.438C78.983 92.37 81.01 92.37 85 93Zm-6 3-1 4h4l-1-4h-2ZM29 185c2.736 0 4.454.562 6.594 2.277 4.076 4.247 4.954 7.754 5.773 13.477.745 2.644 1.488 3.388 3.758 4.871L48 207l-.289-1.828-.336-2.422-.352-2.391c-.026-2.681.611-4.086 1.977-6.359 2.938.304 3.841.807 5.75 3.125 1.559 3.585 1.666 5.996 1.25 9.875-1.5 2.938-1.5 2.938-3 5l2.199.805c2.803 1.196 5.106 2.598 7.613 4.32l2.395 1.633L67 220l-2 2-1.898-1.094-2.477-1.406-2.461-1.406C56.107 216.85 56.107 216.85 54 217l-1.938 1.938c-2.826 2.826-4.592 3.045-8.562 3.187C40 222 40 222 37 221c.188-2.312.188-2.312 1-5 2.312-1.688 2.312-1.688 5-3l2.312-1.188L47 211c-2.239-2.014-3.462-2.967-6.516-3.152l-2.734.214c-5.229.148-9.685-.54-13.75-4.062-.711-2.141-.711-2.141-1-4 2.957-1.478 5.742-1.06 9-1l-.875-1.574c-3.78-7.101-3.78-7.101-3.125-11.426l1-1Zm2 3c.53 4.507 2.196 7.454 5 11h3c-1.487-4.596-3.798-7.47-7-11h-1Zm19 10c-.269 4.651-.269 4.651 1 9h2c1.033-2.788 1.045-3.868.062-6.75L52 198h-2Zm-23 3v2c3.823 1.423 6.913 2.24 11 2-1.559-2.146-1.559-2.146-4-4-3.668-.334-3.668-.334-7 0Zm14 16v2l8-1 1-3c-3.625-.201-5.865.142-9 2Z" />
    </symbol>
    <symbol viewBox="0 0 281 256" id="03_Cartoon-bird-with-black-and-white-plumage" xmlns="http://www.w3.org/2000/svg">
        <path
            d="M194.625 59.11c5.468 4.352 9.76 9.353 12.375 15.89l.031 2.421c1.172 3.12 1.833 3.293 4.758 4.676 1.604.675 3.217 1.33 4.836 1.965 5.694 2.33 11.173 4.622 16.375 7.938.937 2.25.937 2.25 1 4-3.645 1.635-6.762 2.335-10.738 2.632l-3.233.254-3.342.24-3.4.26c-2.762.212-5.524.416-8.287.614-.648 1.916-1.293 3.832-1.937 5.75l-1.09 3.234L201 112l-.766 2.09c-.339 2.765.671 4.273 1.953 6.722 4.916 10.407 7.161 20.251 7.25 31.688l.031 2.535c-.076 5.345-.733 9.32-3.468 13.965a279.88 279.88 0 0 1-5 2c-1.377 2.274-2.457 4.333-3.5 6.75-5.769 13.028-16.404 20.913-29.32 26.472C166 205 166 205 164 205l-.75 2.625c-1.587 4.285-3.378 8.2-7.345 10.69-2.155 1.567-2.155 1.567-2.451 4.32l-.063 3.126-.098 3.39-.043 3.536-.09 3.572A749.452 749.452 0 0 0 153 245l2.738.402 3.575.535 3.55.527C166 247 166 247 169 248v3l-10-1 3 2v3a52.145 52.145 0 0 1-8.625-4.063c-3.217-1.995-3.217-1.995-6.375-2.937l1-3h2c-.11-3.397-.241-6.792-.375-10.188l-.094-2.908-.117-2.822-.095-2.587c-.58-4.534-2.066-7.64-5.444-10.683-1.633-1.48-1.633-1.48-2.875-2.812v-2h-2l-.687 2.187C137 216 137 216 134.437 218.312c-4.88 5.381-3.565 14.243-3.5 21.188l.014 2.781c.012 2.24.03 4.48.049 6.72l14 2v5l-2.047-.255-2.703-.309-2.672-.316c-2.524-.25-2.524-.25-4.672.441-3.391.778-5.865-1.1-8.906-2.562l1-4h2c.035-4.356-.007-8.708-.063-13.063l.034-3.724c.026-6.566.026-6.566-2.486-12.436-1.819-1.79-1.819-1.79-3.787-3.315C119 215 119 215 117.492 211.644c-1.281-2.977-1.281-2.977-4.672-3.633l-3.695-.324-3.68-.363L102 207a141.198 141.198 0 0 1-5-1l-.516 1.976C94.99 213.367 93.398 217.547 90 222l-3.687-.75c-3.487-.46-3.994-.48-7 1.687L77 225c-2.812.25-2.812.25-5 0l-2-4h-2v2c-6.329 4.746-6.329 4.746-10 5l-3-2c-.406-4.949-.256-8.489 2-13l-4-3c.944-6.716 5.004-12.534 10.207-16.817l2.168-1.62c2.878-2.369 2.878-2.369 4.105-5.77.058-1.793.104-3.586.141-5.379 1.913-17.233 12.573-36.594 25.824-47.41 5.514-4.019 11.369-7.149 17.555-10.004-.442-5.254-1.053-10.387-2.063-15.563-2.338-13.714-2.304-26.352 5.75-38.062 18.72-24.36 53.064-27.293 77.938-10.266ZM179 56l6 7c-2.455 4.91-3.695 4.997-8.75 6.687l-3.672 1.262c-11.07 3.251-21.986 2.86-32.641-1.863-2.679-1.585-3.822-2.743-4.812-5.71A82.914 82.914 0 0 1 135 59c-9.235 2.597-14.195 10.321-18.652 18.23-5.33 10.954-2.78 26.111-.004 37.473.698 3.51.765 6.728.656 10.297l-2.93 1.433C105.637 130.673 98.626 135.15 92 142l-1.766 1.773C85.266 149.118 81.531 155.838 80 163l7-2-2.063 2.25L83 166c.316 2.141.316 2.141 1 4l2.117-.875L88.875 168l2.742-1.125C94 166 94 166 96 166l-1.934 1.32c-5.291 3.611-5.291 3.611-8.129 9.117L86 179c5.083-1.196 7.97-2.546 12-6h2l-3.906 4.492c-1.29 1.467-1.29 1.467-1.094 3.508 4.826-.509 7.86-1.87 11.875-4.563l2.93-1.94c1.086-.742 1.086-.742 2.195-1.497l-1 2c-.167 3.041-.167 3.041 0 6 1.17 1.396 1.17 1.396 4.437 1.125 6.342-.89 10.466-5.528 14.563-10.125 4.568-6.56 6.142-11.78 6.063-19.75l-.028-3.547L136 146h2c.906 13.214-.957 22.09-9.563 32.687-4.63 4.887-10.106 8.545-15.722 12.195a476.08 476.08 0 0 0-5.219 3.461c-2.826 1.895-5.658 3.78-8.496 5.657.787 2.143.787 2.143 2.715 2.632 5.833 1.292 11.32 1.592 17.285 1.368l.063 2.5c1.331 4.97 4.408 7.87 7.937 11.5 4.527-1.36 6.251-3.208 8.813-7.125l1.832-2.758L139 206l2.125 2.187c.955.941 1.913 1.88 2.875 2.813l1.492 1.48c3.03 2.851 3.03 2.851 6.992 3.457 3.338-1.244 4.066-2.726 5.766-5.812l1.516-2.68c1.327-2.483 1.327-2.483 2.234-5.445 2.301-1.07 2.301-1.07 5.313-2.125 12.939-5.12 22.745-13.87 28.652-26.387 2.261-5.435 3.332-10.558 3.035-16.488h2l.375 2.937L202 163l2 1c4.018-14.71.907-30.355-6.375-43.625-1.88-3.905-1.925-5.302-.625-9.375l1.563-3.5c1.468-3.575 1.86-5.693 1.437-9.5l-1.063-2c-1.437-3.066-.856-4.754.063-8 .9-1.49 1.818-2.968 2.75-4.438 2.173-3.754 2.173-3.754 1.5-8.125-5.018-8.67-12.476-15.209-21.813-18.812L179 56Zm26 28-2 3.25-1.125 1.828c-1.151 2.176-1.151 2.176-.875 5.922 3.187.03 6.375.047 9.563.062.895.01 1.79.017 2.712.026 5.025.018 9.773-.226 14.725-1.088-3.646-3.095-7.715-4.813-12.063-6.688l-2.181-.97C210.692 85.006 208.377 84 205 84Z" />
        <path
            d="M182 83c2.96 2.59 3.855 4.129 4.5 8-.645 3.871-1.54 5.41-4.5 8-3.982 1.355-6.983 1.42-10.875-.188-2.269-1.934-3.308-2.951-4.125-5.812.154-3.685.553-5.466 2.938-8.312 3.915-3.204 7.3-3.053 12.062-1.688Zm-7 3-1 4h4v-4h-3Z" />
    </symbol>
    <symbol viewBox="0 0 281 256" id="04_Cute-cartoon-chick-illustration" xmlns="http://www.w3.org/2000/svg">
        <path
            d="M165 20c2.29 3.435 2.178 4.985 2 9l3.25-.25c3.75.25 3.75.25 6.25 2C178 33 178 33 177.594 35.141L177 37l2.965 1.469c15.823 8.01 25.31 17.587 32.07 34.304 1.068 3.572 1.404 6.89 1.715 10.602.726 6.964 2.957 10.997 6.853 16.568 7.571 10.888 9.964 24.349 7.709 37.432-2.55 10.203-7.152 19.354-16.312 24.937a112.203 112.203 0 0 1-8 4.063c-2.94 1.593-5.086 3.34-7.625 5.5-7.459 6.099-15.748 9.57-25.375 10.125-.222 4.827-.208 9.303 1 14 3.024 2.694 6.126 3.917 10 5v4l-2.375-1c-2.468-1.119-2.468-1.119-4.625-1l1 5c-4.248-.472-6.2-2.967-9-6l-7 4c0-4 0-4 1.875-6.25C164 198 164 198 166 198v-14l-3.395.035c-1.472.01-2.945.019-4.417.027l-2.237.026c-3.25.015-5.845-.053-8.951-1.088-.4 8.553-.4 8.553 2.625 16.195 1.887 1.573 1.887 1.573 3.879 2.789L155 203v2c-3.344-.557-6.033-1.352-9-3l-2.312 3c-1.301 1.687-1.301 1.687-2.688 3h-3l.5-1.875c.576-2.086.576-2.086.5-4.125l-2.312 1.562L134 205l-3-1c1.018-2.661 1.667-3.805 4.164-5.266L142 196v-13l-3.184-1.102c-9.401-3.334-17.233-6.888-24.816-13.523-2.609-2.065-4.431-3.08-7.438-4.313C97.936 160.401 92.931 154.445 89 146c-5.153-14.51-3.457-28.086 2.5-42.004 1.508-3.012 3.249-5.621 5.188-8.371 3.545-5.3 4.158-9.88 4.808-16.137C103.366 66.546 111.916 54.103 122 46c7.523-4.989 15.109-9.033 24-11 .118-2.954.118-2.954-.625-5.562L145 27l2-2c2.625.375 2.625.375 5 1l1.25-2.875C155 20 155 20 156.812 18.5c3.237-.74 5.215.143 8.188 1.5Zm-6 2c-2.681 2.681-2.387 4.392-2.625 8.125l-.227 3.32L156 36l-4-4v5l-1.625.375c-17.526 4.612-31.195 13.548-40.496 29.176-2.975 5.46-4.532 10.438-5.242 16.601-.841 7.282-2.303 11.472-6.821 17.235-7.686 11.058-9.419 25.036-7.238 38.066 2.131 8.175 5.93 14.105 12.422 19.547a96.69 96.69 0 0 0 6 3l-.586-2.09A984.375 984.375 0 0 1 106 150l-.645-2.312c-1.578-6.177-1.799-12.332-1.355-18.688l1-1 .516 3.77c2.104 14.749 4.569 29.061 16.769 39.113 13.728 8.884 32.074 11.415 48.031 8.398 11.697-2.579 22.191-6.514 29.684-16.281 6.316-10.396 8.75-22.943 8-35l2 1c.7 11.353-1.432 21.297-5 32 6.166-1.734 11.12-6.094 14.555-11.402 6.561-12.599 7-24.532 2.793-38.118-2.588-6.682-6.39-12.543-10.348-18.48a211.153 211.153 0 0 1-1.25-7.938c-1.243-7.87-3.652-14.179-7.75-21.062l-1.254-2.266c-5.591-9.669-13.781-15.787-23.996-20.109-6.835-1.554-10.848.02-16.75 3.375 1.317-3.952 3.026-4.471 6.562-6.562A99.307 99.307 0 0 0 173 35v-2l-9 1c-1.158-3.473-1-6.358-1-10l-1-2h-3Z" />
        <path
            d="M133 76c3.363 2.486 4.801 3.914 5.562 8.062-.698 3.651-1.544 4.794-4.562 6.938-3.138.915-5.111 1.272-8.25.312-2.227-1.669-2.952-2.627-3.75-5.312.214-6.097.214-6.097 2.688-8.938 3.098-1.423 4.934-1.614 8.312-1.062Zm-5 2-2 4 4 1 1-4-3-1ZM187 76c3.323 2.456 4.776 3.926 5.625 8-.857 4.113-2.202 5.597-5.625 8-4.292.151-6.221-.337-9.5-3.125-1.988-3.81-1.709-5.795-.5-9.875 2.912-3.343 5.709-3.701 10-3Zm-6 3-1 4h4v-4h-3ZM159.188 85.313c3.435 2.06 6.622 4.261 9.812 6.688-1.507 3.36-3.438 6-5.813 8.811-.666.812-1.333 1.623-2.02 2.457C159 105 159 105 156.507 105.031c-3.102-1.276-4.625-2.818-6.82-5.344l-2.113-2.362C146 95 146 95 146 91c3.793-3.403 8.028-6.194 13.189-5.688Z" />
    </symbol>
</svg>
