<?xml version="1.0" encoding="UTF-8"?>
<!-- Generator: visioncortex VTracer 0.6.4 -->
<svg version="1.1" xmlns="http://www.w3.org/2000/svg" width="281" height="256">
<path d="M0 0 C4.543 1.278 7.304 3.881 10.645 7.051 C11.422 7.694 12.199 8.337 13 9 C13.528 9.443 14.056 9.886 14.601 10.343 C20.707 14.856 26.269 14.542 33.625 14.062 C35.284 14.007 35.284 14.007 36.977 13.951 C45.696 13.506 50.22 11.139 56.25 4.812 C60.811 0.049 60.811 0.049 65.062 -0.125 C68 0 68 0 69 1 C69.264 6.018 68.862 10.112 67.5 14.926 C66.959 17.171 66.747 19.325 66.562 21.625 C66.081 26.605 64.583 30.417 61 34 C60.158 36.022 59.374 38.067 58.625 40.125 C57.189 44.019 55.736 47.618 53.625 51.188 C49.439 59.525 54.132 69.176 56.828 77.4 C57.332 78.921 57.84 80.442 58.352 81.96 C62.405 94.709 59.379 107.57 54.527 119.674 C52.899 124.001 52.079 128.268 51.395 132.828 C51.266 133.657 51.137 134.486 51.004 135.341 C50.735 137.091 50.47 138.843 50.21 140.595 C49.819 143.204 49.404 145.809 48.986 148.414 C47.148 160.348 46.673 171.936 47 184 C47.621 184.117 48.243 184.235 48.883 184.355 C51 185 51 185 52.875 187.312 C54 190 54 190 53.312 192.25 C52 194 52 194 50 195 C46.912 195.031 43.837 194.933 40.75 194.84 C37.854 194.703 37.854 194.703 36 197 C30.741 198.547 25.251 198.766 20.062 197 C16.927 193.959 17.211 191.292 17 187 C15.824 187.99 15.824 187.99 14.625 189 C7.243 193.838 -4.454 190.643 -12.779 189.828 C-14.891 189.623 -17.004 189.433 -19.117 189.242 C-20.471 189.113 -21.826 188.983 -23.18 188.852 C-25.001 188.679 -25.001 188.679 -26.859 188.502 C-29.741 188.041 -31.592 187.608 -34 186 C-34.66 185.01 -35.32 184.02 -36 183 C-36.554 183.361 -37.109 183.722 -37.68 184.094 C-38.404 184.558 -39.129 185.022 -39.875 185.5 C-40.594 185.964 -41.314 186.428 -42.055 186.906 C-44 188 -44 188 -46 188 C-46 189.65 -46 191.3 -46 193 C-44.693 193.636 -43.379 194.258 -42.062 194.875 C-40.966 195.397 -40.966 195.397 -39.848 195.93 C-31.849 198.936 -23.592 199.548 -15.125 200.125 C-13.919 200.211 -12.712 200.296 -11.469 200.385 C-1.425 201.036 8.582 201.152 18.644 201.014 C19.713 201 20.782 200.987 21.883 200.973 C22.825 200.955 23.768 200.937 24.739 200.918 C27 201 27 201 29 202 C28.812 204.375 28.812 204.375 28 207 C21.733 210.581 14.102 210.159 7.098 210.168 C6.143 210.171 5.188 210.175 4.204 210.178 C2.185 210.183 0.165 210.185 -1.855 210.185 C-4.896 210.187 -7.937 210.206 -10.979 210.225 C-47.335 210.332 -47.335 210.332 -58 200 C-60.875 195.687 -60.793 192.055 -60 187 C-58.09 182.128 -54.863 179.338 -50.262 177.055 C-43.96 173.887 -43.96 173.887 -39 169 C-37.605 163.593 -38.39 158.016 -38.766 152.508 C-39.221 145.479 -37.49 139.888 -34.934 133.39 C-33.807 130.506 -32.75 127.6 -31.688 124.691 C-25.756 108.639 -20.254 94.308 -8 82 C-7.432 81.425 -6.864 80.85 -6.279 80.258 C-2.702 76.639 0.897 73.043 4.517 69.467 C5.251 68.741 5.251 68.741 6 68 C6.533 67.488 7.066 66.977 7.615 66.45 C10.911 63 12.832 57.603 13.137 52.883 C12.677 48.394 11.18 44.195 9.621 39.98 C9 38 9 38 9 35 C7.515 34.505 7.515 34.505 6 34 C2.306 28.207 0.939 21.344 -0.312 14.688 C-0.584 13.368 -0.584 13.368 -0.861 12.021 C-2.275 4.777 -2.275 4.777 -1 1 C-0.67 0.67 -0.34 0.34 0 0 Z M64 2 C62.15 4.045 60.513 6.046 58.875 8.25 C58.42 8.837 57.965 9.423 57.496 10.027 C55.256 12.986 53.734 15.372 53 19 C54.98 18.67 56.96 18.34 59 18 C59 18.99 59 19.98 59 21 C57.35 21 55.7 21 54 21 C54.66 22.32 55.32 23.64 56 25 C56.99 25 57.98 25 59 25 C59 25.66 59 26.32 59 27 C58.01 26.67 57.02 26.34 56 26 C56.66 27.32 57.32 28.64 58 30 C59.32 30 60.64 30 62 30 C64.184 26.316 64.868 22.407 65.625 18.25 C65.759 17.572 65.893 16.894 66.031 16.195 C66.926 11.396 67.12 6.881 67 2 C66.01 2 65.02 2 64 2 Z M0 3 C1.07 12.632 3.053 21.765 6 31 C9.791 31.256 9.791 31.256 12.25 30.062 C14.699 27.176 14.567 24.958 14.371 21.258 C13.198 14.123 5.88 8.009 1 3 C0.67 3 0.34 3 0 3 Z M55.484 7.391 C54.912 8.004 54.34 8.618 53.75 9.25 C50.711 12.391 47.724 14.729 44 17 C47.175 20.426 47.175 20.426 51 23 C51.206 21.866 51.412 20.731 51.625 19.562 C52.905 14.301 55.827 10.31 59 6 C56.903 5.775 56.903 5.775 55.484 7.391 Z M9 9 C9.422 9.675 9.843 10.351 10.277 11.047 C10.825 11.939 11.373 12.831 11.938 13.75 C12.483 14.632 13.028 15.513 13.59 16.422 C14.827 18.684 15.536 20.486 16 23 C19.401 21.593 20.892 19.971 23 17 C21.418 16.04 19.834 15.082 18.25 14.125 C17.368 13.591 16.487 13.058 15.578 12.508 C13.417 11.244 11.254 10.085 9 9 Z M30 15 C30.33 16.65 30.66 18.3 31 20 C31.33 18.68 31.66 17.36 32 16 C31.34 15.67 30.68 15.34 30 15 Z M36 15 C37 19 37 19 37 19 Z M27 16 C27.33 17.65 27.66 19.3 28 21 C28.33 21 28.66 21 29 21 C29 19.35 29 17.7 29 16 C28.34 16 27.68 16 27 16 Z M24 17 C22.638 18.981 21.304 20.981 20 23 C22.016 22.284 22.016 22.284 24 21 C24.805 18.95 24.805 18.95 25 17 C24.67 17 24.34 17 24 17 Z M33 15 C32.496 16.936 31.997 18.874 31.5 20.812 C31.222 21.891 30.943 22.97 30.656 24.082 C29.89 26.989 29.89 26.989 30 30 C29.34 30 28.68 30 28 30 C28.66 27.36 29.32 24.72 30 22 C28.68 22.99 27.36 23.98 26 25 C26.33 23.35 26.66 21.7 27 20 C20.865 23.877 15.339 28.083 10 33 C11.954 44.11 16.232 50.855 24 59 C18.125 54.25 18.125 54.25 17 52 C16.01 52.495 16.01 52.495 15 53 C17.983 58.012 21.44 61.387 26 65 C21.661 62.664 18.418 60.6 15 57 C13.539 60.061 12.082 63.124 10.625 66.188 C10.213 67.052 9.8 67.916 9.375 68.807 C8.975 69.648 8.576 70.489 8.164 71.355 C7.614 72.51 7.614 72.51 7.053 73.688 C5.958 76.092 4.981 78.548 4 81 C5.485 75.555 5.485 75.555 7 70 C-11.955 85.508 -21.361 102.46 -30.188 125.062 C-30.616 126.151 -31.044 127.239 -31.486 128.36 C-37.672 144.45 -39.319 156.834 -35.5 173.688 C-35.262 174.783 -35.023 175.878 -34.777 177.006 C-34.195 179.673 -33.602 182.337 -33 185 C-25.024 187.084 -17.15 187.631 -8.938 188.125 C-7.581 188.212 -6.225 188.299 -4.869 188.387 C-1.58 188.597 1.71 188.802 5 189 C5 187.68 5 186.36 5 185 C5.99 186.98 5.99 186.98 7 189 C7.66 189 8.32 189 9 189 C8.505 186.525 8.505 186.525 8 184 C8.66 184 9.32 184 10 184 C10 185.65 10 187.3 10 189 C10.66 189 11.32 189 12 189 C12.417 186.126 12.417 186.126 12 183 C8.376 180.165 5.662 179.632 1.125 179.75 C-0.441 179.789 -0.441 179.789 -2.039 179.828 C-5.422 180.025 -8.667 180.394 -12 181 C-12 180.34 -12 179.68 -12 179 C-10.975 179.058 -9.95 179.116 -8.895 179.176 C-7.534 179.223 -6.173 179.268 -4.812 179.312 C-4.139 179.354 -3.465 179.396 -2.771 179.439 C1.212 179.537 2.779 179.185 5.875 176.598 C6.576 175.74 7.278 174.883 8 174 C8.897 173.072 8.897 173.072 9.812 172.125 C11.865 168.453 11.411 165.048 10.602 161.016 C9.032 155.758 6.333 153.356 2.133 149.992 C-2.8 145.385 -6.087 139.038 -9 133 C-7.366 134.634 -6.405 136.695 -5.25 138.688 C-0.581 146.861 -0.581 146.861 7 152 C5.825 149.633 4.628 147.281 3.414 144.934 C-0.257 137.76 -3.478 130.676 -6 123 C-5.34 123 -4.68 123 -4 123 C-3.773 124.237 -3.546 125.475 -3.312 126.75 C-1.77 133.689 0.438 142.232 6 147 C4.928 142.052 3.783 137.147 2.5 132.25 C0.886 125.894 -0.11 119.492 -1 113 C-0.34 113 0.32 113 1 113 C0.907 114.516 0.907 114.516 0.812 116.062 C0.893 127.628 4.774 138.902 8.091 149.86 C9.958 156.128 11.625 162.415 13.129 168.777 C13.395 169.9 13.395 169.9 13.666 171.045 C14.544 174.766 15.404 178.491 16.247 182.22 C16.565 183.591 16.884 184.961 17.203 186.332 C17.478 187.546 17.753 188.76 18.036 190.011 C18.975 192.922 19.525 194.258 22 196 C24.626 196.251 24.626 196.251 27 196 C26.67 194.02 26.34 192.04 26 190 C27.485 190.99 27.485 190.99 29 192 C29 193.32 29 194.64 29 196 C30.32 196 31.64 196 33 196 C32.584 192.086 31.942 188.613 30.621 184.902 C28.895 179.834 27.603 174.708 26.375 169.5 C26.158 168.614 25.942 167.729 25.719 166.816 C25.51 165.939 25.301 165.061 25.086 164.156 C24.901 163.381 24.716 162.606 24.525 161.807 C23.217 154.815 22.856 147.908 22.902 140.809 C22.904 139.978 22.905 139.147 22.907 138.291 C22.912 135.673 22.925 133.055 22.938 130.438 C22.943 128.648 22.947 126.858 22.951 125.068 C22.962 120.712 22.979 116.356 23 112 C23.66 112 24.32 112 25 112 C24.939 112.625 24.879 113.249 24.816 113.893 C24.54 116.761 24.27 119.631 24 122.5 C23.857 123.973 23.857 123.973 23.711 125.477 C22.52 135.344 22.52 135.344 24 145 C32.948 141.054 37.404 131.594 41 123 C41.859 120.32 42.468 117.768 43 115 C42.052 121.648 40.288 126.993 37.023 132.871 C35.783 135.057 35.783 135.057 36 138 C40.576 132.37 43.954 126.578 47 120 C44.217 128.281 40.453 136.031 33 141 C32.941 143.791 33.058 146.357 33.312 149.125 C33.757 154.864 34.043 160.523 33.902 166.281 C33.879 167.336 33.856 168.39 33.833 169.476 C33.779 171.53 33.706 173.584 33.611 175.637 C33.456 182.695 34.985 187.194 39 193 C39.777 192.826 40.555 192.652 41.355 192.473 C44.017 191.997 45.473 192.158 48 193 C48 191.35 48 189.7 48 188 C49 189 49 189 51 192 C51.25 189.584 51.25 189.584 51 187 C48.185 184.723 48.185 184.723 45 185 C44.552 169.524 46.663 154.559 49.001 139.294 C49.303 137.311 49.594 135.325 49.884 133.34 C51.13 125.457 53.022 118.442 55.903 111.015 C61.123 96.669 57.374 83.056 52.727 69.217 C51.504 65.487 50.531 61.696 49.543 57.898 C49.045 55.936 49.045 55.936 48 54 C47.455 54.373 46.909 54.745 46.348 55.129 C41.385 58.242 37.906 59.748 32.059 58.633 C25.608 56.65 20.774 51.438 17 46 C17 45.01 17 44.02 17 43 C17.447 43.519 17.895 44.039 18.355 44.574 C21.782 48.527 25.244 52.358 29 56 C30.65 55.01 32.3 54.02 34 53 C33.01 51.02 33.01 51.02 32 49 C31.34 49 30.68 49 30 49 C30.66 48.01 31.32 47.02 32 46 C35 45.875 35 45.875 38 46 C38.99 45.505 38.99 45.505 40 45 C40 45.99 40 46.98 40 48 C39.01 48.66 38.02 49.32 37 50 C37.495 51.98 37.495 51.98 38 54 C40.186 55.041 40.186 55.041 43 55 C46.362 52.55 48.709 49.437 51 46 C49.125 50.75 49.125 50.75 48 53 C52.204 51.257 53.433 49.185 55.316 45.176 C56.383 41.781 55.854 39.418 55 36 C55.495 36.99 55.495 36.99 56 38 C56.66 38 57.32 38 58 38 C57.736 34.568 57.736 34.568 57 31 C56.01 30.34 55.02 29.68 54 29 C53.526 28.196 53.051 27.391 52.562 26.562 C50.966 23.945 49.538 22.663 47 21 C46.34 21.33 45.68 21.66 45 22 C45 22.33 45 22.66 45 23 C42.64 20.64 42.509 19.221 42 16 C41.34 16 40.68 16 40 16 C39.804 20.219 40.198 23.17 42 27 C39.602 24.602 39.657 23.667 39.375 20.375 C39.263 19.149 39.263 19.149 39.148 17.898 C39.099 17.272 39.05 16.645 39 16 C38.67 16 38.34 16 38 16 C37.973 18.125 37.954 20.25 37.938 22.375 C37.926 23.558 37.914 24.742 37.902 25.961 C37.785 28.919 37.785 28.919 39 31 C38.34 31 37.68 31 37 31 C37.041 29.804 37.082 28.608 37.125 27.375 C37.139 23.565 36.363 20.577 35 17 C35 16.34 35 15.68 35 15 C34.34 15 33.68 15 33 15 Z M34 54 C33.01 54.66 32.02 55.32 31 56 C31 56.66 31 57.32 31 58 C33.97 58 36.94 58 40 58 C40.33 57.34 40.66 56.68 41 56 C37.657 54.806 37.657 54.806 34 54 Z M29 143 C26.378 144.596 26.378 144.596 24 147 C23.582 150.168 23.582 150.168 24 153 C27.258 152.273 27.258 152.273 28.75 149.125 C30.373 146.043 30.373 146.043 29 143 Z M31 146 C29.458 147.946 29.458 147.946 27.875 150.438 C27.036 151.673 27.036 151.673 26.18 152.934 C23.44 160.056 26.655 168.325 28.5 175.438 C28.838 176.782 28.838 176.782 29.184 178.154 C30.274 182.692 30.274 182.692 32 187 C32.99 186.505 32.99 186.505 34 186 C33.881 181.75 33.756 177.5 33.628 173.25 C33.585 171.808 33.543 170.366 33.503 168.924 C33.287 161.24 33.014 153.629 32 146 C31.67 146 31.34 146 31 146 Z M-56 184 C-58.127 186.725 -58.88 188.461 -59.625 191.812 C-58.634 196.864 -56.005 199.848 -52 203 C-32.399 212.244 2.018 212.382 23 207 C25.799 205.526 25.799 205.526 28 204 C24.264 201.594 21.02 201.798 16.656 201.875 C15.176 201.892 13.697 201.91 12.217 201.927 C11.06 201.945 11.06 201.945 9.881 201.964 C-36.604 202.663 -36.604 202.663 -47 194 C-48.125 192.125 -48.125 192.125 -48 190 C-44.429 185.508 -39.869 182.889 -35 180 C-35.66 176.7 -36.32 173.4 -37 170 C-42.752 170 -52.01 180.029 -56 184 Z M11 171 C9.637 172.79 9.637 172.79 8.375 175 C7.591 176.32 6.808 177.64 6 179 C8.97 179.99 11.94 180.98 15 182 C14.34 178.37 13.68 174.74 13 171 C12.34 171 11.68 171 11 171 Z M34 189 C34 190.65 34 192.3 34 194 C34.99 194.495 34.99 194.495 36 195 C35.67 193.02 35.34 191.04 35 189 C34.67 189 34.34 189 34 189 Z " fill="#000000" transform="translate(146,0)"/>
<path d="M0 0 C0.66 0 1.32 0 2 0 C1.34 1.98 0.68 3.96 0 6 C0.66 6.33 1.32 6.66 2 7 C1.01 7 0.02 7 -1 7 C-1.043 5 -1.041 3 -1 1 C-0.67 0.67 -0.34 0.34 0 0 Z " fill="#000000" transform="translate(157,19)"/>
<path d="M0 0 C0.33 0 0.66 0 1 0 C1 1.65 1 3.3 1 5 C0.01 5.495 0.01 5.495 -1 6 C-0.67 4.02 -0.34 2.04 0 0 Z " fill="#000000" transform="translate(179,25)"/>
<path d="" fill="#000000" transform="translate(0,0)"/>
<path d="" fill="#000000" transform="translate(0,0)"/>
<path d="M0 0 C2.5 0.938 2.5 0.938 4.25 3.062 C5.687 6.367 6.15 9.364 6.5 12.938 C5.84 11.617 5.18 10.297 4.5 8.938 C2.891 9.03 2.891 9.03 1.25 9.125 C-2.609 8.932 -3.788 8.541 -6.5 5.938 C-6.188 4.062 -6.188 4.062 -5.5 1.938 C-2.5 -0.062 -2.5 -0.062 0 0 Z M-4.5 2.938 C-4.17 3.597 -3.84 4.258 -3.5 4.938 C-3.17 4.278 -2.84 3.617 -2.5 2.938 C-3.16 2.938 -3.82 2.938 -4.5 2.938 Z M-0.5 2.938 C0.5 4.938 0.5 4.938 0.5 4.938 Z M0.5 5.938 C0.17 6.597 -0.16 7.258 -0.5 7.938 C0.49 7.608 1.48 7.278 2.5 6.938 C1.84 6.608 1.18 6.278 0.5 5.938 Z " fill="#000000" transform="translate(170.5,31.0625)"/>
<path d="M0 0 C0.688 1.812 0.688 1.812 1 4 C-0.523 5.958 -1.782 6.891 -4 8 C-6 8.04 -8 8.043 -10 8 C-10.33 8.99 -10.66 9.98 -11 11 C-11.325 6.346 -10.798 3.766 -8 0 C-5.138 -1.431 -3.066 -0.6 0 0 Z M-8 2 C-7 6 -7 6 -7 6 Z M-3 2 C-2.67 2.99 -2.34 3.98 -2 5 C-2 4.01 -2 3.02 -2 2 C-2.33 2 -2.66 2 -3 2 Z " fill="#000000" transform="translate(197,32)"/>
<path d="M0 0 C0.66 0.33 1.32 0.66 2 1 C1.01 1 0.02 1 -1 1 C-0.67 0.67 -0.34 0.34 0 0 Z " fill="#000000" transform="translate(192,57)"/>
<path d="M0 0 C4 5 4 5 8 10 C4.204 8.509 2.283 6.343 0 3 C0 2.01 0 1.02 0 0 Z " fill="#000000" transform="translate(161,59)"/>
<path d="M0 0 C0.66 0 1.32 0 2 0 C1.67 0.66 1.34 1.32 1 2 C0.67 1.34 0.34 0.68 0 0 Z " fill="#000000" transform="translate(171,60)"/>
<path d="M0 0 C4.172 1.735 7.346 4.605 10.75 7.5 C11.352 7.999 11.954 8.498 12.574 9.012 C14.09 10.294 15.55 11.643 17 13 C17 13.66 17 14.32 17 15 C12.342 13.998 8.489 11.788 4.312 9.562 C3.528 9.155 2.744 8.747 1.936 8.326 C1.19 7.931 0.444 7.536 -0.324 7.129 C-1.006 6.769 -1.687 6.408 -2.389 6.037 C-4 5 -4 5 -5 3 C-0.028 4.492 4.418 6.605 9 9 C8.35 8.434 7.701 7.868 7.031 7.285 C6.196 6.552 5.361 5.818 4.5 5.062 C3.665 4.332 2.829 3.601 1.969 2.848 C1.319 2.238 0.669 1.628 0 1 C0 0.67 0 0.34 0 0 Z " fill="#000000" transform="translate(136,145)"/>
<path d="" fill="#000000" transform="translate(0,0)"/>
<path d="M0 0 C1.65 0 3.3 0 5 0 C3.02 0.99 3.02 0.99 1 2 C0.67 1.34 0.34 0.68 0 0 Z " fill="#000000" transform="translate(186,185)"/>
<path d="" fill="#000000" transform="translate(0,0)"/>
</svg>
