<?xml version="1.0" encoding="UTF-8"?>
<!-- Generator: visioncortex VTracer 0.6.4 -->
<svg version="1.1" xmlns="http://www.w3.org/2000/svg" width="281" height="256">
<path d="M0 0 C4.014 0.428 6.421 1.735 9.625 4.125 C14.251 7.492 18.998 10.583 23.848 13.617 C26 15 26 15 27 16 C30.742 16.061 34.47 16.02 38.211 15.961 C44.571 15.899 44.571 15.899 47.863 16.676 C50.032 17.241 50.032 17.241 51.746 15.918 C52.304 15.347 52.862 14.776 53.438 14.188 C57.153 10.691 61.019 7.58 65.125 4.562 C65.711 4.114 66.297 3.665 66.9 3.202 C70.716 0.426 73.287 -0.622 78 0 C78.495 0.495 78.495 0.495 79 1 C78.787 7.609 77.166 12.191 74.258 18.082 C72.527 22.098 71.737 26.177 70.969 30.469 C70 33 70 33 67.672 34.336 C63.783 36.758 62.613 40.047 60.75 44.125 C57.047 51.953 57.047 51.953 56 53 C55.169 58.607 55.924 61.32 59.152 65.977 C63.151 72.052 66.153 78.346 69.062 85 C69.584 86.176 70.106 87.352 70.643 88.564 C73.986 96.246 76.682 103.917 78.98 111.963 C80.554 117.232 82.697 120.9 86.387 125.039 C90.981 130.623 92.621 137.357 92.34 144.473 C91.854 148.085 90.848 151.433 89.656 154.871 C88.853 157.107 88.853 157.107 89 160 C96.939 164.219 104.548 164.577 113.316 164.614 C117.11 164.633 120.902 164.72 124.695 164.801 C125.429 164.815 126.163 164.829 126.919 164.844 C154.539 165.425 154.539 165.425 163.309 172.992 C163.867 173.655 164.425 174.317 165 175 C164.75 177.25 164.75 177.25 164 179 C160.03 178.578 156.687 177.93 152.97 176.469 C147.423 174.587 142.227 174.672 136.422 174.812 C135.333 174.824 134.245 174.835 133.124 174.847 C128.507 174.896 123.892 174.98 119.276 175.062 C94.239 175.466 94.239 175.466 84 172 C83.743 172.78 83.487 173.559 83.222 174.362 C81.883 177.252 81.243 177.868 78.445 179.203 C77.748 179.543 77.051 179.884 76.332 180.234 C75.604 180.57 74.875 180.905 74.125 181.25 C73.404 181.601 72.684 181.951 71.941 182.312 C66.576 184.882 66.576 184.882 63.8 185.452 C63.206 185.633 62.612 185.814 62 186 C61.794 186.804 61.588 187.609 61.375 188.438 C60 191 60 191 57.902 191.844 C52.22 193.146 48.431 192.995 43 191 C40.492 191 38.282 191.217 35.812 191.562 C31.32 192.085 27.449 191.794 23 191 C22 190 22 190 21.938 186.5 C21.958 185.345 21.979 184.19 22 183 C22 182.67 22 182.34 22 182 C20.35 181.67 18.7 181.34 17 181 C16.312 178.688 16.312 178.688 16 176 C17.84 173.386 20.179 172.372 23 171 C22.221 169.983 22.221 169.983 21.426 168.945 C9.06 152.442 9.06 152.442 9.41 141.434 C10.01 137.942 11.056 135.074 12.362 131.804 C16.428 121.543 15.794 114.354 13.086 103.742 C11.199 96.168 12.048 89.364 13.688 81.812 C13.949 80.572 13.949 80.572 14.216 79.306 C15.585 73.126 17.518 67.531 20.145 61.762 C22.356 54.621 17.998 46.44 15 40 C13.453 37.86 12.099 36.657 10 35 C6.706 32.399 6.327 29.861 5.562 25.812 C4.389 20.244 2.752 15.954 0 11 C-1.165 7.506 -1.136 4.663 -1 1 C-0.67 0.67 -0.34 0.34 0 0 Z M0 2 C0.866 7.662 1.839 12.122 4.988 17.004 C6.804 20.586 7.456 24.519 8.289 28.426 C8.811 31.14 8.811 31.14 11 33 C14.383 32.822 15.763 32.212 18.312 29.938 C18.869 29.298 19.426 28.659 20 28 C16.519 27.304 16.519 27.304 13 27 C12.67 26.34 12.34 25.68 12 25 C12.784 25.186 13.567 25.371 14.375 25.562 C16.971 26.26 16.971 26.26 19 25 C18.125 17.566 12.971 12.646 7.875 7.625 C7.337 7.08 6.8 6.534 6.246 5.973 C3.618 2.97 3.618 2.97 0 2 Z M9 7 C9.597 7.688 9.597 7.688 10.207 8.391 C11.814 10.252 13.409 12.124 15 14 C15.866 15.021 15.866 15.021 16.75 16.062 C18.369 18.572 19.157 21.148 20 24 C22.31 23.01 24.62 22.02 27 21 C24.562 14.418 16.963 10.156 11 7 C10.34 7 9.68 7 9 7 Z M70.027 5.455 C69.543 5.944 69.06 6.434 68.562 6.938 C68.07 7.432 67.577 7.927 67.069 8.437 C62.973 12.713 59 17.809 59 24 C59.99 24.33 60.98 24.66 62 25 C62.33 23.68 62.66 22.36 63 21 C63.66 21.33 64.32 21.66 65 22 C64.67 23.32 64.34 24.64 64 26 C62.02 26 60.04 26 58 26 C58 26.99 58 27.98 58 29 C56.35 27.35 54.7 25.7 53 24 C54.32 24 55.64 24 57 24 C57.58 22.788 57.58 22.788 58.172 21.551 C58.953 19.948 58.953 19.948 59.75 18.312 C60.516 16.729 60.516 16.729 61.297 15.113 C62.945 12.1 64.775 9.607 67 7 C63.473 8.604 60.495 10.713 57.375 13 C55.933 14.052 55.933 14.052 54.461 15.125 C51.99 16.921 51.99 16.921 50 19 C46.875 18.625 46.875 18.625 44 18 C44.124 19.258 44.248 20.516 44.375 21.812 C44.445 22.52 44.514 23.228 44.586 23.957 C44.927 26.3 44.927 26.3 47 29 C44.772 26.772 44.308 25.342 43.375 22.375 C43.115 21.558 42.854 20.74 42.586 19.898 C42.393 19.272 42.199 18.645 42 18 C41.67 18.99 41.34 19.98 41 21 C40.34 19.68 39.68 18.36 39 17 C38.67 20.96 38.34 24.92 38 29 C36.048 25.096 35.494 22.278 35 18 C31.882 18.646 31.882 18.646 31 21 C30.67 20.34 30.34 19.68 30 19 C26.082 20.959 23.475 23.05 21.5 27 C19.822 30.356 18.038 31.865 15 34 C16.786 40.954 19.256 46.873 23 53 C23.66 52.01 24.32 51.02 25 50 C26.485 53.465 26.485 53.465 28 57 C32.257 57.407 32.257 57.407 35.875 55.5 C36.246 55.005 36.618 54.51 37 54 C36.484 53.402 35.969 52.804 35.438 52.188 C34.963 51.466 34.489 50.744 34 50 C34.33 49.01 34.66 48.02 35 47 C36.423 47.031 36.423 47.031 37.875 47.062 C40.907 47.226 40.907 47.226 43 46 C42.319 46.907 41.639 47.815 40.938 48.75 C38.73 51.715 38.73 51.715 39.25 54.375 C39.498 54.911 39.745 55.447 40 56 C42.858 56.685 42.858 56.685 46 57 C46.99 56.34 47.98 55.68 49 55 C49.736 51.432 49.736 51.432 50 48 C51 49 51 49 51.062 51.562 C51.042 52.367 51.021 53.171 51 54 C54.278 53.248 54.278 53.248 56 50 C56.339 47.668 56.672 45.334 57 43 C58.062 40.562 58.062 40.562 59 39 C59.99 39 60.98 39 62 39 C62.062 38.216 62.124 37.432 62.188 36.625 C62.456 35.759 62.724 34.892 63 34 C65.5 32.75 65.5 32.75 68 32 C69.471 30.529 69.435 29.034 69.812 27 C70.876 21.979 72.797 17.613 75 13 C76.807 9.116 77.2 6.293 77 2 C73.409 2 72.529 3.04 70.027 5.455 Z M36 18 C35.833 21.417 35.833 21.417 36 25 C36.66 25.66 37.32 26.32 38 27 C37.67 24.03 37.34 21.06 37 18 C36.67 18 36.34 18 36 18 Z M39 48 C39.33 48.66 39.66 49.32 40 50 C40.33 49.34 40.66 48.68 41 48 C40.34 48 39.68 48 39 48 Z M23 54 C22.902 54.594 22.804 55.189 22.703 55.801 C21.857 60.493 20.773 64.856 19.062 69.312 C12.885 85.787 13.255 100.01 16.93 116.918 C17.946 121.611 18.715 126.317 19.438 131.062 C20.441 137.471 21.864 143.679 23.562 149.938 C29.31 171.145 29.31 171.145 27 180 C24.875 182.875 24.875 182.875 23 185 C23.126 187.264 23.126 187.264 24 189 C24.66 189 25.32 189 26 189 C26.495 187.02 26.495 187.02 27 185 C27.66 185 28.32 185 29 185 C29 186.65 29 188.3 29 190 C29.743 189.814 30.485 189.629 31.25 189.438 C34 189 34 189 36.188 189.562 C36.786 189.707 37.384 189.851 38 190 C40.436 188.02 40.436 188.02 40.117 184.176 C40.052 182.554 39.971 180.933 39.875 179.312 C39.828 178.454 39.781 177.595 39.732 176.711 C39.274 170.066 37.899 164.262 35.969 157.887 C34.73 153.42 34.428 148.919 34.062 144.312 C33.494 137.451 32.256 131.812 29.219 125.543 C28 123 28 123 26 117 C27.98 121.29 29.96 125.58 32 130 C32.998 127.005 33.007 125.827 32.562 122.812 C32.377 121.554 32.191 120.296 32 119 C32.66 122.63 33.32 126.26 34 130 C34.33 130 34.66 130 35 130 C35 125.38 35 120.76 35 116 C35.66 116 36.32 116 37 116 C36.881 117.265 36.763 118.529 36.641 119.832 C36.509 121.492 36.379 123.152 36.25 124.812 C36.169 125.646 36.088 126.479 36.004 127.338 C35.839 129.619 35.733 131.728 36 134 C38.604 136.882 41.173 137.627 45 138 C47.725 137.623 47.725 137.623 50 137 C49.395 130.936 48.137 125.345 46.438 119.5 C46.204 118.678 45.97 117.855 45.729 117.008 C45.158 115.004 44.58 113.002 44 111 C44.33 110.67 44.66 110.34 45 110 C45.11 110.606 45.219 111.212 45.332 111.836 C46.504 118.031 48.083 123.995 50 130 C50.66 130 51.32 130 52 130 C52 123.4 52 116.8 52 110 C52.495 118.91 52.495 118.91 53 128 C54.65 126.35 56.3 124.7 58 123 C57.567 123.474 57.134 123.949 56.688 124.438 C51.385 132.49 51.357 141.649 51 151 C53.31 151 55.62 151 58 151 C58 151.66 58 152.32 58 153 C55.69 153 53.38 153 51 153 C50.863 153.572 50.727 154.145 50.586 154.734 C50.015 156.942 49.33 159.082 48.625 161.25 C46.46 168.37 45.304 175.685 44 183 C43.765 183.922 43.531 184.843 43.289 185.793 C42.716 188.287 42.716 188.287 45 191 C45.99 191 46.98 191 48 191 C48 189.35 48 187.7 48 186 C48.66 186 49.32 186 50 186 C50 187.65 50 189.3 50 191 C51.32 191 52.64 191 54 191 C54.33 189.68 54.66 188.36 55 187 C55.33 187.99 55.66 188.98 56 190 C56.99 190 57.98 190 59 190 C58.452 185.166 58.452 185.166 56.929 180.581 C55.86 177.611 55.981 175.984 56.504 172.895 C56.665 171.919 56.827 170.944 56.993 169.94 C57.181 168.908 57.369 167.876 57.562 166.812 C57.84 165.215 57.84 165.215 58.122 163.586 C59.447 156.253 61.126 149.09 63.336 141.974 C65.116 136.163 66.968 129.905 65 124 C65.99 122.515 65.99 122.515 67 121 C67.46 117.802 67.46 117.802 67.625 114.312 C67.7 113.133 67.775 111.954 67.852 110.738 C67.901 109.835 67.95 108.931 68 108 C67.219 130.595 67.219 130.595 65 141 C68.334 138.354 69.038 135.315 70.188 131.312 C70.532 130.133 70.876 128.954 71.23 127.738 C71.484 126.835 71.738 125.931 72 125 C70.545 131.814 69.219 137.331 65 143 C62.382 148.4 60.997 153.696 59.812 159.562 C59.635 160.387 59.458 161.211 59.275 162.061 C58.367 166.446 57.788 170.495 58 175 C59.155 174.835 60.31 174.67 61.5 174.5 C64.458 174.098 67.095 174.063 70.062 174.312 C74.609 173.952 76.152 173.057 79.336 169.961 C86.876 161.075 90.795 150.752 90.48 139.086 C89.357 131.873 85.533 125.689 80.875 120.188 C78.206 116.81 77.326 113.874 76.375 109.688 C72.84 94.153 64.56 70.56 53 59 C52.638 57.674 52.303 56.341 52 55 C51.446 55.494 50.891 55.987 50.32 56.496 C49.596 57.137 48.871 57.777 48.125 58.438 C47.406 59.076 46.686 59.714 45.945 60.371 C42.31 63.415 39.706 63.386 35 63 C30.031 60.687 26.683 58.017 23 54 Z M31 59 C31.991 60.666 31.991 60.666 34 62 C36.725 62.443 39.275 62.443 42 62 C44.009 60.666 44.009 60.666 45 59 C39.089 55.743 36.911 55.743 31 59 Z M16 126 C15.152 128.183 14.322 130.37 13.5 132.562 C13.036 133.781 12.572 134.999 12.094 136.254 C9.784 144.166 11.368 149.896 15 157 C17.53 161.1 20.229 165.06 23 169 C23.66 169.99 24.32 170.98 25 172 C25.66 172 26.32 172 27 172 C26.519 163.69 24.655 155.911 22.562 147.875 C22.25 146.652 21.937 145.428 21.615 144.168 C21.015 141.819 20.412 139.471 19.805 137.124 C18.851 133.421 17.921 129.712 17 126 C16.67 126 16.34 126 16 126 Z M35 135 C34.174 146.954 36.387 157.361 39.541 168.856 C40.124 171.579 40 174.227 40 177 C40.99 177.33 41.98 177.66 43 178 C45.025 174.963 45.544 173.179 46.254 169.66 C46.469 168.596 46.683 167.532 46.904 166.436 C47.23 164.766 47.23 164.766 47.562 163.062 C47.784 161.984 48.005 160.906 48.232 159.795 C49.671 152.543 50.547 145.379 51 138 C48.406 138.094 48.406 138.094 45.812 138.188 C41.226 138.353 38.777 137.631 35 135 Z M86 161 C84.68 163.64 83.36 166.28 82 169 C83.238 169.474 84.475 169.949 85.75 170.438 C86.446 170.704 87.142 170.971 87.859 171.246 C93.113 173.096 98.158 173.365 103.688 173.625 C104.648 173.671 105.609 173.718 106.6 173.766 C114.1 174.064 121.508 173.834 129 173.438 C148.601 172.427 148.601 172.427 157.672 176.074 C160.047 177.185 160.047 177.185 163 177 C162.02 174.483 161.378 173.23 159.039 171.805 C145.421 166.56 131.704 166.65 117.331 166.544 C99.228 166.385 99.228 166.385 91 163 C89.969 162.608 88.938 162.216 87.875 161.812 C87.256 161.544 86.637 161.276 86 161 Z M79.031 171.094 C73.8 174 70.02 175.568 64.008 174.98 C61.553 175.004 60.1 175.78 58 177 C58.33 178.65 58.66 180.3 59 182 C60.32 181.01 61.64 180.02 63 179 C63 180.32 63 181.64 63 183 C68.061 182.518 70.888 180.913 75 178 C76.093 177.526 77.186 177.051 78.312 176.562 C81.247 175.256 81.247 175.256 81.875 172.312 C81.916 171.549 81.957 170.786 82 170 C80.77 169.919 80.77 169.919 79.031 171.094 Z M19 175 C18.267 177.015 18.267 177.015 18 179 C18.99 179 19.98 179 21 179 C22.667 179 24.333 179 26 179 C26.33 177.35 26.66 175.7 27 174 C23.956 173.918 21.928 174.024 19 175 Z M40 179 C40.33 180.98 40.66 182.96 41 185 C41.66 184.34 42.32 183.68 43 183 C43 181.68 43 180.36 43 179 C42.01 179 41.02 179 40 179 Z M61 181 C60.67 181.99 60.34 182.98 60 184 C60.66 184 61.32 184 62 184 C61.67 183.01 61.34 182.02 61 181 Z " fill="#000000" transform="translate(80,7)"/>
<path d="M0 0 C0.33 0 0.66 0 1 0 C1 2.64 1 5.28 1 8 C0.67 8 0.34 8 0 8 C0 5.36 0 2.72 0 0 Z " fill="#000000" transform="translate(113,26)"/>
<path d="M0 0 C1 4 1 4 1 4 Z " fill="#000000" transform="translate(122,31)"/>
<path d="" fill="#000000" transform="translate(0,0)"/>
<path d="M0 0 C2 1 2 1 2 1 Z " fill="#000000" transform="translate(131,37)"/>
<path d="" fill="#000000" transform="translate(0,0)"/>
<path d="M0 0 C3.438 0.188 3.438 0.188 7 1 C9.239 3.823 9 5.279 9 9 C1.63 9.362 1.63 9.362 -1.062 7.812 C-2.395 5.237 -1.854 3.703 -1 1 C-0.67 0.67 -0.34 0.34 0 0 Z M0 2 C0 2.99 0 3.98 0 5 C0.66 4.01 1.32 3.02 2 2 C1.34 2 0.68 2 0 2 Z M5 3 C4.34 4.65 3.68 6.3 3 8 C4.32 7.67 5.64 7.34 7 7 C6.34 5.68 5.68 4.36 5 3 Z M0 5 C1 7 1 7 1 7 Z " fill="#000000" transform="translate(102,39)"/>
<path d="M0 0 C0.66 0.66 1.32 1.32 2 2 C1.812 4.5 1.812 4.5 1 7 C-2.644 9.429 -4.712 9.162 -9 9 C-8.688 5.625 -8.688 5.625 -8 2 C-4.776 -0.149 -3.733 -0.383 0 0 Z M-2 3 C-1.67 4.32 -1.34 5.64 -1 7 C-1 5.68 -1 4.36 -1 3 C-1.33 3 -1.66 3 -2 3 Z M-6 4 C-6 5.32 -6 6.64 -6 8 C-5.01 7.67 -4.02 7.34 -3 7 C-3.66 7 -4.32 7 -5 7 C-5.33 6.01 -5.66 5.02 -6 4 Z " fill="#000000" transform="translate(134,39)"/>
<path d="" fill="#000000" transform="translate(0,0)"/>
<path d="M0 0 C0.66 0 1.32 0 2 0 C1.107 8.4 -2.148 14.176 -7 21 C-7.66 20.67 -8.32 20.34 -9 20 C-8.602 19.478 -8.203 18.956 -7.793 18.418 C-3.564 12.542 -1.504 7.057 0 0 Z " fill="#000000" transform="translate(156,134)"/>
<path d="M0 0 C2.31 0 4.62 0 7 0 C4.353 1.461 3.106 2 0 2 C0 1.34 0 0.68 0 0 Z " fill="#000000" transform="translate(105,153)"/>
<path d="M0 0 C0 3 0 3 -1.504 4.684 C-12.439 14 -12.439 14 -17 14 C-17 13.34 -17 12.68 -17 12 C-15.146 10.826 -13.24 9.736 -11.312 8.688 C-6.845 6.166 -3.311 3.903 0 0 Z " fill="#000000" transform="translate(161,165)"/>
<path d="M0 0 C2.475 0.495 2.475 0.495 5 1 C3.68 1.33 2.36 1.66 1 2 C0.67 1.34 0.34 0.68 0 0 Z " fill="#000000" transform="translate(131,166)"/>
<path d="" fill="#000000" transform="translate(0,0)"/>
<path d="M0 0 C0.66 0.66 1.32 1.32 2 2 C0.68 1.67 -0.64 1.34 -2 1 C-1.34 0.67 -0.68 0.34 0 0 Z " fill="#000000" transform="translate(149,177)"/>
</svg>
