<?xml version="1.0" encoding="UTF-8"?>
<!-- Generator: visioncortex VTracer 0.6.4 -->
<svg version="1.1" xmlns="http://www.w3.org/2000/svg" width="281" height="256">
<path d="M0 0 C1.903 7.295 -0.732 12.463 -4 19 C-4.052 20.354 -4.092 21.708 -4.125 23.062 C-4.641 28.144 -6.792 30.608 -10.012 34.422 C-12.332 37.431 -14.182 40.58 -15.938 43.938 C-16.817 45.591 -16.817 45.591 -17.715 47.277 C-20.706 55.942 -18.612 63.778 -16.062 72.312 C-15.51 74.225 -14.96 76.138 -14.41 78.051 C-14.164 78.883 -13.918 79.714 -13.664 80.572 C-10.48 92.211 -12.147 101.762 -16 113 C-19.114 122.25 -21.258 131.43 -22.812 141.062 C-22.922 141.733 -23.031 142.403 -23.143 143.094 C-24.94 154.351 -26.171 165.703 -24 177 C-22.248 179.408 -20.533 180.311 -18 182 C-16.847 184.979 -16.955 185.866 -18 189 C-20.405 190.203 -21.95 190.101 -24.625 190.062 C-25.442 190.053 -26.26 190.044 -27.102 190.035 C-28.041 190.018 -28.041 190.018 -29 190 C-29.33 190.66 -29.66 191.32 -30 192 C-35.029 193.789 -40.769 193.637 -46 193 C-49.902 190.268 -51.582 187.511 -53 183 C-54.65 183 -56.3 183 -58 183 C-58 185.31 -58 187.62 -58 190 C-61.65 192.336 -64.746 192.228 -69 192 C-69.601 191.837 -70.201 191.674 -70.82 191.506 C-73.691 190.84 -76.436 190.798 -79.383 190.719 C-80.633 190.681 -81.884 190.644 -83.172 190.605 C-84.476 190.571 -85.781 190.536 -87.125 190.5 C-110.257 189.872 -110.257 189.872 -114 188 C-114 187.34 -114 186.68 -114 186 C-106.924 182.058 -100.127 180.527 -92.221 179.021 C-82.998 177.118 -75.405 173.949 -70 166 C-67.076 160.657 -65.973 155.984 -67 150 C-69.989 141.444 -75.677 135.266 -82 129 C-74.817 131.373 -70.137 137.503 -66.562 144 C-63.597 150.686 -63.249 156.934 -65.844 163.793 C-68.56 168.978 -72.89 172.915 -77 177 C-69.182 172.346 -63.49 165.909 -61 157 C-61 148.534 -64.612 141.063 -69.062 134 C-72.06 129.219 -73.675 124.462 -75 119 C-74.34 119 -73.68 119 -73 119 C-71.35 123.29 -69.7 127.58 -68 132 C-67.67 131.67 -67.34 131.34 -67 131 C-67.329 128.999 -67.664 126.999 -68 125 C-68.065 122.709 -68.086 120.417 -68.062 118.125 C-68.053 116.973 -68.044 115.82 -68.035 114.633 C-68.024 113.764 -68.012 112.895 -68 112 C-67.34 111.67 -66.68 111.34 -66 111 C-65.986 112.007 -65.972 113.014 -65.957 114.051 C-65.63 125.61 -63.314 135.959 -60 147 C-59.756 147.819 -59.511 148.638 -59.259 149.482 C-58.261 152.818 -57.258 156.153 -56.243 159.484 C-53.18 169.572 -50.557 179.774 -48 190 C-45.03 190.66 -42.06 191.32 -39 192 C-39.33 190.35 -39.66 188.7 -40 187 C-37 188 -37 188 -36 190 C-35.01 189.67 -34.02 189.34 -33 189 C-33.031 187.032 -33.031 187.032 -34 185 C-36.996 183.695 -36.996 183.695 -40 183 C-39.34 182.01 -38.68 181.02 -38 180 C-38.81 176.965 -38.81 176.965 -40.25 173.625 C-47.938 153.496 -46.028 133.236 -40 113 C-39.34 113 -38.68 113 -38 113 C-39.682 122.898 -39.682 122.898 -41.062 127.688 C-42.137 131.484 -42.587 135.08 -43 139 C-35.496 133.139 -30.51 126.327 -26 118 C-25 121 -25 121 -25.934 123.199 C-26.43 124.02 -26.926 124.841 -27.438 125.688 C-28.147 126.9 -28.147 126.9 -28.871 128.137 C-31 131 -31 131 -33 132.676 C-36.283 135.464 -38.674 137.511 -39.617 141.819 C-39.708 145.093 -39.543 148.238 -39.25 151.5 C-39.174 152.648 -39.097 153.795 -39.019 154.977 C-37.888 172.103 -37.888 172.103 -29 186 C-29 186.66 -29 187.32 -29 188 C-27.68 188 -26.36 188 -25 188 C-24.67 187.01 -24.34 186.02 -24 185 C-23.67 185 -23.34 185 -23 185 C-22.67 184.34 -22.34 183.68 -22 183 C-24.97 182.01 -24.97 182.01 -28 181 C-28 180.34 -28 179.68 -28 179 C-27.34 179 -26.68 179 -26 179 C-26.239 178.154 -26.239 178.154 -26.483 177.291 C-31.414 155.443 -24.899 128.455 -17 108 C-12.112 95.287 -15.426 82.079 -19 69.5 C-19.387 68.08 -19.773 66.659 -20.156 65.238 C-21.083 61.82 -22.034 58.408 -23 55 C-23.763 55.784 -24.526 56.568 -25.312 57.375 C-28.613 60.598 -30.652 62.295 -35.25 62.375 C-41.502 62.223 -45.512 59.601 -49.938 55.25 C-50.618 54.508 -51.299 53.765 -52 53 C-52.291 53.473 -52.583 53.946 -52.883 54.434 C-65.189 74.285 -65.189 74.285 -69.297 75.906 C-89.528 84.092 -101.758 104.347 -109.939 123.412 C-116.977 140.58 -124.939 162.716 -118 181 C-117.01 181 -116.02 181 -115 181 C-115.5 183.25 -115.5 183.25 -117 186 C-123.451 189.895 -129.828 191.239 -137.188 192.562 C-139.41 192.984 -141.633 193.408 -143.855 193.832 C-144.914 194.031 -145.973 194.231 -147.064 194.436 C-156.196 195.458 -156.196 195.458 -164 199 C-153.291 200.767 -142.701 201.543 -131.875 202.062 C-129.514 202.179 -127.152 202.297 -124.791 202.419 C-123.338 202.495 -121.884 202.566 -120.43 202.633 C-117.176 202.8 -114.124 203.037 -111 204 C-111 205.32 -111 206.64 -111 208 C-118.358 209.782 -125.318 210.318 -132.875 210.25 C-133.96 210.244 -135.045 210.238 -136.162 210.232 C-171.009 209.811 -171.009 209.811 -180 202 C-180.562 199.625 -180.562 199.625 -180 197 C-172.839 187.529 -159.214 186.18 -148.393 183.732 C-135.46 180.748 -135.46 180.748 -125 173 C-123.32 169.053 -122.743 165.354 -122.42 161.091 C-120.637 137.842 -111.159 113.515 -97 95 C-96.548 94.367 -96.095 93.734 -95.629 93.082 C-89.449 85.068 -80.044 79.24 -71.562 73.938 C-66.092 70.37 -63.152 66.634 -60 61 C-59.237 59.928 -58.474 58.855 -57.688 57.75 C-55.936 54.896 -55 53.346 -55 50 C-55.916 48.3 -56.845 46.602 -57.887 44.977 C-59.518 42.08 -60.32 39.015 -61.191 35.82 C-61.458 35.22 -61.725 34.619 -62 34 C-63.485 33.505 -63.485 33.505 -65 33 C-68.03 29.27 -68.326 25.992 -68.684 21.391 C-69.013 18.9 -69.68 16.847 -70.562 14.5 C-72.25 9.856 -72.234 5.915 -72 1 C-69.148 0.164 -67.596 -0.263 -64.828 0.956 C-64.119 1.452 -63.41 1.947 -62.68 2.457 C-61.897 2.993 -61.115 3.528 -60.309 4.08 C-59.506 4.652 -58.702 5.223 -57.875 5.812 C-56.659 6.653 -56.659 6.653 -55.418 7.51 C-53.912 8.552 -52.41 9.6 -50.914 10.656 C-45.719 14.305 -42.523 14.428 -36.312 14.5 C-35.002 14.562 -35.002 14.562 -33.666 14.625 C-26.652 14.709 -23.118 12.631 -18 8 C-16.565 6.861 -16.565 6.861 -15.102 5.699 C-13.435 4.345 -11.768 2.991 -10.102 1.637 C-6.341 -1.292 -4.618 -0.904 0 0 Z M-8.312 2.875 C-13.982 7.259 -19.004 12.749 -20 20 C-18.02 19.34 -16.04 18.68 -14 18 C-14 22 -14 26 -14 30 C-12.583 31.751 -12.583 31.751 -11 33 C-6.841 28.979 -6.38 25.316 -5.57 19.848 C-4.85 16.25 -3.414 13.297 -1.82 10.016 C-0.711 7.289 -0.702 4.902 -1 2 C-4.526 0.786 -4.786 0.879 -8.312 2.875 Z M-70 2 C-70.358 8.597 -69.761 12.904 -67 19 C-67.021 20.176 -67.041 21.351 -67.062 22.562 C-66.985 26.822 -65.579 28.696 -63 32 C-60.114 31.602 -59.178 31.21 -57.25 28.938 C-56.838 28.298 -56.425 27.659 -56 27 C-57.98 26.67 -59.96 26.34 -62 26 C-61.67 25.01 -61.34 24.02 -61 23 C-60.01 23.33 -59.02 23.66 -58 24 C-56.68 22.68 -55.36 21.36 -54 20 C-54 20.66 -54 21.32 -54 22 C-54.66 22 -55.32 22 -56 22 C-55.67 23.32 -55.34 24.64 -55 26 C-53.293 24.964 -53.293 24.964 -52 23 C-51.666 18.827 -52.198 17.016 -54.801 13.719 C-59.427 8.925 -64.208 5.265 -70 2 Z M-55 11 C-54.7 11.496 -54.399 11.993 -54.09 12.504 C-52.117 16.028 -51.031 18.544 -50.75 22.625 C-52.529 27.429 -55.751 29.357 -60 32 C-59.593 38.236 -57.646 43.87 -54 49 C-51.996 49.622 -51.996 49.622 -50 50 C-47.75 53.062 -47.75 53.062 -46 56 C-42.535 55.505 -42.535 55.505 -39 55 C-38.228 53.163 -38.228 53.163 -38 51 C-38.464 50.567 -38.928 50.134 -39.406 49.688 C-41.483 47.488 -41.688 45.769 -42.188 42.812 C-42.346 41.911 -42.505 41.01 -42.668 40.082 C-42.778 39.395 -42.887 38.708 -43 38 C-44.093 38.206 -45.186 38.413 -46.312 38.625 C-50 39 -50 39 -53 37 C-53.812 35 -53.812 35 -54 33 C-53.34 32.34 -52.68 31.68 -52 31 C-48.562 31 -48.562 31 -45 32 C-42.272 35.95 -41.197 40.397 -40 45 C-37.36 45 -34.72 45 -32 45 C-32.743 46.392 -32.743 46.392 -33.5 47.812 C-35.213 50.865 -35.213 50.865 -35 54 C-32.758 55.361 -31.522 56.061 -28.875 55.75 C-26.8 55.063 -26.8 55.063 -25 53 C-25.021 51.866 -25.041 50.731 -25.062 49.562 C-25 46 -25 46 -23.812 44.312 C-23.214 43.879 -22.616 43.446 -22 43 C-17.196 39.317 -17.196 39.317 -13 35 C-13.104 31.675 -14.775 29.396 -17 27 C-17.99 27 -18.98 27 -20 27 C-25.962 25.233 -28.096 23.081 -31.055 17.645 C-31.367 17.102 -31.679 16.559 -32 16 C-32.33 16 -32.66 16 -33 16 C-33 18.97 -33 21.94 -33 25 C-33.66 25 -34.32 25 -35 25 C-35 23.02 -35 21.04 -35 19 C-35.66 19.66 -36.32 20.32 -37 21 C-37.99 20.34 -38.98 19.68 -40 19 C-40 20.65 -40 22.3 -40 24 C-41 23 -41 23 -41.062 20.438 C-41.042 19.633 -41.021 18.829 -41 18 C-41.33 18.66 -41.66 19.32 -42 20 C-42.66 19.67 -43.32 19.34 -44 19 C-43.67 18.01 -43.34 17.02 -43 16 C-43.907 15.732 -44.815 15.464 -45.75 15.188 C-48.735 14.097 -50.541 12.932 -53 11 C-53.66 11 -54.32 11 -55 11 Z M-26 16 C-27.326 16.681 -28.657 17.353 -30 18 C-28.893 20.063 -28.893 20.063 -27 22 C-23.898 22.809 -23.898 22.809 -21 23 C-21.021 22.093 -21.041 21.185 -21.062 20.25 C-21.011 17.573 -20.778 15.53 -20 13 C-22.098 13 -24.269 14.953 -26 16 Z M-38 16 C-37 20 -37 20 -37 20 Z M-18 20 C-17.733 21.985 -17.733 21.985 -17 24 C-16.01 24.33 -15.02 24.66 -14 25 C-14.33 23.35 -14.66 21.7 -15 20 C-15.99 20 -16.98 20 -18 20 Z M-25 23 C-25 23.66 -25 24.32 -25 25 C-24.34 24.67 -23.68 24.34 -23 24 C-23.66 23.67 -24.32 23.34 -25 23 Z M-51 32 C-51.33 33.65 -51.66 35.3 -52 37 C-50.68 35.35 -49.36 33.7 -48 32 C-48.99 32 -49.98 32 -51 32 Z M-48 33 C-48.66 34.65 -49.32 36.3 -50 38 C-49.01 37.67 -48.02 37.34 -47 37 C-47.33 35.68 -47.66 34.36 -48 33 Z M-24 45 C-24.418 47.627 -24.418 47.627 -24 50 C-20.757 47.61 -18.491 45.795 -17 42 C-20.042 42 -21.617 43.181 -24 45 Z M-38 46 C-38 46.99 -38 47.98 -38 49 C-37.01 48.67 -36.02 48.34 -35 48 C-35 47.34 -35 46.68 -35 46 C-35.99 46 -36.98 46 -38 46 Z M-40.625 56.875 C-41.306 57.927 -41.306 57.927 -42 59 C-40.342 60.658 -38.397 60.21 -36.125 60.25 C-35.241 60.276 -34.356 60.302 -33.445 60.328 C-30.59 59.945 -29.76 59.215 -28 57 C-34.573 54.791 -34.573 54.791 -40.625 56.875 Z M-42 141 C-43.744 144.699 -44.182 147.053 -43.539 151.082 C-43.326 152.479 -43.326 152.479 -43.109 153.904 C-42.95 154.864 -42.79 155.824 -42.625 156.812 C-42.473 157.792 -42.321 158.771 -42.164 159.779 C-41.788 162.188 -41.4 164.595 -41 167 C-40.67 167 -40.34 167 -40 167 C-39.856 158.283 -40.28 149.687 -41 141 C-41.33 141 -41.66 141 -42 141 Z M-60 158 C-60.34 158.785 -60.681 159.57 -61.031 160.379 C-64.361 167.596 -67.671 172.239 -74 177 C-74.66 177.66 -75.32 178.32 -76 179 C-73.626 179.338 -71.251 179.671 -68.875 180 C-68.21 180.095 -67.545 180.191 -66.859 180.289 C-62.874 180.836 -59.021 181.1 -55 181 C-54.67 180.01 -54.34 179.02 -54 178 C-54.991 176.334 -54.991 176.334 -57 175 C-59.718 174.727 -62.257 174.865 -65 175 C-64.495 174.443 -63.989 173.886 -63.469 173.312 C-58.858 168.066 -58.858 168.066 -57.562 161.438 C-57.707 160.303 -57.851 159.169 -58 158 C-58.66 158 -59.32 158 -60 158 Z M-57 166 C-59.937 169.652 -59.937 169.652 -61 174 C-59.02 174 -57.04 174 -55 174 C-55.33 171.36 -55.66 168.72 -56 166 C-56.33 166 -56.66 166 -57 166 Z M-123 173 C-123.681 173.743 -124.361 174.485 -125.062 175.25 C-132.691 182.86 -144.063 184.151 -154.164 186.425 C-167.719 189.167 -167.719 189.167 -178 197.812 C-178.33 198.534 -178.66 199.256 -179 200 C-175.886 203.657 -173.483 204.722 -168.812 205.688 C-167.746 205.918 -166.68 206.149 -165.582 206.387 C-158.51 207.597 -151.557 208.153 -144.387 208.133 C-143.221 208.134 -143.221 208.134 -142.033 208.136 C-140.408 208.136 -138.784 208.135 -137.16 208.13 C-134.676 208.125 -132.193 208.13 -129.709 208.137 C-128.122 208.136 -126.536 208.135 -124.949 208.133 C-124.211 208.135 -123.472 208.137 -122.711 208.139 C-119.335 208.124 -116.228 208.056 -113 207 C-113 206.34 -113 205.68 -113 205 C-114.215 204.92 -115.429 204.839 -116.681 204.756 C-121.234 204.453 -125.787 204.142 -130.34 203.828 C-132.302 203.694 -134.264 203.562 -136.226 203.433 C-157.149 202.048 -157.149 202.048 -166 200 C-166.33 199.01 -166.66 198.02 -167 197 C-166.332 196.869 -165.663 196.739 -164.975 196.604 C-148.608 193.409 -148.608 193.409 -132.312 189.875 C-130.389 189.438 -130.389 189.438 -128.426 188.992 C-125.017 188.005 -122.111 186.692 -119 185 C-119.99 181.04 -120.98 177.08 -122 173 C-122.33 173 -122.66 173 -123 173 Z M-107 187 C-107 187.33 -107 187.66 -107 188 C-106.236 188.025 -105.471 188.05 -104.684 188.076 C-101.122 188.194 -97.561 188.315 -94 188.438 C-92.086 188.502 -92.086 188.502 -90.133 188.568 C-82.002 188.854 -73.912 189.288 -65.809 190.012 C-62.789 190.257 -62.789 190.257 -60 188 C-60.389 184.994 -60.389 184.994 -62 182 C-76.594 176.558 -92.77 182.858 -107 187 Z M-103.75 183.438 C-104.549 183.725 -105.348 184.012 -106.172 184.309 C-106.775 184.537 -107.378 184.765 -108 185 C-105.099 186.45 -103.44 185.454 -100.375 184.562 C-98.871 184.131 -98.871 184.131 -97.336 183.691 C-96.565 183.463 -95.794 183.235 -95 183 C-98.429 181.812 -100.378 182.198 -103.75 183.438 Z " fill="#000000" transform="translate(185,2)"/>
<path d="" fill="#000000" transform="translate(0,0)"/>
<path d="M0 0 C0 3 0 3 0 3 Z " fill="#000000" transform="translate(139,23)"/>
<path d="" fill="#000000" transform="translate(0,0)"/>
<path d="M0 0 C0.66 1.32 1.32 2.64 2 4 C1.34 4 0.68 4 0 4 C-0.186 4.639 -0.371 5.279 -0.562 5.938 C-2 8 -2 8 -5.5 8.75 C-7.331 8.881 -9.165 9 -11 9 C-11.354 5.811 -11.26 4.384 -9.438 1.688 C-6.185 -0.564 -3.868 -0.298 0 0 Z M-2 2 C-1.34 2.66 -0.68 3.32 0 4 C0 3.34 0 2.68 0 2 C-0.66 2 -1.32 2 -2 2 Z M-6 3 C-5.34 3.66 -4.68 4.32 -4 5 C-4 4.34 -4 3.68 -4 3 C-4.66 3 -5.32 3 -6 3 Z M-8 4 C-8 4.99 -8 5.98 -8 7 C-7.34 6.67 -6.68 6.34 -6 6 C-6.66 5.34 -7.32 4.68 -8 4 Z " fill="#000000" transform="translate(165,32)"/>
<path d="" fill="#000000" transform="translate(0,0)"/>
<path d="" fill="#000000" transform="translate(0,0)"/>
<path d="" fill="#000000" transform="translate(0,0)"/>
<path d="M0 0 C2 1 2 1 2 1 Z " fill="#000000" transform="translate(69,187)"/>
</svg>
