<?xml version='1.0' encoding='utf-8'?>
<svg xmlns="http://www.w3.org/2000/svg" version="1.1" width="484" height="524" viewBox="282.238875 251.41000000000003 484.29200000000003 524.22543359375">
<path d="M0 0 C1.528 0.36 3.054 0.728 4.578 1.104 C5.804 1.397 5.804 1.397 7.054 1.695 C9.647 2.316 12.237 2.948 14.828 3.581 C16.568 3.998 18.307 4.415 20.047 4.831 C28.726 6.916 28.726 6.916 31.787 7.693 C33.747 8.185 35.717 8.639 37.688 9.091 C41.098 10.302 42.258 10.976 43.828 14.206 C44.296 20.821 42.136 27.732 40.453 34.081 C40.119 35.382 40.119 35.382 39.779 36.71 C38.815 40.463 37.827 44.21 36.832 47.956 C36.428 49.502 36.428 49.502 36.016 51.081 C35.782 51.944 35.549 52.808 35.309 53.698 C34.744 56.642 34.553 59.216 34.828 62.206 C36.815 63.558 38.816 64.891 40.828 66.206 C42 70.457 41.784 73.577 40.648 77.795 C40.244 79.343 40.244 79.343 39.832 80.922 C39.397 82.517 39.397 82.517 38.953 84.143 C38.39 86.255 37.83 88.369 37.273 90.483 C37.021 91.414 36.768 92.344 36.508 93.303 C35.038 99.577 34.618 103.826 36.707 110.002 C36.914 110.63 37.122 111.257 37.335 111.903 C38.007 113.925 38.699 115.94 39.391 117.956 C39.857 119.351 40.322 120.747 40.785 122.144 C41.702 124.903 42.625 127.66 43.555 130.416 C45.192 135.29 46.775 140.179 48.328 145.081 C48.558 145.791 48.788 146.5 49.026 147.232 C50.156 150.778 51.107 154.314 51.9 157.952 C52.163 159.152 52.163 159.152 52.431 160.376 C52.628 161.281 52.628 161.281 52.828 162.206 C53.999 162.195 55.17 162.185 56.376 162.174 C60.711 162.138 65.046 162.115 69.381 162.096 C71.259 162.086 73.137 162.072 75.015 162.055 C77.71 162.03 80.406 162.019 83.102 162.01 C83.944 162 84.787 161.99 85.655 161.979 C87.714 161.979 89.773 162.083 91.828 162.206 C94.359 164.736 94.085 165.641 94.094 169.143 C94.096 170.12 94.099 171.097 94.102 172.104 C94.094 173.128 94.086 174.151 94.078 175.206 C94.086 176.229 94.094 177.253 94.102 178.307 C94.098 179.773 94.098 179.773 94.094 181.268 C94.091 182.167 94.089 183.065 94.087 183.991 C93.828 186.206 93.828 186.206 91.828 188.206 C89.123 188.433 89.123 188.433 85.727 188.401 C84.515 188.394 83.303 188.388 82.055 188.381 C80.784 188.365 79.513 188.348 78.203 188.331 C76.924 188.322 75.646 188.313 74.328 188.303 C71.161 188.28 67.995 188.247 64.828 188.206 C64.83 189.974 64.83 189.974 64.831 191.779 C64.853 219.744 64.869 247.709 64.879 275.674 C64.88 279.113 64.882 282.551 64.883 285.99 C64.883 287.017 64.883 287.017 64.884 288.065 C64.888 299.164 64.896 310.263 64.905 321.362 C64.915 332.742 64.92 344.123 64.922 355.503 C64.924 361.899 64.927 368.294 64.934 374.69 C64.941 380.702 64.943 386.714 64.941 392.727 C64.942 394.94 64.944 397.154 64.947 399.367 C64.952 402.375 64.951 405.383 64.948 408.392 C64.953 409.724 64.953 409.724 64.957 411.083 C64.942 417.091 64.942 417.091 63.828 418.206 C62.162 418.246 60.494 418.248 58.828 418.206 C57.143 414.835 57.696 411.016 57.708 407.309 C57.707 405.91 57.707 405.91 57.705 404.483 C57.704 401.338 57.709 398.193 57.715 395.049 C57.715 392.802 57.715 390.556 57.714 388.309 C57.714 382.194 57.72 376.078 57.727 369.963 C57.733 363.578 57.734 357.193 57.735 350.808 C57.738 340.086 57.744 329.365 57.753 318.643 C57.762 307.598 57.769 296.553 57.773 285.508 C57.773 284.82 57.774 284.133 57.774 283.425 C57.776 277.445 57.778 271.465 57.781 265.486 C57.79 239.726 57.81 213.966 57.828 188.206 C1.068 188.206 -55.692 188.206 -114.172 188.206 C-113.842 199.426 -113.512 210.646 -113.172 222.206 C-110.202 223.856 -107.232 225.506 -104.172 227.206 C-95.029 235.038 -90.645 244.284 -88.688 255.987 C-88.56 256.728 -88.433 257.469 -88.302 258.232 C-87.065 265.583 -86.056 272.962 -85.095 280.353 C-84.57 284.389 -84.031 288.422 -83.492 292.456 C-83.328 293.685 -83.328 293.685 -83.16 294.94 C-82.075 303.019 -80.88 311.081 -79.672 319.143 C-76.931 337.465 -74.521 355.83 -72.172 374.206 C-72.08 374.916 -71.989 375.627 -71.895 376.359 C-70.352 388.485 -70.146 398.911 -77.797 409.018 C-83.566 415.074 -89.938 417.5 -98.234 417.768 C-104.287 417.563 -108.973 416.287 -114.172 413.206 C-114.502 414.856 -114.832 416.506 -115.172 418.206 C-116.822 418.206 -118.472 418.206 -120.172 418.206 C-120.832 415.566 -121.492 412.926 -122.172 410.206 C-122.608 410.604 -123.043 411.002 -123.492 411.413 C-124.088 411.942 -124.683 412.472 -125.297 413.018 C-125.877 413.54 -126.457 414.062 -127.055 414.6 C-133.966 419.841 -140.924 420.208 -149.251 419.503 C-155.649 418.512 -160.449 414.421 -164.547 409.643 C-170.988 399.73 -171.861 388.18 -172.367 376.678 C-172.445 375.199 -172.524 373.72 -172.605 372.241 C-172.812 368.366 -173.001 364.489 -173.184 360.612 C-173.369 356.771 -173.569 352.931 -173.77 349.09 C-173.849 347.57 -173.928 346.05 -174.007 344.529 C-174.046 343.78 -174.085 343.03 -174.125 342.257 C-174.242 339.996 -174.356 337.733 -174.469 335.471 C-175.033 324.306 -175.737 313.154 -176.556 302.004 C-177.051 295.056 -177.284 288.171 -177.172 281.206 C-179.812 281.206 -182.452 281.206 -185.172 281.206 C-184.677 281.804 -184.182 282.402 -183.672 283.018 C-181.18 288.313 -181.214 293.949 -182.863 299.557 C-185.41 305.247 -189.03 307.888 -194.77 310.295 C-199.163 311.471 -203.201 311.455 -207.727 311.401 C-208.926 311.398 -208.926 311.398 -210.151 311.395 C-213.116 311.384 -216.081 311.356 -219.047 311.331 C-225.688 311.289 -232.329 311.248 -239.172 311.206 C-239.172 337.936 -239.172 364.666 -239.172 392.206 C-232.572 392.206 -225.972 392.206 -219.172 392.206 C-205.344 398.351 -205.344 398.351 -201.234 405.643 C-200.112 409.405 -199.789 412.303 -200.172 416.206 C-202.879 418.913 -205.004 418.452 -208.681 418.477 C-209.597 418.473 -210.512 418.469 -211.455 418.464 C-212.899 418.47 -212.899 418.47 -214.372 418.475 C-217.566 418.484 -220.759 418.478 -223.953 418.471 C-226.165 418.473 -228.377 418.474 -230.589 418.477 C-235.229 418.48 -239.87 418.476 -244.51 418.466 C-250.469 418.455 -256.428 418.461 -262.387 418.473 C-266.956 418.481 -271.525 418.478 -276.094 418.473 C-278.292 418.472 -280.489 418.474 -282.687 418.478 C-285.754 418.483 -288.821 418.476 -291.889 418.464 C-292.804 418.468 -293.719 418.472 -294.663 418.477 C-300.943 418.434 -300.943 418.434 -303.172 416.206 C-303.886 410.258 -302.517 406.031 -299.172 401.206 C-295.229 396.966 -291.433 394.836 -286.172 392.206 C-278.582 392.206 -270.992 392.206 -263.172 392.206 C-263.172 365.146 -263.172 338.086 -263.172 310.206 C-278.28 310.442 -278.28 310.442 -293.387 310.746 C-295.294 310.764 -297.202 310.779 -299.109 310.792 C-300.57 310.838 -300.57 310.838 -302.061 310.885 C-308.218 310.889 -311.781 309.829 -316.567 305.906 C-319.987 302.282 -322.172 298.206 -322.172 293.206 C-322.934 293.264 -323.696 293.322 -324.48 293.381 C-333.063 293.756 -338.449 292.369 -344.918 286.667 C-351.499 279.741 -353.643 271.505 -353.523 262.151 C-353.49 261.138 -353.456 260.124 -353.422 259.081 C-353.404 258.029 -353.386 256.977 -353.367 255.893 C-353.321 253.33 -353.255 250.768 -353.172 248.206 C-353.953 248.068 -354.734 247.931 -355.539 247.79 C-358.555 247.121 -359.97 246.146 -362.297 244.143 C-362.959 243.595 -363.622 243.047 -364.305 242.483 C-369.933 235.618 -369.608 227.752 -369.576 219.307 C-369.583 218.031 -369.59 216.756 -369.597 215.441 C-369.615 211.962 -369.614 208.483 -369.608 205.003 C-369.605 202.091 -369.611 199.178 -369.617 196.266 C-369.631 189.392 -369.629 182.519 -369.618 175.645 C-369.606 168.569 -369.621 161.494 -369.647 154.419 C-369.67 148.327 -369.676 142.236 -369.67 136.145 C-369.667 132.514 -369.669 128.884 -369.686 125.253 C-369.705 121.203 -369.691 117.154 -369.674 113.104 C-369.683 111.911 -369.693 110.718 -369.703 109.489 C-369.634 101.717 -368.651 96.237 -363.426 90.182 C-358.276 86.067 -354.232 83.641 -347.359 83.823 C-341.942 84.771 -337.511 87.832 -333.734 91.706 C-330.992 96.093 -329.923 99.653 -329.898 104.827 C-329.888 105.947 -329.878 107.067 -329.867 108.22 C-329.867 109.44 -329.866 110.659 -329.865 111.915 C-329.857 113.207 -329.849 114.499 -329.84 115.829 C-329.818 119.367 -329.81 122.904 -329.804 126.442 C-329.801 128.655 -329.795 130.869 -329.787 133.083 C-329.763 140.817 -329.75 148.551 -329.746 156.284 C-329.743 163.475 -329.713 170.666 -329.671 177.856 C-329.636 184.044 -329.621 190.23 -329.62 196.418 C-329.619 200.107 -329.611 203.796 -329.582 207.485 C-329.551 211.606 -329.56 215.727 -329.573 219.849 C-329.558 221.058 -329.543 222.267 -329.528 223.513 C-329.598 231.652 -330.905 238.979 -336.906 244.923 C-340.208 247.465 -341.95 248.206 -346.172 248.206 C-346.807 265.222 -346.807 265.222 -340.172 280.206 C-334.941 284.582 -329.963 285.685 -323.27 285.62 C-320.835 285.379 -320.835 285.379 -319.109 282.518 C-318.15 280.878 -318.15 280.878 -317.172 279.206 C-311.118 273.6 -304.576 273.436 -296.672 273.393 C-295.009 273.355 -295.009 273.355 -293.312 273.317 C-290.599 273.258 -287.886 273.222 -285.172 273.206 C-285.774 272.881 -286.376 272.556 -286.996 272.222 C-300.172 265.026 -307.759 255.893 -312.348 241.42 C-314.782 231.925 -315.58 222.884 -315.797 213.081 C-315.834 211.623 -315.872 210.165 -315.91 208.707 C-319.079 79.035 -319.079 79.035 -296.039 52.155 C-284.36 39.962 -271.832 33.317 -254.806 32.854 C-237.472 32.698 -222.906 36.951 -210.172 49.206 C-200.387 60.652 -194.024 73.572 -194.156 88.799 C-194.154 90.302 -194.154 90.302 -194.151 91.836 C-194.165 93.827 -194.226 95.819 -194.341 97.808 C-194.38 103.762 -193.043 107.151 -188.875 111.457 C-181.157 118.601 -171.669 117.712 -161.727 117.733 C-159.746 117.774 -157.765 117.82 -155.785 117.87 C-150.597 117.991 -145.41 118.057 -140.221 118.108 C-131.911 118.2 -123.602 118.379 -115.294 118.554 C-112.406 118.607 -109.519 118.638 -106.631 118.665 C-104.848 118.692 -103.064 118.72 -101.281 118.748 C-100.489 118.75 -99.697 118.751 -98.881 118.753 C-90.745 118.914 -83.571 120.942 -77.613 126.624 C-72.936 131.757 -72.684 136.679 -72.898 143.374 C-73.549 150.111 -77.106 153.405 -81.941 157.69 C-84.172 159.206 -84.172 159.206 -90.172 161.206 C-50.572 161.536 -10.972 161.866 29.828 162.206 C27.848 150.986 25.868 139.766 23.828 128.206 C23.498 124.246 23.168 120.286 22.828 116.206 C21.838 116.206 20.848 116.206 19.828 116.206 C19.723 116.78 19.617 117.354 19.509 117.946 C19.02 120.576 18.518 123.203 18.016 125.831 C17.85 126.734 17.684 127.638 17.514 128.569 C16.555 133.526 15.546 137.865 12.828 142.206 C8.372 145.176 4.571 144.501 -0.59 143.626 C-1.763 143.359 -2.936 143.091 -4.145 142.815 C-4.79 142.669 -5.434 142.523 -6.099 142.373 C-7.459 142.064 -8.818 141.751 -10.176 141.435 C-12.203 140.963 -14.233 140.503 -16.264 140.045 C-22.888 138.538 -29.481 136.918 -36.043 135.159 C-37.175 134.856 -38.308 134.553 -39.474 134.242 C-42.172 133.206 -42.172 133.206 -44.172 130.206 C-45.026 124.068 -43.704 118.372 -41.984 112.518 C-41.518 110.842 -41.054 109.165 -40.594 107.487 C-40.356 106.621 -40.118 105.754 -39.873 104.862 C-38.706 100.441 -37.722 95.982 -36.734 91.518 C-35.015 83.799 -33.177 76.121 -31.234 68.456 C-29.121 60.101 -27.103 51.73 -25.172 43.331 C-24.925 42.266 -24.678 41.201 -24.424 40.104 C-23.109 34.4 -21.844 28.688 -20.637 22.959 C-20.381 21.777 -20.125 20.594 -19.861 19.375 C-19.372 17.109 -18.897 14.84 -18.439 12.567 C-15.966 1.254 -11.717 -2.486 0 0 Z " fill="#191819" transform="translate(662.171875,345.79443359375)" />
<path d="M0 0 C0.817 0.385 1.635 0.771 2.477 1.168 C14.723 7.496 22.585 17.955 27 31 C29.138 38.966 29.235 46.796 29 55 C25.043 53.51 22.145 51.875 19 49 C19 48.34 19 47.68 19 47 C18.455 46.764 17.909 46.528 17.348 46.285 C14.379 44.66 12.016 42.631 9.438 40.438 C8.373 39.537 7.308 38.638 6.242 37.738 C5.704 37.283 5.166 36.827 4.612 36.358 C2.116 34.255 -0.41 32.19 -2.938 30.125 C-4.219 29.077 -4.219 29.077 -5.527 28.008 C-6.751 27.014 -6.751 27.014 -8 26 C-8.871 25.26 -9.743 24.52 -10.641 23.758 C-13.363 21.729 -14.685 21.621 -18 22 C-18.469 25.98 -18.469 25.98 -16.086 27.938 C-15.191 28.618 -14.297 29.299 -13.375 30 C-12.371 30.785 -11.367 31.57 -10.332 32.379 C-9.79 32.801 -9.248 33.222 -8.69 33.657 C-5.742 36 -2.909 38.473 -0.062 40.938 C8.043 47.918 16.245 54.773 24.562 61.5 C29.406 65.445 34.011 69.587 38.59 73.836 C39.385 74.55 40.181 75.264 41 76 C41.581 76.53 42.163 77.06 42.762 77.605 C45.702 79.438 47.764 79.415 51.218 79.477 C52.476 79.507 53.735 79.537 55.031 79.568 C56.036 79.582 56.036 79.582 57.062 79.596 C59.169 79.625 61.275 79.673 63.382 79.725 C67.858 79.833 72.335 79.918 76.812 80 C81.993 80.095 87.172 80.2 92.352 80.328 C94.419 80.374 96.485 80.403 98.552 80.432 C112.176 80.756 112.176 80.756 117.777 85.508 C120.683 89.557 121.725 92.781 121.426 97.789 C120.564 102.265 118.419 105.475 115.312 108.812 C107.869 112.635 98.919 112.473 90.75 112.852 C89.497 112.915 88.243 112.979 86.952 113.045 C84.313 113.178 81.674 113.308 79.035 113.433 C75.676 113.592 72.318 113.759 68.96 113.93 C65.723 114.094 62.487 114.254 59.25 114.414 C58.056 114.473 56.862 114.533 55.632 114.594 C41.713 115.253 32.616 115.332 21.375 106.562 C20.686 106.036 19.997 105.51 19.288 104.967 C14.071 100.939 9.053 96.703 4.088 92.37 C-0.788 88.127 -5.855 84.186 -11.004 80.281 C-13.597 78.307 -16.151 76.297 -18.688 74.25 C-20.458 72.833 -22.229 71.416 -24 70 C-24.694 69.441 -25.388 68.883 -26.103 68.307 C-28.499 66.383 -30.905 64.472 -33.312 62.562 C-34.09 61.934 -34.868 61.306 -35.669 60.659 C-36.414 60.072 -37.158 59.484 -37.926 58.879 C-38.59 58.349 -39.254 57.818 -39.939 57.272 C-42.288 55.822 -44.284 55.387 -47 55 C-47.414 57.31 -47.414 57.31 -47 60 C-44.951 62.365 -44.951 62.365 -42.062 64.5 C-41.534 64.921 -41.005 65.342 -40.461 65.775 C-38.655 67.203 -36.83 68.604 -35 70 C-34.326 70.517 -33.651 71.034 -32.957 71.566 C-30.072 73.776 -27.184 75.982 -24.288 78.177 C-19.051 82.157 -13.989 86.286 -8.965 90.531 C-5.067 93.777 -1.082 96.904 2.917 100.022 C7.169 103.338 11.365 106.716 15.523 110.148 C18.879 112.657 22.423 114.823 26 117 C25.885 120.855 25.756 124.708 25.625 128.562 C25.594 129.61 25.563 130.657 25.531 131.736 C25.127 143.235 24.002 154.477 23 166 C-10.33 166 -43.66 166 -78 166 C-78.235 125.131 -78.235 125.131 -78.188 114.102 C-78.184 113.328 -78.181 112.554 -78.177 111.756 C-78.11 98.91 -77.754 86.12 -76.688 73.312 C-76.629 72.585 -76.57 71.857 -76.509 71.108 C-75.828 63 -74.755 54.965 -73.512 46.926 C-73.391 46.142 -73.27 45.358 -73.146 44.551 C-70.718 29.473 -65.622 16.374 -54 6 C-38.38 -5.241 -17.771 -8.394 0 0 Z " fill="#6EBAD8" transform="translate(432,390)" />
<path d="M0 0 C13.276 -0.093 26.551 -0.164 39.827 -0.207 C45.995 -0.228 52.162 -0.256 58.329 -0.302 C64.3 -0.346 70.272 -0.369 76.244 -0.38 C78.502 -0.387 80.759 -0.401 83.017 -0.423 C98.765 -0.569 113.55 0.982 129 4 C130.401 4.257 131.802 4.512 133.203 4.764 C136.247 5.312 139.28 5.898 142.312 6.5 C143.304 6.687 144.296 6.874 145.318 7.066 C158.423 9.658 171.08 13.615 179 25 C184.519 34.204 185.296 42.451 185.275 53.029 C185.28 54.33 185.285 55.632 185.29 56.973 C185.303 60.529 185.304 64.085 185.302 67.641 C185.301 70.618 185.305 73.595 185.31 76.571 C185.321 83.6 185.322 90.628 185.316 97.657 C185.31 104.888 185.322 112.118 185.343 119.348 C185.361 125.574 185.367 131.799 185.364 138.024 C185.362 141.735 185.364 145.445 185.378 149.155 C185.393 153.298 185.384 157.44 185.372 161.583 C185.38 162.799 185.388 164.014 185.395 165.266 C185.337 174.757 184.449 183.522 177.578 190.594 C172.177 195.406 167.082 195.349 160.121 195.398 C156.68 194.959 154.745 194.096 152 192 C152 191.34 152 190.68 152 190 C151.01 189.67 150.02 189.34 149 189 C140.057 175.721 142.215 154.178 141.311 138.774 C140.934 132.363 140.54 125.953 140.147 119.542 C140.059 118.116 139.972 116.691 139.885 115.265 C139.151 103.257 138.371 91.254 137.503 79.255 C137.376 77.51 137.252 75.764 137.129 74.019 C136.962 71.65 136.789 69.282 136.613 66.914 C136.518 65.614 136.423 64.314 136.325 62.975 C136.183 60.076 136.183 60.076 135 58 C134.362 57.979 133.724 57.959 133.067 57.938 C115.601 57.371 98.136 56.769 80.673 56.133 C77.289 56.01 73.905 55.892 70.521 55.773 C65.886 55.61 61.254 55.428 56.621 55.228 C54.978 55.16 53.336 55.098 51.693 55.043 C35.486 54.484 21.982 50.986 10.559 38.824 C2.724 29.654 -0.146 19.132 -0.044 7.235 C-0.041 6.538 -0.037 5.842 -0.034 5.125 C-0.026 3.416 -0.013 1.708 0 0 Z " fill="#515151" transform="translate(355,563)" />
<path d="M0 0 C5.341 3.263 8.231 6.894 10.25 12.812 C10.51 15.493 10.51 15.493 10.524 18.434 C10.534 19.554 10.544 20.673 10.554 21.827 C10.555 23.047 10.556 24.266 10.556 25.522 C10.565 26.814 10.573 28.106 10.582 29.436 C10.604 32.974 10.612 36.511 10.617 40.049 C10.621 42.262 10.627 44.476 10.634 46.69 C10.659 54.424 10.672 62.157 10.676 69.891 C10.679 77.082 10.709 84.273 10.751 91.463 C10.786 97.65 10.801 103.837 10.802 110.025 C10.803 113.714 10.811 117.403 10.84 121.092 C10.871 125.213 10.862 129.334 10.849 133.456 C10.864 134.665 10.879 135.874 10.894 137.12 C10.824 145.259 9.517 152.586 3.516 158.53 C0.214 161.072 -1.529 161.812 -5.75 161.812 C-6.385 178.829 -6.385 178.829 0.25 193.812 C5.481 198.189 10.453 199.285 17.145 199.23 C19.602 198.978 19.602 198.978 21.438 196.062 C22.036 194.99 22.634 193.918 23.25 192.812 C25.162 191.239 27.109 190.077 29.25 188.812 C29.91 189.143 30.57 189.472 31.25 189.812 C29.625 195.562 29.625 195.562 26.25 197.812 C27.016 197.326 27.782 196.84 28.571 196.339 C33.515 194.288 37.816 194.377 43.117 194.393 C44.201 194.384 45.284 194.376 46.401 194.367 C49.976 194.344 53.55 194.343 57.125 194.344 C59.613 194.337 62.101 194.329 64.589 194.321 C69.801 194.307 75.013 194.306 80.225 194.312 C85.575 194.317 90.925 194.303 96.275 194.271 C102.74 194.231 109.205 194.217 115.67 194.221 C118.132 194.22 120.595 194.21 123.057 194.192 C126.499 194.17 129.94 194.18 133.383 194.197 C134.399 194.184 135.415 194.171 136.462 194.157 C141.013 194.211 144.238 194.3 147.867 197.226 C151.119 200.756 151.65 202.866 151.605 207.707 C150.97 211.468 148.974 213.215 146.25 215.812 C143.406 216.76 141.672 216.936 138.727 216.933 C137.8 216.934 136.873 216.936 135.918 216.937 C134.396 216.932 134.396 216.932 132.844 216.926 C131.773 216.926 130.703 216.926 129.601 216.926 C126.055 216.926 122.51 216.918 118.965 216.91 C116.508 216.908 114.051 216.907 111.593 216.906 C105.119 216.902 98.644 216.892 92.169 216.881 C85.573 216.871 78.977 216.866 72.381 216.861 C59.989 216.851 47.597 216.835 35.206 216.815 C33.887 216.813 32.569 216.812 31.25 216.812 C46.305 217.037 61.36 217.237 76.416 217.411 C83.407 217.492 90.397 217.581 97.388 217.687 C104.131 217.79 110.874 217.871 117.617 217.94 C120.193 217.969 122.769 218.006 125.344 218.05 C128.945 218.11 132.546 218.146 136.147 218.175 C137.218 218.199 138.288 218.222 139.391 218.247 C145.006 218.364 145.006 218.364 149.892 215.94 C151.426 213.536 152.033 211.684 152.5 208.875 C152.65 208.041 152.799 207.207 152.953 206.348 C153.324 203.791 153.324 203.791 153.109 201.121 C153.156 200.359 153.202 199.597 153.25 198.812 C154.24 198.153 155.23 197.493 156.25 196.812 C159.246 201.307 158.826 205.544 158.25 210.812 C156.913 215.401 155.06 218.143 151.375 221.188 C144.988 224.509 139.76 225.092 132.695 225.008 C131.495 225.005 131.495 225.005 130.271 225.002 C127.306 224.991 124.34 224.963 121.375 224.938 C114.734 224.896 108.092 224.855 101.25 224.812 C101.25 251.543 101.25 278.273 101.25 305.812 C107.85 305.812 114.45 305.812 121.25 305.812 C135.077 311.958 135.077 311.958 139.188 319.25 C140.31 323.012 140.633 325.91 140.25 329.812 C137.543 332.52 135.418 332.059 131.741 332.084 C130.825 332.08 129.91 332.075 128.967 332.071 C127.523 332.077 127.523 332.077 126.05 332.082 C122.856 332.091 119.662 332.085 116.469 332.078 C114.257 332.079 112.045 332.081 109.833 332.084 C105.192 332.087 100.552 332.083 95.912 332.073 C89.953 332.062 83.994 332.068 78.035 332.08 C73.466 332.088 68.897 332.085 64.328 332.08 C62.13 332.079 59.932 332.08 57.735 332.085 C54.667 332.09 51.6 332.082 48.533 332.071 C47.618 332.075 46.702 332.079 45.759 332.084 C39.479 332.041 39.479 332.041 37.25 329.812 C36.536 323.865 37.905 319.638 41.25 314.812 C45.193 310.573 48.989 308.443 54.25 305.812 C61.84 305.812 69.43 305.812 77.25 305.812 C77.25 278.753 77.25 251.692 77.25 223.812 C62.142 224.049 62.142 224.049 47.035 224.353 C45.128 224.371 43.22 224.386 41.312 224.398 C39.852 224.444 39.852 224.444 38.361 224.491 C32.204 224.496 28.641 223.436 23.855 219.513 C20.435 215.889 18.25 211.813 18.25 206.812 C17.488 206.871 16.726 206.929 15.941 206.988 C7.358 207.363 1.973 205.976 -4.496 200.273 C-11.077 193.348 -13.221 185.112 -13.102 175.758 C-13.051 174.238 -13.051 174.238 -13 172.688 C-12.982 171.636 -12.964 170.584 -12.945 169.5 C-12.899 166.937 -12.833 164.375 -12.75 161.812 C-13.531 161.675 -14.312 161.538 -15.117 161.397 C-18.133 160.728 -19.548 159.753 -21.875 157.75 C-22.538 157.202 -23.2 156.654 -23.883 156.09 C-29.511 149.225 -29.186 141.359 -29.154 132.914 C-29.161 131.638 -29.168 130.362 -29.175 129.048 C-29.193 125.569 -29.192 122.09 -29.186 118.61 C-29.183 115.698 -29.189 112.785 -29.195 109.873 C-29.209 102.999 -29.207 96.126 -29.196 89.252 C-29.185 82.176 -29.199 75.101 -29.225 68.026 C-29.248 61.934 -29.254 55.843 -29.248 49.752 C-29.245 46.121 -29.247 42.491 -29.265 38.86 C-29.283 34.81 -29.269 30.761 -29.252 26.711 C-29.261 25.518 -29.271 24.325 -29.281 23.096 C-29.212 15.324 -28.229 9.844 -23.004 3.789 C-15.678 -2.065 -8.773 -4.588 0 0 Z " fill="#0D0C0C" transform="translate(321.75,432.1875)" />
<path d="M0 0 C11.056 9.261 18.972 21.559 21 36 C22.079 49.267 19.118 60.805 12 72 C11.571 72.708 11.141 73.415 10.699 74.145 C3.305 85.202 -8.806 91.385 -21.391 94.613 C-37.021 96.93 -50.955 93.653 -63.875 84.613 C-74.696 76.398 -81.566 64.352 -84 51 C-85.57 35.972 -82.721 23.497 -74 11 C-73.522 10.313 -73.044 9.626 -72.551 8.918 C-54.926 -13.59 -22.705 -15.698 0 0 Z " fill="#FAD9BA" transform="translate(456,275)" />
<path d="M0 0 C11.285 9.424 19.423 23.645 20.875 38.375 C20.904 40.239 20.907 42.104 20.891 43.969 C20.892 44.971 20.894 45.973 20.896 47.005 C20.882 48.997 20.821 50.989 20.706 52.977 C20.666 59.186 22.145 62.492 26.457 67.012 C33.364 72.64 39.978 72.738 48.562 72.5 C49.958 72.498 51.353 72.501 52.748 72.508 C56.127 72.508 59.498 72.463 62.875 72.375 C61.916 73.056 61.916 73.056 60.938 73.75 C58.778 75.214 58.778 75.214 57.875 77.375 C66.623 78.488 75.234 78.417 84.037 78.248 C85.104 78.237 86.171 78.226 87.27 78.215 C88.227 78.198 89.185 78.181 90.171 78.164 C93.124 78.394 95.236 79.045 97.875 80.375 C98.205 81.035 98.535 81.695 98.875 82.375 C98.178 82.212 97.482 82.049 96.764 81.882 C93.664 81.338 90.801 81.26 87.655 81.268 C86.419 81.267 85.183 81.266 83.91 81.265 C83.254 81.265 82.598 81.265 81.922 81.266 C77.666 81.257 73.411 81.19 69.156 81.132 C65.437 81.086 61.72 81.06 58 81.08 C29.3 81.207 29.3 81.207 21.172 73.57 C19.278 71.579 17.6 69.525 15.875 67.375 C14.131 65.742 12.365 64.132 10.562 62.562 C9.767 61.841 8.972 61.119 8.152 60.375 C5.334 57.9 2.386 55.641 -0.598 53.371 C-4.366 50.395 -7.965 47.23 -11.589 44.081 C-16.535 39.814 -21.638 35.779 -26.858 31.853 C-28.315 30.738 -29.726 29.562 -31.125 28.375 C-31.125 27.715 -31.125 27.055 -31.125 26.375 C-32.61 25.88 -32.61 25.88 -34.125 25.375 C-33.795 23.725 -33.465 22.075 -33.125 20.375 C-27.237 20.713 -24.268 22.396 -20.25 26.5 C-19.207 27.51 -18.161 28.518 -17.113 29.523 C-16.606 30.014 -16.099 30.505 -15.577 31.011 C-12.317 34.074 -8.703 36.701 -5.125 39.375 C-3.433 40.64 -1.746 41.911 -0.062 43.188 C0.692 43.751 1.446 44.314 2.223 44.895 C2.768 45.383 3.313 45.872 3.875 46.375 C3.875 47.035 3.875 47.695 3.875 48.375 C4.411 48.623 4.947 48.87 5.5 49.125 C8.438 50.672 11.123 52.52 13.875 54.375 C12.553 39.223 10.526 27.717 2.875 14.375 C2.521 13.629 2.166 12.882 1.801 12.113 C0.561 9.785 -0.751 9.496 -3.125 8.375 C-3.971 7.612 -4.816 6.849 -5.688 6.062 C-17.376 -3.964 -32.557 -4.546 -47.125 -3.625 C-50.804 -3.116 -53.783 -2.225 -57.125 -0.625 C-58.096 -0.161 -59.066 0.303 -60.066 0.781 C-73.417 7.866 -80.487 18.135 -85.086 32.344 C-88.603 45.298 -89.587 59.095 -90.688 72.438 C-90.784 73.597 -90.784 73.597 -90.883 74.78 C-93.29 104.854 -92.836 135.26 -93.125 165.375 C-59.795 165.375 -26.465 165.375 7.875 165.375 C7.875 161.415 7.875 157.455 7.875 153.375 C7.979 150.962 8.108 148.55 8.277 146.141 C8.406 144.29 8.406 144.29 8.537 142.402 C8.628 141.156 8.719 139.909 8.812 138.625 C8.9 137.363 8.987 136.101 9.076 134.801 C9.513 128.63 10.02 122.503 10.875 116.375 C9.833 116.029 9.833 116.029 8.77 115.676 C5.279 114.107 2.511 111.955 -0.438 109.562 C-1.038 109.083 -1.638 108.604 -2.257 108.11 C-4.219 106.54 -6.173 104.959 -8.125 103.375 C-8.807 102.822 -9.489 102.269 -10.191 101.7 C-12.965 99.449 -15.737 97.196 -18.506 94.939 C-24.259 90.253 -30.09 85.687 -35.992 81.191 C-58.448 64.052 -58.448 64.052 -63.125 59.375 C-63.166 57.709 -63.168 56.041 -63.125 54.375 C-61.477 53.629 -61.477 53.629 -59.125 53.375 C-56.461 54.965 -56.461 54.965 -53.5 57.312 C-52.97 57.727 -52.44 58.142 -51.894 58.569 C-50.294 59.825 -48.709 61.098 -47.125 62.375 C-46.295 63.034 -45.465 63.692 -44.609 64.371 C-43.009 65.646 -41.413 66.926 -39.82 68.211 C-36.608 70.79 -33.368 73.334 -30.125 75.875 C-23.168 81.334 -16.227 86.808 -9.41 92.441 C3.798 104.256 3.798 104.256 19.156 112.387 C20.053 112.713 20.951 113.039 21.875 113.375 C23.25 117 23.25 117 23.875 120.375 C21.895 120.375 19.915 120.375 17.875 120.375 C17.82 121.378 17.764 122.38 17.707 123.413 C17.499 127.184 17.287 130.954 17.075 134.724 C16.985 136.347 16.894 137.969 16.805 139.592 C16.311 148.536 15.79 157.462 14.875 166.375 C15.551 166.431 16.226 166.487 16.922 166.545 C29.572 167.63 29.572 167.63 33.875 169.375 C34.205 170.365 34.535 171.355 34.875 172.375 C34.215 172.375 33.555 172.375 32.875 172.375 C32.875 173.365 32.875 174.355 32.875 175.375 C30.291 175.234 27.708 175.087 25.125 174.938 C24.395 174.898 23.666 174.859 22.914 174.818 C17.306 174.487 17.306 174.487 14.911 173.865 C12.68 173.328 10.701 173.236 8.408 173.217 C7.519 173.207 6.63 173.197 5.714 173.187 C4.746 173.181 3.779 173.176 2.782 173.17 C1.245 173.155 1.245 173.155 -0.323 173.14 C-3.71 173.108 -7.097 173.083 -10.484 173.059 C-12.833 173.038 -15.181 173.017 -17.53 172.996 C-23.711 172.94 -29.892 172.891 -36.074 172.843 C-42.381 172.793 -48.689 172.737 -54.996 172.682 C-67.372 172.574 -79.749 172.473 -92.125 172.375 C-91.986 174.775 -91.841 177.174 -91.693 179.573 C-91.654 180.248 -91.616 180.924 -91.576 181.619 C-91.255 186.719 -90.43 191.256 -88.75 196.062 C-88.437 197.055 -88.437 197.055 -88.117 198.068 C-87.185 200.897 -86.247 203.214 -84.441 205.598 C-83.125 207.375 -83.125 207.375 -83.438 211.125 C-83.664 212.197 -83.891 213.27 -84.125 214.375 C-88.125 214.375 -88.125 214.375 -89.688 212.828 C-98.608 199.156 -100.397 184.227 -100.75 168.25 C-100.787 166.792 -100.825 165.334 -100.863 163.876 C-104.032 34.204 -104.032 34.204 -80.992 7.324 C-59.353 -15.266 -25.484 -18.996 0 0 Z " fill="#070B0E" transform="translate(447.125,390.625)" />
<path d="M0 0 C5.467 -0.216 10.149 0.533 15.438 1.875 C16.15 2.049 16.862 2.223 17.596 2.402 C19.733 2.926 21.866 3.462 24 4 C26.667 4.667 29.333 5.334 32 6 C29.546 18.096 26.817 30.086 23.767 42.046 C22.66 46.388 21.565 50.733 20.473 55.078 C20.258 55.932 20.043 56.786 19.822 57.666 C17.729 66.025 15.771 74.412 13.889 82.821 C12.634 88.401 11.237 93.919 9.707 99.431 C8.724 103.002 7.825 106.592 6.938 110.188 C6.613 111.493 6.289 112.799 5.965 114.105 C5.809 114.736 5.653 115.367 5.492 116.017 C4.666 119.346 3.833 122.673 3 126 C-4.395 125.465 -11.42 124.155 -18.625 122.438 C-20.131 122.087 -20.131 122.087 -21.668 121.729 C-24.113 121.158 -26.557 120.582 -29 120 C-27.537 112.419 -25.869 104.896 -24.125 97.375 C-23.881 96.314 -23.638 95.253 -23.387 94.16 C-21.365 85.413 -19.197 76.704 -17 68 C-15.54 62.209 -14.08 56.417 -12.625 50.625 C-12.431 49.853 -12.237 49.08 -12.037 48.284 C-9.173 36.867 -6.418 25.433 -3.852 13.944 C-2.784 9.198 -1.669 4.58 0 0 Z " fill="#B6B7B7" transform="translate(667,356)" />
<path d="M0 0 C3.322 2.615 5.407 5.111 7 9 C7.257 11.5 7.257 11.5 7.267 14.362 C7.276 15.45 7.284 16.538 7.293 17.659 C7.292 18.847 7.291 20.036 7.291 21.261 C7.301 23.144 7.301 23.144 7.311 25.066 C7.329 28.508 7.333 31.951 7.335 35.393 C7.336 37.546 7.34 39.699 7.346 41.852 C7.364 49.369 7.372 56.887 7.371 64.404 C7.369 71.4 7.39 78.396 7.422 85.392 C7.448 91.407 7.459 97.421 7.458 103.436 C7.457 107.024 7.463 110.612 7.484 114.201 C7.507 118.208 7.498 122.215 7.486 126.222 C7.497 127.402 7.508 128.583 7.52 129.799 C7.468 136.658 6.743 141.189 3 147 C-0.412 149.502 -2.277 150 -6.5 150 C-10.905 148.742 -12.774 147.226 -16 144 C-17.026 140.922 -17.131 138.811 -17.14 135.586 C-17.146 134.461 -17.152 133.337 -17.158 132.178 C-17.159 130.944 -17.16 129.71 -17.161 128.438 C-17.166 127.139 -17.171 125.839 -17.176 124.5 C-17.189 120.934 -17.196 117.368 -17.2 113.802 C-17.203 111.574 -17.207 109.346 -17.212 107.118 C-17.225 100.146 -17.235 93.174 -17.239 86.203 C-17.243 78.156 -17.261 70.109 -17.29 62.062 C-17.312 55.841 -17.322 49.62 -17.323 43.399 C-17.324 39.684 -17.33 35.968 -17.348 32.253 C-17.367 28.109 -17.363 23.965 -17.356 19.821 C-17.366 18.59 -17.375 17.36 -17.384 16.093 C-17.379 14.963 -17.373 13.833 -17.367 12.668 C-17.369 11.689 -17.37 10.709 -17.372 9.7 C-16.796 5.518 -15.004 2.886 -11.875 0.125 C-7.722 -1.5 -4.254 -1.274 0 0 Z " fill="#EB755F" transform="translate(318,438)" />
<path d="M0 0 C0.495 11.88 0.495 11.88 1 24 C10.24 24 19.48 24 29 24 C29 34.23 29 44.46 29 55 C16.62 55 16.62 55 12.124 54.589 C11.112 54.498 10.1 54.408 9.058 54.315 C7.475 54.165 7.475 54.165 5.859 54.012 C4.171 53.856 4.171 53.856 2.45 53.697 C0.083 53.477 -2.284 53.254 -4.65 53.029 C-8.225 52.69 -11.802 52.365 -15.379 52.041 C-27.074 50.954 -38.563 49.745 -50 47 C-50.148 38.688 -49.753 30.436 -49.2 22.145 C-49.061 20.042 -48.93 17.938 -48.799 15.834 C-48.711 14.484 -48.624 13.135 -48.535 11.785 C-48.457 10.577 -48.378 9.37 -48.297 8.125 C-48.059 5.62 -47.711 3.403 -47 1 C-45.542 1.017 -45.542 1.017 -44.055 1.035 C-34.571 1.11 -25.137 0.849 -15.666 0.356 C-14.785 0.311 -13.904 0.265 -12.996 0.219 C-12.225 0.177 -11.453 0.135 -10.658 0.092 C-7.107 -0.031 -3.553 0 0 0 Z " fill="#FBFBFB" transform="translate(512,510)" />
<path d="M0 0 C1.534 0.366 3.067 0.741 4.597 1.123 C5.417 1.321 6.236 1.518 7.08 1.721 C9.68 2.349 12.278 2.988 14.875 3.627 C17.476 4.261 20.078 4.893 22.68 5.522 C24.294 5.913 25.906 6.307 27.518 6.704 C31.6 7.701 35.653 8.562 39.812 9.19 C39.482 10.18 39.152 11.17 38.812 12.19 C37.822 12.52 36.832 12.85 35.812 13.19 C35.482 13.85 35.152 14.51 34.812 15.19 C35.472 15.52 36.132 15.85 36.812 16.19 C29.17 15.241 21.784 14.129 14.41 11.873 C11.236 11.038 8.064 10.609 4.812 10.19 C4.616 11.095 4.42 12 4.219 12.932 C-0.532 34.668 -5.655 56.334 -11.109 77.905 C-12.693 84.174 -14.21 90.457 -15.688 96.752 C-18.321 107.95 -21.24 119.071 -24.188 130.19 C-23.543 130.244 -22.898 130.298 -22.233 130.354 C-17.212 130.809 -12.448 131.446 -7.563 132.752 C-6.027 133.156 -6.027 133.156 -4.461 133.569 C-3.711 133.774 -2.961 133.979 -2.188 134.19 C-3.188 137.19 -3.188 137.19 -5.188 139.19 C-4.198 140.18 -3.208 141.17 -2.188 142.19 C-9.114 141.354 -15.88 139.817 -22.688 138.315 C-23.885 138.058 -25.083 137.802 -26.317 137.537 C-37.853 134.995 -37.853 134.995 -43.188 132.19 C-46.173 126.219 -43.777 118.548 -42 112.502 C-41.533 110.826 -41.07 109.149 -40.61 107.471 C-40.372 106.605 -40.134 105.738 -39.889 104.846 C-38.722 100.425 -37.738 95.966 -36.75 91.502 C-35.031 83.784 -33.193 76.105 -31.25 68.44 C-29.137 60.085 -27.119 51.714 -25.188 43.315 C-24.941 42.25 -24.694 41.185 -24.44 40.088 C-23.125 34.384 -21.86 28.672 -20.653 22.944 C-20.269 21.169 -20.269 21.169 -19.877 19.359 C-19.388 17.093 -18.913 14.824 -18.455 12.552 C-15.982 1.238 -11.719 -2.525 0 0 Z " fill="#0B0B0B" transform="translate(662.187744140625,345.810302734375)" />
<path d="M0 0 C5.341 3.263 8.231 6.894 10.25 12.812 C10.51 15.493 10.51 15.493 10.524 18.434 C10.534 19.554 10.544 20.673 10.554 21.827 C10.555 23.047 10.556 24.266 10.556 25.522 C10.565 26.814 10.573 28.106 10.582 29.436 C10.604 32.974 10.612 36.511 10.617 40.049 C10.621 42.262 10.627 44.476 10.634 46.69 C10.659 54.424 10.672 62.157 10.676 69.891 C10.679 77.082 10.709 84.273 10.751 91.463 C10.786 97.65 10.801 103.837 10.802 110.025 C10.803 113.714 10.811 117.403 10.84 121.092 C10.871 125.213 10.862 129.334 10.849 133.456 C10.864 134.665 10.879 135.874 10.894 137.12 C10.824 145.259 9.517 152.586 3.516 158.53 C0.214 161.072 -1.529 161.812 -5.75 161.812 C-5.668 165.313 -5.555 168.813 -5.438 172.312 C-5.415 173.295 -5.392 174.277 -5.369 175.289 C-5.197 179.983 -4.898 183.972 -3.102 188.344 C-2.433 190.061 -2.433 190.061 -1.75 191.812 C-3.438 194.812 -3.438 194.812 -5.75 196.812 C-6.41 196.812 -7.07 196.812 -7.75 196.812 C-8.401 195.565 -9.046 194.314 -9.688 193.062 C-10.047 192.366 -10.407 191.67 -10.777 190.953 C-12.549 187.055 -12.871 183.658 -12.848 179.391 C-12.844 178.366 -12.841 177.341 -12.838 176.285 C-12.83 175.222 -12.821 174.158 -12.812 173.062 C-12.808 171.984 -12.803 170.905 -12.799 169.793 C-12.787 167.133 -12.771 164.473 -12.75 161.812 C-13.531 161.675 -14.312 161.538 -15.117 161.397 C-18.133 160.728 -19.548 159.753 -21.875 157.75 C-22.538 157.202 -23.2 156.654 -23.883 156.09 C-29.511 149.225 -29.186 141.359 -29.154 132.914 C-29.161 131.638 -29.168 130.362 -29.175 129.048 C-29.193 125.569 -29.192 122.09 -29.186 118.61 C-29.183 115.698 -29.189 112.785 -29.195 109.873 C-29.209 102.999 -29.207 96.126 -29.196 89.252 C-29.185 82.176 -29.199 75.101 -29.225 68.026 C-29.248 61.934 -29.254 55.843 -29.248 49.752 C-29.245 46.121 -29.247 42.491 -29.265 38.86 C-29.283 34.81 -29.269 30.761 -29.252 26.711 C-29.261 25.518 -29.271 24.325 -29.281 23.096 C-29.212 15.324 -28.229 9.844 -23.004 3.789 C-15.678 -2.065 -8.773 -4.588 0 0 Z M-17.75 7.812 C-20.375 11.472 -21.126 13.988 -21.131 18.467 C-21.139 19.594 -21.148 20.722 -21.157 21.883 C-21.151 23.11 -21.144 24.337 -21.138 25.602 C-21.143 26.901 -21.149 28.201 -21.154 29.54 C-21.168 33.098 -21.162 36.655 -21.153 40.213 C-21.145 43.94 -21.152 47.666 -21.157 51.393 C-21.163 57.651 -21.155 63.908 -21.141 70.166 C-21.125 77.397 -21.13 84.627 -21.147 91.858 C-21.16 98.07 -21.162 104.283 -21.154 110.495 C-21.15 114.204 -21.149 117.912 -21.159 121.62 C-21.169 125.755 -21.155 129.889 -21.138 134.023 C-21.144 135.251 -21.15 136.478 -21.157 137.742 C-21.148 138.869 -21.14 139.996 -21.131 141.158 C-21.13 142.135 -21.129 143.112 -21.128 144.118 C-20.49 148.665 -18.445 151.198 -15.062 154.188 C-11.4 155.984 -9.566 156.231 -5.645 155.488 C-1.629 154.056 0.573 151.225 2.366 147.484 C3.319 144.603 3.507 142.352 3.517 139.323 C3.526 138.232 3.534 137.142 3.543 136.018 C3.542 134.832 3.541 133.645 3.541 132.422 C3.547 131.165 3.554 129.907 3.561 128.612 C3.579 125.17 3.583 121.728 3.585 118.285 C3.586 116.133 3.59 113.98 3.596 111.827 C3.614 104.311 3.622 96.794 3.621 89.278 C3.619 82.281 3.641 75.285 3.672 68.288 C3.698 62.273 3.709 56.258 3.708 50.242 C3.707 46.653 3.713 43.064 3.734 39.475 C3.757 35.47 3.748 31.466 3.736 27.461 C3.753 25.688 3.753 25.688 3.77 23.878 C3.72 17.313 3.268 13.104 -0.75 7.812 C-6.643 3.841 -12.042 3.338 -17.75 7.812 Z " fill="#0B0505" transform="translate(321.75,432.1875)" />
<path d="M0 0 C75.57 0 151.14 0 229 0 C229 3.96 229 7.92 229 12 C153.43 12 77.86 12 0 12 C0 8.04 0 4.08 0 0 Z " fill="#757575" transform="translate(519,515)" />
<path d="M0 0 C0.936 -0.009 1.873 -0.017 2.838 -0.026 C3.868 -0.03 4.899 -0.035 5.961 -0.039 C7.044 -0.047 8.127 -0.055 9.243 -0.064 C12.839 -0.089 16.436 -0.105 20.032 -0.12 C21.872 -0.128 21.872 -0.128 23.748 -0.136 C29.569 -0.16 35.39 -0.179 41.211 -0.192 C47.259 -0.205 53.306 -0.232 59.354 -0.278 C65.84 -0.327 72.326 -0.352 78.812 -0.359 C81.286 -0.366 83.759 -0.381 86.233 -0.405 C89.695 -0.437 93.155 -0.437 96.617 -0.43 C97.64 -0.446 98.662 -0.462 99.716 -0.479 C104.282 -0.439 107.526 -0.371 111.169 2.565 C114.415 6.097 114.947 8.209 114.903 13.048 C114.268 16.81 112.272 18.557 109.548 21.154 C106.714 22.099 104.974 22.281 102.038 22.288 C101.114 22.292 100.19 22.296 99.238 22.301 C98.227 22.3 97.215 22.3 96.173 22.299 C94.573 22.304 94.573 22.304 92.94 22.309 C89.404 22.319 85.869 22.321 82.333 22.322 C79.881 22.325 77.428 22.328 74.976 22.332 C69.832 22.338 64.688 22.34 59.544 22.339 C52.945 22.339 46.347 22.353 39.748 22.37 C34.682 22.381 29.616 22.383 24.551 22.383 C22.117 22.384 19.684 22.388 17.251 22.396 C13.851 22.406 10.452 22.403 7.052 22.397 C5.538 22.405 5.538 22.405 3.993 22.414 C3.066 22.41 2.14 22.405 1.185 22.401 C0.381 22.402 -0.422 22.402 -1.25 22.403 C-4.878 21.993 -6.895 20.831 -9.202 18.029 C-10.806 14.339 -11.165 11.08 -10.452 7.154 C-7.548 1.83 -5.962 0.041 0 0 Z " fill="#F3745C" transform="translate(358.45208740234375,626.8460998535156)" />
<path d="M0 0 C11.056 9.261 18.972 21.559 21 36 C22.079 49.267 19.118 60.805 12 72 C11.571 72.708 11.141 73.415 10.699 74.145 C3.305 85.202 -8.806 91.385 -21.391 94.613 C-37.021 96.93 -50.955 93.653 -63.875 84.613 C-74.696 76.398 -81.566 64.352 -84 51 C-85.57 35.972 -82.721 23.497 -74 11 C-73.522 10.313 -73.044 9.626 -72.551 8.918 C-54.926 -13.59 -22.705 -15.698 0 0 Z M-68.984 16.242 C-75.691 25.419 -77.802 35.856 -77 47 C-74.737 60.215 -69.187 71.731 -58.188 79.812 C-51.343 84.296 -44.227 87.433 -36 88 C-35.117 88.063 -34.234 88.126 -33.324 88.191 C-21.168 88.68 -11.226 84.872 -2 77 C6.984 68.506 12.6 58.169 13.371 45.703 C13.782 30.721 9.797 20.319 -0.582 9.324 C-11.5 -0.956 -23.617 -2.48 -37.836 -2.273 C-51.188 -1.792 -60.493 6.533 -68.984 16.242 Z " fill="#100D0C" transform="translate(456,275)" />
<path d="M0 0 C1.58 -0.017 1.58 -0.017 3.191 -0.035 C4.196 -0.031 5.2 -0.027 6.234 -0.023 C7.607 -0.018 7.607 -0.018 9.007 -0.013 C9.747 0.115 10.487 0.243 11.25 0.375 C11.91 1.365 12.57 2.355 13.25 3.375 C12.59 4.695 11.93 6.015 11.25 7.375 C10.656 7.379 10.061 7.383 9.449 7.387 C6.715 7.421 3.983 7.491 1.25 7.562 C0.315 7.568 -0.619 7.574 -1.582 7.58 C-7.892 7.779 -13.133 8.773 -17.75 13.375 C-18.41 15.025 -19.07 16.675 -19.75 18.375 C8.3 18.045 36.35 17.715 65.25 17.375 C59.661 10.137 59.661 10.137 52.08 8.144 C49.532 7.956 46.99 7.841 44.438 7.75 C43.554 7.711 42.67 7.673 41.76 7.633 C39.59 7.539 37.42 7.456 35.25 7.375 C34.125 2.625 34.125 2.625 35.25 0.375 C38.396 0.257 41.54 0.187 44.688 0.125 C45.566 0.091 46.444 0.058 47.35 0.023 C56.225 -0.108 63.267 2.701 69.809 8.742 C73.145 12.521 74.159 16.259 74.562 21.188 C74.25 24.375 74.25 24.375 72.25 26.375 C69.126 26.574 66.092 26.648 62.967 26.634 C61.523 26.639 61.523 26.639 60.05 26.644 C56.856 26.653 53.662 26.647 50.469 26.641 C48.257 26.642 46.045 26.644 43.833 26.646 C39.192 26.649 34.552 26.645 29.912 26.636 C23.953 26.624 17.994 26.631 12.035 26.643 C7.466 26.65 2.897 26.648 -1.672 26.643 C-3.87 26.641 -6.068 26.643 -8.265 26.648 C-11.333 26.653 -14.4 26.645 -17.467 26.634 C-18.382 26.638 -19.298 26.642 -20.241 26.646 C-26.521 26.604 -26.521 26.604 -28.75 24.375 C-29.464 18.427 -28.095 14.201 -24.75 9.375 C-17.465 1.543 -10.429 -0.117 0 0 Z " fill="#101011" transform="translate(387.75,737.625)" />
<path d="M0 0 C3.498 2.136 6.16 4.202 8.25 7.812 C7.92 8.803 7.59 9.793 7.25 10.812 C4.054 11.878 3.28 12.006 0.25 10.812 C-0.307 10.152 -0.864 9.493 -1.438 8.812 C-4.874 5.841 -8.304 5.749 -12.75 5.812 C-15.675 6.246 -15.675 6.246 -17.75 7.812 C-19.544 11.424 -20.005 14.381 -20.028 18.387 C-20.04 19.496 -20.051 20.605 -20.062 21.748 C-20.064 22.955 -20.067 24.162 -20.069 25.406 C-20.079 26.684 -20.089 27.962 -20.099 29.28 C-20.127 32.777 -20.142 36.275 -20.155 39.772 C-20.17 43.43 -20.197 47.089 -20.223 50.747 C-20.27 57.67 -20.306 64.594 -20.339 71.518 C-20.378 79.402 -20.427 87.286 -20.477 95.169 C-20.581 111.384 -20.67 127.598 -20.75 143.812 C-21.08 143.812 -21.41 143.812 -21.75 143.812 C-22.08 128.303 -22.41 112.793 -22.75 96.812 C-22.653 103.984 -22.55 111.156 -22.433 118.327 C-22.394 120.767 -22.359 123.206 -22.328 125.646 C-22.282 129.153 -22.224 132.661 -22.164 136.168 C-22.153 137.258 -22.141 138.347 -22.129 139.47 C-22.109 140.491 -22.089 141.512 -22.069 142.563 C-22.056 143.458 -22.042 144.353 -22.028 145.275 C-21.721 148.073 -20.903 150.256 -19.75 152.812 C-21.75 153.812 -21.75 153.812 -24.25 153.25 C-26.75 151.812 -26.75 151.812 -27.89 149.078 C-28.717 145.936 -29.006 143.37 -29.017 140.134 C-29.026 139.026 -29.034 137.919 -29.043 136.778 C-29.042 135.578 -29.041 134.378 -29.041 133.141 C-29.047 131.866 -29.054 130.59 -29.061 129.276 C-29.078 125.788 -29.083 122.301 -29.085 118.813 C-29.086 116.631 -29.09 114.449 -29.096 112.267 C-29.114 104.645 -29.122 97.024 -29.121 89.403 C-29.119 82.312 -29.141 75.222 -29.172 68.132 C-29.198 62.033 -29.209 55.933 -29.208 49.834 C-29.207 46.196 -29.213 42.558 -29.234 38.921 C-29.257 34.861 -29.248 30.802 -29.236 26.743 C-29.247 25.547 -29.258 24.35 -29.27 23.118 C-29.211 15.332 -28.238 9.855 -23.004 3.789 C-15.678 -2.065 -8.773 -4.588 0 0 Z " fill="#1B1414" transform="translate(321.75,432.1875)" />
<path d="M0 0 C1.408 0.004 2.815 0.005 4.223 0.004 C7.157 0.009 10.091 0.033 13.025 0.074 C16.774 0.125 20.522 0.136 24.272 0.134 C27.173 0.135 30.073 0.151 32.974 0.173 C34.356 0.183 35.738 0.189 37.12 0.191 C39.053 0.197 40.986 0.226 42.919 0.256 C44.563 0.273 44.563 0.273 46.241 0.29 C51.542 0.978 55.379 3.179 58.707 7.316 C59.21 7.927 59.712 8.538 60.23 9.168 C61.332 10.691 61.332 10.691 61.332 11.691 C32.952 11.691 4.572 11.691 -24.668 11.691 C-23.511 5.908 -23.511 5.908 -20.022 3.422 C-13.694 -0.467 -7.21 -0.122 0 0 Z " fill="#B7B8B9" transform="translate(392.66796875,744.30859375)" />
<path d="M0 0 C2.97 0.495 2.97 0.495 6 1 C4.979 8.964 3.391 16.55 1.246 24.281 C-0.38 30.293 -1.732 36.369 -3.125 42.438 C-6.384 56.583 -9.884 70.662 -13.428 84.739 C-15.911 94.606 -18.357 104.478 -20.643 114.393 C-21.9 119.8 -21.9 119.8 -23 122 C-24.98 121.67 -26.96 121.34 -29 121 C-28.192 113.983 -26.496 107.18 -24.875 100.312 C-24.562 98.978 -24.249 97.643 -23.936 96.309 C-21.551 86.175 -19.037 76.075 -16.486 65.982 C-14.73 59.007 -13.064 52.02 -11.5 45 C-9.56 36.302 -7.468 27.647 -5.312 19 C-5.015 17.8 -4.717 16.6 -4.41 15.363 C-4.127 14.233 -3.843 13.102 -3.551 11.938 C-3.3 10.936 -3.049 9.934 -2.79 8.902 C-1.97 5.891 -1.014 2.951 0 0 Z " fill="#B4B4B4" transform="translate(654,352)" />
<path d="M0 0 C2.97 0 5.94 0 9 0 C9 27.06 9 54.12 9 82 C6.03 82 3.06 82 0 82 C0 54.94 0 27.88 0 0 Z " fill="#B9B9BA" transform="translate(406,656)" />
<path d="M0 0 C14.499 -0.117 28.998 -0.205 43.498 -0.259 C50.231 -0.285 56.963 -0.32 63.696 -0.377 C70.193 -0.432 76.689 -0.461 83.186 -0.474 C85.666 -0.484 88.145 -0.502 90.624 -0.529 C94.095 -0.565 97.566 -0.57 101.038 -0.568 C102.063 -0.586 103.089 -0.604 104.146 -0.622 C108.719 -0.589 111.973 -0.532 115.623 2.41 C118.866 5.944 119.4 8.056 119.355 12.895 C118.72 16.656 116.724 18.403 114 21 C111.166 21.945 109.426 22.128 106.49 22.134 C105.566 22.138 104.642 22.142 103.69 22.147 C102.679 22.146 101.667 22.146 100.625 22.145 C99.025 22.15 99.025 22.15 97.392 22.155 C93.857 22.165 90.321 22.167 86.785 22.168 C84.333 22.171 81.88 22.175 79.428 22.178 C74.284 22.184 69.14 22.186 63.996 22.185 C57.397 22.185 50.799 22.199 44.2 22.216 C39.134 22.227 34.068 22.229 29.003 22.229 C26.569 22.23 24.136 22.234 21.703 22.242 C18.303 22.252 14.904 22.249 11.504 22.243 C9.99 22.251 9.99 22.251 8.445 22.26 C7.518 22.256 6.592 22.252 5.637 22.247 C4.833 22.248 4.03 22.248 3.202 22.249 C-0.426 21.839 -2.443 20.677 -4.75 17.875 C-6.48 13.897 -6.419 11.33 -6 7 C-5.01 6.01 -4.02 5.02 -3 4 C-3 7.96 -3 11.92 -3 16 C-1.35 15.34 0.3 14.68 2 14 C2.99 14.33 3.98 14.66 5 15 C4.01 16.485 4.01 16.485 3 18 C3.66 18 4.32 18 5 18 C5 18.66 5 19.32 5 20 C18.456 19.892 31.913 19.78 45.369 19.661 C51.617 19.605 57.865 19.552 64.114 19.503 C70.144 19.455 76.174 19.403 82.204 19.347 C84.504 19.327 86.805 19.308 89.105 19.291 C92.328 19.267 95.55 19.237 98.772 19.205 C99.723 19.2 100.674 19.194 101.654 19.188 C106.21 19.137 110.517 18.925 115 18 C115.25 16.42 115.474 14.836 115.688 13.25 C115.815 12.368 115.943 11.487 116.074 10.578 C115.982 7.388 115.216 6.251 113 4 C110.142 3.047 108.388 2.876 105.425 2.88 C104.018 2.878 104.018 2.878 102.583 2.876 C101.042 2.881 101.042 2.881 99.47 2.886 C98.387 2.886 97.304 2.886 96.188 2.886 C92.601 2.887 89.013 2.895 85.426 2.902 C82.941 2.904 80.457 2.906 77.973 2.907 C72.097 2.91 66.222 2.918 60.346 2.928 C53.001 2.94 45.656 2.946 38.311 2.951 C25.207 2.962 12.104 2.979 -1 3 C-0.67 2.01 -0.34 1.02 0 0 Z " fill="#D77669" transform="translate(354,627)" />
<path d="M0 0 C8.815 -0.622 15.653 -0.262 23 5 C25.802 7.967 26.222 10.479 26.5 14.438 C26.339 18.312 25.501 20.874 22.66 23.715 C15.306 29.408 8.04 29.503 -1 29 C-0.711 28.49 -0.423 27.979 -0.125 27.453 C3.179 20.983 3.892 15.208 3 8 C1.67 4.495 1.67 4.495 0 2 C0 1.34 0 0.68 0 0 Z " fill="#F3D4B4" transform="translate(556,472)" />
<path d="M0 0 C0.696 -0.001 1.392 -0.003 2.109 -0.004 C4.4 -0.006 6.69 -0 8.98 0.008 C9.759 0.009 10.538 0.011 11.341 0.013 C22.391 0.038 33.435 0.178 44.48 0.508 C45.676 0.539 46.871 0.569 48.103 0.601 C49.214 0.64 50.324 0.679 51.469 0.719 C52.43 0.75 53.39 0.782 54.38 0.814 C58.568 1.293 62.082 2.047 65.105 5.07 C65.456 5.751 65.807 6.432 66.168 7.133 C65.838 8.123 65.508 9.113 65.168 10.133 C64.178 8.153 64.178 8.153 63.168 6.133 C62.178 6.793 61.188 7.453 60.168 8.133 C58.175 8.268 58.175 8.268 55.938 8.109 C55.135 8.058 54.333 8.006 53.506 7.953 C52.672 7.889 51.839 7.824 50.98 7.758 C49.713 7.673 49.713 7.673 48.42 7.586 C46.335 7.445 44.252 7.29 42.168 7.133 C42.119 7.771 42.07 8.409 42.02 9.066 C41.945 9.893 41.87 10.719 41.793 11.57 C41.723 12.394 41.654 13.218 41.582 14.066 C41.445 14.748 41.309 15.43 41.168 16.133 C40.178 16.628 40.178 16.628 39.168 17.133 C35.168 12.383 35.168 12.383 35.168 10.133 C34.508 10.133 33.848 10.133 33.168 10.133 C32.508 9.143 31.848 8.153 31.168 7.133 C28.038 5.931 24.982 6.03 21.66 6.07 C20.59 6.078 19.52 6.086 18.418 6.094 C16.191 6.12 13.965 6.146 11.738 6.172 C5.142 6.219 -1.285 5.958 -7.832 5.133 C-8.162 3.813 -8.492 2.493 -8.832 1.133 C-5.893 -0.337 -3.281 0.003 0 0 Z " fill="#040405" transform="translate(512.83203125,463.8671875)" />
<path d="M0 0 C0.33 0 0.66 0 1 0 C0.973 0.644 0.945 1.289 0.917 1.953 C0.824 4.928 0.818 7.898 0.812 10.875 C0.768 11.888 0.724 12.901 0.678 13.945 C0.74 20.382 2.108 23.993 6.594 28.688 C13.493 34.268 20.136 34.362 28.688 34.125 C30.083 34.123 31.478 34.126 32.873 34.133 C36.252 34.133 39.623 34.088 43 34 C42.041 34.681 42.041 34.681 41.062 35.375 C38.903 36.839 38.903 36.839 38 39 C46.748 40.113 55.359 40.042 64.162 39.873 C65.229 39.862 66.296 39.851 67.395 39.84 C68.352 39.823 69.31 39.806 70.296 39.789 C73.249 40.019 75.361 40.67 78 42 C78.33 42.66 78.66 43.32 79 44 C77.955 43.756 77.955 43.756 76.889 43.507 C73.789 42.963 70.926 42.885 67.78 42.893 C66.544 42.892 65.308 42.891 64.035 42.89 C63.051 42.89 63.051 42.89 62.047 42.891 C57.791 42.882 53.536 42.815 49.281 42.757 C45.562 42.711 41.845 42.685 38.125 42.705 C9.425 42.831 9.425 42.831 1.332 35.223 C-0.566 33.221 -2.26 31.15 -4 29 C-5.902 27.173 -7.876 25.472 -9.875 23.75 C-11.252 22.502 -12.627 21.253 -14 20 C-13.01 19.67 -12.02 19.34 -11 19 C-10.34 19.99 -9.68 20.98 -9 22 C-6.556 23.161 -4.717 24 -2 24 C-0.317 22.317 -0.772 20.18 -0.684 17.871 C-0.642 16.837 -0.6 15.802 -0.557 14.736 C-0.517 13.648 -0.478 12.559 -0.438 11.438 C-0.394 10.345 -0.351 9.253 -0.307 8.127 C-0.2 5.418 -0.098 2.709 0 0 Z " fill="#0C1317" transform="translate(467,429)" />
</svg>