<?xml version='1.0' encoding='utf-8'?>
<svg xmlns="http://www.w3.org/2000/svg" version="1.1" width="494" height="368" viewBox="215.019 333.8655 494.245 368.46450000000004">
<path d="M0 0 C2.576 1.486 2.576 1.486 5.312 0.562 C6.406 0.109 7.499 -0.345 8.625 -0.812 C21.996 -5.402 34.487 -4.954 47.359 0.848 C49.922 2.363 51.72 4.138 53.812 6.25 C58.52 10.711 62.993 11.488 69.262 12.559 C80.12 14.589 90.675 21.531 97.223 30.336 C101.364 36.543 102.597 41.763 102.625 49.188 C103.832 49.466 103.832 49.466 105.062 49.75 C115.385 53.915 120.999 61.84 125.801 71.57 C126.855 74.918 126.832 77.932 126.875 81.438 C127.101 87.558 128.398 91.209 132.125 96.047 C137.889 104.272 137.789 116.523 136.625 126.188 C135.633 129.734 134.217 132.88 132.625 136.188 C131.697 139.901 131.645 143.207 131.75 147 C131.819 154.679 129.432 161.178 124.625 167.188 C119.921 171.973 114.907 175.905 107.961 176.363 C105.507 176.374 103.075 176.321 100.625 176.188 C100.671 176.866 100.718 177.544 100.766 178.242 C101.184 189.019 97.829 197.203 90.625 205.188 C85.844 210.038 80.955 213.655 74.625 216.188 C73.888 216.487 73.15 216.786 72.391 217.094 C61.711 220.863 50.478 219.668 39.625 217.188 C40.394 219.209 41.165 221.23 41.938 223.25 C42.39 224.437 42.842 225.624 43.309 226.848 C44.296 229.354 45.339 231.762 46.5 234.188 C47.727 237.459 47.832 238.938 46.625 242.188 C43.941 244.871 41.454 245.283 37.812 246.312 C35.978 246.842 35.978 246.842 34.105 247.383 C28.277 248.73 28.277 248.73 25.625 248.188 C23.863 246.284 22.578 244.593 21.188 242.438 C20.314 241.151 19.44 239.864 18.566 238.578 C18.097 237.875 17.628 237.172 17.145 236.447 C14.367 232.318 11.487 228.259 8.625 224.188 C7.427 222.474 6.229 220.761 5.031 219.047 C1.298 213.714 -2.451 208.395 -6.277 203.129 C-7.569 201.317 -8.822 199.475 -10.004 197.59 C-12.446 193.666 -12.446 193.666 -16.387 191.594 C-17.909 191.445 -19.436 191.349 -20.965 191.301 C-32.373 190.765 -44.75 183.469 -52.375 175.188 C-58.331 167.702 -62.98 161.064 -62.375 151.188 C-63.365 151.518 -64.355 151.847 -65.375 152.188 C-86.031 153.454 -106.087 149.597 -122.062 135.562 C-123.524 134.128 -124.965 132.673 -126.375 131.188 C-126.883 130.676 -127.391 130.164 -127.914 129.637 C-135.375 121.512 -138.754 110.762 -138.562 99.938 C-138.562 99.231 -138.561 98.525 -138.561 97.797 C-138.534 94.668 -138.371 92.176 -137.375 89.188 C-137.296 87.701 -137.267 86.211 -137.27 84.723 C-137.129 72.879 -136.639 63.198 -128.375 53.949 C-124.807 50.577 -122.3 48.896 -117.375 48.188 C-117.251 47.593 -117.127 46.999 -117 46.387 C-113.928 34.04 -105.785 25.157 -95.375 18.188 C-85.064 12.122 -74.855 7.252 -62.776 6.993 C-54.773 6.809 -50.137 6.265 -43.781 0.977 C-31.779 -7.947 -12.688 -6.814 0 0 Z " fill="#EFA4A5" transform="translate(561.375,351.8125)" />
<path d="M0 0 C2.576 1.486 2.576 1.486 5.312 0.562 C6.406 0.109 7.499 -0.345 8.625 -0.812 C21.996 -5.402 34.487 -4.954 47.359 0.848 C49.922 2.363 51.72 4.138 53.812 6.25 C58.52 10.711 62.993 11.488 69.262 12.559 C80.12 14.589 90.675 21.531 97.223 30.336 C101.364 36.543 102.597 41.763 102.625 49.188 C103.832 49.466 103.832 49.466 105.062 49.75 C115.385 53.915 120.999 61.84 125.801 71.57 C126.855 74.918 126.832 77.932 126.875 81.438 C127.101 87.558 128.398 91.209 132.125 96.047 C137.889 104.272 137.789 116.523 136.625 126.188 C135.633 129.734 134.217 132.88 132.625 136.188 C131.697 139.901 131.645 143.207 131.75 147 C131.819 154.679 129.432 161.178 124.625 167.188 C119.921 171.973 114.907 175.905 107.961 176.363 C105.507 176.374 103.075 176.321 100.625 176.188 C100.671 176.866 100.718 177.544 100.766 178.242 C101.184 189.019 97.829 197.203 90.625 205.188 C85.844 210.038 80.955 213.655 74.625 216.188 C73.888 216.487 73.15 216.786 72.391 217.094 C61.711 220.863 50.478 219.668 39.625 217.188 C40.394 219.209 41.165 221.23 41.938 223.25 C42.39 224.437 42.842 225.624 43.309 226.848 C44.296 229.354 45.339 231.762 46.5 234.188 C47.727 237.459 47.832 238.938 46.625 242.188 C43.941 244.871 41.454 245.283 37.812 246.312 C35.978 246.842 35.978 246.842 34.105 247.383 C28.277 248.73 28.277 248.73 25.625 248.188 C23.863 246.284 22.578 244.593 21.188 242.438 C20.314 241.151 19.44 239.864 18.566 238.578 C18.097 237.875 17.628 237.172 17.145 236.447 C14.367 232.318 11.487 228.259 8.625 224.188 C7.427 222.474 6.229 220.761 5.031 219.047 C1.298 213.714 -2.451 208.395 -6.277 203.129 C-7.569 201.317 -8.822 199.475 -10.004 197.59 C-12.446 193.666 -12.446 193.666 -16.387 191.594 C-17.909 191.445 -19.436 191.349 -20.965 191.301 C-32.373 190.765 -44.75 183.469 -52.375 175.188 C-58.331 167.702 -62.98 161.064 -62.375 151.188 C-63.365 151.518 -64.355 151.847 -65.375 152.188 C-86.031 153.454 -106.087 149.597 -122.062 135.562 C-123.524 134.128 -124.965 132.673 -126.375 131.188 C-126.883 130.676 -127.391 130.164 -127.914 129.637 C-135.375 121.512 -138.754 110.762 -138.562 99.938 C-138.562 99.231 -138.561 98.525 -138.561 97.797 C-138.534 94.668 -138.371 92.176 -137.375 89.188 C-137.296 87.701 -137.267 86.211 -137.27 84.723 C-137.129 72.879 -136.639 63.198 -128.375 53.949 C-124.807 50.577 -122.3 48.896 -117.375 48.188 C-117.251 47.593 -117.127 46.999 -117 46.387 C-113.928 34.04 -105.785 25.157 -95.375 18.188 C-85.064 12.122 -74.855 7.252 -62.776 6.993 C-54.773 6.809 -50.137 6.265 -43.781 0.977 C-31.779 -7.947 -12.688 -6.814 0 0 Z M-49.375 16.188 C-52.649 20.951 -53.005 26.56 -53.375 32.188 C-55.355 32.188 -57.335 32.188 -59.375 32.188 C-59.744 20.666 -59.744 20.666 -57.375 15.188 C-72.152 14.011 -85.898 20.782 -97.043 30.066 C-101.411 34.039 -106.328 38.516 -108.375 44.188 C-108.309 46.723 -108.309 46.723 -107.375 49.188 C-105.35 50.544 -105.35 50.544 -102.809 51.418 C-97.623 53.767 -94.987 56.651 -91.467 61.031 C-86.021 67.657 -81.305 72.446 -72.523 73.539 C-62.541 73.946 -51.326 74.189 -43.375 67.188 C-42.236 64.522 -41.887 62.074 -41.375 59.188 C-39.497 56.783 -38.247 56.3 -35.254 55.914 C-31.842 55.768 -29.085 55.921 -25.875 57.125 C-23.424 60.495 -23.181 64.087 -23.375 68.188 C-24.625 71.188 -24.625 71.188 -26.375 73.188 C-30.371 74.519 -33.903 74.016 -38.074 73.734 C-41.482 74.202 -42.169 74.649 -44.77 76.621 C-50.912 80.725 -58.231 80.437 -65.375 80.5 C-66.114 80.511 -66.852 80.523 -67.613 80.534 C-76.328 80.57 -83.341 80.033 -89.961 73.747 C-92.366 71.003 -94.534 68.133 -96.672 65.179 C-100.757 60.403 -106.779 56.546 -113 55.688 C-117.808 55.749 -120.34 57.924 -123.676 61.207 C-128.928 67.329 -128.749 73.536 -128.375 81.188 C-127.054 81.209 -127.054 81.209 -125.707 81.23 C-116.126 81.624 -116.126 81.624 -112.375 84.438 C-111.715 85.345 -111.055 86.252 -110.375 87.188 C-106.317 91.362 -102.025 95.232 -97.68 99.102 C-95.375 101.188 -95.375 101.188 -93.895 102.918 C-91.738 104.72 -89.957 104.695 -87.188 104.875 C-86.286 104.941 -85.385 105.006 -84.457 105.074 C-83.77 105.112 -83.083 105.149 -82.375 105.188 C-82.035 104.619 -81.694 104.051 -81.344 103.465 C-80.859 102.693 -80.374 101.921 -79.875 101.125 C-79.411 100.371 -78.947 99.617 -78.469 98.84 C-71.264 89.714 -71.264 89.714 -65.083 88.588 C-61.764 88.446 -58.499 88.414 -55.18 88.507 C-52.959 88.568 -50.741 88.583 -48.518 88.587 C-43.005 88.605 -37.493 88.695 -31.98 88.792 C-27.31 88.873 -22.642 88.922 -17.971 88.926 C-15.793 88.941 -13.62 89.003 -11.444 89.067 C-4.252 89.208 -4.252 89.208 2.242 86.463 C4.247 84.471 5.929 82.443 7.625 80.188 C9.556 78.198 11.318 76.777 13.625 75.188 C16.5 75.375 16.5 75.375 18.625 76.188 C18.239 81.128 15.76 83.566 12.312 86.812 C11.826 87.289 11.339 87.766 10.838 88.258 C9.459 89.594 8.043 90.892 6.625 92.188 C6.046 92.728 5.467 93.269 4.87 93.826 C1.786 95.696 -0.459 95.532 -4.052 95.493 C-4.714 95.49 -5.377 95.488 -6.059 95.485 C-7.494 95.478 -8.928 95.465 -10.362 95.445 C-12.638 95.418 -14.912 95.413 -17.187 95.415 C-23.654 95.418 -30.12 95.395 -36.587 95.322 C-40.547 95.278 -44.506 95.273 -48.466 95.293 C-49.97 95.293 -51.475 95.278 -52.979 95.248 C-61.332 94.872 -61.332 94.872 -68.835 97.932 C-70.622 99.937 -72.028 101.87 -73.375 104.188 C-73.962 105.095 -74.548 106.002 -75.152 106.938 C-75.535 107.68 -75.918 108.423 -76.312 109.188 C-76.713 109.951 -77.114 110.714 -77.527 111.5 C-77.807 112.057 -78.087 112.614 -78.375 113.188 C-80.042 113.071 -81.709 112.944 -83.375 112.812 C-84.303 112.743 -85.231 112.673 -86.188 112.602 C-87.239 112.465 -88.291 112.328 -89.375 112.188 C-91.22 112.002 -91.22 112.002 -93.102 111.812 C-100.005 110.01 -104.529 103.204 -109.088 98.05 C-114.262 91.893 -114.262 91.893 -121.267 88.54 C-123.73 88.539 -125.963 88.703 -128.375 89.188 C-131.368 95.921 -131.467 103.283 -129.5 110.316 C-124.273 123.78 -114.741 133.413 -101.496 139.309 C-92.654 142.973 -84.788 143.574 -75.25 143.375 C-73.386 143.355 -73.386 143.355 -71.484 143.334 C-68.447 143.299 -65.411 143.25 -62.375 143.188 C-62.118 142.443 -61.861 141.699 -61.597 140.933 C-61.077 139.46 -61.077 139.46 -60.547 137.957 C-60.208 136.986 -59.868 136.015 -59.519 135.015 C-55.467 124.996 -46.778 118.892 -37.375 114.188 C-24.141 109.517 -11.175 109.08 2.625 111.188 C9.409 112.178 9.409 112.178 15.488 109.766 C17.029 107.958 17.029 107.958 18.348 105.973 C19.625 104.188 19.625 104.188 22.438 102.375 C25.489 99.324 25.111 96.779 25.32 92.602 C25.747 89.219 27.179 87.485 29.625 85.188 C32.725 83.637 35.204 83.898 38.625 84.188 C41.378 85.983 43.151 87.24 44.625 90.188 C45.048 98.939 45.048 98.939 42.625 102.188 C40.262 102.559 40.262 102.559 37.312 102.625 C29.309 103.612 25.392 108.625 20.242 114.316 C17.625 117.188 17.625 117.188 15.625 118.188 C8.511 118.501 1.664 118.193 -5.375 117.188 C-21.487 116.286 -34.378 119.065 -46.75 129.562 C-51.739 134.295 -54.216 137.667 -54.535 144.734 C-54.56 148.226 -54.506 151.699 -54.375 155.188 C-47.864 157.358 -40.084 157.786 -33.375 156.188 C-28.088 153.469 -24.478 149.161 -21.375 144.188 C-20.749 141.54 -20.735 139.762 -21.141 137.094 C-21.375 135.188 -21.375 135.188 -20.062 132.25 C-18.375 130.188 -18.375 130.188 -15.375 128.188 C-11.134 127.953 -7.444 128.536 -3.812 130.75 C-1.659 134.402 -2.04 136.97 -2.375 141.188 C-3.375 144.188 -3.375 144.188 -5.5 145.812 C-8.375 147.188 -8.375 147.188 -11.875 147.562 C-16.924 148.464 -18.677 151.171 -21.875 154.969 C-22.391 155.577 -22.906 156.186 -23.438 156.812 C-23.903 157.382 -24.368 157.952 -24.848 158.539 C-28.874 162.884 -31.649 163.562 -37.48 163.807 C-38.353 163.829 -39.226 163.852 -40.125 163.875 C-41.013 163.909 -41.901 163.943 -42.816 163.979 C-45.002 164.061 -47.188 164.13 -49.375 164.188 C-47.811 167.511 -46.161 169.749 -43.375 172.188 C-42.715 172.188 -42.055 172.188 -41.375 172.188 C-41.375 172.847 -41.375 173.507 -41.375 174.188 C-28.16 182.322 -12.873 186.964 2.762 183.748 C11.665 181.58 20.078 178.734 27.824 173.781 C42.565 164.476 56.501 163.059 73.449 162.758 C80.571 162.65 80.571 162.65 86.625 159.188 C86.625 158.528 86.625 157.868 86.625 157.188 C89.1 156.197 89.1 156.197 91.625 155.188 C92.262 149.049 92.262 149.049 89.688 143.75 C89.007 143.234 88.326 142.719 87.625 142.188 C86.235 139.408 86.44 137.269 86.625 134.188 C87.832 130.845 88.546 130.24 91.625 128.188 C96.035 127.477 99.619 127.684 103.625 129.688 C106.32 133.057 106.8 135.921 106.625 140.188 C105.677 143.033 105.301 143.849 102.625 145.188 C102.625 145.847 102.625 146.507 102.625 147.188 C101.635 147.188 100.645 147.188 99.625 147.188 C99.599 147.935 99.573 148.683 99.547 149.453 C99.08 157.566 99.08 157.566 96.75 160.75 C95.046 161.903 93.337 163.046 91.625 164.188 C91.625 164.847 91.625 165.507 91.625 166.188 C96.989 169.401 103.821 169.067 109.789 167.688 C115.017 165.661 118.22 162.126 121.438 157.688 C123.757 150.85 123.238 143.174 121.625 136.188 C122.285 136.188 122.945 136.188 123.625 136.188 C124.276 134.94 124.921 133.689 125.562 132.438 C125.922 131.741 126.282 131.045 126.652 130.328 C129.926 123.123 129.833 113.517 127.73 105.98 C126.788 103.652 125.796 101.409 124.625 99.188 C121.65 98.872 121.65 98.872 119.938 100.562 C118.416 102.099 118.416 102.099 118.625 104.188 C105.465 110.812 105.465 110.812 100.625 110.188 C100.625 108.538 100.625 106.887 100.625 105.188 C101.373 104.812 102.12 104.437 102.891 104.051 C110.298 100.342 110.298 100.342 115.625 94.188 C116.202 93.301 116.78 92.414 117.375 91.5 C119.804 85.062 119.385 78.435 116.668 72.133 C113.442 66.115 109.685 61.419 103.625 58.188 C102.635 58.188 101.645 58.188 100.625 58.188 C97.7 62.77 98.571 67.543 98.75 72.777 C98.524 78.944 95.92 82.723 91.891 87.184 C87.238 91.299 81.053 95.001 74.758 95.344 C73.702 95.266 73.702 95.266 72.625 95.188 C72.383 94.524 72.14 93.86 71.891 93.176 C69.202 86.091 67.179 81.203 60.062 77.875 C57.262 76.68 55.712 76.188 52.625 76.188 C52.625 74.207 52.625 72.228 52.625 70.188 C57.15 68.782 59.464 69.632 63.625 71.75 C70.551 75.421 73.809 79.358 77.625 86.188 C83.467 84.658 87.498 82.147 91.062 77.188 C91.81 74.53 91.47 72.793 90.625 70.188 C89.965 69.858 89.305 69.528 88.625 69.188 C88.958 64.971 90.176 62.017 92.188 58.375 C94.724 53.478 95.561 49.642 94.625 44.188 C91.581 35.208 86.597 29.176 78.625 24.188 C73.594 21.869 69.193 20.188 63.625 20.188 C63.646 20.782 63.667 21.376 63.688 21.988 C63.772 24.721 63.824 27.454 63.875 30.188 C63.909 31.122 63.942 32.057 63.977 33.02 C64.097 41.63 61.672 47.926 55.625 54.188 C49.025 58.071 42.422 59.743 34.805 59.754 C34.085 59.897 33.366 60.04 32.625 60.188 C31.372 62.094 31.372 62.094 30.625 64.188 C27.191 66.731 23.77 66.484 19.625 66.188 C16.967 65.325 15.981 64.763 14.512 62.391 C12.989 58.607 13.662 55.073 14.625 51.188 C16.188 48.625 16.188 48.625 18.625 47.188 C22.31 46.605 25.526 46.821 29.062 48 C30.625 49.188 30.625 49.188 31.625 52.188 C38.736 52.526 45.8 52.498 51.453 47.605 C55.856 42.7 58.124 38.256 57.945 31.5 C56.931 24.179 53.787 15.385 47.805 10.789 C41.847 6.87 36.799 5.078 29.625 5.188 C29.205 6.564 29.205 6.564 28.777 7.969 C26.243 15.725 23.689 21.565 17.625 27.188 C16.221 28.514 16.221 28.514 14.789 29.867 C9.646 34.674 4.374 39.339 -0.949 43.945 C-3.094 45.652 -3.094 45.652 -3.578 48.297 C-3.673 53.628 -3.458 56.691 -0.375 61.188 C-0.188 64 -0.188 64 -0.375 66.188 C-2.625 66.562 -2.625 66.562 -5.375 66.188 C-9.433 61.115 -10.537 57.199 -10.625 50.812 C-10.651 49.691 -10.677 48.57 -10.703 47.414 C-10.212 42.583 -8.5 40.216 -4.957 36.977 C-4.043 36.262 -3.129 35.548 -2.188 34.812 C-1.218 34.04 -0.249 33.268 0.75 32.473 C1.699 31.719 2.648 30.964 3.625 30.188 C5.198 28.887 6.762 27.576 8.312 26.25 C8.956 25.705 9.599 25.159 10.262 24.598 C11.857 23.275 11.857 23.275 11.625 21.188 C12.228 20.935 12.832 20.682 13.453 20.422 C17.121 18.337 18.889 14.952 20.625 11.188 C21.047 7.85 21.047 7.85 20.625 5.188 C15.613 5.715 11.537 7.392 6.992 9.445 C3.639 10.497 1.845 9.779 -1.234 8.285 C-1.858 7.944 -2.482 7.602 -3.125 7.25 C-19.665 -1.096 -37.186 2.454 -49.375 16.188 Z " fill="#352E2F" transform="translate(561.375,351.8125)" />
<path d="M0 0 C2.751 -0.275 5.232 -0.789 7.891 -1.52 C15.476 -3.247 21.207 -1.948 27.969 1.711 C30 3 30 3 32 5 C34.029 5.606 36.074 6.162 38.125 6.688 C45.863 8.99 50.65 12.328 55 19.125 C55.99 21.972 56.263 24.014 56 27 C56.804 27.34 56.804 27.34 57.625 27.688 C62.78 30.536 66.324 33.374 68.422 38.984 C69.322 42.124 69.888 45.31 70.461 48.523 C70.971 50.867 71.687 52.863 72.625 55.062 C75.223 61.649 74.529 67.383 71.789 73.758 C70.488 77.454 70.113 81.293 69.625 85.168 C68.757 89.102 67.432 91.955 64.133 94.363 C60.3 96.175 57.351 97.544 53 97 C52.986 97.557 52.972 98.114 52.957 98.688 C52.571 104.858 51.16 109.341 47 114 C40.755 119.12 35.989 121.145 27.938 121.125 C26.895 121.128 25.852 121.13 24.777 121.133 C22 121 22 121 19 120 C19.3 120.675 19.601 121.351 19.91 122.047 C20.29 122.939 20.671 123.831 21.062 124.75 C21.445 125.632 21.828 126.513 22.223 127.422 C23.053 130.175 23.18 131.396 22 134 C18.34 135.664 14.983 136.677 11 136 C9.129 133.909 7.694 132.019 6.188 129.688 C5.317 128.401 4.446 127.114 3.574 125.828 C3.144 125.183 2.714 124.538 2.271 123.873 C-0.16 120.291 -2.805 116.862 -5.406 113.402 C-6.999 111.001 -8.035 108.707 -9 106 C-9.557 105.974 -10.114 105.948 -10.688 105.922 C-20.547 105.189 -25.877 101.715 -32.336 94.316 C-34.778 90.917 -36 88.2 -36 84 C-37.062 84.035 -38.124 84.07 -39.219 84.105 C-53.147 84.427 -53.147 84.427 -60 81 C-61.011 80.587 -62.021 80.175 -63.062 79.75 C-69.453 75.943 -74.982 70.305 -77 63 C-77.406 58.633 -77.242 54.374 -77 50 C-76.968 48.84 -76.936 47.68 -76.902 46.484 C-76.619 40.11 -76.315 35.823 -72 31 C-71.484 30.402 -70.969 29.804 -70.438 29.188 C-69 28 -69 28 -66 27 C-64.821 24.907 -64.821 24.907 -63.812 22.375 C-59.993 14.406 -53.795 9.746 -45.91 5.98 C-41.206 4.396 -36.384 4.103 -31.465 3.602 C-28.103 3.018 -26.581 2.41 -23.938 0.375 C-17.145 -4.686 -7.425 -2.559 0 0 Z " fill="#7DC8CA" transform="translate(390,521)" />
<path d="M0 0 C3.685 2.023 4.307 1.845 8.188 0.75 C10.754 -0.235 13.263 -1.318 15.785 -2.41 C18.188 -3.25 18.188 -3.25 22.188 -3.25 C23.052 2.369 20.82 5.433 17.793 9.895 C16.188 11.75 16.188 11.75 13.188 12.75 C13.188 13.41 13.188 14.07 13.188 14.75 C11.859 16.125 11.859 16.125 9.938 17.75 C9.218 18.365 8.499 18.98 7.758 19.613 C5.866 21.186 3.966 22.744 2.055 24.293 C1.519 24.731 0.983 25.168 0.431 25.619 C-1.132 26.892 -2.703 28.155 -4.273 29.418 C-7.627 32.498 -8.636 34.203 -9.148 38.703 C-9.234 45.919 -8.702 50.622 -4.812 56.75 C-3.746 58.046 -3.746 58.046 -1.25 57.812 C-0.446 57.792 0.359 57.771 1.188 57.75 C1.452 54.66 1.473 53.166 -0.312 50.562 C-2.582 46.307 -2.813 42.458 -1.812 37.75 C0.034 34.807 2.472 32.882 5.188 30.75 C21.241 17.904 21.241 17.904 30.188 -0.25 C30.518 -1.24 30.847 -2.23 31.188 -3.25 C39.439 -2.851 46.374 -0.763 52.562 4.938 C56.707 12.11 60.251 20.359 59.188 28.75 C57.298 34.624 54.28 38.355 49.188 41.75 C43.811 43.88 38.874 43.982 33.188 43.75 C32.857 42.76 32.528 41.77 32.188 40.75 C29.123 38.421 25.814 38.317 22.09 38.449 C19.998 38.661 19.998 38.661 17.75 40.188 C15.525 43.836 14.963 47.493 15.188 51.75 C16.148 54.13 16.735 55.419 18.812 56.938 C22.241 58.11 25.583 58.39 29.188 58.75 C28.857 59.74 28.528 60.73 28.188 61.75 C25.878 61.75 23.567 61.75 21.188 61.75 C22.507 62.41 23.827 63.07 25.188 63.75 C24.528 64.41 23.868 65.07 23.188 65.75 C22.528 65.42 21.868 65.09 21.188 64.75 C16.228 65.684 14.4 67.56 11.434 71.506 C7.599 76.23 3.777 79.234 -2.281 80.441 C-11.776 81.303 -21.311 81.003 -30.83 80.698 C-37.036 80.506 -43.242 80.398 -49.45 80.34 C-51.602 80.305 -53.748 80.224 -55.898 80.138 C-64.443 79.948 -64.443 79.948 -71.612 84.11 C-72.719 85.287 -73.792 86.497 -74.812 87.75 C-75.596 88.637 -76.38 89.524 -77.188 90.438 C-78.634 92.496 -79.72 94.494 -80.812 96.75 C-85.745 97.107 -89.445 96.823 -93.422 93.703 C-95.953 91.109 -98.38 88.437 -100.812 85.75 C-102.866 83.869 -104.965 82.071 -107.102 80.285 C-108.812 78.75 -108.812 78.75 -111 75.875 C-115.65 72.362 -121.135 72.841 -126.812 72.75 C-127.369 64.334 -126.807 58.472 -121.27 51.926 C-118.154 48.867 -116.258 47.828 -111.875 47.062 C-102.883 47.856 -95.958 55.854 -89.812 61.75 C-89.239 62.5 -88.665 63.25 -88.074 64.022 C-84.744 68.049 -82.329 70.419 -77.125 71.555 C-73.568 71.865 -70.039 71.835 -66.474 71.704 C-64.249 71.625 -62.033 71.622 -59.807 71.629 C-52.783 71.56 -47.167 71.28 -41.404 66.841 C-38.861 65.097 -36.611 65.365 -33.625 65.625 C-29.014 66 -26.481 65.722 -22.812 62.75 C-21.201 58.612 -21.365 54.772 -23.125 50.75 C-24.995 48.533 -25.947 47.869 -28.801 47.477 C-33.124 47.288 -35.182 47.303 -38.812 49.875 C-41.051 52.58 -41.051 52.58 -41.062 55.75 C-41.812 58.75 -41.812 58.75 -43.402 60.084 C-52.934 65.662 -63.647 66.104 -74.452 64.708 C-82.538 62.402 -87.507 55.684 -92.629 49.395 C-96.642 44.507 -100.984 42.058 -106.812 39.75 C-106.626 32.496 -101.718 27.599 -96.781 22.758 C-91.007 17.584 -85.1 13.494 -77.812 10.75 C-76.901 10.396 -75.99 10.041 -75.051 9.676 C-68.441 7.264 -62.84 6.19 -55.812 6.75 C-56.142 7.513 -56.472 8.276 -56.812 9.062 C-58.152 14.002 -57.975 18.665 -57.812 23.75 C-55.832 23.75 -53.853 23.75 -51.812 23.75 C-51.715 22.953 -51.617 22.157 -51.516 21.336 C-50.189 11.932 -47.466 6.465 -40.133 0.363 C-28.246 -7.901 -12.148 -7.524 0 0 Z " fill="#EDA4A6" transform="translate(559.8125,360.25)" />
<path d="M0 0 C5.318 0.322 8.55 3.204 12 7 C16.944 14.328 19.131 21.134 18 30 C15.12 38.187 9.951 41.917 2.562 45.812 C1.294 46.4 1.294 46.4 0 47 C0 48.65 0 50.3 0 52 C5.948 51.681 9.46 50.487 14.336 47.059 C16 46 16 46 18 46 C18.268 45.381 18.536 44.762 18.812 44.125 C20 42 20 42 23 40 C23.648 41.27 24.294 42.541 24.938 43.812 C25.477 44.874 25.477 44.874 26.027 45.957 C29.285 52.799 29.122 61.898 27.141 69.141 C26.19 71.496 25.179 73.751 24 76 C23.67 76.66 23.34 77.32 23 78 C22.34 78 21.68 78 21 78 C21.159 78.695 21.317 79.39 21.48 80.105 C22.817 87.554 23.313 95.659 19.34 102.348 C16.081 106.366 12.114 109.092 7 110 C5.002 110.117 3.001 110.175 1 110.188 C-0.031 110.202 -1.062 110.216 -2.125 110.23 C-4.965 110.003 -6.591 109.465 -9 108 C-7.744 104.231 -6.34 103.92 -3 102 C-1.716 99.431 -1.67 97.234 -1.438 94.375 C-1.312 92.871 -1.312 92.871 -1.184 91.336 C-1.123 90.565 -1.062 89.794 -1 89 C-0.01 89 0.98 89 2 89 C2 88.34 2 87.68 2 87 C2.474 86.608 2.949 86.216 3.438 85.812 C5.843 83.023 5.875 80.617 6 77 C4.412 73.426 3.284 72.189 0 70 C-3.045 69.518 -5.953 69.537 -9 70 C-11.502 71.876 -12.619 73.239 -14 76 C-14.413 80.648 -13.79 83.244 -11 87 C-10.34 87.33 -9.68 87.66 -9 88 C-9 90.97 -9 93.94 -9 97 C-10.65 97.66 -12.3 98.32 -14 99 C-14 99.66 -14 100.32 -14 101 C-18.645 105.083 -24.224 104.474 -30.062 104.562 C-46.943 105.093 -61.635 107.475 -75.613 117.539 C-80.968 120.817 -88.605 124.431 -94.922 123.629 C-95.608 123.421 -96.293 123.214 -97 123 C-97 122.67 -97 122.34 -97 122 C-95.879 121.836 -95.879 121.836 -94.734 121.668 C-93.75 121.509 -92.765 121.351 -91.75 121.188 C-90.775 121.037 -89.801 120.886 -88.797 120.73 C-85.843 119.959 -84.399 118.809 -82 117 C-80.68 117 -79.36 117 -78 117 C-78 116.34 -78 115.68 -78 115 C-75 113 -75 113 -72 113 C-72.33 112.01 -72.66 111.02 -73 110 C-74.65 109.67 -76.3 109.34 -78 109 C-78.268 109.619 -78.536 110.237 -78.812 110.875 C-80 113 -80 113 -83 115 C-83.33 114.34 -83.66 113.68 -84 113 C-85.856 112.969 -85.856 112.969 -87.75 112.938 C-90.636 112.652 -91.671 112.365 -93.641 110.184 C-96.392 105.511 -98.034 101.479 -97 96 C-95.182 93.04 -93.159 90.58 -90 89 C-88.478 89.109 -86.957 89.237 -85.438 89.375 C-78.938 89.46 -75.538 86.323 -71 82 C-70.471 81.502 -69.943 81.005 -69.398 80.492 C-68.236 79.357 -67.114 78.182 -66 77 C-64 75 -64 75 -60.113 74.867 C-58.957 74.872 -58.957 74.872 -57.777 74.878 C-50.262 74.914 -50.262 74.914 -43.254 72.582 C-40.248 69.551 -39.105 67.25 -38.746 62.977 C-38.79 60.884 -38.874 58.792 -39 56.703 C-39 54 -39 54 -37.312 51.062 C-36.549 50.382 -35.786 49.701 -35 49 C-33.763 47.67 -33.763 47.67 -32.5 46.312 C-30.341 44.316 -28.692 43.097 -26 42 C-26 41.01 -26 40.02 -26 39 C-25.227 38.648 -24.453 38.296 -23.656 37.934 C-15.568 34.1 -5.727 29.148 -2.309 20.188 C-1.707 15.923 -2.046 11.607 -2.16 7.312 C-2.009 4.191 -1.653 2.593 0 0 Z " fill="#E78789" transform="translate(662,410)" />
<path d="M0 0 C2.751 -0.275 5.232 -0.789 7.891 -1.52 C15.476 -3.247 21.207 -1.948 27.969 1.711 C30 3 30 3 32 5 C34.029 5.606 36.074 6.162 38.125 6.688 C45.863 8.99 50.65 12.328 55 19.125 C55.99 21.972 56.263 24.014 56 27 C56.804 27.34 56.804 27.34 57.625 27.688 C62.78 30.536 66.324 33.374 68.422 38.984 C69.322 42.124 69.888 45.31 70.461 48.523 C70.971 50.867 71.687 52.863 72.625 55.062 C75.223 61.649 74.529 67.383 71.789 73.758 C70.488 77.454 70.113 81.293 69.625 85.168 C68.757 89.102 67.432 91.955 64.133 94.363 C60.3 96.175 57.351 97.544 53 97 C52.986 97.557 52.972 98.114 52.957 98.688 C52.571 104.858 51.16 109.341 47 114 C40.755 119.12 35.989 121.145 27.938 121.125 C26.895 121.128 25.852 121.13 24.777 121.133 C22 121 22 121 19 120 C19.3 120.675 19.601 121.351 19.91 122.047 C20.29 122.939 20.671 123.831 21.062 124.75 C21.445 125.632 21.828 126.513 22.223 127.422 C23.053 130.175 23.18 131.396 22 134 C18.34 135.664 14.983 136.677 11 136 C9.129 133.909 7.694 132.019 6.188 129.688 C5.317 128.401 4.446 127.114 3.574 125.828 C3.144 125.183 2.714 124.538 2.271 123.873 C-0.16 120.291 -2.805 116.862 -5.406 113.402 C-6.999 111.001 -8.035 108.707 -9 106 C-9.557 105.974 -10.114 105.948 -10.688 105.922 C-20.547 105.189 -25.877 101.715 -32.336 94.316 C-34.778 90.917 -36 88.2 -36 84 C-37.062 84.035 -38.124 84.07 -39.219 84.105 C-53.147 84.427 -53.147 84.427 -60 81 C-61.011 80.587 -62.021 80.175 -63.062 79.75 C-69.453 75.943 -74.982 70.305 -77 63 C-77.406 58.633 -77.242 54.374 -77 50 C-76.968 48.84 -76.936 47.68 -76.902 46.484 C-76.619 40.11 -76.315 35.823 -72 31 C-71.484 30.402 -70.969 29.804 -70.438 29.188 C-69 28 -69 28 -66 27 C-64.821 24.907 -64.821 24.907 -63.812 22.375 C-59.993 14.406 -53.795 9.746 -45.91 5.98 C-41.206 4.396 -36.384 4.103 -31.465 3.602 C-28.103 3.018 -26.581 2.41 -23.938 0.375 C-17.145 -4.686 -7.425 -2.559 0 0 Z M-25.812 7.125 C-28.673 10.884 -29.327 14.393 -30 19 C-31.32 19 -32.64 19 -34 19 C-33.34 15.7 -32.68 12.4 -32 9 C-40.147 8.246 -45.883 10.864 -52.344 15.785 C-55.384 18.379 -57.772 20.659 -60 24 C-60 25.32 -60 26.64 -60 28 C-59.01 28.495 -58.02 28.99 -57 29.5 C-53.695 31.303 -51.932 33.306 -49.625 36.25 C-46.17 39.91 -43.415 40.552 -38.568 40.749 C-37.421 40.75 -37.421 40.75 -36.25 40.75 C-35.132 40.754 -35.132 40.754 -33.991 40.759 C-30.484 40.618 -28.371 40.285 -25.562 38.125 C-23.88 35.837 -22.896 33.688 -22 31 C-15.125 32.875 -15.125 32.875 -14 34 C-13.812 36.938 -13.812 36.938 -14 40 C-14.66 40.66 -15.32 41.32 -16 42 C-17.977 42 -19.956 41.995 -21.93 41.875 C-24.044 41.859 -24.044 41.859 -25.854 42.985 C-29.574 44.745 -33.446 44.41 -37.5 44.438 C-38.355 44.47 -39.209 44.503 -40.09 44.537 C-42.494 44.558 -44.647 44.498 -47 44 C-49.32 41.711 -49.32 41.711 -51 39 C-54.727 35.496 -58.205 32.414 -63.25 31.25 C-66.956 32.261 -68.57 34.084 -71 37 C-72.478 39.957 -72.06 42.742 -72 46 C-70.824 46.021 -69.649 46.041 -68.438 46.062 C-62.94 46.731 -60.53 50.046 -57 54 C-54.354 56.614 -52.056 58.723 -48.375 59.688 C-44.743 58.636 -43.863 56.168 -42 53 C-40.621 51.321 -40.621 51.321 -39 50 C-36.072 49.753 -33.346 49.679 -30.422 49.734 C-28.686 49.732 -26.951 49.728 -25.215 49.723 C-22.485 49.731 -19.756 49.75 -17.026 49.791 C-6.798 50.343 -6.798 50.343 2.689 47.428 C4.564 45.603 4.564 45.603 5.87 43.603 C7 42 7 42 10 41 C8.919 46.046 6.932 48.564 3.069 51.741 C-0.533 53.933 -3.957 53.756 -8.074 53.629 C-8.92 53.631 -9.767 53.633 -10.639 53.635 C-13.323 53.639 -16.004 53.605 -18.688 53.562 C-21.382 53.526 -24.074 53.498 -26.769 53.501 C-28.439 53.503 -30.11 53.482 -31.78 53.435 C-35.76 53.436 -37.55 53.564 -40.464 56.386 C-41.742 58.562 -42.975 60.695 -44 63 C-50.779 63.11 -54.353 61.527 -59.227 56.855 C-60.725 55.288 -62.18 53.679 -63.625 52.062 C-65.897 49.686 -65.897 49.686 -69.312 49.688 C-70.643 49.842 -70.643 49.842 -72 50 C-73.615 53.231 -73.449 56.497 -73 60 C-70.193 67.927 -65.591 73.338 -58 77 C-56.237 77.866 -56.237 77.866 -54.438 78.75 C-48.561 80.903 -42.155 80.233 -36 80 C-35.67 78.824 -35.34 77.649 -35 76.438 C-32.525 69.885 -27.671 66.292 -21.512 63.312 C-15.955 61.343 -10.322 61.677 -4.5 61.812 C-2.837 61.833 -2.837 61.833 -1.141 61.854 C1.573 61.889 4.286 61.938 7 62 C7 61.34 7 60.68 7 60 C8.32 59.34 9.64 58.68 11 58 C11 57.34 11 56.68 11 56 C11.66 56 12.32 56 13 56 C13.33 53.36 13.66 50.72 14 48 C20.625 47.75 20.625 47.75 24 50 C24.312 52.5 24.312 52.5 24 55 C22 57 22 57 18.812 57.688 C15.389 58.536 14.179 59.822 12.035 62.57 C9.741 64.947 8.518 65.905 5.239 66.508 C2.011 66.545 -1.155 66.413 -4.375 66.188 C-13.204 65.658 -20.393 65.59 -27.619 71.273 C-31.553 75.302 -31.869 79.656 -32 85 C-28.114 87.113 -25.465 87.539 -21 87 C-17.169 84.832 -15.524 83.642 -14.184 79.441 C-13.681 76.962 -13.283 74.513 -13 72 C-11.721 71.938 -10.442 71.876 -9.125 71.812 C-8.046 71.76 -8.046 71.76 -6.945 71.707 C-6.303 71.804 -5.661 71.9 -5 72 C-3 75 -3 75 -3.375 77.688 C-3.581 78.451 -3.788 79.214 -4 80 C-7.465 80.99 -7.465 80.99 -11 82 C-11.082 82.619 -11.165 83.237 -11.25 83.875 C-12 86 -12 86 -13.875 87.125 C-14.576 87.414 -15.278 87.702 -16 88 C-16.99 88.66 -17.98 89.32 -19 90 C-21.262 90.414 -21.262 90.414 -23.688 90.625 C-24.9 90.737 -24.9 90.737 -26.137 90.852 C-26.752 90.901 -27.366 90.95 -28 91 C-26.614 94.351 -25.224 95.834 -22.125 97.688 C-21.108 98.312 -21.108 98.312 -20.07 98.949 C-12.965 102.556 -2.487 102.13 5.133 100.211 C8.341 98.956 11.12 97.697 13.828 95.551 C20.718 90.631 27.511 90.379 35.705 90.004 C41.8 89.57 44.701 88.391 49 84 C48.691 83.278 48.381 82.556 48.062 81.812 C47.048 79.128 46.226 76.862 46 74 C47.062 72.125 47.062 72.125 49 71 C52.188 71.312 52.188 71.312 55 72 C55.688 74.812 55.688 74.812 56 78 C54.687 79.5 54.687 79.5 53 81 C52.505 82.485 52.505 82.485 52 84 C51.01 86.969 50.237 87.966 48 90 C48 90.66 48 91.32 48 92 C56.054 92.603 56.054 92.603 63 89 C63 88.34 63 87.68 63 87 C63.66 87 64.32 87 65 87 C66.555 83.89 65.964 80.736 65.84 77.312 C66 75 66 75 68 73 C69.613 67.838 70.183 60.7 67.988 55.691 C67.662 55.133 67.336 54.575 67 54 C66.112 54.632 66.112 54.632 65.207 55.277 C64.022 56.099 64.022 56.099 62.812 56.938 C62.035 57.483 61.258 58.028 60.457 58.59 C57.92 60.046 55.878 60.596 53 61 C54.1 57.809 54.828 57.084 57.938 55.562 C61.514 53.738 62.518 52.705 64 49 C64.545 44.095 64.564 42.031 62.188 37.688 C59.798 34.632 59.798 34.632 57 32 C56.01 32 55.02 32 54 32 C53.963 32.736 53.925 33.472 53.887 34.23 C53.454 40.657 53.051 45.058 48.25 49.688 C45.298 51.409 42.302 52.175 39 53 C38.598 51.608 38.598 51.608 38.188 50.188 C36.819 46.491 36.819 46.491 34 44 C30.9 42.8 30.9 42.8 28 42 C28.33 41.01 28.66 40.02 29 39 C34.394 39.376 36.47 40.992 40 45 C40.994 46.006 41.993 47.007 43 48 C45.614 46.22 47.971 44.44 50 42 C49.924 38.385 49.924 38.385 49 35 C49.639 33.653 50.308 32.321 51 31 C51.816 26.354 51.595 22.239 49.062 18.188 C45.946 14.356 41.752 12.21 37 11 C36.01 11.33 35.02 11.66 34 12 C34.495 12.495 34.495 12.495 35 13 C35.794 19.796 35.218 24.561 31 30 C27.682 32.212 25.327 32.955 21.375 33.5 C18.001 33.705 18.001 33.705 15.938 35.688 C15.298 36.121 14.659 36.554 14 37 C10.75 36.188 10.75 36.188 8 35 C8 32.69 8 30.38 8 28 C14.625 26.75 14.625 26.75 18 29 C22.445 29.319 25.993 28.762 29.562 26.062 C32.135 20.583 31.694 15.343 30 9.625 C27.305 6.088 24.207 4.373 20 3 C18.68 3 17.36 3 16 3 C15.732 4.279 15.464 5.558 15.188 6.875 C12.954 13.739 7.348 17.506 2 22 C-1.312 24.83 -1.312 24.83 -2.375 28.875 C-1.983 32.143 -1.169 34.93 0 38 C-1.32 38 -2.64 38 -4 38 C-5.762 33.484 -6.679 29.838 -6 25 C-2.883 19.678 2.165 16.269 7.008 12.633 C9.387 10.683 10.815 8.843 12 6 C12 5.01 12 4.02 12 3 C10.175 3.495 10.175 3.495 8.312 4 C5.109 4.784 2.308 5.447 -1 5 C-2.083 4.258 -2.083 4.258 -3.188 3.5 C-10.847 -0.585 -19.255 2.17 -25.812 7.125 Z " fill="#29373B" transform="translate(390,521)" />
<path d="M0 0 C0.66 -0.33 1.32 -0.66 2 -1 C8.726 -1.738 12.51 -1.117 18 3 C19.675 3.657 21.364 4.28 23.062 4.875 C27.96 6.756 30.194 8.565 33 13 C33.341 14.665 33.676 16.332 34 18 C35.324 18.685 36.659 19.349 38 20 C41.499 24.299 42.396 27.562 43 33 C43.351 33.66 43.701 34.32 44.062 35 C46.862 40.971 44.661 49.934 43 56 C40.387 59.701 39.065 60.739 34.688 61.812 C33.357 61.905 33.357 61.905 32 62 C32.103 62.681 32.206 63.361 32.312 64.062 C31.858 68.333 29.887 70.899 27 74 C21.932 77.653 16.996 77.32 11 77 C11.495 80.96 11.495 80.96 12 85 C9.36 85.33 6.72 85.66 4 86 C2.748 84.293 1.499 82.584 0.25 80.875 C-0.49 79.871 -1.23 78.867 -1.992 77.832 C-4 75 -4 75 -5.875 71.562 C-8.669 68.194 -11.533 67.434 -15.59 66 C-20.049 64.15 -22.393 60.91 -25 57 C-25 56.01 -25 55.02 -25 54 C-25.629 54.035 -26.258 54.07 -26.906 54.105 C-34.13 54.334 -39.271 53.331 -45.5 49.438 C-45.995 48.963 -46.49 48.489 -47 48 C-47 47.34 -47 46.68 -47 46 C-47.66 46 -48.32 46 -49 46 C-51.864 41.227 -52.399 37.442 -52 32 C-51.981 31.314 -51.961 30.628 -51.941 29.922 C-51.588 24.315 -49.881 21.786 -46 18 C-45.34 18 -44.68 18 -44 18 C-43.888 17.412 -43.776 16.824 -43.66 16.219 C-42.124 11.055 -37.893 7.202 -33.25 4.688 C-29.384 2.94 -25.475 2.144 -21.297 1.492 C-18.981 1.103 -18.981 1.103 -17.012 -0.043 C-11.953 -2.449 -5.289 -1.157 0 0 Z " fill="#EABC6B" transform="translate(277,607)" />
<path d="M0 0 C2.939 1.308 3.831 2.397 6 5 C7.465 9.105 7.434 12.007 5.688 16 C5.131 16.66 4.574 17.32 4 18 C3.34 18 2.68 18 2 18 C2 18.66 2 19.32 2 20 C1.01 20 0.02 20 -1 20 C-0.942 20.736 -0.884 21.472 -0.824 22.23 C-0.452 30.289 -0.452 30.289 -3.312 34 C-4.199 34.66 -5.086 35.32 -6 36 C-6.598 36.598 -7.196 37.196 -7.812 37.812 C-8.204 38.204 -8.596 38.596 -9 39 C-2.857 40.818 4.852 41.198 10.875 38.812 C14.318 36.816 17.05 34.662 20 32 C20 33.98 20 35.96 20 38 C19.278 38.247 18.556 38.495 17.812 38.75 C14.753 40.11 12.533 41.829 10 44 C10.33 44.99 10.66 45.98 11 47 C7.911 49.059 7.291 49.239 3.812 49.125 C2.554 49.084 1.296 49.043 0 49 C0.046 49.678 0.093 50.356 0.141 51.055 C0.559 61.832 -2.796 70.016 -10 78 C-14.781 82.85 -19.67 86.468 -26 89 C-26.737 89.299 -27.475 89.598 -28.234 89.906 C-38.914 93.676 -50.147 92.481 -61 90 C-60.814 90.784 -60.629 91.567 -60.438 92.375 C-60 95 -60 95 -61 97 C-61.99 97 -62.98 97 -64 97 C-65.514 101.845 -64.366 105.259 -63 110 C-66.371 111.498 -68.204 112 -72 112 C-72.33 110.68 -72.66 109.36 -73 108 C-73.66 108 -74.32 108 -75 108 C-76.086 106.41 -76.086 106.41 -77.375 104.062 C-80.816 98.103 -84.764 92.564 -88.773 86.979 C-91.341 83.392 -93.756 79.802 -96 76 C-96.474 75.526 -96.949 75.051 -97.438 74.562 C-99.709 72.291 -101.318 69.726 -103 67 C-103 66.34 -103 65.68 -103 65 C-97.555 64.505 -97.555 64.505 -92 64 C-92 63.34 -92 62.68 -92 62 C-93.32 61.67 -94.64 61.34 -96 61 C-95.34 60.01 -94.68 59.02 -94 58 C-93.34 58 -92.68 58 -92 58 C-92 57.34 -92 56.68 -92 56 C-89.03 55.505 -89.03 55.505 -86 55 C-85.67 54.01 -85.34 53.02 -85 52 C-83.066 50.824 -83.066 50.824 -80.562 49.688 C-76.95 47.986 -73.604 46.164 -70.25 44 C-56.51 35.626 -42.764 34.888 -27.176 34.482 C-26.195 34.448 -25.214 34.414 -24.203 34.379 C-23.323 34.354 -22.443 34.329 -21.536 34.303 C-18.751 33.97 -16.55 33.145 -14 32 C-14 31.34 -14 30.68 -14 30 C-12.35 29.34 -10.7 28.68 -9 28 C-9 25.03 -9 22.06 -9 19 C-10.32 18.34 -11.64 17.68 -13 17 C-15.306 13.772 -15.397 10.886 -15 7 C-11.704 0.093 -7.191 -1.164 0 0 Z " fill="#2D2D2E" transform="translate(662,479)" />
<path d="M0 0 C3.685 2.023 4.307 1.845 8.188 0.75 C10.754 -0.235 13.263 -1.318 15.785 -2.41 C18.188 -3.25 18.188 -3.25 22.188 -3.25 C23.052 2.369 20.82 5.433 17.793 9.895 C16.188 11.75 16.188 11.75 13.188 12.75 C13.188 13.41 13.188 14.07 13.188 14.75 C11.859 16.125 11.859 16.125 9.938 17.75 C9.217 18.365 8.496 18.98 7.754 19.613 C5.871 21.181 3.984 22.74 2.09 24.293 C1.558 24.731 1.027 25.168 0.479 25.619 C-1.068 26.891 -2.622 28.154 -4.176 29.418 C-6.437 31.418 -8.135 33.26 -9.812 35.75 C-10.143 34.1 -10.472 32.45 -10.812 30.75 C-11.803 30.75 -12.793 30.75 -13.812 30.75 C-14.143 31.74 -14.472 32.73 -14.812 33.75 C-15.803 30.78 -15.803 30.78 -16.812 27.75 C-21.937 27.379 -25.53 27.752 -29.668 30.973 C-34.285 35.447 -34.285 35.447 -37.812 40.75 C-36.493 41.41 -35.173 42.07 -33.812 42.75 C-34.803 43.245 -34.803 43.245 -35.812 43.75 C-33.844 45.718 -30.464 45.412 -27.812 45.75 C-27.812 46.08 -27.812 46.41 -27.812 46.75 C-28.843 46.897 -28.843 46.897 -29.895 47.047 C-30.796 47.196 -31.697 47.346 -32.625 47.5 C-33.518 47.639 -34.412 47.778 -35.332 47.922 C-38.366 48.935 -39.261 49.991 -40.812 52.75 C-40.854 53.719 -40.895 54.689 -40.938 55.688 C-41.958 59.258 -42.476 59.541 -45.562 61.348 C-55.02 66.278 -67.657 66.646 -77.812 63.75 C-83.871 60.032 -88.183 54.853 -92.629 49.395 C-96.642 44.507 -100.984 42.058 -106.812 39.75 C-106.626 32.496 -101.718 27.599 -96.781 22.758 C-91.007 17.584 -85.1 13.494 -77.812 10.75 C-76.901 10.396 -75.99 10.041 -75.051 9.676 C-68.441 7.264 -62.84 6.19 -55.812 6.75 C-56.142 7.513 -56.472 8.276 -56.812 9.062 C-58.152 14.002 -57.975 18.665 -57.812 23.75 C-55.832 23.75 -53.853 23.75 -51.812 23.75 C-51.715 22.953 -51.617 22.157 -51.516 21.336 C-50.189 11.932 -47.466 6.465 -40.133 0.363 C-28.246 -7.901 -12.148 -7.524 0 0 Z " fill="#EBA5A5" transform="translate(559.8125,360.25)" />
<path d="M0 0 C0.99 1.98 0.99 1.98 2 4 C1.34 4.66 0.68 5.32 0 6 C1.98 6.495 1.98 6.495 4 7 C3.67 6.01 3.34 5.02 3 4 C4.98 4 6.96 4 9 4 C9.75 6.188 9.75 6.188 10 9 C9.072 10.083 9.072 10.083 8.125 11.188 C5.74 14.345 5.852 14.99 5.875 18.75 C5.687 22.446 5.23 23.736 2.758 26.578 C0.959 28.158 -0.876 29.697 -2.75 31.188 C-5.075 32.803 -5.075 32.803 -6 35 C-7.687 35.027 -9.375 35.047 -11.062 35.062 C-12.472 35.08 -12.472 35.08 -13.91 35.098 C-17 35 -17 35 -20.375 34.516 C-37.083 32.139 -53.084 34.386 -67.219 43.867 C-74.521 49.467 -78.13 55.313 -81 64 C-81.495 65.485 -81.495 65.485 -82 67 C-86.25 67.118 -90.499 67.188 -94.75 67.25 C-95.937 67.284 -97.124 67.317 -98.348 67.352 C-113.632 67.519 -127.71 61.815 -138.926 51.344 C-146.593 42.68 -150.374 33.313 -150.203 21.859 C-149.975 18.65 -149.308 15.942 -148 13 C-144.478 12.3 -141.517 12.212 -138 13 C-133.013 16.705 -129.174 21.6 -125.119 26.271 C-117.745 34.308 -111.489 36.491 -100.749 37.221 C-99.388 37.112 -99.388 37.112 -98 37 C-96.27 34.87 -95.118 33.139 -93.875 30.75 C-89.525 22.801 -89.525 22.801 -86 20 C-82.98 19.555 -82.98 19.555 -79.402 19.629 C-78.748 19.636 -78.094 19.643 -77.42 19.651 C-76.001 19.668 -74.583 19.694 -73.165 19.728 C-70.91 19.778 -68.656 19.797 -66.4 19.806 C-59.988 19.836 -53.577 19.9 -47.166 20.037 C-43.238 20.119 -39.312 20.146 -35.383 20.14 C-33.897 20.148 -32.411 20.176 -30.925 20.226 C-23.547 20.467 -17.576 20.159 -11.811 15.179 C-9.413 12.884 -7.205 10.483 -5 8 C-4.247 7.269 -3.495 6.539 -2.719 5.786 C-0.85 3.845 -0.376 2.634 0 0 Z " fill="#EEA4A6" transform="translate(581,428)" />
<path d="M0 0 C1.258 0.041 2.516 0.082 3.812 0.125 C3.812 0.785 3.812 1.445 3.812 2.125 C4.617 2.414 5.421 2.702 6.25 3 C8.812 4.125 8.812 4.125 9.812 6.125 C9.933 7.621 9.988 9.124 10 10.625 C10.014 11.419 10.028 12.213 10.043 13.031 C9.812 15.125 9.812 15.125 7.812 17.125 C7.17 19.194 7.17 19.194 6.812 21.125 C7.803 20.795 8.793 20.465 9.812 20.125 C9.812 20.785 9.812 21.445 9.812 22.125 C9.153 22.455 8.493 22.785 7.812 23.125 C7.977 23.888 8.143 24.651 8.312 25.438 C8.812 28.125 8.812 28.125 8.812 31.125 C9.803 29.64 9.803 29.64 10.812 28.125 C11.308 32.58 11.308 32.58 11.812 37.125 C12.803 36.135 12.803 36.135 13.812 35.125 C14.493 36.332 14.493 36.332 15.188 37.562 C16.56 40.214 16.56 40.214 18.812 41.125 C18.812 44.095 18.812 47.065 18.812 50.125 C17.163 50.785 15.513 51.445 13.812 52.125 C13.812 52.785 13.812 53.445 13.812 54.125 C9.168 58.208 3.588 57.599 -2.25 57.688 C-19.131 58.218 -33.823 60.6 -47.801 70.664 C-53.155 73.942 -60.792 77.556 -67.109 76.754 C-67.795 76.546 -68.481 76.339 -69.188 76.125 C-69.188 75.795 -69.188 75.465 -69.188 75.125 C-68.066 74.961 -68.066 74.961 -66.922 74.793 C-65.937 74.634 -64.952 74.476 -63.938 74.312 C-62.963 74.162 -61.988 74.011 -60.984 73.855 C-58.03 73.084 -56.587 71.934 -54.188 70.125 C-52.867 70.125 -51.548 70.125 -50.188 70.125 C-50.188 69.465 -50.188 68.805 -50.188 68.125 C-47.188 66.125 -47.188 66.125 -44.188 66.125 C-44.518 65.135 -44.847 64.145 -45.188 63.125 C-46.837 62.795 -48.487 62.465 -50.188 62.125 C-50.456 62.744 -50.724 63.362 -51 64 C-52.188 66.125 -52.188 66.125 -55.188 68.125 C-55.518 67.465 -55.847 66.805 -56.188 66.125 C-58.044 66.094 -58.044 66.094 -59.938 66.062 C-62.823 65.777 -63.858 65.49 -65.828 63.309 C-68.58 58.636 -70.221 54.604 -69.188 49.125 C-67.37 46.165 -65.347 43.705 -62.188 42.125 C-60.665 42.234 -59.145 42.362 -57.625 42.5 C-51.126 42.585 -47.726 39.448 -43.188 35.125 C-42.659 34.627 -42.13 34.13 -41.586 33.617 C-40.424 32.482 -39.302 31.307 -38.188 30.125 C-36.188 28.125 -36.188 28.125 -32.301 27.992 C-31.144 27.997 -31.144 27.997 -29.964 28.003 C-22.449 28.039 -22.449 28.039 -15.441 25.707 C-12.435 22.676 -11.292 20.375 -10.934 16.102 C-10.977 14.013 -11.064 11.925 -11.195 9.84 C-11.188 7.125 -11.188 7.125 -9.375 4 C-6.138 1.225 -4.249 -0.139 0 0 Z " fill="#E78688" transform="translate(634.1875,456.875)" />
<path d="M0 0 C4.631 0.8 6.214 3.311 9 7 C10.61 10.219 10.462 13.509 10 17 C7.524 22.048 4.987 23.673 0 26 C-0.495 27.485 -0.495 27.485 -1 29 C4.453 27.432 8.765 25.962 13 22 C15.657 26.576 15.417 30.837 15 36 C14.062 39.312 14.062 39.312 13 42 C12.285 44.861 12 47.225 12 50.188 C12 53 12 53 11 55 C10.34 55 9.68 55 9 55 C8.732 55.639 8.464 56.279 8.188 56.938 C7 59 7 59 4 60 C2.272 60.068 0.542 60.085 -1.188 60.062 C-2.089 60.053 -2.99 60.044 -3.918 60.035 C-4.605 60.024 -5.292 60.012 -6 60 C-6 59.34 -6 58.68 -6 58 C-5.381 57.423 -4.762 56.845 -4.125 56.25 C-1.648 53.627 -1.039 51.413 0 48 C0.99 47.01 0.99 47.01 2 46 C1.678 42.901 1.678 42.901 1 40 C-3.095 38.858 -3.095 38.858 -6.938 40.125 C-8.224 41.987 -8.224 41.987 -7.812 44.375 C-7.004 46.986 -6.076 49.488 -5 52 C-10.034 57.133 -13.718 57.721 -20.75 58 C-28.63 58.542 -34.217 59.813 -41 64 C-42.655 64.775 -44.322 65.526 -46 66.25 C-48.025 67.132 -50.024 68.012 -52 69 C-62.168 69.605 -71.094 69.984 -79.5 63.438 C-80.325 62.633 -81.15 61.829 -82 61 C-82 60.34 -82 59.68 -82 59 C-81.408 58.974 -80.817 58.948 -80.207 58.922 C-74.852 58.538 -72.035 57.791 -68 54 C-67.34 54 -66.68 54 -66 54 C-65.67 52.68 -65.34 51.36 -65 50 C-62.69 49.34 -60.38 48.68 -58 48 C-57.67 46.02 -57.34 44.04 -57 42 C-56.461 41.864 -55.922 41.728 -55.367 41.589 C-52.889 40.961 -50.413 40.324 -47.938 39.688 C-46.666 39.367 -46.666 39.367 -45.369 39.041 C-40.332 37.738 -35.721 36.188 -31 34 C-30.099 33.589 -29.198 33.178 -28.27 32.754 C-23.854 30.613 -20.253 28.774 -17 25 C-16.01 24.34 -15.02 23.68 -14 23 C-14.66 23 -15.32 23 -16 23 C-15.67 21.68 -15.34 20.36 -15 19 C-15 19.66 -15 20.32 -15 21 C-9.362 19.184 -5.925 17.639 -2 13 C-0.716 10.431 -0.67 8.234 -0.438 5.375 C-0.312 3.871 -0.312 3.871 -0.184 2.336 C-0.123 1.565 -0.062 0.794 0 0 Z " fill="#3E8D90" transform="translate(444,553)" />
<path d="M0 0 C0.914 0.313 1.828 0.626 2.77 0.949 C5.52 0.674 8.002 0.16 10.66 -0.57 C18.245 -2.298 23.977 -0.999 30.738 2.66 C32.77 3.949 32.77 3.949 34.77 5.949 C36.799 6.556 38.843 7.111 40.895 7.637 C48.633 9.939 53.419 13.277 57.77 20.074 C58.76 22.921 59.033 24.963 58.77 27.949 C59.306 28.176 59.842 28.403 60.395 28.637 C65.55 31.486 69.094 34.323 71.191 39.934 C72.092 43.073 72.658 46.26 73.23 49.473 C73.74 51.816 74.457 53.812 75.395 56.012 C77.992 62.598 77.298 68.332 74.559 74.707 C73.258 78.403 72.882 82.242 72.395 86.117 C71.526 90.052 70.201 92.904 66.902 95.312 C63.07 97.124 60.12 98.493 55.77 97.949 C55.713 98.854 55.713 98.854 55.656 99.777 C55.003 107.715 55.003 107.715 51.77 110.949 C49.661 107.476 49.661 107.476 50.211 104.809 C50.395 104.195 50.58 103.581 50.77 102.949 C49.491 102.984 48.212 103.019 46.895 103.055 C45.186 103.083 43.478 103.11 41.77 103.137 C40.93 103.162 40.091 103.187 39.227 103.213 C33.366 103.281 29.138 102.317 23.77 99.949 C23.77 99.289 23.77 98.629 23.77 97.949 C20.648 99.258 20.648 99.258 18.77 101.949 C28.789 107.085 37.632 108.649 48.77 108.949 C47.78 109.444 47.78 109.444 46.77 109.949 C46.44 110.609 46.11 111.269 45.77 111.949 C43.081 112.031 40.396 112.09 37.707 112.137 C36.955 112.162 36.203 112.187 35.428 112.213 C30.071 112.282 26.56 111.353 21.77 108.949 C20.697 108.475 19.625 108 18.52 107.512 C15.741 105.933 14.437 104.635 12.77 101.949 C14.09 101.949 15.41 101.949 16.77 101.949 C16.44 101.619 16.11 101.289 15.77 100.949 C13.912 101.039 12.057 101.195 10.207 101.387 C8.689 101.539 8.689 101.539 7.141 101.695 C6.358 101.779 5.576 101.863 4.77 101.949 C6.815 99.904 8.144 99.239 10.77 98.137 C13.256 97.091 15.584 96.063 17.883 94.648 C24.565 90.625 31.081 90.131 38.726 89.757 C43.968 89.435 46.927 88.887 50.77 84.949 C50.46 84.227 50.151 83.505 49.832 82.762 C47.909 77.672 47.909 77.672 47.77 74.949 C49.332 72.574 49.332 72.574 51.77 70.949 C54.895 71.012 54.895 71.012 57.77 71.949 C59.77 74.949 59.77 74.949 59.52 77.512 C58.77 79.949 58.77 79.949 56.77 81.949 C56.09 83.945 55.424 85.945 54.77 87.949 C54.11 88.939 53.45 89.929 52.77 90.949 C52.11 90.949 51.45 90.949 50.77 90.949 C50.77 91.609 50.77 92.269 50.77 92.949 C52.897 92.695 55.021 92.42 57.145 92.137 C58.328 91.986 59.511 91.835 60.73 91.68 C64.065 91.242 64.065 91.242 65.77 87.949 C66.43 87.949 67.09 87.949 67.77 87.949 C67.746 87.106 67.723 86.263 67.699 85.395 C67.681 84.299 67.663 83.203 67.645 82.074 C67.621 80.984 67.598 79.893 67.574 78.77 C67.77 75.949 67.77 75.949 69.77 73.949 C71.242 69.236 71.258 63.839 70.77 58.949 C70.11 57.959 69.45 56.969 68.77 55.949 C67.924 56.754 67.078 57.558 66.207 58.387 C62.918 61.166 60.083 61.69 55.77 61.949 C55.832 60.199 55.832 60.199 56.77 57.949 C58.537 56.921 60.308 55.895 62.113 54.934 C63.89 54.005 63.89 54.005 65.207 52.199 C66.507 46.999 66.485 43.354 64.082 38.637 C61.805 35.99 59.873 34.501 56.77 32.949 C56.816 33.674 56.862 34.398 56.91 35.145 C57.14 41.307 57.088 45.151 52.77 49.949 C49.48 53.239 46.316 53.512 41.77 53.949 C38.77 48.199 38.77 48.199 38.77 45.949 C37.821 45.64 36.872 45.33 35.895 45.012 C32.77 43.949 32.77 43.949 30.77 42.949 C31.1 41.629 31.43 40.309 31.77 38.949 C36.661 39.404 39.203 40.575 42.77 43.949 C44.582 46.199 44.582 46.199 45.77 47.949 C49.073 45.748 49.073 45.748 51.77 42.949 C51.605 39.383 51.605 39.383 50.77 35.949 C51.413 34.605 52.082 33.272 52.77 31.949 C53.475 27.435 53.153 23.833 51.332 19.637 C47.948 16.087 44.326 14.604 39.77 12.949 C39.44 13.279 39.11 13.609 38.77 13.949 C38.829 15.471 38.917 16.992 39.02 18.512 C39.068 24.153 37.569 27.79 33.77 31.949 C30.426 34.202 28.137 34.899 24.145 35.449 C20.77 35.654 20.77 35.654 18.707 37.637 C18.068 38.07 17.428 38.503 16.77 38.949 C11.539 37.718 11.539 37.718 9.77 35.949 C9.52 32.512 9.52 32.512 9.77 28.949 C12.77 26.949 12.77 26.949 16.395 27.262 C19.77 27.949 19.77 27.949 20.77 28.949 C22.809 29.001 22.809 29.001 25.145 28.762 C26.332 28.679 26.332 28.679 27.543 28.594 C29.892 28.105 29.892 28.105 31.539 26.207 C34.065 21.573 33.147 16.12 32.27 11.074 C29.204 6.732 23.801 5.077 18.77 3.949 C18.749 4.939 18.728 5.929 18.707 6.949 C17.824 13.021 13.159 17.034 8.562 20.719 C7.181 21.742 5.785 22.745 4.371 23.723 C2.624 24.875 2.624 24.875 1.77 26.949 C1.582 31.084 1.996 34.889 2.77 38.949 C1.45 38.949 0.13 38.949 -1.23 38.949 C-3.887 34.41 -5.136 31.2 -4.23 25.949 C-1.173 21.129 2.956 17.725 7.52 14.387 C11.685 11.307 13.262 8.874 14.77 3.949 C12.944 4.692 12.944 4.692 11.082 5.449 C7.825 6.654 5.27 7.517 1.77 6.949 C1.048 6.454 0.326 5.959 -0.418 5.449 C-5.085 2.96 -10.215 3.161 -15.293 4.488 C-19.048 5.961 -21.846 7.713 -24.23 10.949 C-25.415 13.901 -26.367 16.889 -27.23 19.949 C-28.55 19.949 -29.87 19.949 -31.23 19.949 C-31.117 18.469 -30.989 16.99 -30.855 15.512 C-30.786 14.688 -30.716 13.864 -30.645 13.016 C-30.508 12.334 -30.371 11.652 -30.23 10.949 C-29.57 10.619 -28.91 10.289 -28.23 9.949 C-30.705 8.959 -30.705 8.959 -33.23 7.949 C-33.23 7.289 -33.23 6.629 -33.23 5.949 C-32.261 5.908 -31.292 5.867 -30.293 5.824 C-26.763 5.367 -24.929 4.084 -22.168 1.887 C-15.697 -2.75 -7.38 -2.401 0 0 Z " fill="#29373A" transform="translate(387.23046875,520.05078125)" />
<path d="M0 0 C0.66 -0.33 1.32 -0.66 2 -1 C8.726 -1.738 12.51 -1.117 18 3 C19.675 3.657 21.364 4.28 23.062 4.875 C27.96 6.756 30.194 8.565 33 13 C33.341 14.665 33.676 16.332 34 18 C35.324 18.685 36.659 19.349 38 20 C41.499 24.299 42.396 27.562 43 33 C43.351 33.66 43.701 34.32 44.062 35 C46.862 40.971 44.661 49.934 43 56 C40.387 59.701 39.065 60.739 34.688 61.812 C33.357 61.905 33.357 61.905 32 62 C32.103 62.681 32.206 63.361 32.312 64.062 C31.858 68.333 29.887 70.899 27 74 C21.932 77.653 16.996 77.32 11 77 C11.495 80.96 11.495 80.96 12 85 C9.36 85.33 6.72 85.66 4 86 C2.748 84.293 1.499 82.584 0.25 80.875 C-0.49 79.871 -1.23 78.867 -1.992 77.832 C-4 75 -4 75 -5.875 71.562 C-8.669 68.194 -11.533 67.434 -15.59 66 C-20.049 64.15 -22.393 60.91 -25 57 C-25 56.01 -25 55.02 -25 54 C-25.629 54.035 -26.258 54.07 -26.906 54.105 C-34.13 54.334 -39.271 53.331 -45.5 49.438 C-45.995 48.963 -46.49 48.489 -47 48 C-47 47.34 -47 46.68 -47 46 C-47.66 46 -48.32 46 -49 46 C-51.864 41.227 -52.399 37.442 -52 32 C-51.981 31.314 -51.961 30.628 -51.941 29.922 C-51.588 24.315 -49.881 21.786 -46 18 C-45.34 18 -44.68 18 -44 18 C-43.888 17.412 -43.776 16.824 -43.66 16.219 C-42.124 11.055 -37.893 7.202 -33.25 4.688 C-29.384 2.94 -25.475 2.144 -21.297 1.492 C-18.981 1.103 -18.981 1.103 -17.012 -0.043 C-11.953 -2.449 -5.289 -1.157 0 0 Z M-19 5 C-21.037 8.007 -21 9.191 -21 13 C-21.99 13 -22.98 13 -24 13 C-24 10.69 -24 8.38 -24 6 C-29.607 6.421 -33.667 8.547 -38 12 C-39.993 14.616 -39.993 14.616 -41 17 C-40.01 17.33 -39.02 17.66 -38 18 C-37.711 18.598 -37.423 19.196 -37.125 19.812 C-35.488 22.995 -34.138 24.207 -31 26 C-27.297 26.439 -23.697 26.512 -20 26 C-19.34 25.34 -18.68 24.68 -18 24 C-18 23.01 -18 22.02 -18 21 C-16.02 21.33 -14.04 21.66 -12 22 C-12.495 24.475 -12.495 24.475 -13 27 C-19.549 28.218 -26.396 29.067 -33 28 C-35.283 26.392 -36.815 24.726 -38.578 22.574 C-39.974 20.735 -39.974 20.735 -42.75 20.312 C-45.108 20.853 -45.108 20.853 -46.812 22.688 C-48.176 25.342 -48.245 27.056 -48 30 C-46.422 30.309 -46.422 30.309 -44.812 30.625 C-41.67 31.487 -40.269 32.533 -38.312 35.125 C-37.549 36.074 -36.786 37.023 -36 38 C-34.68 38 -33.36 38 -32 38 C-31.012 36.78 -31.012 36.78 -30.004 35.535 C-25.392 31.643 -20.784 32.371 -14.938 32.438 C-12.78 32.454 -10.622 32.454 -8.465 32.434 C-7.512 32.444 -6.559 32.455 -5.578 32.467 C-2.268 31.868 -1.219 30.447 1 28 C1.99 27.67 2.98 27.34 4 27 C2.664 31.007 1.699 31.888 -2 34 C-7.312 34.655 -12.663 34.458 -18.006 34.4 C-24.435 34.189 -24.435 34.189 -29.543 37.516 C-30.024 38.335 -30.505 39.155 -31 40 C-34.75 40.312 -34.75 40.312 -38 40 C-38.34 39.134 -38.34 39.134 -38.688 38.25 C-40.36 35.383 -42.272 33.863 -45 32 C-45.99 32 -46.98 32 -48 32 C-49.187 36.056 -49.134 37.7 -47.375 41.625 C-44.354 46.327 -40.434 49.551 -35 51 C-31.659 51.154 -28.341 51.117 -25 51 C-24.67 49.928 -24.34 48.855 -24 47.75 C-22.394 44.177 -20.449 42.328 -16.793 40.695 C-12.236 39.561 -7.588 39.497 -2.904 39.502 C1.465 39.499 1.465 39.499 4.938 37.109 C5.288 36.413 5.639 35.717 6 35 C6.392 34.258 6.784 33.515 7.188 32.75 C7.456 32.173 7.724 31.595 8 31 C9.32 31.33 10.64 31.66 12 32 C12 33.32 12 34.64 12 36 C10.35 36.66 8.7 37.32 7 38 C7 38.66 7 39.32 7 40 C2.558 41.481 -2.016 41.355 -6.664 41.518 C-11.981 41.764 -15.914 42.478 -20.312 45.688 C-22.62 48.85 -22.294 51.183 -22 55 C-17.545 54.505 -17.545 54.505 -13 54 C-11.53 50.089 -11.53 50.089 -11 46 C-8.03 45.505 -8.03 45.505 -5 45 C-5 46.98 -5 48.96 -5 51 C-6.758 51.977 -8.516 52.953 -10.273 53.93 C-12.161 55.009 -12.161 55.009 -14 57 C-15.988 57.398 -17.989 57.738 -20 58 C-17.454 61.524 -17.454 61.524 -14 64 C-4.654 64.63 1.694 64.208 9.688 59.375 C13.908 57.623 17.757 57.497 22.293 57.309 C25.219 57.184 25.219 57.184 28 55 C28.364 52.793 28.364 52.793 28.188 50.375 C28.16 49.558 28.133 48.74 28.105 47.898 C28.053 46.959 28.053 46.959 28 46 C28.99 45.67 29.98 45.34 31 45 C31.66 45.33 32.32 45.66 33 46 C33.57 50.844 31.75 53.133 29 57 C29 57.66 29 58.32 29 59 C32.332 59.418 32.332 59.418 36 59 C38.924 56.46 39.849 54.63 40.75 50.875 C41.07 45.91 41.081 40.974 41 36 C39.68 36.33 38.36 36.66 37 37 C37 37.66 37 38.32 37 39 C35.35 39.33 33.7 39.66 32 40 C33 37 33 37 36.125 34.75 C37.074 33.842 38.022 32.935 39 32 C39.082 27.351 38.149 24.422 35 21 C33.515 21.495 33.515 21.495 32 22 C31.856 23.093 31.711 24.186 31.562 25.312 C31 29 31 29 30 32 C28.152 32.73 28.152 32.73 25.938 33.188 C25.204 33.346 24.471 33.505 23.715 33.668 C23.149 33.778 22.583 33.887 22 34 C21.773 33.381 21.546 32.763 21.312 32.125 C19.621 29.386 18.008 28.95 15 28 C15.33 27.34 15.66 26.68 16 26 C19.242 26.35 20.615 26.562 22.812 29.062 C23.204 29.702 23.596 30.341 24 31 C26.016 30.284 26.016 30.284 28 29 C28.762 27.118 28.762 27.118 29 25 C29.278 24.103 29.278 24.103 29.562 23.188 C30.209 19.953 30.347 17.295 30 14 C27.593 10.836 26.023 9.295 22.188 8.188 C21.466 8.126 20.744 8.064 20 8 C20.041 9.072 20.082 10.145 20.125 11.25 C20.01 14.686 19.93 16.258 18 19 C13.347 22.102 8.585 23.338 3 23 C3.33 21.35 3.66 19.7 4 18 C4.675 18.119 5.351 18.237 6.047 18.359 C11.571 19.269 11.571 19.269 16.688 17.5 C18.596 13.865 18.162 11.895 17 8 C14.853 4.935 14.853 4.935 12 3 C9.807 2.59 9.807 2.59 8 4 C7.381 5.33 7.381 5.33 6.75 6.688 C4.952 10.09 3.952 10.925 0.875 13 C-2.493 15.345 -2.493 15.345 -4.062 19.188 C-4.137 22.082 -4.137 22.082 -3 25 C-4.5 23.875 -4.5 23.875 -6 22 C-6.402 19.172 -6.402 19.172 -6 16 C-3.848 13.586 -3.848 13.586 -1.062 11.375 C2.625 8.602 2.625 8.602 4.816 4.727 C4.907 3.872 4.907 3.872 5 3 C3.144 3.309 3.144 3.309 1.25 3.625 C-2.306 4.08 -3.85 3.727 -7 2 C-11.973 1.548 -15.053 1.843 -19 5 Z " fill="#423521" transform="translate(277,607)" />
<path d="M0 0 C0.99 0.495 0.99 0.495 2 1 C2.777 7.376 2.971 12.792 -0.875 18.188 C-5.209 22.552 -9.396 22.708 -15.25 22.812 C-16.439 22.783 -16.439 22.783 -17.652 22.753 C-22.439 22.55 -22.439 22.55 -26.422 25.012 C-26.943 25.668 -27.463 26.324 -28 27 C-28.66 27 -29.32 27 -30 27 C-30.495 28.485 -30.495 28.485 -31 30 C-34.275 33.484 -37.777 36.737 -42.645 37.312 C-44.352 37.231 -46.058 37.123 -47.762 36.988 C-50.28 36.808 -50.28 36.808 -53.062 38.875 C-55.495 41.543 -55.95 42.5 -56.312 46.125 C-55.94 50.748 -55.317 54.582 -52 58 C-49.303 58.759 -46.942 58.936 -44.145 58.965 C-42 59 -42 59 -41 60 C-40.629 59.34 -40.257 58.68 -39.875 58 C-38 56 -38 56 -34.812 55.75 C-33.884 55.832 -32.956 55.915 -32 56 C-32 57.32 -32 58.64 -32 60 C-33.98 60.66 -35.96 61.32 -38 62 C-38 62.66 -38 63.32 -38 64 C-40.331 65.006 -42.664 66.005 -45 67 C-45.866 67.371 -46.732 67.743 -47.625 68.125 C-50 69 -50 69 -52.688 69.5 C-55.182 69.821 -55.182 69.821 -57 72 C-67.751 75.584 -82.811 73.114 -92.836 68.242 C-95.963 66.614 -98.997 64.848 -102 63 C-102 62.34 -102 61.68 -102 61 C-102.577 60.753 -103.155 60.505 -103.75 60.25 C-106.329 58.817 -108.061 57.216 -110 55 C-110 54.34 -110 53.68 -110 53 C-108.686 52.974 -107.373 52.948 -106.02 52.922 C-104.284 52.866 -102.548 52.808 -100.812 52.75 C-99.516 52.729 -99.516 52.729 -98.193 52.707 C-92.874 52.503 -89.844 52.021 -86 48 C-84.313 46.017 -82.646 44.017 -81 42 C-77.34 37.527 -74.625 36.317 -69.086 35.457 C-66.709 35.069 -66.709 35.069 -64 33 C-63.206 30.815 -63.206 30.815 -62.812 28.375 C-62.575 27.149 -62.575 27.149 -62.332 25.898 C-62.222 25.272 -62.113 24.645 -62 24 C-57.426 22.475 -53.04 21.715 -48.25 21.125 C-41.717 20.249 -36.088 18.445 -30 16 C-28.948 15.691 -27.896 15.381 -26.812 15.062 C-23.521 13.819 -20.828 12.076 -17.883 10.172 C-14.101 7.818 -10.36 6.747 -6 6 C-6 5.34 -6 4.68 -6 4 C-3 2 -3 2 0 2 C0 1.34 0 0.68 0 0 Z " fill="#E88689" transform="translate(622,463)" />
<path d="M0 0 C1.98 0 3.96 0 6 0 C6 0.66 6 1.32 6 2 C6.944 1.896 6.944 1.896 7.906 1.789 C14.166 1.393 17.093 2.27 21.832 6.281 C36.003 17.516 54.704 18.77 72 20 C69.778 23.93 67.665 26.326 64 29 C64.99 29.99 64.99 29.99 66 31 C66 31.66 66 32.32 66 33 C54.448 37.472 42.912 36.723 31 34 C31.186 34.784 31.371 35.567 31.562 36.375 C32 39 32 39 31 41 C30.01 41 29.02 41 28 41 C26.486 45.845 27.634 49.259 29 54 C25.629 55.498 23.796 56 20 56 C19.67 54.68 19.34 53.36 19 52 C18.34 52 17.68 52 17 52 C15.914 50.41 15.914 50.41 14.625 48.062 C11.184 42.103 7.236 36.564 3.227 30.979 C0.659 27.392 -1.756 23.802 -4 20 C-4.474 19.526 -4.949 19.051 -5.438 18.562 C-7.709 16.291 -9.318 13.726 -11 11 C-11 10.34 -11 9.68 -11 9 C-5.555 8.505 -5.555 8.505 0 8 C0 7.34 0 6.68 0 6 C-1.32 5.67 -2.64 5.34 -4 5 C-3.34 4.01 -2.68 3.02 -2 2 C-1.34 2 -0.68 2 0 2 C0 1.34 0 0.68 0 0 Z " fill="#2D2F30" transform="translate(570,535)" />
<path d="M0 0 C1.68 0.977 3.349 1.974 5 3 C8.481 2.824 8.481 2.824 12 2 C13.134 1.814 14.269 1.629 15.438 1.438 C16.706 1.221 16.706 1.221 18 1 C17.575 5.815 15.376 8.735 12 12 C9.736 13.827 7.439 15.579 5.086 17.289 C0.856 20.759 -0.398 23.605 -1.188 29 C-1.425 30.547 -1.425 30.547 -1.668 32.125 C-2.076 35.18 -2.076 35.18 -2 39 C-2.495 39.99 -2.495 39.99 -3 41 C-2.34 41 -1.68 41 -1 41 C-1 41.66 -1 42.32 -1 43 C-3.917 44.984 -5.124 44.988 -8.75 44.625 C-9.822 44.419 -10.895 44.212 -12 44 C-10.68 43.34 -9.36 42.68 -8 42 C-7.919 40.376 -7.861 38.75 -7.812 37.125 C-7.778 36.22 -7.743 35.315 -7.707 34.383 C-7.804 33.596 -7.9 32.81 -8 32 C-10.918 30.055 -12.625 29.547 -16 29 C-16.248 29.742 -16.495 30.485 -16.75 31.25 C-18.187 34.412 -19.244 35.872 -22 38 C-24.914 38.543 -27.27 38.808 -30.188 38.812 C-30.949 38.815 -31.711 38.818 -32.495 38.822 C-37.729 38.604 -40.462 37.605 -44.188 33.688 C-44.85 32.868 -45.513 32.048 -46.195 31.203 C-48.535 28.347 -50.607 27.305 -54 26 C-53.677 20.665 -50.804 17.461 -47 14 C-41.607 10.257 -36.54 6.827 -29.812 6.938 C-27.925 6.968 -27.925 6.968 -26 7 C-26.66 10.3 -27.32 13.6 -28 17 C-26.68 17 -25.36 17 -24 17 C-23.914 16.408 -23.827 15.817 -23.738 15.207 C-22.754 9.672 -21.662 6.522 -17 3 C-11.452 -0.155 -6.26 -0.845 0 0 Z " fill="#689D9F" transform="translate(384,523)" />
<path d="M0 0 C0.403 4.108 0.418 6.338 -1.812 9.875 C-5.261 12.174 -6.44 12.244 -10.438 12.375 C-14.489 12.463 -14.489 12.463 -17.766 14.57 C-18.702 15.841 -19.622 17.123 -20.523 18.418 C-23.158 21.241 -26.294 20.812 -30 21 C-31.366 23.732 -31.128 25.982 -31 29 C-29.816 30.416 -29.816 30.416 -26.438 30.062 C-24.736 30.032 -24.736 30.032 -23 30 C-22.608 28.969 -22.216 27.938 -21.812 26.875 C-19.958 22.531 -17.343 18.171 -13 16 C-11.212 15.796 -9.419 15.635 -7.625 15.5 C-2.718 15.217 -2.718 15.217 2 14 C2.33 13.01 2.66 12.02 3 11 C6.493 9.253 9.068 8 13 8 C12.907 9.856 12.907 9.856 12.812 11.75 C12.796 14.782 12.893 15.822 14.5 18.5 C14.995 18.995 15.49 19.49 16 20 C14.576 23.442 13.262 25.167 10 27 C6.809 27.541 3.604 27.688 0.375 27.875 C-7.513 28.491 -13.21 29.808 -20 34 C-21.655 34.775 -23.322 35.526 -25 36.25 C-27.025 37.132 -29.024 38.012 -31 39 C-41.168 39.605 -50.094 39.984 -58.5 33.438 C-59.325 32.633 -60.15 31.829 -61 31 C-61 30.34 -61 29.68 -61 29 C-60.408 28.974 -59.817 28.948 -59.207 28.922 C-53.852 28.538 -51.035 27.791 -47 24 C-46.34 24 -45.68 24 -45 24 C-44.67 22.68 -44.34 21.36 -44 20 C-41.69 19.34 -39.38 18.68 -37 18 C-36.67 16.02 -36.34 14.04 -36 12 C-35.461 11.864 -34.922 11.728 -34.367 11.589 C-31.889 10.961 -29.413 10.324 -26.938 9.688 C-26.09 9.474 -25.242 9.261 -24.369 9.041 C-19.332 7.738 -14.724 6.18 -10 4 C-9.136 3.615 -8.273 3.229 -7.383 2.832 C-5.862 2.145 -4.341 1.458 -2.82 0.77 C-1 0 -1 0 0 0 Z " fill="#4BB0B5" transform="translate(423,583)" />
<path d="M0 0 C1.258 0.041 2.516 0.082 3.812 0.125 C3.812 0.785 3.812 1.445 3.812 2.125 C4.617 2.414 5.421 2.702 6.25 3 C8.812 4.125 8.812 4.125 9.812 6.125 C10.329 10.431 10.36 14.006 8.438 17.938 C5.829 20.111 4.216 20.755 1.062 21.812 C-5.391 24.113 -8.337 28.707 -12.188 34.125 C-14.188 36.125 -14.188 36.125 -16 36.285 C-16.722 36.253 -17.444 36.221 -18.188 36.188 C-27.82 35.832 -27.82 35.832 -36.527 39.305 C-38.937 41.805 -41.052 44.391 -43.188 47.125 C-43.912 47.635 -44.636 48.146 -45.383 48.672 C-47.683 50.524 -47.766 51.618 -48.125 54.5 C-48.769 57.872 -49.282 59.261 -51.312 62.188 C-54.373 64.25 -56.482 64.853 -60.188 64.621 C-63.808 63.723 -65.631 61.807 -68.188 59.125 C-69.405 55.472 -69.578 52.967 -69.188 49.125 C-67.411 46.149 -65.332 43.697 -62.188 42.125 C-60.665 42.234 -59.145 42.362 -57.625 42.5 C-51.126 42.585 -47.726 39.448 -43.188 35.125 C-42.659 34.627 -42.13 34.13 -41.586 33.617 C-40.424 32.482 -39.302 31.307 -38.188 30.125 C-36.188 28.125 -36.188 28.125 -32.301 27.992 C-31.144 27.997 -31.144 27.997 -29.964 28.003 C-22.449 28.039 -22.449 28.039 -15.441 25.707 C-12.435 22.676 -11.292 20.375 -10.934 16.102 C-10.977 14.013 -11.064 11.925 -11.195 9.84 C-11.188 7.125 -11.188 7.125 -9.375 4 C-6.138 1.225 -4.249 -0.139 0 0 Z " fill="#3F3031" transform="translate(634.1875,456.875)" />
<path d="M0 0 C0.99 0 1.98 0 3 0 C3 0.66 3 1.32 3 2 C9.063 3.726 14.712 4.393 21 4.625 C21.87 4.664 22.74 4.702 23.637 4.742 C25.758 4.835 27.879 4.919 30 5 C29.979 5.908 29.959 6.815 29.938 7.75 C29.989 10.427 30.222 12.47 31 15 C23.334 22.402 17.279 24.367 6.637 24.203 C4 24 4 24 1 23 C1.3 23.675 1.601 24.351 1.91 25.047 C2.29 25.939 2.671 26.831 3.062 27.75 C3.637 29.073 3.637 29.073 4.223 30.422 C5.053 33.175 5.18 34.396 4 37 C0.34 38.664 -3.017 39.677 -7 39 C-8.871 36.909 -10.306 35.019 -11.812 32.688 C-12.684 31.401 -13.557 30.114 -14.43 28.828 C-14.86 28.183 -15.29 27.538 -15.733 26.873 C-17.56 24.172 -19.498 21.558 -21.438 18.938 C-23.298 16.416 -25.005 13.991 -26.535 11.254 C-27.862 8.7 -27.862 8.7 -31 8 C-31 7.34 -31 6.68 -31 6 C-28.435 4.718 -26.189 4.577 -23.336 4.246 C-21.654 4.048 -21.654 4.048 -19.938 3.846 C-18.762 3.711 -17.586 3.576 -16.375 3.438 C-15.192 3.299 -14.008 3.16 -12.789 3.018 C-9.86 2.675 -6.93 2.336 -4 2 C-4 2.66 -4 3.32 -4 4 C-4.99 4.33 -5.98 4.66 -7 5 C-4.609 7.768 -2.412 8.759 1 10 C2.029 10.51 3.057 11.021 4.117 11.547 C8.38 13.383 12.294 13.376 16.875 13.25 C18.031 13.242 18.031 13.242 19.211 13.234 C22.909 13.514 22.909 13.514 26 12 C25.201 11.986 24.402 11.972 23.578 11.957 C14.022 11.542 6.008 9.339 -2 4 C-1.34 2.68 -0.68 1.36 0 0 Z " fill="#46494A" transform="translate(408,618)" />
<path d="M0 0 C0.495 0.99 0.495 0.99 1 2 C-4.168 4.057 -8.892 4.415 -14.375 4.625 C-15.206 4.664 -16.038 4.702 -16.895 4.742 C-18.929 4.836 -20.965 4.919 -23 5 C-23 5.66 -23 6.32 -23 7 C-18.38 6.67 -13.76 6.34 -9 6 C-9 6.66 -9 7.32 -9 8 C-8.072 7.536 -8.072 7.536 -7.125 7.062 C-5.75 6.375 -4.375 5.688 -3 5 C-3 5.66 -3 6.32 -3 7 C-1.02 7 0.96 7 3 7 C3.33 6.34 3.66 5.68 4 5 C4.681 5.99 4.681 5.99 5.375 7 C5.911 7.66 6.447 8.32 7 9 C7.66 9 8.32 9 9 9 C7.823 20.475 1.405 29.026 -6.977 36.461 C-9 38 -9 38 -11 38 C-10.67 37.01 -10.34 36.02 -10 35 C-9.01 35 -8.02 35 -7 35 C-6.34 33.35 -5.68 31.7 -5 30 C-4.34 30 -3.68 30 -3 30 C-3 29.34 -3 28.68 -3 28 C-2.34 28 -1.68 28 -1 28 C-1.66 25.69 -2.32 23.38 -3 21 C-3.623 21.016 -4.247 21.031 -4.889 21.048 C-25.357 21.495 -42.55 19.745 -60 8 C-58.227 4.164 -58.227 4.164 -56.188 2.688 C-52.633 1.57 -49.879 2.563 -46.605 4.191 C-45.808 4.644 -45.01 5.096 -44.188 5.562 C-39.375 8.041 -36.369 8.637 -31 8 C-28.118 7.118 -28.118 7.118 -26 6 C-26 5.01 -26 4.02 -26 3 C-26.736 2.879 -27.472 2.758 -28.23 2.633 C-29.206 2.465 -30.182 2.298 -31.188 2.125 C-32.15 1.963 -33.113 1.8 -34.105 1.633 C-36.91 1.02 -39.372 0.143 -42 -1 C-33.908 -9.092 -9.249 -4.566 0 0 Z " fill="#454A4A" transform="translate(653,526)" />
<path d="M0 0 C4.121 1.779 6.294 3.83 8 8 C8 12.217 7.449 14.368 5 17.812 C2.01 19.993 1.299 20.214 -2.125 20.625 C-8.234 21.621 -11.728 26.226 -15.715 30.566 C-18.17 33.181 -18.907 33.949 -22.43 34.114 C-23.923 34.106 -23.923 34.106 -25.445 34.098 C-27.06 34.093 -27.06 34.093 -28.707 34.088 C-29.835 34.08 -30.963 34.071 -32.125 34.062 C-33.261 34.058 -34.396 34.053 -35.566 34.049 C-38.378 34.037 -41.189 34.021 -44 34 C-44.294 34.634 -44.588 35.268 -44.891 35.922 C-46.288 38.539 -47.203 39.068 -50 40 C-53.891 40.324 -56.784 40.329 -60 38 C-62.893 34.487 -63.576 31.372 -63.434 26.934 C-62.697 23.651 -60.534 22.039 -58 20 C-57.67 19.67 -57.34 19.34 -57 19 C-51.766 18.651 -48.186 18.448 -44 22 C-43.371 24.109 -43.371 24.109 -43 26 C-39.729 25.861 -36.458 25.713 -33.188 25.562 C-32.259 25.523 -31.33 25.484 -30.373 25.443 C-29.48 25.401 -28.588 25.36 -27.668 25.316 C-26.846 25.28 -26.024 25.243 -25.177 25.205 C-22.821 25.066 -22.821 25.066 -20 24 C-19.315 22.676 -18.651 21.341 -18 20 C-17.319 19.464 -16.639 18.928 -15.938 18.375 C-13.297 15.138 -13.586 12.484 -13.34 8.414 C-12.866 5.048 -11.442 3.294 -9 1 C-5.936 -0.532 -3.383 -0.229 0 0 Z " fill="#3D3232" transform="translate(540,367)" />
<path d="M0 0 C0.639 0.351 1.279 0.701 1.938 1.062 C5.323 2.601 8.388 1.602 12 1 C10.648 5.302 8.942 7.123 5.375 9.812 C2.051 12.505 2.051 12.505 0.41 16.293 C0.386 18.728 0.386 18.728 1 22 C0.01 22 -0.98 22 -2 22 C-2 22.99 -2 23.98 -2 25 C-0.02 25 1.96 25 4 25 C4 25.99 4 26.98 4 28 C-1.413 30.784 -7.111 30.325 -13.051 30.303 C-17.585 30.413 -19.381 30.465 -22.934 33.535 C-23.956 34.755 -23.956 34.755 -25 36 C-27.562 36.125 -27.562 36.125 -30 35 C-30.619 34.196 -31.238 33.391 -31.875 32.562 C-34.592 29.286 -36.913 28.864 -41 28 C-40.25 21.25 -40.25 21.25 -38 19 C-35.812 18.438 -35.812 18.438 -33 19 C-31.966 20.136 -30.97 21.308 -30 22.5 C-27.6 25.111 -26.457 25.926 -22.906 26.5 C-17.22 26.5 -11.591 26.04 -6 25 C-5.67 23.35 -5.34 21.7 -5 20 C-6.98 19.67 -8.96 19.34 -11 19 C-11.144 19.639 -11.289 20.279 -11.438 20.938 C-12 23 -12 23 -13 24 C-17.606 24.63 -22.13 25.039 -26.285 22.73 C-28.053 21.239 -29.601 19.842 -31 18 C-31 17.34 -31 16.68 -31 16 C-31.99 15.67 -32.98 15.34 -34 15 C-30.856 8.855 -26.386 6.409 -20 4 C-19.01 4 -18.02 4 -17 4 C-17 6.31 -17 8.62 -17 11 C-16.01 11 -15.02 11 -14 11 C-13.918 10.092 -13.835 9.185 -13.75 8.25 C-12.899 4.564 -11.882 3.358 -9 1 C-5.976 -0.512 -3.338 -0.173 0 0 Z " fill="#B89657" transform="translate(270,609)" />
<path d="M0 0 C0.33 0 0.66 0 1 0 C1.124 1.072 1.248 2.145 1.375 3.25 C1.765 6.813 1.765 6.813 3.062 9 C5.862 14.971 3.661 23.934 2 30 C-0.613 33.701 -1.935 34.739 -6.312 35.812 C-7.199 35.874 -8.086 35.936 -9 36 C-8.845 37.021 -8.845 37.021 -8.688 38.062 C-9.142 42.333 -11.113 44.899 -14 48 C-19.068 51.653 -24.004 51.32 -30 51 C-29.67 53.64 -29.34 56.28 -29 59 C-31.64 59.33 -34.28 59.66 -37 60 C-37.508 59.299 -38.016 58.597 -38.539 57.875 C-39.969 55.905 -41.402 53.937 -42.84 51.973 C-44.142 50.181 -45.43 48.379 -46.691 46.559 C-50.298 41.431 -50.298 41.431 -56 39 C-55.67 38.34 -55.34 37.68 -55 37 C-53.606 37.052 -53.606 37.052 -52.184 37.105 C-43.6 37.293 -38.63 36.799 -31.312 32.375 C-27.071 30.614 -23.167 30.449 -18.609 30.211 C-16.019 30.165 -16.019 30.165 -14 29 C-14 26.03 -14 23.06 -14 20 C-12.68 19.34 -11.36 18.68 -10 18 C-7 20 -7 20 -6.5 22.125 C-7.241 26.388 -9.559 29.487 -12 33 C-7.29 32.785 -7.29 32.785 -3.344 30.531 C-1.336 26.749 -1.172 22.973 -0.812 18.75 C-0.731 17.91 -0.649 17.069 -0.564 16.203 C-0.365 14.136 -0.181 12.068 0 10 C-0.66 10 -1.32 10 -2 10 C-1.34 6.7 -0.68 3.4 0 0 Z " fill="#423E3A" transform="translate(318,633)" />
<path d="M0 0 C3 1 3 1 4.688 3.25 C6.144 6.302 6.744 7.693 6 11 C4.059 12.735 2.057 14.405 0 16 C-0.495 17.485 -0.495 17.485 -1 19 C0.65 18.67 2.3 18.34 4 18 C4 17.34 4 16.68 4 16 C5.32 15.67 6.64 15.34 8 15 C8.561 31.687 8.561 31.687 4.656 36.738 C1.971 38.784 -0.753 38.184 -4 38 C-2 34 -2 34 -0.875 32.062 C0.174 29.589 0.148 27.66 0 25 C-1.946 24.409 -1.946 24.409 -4 24 C-4.495 24.495 -4.495 24.495 -5 25 C-4.991 27.297 -4.867 29.578 -4.742 31.871 C-4.827 32.574 -4.912 33.276 -5 34 C-8.38 36.253 -9.666 36.215 -13.625 36.312 C-19.035 36.66 -22.547 37.902 -27.062 40.844 C-32.857 44.302 -40.519 43.698 -47 43 C-49.847 41.631 -50.949 40.473 -53 38 C-53 37.67 -53 37.34 -53 37 C-51.948 36.753 -50.896 36.505 -49.812 36.25 C-46.161 35.227 -43.909 33.437 -41 31 C-38.688 30.25 -38.688 30.25 -37 30 C-36.67 30.99 -36.34 31.98 -36 33 C-35.01 32.34 -34.02 31.68 -33 31 C-30.312 30.875 -30.312 30.875 -28 31 C-27.763 30.376 -27.526 29.752 -27.281 29.109 C-25.651 26.425 -24.472 26.118 -21.5 25.25 C-20.706 25.008 -19.912 24.765 -19.094 24.516 C-17 24 -17 24 -15 24 C-14.34 21.69 -13.68 19.38 -13 17 C-11.68 16.67 -10.36 16.34 -9 16 C-9 15.34 -9 14.68 -9 14 C-9.66 13.67 -10.32 13.34 -11 13 C-8.36 12.34 -5.72 11.68 -3 11 C-2.867 10.29 -2.734 9.579 -2.598 8.848 C-2.421 7.929 -2.244 7.009 -2.062 6.062 C-1.888 5.146 -1.714 4.229 -1.535 3.285 C-1 1 -1 1 0 0 Z " fill="#E5A555" transform="translate(310,628)" />
<path d="M0 0 C2.939 1.308 3.831 2.397 6 5 C7.465 9.105 7.434 12.007 5.688 16 C5.131 16.66 4.574 17.32 4 18 C3.34 18 2.68 18 2 18 C2 18.66 2 19.32 2 20 C1.01 20 0.02 20 -1 20 C-0.942 20.736 -0.884 21.472 -0.824 22.23 C-0.452 30.289 -0.452 30.289 -3.312 34 C-4.199 34.66 -5.086 35.32 -6 36 C-6.598 36.598 -7.196 37.196 -7.812 37.812 C-8.204 38.204 -8.596 38.596 -9 39 C-8.01 39.495 -8.01 39.495 -7 40 C-8.98 40.495 -8.98 40.495 -11 41 C-11 40.01 -11 39.02 -11 38 C-11.99 37.67 -12.98 37.34 -14 37 C-14 36.34 -14 35.68 -14 35 C-14.634 35.133 -15.268 35.266 -15.922 35.402 C-22.63 36.672 -29.135 37.163 -35.938 37.375 C-50.206 37.901 -50.206 37.901 -62.312 44.75 C-62.869 45.492 -63.426 46.235 -64 47 C-67.875 45.25 -67.875 45.25 -69 43 C-54.853 36.854 -42.463 34.79 -27.008 34.428 C-25.567 34.387 -25.567 34.387 -24.098 34.344 C-23.237 34.325 -22.376 34.306 -21.489 34.287 C-18.719 33.968 -16.534 33.137 -14 32 C-14 31.34 -14 30.68 -14 30 C-12.35 29.34 -10.7 28.68 -9 28 C-9 25.03 -9 22.06 -9 19 C-10.32 18.34 -11.64 17.68 -13 17 C-15.306 13.772 -15.397 10.886 -15 7 C-11.704 0.093 -7.191 -1.164 0 0 Z " fill="#413130" transform="translate(662,479)" />
<path d="M0 0 C2.357 2.357 3.851 4.74 5.5 7.625 C7.073 10.116 8.644 11.294 11 13 C11 13.66 11 14.32 11 15 C11.722 15.268 12.444 15.536 13.188 15.812 C20.513 18.906 20.513 18.906 22.223 22.75 C22.5 23.822 22.777 24.895 23.062 26 C24.547 31.411 26.27 36.614 28.266 41.855 C29 44 29 44 29 46 C25.629 47.498 23.796 48 20 48 C19.67 46.68 19.34 45.36 19 44 C18.34 44 17.68 44 17 44 C15.914 42.41 15.914 42.41 14.625 40.062 C11.184 34.103 7.236 28.564 3.227 22.979 C0.659 19.392 -1.756 15.802 -4 12 C-4.474 11.526 -4.949 11.051 -5.438 10.562 C-7.709 8.291 -9.318 5.726 -11 3 C-11 2.34 -11 1.68 -11 1 C-7.251 0.118 -3.84 -0.49 0 0 Z " fill="#656D6C" transform="translate(570,543)" />
<path d="M0 0 C2.105 1.234 2.105 1.234 4.188 2.75 C19.838 13.492 36.493 15.684 55 17 C52.304 19.14 49.711 20.739 46.562 22.125 C45.821 22.458 45.08 22.79 44.316 23.133 C33.464 27.195 21.067 25.345 10.598 21.004 C3.138 17.215 -4.49 11.114 -9 4 C-9 3.01 -9 2.02 -9 1 C-5.6 -1.141 -3.825 -1.068 0 0 Z " fill="#666D6E" transform="translate(587,538)" />
<path d="M0 0 C1.887 0.031 1.887 0.031 3.812 0.062 C3.152 3.362 2.493 6.663 1.812 10.062 C-1.852 10.795 -5.501 11.462 -9.188 12.062 C-9.872 14.92 -9.872 14.92 -10.188 18.062 C-9.527 19.053 -8.868 20.043 -8.188 21.062 C-5.617 21.34 -3.516 21.138 -1 20.562 C3.257 19.806 7.5 19.987 11.812 20.062 C10.822 20.558 10.822 20.558 9.812 21.062 C10.091 21.898 10.091 21.898 10.375 22.75 C10.896 25.505 10.608 27.386 9.812 30.062 C4.661 32.638 -3.598 32.241 -9.188 31.062 C-12.225 29.079 -14.112 27.075 -16.383 24.266 C-18.723 21.409 -20.795 20.367 -24.188 19.062 C-23.864 13.728 -20.991 10.524 -17.188 7.062 C-11.794 3.319 -6.728 -0.11 0 0 Z " fill="#85CACA" transform="translate(354.1875,529.9375)" />
<path d="M0 0 C1.417 0.753 2.812 1.548 4.188 2.375 C17.359 9.127 35.715 9.717 50 7 C49.524 8.48 49.044 9.959 48.562 11.438 C48.296 12.261 48.029 13.085 47.754 13.934 C47 16 47 16 46 17 C25.724 20.589 6.078 16.495 -11 5 C-9.227 1.164 -9.227 1.164 -7.188 -0.312 C-4.384 -1.193 -2.828 -0.745 0 0 Z " fill="#676E6E" transform="translate(604,529)" />
<path d="M0 0 C3.146 0.016 6.281 -0.062 9.426 -0.16 C12 0 12 0 14 2 C8.033 3.326 2.074 3.088 -4 3 C-4 3.66 -4 4.32 -4 5 C0.96 5.943 5.845 6.302 10.875 6.562 C11.659 6.606 12.442 6.649 13.25 6.693 C15.167 6.799 17.083 6.9 19 7 C18.505 5.02 18.505 5.02 18 3 C19.32 3 20.64 3 22 3 C23.54 6.08 23.224 8.587 23 12 C22.177 14.468 21.149 16.655 20 19 C19.01 18.34 18.02 17.68 17 17 C17.33 15.02 17.66 13.04 18 11 C16.721 11.035 15.442 11.07 14.125 11.105 C12.417 11.134 10.708 11.161 9 11.188 C7.741 11.225 7.741 11.225 6.457 11.264 C0.596 11.332 -3.632 10.367 -9 8 C-9 7.34 -9 6.68 -9 6 C-12.122 7.309 -12.122 7.309 -14 10 C-3.981 15.136 4.862 16.699 16 17 C15.01 17.495 15.01 17.495 14 18 C13.67 18.66 13.34 19.32 13 20 C10.312 20.082 7.626 20.141 4.938 20.188 C4.185 20.213 3.433 20.238 2.658 20.264 C-2.699 20.333 -6.21 19.404 -11 17 C-12.072 16.526 -13.145 16.051 -14.25 15.562 C-17.028 13.984 -18.333 12.686 -20 10 C-18.68 10 -17.36 10 -16 10 C-16.33 9.67 -16.66 9.34 -17 9 C-18.858 9.09 -20.712 9.246 -22.562 9.438 C-23.574 9.539 -24.586 9.641 -25.629 9.746 C-26.803 9.872 -26.803 9.872 -28 10 C-25.955 7.955 -24.626 7.289 -22 6.188 C-18.498 4.701 -15.207 3.021 -11.875 1.188 C-7.373 -1.077 -4.99 -1.118 0 0 Z " fill="#293030" transform="translate(420,612)" />
<path d="M0 0 C0.639 0.351 1.279 0.701 1.938 1.062 C5.323 2.601 8.388 1.602 12 1 C10.659 6.533 6.448 9.784 2 13 C1.34 13 0.68 13 0 13 C-0.495 9.535 -0.495 9.535 -1 6 C-4.471 5.25 -4.471 5.25 -8 5 C-8.103 6.114 -8.206 7.227 -8.312 8.375 C-8.539 9.571 -8.766 10.768 -9 12 C-12.452 14.302 -13.947 14.345 -18 14 C-18.66 13.34 -19.32 12.68 -20 12 C-22.584 11.833 -22.584 11.833 -25 12 C-24.34 13.98 -23.68 15.96 -23 18 C-20.244 17.502 -20.244 17.502 -18 16 C-16.928 16.041 -15.855 16.082 -14.75 16.125 C-10.788 15.993 -9.149 15.29 -6 13 C-5.67 14.65 -5.34 16.3 -5 18 C-5.763 18.062 -6.526 18.124 -7.312 18.188 C-8.199 18.456 -9.086 18.724 -10 19 C-10.371 19.846 -10.743 20.691 -11.125 21.562 C-13 24 -13 24 -15.383 24.539 C-20.564 24.807 -24.12 24.511 -28.188 21.125 C-29.855 19.508 -29.855 19.508 -31 18 C-31 17.34 -31 16.68 -31 16 C-31.99 15.67 -32.98 15.34 -34 15 C-30.856 8.855 -26.386 6.409 -20 4 C-19.01 4 -18.02 4 -17 4 C-17 6.31 -17 8.62 -17 11 C-16.01 11 -15.02 11 -14 11 C-13.918 10.092 -13.835 9.185 -13.75 8.25 C-12.899 4.564 -11.882 3.358 -9 1 C-5.976 -0.512 -3.338 -0.173 0 0 Z " fill="#E6C074" transform="translate(270,609)" />
<path d="M0 0 C2.062 0.438 2.062 0.438 4 1 C4.495 3.475 4.495 3.475 5 6 C3.68 6.33 2.36 6.66 1 7 C1 7.66 1 8.32 1 9 C-0.75 11.125 -0.75 11.125 -3 13 C-4.32 13 -5.64 13 -7 13 C-7 13.66 -7 14.32 -7 15 C-8.98 15.99 -8.98 15.99 -11 17 C-9.808 18.416 -9.808 18.416 -6.375 18.188 C-1.421 18.125 3.384 17.616 7 14 C6.625 16.438 6.625 16.438 6 19 C3.405 20.297 1.337 20.146 -1.562 20.25 C-6.976 20.64 -10.542 21.898 -15.062 24.844 C-20.857 28.302 -28.519 27.698 -35 27 C-37.847 25.631 -38.949 24.473 -41 22 C-41 21.67 -41 21.34 -41 21 C-39.948 20.753 -38.896 20.505 -37.812 20.25 C-34.161 19.227 -31.909 17.437 -29 15 C-26.688 14.25 -26.688 14.25 -25 14 C-24.67 14.99 -24.34 15.98 -24 17 C-23.01 16.34 -22.02 15.68 -21 15 C-18.312 14.875 -18.312 14.875 -16 15 C-15.763 14.376 -15.526 13.752 -15.281 13.109 C-13.651 10.425 -12.472 10.118 -9.5 9.25 C-8.706 9.008 -7.912 8.765 -7.094 8.516 C-5 8 -5 8 -3 8 C-2.691 6.866 -2.381 5.731 -2.062 4.562 C-1 1 -1 1 0 0 Z " fill="#A27941" transform="translate(298,644)" />
</svg>