<?xml version='1.0' encoding='utf-8'?>
<svg xmlns="http://www.w3.org/2000/svg" version="1.1" width="417" height="470" viewBox="327.510875 317.523 417.172125 470.04028125">
<path d="M0 0 C7.338 0.282 18.741 1.741 24 7 C24.477 10.815 23.817 13.884 22.688 17.492 C17.4 34.7 12.859 52.113 8.617 69.604 C8.087 71.662 7.452 73.693 6.797 75.715 C5.855 79.6 6.063 82.471 6.562 86.438 C6.653 87.171 6.743 87.905 6.835 88.66 C8.108 98.558 9.732 108.418 11.323 118.269 C11.433 118.955 11.543 119.64 11.656 120.346 C11.959 122.234 12.266 124.121 12.573 126.008 C13 129 13 129 13 132 C13.976 131.977 14.952 131.954 15.957 131.93 C17.229 131.912 18.502 131.894 19.812 131.875 C21.077 131.852 22.342 131.829 23.645 131.805 C27 132 27 132 30 134 C30 134.66 30 135.32 30 136 C30.588 135.989 31.176 135.978 31.782 135.966 C37.914 135.856 44.046 135.78 50.178 135.725 C52.465 135.7 54.753 135.666 57.04 135.623 C60.331 135.562 63.622 135.534 66.914 135.512 C67.933 135.486 68.952 135.46 70.002 135.434 C74.511 135.432 77.965 135.439 81.65 138.233 C84.087 141.103 84.749 142.083 84.691 145.758 C84.683 147.067 84.683 147.067 84.674 148.402 C84.637 149.301 84.6 150.199 84.562 151.125 C84.561 152.031 84.559 152.937 84.557 153.871 C84.423 160.577 84.423 160.577 81 164 C58.89 164 36.78 164 14 164 C14 224.39 14 284.78 14 347 C24.56 347 35.12 347 46 347 C46.66 347.66 47.32 348.32 48 349 C47.673 351.616 47.18 353.641 46 356 C36.517 356.046 27.033 356.082 17.55 356.104 C13.146 356.114 8.743 356.128 4.34 356.151 C0.093 356.173 -4.154 356.185 -8.401 356.19 C-10.024 356.193 -11.646 356.201 -13.269 356.211 C-15.537 356.226 -17.804 356.228 -20.072 356.227 C-22.01 356.234 -22.01 356.234 -23.988 356.241 C-27 356 -27 356 -29 354 C-29.188 350.937 -29.188 350.937 -29 348 C-28.67 347.67 -28.34 347.34 -28 347 C-17.11 347 -6.22 347 5 347 C5 286.61 5 226.22 5 164 C-29.286 164.277 -29.286 164.277 -63.571 164.631 C-70.209 164.662 -70.209 164.662 -73.318 164.668 C-75.486 164.679 -77.653 164.703 -79.82 164.739 C-83.107 164.79 -86.392 164.797 -89.68 164.795 C-90.642 164.82 -91.604 164.845 -92.596 164.871 C-98.941 164.802 -98.941 164.802 -101.948 162.525 C-105.859 158.206 -106.717 155.155 -106.438 149.188 C-106.395 147.882 -106.352 146.576 -106.309 145.23 C-106 142 -106 142 -105 140 C-105.82 140.061 -106.64 140.121 -107.484 140.184 C-122.343 141.268 -137.091 142.281 -152 142 C-154.475 155.365 -154.475 155.365 -157 169 C-152.71 169.33 -148.42 169.66 -144 170 C-141.785 170.35 -139.575 170.746 -137.387 171.234 C-136.291 171.476 -135.196 171.718 -134.067 171.967 C-132.394 172.355 -132.394 172.355 -130.688 172.75 C-129.515 173.017 -128.342 173.285 -127.134 173.56 C-98.205 180.283 -98.205 180.283 -90 190 C-77.129 210.686 -80.678 244.766 -80.794 267.926 C-80.813 271.696 -80.815 275.466 -80.814 279.236 C-80.902 340.452 -80.902 340.452 -91.098 351.273 C-97.937 357.481 -104.782 358.355 -113.734 358.285 C-120.403 357.703 -125.078 354.364 -130 350 C-131.73 347.441 -131.73 347.441 -133.188 344.562 C-133.676 343.636 -134.165 342.709 -134.668 341.754 C-138.48 331.011 -138.477 319.207 -139.148 307.922 C-140.227 290.007 -141.991 272.268 -144.374 254.481 C-144.482 253.677 -144.589 252.872 -144.7 252.043 C-144.901 250.55 -145.105 249.058 -145.314 247.567 C-145.805 243.969 -146 240.655 -146 237 C-149.96 237 -153.92 237 -158 237 C-157.34 237.99 -156.68 238.98 -156 240 C-155.333 245.806 -155.181 251.204 -157.625 256.562 C-161.422 260.459 -165.526 263.805 -171.145 264.12 C-171.973 264.118 -172.802 264.116 -173.655 264.114 C-174.609 264.113 -175.563 264.113 -176.546 264.113 C-177.545 264.108 -178.544 264.103 -179.574 264.098 C-180.956 264.096 -180.956 264.096 -182.365 264.095 C-185.806 264.089 -189.247 264.075 -192.688 264.062 C-200.381 264.042 -208.074 264.021 -216 264 C-216 282.81 -216 301.62 -216 321 C-213.36 321 -210.72 321 -208 321 C-199.493 323.107 -192.269 326.909 -184.887 331.512 C-181.854 333.075 -179.492 333.586 -176.125 334 C-172.156 334.534 -170.085 335.246 -167.312 338.188 C-165.404 340.854 -164.962 342.218 -164.375 345.562 C-165.262 350.443 -167.416 353.303 -170.75 356.875 C-174.126 358.563 -177.346 358.524 -181 358 C-184.431 356.627 -185.714 355.414 -187.812 352.375 C-189.308 348.125 -189.267 344.454 -189 340 C-203.098 332.629 -216.494 326.992 -232.438 331.688 C-237.761 333.447 -242.815 335.597 -247.855 338.047 C-250 339 -250 339 -252 339 C-251.881 339.652 -251.763 340.305 -251.641 340.977 C-250.969 345.531 -250.616 348.188 -252.625 352.438 C-255.867 355.936 -258.174 357.728 -262.938 358.438 C-267.828 357.739 -270.799 355.481 -273.875 351.688 C-275.332 348.206 -275.401 345.745 -275 342 C-273.197 337.825 -271.161 335.809 -267 334 C-265.607 333.865 -264.21 333.764 -262.812 333.688 C-258.969 333.372 -256.664 332.409 -253.438 330.312 C-249.078 327.495 -244.702 325.477 -239.875 323.625 C-238.89 323.231 -238.89 323.231 -237.885 322.829 C-236.917 322.469 -236.917 322.469 -235.93 322.102 C-235.365 321.888 -234.8 321.675 -234.218 321.456 C-230.878 320.77 -227.409 321 -224 321 C-224 302.19 -224 283.38 -224 264 C-239.527 264.158 -239.527 264.158 -255.053 264.36 C-257.007 264.372 -258.96 264.382 -260.914 264.391 C-261.92 264.411 -262.925 264.432 -263.962 264.453 C-271.061 264.456 -274.506 263.394 -279.645 258.402 C-281.61 255.937 -282.995 254.015 -284 251 C-285.932 249.974 -285.932 249.974 -288.25 249.188 C-293.029 247.182 -295.179 245.36 -298 241 C-299.686 236.701 -300.056 232.869 -300.25 228.312 C-300.394 225.5 -300.394 225.5 -301 223 C-303.722 220.519 -303.722 220.519 -307 219 C-310.873 214.708 -312.12 211.7 -312.147 205.972 C-312.154 204.933 -312.161 203.894 -312.169 202.824 C-312.173 201.115 -312.173 201.115 -312.177 199.372 C-312.184 198.172 -312.19 196.971 -312.197 195.735 C-312.217 191.754 -312.228 187.774 -312.238 183.793 C-312.242 182.421 -312.246 181.05 -312.251 179.678 C-312.27 173.235 -312.284 166.791 -312.292 160.348 C-312.302 152.915 -312.328 145.482 -312.369 138.049 C-312.399 132.3 -312.414 126.551 -312.417 120.803 C-312.419 117.371 -312.428 113.939 -312.453 110.507 C-312.478 106.677 -312.477 102.847 -312.47 99.016 C-312.483 97.883 -312.496 96.75 -312.509 95.582 C-312.468 89.398 -312.178 85.684 -308 81 C-302.536 76.186 -299.234 75.636 -292.047 75.73 C-286.988 76.178 -284.054 77.647 -280.63 81.57 C-276.423 87.587 -276.287 92.883 -276.353 100.072 C-276.344 101.26 -276.336 102.448 -276.326 103.672 C-276.308 106.91 -276.312 110.147 -276.328 113.385 C-276.341 116.786 -276.329 120.187 -276.321 123.588 C-276.312 129.297 -276.324 135.006 -276.348 140.715 C-276.375 147.3 -276.367 153.884 -276.339 160.469 C-276.316 166.14 -276.313 171.811 -276.326 177.482 C-276.334 180.861 -276.335 184.24 -276.319 187.62 C-276.306 191.389 -276.325 195.158 -276.353 198.928 C-276.343 200.037 -276.333 201.145 -276.322 202.288 C-276.415 209.074 -277.452 213.812 -282 219 C-284.865 221.532 -287.058 223 -291 223 C-290.771 225.086 -290.516 227.169 -290.25 229.25 C-290.111 230.41 -289.972 231.57 -289.828 232.766 C-288.902 236.382 -287.876 237.695 -285 240 C-284.34 240.33 -283.68 240.66 -283 241 C-282.773 240.278 -282.546 239.556 -282.312 238.812 C-280.155 234.19 -276.78 230.812 -272 229 C-269.36 228.765 -266.815 228.628 -264.172 228.586 C-263.423 228.567 -262.674 228.547 -261.902 228.527 C-259.518 228.468 -257.134 228.421 -254.75 228.375 C-253.13 228.337 -251.51 228.298 -249.891 228.258 C-245.927 228.162 -241.964 228.078 -238 228 C-238.804 227.688 -239.608 227.375 -240.436 227.053 C-252.321 222.298 -260.514 215.797 -266 204 C-280.015 168.761 -267.187 120.421 -260.428 84.3 C-260.036 82.194 -259.664 80.086 -259.297 77.977 C-255.565 57.624 -249.989 34.118 -232.52 21.16 C-216.636 11.088 -198.829 11.52 -181.025 15.302 C-167.934 18.269 -156.591 23.339 -148.531 34.555 C-140.651 47.138 -139.673 59.418 -139.812 74 C-139.813 75.963 -139.813 75.963 -139.814 77.965 C-139.859 87.577 -139.859 87.577 -141 91 C-140.292 90.996 -139.584 90.991 -138.854 90.987 C-132.119 90.946 -125.383 90.916 -118.647 90.896 C-115.186 90.886 -111.725 90.872 -108.264 90.849 C-104.267 90.823 -100.27 90.813 -96.273 90.805 C-95.055 90.794 -93.837 90.784 -92.582 90.773 C-68.115 90.77 -68.115 90.77 -60 98 C-55.349 102.743 -52.85 105.853 -52.688 112.625 C-52.768 119.324 -54 123.881 -58.684 128.75 C-61.695 131.444 -64.341 133.17 -68 135 C-55.13 135.33 -42.26 135.66 -29 136 C-28.67 135.01 -28.34 134.02 -28 133 C-25.13 131.565 -22.665 131.888 -19.461 131.902 C-18.159 131.906 -16.857 131.909 -15.516 131.912 C-14.135 131.92 -12.755 131.929 -11.375 131.938 C-9.987 131.943 -8.599 131.947 -7.211 131.951 C-3.807 131.963 -0.404 131.979 3 132 C2.864 131.101 2.864 131.101 2.725 130.183 C2.311 127.435 1.906 124.687 1.5 121.938 C1.357 120.995 1.214 120.052 1.066 119.08 C0.322 113.993 -0.171 109.141 0 104 C-0.66 104 -1.32 104 -2 104 C-2.11 104.606 -2.219 105.212 -2.332 105.836 C-5.482 122.482 -5.482 122.482 -8 125 C-16.008 125.785 -24.982 123.88 -31.98 119.863 C-35.137 114.095 -30.445 103.966 -28.75 98.125 C-28.161 96.065 -27.573 94.005 -26.984 91.945 C-26.67 90.851 -26.357 89.757 -26.033 88.63 C-24.205 82.205 -22.428 75.766 -20.645 69.329 C-19.599 65.552 -18.549 61.776 -17.5 58 C-17.083 56.5 -16.667 55 -16.25 53.5 C-13.75 44.5 -13.75 44.5 -13.124 42.247 C-12.71 40.757 -12.296 39.266 -11.882 37.775 C-10.801 33.882 -9.718 29.988 -8.634 26.096 C-8.409 25.29 -8.185 24.484 -7.953 23.653 C-7.527 22.121 -7.099 20.588 -6.672 19.056 C-5.276 14.042 -3.945 9.016 -2.676 3.969 C-2 2 -2 2 0 0 Z " fill="#080808" transform="translate(650,419)" />
<path d="M0 0 C8.627 5.854 14.251 14.259 16.636 24.439 C17.484 30.406 17.2 36.486 17.125 42.5 C17.115 43.909 17.106 45.318 17.098 46.727 C17.074 50.151 17.041 53.576 17 57 C16.34 57 15.68 57 15 57 C13.417 54.969 11.95 52.936 10.5 50.812 C6.689 45.341 2.743 40.026 -1.375 34.783 C-4.988 30.133 -8.127 25.279 -11.211 20.266 C-12.797 17.909 -12.797 17.909 -15.039 17.047 C-17.329 16.804 -17.329 16.804 -20 19 C-19.566 24.3 -16.658 27.781 -13.625 31.938 C-12.82 33.058 -12.82 33.058 -11.999 34.201 C-7.259 40.753 -2.317 47.137 2.748 53.439 C3.959 54.949 5.159 56.466 6.359 57.984 C9.844 62.489 9.844 62.489 13.719 66.645 C15 68 15 68 15 70 C15.84 69.996 16.68 69.991 17.545 69.987 C25.503 69.946 33.461 69.916 41.42 69.896 C45.51 69.886 49.6 69.872 53.69 69.849 C57.645 69.827 61.601 69.815 65.556 69.81 C67.057 69.807 68.558 69.799 70.058 69.789 C94.788 69.616 94.788 69.616 102.875 76.625 C104.661 80.396 104.617 83.912 104 88 C102.073 92.336 100.773 93.663 96.41 95.566 C91.981 97.126 87.578 97.922 82.938 98.562 C82.08 98.685 81.223 98.808 80.34 98.935 C69.932 100.369 59.476 101.236 49 102 C47.829 102.089 47.829 102.089 46.635 102.18 C37.037 102.891 27.435 103.143 17.812 103.25 C16.749 103.271 15.685 103.293 14.588 103.315 C4.042 103.36 -1.484 100.213 -9 93 C-10.305 91.755 -10.305 91.755 -11.637 90.484 C-17.083 85.167 -22.073 79.644 -26.816 73.684 C-28.977 71.028 -31.239 68.514 -33.562 66 C-37.45 61.738 -40.855 57.256 -44.176 52.543 C-46.033 49.954 -47.99 47.472 -50 45 C-52.475 45.495 -52.475 45.495 -55 46 C-55.944 48.197 -55.944 48.197 -56 51 C-54.47 53.247 -53.026 55.037 -51.188 57 C-50.157 58.153 -49.13 59.308 -48.105 60.465 C-47.583 61.051 -47.06 61.638 -46.521 62.242 C-44.21 64.914 -42.11 67.731 -40 70.562 C-35.816 76.112 -31.276 81.224 -26.523 86.289 C-24.426 88.543 -22.419 90.833 -20.438 93.188 C-13.565 101.103 -6.157 107.929 4 111 C4.257 116.912 3.296 122.181 2 127.938 C1.714 129.249 1.714 129.249 1.422 130.588 C0.954 132.727 0.48 134.864 0 137 C-0.816 137.01 -1.633 137.021 -2.474 137.031 C-10.239 137.13 -18.004 137.233 -25.769 137.339 C-29.76 137.394 -33.75 137.447 -37.74 137.497 C-41.605 137.546 -45.469 137.598 -49.334 137.653 C-50.794 137.673 -52.255 137.692 -53.715 137.709 C-62.65 137.816 -71.529 138.156 -80.443 138.786 C-85.299 139.078 -90.137 139.093 -95 139 C-95.378 123.974 -94.248 109.157 -91.547 94.363 C-91.112 91.69 -90.759 89.045 -90.453 86.355 C-82.36 16.14 -82.36 16.14 -61.473 -1.344 C-57.297 -4.141 -52.814 -5.658 -48 -7 C-47.383 -7.192 -46.765 -7.384 -46.129 -7.582 C-31.453 -10.463 -12.925 -7.205 0 0 Z " fill="#F7C660" transform="translate(484,449)" />
<path d="M0 0 C0.764 -0.009 1.529 -0.018 2.316 -0.028 C8.086 -0.093 13.855 -0.131 19.625 -0.156 C20.89 -0.162 20.89 -0.162 22.181 -0.168 C47.287 -0.265 71.332 0.269 95.625 7.344 C97.131 7.773 98.636 8.201 100.142 8.63 C118.329 13.861 118.329 13.861 122.938 18.844 C133.804 41.381 130.814 72.248 130.81 96.638 C130.81 99.427 130.817 102.217 130.831 105.007 C130.9 119.476 130.799 133.926 129.926 148.375 C129.873 149.47 129.821 150.566 129.766 151.694 C129.183 159.841 127.016 165.195 121 170.781 C115.933 174.115 110.498 174.043 104.625 173.344 C99.065 171.225 96.415 166.861 93.702 161.807 C92.011 157.939 91.689 154.29 91.461 150.109 C91.394 149.217 91.327 148.326 91.257 147.407 C91.11 145.443 90.972 143.479 90.842 141.514 C90.448 135.76 89.951 130.014 89.477 124.266 C89.273 121.759 89.07 119.253 88.867 116.746 C88.765 115.485 88.663 114.224 88.558 112.925 C88.353 110.378 88.152 107.831 87.953 105.284 C86.612 88.142 84.648 71.274 81.625 54.344 C77.002 53.741 72.377 53.16 67.75 52.594 C67.021 52.504 66.292 52.415 65.541 52.323 C55.285 51.085 45.026 50.089 34.727 49.293 C33.623 49.208 32.52 49.122 31.384 49.034 C25.895 48.615 20.406 48.212 14.915 47.827 C-20.045 45.297 -20.045 45.297 -30.277 35.527 C-31.857 33.538 -33.131 31.558 -34.375 29.344 C-35.083 28.095 -35.083 28.095 -35.805 26.82 C-40.034 18.863 -40.533 12.228 -40.375 3.344 C-27 0.583 -13.618 0.153 0 0 Z " fill="#E46948" transform="translate(429.375,594.65625)" />
<path d="M0 0 C4.897 2.459 7.717 6.483 9.828 11.387 C10.528 15.419 10.512 19.374 10.475 23.459 C10.484 24.647 10.493 25.835 10.502 27.059 C10.52 30.297 10.516 33.534 10.5 36.772 C10.487 40.173 10.499 43.573 10.507 46.974 C10.516 52.684 10.504 58.393 10.48 64.102 C10.453 70.687 10.462 77.271 10.489 83.856 C10.512 89.527 10.515 95.197 10.502 100.868 C10.494 104.248 10.493 107.627 10.51 111.006 C10.522 114.776 10.503 118.545 10.475 122.314 C10.485 123.423 10.495 124.532 10.506 125.674 C10.413 132.461 9.376 137.199 4.828 142.387 C1.963 144.919 -0.23 146.387 -4.172 146.387 C-3.943 148.472 -3.688 150.555 -3.422 152.637 C-3.283 153.797 -3.143 154.957 -3 156.152 C-2.074 159.769 -1.048 161.082 1.828 163.387 C2.488 163.717 3.148 164.047 3.828 164.387 C4.055 163.665 4.282 162.943 4.516 162.199 C6.673 157.577 10.048 154.199 14.828 152.387 C17.468 152.151 20.014 152.015 22.656 151.973 C23.405 151.953 24.154 151.934 24.926 151.914 C27.31 151.854 29.694 151.808 32.078 151.762 C33.698 151.724 35.318 151.684 36.938 151.645 C40.901 151.549 44.864 151.465 48.828 151.387 C48.129 151.156 47.431 150.925 46.711 150.688 C45.801 150.361 44.891 150.035 43.953 149.699 C43.048 149.386 42.143 149.073 41.211 148.75 C38.828 147.387 38.828 147.387 37.508 144.93 C36.828 142.387 36.828 142.387 36.828 139.387 C37.488 139.717 38.148 140.047 38.828 140.387 C38.828 139.727 38.828 139.067 38.828 138.387 C39.46 138.568 40.091 138.75 40.742 138.938 C43.763 139.786 46.793 140.589 49.828 141.387 C50.746 141.633 51.664 141.879 52.61 142.133 C64.737 145.058 77.108 145.628 89.516 146.512 C92.957 146.763 96.399 147.018 99.84 147.276 C101.968 147.436 104.096 147.59 106.224 147.741 C107.18 147.811 108.135 147.881 109.12 147.954 C110.379 148.043 110.379 148.043 111.663 148.135 C113.828 148.387 113.828 148.387 116.828 149.387 C116.828 150.047 116.828 150.707 116.828 151.387 C117.431 151.375 118.035 151.364 118.656 151.352 C119.455 151.343 120.255 151.334 121.078 151.324 C121.867 151.313 122.656 151.301 123.469 151.289 C125.754 151.384 127.628 151.793 129.828 152.387 C131.242 152.596 132.659 152.784 134.078 152.949 C135.316 153.094 136.553 153.238 137.828 153.387 C136.838 154.047 135.848 154.707 134.828 155.387 C132.775 157.229 132.775 157.229 131.828 159.387 C130.838 159.717 129.848 160.047 128.828 160.387 C129.488 161.377 130.148 162.367 130.828 163.387 C131.495 169.192 131.647 174.591 129.203 179.949 C125.406 183.846 121.302 187.192 115.683 187.507 C114.441 187.504 114.441 187.504 113.173 187.5 C112.219 187.5 111.265 187.5 110.283 187.5 C109.283 187.495 108.284 187.49 107.254 187.484 C105.873 187.483 105.873 187.483 104.463 187.481 C101.022 187.476 97.581 187.462 94.141 187.449 C86.447 187.429 78.754 187.408 70.828 187.387 C70.828 206.197 70.828 225.007 70.828 244.387 C73.468 244.387 76.108 244.387 78.828 244.387 C87.335 246.494 94.559 250.296 101.941 254.898 C104.974 256.462 107.336 256.973 110.703 257.387 C114.672 257.921 116.743 258.633 119.516 261.574 C121.424 264.241 121.866 265.605 122.453 268.949 C121.566 273.83 119.412 276.69 116.078 280.262 C112.702 281.95 109.482 281.911 105.828 281.387 C102.397 280.014 101.114 278.801 99.016 275.762 C97.52 271.512 97.561 267.841 97.828 263.387 C83.73 256.016 70.334 250.378 54.391 255.074 C49.067 256.834 44.013 258.984 38.973 261.434 C36.828 262.387 36.828 262.387 34.828 262.387 C34.947 263.039 35.065 263.691 35.188 264.363 C35.859 268.918 36.212 271.575 34.203 275.824 C30.961 279.322 28.654 281.115 23.891 281.824 C19 281.126 16.029 278.868 12.953 275.074 C11.496 271.593 11.427 269.131 11.828 265.387 C13.631 261.212 15.667 259.196 19.828 257.387 C21.221 257.252 22.618 257.151 24.016 257.074 C27.859 256.759 30.164 255.796 33.391 253.699 C37.75 250.882 42.127 248.863 46.953 247.012 C47.938 246.618 47.938 246.618 48.944 246.216 C49.911 245.856 49.911 245.856 50.898 245.488 C51.463 245.275 52.028 245.062 52.61 244.842 C55.95 244.156 59.419 244.387 62.828 244.387 C62.828 225.577 62.828 206.767 62.828 187.387 C47.301 187.545 47.301 187.545 31.775 187.747 C29.821 187.759 27.868 187.769 25.914 187.777 C24.908 187.798 23.903 187.818 22.866 187.839 C15.767 187.843 12.322 186.781 7.184 181.789 C5.218 179.324 3.833 177.402 2.828 174.387 C0.896 173.361 0.896 173.361 -1.422 172.574 C-6.201 170.568 -8.351 168.746 -11.172 164.387 C-12.858 160.088 -13.228 156.256 -13.422 151.699 C-13.566 148.887 -13.566 148.887 -14.172 146.387 C-16.893 143.906 -16.893 143.906 -20.172 142.387 C-24.045 138.094 -25.292 135.087 -25.319 129.359 C-25.326 128.32 -25.333 127.281 -25.341 126.211 C-25.345 124.502 -25.345 124.502 -25.349 122.759 C-25.355 121.558 -25.362 120.358 -25.369 119.121 C-25.389 115.141 -25.4 111.16 -25.41 107.18 C-25.414 105.808 -25.418 104.437 -25.423 103.065 C-25.442 96.622 -25.456 90.178 -25.464 83.735 C-25.474 76.301 -25.5 68.869 -25.541 61.436 C-25.571 55.687 -25.586 49.938 -25.589 44.189 C-25.591 40.757 -25.6 37.326 -25.625 33.894 C-25.65 30.063 -25.649 26.234 -25.642 22.403 C-25.661 20.703 -25.661 20.703 -25.681 18.969 C-25.64 12.784 -25.349 9.071 -21.172 4.387 C-14.875 -1.161 -8.243 -2.328 0 0 Z " fill="#050405" transform="translate(363.171875,495.61328125)" />
<path d="M0 0 C9.996 8.498 14.792 20.183 16.32 32.973 C16.563 37.977 16.556 42.964 16.508 47.973 C16.507 49.935 16.507 49.935 16.506 51.938 C16.461 61.55 16.461 61.55 15.32 64.973 C16.028 64.968 16.736 64.964 17.466 64.959 C24.202 64.919 30.937 64.889 37.673 64.869 C41.134 64.859 44.595 64.845 48.057 64.822 C52.053 64.796 56.05 64.786 60.047 64.777 C61.265 64.767 62.483 64.757 63.739 64.746 C88.206 64.743 88.206 64.743 96.32 71.973 C102.15 77.917 103.676 81.459 103.605 89.852 C103.104 95.342 101.18 99.32 97.07 102.973 C96.493 103.303 95.915 103.633 95.32 103.973 C94.99 102.983 94.66 101.993 94.32 100.973 C93.33 100.643 92.34 100.313 91.32 99.973 C90.99 98.983 90.66 97.993 90.32 96.973 C90.795 96.271 91.269 95.57 91.758 94.848 C93.924 90.863 94.175 87.418 93.32 82.973 C89.515 77.712 85.283 76.479 79.094 75.421 C73.075 74.7 67.02 74.937 60.971 75.018 C56.361 75.07 51.75 75.064 47.14 75.069 C43.106 75.078 39.074 75.105 35.04 75.175 C31.113 75.241 27.19 75.253 23.263 75.23 C21.777 75.23 20.291 75.25 18.806 75.29 C7.246 75.588 7.246 75.588 2.448 71.563 C0.168 68.797 -1.779 66.007 -3.68 62.973 C-4.603 61.79 -5.543 60.619 -6.508 59.469 C-13.382 50.788 -19.895 41.874 -26.32 32.857 C-27.293 31.509 -28.309 30.192 -29.352 28.897 C-30.68 26.973 -30.68 26.973 -30.68 24.348 C-29.68 21.973 -29.68 21.973 -27.117 20.66 C-26.313 20.433 -25.508 20.206 -24.68 19.973 C-20.525 23.856 -17.38 28.035 -14.18 32.723 C-9.237 39.866 -4.069 46.791 1.307 53.614 C1.832 54.288 2.357 54.962 2.898 55.656 C3.367 56.25 3.835 56.843 4.317 57.455 C5.32 58.973 5.32 58.973 5.32 60.973 C5.98 60.973 6.64 60.973 7.32 60.973 C7.251 56.883 7.162 52.794 7.058 48.705 C7.025 47.318 6.997 45.931 6.974 44.544 C6.745 31.066 4.789 19.725 -4.203 9.188 C-15.692 -1.769 -34.636 -3.718 -49.848 -3.375 C-61.718 -2.298 -70.563 1.957 -78.305 10.91 C-95.293 34.432 -97.63 72.868 -100.462 100.94 C-100.808 104.167 -101.25 107.381 -101.68 110.598 C-103.054 121.353 -103.824 132.166 -104.68 142.973 C-104.049 142.913 -103.418 142.853 -102.768 142.791 C-83.24 140.998 -63.895 140.719 -44.304 140.835 C-40.38 140.856 -36.457 140.865 -32.533 140.875 C-24.915 140.896 -17.298 140.93 -9.68 140.973 C-9.53 139.732 -9.381 138.491 -9.227 137.213 C-8.749 133.243 -7.981 129.379 -7.117 125.473 C-6.848 124.245 -6.578 123.018 -6.301 121.754 C-6.096 120.836 -5.891 119.918 -5.68 118.973 C-5.35 118.973 -5.02 118.973 -4.68 118.973 C-4.35 122.933 -4.02 126.893 -3.68 130.973 C-2.03 129.983 -0.38 128.993 1.32 127.973 C1.178 129.723 1.032 131.473 0.883 133.223 C0.761 134.684 0.761 134.684 0.637 136.176 C0.369 138.544 -0.076 140.676 -0.68 142.973 C0.104 143.013 0.888 143.053 1.696 143.095 C9.888 143.607 17.644 144.872 25.633 146.723 C26.805 146.99 27.978 147.257 29.186 147.533 C58.115 154.256 58.115 154.256 66.32 163.973 C79.191 184.658 75.642 218.739 75.526 241.899 C75.508 245.669 75.506 249.439 75.506 253.209 C75.419 314.425 75.419 314.425 65.223 325.246 C58.384 331.453 51.538 332.328 42.586 332.258 C35.917 331.675 31.242 328.336 26.32 323.973 C24.59 321.414 24.59 321.414 23.133 318.535 C22.644 317.608 22.156 316.681 21.652 315.727 C17.84 304.984 17.843 293.18 17.173 281.895 C16.094 263.98 14.33 246.241 11.946 228.454 C11.839 227.649 11.731 226.845 11.62 226.016 C11.42 224.523 11.215 223.031 11.006 221.54 C10.521 217.99 10.211 214.556 10.32 210.973 C7.35 210.973 4.38 210.973 1.32 210.973 C1.695 208.535 1.695 208.535 2.32 205.973 C2.98 205.643 3.64 205.313 4.32 204.973 C3.021 204.828 1.722 204.684 0.383 204.535 C-3.555 204.098 -3.555 204.098 -4.68 202.973 C-6.194 202.741 -7.717 202.561 -9.242 202.41 C-10.068 202.326 -10.895 202.243 -11.746 202.156 C-12.384 202.096 -13.022 202.035 -13.68 201.973 C-13.68 201.313 -13.68 200.653 -13.68 199.973 C-9.825 200.282 -5.971 200.595 -2.117 200.91 C-0.488 201.041 -0.488 201.041 1.174 201.174 C16.804 202.457 16.804 202.457 18.32 203.973 C22.382 221.886 23.523 240.463 24.945 258.723 C25.15 261.274 25.356 263.824 25.562 266.375 C25.664 267.624 25.765 268.873 25.869 270.16 C26.26 274.978 26.652 279.796 27.047 284.614 C27.225 286.805 27.401 288.997 27.572 291.19 C27.802 294.1 28.045 297.009 28.293 299.918 C28.356 300.756 28.418 301.594 28.483 302.457 C29.05 308.846 30.68 314.301 35.32 318.973 C40.503 322.748 45.118 322.639 51.32 321.973 C56.771 320.09 59.525 317.053 62.391 312.136 C63.474 309.614 63.728 307.534 63.944 304.799 C64.027 303.758 64.11 302.718 64.195 301.646 C64.272 300.515 64.35 299.384 64.43 298.219 C64.514 297.028 64.598 295.837 64.685 294.609 C65.533 281.456 65.625 268.305 65.581 255.13 C65.57 251.721 65.576 248.313 65.588 244.904 C68.281 204.079 68.281 204.079 56.32 166.973 C49 161.181 38.476 159.676 29.573 157.696 C27.384 157.209 25.197 156.714 23.012 156.212 C1.402 151.324 -19.151 150.135 -41.245 150.444 C-44.508 150.482 -47.77 150.49 -51.033 150.498 C-69.002 150.543 -86.794 151.071 -104.68 152.973 C-103.658 166.694 -101.195 177.163 -90.68 186.973 C-89.031 188.328 -87.37 189.669 -85.68 190.973 C-87.68 190.973 -89.68 190.973 -91.68 190.973 C-92.34 191.303 -93 191.633 -93.68 191.973 C-93.02 193.293 -92.36 194.613 -91.68 195.973 C-95.979 195.973 -97.547 193.904 -100.625 191.074 C-113.046 178.369 -115.012 161.555 -114.828 144.633 C-114.221 115.777 -109.409 86.602 -104.107 58.272 C-103.716 56.167 -103.344 54.059 -102.977 51.949 C-99.245 31.597 -93.669 8.091 -76.199 -4.867 C-54.195 -18.82 -20.603 -15.21 0 0 Z " fill="#0F0908" transform="translate(493.6796875,445.02734375)" />
<path d="M0 0 C9.873 8.249 17.042 18.101 19 31 C19.924 45.075 17.776 57.614 9 69 C-0.57 79.631 -10.391 85.958 -24.938 87.387 C-39.784 88.039 -51.73 83.486 -63 74 C-73.211 63.45 -77.53 50.376 -77.349 35.845 C-76.873 22.208 -70.377 11.393 -60.59 2.074 C-42.422 -12.477 -19.17 -12.99 0 0 Z " fill="#FCFCFC" transform="translate(501,340)" />
<path d="M0 0 C9.873 8.249 17.042 18.101 19 31 C19.924 45.075 17.776 57.614 9 69 C-0.57 79.631 -10.391 85.958 -24.938 87.387 C-39.784 88.039 -51.73 83.486 -63 74 C-73.211 63.45 -77.53 50.376 -77.349 35.845 C-76.873 22.208 -70.377 11.393 -60.59 2.074 C-42.422 -12.477 -19.17 -12.99 0 0 Z M-60.848 15.199 C-67.717 24.87 -69.089 34.232 -68 46 C-65.823 56.145 -59.959 65.852 -51.27 71.684 C-40.475 77.945 -29.849 80.328 -17.629 77.113 C-5.108 72.312 2.204 64.677 8.098 52.785 C11.575 44.099 11.258 33.197 8.16 24.438 C3.838 15.357 -2.288 8.917 -11 4 C-11.758 3.567 -12.516 3.134 -13.297 2.688 C-30.018 -5.393 -49.402 1.576 -60.848 15.199 Z " fill="#0A0A0A" transform="translate(501,340)" />
<path d="M0 0 C0.753 -0.022 1.506 -0.044 2.281 -0.066 C5.792 0.929 6.629 2.426 8.5 5.562 C9.102 9.363 9.046 13.133 9.018 16.975 C9.025 18.128 9.032 19.281 9.039 20.47 C9.056 24.282 9.045 28.094 9.031 31.906 C9.034 34.555 9.038 37.204 9.043 39.853 C9.05 45.404 9.041 50.956 9.021 56.507 C9 62.92 9.007 69.332 9.029 75.745 C9.047 81.257 9.049 86.769 9.039 92.28 C9.033 95.57 9.034 98.859 9.045 102.148 C9.055 105.816 9.04 109.483 9.018 113.15 C9.026 114.237 9.034 115.324 9.042 116.444 C8.959 123.804 8.959 123.804 6.593 127.713 C4.053 129.958 3.011 130.507 -0.375 130.875 C-3.5 130.562 -3.5 130.562 -5.812 128.688 C-8.335 125.511 -8.628 123.785 -8.647 119.793 C-8.654 118.787 -8.661 117.78 -8.669 116.743 C-8.672 115.634 -8.674 114.526 -8.677 113.383 C-8.684 112.219 -8.69 111.055 -8.697 109.855 C-8.717 105.989 -8.728 102.124 -8.738 98.258 C-8.742 96.941 -8.746 95.624 -8.751 94.267 C-8.77 88.017 -8.784 81.768 -8.792 75.519 C-8.802 68.303 -8.828 61.087 -8.869 53.87 C-8.899 48.294 -8.914 42.718 -8.917 37.141 C-8.919 33.81 -8.93 30.479 -8.953 27.148 C-8.978 23.432 -8.977 19.717 -8.97 16 C-8.983 14.896 -8.996 13.791 -9.009 12.653 C-9.002 11.641 -8.995 10.629 -8.988 9.586 C-8.99 8.707 -8.993 7.828 -8.995 6.923 C-7.99 2.132 -4.715 -0.008 0 0 Z " fill="#5093C7" transform="translate(355.5,503.4375)" />
<path d="M0 0 C2.31 0 4.62 0 7 0 C7 0.66 7 1.32 7 2 C7.66 2 8.32 2 9 2 C9 20.48 9 38.96 9 58 C11.64 58 14.28 58 17 58 C25.507 60.107 32.731 63.909 40.113 68.512 C43.146 70.075 45.508 70.586 48.875 71 C52.844 71.534 54.915 72.246 57.688 75.188 C59.596 77.854 60.038 79.218 60.625 82.562 C59.738 87.443 57.584 90.303 54.25 93.875 C50.874 95.563 47.654 95.524 44 95 C40.569 93.627 39.286 92.414 37.188 89.375 C35.692 85.125 35.733 81.454 36 77 C21.902 69.629 8.506 63.992 -7.438 68.688 C-12.761 70.447 -17.815 72.597 -22.855 75.047 C-25 76 -25 76 -27 76 C-26.881 76.652 -26.763 77.305 -26.641 77.977 C-25.969 82.531 -25.616 85.188 -27.625 89.438 C-30.867 92.936 -33.174 94.728 -37.938 95.438 C-42.828 94.739 -45.799 92.481 -48.875 88.688 C-50.332 85.206 -50.401 82.745 -50 79 C-48.197 74.825 -46.161 72.809 -42 71 C-40.607 70.865 -39.21 70.764 -37.812 70.688 C-33.969 70.372 -31.664 69.409 -28.438 67.312 C-24.078 64.495 -19.702 62.477 -14.875 60.625 C-14.218 60.362 -13.561 60.1 -12.885 59.829 C-12.239 59.589 -11.594 59.349 -10.93 59.102 C-10.083 58.782 -10.083 58.782 -9.218 58.456 C-5.878 57.77 -2.409 58 1 58 C0.505 29.29 0.505 29.29 0 0 Z " fill="#070707" transform="translate(425,682)" />
<path d="M0 0 C0.978 -0.009 1.955 -0.018 2.963 -0.027 C6.196 -0.049 9.429 -0.034 12.662 -0.017 C14.909 -0.02 17.156 -0.025 19.403 -0.032 C24.113 -0.039 28.823 -0.028 33.533 -0.005 C39.57 0.024 45.607 0.007 51.644 -0.023 C56.284 -0.041 60.924 -0.035 65.565 -0.022 C67.791 -0.019 70.017 -0.023 72.243 -0.035 C75.355 -0.047 78.466 -0.028 81.578 0 C82.498 -0.01 83.418 -0.02 84.367 -0.031 C88.866 0.044 90.754 0.178 94.402 3.031 C96.467 5.799 97.354 7.201 97.354 10.647 C95.732 14.133 94.589 15.49 91.354 17.647 C89.434 17.904 89.434 17.904 87.224 17.914 C86.384 17.923 85.544 17.931 84.679 17.94 C83.761 17.939 82.843 17.938 81.897 17.938 C80.443 17.948 80.443 17.948 78.959 17.958 C75.748 17.977 72.538 17.981 69.326 17.983 C67.098 17.989 64.87 17.996 62.642 18.003 C57.969 18.015 53.296 18.019 48.623 18.018 C42.629 18.017 36.636 18.045 30.642 18.079 C26.04 18.101 21.437 18.105 16.835 18.104 C14.625 18.107 12.415 18.116 10.205 18.131 C7.116 18.151 4.029 18.145 0.94 18.133 C0.024 18.144 -0.892 18.155 -1.836 18.167 C-8.036 18.105 -8.036 18.105 -11.183 15.742 C-13.668 12.185 -14.074 10.009 -13.646 5.647 C-10.362 -0.517 -6.307 -0.069 0 0 Z " fill="#4E93C5" transform="translate(388.646240234375,656.35302734375)" />
<path d="M0 0 C56.76 0 113.52 0 172 0 C172 3.3 172 6.6 172 10 C115.24 10 58.48 10 0 10 C0 6.7 0 3.4 0 0 Z " fill="#575859" transform="translate(553,564)" />
<path d="M0 0 C0 0.66 0 1.32 0 2 C0.495 2.99 0.495 2.99 1 4 C1.491 9.832 1.831 15.179 -0.625 20.562 C-5.461 25.526 -9.927 28.081 -16.839 28.205 C-17.819 28.225 -18.8 28.245 -19.811 28.266 C-20.867 28.282 -21.923 28.299 -23.012 28.316 C-24.095 28.337 -25.178 28.358 -26.295 28.379 C-29.759 28.445 -33.223 28.504 -36.688 28.562 C-39.035 28.606 -41.382 28.649 -43.729 28.693 C-49.486 28.8 -55.243 28.902 -61 29 C-61 28.34 -61 27.68 -61 27 C-61.933 27.16 -62.866 27.32 -63.828 27.485 C-68.792 28.19 -73.747 28.2 -78.754 28.238 C-80.283 28.25 -80.283 28.25 -81.842 28.263 C-83.988 28.277 -86.133 28.287 -88.279 28.295 C-90.47 28.307 -92.661 28.327 -94.851 28.357 C-98.027 28.399 -101.203 28.416 -104.379 28.426 C-105.354 28.443 -106.329 28.461 -107.334 28.479 C-113.081 28.461 -116.476 27.906 -121 24 C-123.375 21.25 -123.375 21.25 -125 19 C-121.713 18.2 -120.29 17.903 -117 19 C-115.659 18.699 -114.326 18.363 -113 18 C-111.585 17.921 -110.167 17.891 -108.75 17.9 C-107.488 17.904 -107.488 17.904 -106.201 17.909 C-105.286 17.917 -104.372 17.926 -103.43 17.934 C-102.46 17.939 -101.491 17.943 -100.492 17.948 C-98.388 17.959 -96.284 17.971 -94.18 17.986 C-90.851 18.008 -87.523 18.022 -84.195 18.034 C-74.732 18.067 -65.269 18.109 -55.807 18.171 C-50.018 18.209 -44.23 18.232 -38.442 18.246 C-36.235 18.254 -34.027 18.267 -31.82 18.287 C-28.737 18.313 -25.654 18.321 -22.57 18.325 C-21.656 18.337 -20.741 18.349 -19.799 18.362 C-14.938 18.361 -14.938 18.361 -10.46 16.659 C-8.267 14.168 -8.066 12.283 -8 9 C-9.733 5.272 -9.733 5.272 -13 3 C-14.33 2.897 -15.665 2.854 -16.999 2.842 C-17.835 2.832 -18.67 2.822 -19.532 2.812 C-20.909 2.803 -20.909 2.803 -22.315 2.795 C-23.281 2.785 -24.247 2.775 -25.242 2.765 C-28.445 2.733 -31.648 2.708 -34.852 2.684 C-37.068 2.663 -39.285 2.642 -41.502 2.621 C-47.344 2.565 -53.187 2.516 -59.03 2.468 C-64.989 2.418 -70.948 2.362 -76.906 2.307 C-88.604 2.199 -100.302 2.098 -112 2 C-112 1.67 -112 1.34 -112 1 C-111.234 0.99 -110.468 0.979 -109.678 0.969 C-102.286 0.869 -94.895 0.766 -87.503 0.661 C-83.707 0.607 -79.911 0.553 -76.115 0.503 C-60.389 0.292 -44.664 0.039 -28.942 -0.411 C-27.519 -0.451 -26.095 -0.491 -24.671 -0.529 C-15.928 -0.735 -15.928 -0.735 -7.233 -1.592 C-3.942 -2.007 -2.671 -1.892 0 0 Z " fill="#060C12" transform="translate(493,655)" />
<path d="M0 0 C4.455 0.99 4.455 0.99 9 2 C5.76 16.449 1.924 30.724 -2 45 C-2.191 45.697 -2.383 46.393 -2.58 47.111 C-7.897 66.453 -13.297 85.767 -19 105 C-21.31 104.67 -23.62 104.34 -26 104 C-27.027 100.116 -26.902 97.589 -25.812 93.738 C-25.529 92.715 -25.246 91.691 -24.955 90.637 C-24.64 89.54 -24.325 88.443 -24 87.312 C-23.346 84.965 -22.692 82.617 -22.039 80.27 C-21.7 79.066 -21.362 77.863 -21.013 76.624 C-19.421 70.928 -17.901 65.213 -16.375 59.5 C-14.089 50.995 -11.768 42.501 -9.398 34.02 C-7.479 27.142 -5.585 20.258 -3.688 13.375 C-3.322 12.048 -2.956 10.722 -2.59 9.395 C-1.727 6.264 -0.863 3.132 0 0 Z " fill="#E3E3E6" transform="translate(655,429)" />
<path d="M0 0 C0.99 0.33 1.98 0.66 3 1 C3.66 0.67 4.32 0.34 5 0 C5.07 15.82 5.123 31.641 5.155 47.461 C5.171 54.807 5.192 62.153 5.226 69.499 C5.256 75.902 5.276 82.305 5.282 88.708 C5.286 92.098 5.295 95.487 5.317 98.877 C5.339 102.663 5.342 106.448 5.341 110.233 C5.351 111.356 5.362 112.479 5.373 113.636 C5.367 115.186 5.367 115.186 5.361 116.767 C5.364 117.662 5.366 118.557 5.369 119.479 C4.921 122.539 3.724 124.464 2 127 C0.062 126.188 0.062 126.188 -2 125 C-2.33 124.01 -2.66 123.02 -3 122 C-2.34 122 -1.68 122 -1 122 C-1.326 121.44 -1.651 120.881 -1.986 120.304 C-3.133 117.698 -3.238 115.965 -3.216 113.129 C-3.213 112.15 -3.21 111.171 -3.208 110.163 C-3.194 109.096 -3.181 108.029 -3.167 106.929 C-3.161 105.8 -3.154 104.672 -3.148 103.509 C-3.125 99.774 -3.086 96.039 -3.047 92.305 C-3.026 89.714 -3.005 87.124 -2.985 84.534 C-2.941 79.105 -2.89 73.676 -2.833 68.248 C-2.768 61.967 -2.717 55.687 -2.674 49.407 C-2.631 43.367 -2.578 37.327 -2.52 31.287 C-2.496 28.715 -2.476 26.144 -2.458 23.572 C-2.432 19.985 -2.393 16.399 -2.351 12.812 C-2.345 11.741 -2.34 10.67 -2.335 9.566 C-2.32 8.593 -2.306 7.62 -2.292 6.617 C-2.284 5.769 -2.276 4.921 -2.267 4.047 C-2 2 -2 2 0 0 Z " fill="#020103" transform="translate(367,510)" />
<path d="M0 0 C4.903 2.441 7.74 6.476 9.836 11.383 C10.516 15.46 10.47 19.456 10.404 23.582 C10.404 24.783 10.405 25.984 10.406 27.221 C10.403 30.492 10.378 33.761 10.343 37.031 C10.312 40.457 10.309 43.883 10.303 47.309 C10.287 53.787 10.246 60.264 10.196 66.741 C10.14 74.119 10.113 81.498 10.088 88.877 C10.035 104.046 9.948 119.214 9.836 134.383 C9.506 134.383 9.176 134.383 8.836 134.383 C8.506 95.113 8.176 55.843 7.836 15.383 C4.91 15.159 4.91 15.159 2.836 16.383 C2.506 53.673 2.176 90.963 1.836 129.383 C1.506 129.383 1.176 129.383 0.836 129.383 C0.834 128.789 0.831 128.195 0.829 127.582 C0.77 113.127 0.694 98.672 0.6 84.216 C0.555 77.226 0.516 70.236 0.49 63.245 C0.464 56.502 0.423 49.759 0.373 43.015 C0.356 40.44 0.345 37.864 0.338 35.288 C0.329 31.687 0.301 28.086 0.268 24.485 C0.27 22.88 0.27 22.88 0.273 21.242 C0.254 19.77 0.254 19.77 0.235 18.268 C0.23 17.416 0.225 16.564 0.221 15.687 C-0.254 12.845 -1.184 11.453 -3.164 9.383 C-5.903 8.899 -5.903 8.899 -8.852 9.133 C-10.342 9.187 -10.342 9.187 -11.863 9.242 C-12.623 9.289 -13.382 9.335 -14.164 9.383 C-15.132 12.286 -15.3 14.163 -15.322 17.185 C-15.337 18.668 -15.337 18.668 -15.352 20.181 C-15.358 21.264 -15.363 22.348 -15.369 23.464 C-15.384 25.176 -15.384 25.176 -15.399 26.923 C-15.431 30.705 -15.456 34.487 -15.48 38.27 C-15.501 40.888 -15.522 43.507 -15.543 46.126 C-15.593 52.32 -15.638 58.514 -15.681 64.709 C-15.731 71.761 -15.786 78.813 -15.841 85.864 C-15.955 100.371 -16.062 114.877 -16.164 129.383 C-16.494 129.383 -16.824 129.383 -17.164 129.383 C-17.494 90.773 -17.824 52.163 -18.164 12.383 C-18.824 13.043 -19.484 13.703 -20.164 14.383 C-21.154 15.043 -22.144 15.703 -23.164 16.383 C-23.824 15.723 -24.484 15.063 -25.164 14.383 C-25.164 9.259 -23.055 6.577 -19.832 2.898 C-14.478 -1.966 -6.73 -1.919 0 0 Z " fill="#0C161D" transform="translate(363.1640625,495.6171875)" />
<path d="M0 0 C2.375 0.062 2.375 0.062 5 1 C6.938 3.062 6.938 3.062 9 6 C13.173 11.817 17.722 17.246 22.406 22.652 C25.501 26.228 28.5 29.855 31.438 33.562 C36.797 40.188 42.898 46.068 49 52 C48.01 52.66 47.02 53.32 46 54 C46 53.34 46 52.68 46 52 C44.02 52.495 44.02 52.495 42 53 C42 53.66 42 54.32 42 55 C42.743 55.227 43.485 55.454 44.25 55.688 C47.55 57.262 48.86 59.075 51 62 C51.982 63.017 52.975 64.026 54 65 C53.01 65.495 53.01 65.495 52 66 C40.812 58.448 31.687 49.298 23 39 C22.125 37.978 21.25 36.955 20.375 35.934 C15.69 30.449 11.062 24.945 6.707 19.191 C5.436 17.56 4.112 15.969 2.762 14.402 C2.015 13.527 1.269 12.652 0.5 11.75 C-0.191 10.961 -0.882 10.172 -1.594 9.359 C-3 7 -3 7 -2.844 4.328 C-2 2 -2 2 0 0 Z " fill="#140B05" transform="translate(430,493)" />
<path d="M0 0 C0.978 -0.009 1.955 -0.018 2.963 -0.027 C6.196 -0.049 9.429 -0.034 12.662 -0.017 C14.909 -0.02 17.156 -0.025 19.403 -0.032 C24.113 -0.039 28.823 -0.028 33.533 -0.005 C39.57 0.024 45.607 0.007 51.644 -0.023 C56.284 -0.041 60.924 -0.035 65.565 -0.022 C67.791 -0.019 70.017 -0.023 72.243 -0.035 C75.355 -0.047 78.466 -0.028 81.578 0 C82.498 -0.01 83.418 -0.02 84.367 -0.031 C88.866 0.044 90.754 0.178 94.402 3.031 C96.467 5.799 97.354 7.201 97.354 10.647 C95.16 15.244 95.16 15.244 92.354 16.647 C92.479 15.725 92.479 15.725 92.608 14.784 C92.76 13.571 92.76 13.571 92.916 12.334 C93.021 11.534 93.125 10.733 93.233 9.909 C93.501 7.479 93.501 7.479 92.354 4.647 C60.344 4.647 28.334 4.647 -4.646 4.647 C-5.306 6.627 -5.966 8.607 -6.646 10.647 C-5.656 12.132 -5.656 12.132 -4.646 13.647 C-4.646 14.637 -4.646 15.627 -4.646 16.647 C26.374 16.647 57.394 16.647 89.354 16.647 C89.354 16.977 89.354 17.307 89.354 17.647 C76.645 17.74 63.937 17.811 51.228 17.854 C45.327 17.875 39.426 17.903 33.526 17.949 C27.833 17.992 22.14 18.016 16.447 18.026 C14.273 18.034 12.1 18.048 9.926 18.07 C6.885 18.099 3.845 18.103 0.804 18.101 C-0.098 18.115 -1 18.13 -1.929 18.145 C-8.039 18.104 -8.039 18.104 -11.174 15.744 C-13.67 12.189 -14.074 10.013 -13.646 5.647 C-10.362 -0.517 -6.307 -0.069 0 0 Z " fill="#5892BB" transform="translate(388.646240234375,656.35302734375)" />
<path d="M0 0 C1.507 0.006 3.015 0.01 4.522 0.013 C8.448 0.024 12.374 0.054 16.299 0.087 C20.322 0.118 24.345 0.131 28.367 0.146 C36.229 0.178 44.091 0.23 51.953 0.293 C52.448 2.273 52.448 2.273 52.953 4.293 C53.613 4.293 54.273 4.293 54.953 4.293 C54.953 3.633 54.953 2.973 54.953 2.293 C55.943 2.623 56.933 2.953 57.953 3.293 C57.953 3.953 57.953 4.613 57.953 5.293 C58.943 6.283 58.943 6.283 59.953 7.293 C58.67 7.308 58.67 7.308 57.361 7.324 C49.2 7.423 41.039 7.526 32.878 7.632 C28.685 7.687 24.492 7.74 20.299 7.79 C-6.387 8.11 -6.387 8.11 -33.047 9.293 C-32.408 8.86 -31.768 8.427 -31.109 7.98 C-28.779 6.381 -28.779 6.381 -28.047 3.293 C-19.241 -0.537 -9.404 -0.104 0 0 Z " fill="#040102" transform="translate(427.046875,586.70703125)" />
<path d="M0 0 C0.753 -0.022 1.506 -0.044 2.281 -0.066 C5.795 0.93 6.63 2.422 8.5 5.562 C9.094 9.38 9.026 13.166 8.986 17.022 C8.99 18.18 8.993 19.339 8.997 20.532 C9.005 24.359 8.983 28.185 8.961 32.012 C8.959 34.668 8.958 37.324 8.958 39.98 C8.956 45.544 8.939 51.108 8.912 56.672 C8.88 63.109 8.87 69.545 8.871 75.982 C8.872 82.174 8.862 88.366 8.846 94.558 C8.839 97.194 8.835 99.83 8.834 102.466 C8.829 106.141 8.812 109.816 8.791 113.491 C8.791 114.589 8.792 115.686 8.793 116.817 C8.78 118.313 8.78 118.313 8.767 119.838 C8.764 120.707 8.761 121.576 8.757 122.472 C8.5 124.562 8.5 124.562 6.5 126.562 C5.51 123.592 5.51 123.592 4.5 120.562 C5.16 120.562 5.82 120.562 6.5 120.562 C6.392 108.261 6.279 95.959 6.161 83.657 C6.106 77.943 6.053 72.228 6.003 66.514 C5.954 60.983 5.902 55.452 5.847 49.922 C5.827 47.828 5.808 45.735 5.791 43.641 C5.68 30.257 5.279 16.925 4.5 3.562 C0.871 3.283 -1.665 3.11 -4.909 4.869 C-7.498 9.253 -7.021 13.67 -6.954 18.665 C-6.955 19.797 -6.955 20.929 -6.956 22.095 C-6.953 25.84 -6.922 29.584 -6.891 33.328 C-6.883 35.923 -6.877 38.518 -6.873 41.113 C-6.86 47.247 -6.828 53.381 -6.788 59.515 C-6.743 66.499 -6.721 73.483 -6.701 80.468 C-6.659 94.833 -6.589 109.198 -6.5 123.562 C-5.84 123.562 -5.18 123.562 -4.5 123.562 C-4.17 125.212 -3.84 126.862 -3.5 128.562 C-1.52 128.562 0.46 128.562 2.5 128.562 C2.5 129.222 2.5 129.882 2.5 130.562 C-2.895 131.053 -2.895 131.053 -5.812 128.688 C-8.335 125.511 -8.628 123.785 -8.647 119.793 C-8.654 118.787 -8.661 117.78 -8.669 116.743 C-8.672 115.634 -8.674 114.526 -8.677 113.383 C-8.684 112.219 -8.69 111.055 -8.697 109.855 C-8.717 105.989 -8.728 102.124 -8.738 98.258 C-8.742 96.941 -8.746 95.624 -8.751 94.267 C-8.77 88.017 -8.784 81.768 -8.792 75.519 C-8.802 68.303 -8.828 61.087 -8.869 53.87 C-8.899 48.294 -8.914 42.718 -8.917 37.141 C-8.919 33.81 -8.93 30.479 -8.953 27.148 C-8.978 23.432 -8.977 19.717 -8.97 16 C-8.983 14.896 -8.996 13.791 -9.009 12.653 C-9.002 11.641 -8.995 10.629 -8.988 9.586 C-8.99 8.707 -8.993 7.828 -8.995 6.923 C-7.99 2.132 -4.715 -0.008 0 0 Z " fill="#5A8DB6" transform="translate(355.5,503.4375)" />
<path d="M0 0 C3.227 1.751 5.075 3.126 7.129 6.207 C7.733 10.393 7.546 14.141 6.004 18.082 C2.897 21.603 -0.262 22.972 -4.871 23.645 C-8.729 23.082 -10.842 21.617 -13.871 19.207 C-16.7 14.964 -16.524 11.19 -15.871 6.207 C-12.375 0.214 -6.841 -2.899 0 0 Z " fill="#090909" transform="translate(434.87109375,753.79296875)" />
</svg>