<?xml version='1.0' encoding='utf-8'?>
<svg xmlns="http://www.w3.org/2000/svg" version="1.1" width="769" height="719" viewBox="28.0 243.883 769.527 719.958">
<path d="M0 0 C2.897 -0.117 4.39 -0.123 7 1 C9.641 4.022 11.424 7.474 13.312 11 C14.437 13.009 15.562 15.019 16.688 17.027 C17.241 18.033 17.794 19.038 18.363 20.074 C19.875 22.776 21.444 25.427 23.062 28.066 C23.529 28.83 23.995 29.594 24.475 30.381 C25.346 31.801 26.222 33.218 27.105 34.631 C29.251 38.198 30.657 40.796 30 45 C28.812 46.812 28.812 46.812 27 48 C24.602 48.344 24.602 48.344 22 48 C20.191 46.199 20.191 46.199 18.562 43.688 C18.028 42.887 17.493 42.086 16.941 41.262 C14.158 36.586 11.606 31.777 9 27 C8.67 179.13 8.34 331.26 8 488 C174.98 487.67 341.96 487.34 514 487 C510.37 485.02 506.74 483.04 503 481 C502 480 502 480 501.812 476.562 C502 473 502 473 504 471 C508.053 470.501 510.206 471.403 513.566 473.609 C519.196 477.163 525.018 480.212 530.938 483.25 C532.968 484.295 534.998 485.342 537.027 486.391 C537.912 486.845 538.796 487.299 539.707 487.767 C542 489 542 489 545 491 C545.527 493.891 545.527 493.891 545 497 C542.754 498.984 542.754 498.984 539.562 500.75 C538.991 501.076 538.419 501.402 537.83 501.737 C536.575 502.452 535.315 503.158 534.05 503.855 C531.117 505.493 528.235 507.215 525.347 508.931 C522.556 510.588 519.757 512.233 516.948 513.86 C515.643 514.624 514.346 515.402 513.057 516.194 C508.37 519.027 508.37 519.027 504.562 518.75 C503.717 518.503 502.871 518.255 502 518 C501.67 515.69 501.34 513.38 501 511 C503.991 508.986 506.992 506.988 510 505 C510.75 504.501 511.5 504.002 512.273 503.488 C512.967 503.038 513.66 502.589 514.375 502.125 C515.315 501.51 515.315 501.51 516.273 500.883 C518 500 518 500 521 500 C521 499.34 521 498.68 521 498 C519.898 498.001 518.797 498.002 517.662 498.002 C469.132 498.036 420.603 498.066 372.073 498.085 C370.972 498.085 370.972 498.085 369.848 498.086 C353.894 498.092 337.94 498.097 321.985 498.102 C314.162 498.105 306.338 498.107 298.515 498.11 C297.736 498.11 296.958 498.11 296.155 498.111 C270.9 498.119 245.644 498.134 220.389 498.153 C194.445 498.171 168.502 498.184 142.558 498.188 C138.898 498.188 135.237 498.189 131.577 498.19 C130.856 498.19 130.136 498.19 129.393 498.19 C117.774 498.193 106.156 498.202 94.537 498.214 C82.869 498.225 71.201 498.23 59.533 498.227 C53.205 498.226 46.878 498.228 40.551 498.238 C34.768 498.248 28.984 498.249 23.201 498.242 C21.1 498.241 18.999 498.244 16.898 498.25 C14.06 498.258 11.221 498.254 8.383 498.246 C7.137 498.254 7.137 498.254 5.866 498.262 C0.228 498.228 0.228 498.228 -2 496 C-2.2 493.441 -2.274 490.99 -2.262 488.429 C-2.266 487.635 -2.27 486.841 -2.274 486.023 C-2.285 483.333 -2.282 480.644 -2.278 477.954 C-2.283 476.018 -2.289 474.082 -2.296 472.146 C-2.312 466.803 -2.315 461.46 -2.317 456.117 C-2.32 450.364 -2.336 444.611 -2.349 438.857 C-2.372 428.882 -2.387 418.907 -2.397 408.932 C-2.411 394.509 -2.437 380.086 -2.465 365.664 C-2.511 342.266 -2.547 318.868 -2.578 295.471 C-2.608 272.737 -2.643 250.003 -2.683 227.269 C-2.684 226.568 -2.685 225.868 -2.686 225.146 C-2.699 218.112 -2.711 211.078 -2.724 204.044 C-2.749 189.714 -2.774 175.384 -2.799 161.054 C-2.801 159.738 -2.803 158.422 -2.806 157.066 C-2.88 113.711 -2.941 70.355 -3 27 C-3.323 27.565 -3.645 28.13 -3.978 28.712 C-5.44 31.269 -6.908 33.822 -8.375 36.375 C-8.883 37.264 -9.391 38.154 -9.914 39.07 C-10.404 39.921 -10.894 40.772 -11.398 41.648 C-11.849 42.434 -12.299 43.219 -12.763 44.029 C-14 46 -14 46 -16 48 C-18.438 48.375 -18.438 48.375 -21 48 C-22.875 46.312 -22.875 46.312 -24 44 C-23.685 38.843 -20.768 34.76 -18.188 30.438 C-17.466 29.21 -17.466 29.21 -16.729 27.958 C-15.162 25.3 -13.583 22.649 -12 20 C-11.441 19.063 -10.882 18.125 -10.306 17.159 C-6.886 11.43 -3.45 5.711 0 0 Z " fill="#2F2F30" transform="translate(242,254)" />
<path d="M0 0 C2 2 2 2 2.095 4.16 C1.379 11.566 -0.268 18.436 -2.375 25.562 C-2.679 26.621 -2.983 27.68 -3.297 28.771 C-5.149 35.195 -7.066 41.6 -9 48 C-12.465 48.495 -12.465 48.495 -16 49 C-19.3 44.38 -22.6 39.76 -26 35 C-29.391 36.696 -30.794 37.583 -33.25 40.188 C-35.608 42.615 -37.995 44.92 -40.562 47.125 C-45.063 51.002 -49.393 55.055 -53.725 59.118 C-56.754 61.95 -59.817 64.728 -62.949 67.445 C-67.012 70.979 -70.913 74.664 -74.812 78.375 C-80.265 83.534 -85.809 88.407 -91.68 93.086 C-94.416 95.343 -96.871 97.782 -99.336 100.328 C-101.729 102.733 -104.29 104.923 -106.855 107.141 C-114.045 113.374 -121.008 119.855 -127.967 126.342 C-131.526 129.652 -135.131 132.889 -138.812 136.062 C-141.926 138.82 -144.959 141.663 -148 144.5 C-151.669 147.922 -155.332 151.34 -159.125 154.625 C-159.714 155.141 -160.303 155.656 -160.91 156.188 C-162.104 157.223 -163.302 158.255 -164.511 159.273 C-166.209 160.709 -167.886 162.165 -169.562 163.625 C-170.112 164.081 -170.662 164.537 -171.229 165.006 C-172.969 166.476 -172.969 166.476 -175 169 C-174.969 171.569 -174.969 171.569 -174 174 C-173.461 180.356 -173.547 186.46 -177 192 C-181.848 197.426 -186.445 200.535 -193.758 201.281 C-200.889 201.639 -205.585 200.759 -211 196 C-214.322 192.588 -216.915 188.682 -218 184 C-217.831 182.24 -217.639 180.482 -217.43 178.727 C-217.399 175.149 -217.475 173.598 -219.861 170.878 C-222.611 168.877 -225.414 167.173 -228.375 165.5 C-229.941 164.55 -229.941 164.55 -231.539 163.582 C-233.666 162.296 -235.804 161.028 -237.952 159.776 C-241.452 157.736 -244.9 155.62 -248.347 153.491 C-250.525 152.148 -252.712 150.823 -254.902 149.5 C-258.851 147.105 -262.746 144.631 -266.625 142.125 C-267.196 141.758 -267.767 141.391 -268.355 141.013 C-270.755 139.466 -273.14 137.904 -275.5 136.297 C-278.982 133.714 -278.982 133.714 -283.086 133.289 C-285.118 133.941 -285.118 133.941 -287 135.5 C-290.793 138.344 -294.805 138.186 -299.438 138.25 C-301.106 138.289 -301.106 138.289 -302.809 138.328 C-306.325 137.967 -308.081 136.905 -311 135 C-315.542 135.717 -318.087 138.906 -321.133 142.09 C-322.916 143.914 -324.755 145.586 -326.688 147.25 C-330.096 150.192 -333.435 153.203 -336.75 156.25 C-337.511 156.949 -337.511 156.949 -338.287 157.662 C-339.859 159.107 -341.429 160.554 -343 162 C-348.927 167.459 -354.852 172.912 -360.941 178.191 C-364.448 181.272 -367.881 184.435 -371.328 187.582 C-373.611 189.648 -375.918 191.677 -378.25 193.688 C-380.768 195.873 -383.161 198.124 -385.5 200.5 C-388.424 203.47 -391.486 206.205 -394.641 208.926 C-397.599 211.526 -400.487 214.197 -403.375 216.875 C-410.107 223.112 -416.877 229.302 -423.812 235.312 C-427.977 238.939 -432.019 242.693 -436.07 246.445 C-442.261 252.176 -448.506 257.843 -454.875 263.375 C-457.785 265.907 -460.641 268.492 -463.479 271.105 C-465.037 272.539 -466.6 273.969 -468.164 275.398 C-469.837 276.933 -471.502 278.476 -473.148 280.039 C-475.656 282.35 -477.424 283.885 -480.812 284.562 C-483 284 -483 284 -485 281 C-485.391 278.039 -485.443 276.606 -483.658 274.167 C-483.039 273.609 -482.419 273.051 -481.781 272.477 C-481.095 271.848 -480.41 271.218 -479.703 270.57 C-478.613 269.607 -478.613 269.607 -477.5 268.625 C-476.804 267.991 -476.108 267.357 -475.391 266.703 C-471.251 262.946 -467.035 259.277 -462.821 255.603 C-459.526 252.703 -456.32 249.707 -453.102 246.723 C-451 245 -451 245 -449 245 C-448.67 244.01 -448.34 243.02 -448 242 C-446.609 240.598 -446.609 240.598 -444.75 239.062 C-440.904 235.804 -437.19 232.432 -433.5 229 C-430.059 225.808 -426.617 222.628 -423.062 219.562 C-419.288 216.301 -415.647 212.903 -412 209.5 C-407.766 205.55 -403.507 201.653 -399.121 197.871 C-396.202 195.296 -393.354 192.647 -390.5 190 C-386.44 186.234 -382.346 182.528 -378.156 178.906 C-375.228 176.317 -372.366 173.658 -369.5 171 C-365.44 167.234 -361.346 163.528 -357.156 159.906 C-353.64 156.798 -350.216 153.591 -346.775 150.4 C-343.906 147.744 -341.024 145.116 -338.062 142.562 C-337.167 141.758 -337.167 141.758 -336.254 140.938 C-334.345 139.297 -332.401 137.777 -330.402 136.25 C-323.557 131.146 -323.557 131.146 -319.453 123.974 C-319.159 120.477 -319.484 117.1 -319.816 113.617 C-320.043 109.153 -319.193 107.003 -316.496 103.543 C-312.396 99.315 -308.292 95.358 -302.23 94.699 C-294.45 94.669 -289.92 95.539 -283.312 99.688 C-279.35 103.65 -277.066 107.456 -276.918 113.164 C-276.928 114.846 -276.928 114.846 -276.938 116.562 C-276.874 119.807 -276.874 119.807 -276 123 C-273.895 125.046 -273.895 125.046 -271.098 126.484 C-270.098 127.068 -269.098 127.651 -268.069 128.252 C-267.056 128.829 -266.043 129.406 -265 130 C-263.254 131.097 -261.514 132.205 -259.781 133.324 C-245.136 142.658 -245.136 142.658 -230.445 151.921 C-227.098 154.021 -223.772 156.133 -220.516 158.371 C-219.541 159.032 -218.567 159.694 -217.562 160.375 C-216.358 161.222 -216.358 161.222 -215.129 162.086 C-213.02 163.274 -213.02 163.274 -210.867 162.266 C-210.251 161.848 -209.635 161.43 -209 161 C-203.126 157.084 -196.822 157.343 -190 158 C-188.316 158.621 -186.644 159.279 -185 160 C-182.17 160.074 -180.64 159.568 -178.516 157.684 C-177.358 156.496 -176.213 155.295 -175.078 154.086 C-172.729 151.728 -170.229 149.698 -167.625 147.625 C-163.152 144.027 -159.104 140.21 -155.098 136.105 C-152.604 133.603 -149.977 131.311 -147.297 129.012 C-144.312 126.397 -141.408 123.7 -138.5 121 C-135.08 117.828 -131.662 114.667 -128.125 111.625 C-124.149 108.191 -120.332 104.593 -116.5 101 C-112.066 96.843 -107.618 92.728 -103.012 88.762 C-100.344 86.425 -97.735 84.026 -95.125 81.625 C-88.998 75.989 -82.816 70.416 -76.613 64.863 C-71.306 60.103 -66.053 55.289 -60.822 50.447 C-56.745 46.678 -52.634 42.951 -48.5 39.246 C-43.98 35.186 -39.492 31.091 -35 27 C-37.811 24.121 -40.599 21.478 -43.812 19.062 C-46.487 16.808 -46.933 16.347 -47.625 12.75 C-47 10 -47 10 -44 8 C-41.741 7.373 -39.46 6.819 -37.172 6.309 C-36.171 6.083 -36.171 6.083 -35.15 5.854 C-33.738 5.537 -32.326 5.224 -30.914 4.913 C-28.77 4.442 -26.629 3.961 -24.488 3.479 C-6.785 -0.473 -6.785 -0.473 0 0 Z " fill="#352D2C" transform="translate(761,266)" />
<path d="M0 0 C2.25 0.438 2.25 0.438 4.25 2.438 C4.676 5.262 4.676 5.262 4.25 8.438 C2.23 10.895 2.23 10.895 -0.562 13.25 C-1.06 13.678 -1.558 14.106 -2.071 14.547 C-3.614 15.865 -5.177 17.155 -6.75 18.438 C-7.648 19.171 -8.547 19.904 -9.473 20.66 C-11.269 22.117 -13.067 23.572 -14.867 25.023 C-18.097 27.728 -21.176 30.559 -24.25 33.438 C-29.03 37.913 -33.952 42.115 -39.059 46.219 C-42.894 49.381 -46.538 52.737 -50.199 56.098 C-55.352 60.824 -60.627 65.352 -66.062 69.75 C-70.93 73.708 -75.582 77.856 -80.199 82.102 C-82.981 84.649 -85.815 87.127 -88.664 89.598 C-91.185 91.821 -93.652 94.099 -96.125 96.375 C-100.379 100.26 -104.761 103.888 -109.289 107.445 C-112.714 110.218 -115.938 113.191 -119.191 116.16 C-121.776 118.461 -124.429 120.643 -127.125 122.812 C-131.679 126.495 -135.987 130.367 -140.271 134.353 C-143.483 137.324 -146.776 140.137 -150.188 142.875 C-154.966 146.719 -159.442 150.807 -163.914 154.996 C-167.261 158.113 -170.68 161.073 -174.25 163.938 C-179.092 167.824 -183.671 171.933 -188.167 176.211 C-191.005 178.902 -193.786 181.161 -197.062 183.312 C-198.761 184.558 -198.761 184.558 -199.75 186.438 C-200.019 189.96 -199.866 193.363 -199.695 196.891 C-199.779 202.313 -201.474 206.166 -204.75 210.438 C-211.448 216.81 -217.091 217.868 -226.227 217.773 C-231.167 217.302 -234.265 215.957 -237.75 212.438 C-242.13 206.781 -243.886 202.196 -243.812 195 C-243.803 193.867 -243.794 192.734 -243.785 191.566 C-243.768 190.018 -243.768 190.018 -243.75 188.438 C-243.324 184.372 -243.324 184.372 -245.966 181.768 C-246.981 180.753 -248.008 179.749 -249.043 178.754 C-249.858 177.948 -249.858 177.948 -250.689 177.125 C-252.429 175.407 -254.183 173.704 -255.938 172 C-257.101 170.857 -258.263 169.713 -259.424 168.568 C-261.573 166.452 -263.727 164.341 -265.887 162.237 C-267.768 160.404 -269.628 158.556 -271.482 156.696 C-274.242 153.947 -277.186 151.48 -280.176 148.988 C-280.695 148.477 -281.215 147.965 -281.75 147.438 C-281.75 146.778 -281.75 146.118 -281.75 145.438 C-282.339 145.184 -282.928 144.93 -283.535 144.668 C-285.974 143.313 -287.354 141.837 -289.188 139.75 C-290.934 137.871 -290.934 137.871 -292.75 136.438 C-295.492 136.251 -295.492 136.251 -297.75 137.438 C-301.053 138.539 -303.648 138.64 -307.125 138.688 C-308.246 138.713 -309.368 138.739 -310.523 138.766 C-314.076 138.404 -315.753 137.262 -318.75 135.438 C-322.025 135.831 -323.708 137.013 -326.035 139.281 C-326.642 139.863 -327.25 140.446 -327.875 141.045 C-328.515 141.67 -329.154 142.294 -329.812 142.938 C-334.215 147.149 -338.609 151.258 -343.375 155.062 C-348.742 159.349 -353.735 163.974 -358.754 168.656 C-361.692 171.396 -364.698 174.046 -367.738 176.672 C-370.216 178.847 -372.636 181.081 -375.062 183.312 C-379.567 187.426 -384.213 191.299 -388.965 195.121 C-392.967 198.45 -396.748 201.997 -400.535 205.566 C-402.75 207.438 -402.75 207.438 -404.75 207.438 C-404.75 208.097 -404.75 208.757 -404.75 209.438 C-406.262 210.788 -407.838 212.067 -409.438 213.312 C-413.937 216.907 -418.229 220.632 -422.438 224.562 C-426.505 228.357 -430.595 232.101 -434.805 235.738 C-437.087 237.732 -439.322 239.772 -441.562 241.812 C-445.004 244.923 -448.513 247.902 -452.125 250.812 C-457.259 254.964 -462.101 259.357 -466.926 263.859 C-475.227 271.438 -475.227 271.438 -477.75 271.438 C-477.75 272.098 -477.75 272.757 -477.75 273.438 C-480.127 275.815 -481.504 276.408 -484.875 276.812 C-485.824 276.689 -486.772 276.565 -487.75 276.438 C-489.75 273.438 -489.75 273.438 -489.742 271.109 C-488.353 267.369 -485.811 265.244 -482.875 262.688 C-482.288 262.161 -481.701 261.634 -481.096 261.092 C-476.695 257.176 -472.143 253.458 -467.551 249.77 C-463.839 246.679 -460.33 243.395 -456.803 240.096 C-452.237 235.843 -447.533 231.772 -442.777 227.734 C-439.319 224.794 -435.918 221.808 -432.562 218.75 C-429.152 215.648 -425.653 212.705 -422.062 209.812 C-418.964 207.308 -416.017 204.804 -413.25 201.938 C-409.677 198.237 -405.711 195.111 -401.707 191.891 C-398.624 189.333 -395.68 186.667 -392.75 183.938 C-389.084 180.525 -385.353 177.251 -381.438 174.125 C-376.14 169.867 -371.236 165.261 -366.302 160.595 C-361.862 156.417 -357.269 152.525 -352.504 148.719 C-349.251 146.024 -346.154 143.19 -343.062 140.312 C-342.513 139.802 -341.964 139.291 -341.399 138.764 C-340.339 137.777 -339.279 136.789 -338.219 135.802 C-336.183 133.911 -334.133 132.04 -332.062 130.188 C-331.16 129.375 -331.16 129.375 -330.238 128.547 C-328.75 127.438 -328.75 127.438 -326.75 127.438 C-327.08 126.798 -327.41 126.159 -327.75 125.5 C-329.817 119.168 -329.253 112.58 -326.75 106.438 C-322.901 100.832 -318.547 96.831 -311.75 95.438 C-304.804 94.743 -299.188 94.702 -293.434 98.949 C-288.478 103.33 -285.07 107.768 -284.602 114.605 C-284.544 118.022 -284.611 120.943 -285.54 124.255 C-286.083 127.524 -286.083 127.524 -283.972 130.057 C-283.082 130.932 -282.191 131.807 -281.274 132.708 C-280.542 133.441 -280.542 133.441 -279.796 134.189 C-278.184 135.797 -276.548 137.378 -274.91 138.961 C-273.786 140.072 -272.664 141.184 -271.543 142.298 C-268.591 145.224 -265.618 148.128 -262.641 151.028 C-259.605 153.991 -256.59 156.975 -253.572 159.957 C-247.651 165.804 -241.707 171.627 -235.75 177.438 C-234.829 176.951 -233.907 176.464 -232.958 175.962 C-229.332 174.239 -226.93 174.036 -222.938 174.062 C-221.704 174.07 -220.47 174.078 -219.199 174.086 C-215.857 174.427 -214.131 175.098 -211.25 176.688 C-209.141 177.673 -209.141 177.673 -206.75 177.438 C-202.233 174.531 -198.503 170.975 -194.654 167.249 C-191.502 164.25 -188.182 161.451 -184.875 158.625 C-183.607 157.527 -182.34 156.428 -181.074 155.328 C-180.203 154.571 -180.203 154.571 -179.314 153.799 C-177.434 152.163 -175.56 150.52 -173.688 148.875 C-170.721 146.27 -167.723 143.703 -164.721 141.139 C-159.202 136.426 -153.749 131.66 -148.375 126.781 C-144.612 123.421 -140.768 120.157 -136.928 116.885 C-133.423 113.892 -129.97 110.854 -126.562 107.75 C-122.326 103.902 -117.927 100.296 -113.48 96.695 C-109.914 93.746 -106.49 90.656 -103.066 87.543 C-98.626 83.507 -94.094 79.58 -89.527 75.688 C-83.969 70.947 -78.441 66.197 -73.062 61.25 C-68.68 57.227 -64.139 53.463 -59.512 49.727 C-55.655 46.53 -51.978 43.153 -48.289 39.766 C-42.126 34.115 -35.746 28.712 -29.393 23.278 C-24.208 18.839 -19.049 14.371 -13.9 9.89 C-12.74 8.882 -11.579 7.877 -10.415 6.874 C-9.297 5.91 -8.185 4.94 -7.077 3.964 C-3.058 0.487 -3.058 0.487 0 0 Z " fill="#2E2F30" transform="translate(765.75,457.5625)" />
<path d="M0 0 C2 2 2 2 2.109 4.703 C0.471 9.571 -2.763 11.682 -6.75 14.75 C-7.521 15.363 -8.291 15.975 -9.085 16.607 C-11.377 18.422 -13.685 20.214 -16 22 C-17.176 22.915 -18.352 23.831 -19.527 24.746 C-21.623 26.365 -23.725 27.977 -25.832 29.582 C-34.913 36.513 -43.831 43.653 -52.743 50.798 C-56.687 53.957 -60.652 57.085 -64.648 60.176 C-67.672 62.521 -70.68 64.885 -73.688 67.25 C-74.287 67.721 -74.887 68.193 -75.505 68.679 C-78.464 71.005 -81.422 73.332 -84.379 75.66 C-85.503 76.544 -86.626 77.428 -87.75 78.312 C-88.318 78.76 -88.886 79.207 -89.472 79.667 C-92.745 82.24 -96.028 84.8 -99.32 87.348 C-106.656 93.028 -113.952 98.74 -121.125 104.625 C-127.017 109.455 -133.03 114.083 -139.146 118.626 C-144.01 122.243 -148.826 125.912 -153.542 129.722 C-156.884 132.408 -160.29 134.903 -163.84 137.309 C-172.804 143.044 -172.804 143.044 -178.188 151.723 C-178.369 155.349 -178.369 155.349 -178.102 158.863 C-177.946 163.682 -179.849 166.511 -183 170 C-187.739 174.839 -192.067 177.065 -198.812 177.312 C-204.775 177.144 -209.511 176.312 -213.98 172.16 C-218.647 166.993 -221.295 163.375 -221.125 156.25 C-221.107 155.265 -221.089 154.28 -221.07 153.266 C-221.036 152.144 -221.036 152.144 -221 151 C-222.213 150.626 -223.426 150.252 -224.676 149.867 C-231.047 147.74 -237.084 144.914 -243.188 142.125 C-245.746 140.964 -248.306 139.808 -250.867 138.652 C-251.525 138.355 -252.182 138.059 -252.859 137.753 C-260.477 134.321 -268.142 131 -275.812 127.688 C-276.813 127.255 -276.813 127.255 -277.834 126.814 C-281.555 125.207 -285.277 123.602 -289 122 C-289.519 122.41 -290.039 122.82 -290.574 123.242 C-298.704 129.523 -304.659 130.925 -315 130 C-318.563 128.375 -318.563 128.375 -321 127 C-325.236 128.563 -328.517 131.723 -331.977 134.539 C-334 136 -334 136 -336 136 C-336.33 136.99 -336.66 137.98 -337 139 C-338.609 140.438 -338.609 140.438 -340.75 142 C-344.742 145.003 -348.578 148.132 -352.375 151.375 C-359.413 157.367 -366.557 163.222 -373.75 169.027 C-380.944 174.841 -388.063 180.72 -395.066 186.763 C-400.89 191.784 -406.842 196.637 -412.82 201.472 C-414.839 203.106 -416.857 204.74 -418.875 206.375 C-419.558 206.928 -420.24 207.481 -420.943 208.051 C-425.845 212.035 -430.681 216.09 -435.488 220.187 C-439.398 223.512 -443.388 226.722 -447.41 229.91 C-450.461 232.372 -453.451 234.898 -456.438 237.438 C-461.369 241.63 -466.33 245.781 -471.363 249.852 C-473.171 251.324 -474.959 252.82 -476.73 254.336 C-478.04 255.438 -478.04 255.438 -479.375 256.562 C-480.146 257.224 -480.917 257.885 -481.711 258.566 C-484.413 260.259 -485.867 260.456 -489 260 C-491 258 -491 258 -491.625 255.312 C-490.641 250.097 -487.063 248.144 -483 245 C-481.227 243.545 -479.456 242.086 -477.688 240.625 C-475.793 239.082 -473.897 237.54 -472 236 C-466.097 231.202 -460.233 226.366 -454.438 221.438 C-449.863 217.548 -445.229 213.754 -440.523 210.023 C-436.634 206.904 -432.819 203.696 -428.996 200.496 C-426.222 198.185 -423.428 195.901 -420.625 193.625 C-416.337 190.129 -412.127 186.551 -407.938 182.938 C-403.08 178.749 -398.164 174.661 -393.125 170.691 C-391.211 169.168 -389.352 167.598 -387.5 166 C-385 164 -385 164 -383 164 C-383 163.34 -383 162.68 -383 162 C-381.488 160.66 -381.488 160.66 -379.312 159.062 C-375.303 156.035 -371.444 152.886 -367.625 149.625 C-362.742 145.464 -357.807 141.375 -352.828 137.328 C-350.76 135.626 -348.71 133.91 -346.672 132.172 C-346.106 131.69 -345.541 131.208 -344.958 130.712 C-343.828 129.745 -342.703 128.772 -341.583 127.794 C-338.739 125.336 -336.055 123.452 -332.688 121.812 C-329.66 118.644 -329.712 117.56 -329.741 113.354 C-329.789 111.909 -329.844 110.464 -329.907 109.019 C-330.136 103.307 -329.691 99.434 -326 95 C-321.965 90.844 -317.948 87.335 -312.047 86.664 C-304.032 86.569 -298.22 87.016 -292.254 92.648 C-286.793 98.647 -285.689 104.107 -285 112 C-284.424 112.224 -283.848 112.448 -283.254 112.679 C-276.226 115.449 -269.33 118.473 -262.438 121.562 C-260.056 122.625 -257.675 123.688 -255.293 124.75 C-254.088 125.288 -252.883 125.825 -251.642 126.379 C-245.852 128.956 -240.052 131.511 -234.25 134.062 C-233.222 134.515 -232.194 134.968 -231.135 135.434 C-226.1 137.647 -221.06 139.845 -216 142 C-215.67 141.01 -215.34 140.02 -215 139 C-210.643 134.424 -205.693 133.578 -199.562 133.375 C-192.907 133.575 -188.295 134.982 -183 139 C-182.198 138.368 -181.396 137.737 -180.57 137.086 C-173.707 131.684 -166.831 126.301 -159.938 120.938 C-158.786 120.041 -158.786 120.041 -157.61 119.127 C-154.258 116.521 -150.903 113.92 -147.527 111.344 C-141.603 106.822 -135.771 102.215 -130 97.5 C-123.692 92.346 -117.298 87.338 -110.822 82.396 C-102.278 75.852 -93.728 69.302 -85.438 62.438 C-80.136 58.052 -74.669 53.896 -69.194 49.731 C-64.58 46.218 -60.017 42.654 -55.504 39.012 C-52.437 36.548 -49.345 34.116 -46.25 31.688 C-45.36 30.989 -45.36 30.989 -44.452 30.277 C-43.24 29.326 -42.027 28.374 -40.814 27.423 C-37.875 25.117 -34.938 22.809 -32 20.5 C-28.395 17.667 -24.79 14.835 -21.184 12.004 C-20.556 11.511 -19.929 11.019 -19.283 10.512 C-18.091 9.575 -16.898 8.639 -15.705 7.703 C-13.203 5.738 -10.724 3.766 -8.297 1.707 C-5.345 -0.487 -3.596 -0.48 0 0 Z " fill="#322F2C" transform="translate(768,377)" />
<path d="M0 0 C2 2 2 2 2.095 4.16 C1.379 11.566 -0.268 18.436 -2.375 25.562 C-2.679 26.621 -2.983 27.68 -3.297 28.771 C-5.149 35.195 -7.066 41.6 -9 48 C-12.465 48.495 -12.465 48.495 -16 49 C-19.3 44.38 -22.6 39.76 -26 35 C-29.391 36.696 -30.794 37.583 -33.25 40.188 C-35.608 42.615 -37.995 44.92 -40.562 47.125 C-45.063 51.002 -49.393 55.055 -53.725 59.118 C-56.754 61.95 -59.817 64.728 -62.949 67.445 C-67.012 70.979 -70.913 74.664 -74.812 78.375 C-80.265 83.534 -85.809 88.407 -91.68 93.086 C-94.416 95.343 -96.871 97.782 -99.336 100.328 C-101.729 102.733 -104.29 104.923 -106.855 107.141 C-114.045 113.374 -121.008 119.855 -127.967 126.342 C-131.526 129.652 -135.131 132.889 -138.812 136.062 C-141.926 138.82 -144.959 141.663 -148 144.5 C-151.669 147.922 -155.332 151.34 -159.125 154.625 C-159.714 155.141 -160.303 155.656 -160.91 156.188 C-162.104 157.223 -163.302 158.255 -164.511 159.273 C-166.209 160.709 -167.886 162.165 -169.562 163.625 C-170.112 164.081 -170.662 164.537 -171.229 165.006 C-172.969 166.476 -172.969 166.476 -175 169 C-174.969 171.569 -174.969 171.569 -174 174 C-173.461 180.356 -173.547 186.46 -177 192 C-181.843 197.42 -186.461 200.6 -193.793 201.246 C-200.474 201.52 -204.57 200.949 -210 197 C-210 194.36 -210 191.72 -210 189 C-207.249 189.621 -204.824 190.487 -202.25 191.625 C-197.764 193.347 -194.665 193.046 -190 192 C-189.01 191.01 -189.01 191.01 -188 190 C-186.68 190 -185.36 190 -184 190 C-183.053 185.672 -182.356 181.416 -182 177 C-182.66 176.01 -183.32 175.02 -184 174 C-184 173.01 -184 172.02 -184 171 C-184.99 170.67 -185.98 170.34 -187 170 C-187.66 169.34 -188.32 168.68 -189 168 C-189 167.01 -189 166.02 -189 165 C-187.35 164.67 -185.7 164.34 -184 164 C-184 163.01 -184 162.02 -184 161 C-182.599 160.018 -181.189 159.046 -179.733 158.147 C-176.736 156.163 -174.225 153.657 -171.625 151.188 C-170.469 150.105 -169.313 149.023 -168.156 147.941 C-167.607 147.427 -167.058 146.913 -166.492 146.383 C-164.737 144.756 -162.942 143.183 -161.125 141.625 C-157.149 138.191 -153.332 134.593 -149.5 131 C-145.064 126.84 -140.611 122.724 -136.004 118.754 C-131.789 115.065 -127.694 111.242 -123.573 107.448 C-114.959 99.518 -106.295 91.645 -97.578 83.828 C-92.459 79.231 -87.377 74.597 -82.314 69.939 C-79.638 67.483 -76.94 65.058 -74.188 62.688 C-70.194 59.229 -66.353 55.613 -62.5 52 C-58.079 47.855 -53.645 43.75 -49.051 39.797 C-44.286 35.622 -39.658 31.293 -35 27 C-37.811 24.121 -40.599 21.478 -43.812 19.062 C-46.487 16.808 -46.933 16.347 -47.625 12.75 C-47 10 -47 10 -44 8 C-41.741 7.373 -39.46 6.819 -37.172 6.309 C-36.505 6.158 -35.837 6.008 -35.15 5.854 C-33.738 5.537 -32.326 5.224 -30.914 4.913 C-28.77 4.442 -26.629 3.961 -24.488 3.479 C-6.785 -0.473 -6.785 -0.473 0 0 Z " fill="#2F2F2F" transform="translate(761,266)" />
<path d="M0 0 C0.804 0.959 0.804 0.959 1.625 1.938 C5.726 5.499 9.889 5.005 15.062 4.812 C18.641 4.775 19.81 4.889 23 6.75 C26.566 10.762 27.465 13.509 27.32 19.031 C26.802 22.216 25.332 23.862 23 26 C21.671 26.352 20.338 26.688 19 27 C17.898 28.698 17.898 28.698 17 31 C16.304 32.257 15.595 33.507 14.875 34.75 C14.256 35.822 13.637 36.895 13 38 C9.424 37.571 6.413 37.188 3.117 35.688 C-0.101 34.601 -0.101 34.601 -2.922 36.773 C-3.855 37.632 -4.788 38.49 -5.75 39.375 C-10.864 44 -10.864 44 -13 44 C-13.33 44.99 -13.66 45.98 -14 47 C-15.609 48.438 -15.609 48.438 -17.75 50 C-21.742 53.003 -25.578 56.132 -29.375 59.375 C-36.413 65.367 -43.557 71.222 -50.75 77.027 C-57.944 82.841 -65.063 88.72 -72.066 94.763 C-77.89 99.784 -83.842 104.637 -89.82 109.472 C-91.839 111.106 -93.857 112.74 -95.875 114.375 C-96.558 114.928 -97.24 115.481 -97.943 116.051 C-102.845 120.035 -107.681 124.09 -112.488 128.187 C-116.398 131.512 -120.388 134.722 -124.41 137.91 C-127.461 140.372 -130.451 142.898 -133.438 145.438 C-138.369 149.63 -143.33 153.781 -148.363 157.852 C-150.171 159.324 -151.959 160.82 -153.73 162.336 C-155.04 163.438 -155.04 163.438 -156.375 164.562 C-157.146 165.224 -157.917 165.885 -158.711 166.566 C-161.413 168.259 -162.867 168.456 -166 168 C-168 166 -168 166 -168.625 163.312 C-167.641 158.097 -164.063 156.144 -160 153 C-158.227 151.545 -156.456 150.086 -154.688 148.625 C-152.793 147.082 -150.897 145.54 -149 144 C-143.097 139.202 -137.233 134.366 -131.438 129.438 C-126.863 125.548 -122.229 121.754 -117.523 118.023 C-113.634 114.904 -109.819 111.696 -105.996 108.496 C-103.222 106.185 -100.428 103.901 -97.625 101.625 C-93.337 98.129 -89.127 94.551 -84.938 90.938 C-80.08 86.749 -75.164 82.661 -70.125 78.691 C-68.211 77.168 -66.352 75.598 -64.5 74 C-62 72 -62 72 -60 72 C-60 71.34 -60 70.68 -60 70 C-58.488 68.66 -58.488 68.66 -56.312 67.062 C-52.303 64.035 -48.444 60.886 -44.625 57.625 C-39.742 53.464 -34.807 49.375 -29.828 45.328 C-27.76 43.626 -25.71 41.91 -23.672 40.172 C-23.106 39.69 -22.541 39.208 -21.958 38.712 C-20.828 37.745 -19.703 36.772 -18.583 35.794 C-15.739 33.336 -13.055 31.452 -9.688 29.812 C-6.66 26.644 -6.713 25.559 -6.74 21.353 C-6.788 19.91 -6.847 18.468 -6.916 17.026 C-7.176 11.033 -6.363 7.901 -3 3 C-2.019 1.981 -1.023 0.976 0 0 Z " fill="#313131" transform="translate(445,469)" />
<path d="M0 0 C2.25 0.438 2.25 0.438 4.25 2.438 C4.676 5.262 4.676 5.262 4.25 8.438 C2.23 10.895 2.23 10.895 -0.562 13.25 C-1.06 13.678 -1.558 14.106 -2.071 14.547 C-3.614 15.865 -5.177 17.155 -6.75 18.438 C-7.648 19.171 -8.547 19.904 -9.473 20.66 C-11.269 22.117 -13.067 23.572 -14.867 25.023 C-18.097 27.728 -21.176 30.559 -24.25 33.438 C-29.03 37.913 -33.952 42.115 -39.059 46.219 C-42.894 49.381 -46.538 52.737 -50.199 56.098 C-55.352 60.824 -60.627 65.352 -66.062 69.75 C-70.93 73.708 -75.582 77.856 -80.199 82.102 C-82.981 84.649 -85.815 87.127 -88.664 89.598 C-91.185 91.821 -93.652 94.099 -96.125 96.375 C-100.379 100.26 -104.761 103.888 -109.289 107.445 C-112.714 110.218 -115.938 113.191 -119.191 116.16 C-121.776 118.461 -124.429 120.643 -127.125 122.812 C-131.679 126.495 -135.987 130.367 -140.271 134.353 C-143.483 137.324 -146.776 140.137 -150.188 142.875 C-154.966 146.719 -159.442 150.807 -163.914 154.996 C-167.261 158.113 -170.68 161.073 -174.25 163.938 C-179.092 167.824 -183.671 171.933 -188.167 176.211 C-191.005 178.902 -193.786 181.161 -197.062 183.312 C-198.757 184.536 -198.757 184.536 -199.75 186.438 C-200.127 190.131 -200.065 193.591 -199.801 197.293 C-199.75 200.438 -199.75 200.438 -201.75 203.438 C-202.41 202.778 -203.07 202.118 -203.75 201.438 C-203.75 200.778 -203.75 200.118 -203.75 199.438 C-204.41 199.107 -205.07 198.778 -205.75 198.438 C-205.904 189.361 -205.904 189.361 -204.75 185.438 C-203.76 184.447 -203.76 184.447 -202.75 183.438 C-202.107 181.369 -202.107 181.369 -201.75 179.438 C-201.09 179.438 -200.43 179.438 -199.75 179.438 C-200.08 178.778 -200.41 178.118 -200.75 177.438 C-201.74 177.768 -202.73 178.097 -203.75 178.438 C-204.41 177.778 -205.07 177.118 -205.75 176.438 C-204.603 175.473 -204.603 175.473 -203.434 174.488 C-193.429 166.054 -183.52 157.51 -173.688 148.875 C-170.721 146.27 -167.723 143.703 -164.721 141.139 C-159.202 136.426 -153.749 131.66 -148.375 126.781 C-144.612 123.421 -140.768 120.157 -136.928 116.885 C-133.423 113.892 -129.97 110.854 -126.562 107.75 C-122.326 103.902 -117.927 100.296 -113.48 96.695 C-109.914 93.746 -106.49 90.656 -103.066 87.543 C-98.626 83.507 -94.094 79.58 -89.527 75.688 C-83.969 70.947 -78.441 66.197 -73.062 61.25 C-68.68 57.227 -64.139 53.463 -59.512 49.727 C-55.655 46.53 -51.978 43.153 -48.289 39.766 C-42.126 34.115 -35.746 28.712 -29.393 23.278 C-24.208 18.839 -19.049 14.371 -13.9 9.89 C-12.74 8.882 -11.579 7.877 -10.415 6.874 C-9.297 5.91 -8.185 4.94 -7.077 3.964 C-3.058 0.487 -3.058 0.487 0 0 Z " fill="#303030" transform="translate(765.75,457.5625)" />
<path d="M0 0 C1.34 2.01 2.632 4.053 3.875 6.125 C6.168 9.227 6.447 9.436 10 10 C17.637 10.801 26.113 9.443 33 6 C32.67 6.99 32.34 7.98 32 9 C32.33 9.33 32.66 9.66 33 10 C31.785 13.646 30.25 14.236 26.984 16.035 C22.315 18.306 18.749 19.294 13.5 19.312 C11.845 19.338 11.845 19.338 10.156 19.363 C6.684 18.964 4.892 17.879 2 16 C-2.542 16.717 -5.087 19.906 -8.133 23.09 C-9.916 24.914 -11.755 26.586 -13.688 28.25 C-17.096 31.192 -20.435 34.203 -23.75 37.25 C-24.257 37.716 -24.764 38.182 -25.287 38.662 C-26.859 40.107 -28.429 41.554 -30 43 C-35.927 48.459 -41.852 53.912 -47.941 59.191 C-51.448 62.272 -54.881 65.435 -58.328 68.582 C-60.611 70.648 -62.918 72.677 -65.25 74.688 C-67.768 76.873 -70.161 79.124 -72.5 81.5 C-75.424 84.47 -78.486 87.205 -81.641 89.926 C-84.599 92.526 -87.487 95.197 -90.375 97.875 C-97.107 104.112 -103.877 110.302 -110.812 116.312 C-114.977 119.939 -119.019 123.693 -123.07 127.445 C-129.261 133.176 -135.506 138.843 -141.875 144.375 C-144.785 146.907 -147.641 149.492 -150.479 152.105 C-152.037 153.539 -153.6 154.969 -155.164 156.398 C-156.837 157.933 -158.502 159.476 -160.148 161.039 C-162.656 163.35 -164.424 164.885 -167.812 165.562 C-170 165 -170 165 -172 162 C-172.391 159.039 -172.443 157.606 -170.658 155.167 C-170.039 154.609 -169.419 154.051 -168.781 153.477 C-168.095 152.847 -167.41 152.218 -166.703 151.57 C-165.976 150.928 -165.249 150.286 -164.5 149.625 C-163.804 148.991 -163.108 148.357 -162.391 147.703 C-158.251 143.946 -154.035 140.277 -149.821 136.603 C-146.526 133.703 -143.32 130.707 -140.102 127.723 C-138 126 -138 126 -136 126 C-135.505 124.515 -135.505 124.515 -135 123 C-133.609 121.598 -133.609 121.598 -131.75 120.062 C-127.904 116.804 -124.19 113.432 -120.5 110 C-117.059 106.808 -113.617 103.628 -110.062 100.562 C-106.288 97.301 -102.647 93.903 -99 90.5 C-94.766 86.55 -90.507 82.653 -86.121 78.871 C-83.202 76.296 -80.354 73.647 -77.5 71 C-73.44 67.234 -69.346 63.528 -65.156 59.906 C-62.228 57.317 -59.366 54.658 -56.5 52 C-52.44 48.234 -48.346 44.528 -44.156 40.906 C-41.228 38.317 -38.366 35.658 -35.5 33 C-31.376 29.176 -27.228 25.396 -22.969 21.723 C-19.722 18.882 -16.563 15.943 -13.395 13.016 C-11.04 11.034 -8.649 9.553 -6 8 C-2.164 4.556 -2.164 4.556 0 0 Z " fill="#303030" transform="translate(448,385)" />
<path d="M0 0 C2 2 2 2 2.109 4.703 C0.471 9.571 -2.763 11.682 -6.75 14.75 C-7.521 15.363 -8.291 15.975 -9.085 16.607 C-11.377 18.422 -13.685 20.214 -16 22 C-17.176 22.915 -18.352 23.831 -19.527 24.746 C-21.623 26.365 -23.725 27.977 -25.832 29.582 C-34.913 36.513 -43.831 43.653 -52.743 50.798 C-56.687 53.957 -60.652 57.085 -64.648 60.176 C-67.672 62.521 -70.68 64.885 -73.688 67.25 C-74.287 67.721 -74.887 68.193 -75.505 68.679 C-78.464 71.005 -81.422 73.332 -84.379 75.66 C-85.503 76.544 -86.626 77.428 -87.75 78.312 C-88.318 78.76 -88.886 79.207 -89.472 79.667 C-92.745 82.24 -96.028 84.8 -99.32 87.348 C-106.656 93.028 -113.952 98.74 -121.125 104.625 C-127.017 109.455 -133.03 114.083 -139.146 118.626 C-144.007 122.241 -148.793 125.937 -153.544 129.696 C-156.952 132.391 -160.371 135.069 -163.805 137.73 C-164.625 138.366 -165.445 139.002 -166.29 139.657 C-167.904 140.907 -169.52 142.157 -171.136 143.406 C-172.237 144.259 -172.237 144.259 -173.359 145.129 C-174.341 145.888 -174.341 145.888 -175.343 146.662 C-177.116 148.045 -177.116 148.045 -179 150 C-179.553 147.924 -180 146.156 -180 144 C-180.99 144 -181.98 144 -183 144 C-183 143.34 -183 142.68 -183 142 C-183.99 141.67 -184.98 141.34 -186 141 C-185.67 140.01 -185.34 139.02 -185 138 C-184.01 138 -183.02 138 -182 138 C-179.352 136.253 -179.352 136.253 -176.438 133.875 C-175.27 132.956 -174.102 132.036 -172.934 131.117 C-172.303 130.617 -171.673 130.116 -171.023 129.601 C-168.134 127.315 -165.224 125.057 -162.314 122.797 C-159.991 120.993 -157.672 119.186 -155.352 117.379 C-151.708 114.545 -148.045 111.738 -144.375 108.938 C-139.513 105.208 -134.745 101.377 -130 97.5 C-123.692 92.346 -117.298 87.338 -110.822 82.396 C-102.278 75.852 -93.728 69.302 -85.438 62.438 C-80.136 58.052 -74.669 53.896 -69.194 49.731 C-64.58 46.218 -60.017 42.654 -55.504 39.012 C-52.437 36.548 -49.345 34.116 -46.25 31.688 C-45.657 31.222 -45.064 30.756 -44.452 30.277 C-43.24 29.326 -42.027 28.374 -40.814 27.423 C-37.875 25.117 -34.938 22.809 -32 20.5 C-28.395 17.667 -24.79 14.835 -21.184 12.004 C-20.556 11.511 -19.929 11.019 -19.283 10.512 C-18.091 9.575 -16.898 8.639 -15.705 7.703 C-13.203 5.738 -10.724 3.766 -8.297 1.707 C-5.345 -0.487 -3.596 -0.48 0 0 Z " fill="#303030" transform="translate(768,377)" />
<path d="M0 0 C2 3.75 2 3.75 2 6 C2.99 6.495 2.99 6.495 4 7 C4.33 5.68 4.66 4.36 5 3 C5.66 3 6.32 3 7 3 C7.363 5.141 7.363 5.141 7 8 C5.111 10.15 3.339 11.903 1.188 13.75 C0.594 14.279 -0 14.808 -0.612 15.352 C-4.96 19.193 -9.462 22.83 -13.988 26.457 C-17.793 29.669 -21.39 33.072 -25 36.5 C-30.311 41.543 -35.686 46.32 -41.414 50.887 C-46.116 54.729 -50.529 58.894 -55 63 C-56.515 64.382 -58.035 65.757 -59.562 67.125 C-60.183 67.684 -60.803 68.244 -61.441 68.82 C-63 70 -63 70 -65 70 C-65 70.66 -65 71.32 -65 72 C-66.512 73.351 -68.088 74.629 -69.688 75.875 C-74.187 79.47 -78.479 83.195 -82.688 87.125 C-86.755 90.919 -90.845 94.664 -95.055 98.301 C-97.337 100.294 -99.572 102.335 -101.812 104.375 C-105.254 107.485 -108.763 110.465 -112.375 113.375 C-117.509 117.526 -122.351 121.92 -127.176 126.422 C-135.477 134 -135.477 134 -138 134 C-138 134.66 -138 135.32 -138 136 C-140.377 138.377 -141.754 138.97 -145.125 139.375 C-146.548 139.189 -146.548 139.189 -148 139 C-150 136 -150 136 -149.992 133.672 C-148.603 129.932 -146.061 127.807 -143.125 125.25 C-142.538 124.723 -141.951 124.197 -141.346 123.654 C-136.945 119.738 -132.393 116.021 -127.801 112.332 C-124.089 109.241 -120.58 105.958 -117.053 102.659 C-112.487 98.405 -107.783 94.335 -103.027 90.296 C-99.569 87.357 -96.168 84.37 -92.812 81.312 C-89.402 78.21 -85.903 75.268 -82.312 72.375 C-79.214 69.87 -76.267 67.366 -73.5 64.5 C-69.927 60.8 -65.961 57.674 -61.957 54.453 C-58.874 51.895 -55.93 49.23 -53 46.5 C-49.334 43.087 -45.603 39.814 -41.688 36.688 C-37.087 32.99 -32.785 29.053 -28.5 25 C-23.359 20.139 -18.117 15.528 -12.586 11.109 C-8.246 7.569 -4.126 3.786 0 0 Z " fill="#303030" transform="translate(426,595)" />
<path d="M0 0 C1 3 1 3 0.062 5.188 C-0.288 5.786 -0.639 6.384 -1 7 C-0.01 7.495 -0.01 7.495 1 8 C-5.224 13.766 -11.525 19.33 -18.129 24.66 C-21.23 27.187 -24.272 29.776 -27.312 32.375 C-31.771 36.176 -36.309 39.846 -40.938 43.438 C-46.444 47.711 -51.76 52.165 -57.029 56.728 C-61.089 60.239 -65.233 63.617 -69.445 66.945 C-72.487 69.392 -75.464 71.908 -78.438 74.438 C-83.369 78.63 -88.33 82.781 -93.363 86.852 C-95.171 88.324 -96.959 89.82 -98.73 91.336 C-99.603 92.071 -100.476 92.805 -101.375 93.562 C-102.146 94.224 -102.917 94.885 -103.711 95.566 C-106.413 97.259 -107.867 97.456 -111 97 C-113 95 -113 95 -113.625 92.312 C-112.641 87.097 -109.063 85.144 -105 82 C-103.227 80.545 -101.456 79.086 -99.688 77.625 C-97.793 76.082 -95.897 74.54 -94 73 C-88.097 68.202 -82.233 63.366 -76.438 58.438 C-71.863 54.548 -67.229 50.754 -62.523 47.023 C-58.634 43.904 -54.819 40.696 -50.996 37.496 C-48.222 35.185 -45.428 32.901 -42.625 30.625 C-38.337 27.129 -34.128 23.55 -29.938 19.938 C-24.391 15.16 -18.766 10.512 -13 6 C-11.904 5.099 -11.904 5.099 -10.785 4.18 C-10.093 3.625 -9.401 3.071 -8.688 2.5 C-8.093 2.015 -7.499 1.531 -6.887 1.031 C-4.483 -0.282 -2.697 -0.186 0 0 Z " fill="#303030" transform="translate(390,540)" />
<path d="M0 0 C5.403 3.221 9.953 8.293 11.562 14.438 C11.993 17.432 12.299 20.424 12.562 23.438 C13.139 23.662 13.715 23.886 14.308 24.117 C21.336 26.886 28.233 29.91 35.125 33 C42.298 36.215 49.474 39.414 56.707 42.492 C57.839 42.977 58.97 43.463 60.136 43.963 C62.288 44.883 64.444 45.795 66.604 46.696 C71.911 48.978 75.857 50.954 79.562 55.438 C78.603 55.159 78.603 55.159 77.625 54.875 C76.944 54.731 76.264 54.586 75.562 54.438 C75.232 54.768 74.903 55.097 74.562 55.438 C76.048 56.428 76.048 56.428 77.562 57.438 C77.232 57.768 76.903 58.097 76.562 58.438 C77.222 58.768 77.882 59.097 78.562 59.438 C78.232 61.418 77.903 63.398 77.562 65.438 C77.232 64.447 76.903 63.457 76.562 62.438 C74.502 61.71 72.435 60.999 70.345 60.362 C64.847 58.535 59.639 55.968 54.375 53.562 C51.817 52.402 49.256 51.245 46.695 50.09 C46.038 49.793 45.381 49.496 44.703 49.19 C37.086 45.758 29.42 42.437 21.75 39.125 C21.083 38.837 20.416 38.549 19.729 38.252 C16.008 36.644 12.286 35.04 8.562 33.438 C8.014 33.855 7.466 34.272 6.9 34.702 C6.18 35.246 5.461 35.791 4.719 36.352 C3.649 37.163 3.649 37.163 2.557 37.991 C-2.439 41.615 -6.458 41.64 -12.438 41.438 C-11.447 39.457 -10.457 37.478 -9.438 35.438 C-10.098 35.108 -10.757 34.778 -11.438 34.438 C-10.839 34.169 -10.241 33.901 -9.625 33.625 C-7.391 32.412 -6.155 31.293 -4.438 29.438 C-3.551 28.716 -2.664 27.994 -1.75 27.25 C0.946 23.971 1.197 22.47 0.926 18.367 C0.396 15.552 -0.666 13.669 -2.438 11.438 C-6.035 9.039 -7.449 9.308 -11.688 9.5 C-17.179 9.604 -20.664 9.102 -25.438 6.438 C-24.569 3.224 -23.769 1.697 -21.125 -0.375 C-14.379 -2.547 -6.592 -2.947 0 0 Z " fill="#313131" transform="translate(470.4375,465.5625)" />
<path d="M0 0 C2.18 1.105 2.18 1.105 5.367 3.105 C5.037 4.095 4.707 5.085 4.367 6.105 C2.387 6.105 0.407 6.105 -1.633 6.105 C-0.944 9.165 -0.944 9.165 1.242 10.418 C4.128 12.71 5.124 14.637 6.367 18.105 C6.437 22.554 5.631 27.258 3.367 31.105 C0.992 32.293 0.992 32.293 -1.633 33.105 C-2.293 33.477 -2.953 33.848 -3.633 34.23 C-7.273 35.823 -10.048 35.311 -13.746 34.012 C-14.802 33.548 -15.858 33.084 -16.945 32.605 C-18.014 32.141 -19.083 31.677 -20.184 31.199 C-20.992 30.838 -21.8 30.477 -22.633 30.105 C-22.633 32.415 -22.633 34.725 -22.633 37.105 C-26.516 33.642 -29.505 30.264 -30.633 25.105 C-30.538 23.25 -30.411 21.395 -30.258 19.543 C-30.034 16.728 -30.034 16.728 -30.633 14.105 C-33.312 11.41 -36.286 9.845 -39.633 8.105 C-39.633 7.775 -39.633 7.445 -39.633 7.105 C-37.983 6.775 -36.333 6.445 -34.633 6.105 C-34.633 4.455 -34.633 2.805 -34.633 1.105 C-30.684 1.657 -27.284 2.495 -23.633 4.105 C-22.87 3.466 -22.107 2.827 -21.32 2.168 C-15.557 -2.255 -6.764 -2.298 0 0 Z " fill="#382E2E" transform="translate(573.6328125,424.89453125)" />
<path d="M0 0 C2.99 1.298 3.837 2.337 6 5 C6.736 7.828 6.697 10.167 6 13 C4 16 4 16 2 18 C2.639 18.309 3.279 18.619 3.938 18.938 C6 20 6 20 7 21 C7.502 24.077 7.517 26.925 7 30 C4.834 32.949 4.235 33.756 1 35 C-4.566 35.841 -9.266 36.02 -14.188 33.125 C-16.349 30.591 -16.943 29.51 -17.312 26.188 C-16.932 22.306 -15.631 20.795 -13 18 C-13.309 17.381 -13.619 16.763 -13.938 16.125 C-15.802 12.397 -16.502 10.264 -16 6 C-11.164 0.274 -7.312 -1.053 0 0 Z " fill="#636363" transform="translate(139,918)" />
<path d="M0 0 C2.657 1.497 4.847 2.847 7 5 C7.273 10.736 7.273 10.736 7 13 C6.34 13.66 5.68 14.32 5 15 C5.367 17.935 5.864 18.864 8 21 C8.63 24.082 8.575 26.912 8 30 C5.213 33.794 3.709 34.721 -0.895 35.473 C-5.818 35.709 -9.001 35.615 -13.25 33 C-15.669 28.854 -15.605 26.764 -15 22 C-13.625 19.5 -13.625 19.5 -12 18 C-11.34 18 -10.68 18 -10 18 C-10 17.34 -10 16.68 -10 16 C-10.99 15.67 -11.98 15.34 -13 15 C-14.852 12.5 -15.005 11.132 -14.875 8 C-13.878 4.581 -12.728 3.232 -10 1 C-6.791 -0.604 -3.481 -0.491 0 0 Z " fill="#636363" transform="translate(195,918)" />
<path d="M0 0 C5.385 2.795 10.638 5.63 15.562 9.188 C20.072 12.436 24.743 15.322 29.5 18.188 C36.109 22.183 42.624 26.296 49.062 30.562 C49.842 31.075 50.622 31.588 51.426 32.116 C52.501 32.834 52.501 32.834 53.598 33.566 C54.549 34.2 54.549 34.2 55.52 34.846 C57 36 57 36 58 38 C57.01 38.495 57.01 38.495 56 39 C56.33 39.99 56.66 40.98 57 42 C53.878 43.561 51.352 43.729 48 43 C43.861 40.92 40.084 38.342 36.25 35.75 C34.579 34.649 32.908 33.548 31.235 32.449 C29.556 31.343 27.88 30.23 26.206 29.117 C21.658 26.114 17.054 23.208 12.438 20.312 C10.978 19.392 9.518 18.471 8.059 17.551 C4.045 15.025 0.023 12.511 -4 10 C-3.319 9.237 -2.639 8.474 -1.938 7.688 C-1.298 6.801 -0.659 5.914 0 5 C-0.33 4.01 -0.66 3.02 -1 2 C-0.67 1.34 -0.34 0.68 0 0 Z " fill="#313131" transform="translate(484,389)" />
<path d="M0 0 C1.65 0 3.3 0 5 0 C4.67 2.97 4.34 5.94 4 9 C5.65 9 7.3 9 9 9 C9.33 6.03 9.66 3.06 10 0 C11.65 0 13.3 0 15 0 C14.67 2.97 14.34 5.94 14 9 C15.65 9 17.3 9 19 9 C19 10.65 19 12.3 19 14 C17.02 14 15.04 14 13 14 C13 16.31 13 18.62 13 21 C14.32 21 15.64 21 17 21 C17 22.32 17 23.64 17 25 C15.35 25.33 13.7 25.66 12 26 C11.67 28.64 11.34 31.28 11 34 C9.35 34 7.7 34 6 34 C6.495 29.545 6.495 29.545 7 25 C5.02 25 3.04 25 1 25 C1 27.97 1 30.94 1 34 C-0.32 34 -1.64 34 -3 34 C-3 31.03 -3 28.06 -3 25 C-4.32 25 -5.64 25 -7 25 C-7 23.68 -7 22.36 -7 21 C-5.35 21 -3.7 21 -2 21 C-2 18.69 -2 16.38 -2 14 C-3.32 14 -4.64 14 -6 14 C-6 12.35 -6 10.7 -6 9 C-4.02 9 -2.04 9 0 9 C0 6.03 0 3.06 0 0 Z " fill="#424242" transform="translate(45,919)" />
<path d="M0 0 C2.31 0 4.62 0 7 0 C7 7.59 7 15.18 7 23 C8.32 23 9.64 23 11 23 C11 24.65 11 26.3 11 28 C9.68 28 8.36 28 7 28 C7 30.31 7 32.62 7 35 C5.02 35 3.04 35 1 35 C1 32.69 1 30.38 1 28 C-3.95 28 -8.9 28 -14 28 C-12.875 21.252 -12.875 21.252 -11.074 18.379 C-10.689 17.753 -10.305 17.127 -9.908 16.482 C-9.505 15.849 -9.103 15.215 -8.688 14.562 C-7.899 13.293 -7.111 12.024 -6.324 10.754 C-5.939 10.138 -5.554 9.522 -5.158 8.887 C-3.365 5.965 -1.684 2.986 0 0 Z " fill="#4D4D4D" transform="translate(79,918)" />
<path d="M0 0 C3.242 1.621 5.197 2.942 7.375 5.812 C8.735 10.574 8.569 13.923 6.25 18.312 C3.03 22.158 3.03 22.158 0 23 C-5.594 23.451 -9.189 23.207 -14 20 C-16.581 15.808 -16.884 11.789 -16 7 C-12.685 -0.151 -7.412 -1.528 0 0 Z " fill="#42AAD9" transform="translate(548,642)" />
<path d="M0 0 C3.5 2.042 5.806 4.091 7 8 C7.659 14.918 7.659 14.918 5.25 18.875 C1.13 22.766 -2.273 23.443 -7.812 23.324 C-11.091 22.838 -12.765 21.37 -15 19 C-17.47 15.295 -17.674 12.298 -17 8 C-12.841 0.256 -8.348 -1.094 0 0 Z " fill="#F6F6F6" transform="translate(465,474)" />
<path d="M0 0 C2.176 1.774 3.924 3.422 5.188 5.949 C5.59 11.186 5.018 14.501 2.188 18.949 C-1.58 22.39 -4.466 22.461 -9.402 22.301 C-12.879 21.794 -14.533 20.585 -16.812 17.949 C-18.852 14.258 -19.324 11.129 -18.812 6.949 C-17.094 3.64 -15.762 1.53 -12.562 -0.426 C-8.183 -1.421 -4.012 -2.326 0 0 Z " fill="#40ACD8" transform="translate(465.8125,564.05078125)" />
<path d="M0 0 C2.871 2.364 3.903 4.457 4.531 8.117 C4.697 12.544 4.695 15.881 1.75 19.375 C-1.744 22.32 -5.081 22.322 -9.508 22.156 C-11.963 21.735 -13.723 20.98 -15.875 19.75 C-15.875 19.09 -15.875 18.43 -15.875 17.75 C-16.535 17.75 -17.195 17.75 -17.875 17.75 C-19.232 13.678 -19.534 10.003 -18.875 5.75 C-14.939 -1.591 -7.36 -3.2 0 0 Z " fill="#EC584F" transform="translate(469.875,372.25)" />
<path d="M0 0 C3.843 1.305 5.527 2.359 7.938 5.625 C9.323 10.025 9.256 13.565 8 18 C5.424 21.435 3.219 22.666 -1.051 23.309 C-5.241 23.547 -8.244 23.437 -11.562 20.688 C-14.713 17.002 -14.724 13.257 -14.469 8.566 C-13.843 5.139 -12.598 3.293 -10 1 C-6.795 -0.602 -3.485 -0.35 0 0 Z " fill="#EC564D" transform="translate(568,434)" />
<path d="M0 0 C3.062 2.438 3.062 2.438 5 5 C5.33 5.33 5.66 5.66 6 6 C6.544 10.815 6.725 14.757 4.25 19 C0.863 22.01 -0.868 22.897 -5.438 23.312 C-9.293 22.974 -11.009 22.41 -14 20 C-16.844 16.567 -17.582 13.474 -17.43 9 C-16.654 5.389 -14.609 3.547 -12 1 C-8.288 -0.856 -4.041 -0.591 0 0 Z " fill="#F2C058" transform="translate(574,521)" />
<path d="M0 0 C6.27 0 12.54 0 19 0 C19 1.98 19 3.96 19 6 C14.71 6 10.42 6 6 6 C6 8.31 6 10.62 6 13 C6.664 12.93 7.328 12.861 8.012 12.789 C14.93 12.365 14.93 12.365 17.777 14.055 C20.29 16.749 21.335 19.412 21.562 23 C21.282 27.184 19.738 29.806 17 33 C12.795 35.577 8.804 35.573 4 35 C0.438 33.5 0.438 33.5 -2 32 C-1.34 30.68 -0.68 29.36 0 28 C0.516 28.165 1.031 28.33 1.562 28.5 C4.777 29.159 7.728 29.182 11 29 C13.396 27.05 13.396 27.05 13.188 23.438 C13.393 20.17 13.393 20.17 12 19 C10.167 18.954 8.333 18.962 6.5 19 C4.667 19.038 2.833 19.046 1 19 C0 18 0 18 -0.114 16.234 C-0.108 15.485 -0.103 14.736 -0.098 13.965 C-0.095 13.236 -0.093 12.508 -0.09 11.758 C-0.081 10.827 -0.072 9.896 -0.062 8.938 C-0.042 5.988 -0.021 3.039 0 0 Z " fill="#3A3A3A" transform="translate(96,918)" />
<path d="M0 0 C4.273 3.997 4.273 8.862 4.691 14.41 C4.919 16.635 5.337 18.662 5.938 20.812 C5.278 20.812 4.617 20.812 3.938 20.812 C3.938 21.472 3.938 22.133 3.938 22.812 C5.918 21.822 7.898 20.832 9.938 19.812 C10.433 20.803 10.433 20.803 10.938 21.812 C7.538 27.659 3.451 31.641 -3.062 33.812 C-10.919 34.511 -17.331 34.782 -23.805 29.906 C-24.22 29.545 -24.635 29.184 -25.062 28.812 C-24.351 28.132 -24.351 28.132 -23.625 27.438 C-21.972 25.88 -21.972 25.88 -21.062 23.812 C-19 23.188 -19 23.188 -17.062 22.812 C-17.702 22.524 -18.341 22.235 -19 21.938 C-21.062 20.812 -21.062 20.812 -22.062 18.812 C-22.211 16.879 -22.284 14.939 -22.312 13 C-22.338 11.962 -22.364 10.925 -22.391 9.855 C-22.02 6.421 -21.144 4.546 -19.062 1.812 C-18.403 1.812 -17.742 1.812 -17.062 1.812 C-17.062 1.153 -17.062 0.492 -17.062 -0.188 C-11.581 -2.015 -5.398 -2.093 0 0 Z M-20.07 5.672 C-21.775 9.35 -21.821 12.868 -21.062 16.812 C-19.84 19.857 -19.248 20.689 -16.438 22.562 C-11.428 24.418 -7.317 24.765 -2.25 22.625 C1.472 19.541 2.795 17.14 3.312 12.312 C2.8 7.529 1.464 5.154 -2.125 2 C-9.115 -0.826 -15.453 -0.746 -20.07 5.672 Z " fill="#2A353A" transform="translate(553.0625,641.1875)" />
<path d="M0 0 C6.27 0 12.54 0 19 0 C19 1.65 19 3.3 19 5 C14.71 5 10.42 5 6 5 C6 7.64 6 10.28 6 13 C6.592 12.954 7.183 12.907 7.793 12.859 C11.979 12.668 14.332 12.597 18 14.812 C20.618 17.676 20.965 19.524 21.25 23.375 C20.912 28.275 19.593 30.6 15.938 33.812 C11.624 35.556 7.592 35.587 3 35 C-0.125 33.5 -0.125 33.5 -2 32 C-1.34 30.68 -0.68 29.36 0 28 C2.508 28 4.555 28.257 7 28.688 C10.112 29.096 10.112 29.096 13 28 C14.522 25.329 14.522 25.329 14 19 C7.07 18.505 7.07 18.505 0 18 C0 12.06 0 6.12 0 0 Z " fill="#363636" transform="translate(153,918)" />
</svg>