<?xml version='1.0' encoding='utf-8'?>
<svg xmlns="http://www.w3.org/2000/svg" version="1.1" width="589" height="498" viewBox="223.308 258.667 589.313 498.9125625">
<path d="M0 0 C0.741 0.182 1.482 0.364 2.246 0.551 C23.994 5.982 44.182 16.159 61 31 C61.875 31.766 62.751 32.531 63.652 33.32 C66.13 35.518 68.572 37.748 71 40 C71.603 40.549 72.207 41.098 72.828 41.664 C93.291 61.075 105.648 88.707 111 116 C111.336 117.425 111.336 117.425 111.68 118.879 C114.612 132.679 113.67 148.066 112 162 C112.831 162.09 113.663 162.18 114.52 162.273 C118.658 163.137 121.953 164.695 125.688 166.625 C126.393 166.986 127.099 167.347 127.825 167.719 C154.585 181.61 175.829 203.729 186.215 232.348 C187.226 235.549 188.141 238.755 189 242 C189.431 243.601 189.431 243.601 189.871 245.234 C197.621 275.048 192.289 305.592 176.851 331.963 C164.799 351.84 148.573 366.368 128 377 C126.942 377.567 125.883 378.134 124.793 378.719 C118.532 381.869 112.201 383.951 105.438 385.688 C104.702 385.878 103.966 386.068 103.208 386.265 C86.354 390.3 69.693 391.441 52.421 391.372 C50.237 391.375 48.053 391.378 45.869 391.383 C40.002 391.393 34.134 391.383 28.267 391.37 C22.093 391.359 15.918 391.363 9.744 391.365 C-0.615 391.366 -10.974 391.355 -21.333 391.336 C-33.273 391.315 -45.213 391.312 -57.154 391.318 C-68.693 391.323 -80.233 391.318 -91.772 391.307 C-96.66 391.302 -101.548 391.301 -106.436 391.303 C-112.198 391.305 -117.96 391.297 -123.722 391.281 C-125.825 391.277 -127.927 391.276 -130.03 391.279 C-145.057 391.296 -159.919 390.972 -174.438 386.625 C-175.196 386.405 -175.955 386.185 -176.737 385.959 C-182.049 384.38 -187.063 382.531 -192 380 C-193.021 379.501 -194.042 379.002 -195.094 378.488 C-203.375 374.417 -203.375 374.417 -207 372 C-207 371.34 -207 370.68 -207 370 C-208.423 369.536 -208.423 369.536 -209.875 369.062 C-213 368 -213 368 -215 367 C-215 366.34 -215 365.68 -215 365 C-220.766 363.68 -224.045 364.53 -229.125 367.188 C-251.533 377.815 -279.199 378.09 -302.396 369.847 C-305.631 368.641 -308.815 367.335 -312 366 C-312.755 365.694 -313.511 365.389 -314.289 365.074 C-337.989 354.435 -355.381 332.477 -365 309 C-366.493 304.706 -367.81 300.387 -369 296 C-369.358 294.872 -369.717 293.744 -370.086 292.582 C-371.692 286.036 -371.393 279.201 -371.375 272.5 C-371.375 271.784 -371.375 271.068 -371.374 270.331 C-371.343 259.714 -370.76 250.035 -367 240 C-366.638 238.971 -366.276 237.943 -365.902 236.883 C-355.427 209.54 -335.081 188.88 -308.609 176.961 C-306 176 -306 176 -303 176 C-303.016 175.417 -303.031 174.835 -303.048 174.234 C-303.681 147.036 -298.565 123.828 -279.43 103.469 C-261.807 85.562 -239.828 73.399 -214.235 72.576 C-200.962 72.494 -187.762 74.461 -175.383 79.328 C-172.709 80.082 -171.504 80.206 -169 79 C-167.737 77.136 -167.737 77.136 -166.812 74.75 C-163.642 67.941 -159.414 62.037 -155 56 C-154.384 55.156 -153.768 54.311 -153.133 53.441 C-143.253 40.529 -131.392 30.1 -118 21 C-117.078 20.355 -116.157 19.711 -115.207 19.047 C-81.889 -3.333 -38.62 -9.893 0 0 Z " fill="#7AB7BD" transform="translate(605,272)" />
<path d="M0 0 C0.741 0.182 1.482 0.364 2.246 0.551 C23.994 5.982 44.182 16.159 61 31 C61.875 31.766 62.751 32.531 63.652 33.32 C66.13 35.518 68.572 37.748 71 40 C71.603 40.549 72.207 41.098 72.828 41.664 C93.291 61.075 105.648 88.707 111 116 C111.336 117.425 111.336 117.425 111.68 118.879 C114.612 132.679 113.67 148.066 112 162 C112.831 162.09 113.663 162.18 114.52 162.273 C118.658 163.137 121.953 164.695 125.688 166.625 C126.393 166.986 127.099 167.347 127.825 167.719 C154.585 181.61 175.829 203.729 186.215 232.348 C187.226 235.549 188.141 238.755 189 242 C189.431 243.601 189.431 243.601 189.871 245.234 C197.621 275.048 192.289 305.592 176.851 331.963 C164.812 351.819 148.581 366.414 128 377 C126.343 377.868 126.343 377.868 124.652 378.754 C113.68 384.179 99.373 389.36 87 387 C84.026 384.784 82.63 383.261 81 380 C80.727 378.047 80.727 378.047 80.625 375.75 C80.576 375.002 80.527 374.255 80.477 373.484 C81.274 369.698 82.985 367.308 86 365 C89.671 363.466 93.452 362.563 97.312 361.625 C110.219 358.18 122.261 353.762 132.617 345.031 C134 344 134 344 136 344 C136 343.34 136 342.68 136 342 C137.469 340.625 137.469 340.625 139.5 339 C156.736 324.222 165.852 302.215 168 280 C168.796 268.961 168.003 258.703 165 248 C164.582 246.478 164.582 246.478 164.156 244.926 C156.453 219.526 138.496 201.42 115.614 189.132 C110.797 186.667 106.141 185.017 100.875 183.812 C94.64 182.373 91.313 180.723 87 176 C84.516 171.032 86.036 164.507 87 159.25 C91.991 128.842 83.779 98.468 67 73 C46.851 45.408 17.163 26.873 -16.578 21.422 C-49.564 17.67 -83.38 24.689 -109.938 45.277 C-112.649 47.491 -115.328 49.739 -118 52 C-119.083 52.855 -120.166 53.709 -121.25 54.562 C-124.864 57.766 -127.921 61.287 -131 65 C-131.567 65.668 -132.134 66.335 -132.719 67.023 C-140.952 77.09 -149.025 90.24 -152.312 102.875 C-153.4 106.303 -154.491 107.82 -157.625 109.625 C-162.214 111.452 -166.301 111.486 -171 110 C-172.673 108.841 -174.345 107.674 -175.934 106.402 C-188.916 97.592 -208.129 95.668 -223.312 98.419 C-235.091 101.253 -245.591 106.414 -255 114 C-255.949 114.722 -256.897 115.444 -257.875 116.188 C-260.199 118.003 -260.199 118.003 -262 121 C-262.66 121 -263.32 121 -264 121 C-264.25 121.527 -264.5 122.054 -264.758 122.598 C-266.011 125.021 -267.404 127.335 -268.818 129.667 C-277.982 145.016 -280.7 160.503 -277.414 178.07 C-276.823 182.255 -277.296 185.849 -278 190 C-278.66 190 -279.32 190 -280 190 C-280.33 190.99 -280.66 191.98 -281 193 C-281.66 193 -282.32 193 -283 193 C-283 193.66 -283 194.32 -283 195 C-284.016 195.291 -285.032 195.583 -286.078 195.883 C-308.727 202.546 -326.308 213.923 -337.911 234.913 C-341.008 240.745 -343.368 246.588 -345 253 C-345.223 253.865 -345.446 254.73 -345.676 255.621 C-350.126 275.994 -345.725 296.385 -335 314 C-333.424 316.3 -331.827 318.487 -330.031 320.617 C-329 322 -329 322 -329 324 C-328.34 324 -327.68 324 -327 324 C-325.809 325.32 -325.809 325.32 -324.438 327.125 C-321.357 330.894 -317.905 333.24 -313.758 335.738 C-313.178 336.155 -312.598 336.571 -312 337 C-312 337.66 -312 338.32 -312 339 C-311.041 339.371 -311.041 339.371 -310.062 339.75 C-308.402 340.428 -306.745 341.12 -305.121 341.883 C-284.962 351.313 -262.164 353.521 -241 346 C-239.481 345.29 -237.976 344.546 -236.5 343.75 C-231.698 341.349 -228.004 341.165 -222.75 342.625 C-220.031 344.762 -218.613 346.946 -217 350 C-216.677 353.808 -216.794 356.381 -218 360 C-218.66 360 -219.32 360 -220 360 C-220.189 360.588 -220.379 361.176 -220.574 361.781 C-225.004 368.675 -238.01 371.225 -245.566 372.916 C-268.847 377.55 -290.203 375.135 -312 366 C-312.755 365.694 -313.511 365.389 -314.289 365.074 C-337.989 354.435 -355.381 332.477 -365 309 C-366.493 304.706 -367.81 300.387 -369 296 C-369.358 294.872 -369.717 293.744 -370.086 292.582 C-371.692 286.036 -371.393 279.201 -371.375 272.5 C-371.375 271.784 -371.375 271.068 -371.374 270.331 C-371.343 259.714 -370.76 250.035 -367 240 C-366.638 238.971 -366.276 237.943 -365.902 236.883 C-355.427 209.54 -335.081 188.88 -308.609 176.961 C-306 176 -306 176 -303 176 C-303.016 175.417 -303.031 174.835 -303.048 174.234 C-303.681 147.036 -298.565 123.828 -279.43 103.469 C-261.807 85.562 -239.828 73.399 -214.235 72.576 C-200.962 72.494 -187.762 74.461 -175.383 79.328 C-172.709 80.082 -171.504 80.206 -169 79 C-167.737 77.136 -167.737 77.136 -166.812 74.75 C-163.642 67.941 -159.414 62.037 -155 56 C-154.384 55.156 -153.768 54.311 -153.133 53.441 C-143.253 40.529 -131.392 30.1 -118 21 C-117.078 20.355 -116.157 19.711 -115.207 19.047 C-81.889 -3.333 -38.62 -9.893 0 0 Z " fill="#29333D" transform="translate(605,272)" />
<path d="M0 0 C1.34 1.327 2.673 2.66 4 4 C5.561 4.895 7.146 5.748 8.75 6.562 C14.921 10.114 18.123 15.185 22 21 C22.99 21.99 22.99 21.99 24 23 C25.692 26.477 26.22 29.144 26 33 C26.66 33 27.32 33 28 33 C32.778 45.968 33.641 63.401 28.875 76.438 C27.496 79.359 27.496 79.359 26 82 C25.496 82.892 24.992 83.784 24.473 84.703 C20.806 90.638 20.806 90.638 17.941 91.926 C15.244 93.418 15.089 95.164 14 98 C11.941 100.457 11.941 100.457 9.562 102.812 C8.78 103.603 7.998 104.393 7.191 105.207 C5 107 5 107 2 107 C2 107.66 2 108.32 2 109 C0.491 110.354 -1.084 111.634 -2.688 112.875 C-3.558 113.553 -4.428 114.231 -5.324 114.93 C-6.207 115.613 -7.09 116.296 -8 117 C-9.309 118.087 -9.309 118.087 -10.645 119.195 C-13 121 -13 121 -16 122 C-16.66 122.99 -17.32 123.98 -18 125 C-18.99 125 -19.98 125 -21 125 C-21.103 125.639 -21.206 126.279 -21.312 126.938 C-22.038 130.17 -23.1 133.141 -24.281 136.23 C-25.36 140.388 -25.573 144.726 -26 149 C-37.88 149 -49.76 149 -62 149 C-62.888 120.276 -62.888 120.276 -56 109 C-55.34 109 -54.68 109 -54 109 C-53.902 108.424 -53.804 107.848 -53.703 107.254 C-51.841 101.286 -46.277 96.916 -41 94 C-40.154 93.134 -39.309 92.267 -38.438 91.375 C-35.951 88.952 -35.161 88.763 -32 88 C-31.716 87.404 -31.433 86.809 -31.141 86.195 C-29.783 83.582 -28.216 82.286 -25.938 80.438 C-22.664 77.817 -22.664 77.817 -21 74 C-20.361 73.567 -19.721 73.134 -19.062 72.688 C-16.361 70.477 -16.063 68.261 -15 65 C-14.01 64.67 -13.02 64.34 -12 64 C-12 57.73 -12 51.46 -12 45 C-12.66 45 -13.32 45 -14 45 C-14.247 44.051 -14.495 43.103 -14.75 42.125 C-16.173 38.567 -16.691 38.448 -20 37 C-20.309 36.319 -20.619 35.639 -20.938 34.938 C-21.288 34.298 -21.639 33.659 -22 33 C-24.527 32.344 -24.527 32.344 -27 32 C-27.33 31.34 -27.66 30.68 -28 30 C-30.025 29.348 -30.025 29.348 -32 29 C-32 28.34 -32 27.68 -32 27 C-34.855 27.115 -37.708 27.242 -40.562 27.375 C-41.762 27.421 -41.762 27.421 -42.986 27.469 C-53.688 27.993 -59.713 31.131 -67 39 C-71.372 44.805 -73.248 51.451 -75.203 58.375 C-76 61 -76 61 -77 62 C-80.959 62.095 -84.919 61.852 -88.875 61.688 C-90.519 61.634 -90.519 61.634 -92.195 61.58 C-111.173 60.827 -111.173 60.827 -115 57 C-115.236 52.831 -114.983 49.056 -114 45 C-113.34 45 -112.68 45 -112 45 C-112 42.03 -112 39.06 -112 36 C-111.01 35.505 -111.01 35.505 -110 35 C-109.51 32.975 -109.022 30.949 -108.559 28.918 C-107.864 26.535 -106.844 25.631 -105 24 C-103.98 22.247 -102.961 20.492 -101.977 18.719 C-100.804 16.656 -99.569 14.783 -98 13 C-97.34 13 -96.68 13 -96 13 C-96 12.34 -96 11.68 -96 11 C-94.461 9.834 -92.867 8.741 -91.25 7.688 C-87.434 5.107 -84.759 2.715 -82 -1 C-79.024 -3.019 -75.662 -3.651 -72.195 -4.438 C-69.877 -4.996 -69.877 -4.996 -67.203 -5.992 C-46.907 -12.378 -18.633 -10.827 0 0 Z " fill="#DF6844" transform="translate(560,387)" />
<path d="M0 0 C5.051 2.975 7.996 6.111 10.898 11.203 C11.491 12.223 12.084 13.242 12.695 14.293 C15.669 20.377 16.238 27.245 14.465 33.789 C11.067 42.953 6.144 50.023 -2.852 54.266 C-10.372 56.844 -21.204 56.576 -28.414 53.266 C-35.583 48.964 -40.42 42.907 -43.184 35.027 C-45.432 25.732 -44.294 18.17 -39.621 9.863 C-37.124 6.197 -34.561 3.67 -30.852 1.266 C-30.292 0.856 -29.733 0.446 -29.156 0.023 C-20.613 -5.339 -8.846 -3.911 0 0 Z " fill="#2A323C" transform="translate(386.8515625,660.734375)" />
<path d="M0 0 C7.138 -0.476 14.547 0.381 20.379 4.805 C25.869 10.163 29.346 14.625 29.57 22.435 C29.566 23.612 29.566 23.612 29.562 24.812 C29.561 25.619 29.559 26.426 29.557 27.257 C29.389 32.789 28.62 36.383 24.645 40.461 C24.102 40.969 23.559 41.477 23 42 C22.158 43.118 21.324 44.243 20.5 45.375 C16.277 49.809 12.278 50.129 6.375 50.375 C-0.242 50.292 -5.895 48.425 -12 46 C-12 45.34 -12 44.68 -12 44 C-12.598 43.753 -13.196 43.505 -13.812 43.25 C-16.77 41.56 -18.457 39.594 -19.562 36.348 C-21.248 27.303 -21.329 16.795 -16 9 C-13.363 5.902 -10.918 3.268 -7 2 C-4.668 1.922 -2.332 1.91 0 2 C0 1.34 0 0.68 0 0 Z " fill="#DE6947" transform="translate(512,558)" />
<path d="M0 0 C5.086 3.562 8.811 7.812 9.996 14.062 C10.402 20.115 8.531 24.358 4.586 28.898 C-0.788 33.09 -5.085 34.326 -11.777 34.238 C-17.676 33.478 -21.252 30.322 -24.914 25.836 C-27.355 20.801 -27.364 15.324 -26.414 9.898 C-24.382 5.541 -21.577 2.784 -17.789 -0.102 C-11.931 -1.837 -5.701 -2.602 0 0 Z " fill="#2B343E" transform="translate(338.4140625,714.1015625)" />
</svg>