<?xml version='1.0' encoding='utf-8'?>
<svg xmlns="http://www.w3.org/2000/svg" version="1.1" width="642" height="470" viewBox="191.240109375 275.464 642.3815078125 470.81007812499996">
<path d="M0 0 C1.185 -0.008 2.37 -0.017 3.591 -0.025 C6.823 -0.045 10.054 -0.056 13.286 -0.061 C15.314 -0.065 17.342 -0.071 19.369 -0.078 C26.468 -0.103 33.567 -0.116 40.666 -0.119 C47.242 -0.123 53.817 -0.153 60.392 -0.195 C66.069 -0.229 71.746 -0.245 77.423 -0.245 C80.799 -0.246 84.175 -0.257 87.551 -0.283 C108.424 -0.433 126.262 0.428 142.303 15.506 C153.429 27.377 157.587 41.485 157.496 57.557 C157.505 58.811 157.514 60.065 157.522 61.357 C157.541 64.753 157.542 68.149 157.533 71.546 C157.528 74.396 157.535 77.247 157.543 80.097 C157.56 86.825 157.556 93.552 157.539 100.28 C157.522 107.194 157.538 114.107 157.571 121.021 C157.597 126.987 157.604 132.953 157.596 138.92 C157.591 142.47 157.593 146.021 157.614 149.571 C157.636 153.529 157.617 157.486 157.594 161.444 C157.612 163.183 157.612 163.183 157.629 164.957 C157.543 172.352 156.307 178.194 151.963 184.306 C145.582 190.194 141.034 191.716 132.377 191.658 C127.504 191.156 123.667 189.527 119.963 186.306 C118.725 184.135 118.725 184.135 117.963 182.306 C117.303 182.306 116.643 182.306 115.963 182.306 C115.964 183.271 115.964 183.271 115.966 184.256 C115.988 199.887 116.004 215.518 116.015 231.149 C116.02 238.707 116.027 246.266 116.038 253.825 C116.048 260.411 116.055 266.997 116.057 273.583 C116.058 277.073 116.061 280.562 116.069 284.051 C116.077 287.94 116.077 291.829 116.076 295.718 C116.08 296.884 116.084 298.049 116.087 299.249 C116.086 300.302 116.085 301.356 116.083 302.441 C116.085 303.822 116.085 303.822 116.086 305.231 C115.963 307.306 115.963 307.306 114.963 308.306 C113.183 308.4 111.399 308.424 109.617 308.42 C108.476 308.42 107.335 308.42 106.159 308.42 C104.917 308.415 103.676 308.409 102.396 308.404 C100.501 308.402 100.501 308.402 98.567 308.4 C95.202 308.395 91.836 308.386 88.471 308.375 C85.039 308.365 81.608 308.36 78.176 308.355 C71.438 308.344 64.701 308.327 57.963 308.306 C55.771 302.773 55.257 297.308 54.674 291.439 C54.566 290.404 54.458 289.37 54.346 288.304 C54.004 285.014 53.671 281.723 53.338 278.431 C53.107 276.194 52.875 273.957 52.643 271.72 C52.076 266.25 51.516 260.778 50.963 255.306 C49.088 269.288 47.363 283.252 46.059 297.301 C45.886 299.03 45.886 299.03 45.709 300.795 C45.613 301.811 45.517 302.827 45.418 303.874 C44.963 306.306 44.963 306.306 42.963 308.306 C40.558 308.547 40.558 308.547 37.503 308.533 C36.362 308.533 35.221 308.533 34.046 308.533 C32.191 308.518 32.191 308.518 30.299 308.502 C29.036 308.499 27.774 308.496 26.474 308.493 C23.116 308.484 19.76 308.466 16.403 308.444 C12.977 308.423 9.552 308.414 6.127 308.404 C-0.594 308.382 -7.316 308.348 -14.037 308.306 C-15.279 305.822 -15.16 304.176 -15.157 301.396 C-15.159 300.359 -15.16 299.321 -15.162 298.252 C-15.156 296.537 -15.156 296.537 -15.151 294.788 C-15.151 293.588 -15.151 292.388 -15.151 291.152 C-15.15 287.857 -15.145 284.562 -15.139 281.266 C-15.132 277.824 -15.132 274.382 -15.13 270.94 C-15.127 264.42 -15.119 257.9 -15.109 251.38 C-15.098 243.958 -15.092 236.536 -15.087 229.115 C-15.077 213.845 -15.059 198.576 -15.037 183.306 C-15.629 183.716 -16.22 184.126 -16.83 184.549 C-17.62 185.087 -18.41 185.626 -19.225 186.181 C-20.002 186.715 -20.779 187.249 -21.58 187.799 C-27.656 191.527 -33.03 192.074 -40.037 191.306 C-45.939 189.71 -49.289 186.361 -52.811 181.502 C-56.527 174.849 -56.339 168.451 -56.344 161.021 C-56.352 159.786 -56.36 158.551 -56.369 157.279 C-56.389 153.9 -56.399 150.522 -56.405 147.143 C-56.408 145.025 -56.414 142.908 -56.422 140.79 C-56.446 133.381 -56.459 125.972 -56.463 118.563 C-56.466 111.692 -56.496 104.821 -56.538 97.951 C-56.573 92.027 -56.588 86.103 -56.589 80.179 C-56.59 76.652 -56.598 73.126 -56.627 69.599 C-56.797 47.41 -55.323 31.371 -40.17 14.189 C-29.145 3.543 -14.821 0.009 0 0 Z " fill="#F7C06B" transform="translate(258.037109375,427.693603515625)" />
<path d="M0 0 C1.749 -0.013 1.749 -0.013 3.533 -0.026 C7.352 -0.049 11.17 -0.05 14.989 -0.049 C16.99 -0.054 18.992 -0.059 20.993 -0.066 C27.276 -0.085 33.559 -0.088 39.843 -0.081 C46.28 -0.074 52.717 -0.097 59.154 -0.134 C64.72 -0.165 70.286 -0.176 75.853 -0.173 C79.16 -0.17 82.467 -0.178 85.774 -0.2 C104.506 -0.314 120.603 -0.005 135.692 12.42 C137.27 13.565 137.27 13.565 138.88 14.732 C148.665 24.083 154.618 36.717 154.967 50.25 C154.987 52.534 154.997 54.819 154.999 57.103 C155.007 58.356 155.015 59.609 155.024 60.9 C155.044 64.318 155.055 67.735 155.06 71.153 C155.063 73.293 155.07 75.433 155.077 77.573 C155.101 85.054 155.114 92.535 155.118 100.016 C155.122 106.967 155.151 113.917 155.193 120.868 C155.228 126.855 155.243 132.842 155.244 138.83 C155.245 142.397 155.254 145.964 155.282 149.532 C155.313 153.514 155.304 157.496 155.292 161.478 C155.314 163.229 155.314 163.229 155.337 165.015 C155.26 173.594 153.461 180.652 147.255 186.857 C146.409 187.373 145.564 187.889 144.692 188.42 C143.826 188.997 142.96 189.575 142.067 190.17 C136.216 192.337 129.681 192.505 123.817 190.17 C120.815 188.488 118.346 186.597 115.692 184.42 C115.689 185.047 115.686 185.674 115.682 186.32 C115.601 201.559 115.509 216.798 115.405 232.037 C115.355 239.406 115.308 246.776 115.271 254.145 C115.238 260.567 115.198 266.988 115.15 273.41 C115.124 276.811 115.103 280.213 115.089 283.615 C115.072 287.408 115.043 291.201 115.011 294.994 C115.008 296.694 115.008 296.694 115.005 298.429 C114.994 299.458 114.982 300.487 114.971 301.548 C114.965 302.446 114.96 303.343 114.954 304.269 C114.692 306.42 114.692 306.42 112.692 308.42 C110.288 308.66 110.288 308.66 107.233 308.647 C106.092 308.647 104.951 308.647 103.775 308.647 C101.921 308.631 101.921 308.631 100.028 308.615 C98.766 308.612 97.504 308.61 96.203 308.607 C92.846 308.597 89.489 308.579 86.132 308.557 C82.707 308.537 79.282 308.528 75.856 308.518 C69.135 308.495 62.414 308.462 55.692 308.42 C55.369 306.989 55.047 305.557 54.725 304.125 C54.546 303.328 54.366 302.531 54.181 301.709 C53.558 298.792 53.132 295.878 52.755 292.92 C52.513 291.031 52.513 291.031 52.267 289.104 C51.046 279.213 49.865 269.317 48.692 259.42 C46.51 271.987 44.953 284.546 43.783 297.249 C43.612 298.991 43.612 298.991 43.438 300.768 C43.342 301.809 43.246 302.851 43.147 303.924 C42.692 306.42 42.692 306.42 40.692 308.42 C38.339 308.674 38.339 308.674 35.356 308.679 C34.242 308.685 33.127 308.691 31.979 308.698 C30.771 308.694 29.562 308.69 28.317 308.686 C27.082 308.687 25.847 308.689 24.574 308.691 C21.286 308.693 17.999 308.685 14.712 308.674 C12.694 308.67 10.677 308.674 8.659 308.681 C4.795 308.693 0.931 308.692 -2.933 308.686 C-4.141 308.69 -5.349 308.694 -6.594 308.698 C-7.709 308.692 -8.823 308.685 -9.972 308.679 C-11.448 308.676 -11.448 308.676 -12.955 308.674 C-15.308 308.42 -15.308 308.42 -17.308 306.42 C-17.569 304.253 -17.569 304.253 -17.586 301.51 C-17.597 300.472 -17.608 299.434 -17.62 298.365 C-17.622 297.222 -17.624 296.079 -17.626 294.902 C-17.637 293.702 -17.647 292.502 -17.657 291.266 C-17.683 287.97 -17.699 284.675 -17.712 281.38 C-17.728 277.938 -17.755 274.496 -17.78 271.054 C-17.827 264.534 -17.864 258.014 -17.897 251.494 C-17.935 244.072 -17.985 236.65 -18.035 229.228 C-18.138 213.959 -18.228 198.689 -18.308 183.42 C-18.781 183.837 -19.254 184.254 -19.742 184.684 C-20.679 185.501 -20.679 185.501 -21.636 186.334 C-22.562 187.145 -22.562 187.145 -23.508 187.973 C-28.222 191.762 -33.725 191.918 -39.558 191.799 C-45.346 191.001 -49.381 187.686 -53.183 183.42 C-56.391 178.891 -57.557 175.375 -57.568 169.837 C-57.575 168.725 -57.582 167.614 -57.59 166.469 C-57.587 165.259 -57.585 164.049 -57.582 162.802 C-57.587 161.52 -57.592 160.238 -57.598 158.917 C-57.611 155.407 -57.612 151.896 -57.609 148.386 C-57.608 145.449 -57.613 142.512 -57.618 139.575 C-57.629 132.639 -57.629 125.704 -57.623 118.768 C-57.617 111.632 -57.63 104.496 -57.651 97.36 C-57.669 91.219 -57.674 85.079 -57.671 78.939 C-57.669 75.278 -57.672 71.617 -57.686 67.955 C-57.701 63.865 -57.692 59.775 -57.68 55.685 C-57.688 54.485 -57.695 53.285 -57.703 52.049 C-57.614 37.797 -53.096 26.003 -43.058 15.732 C-38.631 11.42 -38.631 11.42 -36.308 11.42 C-36.308 10.76 -36.308 10.1 -36.308 9.42 C-34.567 8.466 -32.814 7.533 -31.058 6.607 C-30.083 6.085 -29.109 5.563 -28.104 5.025 C-19.139 0.89 -9.746 -0.027 0 0 Z " fill="#3A3651" transform="translate(668.3076171875,427.580078125)" />
<path d="M0 0 C1.185 -0.008 2.37 -0.017 3.591 -0.025 C6.823 -0.045 10.054 -0.056 13.286 -0.061 C15.314 -0.065 17.342 -0.071 19.369 -0.078 C26.468 -0.103 33.567 -0.116 40.666 -0.119 C47.242 -0.123 53.817 -0.153 60.392 -0.195 C66.069 -0.229 71.746 -0.245 77.423 -0.245 C80.799 -0.246 84.175 -0.257 87.551 -0.283 C108.424 -0.433 126.262 0.428 142.303 15.506 C153.429 27.377 157.587 41.485 157.496 57.557 C157.505 58.811 157.514 60.065 157.522 61.357 C157.541 64.753 157.542 68.149 157.533 71.546 C157.528 74.396 157.535 77.247 157.543 80.097 C157.56 86.825 157.556 93.552 157.539 100.28 C157.522 107.194 157.538 114.107 157.571 121.021 C157.597 126.987 157.604 132.953 157.596 138.92 C157.591 142.47 157.593 146.021 157.614 149.571 C157.636 153.529 157.617 157.486 157.594 161.444 C157.612 163.183 157.612 163.183 157.629 164.957 C157.543 172.352 156.307 178.194 151.963 184.306 C145.582 190.194 141.034 191.716 132.377 191.658 C127.504 191.156 123.667 189.527 119.963 186.306 C118.725 184.135 118.725 184.135 117.963 182.306 C117.303 182.306 116.643 182.306 115.963 182.306 C115.964 183.271 115.964 183.271 115.966 184.256 C115.988 199.887 116.004 215.518 116.015 231.149 C116.02 238.707 116.027 246.266 116.038 253.825 C116.048 260.411 116.055 266.997 116.057 273.583 C116.058 277.073 116.061 280.562 116.069 284.051 C116.077 287.94 116.077 291.829 116.076 295.718 C116.08 296.884 116.084 298.049 116.087 299.249 C116.086 300.302 116.085 301.356 116.083 302.441 C116.085 303.822 116.085 303.822 116.086 305.231 C115.963 307.306 115.963 307.306 114.963 308.306 C113.183 308.4 111.399 308.424 109.617 308.42 C108.476 308.42 107.335 308.42 106.159 308.42 C104.917 308.415 103.676 308.409 102.396 308.404 C100.501 308.402 100.501 308.402 98.567 308.4 C95.202 308.395 91.836 308.386 88.471 308.375 C85.039 308.365 81.608 308.36 78.176 308.355 C71.438 308.344 64.701 308.327 57.963 308.306 C55.771 302.773 55.257 297.308 54.674 291.439 C54.566 290.404 54.458 289.37 54.346 288.304 C54.004 285.014 53.671 281.723 53.338 278.431 C53.107 276.194 52.875 273.957 52.643 271.72 C52.076 266.25 51.516 260.778 50.963 255.306 C49.088 269.288 47.363 283.252 46.059 297.301 C45.886 299.03 45.886 299.03 45.709 300.795 C45.613 301.811 45.517 302.827 45.418 303.874 C44.963 306.306 44.963 306.306 42.963 308.306 C40.558 308.547 40.558 308.547 37.503 308.533 C36.362 308.533 35.221 308.533 34.046 308.533 C32.191 308.518 32.191 308.518 30.299 308.502 C29.036 308.499 27.774 308.496 26.474 308.493 C23.116 308.484 19.76 308.466 16.403 308.444 C12.977 308.423 9.552 308.414 6.127 308.404 C-0.594 308.382 -7.316 308.348 -14.037 308.306 C-15.279 305.822 -15.16 304.176 -15.157 301.396 C-15.159 300.359 -15.16 299.321 -15.162 298.252 C-15.156 296.537 -15.156 296.537 -15.151 294.788 C-15.151 293.588 -15.151 292.388 -15.151 291.152 C-15.15 287.857 -15.145 284.562 -15.139 281.266 C-15.132 277.824 -15.132 274.382 -15.13 270.94 C-15.127 264.42 -15.119 257.9 -15.109 251.38 C-15.098 243.958 -15.092 236.536 -15.087 229.115 C-15.077 213.845 -15.059 198.576 -15.037 183.306 C-15.629 183.716 -16.22 184.126 -16.83 184.549 C-17.62 185.087 -18.41 185.626 -19.225 186.181 C-20.002 186.715 -20.779 187.249 -21.58 187.799 C-27.656 191.527 -33.03 192.074 -40.037 191.306 C-45.939 189.71 -49.289 186.361 -52.811 181.502 C-56.527 174.849 -56.339 168.451 -56.344 161.021 C-56.352 159.786 -56.36 158.551 -56.369 157.279 C-56.389 153.9 -56.399 150.522 -56.405 147.143 C-56.408 145.025 -56.414 142.908 -56.422 140.79 C-56.446 133.381 -56.459 125.972 -56.463 118.563 C-56.466 111.692 -56.496 104.821 -56.538 97.951 C-56.573 92.027 -56.588 86.103 -56.589 80.179 C-56.59 76.652 -56.598 73.126 -56.627 69.599 C-56.797 47.41 -55.323 31.371 -40.17 14.189 C-29.145 3.543 -14.821 0.009 0 0 Z M-36.037 20.306 C-36.618 20.874 -37.2 21.441 -37.799 22.025 C-47.164 32.028 -49.338 43.647 -49.328 56.832 C-49.334 58.08 -49.341 59.328 -49.348 60.614 C-49.364 64.021 -49.37 67.427 -49.372 70.834 C-49.373 72.966 -49.377 75.098 -49.383 77.229 C-49.401 84.675 -49.409 92.12 -49.408 99.565 C-49.407 106.492 -49.428 113.419 -49.459 120.346 C-49.485 126.307 -49.496 132.267 -49.495 138.227 C-49.494 141.782 -49.5 145.336 -49.521 148.89 C-49.544 152.854 -49.535 156.817 -49.523 160.781 C-49.534 161.951 -49.545 163.121 -49.557 164.327 C-49.498 171.995 -48.357 176.157 -43.537 182.181 C-39.698 185.061 -34.645 184.788 -30.037 184.306 C-24.226 182.255 -20.867 178.604 -17.946 173.341 C-15.239 167.676 -14.475 163.076 -14.583 156.839 C-14.582 155.941 -14.582 155.042 -14.581 154.116 C-14.584 151.178 -14.615 148.241 -14.646 145.302 C-14.654 143.253 -14.66 141.203 -14.664 139.153 C-14.679 133.782 -14.718 128.412 -14.762 123.041 C-14.804 117.551 -14.822 112.06 -14.842 106.57 C-14.885 95.815 -14.953 85.061 -15.037 74.306 C-14.377 74.306 -13.717 74.306 -13.037 74.306 C-13.037 73.646 -13.037 72.986 -13.037 72.306 C-12.047 72.636 -11.057 72.966 -10.037 73.306 C-9.707 105.316 -9.377 137.326 -9.037 170.306 C30.233 170.306 69.503 170.306 109.963 170.306 C110.293 137.636 110.623 104.966 110.963 71.306 C112.613 71.966 114.263 72.626 115.963 73.306 C115.968 75.065 115.968 75.065 115.974 76.859 C116.011 87.923 116.069 98.987 116.147 110.051 C116.186 115.739 116.218 121.427 116.234 127.115 C116.249 132.607 116.284 138.098 116.331 143.59 C116.346 145.682 116.354 147.775 116.355 149.867 C116.357 152.804 116.384 155.74 116.417 158.677 C116.412 159.537 116.407 160.397 116.402 161.282 C116.55 169.922 120.082 176.132 125.963 182.306 C130.407 185.059 134.89 184.834 139.963 184.306 C144.144 182.579 146.388 179.985 148.963 176.306 C149.967 173.295 150.096 171.277 150.11 168.129 C150.117 167.057 150.124 165.985 150.132 164.88 C150.134 163.703 150.137 162.527 150.14 161.314 C150.15 159.455 150.15 159.455 150.16 157.559 C150.18 153.445 150.191 149.331 150.201 145.217 C150.205 143.797 150.209 142.377 150.214 140.958 C150.233 134.281 150.247 127.605 150.255 120.928 C150.265 113.244 150.291 105.559 150.332 97.874 C150.362 91.922 150.377 85.971 150.38 80.019 C150.382 76.47 150.391 72.922 150.416 69.374 C150.444 65.403 150.44 61.433 150.433 57.463 C150.446 56.305 150.458 55.146 150.472 53.953 C150.391 41.147 146.507 30.31 137.74 20.927 C126.609 10.219 114.258 7.009 99.201 7 C98.046 6.992 96.89 6.983 95.699 6.975 C91.891 6.951 88.083 6.942 84.275 6.935 C82.286 6.929 80.297 6.922 78.308 6.915 C72.052 6.893 65.797 6.884 59.542 6.881 C53.129 6.877 46.718 6.847 40.306 6.805 C34.769 6.771 29.233 6.755 23.696 6.755 C20.403 6.754 17.111 6.743 13.819 6.717 C-13.394 6.462 -13.394 6.462 -36.037 20.306 Z " fill="#3B3750" transform="translate(258.037109375,427.693603515625)" />
<path d="M0 0 C0 75.24 0 150.48 0 228 C-1.65 228.33 -3.3 228.66 -5 229 C-5.058 229.561 -5.116 230.123 -5.176 230.701 C-5.792 236.641 -6.409 242.58 -7.026 248.519 C-7.255 250.724 -7.484 252.929 -7.713 255.134 C-8.045 258.337 -8.378 261.54 -8.711 264.742 C-8.82 265.79 -8.928 266.837 -9.04 267.917 C-9.544 272.739 -10.058 277.559 -10.61 282.376 C-10.704 283.196 -10.798 284.016 -10.895 284.861 C-11.067 286.358 -11.243 287.855 -11.422 289.351 C-11.88 293.305 -12 296.987 -12 301 C-28.17 301 -44.34 301 -61 301 C-60.34 300.67 -59.68 300.34 -59 300 C-59 222.45 -59 144.9 -59 65 C-61.31 65 -63.62 65 -66 65 C-65.977 66.764 -65.977 66.764 -65.953 68.564 C-65.811 79.685 -65.706 90.807 -65.637 101.929 C-65.601 107.646 -65.552 113.362 -65.472 119.079 C-65.395 124.603 -65.354 130.127 -65.336 135.652 C-65.323 137.752 -65.298 139.852 -65.26 141.952 C-64.884 163.597 -64.884 163.597 -73 173 C-76.805 176.75 -80.75 177.197 -85.938 177.25 C-87.626 177.186 -89.314 177.11 -91 177 C-91 176.34 -91 175.68 -91 175 C-91.742 174.794 -92.485 174.587 -93.25 174.375 C-96.797 172.602 -98.534 170.619 -100 167 C-100.595 162.87 -100.557 158.774 -100.533 154.607 C-100.542 153.361 -100.551 152.115 -100.56 150.831 C-100.578 147.421 -100.579 144.012 -100.57 140.602 C-100.565 137.745 -100.572 134.888 -100.58 132.031 C-100.597 125.278 -100.593 118.527 -100.576 111.774 C-100.56 104.841 -100.575 97.908 -100.608 90.974 C-100.634 84.999 -100.642 79.023 -100.633 73.048 C-100.628 69.489 -100.63 65.931 -100.651 62.372 C-100.759 41.713 -100.28 26.664 -85.246 11.195 C-81.583 7.779 -77.742 5.734 -73.113 3.859 C-70.999 3.048 -70.999 3.048 -69.105 1.953 C-48.112 -7.55 -23.044 0 0 0 Z " fill="#596377" transform="translate(717,435)" />
<path d="M0 0 C72.594 0 72.594 0 87.312 13.812 C97.038 24.146 99.46 36.078 99.388 49.882 C99.393 51.132 99.399 52.382 99.404 53.67 C99.415 57.068 99.413 60.467 99.403 63.865 C99.395 67.435 99.402 71.005 99.407 74.575 C99.413 80.563 99.405 86.551 99.391 92.54 C99.375 99.453 99.38 106.366 99.397 113.279 C99.41 119.232 99.412 125.184 99.404 131.137 C99.4 134.685 99.399 138.233 99.409 141.781 C99.419 145.733 99.405 149.684 99.388 153.636 C99.394 154.805 99.4 155.974 99.407 157.178 C99.352 164.194 98.729 168.845 94 174.312 C90.218 177.504 86.232 177.342 81.5 177.273 C77.039 176.785 74.447 174.701 71.598 171.352 C66.762 164.932 65.701 159.623 65.681 151.712 C65.671 150.784 65.661 149.857 65.651 148.902 C65.62 145.845 65.603 142.788 65.586 139.73 C65.567 137.608 65.548 135.485 65.527 133.362 C65.476 127.781 65.436 122.2 65.399 116.618 C65.359 110.921 65.308 105.223 65.258 99.525 C65.161 88.35 65.077 77.175 65 66 C63.35 65.34 61.7 64.68 60 64 C59.67 96.67 59.34 129.34 59 163 C39.53 163 20.06 163 0 163 C0 109.21 0 55.42 0 0 Z " fill="#F1714D" transform="translate(309,435)" />
<path d="M0 0 C13.624 10.603 22.237 23.828 25 41 C26.676 58.492 20.863 74.421 10 88 C9.34 88 8.68 88 8 88 C7.754 88.599 7.508 89.199 7.254 89.816 C4.971 93.793 0.838 95.666 -3 98 C-3.74 98.459 -4.48 98.918 -5.242 99.391 C-13.844 104.472 -22.292 106.556 -32.25 106.438 C-33.621 106.425 -33.621 106.425 -35.019 106.412 C-50.461 106.03 -63.762 100.581 -74.875 89.688 C-86.403 77.546 -91.156 64.268 -91.25 47.75 C-91.281 46.414 -91.281 46.414 -91.312 45.051 C-91.395 30.893 -85.096 17.327 -75.344 7.125 C-54.069 -12.164 -24.407 -16.32 0 0 Z " fill="#39364E" transform="translate(342,299)" />
<path d="M0 0 C13.063 10.33 22.93 22.983 25 40 C25.608 49.49 24.935 57.952 22 67 C21.756 67.828 21.513 68.655 21.262 69.508 C17.006 82.054 6.797 93.253 -4.758 99.488 C-7.482 100.775 -10.181 101.938 -13 103 C-13.655 103.26 -14.31 103.519 -14.985 103.787 C-20.795 105.941 -26.015 106.511 -32.188 106.438 C-33.107 106.428 -34.027 106.418 -34.975 106.408 C-50.562 106.006 -63.5 100.22 -74.938 89.625 C-81.455 82.499 -85.868 74.07 -89 65 C-89.357 64.132 -89.714 63.265 -90.082 62.371 C-93.245 50.755 -92.322 35.754 -87 25 C-86.526 24.011 -86.051 23.023 -85.562 22.004 C-79.452 10.473 -70.532 1.982 -59 -4 C-58.051 -4.557 -57.102 -5.114 -56.125 -5.688 C-37.438 -13.536 -16.737 -11.566 0 0 Z " fill="#39364E" transform="translate(750,299)" />
<path d="M0 0 C1.185 -0.008 2.37 -0.017 3.591 -0.025 C6.823 -0.045 10.054 -0.056 13.286 -0.061 C15.314 -0.065 17.342 -0.071 19.369 -0.078 C26.468 -0.103 33.567 -0.116 40.666 -0.119 C47.242 -0.123 53.817 -0.153 60.392 -0.195 C66.069 -0.229 71.746 -0.245 77.423 -0.245 C80.799 -0.246 84.175 -0.257 87.551 -0.283 C108.424 -0.433 126.262 0.428 142.303 15.506 C153.429 27.377 157.587 41.485 157.496 57.557 C157.505 58.811 157.514 60.065 157.522 61.357 C157.541 64.753 157.542 68.149 157.533 71.546 C157.528 74.396 157.535 77.247 157.543 80.097 C157.56 86.825 157.556 93.552 157.539 100.28 C157.522 107.194 157.538 114.107 157.571 121.021 C157.597 126.987 157.604 132.953 157.596 138.92 C157.591 142.47 157.593 146.021 157.614 149.571 C157.636 153.529 157.617 157.486 157.594 161.444 C157.612 163.183 157.612 163.183 157.629 164.957 C157.543 172.352 156.307 178.194 151.963 184.306 C145.582 190.194 141.034 191.716 132.377 191.658 C127.504 191.156 123.667 189.527 119.963 186.306 C118.725 184.135 118.725 184.135 117.963 182.306 C117.303 182.306 116.643 182.306 115.963 182.306 C115.963 223.556 115.963 264.806 115.963 307.306 C113.983 307.306 112.003 307.306 109.963 307.306 C109.963 264.406 109.963 221.506 109.963 177.306 C70.693 177.306 31.423 177.306 -9.037 177.306 C-9.037 220.206 -9.037 263.106 -9.037 307.306 C-10.687 307.306 -12.337 307.306 -14.037 307.306 C-15.037 306.306 -15.037 306.306 -15.16 304.262 C-15.159 302.903 -15.159 302.903 -15.157 301.517 C-15.159 300.48 -15.16 299.444 -15.162 298.376 C-15.156 296.656 -15.156 296.656 -15.151 294.902 C-15.151 293.702 -15.151 292.502 -15.151 291.266 C-15.15 287.967 -15.145 284.667 -15.139 281.368 C-15.132 277.923 -15.132 274.478 -15.13 271.034 C-15.127 264.507 -15.119 257.979 -15.109 251.452 C-15.098 244.023 -15.092 236.594 -15.087 229.165 C-15.077 213.879 -15.059 198.593 -15.037 183.306 C-15.629 183.716 -16.22 184.126 -16.83 184.549 C-17.62 185.087 -18.41 185.626 -19.225 186.181 C-20.002 186.715 -20.779 187.249 -21.58 187.799 C-27.656 191.527 -33.03 192.074 -40.037 191.306 C-45.939 189.71 -49.289 186.361 -52.811 181.502 C-56.527 174.849 -56.339 168.451 -56.344 161.021 C-56.352 159.786 -56.36 158.551 -56.369 157.279 C-56.389 153.9 -56.399 150.522 -56.405 147.143 C-56.408 145.025 -56.414 142.908 -56.422 140.79 C-56.446 133.381 -56.459 125.972 -56.463 118.563 C-56.466 111.692 -56.496 104.821 -56.538 97.951 C-56.573 92.027 -56.588 86.103 -56.589 80.179 C-56.59 76.652 -56.598 73.126 -56.627 69.599 C-56.797 47.41 -55.323 31.371 -40.17 14.189 C-29.145 3.543 -14.821 0.009 0 0 Z M-36.037 20.306 C-36.618 20.874 -37.2 21.441 -37.799 22.025 C-47.164 32.028 -49.338 43.647 -49.328 56.832 C-49.334 58.08 -49.341 59.328 -49.348 60.614 C-49.364 64.021 -49.37 67.427 -49.372 70.834 C-49.373 72.966 -49.377 75.098 -49.383 77.229 C-49.401 84.675 -49.409 92.12 -49.408 99.565 C-49.407 106.492 -49.428 113.419 -49.459 120.346 C-49.485 126.307 -49.496 132.267 -49.495 138.227 C-49.494 141.782 -49.5 145.336 -49.521 148.89 C-49.544 152.854 -49.535 156.817 -49.523 160.781 C-49.534 161.951 -49.545 163.121 -49.557 164.327 C-49.498 171.995 -48.357 176.157 -43.537 182.181 C-39.698 185.061 -34.645 184.788 -30.037 184.306 C-24.226 182.255 -20.867 178.604 -17.946 173.341 C-15.239 167.676 -14.475 163.076 -14.583 156.839 C-14.582 155.941 -14.582 155.042 -14.581 154.116 C-14.584 151.178 -14.615 148.241 -14.646 145.302 C-14.654 143.253 -14.66 141.203 -14.664 139.153 C-14.679 133.782 -14.718 128.412 -14.762 123.041 C-14.804 117.551 -14.822 112.06 -14.842 106.57 C-14.885 95.815 -14.953 85.061 -15.037 74.306 C-14.377 74.306 -13.717 74.306 -13.037 74.306 C-13.037 73.646 -13.037 72.986 -13.037 72.306 C-12.047 72.636 -11.057 72.966 -10.037 73.306 C-9.707 105.316 -9.377 137.326 -9.037 170.306 C30.233 170.306 69.503 170.306 109.963 170.306 C110.293 137.636 110.623 104.966 110.963 71.306 C112.613 71.966 114.263 72.626 115.963 73.306 C115.968 75.065 115.968 75.065 115.974 76.859 C116.011 87.923 116.069 98.987 116.147 110.051 C116.186 115.739 116.218 121.427 116.234 127.115 C116.249 132.607 116.284 138.098 116.331 143.59 C116.346 145.682 116.354 147.775 116.355 149.867 C116.357 152.804 116.384 155.74 116.417 158.677 C116.412 159.537 116.407 160.397 116.402 161.282 C116.55 169.922 120.082 176.132 125.963 182.306 C130.407 185.059 134.89 184.834 139.963 184.306 C144.144 182.579 146.388 179.985 148.963 176.306 C149.967 173.295 150.096 171.277 150.11 168.129 C150.117 167.057 150.124 165.985 150.132 164.88 C150.134 163.703 150.137 162.527 150.14 161.314 C150.15 159.455 150.15 159.455 150.16 157.559 C150.18 153.445 150.191 149.331 150.201 145.217 C150.205 143.797 150.209 142.377 150.214 140.958 C150.233 134.281 150.247 127.605 150.255 120.928 C150.265 113.244 150.291 105.559 150.332 97.874 C150.362 91.922 150.377 85.971 150.38 80.019 C150.382 76.47 150.391 72.922 150.416 69.374 C150.444 65.403 150.44 61.433 150.433 57.463 C150.446 56.305 150.458 55.146 150.472 53.953 C150.391 41.147 146.507 30.31 137.74 20.927 C126.609 10.219 114.258 7.009 99.201 7 C98.046 6.992 96.89 6.983 95.699 6.975 C91.891 6.951 88.083 6.942 84.275 6.935 C82.286 6.929 80.297 6.922 78.308 6.915 C72.052 6.893 65.797 6.884 59.542 6.881 C53.129 6.877 46.718 6.847 40.306 6.805 C34.769 6.771 29.233 6.755 23.696 6.755 C20.403 6.754 17.111 6.743 13.819 6.717 C-13.394 6.462 -13.394 6.462 -36.037 20.306 Z " fill="#2F2734" transform="translate(258.037109375,427.693603515625)" />
<path d="M0 0 C19.8 0 39.6 0 60 0 C60 19.14 60 38.28 60 58 C57.525 58.495 57.525 58.495 55 59 C54.944 59.55 54.888 60.101 54.83 60.667 C54.234 66.527 53.632 72.386 53.029 78.244 C52.805 80.415 52.583 82.586 52.363 84.757 C50.824 99.875 49.052 114.943 47 130 C47.66 130.33 48.32 130.66 49 131 C31.18 131 13.36 131 -5 131 C-5 130.67 -5 130.34 -5 130 C-3.35 130 -1.7 130 0 130 C0 87.1 0 44.2 0 0 Z " fill="#5A6377" transform="translate(249,605)" />
<path d="M0 0 C1.444 1.033 2.882 2.073 4.312 3.125 C5.631 3.82 6.961 4.496 8.312 5.125 C8.748 4.715 9.184 4.305 9.633 3.883 C10.228 3.344 10.824 2.805 11.438 2.25 C12.018 1.716 12.598 1.183 13.195 0.633 C19.458 -3.827 26.951 -3.598 34.312 -2.875 C42.57 -0.53 47.899 3.971 52.297 11.223 C54.425 15.209 54.57 18.728 54.688 23.188 C54.736 24.437 54.785 25.686 54.836 26.973 C54.198 36.938 46.96 44.233 40.25 50.887 C39.381 51.763 38.512 52.639 37.617 53.541 C35.791 55.375 33.959 57.203 32.12 59.024 C29.301 61.824 26.513 64.651 23.727 67.482 C21.944 69.265 20.161 71.045 18.375 72.824 C17.542 73.673 16.708 74.522 15.849 75.396 C15.065 76.165 14.281 76.933 13.473 77.725 C12.788 78.408 12.104 79.091 11.399 79.794 C9.312 81.125 9.312 81.125 6.679 80.936 C3.808 79.952 2.447 78.705 0.352 76.52 C-0.368 75.783 -1.087 75.046 -1.828 74.287 C-2.565 73.512 -3.303 72.736 -4.062 71.938 C-8.625 67.209 -13.157 62.621 -18.205 58.41 C-20.109 56.76 -21.714 54.945 -23.312 53 C-25.236 50.725 -26.859 48.995 -29.25 47.188 C-35.558 41.85 -39.712 33.926 -41.074 25.824 C-41.661 17.644 -38.271 10.29 -32.977 4.137 C-24.029 -4.021 -10.695 -6.49 0 0 Z " fill="#F48E71" transform="translate(503.6875,473.875)" />
<path d="M0 0 C1.749 -0.013 1.749 -0.013 3.533 -0.026 C7.352 -0.049 11.17 -0.05 14.989 -0.049 C16.99 -0.054 18.992 -0.059 20.993 -0.066 C27.276 -0.085 33.559 -0.088 39.843 -0.081 C46.28 -0.074 52.717 -0.097 59.154 -0.134 C64.72 -0.165 70.286 -0.176 75.853 -0.173 C79.16 -0.17 82.467 -0.178 85.774 -0.2 C122.305 -0.422 122.305 -0.422 135.692 12.42 C136.95 14.635 136.95 14.635 137.692 16.42 C136.702 17.905 136.702 17.905 135.692 19.42 C134.372 19.42 133.052 19.42 131.692 19.42 C131.692 18.76 131.692 18.1 131.692 17.42 C131.012 17.172 130.331 16.925 129.63 16.67 C126.692 15.42 126.692 15.42 123.63 13.482 C115.047 8.515 105.125 7.978 95.441 8.048 C94.282 8.044 93.123 8.04 91.928 8.037 C88.136 8.029 84.344 8.042 80.552 8.057 C77.898 8.057 75.244 8.057 72.589 8.055 C67.045 8.054 61.501 8.065 55.957 8.084 C49.565 8.105 43.174 8.108 36.782 8.102 C30.603 8.096 24.425 8.102 18.246 8.113 C15.629 8.117 13.012 8.118 10.395 8.117 C6.738 8.116 3.082 8.129 -0.574 8.145 C-1.649 8.143 -2.723 8.14 -3.83 8.138 C-16.412 8.227 -27.922 11.755 -37.308 20.42 C-42.096 25.631 -46.024 30.697 -48.308 37.42 C-48.655 38.383 -49.002 39.345 -49.36 40.337 C-50.891 45.8 -50.602 51.425 -50.598 57.053 C-50.605 58.312 -50.612 59.572 -50.618 60.869 C-50.636 64.307 -50.641 67.745 -50.642 71.183 C-50.644 73.333 -50.648 75.484 -50.653 77.634 C-50.672 85.143 -50.68 92.652 -50.678 100.16 C-50.677 107.15 -50.698 114.14 -50.73 121.13 C-50.756 127.142 -50.767 133.154 -50.765 139.166 C-50.765 142.752 -50.77 146.338 -50.792 149.924 C-50.815 153.922 -50.806 157.919 -50.793 161.916 C-50.805 163.099 -50.816 164.282 -50.828 165.501 C-50.78 171.749 -50.611 175.721 -46.308 180.42 C-44.207 181.809 -44.207 181.809 -42.308 182.42 C-42.308 183.08 -42.308 183.74 -42.308 184.42 C-33.8 184.116 -33.8 184.116 -26.308 180.42 C-25.648 180.42 -24.988 180.42 -24.308 180.42 C-24.06 179.739 -23.813 179.059 -23.558 178.357 C-22.308 175.42 -22.308 175.42 -20.264 172.337 C-17.717 167.897 -17.733 163.837 -17.762 158.813 C-17.751 157.875 -17.741 156.938 -17.73 155.972 C-17.701 152.893 -17.699 149.815 -17.698 146.736 C-17.683 144.594 -17.667 142.452 -17.648 140.309 C-17.605 134.685 -17.584 129.061 -17.569 123.437 C-17.55 117.692 -17.508 111.948 -17.468 106.203 C-17.393 94.942 -17.342 83.681 -17.308 72.42 C-14.998 72.42 -12.688 72.42 -10.308 72.42 C-10.308 149.97 -10.308 227.52 -10.308 307.42 C-11.958 307.75 -13.608 308.08 -15.308 308.42 C-17.839 305.889 -17.565 305.017 -17.586 301.51 C-17.597 300.472 -17.608 299.434 -17.62 298.365 C-17.622 297.222 -17.624 296.079 -17.626 294.902 C-17.637 293.702 -17.647 292.502 -17.657 291.266 C-17.683 287.97 -17.699 284.675 -17.712 281.38 C-17.728 277.938 -17.755 274.496 -17.78 271.054 C-17.827 264.534 -17.864 258.014 -17.897 251.494 C-17.935 244.072 -17.985 236.65 -18.035 229.228 C-18.138 213.959 -18.228 198.689 -18.308 183.42 C-18.781 183.837 -19.254 184.254 -19.742 184.684 C-20.679 185.501 -20.679 185.501 -21.636 186.334 C-22.562 187.145 -22.562 187.145 -23.508 187.973 C-28.222 191.762 -33.725 191.918 -39.558 191.799 C-45.346 191.001 -49.381 187.686 -53.183 183.42 C-56.391 178.891 -57.557 175.375 -57.568 169.837 C-57.575 168.725 -57.582 167.614 -57.59 166.469 C-57.587 165.259 -57.585 164.049 -57.582 162.802 C-57.587 161.52 -57.592 160.238 -57.598 158.917 C-57.611 155.407 -57.612 151.896 -57.609 148.386 C-57.608 145.449 -57.613 142.512 -57.618 139.575 C-57.629 132.639 -57.629 125.704 -57.623 118.768 C-57.617 111.632 -57.63 104.496 -57.651 97.36 C-57.669 91.219 -57.674 85.079 -57.671 78.939 C-57.669 75.278 -57.672 71.617 -57.686 67.955 C-57.701 63.865 -57.692 59.775 -57.68 55.685 C-57.688 54.485 -57.695 53.285 -57.703 52.049 C-57.614 37.797 -53.096 26.003 -43.058 15.732 C-38.631 11.42 -38.631 11.42 -36.308 11.42 C-36.308 10.76 -36.308 10.1 -36.308 9.42 C-34.567 8.466 -32.814 7.533 -31.058 6.607 C-30.083 6.085 -29.109 5.563 -28.104 5.025 C-19.139 0.89 -9.746 -0.027 0 0 Z " fill="#2B2A3B" transform="translate(668.3076171875,427.580078125)" />
<path d="M0 0 C0 33.66 0 67.32 0 102 C-15.073 102 -15.073 102 -23 98 C-24.127 97.439 -24.127 97.439 -25.277 96.867 C-25.846 96.581 -26.414 96.295 -27 96 C-27 95.34 -27 94.68 -27 94 C-27.99 93.722 -27.99 93.722 -29 93.438 C-33.269 91.392 -36.742 88.428 -40 85 C-40 84.34 -40 83.68 -40 83 C-40.66 83 -41.32 83 -42 83 C-42.944 81.337 -43.88 79.67 -44.812 78 C-45.335 77.072 -45.857 76.144 -46.395 75.188 C-50.76 66.521 -51.443 59.989 -51.312 50.312 C-51.316 49.103 -51.319 47.893 -51.322 46.646 C-51.263 36.884 -51.263 36.884 -49 32 C-48.34 32 -47.68 32 -47 32 C-46.918 31.319 -46.835 30.639 -46.75 29.938 C-44.045 19.345 -34.626 11.989 -26 6 C-17.354 1.692 -9.592 0 0 0 Z " fill="#596377" transform="translate(309,296)" />
<path d="M0 0 C0 33.66 0 67.32 0 102 C-12.762 102 -23.381 99.897 -33 91 C-33.336 90.309 -33.673 89.618 -34.02 88.906 C-35.28 86.456 -36.561 86.185 -39 85 C-48.714 74.482 -51.783 61.726 -51.664 47.84 C-51.051 33.308 -44.54 22.046 -34.062 12.25 C-23.946 3.512 -13.448 0 0 0 Z " fill="#586276" transform="translate(717,296)" />
<path d="M0 0 C1.185 -0.008 2.37 -0.017 3.591 -0.025 C6.823 -0.045 10.054 -0.056 13.286 -0.061 C15.314 -0.065 17.342 -0.071 19.369 -0.078 C26.468 -0.103 33.567 -0.116 40.666 -0.119 C47.242 -0.123 53.817 -0.153 60.392 -0.195 C66.069 -0.229 71.746 -0.245 77.423 -0.245 C80.799 -0.246 84.175 -0.257 87.551 -0.283 C108.424 -0.433 126.262 0.428 142.303 15.506 C153.485 27.438 157.616 41.565 157.417 57.716 C157.418 58.986 157.418 60.256 157.419 61.564 C157.42 65.001 157.397 68.438 157.368 71.875 C157.343 75.484 157.341 79.093 157.336 82.702 C157.324 89.515 157.291 96.329 157.251 103.142 C157.206 110.908 157.184 118.673 157.164 126.439 C157.123 142.395 157.052 158.351 156.963 174.306 C155.973 174.636 154.983 174.966 153.963 175.306 C153.963 174.316 153.963 173.326 153.963 172.306 C153.66 173.005 153.357 173.704 153.045 174.424 C152.626 175.334 152.207 176.244 151.775 177.181 C151.369 178.086 150.963 178.991 150.545 179.924 C148.634 182.802 147.261 183.43 143.963 184.306 C141.65 183.931 141.65 183.931 139.963 183.306 C141.108 182.688 141.108 182.688 142.275 182.056 C145.995 179.634 147.567 177.495 148.963 173.306 C149.061 171.583 149.102 169.856 149.11 168.129 C149.117 167.057 149.124 165.985 149.132 164.88 C149.134 163.703 149.137 162.527 149.14 161.314 C149.15 159.455 149.15 159.455 149.16 157.559 C149.18 153.445 149.191 149.331 149.201 145.217 C149.205 143.797 149.209 142.377 149.214 140.958 C149.233 134.281 149.247 127.605 149.255 120.928 C149.265 113.244 149.291 105.559 149.332 97.874 C149.362 91.922 149.377 85.971 149.38 80.019 C149.382 76.47 149.391 72.922 149.416 69.374 C149.444 65.403 149.44 61.433 149.433 57.463 C149.446 56.305 149.458 55.146 149.472 53.953 C149.392 41.304 145.603 30.465 136.963 21.15 C126.223 10.87 113.624 8.009 99.201 8 C98.046 7.992 96.89 7.983 95.699 7.975 C91.891 7.951 88.083 7.942 84.275 7.935 C82.286 7.929 80.297 7.922 78.308 7.915 C72.052 7.893 65.797 7.884 59.542 7.881 C53.129 7.877 46.718 7.847 40.306 7.805 C34.769 7.771 29.233 7.755 23.696 7.755 C20.403 7.754 17.111 7.743 13.819 7.717 C-11.881 7.311 -11.881 7.311 -33.99 19.201 C-44.819 30.34 -48.328 41.671 -48.356 56.943 C-48.366 58.202 -48.376 59.461 -48.386 60.759 C-48.414 64.194 -48.429 67.63 -48.442 71.065 C-48.458 74.662 -48.484 78.259 -48.51 81.855 C-48.557 88.659 -48.593 95.462 -48.627 102.265 C-48.665 110.013 -48.714 117.762 -48.765 125.51 C-48.868 141.442 -48.957 157.374 -49.037 173.306 C-49.697 173.306 -50.357 173.306 -51.037 173.306 C-51.367 151.526 -51.697 129.746 -52.037 107.306 C-53.027 108.296 -53.027 108.296 -54.037 109.306 C-54.037 91.816 -54.037 74.326 -54.037 56.306 C-54.367 94.916 -54.697 133.526 -55.037 173.306 C-55.367 173.306 -55.697 173.306 -56.037 173.306 C-56.154 156.746 -56.242 140.186 -56.296 123.625 C-56.322 115.934 -56.357 108.243 -56.414 100.553 C-56.464 93.843 -56.496 87.133 -56.508 80.423 C-56.514 76.876 -56.529 73.329 -56.566 69.783 C-56.788 47.5 -55.389 31.446 -40.17 14.189 C-29.145 3.543 -14.821 0.009 0 0 Z " fill="#312531" transform="translate(258.037109375,427.693603515625)" />
<path d="M0 0 C4.638 3.472 7.457 8.261 9.27 13.699 C9.857 21.041 8.102 26.925 4.082 33.012 C-1.067 37.932 -5.498 39.924 -12.668 40.262 C-18.69 40.019 -23.124 38.642 -27.73 34.699 C-31.362 30.474 -33.73 27.365 -33.73 21.699 C-54.19 21.699 -74.65 21.699 -95.73 21.699 C-96.06 20.049 -96.39 18.399 -96.73 16.699 C-94.73 14.699 -94.73 14.699 -92.174 14.459 C-90.555 14.465 -90.555 14.465 -88.904 14.472 C-87.072 14.472 -87.072 14.472 -85.203 14.473 C-83.866 14.483 -82.529 14.493 -81.191 14.504 C-79.827 14.508 -78.462 14.51 -77.097 14.512 C-73.503 14.52 -69.91 14.54 -66.316 14.562 C-62.649 14.582 -58.983 14.591 -55.316 14.602 C-48.121 14.623 -40.926 14.657 -33.73 14.699 C-33.535 13.555 -33.535 13.555 -33.336 12.387 C-31.932 6.157 -27.668 2.327 -22.73 -1.301 C-15.473 -5.534 -7.006 -3.851 0 0 Z " fill="#2F2D3C" transform="translate(525.73046875,398.30078125)" />
<path d="M0 0 C4.955 3.568 7.677 7.715 9.855 13.336 C10.617 13.346 11.379 13.357 12.165 13.367 C19.331 13.465 26.498 13.567 33.664 13.675 C37.349 13.731 41.033 13.784 44.718 13.833 C48.271 13.881 51.824 13.933 55.377 13.989 C56.736 14.009 58.094 14.028 59.453 14.045 C61.349 14.069 63.246 14.1 65.142 14.131 C66.224 14.146 67.305 14.162 68.419 14.178 C70.855 14.336 70.855 14.336 71.855 15.336 C71.98 17.836 71.98 17.836 71.855 20.336 C70.855 21.336 70.855 21.336 68.419 21.456 C67.338 21.454 66.257 21.452 65.142 21.449 C63.921 21.449 62.7 21.449 61.442 21.449 C60.099 21.444 58.757 21.439 57.414 21.434 C56.048 21.432 54.682 21.43 53.315 21.429 C49.713 21.425 46.111 21.416 42.51 21.405 C38.836 21.394 35.163 21.39 31.49 21.385 C24.279 21.374 17.067 21.357 9.855 21.336 C9.712 22.114 9.569 22.892 9.422 23.693 C8.246 29.179 5.057 33.72 0.551 37.027 C-4.955 40.037 -9.907 41.405 -16.145 40.336 C-23.097 38.018 -27.413 35.061 -30.957 28.648 C-33.722 22.653 -34.442 18.01 -32.223 11.727 C-29.131 4.941 -25.906 0.826 -18.832 -1.977 C-11.903 -3.268 -6.288 -3.539 0 0 Z " fill="#2E2D3C" transform="translate(524.14453125,577.6640625)" />
<path d="M0 0 C-1.32 0.33 -2.64 0.66 -4 1 C-4 1.99 -4 2.98 -4 4 C-4.66 4 -5.32 4 -6 4 C-6 4.66 -6 5.32 -6 6 C-6.895 6.098 -7.789 6.196 -8.711 6.297 C-24.327 8.228 -37.442 13.983 -48 26 C-56.551 39.154 -59.645 53.941 -56.515 69.394 C-54.141 78.007 -50.139 85.468 -44 92 C-42.824 93.33 -42.824 93.33 -41.625 94.688 C-27.918 106.763 -13.583 108.068 4 107 C6.681 106.729 9.332 106.381 12 106 C12 105.34 12 104.68 12 104 C14.038 102.568 16.053 101.271 18.188 100 C18.766 99.644 19.344 99.288 19.939 98.922 C22.515 97.362 24.96 96.014 27.801 95 C30.55 93.75 30.906 92.755 32 90 C33.231 87.98 34.505 85.992 35.781 84 C36.973 82.045 38.006 80.061 39 78 C39.66 78 40.32 78 41 78 C41.33 74.7 41.66 71.4 42 68 C42.66 68 43.32 68 44 68 C43.984 67.365 43.969 66.73 43.952 66.076 C43.89 63.176 43.851 60.276 43.812 57.375 C43.787 56.376 43.762 55.377 43.736 54.348 C43.68 48.692 43.886 44.789 47 40 C47.66 40 48.32 40 49 40 C52.396 52.1 51.864 64.089 48 76 C47.756 76.828 47.513 77.655 47.262 78.508 C43.006 91.054 32.797 102.253 21.242 108.488 C18.518 109.775 15.819 110.938 13 112 C12.345 112.26 11.69 112.519 11.015 112.787 C5.205 114.941 -0.015 115.511 -6.188 115.438 C-7.107 115.428 -8.027 115.418 -8.975 115.408 C-24.562 115.006 -37.5 109.22 -48.938 98.625 C-55.455 91.499 -59.868 83.07 -63 74 C-63.357 73.132 -63.714 72.265 -64.082 71.371 C-67.245 59.755 -66.322 44.754 -61 34 C-60.526 33.011 -60.051 32.023 -59.562 31.004 C-53.455 19.478 -44.534 10.971 -33 5 C-31.989 4.423 -30.979 3.845 -29.938 3.25 C-20.224 -0.883 -10.341 -0.201 0 0 Z " fill="#2D2A3B" transform="translate(724,290)" />
<path d="M0 0 C1.444 1.033 2.882 2.073 4.312 3.125 C5.631 3.82 6.961 4.496 8.312 5.125 C8.748 4.715 9.184 4.305 9.633 3.883 C10.228 3.344 10.824 2.805 11.438 2.25 C12.018 1.716 12.598 1.183 13.195 0.633 C19.458 -3.827 26.951 -3.598 34.312 -2.875 C42.57 -0.53 47.899 3.971 52.297 11.223 C54.425 15.209 54.57 18.728 54.688 23.188 C54.736 24.437 54.785 25.686 54.836 26.973 C54.198 36.938 46.96 44.233 40.25 50.887 C39.381 51.763 38.512 52.639 37.617 53.541 C35.791 55.375 33.959 57.203 32.12 59.024 C29.301 61.824 26.513 64.651 23.727 67.482 C21.944 69.265 20.161 71.045 18.375 72.824 C17.542 73.673 16.708 74.522 15.849 75.396 C15.065 76.165 14.281 76.933 13.473 77.725 C12.788 78.408 12.104 79.091 11.399 79.794 C9.312 81.125 9.312 81.125 6.679 80.936 C3.808 79.952 2.447 78.705 0.352 76.52 C-0.368 75.783 -1.087 75.046 -1.828 74.287 C-2.565 73.512 -3.303 72.736 -4.062 71.938 C-8.625 67.209 -13.157 62.621 -18.205 58.41 C-20.109 56.76 -21.714 54.945 -23.312 53 C-25.236 50.725 -26.859 48.995 -29.25 47.188 C-35.558 41.85 -39.712 33.926 -41.074 25.824 C-41.661 17.644 -38.271 10.29 -32.977 4.137 C-24.029 -4.021 -10.695 -6.49 0 0 Z M-28.402 10.031 C-32.9 15.703 -34.176 19.801 -33.688 27.125 C-30.69 39.313 -19.074 47.878 -10.438 56.438 C-9.461 57.409 -8.484 58.381 -7.508 59.354 C-5.717 61.136 -3.925 62.917 -2.132 64.697 C-0.419 66.398 1.269 68.126 2.937 69.872 C5.177 72.315 5.177 72.315 8.312 73.125 C8.312 72.465 8.312 71.805 8.312 71.125 C9.272 70.723 9.272 70.723 10.25 70.312 C12.644 69.238 12.644 69.238 13.312 66.125 C14.303 65.795 15.293 65.465 16.312 65.125 C19.021 62.75 19.021 62.75 21.312 60.125 C21.312 59.465 21.312 58.805 21.312 58.125 C22.303 57.795 23.293 57.465 24.312 57.125 C25.991 55.431 25.991 55.431 27.625 53.375 C29.855 50.728 32.036 48.398 34.75 46.25 C35.596 45.549 36.441 44.847 37.312 44.125 C37.312 43.465 37.312 42.805 37.312 42.125 C38.148 41.847 38.148 41.847 39 41.562 C43.195 38.955 45.77 34.754 47.312 30.125 C47.988 23.069 48.358 16.618 43.906 10.781 C38.941 5.621 34.935 3.823 27.688 3.625 C19.585 3.971 15.89 6.401 10.312 12.125 C8.999 12.83 7.668 13.504 6.312 14.125 C5.709 13.571 5.106 13.016 4.484 12.445 C3.685 11.721 2.886 10.996 2.062 10.25 C1.274 9.531 0.485 8.811 -0.328 8.07 C-8.644 1.214 -21.176 1.998 -28.402 10.031 Z " fill="#382733" transform="translate(503.6875,473.875)" />
<path d="M0 0 C-0.33 0.99 -0.66 1.98 -1 3 C-0.34 3.33 0.32 3.66 1 4 C1 4.99 1 5.98 1 7 C0.322 7.098 -0.356 7.196 -1.055 7.297 C-14.728 9.494 -27.503 15.294 -36.125 26.625 C-38.203 30.366 -39.648 33.945 -41 38 C-41.66 38 -42.32 38 -43 38 C-44.385 44.054 -44.263 50.066 -44.312 56.25 C-44.342 57.44 -44.371 58.63 -44.4 59.855 C-44.453 67.227 -43.646 72.576 -40 79 C-39.582 79.844 -39.165 80.689 -38.734 81.559 C-38.247 82.489 -38.247 82.489 -37.75 83.438 C-36 87 -36 87 -36 89 C-35.34 89 -34.68 89 -34 89 C-33.227 90.052 -33.227 90.052 -32.438 91.125 C-29.596 94.477 -26.551 96.392 -22.828 98.668 C-22.225 99.108 -21.622 99.547 -21 100 C-21 100.66 -21 101.32 -21 102 C-20.157 102.186 -20.157 102.186 -19.297 102.375 C-16.825 103.048 -14.6 103.982 -12.25 105 C-7.842 106.773 -3.754 107.804 1 108 C1.905 108.04 2.81 108.08 3.742 108.121 C11.022 108.282 17.868 107.416 25 106 C25 105.34 25 104.68 25 104 C26.98 103.67 28.96 103.34 31 103 C31.495 101.515 31.495 101.515 32 100 C32.99 100 33.98 100 35 100 C35 99.34 35 98.68 35 98 C38.462 95 38.462 95 41 95 C41.248 94.443 41.495 93.886 41.75 93.312 C43.529 90.021 45.725 87.137 48.523 84.641 C50.327 82.636 50.906 80.882 51.688 78.312 C51.939 77.504 52.19 76.696 52.449 75.863 C52.631 75.248 52.813 74.634 53 74 C53.66 74 54.32 74 55 74 C54.979 72.721 54.959 71.442 54.938 70.125 C54.875 66.25 54.875 66.25 56 64 C56.084 62.333 56.107 60.662 56.098 58.992 C56.094 58.006 56.091 57.02 56.088 56.004 C56.08 54.971 56.071 53.939 56.062 52.875 C56.058 51.835 56.053 50.794 56.049 49.723 C56.037 47.148 56.021 44.574 56 42 C57.65 41.67 59.3 41.34 61 41 C66.265 53.724 64.558 66.252 60 79 C57.078 85.445 53.421 91.474 49 97 C48.34 97 47.68 97 47 97 C46.754 97.599 46.508 98.199 46.254 98.816 C43.971 102.793 39.838 104.666 36 107 C35.26 107.459 34.52 107.918 33.758 108.391 C25.156 113.472 16.708 115.556 6.75 115.438 C5.379 115.425 5.379 115.425 3.981 115.412 C-11.461 115.03 -24.762 109.581 -35.875 98.688 C-47.403 86.546 -52.156 73.268 -52.25 56.75 C-52.281 55.414 -52.281 55.414 -52.312 54.051 C-52.395 39.893 -46.096 26.327 -36.344 16.125 C-26.216 6.942 -14.11 -0.554 0 0 Z " fill="#2D2B3C" transform="translate(303,290)" />
<path d="M0 0 C3.521 2.127 6.386 4.419 8.477 8.02 C8.822 8.589 9.168 9.159 9.523 9.746 C11.686 14.904 11.507 21.986 9.719 27.25 C8.727 29.02 8.727 29.02 6.477 32.02 C5.425 33.474 5.425 33.474 4.352 34.957 C3.733 35.638 3.114 36.318 2.477 37.02 C1.817 37.02 1.157 37.02 0.477 37.02 C0.477 37.68 0.477 38.34 0.477 39.02 C-1.062 40.5 -1.062 40.5 -3.148 42.207 C-6.611 45.13 -9.499 48.178 -12.297 51.734 C-12.904 52.371 -12.904 52.371 -13.523 53.02 C-14.183 53.02 -14.843 53.02 -15.523 53.02 C-15.523 53.68 -15.523 54.34 -15.523 55.02 C-19.826 59.787 -19.826 59.787 -23.523 61.02 C-24.732 63.02 -24.732 63.02 -25.523 65.02 C-26.513 65.02 -27.503 65.02 -28.523 65.02 C-28.676 57.136 -28.781 49.253 -28.853 41.368 C-28.88 38.686 -28.922 36.004 -28.976 33.323 C-29.049 29.467 -29.083 25.614 -29.109 21.758 C-29.156 19.959 -29.156 19.959 -29.203 18.124 C-29.207 9.972 -29.207 9.972 -27.205 7.181 C-25.588 5.829 -25.588 5.829 -22.523 4.02 C-21.987 3.463 -21.451 2.906 -20.898 2.332 C-15.632 -2.695 -6.45 -2.506 0 0 Z " fill="#F06F4C" transform="translate(540.5234375,478.98046875)" />
<path d="M0 0 C5.907 3.04 10.896 7.647 13.441 13.871 C15.036 19.948 14.798 25.115 11.938 30.75 C8.457 36.322 3.551 41.402 -3 43 C-10.244 43.594 -15.97 42.466 -21.688 37.812 C-22.451 36.884 -23.214 35.956 -24 35 C-24.467 34.434 -24.933 33.868 -25.414 33.285 C-28.894 28.531 -29.722 24.537 -29.414 18.676 C-28.355 11.835 -25.118 7.578 -19.879 3.227 C-13.748 -0.776 -7.105 -1.203 0 0 Z " fill="#302E3C" transform="translate(455,581)" />
<path d="M0 0 C4.884 4.107 9.452 9.442 10.238 15.98 C10.486 23.35 8.382 28.089 3.75 33.75 C-1.552 38.088 -6.639 40.824 -13.637 40.438 C-19.301 39.389 -24.13 37.161 -27.93 32.77 C-32.341 26.301 -33.998 20.833 -33 13 C-30.415 5.924 -26.191 1.379 -19.688 -2.312 C-12.831 -4.067 -6.228 -3.415 0 0 Z " fill="#2F2C3B" transform="translate(596,394)" />
<path d="M0 0 C1.816 -0 1.816 -0 3.669 -0.001 C6.966 0 10.262 0.01 13.559 0.024 C17.013 0.037 20.467 0.038 23.921 0.04 C30.452 0.047 36.982 0.063 43.513 0.083 C50.952 0.105 58.391 0.116 65.83 0.126 C81.123 0.147 96.416 0.182 111.709 0.227 C111.709 0.557 111.709 0.887 111.709 1.227 C76.729 1.557 41.749 1.887 5.709 2.227 C7.029 2.887 8.349 3.547 9.709 4.227 C10.699 4.722 10.699 4.722 11.709 5.227 C14.478 5.384 17.226 5.485 19.998 5.543 C21.226 5.575 21.226 5.575 22.478 5.606 C25.097 5.672 27.715 5.731 30.334 5.79 C32.107 5.833 33.881 5.876 35.654 5.92 C40.006 6.028 44.357 6.129 48.709 6.227 C48.709 6.557 48.709 6.887 48.709 7.227 C48.005 7.228 47.302 7.23 46.577 7.231 C39.871 7.249 33.166 7.291 26.46 7.359 C23.014 7.393 19.569 7.418 16.124 7.423 C-10.919 6.938 -10.919 6.938 -34.244 19.122 C-45.073 30.261 -48.582 41.591 -48.61 56.864 C-48.62 58.123 -48.63 59.382 -48.64 60.679 C-48.667 64.115 -48.683 67.55 -48.696 70.986 C-48.711 74.582 -48.738 78.179 -48.764 81.776 C-48.81 88.579 -48.847 95.382 -48.88 102.186 C-48.919 109.934 -48.968 117.683 -49.018 125.431 C-49.122 141.363 -49.211 157.295 -49.291 173.227 C-49.951 173.227 -50.611 173.227 -51.291 173.227 C-51.621 151.447 -51.951 129.667 -52.291 107.227 C-53.281 108.217 -53.281 108.217 -54.291 109.227 C-54.291 91.737 -54.291 74.247 -54.291 56.227 C-54.621 94.837 -54.951 133.447 -55.291 173.227 C-55.621 173.227 -55.951 173.227 -56.291 173.227 C-56.408 156.667 -56.496 140.106 -56.55 123.546 C-56.576 115.855 -56.611 108.164 -56.668 100.473 C-56.718 93.763 -56.75 87.054 -56.761 80.344 C-56.768 76.797 -56.783 73.25 -56.82 69.703 C-57.041 47.421 -55.643 31.367 -40.424 14.11 C-29.301 3.369 -14.938 -0.095 0 0 Z " fill="#40373E" transform="translate(258.291015625,427.77294921875)" />
<path d="M0 0 C0.309 0.639 0.619 1.279 0.938 1.938 C1.835 3.936 1.835 3.936 3 5 C3.107 6.69 3.144 8.384 3.154 10.078 C3.163 11.178 3.171 12.279 3.18 13.412 C3.184 14.631 3.188 15.849 3.193 17.104 C3.205 19.016 3.205 19.016 3.218 20.967 C3.244 25.208 3.259 29.45 3.273 33.691 C3.279 35.151 3.284 36.611 3.29 38.071 C3.311 44.147 3.33 50.224 3.341 56.3 C3.357 65.004 3.391 73.709 3.448 82.414 C3.486 88.534 3.506 94.655 3.511 100.776 C3.515 104.43 3.527 108.084 3.559 111.739 C3.595 115.823 3.591 119.906 3.583 123.99 C3.6 125.194 3.616 126.398 3.633 127.639 C3.581 134.652 2.807 139.681 -2 145 C-7.827 150.105 -12.65 151.299 -20.211 151.219 C-26.126 150.755 -30.743 148.132 -35 144 C-35.812 141.75 -35.812 141.75 -36 140 C-34.824 139.783 -34.824 139.783 -33.625 139.562 C-31.036 139.122 -31.036 139.122 -29 138 C-28.134 138.959 -28.134 138.959 -27.25 139.938 C-24 142.917 -22.022 142.923 -17.688 143.25 C-13.38 142.958 -10.715 142.215 -7 140 C-3.284 133.72 -3.565 127.559 -3.583 120.411 C-3.575 119.157 -3.566 117.902 -3.557 116.61 C-3.537 113.187 -3.529 109.764 -3.527 106.34 C-3.521 102.753 -3.498 99.165 -3.476 95.578 C-3.438 88.789 -3.414 82 -3.395 75.211 C-3.362 63.042 -3.304 50.872 -3.241 38.703 C-3.22 34.433 -3.204 30.163 -3.194 25.893 C-3.186 22.619 -3.171 19.345 -3.158 16.071 C-3.156 14.295 -3.156 14.295 -3.155 12.482 C-3.149 11.403 -3.144 10.323 -3.138 9.211 C-3.135 8.272 -3.133 7.332 -3.13 6.364 C-3 4 -3 4 -2 1 C-1.34 0.67 -0.68 0.34 0 0 Z " fill="#272434" transform="translate(819,468)" />
<path d="M0 0 C1.91 0.133 1.91 0.133 3.91 1.133 C4.381 3.259 4.381 3.259 4.691 6.059 C4.81 7.077 4.929 8.096 5.052 9.145 C5.17 10.234 5.288 11.323 5.41 12.445 C5.665 14.656 5.921 16.867 6.18 19.078 C6.303 20.135 6.426 21.193 6.553 22.282 C6.954 25.486 7.492 28.649 8.098 31.82 C9.196 37.914 9.089 43.961 8.91 50.133 C9.24 50.133 9.57 50.133 9.91 50.133 C10.078 53.07 10.244 56.008 10.41 58.945 C10.458 59.779 10.506 60.612 10.555 61.471 C10.6 62.273 10.645 63.076 10.691 63.902 C10.733 64.641 10.775 65.379 10.818 66.14 C10.91 68.139 10.91 70.131 10.91 72.133 C9.244 72.176 7.576 72.173 5.91 72.133 C4.415 70.638 4.54 69.183 4.262 67.102 C4.145 66.239 4.028 65.377 3.907 64.489 C3.785 63.546 3.662 62.604 3.535 61.633 C3.406 60.668 3.278 59.704 3.145 58.71 C1.626 47.198 0.26 35.666 -1.09 24.133 C-3.272 36.699 -4.829 49.259 -5.999 61.962 C-6.113 63.123 -6.227 64.284 -6.344 65.48 C-6.44 66.522 -6.536 67.564 -6.635 68.637 C-7.09 71.133 -7.09 71.133 -9.09 73.133 C-11.715 72.758 -11.715 72.758 -14.09 72.133 C-13.47 61.186 -12.41 50.335 -11.152 39.445 C-10.791 36.279 -10.432 33.112 -10.074 29.945 C-9.987 29.18 -9.901 28.414 -9.811 27.625 C-9.018 20.593 -8.311 13.553 -7.686 6.503 C-7.074 -0.069 -6.65 0.024 0 0 Z " fill="#2B293B" transform="translate(718.08984375,662.8671875)" />
<path d="M0 0 C1.91 0.133 1.91 0.133 3.91 1.133 C4.346 3.568 4.665 5.927 4.91 8.383 C5.441 13.337 6.076 18.248 6.871 23.168 C7.966 30.168 8.695 37.184 9.343 44.236 C9.536 46.329 9.738 48.421 9.941 50.514 C10.625 57.734 11.125 64.877 10.91 72.133 C8.435 72.628 8.435 72.628 5.91 73.133 C3.718 67.6 3.204 62.134 2.621 56.266 C2.459 54.714 2.459 54.714 2.293 53.13 C1.951 49.84 1.618 46.549 1.285 43.258 C1.054 41.021 0.822 38.784 0.59 36.547 C0.023 31.076 -0.536 25.605 -1.09 20.133 C-2.965 34.115 -4.69 48.079 -5.994 62.127 C-6.11 63.28 -6.225 64.433 -6.344 65.621 C-6.44 66.637 -6.536 67.653 -6.635 68.7 C-7.09 71.133 -7.09 71.133 -9.09 73.133 C-11.715 72.758 -11.715 72.758 -14.09 72.133 C-13.47 61.186 -12.41 50.335 -11.152 39.445 C-10.791 36.279 -10.432 33.112 -10.074 29.945 C-9.987 29.18 -9.901 28.414 -9.811 27.625 C-9.018 20.593 -8.311 13.553 -7.686 6.503 C-7.074 -0.069 -6.65 0.024 0 0 Z " fill="#2A283A" transform="translate(310.08984375,662.8671875)" />
<path d="M0 0 C2.97 0.495 2.97 0.495 6 1 C6 42.58 6 84.16 6 127 C4.02 127 2.04 127 0 127 C0 85.09 0 43.18 0 0 Z " fill="#252234" transform="translate(776,608)" />
<path d="M0 0 C0 41.91 0 83.82 0 127 C-1.98 127 -3.96 127 -6 127 C-6.047 111.015 -6.082 95.029 -6.104 79.044 C-6.114 71.622 -6.128 64.2 -6.151 56.778 C-6.171 50.309 -6.184 43.841 -6.188 37.373 C-6.191 33.948 -6.197 30.522 -6.211 27.096 C-6.228 23.275 -6.228 19.453 -6.227 15.632 C-6.234 14.492 -6.241 13.353 -6.249 12.179 C-6.246 11.14 -6.243 10.101 -6.241 9.03 C-6.242 8.126 -6.244 7.222 -6.246 6.29 C-6 4 -6 4 -4 1 C-2 0 -2 0 0 0 Z " fill="#252333" transform="translate(374,608)" />
<path d="M0 0 C-0.33 0.66 -0.66 1.32 -1 2 C-3.582 2.344 -3.582 2.344 -6.812 2.5 C-10.847 2.697 -13.447 3.153 -17 5 C-18.32 5 -19.64 5 -21 5 C-21.268 5.557 -21.536 6.114 -21.812 6.688 C-23 9 -23 9 -24.551 11.25 C-27.576 16.991 -26.906 25.043 -25.062 31.188 C-23.068 35.748 -19.483 39.172 -16.059 42.703 C-14.184 44.795 -13.202 46.508 -12 49 C-10.549 50.617 -10.549 50.617 -8.938 52.062 C-6.655 54.166 -6.023 54.932 -5 58 C-4.402 58.268 -3.804 58.536 -3.188 58.812 C-0.032 60.525 1.219 62.946 3 66 C3 66.66 3 67.32 3 68 C4.65 68.33 6.3 68.66 8 69 C8 69.66 8 70.32 8 71 C9.32 71.66 10.64 72.32 12 73 C12 73.99 12 74.98 12 76 C14.97 75.372 14.97 75.372 18 74 C19.17 71.576 19.17 71.576 20 69 C22 67.312 22 67.312 24 66 C26.093 63.989 26.093 63.989 28 61.438 C30 59 30 59 32 58 C32.33 57.01 32.66 56.02 33 55 C37.121 51.881 37.121 51.881 40.312 52.312 C40.869 52.539 41.426 52.766 42 53 C40.392 56.945 37.67 59.687 34.73 62.676 C34.212 63.205 33.694 63.735 33.161 64.28 C32.067 65.393 30.97 66.503 29.87 67.611 C28.189 69.311 26.532 71.031 24.873 72.752 C23.806 73.832 22.738 74.911 21.668 75.988 C21.175 76.506 20.682 77.023 20.174 77.557 C17.904 79.799 16.654 80.99 13.393 81.039 C10.644 79.846 9.112 78.555 7.039 76.395 C6.32 75.658 5.6 74.921 4.859 74.162 C4.122 73.387 3.385 72.611 2.625 71.812 C-1.938 67.084 -6.469 62.496 -11.517 58.285 C-13.422 56.635 -15.027 54.82 -16.625 52.875 C-18.549 50.6 -20.172 48.87 -22.562 47.062 C-28.87 41.725 -33.025 33.801 -34.387 25.699 C-34.983 17.393 -31.424 10.391 -26.395 3.941 C-22.587 0.17 -18.997 -0.811 -13.711 -1.055 C-9.111 -0.962 -4.565 -0.564 0 0 Z " fill="#2E2A3A" transform="translate(497,474)" />
<path d="M0 0 C4.024 2.244 6.203 4.718 8.25 8.812 C8.346 10.477 8.38 12.145 8.375 13.812 C8.379 15.143 8.379 15.143 8.383 16.5 C8.25 18.812 8.25 18.812 7.25 20.812 C6.59 20.812 5.93 20.812 5.25 20.812 C4.92 21.803 4.59 22.793 4.25 23.812 C3.59 23.812 2.93 23.812 2.25 23.812 C2.25 24.473 2.25 25.132 2.25 25.812 C-2.521 28.608 -7.365 28.59 -12.75 27.812 C-15.688 25.688 -15.688 25.688 -17.75 22.812 C-18.513 21.884 -19.276 20.956 -20.062 20 C-22.485 15.424 -22.571 11.686 -21.125 6.625 C-15.454 -0.851 -8.833 -2.797 0 0 Z " fill="#596177" transform="translate(519.75,403.1875)" />
<path d="M0 0 C4.406 2.163 7.164 4.411 9 9 C10.05 14.44 9.246 18.242 6.312 22.938 C3.956 26.391 2.041 27.855 -2 29 C-6.768 29.223 -10.82 28.703 -14.938 26.25 C-19.308 21.482 -20.672 17.98 -20.488 11.508 C-19.669 7.3 -17.278 4.646 -14 2 C-9.545 -0.732 -5.081 -0.65 0 0 Z " fill="#5A6377" transform="translate(518,582)" />
<path d="M0 0 C4.817 2.363 7.602 5.203 10 10 C10.673 15.302 10.265 18.948 7.324 23.457 C4.482 26.769 1.264 28.575 -3.02 29.379 C-8.173 29.684 -11.166 28.311 -15 25 C-18.718 20.793 -19.595 17.563 -19.32 12.109 C-18.659 7.752 -16.671 5.589 -13.438 2.75 C-8.993 -0.441 -5.379 -0.644 0 0 Z " fill="#E5E5E7" transform="translate(589,398)" />
<path d="M0 0 C5.358 1.921 8.458 4.917 11 10 C11.429 15.465 10.808 19.261 8 24 C4.436 27.252 0.738 29.282 -4.125 29.562 C-9.109 28.839 -12.043 27.401 -15.258 23.457 C-18.231 18.914 -18.681 15.361 -18 10 C-13.799 1.909 -8.959 -1.298 0 0 Z " fill="#E4E5E7" transform="translate(451,588)" />
<path d="M0 0 C1.32 0.33 2.64 0.66 4 1 C4 33.34 4 65.68 4 99 C6.97 99 9.94 99 13 99 C9.2 100.9 8.005 101.308 4 101 C3.01 100.67 2.02 100.34 1 100 C-1.628 101.005 -2.724 101.448 -4 104 C-4.99 103.67 -5.98 103.34 -7 103 C-6.718 102.46 -6.435 101.92 -6.144 101.364 C-3.317 95.577 -2.415 90.929 -2.454 84.533 C-2.444 83.634 -2.433 82.736 -2.423 81.81 C-2.394 78.872 -2.392 75.934 -2.391 72.996 C-2.376 70.946 -2.359 68.896 -2.341 66.847 C-2.297 61.476 -2.277 56.105 -2.262 50.734 C-2.242 45.244 -2.2 39.754 -2.16 34.264 C-2.085 23.509 -2.035 12.755 -2 2 C-1.34 2 -0.68 2 0 2 C0 1.34 0 0.68 0 0 Z " fill="#2C2527" transform="translate(245,500)" />
<path d="M0 0 C0.33 0 0.66 0 1 0 C1.004 0.675 1.008 1.35 1.013 2.045 C1.117 18.541 1.225 35.037 1.339 51.533 C1.394 59.511 1.448 67.489 1.497 75.467 C1.541 82.428 1.587 89.389 1.637 96.35 C1.663 100.029 1.688 103.708 1.709 107.386 C1.733 111.514 1.763 115.642 1.795 119.769 C1.8 120.961 1.806 122.153 1.812 123.381 C1.891 132.643 2.454 141.717 3 151 C21.15 151.33 39.3 151.66 58 152 C58 120.65 58 89.3 58 57 C58.66 57 59.32 57 60 57 C59.67 89.67 59.34 122.34 59 156 C39.53 156 20.06 156 0 156 C0 104.52 0 53.04 0 0 Z " fill="#E0764C" transform="translate(309,442)" />
<path d="M0 0 C1.32 0 2.64 0 4 0 C7.258 8.997 8.571 16.869 8.454 26.409 C8.455 27.679 8.455 28.949 8.456 30.257 C8.457 33.695 8.434 37.132 8.406 40.569 C8.38 44.178 8.378 47.786 8.373 51.395 C8.361 58.209 8.328 65.022 8.288 71.836 C8.243 79.602 8.221 87.367 8.201 95.133 C8.16 111.089 8.089 127.044 8 143 C7.67 143 7.34 143 7 143 C6.67 137.06 6.34 131.12 6 125 C5.67 125 5.34 125 5 125 C3.692 110.017 3.887 95.027 3.938 80 C3.943 77.375 3.947 74.75 3.951 72.125 C3.962 65.75 3.979 59.375 4 53 C3.01 53.495 3.01 53.495 2 54 C1.975 52.719 1.95 51.439 1.924 50.12 C1.829 45.33 1.729 40.54 1.628 35.75 C1.585 33.685 1.543 31.619 1.503 29.553 C1.444 26.569 1.381 23.585 1.316 20.602 C1.3 19.691 1.283 18.78 1.266 17.841 C1.13 11.854 0.681 5.95 0 0 Z " fill="#373340" transform="translate(407,459)" />
</svg>