<?xml version='1.0' encoding='utf-8'?>
<svg xmlns="http://www.w3.org/2000/svg" version="1.1" width="580" height="467" viewBox="415.426125 151.742 580.336 467.65096875000006">
<path d="M0 0 C5.972 3.662 10.578 7.684 13.172 14.332 C15.614 13.247 17.462 12.095 19.547 10.395 C24.787 6.278 29.299 4.799 35.922 4.895 C36.97 4.899 36.97 4.899 38.039 4.904 C43.985 5.063 48.914 6.501 54.172 9.332 C54.172 10.322 54.172 11.312 54.172 12.332 C58.53 13.566 60.831 14.02 64.941 11.91 C66.806 10.675 68.648 9.404 70.461 8.094 C77.241 3.688 84.316 3.56 92.172 4.332 C95.448 5.275 98.24 6.608 101.172 8.332 C102.781 9.26 102.781 9.26 104.422 10.207 C107.586 12.652 109.733 15.175 112.172 18.332 C115.218 17.582 115.218 17.582 116.922 15.457 C121.553 11.083 125.904 10.121 132.109 9.895 C138.677 10.091 143.232 11.499 147.992 16.086 C152.172 20.742 152.172 20.742 152.172 23.332 C153.017 23.006 153.863 22.68 154.734 22.344 C158.401 21.265 161.36 21.099 165.172 21.145 C166.935 21.154 166.935 21.154 168.734 21.164 C171.959 21.322 175.004 21.728 178.172 22.332 C178.172 21.672 178.172 21.012 178.172 20.332 C183.585 17.91 188.507 17.794 194.172 19.332 C197.12 21.048 199.656 23.034 202.172 25.332 C204.465 24.21 206.622 23.053 208.797 21.707 C214.574 19.354 219.935 19.469 225.734 21.707 C228.172 23.332 228.172 23.332 229.172 25.332 C230.203 25.415 231.234 25.497 232.297 25.582 C237.067 26.505 240.254 28.401 243.172 32.332 C243.502 34.312 243.832 36.292 244.172 38.332 C250.442 38.332 256.712 38.332 263.172 38.332 C262.842 51.532 262.512 64.732 262.172 78.332 C265.802 76.352 269.432 74.372 273.172 72.332 C276.335 70.659 279.501 68.99 282.672 67.332 C287.691 64.699 292.706 62.064 297.672 59.332 C298.902 58.663 298.902 58.663 300.156 57.98 C301.895 57.03 303.631 56.076 305.361 55.11 C307.874 53.712 310.397 52.334 312.922 50.957 C313.727 50.503 314.532 50.05 315.361 49.582 C320.887 46.597 325.173 45.174 331.465 46.996 C336.103 49.349 338.985 51.411 341.172 56.332 C341.934 61.203 341.737 65.055 339.734 69.582 C333.397 76.383 324.574 80.403 316.442 84.68 C313.313 86.327 310.192 87.991 307.07 89.652 C306.461 89.976 305.852 90.3 305.225 90.633 C299.552 93.653 293.918 96.722 288.394 100.005 C285.314 101.778 282.188 103.207 278.916 104.589 C268.965 108.832 268.965 108.832 261.989 116.646 C260.188 123.254 260.689 130.008 261.008 136.781 C261.032 138.965 261.047 141.15 261.052 143.334 C261.09 149.067 261.251 154.791 261.441 160.521 C261.65 167.441 261.723 174.363 261.807 181.285 C261.874 186.681 261.963 192.073 262.126 197.467 C262.74 220.467 258.347 241.11 247.172 261.332 C246.627 262.322 246.081 263.312 245.52 264.332 C231.525 287.873 206.409 305.271 180.172 312.332 C167.999 315.247 156.394 315.759 143.927 315.704 C141.946 315.707 139.965 315.711 137.983 315.715 C132.651 315.725 127.319 315.715 121.986 315.702 C116.38 315.691 110.774 315.695 105.168 315.697 C95.761 315.698 86.355 315.687 76.948 315.668 C66.1 315.647 55.251 315.644 44.403 315.65 C33.927 315.655 23.451 315.65 12.975 315.639 C8.534 315.634 4.093 315.633 -0.348 315.635 C-5.582 315.637 -10.817 315.629 -16.051 315.613 C-17.963 315.609 -19.875 315.608 -21.787 315.611 C-43.565 315.638 -67.498 313.111 -85.633 299.859 C-87.96 298.182 -87.96 298.182 -91.184 296.504 C-95.015 294.343 -98.089 291.666 -101.266 288.645 C-102.113 287.846 -102.113 287.846 -102.978 287.031 C-124.913 266.144 -138.015 238.329 -139.087 207.913 C-139.208 201.914 -139.167 195.917 -139.121 189.918 C-139.115 187.724 -139.111 185.53 -139.108 183.336 C-139.097 177.625 -139.068 171.914 -139.034 166.203 C-139.003 160.35 -138.99 154.498 -138.975 148.645 C-138.943 137.207 -138.892 125.769 -138.828 114.332 C-139.602 114.028 -140.375 113.725 -141.172 113.412 C-143.878 112.312 -146.361 111.028 -148.918 109.617 C-149.867 109.096 -150.817 108.574 -151.795 108.037 C-152.775 107.495 -153.756 106.953 -154.766 106.395 C-163.22 101.716 -163.22 101.716 -171.828 97.332 C-171.828 96.672 -171.828 96.012 -171.828 95.332 C-172.773 95.119 -173.718 94.907 -174.691 94.688 C-179.906 93.193 -184.371 90.384 -189.016 87.645 C-189.943 87.104 -190.871 86.564 -191.826 86.008 C-193.664 84.937 -195.499 83.863 -197.333 82.787 C-199.442 81.557 -201.56 80.35 -203.691 79.16 C-215.83 72.328 -215.83 72.328 -217.828 66.332 C-218.402 61.77 -218.86 57.288 -216.664 53.125 C-212.731 48.335 -209.329 46.677 -203.203 45.832 C-199.457 45.93 -197.038 47.11 -193.805 48.957 C-192.837 49.502 -191.87 50.046 -190.874 50.607 C-189.869 51.177 -188.864 51.746 -187.828 52.332 C-185.851 53.409 -183.872 54.482 -181.891 55.551 C-180.394 56.361 -180.394 56.361 -178.867 57.188 C-177.363 58.002 -177.363 58.002 -175.828 58.832 C-173.807 59.926 -171.786 61.019 -169.766 62.113 C-168.275 62.92 -168.275 62.92 -166.754 63.742 C-164.873 64.764 -162.995 65.793 -161.121 66.828 C-153.774 70.884 -146.357 74.568 -138.828 78.332 C-138.828 66.452 -138.828 54.572 -138.828 42.332 C-139.488 42.332 -140.148 42.332 -140.828 42.332 C-140.498 41.012 -140.168 39.692 -139.828 38.332 C-136.858 38.332 -133.888 38.332 -130.828 38.332 C-130.931 37.651 -131.034 36.971 -131.141 36.27 C-130.58 30.999 -127.608 27.816 -123.691 24.551 C-117.197 20.116 -111.569 19.243 -103.828 20.332 C-99.075 21.51 -94.916 23.65 -90.828 26.332 C-90.828 25.342 -90.828 24.352 -90.828 23.332 C-90.168 23.332 -89.508 23.332 -88.828 23.332 C-88.622 22.734 -88.416 22.136 -88.203 21.52 C-86.223 18.37 -84.297 17.617 -80.828 16.332 C-74.512 15.619 -70.068 16.679 -64.828 20.332 C-62.771 22.24 -61.43 23.979 -59.828 26.332 C-59.828 27.322 -59.828 28.312 -59.828 29.332 C-58.508 29.332 -57.188 29.332 -55.828 29.332 C-55.952 28.528 -56.076 27.723 -56.203 26.895 C-55.54 20.595 -51.741 16.067 -47.141 11.895 C-43.972 10.4 -41.812 9.978 -38.391 9.52 C-33.072 8.723 -31.031 7.037 -27.559 3.086 C-20.135 -4.439 -8.99 -4.511 0 0 Z " fill="#FC7C69" transform="translate(643.828125,293.66796875)" />
<path d="M0 0 C1.879 0.464 3.758 0.927 5.637 1.391 C6.565 1.622 7.494 1.853 8.451 2.092 C11.544 2.853 14.646 3.569 17.751 4.278 C24.906 5.916 31.962 7.796 39.017 9.82 C46.174 11.838 53.413 13.444 60.69 14.963 C68.129 16.569 73.617 18.238 78.125 24.75 C79.739 27.978 79.573 31.251 79.125 34.75 C77.754 38.713 75.802 41.284 72.312 43.688 C65.429 45.982 59 44.299 52.125 42.75 C51.992 43.353 51.859 43.957 51.723 44.578 C51.546 45.377 51.369 46.177 51.188 47 C51.013 47.789 50.839 48.578 50.66 49.391 C50.177 51.519 49.658 53.634 49.125 55.75 C49.74 55.859 50.354 55.968 50.987 56.08 C56.99 57.203 62.633 58.747 68.375 60.812 C69.222 61.113 70.069 61.414 70.942 61.724 C85.609 67.012 100.091 72.952 114.125 79.75 C115.124 80.23 116.123 80.709 117.152 81.203 C140.442 92.593 167.81 108.444 177.549 133.868 C178.88 138.217 178.667 142.307 178.125 146.75 C170.687 146.128 163.72 144.561 156.496 142.715 C155.261 142.404 154.026 142.094 152.754 141.774 C149.389 140.928 146.026 140.075 142.664 139.221 C139.122 138.322 135.579 137.43 132.037 136.538 C127.605 135.421 123.174 134.304 118.744 133.185 C108.997 130.722 99.246 128.278 89.49 125.851 C87.304 125.308 85.119 124.764 82.934 124.219 C74.56 122.134 74.56 122.134 66.186 120.053 C53.694 116.951 41.214 113.845 28.829 110.336 C23.298 108.775 17.744 107.452 12.125 106.25 C4.518 104.572 -2.985 102.683 -10.478 100.555 C-19.678 97.941 -28.941 95.625 -38.273 93.531 C-39.695 93.212 -39.695 93.212 -41.146 92.887 C-42.975 92.479 -44.805 92.075 -46.636 91.676 C-51.534 90.588 -56.349 89.346 -61.164 87.934 C-72.031 84.779 -83.06 82.251 -94.06 79.607 C-104.71 77.044 -115.332 74.442 -125.864 71.426 C-130.753 70.03 -135.668 68.819 -140.625 67.688 C-148.126 65.967 -155.5 63.947 -162.875 61.75 C-162.42 57.257 -161.97 54.119 -159.125 50.562 C-158.635 49.93 -158.145 49.297 -157.641 48.645 C-146.09 36.251 -124.853 32.481 -108.567 31.629 C-106.009 31.553 -103.453 31.507 -100.895 31.477 C-99.94 31.464 -98.986 31.452 -98.003 31.439 C-94.898 31.407 -91.793 31.388 -88.688 31.375 C-87.625 31.37 -86.562 31.366 -85.468 31.361 C-65.255 31.33 -45.758 33.262 -25.875 36.75 C-25.095 36.886 -24.315 37.022 -23.512 37.162 C-18.631 38.013 -13.752 38.876 -8.875 39.75 C-8.731 39.012 -8.587 38.274 -8.439 37.513 C-7 30.125 -7 30.125 -5.875 26.75 C-6.865 26.647 -7.855 26.544 -8.875 26.438 C-15.097 25.529 -20.877 23.867 -24.875 18.75 C-26.327 14.393 -26.512 10.299 -25.875 5.75 C-24.243 2.544 -21.898 0.5 -19 -1.625 C-12.599 -3.508 -6.247 -1.589 0 0 Z " fill="#F97E6B" transform="translate(718.875,165.25)" />
<path d="M0 0 C16.17 0 32.34 0 49 0 C49 11.22 49 22.44 49 34 C52.96 31.69 56.92 29.38 61 27 C64.179 25.289 67.358 23.597 70.562 21.938 C72.22 21.072 73.878 20.206 75.535 19.34 C76.701 18.731 76.701 18.731 77.891 18.109 C80.443 16.767 82.975 15.391 85.5 14 C86.32 13.554 87.14 13.108 87.984 12.648 C89.723 11.698 91.459 10.744 93.189 9.778 C95.702 8.38 98.225 7.002 100.75 5.625 C101.555 5.171 102.36 4.717 103.189 4.25 C108.715 1.265 113.001 -0.158 119.293 1.664 C123.931 4.017 126.813 6.079 129 11 C129.762 15.871 129.565 19.723 127.562 24.25 C121.225 31.051 112.402 35.071 104.27 39.348 C101.141 40.995 98.02 42.659 94.898 44.32 C94.289 44.644 93.68 44.968 93.053 45.301 C87.38 48.321 81.747 51.39 76.222 54.673 C73.142 56.446 70.016 57.875 66.744 59.257 C56.794 63.5 56.794 63.5 49.818 71.314 C48.016 77.922 48.517 84.676 48.836 91.449 C48.86 93.633 48.875 95.817 48.88 98.002 C48.918 103.735 49.079 109.459 49.269 115.189 C49.478 122.109 49.551 129.031 49.635 135.953 C49.702 141.349 49.791 146.741 49.954 152.135 C50.568 175.135 46.176 195.778 35 216 C34.455 216.99 33.909 217.98 33.348 219 C19.722 241.92 -3.849 258.013 -28.863 266.211 C-29.898 266.471 -30.934 266.732 -32 267 C-33.027 267.267 -33.027 267.267 -34.075 267.54 C-43.823 269.711 -53.762 269.218 -63.688 269.125 C-65.564 269.115 -67.441 269.106 -69.318 269.098 C-73.879 269.076 -78.439 269.041 -83 269 C-81.628 266.255 -79.717 265.964 -76.98 264.863 C-74.948 263.977 -73.094 262.943 -71.188 261.812 C-68 260 -68 260 -66 260 C-66 259.34 -66 258.68 -66 258 C-63.616 256.132 -61.225 254.364 -58.75 252.625 C-54.506 249.625 -50.674 246.692 -47 243 C-46.34 243 -45.68 243 -45 243 C-45 242.34 -45 241.68 -45 241 C-44.34 241 -43.68 241 -43 241 C-42.755 240.444 -42.51 239.889 -42.258 239.316 C-40.752 236.544 -38.912 234.347 -36.875 231.938 C-28.521 222.082 -28.521 222.082 -22 211 C-21.34 211 -20.68 211 -20 211 C-19.505 208.03 -19.505 208.03 -19 205 C-18.34 205 -17.68 205 -17 205 C-16.83 204.299 -16.66 203.597 -16.484 202.875 C-16.242 201.926 -16 200.977 -15.75 200 C-15.518 199.072 -15.286 198.144 -15.047 197.188 C-14.209 194.636 -13.321 192.6 -12.082 190.25 C-9.718 185.664 -8.312 180.958 -6.938 176 C-6.695 175.169 -6.452 174.337 -6.201 173.48 C-2.434 160.149 -0.55 147.345 -0.568 133.506 C-0.559 132.036 -0.548 130.565 -0.537 129.095 C-0.51 125.16 -0.5 121.225 -0.494 117.29 C-0.484 113.157 -0.458 109.024 -0.434 104.891 C-0.39 97.089 -0.362 89.287 -0.339 81.486 C-0.311 72.593 -0.267 63.701 -0.222 54.808 C-0.13 36.539 -0.06 18.269 0 0 Z " fill="#F3573F" transform="translate(856,339)" />
<path d="M0 0 C5.972 3.662 10.578 7.684 13.172 14.332 C15.614 13.247 17.462 12.095 19.547 10.395 C24.787 6.278 29.299 4.799 35.922 4.895 C36.97 4.899 36.97 4.899 38.039 4.904 C43.985 5.063 48.914 6.501 54.172 9.332 C54.172 10.322 54.172 11.312 54.172 12.332 C58.53 13.566 60.831 14.02 64.941 11.91 C66.806 10.675 68.648 9.404 70.461 8.094 C77.241 3.688 84.316 3.56 92.172 4.332 C95.448 5.275 98.24 6.608 101.172 8.332 C102.244 8.951 103.317 9.57 104.422 10.207 C107.586 12.652 109.733 15.175 112.172 18.332 C115.218 17.582 115.218 17.582 116.922 15.457 C121.553 11.083 125.904 10.121 132.109 9.895 C138.677 10.091 143.232 11.499 147.992 16.086 C152.172 20.742 152.172 20.742 152.172 23.332 C153.017 23.006 153.863 22.68 154.734 22.344 C158.401 21.265 161.36 21.099 165.172 21.145 C166.935 21.154 166.935 21.154 168.734 21.164 C171.959 21.322 175.004 21.728 178.172 22.332 C178.172 21.672 178.172 21.012 178.172 20.332 C183.585 17.91 188.507 17.794 194.172 19.332 C197.12 21.048 199.656 23.034 202.172 25.332 C204.465 24.21 206.622 23.053 208.797 21.707 C214.574 19.354 219.935 19.469 225.734 21.707 C228.172 23.332 228.172 23.332 229.172 25.332 C230.203 25.415 231.234 25.497 232.297 25.582 C237.067 26.505 240.254 28.401 243.172 32.332 C243.502 34.312 243.832 36.292 244.172 38.332 C250.442 38.332 256.712 38.332 263.172 38.332 C263.172 38.662 263.172 38.992 263.172 39.332 C130.182 39.332 -2.808 39.332 -139.828 39.332 C-139.828 39.002 -139.828 38.672 -139.828 38.332 C-136.858 38.332 -133.888 38.332 -130.828 38.332 C-130.931 37.651 -131.034 36.971 -131.141 36.27 C-130.58 30.999 -127.608 27.816 -123.691 24.551 C-117.197 20.116 -111.569 19.243 -103.828 20.332 C-99.075 21.51 -94.916 23.65 -90.828 26.332 C-90.828 25.342 -90.828 24.352 -90.828 23.332 C-90.168 23.332 -89.508 23.332 -88.828 23.332 C-88.622 22.734 -88.416 22.136 -88.203 21.52 C-86.223 18.37 -84.297 17.617 -80.828 16.332 C-74.512 15.619 -70.068 16.679 -64.828 20.332 C-62.771 22.24 -61.43 23.979 -59.828 26.332 C-59.828 27.322 -59.828 28.312 -59.828 29.332 C-58.508 29.332 -57.188 29.332 -55.828 29.332 C-55.952 28.528 -56.076 27.723 -56.203 26.895 C-55.54 20.595 -51.741 16.067 -47.141 11.895 C-43.972 10.4 -41.812 9.978 -38.391 9.52 C-33.072 8.723 -31.031 7.037 -27.559 3.086 C-20.135 -4.439 -8.99 -4.511 0 0 Z " fill="#FCB4A6" transform="translate(643.828125,293.66796875)" />
<path d="M0 0 C13.834 -0.902 28.38 7.1 41 12 C42.021 12.396 43.042 12.793 44.094 13.201 C64.401 21.17 83.693 30.615 101 44 C101.886 44.664 102.771 45.328 103.684 46.012 C106.191 47.94 108.605 49.935 111 52 C111.917 52.785 112.833 53.57 113.777 54.379 C121.899 61.854 128.911 71.264 130.488 82.469 C130.498 85.045 130.31 87.449 130 90 C122.562 89.378 115.595 87.811 108.371 85.965 C107.136 85.654 105.901 85.344 104.629 85.024 C101.264 84.178 97.901 83.325 94.539 82.471 C90.997 81.572 87.454 80.68 83.912 79.788 C79.48 78.671 75.049 77.554 70.619 76.435 C60.872 73.972 51.121 71.528 41.365 69.101 C39.179 68.558 36.994 68.014 34.809 67.469 C26.435 65.384 26.435 65.384 18.061 63.303 C5.569 60.201 -6.911 57.095 -19.296 53.586 C-24.827 52.025 -30.381 50.702 -36 49.5 C-43.607 47.822 -51.11 45.933 -58.603 43.805 C-67.803 41.191 -77.066 38.875 -86.398 36.781 C-87.346 36.569 -88.294 36.356 -89.271 36.137 C-91.1 35.729 -92.93 35.325 -94.761 34.926 C-99.659 33.838 -104.474 32.596 -109.289 31.184 C-120.156 28.029 -131.185 25.501 -142.185 22.857 C-152.835 20.294 -163.457 17.692 -173.989 14.676 C-178.878 13.28 -183.793 12.069 -188.75 10.938 C-196.251 9.217 -203.625 7.197 -211 5 C-211 4.01 -211 3.02 -211 2 C-203.541 2.503 -196.596 3.922 -189.375 5.812 C-187.566 6.276 -185.756 6.739 -183.947 7.201 C-182.6 7.545 -181.254 7.89 -179.907 8.236 C-173.759 9.814 -167.601 11.353 -161.441 12.887 C-160.426 13.139 -159.411 13.392 -158.365 13.653 C-156.278 14.172 -154.191 14.692 -152.103 15.211 C-137.007 18.972 -121.921 22.761 -106.869 26.693 C-93.771 30.112 -80.656 33.498 -67.46 36.521 C-61.475 37.909 -55.562 39.381 -49.656 41.078 C-35.45 45.083 -21.092 48.532 -6.769 52.092 C-2.741 53.094 1.287 54.099 5.314 55.103 C11.652 56.683 17.991 58.262 24.329 59.84 C34.542 62.383 44.753 64.936 54.964 67.49 C58.903 68.476 62.842 69.461 66.781 70.445 C68.854 70.964 70.927 71.482 73 72 C72.7 70.26 72.396 68.52 72.09 66.781 C71.921 65.813 71.752 64.844 71.578 63.846 C70.254 57.172 70.254 57.172 66.59 51.656 C65 50 65 50 63.605 47.141 C61.883 43.771 59.915 41.483 57.312 38.75 C53 34.211 53 34.211 53 32 C52.34 32 51.68 32 51 32 C51 31.34 51 30.68 51 30 C50.464 29.732 49.928 29.464 49.375 29.188 C48.591 28.796 47.808 28.404 47 28 C46.01 27.546 45.02 27.093 44 26.625 C41.06 25.032 39.14 23.551 37 21 C37 20.34 37 19.68 37 19 C36.278 18.711 35.556 18.423 34.812 18.125 C30.906 16.563 30.906 16.563 27 15 C27 14.34 27 13.68 27 13 C26.278 12.711 25.556 12.423 24.812 12.125 C22.208 11.083 19.604 10.042 17 9 C17 8.34 17 7.68 17 7 C15.02 6.67 13.04 6.34 11 6 C11 5.34 11 4.68 11 4 C10.29 3.879 9.579 3.758 8.848 3.633 C7.929 3.465 7.009 3.298 6.062 3.125 C5.146 2.963 4.229 2.8 3.285 2.633 C2.531 2.424 1.777 2.215 1 2 C0.67 1.34 0.34 0.68 0 0 Z " fill="#F25940" transform="translate(767,222)" />
<path d="M0 0 C1.879 0.464 3.758 0.927 5.637 1.391 C6.565 1.622 7.494 1.853 8.451 2.092 C11.544 2.853 14.646 3.569 17.751 4.278 C24.906 5.916 31.962 7.796 39.017 9.82 C46.174 11.838 53.413 13.444 60.69 14.963 C68.129 16.569 73.617 18.238 78.125 24.75 C79.739 27.978 79.573 31.251 79.125 34.75 C77.754 38.713 75.802 41.284 72.312 43.688 C65.429 45.982 59 44.299 52.125 42.75 C51.992 43.353 51.859 43.957 51.723 44.578 C51.546 45.377 51.369 46.177 51.188 47 C50.926 48.183 50.926 48.183 50.66 49.391 C50.177 51.519 49.663 53.635 49.125 55.75 C47.145 55.255 47.145 55.255 45.125 54.75 C45.639 49.781 46.359 45.46 48.125 40.75 C47.563 40.664 47.001 40.577 46.422 40.488 C32.736 38.2 19.265 34.488 5.973 30.547 C3.368 29.818 0.784 29.24 -1.875 28.75 C-2.008 29.365 -2.141 29.98 -2.277 30.613 C-2.542 31.826 -2.542 31.826 -2.812 33.062 C-3.074 34.263 -3.074 34.263 -3.34 35.488 C-3.875 37.75 -3.875 37.75 -4.875 40.75 C-5.865 40.75 -6.855 40.75 -7.875 40.75 C-8.055 35.53 -7.846 31.677 -5.875 26.75 C-6.865 26.647 -7.855 26.544 -8.875 26.438 C-15.097 25.529 -20.877 23.867 -24.875 18.75 C-26.327 14.393 -26.512 10.299 -25.875 5.75 C-24.243 2.544 -21.898 0.5 -19 -1.625 C-12.599 -3.508 -6.247 -1.589 0 0 Z " fill="#2E2A2A" transform="translate(718.875,165.25)" />
<path d="M0 0 C4.545 2.936 6.562 7.404 7.711 12.574 C7.956 14.208 8.113 15.854 8.25 17.5 C8.844 17.067 9.439 16.634 10.051 16.188 C18.811 10.302 26.189 10.711 36.25 12.5 C36.58 11.51 36.91 10.52 37.25 9.5 C35.6 8.84 33.95 8.18 32.25 7.5 C32.25 7.17 32.25 6.84 32.25 6.5 C33.9 6.5 35.55 6.5 37.25 6.5 C37.25 5.84 37.25 5.18 37.25 4.5 C42.663 2.078 47.585 1.962 53.25 3.5 C56.198 5.216 58.735 7.202 61.25 9.5 C63.543 8.378 65.7 7.221 67.875 5.875 C73.652 3.522 79.014 3.637 84.812 5.875 C87.25 7.5 87.25 7.5 88.25 9.5 C89.405 9.665 90.56 9.83 91.75 10 C92.905 10.165 94.06 10.33 95.25 10.5 C95.745 11.49 95.745 11.49 96.25 12.5 C95.92 13.16 95.59 13.82 95.25 14.5 C95.889 14.789 96.529 15.077 97.188 15.375 C99.25 16.5 99.25 16.5 100.25 18.5 C99.92 19.49 99.59 20.48 99.25 21.5 C56.35 21.5 13.45 21.5 -30.75 21.5 C-30.09 21.17 -29.43 20.84 -28.75 20.5 C-28.647 19.675 -28.544 18.85 -28.438 18 C-26.912 10.236 -23.024 5.081 -16.617 0.594 C-11.421 -2.45 -5.365 -2.625 0 0 Z " fill="#FBB4A5" transform="translate(784.75,309.5)" />
<path d="M0 0 C2.438 0.812 2.438 0.812 4.438 2.812 C4.696 5.551 4.696 5.551 4.709 9.088 C4.714 9.732 4.719 10.377 4.725 11.041 C4.735 12.444 4.741 13.848 4.742 15.252 C4.746 17.492 4.763 19.732 4.783 21.972 C4.838 28.343 4.869 34.713 4.894 41.084 C5.019 70.081 6.905 96.252 21.438 122.062 C21.77 122.654 22.102 123.245 22.445 123.854 C24.036 126.617 25.687 129.122 27.688 131.609 C29.438 133.812 29.438 133.812 29.438 135.812 C30.428 136.143 31.418 136.472 32.438 136.812 C33.61 138.219 34.778 139.63 35.918 141.062 C39.534 145.227 43.905 148.759 48.438 151.875 C50.438 153.812 50.438 153.812 50.875 156.938 C50.438 159.812 50.438 159.812 48.438 161.812 C42.764 161.847 39.951 160.072 35.996 156.356 C35.378 155.744 34.761 155.131 34.125 154.5 C33.473 153.871 32.822 153.241 32.151 152.593 C23.875 144.477 15.209 135.518 10.438 124.812 C10.438 123.493 10.438 122.173 10.438 120.812 C9.778 120.812 9.117 120.812 8.438 120.812 C4.439 112.457 0.991 104.159 -1.375 95.188 C-1.569 94.462 -1.763 93.736 -1.964 92.989 C-5.074 80.591 -5.877 68.188 -5.863 55.457 C-5.867 53.937 -5.872 52.417 -5.876 50.898 C-5.884 47.745 -5.883 44.593 -5.878 41.441 C-5.872 37.402 -5.889 33.362 -5.913 29.323 C-5.927 26.199 -5.928 23.076 -5.925 19.953 C-5.926 18.462 -5.931 16.971 -5.941 15.48 C-5.953 13.408 -5.946 11.337 -5.935 9.265 C-5.936 7.5 -5.936 7.5 -5.937 5.699 C-5.562 2.812 -5.562 2.812 -4.199 0.898 C-2.562 -0.188 -2.562 -0.188 0 0 Z " fill="#FCF6F3" transform="translate(535.5625,416.1875)" />
<path d="M0 0 C7.459 0.503 14.404 1.922 21.625 3.812 C23.434 4.276 25.244 4.739 27.053 5.201 C28.4 5.545 29.746 5.89 31.093 6.236 C37.241 7.814 43.399 9.353 49.559 10.887 C50.574 11.139 51.589 11.392 52.635 11.653 C54.722 12.172 56.809 12.692 58.897 13.211 C73.993 16.972 89.079 20.761 104.131 24.693 C117.229 28.112 130.344 31.498 143.54 34.521 C148.862 35.755 154.148 37.01 159.4 38.518 C173.919 42.684 188.613 46.209 203.269 49.852 C207.255 50.843 211.24 51.837 215.225 52.831 C220.895 54.244 226.566 55.658 232.236 57.07 C245.472 60.365 258.705 63.674 271.937 66.984 C277.531 68.383 283.125 69.781 288.719 71.18 C290.693 71.673 292.667 72.167 294.641 72.66 C295.552 72.888 296.463 73.116 297.402 73.351 C298.26 73.565 299.117 73.779 300 74 C301.179 74.295 301.179 74.295 302.383 74.596 C303.118 74.779 303.852 74.963 304.609 75.152 C305.653 75.413 305.653 75.413 306.717 75.679 C314.145 77.536 321.572 79.393 329 81.25 C330.072 81.518 331.145 81.786 332.25 82.062 C334.184 82.546 336.117 83.029 338.051 83.513 C339.016 83.754 339.016 83.754 340 84 C340 85.32 340 86.64 340 88 C332.968 87.322 326.308 85.705 319.469 83.965 C317.614 83.499 317.614 83.499 315.722 83.024 C312.35 82.177 308.978 81.324 305.607 80.471 C302.059 79.573 298.51 78.681 294.96 77.788 C290.522 76.671 286.083 75.554 281.645 74.435 C271.887 71.974 262.126 69.531 252.361 67.101 C250.176 66.558 247.991 66.014 245.806 65.469 C237.434 63.384 237.434 63.384 229.061 61.303 C216.569 58.201 204.089 55.095 191.704 51.586 C186.173 50.025 180.619 48.702 175 47.5 C167.393 45.822 159.89 43.933 152.397 41.805 C143.197 39.191 133.934 36.875 124.602 34.781 C123.654 34.569 122.706 34.356 121.729 34.137 C119.9 33.729 118.07 33.325 116.239 32.926 C111.341 31.838 106.526 30.596 101.711 29.184 C90.844 26.029 79.815 23.501 68.815 20.857 C58.165 18.294 47.543 15.692 37.011 12.676 C32.122 11.28 27.207 10.069 22.25 8.938 C14.749 7.217 7.375 5.197 0 3 C0 2.01 0 1.02 0 0 Z " fill="#3F3029" transform="translate(556,224)" />
<path d="M0 0 C-1.15 3.45 -2.303 3.971 -5.258 5.852 C-16.445 13.226 -22.148 24.084 -25 37 C-26.38 53.365 -23.234 65.224 -15.438 79.484 C-7.484 94.127 -2.12 109.277 -5.648 126.09 C-7.855 132.059 -11.546 137.463 -16 142 C-16.99 142.33 -17.98 142.66 -19 143 C-19 141.68 -19 140.36 -19 139 C-18.34 139 -17.68 139 -17 139 C-16.693 137.952 -16.693 137.952 -16.379 136.883 C-16.109 135.973 -15.84 135.063 -15.562 134.125 C-15.296 133.22 -15.029 132.315 -14.754 131.383 C-14 129 -14 129 -13 127 C-11.854 113.359 -15.525 103.287 -21.828 91.398 C-23 89 -23 89 -23 87 C-23.66 87 -24.32 87 -25 87 C-33.871 72.245 -38.786 55.883 -34.75 38.75 C-30.505 23.774 -21.979 10.277 -8.188 2.5 C-3.473 0 -3.473 0 0 0 Z " fill="#F18572" transform="translate(535,163)" />
<path d="M0 0 C133.32 0 266.64 0 404 0 C404 0.99 404 1.98 404 3 C270.68 3 137.36 3 0 3 C0 2.01 0 1.02 0 0 Z " fill="#301E18" transform="translate(503,333)" />
<path d="M0 0 C132.33 0 264.66 0 401 0 C401.33 12.21 401.66 24.42 402 37 C401.34 37 400.68 37 400 37 C400 25.78 400 14.56 400 3 C393.04 3.12 386.08 3.242 379.12 3.372 C376.75 3.416 374.38 3.457 372.01 3.497 C368.612 3.555 365.214 3.619 361.816 3.684 C360.75 3.7 359.683 3.717 358.584 3.734 C357.603 3.754 356.622 3.774 355.612 3.795 C354.743 3.81 353.875 3.826 352.98 3.842 C350.999 3.785 350.999 3.785 350 5 C347.775 5.096 345.547 5.119 343.32 5.115 C342.609 5.115 341.898 5.115 341.165 5.115 C338.744 5.113 336.323 5.104 333.902 5.094 C332.148 5.09 330.393 5.086 328.639 5.083 C310.652 5.036 292.665 4.851 274.679 4.68 C212.119 4.083 149.563 3.91 87 3.938 C85.502 3.938 85.502 3.938 83.974 3.939 C58.316 3.95 32.658 3.97 7 4 C7 3.67 7 3.34 7 3 C21.755 2.863 36.51 2.733 51.264 2.609 C58.131 2.551 64.997 2.491 71.863 2.427 C130.245 1.89 188.611 2 247 2 C165.49 1.67 83.98 1.34 0 1 C0 0.67 0 0.34 0 0 Z " fill="#D46D5B" transform="translate(505,336)" />
<path d="M0 0 C1.32 0.66 2.64 1.32 4 2 C-4.415 2.495 -4.415 2.495 -13 3 C-13 3.66 -13 4.32 -13 5 C-15.97 5.99 -18.94 6.98 -22 8 C-21.67 9.32 -21.34 10.64 -21 12 C-22.438 14.75 -22.438 14.75 -24 17 C-23.433 16.998 -22.867 16.995 -22.283 16.992 C11.75 16.843 45.784 16.7 79.817 16.567 C83.959 16.55 88.1 16.534 92.241 16.518 C93.066 16.515 93.89 16.511 94.739 16.508 C106.245 16.462 117.751 16.414 129.257 16.363 C149.103 16.274 168.948 16.192 188.793 16.121 C189.566 16.118 190.338 16.116 191.134 16.113 C242.096 15.93 293.044 16.069 344 17 C343.73 14.563 343.73 14.563 343 12 C342.01 11.34 341.02 10.68 340 10 C340 9.34 340 8.68 340 8 C343.875 9.257 345.986 10.396 348 14 C348 15.32 348 16.64 348 18 C354.27 18 360.54 18 367 18 C367 18.33 367 18.66 367 19 C234.01 19 101.02 19 -36 19 C-36 18.67 -36 18.34 -36 18 C-33.03 18 -30.06 18 -27 18 C-27.103 17.319 -27.206 16.639 -27.312 15.938 C-26.752 10.667 -23.78 7.484 -19.863 4.219 C-13.464 -0.151 -7.656 -1.167 0 0 Z " fill="#D6AB9F" transform="translate(540,314)" />
<path d="M0 0 C1.372 0.717 2.728 1.465 4.062 2.25 C5.135 2.869 6.207 3.488 7.312 4.125 C10.476 6.57 12.623 9.093 15.062 12.25 C18.108 11.5 18.108 11.5 19.812 9.375 C24.444 5.001 28.795 4.039 35 3.812 C41.568 4.009 46.122 5.417 50.883 10.004 C55.062 14.66 55.062 14.66 55.062 17.25 C55.908 16.928 56.754 16.605 57.625 16.273 C63.659 14.477 71.347 13.761 77.305 16.148 C78.938 17.25 78.938 17.25 81.062 19.25 C80.732 20.57 80.403 21.89 80.062 23.25 C78.67 23.002 78.67 23.002 77.25 22.75 C75.856 22.568 74.46 22.403 73.062 22.25 C72.228 22.158 71.394 22.067 70.535 21.973 C62.661 21.509 57.591 24.007 51.062 28.25 C50.881 27.146 50.881 27.146 50.695 26.02 C50.528 25.044 50.36 24.068 50.188 23.062 C50.025 22.1 49.863 21.137 49.695 20.145 C49.072 17.295 48.38 14.854 47.062 12.25 C44.066 10.945 44.066 10.945 41.062 10.25 C40.567 9.755 40.567 9.755 40.062 9.25 C33.706 8.692 29.368 9.638 24.062 13.25 C19.516 17.796 16.444 23.983 15.062 30.25 C14.403 30.25 13.742 30.25 13.062 30.25 C12.832 29.37 12.601 28.489 12.363 27.582 C9.943 18.809 9.943 18.809 4.062 12.25 C3.567 10.765 3.567 10.765 3.062 9.25 C0.8 8.177 0.8 8.177 -1.938 7.25 C-2.819 6.74 -3.701 6.229 -4.609 5.703 C-8.515 3.998 -11.826 3.875 -16 4 C-16.694 4.005 -17.388 4.01 -18.104 4.016 C-21.824 4.072 -25.319 4.375 -28.938 5.25 C-28.938 4.59 -28.938 3.93 -28.938 3.25 C-27.668 2.602 -26.397 1.956 -25.125 1.312 C-24.417 0.953 -23.71 0.593 -22.98 0.223 C-16 -3.101 -7.076 -3.074 0 0 Z " fill="#F17E6C" transform="translate(740.9375,299.75)" />
<path d="M0 0 C5.972 3.662 10.578 7.684 13.172 14.332 C15.614 13.247 17.462 12.095 19.547 10.395 C24.83 6.243 29.372 4.8 36.047 4.895 C37.103 4.899 37.103 4.899 38.18 4.904 C43.859 5.057 47.494 6.214 52.172 9.332 C48.789 10.46 47.573 10.082 44.172 9.332 C36.478 8.621 30.939 9.66 24.172 13.332 C23.469 13.623 22.767 13.915 22.043 14.215 C19.679 15.626 19.23 16.818 18.172 19.332 C17.305 20.92 16.429 22.503 15.547 24.082 C14.878 25.281 14.878 25.281 14.195 26.504 C13.689 27.409 13.689 27.409 13.172 28.332 C12.512 28.332 11.852 28.332 11.172 28.332 C10.99 27.512 10.808 26.692 10.621 25.848 C10.37 24.77 10.118 23.692 9.859 22.582 C9.616 21.515 9.372 20.447 9.121 19.348 C8.19 16.391 7.088 14.715 5.172 12.332 C5.172 11.672 5.172 11.012 5.172 10.332 C4.388 10.023 3.604 9.713 2.797 9.395 C0.172 8.332 0.172 8.332 -1.828 7.332 C-1.828 6.672 -1.828 6.012 -1.828 5.332 C-11.843 4.931 -18.194 5.334 -25.828 12.332 C-26.532 13.646 -27.206 14.977 -27.828 16.332 C-28.769 16.297 -29.71 16.262 -30.68 16.227 C-31.925 16.199 -33.17 16.172 -34.453 16.145 C-35.683 16.11 -36.913 16.075 -38.18 16.039 C-42.108 16.355 -44.422 17.429 -47.828 19.332 C-48.488 19.332 -49.148 19.332 -49.828 19.332 C-49.828 19.992 -49.828 20.652 -49.828 21.332 C-50.488 21.332 -51.148 21.332 -51.828 21.332 C-52.488 23.312 -53.148 25.292 -53.828 27.332 C-54.488 27.332 -55.148 27.332 -55.828 27.332 C-55.527 21.306 -52.738 17.664 -48.828 13.332 C-45.52 10.497 -42.651 10.143 -38.453 9.582 C-33.124 8.741 -31.042 7.049 -27.559 3.086 C-20.135 -4.439 -8.99 -4.511 0 0 Z " fill="#F08271" transform="translate(643.828125,293.66796875)" />
<path d="M0 0 C5.936 0.5 11.422 1.488 17.125 3.188 C18.677 3.635 20.229 4.08 21.781 4.523 C22.609 4.76 23.436 4.997 24.289 5.241 C29.383 6.667 34.505 7.985 39.625 9.312 C40.651 9.579 41.678 9.845 42.735 10.12 C45.156 10.748 47.578 11.374 50 12 C49.01 16.29 48.02 20.58 47 25 C42.831 24.305 38.896 23.536 34.816 22.512 C33.648 22.219 32.479 21.927 31.274 21.625 C30.049 21.316 28.825 21.006 27.562 20.688 C26.313 20.374 25.064 20.06 23.776 19.736 C15.164 17.565 6.567 15.346 -2 13 C-1.859 11.208 -1.712 9.416 -1.562 7.625 C-1.481 6.627 -1.4 5.63 -1.316 4.602 C-1 2 -1 2 0 0 Z " fill="#FAF7F6" transform="translate(717,194)" />
<path d="M0 0 C0.66 0 1.32 0 2 0 C1.477 4.186 -0.091 7.374 -2.062 11.035 C-5.483 18.204 -5.091 27.706 -2.5 35.062 C-2.222 35.734 -1.943 36.406 -1.656 37.098 C-1 39 -1 39 -1 43 C-0.34 43 0.32 43 1 43 C1.66 44.98 2.32 46.96 3 49 C3.66 49 4.32 49 5 49 C15.566 60.274 21.353 72.294 21.301 87.668 C20.995 91.059 20.208 93.828 19 97 C18.01 97 17.02 97 16 97 C16.046 96.25 16.093 95.5 16.141 94.727 C16.644 80.45 10.337 71.129 1.438 60.5 C-2.37 55.905 -5.493 51.417 -8 46 C-8.318 45.341 -8.637 44.683 -8.965 44.004 C-12.529 35.316 -12.627 22.904 -9.129 14.168 C-3.654 3.654 -3.654 3.654 0 0 Z " fill="#EE8573" transform="translate(542,199)" />
<path d="M0 0 C115.5 0 231 0 350 0 C350 0.33 350 0.66 350 1 C277.562 1.889 205.133 2.134 132.69 2.072 C123.087 2.064 113.484 2.059 103.881 2.055 C102.846 2.055 102.846 2.055 101.791 2.054 C98.325 2.053 94.86 2.052 91.395 2.05 C63.263 2.04 35.132 2.023 7 2 C7 2.66 7 3.32 7 4 C5.35 3.67 3.7 3.34 2 3 C2.005 3.822 2.01 4.644 2.016 5.491 C2.037 9.223 2.05 12.955 2.062 16.688 C2.071 17.981 2.079 19.275 2.088 20.607 C2.091 21.855 2.094 23.102 2.098 24.387 C2.103 25.534 2.108 26.68 2.114 27.862 C2.011 30.703 1.653 33.24 1 36 C0.34 35.67 -0.32 35.34 -1 35 C-0.67 23.45 -0.34 11.9 0 0 Z " fill="#EF8774" transform="translate(505,337)" />
<path d="M0 0 C1.438 0.115 2.876 0.242 4.312 0.375 C5.513 0.479 5.513 0.479 6.738 0.586 C9 1 9 1 12 3 C14.706 3.421 14.706 3.421 17.625 3.562 C22.902 3.902 22.902 3.902 24 5 C26.149 5.107 28.301 5.142 30.452 5.151 C31.135 5.156 31.818 5.16 32.521 5.164 C34.827 5.177 37.133 5.183 39.439 5.189 C41.087 5.197 42.735 5.206 44.382 5.215 C47.946 5.233 51.511 5.248 55.075 5.26 C60.747 5.281 66.419 5.308 72.091 5.337 C83.162 5.392 94.233 5.44 105.305 5.487 C119.271 5.546 133.238 5.608 147.205 5.678 C151.9 5.701 156.596 5.722 161.291 5.74 C184.876 5.826 208.429 6.195 232 7 C232 7.33 232 7.66 232 8 C205.757 8.047 179.513 8.082 153.27 8.104 C141.084 8.114 128.898 8.128 116.712 8.151 C106.087 8.171 95.462 8.184 84.837 8.188 C79.214 8.191 73.592 8.197 67.969 8.211 C62.669 8.225 57.37 8.229 52.07 8.226 C50.132 8.227 48.195 8.231 46.257 8.238 C33.217 8.288 20.922 7.681 8.312 4 C7.154 3.67 5.995 3.34 4.801 3 C2 2 2 2 0 0 Z " fill="#E39083" transform="translate(576,601)" />
</svg>