<?xml version='1.0' encoding='utf-8'?>
<svg xmlns="http://www.w3.org/2000/svg" version="1.1" width="552" height="571" viewBox="429.021 94.0 552.6880000000001 571.3205">
<path d="M0 0 C1.331 0 1.331 0 2.689 0 C28.835 0.005 54.921 0.104 81 2.188 C82.405 2.296 83.811 2.404 85.216 2.512 C178.258 9.805 178.258 9.805 201.602 29.368 C205.818 34.552 204.608 41.677 204.488 47.992 C204.479 49.441 204.472 50.89 204.467 52.338 C204.448 56.136 204.399 59.933 204.343 63.731 C204.292 67.612 204.269 71.494 204.244 75.375 C204.191 82.98 204.105 90.583 204 98.188 C204.545 97.958 205.09 97.728 205.651 97.491 C208.145 96.439 210.639 95.387 213.133 94.336 C213.99 93.974 214.847 93.613 215.73 93.24 C221.462 90.824 227.211 88.463 233 86.188 C233.848 85.824 234.696 85.46 235.57 85.086 C238 84.188 238 84.188 241 84.188 C241 83.528 241 82.868 241 82.188 C246.503 79.808 252.112 79.088 258 80.188 C262.135 82.565 265.012 85.581 267.5 89.625 C268.709 95.819 268.554 100.102 265.461 105.547 C260.849 110.726 254.123 113.026 247.875 115.625 C246.939 116.02 246.002 116.416 245.038 116.823 C239.249 119.264 233.444 121.666 227.641 124.07 C221.855 126.518 216.12 129.07 210.562 132 C208 133.188 208 133.188 204 133.188 C204.009 134.24 204.018 135.292 204.027 136.375 C204.109 146.46 204.169 156.545 204.207 166.63 C204.228 171.81 204.256 176.99 204.302 182.17 C204.753 234.165 203.565 292.69 165 332.188 C164.394 332.855 163.788 333.523 163.164 334.211 C144.403 354.436 114.913 358.739 89 362.188 C87.749 362.358 86.498 362.529 85.209 362.705 C75.663 363.98 66.119 364.819 56.5 365.312 C55.701 365.354 54.902 365.396 54.079 365.439 C35.529 366.362 16.962 366.408 -1.606 366.433 C-3.97 366.437 -6.334 366.445 -8.698 366.453 C-26.898 366.508 -44.88 366.1 -63 364.188 C-64.579 364.033 -66.159 363.88 -67.738 363.729 C-71.997 363.314 -76.249 362.857 -80.5 362.375 C-81.232 362.292 -81.965 362.21 -82.719 362.125 C-115.427 358.379 -115.427 358.379 -129 352.188 C-130.369 351.771 -131.743 351.372 -133.125 351 C-155.782 343.563 -171.18 323.499 -181.938 303.296 C-184.878 297.459 -187.02 291.404 -189 285.188 C-189.258 284.399 -189.515 283.61 -189.781 282.798 C-200.887 248.359 -200.305 211.609 -200.601 175.785 C-200.642 171.077 -200.692 166.37 -200.742 161.662 C-200.838 152.504 -200.922 143.346 -201 134.188 C-202.21 133.691 -202.21 133.691 -203.445 133.184 C-204.512 132.743 -205.58 132.302 -206.68 131.848 C-208.261 131.196 -208.261 131.196 -209.875 130.531 C-212.685 129.323 -215.405 128.024 -218.125 126.625 C-222.087 124.6 -226.089 122.895 -230.234 121.285 C-234.732 119.5 -239.16 117.555 -243.594 115.617 C-246.538 114.382 -249.48 113.34 -252.5 112.312 C-256.754 110.579 -259.442 108.513 -262.012 104.684 C-263.979 99.716 -263.586 94.423 -263 89.188 C-262.505 88.197 -262.505 88.197 -262 87.188 C-261.34 87.188 -260.68 87.188 -260 87.188 C-259.773 86.589 -259.546 85.991 -259.312 85.375 C-257.52 82.387 -256.24 81.538 -253 80.188 C-245.301 79.034 -239.013 81.188 -232 84.188 C-230.875 84.655 -230.875 84.655 -229.727 85.133 C-224.486 87.384 -219.433 89.978 -214.383 92.625 C-211.378 94.013 -208.4 95.166 -205.289 96.285 C-203.803 96.821 -203.803 96.821 -202.287 97.367 C-201.533 97.638 -200.778 97.909 -200 98.188 C-200.016 97.391 -200.031 96.594 -200.047 95.774 C-200.188 88.242 -200.294 80.71 -200.363 73.177 C-200.399 69.305 -200.448 65.434 -200.528 61.562 C-200.605 57.821 -200.646 54.08 -200.664 50.338 C-200.677 48.916 -200.702 47.493 -200.74 46.071 C-201.061 33.552 -201.061 33.552 -196.629 28.37 C-182.289 14.657 -157.655 12.431 -139 9.188 C-138.139 9.035 -137.278 8.883 -136.392 8.727 C-121.318 6.108 -106.08 4.849 -90.85 3.524 C-86.494 3.143 -82.14 2.746 -77.786 2.344 C-51.875 0.128 -25.986 -0.016 0 0 Z " fill="#F57D63" transform="translate(703,288.8125)" />
<path d="M0 0 C1.104 0 1.104 0 2.23 0 C23.869 0.005 45.439 0.222 67.025 1.871 C70.811 2.16 74.599 2.409 78.389 2.653 C147.254 7.106 147.254 7.106 173.25 18.188 C173.25 18.848 173.25 19.507 173.25 20.188 C138.7 30.861 103.651 33.944 67.773 36.539 C67.08 36.59 66.387 36.641 65.673 36.693 C63.199 36.869 60.725 37.03 58.25 37.188 C56.95 37.272 55.649 37.356 54.31 37.443 C43.347 38.123 32.42 38.364 21.438 38.391 C19.67 38.397 17.902 38.404 16.134 38.411 C10.506 38.43 4.878 38.435 -0.75 38.438 C-1.705 38.439 -2.659 38.44 -3.642 38.441 C-76.624 38.515 -76.624 38.515 -101.75 34.188 C-103.506 34.01 -105.264 33.855 -107.023 33.723 C-108.004 33.646 -108.985 33.57 -109.996 33.491 C-111.028 33.411 -112.061 33.332 -113.125 33.25 C-174.148 28.27 -174.148 28.27 -182.75 18.188 C-144.012 0.51 -93.201 1.91 -51.348 0.645 C-50.65 0.623 -49.952 0.602 -49.233 0.581 C-32.823 0.093 -16.417 -0.012 0 0 Z " fill="#F6B2A2" transform="translate(709.75,309.8125)" />
<path d="M0 0 C2.063 0.266 4.126 0.521 6.191 0.773 C54.7 6.717 54.7 6.717 66.053 17.264 C66.74 19.702 66.74 19.702 66.053 22.264 C62.005 26.129 58.119 28.457 52.803 30.264 C52.074 30.514 51.345 30.763 50.594 31.02 C22.712 40.045 -7.998 41.694 -37.072 43.952 C-37.834 44.013 -38.597 44.073 -39.382 44.136 C-67.671 46.36 -96.087 46.474 -124.447 46.452 C-125.229 46.452 -126.012 46.451 -126.818 46.451 C-268.828 46.39 -268.828 46.39 -304.947 25.264 C-306.947 22.264 -306.947 22.264 -307.072 19.952 C-305.222 15.533 -302.093 13.512 -297.947 11.264 C-293.376 9.53 -288.702 8.367 -283.947 7.264 C-283.279 7.102 -282.61 6.94 -281.922 6.773 C-255.16 0.34 -227.643 -1.713 -200.261 -3.574 C-198.086 -3.726 -195.913 -3.889 -193.739 -4.057 C-130.127 -8.945 -63.212 -8.216 0 0 Z M-203.885 3.639 C-204.787 3.704 -205.689 3.769 -206.618 3.836 C-221.449 4.909 -236.214 6.221 -250.947 8.264 C-251.989 8.404 -253.031 8.545 -254.105 8.689 C-268.804 10.703 -282.798 13.801 -296.947 18.264 C-296.947 19.254 -296.947 20.244 -296.947 21.264 C-289.759 24.447 -282.714 26.397 -275.01 27.889 C-274.002 28.093 -272.995 28.297 -271.957 28.506 C-268.957 29.108 -265.953 29.69 -262.947 30.264 C-261.997 30.448 -261.046 30.631 -260.067 30.82 C-254.312 31.902 -248.586 32.747 -242.76 33.327 C-241.954 33.41 -241.148 33.493 -240.318 33.578 C-233.675 34.242 -227.031 34.68 -220.365 35.018 C-216.947 35.264 -216.947 35.264 -214.265 35.733 C-183.382 40.682 -150.966 39.571 -119.772 39.576 C-116.988 39.577 -114.205 39.581 -111.421 39.587 C-80.546 39.632 -49.93 38.403 -19.197 35.327 C-18.314 35.24 -17.432 35.153 -16.522 35.064 C-10.662 34.486 -4.803 33.885 1.053 33.264 C2.234 33.139 3.416 33.015 4.633 32.886 C22.718 30.898 40.867 27.298 58.053 21.264 C58.053 20.604 58.053 19.944 58.053 19.264 C55.805 18.487 53.555 17.718 51.303 16.952 C50.688 16.738 50.073 16.525 49.44 16.305 C38.374 12.561 27.1 10.427 15.553 8.827 C14.806 8.722 14.06 8.617 13.291 8.509 C-1.656 6.443 -16.655 5.161 -31.697 4.014 C-33.315 3.89 -33.315 3.89 -34.965 3.763 C-59.984 1.868 -84.914 1.095 -109.998 1.134 C-113.627 1.14 -117.256 1.136 -120.886 1.13 C-148.582 1.093 -176.255 1.592 -203.885 3.639 Z " fill="#332622" transform="translate(824.9471435546875,308.7357177734375)" />
<path d="M0 0 C0.66 0.33 1.32 0.66 2 1 C1.093 2.025 1.093 2.025 0.168 3.07 C-2.198 6.268 -3.387 9.124 -4.688 12.875 C-5.312 14.635 -5.312 14.635 -5.949 16.43 C-11.249 34.438 -8.014 52.741 0.562 69.062 C8.128 83.534 10.889 100.278 6.188 116.125 C5.49 118.095 4.765 120.055 4 122 C3.727 122.719 3.453 123.439 3.172 124.18 C1.773 127.646 0.138 130.932 -2 134 C-2.66 134 -3.32 134 -4 134 C-4.206 134.722 -4.413 135.444 -4.625 136.188 C-6.475 139.972 -8.602 141.523 -12 144 C-12.66 144 -13.32 144 -14 144 C-14 144.66 -14 145.32 -14 146 C-16.97 147.65 -19.94 149.3 -23 151 C-22.168 146.838 -21.158 143.72 -19.5 139.875 C-13.395 125.641 -14.346 108.371 -20 94 C-21.266 91.277 -22.62 88.605 -24 85.938 C-31.952 70.565 -35.719 52.654 -30.93 35.508 C-28.152 27.432 -23.356 20.57 -18 14 C-17.407 13.175 -16.814 12.35 -16.203 11.5 C-13.435 8.359 -10.401 6.335 -6.875 4.125 C-6.242 3.71 -5.609 3.295 -4.957 2.867 C-3.347 1.842 -1.677 0.912 0 0 Z " fill="#F28167" transform="translate(718,104)" />
<path d="M0 0 C3 2 3 2 4 5 C4.095 7.711 4.133 10.396 4.126 13.107 C4.128 13.936 4.13 14.764 4.132 15.618 C4.136 17.425 4.138 19.232 4.138 21.039 C4.142 24.941 4.163 28.844 4.183 32.746 C4.221 39.995 4.253 47.245 4.25 54.494 C4.252 75.338 4.452 95.961 7.336 116.637 C7.44 117.384 7.544 118.131 7.651 118.901 C10.105 136.085 14.034 152.934 22.52 168.195 C24 171 24 171 25.066 174.215 C25.85 177.142 25.85 177.142 28.125 179.438 C30.558 182.763 30.316 184.975 30 189 C29.34 189 28.68 189 28 189 C27.34 190.32 26.68 191.64 26 193 C22.875 193.5 22.875 193.5 19 193 C8.657 184.424 3.998 166.4 0 154 C-0.32 153.034 -0.641 152.068 -0.97 151.073 C-3.535 143.108 -5.278 135.18 -6.688 126.938 C-6.9 125.761 -7.112 124.585 -7.33 123.373 C-9.955 108.395 -10.176 93.659 -10.203 78.496 C-10.206 77.43 -10.209 76.363 -10.212 75.264 C-10.227 69.639 -10.236 64.014 -10.24 58.389 C-10.246 52.579 -10.27 46.768 -10.298 40.957 C-10.317 36.482 -10.322 32.007 -10.324 27.531 C-10.327 25.387 -10.335 23.243 -10.348 21.1 C-10.365 18.115 -10.363 15.131 -10.356 12.146 C-10.366 11.26 -10.375 10.373 -10.384 9.459 C-10.379 8.648 -10.373 7.836 -10.367 7 C-10.369 6.296 -10.37 5.592 -10.372 4.866 C-9.256 -0.735 -4.841 -0.432 0 0 Z " fill="#FCF9F6" transform="translate(541,395)" />
<path d="M0 0 C0 3.188 -0.56 4.445 -1.938 7.25 C-3.75 11.222 -4.686 14.604 -5 19 C-5.063 19.652 -5.126 20.305 -5.191 20.977 C-5.706 30.106 -2.357 39.237 2.07 47.121 C6.707 56.493 6.689 69.281 3.375 79.125 C-0.176 87.234 -5.347 93.45 -13 98 C-13.66 98 -14.32 98 -15 98 C-14.567 96.948 -14.567 96.948 -14.125 95.875 C-13.754 94.926 -13.383 93.978 -13 93 C-12.656 92.139 -12.312 91.278 -11.957 90.391 C-8.662 78.716 -10.383 66.564 -16 56 C-16.763 54.339 -17.514 52.673 -18.25 51 C-18.565 50.319 -18.879 49.639 -19.203 48.938 C-22.574 40.741 -22.142 30.194 -19.25 21.938 C-15.092 12.09 -8.492 6.132 0 0 Z " fill="#F0846B" transform="translate(660,145)" />
<path d="M0 0 C-0.268 0.66 -0.536 1.32 -0.812 2 C-1.204 2.99 -1.596 3.98 -2 5 C-2.768 6.796 -2.768 6.796 -3.551 8.629 C-5.224 13.117 -5.463 17.183 -5.375 21.938 C-5.365 22.735 -5.355 23.533 -5.344 24.355 C-5.192 30.107 -4.372 34.736 -2 40 C3.501 52.513 7.204 64.897 2.5 78.438 C-0.931 85.568 -5.874 92.349 -13 96 C-13.66 96 -14.32 96 -15 96 C-14.48 92.775 -13.594 89.913 -12.438 86.875 C-9.166 77.158 -10.817 67.583 -15.207 58.504 C-15.634 57.678 -16.06 56.851 -16.5 56 C-21.671 45.97 -23.689 35.954 -21.25 24.75 C-19.85 20.55 -18.089 16.899 -16 13 C-15.34 13 -14.68 13 -14 13 C-13.773 12.257 -13.546 11.515 -13.312 10.75 C-11.741 7.457 -10 6.025 -7 4 C-6.34 4 -5.68 4 -5 4 C-5 3.34 -5 2.68 -5 2 C-2 0 -2 0 0 0 Z " fill="#F0836A" transform="translate(765,155)" />
<path d="M0 0 C-0.495 1.176 -0.99 2.351 -1.5 3.562 C-5.39 15.474 -2.924 25.914 2 37 C5.29 45.788 4.826 53.783 1.348 62.473 C-0.72 66.35 -3.433 69.426 -7 72 C-7.66 72 -8.32 72 -9 72 C-9 72.66 -9 73.32 -9 74 C-9.99 73.67 -10.98 73.34 -12 73 C-11.711 72.394 -11.423 71.788 -11.125 71.164 C-7.877 63.834 -6.388 57.749 -9.023 49.984 C-10.571 46.251 -12.226 42.584 -14 38.953 C-17.235 31.675 -17.334 22.353 -15.062 14.75 C-12.701 9.466 -6.304 0 0 0 Z " fill="#EF856D" transform="translate(804,179)" />
<path d="M0 0 C-0.433 1.052 -0.433 1.052 -0.875 2.125 C-1.246 3.074 -1.617 4.023 -2 5 C-2.371 5.887 -2.742 6.774 -3.125 7.688 C-5.955 18.401 -2.409 27.671 2.145 37.461 C4.322 43.924 3.993 53.147 1.812 59.625 C-0.095 63.177 -1.986 65.345 -5 68 C-5.887 68.928 -6.774 69.856 -7.688 70.812 C-10 73 -10 73 -12 73 C-11.505 71.783 -11.01 70.566 -10.5 69.312 C-6.95 58.319 -9.025 49.381 -13.59 39.215 C-16.722 32.073 -17.309 23.991 -15.316 16.395 C-12.979 10.759 -6.964 0 0 0 Z " fill="#EE856D" transform="translate(616,165)" />
<path d="M0 0 C0 0.33 0 0.66 0 1 C-12.601 2.734 -25.119 4.287 -37.841 4.709 C-41.119 4.822 -43.868 4.956 -47 6 C-48.217 5.959 -49.434 5.918 -50.688 5.875 C-55.957 5.797 -60.959 6.831 -66.098 7.856 C-71.066 8.845 -75.958 9.55 -81 10 C-81 10.66 -81 11.32 -81 12 C-83.31 12 -85.62 12 -88 12 C-88 12.66 -88 13.32 -88 14 C-89.134 14.433 -90.269 14.866 -91.438 15.312 C-92.613 15.869 -93.789 16.426 -95 17 C-95.495 18.485 -95.495 18.485 -96 20 C-95.31 19.875 -94.62 19.75 -93.909 19.622 C-85.573 18.167 -77.23 17.166 -68.812 16.312 C-67.511 16.17 -66.21 16.028 -64.869 15.881 C-58.015 15.182 -51.809 14.891 -45 16 C-45 16.33 -45 16.66 -45 17 C-45.741 17.065 -46.482 17.129 -47.246 17.196 C-62.258 18.534 -77.171 20.167 -92.062 22.5 C-93.361 22.701 -94.66 22.903 -95.998 23.11 C-103.225 24.272 -110.299 25.701 -117.388 27.529 C-120 28 -120 28 -123 27 C-117 25 -117 25 -114.668 24.234 C-113.87 23.971 -113.072 23.708 -112.25 23.438 C-111.492 23.189 -110.734 22.94 -109.953 22.684 C-107.957 22.031 -107.957 22.031 -106 21 C-107.98 20.67 -109.96 20.34 -112 20 C-112 19.34 -112 18.68 -112 18 C-115.3 18 -118.6 18 -122 18 C-122.33 18.99 -122.66 19.98 -123 21 C-123.58 20.916 -124.16 20.832 -124.758 20.746 C-129.423 20.138 -133.354 19.928 -138 21 C-126.728 11.393 -106.008 10.435 -92 8 C-91.139 7.848 -90.278 7.696 -89.392 7.539 C-74.329 4.923 -59.103 3.665 -43.885 2.341 C-40.313 2.027 -36.742 1.7 -33.172 1.367 C-22.077 0.357 -11.144 -0.295 0 0 Z " fill="#E98671" transform="translate(656,290)" />
<path d="M0 0 C14.406 2.249 32.213 5.835 41.933 17.812 C44.45 22.972 43.595 29.186 43.488 34.805 C43.479 36.253 43.472 37.702 43.467 39.151 C43.448 42.949 43.399 46.746 43.343 50.544 C43.292 54.425 43.269 58.306 43.244 62.188 C43.191 69.792 43.105 77.396 43 85 C45.475 84.505 45.475 84.505 48 84 C48 84.66 48 85.32 48 86 C45.125 86.125 45.125 86.125 42 86 C40 84 40 84 39.759 81.292 C39.766 79.566 39.766 79.566 39.773 77.806 C39.773 76.505 39.773 75.204 39.773 73.863 C39.784 72.437 39.794 71.012 39.805 69.586 C39.808 68.131 39.811 66.677 39.813 65.223 C39.821 61.392 39.841 57.562 39.863 53.731 C39.883 49.823 39.892 45.916 39.902 42.008 C39.924 34.338 39.958 26.669 40 19 C37.03 18.01 34.06 17.02 31 16 C31.33 17.32 31.66 18.64 32 20 C27.25 20.125 27.25 20.125 25 19 C25 19.66 25 20.32 25 21 C18.995 20.351 13.599 18.142 8 16 C8 15.34 8 14.68 8 14 C7.34 13.67 6.68 13.34 6 13 C6.33 12.01 6.66 11.02 7 10 C9.64 10.99 12.28 11.98 15 13 C15.33 12.01 15.66 11.02 16 10 C13.03 9.505 13.03 9.505 10 9 C10.66 8.34 11.32 7.68 12 7 C11.01 6.34 10.02 5.68 9 5 C9 4.67 9 4.34 9 4 C6.03 4 3.06 4 0 4 C0 2.68 0 1.36 0 0 Z " fill="#EA8772" transform="translate(864,302)" />
<path d="M0 0 C0.869 -0 1.738 -0 2.633 -0 C5.495 0 8.357 0.008 11.219 0.016 C13.208 0.018 15.196 0.019 17.184 0.02 C22.41 0.024 27.637 0.034 32.863 0.045 C38.198 0.055 43.534 0.06 48.87 0.065 C59.334 0.075 69.798 0.092 80.262 0.114 C78.262 2.114 78.262 2.114 75.262 3.114 C77.572 3.444 79.882 3.774 82.262 4.114 C82.262 4.444 82.262 4.774 82.262 5.114 C53.222 5.114 24.182 5.114 -5.738 5.114 C-5.408 4.454 -5.078 3.794 -4.738 3.114 C-7.708 2.784 -10.678 2.454 -13.738 2.114 C-13.738 1.784 -13.738 1.454 -13.738 1.114 C-9.17 -0.039 -4.678 -0.021 0 0 Z " fill="#252220" transform="translate(669.737548828125,304.886474609375)" />
<path d="M0 0 C2.214 0.001 4.428 0.001 6.642 -0 C27.944 0.001 49.213 0.349 70.501 1.126 C72.298 1.191 72.298 1.191 74.131 1.258 C77.516 1.384 80.902 1.517 84.287 1.654 C85.261 1.692 86.235 1.731 87.239 1.77 C93.661 2.048 100.043 2.554 106.439 3.189 C106.439 3.519 106.439 3.849 106.439 4.189 C105.4 4.183 104.36 4.178 103.29 4.173 C99.428 4.155 95.567 4.143 91.705 4.134 C90.035 4.129 88.365 4.122 86.694 4.113 C84.291 4.101 81.889 4.095 79.486 4.091 C78.741 4.086 77.996 4.081 77.228 4.075 C73.824 4.075 70.692 4.115 67.439 5.189 C67.439 5.849 67.439 6.509 67.439 7.189 C63.694 8.046 60.154 8.381 56.314 8.439 C54.763 8.477 54.763 8.477 53.181 8.517 C50.439 8.189 50.439 8.189 48.572 6.673 C48.011 5.938 48.011 5.938 47.439 5.189 C49.749 4.529 52.059 3.869 54.439 3.189 C25.729 3.189 -2.981 3.189 -32.561 3.189 C-30.251 3.849 -27.941 4.509 -25.561 5.189 C-25.561 5.519 -25.561 5.849 -25.561 6.189 C-22.921 6.519 -20.281 6.849 -17.561 7.189 C-17.561 7.519 -17.561 7.849 -17.561 8.189 C-20.748 8.247 -23.936 8.282 -27.124 8.314 C-28.466 8.339 -28.466 8.339 -29.836 8.364 C-35.162 8.403 -39.525 7.943 -44.561 6.189 C-44.891 4.869 -45.221 3.549 -45.561 2.189 C-47.211 2.189 -48.861 2.189 -50.561 2.189 C-50.561 1.859 -50.561 1.529 -50.561 1.189 C-33.711 0.161 -16.877 -0.01 0 0 Z " fill="#432A26" transform="translate(693.5610542297363,302.8113212585449)" />
</svg>