<?xml version='1.0' encoding='utf-8'?>
<svg xmlns="http://www.w3.org/2000/svg" version="1.1" width="592" height="893" viewBox="216.40699999999998 67.0 592.183 893.362">
<path d="M0 0 C-0.974 4.424 -1.958 8.845 -3 13.254 C-3.165 13.965 -3.33 14.676 -3.5 15.408 C-3.827 16.818 -4.16 18.227 -4.5 19.635 C-7.609 33.198 -8.329 46.671 -8.261 60.528 C-8.25 63.129 -8.261 65.73 -8.273 68.332 C-8.282 78.066 -7.712 87.391 -6 97 C-5.844 97.97 -5.689 98.939 -5.528 99.938 C-3.391 112.982 -0.145 125.492 4.062 138 C4.276 138.636 4.489 139.272 4.709 139.927 C7.142 147.125 9.812 154.107 13 161 C13.612 162.416 14.22 163.834 14.824 165.254 C18.971 174.89 23.598 184.047 28.893 193.101 C30.34 195.584 31.756 198.085 33.172 200.586 C38.203 209.451 43.294 218.128 49.215 226.43 C51.064 229.092 52.787 231.811 54.5 234.562 C57.3 239.033 60.365 243.151 63.715 247.223 C65 249 65 249 65 251 C65.66 251 66.32 251 67 251 C68.173 252.389 68.173 252.389 69.461 254.324 C70.169 255.373 70.169 255.373 70.891 256.443 C71.38 257.184 71.87 257.924 72.375 258.688 C75.438 263.27 78.506 267.73 82 272 C99.772 295.469 111.153 322.404 117.312 351.062 C117.472 351.799 117.631 352.535 117.795 353.294 C124.432 385.945 119.472 420.056 111.719 451.941 C111.433 453.118 111.148 454.295 110.854 455.508 C110.288 457.822 109.712 460.134 109.126 462.443 C107.503 469.037 106.523 475.147 106.625 481.938 C106.613 482.735 106.602 483.532 106.59 484.354 C106.621 490.661 108.425 494.586 111.875 499.875 C116.98 503.346 122.036 502.953 128 502 C136.174 499.02 141.752 492.699 147 486 C147.617 485.212 148.235 484.425 148.871 483.613 C165.644 459.818 168.15 423.915 163.5 396.062 C163.029 393.368 162.526 390.685 162 388 C164 388 164 388 166.062 389.938 C167.042 390.958 168.021 391.979 169 393 C170.497 394.503 171.998 396.003 173.5 397.5 C175 399 176.5 400.5 178 402 C178.793 402.788 179.586 403.575 180.402 404.387 C190.563 414.608 199.608 425.282 208 437 C208.46 437.635 208.92 438.27 209.395 438.924 C217 449.433 217 449.433 217 453 C217.66 453 218.32 453 219 453 C233.719 479.029 246.883 505.077 255 534 C255.237 534.845 255.474 535.69 255.719 536.561 C266.59 576.275 269.504 617.732 263.372 658.491 C263.041 660.724 262.755 662.954 262.496 665.195 C261.636 672.251 260.058 678.849 257.992 685.648 C257.098 688.67 256.373 691.676 255.688 694.75 C253.814 702.406 250.802 709.633 247.84 716.92 C247.115 718.716 246.413 720.521 245.715 722.328 C243.037 729.117 239.658 735.364 235.961 741.637 C234.283 744.515 232.721 747.418 231.188 750.375 C223.648 764.301 213.713 777.124 203.016 788.738 C200.981 790.94 200.981 790.94 199.359 793.293 C198.911 793.856 198.462 794.42 198 795 C197.34 795 196.68 795 196 795 C195.67 795.99 195.34 796.98 195 798 C192.562 800.688 192.562 800.688 190 803 C189.34 803 188.68 803 188 803 C187.782 803.563 187.564 804.127 187.34 804.707 C185.56 807.752 183.306 809.483 180.562 811.688 C179.594 812.475 178.626 813.263 177.629 814.074 C175 816 175 816 172 817 C172 817.66 172 818.32 172 819 C170.617 820.262 170.617 820.262 168.66 821.688 C167.936 822.216 167.211 822.745 166.465 823.29 C165.672 823.854 164.879 824.419 164.062 825 C163.249 825.582 162.435 826.165 161.596 826.765 C154.318 831.9 146.83 836.527 139.047 840.854 C137.099 841.945 135.173 843.067 133.246 844.195 C113.986 855.2 91.674 863.411 70 868 C68.97 868.223 67.94 868.445 66.879 868.675 C45.014 873.362 45.014 873.362 39 873 C40.375 871.5 40.375 871.5 42 870 C42.66 870 43.32 870 44 870 C44 869.34 44 868.68 44 868 C45.547 866.879 45.547 866.879 47.75 865.562 C52.042 862.808 55.761 859.694 59.5 856.25 C60.028 855.766 60.556 855.282 61.101 854.783 C63.927 852.188 63.927 852.188 66 849 C66.66 849 67.32 849 68 849 C68.371 848.196 68.371 848.196 68.75 847.375 C70.307 844.418 72.034 841.703 74 839 C74.66 839 75.32 839 76 839 C76.164 838.118 76.164 838.118 76.332 837.219 C77.076 834.748 78.041 833.47 79.688 831.5 C85.794 823.622 89.489 814.258 93 805 C93.277 804.325 93.554 803.649 93.84 802.953 C95.545 798.711 96.638 794.549 97.434 790.048 C97.831 787.911 98.27 785.781 98.741 783.659 C100.87 773.62 101.467 763.997 101.391 753.747 C101.375 751.2 101.391 748.654 101.41 746.107 C101.431 730.707 99.562 715.702 95.062 700.938 C94.823 700.105 94.584 699.273 94.338 698.416 C91.907 690.162 89.266 681.9 84 675 C83.67 675 83.34 675 83 675 C82.948 675.548 82.897 676.096 82.844 676.66 C81.586 685.45 77.297 692.391 73 700 C72.513 701.098 72.513 701.098 72.016 702.219 C69.373 706.854 63.834 710.063 59.188 712.438 C52.002 713.706 44.402 714.322 37.891 710.547 C33.938 707.313 30.789 703.258 28 699 C28 698.34 28 697.68 28 697 C27.34 697 26.68 697 26 697 C16.849 675.43 18.635 653.591 24.797 631.435 C34.982 594.69 36.786 555.235 17.975 521.011 C13.692 512.885 13.692 512.885 7 507 C7 506.34 7 505.68 7 505 C6.01 504.67 5.02 504.34 4 504 C2.291 502.377 0.626 500.707 -1 499 C-1.598 498.443 -2.196 497.886 -2.812 497.312 C-4 496 -4 496 -4 494 C-4.928 493.536 -4.928 493.536 -5.875 493.062 C-7.25 492.375 -8.625 491.688 -10 491 C-10 490.34 -10 489.68 -10 489 C-11.65 488.34 -13.3 487.68 -15 487 C-14.584 488.719 -14.584 488.719 -14.16 490.473 C-13.794 492.003 -13.428 493.533 -13.062 495.062 C-12.88 495.815 -12.698 496.567 -12.51 497.342 C-6.59 522.206 -11.184 551.042 -22.869 573.766 C-24.138 576.273 -25.329 578.809 -26.516 581.355 C-34.733 598.915 -34.733 598.915 -39.188 605.875 C-49.283 621.68 -56.658 640.032 -57 659 C-57.027 660.299 -57.054 661.599 -57.082 662.938 C-57.239 670.993 -57.239 670.993 -56.5 679 C-55.109 688.167 -54.59 698.669 -59 707 C-60.637 709.072 -61.412 709.908 -64.051 710.32 C-68.666 709.922 -71.292 709.28 -74.375 705.688 C-75.274 704.476 -76.149 703.246 -77 702 C-77.505 701.413 -78.011 700.827 -78.531 700.223 C-80.524 697.208 -81.227 694.243 -82.125 690.75 C-82.458 689.487 -82.79 688.223 -83.133 686.922 C-84.997 678.922 -85.129 671.178 -85.062 663 C-85.058 661.939 -85.053 660.878 -85.049 659.785 C-85.037 657.19 -85.021 654.595 -85 652 C-92.505 659.201 -99.44 666.147 -105 675 C-105.785 676.182 -106.572 677.363 -107.359 678.543 C-128.625 710.862 -136.514 750.586 -128.688 788.625 C-127.875 792.441 -126.982 796.224 -126 800 C-125.779 800.862 -125.558 801.724 -125.33 802.612 C-123.689 808.55 -121.324 813.675 -118.25 819 C-117.808 819.78 -117.365 820.561 -116.909 821.365 C-113.587 827.152 -110.007 832.661 -106 838 C-105.546 838.656 -105.092 839.312 -104.625 839.988 C-99.76 846.885 -93.437 854.345 -86.16 858.699 C-85.447 859.128 -84.734 859.558 -84 860 C-84 860.66 -84 861.32 -84 862 C-83.423 862.268 -82.845 862.536 -82.25 862.812 C-79.944 864.029 -77.979 865.303 -76 867 C-76 867.66 -76 868.32 -76 869 C-75.237 869.103 -74.474 869.206 -73.688 869.312 C-70.774 870.058 -69.97 870.845 -68 873 C-77.136 872.538 -85.741 870.944 -94.625 868.812 C-95.612 868.578 -95.612 868.578 -96.619 868.339 C-107.303 865.795 -117.726 862.886 -128 859 C-128.795 858.705 -129.59 858.41 -130.41 858.106 C-141.775 853.863 -152.534 848.936 -163.133 843.039 C-165.931 841.482 -168.748 839.963 -171.562 838.438 C-173.042 837.626 -174.522 836.814 -176 836 C-176 835.34 -176 834.68 -176 834 C-176.848 833.768 -177.696 833.536 -178.57 833.297 C-182.543 831.795 -185.494 829.77 -188.875 827.25 C-189.491 826.8 -190.106 826.351 -190.741 825.888 C-192.5 824.6 -194.251 823.302 -196 822 C-196.794 821.412 -197.588 820.824 -198.406 820.219 C-199.675 819.272 -200.939 818.321 -202.199 817.363 C-203.484 816.39 -204.78 815.431 -206.082 814.48 C-210.063 811.563 -213.584 808.583 -217 805 C-217.761 804.26 -218.521 803.52 -219.305 802.758 C-220.132 801.951 -220.96 801.144 -221.812 800.312 C-222.998 799.162 -222.998 799.162 -224.207 797.988 C-226 796 -226 796 -226 794 C-226.55 793.785 -227.101 793.569 -227.668 793.348 C-230.778 791.55 -232.949 789.091 -235.312 786.438 C-235.803 785.893 -236.293 785.349 -236.797 784.788 C-240.758 780.348 -244.472 775.792 -248 771 C-248.461 770.384 -248.923 769.768 -249.398 769.134 C-261.003 753.619 -270.715 737.507 -279 720 C-279.289 719.4 -279.579 718.8 -279.877 718.182 C-291.66 693.569 -298.482 667 -302.526 640.125 C-302.843 638.033 -303.184 635.944 -303.548 633.859 C-305.593 621.017 -305.395 608.098 -305.375 595.125 C-305.375 593.882 -305.375 592.639 -305.374 591.358 C-305.341 571.59 -304.434 552.481 -301 533 C-300.823 531.942 -300.647 530.885 -300.465 529.795 C-292.918 485.547 -274.531 442.807 -249 406 C-248.635 405.463 -248.269 404.927 -247.893 404.374 C-241.676 395.252 -234.822 386.879 -227.471 378.65 C-226.215 377.241 -224.973 375.819 -223.734 374.395 C-213.423 362.646 -202.336 351.607 -190 342 C-188.808 340.984 -187.62 339.964 -186.438 338.938 C-184 337 -184 337 -182 337 C-182.217 338.038 -182.433 339.075 -182.656 340.145 C-186.894 362.668 -187.48 388.668 -182 411 C-181.823 411.738 -181.646 412.477 -181.464 413.237 C-179.352 421.777 -176.728 429.421 -172.137 436.996 C-171 439 -171 439 -171 441 C-170.34 441 -169.68 441 -169 441 C-167.414 442.645 -167.414 442.645 -165.625 444.812 C-160.815 450.629 -156.5 453.435 -148.793 454.227 C-141.038 454.517 -135.929 451.913 -130 447 C-129.34 447 -128.68 447 -128 447 C-128 446.34 -128 445.68 -128 445 C-126.667 443.667 -125.333 442.333 -124 441 C-120.239 436.133 -117.627 431.457 -115.375 425.75 C-115.075 425.001 -114.775 424.251 -114.466 423.479 C-112.209 417.739 -110.227 412.057 -109 406 C-108.694 404.505 -108.694 404.505 -108.383 402.98 C-103.544 373.978 -108.939 344.895 -113.796 316.314 C-115.296 307.457 -116.697 298.603 -117.812 289.688 C-117.924 288.808 -118.036 287.928 -118.15 287.021 C-121.897 255.593 -122.374 222.013 -117.75 190.688 C-117.648 189.987 -117.545 189.287 -117.44 188.566 C-115.927 178.543 -113.579 168.789 -111 159 C-110.772 158.113 -110.544 157.225 -110.309 156.311 C-104.274 132.998 -94.79 110.98 -83 90 C-82.511 89.125 -82.023 88.249 -81.52 87.348 C-77.872 81.044 -73.644 75.182 -69.367 69.297 C-67.79 67.123 -66.289 64.933 -64.797 62.695 C-63.319 60.479 -62.053 58.68 -60 57 C-59.34 57 -58.68 57 -58 57 C-57.927 56.444 -57.853 55.889 -57.777 55.316 C-56.712 52.14 -54.852 50.366 -52.562 47.938 C-50.128 45.339 -47.978 42.967 -46 40 C-45.34 40 -44.68 40 -44 40 C-43.742 39.418 -43.484 38.836 -43.218 38.237 C-40.98 34.127 -37.423 31.088 -34.125 27.812 C-32.982 26.671 -32.982 26.671 -31.815 25.507 C-26.67 20.448 -21.457 15.967 -15.516 11.859 C-12.726 9.797 -10.415 7.486 -8 5 C-2.531 0 -2.531 0 0 0 Z " fill="#F66144" transform="translate(532,77)" />
<path d="M0 0 C0.99 0.495 0.99 0.495 2 1 C2.455 2.823 2.455 2.823 2.746 5.191 C2.861 6.054 2.977 6.917 3.096 7.807 C3.32 9.616 3.544 11.426 3.768 13.236 C4.528 18.919 5.842 23.689 8 29 C8.393 30.474 8.771 31.953 9.125 33.438 C11.049 40.09 14.536 46.004 17.844 52.047 C23 61.482 23 61.482 23 65 C23.66 65 24.32 65 25 65 C29 71.625 29 71.625 29 75 C29.99 75.33 30.98 75.66 32 76 C33.006 77.652 34.002 79.313 34.916 81.017 C35.983 82.969 37.138 84.817 38.359 86.676 C38.949 87.576 38.949 87.576 39.551 88.494 C40.364 89.727 41.179 90.959 41.996 92.189 C45 96.785 45 96.785 45 99 C45.619 99.227 46.237 99.454 46.875 99.688 C49.676 101.417 49.994 102.909 51 106 C51.371 106.928 51.743 107.856 52.125 108.812 C52.558 109.895 52.558 109.895 53 111 C53.66 111 54.32 111 55 111 C56.691 113.301 56.691 113.301 58.562 116.312 C59.183 117.299 59.803 118.285 60.441 119.301 C62 122 62 122 63 125 C63.66 125 64.32 125 65 125 C65.37 125.801 65.37 125.801 65.747 126.617 C66.888 129.081 68.038 131.54 69.188 134 C69.575 134.839 69.962 135.678 70.361 136.543 C72.224 140.515 74.126 144.304 76.543 147.969 C79.486 152.534 81.278 157.412 83.125 162.5 C83.626 163.848 83.626 163.848 84.137 165.223 C84.794 166.993 85.445 168.765 86.091 170.54 C86.653 172.061 87.231 173.575 87.837 175.079 C89.944 180.344 91.053 185.617 92.062 191.188 C92.382 192.932 92.706 194.675 93.035 196.418 C93.173 197.179 93.311 197.94 93.453 198.723 C93.937 201.04 93.937 201.04 94.992 203.236 C96.385 207.055 96.727 210.775 97.098 214.809 C97.224 216.165 97.224 216.165 97.353 217.549 C98.618 232.745 98.39 248.06 98.456 263.301 C98.075 297.633 98.075 297.633 107.625 330.195 C109 333 109 333 109 337 C109.66 337 110.32 337 111 337 C111 338.32 111 339.64 111 341 C111.66 341 112.32 341 113 341 C113.383 342.092 113.383 342.092 113.773 343.207 C115.064 346.146 116.588 348.219 118.625 350.688 C122 354.786 122 354.786 122 357 C122.562 357.268 123.124 357.536 123.703 357.812 C126.156 359.08 128.439 360.49 130.75 362 C131.549 362.516 132.348 363.031 133.172 363.562 C134.077 364.274 134.077 364.274 135 365 C135 365.66 135 366.32 135 367 C135.763 367.144 136.526 367.289 137.312 367.438 C140 368 140 368 143 369 C150.705 369.311 158.38 369.244 166 368 C166 367.34 166 366.68 166 366 C166.554 365.746 167.109 365.492 167.68 365.23 C168.404 364.886 169.129 364.542 169.875 364.188 C170.594 363.851 171.314 363.515 172.055 363.168 C174.305 362.005 174.305 362.005 176 359 C176.99 358.67 177.98 358.34 179 358 C179.66 357.01 180.32 356.02 181 355 C181.66 355 182.32 355 183 355 C183 354.34 183 353.68 183 353 C183.66 353 184.32 353 185 353 C185.082 352.319 185.165 351.639 185.25 350.938 C186.223 347.125 187.958 344.359 190 341 C190.66 341 191.32 341 192 341 C192.17 340.455 192.34 339.909 192.516 339.348 C193.849 335.2 195.301 331.21 197.125 327.25 C198.535 324.177 199.564 321.383 200 318 C203 319 203 319 204.5 321.441 C207.281 327.228 209.879 332.94 212 339 C212.278 339.701 212.557 340.402 212.844 341.125 C214.253 344.675 215 347.13 215 351 C215.66 351 216.32 351 217 351 C223.297 375.514 228.224 398.525 228.312 423.938 C228.316 424.716 228.319 425.494 228.322 426.296 C228.347 444.411 226.698 462.448 222 480 C221.639 481.458 221.279 482.916 220.922 484.375 C218.9 492.426 216.704 500.339 213.812 508.125 C213.563 508.806 213.313 509.486 213.056 510.188 C211.255 514.872 211.255 514.872 209 516 C208.161 517.951 207.404 519.938 206.688 521.938 C200.633 538.183 200.633 538.183 197 540 C195.955 541.639 194.964 543.312 194 545 C191.984 548.284 189.961 551.564 187.938 554.844 C186.732 556.807 185.544 558.78 184.383 560.77 C182.861 563.223 181.069 565 179 567 C178.67 567.66 178.34 568.32 178 569 C177.34 569 176.68 569 176 569 C175.629 569.804 175.629 569.804 175.25 570.625 C172.515 575.821 169.685 579.455 165 583 C164.67 583.66 164.34 584.32 164 585 C163.34 585 162.68 585 162 585 C162 585.66 162 586.32 162 587 C161.01 587.33 160.02 587.66 159 588 C157.699 589.532 157.699 589.532 156.562 591.375 C154.657 594.17 152.969 596.259 150 598 C149.34 598 148.68 598 148 598 C147.691 598.866 147.691 598.866 147.375 599.75 C145.474 602.86 143.082 604.06 140 606 C137.895 607.589 135.811 609.202 133.734 610.828 C132 612 132 612 130 612 C130 612.66 130 613.32 130 614 C124.138 618.615 117.408 623.462 110 625 C110 625.66 110 626.32 110 627 C94.469 634.906 94.469 634.906 89 636 C89 636.66 89 637.32 89 638 C91.31 638 93.62 638 96 638 C92.468 640.151 89.337 640.38 85.25 640.625 C84.08 640.7 82.909 640.775 81.703 640.852 C80.811 640.901 79.919 640.95 79 641 C80.375 639.5 80.375 639.5 82 638 C82.66 638 83.32 638 84 638 C84 637.34 84 636.68 84 636 C85.547 634.879 85.547 634.879 87.75 633.562 C92.042 630.808 95.761 627.694 99.5 624.25 C100.028 623.766 100.556 623.282 101.101 622.783 C103.927 620.188 103.927 620.188 106 617 C106.66 617 107.32 617 108 617 C108.371 616.196 108.371 616.196 108.75 615.375 C110.307 612.418 112.034 609.703 114 607 C114.66 607 115.32 607 116 607 C116.164 606.118 116.164 606.118 116.332 605.219 C117.076 602.748 118.041 601.47 119.688 599.5 C125.794 591.622 129.489 582.258 133 573 C133.277 572.325 133.554 571.649 133.84 570.953 C135.545 566.711 136.638 562.549 137.434 558.048 C137.831 555.911 138.27 553.781 138.741 551.659 C140.87 541.62 141.467 531.997 141.391 521.747 C141.375 519.2 141.391 516.654 141.41 514.107 C141.431 498.707 139.562 483.702 135.062 468.938 C134.704 467.689 134.704 467.689 134.338 466.416 C131.907 458.162 129.266 449.9 124 443 C123.67 443 123.34 443 123 443 C122.948 443.548 122.897 444.096 122.844 444.66 C121.586 453.45 117.297 460.391 113 468 C112.513 469.098 112.513 469.098 112.016 470.219 C109.373 474.854 103.834 478.063 99.188 480.438 C92.002 481.706 84.402 482.322 77.891 478.547 C73.938 475.313 70.789 471.258 68 467 C68 466.34 68 465.68 68 465 C67.34 465 66.68 465 66 465 C56.849 443.43 58.635 421.591 64.797 399.435 C74.982 362.69 76.786 323.235 57.975 289.011 C53.692 280.885 53.692 280.885 47 275 C47 274.34 47 273.68 47 273 C46.01 272.67 45.02 272.34 44 272 C42.291 270.377 40.626 268.707 39 267 C38.402 266.443 37.804 265.886 37.188 265.312 C36 264 36 264 36 262 C35.381 261.691 34.763 261.381 34.125 261.062 C32.75 260.375 31.375 259.688 30 259 C30 258.34 30 257.68 30 257 C28.35 256.34 26.7 255.68 25 255 C25.277 256.146 25.554 257.292 25.84 258.473 C26.206 260.003 26.572 261.533 26.938 263.062 C27.12 263.815 27.302 264.567 27.49 265.342 C33.41 290.206 28.816 319.042 17.131 341.766 C15.862 344.273 14.671 346.809 13.484 349.355 C5.267 366.915 5.267 366.915 0.812 373.875 C-9.283 389.68 -16.658 408.032 -17 427 C-17.041 428.949 -17.041 428.949 -17.082 430.938 C-17.239 438.993 -17.239 438.993 -16.5 447 C-15.109 456.167 -14.59 466.669 -19 475 C-20.637 477.072 -21.412 477.908 -24.051 478.32 C-28.666 477.922 -31.292 477.28 -34.375 473.688 C-35.274 472.476 -36.149 471.246 -37 470 C-37.505 469.413 -38.011 468.827 -38.531 468.223 C-40.524 465.208 -41.227 462.243 -42.125 458.75 C-42.458 457.487 -42.79 456.223 -43.133 454.922 C-44.997 446.922 -45.129 439.178 -45.062 431 C-45.058 429.939 -45.053 428.878 -45.049 427.785 C-45.037 425.19 -45.021 422.595 -45 420 C-52.505 427.201 -59.44 434.147 -65 443 C-65.785 444.182 -66.572 445.363 -67.359 446.543 C-88.625 478.862 -96.514 518.586 -88.688 556.625 C-87.875 560.441 -86.982 564.224 -86 568 C-85.668 569.293 -85.668 569.293 -85.33 570.612 C-83.689 576.55 -81.324 581.675 -78.25 587 C-77.808 587.78 -77.365 588.561 -76.909 589.365 C-73.587 595.152 -70.007 600.661 -66 606 C-65.319 606.984 -65.319 606.984 -64.625 607.988 C-59.76 614.885 -53.437 622.345 -46.16 626.699 C-45.447 627.128 -44.734 627.558 -44 628 C-44 628.66 -44 629.32 -44 630 C-43.423 630.268 -42.845 630.536 -42.25 630.812 C-39.944 632.029 -37.979 633.303 -36 635 C-36 635.66 -36 636.32 -36 637 C-35.237 637.103 -34.474 637.206 -33.688 637.312 C-30.774 638.058 -29.97 638.845 -28 641 C-29.917 640.885 -31.834 640.758 -33.75 640.625 C-34.817 640.555 -35.885 640.486 -36.984 640.414 C-39.802 640.027 -41.583 639.443 -44 638 C-42.02 638 -40.04 638 -38 638 C-39.53 634.941 -41.937 634.387 -45 633 C-46.011 632.67 -47.021 632.34 -48.062 632 C-51.079 630.973 -53.28 629.66 -56 628 C-58.761 626.421 -61.537 624.867 -64.312 623.312 C-65.053 622.897 -65.794 622.481 -66.557 622.053 C-68.371 621.035 -70.185 620.017 -72 619 C-72 618.34 -72 617.68 -72 617 C-72.804 616.876 -72.804 616.876 -73.625 616.75 C-76.864 615.727 -79.273 614 -82 612 C-82.33 611.34 -82.66 610.68 -83 610 C-84.644 609.278 -86.311 608.606 -88 608 C-88 607.34 -88 606.68 -88 606 C-90.332 604.794 -92.496 603.835 -95 603 C-95 602.34 -95 601.68 -95 601 C-95.66 601 -96.32 601 -97 601 C-98.625 599.625 -98.625 599.625 -100 598 C-100 597.34 -100 596.68 -100 596 C-100.763 595.732 -101.526 595.464 -102.312 595.188 C-104.89 594.049 -106.27 593.186 -108 591 C-108 590.34 -108 589.68 -108 589 C-108.66 589 -109.32 589 -110 589 C-110 588.34 -110 587.68 -110 587 C-110.619 586.753 -111.238 586.505 -111.875 586.25 C-114.351 584.794 -114.951 583.622 -116 581 C-116.66 581 -117.32 581 -118 581 C-118 580.34 -118 579.68 -118 579 C-118.884 578.654 -118.884 578.654 -119.785 578.301 C-122.564 576.669 -123.689 574.881 -125.438 572.188 C-127.418 569.232 -129.286 566.509 -131.875 564.062 C-134 562 -134 562 -135 559 C-135.66 559 -136.32 559 -137 559 C-137.495 557.515 -137.495 557.515 -138 556 C-138.763 555.258 -139.526 554.515 -140.312 553.75 C-144.494 549.472 -146.953 544.629 -149 539 C-149.66 539 -150.32 539 -151 539 C-151 538.34 -151 537.68 -151 537 C-151.66 537 -152.32 537 -153 537 C-153.33 534.69 -153.66 532.38 -154 530 C-154.99 529.67 -155.98 529.34 -157 529 C-158.075 527.358 -158.075 527.358 -159.043 525.254 C-159.394 524.499 -159.746 523.744 -160.107 522.967 C-160.464 522.173 -160.82 521.38 -161.188 520.562 C-161.556 519.773 -161.924 518.983 -162.303 518.17 C-165 512.3 -165 512.3 -165 510 C-165.66 510 -166.32 510 -167 510 C-169.594 504.549 -171.634 499.164 -173.273 493.355 C-173.939 491.197 -174.738 489.233 -175.688 487.188 C-176.947 484.129 -177.296 482.253 -177 479 C-177.66 479 -178.32 479 -179 479 C-179.849 475.837 -180.676 472.669 -181.5 469.5 C-181.738 468.613 -181.977 467.726 -182.223 466.812 C-183.623 461.372 -184.262 456.617 -184 451 C-184.66 451 -185.32 451 -186 451 C-188.466 434.428 -189.565 418.185 -189.5 401.438 C-189.5 400.314 -189.499 399.19 -189.499 398.032 C-189.455 377.11 -188.813 355.685 -181 336 C-180.636 334.407 -180.314 332.802 -180.062 331.188 C-179.035 325.541 -177.088 320.331 -175 315 C-174.34 315 -173.68 315 -173 315 C-172.907 313.391 -172.907 313.391 -172.812 311.75 C-171.422 300.891 -164.948 290.64 -160 281 C-159.34 281 -158.68 281 -158 281 C-157.353 283.25 -156.708 285.5 -156.062 287.75 C-155.703 289.003 -155.343 290.256 -154.973 291.547 C-154.274 294.026 -153.601 296.497 -153 299 C-152.34 299 -151.68 299 -151 299 C-150.546 300.196 -150.092 301.392 -149.625 302.625 C-147.577 307.234 -144.954 311.266 -142.062 315.375 C-141.644 315.982 -141.225 316.588 -140.793 317.213 C-138.206 320.807 -135.85 322.887 -132 325 C-131.018 325.998 -131.018 325.998 -130.016 327.016 C-124.047 332.892 -115.839 334.466 -107.75 334.438 C-101.083 334.289 -95.392 333.357 -89.188 330.875 C-87 330 -87 330 -84 330 C-83.67 329.01 -83.34 328.02 -83 327 C-80.961 325.605 -80.961 325.605 -78.375 324.188 C-74.953 322.231 -71.942 320.25 -69 317.625 C-66 315 -66 315 -64 315 C-64 314.34 -64 313.68 -64 313 C-63.34 313 -62.68 313 -62 313 C-62 312.34 -62 311.68 -62 311 C-61.34 311 -60.68 311 -60 311 C-60 310.34 -60 309.68 -60 309 C-59.34 309 -58.68 309 -58 309 C-57.723 308.412 -57.446 307.825 -57.161 307.219 C-56.061 305.117 -54.873 303.369 -53.426 301.496 C-52.926 300.843 -52.427 300.19 -51.912 299.517 C-51.384 298.83 -50.856 298.144 -50.312 297.438 C-46.058 291.847 -42.063 286.234 -38.402 280.234 C-37 278 -37 278 -35.422 275.938 C-34.055 274.074 -33.174 272.384 -32.312 270.25 C-31.879 269.178 -31.446 268.105 -31 267 C-30.34 267 -29.68 267 -29 267 C-28.845 265.917 -28.845 265.917 -28.688 264.812 C-28 262 -28 262 -26.625 259.781 C-24.72 256.52 -23.546 253.255 -22.312 249.688 C-22.088 249.042 -21.863 248.397 -21.631 247.732 C-21.082 246.157 -20.54 244.579 -20 243 C-19.34 243 -18.68 243 -18 243 C-18.066 241.724 -18.066 241.724 -18.133 240.422 C-17.986 236.628 -17.119 233.835 -15.875 230.25 C-10.393 213.641 -6.676 196.404 -5 179 C-4.832 177.786 -4.664 176.572 -4.49 175.322 C-3.952 171.033 -3.839 166.807 -3.832 162.488 C-3.826 161.29 -3.826 161.29 -3.82 160.068 C-3.81 157.483 -3.81 154.898 -3.812 152.312 C-3.812 151.428 -3.811 150.544 -3.81 149.634 C-3.812 135.688 -4.386 121.91 -5.562 108.012 C-6.031 102.331 -6.102 96.697 -6 91 C-6.66 91 -7.32 91 -8 91 C-10.702 61.662 -12.32 27.413 0 0 Z " fill="#F98D71" transform="translate(492,309)" />
</svg>