<?xml version='1.0' encoding='utf-8'?>
<svg xmlns="http://www.w3.org/2000/svg" version="1.1" width="560" height="619" viewBox="228.25 239.49240625 560.33 619.61659375">
<path d="M0 0 C1.249 -0.005 2.497 -0.01 3.783 -0.016 C7.084 -0.024 10.384 -0.017 13.684 -0.006 C15.691 -0.004 17.697 -0.016 19.705 -0.033 C23.595 -0.064 27.484 -0.067 31.375 -0.062 C32.559 -0.074 33.742 -0.085 34.962 -0.097 C45.996 -0.005 55.693 2.681 63.82 10.434 C71.403 18.896 73.998 27.336 74.008 38.621 C74.02 39.345 74.032 40.069 74.045 40.814 C74.05 42.689 73.943 44.563 73.82 46.434 C71.82 48.434 71.82 48.434 68.656 48.661 C67.312 48.66 65.968 48.649 64.625 48.629 C63.918 48.626 63.21 48.623 62.481 48.62 C60.219 48.609 57.957 48.584 55.695 48.559 C54.163 48.549 52.63 48.539 51.098 48.531 C47.338 48.511 43.58 48.472 39.82 48.434 C39.82 56.024 39.82 63.614 39.82 71.434 C42.089 71.537 44.358 71.64 46.695 71.746 C60.819 72.557 74.323 75.208 87.82 79.434 C89.048 79.792 90.275 80.15 91.539 80.52 C108.71 85.587 125.86 92.237 141.34 101.262 C143.966 102.718 143.966 102.718 147.82 102.434 C150.243 99.859 151.892 96.715 153.695 93.684 C154.219 92.859 154.742 92.034 155.281 91.184 C155.766 90.384 156.251 89.585 156.75 88.762 C157.196 88.029 157.642 87.295 158.101 86.54 C159.043 84.444 159.043 84.444 158.205 82.332 C156.585 80.111 155.122 79.103 152.742 77.734 C151.505 77.011 151.505 77.011 150.244 76.272 C149.361 75.769 148.479 75.265 147.57 74.746 C145.744 73.677 143.918 72.607 142.094 71.535 C141.195 71.01 140.296 70.484 139.37 69.942 C130.241 64.541 121.44 58.611 112.82 52.434 C113.252 47.208 115.153 44.029 118.383 40.059 C119.065 39.204 119.065 39.204 119.761 38.333 C129.393 26.429 140.991 17.08 155.82 12.434 C156.717 12.137 157.615 11.841 158.539 11.535 C178.187 5.778 198.247 10.927 215.82 20.434 C237.45 32.988 256.163 48.21 263.242 73.109 C268.228 93.155 264.336 112.872 253.82 130.434 C250.76 135.225 250.76 135.225 247.055 136.047 C242.632 135.208 239.724 133.17 236.07 130.621 C234.567 129.608 233.061 128.598 231.555 127.59 C230.779 127.068 230.004 126.546 229.205 126.008 C225.31 123.436 221.317 121.031 217.32 118.621 C211.913 115.354 206.587 112.044 201.449 108.359 C199.698 107.187 199.698 107.187 196.82 107.434 C195.058 109.885 195.058 109.885 193.445 112.996 C191.42 116.646 189.426 120.122 186.883 123.434 C184.443 126.376 184.443 126.376 184.82 130.434 C186.394 132.053 186.394 132.053 188.508 133.371 C191.985 135.813 194.88 138.346 197.82 141.434 C199.151 142.77 200.484 144.103 201.82 145.434 C203.154 146.767 204.487 148.1 205.82 149.434 C206.612 150.22 207.403 151.006 208.219 151.816 C217.248 160.899 225.275 170.292 232.642 180.768 C233.659 182.205 234.7 183.626 235.746 185.043 C244.605 197.18 251.373 210.899 257.82 224.434 C258.207 225.239 258.594 226.044 258.992 226.873 C280.275 272.266 286.084 325.19 277.82 374.434 C277.703 375.18 277.585 375.927 277.464 376.697 C271.236 416.125 254.272 454.14 230.543 486.078 C229.097 488.055 227.753 490.051 226.445 492.121 C225.909 492.884 225.373 493.647 224.82 494.434 C224.16 494.434 223.5 494.434 222.82 494.434 C222.556 495.016 222.292 495.599 222.02 496.199 C220.772 498.523 219.397 500.229 217.633 502.184 C214.828 505.307 214.828 505.307 212.086 508.484 C208.668 512.522 205.105 516.084 201.07 519.504 C197.409 522.644 193.885 525.934 190.336 529.199 C188.229 531.071 186.106 532.789 183.82 534.434 C184.833 538.281 186.329 541.359 188.445 544.684 C195.485 556.253 202.452 568.511 199.82 582.434 C197.743 589.087 193.889 592.672 188.102 596.34 C181.422 599.542 173.404 598.765 166.149 598.839 C164.567 598.86 162.986 598.894 161.405 598.941 C149.621 599.288 139.733 598.207 130.633 589.746 C128.82 587.434 128.82 587.434 127.82 584.434 C127.16 584.434 126.5 584.434 125.82 584.434 C124.982 582.811 124.15 581.186 123.32 579.559 C122.856 578.654 122.392 577.749 121.914 576.816 C120.82 574.434 120.82 574.434 120.82 572.434 C120.218 572.65 119.615 572.866 118.995 573.089 C102.054 579.141 85.293 584.367 67.695 588.121 C66.754 588.324 65.813 588.526 64.844 588.735 C49.129 591.969 33.878 592.804 17.883 592.746 C16.892 592.745 15.902 592.744 14.881 592.743 C-0.351 592.707 -15.138 591.997 -30.18 589.434 C-31.58 589.225 -32.981 589.017 -34.383 588.812 C-53.204 585.745 -71.455 579.31 -89.18 572.434 C-89.452 573.155 -89.724 573.877 -90.004 574.621 C-94.686 585.821 -101.008 592.71 -112.18 597.434 C-118.178 599.416 -125.106 598.738 -131.368 598.784 C-133.025 598.8 -134.683 598.827 -136.34 598.866 C-154.28 599.277 -154.28 599.277 -161.18 593.434 C-166.287 588.192 -168.603 582.806 -168.555 575.496 C-168.566 573.75 -168.566 573.75 -168.578 571.969 C-167.82 565.24 -164.205 559.349 -161.18 553.371 C-160.837 552.69 -160.494 552.009 -160.141 551.307 C-158.619 548.284 -157.093 545.264 -155.555 542.25 C-154.3 539.68 -153.201 537.104 -152.18 534.434 C-153.909 533.017 -155.638 531.6 -157.367 530.184 C-158.33 529.395 -159.293 528.606 -160.285 527.793 C-162.137 526.283 -164.003 524.791 -165.887 523.32 C-168.73 520.981 -170.854 518.282 -173.18 515.434 C-174.825 513.745 -176.493 512.08 -178.18 510.434 C-188.009 500.836 -188.009 500.836 -191.18 496.434 C-191.18 495.774 -191.18 495.114 -191.18 494.434 C-191.84 494.434 -192.5 494.434 -193.18 494.434 C-194.365 493.095 -194.365 493.095 -195.684 491.207 C-196.173 490.512 -196.662 489.816 -197.166 489.1 C-197.686 488.344 -198.206 487.588 -198.742 486.809 C-199.278 486.038 -199.814 485.268 -200.366 484.474 C-218.178 458.72 -232.625 430.994 -240.18 400.434 C-240.41 399.511 -240.641 398.589 -240.879 397.639 C-257.929 328.431 -248.116 258.991 -212.18 197.434 C-207.681 189.997 -202.776 182.956 -197.492 176.059 C-196.8 175.152 -196.108 174.245 -195.396 173.311 C-190.448 166.901 -185.255 160.849 -179.633 155.027 C-177.132 152.468 -177.132 152.468 -174.977 149.59 C-174.384 148.878 -173.791 148.167 -173.18 147.434 C-172.52 147.434 -171.86 147.434 -171.18 147.434 C-171.18 146.774 -171.18 146.114 -171.18 145.434 C-169.667 144.103 -168.093 142.843 -166.492 141.621 C-162.196 138.282 -162.196 138.282 -158.242 134.559 C-156.18 132.434 -156.18 132.434 -153.18 130.434 C-153.747 126.245 -155.153 123.555 -157.492 120.059 C-160.215 115.919 -162.774 111.764 -165.18 107.434 C-170.273 107.935 -173.678 110.458 -177.805 113.246 C-179.314 114.245 -180.825 115.242 -182.336 116.238 C-183.124 116.76 -183.911 117.282 -184.723 117.819 C-188.885 120.554 -193.094 123.213 -197.305 125.871 C-198.085 126.366 -198.866 126.862 -199.67 127.372 C-201.833 128.738 -204.005 130.088 -206.18 131.434 C-206.817 131.841 -207.455 132.249 -208.112 132.668 C-211.537 134.775 -214.134 136.311 -218.18 135.434 C-226.868 126.975 -232.535 110.372 -233.18 98.434 C-233.276 96.72 -233.276 96.72 -233.375 94.973 C-233.897 77.258 -229.597 60.388 -218.18 46.434 C-217.52 46.434 -216.86 46.434 -216.18 46.434 C-215.912 45.842 -215.643 45.25 -215.367 44.641 C-206.331 27.846 -178.389 16.434 -161.223 11.23 C-144.803 6.931 -127.164 9.676 -112.18 17.434 C-100.582 24.239 -88.743 34.563 -82.18 46.434 C-81.242 50.309 -81.242 50.309 -82.18 53.434 C-84.557 55.558 -86.445 56.919 -89.18 58.434 C-89.832 58.797 -90.484 59.161 -91.156 59.535 C-92.616 60.339 -94.078 61.136 -95.543 61.93 C-99.363 64.109 -103.031 66.513 -106.718 68.907 C-122.171 78.929 -122.171 78.929 -127.18 81.434 C-126.71 86.6 -124.017 90.008 -121.117 94.121 C-116.18 101.187 -116.18 101.187 -116.18 103.434 C-112.281 101.823 -108.496 100.108 -104.742 98.184 C-92.983 92.268 -80.897 87.305 -68.406 83.172 C-66.923 82.68 -65.443 82.18 -63.965 81.672 C-45.887 75.49 -27.086 72.797 -8.18 70.434 C-8.18 63.504 -8.18 56.574 -8.18 49.434 C-10.466 49.385 -12.753 49.336 -15.109 49.285 C-17.32 49.231 -19.531 49.174 -21.742 49.116 C-23.28 49.078 -24.818 49.043 -26.357 49.012 C-28.566 48.966 -30.775 48.908 -32.984 48.848 C-33.674 48.836 -34.364 48.825 -35.074 48.813 C-39.952 48.661 -39.952 48.661 -42.18 46.434 C-43.397 34.567 -42.094 23.485 -34.992 13.559 C-25.505 2.392 -14.081 -0.035 0 0 Z " fill="#F8866B" transform="translate(496.1796875,249.56640625)" />
<path d="M0 0 C0.66 0.33 1.32 0.66 2 1 C2.746 3.442 2.746 3.442 3.438 6.703 C3.692 7.9 3.946 9.096 4.208 10.329 C4.474 11.635 4.738 12.943 5 14.25 C5.134 14.912 5.268 15.574 5.406 16.256 C11.58 47.031 12.2 79.016 7 110 C6.883 110.747 6.765 111.494 6.644 112.263 C0.416 151.692 -16.548 189.707 -40.277 221.645 C-41.723 223.622 -43.068 225.618 -44.375 227.688 C-44.911 228.451 -45.447 229.214 -46 230 C-46.66 230 -47.32 230 -48 230 C-48.264 230.583 -48.529 231.165 -48.801 231.766 C-50.048 234.089 -51.423 235.796 -53.188 237.75 C-55.992 240.873 -55.992 240.873 -58.734 244.051 C-62.153 248.088 -65.716 251.651 -69.75 255.07 C-73.411 258.21 -76.935 261.5 -80.484 264.766 C-82.592 266.637 -84.714 268.355 -87 270 C-85.987 273.848 -84.492 276.926 -82.375 280.25 C-75.336 291.82 -68.368 304.077 -71 318 C-73.077 324.653 -76.932 328.238 -82.719 331.906 C-89.398 335.109 -97.416 334.331 -104.672 334.405 C-106.253 334.427 -107.835 334.46 -109.416 334.508 C-121.199 334.854 -131.087 333.774 -140.188 325.312 C-142 323 -142 323 -143 320 C-143.66 320 -144.32 320 -145 320 C-145.838 318.378 -146.67 316.752 -147.5 315.125 C-147.964 314.22 -148.428 313.315 -148.906 312.383 C-150 310 -150 310 -150 308 C-150.602 308.216 -151.205 308.432 -151.826 308.655 C-168.766 314.708 -185.528 319.934 -203.125 323.688 C-204.536 323.991 -204.536 323.991 -205.976 324.302 C-221.691 327.535 -236.942 328.37 -252.938 328.312 C-253.928 328.311 -254.919 328.31 -255.939 328.309 C-271.171 328.274 -285.959 327.563 -301 325 C-302.401 324.791 -303.802 324.584 -305.203 324.379 C-324.025 321.312 -342.275 314.877 -360 308 C-360.408 309.083 -360.408 309.083 -360.824 310.188 C-365.506 321.388 -371.828 328.277 -383 333 C-388.999 334.982 -395.926 334.304 -402.188 334.35 C-403.846 334.367 -405.503 334.394 -407.16 334.432 C-425.1 334.844 -425.1 334.844 -432 329 C-437.107 323.758 -439.423 318.373 -439.375 311.062 C-439.383 309.898 -439.39 308.734 -439.398 307.535 C-438.64 300.807 -435.026 294.915 -432 288.938 C-431.486 287.916 -431.486 287.916 -430.961 286.873 C-429.439 283.85 -427.913 280.83 -426.375 277.816 C-425.12 275.246 -424.021 272.67 -423 270 C-423.736 269.408 -424.472 268.817 -425.23 268.207 C-426.206 267.417 -427.182 266.627 -428.188 265.812 C-429.15 265.035 -430.113 264.258 -431.105 263.457 C-433.904 261.082 -436.446 258.629 -439 256 C-434.25 257.875 -434.25 257.875 -432 259 C-432 259.66 -432 260.32 -432 261 C-431.051 261.309 -430.103 261.619 -429.125 261.938 C-426 263 -426 263 -424 264 C-424 264.99 -424 265.98 -424 267 C-423.34 267 -422.68 267 -422 267 C-421.67 267.66 -421.34 268.32 -421 269 C-420.01 269.33 -419.02 269.66 -418 270 C-418 270.66 -418 271.32 -418 272 C-417.34 272 -416.68 272 -416 272 C-415.67 272.99 -415.34 273.98 -415 275 C-412.985 275.733 -412.985 275.733 -411 276 C-411 276.66 -411 277.32 -411 278 C-410.34 278 -409.68 278 -409 278 C-409 278.66 -409 279.32 -409 280 C-406.085 280.81 -404.539 281.218 -401.688 280.062 C-401.131 279.712 -400.574 279.361 -400 279 C-400 278.34 -400 277.68 -400 277 C-400.99 276.67 -401.98 276.34 -403 276 C-402.34 275.34 -401.68 274.68 -401 274 C-400.34 274.33 -399.68 274.66 -399 275 C-399 275.66 -399 276.32 -399 277 C-398.015 277.226 -397.03 277.451 -396.016 277.684 C-391.411 278.999 -387.719 281.445 -383.75 284.062 C-382.351 284.973 -380.95 285.88 -379.547 286.785 C-378.937 287.186 -378.327 287.587 -377.698 288 C-375.857 289.164 -375.857 289.164 -373 290 C-373 290.66 -373 291.32 -373 292 C-372.43 292.13 -371.86 292.259 -371.273 292.393 C-368.961 293.01 -366.846 293.809 -364.633 294.719 C-339.817 304.929 -339.817 304.929 -314 312 C-312.46 312.345 -310.921 312.693 -309.383 313.043 C-307.756 313.405 -306.128 313.766 -304.5 314.125 C-303.789 314.284 -303.078 314.443 -302.345 314.607 C-288.103 317.621 -274.12 318.324 -259.611 318.261 C-256.702 318.25 -253.794 318.261 -250.885 318.273 C-222.188 318.649 -222.188 318.649 -195 311 C-192.697 310.398 -190.383 309.842 -188.062 309.312 C-174.159 305.979 -160.444 301.566 -147.594 295.262 C-145 294 -145 294 -142.703 293.133 C-138.713 291.461 -135.015 289.311 -131.25 287.188 C-126.641 284.605 -126.641 284.605 -124.342 283.318 C-122.72 282.405 -121.102 281.486 -119.486 280.561 C-118.681 280.104 -117.876 279.647 -117.047 279.176 C-116.318 278.759 -115.59 278.341 -114.839 277.911 C-113 277 -113 277 -111 277 C-111 276.34 -111 275.68 -111 275 C-109.68 274.67 -108.36 274.34 -107 274 C-107 273.34 -107 272.68 -107 272 C-105.354 270.966 -103.683 269.972 -102 269 C-101.113 268.278 -100.226 267.556 -99.312 266.812 C-97 265 -97 265 -95 265 C-95 264.34 -95 263.68 -95 263 C-93.68 262.67 -92.36 262.34 -91 262 C-91 261.34 -91 260.68 -91 260 C-89.68 259.67 -88.36 259.34 -87 259 C-87 258.34 -87 257.68 -87 257 C-86.34 257 -85.68 257 -85 257 C-85 256.34 -85 255.68 -85 255 C-83.391 253.344 -83.391 253.344 -81.25 251.5 C-80.554 250.892 -79.858 250.283 -79.141 249.656 C-77.155 248.12 -75.281 247.028 -73 246 C-73 245.34 -73 244.68 -73 244 C-72.34 244 -71.68 244 -71 244 C-70.75 243.42 -70.5 242.84 -70.242 242.242 C-68.836 239.704 -67.236 238.108 -65.125 236.125 C-62.63 233.711 -60.467 231.445 -58.625 228.5 C-58.089 227.675 -57.553 226.85 -57 226 C-56.34 226 -55.68 226 -55 226 C-54.67 224.68 -54.34 223.36 -54 222 C-53.34 222 -52.68 222 -52 222 C-51.629 221.203 -51.629 221.203 -51.25 220.391 C-49.677 217.382 -47.864 214.588 -46 211.75 C-45.299 210.672 -44.598 209.595 -43.875 208.484 C-43.256 207.665 -42.638 206.845 -42 206 C-41.34 206 -40.68 206 -40 206 C-39.773 205.175 -39.546 204.35 -39.312 203.5 C-38.29 200.774 -37.419 198.938 -35.875 196.562 C-29.037 185.993 -20.573 172.391 -18 160 C-17.34 160 -16.68 160 -16 160 C-15.876 158.969 -15.753 157.938 -15.625 156.875 C-15.061 153.379 -14.213 150.316 -13 147 C-12.485 149.059 -11.979 151.105 -11.562 153.188 C-11.377 153.786 -11.191 154.384 -11 155 C-10.34 155.33 -9.68 155.66 -9 156 C-8.876 155.361 -8.753 154.721 -8.625 154.062 C-8.419 153.382 -8.212 152.701 -8 152 C-7.34 151.67 -6.68 151.34 -6 151 C-5.386 147.779 -5.04 144.554 -4.66 141.297 C-3.979 137.895 -2.845 135.894 -1 133 C-0.281 129.305 -0.281 129.305 0 126 C0.66 126 1.32 126 2 126 C1.977 125.264 1.954 124.528 1.93 123.77 C1.912 122.794 1.894 121.818 1.875 120.812 C1.852 119.85 1.829 118.887 1.805 117.895 C2.012 114.829 2.818 112.814 4 110 C5.345 104.144 5.03 98.333 4.873 92.369 C4.862 91.594 4.851 90.818 4.84 90.02 C4.815 88.969 4.815 88.969 4.789 87.898 C5 86 5 86 7 83 C7.241 80.176 7.373 77.441 7.414 74.613 C7.433 73.796 7.453 72.979 7.473 72.137 C7.533 69.529 7.579 66.921 7.625 64.312 C7.663 62.544 7.702 60.775 7.742 59.006 C7.838 54.671 7.922 50.336 8 46 C7.34 46 6.68 46 6 46 C5.95 45.426 5.9 44.851 5.848 44.259 C5.615 41.63 5.37 39.003 5.125 36.375 C5.046 35.471 4.968 34.568 4.887 33.637 C4.427 28.788 3.671 24.602 2 20 C0.681 13.365 -0.315 6.771 0 0 Z " fill="#D05A46" transform="translate(767,514)" />
<path d="M0 0 C0.804 0.124 1.609 0.248 2.438 0.375 C4.556 3.553 4.976 5.41 5.621 9.125 C5.825 10.282 6.029 11.439 6.239 12.631 C6.554 14.484 6.554 14.484 6.875 16.375 C7.095 17.636 7.314 18.896 7.54 20.195 C8.915 28.142 10.239 36.098 11.449 44.072 C12.187 48.925 13.043 53.75 13.931 58.578 C14.732 63.002 15.458 67.438 16.188 71.875 C17.422 79.341 18.678 86.804 19.961 94.262 C20.093 95.029 20.225 95.797 20.361 96.588 C21.016 100.393 21.673 104.199 22.331 108.004 C26.02 129.37 26.02 129.37 27.062 139.25 C28.017 144.502 30.209 146.423 34.34 149.586 C41.268 155.495 44.259 164.606 45.438 173.375 C45.671 176.48 45.773 179.574 45.812 182.688 C45.827 183.44 45.841 184.193 45.855 184.969 C45.81 190.173 44.741 193.71 42.438 198.375 C42.156 199.062 41.875 199.749 41.586 200.457 C36.752 211.273 27.44 219.355 16.75 224.125 C15.11 224.744 15.11 224.744 13.438 225.375 C12.086 225.897 12.086 225.897 10.707 226.43 C0.488 229.384 -11.078 227.949 -20.562 223.375 C-27.457 219.456 -32.734 214.631 -37.562 208.375 C-38.614 207.045 -38.614 207.045 -39.688 205.688 C-47.081 192.625 -48.602 180.423 -45 166 C-42.994 159.732 -40.083 154.208 -35.562 149.375 C-34.902 149.375 -34.243 149.375 -33.562 149.375 C-33.294 148.756 -33.026 148.138 -32.75 147.5 C-31.562 145.375 -31.562 145.375 -28.562 143.375 C-27.921 141.429 -27.921 141.429 -27.719 139.148 C-27.553 137.861 -27.553 137.861 -27.385 136.547 C-27.278 135.624 -27.172 134.701 -27.062 133.75 C-26.815 131.82 -26.565 129.89 -26.312 127.961 C-26.189 127.007 -26.065 126.052 -25.938 125.069 C-25.437 121.473 -24.768 117.937 -24.062 114.375 C-22.943 108.619 -22.04 102.872 -21.25 97.062 C-19.687 85.626 -17.703 74.266 -15.719 62.897 C-14.417 55.419 -13.164 47.941 -12.03 40.435 C-11.253 35.345 -10.408 30.266 -9.562 25.188 C-9.397 24.185 -9.233 23.183 -9.062 22.15 C-8.576 19.223 -8.071 16.299 -7.562 13.375 C-7.332 11.96 -7.332 11.96 -7.098 10.517 C-6.864 9.184 -6.864 9.184 -6.625 7.824 C-6.492 7.037 -6.359 6.251 -6.223 5.44 C-5.11 1.96 -3.604 0.527 0 0 Z " fill="#D35642" transform="translate(512.5625,402.625)" />
<path d="M0 0 C2.659 1.941 4.834 3.997 7.012 6.469 C7.695 7.196 8.378 7.923 9.082 8.672 C15.012 15.077 15.012 15.077 15.012 18.469 C15.672 18.469 16.332 18.469 17.012 18.469 C25.031 34.551 29.194 49.486 23.996 67.531 C20.232 78.764 20.232 78.764 18.012 82.469 C16.098 83.422 16.098 83.422 14.012 83.469 C12.109 82.754 12.109 82.754 10.074 81.531 C9.29 81.066 8.507 80.601 7.699 80.121 C6.812 79.576 5.925 79.031 5.012 78.469 C3.98 77.851 2.949 77.234 1.887 76.598 C-3.272 73.477 -8.33 70.285 -13.238 66.781 C-16.863 64.196 -20.539 62.006 -24.457 59.902 C-28.246 57.756 -31.877 55.37 -35.523 52.992 C-38.579 51.004 -41.649 49.054 -44.777 47.18 C-45.38 46.818 -45.982 46.456 -46.603 46.083 C-48.277 45.083 -49.957 44.09 -51.637 43.098 C-52.413 42.56 -53.189 42.023 -53.988 41.469 C-53.988 40.809 -53.988 40.149 -53.988 39.469 C-54.86 39.204 -55.731 38.94 -56.629 38.668 C-64.997 35.681 -72.318 30.304 -79.488 25.156 C-82.953 22.817 -86.605 20.909 -90.293 18.949 C-94.334 16.729 -98.415 14.398 -101.988 11.469 C-101.988 10.809 -101.988 10.149 -101.988 9.469 C-102.648 9.469 -103.308 9.469 -103.988 9.469 C-103.355 2.288 -97.544 -2.278 -92.336 -6.668 C-61.832 -30.879 -29.548 -19.668 0 0 Z " fill="#F8876B" transform="translate(725.98828125,289.53125)" />
<path d="M0 0 C15.381 11.67 25.556 28.016 29 47 C30.63 66.72 26.91 83.049 16.191 99.832 C14 102 14 102 11.234 102.613 C6.811 101.775 3.903 99.737 0.25 97.188 C-1.254 96.175 -2.759 95.164 -4.266 94.156 C-5.041 93.634 -5.816 93.112 -6.615 92.574 C-10.511 90.003 -14.503 87.597 -18.5 85.188 C-23.907 81.921 -29.234 78.61 -34.371 74.926 C-36.122 73.753 -36.122 73.753 -39 74 C-40.762 76.451 -40.762 76.451 -42.375 79.562 C-44.4 83.213 -46.394 86.689 -48.938 90 C-51.378 92.943 -51.378 92.943 -51 97 C-49.426 98.619 -49.426 98.619 -47.312 99.938 C-43.836 102.379 -40.941 104.912 -38 108 C-36.669 109.336 -35.336 110.669 -34 112 C-32.667 113.333 -31.333 114.667 -30 116 C-29.209 116.786 -28.417 117.573 -27.602 118.383 C-18.573 127.466 -10.546 136.858 -3.178 147.334 C-2.161 148.772 -1.12 150.192 -0.074 151.609 C8.785 163.747 15.553 177.466 22 191 C22.388 191.808 22.776 192.616 23.177 193.448 C26.568 200.68 29.274 208.057 31.812 215.625 C32.219 216.788 32.626 217.95 33.045 219.148 C34.991 224.931 36.42 229.929 36.094 236.047 C35.953 238.991 36.411 241.786 36.875 244.688 C37.119 246.271 37.119 246.271 37.367 247.887 C37.938 251.026 37.938 251.026 39.031 254.062 C41.434 261.35 41.125 269.398 41 277 C41.66 277 42.32 277 43 277 C43.049 282.214 43.086 287.429 43.11 292.643 C43.12 294.417 43.134 296.192 43.151 297.966 C43.175 300.515 43.186 303.064 43.195 305.613 C43.206 306.407 43.216 307.201 43.227 308.019 C43.227 311.882 43.194 313.708 41 317 C40.883 320.731 40.956 324.405 41.078 328.133 C41.179 333.176 40.522 337.14 39 342 C38.523 344.634 38.193 347.28 37.875 349.938 C37.745 350.963 37.745 350.963 37.613 352.01 C37.404 353.673 37.201 355.336 37 357 C36.34 357 35.68 357 35 357 C35.062 358.052 35.124 359.104 35.188 360.188 C35 364 35 364 33.562 366.312 C31.699 369.519 31.294 372.149 30.812 375.812 C30.654 376.974 30.495 378.135 30.332 379.332 C30.222 380.212 30.113 381.093 30 382 C29.01 382.33 28.02 382.66 27 383 C27 385.31 27 387.62 27 390 C24 389 24 389 22 387 C21.441 377.869 25.062 368.374 27.411 359.631 C32.391 340.989 34.475 323.059 34.281 303.752 C34.25 300.607 34.24 297.462 34.234 294.316 C34.634 275.372 34.634 275.372 31 257 C30.649 255.288 30.338 253.567 30.07 251.84 C29.917 250.888 29.764 249.936 29.606 248.955 C29.368 247.462 29.368 247.462 29.125 245.938 C26.937 232.885 23.097 220.948 18.367 208.629 C15 199.691 15 199.691 15 197 C14.34 197 13.68 197 13 197 C12.685 196.215 12.371 195.43 12.047 194.621 C9.22 187.608 9.22 187.608 5.688 180.938 C4 178 4 178 4 175 C3.34 175 2.68 175 2 175 C1.608 174.175 1.216 173.35 0.812 172.5 C-2.751 165.618 -7.096 159.366 -11.645 153.102 C-13 151 -13 151 -13 149 C-13.66 149 -14.32 149 -15 149 C-16.034 147.354 -17.028 145.683 -18 144 C-19.932 141.424 -21.91 139.09 -24.188 136.812 C-26.683 134.317 -29.028 131.759 -31.375 129.125 C-36.126 123.823 -40.88 118.654 -46.438 114.188 C-47.283 113.466 -48.129 112.744 -49 112 C-49 111.34 -49 110.68 -49 110 C-50.083 109.66 -50.083 109.66 -51.188 109.312 C-54.58 107.729 -56.384 105.677 -59 103 C-64.136 98.746 -69.718 95.206 -75.387 91.711 C-78.067 89.956 -80.509 88.012 -83 86 C-83.99 85.505 -83.99 85.505 -85 85 C-85 80.916 -84.193 77.877 -83 74 C-82.66 74.866 -82.66 74.866 -82.312 75.75 C-78.003 83.138 -67.634 86.914 -60 90 C-59.74 89.286 -59.479 88.572 -59.211 87.836 C-57.938 84.855 -56.402 82.333 -54.625 79.625 C-51.922 75.492 -49.423 71.301 -47 67 C-47.545 66.682 -48.091 66.365 -48.652 66.038 C-51.108 64.599 -53.554 63.144 -56 61.688 C-56.859 61.188 -57.717 60.688 -58.602 60.174 C-59.82 59.444 -59.82 59.444 -61.062 58.699 C-61.817 58.254 -62.571 57.809 -63.348 57.35 C-63.893 56.905 -64.438 56.459 -65 56 C-65 55.01 -65 54.02 -65 53 C-69.231 54.688 -69.231 54.688 -72 58 C-72.99 58.495 -72.99 58.495 -74 59 C-74.658 62.029 -74.658 62.029 -75 65 C-75.66 65 -76.32 65 -77 65 C-77.495 66.485 -77.495 66.485 -78 68 C-79.875 70.688 -79.875 70.688 -82 73 C-82.99 73 -83.98 73 -85 73 C-85.738 65.807 -82.351 60.094 -78.625 54.188 C-76.659 51.252 -76.659 51.252 -77.644 48.969 C-79.234 46.66 -80.652 45.696 -83.078 44.301 C-83.903 43.818 -84.727 43.336 -85.577 42.839 C-86.459 42.335 -87.341 41.831 -88.25 41.312 C-90.076 40.244 -91.902 39.174 -93.727 38.102 C-94.625 37.576 -95.524 37.05 -96.45 36.509 C-105.579 31.107 -114.38 25.177 -123 19 C-122.568 13.774 -120.667 10.596 -117.438 6.625 C-116.983 6.056 -116.528 5.486 -116.06 4.899 C-106.427 -7.004 -94.83 -16.354 -80 -21 C-79.103 -21.296 -78.206 -21.593 -77.281 -21.898 C-49.01 -30.182 -22.42 -16.092 0 0 Z M-101 3 C-102.268 4.238 -102.268 4.238 -103.562 5.5 C-108.4 10.009 -108.4 10.009 -110 16 C-109.34 16 -108.68 16 -108 16 C-108 16.66 -108 17.32 -108 18 C-105.739 19.574 -103.482 21.018 -101.125 22.438 C-100.058 23.093 -100.058 23.093 -98.969 23.761 C-96.65 25.181 -94.326 26.591 -92 28 C-89.63 29.442 -87.26 30.886 -84.891 32.331 C-83.345 33.273 -81.799 34.213 -80.252 35.152 C-75.664 37.944 -71.174 40.821 -66.824 43.977 C-64.594 45.228 -62.513 45.611 -60 46 C-59.67 46.99 -59.34 47.98 -59 49 C-56.597 50.675 -56.597 50.675 -53.625 52.25 C-45.948 56.576 -38.558 61.266 -31.25 66.188 C-28.207 68.23 -25.12 70.103 -21.918 71.891 C-16.267 75.159 -10.808 78.78 -5.391 82.418 C-4.776 82.826 -4.161 83.233 -3.528 83.654 C-2.328 84.45 -1.135 85.254 0.053 86.067 C3.688 88.467 6.664 89.593 11 90 C14.695 83.269 16.921 76.378 19 69 C19.197 68.354 19.394 67.708 19.598 67.043 C22.519 52.209 18.163 37.866 11 25 C10.34 25 9.68 25 9 25 C8.884 24.165 8.884 24.165 8.766 23.312 C7.73 20.186 5.975 18.416 3.75 16 C2.982 15.154 2.213 14.309 1.422 13.438 C-14.221 -2.307 -38.792 -14.087 -60.938 -14.438 C-77.072 -14.3 -89.773 -8.624 -101 3 Z " fill="#D45640" transform="translate(732,283)" />
<path d="M0 0 C1.622 -0 1.622 -0 3.277 -0 C18.406 0.032 33.616 0.146 48.25 4.438 C52.056 5.523 55.799 6.581 59.688 7.312 C71.323 9.828 82.367 14.744 93.039 19.891 C96.741 21.64 100.447 23.097 104.312 24.438 C104.312 25.098 104.312 25.757 104.312 26.438 C104.952 26.664 105.591 26.891 106.25 27.125 C109.757 28.628 113.007 30.438 116.324 32.316 C117.636 33.056 118.966 33.764 120.312 34.438 C120.312 35.097 120.312 35.757 120.312 36.438 C121.015 36.677 121.718 36.917 122.441 37.164 C138.659 44.357 156.662 62.515 167.312 76.438 C167.642 77.428 167.973 78.418 168.312 79.438 C169.303 79.767 170.293 80.097 171.312 80.438 C172.876 82.431 174.293 84.395 175.688 86.5 C176.084 87.087 176.48 87.674 176.888 88.279 C178.04 89.992 179.178 91.713 180.312 93.438 C180.873 94.286 181.434 95.134 182.012 96.008 C185.312 101.134 185.312 101.134 185.312 103.438 C185.973 103.438 186.632 103.438 187.312 103.438 C188.657 105.682 189.988 107.932 191.312 110.188 C191.694 110.822 192.076 111.456 192.469 112.109 C194.492 115.577 195.312 117.331 195.312 121.438 C195.973 121.438 196.632 121.438 197.312 121.438 C197.566 122.078 197.82 122.719 198.082 123.379 C199.591 127.172 201.098 130.954 202.75 134.688 C206.705 143.916 209.682 153.199 211.625 163.047 C212.292 166.337 213.089 169.565 213.938 172.812 C215.102 177.361 215.863 181.766 216.312 186.438 C218.435 186.567 218.435 186.567 220.688 185.438 C225.859 184.011 230.975 184.081 236.312 184.438 C237.312 185.438 237.312 185.438 237.562 188.312 C237.312 191.438 237.312 191.438 236.048 193.115 C233.938 194.723 232.925 194.79 230.301 194.73 C229.618 194.723 228.935 194.715 228.232 194.708 C226.941 194.667 226.941 194.667 225.625 194.625 C222.882 194.563 220.139 194.501 217.312 194.438 C217.312 200.048 217.312 205.658 217.312 211.438 C223.582 211.438 229.852 211.438 236.312 211.438 C236.312 212.097 236.312 212.757 236.312 213.438 C236.973 213.438 237.632 213.438 238.312 213.438 C238.438 216.312 238.438 216.312 238.312 219.438 C236.312 221.438 236.312 221.438 233.699 221.665 C232.62 221.654 231.541 221.644 230.43 221.633 C229.263 221.626 228.096 221.62 226.895 221.613 C225.671 221.597 224.448 221.58 223.188 221.562 C221.956 221.553 220.725 221.544 219.457 221.535 C216.409 221.512 213.361 221.479 210.312 221.438 C210.312 220.778 210.312 220.118 210.312 219.438 C209.652 219.438 208.993 219.438 208.312 219.438 C206.96 216.733 207.15 214.557 207.102 211.531 C207.075 210.321 207.049 209.11 207.022 207.863 C206.994 206.567 206.966 205.272 206.938 203.938 C206.532 189.505 205.195 175.873 201.059 161.992 C200.451 159.91 199.929 157.803 199.434 155.691 C198.307 151.14 196.671 146.851 194.938 142.5 C194.473 141.317 194.473 141.317 194 140.111 C192.386 136.028 190.707 131.992 188.875 128 C187.312 124.438 187.312 124.438 187.312 121.438 C186.652 121.438 185.993 121.438 185.312 121.438 C184.983 119.788 184.652 118.137 184.312 116.438 C183.652 116.438 182.993 116.438 182.312 116.438 C182.021 115.82 181.73 115.203 181.43 114.566 C178.806 109.145 175.934 104.165 172.449 99.25 C171.312 97.438 171.312 97.438 171.312 95.438 C170.322 95.108 169.332 94.778 168.312 94.438 C165.312 90.104 165.312 90.104 165.312 87.438 C164.652 87.438 163.993 87.438 163.312 87.438 C159.913 84.386 157.588 81.367 155.312 77.438 C154.756 76.881 154.199 76.324 153.625 75.75 C153.192 75.317 152.759 74.884 152.312 74.438 C152.312 73.778 152.312 73.118 152.312 72.438 C151.761 72.2 151.209 71.963 150.641 71.719 C147.745 70.125 145.517 68.148 143.062 65.938 C142.17 65.143 141.278 64.349 140.359 63.531 C138.312 61.438 138.312 61.438 138.312 59.438 C137.615 59.204 136.918 58.971 136.199 58.73 C132.767 57.193 130.035 55.086 127.125 52.75 C125.978 51.849 124.829 50.949 123.68 50.051 C123.113 49.608 122.547 49.166 121.964 48.709 C117.009 44.893 111.984 41.112 106.312 38.438 C106.312 37.778 106.312 37.118 106.312 36.438 C105.279 36.175 104.245 35.912 103.18 35.641 C99.603 34.618 96.651 33.08 93.438 31.188 C86.935 27.575 80.303 25.137 73.258 22.797 C69.515 21.548 65.938 19.995 62.312 18.438 C54.588 15.771 46.802 14.037 38.75 12.75 C37.637 12.571 37.637 12.571 36.501 12.389 C24.631 10.61 12.737 10.234 0.75 10.25 C-0.292 10.25 -0.292 10.25 -1.356 10.25 C-21.837 10.115 -21.837 10.115 -41.688 14.438 C-42.966 14.541 -44.245 14.644 -45.562 14.75 C-65.153 16.703 -85.791 26.84 -102.688 36.438 C-104.666 37.481 -106.645 38.522 -108.625 39.562 C-114.12 42.563 -118.908 46.217 -123.785 50.113 C-125.688 51.438 -125.688 51.438 -127.688 51.438 C-127.894 52.056 -128.1 52.675 -128.312 53.312 C-130.235 56.284 -132.353 56.568 -135.688 57.438 C-135.688 58.097 -135.688 58.757 -135.688 59.438 C-136.347 59.438 -137.007 59.438 -137.688 59.438 C-137.688 60.097 -137.688 60.757 -137.688 61.438 C-138.347 61.438 -139.007 61.438 -139.688 61.438 C-139.688 62.097 -139.688 62.757 -139.688 63.438 C-140.347 63.438 -141.007 63.438 -141.688 63.438 C-141.688 64.097 -141.688 64.757 -141.688 65.438 C-143.043 66.734 -143.043 66.734 -144.875 68.188 C-147.283 70.174 -149.371 72.118 -151.312 74.562 C-153.688 77.438 -153.688 77.438 -156.25 79.438 C-159.085 81.764 -160.681 84.393 -162.688 87.438 C-163.347 87.438 -164.007 87.438 -164.688 87.438 C-164.976 88.015 -165.265 88.592 -165.562 89.188 C-166.604 91.271 -167.646 93.354 -168.688 95.438 C-169.347 95.438 -170.007 95.438 -170.688 95.438 C-170.961 96.005 -171.234 96.572 -171.516 97.156 C-172.718 99.497 -174.051 101.701 -175.438 103.938 C-178.87 109.602 -181.801 115.48 -184.688 121.438 C-185.347 121.438 -186.007 121.438 -186.688 121.438 C-186.814 122 -186.94 122.562 -187.07 123.141 C-187.728 125.589 -188.599 127.843 -189.562 130.188 C-191.047 133.845 -192.5 137.507 -193.864 141.211 C-194.434 142.752 -195.012 144.289 -195.597 145.823 C-201.062 160.393 -205.278 175.839 -205.688 191.438 C-205.803 194.792 -205.926 198.146 -206.053 201.5 C-206.142 203.893 -206.223 206.286 -206.296 208.679 C-206.351 210.329 -206.351 210.329 -206.406 212.012 C-206.437 213.008 -206.467 214.004 -206.498 215.03 C-206.688 217.438 -206.688 217.438 -207.688 219.438 C-208.348 219.438 -209.007 219.438 -209.688 219.438 C-209.688 220.097 -209.688 220.757 -209.688 221.438 C-213.979 221.495 -218.271 221.531 -222.562 221.562 C-223.786 221.579 -225.009 221.596 -226.27 221.613 C-228.019 221.623 -228.019 221.623 -229.805 221.633 C-230.883 221.643 -231.962 221.654 -233.074 221.665 C-235.688 221.438 -235.688 221.438 -237.688 219.438 C-237.875 215.875 -237.875 215.875 -237.688 212.438 C-236.688 211.438 -236.688 211.438 -234.738 211.324 C-233.905 211.329 -233.073 211.334 -232.215 211.34 C-231.316 211.343 -230.417 211.346 -229.49 211.35 C-228.545 211.358 -227.599 211.366 -226.625 211.375 C-225.676 211.38 -224.726 211.384 -223.748 211.389 C-221.394 211.4 -219.041 211.417 -216.688 211.438 C-216.74 210.179 -216.74 210.179 -216.793 208.895 C-217.143 193.323 -214.684 178.169 -210.656 163.156 C-209.692 159.455 -208.925 155.752 -208.188 152 C-207.029 146.413 -205.322 141.493 -202.688 136.438 C-202.028 136.438 -201.368 136.438 -200.688 136.438 C-200.626 135.344 -200.564 134.251 -200.5 133.125 C-199.823 127.415 -197.225 122.53 -194.688 117.438 C-194.028 117.438 -193.368 117.438 -192.688 117.438 C-192.575 116.712 -192.463 115.986 -192.348 115.238 C-191.658 112.312 -190.632 110.215 -189.125 107.625 C-188.67 106.835 -188.215 106.045 -187.746 105.23 C-187.397 104.639 -187.047 104.047 -186.688 103.438 C-186.028 103.438 -185.368 103.438 -184.688 103.438 C-184.409 102.262 -184.409 102.262 -184.125 101.062 C-182.12 96.007 -179.181 91.606 -175.688 87.438 C-175.028 87.438 -174.368 87.438 -173.688 87.438 C-173.399 86.674 -173.11 85.911 -172.812 85.125 C-171.688 82.438 -171.688 82.438 -169.688 79.438 C-169.028 79.438 -168.368 79.438 -167.688 79.438 C-167.192 77.457 -167.192 77.457 -166.688 75.438 C-166.028 75.438 -165.368 75.438 -164.688 75.438 C-164.461 74.881 -164.234 74.324 -164 73.75 C-162.32 70.791 -160.146 68.776 -157.688 66.438 C-157.131 65.839 -156.574 65.241 -156 64.625 C-154.688 63.438 -154.688 63.438 -152.688 63.438 C-152.461 62.875 -152.234 62.313 -152 61.734 C-150.318 58.791 -148.216 56.937 -145.688 54.688 C-144.357 53.489 -144.357 53.489 -143 52.266 C-140.688 50.438 -140.688 50.438 -138.688 50.438 C-138.688 49.778 -138.688 49.118 -138.688 48.438 C-136.972 47.014 -135.189 45.671 -133.375 44.375 C-131.896 43.306 -131.896 43.306 -130.387 42.215 C-127.688 40.438 -127.688 40.438 -124.688 39.438 C-124.688 38.778 -124.688 38.118 -124.688 37.438 C-123.904 37.066 -123.12 36.695 -122.312 36.312 C-116.679 33.489 -110.996 30.4 -106.188 26.312 C-103.061 23.968 -99.846 22.804 -96.207 21.43 C-94.058 20.584 -92.093 19.652 -90.062 18.562 C-78.375 12.59 -65.368 8.676 -52.688 5.438 C-51.836 5.206 -50.985 4.975 -50.108 4.736 C-33.458 0.359 -17.125 -0.022 0 0 Z " fill="#D6543D" transform="translate(511.6875,368.5625)" />
<path d="M0 0 C1.249 -0.005 2.497 -0.01 3.783 -0.016 C7.084 -0.024 10.384 -0.017 13.684 -0.006 C15.691 -0.004 17.697 -0.016 19.705 -0.033 C23.595 -0.064 27.484 -0.067 31.375 -0.062 C32.559 -0.074 33.742 -0.085 34.962 -0.097 C47.914 0.011 56.767 4.103 66.258 12.621 C68.309 16.314 68.317 19.504 68.539 23.676 C68.804 26.277 69.317 28.013 70.383 30.371 C72.599 35.524 72.068 40.931 71.82 46.434 C68.087 47.622 64.545 47.547 60.648 47.531 C59.966 47.53 59.284 47.528 58.581 47.527 C56.41 47.521 54.24 47.509 52.07 47.496 C50.595 47.491 49.12 47.487 47.645 47.482 C44.036 47.471 40.428 47.454 36.82 47.434 C36.49 46.444 36.16 45.454 35.82 44.434 C36.15 43.774 36.48 43.114 36.82 42.434 C35.17 42.104 33.52 41.774 31.82 41.434 C31.758 42.052 31.697 42.671 31.633 43.309 C30.82 45.434 30.82 45.434 28.628 46.554 C25.608 47.5 23.239 47.663 20.082 47.629 C18.482 47.619 18.482 47.619 16.85 47.609 C15.747 47.593 14.644 47.576 13.508 47.559 C12.386 47.55 11.264 47.541 10.107 47.531 C7.345 47.508 4.583 47.475 1.82 47.434 C1.82 45.784 1.82 44.134 1.82 42.434 C1.16 43.754 0.5 45.074 -0.18 46.434 C-0.84 46.434 -1.5 46.434 -2.18 46.434 C-1.699 47.415 -1.218 48.396 -0.723 49.406 C1.057 53.56 1.364 57.395 1.508 61.871 C1.542 62.603 1.576 63.334 1.611 64.088 C1.693 65.869 1.758 67.651 1.82 69.434 C5.79 69.458 9.759 69.476 13.728 69.489 C15.08 69.494 16.431 69.5 17.782 69.509 C19.721 69.521 21.659 69.526 23.598 69.531 C24.765 69.536 25.933 69.542 27.136 69.547 C29.739 69.74 29.739 69.74 30.82 68.434 C31.058 65.067 31.216 61.708 31.338 58.336 C31.52 54.566 31.683 52.64 33.82 49.434 C36.535 53.41 36.045 57.573 35.945 62.184 C35.936 62.976 35.927 63.769 35.918 64.586 C35.894 66.535 35.859 68.484 35.82 70.434 C36.48 70.434 37.14 70.434 37.82 70.434 C37.82 71.424 37.82 72.414 37.82 73.434 C44.75 74.424 51.68 75.414 58.82 76.434 C58.82 76.104 58.82 75.774 58.82 75.434 C65.914 76.018 72.836 77.066 79.82 78.434 C79.82 79.094 79.82 79.754 79.82 80.434 C81.14 80.434 82.46 80.434 83.82 80.434 C83.82 81.094 83.82 81.754 83.82 82.434 C73.491 84.065 63.56 83.926 53.26 82.357 C26.227 78.293 -2.518 78.634 -29.347 83.882 C-32.079 84.414 -34.814 84.886 -37.559 85.344 C-49.581 87.434 -60.789 91.113 -72.18 95.434 C-73.612 95.97 -75.044 96.507 -76.477 97.043 C-78.31 97.731 -78.31 97.731 -80.18 98.434 C-80.974 98.726 -81.768 99.019 -82.586 99.32 C-90.73 102.435 -98.426 106.47 -106.18 110.434 C-106.18 109.774 -106.18 109.114 -106.18 108.434 C-105.52 108.434 -104.86 108.434 -104.18 108.434 C-102.304 104.566 -102.304 104.566 -103.18 100.434 C-103.551 100.929 -103.922 101.424 -104.305 101.934 C-106.927 104.031 -108.918 103.651 -112.18 103.434 C-102.494 92.8 -81.903 87.638 -68.406 83.172 C-66.923 82.68 -65.443 82.18 -63.965 81.672 C-45.887 75.49 -27.086 72.797 -8.18 70.434 C-8.18 63.504 -8.18 56.574 -8.18 49.434 C-10.466 49.385 -12.753 49.336 -15.109 49.285 C-17.32 49.231 -19.531 49.174 -21.742 49.116 C-23.28 49.078 -24.818 49.043 -26.357 49.012 C-28.566 48.966 -30.775 48.908 -32.984 48.848 C-33.674 48.836 -34.364 48.825 -35.074 48.813 C-39.952 48.661 -39.952 48.661 -42.18 46.434 C-43.397 34.567 -42.094 23.485 -34.992 13.559 C-25.505 2.392 -14.081 -0.035 0 0 Z " fill="#D45540" transform="translate(496.1796875,249.56640625)" />
<path d="M0 0 C4.75 1.875 4.75 1.875 7 3 C7 3.66 7 4.32 7 5 C7.949 5.309 8.897 5.619 9.875 5.938 C13 7 13 7 15 8 C15 8.99 15 9.98 15 11 C15.66 11 16.32 11 17 11 C17.33 11.66 17.66 12.32 18 13 C18.99 13.33 19.98 13.66 21 14 C21 14.66 21 15.32 21 16 C21.66 16 22.32 16 23 16 C23.33 16.99 23.66 17.98 24 19 C26.015 19.733 26.015 19.733 28 20 C28 20.66 28 21.32 28 22 C28.66 22 29.32 22 30 22 C30 22.66 30 23.32 30 24 C32.915 24.81 34.461 25.218 37.312 24.062 C37.869 23.712 38.426 23.361 39 23 C39 22.34 39 21.68 39 21 C38.01 20.67 37.02 20.34 36 20 C36.66 19.34 37.32 18.68 38 18 C38.66 18.33 39.32 18.66 40 19 C40 19.66 40 20.32 40 21 C40.985 21.226 41.97 21.451 42.984 21.684 C47.589 22.999 51.281 25.445 55.25 28.062 C56.649 28.973 58.05 29.88 59.453 30.785 C60.063 31.186 60.673 31.587 61.302 32 C63.143 33.164 63.143 33.164 66 34 C66 34.66 66 35.32 66 36 C66.57 36.13 67.14 36.259 67.727 36.393 C70.039 37.01 72.154 37.809 74.367 38.719 C99.183 48.929 99.183 48.929 125 56 C126.54 56.345 128.079 56.693 129.617 57.043 C131.244 57.405 132.872 57.766 134.5 58.125 C135.211 58.284 135.922 58.443 136.655 58.607 C151.117 61.667 165.262 62.299 179.994 62.206 C183.023 62.187 186.052 62.185 189.082 62.186 C191.034 62.181 192.986 62.175 194.938 62.168 C196.277 62.166 196.277 62.166 197.643 62.165 C202.851 62.125 207.842 61.716 213 61 C214.999 60.939 217 60.913 219 60.938 C219.949 60.947 220.898 60.956 221.875 60.965 C222.576 60.976 223.278 60.988 224 61 C224.33 61.99 224.66 62.98 225 64 C223.02 64 221.04 64 219 64 C219 64.66 219 65.32 219 66 C220.32 66.33 221.64 66.66 223 67 C220.667 67.483 218.334 67.961 216 68.438 C215.352 68.572 214.703 68.707 214.035 68.846 C213.384 68.978 212.733 69.11 212.062 69.246 C211.476 69.367 210.889 69.487 210.285 69.611 C203.42 70.78 196.726 71.192 189.773 71.273 C188.314 71.292 188.314 71.292 186.824 71.312 C148.443 71.711 114.891 65.925 79 52 C78.728 52.722 78.456 53.444 78.176 54.188 C73.494 65.388 67.172 72.277 56 77 C50.001 78.982 43.074 78.304 36.812 78.35 C35.154 78.367 33.497 78.394 31.84 78.432 C13.9 78.844 13.9 78.844 7 73 C1.893 67.758 -0.423 62.373 -0.375 55.062 C-0.383 53.898 -0.39 52.734 -0.398 51.535 C0.36 44.807 3.974 38.915 7 32.938 C7.343 32.256 7.686 31.575 8.039 30.873 C9.561 27.85 11.087 24.83 12.625 21.816 C13.88 19.246 14.979 16.67 16 14 C15.264 13.408 14.528 12.817 13.77 12.207 C12.794 11.417 11.818 10.627 10.812 9.812 C9.85 9.035 8.887 8.258 7.895 7.457 C5.096 5.082 2.554 2.629 0 0 Z " fill="#D35843" transform="translate(328,770)" />
<path d="M0 0 C0.99 0.495 0.99 0.495 2 1 C-0.338 6.662 -0.338 6.662 -3.688 8.375 C-4.451 8.581 -5.214 8.788 -6 9 C-5.505 10.485 -5.505 10.485 -5 12 C-5.804 12.268 -6.609 12.536 -7.438 12.812 C-8.283 13.204 -9.129 13.596 -10 14 C-10.33 14.99 -10.66 15.98 -11 17 C-15.457 21 -15.457 21 -18 21 C-18 21.66 -18 22.32 -18 23 C-19.979 24.364 -21.982 25.694 -24 27 C-24.577 27.577 -25.155 28.155 -25.75 28.75 C-26.163 29.163 -26.575 29.575 -27 30 C-27.66 30 -28.32 30 -29 30 C-29 30.66 -29 31.32 -29 32 C-29.66 32 -30.32 32 -31 32 C-31 32.66 -31 33.32 -31 34 C-32.312 35.074 -33.677 36.084 -35.062 37.062 C-39.336 40.269 -42.304 43.705 -45.438 48 C-47 50 -47 50 -49.75 52.188 C-52.206 53.899 -52.206 53.899 -53.375 56.875 C-54.933 59.871 -55.703 60.724 -58.25 62.688 C-62.462 66.023 -64.84 70.205 -67.52 74.805 C-68.252 75.891 -68.252 75.891 -69 77 C-69.66 77 -70.32 77 -71 77 C-71.155 77.849 -71.155 77.849 -71.312 78.715 C-72.125 81.415 -73.38 83.261 -75 85.562 C-76.8 88.129 -78.002 90.005 -79 93 C-79.66 93 -80.32 93 -81 93 C-81.268 93.866 -81.536 94.733 -81.812 95.625 C-83.343 99.975 -85.436 103.917 -87.562 108 C-88.977 110.952 -90.033 113.876 -91 117 C-91.66 117 -92.32 117 -93 117 C-93.082 117.969 -93.165 118.939 -93.25 119.938 C-93.799 123.797 -95.193 126.937 -96.847 130.443 C-100.467 138.471 -102.946 146.844 -105.062 155.375 C-105.319 156.404 -105.576 157.434 -105.841 158.494 C-108.274 168.577 -109.769 178.711 -111 189 C-111.172 190.238 -111.344 191.476 -111.521 192.751 C-112.052 197.012 -112.178 201.221 -112.203 205.512 C-112.21 206.31 -112.217 207.108 -112.224 207.931 C-112.242 210.517 -112.248 213.102 -112.25 215.688 C-112.251 216.573 -112.252 217.458 -112.253 218.37 C-112.238 238.342 -111.986 258.992 -105.77 278.152 C-104.942 281.215 -104.864 283.842 -105 287 C-104.34 287 -103.68 287 -103 287 C-102.767 287.815 -102.767 287.815 -102.529 288.646 C-98.216 303.605 -93.012 317.303 -85.916 331.191 C-84.986 333.027 -84.076 334.871 -83.172 336.719 C-80.653 341.852 -78.151 346.93 -75.062 351.75 C-73 355 -73 355 -73 357 C-72.34 357 -71.68 357 -71 357 C-69.785 358.724 -68.652 360.506 -67.562 362.312 C-65.574 365.598 -63.711 368.305 -61 371 C-61 371.66 -61 372.32 -61 373 C-60.34 373 -59.68 373 -59 373 C-55 378.412 -55 378.412 -55 381 C-54.412 381.251 -53.824 381.503 -53.219 381.762 C-50.723 383.154 -49.335 384.632 -47.5 386.812 C-46.898 387.521 -46.296 388.23 -45.676 388.961 C-44.326 390.603 -43.002 392.267 -41.688 393.938 C-40.161 396.09 -40.161 396.09 -38 397 C-38 397.66 -38 398.32 -38 399 C-37.428 399.258 -36.855 399.516 -36.266 399.781 C-33.789 401.114 -31.866 402.651 -29.75 404.5 C-29.044 405.108 -28.337 405.717 -27.609 406.344 C-26 408 -26 408 -26 410 C-25.423 410.289 -24.845 410.577 -24.25 410.875 C-23.507 411.246 -22.765 411.618 -22 412 C-21.361 412.268 -20.721 412.536 -20.062 412.812 C-17.241 414.437 -15.303 416.697 -13 419 C-10.887 420.601 -8.745 422.147 -6.574 423.668 C-6.055 424.108 -5.535 424.547 -5 425 C-5 425.66 -5 426.32 -5 427 C-4.34 427.33 -3.68 427.66 -3 428 C-3 428.66 -3 429.32 -3 430 C-5.25 431.75 -5.25 431.75 -8 433 C-10.312 432.188 -10.312 432.188 -12 431 C-12 430.34 -12 429.68 -12 429 C-12.66 429 -13.32 429 -14 429 C-14 428.34 -14 427.68 -14 427 C-15.65 426.67 -17.3 426.34 -19 426 C-19 425.01 -19 424.02 -19 423 C-19.66 423 -20.32 423 -21 423 C-21 422.34 -21 421.68 -21 421 C-22.32 420.67 -23.64 420.34 -25 420 C-25 419.34 -25 418.68 -25 418 C-25.66 418 -26.32 418 -27 418 C-27 417.01 -27 416.02 -27 415 C-27.949 414.691 -28.897 414.381 -29.875 414.062 C-33 413 -33 413 -35 412 C-35 411.34 -35 410.68 -35 410 C-36.052 409.629 -36.052 409.629 -37.125 409.25 C-44.09 406.222 -48.247 401.706 -53 396 C-54.204 394.6 -55.412 393.204 -56.625 391.812 C-57.196 391.156 -57.767 390.5 -58.355 389.824 C-59.83 388.189 -61.35 386.65 -62.938 385.125 C-65 383 -65 383 -65 381 C-65.66 381 -66.32 381 -67 381 C-68.186 379.662 -68.186 379.662 -69.504 377.773 C-69.993 377.078 -70.482 376.383 -70.986 375.667 C-71.506 374.91 -72.026 374.154 -72.562 373.375 C-73.098 372.605 -73.634 371.834 -74.186 371.041 C-91.998 345.286 -106.445 317.56 -114 287 C-114.231 286.078 -114.461 285.156 -114.699 284.206 C-131.75 214.997 -121.936 145.557 -86 84 C-81.502 76.563 -76.596 69.523 -71.312 62.625 C-70.275 61.265 -70.275 61.265 -69.216 59.877 C-64.268 53.468 -59.075 47.416 -53.453 41.594 C-50.952 39.035 -50.952 39.035 -48.797 36.156 C-48.204 35.445 -47.611 34.733 -47 34 C-46.34 34 -45.68 34 -45 34 C-45 33.34 -45 32.68 -45 32 C-43.403 30.609 -41.746 29.285 -40.062 28 C-36.488 25.457 -36.488 25.457 -34 22 C-31.613 20.968 -29.216 20.072 -26.75 19.25 C-24.648 18.037 -24.648 18.037 -24.25 14.875 C-24.168 13.926 -24.085 12.978 -24 12 C-23.34 12 -22.68 12 -22 12 C-21.67 11.01 -21.34 10.02 -21 9 C-20.154 9.206 -19.309 9.413 -18.438 9.625 C-14.464 10.058 -11.754 9.276 -8 8 C-8 7.34 -8 6.68 -8 6 C-5.44 3.786 -2.817 1.878 0 0 Z " fill="#D25742" transform="translate(370,363)" />
<path d="M0 0 C11.081 6.457 16.293 13.942 20.312 26 C21.361 37.111 19.81 46.632 13.293 55.859 C6.535 63.86 -1.807 69.381 -12.422 70.336 C-24.406 70.606 -33.731 68.339 -42.688 60 C-50.622 51.478 -54.154 40.797 -54.027 29.297 C-52.916 18.518 -46.965 10.993 -39.375 3.812 C-38.488 3.214 -37.601 2.616 -36.688 2 C-35.765 1.333 -35.765 1.333 -34.824 0.652 C-24.724 -5.61 -10.48 -5.284 0 0 Z " fill="#FDFBFA" transform="translate(528.6875,550)" />
<path d="M0 0 C20.8 16.754 20.8 16.754 23.508 27.945 C22.174 32.393 19.442 33.926 15.57 36.07 C14.918 36.434 14.266 36.797 13.594 37.172 C12.134 37.975 10.672 38.773 9.207 39.566 C6.004 41.393 2.912 43.376 -0.18 45.383 C-1.381 46.16 -2.583 46.938 -3.785 47.715 C-4.386 48.104 -4.988 48.492 -5.607 48.893 C-8.56 50.8 -11.518 52.697 -14.492 54.57 C-15.514 55.22 -16.537 55.87 -17.59 56.539 C-20.293 57.996 -22.406 58.671 -25.43 59.07 C-25.43 59.73 -25.43 60.39 -25.43 61.07 C-26.42 61.07 -27.41 61.07 -28.43 61.07 C-28.43 61.73 -28.43 62.39 -28.43 63.07 C-27.44 63.07 -26.45 63.07 -25.43 63.07 C-26.42 65.05 -26.42 65.05 -27.43 67.07 C-28.413 66.967 -29.397 66.864 -30.41 66.758 C-35.413 66.758 -38.737 69.323 -42.742 72.07 C-44.153 73.011 -45.565 73.949 -46.98 74.883 C-47.596 75.302 -48.211 75.721 -48.845 76.152 C-50.43 77.07 -50.43 77.07 -52.43 77.07 C-52.76 79.05 -53.09 81.03 -53.43 83.07 C-55.41 82.74 -57.39 82.41 -59.43 82.07 C-59.43 82.73 -59.43 83.39 -59.43 84.07 C-60.377 84.439 -61.325 84.808 -62.301 85.188 C-67.334 87.349 -71.868 90.281 -76.492 93.195 C-77.416 93.772 -78.34 94.349 -79.292 94.943 C-85.707 98.958 -92.085 103.03 -98.422 107.168 C-99.911 108.11 -99.911 108.11 -101.43 109.07 C-102.01 109.444 -102.59 109.818 -103.188 110.203 C-106.67 112.343 -109.318 113.963 -113.43 113.07 C-122.118 104.611 -127.785 88.009 -128.43 76.07 C-128.526 74.357 -128.526 74.357 -128.625 72.609 C-129.147 54.895 -124.847 38.025 -113.43 24.07 C-112.77 24.07 -112.11 24.07 -111.43 24.07 C-111.162 23.479 -110.893 22.887 -110.617 22.277 C-101.581 5.483 -73.639 -5.93 -56.473 -11.133 C-37.266 -16.162 -15.898 -11.809 0 0 Z M-63.43 1.07 C-64.409 1.375 -65.389 1.679 -66.398 1.992 C-73.553 4.605 -79.803 8.658 -86.18 12.758 C-87.087 13.341 -87.994 13.924 -88.929 14.525 C-89.77 15.08 -90.61 15.635 -91.477 16.207 C-92.238 16.709 -93 17.212 -93.784 17.729 C-94.327 18.172 -94.87 18.614 -95.43 19.07 C-95.43 19.73 -95.43 20.39 -95.43 21.07 C-96.02 21.338 -96.61 21.607 -97.219 21.883 C-104.349 25.712 -108.905 33.009 -112.43 40.07 C-112.43 40.73 -112.43 41.39 -112.43 42.07 C-113.09 42.07 -113.75 42.07 -114.43 42.07 C-122.242 61.246 -120.26 78.808 -112.809 97.77 C-111.645 100.156 -111.645 100.156 -109.598 101.055 C-106.608 101.076 -104.797 100.045 -102.18 98.633 C-101.288 98.16 -100.396 97.687 -99.477 97.199 C-98.801 96.827 -98.126 96.454 -97.43 96.07 C-97.43 95.41 -97.43 94.75 -97.43 94.07 C-96.746 93.823 -96.063 93.575 -95.359 93.32 C-91.909 91.848 -88.754 90.013 -85.555 88.07 C-84.909 87.682 -84.264 87.293 -83.599 86.893 C-78.042 83.514 -72.628 79.936 -67.266 76.258 C-64.662 74.484 -62.437 73.073 -59.43 72.07 C-59.43 71.41 -59.43 70.75 -59.43 70.07 C-58.646 69.885 -57.862 69.699 -57.055 69.508 C-52.778 67.812 -49.488 65.44 -45.797 62.727 C-43.724 61.276 -41.722 60.127 -39.43 59.07 C-39.43 58.41 -39.43 57.75 -39.43 57.07 C-37.78 56.74 -36.13 56.41 -34.43 56.07 C-34.43 55.41 -34.43 54.75 -34.43 54.07 C-33.7 53.97 -32.97 53.869 -32.219 53.766 C-29.103 52.989 -27.368 51.857 -24.805 49.945 C-17.352 44.541 -9.66 39.654 -1.566 35.266 C1.313 33.655 4.078 31.884 6.844 30.086 C8.57 29.07 8.57 29.07 11.57 28.07 C11.57 26.75 11.57 25.43 11.57 24.07 C10.91 24.07 10.25 24.07 9.57 24.07 C9.23 23.018 9.23 23.018 8.883 21.945 C6.672 17.102 4.238 13.763 -0.742 11.695 C-2.072 11.386 -2.072 11.386 -3.43 11.07 C-3.43 10.41 -3.43 9.75 -3.43 9.07 C-5.607 7.473 -5.607 7.473 -8.305 5.945 C-9.662 5.137 -9.662 5.137 -11.047 4.312 C-13.277 2.916 -13.277 2.916 -15.43 3.07 C-15.43 2.41 -15.43 1.75 -15.43 1.07 C-32.229 -3.934 -46.67 -4.211 -63.43 1.07 Z " fill="#D35641" transform="translate(391.4296875,271.9296875)" />
<path d="M0 0 C3.163 1.581 3.899 4.805 5 8 C6.137 12.369 6.183 16.7 6.188 21.188 C6.2 21.911 6.212 22.635 6.225 23.381 C6.23 25.255 6.122 27.129 6 29 C4 31 4 31 0.835 31.227 C-0.508 31.227 -1.852 31.215 -3.195 31.195 C-3.903 31.192 -4.61 31.19 -5.339 31.187 C-7.601 31.176 -9.863 31.15 -12.125 31.125 C-13.658 31.115 -15.19 31.106 -16.723 31.098 C-20.482 31.077 -24.241 31.038 -28 31 C-28 38.59 -28 46.18 -28 54 C-25.731 54.103 -23.462 54.206 -21.125 54.312 C-7.001 55.124 6.502 57.774 20 62 C21.227 62.358 22.454 62.717 23.719 63.086 C40.889 68.154 58.039 74.804 73.52 83.828 C76.146 85.285 76.146 85.285 80 85 C81.575 83.255 81.575 83.255 82.75 81 C83.178 80.257 83.606 79.515 84.047 78.75 C84.361 78.173 84.676 77.595 85 77 C85.33 77.66 85.66 78.32 86 79 C85.333 80.333 84.667 81.667 84 83 C83.617 84.991 83.274 86.991 83 89 C85.539 87.844 85.539 87.844 88 86 C88.887 83.409 88.887 83.409 89 81 C90.32 81 91.64 81 93 81 C93 78.36 93 75.72 93 73 C93.99 73.33 94.98 73.66 96 74 C96.34 73.041 96.34 73.041 96.688 72.062 C98 70 98 70 100.625 69.25 C101.409 69.168 102.192 69.085 103 69 C103.33 69.99 103.66 70.98 104 72 C105.797 73.428 105.797 73.428 108.035 74.699 C108.844 75.186 109.653 75.672 110.486 76.174 C111.336 76.673 112.187 77.173 113.062 77.688 C113.917 78.199 114.771 78.71 115.65 79.236 C117.762 80.499 119.879 81.753 122 83 C119.323 87.949 116.631 92.756 113.312 97.312 C111.265 100.132 109.47 102.836 108 106 C103.116 105.643 100.487 104.155 96.734 101.266 C94.831 99.803 94.831 99.803 91.75 98.375 C89.267 97.133 87.786 96.083 86 94 C85.34 94.66 84.68 95.32 84 96 C84 96.99 84 97.98 84 99 C80.12 99 78.633 98.592 75.25 97 C74.051 96.443 74.051 96.443 72.828 95.875 C72.225 95.586 71.622 95.298 71 95 C71 94.34 71 93.68 71 93 C70.216 92.773 69.433 92.546 68.625 92.312 C65.77 91.279 63.255 90.179 60.562 88.812 C39.975 78.365 18.761 71.104 -4 67 C-4 66.34 -4 65.68 -4 65 C2.6 65 9.2 65 16 65 C16 64.34 16 63.68 16 63 C14.68 63 13.36 63 12 63 C12 62.34 12 61.68 12 61 C11.072 61.041 10.144 61.082 9.188 61.125 C4.852 61.152 0.773 60.254 -3.449 59.34 C-5.904 58.848 -5.904 58.848 -7.867 59.492 C-11.156 60.275 -14.108 59.646 -17.438 59.188 C-18.736 59.016 -20.034 58.845 -21.371 58.668 C-24.521 58.088 -27.101 57.324 -30 56 C-30 55.01 -30 54.02 -30 53 C-30.66 53 -31.32 53 -32 53 C-32.495 44.09 -32.495 44.09 -33 35 C-33.66 35 -34.32 35 -35 35 C-35.049 36.132 -35.098 37.264 -35.148 38.43 C-35.223 39.911 -35.299 41.393 -35.375 42.875 C-35.421 43.995 -35.421 43.995 -35.469 45.137 C-35.773 50.773 -35.773 50.773 -38 53 C-40.781 53.243 -40.781 53.243 -44.285 53.23 C-45.537 53.229 -46.79 53.227 -48.08 53.225 C-50.051 53.206 -50.051 53.206 -52.062 53.188 C-53.381 53.187 -54.699 53.186 -56.057 53.186 C-65.86 53.14 -65.86 53.14 -67 52 C-67.237 48.634 -67.396 45.274 -67.518 41.902 C-67.7 38.133 -67.862 36.206 -70 33 C-70 31.68 -70 30.36 -70 29 C-69.34 29 -68.68 29 -68 29 C-67.67 27.02 -67.34 25.04 -67 23 C-65.938 24.812 -65.938 24.812 -65 27 C-65.33 27.99 -65.66 28.98 -66 30 C-62.104 29.861 -58.208 29.712 -54.312 29.562 C-53.21 29.523 -52.107 29.484 -50.971 29.443 C-49.371 29.381 -49.371 29.381 -47.738 29.316 C-46.269 29.261 -46.269 29.261 -44.771 29.205 C-42.105 29.008 -39.605 28.584 -37 28 C-36.67 26.68 -36.34 25.36 -36 24 C-34.02 24 -32.04 24 -30 24 C-30.495 26.475 -30.495 26.475 -31 29 C-19.45 29 -7.9 29 4 29 C2.887 14.605 2.887 14.605 0 8 C-0.236 5.295 -0.092 2.724 0 0 Z " fill="#D35843" transform="translate(564,267)" />
<path d="M0 0 C1.768 -0.01 1.768 -0.01 3.571 -0.019 C5.491 -0.021 5.491 -0.021 7.45 -0.023 C8.763 -0.026 10.075 -0.029 11.427 -0.033 C14.211 -0.039 16.994 -0.041 19.777 -0.04 C23.33 -0.04 26.883 -0.054 30.436 -0.071 C33.837 -0.085 37.237 -0.084 40.638 -0.085 C42.543 -0.096 42.543 -0.096 44.486 -0.107 C55.362 -0.079 61.158 1.121 69.2 8.786 C74.296 14.311 75.32 20.752 75.376 28.145 C73.476 30.045 70.687 29.265 68.16 29.27 C67.265 29.266 66.371 29.262 65.45 29.259 C64.514 29.259 63.577 29.259 62.612 29.259 C59.501 29.259 56.39 29.251 53.279 29.243 C51.128 29.241 48.977 29.24 46.826 29.239 C41.152 29.235 35.479 29.225 29.806 29.214 C24.021 29.204 18.237 29.199 12.452 29.194 C1.094 29.183 -10.265 29.166 -21.624 29.145 C-21.645 27.375 -21.66 25.604 -21.672 23.834 C-21.681 22.848 -21.69 21.862 -21.7 20.846 C-21.53 14.792 -18.689 10.1 -14.358 6.001 C-9.388 2.065 -6.389 0.023 0 0 Z " fill="#F8876C" transform="translate(485.623779296875,259.854736328125)" />
<path d="M0 0 C2.864 1.441 3.515 3.295 4.901 6.156 C5.68 7.741 5.68 7.741 6.475 9.359 C7.005 10.473 7.535 11.586 8.081 12.734 C8.618 13.832 9.156 14.93 9.709 16.062 C17.264 31.586 17.264 31.586 15.393 40.734 C13.314 43.989 10.439 45.52 6.956 46.984 C4.183 47.525 1.498 47.57 -1.322 47.55 C-2.092 47.556 -2.862 47.563 -3.656 47.569 C-5.275 47.576 -6.895 47.573 -8.514 47.56 C-10.973 47.546 -13.428 47.581 -15.886 47.619 C-30.247 47.692 -30.247 47.692 -35.689 43.359 C-37.516 41.506 -39.021 39.723 -40.357 37.484 C-41.067 36.322 -41.067 36.322 -41.791 35.136 C-42.204 34.426 -42.618 33.716 -43.044 32.984 C-43.663 32.015 -44.282 31.045 -44.919 30.046 C-46.044 27.984 -46.044 27.984 -46.044 25.984 C-44.66 25.326 -44.66 25.326 -43.248 24.656 C-35.132 20.735 -27.279 16.488 -19.544 11.859 C-18.309 11.124 -18.309 11.124 -17.049 10.374 C-12.361 7.535 -8.042 4.531 -3.851 0.992 C-2.044 -0.016 -2.044 -0.016 0 0 Z " fill="#FCF9F8" transform="translate(671.04443359375,791.01611328125)" />
<path d="M0 0 C3.313 1.231 6.107 2.602 9 4.625 C17.767 10.58 26.766 15.975 36.125 20.938 C36.86 21.327 37.595 21.717 38.352 22.118 C41.205 23.613 43.939 24.98 47 26 C45.338 33.016 40.803 40.401 34.812 44.562 C30.022 47.011 25.706 47.182 20.383 47.238 C19.281 47.25 19.281 47.25 18.156 47.263 C16.605 47.277 15.053 47.287 13.501 47.295 C11.921 47.307 10.34 47.327 8.759 47.357 C6.467 47.399 4.176 47.416 1.883 47.426 C1.183 47.443 0.482 47.461 -0.239 47.479 C-5.294 47.457 -8.094 46.14 -12 43 C-14.966 39.54 -15.531 36.341 -15.473 31.815 C-14.429 25.598 -10.981 20.023 -8.062 14.5 C-7.395 13.201 -6.729 11.902 -6.064 10.602 C-1.265 1.265 -1.265 1.265 0 0 Z " fill="#FCFAF8" transform="translate(352,791)" />
<path d="M0 0 C0.66 0 1.32 0 2 0 C2.145 0.876 2.29 1.752 2.44 2.654 C3.146 6.915 3.854 11.176 4.562 15.438 C4.694 16.229 4.825 17.02 4.961 17.835 C6.577 27.559 8.213 37.278 9.887 46.992 C10.043 47.898 10.198 48.804 10.359 49.737 C11.115 54.134 11.875 58.53 12.639 62.926 C14.144 71.633 15.507 80.328 16.579 89.1 C16.921 92.058 16.921 92.058 18 95 C18.04 97.333 18.044 99.667 18 102 C16.845 101.67 15.69 101.34 14.5 101 C4.58 98.802 -6.266 99.219 -16 102 C-15.22 92.803 -13.772 83.733 -12.312 74.625 C-12.046 72.948 -11.779 71.271 -11.512 69.595 C-9.102 54.477 -6.595 39.375 -4.055 24.278 C-2.694 16.187 -1.347 8.093 0 0 Z " fill="#FBF7F4" transform="translate(511,438)" />
<path d="M0 0 C0.495 0.99 0.495 0.99 1 2 C1.66 2 2.32 2 3 2 C3 1.34 3 0.68 3 0 C3.66 0 4.32 0 5 0 C5.28 0.606 5.559 1.212 5.848 1.836 C8.627 7.645 11.807 12.797 15.645 17.969 C17 20 17 20 17 22 C20.3 22 23.6 22 27 22 C27.495 20.515 27.495 20.515 28 19 C29.65 18.67 31.3 18.34 33 18 C32.01 18.495 32.01 18.495 31 19 C31.495 20.98 31.495 20.98 32 23 C31.34 23 30.68 23 30 23 C29.67 24.32 29.34 25.64 29 27 C28.34 27 27.68 27 27 27 C27 27.66 27 28.32 27 29 C25.551 30.082 25.551 30.082 23.527 31.242 C22.424 31.882 22.424 31.882 21.299 32.535 C20.52 32.977 19.74 33.419 18.938 33.875 C18.185 34.309 17.433 34.744 16.658 35.191 C15.163 36.054 13.664 36.912 12.164 37.765 C10.753 38.57 9.348 39.385 7.95 40.212 C3.212 43 3.212 43 1 43 C1 42.34 1 41.68 1 41 C2.207 40.66 2.207 40.66 3.438 40.312 C4.283 39.879 5.129 39.446 6 39 C6.894 36.452 6.894 36.452 7 34 C6.01 34.33 5.02 34.66 4 35 C3.34 35 2.68 35 2 35 C1.67 35.99 1.34 36.98 1 38 C0.34 38 -0.32 38 -1 38 C-1 38.66 -1 39.32 -1 40 C-2.412 40.534 -3.83 41.052 -5.25 41.562 C-6.039 41.853 -6.828 42.143 -7.641 42.441 C-10.191 43.045 -11.553 42.847 -14 42 C-14.33 42.66 -14.66 43.32 -15 44 C-15.66 44 -16.32 44 -17 44 C-16.876 44.908 -16.752 45.815 -16.625 46.75 C-16.749 47.822 -16.873 48.895 -17 50 C-20 52.375 -20 52.375 -23 54 C-23.66 53.67 -24.32 53.34 -25 53 C-23.35 51.68 -21.7 50.36 -20 49 C-20.565 44.819 -21.962 42.166 -24.312 38.688 C-32 26.966 -32 26.966 -32 22 C-29.69 22.66 -27.38 23.32 -25 24 C-25.33 22.68 -25.66 21.36 -26 20 C-23.909 18.59 -21.812 17.19 -19.707 15.801 C-17.857 14.57 -16.021 13.316 -14.199 12.043 C-8.73 8.329 -5.588 6.439 1 7 C1.66 6.01 2.32 5.02 3 4 C2.01 4 1.02 4 0 4 C-0.33 3.01 -0.66 2.02 -1 1 C-0.67 0.67 -0.34 0.34 0 0 Z " fill="#D05743" transform="translate(363,331)" />
<path d="M0 0 C0.99 0.495 0.99 0.495 2 1 C-0.338 6.662 -0.338 6.662 -3.688 8.375 C-4.451 8.581 -5.214 8.788 -6 9 C-5.505 10.485 -5.505 10.485 -5 12 C-5.804 12.268 -6.609 12.536 -7.438 12.812 C-8.283 13.204 -9.129 13.596 -10 14 C-10.33 14.99 -10.66 15.98 -11 17 C-15.457 21 -15.457 21 -18 21 C-18 21.66 -18 22.32 -18 23 C-19.979 24.364 -21.982 25.694 -24 27 C-24.577 27.577 -25.155 28.155 -25.75 28.75 C-26.163 29.163 -26.575 29.575 -27 30 C-27.66 30 -28.32 30 -29 30 C-29 30.66 -29 31.32 -29 32 C-29.66 32 -30.32 32 -31 32 C-31 32.66 -31 33.32 -31 34 C-32.312 35.074 -33.677 36.084 -35.062 37.062 C-39.336 40.269 -42.304 43.705 -45.438 48 C-47 50 -47 50 -49.75 52.188 C-52.206 53.899 -52.206 53.899 -53.375 56.875 C-54.933 59.871 -55.703 60.724 -58.25 62.688 C-62.462 66.023 -64.84 70.205 -67.52 74.805 C-68.252 75.891 -68.252 75.891 -69 77 C-69.66 77 -70.32 77 -71 77 C-71.103 77.566 -71.206 78.132 -71.312 78.715 C-72.125 81.415 -73.38 83.261 -75 85.562 C-76.8 88.129 -78.002 90.005 -79 93 C-79.66 93 -80.32 93 -81 93 C-81.33 93.99 -81.66 94.98 -82 96 C-82.99 96 -83.98 96 -85 96 C-85.66 97.32 -86.32 98.64 -87 100 C-87.66 99.34 -88.32 98.68 -89 98 C-88.625 94.875 -88.625 94.875 -88 92 C-87.01 92 -86.02 92 -85 92 C-85.34 90.855 -85.34 90.855 -85.688 89.688 C-85.842 88.357 -85.842 88.357 -86 87 C-84.75 85.625 -84.75 85.625 -83 84 C-82.505 82.804 -82.01 81.608 -81.5 80.375 C-81.005 79.261 -80.51 78.147 -80 77 C-78.515 76.505 -78.515 76.505 -77 76 C-75.982 74.009 -74.984 72.008 -74 70 C-72 67.625 -72 67.625 -70 66 C-69.01 66 -68.02 66 -67 66 C-66.67 64.35 -66.34 62.7 -66 61 C-65.34 61 -64.68 61 -64 61 C-64 60.01 -64 59.02 -64 58 C-63.505 57.546 -63.01 57.092 -62.5 56.625 C-62.005 56.089 -61.51 55.553 -61 55 C-61.101 53.882 -61.101 53.882 -61.203 52.742 C-60.909 48.771 -58.986 47.315 -56.25 44.5 C-53.635 41.778 -51.11 39.142 -48.797 36.156 C-48.204 35.445 -47.611 34.733 -47 34 C-46.34 34 -45.68 34 -45 34 C-45 33.34 -45 32.68 -45 32 C-43.403 30.609 -41.746 29.285 -40.062 28 C-36.488 25.457 -36.488 25.457 -34 22 C-31.613 20.968 -29.216 20.072 -26.75 19.25 C-24.648 18.037 -24.648 18.037 -24.25 14.875 C-24.168 13.926 -24.085 12.978 -24 12 C-23.34 12 -22.68 12 -22 12 C-21.67 11.01 -21.34 10.02 -21 9 C-20.154 9.206 -19.309 9.413 -18.438 9.625 C-14.464 10.058 -11.754 9.276 -8 8 C-8 7.34 -8 6.68 -8 6 C-5.44 3.786 -2.817 1.878 0 0 Z " fill="#D6513B" transform="translate(370,363)" />
<path d="M0 0 C-0.875 7.75 -0.875 7.75 -2 10 C-2.99 10 -3.98 10 -5 10 C-5.33 11.98 -5.66 13.96 -6 16 C-6.99 15.67 -7.98 15.34 -9 15 C-8.691 16.392 -8.691 16.392 -8.375 17.812 C-8 21 -8 21 -10 24 C-10.66 24 -11.32 24 -12 24 C-12.264 24.583 -12.529 25.165 -12.801 25.766 C-14.048 28.089 -15.423 29.796 -17.188 31.75 C-19.992 34.873 -19.992 34.873 -22.734 38.051 C-26.153 42.088 -29.716 45.651 -33.75 49.07 C-37.411 52.21 -40.935 55.5 -44.484 58.766 C-47 61 -47 61 -51 64 C-50.34 67.63 -49.68 71.26 -49 75 C-51.475 75.495 -51.475 75.495 -54 76 C-54.99 73.03 -54.99 73.03 -56 70 C-59.3 70 -62.6 70 -66 70 C-66 70.66 -66 71.32 -66 72 C-70.385 75 -70.385 75 -73 75 C-73.33 74.01 -73.66 73.02 -74 72 C-72.515 71.505 -72.515 71.505 -71 71 C-70.651 69.671 -70.32 68.337 -70 67 C-68.512 65.113 -68.512 65.113 -66.688 63.312 C-66.093 62.711 -65.499 62.109 -64.887 61.488 C-62.891 59.914 -61.483 59.411 -59 59 C-59 58.34 -59 57.68 -59 57 C-57.02 56.505 -57.02 56.505 -55 56 C-55 55.34 -55 54.68 -55 54 C-53.02 53.505 -53.02 53.505 -51 53 C-51 52.34 -51 51.68 -51 51 C-50.34 51 -49.68 51 -49 51 C-49 50.34 -49 49.68 -49 49 C-47.391 47.344 -47.391 47.344 -45.25 45.5 C-44.554 44.892 -43.858 44.283 -43.141 43.656 C-41.155 42.12 -39.281 41.028 -37 40 C-37 39.34 -37 38.68 -37 38 C-36.34 38 -35.68 38 -35 38 C-34.625 37.13 -34.625 37.13 -34.242 36.242 C-32.836 33.704 -31.236 32.108 -29.125 30.125 C-26.63 27.711 -24.467 25.445 -22.625 22.5 C-22.089 21.675 -21.553 20.85 -21 20 C-20.34 20 -19.68 20 -19 20 C-18.67 18.68 -18.34 17.36 -18 16 C-17.34 16 -16.68 16 -16 16 C-15.773 15.443 -15.546 14.886 -15.312 14.312 C-13.633 11.353 -11.432 9.376 -9 7 C-8.092 5.926 -7.196 4.843 -6.312 3.75 C-3.159 0 -3.159 0 0 0 Z " fill="#D5533C" transform="translate(731,720)" />
<path d="M0 0 C1.527 1.75 1.527 1.75 2.938 4 C3.444 4.807 3.951 5.614 4.473 6.445 C4.977 7.288 5.481 8.131 6 9 C6.494 9.822 6.987 10.645 7.496 11.492 C11 17.547 11 17.547 11 21 C8.84 22.648 8.84 22.648 5.938 24.375 C2.514 26.45 -0.805 28.526 -4 30.938 C-7 33 -7 33 -10 33 C-11.227 31.579 -11.227 31.579 -12.41 29.605 C-12.843 28.897 -13.275 28.189 -13.721 27.459 C-14.385 26.335 -14.385 26.335 -15.062 25.188 C-15.949 23.723 -16.836 22.258 -17.723 20.793 C-18.112 20.138 -18.501 19.484 -18.903 18.809 C-19.891 17.179 -20.942 15.587 -22 14 C-22 12.68 -22 11.36 -22 10 C-20.411 8.52 -20.411 8.52 -18.203 7.168 C-17.409 6.68 -16.615 6.192 -15.797 5.689 C-14.956 5.194 -14.116 4.698 -13.25 4.188 C-12.425 3.673 -11.6 3.158 -10.75 2.627 C-3.809 -1.555 -3.809 -1.555 0 0 Z " fill="#FBF6F3" transform="translate(361,339)" />
<path d="M0 0 C3.212 0.638 5.554 1.78 8.328 3.504 C9.127 3.997 9.927 4.49 10.75 4.998 C11.987 5.772 11.987 5.772 13.25 6.562 C14.511 7.343 14.511 7.343 15.797 8.139 C17.868 9.421 19.935 10.708 22 12 C19.327 16.929 16.647 21.748 13.375 26.312 C12.805 27.113 12.235 27.914 11.648 28.738 C10.117 30.84 8.562 32.921 7 35 C6.495 34.642 5.991 34.283 5.471 33.914 C3.19 32.296 0.908 30.679 -1.375 29.062 C-2.169 28.499 -2.963 27.935 -3.781 27.354 C-4.542 26.815 -5.302 26.277 -6.086 25.723 C-6.788 25.225 -7.489 24.728 -8.212 24.215 C-9.986 22.952 -9.986 22.952 -12 22 C-11.434 17.415 -9.577 14.313 -7.125 10.438 C-6.426 9.322 -5.728 8.207 -5.008 7.059 C-3.413 4.629 -1.783 2.293 0 0 Z " fill="#FBF6F3" transform="translate(664,338)" />
<path d="M0 0 C9.24 0 18.48 0 28 0 C28 7.26 28 14.52 28 22 C18.76 22 9.52 22 0 22 C0 14.74 0 7.48 0 0 Z " fill="#FBF4F0" transform="translate(498,298)" />
<path d="M0 0 C0.99 0.33 1.98 0.66 3 1 C3.625 2.75 3.625 2.75 4 5 C4.186 5.908 4.371 6.815 4.562 7.75 C4.707 8.492 4.851 9.235 5 10 C5.66 9.34 6.32 8.68 7 8 C6.535 11.811 6.059 15.611 5.482 19.407 C3.514 32.964 3.598 46.545 3.468 60.22 C3.435 63.436 3.39 66.652 3.344 69.867 C3.338 70.857 3.333 71.846 3.328 72.865 C3.314 73.775 3.301 74.684 3.287 75.621 C3.28 76.421 3.273 77.221 3.265 78.045 C3 80 3 80 1 82 C0.54 84.203 0.54 84.203 0.375 86.625 C0.3 87.442 0.225 88.26 0.148 89.102 C0.099 89.728 0.05 90.355 0 91 C-0.66 90.67 -1.32 90.34 -2 90 C-2 88.02 -2 86.04 -2 84 C-2.66 84 -3.32 84 -4 84 C-4.911 77.821 -5.133 71.835 -5.098 65.594 C-5.096 64.628 -5.095 63.663 -5.093 62.669 C-5.088 59.612 -5.075 56.556 -5.062 53.5 C-5.057 51.417 -5.053 49.333 -5.049 47.25 C-5.038 42.167 -5.021 37.083 -5 32 C-4.34 32 -3.68 32 -3 32 C-2.97 31.079 -2.97 31.079 -2.94 30.139 C-2.843 27.301 -2.734 24.463 -2.625 21.625 C-2.594 20.659 -2.563 19.694 -2.531 18.699 C-2.273 12.292 -1.459 6.245 0 0 Z " fill="#D6553E" transform="translate(254,528)" />
<path d="M0 0 C3.163 1.581 3.899 4.805 5 8 C6.137 12.369 6.183 16.7 6.188 21.188 C6.2 21.911 6.212 22.635 6.225 23.381 C6.23 25.255 6.122 27.129 6 29 C4 31 4 31 0.835 31.227 C-0.508 31.227 -1.852 31.215 -3.195 31.195 C-3.903 31.192 -4.61 31.19 -5.339 31.187 C-7.601 31.176 -9.863 31.15 -12.125 31.125 C-13.658 31.115 -15.19 31.106 -16.723 31.098 C-20.482 31.077 -24.241 31.038 -28 31 C-28 38.59 -28 46.18 -28 54 C-25.731 54.103 -23.462 54.206 -21.125 54.312 C-7.01 55.123 6.516 57.753 20 62 C21.474 62.456 22.948 62.912 24.422 63.367 C28.286 64.564 32.144 65.778 36 67 C32.178 68.403 29.265 67.614 25.375 66.688 C24.228 66.423 23.08 66.159 21.898 65.887 C19 65 19 65 17 63 C13.267 61.999 9.435 61.453 5.625 60.812 C4.571 60.622 3.516 60.432 2.43 60.236 C1.414 60.062 0.398 59.887 -0.648 59.707 C-1.578 59.547 -2.508 59.387 -3.466 59.222 C-5.991 59.001 -7.591 59.326 -10 60 C-12.487 59.808 -14.967 59.528 -17.438 59.188 C-18.736 59.016 -20.034 58.845 -21.371 58.668 C-24.521 58.088 -27.101 57.324 -30 56 C-30 55.01 -30 54.02 -30 53 C-30.66 53 -31.32 53 -32 53 C-32.495 44.09 -32.495 44.09 -33 35 C-33.66 35 -34.32 35 -35 35 C-35.049 36.143 -35.098 37.287 -35.148 38.465 C-35.223 39.956 -35.299 41.447 -35.375 42.938 C-35.421 44.07 -35.421 44.07 -35.469 45.225 C-35.573 47.155 -35.779 49.079 -36 51 C-36.99 51.495 -36.99 51.495 -38 52 C-38 45.07 -38 38.14 -38 31 C-47.24 31 -56.48 31 -66 31 C-66 37.93 -66 44.86 -66 52 C-66.33 52 -66.66 52 -67 52 C-67.073 50.32 -67.073 50.32 -67.148 48.605 C-67.223 47.133 -67.299 45.66 -67.375 44.188 C-67.421 43.081 -67.421 43.081 -67.469 41.951 C-67.673 38.181 -67.864 36.203 -70 33 C-70 31.68 -70 30.36 -70 29 C-69.34 29 -68.68 29 -68 29 C-67.67 27.02 -67.34 25.04 -67 23 C-65.938 24.812 -65.938 24.812 -65 27 C-65.33 27.99 -65.66 28.98 -66 30 C-62.104 29.861 -58.208 29.712 -54.312 29.562 C-53.21 29.523 -52.107 29.484 -50.971 29.443 C-49.371 29.381 -49.371 29.381 -47.738 29.316 C-46.269 29.261 -46.269 29.261 -44.771 29.205 C-42.105 29.008 -39.605 28.584 -37 28 C-36.67 26.68 -36.34 25.36 -36 24 C-34.02 24 -32.04 24 -30 24 C-30.495 26.475 -30.495 26.475 -31 29 C-19.45 29 -7.9 29 4 29 C2.887 14.605 2.887 14.605 0 8 C-0.236 5.295 -0.092 2.724 0 0 Z " fill="#CA5D4F" transform="translate(564,267)" />
<path d="M0 0 C1.083 0.495 1.083 0.495 2.188 1 C5.017 2.006 7.029 2.17 10 2 C10.33 2.99 10.66 3.98 11 5 C10.67 5.66 10.34 6.32 10 7 C12.31 7.66 14.62 8.32 17 9 C17 9.66 17 10.32 17 11 C17.908 11.289 18.815 11.577 19.75 11.875 C23 13 23 13 24.81 14.044 C27.701 15.306 30.148 15.325 33.297 15.414 C34.502 15.453 35.707 15.491 36.949 15.531 C38.203 15.562 39.458 15.593 40.75 15.625 C42.02 15.664 43.289 15.702 44.598 15.742 C47.732 15.836 50.866 15.922 54 16 C54 15.01 54 14.02 54 13 C54.763 13.165 55.526 13.33 56.312 13.5 C59.036 14.091 59.036 14.091 62 14 C63.671 14.311 65.339 14.641 67 15 C55.991 24.122 45.029 26.215 31 25 C18.795 22.605 9.469 15.76 2 6 C0 3 0 3 0 0 Z " fill="#D8563F" transform="translate(473,605)" />
</svg>