<?xml version='1.0' encoding='utf-8'?>
<svg xmlns="http://www.w3.org/2000/svg" version="1.1" width="636" height="556" viewBox="193.84000000000003 236.0 636.746 556.139">
<path d="M0 0 C1.32 0 2.64 0 4 0 C4 0.66 4 1.32 4 2 C4.66 2 5.32 2 6 2 C7.289 3.426 7.289 3.426 8.625 5.312 C9.071 5.927 9.517 6.542 9.977 7.176 C11 9 11 9 11 12 C11.99 12.33 12.98 12.66 14 13 C14 13.66 14 14.32 14 15 C14.66 15 15.32 15 16 15 C16 15.66 16 16.32 16 17 C16.66 17 17.32 17 18 17 C18.268 17.701 18.536 18.402 18.812 19.125 C19.992 22.089 19.992 22.089 21.625 25.188 C23 28 23 28 23 30 C23.66 30 24.32 30 25 30 C28.561 34.525 30.81 39.725 33 45 C33.987 46.674 34.988 48.341 36 50 C36.957 51.881 37.911 53.764 38.84 55.66 C39.665 57.324 40.514 58.977 41.379 60.621 C44.709 67.029 47.422 73.491 49.879 80.267 C51.215 83.947 52.64 87.524 54.312 91.062 C55.533 93.702 56.047 95.357 56.438 98.312 C57.146 102.959 58.936 106.78 60.797 111.074 C62.291 114.707 63.168 118.162 64 122 C64.184 122.655 64.369 123.31 64.559 123.984 C65.91 128.794 66.178 133.004 66 138 C66.66 138 67.32 138 68 138 C69.389 147.326 70.719 156.659 72 166 C72.127 166.915 72.255 167.83 72.386 168.773 C74.586 185.109 74.388 201.556 74 218 C73.97 219.316 73.939 220.632 73.908 221.988 C72.937 255.144 66.793 289.395 54.562 320.312 C52.488 325.637 50.63 330.998 48.895 336.441 C48.087 338.751 47.151 340.845 46 343 C45.34 343 44.68 343 44 343 C43.867 343.626 43.734 344.253 43.598 344.898 C43.421 345.716 43.244 346.533 43.062 347.375 C42.888 348.187 42.714 348.999 42.535 349.836 C42 352 42 352 41 354 C40.34 354 39.68 354 39 354 C38.34 356.64 37.68 359.28 37 362 C36.34 362 35.68 362 35 362 C34.755 362.664 34.51 363.328 34.258 364.012 C32.687 367.744 30.802 371.254 28.875 374.812 C28.502 375.505 28.13 376.198 27.746 376.912 C26.833 378.609 25.917 380.305 25 382 C24.34 382 23.68 382 23 382 C22.773 382.825 22.546 383.65 22.312 384.5 C20.751 388.665 18.771 392.5 16 396 C15.34 396 14.68 396 14 396 C13.725 396.583 13.451 397.165 13.168 397.766 C9.946 403.929 5.095 409.148 0.418 414.238 C-1.211 416.053 -1.211 416.053 -2 419 C-2.66 419 -3.32 419 -4 419 C-4.66 420.65 -5.32 422.3 -6 424 C-6.66 424 -7.32 424 -8 424 C-8 424.66 -8 425.32 -8 426 C-8.66 426 -9.32 426 -10 426 C-10.227 426.557 -10.454 427.114 -10.688 427.688 C-12.37 430.652 -14.561 432.617 -17 435 C-18.546 436.865 -20.07 438.743 -21.57 440.645 C-23 442 -23 442 -26 442 C-26.206 442.536 -26.413 443.072 -26.625 443.625 C-28.533 446.92 -31.048 449.594 -34 452 C-34.66 452 -35.32 452 -36 452 C-36.218 452.563 -36.436 453.127 -36.66 453.707 C-38.44 456.752 -40.694 458.483 -43.438 460.688 C-44.406 461.475 -45.374 462.263 -46.371 463.074 C-49 465 -49 465 -52 466 C-52.33 466.99 -52.66 467.98 -53 469 C-54.578 469.926 -56.163 470.841 -57.777 471.703 C-60.474 473.277 -62.928 475.081 -65.438 476.938 C-69.162 479.685 -72.897 482.266 -76.855 484.66 C-79.544 486.34 -82.137 488.144 -84.75 489.938 C-99.777 500 -99.777 500 -106 500 C-106.33 500.99 -106.66 501.98 -107 503 C-107.99 503 -108.98 503 -110 503 C-110 503.66 -110 504.32 -110 505 C-110.944 505.255 -110.944 505.255 -111.906 505.516 C-116.888 506.926 -121.38 508.565 -125.961 510.965 C-133.102 514.59 -140.591 516.835 -148.312 518.875 C-151.224 519.763 -153.874 520.76 -156.668 521.938 C-162.42 524.278 -168.254 525.685 -174.312 527 C-176.052 527.381 -176.052 527.381 -177.827 527.77 C-195.361 531.483 -213.598 534.546 -231.557 534.944 C-233.414 534.987 -235.27 535.045 -237.126 535.11 C-268.467 536.139 -299.863 532.858 -330 524 C-331.518 523.574 -333.036 523.151 -334.555 522.73 C-337.712 521.85 -340.86 520.94 -344 520 C-344 519.34 -344 518.68 -344 518 C-345.052 517.938 -346.104 517.876 -347.188 517.812 C-353.49 517.023 -359.169 514.402 -365 512 C-366.543 511.391 -366.543 511.391 -368.117 510.77 C-375.038 507.992 -381.531 504.705 -388 501 C-388 500.34 -388 499.68 -388 499 C-388.822 498.919 -389.645 498.838 -390.492 498.754 C-394.841 497.819 -398.244 496.057 -402.125 493.938 C-402.871 493.536 -403.618 493.134 -404.386 492.719 C-414.105 487.407 -424.747 481.413 -432.523 473.438 C-434.117 471.759 -434.117 471.759 -437.062 470.312 C-443.182 466.921 -449.304 462.474 -453.562 456.875 C-455.8 454.236 -457.372 453.023 -460.25 451.25 C-464.933 448.292 -468.28 444.661 -471.859 440.465 C-473.979 437.964 -473.979 437.964 -476.367 435.648 C-479.536 432.461 -482.45 429.099 -485.375 425.688 C-486.526 424.35 -487.677 423.013 -488.828 421.676 C-489.375 421.04 -489.923 420.404 -490.486 419.749 C-492.343 417.604 -494.233 415.489 -496.125 413.375 C-498.452 410.724 -500.215 408.05 -502 405 C-503.829 402.638 -505.692 400.308 -507.574 397.988 C-509 396 -509 396 -509 394 C-509.66 394 -510.32 394 -511 394 C-514 388.25 -514 388.25 -514 386 C-514.66 386 -515.32 386 -516 386 C-516.495 384.02 -516.495 384.02 -517 382 C-517.66 382 -518.32 382 -519 382 C-521.606 378.261 -523.212 374.172 -525 370 C-525.557 369.092 -526.114 368.185 -526.688 367.25 C-528 365 -528 365 -528 362 C-528.66 362 -529.32 362 -530 362 C-533.348 356.755 -534.945 352.121 -536 346 C-536.66 346 -537.32 346 -538 346 C-538.289 345.113 -538.577 344.226 -538.875 343.312 C-539.914 340.077 -539.914 340.077 -541.188 337.375 C-542.16 334.533 -542.229 333.73 -541 331 C-538.864 329.407 -536.853 328.073 -534.562 326.75 C-533.664 326.205 -533.664 326.205 -532.748 325.648 C-528.302 323 -528.302 323 -526 323 C-525.897 322.381 -525.794 321.763 -525.688 321.125 C-525 319 -525 319 -522 317 C-519.957 316.805 -519.957 316.805 -517.812 316.875 C-516.554 316.916 -515.296 316.957 -514 317 C-514 316.01 -514 315.02 -514 314 C-512 312.625 -512 312.625 -509 311 C-507.621 310.131 -506.246 309.256 -504.875 308.375 C-502.512 306.858 -500.696 305.899 -498 305 C-497.67 304.01 -497.34 303.02 -497 302 C-495.132 301.281 -493.26 300.573 -491.367 299.924 C-486.979 298.211 -483.065 295.647 -479.062 293.188 C-477.799 292.425 -477.799 292.425 -476.51 291.646 C-471.6 288.665 -466.791 285.567 -462.048 282.327 C-453.825 277 -453.825 277 -450 277 C-450 276.34 -450 275.68 -450 275 C-448.511 274.182 -448.511 274.182 -446.992 273.348 C-438.854 268.843 -430.936 264.128 -423.148 259.043 C-419.774 256.854 -416.35 254.777 -412.891 252.727 C-408.908 250.348 -404.956 247.922 -401 245.5 C-399.438 244.545 -397.875 243.591 -396.312 242.637 C-393.767 241.082 -391.226 239.523 -388.688 237.957 C-387.357 237.143 -387.357 237.143 -386 236.312 C-385.257 235.855 -384.515 235.397 -383.75 234.926 C-382 234 -382 234 -380 234 C-380 233.34 -380 232.68 -380 232 C-379.199 231.563 -379.199 231.563 -378.383 231.117 C-372.502 227.881 -366.742 224.475 -361 221 C-358.439 219.456 -355.876 217.915 -353.312 216.375 C-352.386 215.817 -352.386 215.817 -351.441 215.247 C-348.369 213.4 -345.283 211.598 -342.148 209.859 C-339.116 208.068 -337.962 206.802 -336 204 C-334.188 202.938 -334.188 202.938 -332 202 C-328.816 200.7 -328.816 200.7 -326 199 C-325.835 198.34 -325.67 197.68 -325.5 197 C-325 195 -325 195 -322.188 193.25 C-319 192 -319 192 -315 192 C-315 191.34 -315 190.68 -315 190 C-313.742 189.649 -312.484 189.299 -311.188 188.938 C-305.26 186.968 -299.908 183.856 -295 180 C-294.67 179.01 -294.34 178.02 -294 177 C-292.039 176.086 -292.039 176.086 -289.625 175.375 C-288.834 175.135 -288.042 174.895 -287.227 174.648 C-286.124 174.327 -286.124 174.327 -285 174 C-284.01 173.67 -283.02 173.34 -282 173 C-282 172.01 -282 171.02 -282 170 C-281.408 169.902 -280.817 169.804 -280.207 169.703 C-275.066 168.73 -271.959 167.599 -268 164 C-267.34 164 -266.68 164 -266 164 C-266 163.34 -266 162.68 -266 162 C-265.34 162 -264.68 162 -264 162 C-263.67 161.01 -263.34 160.02 -263 159 C-259.738 157.336 -256.39 155.991 -253.004 154.598 C-249.935 152.965 -249.055 152.234 -248 149 C-247.34 149 -246.68 149 -246 149 C-246 148.34 -246 147.68 -246 147 C-244.608 146.969 -244.608 146.969 -243.188 146.938 C-238.171 146.28 -234.442 143.297 -230.355 140.496 C-228 139 -228 139 -226 139 C-225.67 138.01 -225.34 137.02 -225 136 C-222.566 135.156 -222.566 135.156 -219.562 134.5 C-214.924 133.621 -214.924 133.621 -212 130 C-211.34 130 -210.68 130 -210 130 C-210 129.34 -210 128.68 -210 128 C-204.25 125 -204.25 125 -202 125 C-202 124.34 -202 123.68 -202 123 C-201.357 122.66 -200.714 122.319 -200.051 121.969 C-193.222 118.306 -186.609 114.372 -180.036 110.269 C-175.864 107.669 -171.681 105.087 -167.5 102.5 C-160.373 98.091 -160.373 98.091 -153.254 93.668 C-147.384 90.025 -141.454 86.533 -135.438 83.137 C-130.216 80.168 -125.132 76.998 -120.052 73.795 C-115.378 70.852 -110.675 67.964 -105.938 65.125 C-105.343 64.768 -104.748 64.411 -104.135 64.043 C-102.427 63.023 -100.714 62.011 -99 61 C-98.367 60.622 -97.734 60.244 -97.083 59.854 C-92.229 57 -92.229 57 -90 57 C-90 56.34 -90 55.68 -90 55 C-89.421 54.673 -88.843 54.346 -88.247 54.01 C-74.019 46.009 -74.019 46.009 -60.156 37.402 C-58 36 -58 36 -55.344 34.566 C-52.878 33.198 -52.878 33.198 -51.93 30.855 C-51.623 30.243 -51.316 29.631 -51 29 C-48.901 28.628 -46.801 28.257 -44.699 27.898 C-41.16 26.72 -38.839 24.769 -35.938 22.438 C-31.095 18.568 -28.192 16.881 -22 17 C-22 14.69 -22 12.38 -22 10 C-19.36 9.67 -16.72 9.34 -14 9 C-13.856 8.361 -13.711 7.721 -13.562 7.062 C-13 5 -13 5 -12 4 C-10.547 3.792 -9.087 3.632 -7.625 3.5 C-4.827 3.245 -2.692 2.897 0 2 C0 1.34 0 0.68 0 0 Z " fill="#F9EEC7" transform="translate(746,246)" />
<path d="M0 0 C1.32 0 2.64 0 4 0 C4 0.66 4 1.32 4 2 C4.66 2 5.32 2 6 2 C7.289 3.426 7.289 3.426 8.625 5.312 C9.071 5.927 9.517 6.542 9.977 7.176 C11 9 11 9 11 12 C11.99 12.33 12.98 12.66 14 13 C14 13.66 14 14.32 14 15 C14.66 15 15.32 15 16 15 C16 15.66 16 16.32 16 17 C16.66 17 17.32 17 18 17 C18.268 17.701 18.536 18.402 18.812 19.125 C19.992 22.089 19.992 22.089 21.625 25.188 C23 28 23 28 23 30 C23.66 30 24.32 30 25 30 C28.561 34.525 30.81 39.725 33 45 C33.987 46.674 34.988 48.341 36 50 C36.957 51.881 37.911 53.764 38.84 55.66 C39.665 57.324 40.514 58.977 41.379 60.621 C44.709 67.029 47.422 73.491 49.879 80.267 C51.215 83.947 52.64 87.524 54.312 91.062 C55.533 93.702 56.047 95.357 56.438 98.312 C57.146 102.959 58.936 106.78 60.797 111.074 C62.291 114.707 63.168 118.162 64 122 C64.184 122.655 64.369 123.31 64.559 123.984 C65.91 128.794 66.178 133.004 66 138 C66.66 138 67.32 138 68 138 C69.389 147.326 70.719 156.659 72 166 C72.127 166.915 72.255 167.83 72.386 168.773 C74.586 185.109 74.388 201.556 74 218 C73.97 219.316 73.939 220.632 73.908 221.988 C72.937 255.144 66.793 289.395 54.562 320.312 C52.488 325.637 50.63 330.998 48.895 336.441 C48.087 338.751 47.151 340.845 46 343 C45.34 343 44.68 343 44 343 C43.867 343.626 43.734 344.253 43.598 344.898 C43.421 345.716 43.244 346.533 43.062 347.375 C42.888 348.187 42.714 348.999 42.535 349.836 C42 352 42 352 41 354 C40.34 354 39.68 354 39 354 C38.34 356.64 37.68 359.28 37 362 C36.34 362 35.68 362 35 362 C34.755 362.664 34.51 363.328 34.258 364.012 C32.687 367.744 30.802 371.254 28.875 374.812 C28.502 375.505 28.13 376.198 27.746 376.912 C26.833 378.609 25.917 380.305 25 382 C24.34 382 23.68 382 23 382 C22.773 382.825 22.546 383.65 22.312 384.5 C20.751 388.665 18.771 392.5 16 396 C15.34 396 14.68 396 14 396 C13.725 396.583 13.451 397.165 13.168 397.766 C9.946 403.929 5.095 409.148 0.418 414.238 C-1.211 416.053 -1.211 416.053 -2 419 C-2.66 419 -3.32 419 -4 419 C-4.66 420.65 -5.32 422.3 -6 424 C-6.66 424 -7.32 424 -8 424 C-8 424.66 -8 425.32 -8 426 C-8.66 426 -9.32 426 -10 426 C-10.227 426.557 -10.454 427.114 -10.688 427.688 C-12.37 430.652 -14.561 432.617 -17 435 C-18.546 436.865 -20.07 438.743 -21.57 440.645 C-23 442 -23 442 -26 442 C-26.206 442.536 -26.413 443.072 -26.625 443.625 C-28.533 446.92 -31.048 449.594 -34 452 C-34.66 452 -35.32 452 -36 452 C-36.218 452.563 -36.436 453.127 -36.66 453.707 C-38.44 456.752 -40.694 458.483 -43.438 460.688 C-44.406 461.475 -45.374 462.263 -46.371 463.074 C-49 465 -49 465 -52 466 C-52.33 466.99 -52.66 467.98 -53 469 C-54.578 469.926 -56.163 470.841 -57.777 471.703 C-60.474 473.277 -62.928 475.081 -65.438 476.938 C-69.162 479.685 -72.897 482.266 -76.855 484.66 C-79.544 486.34 -82.137 488.144 -84.75 489.938 C-99.777 500 -99.777 500 -106 500 C-106.33 500.99 -106.66 501.98 -107 503 C-107.99 503 -108.98 503 -110 503 C-110 503.66 -110 504.32 -110 505 C-110.944 505.255 -110.944 505.255 -111.906 505.516 C-116.888 506.926 -121.38 508.565 -125.961 510.965 C-133.102 514.59 -140.591 516.835 -148.312 518.875 C-151.224 519.763 -153.874 520.76 -156.668 521.938 C-162.42 524.278 -168.254 525.685 -174.312 527 C-176.052 527.381 -176.052 527.381 -177.827 527.77 C-195.361 531.483 -213.598 534.546 -231.557 534.944 C-233.414 534.987 -235.27 535.045 -237.126 535.11 C-268.467 536.139 -299.863 532.858 -330 524 C-331.518 523.574 -333.036 523.151 -334.555 522.73 C-337.712 521.85 -340.86 520.94 -344 520 C-344 519.34 -344 518.68 -344 518 C-345.052 517.938 -346.104 517.876 -347.188 517.812 C-353.49 517.023 -359.169 514.402 -365 512 C-366.543 511.391 -366.543 511.391 -368.117 510.77 C-375.038 507.992 -381.531 504.705 -388 501 C-388 500.34 -388 499.68 -388 499 C-388.822 498.919 -389.645 498.838 -390.492 498.754 C-394.841 497.819 -398.244 496.057 -402.125 493.938 C-402.871 493.536 -403.618 493.134 -404.386 492.719 C-414.105 487.407 -424.747 481.413 -432.523 473.438 C-434.117 471.759 -434.117 471.759 -437.062 470.312 C-443.182 466.921 -449.304 462.474 -453.562 456.875 C-455.8 454.236 -457.372 453.023 -460.25 451.25 C-464.933 448.292 -468.28 444.661 -471.859 440.465 C-473.979 437.964 -473.979 437.964 -476.367 435.648 C-479.536 432.461 -482.45 429.099 -485.375 425.688 C-486.526 424.35 -487.677 423.013 -488.828 421.676 C-489.375 421.04 -489.923 420.404 -490.486 419.749 C-492.343 417.604 -494.233 415.489 -496.125 413.375 C-498.452 410.724 -500.215 408.05 -502 405 C-503.829 402.638 -505.692 400.308 -507.574 397.988 C-509 396 -509 396 -509 394 C-509.66 394 -510.32 394 -511 394 C-514 388.25 -514 388.25 -514 386 C-514.66 386 -515.32 386 -516 386 C-516.495 384.02 -516.495 384.02 -517 382 C-517.66 382 -518.32 382 -519 382 C-521.606 378.261 -523.212 374.172 -525 370 C-525.557 369.092 -526.114 368.185 -526.688 367.25 C-528 365 -528 365 -528 362 C-528.66 362 -529.32 362 -530 362 C-533.348 356.755 -534.945 352.121 -536 346 C-536.66 346 -537.32 346 -538 346 C-538.289 345.113 -538.577 344.226 -538.875 343.312 C-539.914 340.077 -539.914 340.077 -541.188 337.375 C-542.158 334.539 -542.221 333.725 -541 331 C-538.906 329.452 -536.933 328.157 -534.688 326.875 C-534.105 326.528 -533.523 326.181 -532.924 325.824 C-531.295 324.861 -529.648 323.93 -528 323 C-527.285 322.59 -526.569 322.18 -525.832 321.758 C-524 321 -524 321 -520 321 C-520 320.34 -520 319.68 -520 319 C-518.68 319.33 -517.36 319.66 -516 320 C-515.01 323.96 -514.02 327.92 -513 332 C-512.34 332 -511.68 332 -511 332 C-510.758 332.629 -510.515 333.258 -510.266 333.906 C-508.585 338.199 -506.861 342.399 -504.75 346.5 C-503 350 -503 350 -503 352 C-502.34 352 -501.68 352 -501 352 C-500.408 353.074 -499.817 354.148 -499.207 355.254 C-498.409 356.69 -497.611 358.126 -496.812 359.562 C-496.425 360.267 -496.038 360.971 -495.639 361.697 C-493.663 365.24 -491.626 368.587 -489.199 371.84 C-487 375 -487 375 -487 378 C-486.34 378 -485.68 378 -485 378 C-483.711 379.68 -483.711 379.68 -482.375 381.875 C-481.929 382.594 -481.483 383.314 -481.023 384.055 C-480 386 -480 386 -480 388 C-479.01 388.33 -478.02 388.66 -477 389 C-475.746 390.426 -475.746 390.426 -474.438 392.312 C-471.69 396.116 -468.804 399.763 -465.812 403.375 C-464.973 404.393 -464.134 405.412 -463.27 406.461 C-461.072 409.133 -461.072 409.133 -458 411 C-457.546 411.784 -457.092 412.567 -456.625 413.375 C-454.781 416.353 -452.747 417.856 -450 420 C-449.319 420.866 -448.639 421.733 -447.938 422.625 C-446.229 425.058 -446.229 425.058 -444.039 425.957 C-441.28 427.368 -439.822 429.598 -437.875 431.949 C-430.518 439.996 -419.81 448.095 -410 453 C-410 453.66 -410 454.32 -410 455 C-409.305 455.251 -408.61 455.503 -407.895 455.762 C-404.603 457.17 -401.721 458.912 -398.688 460.812 C-397.83 461.345 -397.83 461.345 -396.955 461.889 C-394.484 463.427 -392.027 464.982 -389.586 466.566 C-385.809 469.009 -382.39 470.793 -378 472 C-378 472.66 -378 473.32 -378 474 C-377.417 474.126 -376.835 474.253 -376.234 474.383 C-374.026 474.993 -372.267 475.8 -370.25 476.875 C-366.976 478.554 -363.709 479.913 -360.25 481.156 C-357.547 482.17 -354.905 483.304 -352.25 484.438 C-347.169 486.571 -342.049 488.405 -336.805 490.094 C-335.073 490.653 -333.347 491.233 -331.633 491.844 C-325.853 493.901 -320.053 495.038 -314 496 C-314 496.66 -314 497.32 -314 498 C-312.701 498.103 -311.401 498.206 -310.062 498.312 C-306.093 498.702 -302.207 499.301 -298.289 500.042 C-261.276 507.001 -218.276 507.854 -182 497 C-180.877 496.692 -179.754 496.384 -178.598 496.066 C-165.128 492.348 -151.687 488.313 -138.762 482.98 C-135.847 481.946 -133.059 481.42 -130 481 C-130 480.34 -130 479.68 -130 479 C-127.36 478.34 -124.72 477.68 -122 477 C-122 476.34 -122 475.68 -122 475 C-121.313 474.746 -120.626 474.492 -119.918 474.23 C-119.017 473.886 -118.116 473.542 -117.188 473.188 C-116.294 472.851 -115.401 472.515 -114.48 472.168 C-112.001 471 -110.899 469.908 -109 468 C-107.031 466.901 -105.027 465.864 -103 464.875 C-101.948 464.357 -100.896 463.839 -99.812 463.305 C-97 462 -97 462 -94 461 C-94 460.34 -94 459.68 -94 459 C-90.062 456.683 -86.308 454.566 -82 453 C-82 452.34 -82 451.68 -82 451 C-79.737 449.363 -77.487 447.854 -75.125 446.375 C-74.474 445.955 -73.823 445.535 -73.152 445.102 C-68.268 442 -68.268 442 -66 442 C-66 441.34 -66 440.68 -66 440 C-65.237 439.567 -64.474 439.134 -63.688 438.688 C-60.869 437.205 -60.869 437.205 -59.562 434.562 C-57.213 430.71 -53.821 428.809 -49.75 427 C-47.827 426.116 -47.827 426.116 -47 424 C-45.736 421.472 -44.472 421.236 -42 420 C-41.317 418.675 -40.649 417.342 -40 416 C-39.01 415.67 -38.02 415.34 -37 415 C-37 414.34 -37 413.68 -37 413 C-36.34 413 -35.68 413 -35 413 C-34.742 412.438 -34.484 411.876 -34.219 411.297 C-32.858 408.733 -31.272 406.548 -29.5 404.25 C-28.892 403.451 -28.283 402.652 -27.656 401.828 C-27.11 401.225 -26.563 400.622 -26 400 C-25.34 400 -24.68 400 -24 400 C-23.794 399.299 -23.587 398.598 -23.375 397.875 C-21.821 394.625 -19.98 392.818 -17.34 390.43 C-15.743 388.925 -15.743 388.925 -15 386 C-14.34 386 -13.68 386 -13 386 C-12.732 385.443 -12.464 384.886 -12.188 384.312 C-10.071 380.19 -7.588 376.319 -5.062 372.438 C-4.579 371.694 -4.096 370.95 -3.598 370.184 C-2 368 -2 368 0 366.125 C2.478 363.492 3.627 360.873 5.062 357.562 C8.582 349.506 8.582 349.506 11 346 C11.66 346 12.32 346 13 346 C13.082 345.175 13.165 344.35 13.25 343.5 C13.98 340.096 15.191 337.492 16.812 334.434 C19.244 329.45 21.068 324.194 23 319 C23.66 319 24.32 319 25 319 C25.66 315.37 26.32 311.74 27 308 C27.66 308 28.32 308 29 308 C29.121 307.264 29.242 306.528 29.367 305.77 C29.535 304.794 29.702 303.818 29.875 302.812 C30.037 301.85 30.2 300.887 30.367 299.895 C30.982 297.084 31.904 294.652 33 292 C33.376 290.008 33.72 288.008 34 286 C34.66 286 35.32 286 36 286 C36.133 284.897 36.266 283.793 36.402 282.656 C37.036 277.591 37.796 272.547 38.562 267.5 C38.77 266.123 38.77 266.123 38.982 264.719 C39.321 262.479 39.66 260.239 40 258 C40.66 258 41.32 258 42 258 C42.049 257.123 42.098 256.247 42.148 255.344 C42.223 254.075 42.298 252.807 42.375 251.5 C42.417 250.787 42.459 250.074 42.502 249.34 C42.763 245.123 43.092 240.923 43.512 236.719 C46.271 208.656 45.339 181.794 41 154 C40.792 152.67 40.792 152.67 40.581 151.312 C39.182 142.656 37.124 134.186 34.867 125.719 C33.952 121.794 33.434 118.002 33 114 C32.34 114 31.68 114 31 114 C30.685 112.793 30.371 111.587 30.047 110.344 C29.615 108.729 29.183 107.114 28.75 105.5 C28.545 104.709 28.34 103.917 28.129 103.102 C26.842 98.345 25.219 94.121 22.919 89.764 C21.765 87.55 20.874 85.275 20 82.938 C18.829 79.929 17.596 77.144 15.938 74.375 C14.217 71.379 13.066 68.506 11.926 65.258 C10.358 61.434 8.257 57.902 6.207 54.32 C5 52 5 52 5 50 C4.103 49.691 4.103 49.691 3.188 49.375 C0.145 47.463 -0.662 45.279 -2 42 C-2 41.01 -2 40.02 -2 39 C-2.66 39 -3.32 39 -4 39 C-4.598 37.948 -5.196 36.896 -5.812 35.812 C-6.177 35.177 -6.542 34.541 -6.918 33.887 C-7.826 32.303 -8.727 30.714 -9.625 29.125 C-10.825 26.876 -10.825 26.876 -13 26 C-14.008 24.245 -15.012 22.488 -15.98 20.711 C-16.976 18.88 -16.976 18.88 -18.75 17.25 C-19.369 16.631 -19.369 16.631 -20 16 C-20 15.01 -20 14.02 -20 13 C-19.34 13 -18.68 13 -18 13 C-18 12.34 -18 11.68 -18 11 C-15.36 10.34 -12.72 9.68 -10 9 C-10 8.34 -10 7.68 -10 7 C-8.32 5.711 -8.32 5.711 -6.125 4.375 C-5.406 3.929 -4.686 3.483 -3.945 3.023 C-2 2 -2 2 0 2 C0 1.34 0 0.68 0 0 Z " fill="#F6D32D" transform="translate(746,246)" />
<path d="M0 0 C1.312 0.278 2.624 0.555 3.936 0.833 C11.903 2.526 19.834 4.348 27.746 6.283 C36.442 8.39 45.189 10.251 53.938 12.125 C66.251 14.764 78.542 17.48 90.812 20.312 C102.792 23.077 114.791 25.735 126.812 28.312 C139.288 30.99 151.746 33.73 164.188 36.562 C164.898 36.723 165.609 36.884 166.341 37.05 C173.774 38.734 181.187 40.485 188.566 42.391 C189.766 42.699 190.966 43.007 192.201 43.325 C199.478 45.634 202.233 49.782 205.688 56.375 C214.12 73.894 207.87 94.205 201.965 111.587 C195.135 130.701 182.885 160.026 163.812 169.562 C154.436 172.375 146.356 172.434 137.637 167.895 C134.813 165.973 132.677 163.783 130.312 161.312 C129.079 160.063 127.843 158.816 126.605 157.57 C125.936 156.896 125.266 156.222 124.576 155.527 C123.891 154.838 123.206 154.148 122.5 153.438 C121.826 152.756 121.153 152.074 120.459 151.371 C116.438 147.331 112.318 143.49 107.97 139.802 C105.801 137.853 104.132 135.587 102.312 133.312 C100.557 131.696 98.744 130.156 96.93 128.605 C93.428 125.537 90.027 122.366 86.625 119.188 C85.983 118.589 85.342 117.991 84.68 117.375 C81.159 114.082 77.702 110.742 74.312 107.312 C71.17 104.143 68.023 100.977 64.875 97.812 C63.625 96.55 63.625 96.55 62.35 95.262 C57.216 90.101 57.216 90.101 51.715 85.344 C50.922 84.673 50.129 84.003 49.312 83.312 C49.312 82.653 49.312 81.993 49.312 81.312 C48.776 81.086 48.24 80.859 47.688 80.625 C42.067 77.519 38.319 73.243 34.312 68.312 C31.755 65.624 29.165 63.189 26.312 60.812 C23.461 58.437 20.905 55.966 18.312 53.312 C16.981 51.978 15.647 50.645 14.312 49.312 C12.181 47.181 10.051 45.048 7.934 42.902 C5.148 40.15 2.273 37.508 -0.625 34.875 C-6.226 29.755 -11.62 24.456 -16.929 19.033 C-19.395 16.53 -21.722 14.287 -24.555 12.188 C-26.688 10.312 -26.688 10.312 -27.352 8.094 C-27.283 4.082 -27.217 1.991 -24.688 -1.25 C-17.034 -4.917 -7.877 -1.702 0 0 Z " fill="#F8865D" transform="translate(544.6875,436.6875)" />
<path d="M0 0 C2.5 0.812 2.5 0.812 5.5 2.812 C6.571 5.421 7.474 7.942 8.312 10.625 C8.7 11.828 8.7 11.828 9.096 13.055 C11.525 20.68 13.708 28.375 15.875 36.078 C20.209 51.452 24.841 66.742 29.562 82 C32.995 93.094 36.272 104.226 39.503 115.38 C41.47 122.153 43.451 128.921 45.438 135.688 C45.652 136.419 45.867 137.15 46.088 137.903 C49.129 148.253 52.252 158.575 55.452 168.877 C58.745 179.52 61.877 190.21 65 200.904 C65.401 202.276 65.802 203.648 66.203 205.02 C66.396 205.681 66.589 206.342 66.787 207.023 C68.362 212.4 70.032 217.745 71.743 223.08 C73.949 231.043 72.357 237.605 68.5 244.812 C58.541 257.332 41.623 260.983 26.5 262.812 C20.7 263.228 14.894 263.205 9.082 263.149 C6.502 263.125 3.924 263.128 1.344 263.135 C-37.555 263.07 -37.555 263.07 -51.5 250.812 C-57.75 244.078 -59.764 238.05 -59.701 228.948 C-59.348 223.439 -57.959 218.231 -56.578 212.902 C-56.277 211.695 -55.976 210.489 -55.665 209.245 C-54.706 205.41 -53.728 201.58 -52.75 197.75 C-51.48 192.719 -50.217 187.685 -48.953 182.652 C-48.648 181.442 -48.343 180.232 -48.028 178.985 C-45.979 170.832 -44.065 162.662 -42.288 154.446 C-41.277 149.781 -40.182 145.14 -39.062 140.5 C-38.63 138.698 -38.198 136.896 -37.766 135.094 C-37.552 134.206 -37.339 133.317 -37.119 132.402 C-36.547 130.009 -35.983 127.615 -35.422 125.219 C-31.749 109.567 -27.813 93.98 -23.902 78.387 C-23.698 77.573 -23.494 76.759 -23.284 75.921 C-22.328 72.106 -21.369 68.293 -20.402 64.481 C-18.324 56.268 -16.411 48.032 -14.625 39.75 C-12.643 30.739 -10.58 21.756 -8.312 12.812 C-8.075 11.846 -7.837 10.879 -7.592 9.883 C-7.362 8.993 -7.132 8.104 -6.895 7.188 C-6.697 6.411 -6.5 5.635 -6.296 4.836 C-4.972 1.472 -3.721 -0.279 0 0 Z " fill="#F8865D" transform="translate(493.5,459.1875)" />
<path d="M0 0 C3.881 0.457 5.454 1.642 8.188 4.375 C8.188 5.035 8.188 5.695 8.188 6.375 C8.722 6.593 9.257 6.811 9.809 7.035 C13.034 8.852 15.574 11.289 18.25 13.812 C18.818 14.342 19.386 14.871 19.971 15.416 C24.68 19.831 29.241 24.381 33.75 29 C36.118 31.308 38.579 33.347 41.188 35.375 C43 37 43 37 44.188 38.375 C44.188 39.035 44.188 39.695 44.188 40.375 C44.847 40.375 45.508 40.375 46.188 40.375 C46.188 41.035 46.188 41.695 46.188 42.375 C46.737 42.598 47.286 42.821 47.853 43.05 C50.892 44.775 53.132 47.092 55.547 49.574 C56.055 50.087 56.563 50.601 57.086 51.13 C58.708 52.769 60.323 54.415 61.938 56.062 C69.614 63.873 77.367 71.39 85.812 78.375 C88.726 80.855 91.098 83.567 93.527 86.512 C95.155 88.338 96.838 89.859 98.711 91.43 C104.041 96.032 108.933 101.051 113.875 106.062 C115.71 107.923 117.547 109.781 119.387 111.637 C120.189 112.451 120.992 113.265 121.819 114.104 C124.171 116.359 126.63 118.36 129.188 120.375 C130.875 122.021 132.542 123.687 134.188 125.375 C134.951 126.097 135.714 126.819 136.5 127.562 C138.188 129.375 138.188 129.375 138.188 131.375 C138.77 131.633 139.353 131.891 139.953 132.156 C142.368 133.473 144.005 134.926 145.938 136.875 C146.551 137.483 147.165 138.092 147.797 138.719 C149.188 140.375 149.188 140.375 149.188 142.375 C149.744 142.602 150.301 142.829 150.875 143.062 C153.846 144.749 155.833 146.905 158.188 149.375 C161.533 152.809 164.968 155.892 168.734 158.848 C170.44 160.641 170.793 161.962 171.188 164.375 C171.847 164.375 172.507 164.375 173.188 164.375 C176.327 171.439 176.396 179.911 173.688 187.125 C173.192 188.197 172.697 189.27 172.188 190.375 C171.528 190.375 170.868 190.375 170.188 190.375 C169.922 191.11 169.656 191.845 169.383 192.602 C166.031 200.378 159.675 206.167 153.188 211.375 C152.63 211.828 152.072 212.28 151.498 212.747 C149.609 214.277 147.712 215.796 145.812 217.312 C145.193 217.81 144.574 218.307 143.935 218.82 C139.421 222.375 139.421 222.375 137.188 222.375 C137.188 223.035 137.188 223.695 137.188 224.375 C136.301 224.87 135.414 225.365 134.5 225.875 C130.963 227.889 127.515 230.032 124.062 232.188 C110.295 240.659 95.104 249.965 78.188 247.375 C71.7 245.571 68.087 242.765 64.188 237.375 C63.441 236.724 63.441 236.724 62.678 236.061 C60.613 233.725 60.075 231.457 59.207 228.469 C58.674 226.662 58.674 226.662 58.131 224.82 C57.754 223.505 57.377 222.19 57 220.875 C56.601 219.51 56.201 218.145 55.801 216.78 C54.982 213.987 54.168 211.192 53.357 208.396 C52.313 204.797 51.247 201.204 50.172 197.613 C47.277 187.94 44.427 178.255 41.676 168.539 C41.461 167.781 41.246 167.023 41.025 166.242 C40.81 165.481 40.594 164.719 40.372 163.935 C39.935 162.394 39.499 160.853 39.062 159.312 C38.848 158.554 38.633 157.795 38.412 157.013 C35.888 148.116 33.275 139.278 30.234 130.541 C27.972 123.963 26.219 117.264 24.437 110.544 C22.881 104.743 21.147 99.051 19.188 93.375 C16.938 86.853 15.02 80.293 13.25 73.625 C11.003 65.169 8.492 56.835 5.802 48.51 C3.01 39.868 0.368 31.187 -2.19 22.474 C-2.74 20.621 -3.311 18.775 -3.887 16.93 C-5.482 11.633 -6.305 7.771 -4.812 2.375 C-2.812 0.375 -2.812 0.375 0 0 Z " fill="#F8865D" transform="translate(510.8125,451.625)" />
<path d="M0 0 C2.755 5.51 0.868 11.939 -0.719 17.535 C-2.405 23.633 -3.917 29.756 -5.332 35.922 C-5.631 37.225 -5.631 37.225 -5.937 38.554 C-6.35 40.358 -6.763 42.161 -7.175 43.965 C-10.451 58.283 -13.83 72.551 -17.595 86.748 C-19.845 95.275 -21.85 103.846 -23.802 112.446 C-25.443 119.655 -27.184 126.833 -29 134 C-31.071 142.188 -33.049 150.393 -34.938 158.625 C-35.183 159.695 -35.429 160.765 -35.682 161.867 C-36.735 166.461 -37.785 171.056 -38.832 175.651 C-41.934 189.239 -45.097 202.813 -48.562 216.312 C-48.947 217.885 -48.947 217.885 -49.34 219.49 C-51.539 227.845 -54.738 235.098 -62.125 240 C-69.622 244.335 -78.488 244.16 -86.707 242.047 C-102.117 236.907 -116.557 228.147 -129.664 218.68 C-131.874 216.997 -131.874 216.997 -134 216 C-134 215.34 -134 214.68 -134 214 C-135.083 213.638 -135.083 213.638 -136.188 213.27 C-139.389 211.825 -141.432 210.075 -144 207.688 C-144.874 206.877 -145.748 206.066 -146.648 205.23 C-149.149 202.858 -151.625 200.5 -154 198 C-154.957 197 -154.957 197 -155.934 195.98 C-163.498 187.833 -167.443 180.357 -167.348 169.074 C-166.821 164.416 -164.915 161.564 -162 158 C-161.546 157.399 -161.092 156.799 -160.625 156.18 C-159.489 154.726 -158.252 153.354 -157 152 C-156.34 152 -155.68 152 -155 152 C-154.67 151.01 -154.34 150.02 -154 149 C-153.34 149 -152.68 149 -152 149 C-151.747 148.421 -151.494 147.842 -151.234 147.246 C-149.854 144.734 -148.302 143.075 -146.262 141.066 C-145.524 140.335 -144.786 139.603 -144.025 138.85 C-143.254 138.095 -142.482 137.34 -141.688 136.562 C-140.548 135.436 -140.548 135.436 -139.385 134.287 C-137.26 132.188 -135.131 130.093 -133 128 C-129.03 124.097 -125.381 120.026 -121.77 115.793 C-121.186 115.201 -120.602 114.61 -120 114 C-119.34 114 -118.68 114 -118 114 C-117.752 113.423 -117.505 112.845 -117.25 112.25 C-115.817 109.671 -114.216 107.939 -112 106 C-111.34 106 -110.68 106 -110 106 C-109.669 105.178 -109.669 105.178 -109.332 104.34 C-107.581 101.265 -105.211 98.998 -102.688 96.562 C-102.214 96.098 -101.74 95.633 -101.252 95.154 C-99.837 93.767 -98.419 92.383 -97 91 C-94.278 88.325 -91.656 85.7 -89.312 82.688 C-88.549 81.801 -87.786 80.914 -87 80 C-86.34 80 -85.68 80 -85 80 C-84.732 79.361 -84.464 78.721 -84.188 78.062 C-83 76 -83 76 -80 75 C-79.505 73.515 -79.505 73.515 -79 72 C-78.34 72 -77.68 72 -77 72 C-76.763 71.438 -76.526 70.876 -76.281 70.297 C-74.711 67.481 -72.785 65.52 -70.5 63.25 C-69.706 62.451 -68.912 61.652 -68.094 60.828 C-66 59 -66 59 -64 59 C-63.728 58.411 -63.456 57.822 -63.176 57.215 C-60.3 51.798 -55.498 47.123 -51 43 C-50.34 43 -49.68 43 -49 43 C-48.67 42.01 -48.34 41.02 -48 40 C-47.34 40 -46.68 40 -46 40 C-45.67 39.01 -45.34 38.02 -45 37 C-44.34 37 -43.68 37 -43 37 C-42.605 36.117 -42.605 36.117 -42.202 35.217 C-40.948 32.903 -39.633 31.386 -37.775 29.532 C-37.121 28.875 -36.467 28.218 -35.793 27.541 C-34.735 26.494 -34.735 26.494 -33.656 25.426 C-32.931 24.701 -32.206 23.977 -31.46 23.231 C-29.929 21.703 -28.395 20.177 -26.86 18.654 C-24.504 16.316 -22.156 13.97 -19.809 11.623 C-18.321 10.14 -16.833 8.658 -15.344 7.176 C-14.286 6.12 -14.286 6.12 -13.207 5.042 C-12.553 4.394 -11.899 3.747 -11.225 3.079 C-10.649 2.507 -10.073 1.935 -9.48 1.346 C-6.273 -1.571 -4.071 -0.953 0 0 Z " fill="#F8865D" transform="translate(480,456)" />
<path d="M0 0 C16.683 11.581 20.744 34.192 24.156 53.01 C27.303 71.796 30.593 96.191 20.562 113.438 C16.374 118.092 11.846 122 5.516 122.844 C-3.917 123.083 -12.132 121.53 -21.222 119.071 C-32.157 116.139 -43.217 114.01 -54.331 111.886 C-61.111 110.58 -67.76 109.178 -74.348 107.074 C-77.42 106.138 -80.525 105.599 -83.688 105.062 C-96.071 102.859 -108.308 99.942 -120.523 96.957 C-131.933 94.17 -143.342 91.59 -154.871 89.341 C-163.064 87.735 -171.223 85.994 -179.375 84.188 C-181.136 83.8 -181.136 83.8 -182.933 83.404 C-184.016 83.163 -185.099 82.921 -186.215 82.672 C-187.176 82.458 -188.138 82.243 -189.129 82.022 C-191.438 81.438 -191.438 81.438 -193.438 80.438 C-196.416 79.914 -199.403 79.477 -202.395 79.035 C-206.462 78.236 -209.479 77.396 -212.438 74.438 C-212.812 71.125 -212.812 71.125 -211.438 67.438 C-208.374 65.436 -205.024 64.338 -201.571 63.168 C-199.137 62.334 -196.723 61.451 -194.309 60.562 C-190.513 59.167 -186.712 57.786 -182.906 56.418 C-178.315 54.763 -173.748 53.051 -169.188 51.312 C-163.875 49.297 -158.526 47.45 -153.125 45.688 C-139.19 41.131 -125.486 35.883 -111.785 30.672 C-104.152 27.772 -96.487 25.06 -88.724 22.528 C-88.021 22.299 -87.318 22.069 -86.594 21.832 C-85.983 21.635 -85.373 21.437 -84.744 21.234 C-82.04 20.3 -79.366 19.291 -76.69 18.282 C-72.621 16.756 -68.536 15.273 -64.453 13.785 C-63.516 13.444 -62.579 13.102 -61.614 12.751 C-59.641 12.032 -57.668 11.313 -55.694 10.595 C-53.697 9.868 -51.699 9.139 -49.702 8.41 C-43.287 6.069 -36.867 3.741 -30.438 1.438 C-29.768 1.197 -29.098 0.956 -28.408 0.708 C-18.721 -2.751 -9.539 -5.334 0 0 Z " fill="#F9865D" transform="translate(735.4375,349.5625)" />
<path d="M0 0 C1.938 1.125 1.938 1.125 3 3 C3.557 8.016 2.967 10.92 0 15 C1.32 15 2.64 15 4 15 C7 17 7 17 7.434 18.988 C7.44 22.887 7.394 25.334 5.375 28.75 C3.196 30.815 0.935 32.711 -1.403 34.593 C-3.076 36.067 -4.436 37.619 -5.863 39.332 C-11.35 45.681 -17.412 51.48 -23.375 57.375 C-25.74 59.713 -28.101 62.055 -30.461 64.398 C-31.003 64.932 -31.544 65.465 -32.102 66.014 C-34.902 68.74 -34.902 68.74 -37 72 C-37.66 72 -38.32 72 -39 72 C-39 72.66 -39 73.32 -39 74 C-39.681 74.536 -40.361 75.072 -41.062 75.625 C-43.376 77.496 -44.936 79.022 -46.797 81.262 C-52.552 87.923 -58.933 94 -65.188 100.188 C-67.705 102.678 -70.219 105.172 -72.73 107.668 C-73.3 108.23 -73.87 108.791 -74.457 109.37 C-77.54 112.434 -80.295 115.59 -83 119 C-84.453 120.195 -85.908 121.389 -87.375 122.566 C-89.865 124.763 -91.924 127.294 -94.074 129.816 C-98.331 134.643 -103.022 139.07 -107.625 143.562 C-110.254 146.261 -112.709 149.075 -115.156 151.938 C-117.349 154.391 -119.66 156.685 -122 159 C-123.417 160.416 -124.834 161.833 -126.25 163.25 C-135.75 172.75 -135.75 172.75 -137.994 174.99 C-139.186 176.185 -140.374 177.384 -141.551 178.594 C-146.749 183.931 -151.426 186.223 -158.938 186.5 C-164.685 186.318 -169.022 184.779 -174 182 C-174.66 181.67 -175.32 181.34 -176 181 C-176 180.34 -176 179.68 -176 179 C-176.559 178.792 -177.119 178.585 -177.695 178.371 C-180.824 176.51 -182.726 173.931 -184.875 171.062 C-185.535 170.192 -185.535 170.192 -186.208 169.303 C-190.039 164.144 -193.134 158.75 -196 153 C-196.416 152.227 -196.833 151.453 -197.262 150.656 C-199.997 145.479 -202.215 140.147 -204.312 134.688 C-204.579 134.005 -204.846 133.323 -205.121 132.62 C-206.494 128.952 -207.575 125.904 -207 122 C-205.031 120.242 -205.031 120.242 -202.285 118.66 C-201.288 118.072 -200.291 117.483 -199.264 116.877 C-198.207 116.278 -197.151 115.679 -196.062 115.062 C-194.011 113.868 -191.96 112.671 -189.91 111.473 C-188.911 110.894 -187.911 110.314 -186.882 109.718 C-183.492 107.697 -180.225 105.536 -176.978 103.296 C-168.896 98 -168.896 98 -165 98 C-165 97.34 -165 96.68 -165 96 C-164.007 95.455 -163.015 94.909 -161.992 94.348 C-153.854 89.843 -145.936 85.128 -138.148 80.043 C-134.774 77.854 -131.35 75.777 -127.891 73.727 C-123.908 71.348 -119.956 68.922 -116 66.5 C-114.438 65.545 -112.875 64.591 -111.312 63.637 C-108.767 62.082 -106.226 60.523 -103.688 58.957 C-102.357 58.143 -102.357 58.143 -101 57.312 C-100.257 56.855 -99.515 56.397 -98.75 55.926 C-97 55 -97 55 -95 55 C-95 54.34 -95 53.68 -95 53 C-94.466 52.709 -93.933 52.417 -93.383 52.117 C-87.502 48.881 -81.742 45.475 -76 42 C-73.439 40.456 -70.876 38.915 -68.312 37.375 C-67.386 36.817 -67.386 36.817 -66.441 36.247 C-63.369 34.4 -60.283 32.598 -57.148 30.859 C-54.116 29.068 -52.962 27.802 -51 25 C-49.188 23.938 -49.188 23.938 -47 23 C-43.816 21.7 -43.816 21.7 -41 20 C-40.835 19.34 -40.67 18.68 -40.5 18 C-40 16 -40 16 -37.188 14.25 C-34 13 -34 13 -30 13 C-30 12.34 -30 11.68 -30 11 C-28.804 10.691 -27.607 10.381 -26.375 10.062 C-20.985 8.331 -16.648 5.308 -12.138 1.961 C-7.751 -1.109 -5.134 -1.345 0 0 Z " fill="#F8865D" transform="translate(461,425)" />
<path d="M0 0 C8.326 3.97 14.564 15.355 19.016 22.961 C19.415 23.609 19.815 24.258 20.227 24.926 C25.291 33.322 27.654 41.07 25.336 50.82 C24.622 53.227 23.86 55.598 23.016 57.961 C22.356 57.961 21.696 57.961 21.016 57.961 C20.83 58.518 20.644 59.075 20.453 59.648 C17.194 64.892 12.457 67.024 6.703 68.523 C5.861 68.71 5.02 68.897 4.152 69.09 C0.682 70.054 -2.533 71.353 -5.864 72.715 C-9.642 74.224 -13.45 75.644 -17.266 77.055 C-18.01 77.33 -18.755 77.606 -19.522 77.89 C-22.622 79.036 -25.724 80.18 -28.826 81.325 C-31.119 82.171 -33.411 83.019 -35.703 83.867 C-36.434 84.138 -37.166 84.408 -37.919 84.687 C-42.634 86.44 -47.317 88.257 -51.967 90.18 C-54.95 91.335 -58.009 92.18 -61.079 93.07 C-64.597 94.149 -68.061 95.359 -71.527 96.59 C-72.262 96.85 -72.998 97.111 -73.755 97.379 C-82.212 100.383 -90.643 103.461 -99.07 106.548 C-101.745 107.527 -104.421 108.505 -107.098 109.482 C-122.918 115.109 -122.918 115.109 -138.422 121.523 C-141.688 122.841 -144.841 123.783 -148.234 124.711 C-155.111 126.598 -161.707 129.019 -168.323 131.675 C-173.026 133.495 -176.852 134.512 -181.984 133.961 C-183.984 131.961 -183.984 131.961 -184.172 128.961 C-183.984 125.961 -183.984 125.961 -182.984 123.961 C-182.324 123.961 -181.664 123.961 -180.984 123.961 C-180.611 122.636 -180.611 122.636 -180.23 121.285 C-178.926 117.806 -177.413 115.615 -175.047 112.773 C-174.357 111.934 -173.668 111.095 -172.957 110.23 C-170.984 107.961 -170.984 107.961 -169.305 106.328 C-167.494 104.453 -166.839 102.394 -165.984 99.961 C-165.324 99.961 -164.664 99.961 -163.984 99.961 C-163.984 99.301 -163.984 98.641 -163.984 97.961 C-158.234 94.961 -158.234 94.961 -155.984 94.961 C-155.984 94.301 -155.984 93.641 -155.984 92.961 C-155.341 92.621 -154.698 92.28 -154.035 91.93 C-147.206 88.267 -140.593 84.333 -134.021 80.23 C-129.848 77.63 -125.665 75.047 -121.484 72.461 C-114.357 68.052 -114.357 68.052 -107.238 63.629 C-101.368 59.986 -95.438 56.494 -89.422 53.098 C-84.2 50.129 -79.117 46.959 -74.036 43.756 C-69.363 40.812 -64.659 37.925 -59.922 35.086 C-59.327 34.729 -58.732 34.372 -58.119 34.004 C-56.411 32.984 -54.698 31.972 -52.984 30.961 C-52.352 30.583 -51.719 30.205 -51.067 29.815 C-46.214 26.961 -46.214 26.961 -43.984 26.961 C-43.984 26.301 -43.984 25.641 -43.984 24.961 C-43.406 24.634 -42.827 24.307 -42.231 23.97 C-31.04 17.638 -20.011 11.213 -9.25 4.172 C-7.912 3.325 -7.912 3.325 -6.547 2.461 C-5.764 1.956 -4.982 1.45 -4.176 0.93 C-1.984 -0.039 -1.984 -0.039 0 0 Z " fill="#F8875E" transform="translate(699.984375,276.0390625)" />
<path d="M0 0 C1.938 1.125 1.938 1.125 3 3 C3.557 8.016 2.967 10.92 0 15 C1.32 15 2.64 15 4 15 C7 17 7 17 7.434 18.988 C7.44 22.887 7.394 25.334 5.375 28.75 C3.201 30.809 0.948 32.702 -1.386 34.575 C-3.154 36.136 -4.619 37.804 -6.141 39.605 C-10.192 44.293 -14.534 48.646 -18.938 53 C-19.717 53.775 -20.496 54.549 -21.299 55.348 C-23.197 57.234 -25.097 59.118 -27 61 C-27.33 60.01 -27.66 59.02 -28 58 C-27.34 58 -26.68 58 -26 58 C-26 57.01 -26 56.02 -26 55 C-29.903 56.033 -31.545 57.543 -33.875 60.688 C-35.383 62.582 -35.383 62.582 -37 64 C-40.75 63.875 -40.75 63.875 -44 63 C-44.99 63.495 -44.99 63.495 -46 64 C-47.789 64.122 -49.582 64.175 -51.375 64.188 C-52.331 64.202 -53.288 64.216 -54.273 64.23 C-57 64 -57 64 -61 62 C-60.67 56.72 -60.34 51.44 -60 46 C-58.515 45.505 -58.515 45.505 -57 45 C-57 44.34 -57 43.68 -57 43 C-57.66 42.67 -58.32 42.34 -59 42 C-58.67 41.34 -58.34 40.68 -58 40 C-58.66 39.67 -59.32 39.34 -60 39 C-60 38.34 -60 37.68 -60 37 C-58.02 36.34 -56.04 35.68 -54 35 C-54 34.34 -54 33.68 -54 33 C-55.65 33 -57.3 33 -59 33 C-58 32 -57 31 -56 30 C-55.196 29.154 -54.391 28.309 -53.562 27.438 C-51.281 25.268 -49.829 24.2 -47 23 C-43.816 21.7 -43.816 21.7 -41 20 C-40.835 19.34 -40.67 18.68 -40.5 18 C-40 16 -40 16 -37.188 14.25 C-34 13 -34 13 -30 13 C-30 12.34 -30 11.68 -30 11 C-28.804 10.691 -27.608 10.381 -26.375 10.062 C-20.985 8.331 -16.648 5.308 -12.138 1.961 C-7.751 -1.109 -5.134 -1.345 0 0 Z " fill="#F59F76" transform="translate(461,425)" />
<path d="M0 0 C0 0.66 0 1.32 0 2 C-3.371 3.498 -5.204 4 -9 4 C-9 4.66 -9 5.32 -9 6 C-13.455 6.495 -13.455 6.495 -18 7 C-18 7.99 -18 8.98 -18 10 C-17.423 10.124 -16.845 10.248 -16.25 10.375 C-13.967 11.009 -12.086 11.888 -10 13 C-9.01 13.495 -9.01 13.495 -8 14 C-8 14.66 -8 15.32 -8 16 C-7.237 15.918 -6.474 15.835 -5.688 15.75 C-3 16 -3 16 -1.375 17.938 C-0.694 18.958 -0.694 18.958 0 20 C1.485 20.495 1.485 20.495 3 21 C3.915 26.562 4.321 30.676 2 36 C1.34 36 0.68 36 0 36 C-0.66 37.32 -1.32 38.64 -2 40 C-7.28 40 -12.56 40 -18 40 C-16.35 40.99 -14.7 41.98 -13 43 C-13.33 43.99 -13.66 44.98 -14 46 C-15.98 46.33 -17.96 46.66 -20 47 C-19.01 47.495 -19.01 47.495 -18 48 C-18 48.66 -18 49.32 -18 50 C-16.819 50.205 -15.638 50.41 -14.422 50.621 C-12.865 50.893 -11.307 51.165 -9.75 51.438 C-8.973 51.572 -8.195 51.707 -7.395 51.846 C-6.64 51.978 -5.886 52.11 -5.109 52.246 C-4.072 52.427 -4.072 52.427 -3.015 52.611 C-0.987 53.002 1.002 53.481 3 54 C3 54.66 3 55.32 3 56 C-4.208 55.245 -11.224 53.802 -18.312 52.312 C-19.57 52.05 -20.828 51.787 -22.124 51.517 C-31.157 49.625 -40.176 47.675 -49.188 45.688 C-50.345 45.433 -51.502 45.179 -52.695 44.917 C-53.758 44.68 -54.822 44.443 -55.918 44.199 C-56.854 43.991 -57.79 43.783 -58.755 43.569 C-61 43 -61 43 -63 42 C-65.978 41.476 -68.966 41.04 -71.957 40.598 C-76.025 39.799 -79.042 38.958 -82 36 C-82.375 32.688 -82.375 32.688 -81 29 C-77.937 26.998 -74.587 25.901 -71.133 24.73 C-68.699 23.897 -66.286 23.014 -63.871 22.125 C-60.075 20.729 -56.275 19.349 -52.469 17.98 C-47.877 16.325 -43.31 14.613 -38.75 12.875 C-32.354 10.448 -25.893 8.255 -19.394 6.122 C-14.207 4.417 -9.074 2.602 -3.969 0.664 C-2 0 -2 0 0 0 Z " fill="#F68B60" transform="translate(605,388)" />
<path d="M0 0 C7.273 1.862 14.583 3.539 21.902 5.206 C24.177 5.724 26.452 6.245 28.727 6.766 C36.64 8.574 44.562 10.324 52.502 12.012 C57.953 13.189 63.382 14.459 68.812 15.727 C77.797 17.811 86.783 19.846 95.812 21.727 C105.595 23.771 115.372 25.828 125.124 28.015 C130.243 29.162 135.368 30.284 140.496 31.395 C142.598 31.85 144.7 32.307 146.802 32.763 C148.224 33.072 149.645 33.38 151.067 33.688 C158.769 35.359 166.444 37.077 174.062 39.102 C180.299 40.723 186.378 41.483 192.812 41.727 C192.812 42.057 192.812 42.387 192.812 42.727 C189.513 43.387 186.212 44.047 182.812 44.727 C184.132 45.387 185.452 46.047 186.812 46.727 C186.812 47.387 186.812 48.047 186.812 48.727 C179.798 48.088 173.11 46.802 166.25 45.227 C165.102 44.967 163.955 44.708 162.772 44.441 C160.205 43.861 157.638 43.279 155.071 42.695 C147.951 41.074 140.826 39.473 133.702 37.869 C131.974 37.48 130.247 37.091 128.52 36.702 C117.396 34.195 106.267 31.716 95.125 29.289 C82.14 26.459 69.162 23.604 56.188 20.727 C55.219 20.512 54.25 20.297 53.252 20.076 C41.356 17.437 29.481 14.73 17.625 11.914 C4.428 8.782 -8.845 6.156 -22.188 3.727 C-14.409 -1.459 -8.91 -2.34 0 0 Z " fill="#FAE7C0" transform="translate(547.1875,430.2734375)" />
<path d="M0 0 C1.938 1.125 1.938 1.125 3 3 C3.557 8.016 2.967 10.92 0 15 C1.32 15 2.64 15 4 15 C4.99 15.66 5.98 16.32 7 17 C6.67 18.32 6.34 19.64 6 21 C5.67 20.67 5.34 20.34 5 20 C-4.555 20.072 -13.721 21.752 -23 23.875 C-25.333 24.393 -27.667 24.911 -30 25.43 C-33.632 26.241 -37.261 27.06 -40.887 27.899 C-42.768 28.324 -42.768 28.324 -44.688 28.758 C-46.395 29.151 -46.395 29.151 -48.137 29.551 C-51 30 -51 30 -54 29 C-51.949 25.923 -50.384 24.45 -47 23 C-43.816 21.7 -43.816 21.7 -41 20 C-40.835 19.34 -40.67 18.68 -40.5 18 C-40 16 -40 16 -37.188 14.25 C-34 13 -34 13 -30 13 C-30 12.34 -30 11.68 -30 11 C-28.804 10.691 -27.608 10.381 -26.375 10.062 C-20.985 8.331 -16.648 5.308 -12.138 1.961 C-7.751 -1.109 -5.134 -1.345 0 0 Z " fill="#F5C09B" transform="translate(461,425)" />
<path d="M0 0 C1.665 2.823 2.208 5.176 1.98 8.465 C1.176 11.388 -0.413 13.044 -2.973 14.594 C-10.099 16.915 -19.423 16.495 -26.5 14.188 C-29.562 12.438 -29.562 12.438 -30.254 10.328 C-30.356 9.704 -30.458 9.08 -30.562 8.438 C-22.042 1.111 -11.119 -6.78 0 0 Z " fill="#F9E9C4" transform="translate(605.5625,409.5625)" />
<path d="M0 0 C-0.747 21.237 -0.747 21.237 -6.812 27 C-10.39 29.245 -11.878 29.877 -16 29 C-18.967 27.001 -20.625 25.483 -21.52 21.945 C-21.924 16.512 -20.461 13.047 -16.98 8.93 C-12.103 4.177 -7.132 -0.61 0 0 Z " fill="#F8EBC3" transform="translate(455,504)" />
<path d="M0 0 C6.909 0.364 13.054 4.143 17.941 8.883 C22.19 13.776 23.123 16.365 23 23 C22.34 23 21.68 23 21 23 C20.67 23.99 20.34 24.98 20 26 C16.437 27.781 12.86 27.877 9 27 C3.526 22.689 1.195 15.647 0 9 C-0.204 5.946 -0.148 3.065 0 0 Z " fill="#F9EBC3" transform="translate(537,511)" />
<path d="M0 0 C1.867 0.145 1.867 0.145 4 1 C9.598 8.112 12.53 15.693 12.312 24.723 C12 27 12 27 10.375 29.562 C7.429 31.346 5.452 31.93 2 32 C-0.875 30.688 -0.875 30.688 -3 29 C-3 28.34 -3 27.68 -3 27 C-3.66 27 -4.32 27 -5 27 C-5.419 17.625 -5.77 9.449 -1 1 C-0.67 0.67 -0.34 0.34 0 0 Z " fill="#F9EBC3" transform="translate(496,519)" />
</svg>