<?xml version='1.0' encoding='utf-8'?>
<svg xmlns="http://www.w3.org/2000/svg" version="1.1" width="1034" height="1034" viewBox="0 0 1034.0 1034.0">
<path d="M0 0 C337.92 0 675.84 0 1024 0 C1024 337.92 1024 675.84 1024 1024 C686.08 1024 348.16 1024 0 1024 C0 686.08 0 348.16 0 0 Z " fill="#FEFEFE" transform="translate(0,0)" />
<path d="M0 0 C1.084 -0.004 1.084 -0.004 2.19 -0.009 C9.434 -0.028 16.678 0.038 23.922 0.117 C23.922 9.687 23.922 19.257 23.922 29.117 C-6.875 30.302 -6.875 30.302 -20.078 30.117 C-20.078 30.777 -20.078 31.437 -20.078 32.117 C-20.721 32.187 -21.365 32.257 -22.027 32.329 C-42.704 33.091 -42.704 33.091 -61.078 40.117 C-62.824 40.374 -64.576 40.596 -66.328 40.805 C-80.38 42.889 -93.916 47.384 -106.977 52.875 C-109.513 53.891 -111.859 54.657 -114.516 55.242 C-118.148 56.134 -120.907 57.491 -124.18 59.23 C-126.751 60.431 -129.27 60.836 -132.078 61.117 C-132.078 61.777 -132.078 62.437 -132.078 63.117 C-132.759 63.385 -133.439 63.653 -134.141 63.93 C-160.788 74.421 -160.788 74.421 -183.684 90.727 C-185.078 92.117 -185.078 92.117 -188.391 93.68 C-198.156 98.345 -207.139 105.808 -215.266 112.867 C-218.078 115.117 -218.078 115.117 -220.078 115.117 C-220.078 115.777 -220.078 116.437 -220.078 117.117 C-221.835 118.453 -223.599 119.779 -225.387 121.074 C-228.788 123.656 -232.026 126.4 -235.266 129.18 C-235.859 129.686 -236.453 130.193 -237.065 130.714 C-241.525 134.552 -245.744 138.468 -249.453 143.055 C-251.836 145.997 -254.555 148.292 -257.527 150.625 C-259.183 152.038 -259.183 152.038 -259.973 154.047 C-261.463 156.838 -263.604 158.167 -266.078 160.117 C-268.253 162.704 -270.271 165.375 -272.309 168.07 C-272.893 168.746 -273.476 169.421 -274.078 170.117 C-274.738 170.117 -275.398 170.117 -276.078 170.117 C-276.305 170.818 -276.532 171.52 -276.766 172.242 C-278.363 175.741 -280.586 178.2 -283.078 181.117 C-283.594 181.983 -284.109 182.85 -284.641 183.742 C-286.078 186.117 -286.078 186.117 -287.891 187.867 C-291.819 191.908 -295.29 196.754 -297.078 202.117 C-297.738 202.117 -298.398 202.117 -299.078 202.117 C-299.346 202.678 -299.614 203.239 -299.891 203.816 C-301.163 206.281 -302.6 208.584 -304.078 210.93 C-306.536 214.977 -308.075 218.504 -309.078 223.117 C-309.738 223.117 -310.398 223.117 -311.078 223.117 C-311.449 224.076 -311.449 224.076 -311.828 225.055 C-313.201 228.417 -314.679 231.722 -316.176 235.031 C-317.168 237.242 -317.168 237.242 -318.078 240.117 C-319.068 240.117 -320.058 240.117 -321.078 240.117 C-321.26 240.746 -321.442 241.375 -321.629 242.023 C-323.234 247.488 -325.014 252.809 -327.078 258.117 C-327.738 258.117 -328.398 258.117 -329.078 258.117 C-329.246 259.144 -329.246 259.144 -329.418 260.191 C-330.186 263.595 -331.362 266.685 -332.641 269.93 C-333.096 271.091 -333.551 272.253 -334.02 273.449 C-334.544 274.77 -334.544 274.77 -335.078 276.117 C-335.738 276.117 -336.398 276.117 -337.078 276.117 C-337.268 277.374 -337.268 277.374 -337.461 278.656 C-338.939 286.946 -341.209 295.229 -344.297 303.066 C-347.712 312.031 -349.767 321.104 -351.297 330.543 C-351.792 333.566 -352.374 336.547 -353.047 339.535 C-361.577 378.26 -359.564 418.783 -358.078 458.117 C-357.418 458.117 -356.758 458.117 -356.078 458.117 C-356.022 459.264 -356.022 459.264 -355.965 460.434 C-355.503 467.954 -354.347 475.074 -352.777 482.438 C-351.789 487.641 -351.363 492.834 -351.078 498.117 C-350.418 498.117 -349.758 498.117 -349.078 498.117 C-348.931 499.063 -348.784 500.01 -348.633 500.984 C-347.082 510.328 -344.635 519.036 -341.48 527.961 C-340.08 531.964 -339.081 535.998 -338.078 540.117 C-337.318 542.477 -336.498 544.803 -335.664 547.137 C-335.078 549.117 -335.078 549.117 -335.078 552.117 C-334.418 552.117 -333.758 552.117 -333.078 552.117 C-332.746 552.963 -332.746 552.963 -332.407 553.826 C-331.385 556.425 -330.356 559.021 -329.328 561.617 C-328.98 562.504 -328.632 563.391 -328.273 564.305 C-326.616 568.478 -324.909 572.558 -322.859 576.555 C-321.194 579.885 -320.446 582.44 -320.078 586.117 C-319.418 586.117 -318.758 586.117 -318.078 586.117 C-317.574 587.407 -317.075 588.699 -316.578 589.992 C-316.3 590.711 -316.021 591.431 -315.734 592.172 C-315.078 594.117 -315.078 594.117 -315.078 596.117 C-314.418 596.117 -313.758 596.117 -313.078 596.117 C-312.481 597.33 -312.481 597.33 -311.871 598.566 C-311.076 600.169 -311.076 600.169 -310.266 601.805 C-309.744 602.86 -309.221 603.916 -308.684 605.004 C-306.429 609.376 -303.849 613.484 -301.195 617.621 C-300.668 618.444 -300.141 619.267 -299.598 620.115 C-298.497 621.831 -297.393 623.545 -296.285 625.256 C-295.761 626.078 -295.236 626.899 -294.695 627.746 C-294.217 628.489 -293.739 629.233 -293.246 629.998 C-292.112 632.056 -291.525 633.822 -291.078 636.117 C-290.418 636.117 -289.758 636.117 -289.078 636.117 C-287.484 638.031 -287.484 638.031 -285.578 640.742 C-284.86 641.75 -284.142 642.758 -283.402 643.797 C-281.852 646.003 -280.317 648.219 -278.785 650.438 C-272.894 658.91 -266.466 666.724 -259.593 674.419 C-258.206 675.974 -256.833 677.541 -255.461 679.109 C-250.92 684.27 -250.92 684.27 -245.828 688.867 C-242.795 691.349 -240.545 694.081 -238.078 697.117 C-234.139 701.219 -229.934 704.959 -225.641 708.68 C-224.998 709.244 -224.355 709.808 -223.693 710.389 C-219.971 713.62 -216.203 716.427 -212.078 719.117 C-210.39 720.763 -208.724 722.43 -207.078 724.117 C-204.395 726.465 -201.833 728.669 -198.766 730.492 C-196.222 732.03 -194.025 733.705 -191.703 735.555 C-188.919 737.762 -186.195 739.724 -183.078 741.43 C-180.078 743.117 -180.078 743.117 -179.078 745.117 C-177.296 746.17 -175.477 747.162 -173.641 748.117 C-168.285 750.91 -168.285 750.91 -166.078 753.117 C-164.48 753.797 -162.881 754.473 -161.273 755.129 C-158.597 756.334 -156.076 757.746 -153.516 759.18 C-149.773 761.257 -146.234 762.994 -142.078 764.117 C-142.078 764.777 -142.078 765.437 -142.078 766.117 C-141.212 766.365 -140.346 766.612 -139.453 766.867 C-136.078 768.117 -136.078 768.117 -133.328 769.992 C-127.255 773.963 -120.329 776.096 -113.461 778.324 C-108.964 779.821 -104.525 781.48 -100.078 783.117 C-100.078 783.777 -100.078 784.437 -100.078 785.117 C-98.861 785.262 -97.644 785.406 -96.391 785.555 C-93.251 785.945 -90.171 786.441 -87.078 787.117 C-87.078 787.777 -87.078 788.437 -87.078 789.117 C-86.361 789.251 -85.643 789.386 -84.904 789.524 C-82.17 790.098 -79.537 790.813 -76.859 791.605 C-64.111 795.316 -51.472 798.451 -38.389 800.704 C-36.27 801.083 -34.167 801.504 -32.062 801.953 C-12.187 806.084 8.108 806.45 28.34 806.378 C31.919 806.367 35.499 806.378 39.078 806.391 C58.186 806.403 77.335 805.693 96.172 802.242 C97.142 802.072 98.113 801.902 99.112 801.727 C102.052 801.206 104.987 800.665 107.922 800.117 C108.889 799.939 109.855 799.76 110.852 799.576 C113.627 799.059 116.4 798.53 119.172 797.992 C120 797.834 120.828 797.675 121.681 797.512 C122.829 797.282 122.829 797.282 124 797.047 C124.664 796.915 125.328 796.784 126.013 796.648 C128.152 796.053 129.944 795.119 131.922 794.117 C134.44 793.449 136.948 792.828 139.484 792.242 C145.206 790.87 150.707 789.281 156.199 787.145 C158.488 786.281 160.775 785.508 163.102 784.754 C169.098 782.774 174.898 780.33 180.725 777.902 C185.127 776.104 189.149 774.633 193.922 774.117 C193.922 773.457 193.922 772.797 193.922 772.117 C197.222 771.127 200.522 770.137 203.922 769.117 C203.922 768.457 203.922 767.797 203.922 767.117 C206.81 765.604 209.556 764.229 212.68 763.273 C216.483 761.917 219.721 760.061 223.172 757.992 C229.661 754.117 229.661 754.117 231.922 754.117 C231.922 753.457 231.922 752.797 231.922 752.117 C232.467 751.826 233.012 751.535 233.574 751.234 C238.612 748.496 243.377 745.543 248.074 742.254 C249.922 741.117 249.922 741.117 251.922 741.117 C251.922 740.457 251.922 739.797 251.922 739.117 C254.152 737.496 254.152 737.496 257.109 735.68 C258.072 735.083 259.035 734.486 260.027 733.871 C260.983 733.292 261.938 732.714 262.922 732.117 C263.826 731.549 264.729 730.98 265.66 730.395 C267.922 729.117 267.922 729.117 269.922 729.117 C269.922 728.457 269.922 727.797 269.922 727.117 C270.582 727.117 271.242 727.117 271.922 727.117 C271.922 726.457 271.922 725.797 271.922 725.117 C273.602 723.609 273.602 723.609 275.797 721.992 C276.516 721.453 277.235 720.915 277.977 720.359 C279.922 719.117 279.922 719.117 281.922 719.117 C281.922 718.457 281.922 717.797 281.922 717.117 C282.582 717.117 283.242 717.117 283.922 717.117 C284.252 716.127 284.582 715.137 284.922 714.117 C285.912 713.787 286.902 713.457 287.922 713.117 C288.582 712.127 289.242 711.137 289.922 710.117 C290.582 710.117 291.242 710.117 291.922 710.117 C291.922 709.457 291.922 708.797 291.922 708.117 C293.496 706.785 293.496 706.785 295.609 705.305 C301.624 701.006 301.624 701.006 305.922 695.117 C306.706 694.684 307.489 694.251 308.297 693.805 C311.251 691.906 312.216 690.123 313.922 687.117 C314.582 687.117 315.242 687.117 315.922 687.117 C316.19 686.478 316.458 685.838 316.734 685.18 C317.922 683.117 317.922 683.117 320.922 682.117 C321.972 680.267 321.972 680.267 322.922 678.117 C324.422 675.867 324.422 675.867 325.922 674.117 C326.582 674.117 327.242 674.117 327.922 674.117 C328.582 672.467 329.242 670.817 329.922 669.117 C330.582 669.117 331.242 669.117 331.922 669.117 C332.252 668.127 332.582 667.137 332.922 666.117 C333.582 666.117 334.242 666.117 334.922 666.117 C335.149 665.395 335.376 664.673 335.609 663.93 C336.882 661.202 338.219 659.714 340.375 657.672 C346.557 651.459 351.181 644.332 355.379 636.684 C356.75 634.403 357.997 632.908 359.922 631.117 C363.313 626.961 365.254 623.239 366.922 618.117 C367.912 617.457 368.902 616.797 369.922 616.117 C371.378 613.253 371.378 613.253 372.609 609.992 C373.046 608.896 373.483 607.801 373.934 606.672 C374.26 605.829 374.586 604.986 374.922 604.117 C375.582 604.117 376.242 604.117 376.922 604.117 C378.67 599.813 380.299 595.47 381.922 591.117 C382.582 591.117 383.242 591.117 383.922 591.117 C384.128 589.88 384.334 588.642 384.547 587.367 C385.69 582.126 387.964 577.719 390.484 573.012 C391.942 570.076 392.917 567.236 393.922 564.117 C395.225 560.585 396.575 557.071 397.922 553.555 C398.278 552.622 398.633 551.689 399 550.729 C401.721 543.606 401.721 543.606 402.92 540.687 C410.073 522.337 415.446 501.781 416.922 482.117 C417.582 482.117 418.242 482.117 418.922 482.117 C418.971 481.229 419.02 480.341 419.07 479.426 C419.78 467.299 420.842 455.217 421.922 443.117 C431.492 443.447 441.062 443.777 450.922 444.117 C450.922 459.312 450.922 459.312 449.426 467.18 C448.756 471.087 448.495 474.983 448.266 478.938 C447.784 483.397 446.839 487.73 445.922 492.117 C445.538 494.028 445.155 495.94 444.773 497.852 C442.561 508.763 440.188 519.469 436.922 530.117 C436.501 531.575 436.083 533.033 435.668 534.492 C435.232 536.013 434.796 537.534 434.359 539.055 C434.162 539.753 433.964 540.452 433.76 541.172 C432.802 544.464 431.748 547.522 430.391 550.684 C428.915 554.133 427.928 557.49 426.984 561.117 C424.931 568.546 424.931 568.546 422.859 571.867 C420.74 575.422 419.755 578.705 418.73 582.688 C417.808 585.459 416.433 587.619 414.922 590.117 C414.162 591.867 413.404 593.619 412.677 595.383 C409.525 603.034 405.786 610.12 401.474 617.181 C399.046 621.158 396.824 625.163 394.786 629.355 C393.63 631.713 392.41 633.952 390.922 636.117 C390.262 636.117 389.602 636.117 388.922 636.117 C388.821 636.846 388.721 637.574 388.617 638.324 C387.84 641.447 386.7 643.223 384.797 645.805 C384.161 646.68 383.526 647.555 382.871 648.457 C382.228 649.335 381.585 650.213 380.922 651.117 C379.814 652.698 378.709 654.281 377.609 655.867 C377.033 656.687 376.457 657.507 375.863 658.352 C374.834 659.818 373.805 661.286 372.785 662.76 C367.833 669.911 362.778 676.568 356.82 682.934 C355.112 684.898 353.882 686.702 352.672 688.992 C350.762 692.403 348.995 693.759 345.922 696.117 C343.501 698.707 341.227 701.424 338.922 704.117 C337.326 705.957 335.721 707.791 334.109 709.617 C333.36 710.473 332.611 711.329 331.84 712.211 C329.922 714.117 329.922 714.117 327.922 714.117 C327.922 714.777 327.922 715.437 327.922 716.117 C325.134 719.215 322.686 721.37 318.922 723.117 C318.592 723.777 318.262 724.437 317.922 725.117 C317.262 725.117 316.602 725.117 315.922 725.117 C315.922 725.777 315.922 726.437 315.922 727.117 C314.383 728.668 314.383 728.668 312.297 730.43 C311.57 731.046 310.843 731.662 310.094 732.297 C309.377 732.898 308.66 733.498 307.922 734.117 C307.329 734.635 306.736 735.154 306.125 735.688 C302.166 739.117 302.166 739.117 299.922 739.117 C299.922 739.777 299.922 740.437 299.922 741.117 C297.893 742.822 295.861 744.418 293.734 745.992 C292.574 746.864 291.414 747.737 290.254 748.609 C289.687 749.033 289.121 749.456 288.537 749.893 C287.09 750.99 285.672 752.125 284.258 753.266 C282.142 754.942 280.02 756.435 277.734 757.867 C276.723 758.509 276.723 758.509 275.691 759.164 C273.922 760.117 273.922 760.117 271.922 760.117 C271.922 760.777 271.922 761.437 271.922 762.117 C270.932 762.447 269.942 762.777 268.922 763.117 C267.916 764.112 266.917 765.113 265.922 766.117 C262.195 768.687 258.327 771.038 254.484 773.43 C253.454 774.081 252.423 774.733 251.361 775.404 C232.614 787.117 232.614 787.117 227.922 787.117 C227.592 788.107 227.262 789.097 226.922 790.117 C225.272 790.117 223.622 790.117 221.922 790.117 C221.922 790.777 221.922 791.437 221.922 792.117 C220.677 792.794 219.426 793.458 218.172 794.117 C217.476 794.488 216.78 794.86 216.062 795.242 C213.922 796.117 213.922 796.117 209.922 796.117 C209.922 796.777 209.922 797.437 209.922 798.117 C209.362 798.336 208.803 798.555 208.227 798.781 C203.286 800.735 198.406 802.782 193.547 804.93 C143.477 826.396 90.364 836.306 36.107 836.302 C32.457 836.305 28.807 836.323 25.156 836.342 C-18.849 836.449 -63.49 829.46 -104.629 813.426 C-107.554 812.316 -110.448 811.354 -113.453 810.492 C-123.791 807.511 -133.177 802.67 -142.711 797.762 C-146.839 795.659 -150.944 793.73 -155.266 792.055 C-159.441 790.419 -163.268 788.479 -167.078 786.117 C-168.72 785.105 -170.361 784.093 -172.003 783.081 C-173.701 782.032 -175.395 780.977 -177.09 779.922 C-179.39 778.533 -181.652 777.262 -184.078 776.117 C-184.078 775.457 -184.078 774.797 -184.078 774.117 C-184.8 773.828 -185.522 773.54 -186.266 773.242 C-188.87 772.201 -191.474 771.159 -194.078 770.117 C-194.078 769.457 -194.078 768.797 -194.078 768.117 C-194.609 768.033 -195.14 767.95 -195.688 767.863 C-198.971 766.838 -201.472 765.087 -204.328 763.18 C-205.406 762.469 -206.483 761.759 -207.594 761.027 C-208.824 760.082 -208.824 760.082 -210.078 759.117 C-210.078 758.457 -210.078 757.797 -210.078 757.117 C-210.635 756.849 -211.192 756.581 -211.766 756.305 C-215.565 754.354 -218.963 752.275 -222.203 749.492 C-224.895 746.978 -224.895 746.978 -228.078 746.117 C-228.078 745.457 -228.078 744.797 -228.078 744.117 C-228.656 743.849 -229.233 743.581 -229.828 743.305 C-232.134 742.088 -234.099 740.814 -236.078 739.117 C-236.078 738.457 -236.078 737.797 -236.078 737.117 C-236.635 736.89 -237.192 736.663 -237.766 736.43 C-240.71 734.758 -242.687 732.509 -245.078 730.117 C-246.068 729.457 -247.058 728.797 -248.078 728.117 C-251.165 726.059 -253.533 723.804 -256.078 721.117 C-256.738 720.457 -257.398 719.797 -258.078 719.117 C-258.078 718.127 -258.078 717.137 -258.078 716.117 C-258.763 715.932 -259.447 715.746 -260.152 715.555 C-264.281 713.526 -266.84 710.504 -269.891 707.117 C-270.488 706.475 -271.086 705.833 -271.701 705.172 C-276.078 700.39 -276.078 700.39 -276.078 698.117 C-276.975 697.721 -276.975 697.721 -277.89 697.316 C-280.167 696.069 -281.416 694.891 -283.094 692.93 C-283.622 692.314 -284.151 691.697 -284.695 691.062 C-285.504 690.1 -285.504 690.1 -286.328 689.117 C-286.882 688.475 -287.437 687.833 -288.008 687.172 C-292.078 682.38 -292.078 682.38 -292.078 680.117 C-292.738 680.117 -293.398 680.117 -294.078 680.117 C-295.094 678.46 -296.088 676.79 -297.078 675.117 C-300.03 671.155 -303.102 667.288 -306.266 663.492 C-308.143 661.033 -309.583 658.517 -311.07 655.812 C-312.159 653.889 -312.159 653.889 -314.203 651.492 C-316.092 649.099 -317.095 646.985 -318.078 644.117 C-318.738 644.117 -319.398 644.117 -320.078 644.117 C-320.476 643.381 -320.875 642.645 -321.285 641.887 C-321.815 640.911 -322.345 639.935 -322.891 638.93 C-323.413 637.967 -323.935 637.004 -324.473 636.012 C-325.529 634.108 -326.63 632.229 -327.777 630.379 C-329.078 628.117 -329.078 628.117 -329.078 626.117 C-329.738 626.117 -330.398 626.117 -331.078 626.117 C-331.913 624.385 -331.913 624.385 -332.766 622.617 C-334.236 619.656 -335.83 616.882 -337.641 614.117 C-339.688 610.919 -341.031 607.822 -342.27 604.246 C-343.532 600.922 -345.193 597.814 -346.805 594.648 C-348.048 592.178 -349.24 589.694 -350.391 587.18 C-350.717 586.469 -351.043 585.759 -351.379 585.027 C-352.078 583.117 -352.078 583.117 -352.078 580.117 C-352.738 580.117 -353.398 580.117 -354.078 580.117 C-355.269 577.02 -356.46 573.923 -357.648 570.824 C-358.551 568.485 -359.461 566.148 -360.383 563.816 C-362.86 557.515 -365.062 551.206 -366.988 544.715 C-367.774 542.122 -368.589 539.556 -369.449 536.988 C-372.549 527.649 -375.115 518.27 -377.328 508.68 C-377.697 507.082 -377.697 507.082 -378.074 505.452 C-379.455 499.316 -380.611 493.177 -381.603 486.966 C-382.043 484.325 -382.557 481.714 -383.105 479.094 C-384.228 473.592 -384.954 468.063 -385.641 462.492 C-385.766 461.527 -385.892 460.561 -386.021 459.566 C-388.062 443.219 -388.292 426.922 -388.318 410.468 C-388.328 406.85 -388.359 403.233 -388.391 399.615 C-388.493 376.875 -386.173 354.758 -381.564 332.501 C-380.771 328.611 -380.051 324.708 -379.328 320.805 C-379.086 319.509 -378.843 318.214 -378.594 316.879 C-378.339 315.512 -378.339 315.512 -378.078 314.117 C-377.418 314.117 -376.758 314.117 -376.078 314.117 C-375.941 313.116 -375.805 312.114 -375.664 311.082 C-374.332 301.791 -372.594 292.831 -369.078 284.117 C-368.603 282.152 -368.127 280.186 -367.66 278.219 C-366.788 275.069 -365.532 272.109 -364.281 269.094 C-363.079 266.12 -361.963 263.125 -360.859 260.115 C-358.581 253.921 -356.189 247.941 -353.078 242.117 C-351.885 239.766 -350.697 237.412 -349.516 235.055 C-348.937 233.909 -348.358 232.763 -347.762 231.582 C-346.087 228.135 -344.583 224.641 -343.078 221.117 C-342.075 219.025 -341.055 216.941 -340.016 214.867 C-339.509 213.851 -339.002 212.836 -338.48 211.789 C-337.078 209.117 -337.078 209.117 -335.078 206.117 C-334.418 206.117 -333.758 206.117 -333.078 206.117 C-332.81 205.395 -332.542 204.673 -332.266 203.93 C-331.078 201.117 -331.078 201.117 -329.641 198.742 C-327.97 196.089 -327.97 196.089 -326.773 192.875 C-325.125 188.979 -322.905 185.75 -320.391 182.367 C-319.954 181.77 -319.517 181.172 -319.066 180.556 C-318.174 179.336 -317.279 178.117 -316.381 176.899 C-315.14 175.201 -313.923 173.488 -312.715 171.766 C-312.01 170.768 -311.305 169.77 -310.578 168.742 C-309.949 167.848 -309.32 166.953 -308.672 166.031 C-308.146 165.4 -307.62 164.768 -307.078 164.117 C-306.418 164.117 -305.758 164.117 -305.078 164.117 C-305.078 163.457 -305.078 162.797 -305.078 162.117 C-304.418 162.117 -303.758 162.117 -303.078 162.117 C-302.832 161.398 -302.586 160.679 -302.332 159.938 C-300.933 156.792 -299.238 154.618 -297.016 151.992 C-293.242 147.51 -293.242 147.51 -289.555 142.957 C-288.758 141.958 -287.961 140.959 -287.141 139.93 C-286.41 139.008 -285.679 138.086 -284.926 137.137 C-284.316 136.47 -283.706 135.804 -283.078 135.117 C-282.418 135.117 -281.758 135.117 -281.078 135.117 C-280.81 134.478 -280.542 133.838 -280.266 133.18 C-279.078 131.117 -279.078 131.117 -276.078 130.117 C-275.655 129.264 -275.655 129.264 -275.223 128.395 C-273.647 125.259 -271.26 123.088 -268.766 120.68 C-268.292 120.215 -267.818 119.75 -267.33 119.271 C-265.915 117.884 -264.497 116.501 -263.078 115.117 C-262.198 114.198 -261.317 113.279 -260.41 112.332 C-258.078 110.117 -258.078 110.117 -255.078 109.117 C-255.078 108.457 -255.078 107.797 -255.078 107.117 C-253.617 105.609 -253.617 105.609 -251.703 103.992 C-251.077 103.453 -250.45 102.915 -249.805 102.359 C-248.078 101.117 -248.078 101.117 -246.078 101.117 C-246.078 100.457 -246.078 99.797 -246.078 99.117 C-243.603 98.127 -243.603 98.127 -241.078 97.117 C-241.078 96.457 -241.078 95.797 -241.078 95.117 C-238.99 93.303 -236.897 91.607 -234.703 89.93 C-234.063 89.434 -233.424 88.939 -232.764 88.428 C-228.439 85.101 -224.042 81.899 -219.535 78.82 C-215.73 76.183 -212.035 73.396 -208.328 70.621 C-206.078 69.117 -206.078 69.117 -204.078 69.117 C-204.078 68.457 -204.078 67.797 -204.078 67.117 C-203.135 66.663 -203.135 66.663 -202.172 66.199 C-197.295 63.812 -192.632 61.3 -188.066 58.363 C-185.238 56.591 -182.313 55.012 -179.383 53.414 C-177.146 52.155 -174.996 50.803 -172.828 49.43 C-159.773 41.514 -145.103 35.079 -130.828 29.68 C-127.483 28.412 -124.14 27.142 -120.812 25.828 C-108.807 21.101 -96.484 17.624 -84.078 14.117 C-82.487 13.653 -82.487 13.653 -80.863 13.18 C-63.1 8.193 -45.338 4.825 -27.041 2.508 C-24.642 2.192 -22.263 1.835 -19.879 1.43 C-13.251 0.38 -6.704 0.001 0 0 Z " fill="#F4C833" transform="translate(484.078125,85.8828125)" />
<path d="M0 0 C8.692 3.603 15.216 9.651 21.887 16.07 C24.604 18.673 27.455 21.014 30.438 23.312 C33.94 26.042 36.735 28.84 39.516 32.285 C42.34 35.548 45.71 38.223 49 41 C53.489 44.867 57.858 48.757 62 53 C66.881 57.975 71.811 62.783 77.102 67.32 C79.557 69.493 81.832 71.819 84.127 74.158 C85.927 75.928 87.781 77.582 89.695 79.227 C94.032 82.997 98.209 86.919 102.375 90.875 C112.73 100.804 112.73 100.804 123.652 110.09 C126 112 126 112 127.812 114.312 C130.822 118.01 134.366 120.931 138 124 C139.23 125.04 140.459 126.082 141.688 127.125 C142.207 127.561 142.726 127.996 143.262 128.445 C146.496 131.338 149.489 134.482 152.535 137.57 C153.369 138.413 154.203 139.256 155.062 140.125 C156.317 141.397 156.317 141.397 157.598 142.695 C159.895 145.003 159.895 145.003 162.309 146.68 C163.146 147.333 163.146 147.333 164 148 C164 148.66 164 149.32 164 150 C164.722 150.206 165.444 150.413 166.188 150.625 C169.808 152.395 171.468 154.898 174 158 C174.784 158.454 175.567 158.908 176.375 159.375 C178.875 160.923 180.034 162.09 181.875 164.312 C188.144 171.74 195.623 178.076 202.778 184.628 C206.018 187.595 209.251 190.569 212.462 193.566 C213.494 194.528 214.528 195.486 215.565 196.441 C221.535 201.969 226.629 207.016 229 215 C229.28 215.884 229.28 215.884 229.566 216.785 C231.531 226.818 230.544 237.829 226 247 C225.34 247.33 224.68 247.66 224 248 C223.044 249.714 222.089 251.429 221.141 253.148 C218.792 256.961 216.244 259.585 212 261 C212 261.66 212 262.32 212 263 C209.933 264.793 207.86 266.468 205.688 268.125 C205.045 268.62 204.403 269.115 203.741 269.625 C201.833 271.09 199.917 272.546 198 274 C197.094 274.699 196.188 275.397 195.254 276.117 C186.461 282.729 176.858 289.071 167 294 C166.67 294.99 166.34 295.98 166 297 C164.423 297.458 162.841 297.904 161.247 298.298 C156.369 299.822 151.9 302.47 147.375 304.812 C125.394 316 125.394 316 119 316 C119 316.66 119 317.32 119 318 C111.071 321.157 102.972 323.487 94.762 325.783 C90.058 327.105 85.419 328.491 80.812 330.125 C58.788 337.59 24.636 346.524 2.188 337.875 C-5.811 333.836 -13.331 328.858 -16.577 320.19 C-18.584 313.955 -18.451 307.769 -18.452 301.273 C-18.462 299.907 -18.474 298.541 -18.487 297.175 C-18.518 293.486 -18.529 289.798 -18.535 286.109 C-18.539 283.797 -18.547 281.485 -18.557 279.173 C-18.591 271.083 -18.608 262.993 -18.611 254.903 C-18.614 247.4 -18.654 239.897 -18.712 232.394 C-18.76 225.922 -18.781 219.451 -18.781 212.979 C-18.781 209.127 -18.792 205.275 -18.832 201.423 C-19.113 172.064 -19.113 172.064 -11 159 C-9.919 156.55 -8.996 154.076 -8.062 151.562 C-7.662 150.491 -7.261 149.42 -6.848 148.316 C-6.568 147.552 -6.288 146.788 -6 146 C-5.34 146 -4.68 146 -4 146 C-3.845 145.227 -3.845 145.227 -3.688 144.438 C-1.652 137.222 1.837 131.452 7 126 C7.713 125.646 8.426 125.291 9.16 124.926 C11.362 124.089 11.362 124.089 12 121 C12.66 121 13.32 121 14 121 C14.48 122.271 14.959 123.541 15.438 124.812 C15.838 125.874 15.838 125.874 16.246 126.957 C16.862 128.627 17.437 130.312 18 132 C19.782 133.142 19.782 133.142 22 134 C22.742 134.392 23.485 134.784 24.25 135.188 C28.126 136.333 31.029 135.673 35 135 C35.309 134.196 35.619 133.391 35.938 132.562 C37 130 37 130 38 129 C39.913 111.369 30.32 98.267 19.895 84.996 C18.017 83.018 16.504 82.027 14 81 C12.787 84.639 12.865 87.986 12.859 91.773 C12.841 93.336 12.821 94.898 12.801 96.461 C12.772 98.919 12.75 101.376 12.75 103.834 C12.746 106.21 12.712 108.585 12.672 110.961 C12.679 111.691 12.686 112.422 12.693 113.174 C12.599 117.141 12.164 118.807 9.566 121.876 C8.719 122.577 7.872 123.278 7 124 C5.409 125.856 3.868 127.743 2.332 129.645 C1.892 130.092 1.453 130.539 1 131 C0.34 131 -0.32 131 -1 131 C-1.309 132.207 -1.309 132.207 -1.625 133.438 C-3.111 137.288 -5.081 140.191 -7.414 143.566 C-9.992 147.522 -11.97 151.746 -14 156 C-14.601 157.21 -15.205 158.418 -15.812 159.625 C-16.4 160.801 -16.4 160.801 -17 162 C-17.33 162 -17.66 162 -18 162 C-18.07 143.006 -18.123 124.013 -18.155 105.019 C-18.171 96.199 -18.192 87.379 -18.226 78.56 C-18.256 70.869 -18.276 63.179 -18.282 55.489 C-18.286 51.419 -18.295 47.35 -18.317 43.281 C-18.338 39.445 -18.344 35.609 -18.339 31.772 C-18.34 30.37 -18.346 28.968 -18.358 27.566 C-18.496 9.972 -18.496 9.972 -13.796 3.287 C-9.725 -0.759 -5.328 -1.246 0 0 Z " fill="#F46B4B" transform="translate(535,529)" />
<path d="M0 0 C1.176 0.01 2.352 0.019 3.563 0.029 C15.925 0.212 28.209 1.17 40.521 2.236 C47.492 2.838 54.467 3.402 61.441 3.965 C62.516 4.052 62.516 4.052 63.613 4.141 C79.598 5.436 95.597 6.434 111.605 7.391 C133.449 8.699 155.264 10.205 177.072 12.022 C187.27 12.865 197.451 13.552 207.675 13.999 C213.836 14.27 219.965 14.688 226.105 15.266 C233.021 15.887 239.934 16.416 246.867 16.797 C289.371 19.133 289.371 19.133 301.668 32.141 C309.749 42.106 311.617 51.778 310.793 64.328 C308.814 83.279 303.401 101.53 296.576 119.235 C295.131 123.098 293.918 127.036 292.715 130.98 C291.732 133.483 290.419 135.203 288.793 137.328 C288.14 139.356 287.489 141.384 286.844 143.414 C279.234 164.517 266.891 184.264 253.793 202.328 C253.297 203.018 252.802 203.707 252.291 204.417 C247.015 211.69 242 218.231 233.793 222.328 C232.902 222.809 232.011 223.29 231.094 223.785 C222.116 228.136 213.104 228.986 203.418 226.441 C197.702 224.291 193.5 221.71 189.441 217.156 C187.64 215.159 185.711 213.45 183.668 211.703 C181.435 209.782 179.354 207.878 177.293 205.766 C175.188 203.713 173.166 202.099 170.793 200.391 C167.181 197.749 164.63 194.803 161.793 191.328 C159.868 189.562 157.887 187.874 155.898 186.18 C153.769 184.307 151.78 182.35 149.793 180.328 C146.65 177.142 143.393 174.17 140.004 171.25 C137.34 168.934 134.721 166.573 132.105 164.203 C130.769 162.993 130.769 162.993 129.406 161.758 C126.199 158.776 123.12 155.682 120.055 152.555 C117.108 149.557 114.107 146.692 110.918 143.953 C107.908 141.362 105.082 138.656 102.293 135.828 C97.487 130.964 92.469 126.444 87.105 122.203 C84.477 120.072 82.186 117.722 79.793 115.328 C77.569 113.331 75.326 111.357 73.074 109.391 C69.546 106.201 66.246 102.793 62.926 99.391 C56.787 92.966 56.787 92.966 49.855 87.453 C47.044 85.502 45.243 83.588 43.151 80.913 C41.608 79.112 39.937 77.639 38.133 76.102 C33.911 72.454 29.842 68.666 25.793 64.828 C24.298 63.417 22.804 62.005 21.309 60.594 C20.558 59.884 19.807 59.174 19.033 58.443 C10.592 50.473 2.118 42.535 -6.395 34.641 C-6.911 34.159 -7.428 33.678 -7.96 33.183 C-10.24 31.074 -12.535 29.074 -14.988 27.168 C-17.512 25.076 -18.26 23.427 -19.207 20.328 C-19.867 20.328 -20.527 20.328 -21.207 20.328 C-23.247 15.398 -24.614 11.749 -24.207 6.328 C-23.217 5.998 -22.227 5.668 -21.207 5.328 C-21.207 4.668 -21.207 4.008 -21.207 3.328 C-14.074 0.341 -7.675 -0.116 0 0 Z " fill="#F46B4B" transform="translate(569.20703125,505.671875)" />
<path d="M0 0 C3.733 1.135 7.48 2.222 11.23 3.299 C11.916 3.496 12.602 3.693 13.309 3.897 C14.699 4.296 16.09 4.696 17.481 5.096 C33.773 9.779 33.773 9.779 41.338 12.361 C44.477 13.389 47.657 14.187 50.859 15.002 C55.419 16.185 59.829 17.496 64.207 19.236 C68.724 20.891 73.404 22.063 78.033 23.361 C98.642 29.195 119.255 35.15 139.671 41.627 C146.516 43.793 153.409 45.755 160.318 47.704 C166.097 49.345 171.829 51.095 177.546 52.939 C184.996 55.341 192.501 57.485 200.046 59.564 C207.951 61.744 215.728 64.069 223.476 66.752 C229.174 68.673 234.998 70.212 240.803 71.772 C248.281 73.835 256.843 76.207 262.296 82.002 C263.359 84.877 263.359 84.877 263.296 88.002 C260.973 92.649 259.108 94.311 254.296 96.002 C253.966 96.992 253.636 97.982 253.296 99.002 C251.574 99.889 251.574 99.889 249.234 100.689 C243.557 102.789 238.271 105.466 232.919 108.272 C229.384 110.093 226.296 111.484 222.296 112.002 C222.296 112.662 222.296 113.322 222.296 114.002 C221.795 114.175 221.293 114.347 220.777 114.525 C211.912 117.818 203.725 122.437 195.403 126.883 C192.239 128.563 189.041 130.168 185.828 131.752 C183.238 133.031 180.66 134.332 178.082 135.634 C165.908 141.763 153.585 147.582 141.278 153.438 C129.224 159.178 117.213 164.982 105.296 171.002 C102.799 172.253 100.3 173.5 97.8 174.748 C95.994 175.653 94.189 176.562 92.386 177.475 C86.244 180.571 80.075 183.593 73.86 186.538 C63.998 191.216 54.202 196.012 44.449 200.912 C43.284 201.497 42.119 202.083 40.918 202.686 C36.13 205.094 31.342 207.505 26.557 209.92 C23.002 211.713 19.444 213.5 15.886 215.287 C14.808 215.833 13.73 216.379 12.619 216.941 C11.11 217.698 11.11 217.698 9.57 218.471 C8.693 218.913 7.816 219.355 6.913 219.81 C-1.995 223.867 -11.617 224.508 -21.098 222.162 C-32.566 217.79 -40.229 209.841 -45.704 199.002 C-46.787 196.287 -47.715 193.531 -48.622 190.752 C-49.009 189.574 -49.009 189.574 -49.404 188.372 C-65.144 139.553 -70.269 85.74 -61.704 35.002 C-61.564 34.174 -61.425 33.346 -61.282 32.494 C-58.816 18.822 -53.051 8.269 -41.704 0.002 C-27.77 -8.466 -14.617 -4.511 0 0 Z " fill="#F36B4B" transform="translate(209.70361328125,416.998046875)" />
<path d="M0 0 C1.718 -0.049 1.718 -0.049 3.471 -0.1 C11.317 -0.149 16.656 1.307 23.312 5.438 C24.406 6.077 25.499 6.716 26.625 7.375 C29.824 9.83 31.948 12.168 34.312 15.438 C34.312 16.428 34.312 17.417 34.312 18.438 C34.972 18.438 35.632 18.438 36.312 18.438 C36.975 20.202 37.616 21.975 38.25 23.75 C38.789 25.229 38.789 25.229 39.34 26.738 C41.538 35.097 41.48 43.917 41.618 52.518 C41.638 53.606 41.658 54.693 41.678 55.814 C41.743 59.514 41.8 63.214 41.855 66.914 C41.876 68.252 41.897 69.59 41.918 70.928 C42.527 110.781 42.569 150.641 42.602 190.499 C42.613 203.66 42.638 216.822 42.681 229.984 C42.711 239.387 42.726 248.791 42.73 258.194 C42.732 263.76 42.741 269.325 42.766 274.891 C42.789 280.074 42.794 285.257 42.783 290.441 C42.783 292.333 42.789 294.226 42.803 296.118 C42.939 315.922 42.939 315.922 36.904 323.117 C34.641 324.995 32.459 325.085 29.586 325 C25.078 323.885 21.51 320.709 18.312 317.438 C18.312 316.777 18.312 316.118 18.312 315.438 C17.653 315.438 16.993 315.438 16.312 315.438 C14.867 313.82 14.867 313.82 13.188 311.562 C10.562 308.089 7.91 304.648 5.188 301.25 C4.525 300.421 3.862 299.592 3.18 298.738 C1.587 296.776 -0.038 294.852 -1.688 292.938 C-3.688 290.438 -3.688 290.438 -3.688 288.438 C-4.347 288.438 -5.007 288.438 -5.688 288.438 C-7.041 286.95 -8.319 285.393 -9.562 283.812 C-13.189 279.277 -16.89 274.831 -20.688 270.438 C-25.101 265.319 -29.415 260.13 -33.676 254.883 C-35.475 252.696 -37.312 250.558 -39.188 248.438 C-42.618 244.559 -45.872 240.549 -49.133 236.527 C-51.027 234.214 -52.967 231.947 -54.93 229.691 C-55.48 229.058 -56.03 228.425 -56.597 227.772 C-57.686 226.522 -58.78 225.275 -59.878 224.033 C-63.688 219.657 -63.688 219.657 -63.688 217.438 C-64.678 217.107 -65.668 216.778 -66.688 216.438 C-68.038 215.071 -68.038 215.071 -69.387 213.348 C-69.873 212.728 -70.36 212.109 -70.861 211.471 C-71.611 210.495 -71.611 210.495 -72.375 209.5 C-72.886 208.854 -73.397 208.207 -73.924 207.541 C-77.688 202.702 -77.688 202.702 -77.688 200.438 C-78.274 200.196 -78.861 199.955 -79.465 199.707 C-82.126 198.187 -83.401 196.565 -85.25 194.125 C-88.497 189.939 -91.821 185.849 -95.25 181.812 C-95.717 181.261 -96.184 180.709 -96.666 180.14 C-99.891 176.341 -103.18 172.604 -106.543 168.926 C-107.688 167.438 -107.688 167.438 -107.688 165.438 C-108.347 165.438 -109.007 165.438 -109.688 165.438 C-111.126 163.868 -112.488 162.229 -113.812 160.562 C-114.621 159.554 -115.429 158.546 -116.262 157.508 C-117.746 155.629 -119.228 153.75 -120.707 151.867 C-125.004 146.424 -129.526 141.282 -134.227 136.184 C-137.275 132.782 -140.103 129.239 -142.898 125.629 C-144.676 123.365 -144.676 123.365 -146.914 121.277 C-148.688 119.438 -148.688 119.438 -148.688 117.438 C-149.348 117.438 -150.007 117.438 -150.688 117.438 C-152.224 115.551 -153.654 113.667 -155.062 111.688 C-158.206 107.312 -158.206 107.312 -161.836 103.355 C-166.779 98.235 -167.954 90.749 -168.125 83.875 C-167.644 71.159 -162.739 61.902 -153.438 53.25 C-141.838 43.578 -128.307 37.715 -114.688 31.438 C-113.846 31.049 -113.005 30.66 -112.138 30.259 C-102.437 25.796 -92.643 21.741 -82.596 18.125 C-80.68 17.435 -78.77 16.732 -76.859 16.027 C-71.528 14.082 -66.299 12.289 -60.776 10.956 C-57.93 10.25 -55.116 9.441 -52.296 8.636 C-35.082 3.734 -17.962 0.092 0 0 Z " fill="#F36C4C" transform="translate(466.6875,143.5625)" />
<path d="M0 0 C1.856 0.681 1.856 0.681 3.75 1.375 C7.267 3.133 9.349 5.128 12 8 C12.99 8.66 13.98 9.32 15 10 C15.33 10.99 15.66 11.98 16 13 C17.63 14.703 19.302 16.365 21 18 C26.116 23.424 31.069 28.879 35.453 34.914 C41.47 43.028 48.207 50.538 55 58 C58.993 62.415 62.787 66.964 66.514 71.605 C71.767 78.143 77.152 84.448 82.899 90.557 C86.218 94.102 89.247 97.752 92.164 101.629 C94.499 104.644 96.962 107.537 99.438 110.438 C102.737 114.303 105.98 118.194 109.125 122.188 C111.742 125.494 114.46 128.645 117.312 131.75 C122.434 137.366 127.056 143.333 131.708 149.335 C136.238 155.173 140.699 160.839 146 166 C151.802 172.437 157.154 179.284 162.629 185.998 C168.988 193.788 175.369 201.493 182.156 208.914 C189 216.657 189 216.657 189 220 C189.66 220 190.32 220 191 220 C194.343 223.744 194.875 226.596 195.312 231.5 C195 235 195 235 193.25 237.375 C188.476 240.823 182.673 240.558 177 240 C172.578 238.92 168.306 237.468 164 236 C162.065 235.387 160.128 234.783 158.188 234.188 C156.594 233.696 156.594 233.696 154.969 233.195 C148.668 231.282 142.335 229.474 136.01 227.642 C130.212 225.956 124.438 224.217 118.688 222.375 C112.064 220.271 105.386 218.47 98.643 216.787 C94.31 215.687 90.191 214.363 86.024 212.746 C82.374 211.401 78.623 210.411 74.875 209.375 C65.886 206.85 56.938 204.199 48 201.5 C38.365 198.591 28.712 195.759 19.022 193.036 C12.746 191.255 6.576 189.245 0.422 187.078 C-2.186 186.256 -4.668 185.608 -7.332 185.043 C-12.14 184.016 -16.766 182.584 -21.438 181.062 C-30.547 178.126 -39.699 175.368 -48.891 172.704 C-54.264 171.146 -59.632 169.573 -65 168 C-65.64 167.813 -66.28 167.625 -66.939 167.432 C-71.003 166.243 -75.065 165.046 -79.125 163.842 C-80.448 163.45 -81.772 163.061 -83.096 162.673 C-84.964 162.126 -86.83 161.571 -88.695 161.016 C-89.768 160.699 -90.841 160.382 -91.946 160.056 C-95.13 158.955 -98.023 157.57 -101 156 C-101 155.34 -101 154.68 -101 154 C-101.588 153.918 -102.176 153.835 -102.781 153.75 C-107.221 152.249 -109.472 147.742 -112 144 C-112.442 143.363 -112.884 142.726 -113.34 142.07 C-117.871 134.039 -117.687 122.323 -115.36 113.6 C-113.639 108.544 -111.41 103.759 -109 99 C-108.648 98.293 -108.297 97.587 -107.935 96.859 C-106.961 94.903 -105.982 92.951 -105 91 C-104.134 89.267 -104.134 89.267 -103.25 87.5 C-102.838 86.675 -102.425 85.85 -102 85 C-101.34 85 -100.68 85 -100 85 C-99.866 84.41 -99.732 83.819 -99.594 83.211 C-96.321 71.026 -86.314 59.102 -79 49 C-78.336 48.08 -77.672 47.159 -76.988 46.211 C-46.191 4.3 -46.191 4.3 -26 -1 C-24.866 -1.392 -23.731 -1.784 -22.562 -2.188 C-14.407 -4.048 -7.679 -3.103 0 0 Z " fill="#F36B4B" transform="translate(289,246)" />
<path d="M0 0 C1.805 1.766 1.805 1.766 2.336 3.93 C2.253 10.434 0.831 15.049 -2.195 20.766 C-2.947 22.286 -3.697 23.807 -4.445 25.328 C-5.312 27.03 -5.312 27.03 -6.195 28.766 C-6.855 28.766 -7.515 28.766 -8.195 28.766 C-8.458 29.637 -8.721 30.508 -8.992 31.406 C-10.185 34.737 -11.628 37.487 -13.445 40.516 C-14.069 41.562 -14.693 42.609 -15.336 43.688 C-16.256 45.211 -16.256 45.211 -17.195 46.766 C-17.706 47.616 -18.216 48.467 -18.742 49.344 C-19.713 50.962 -20.686 52.579 -21.66 54.195 C-23.94 58.012 -26.163 61.861 -28.387 65.711 C-29.72 67.963 -31.079 70.179 -32.477 72.391 C-35.829 77.729 -38.971 83.188 -42.133 88.641 C-53.989 109.065 -53.989 109.065 -58.195 115.203 C-60.863 119.16 -63.135 123.245 -65.387 127.449 C-71.785 139.182 -78.688 150.641 -85.582 162.087 C-89.779 169.06 -93.928 176.06 -98.062 183.071 C-101.049 188.134 -104.042 193.194 -107.047 198.246 C-114.536 210.843 -121.956 223.472 -129.236 236.19 C-132.1 241.184 -135.008 246.127 -138.09 250.99 C-140.411 254.719 -142.504 258.587 -144.645 262.422 C-145.156 263.195 -145.668 263.969 -146.195 264.766 C-146.855 264.766 -147.515 264.766 -148.195 264.766 C-148.443 265.384 -148.69 266.003 -148.945 266.641 C-150.402 269.116 -151.573 269.717 -154.195 270.766 C-154.195 271.426 -154.195 272.086 -154.195 272.766 C-155.443 273.417 -156.693 274.061 -157.945 274.703 C-158.641 275.063 -159.337 275.422 -160.055 275.793 C-167.04 278.967 -176.505 279.029 -183.863 277.047 C-186.072 276.078 -188.114 274.982 -190.195 273.766 C-190.907 273.415 -191.618 273.064 -192.352 272.703 C-201.091 268.272 -208.372 261.716 -215.195 254.766 C-216.092 253.868 -216.99 252.971 -217.914 252.047 C-220.674 249.286 -223.435 246.526 -226.195 243.766 C-227.027 242.942 -227.858 242.118 -228.715 241.27 C-231.329 238.63 -233.869 235.938 -236.383 233.203 C-237.243 232.274 -238.102 231.344 -238.988 230.387 C-241.195 227.766 -241.195 227.766 -242.184 225.738 C-243.651 222.877 -245.912 221.019 -248.195 218.766 C-250.138 216.463 -251.98 214.087 -253.82 211.703 C-254.297 211.091 -254.774 210.48 -255.266 209.85 C-256.179 208.676 -257.09 207.499 -257.997 206.32 C-258.997 205.023 -260.012 203.739 -261.031 202.457 C-262.195 200.766 -262.195 200.766 -262.195 198.766 C-262.855 198.766 -263.515 198.766 -264.195 198.766 C-264.711 197.652 -265.227 196.538 -265.758 195.391 C-267.412 192.059 -269.306 189.136 -271.508 186.141 C-280.702 173.353 -284.322 161.444 -283.195 145.766 C-281.497 137.185 -275.773 130.04 -268.781 125.039 C-263.614 121.619 -258.568 118.935 -252.77 116.777 C-247.744 114.802 -243 112.219 -238.195 109.766 C-235.614 108.469 -233.03 107.18 -230.445 105.891 C-229.088 105.212 -227.732 104.534 -226.375 103.855 C-219.648 100.492 -212.922 97.129 -206.195 93.766 C-205.136 93.195 -204.076 92.624 -202.984 92.035 C-200.195 90.766 -200.195 90.766 -196.195 90.766 C-196.195 90.106 -196.195 89.446 -196.195 88.766 C-180.714 80.852 -180.714 80.852 -174.883 78.641 C-170.44 76.946 -166.406 74.761 -162.258 72.445 C-153.415 67.595 -144.284 63.276 -135.183 58.939 C-120.967 52.165 -106.883 45.144 -92.82 38.06 C-83.849 33.547 -74.847 29.123 -65.743 24.884 C-60.473 22.418 -55.32 19.772 -50.195 17.016 C-44.788 14.11 -39.367 11.41 -33.738 8.949 C-30.946 7.65 -28.308 6.166 -25.633 4.641 C-18.558 0.731 -7.864 -4.422 0 0 Z " fill="#F36B4B" transform="translate(482.1953125,521.234375)" />
<path d="M0 0 C4.169 1.924 4.897 3.829 6.523 7.98 C8.456 14.681 8.401 21.234 8.404 28.15 C8.41 29.922 8.41 29.922 8.417 31.729 C8.428 34.998 8.435 38.268 8.439 41.538 C8.445 45.068 8.457 48.598 8.468 52.127 C8.492 60.647 8.507 69.167 8.52 77.686 C8.523 80.094 8.527 82.502 8.531 84.91 C8.557 99.875 8.579 114.84 8.591 129.805 C8.594 133.268 8.597 136.732 8.6 140.195 C8.601 141.056 8.602 141.916 8.602 142.803 C8.615 156.743 8.648 170.683 8.69 184.623 C8.732 198.947 8.756 213.271 8.761 227.595 C8.765 235.633 8.776 243.67 8.809 251.708 C8.837 258.553 8.848 265.399 8.837 272.244 C8.832 275.734 8.835 279.222 8.859 282.711 C8.882 286.504 8.874 290.295 8.858 294.088 C8.872 295.177 8.886 296.266 8.9 297.389 C8.811 306.098 6.106 312.789 2.25 320.5 C1.59 320.5 0.93 320.5 0.25 320.5 C-0.001 321.088 -0.253 321.676 -0.512 322.281 C-3.898 328.349 -10.459 331.717 -16.812 333.938 C-36.956 339.245 -60.186 333.287 -79.607 327.376 C-82.647 326.529 -85.63 325.959 -88.75 325.5 C-88.75 324.84 -88.75 324.18 -88.75 323.5 C-89.822 323.418 -90.895 323.335 -92 323.25 C-102.057 321.975 -111.51 317.451 -120.75 313.5 C-122.875 312.624 -125 311.749 -127.125 310.875 C-131.09 309.226 -134.953 307.504 -138.75 305.5 C-138.75 304.84 -138.75 304.18 -138.75 303.5 C-139.575 303.314 -140.4 303.129 -141.25 302.938 C-150.613 299.092 -155.986 291.113 -159.785 282.023 C-162.472 274.15 -163.289 265.489 -159.918 257.703 C-157.788 253.685 -155.366 249.855 -152.938 246.012 C-150.703 242.464 -148.623 238.838 -146.562 235.188 C-143.243 229.327 -139.769 223.609 -136.102 217.961 C-132.661 212.628 -129.474 207.247 -126.48 201.652 C-121.712 192.966 -116.558 184.482 -111.438 176 C-109.684 173.094 -108.001 170.166 -106.375 167.188 C-103.06 161.155 -99.372 155.351 -95.75 149.5 C-92.634 144.421 -89.628 139.315 -86.812 134.062 C-84.226 129.262 -81.366 124.698 -78.406 120.121 C-76.469 117.055 -74.72 113.914 -72.984 110.73 C-70.094 105.509 -66.95 100.432 -63.801 95.363 C-59.967 89.192 -56.316 83.001 -52.977 76.547 C-51.75 74.5 -51.75 74.5 -49.75 73.5 C-49.061 71.882 -48.378 70.262 -47.715 68.633 C-46.241 65.375 -44.349 62.404 -42.48 59.359 C-40.55 56.17 -38.709 52.933 -36.875 49.688 C-33.735 44.155 -30.457 38.728 -27.082 33.336 C-25.194 30.277 -23.41 27.166 -21.637 24.039 C-21.079 23.066 -20.521 22.093 -19.946 21.09 C-18.842 19.159 -17.749 17.222 -16.669 15.277 C-12.774 8.506 -8.251 1.1 0 0 Z " fill="#F36C4C" transform="translate(500.75,533.5)" />
<path d="M0 0 C0.33 0 0.66 0 1 0 C1.117 21.714 1.205 43.429 1.259 65.144 C1.285 75.227 1.32 85.31 1.377 95.393 C1.427 104.184 1.459 112.976 1.47 121.767 C1.477 126.42 1.492 131.072 1.529 135.724 C1.563 140.11 1.573 144.495 1.566 148.88 C1.567 150.484 1.577 152.087 1.596 153.69 C1.704 163.119 0.924 170.654 -4 179 C-4.66 179 -5.32 179 -6 179 C-6.251 179.588 -6.503 180.176 -6.762 180.781 C-10.148 186.849 -16.709 190.217 -23.062 192.438 C-43.206 197.745 -66.436 191.787 -85.857 185.876 C-88.897 185.029 -91.88 184.459 -95 184 C-95 183.34 -95 182.68 -95 182 C-96.072 181.918 -97.145 181.835 -98.25 181.75 C-108.307 180.475 -117.76 175.951 -127 172 C-129.125 171.124 -131.25 170.249 -133.375 169.375 C-137.34 167.726 -141.203 166.004 -145 164 C-145 163.34 -145 162.68 -145 162 C-146.33 161.629 -146.33 161.629 -147.688 161.25 C-151.808 159.695 -154.873 157.941 -157.125 154.062 C-157 152 -157 152 -154.812 149.312 C-152.122 147.101 -151.188 146.72 -148 146 C-147.417 145.401 -146.835 144.801 -146.234 144.184 C-143.765 141.771 -141.325 140.302 -138.312 138.625 C-133.627 135.97 -129.15 133.158 -124.742 130.066 C-123 129 -123 129 -121 129 C-121 128.34 -121 127.68 -121 127 C-119.199 125.555 -119.199 125.555 -116.688 123.875 C-112.777 121.212 -108.897 118.521 -105.062 115.75 C-103.719 114.783 -103.719 114.783 -102.348 113.797 C-100.378 112.29 -98.71 110.783 -97 109 C-91.465 104 -91.465 104 -89 104 C-89 103.34 -89 102.68 -89 102 C-85.538 99 -85.538 99 -83 99 C-83 98.34 -83 97.68 -83 97 C-77.524 92 -77.524 92 -75 92 C-74.01 90.02 -74.01 90.02 -73 88 C-72.34 88 -71.68 88 -71 88 C-71 87.34 -71 86.68 -71 86 C-69.645 84.668 -69.645 84.668 -67.812 83.188 C-63.667 79.743 -59.957 76.149 -56.5 72 C-54.126 69.151 -51.623 66.619 -49 64 C-46.751 61.644 -44.53 59.261 -42.312 56.875 C-41.441 55.945 -41.441 55.945 -40.553 54.996 C-39.995 54.397 -39.438 53.797 -38.863 53.18 C-38.361 52.641 -37.859 52.102 -37.341 51.546 C-35.796 49.83 -35.796 49.83 -34 47 C-33.34 47 -32.68 47 -32 47 C-31.929 46.455 -31.858 45.909 -31.785 45.348 C-30.683 42.053 -28.716 40.049 -26.438 37.438 C-16.99 26.415 -9.069 14.403 -1.418 2.09 C-0.716 1.055 -0.716 1.055 0 0 Z " fill="#F46A4A" transform="translate(507,675)" />
<path d="M0 0 C0.99 0.495 0.99 0.495 2 1 C2 1.66 2 2.32 2 3 C2.909 3.398 2.909 3.398 3.836 3.805 C6.096 5.053 7.083 6.091 8.625 8.125 C11.862 12.079 15.644 15.027 19.672 18.145 C22.314 20.25 24.613 22.613 27 25 C27.928 25.557 28.856 26.114 29.812 26.688 C30.534 27.121 31.256 27.554 32 28 C32 28.66 32 29.32 32 30 C32.66 30 33.32 30 34 30 C34 30.66 34 31.32 34 32 C34.536 32.227 35.072 32.454 35.625 32.688 C38.753 34.416 41.262 36.709 44 39 C45.657 40.016 47.326 41.013 49 42 C50.273 42.799 51.544 43.603 52.812 44.41 C53.837 45.059 53.837 45.059 54.883 45.721 C56.296 46.616 57.707 47.515 59.117 48.416 C62.657 50.65 66.018 52.624 70 54 C70 54.66 70 55.32 70 56 C70.784 56.247 71.567 56.495 72.375 56.75 C76.984 58.339 81.485 60.162 86 62 C86 62.66 86 63.32 86 64 C86.606 64.182 87.212 64.364 87.836 64.551 C89.606 65.082 91.375 65.614 93.145 66.148 C94.951 66.687 96.76 67.215 98.574 67.727 C99.395 67.961 100.216 68.196 101.062 68.438 C101.796 68.642 102.529 68.847 103.285 69.059 C105.66 69.882 107.791 70.846 110.055 71.926 C115.545 74.406 121.178 75.569 127.062 76.75 C128.119 76.97 129.175 77.191 130.264 77.418 C132.841 77.954 135.419 78.481 138 79 C136.675 81.651 135.391 81.937 132.717 83.177 C131.807 83.605 130.896 84.033 129.958 84.473 C128.963 84.935 127.967 85.396 126.941 85.871 C118.541 89.824 110.193 93.857 101.902 98.035 C100.915 98.532 99.928 99.028 98.911 99.54 C94.886 101.565 90.864 103.594 86.843 105.627 C83.843 107.141 80.842 108.651 77.84 110.16 C76.937 110.618 76.034 111.077 75.103 111.549 C64.536 116.853 54.277 119.048 42.605 116.16 C31.137 111.788 23.477 103.839 18 93 C16.918 90.295 15.99 87.55 15.086 84.781 C14.828 83.997 14.57 83.214 14.304 82.406 C11.541 73.833 9.357 65.143 7.312 56.375 C7.023 55.144 7.023 55.144 6.727 53.889 C2.583 36.203 -0.963 18.259 0 0 Z " fill="#F26B4B" transform="translate(146,523)" />
<path d="M0 0 C9.56 2.242 18.927 4.844 28.274 7.856 C33.226 9.45 38.188 10.903 43.219 12.23 C46.732 13.203 50.21 14.283 53.688 15.375 C54.367 15.588 55.047 15.802 55.747 16.021 C59.175 17.101 62.599 18.192 66.02 19.293 C72.539 21.379 79.023 23.291 85.688 24.875 C92.901 26.592 99.855 28.895 106.868 31.29 C114.782 33.975 122.775 36.282 130.82 38.535 C135.881 39.954 140.91 41.469 145.938 43 C154.051 45.464 162.208 47.734 170.404 49.908 C176.014 51.408 181.506 53.124 187 55 C200.538 59.335 214.222 63.302 227.922 67.094 C235.982 69.33 243.895 71.919 251.807 74.627 C252.666 74.919 253.525 75.211 254.41 75.512 C255.175 75.774 255.939 76.037 256.727 76.307 C264.315 78.619 272.626 79.318 280 76 C280.66 75.34 281.32 74.68 282 74 C281.494 76.169 281 78 280 80 C268.242 80.367 257.475 79.626 246 77 C246.33 77.99 246.66 78.98 247 80 C248.65 80.33 250.3 80.66 252 81 C252 81.66 252 82.32 252 83 C242.744 81.047 233.761 78.706 224.812 75.625 C217.62 73.148 210.417 70.944 203.062 69 C194.537 66.747 186.151 64.189 177.765 61.467 C171.462 59.433 165.148 57.668 158.734 56.016 C154.469 54.856 150.27 53.539 146.062 52.188 C135.795 48.894 125.452 45.887 115.094 42.896 C111.005 41.712 106.919 40.516 102.833 39.321 C95.941 37.305 89.048 35.293 82.141 33.332 C80.731 32.932 80.731 32.932 79.294 32.524 C77.542 32.027 75.789 31.533 74.036 31.041 C70.116 29.931 66.234 28.763 62.375 27.453 C57.229 25.71 52.012 24.4 46.746 23.062 C43.56 22.159 40.548 21.064 37.462 19.875 C31.693 17.825 25.76 16.247 19.875 14.562 C18.536 14.177 17.198 13.791 15.859 13.404 C13.21 12.64 10.56 11.88 7.91 11.123 C5.301 10.376 2.696 9.618 0.094 8.85 C-1.133 8.491 -2.36 8.132 -3.625 7.762 C-4.713 7.44 -5.801 7.119 -6.922 6.788 C-11.25 5.68 -15.545 5.205 -20 5 C-20 4.67 -20 4.34 -20 4 C-17.042 3.973 -14.083 3.953 -11.125 3.938 C-9.862 3.925 -9.862 3.925 -8.574 3.912 C-7.769 3.909 -6.963 3.906 -6.133 3.902 C-5.017 3.894 -5.017 3.894 -3.879 3.886 C-2 4 -2 4 0 5 C0 5.66 0 6.32 0 7 C0.99 6.34 1.98 5.68 3 5 C3.99 5 4.98 5 6 5 C6 5.99 6 6.98 6 8 C7.32 7.67 8.64 7.34 10 7 C9.34 6.67 8.68 6.34 8 6 C8 5.34 8 4.68 8 4 C5.36 3.34 2.72 2.68 0 2 C0 1.34 0 0.68 0 0 Z " fill="#FADDC9" transform="translate(202,407)" />
<path d="M0 0 C0.33 0 0.66 0 1 0 C1.33 47.52 1.66 95.04 2 144 C3.65 140.04 5.3 136.08 7 132 C8.879 128.668 8.879 128.668 10.562 126.188 C13.211 122.197 15.674 118.186 18 114 C18.66 114 19.32 114 20 114 C20.206 113.464 20.413 112.928 20.625 112.375 C22.533 109.08 25.048 106.406 28 104 C28.66 104 29.32 104 30 104 C30.02 102.905 30.04 101.811 30.06 100.683 C30.136 96.611 30.225 92.539 30.317 88.467 C30.356 86.706 30.39 84.946 30.422 83.185 C30.468 80.651 30.526 78.116 30.586 75.582 C30.597 74.799 30.609 74.015 30.621 73.208 C30.732 69.057 31.145 65.739 33 62 C33.33 62.66 33.66 63.32 34 64 C34.889 64.41 34.889 64.41 35.797 64.828 C44.719 69.574 50.489 82.296 55 91 C55.384 91.73 55.768 92.459 56.164 93.211 C58.95 99.383 59.555 107.717 57.238 114.098 C55.409 117.04 53.359 119.16 50 120 C44.318 119.82 41.039 119.264 37 115 C34.386 111.315 33 108.647 33 104 C24.375 110.766 18.309 118.488 15 129 C14.34 129 13.68 129 13 129 C12.905 129.663 12.809 130.325 12.711 131.008 C11.795 134.862 10.254 138.274 8.625 141.875 C8.013 143.247 7.401 144.62 6.789 145.992 C6.382 146.895 6.382 146.895 5.967 147.816 C5.648 148.537 5.329 149.257 5 150 C4.493 150.919 3.985 151.838 3.463 152.785 C1.057 158.462 1.592 164.57 1.628 170.627 C1.625 172.006 1.622 173.385 1.617 174.763 C1.607 178.493 1.617 182.222 1.63 185.951 C1.641 189.862 1.637 193.774 1.635 197.685 C1.634 204.252 1.645 210.818 1.664 217.385 C1.685 224.967 1.688 232.548 1.682 240.13 C1.677 247.437 1.682 254.744 1.693 262.051 C1.698 265.154 1.699 268.258 1.697 271.361 C1.695 275.019 1.703 278.676 1.719 282.334 C1.725 284.309 1.722 286.284 1.718 288.259 C1.753 294.214 1.919 299.392 4 305 C3.01 305 2.02 305 1 305 C-1.628 296.266 -2.425 288.278 -2.356 279.185 C-2.357 277.847 -2.359 276.508 -2.363 275.17 C-2.368 271.575 -2.354 267.981 -2.337 264.387 C-2.322 260.613 -2.323 256.84 -2.322 253.067 C-2.319 246.744 -2.304 240.422 -2.281 234.099 C-2.252 225.979 -2.242 217.859 -2.238 209.739 C-2.234 202.748 -2.221 195.758 -2.207 188.767 C-2.203 186.522 -2.2 184.277 -2.197 182.031 C-2.192 177.861 -2.177 173.691 -2.161 169.521 C-2.16 168.275 -2.159 167.03 -2.158 165.746 C-2.152 164.617 -2.146 163.487 -2.14 162.323 C-2.137 161.337 -2.134 160.352 -2.131 159.337 C-2 157 -2 157 -1 155 C-0.894 152.96 -0.853 150.917 -0.842 148.875 C-0.832 147.568 -0.822 146.261 -0.812 144.915 C-0.806 143.458 -0.8 142.001 -0.795 140.544 C-0.785 139.017 -0.775 137.49 -0.765 135.962 C-0.738 131.808 -0.717 127.653 -0.697 123.498 C-0.675 119.159 -0.647 114.82 -0.621 110.482 C-0.571 102.262 -0.526 94.042 -0.483 85.822 C-0.433 76.465 -0.378 67.108 -0.323 57.752 C-0.209 38.501 -0.102 19.251 0 0 Z " fill="#FADFC9" transform="translate(516,546)" />
<path d="M0 0 C0.33 0 0.66 0 1 0 C1 95.7 1 191.4 1 290 C0.67 290 0.34 290 0 290 C-0.33 236.21 -0.66 182.42 -1 127 C-7.556 136.462 -7.556 136.462 -14 146 C-15.917 148.677 -17.898 151.305 -19.875 153.938 C-20.379 154.615 -20.883 155.292 -21.402 155.99 C-24.384 159.967 -27.472 163.771 -30.805 167.459 C-32.22 169.108 -32.22 169.108 -33 172 C-34.631 173.701 -36.305 175.362 -38 177 C-40.024 179.144 -42.01 181.324 -44 183.5 C-46.834 186.6 -49.67 189.671 -52.645 192.637 C-55.427 195.429 -57.927 198.4 -60.449 201.426 C-60.961 201.945 -61.473 202.465 -62 203 C-62.66 203 -63.32 203 -64 203 C-64.248 203.577 -64.495 204.155 -64.75 204.75 C-66.183 207.329 -67.784 209.061 -70 211 C-70.66 211 -71.32 211 -72 211 C-72 211.66 -72 212.32 -72 213 C-73.609 214.656 -73.609 214.656 -75.75 216.5 C-76.446 217.108 -77.142 217.717 -77.859 218.344 C-79.845 219.88 -81.719 220.972 -84 222 C-84 222.66 -84 223.32 -84 224 C-87.462 227 -87.462 227 -90 227 C-90 227.66 -90 228.32 -90 229 C-91.68 230.508 -91.68 230.508 -93.875 232.125 C-94.594 232.664 -95.314 233.203 -96.055 233.758 C-98 235 -98 235 -100 235 C-100.235 235.59 -100.469 236.181 -100.711 236.789 C-102.304 239.521 -103.992 240.639 -106.625 242.375 C-110.675 245.093 -114.57 247.923 -118.406 250.934 C-120 252 -120 252 -122 252 C-122 252.66 -122 253.32 -122 254 C-124.471 255.694 -126.937 257.27 -129.5 258.812 C-130.544 259.452 -130.544 259.452 -131.609 260.104 C-133.02 260.967 -134.433 261.826 -135.848 262.682 C-138.713 264.437 -141.535 266.259 -144.354 268.089 C-146 269 -146 269 -148 269 C-148.33 269.99 -148.66 270.98 -149 272 C-151.615 273.239 -154.255 274.085 -157 275 C-157 276.65 -157 278.3 -157 280 C-160.68 276.618 -162.979 273.575 -165 269 C-163.804 268.587 -162.608 268.175 -161.375 267.75 C-157.514 266.322 -154.414 264.302 -151 262 C-150.01 262 -149.02 262 -148 262 C-148 261.34 -148 260.68 -148 260 C-142.25 257 -142.25 257 -140 257 C-140 256.34 -140 255.68 -140 255 C-137.91 253.484 -137.91 253.484 -135.062 251.75 C-130.547 248.967 -126.137 246.086 -121.777 243.066 C-120 242 -120 242 -118 242 C-118 241.34 -118 240.68 -118 240 C-116.61 239.033 -115.212 238.075 -113.782 237.168 C-110.663 235.123 -107.79 232.76 -104.875 230.438 C-103.097 229.028 -101.319 227.619 -99.538 226.214 C-98.254 225.2 -96.974 224.181 -95.695 223.16 C-94 222 -94 222 -92 222 C-92 221.34 -92 220.68 -92 220 C-86.524 215 -86.524 215 -84 215 C-84 214.34 -84 213.68 -84 213 C-83.34 213 -82.68 213 -82 213 C-82 212.34 -82 211.68 -82 211 C-80.68 210.67 -79.36 210.34 -78 210 C-78 209.34 -78 208.68 -78 208 C-76.32 206.273 -76.32 206.273 -74.125 204.375 C-73.406 203.743 -72.686 203.112 -71.945 202.461 C-70 201 -70 201 -68 201 C-67.773 200.423 -67.546 199.845 -67.312 199.25 C-65.653 196.405 -63.579 195.063 -61 193 C-59.228 191.067 -57.532 189.079 -55.828 187.086 C-52.225 182.974 -48.267 179.208 -44.312 175.438 C-41.853 172.987 -41.853 172.987 -39.812 169.688 C-39.214 168.801 -38.616 167.914 -38 167 C-37.34 167 -36.68 167 -36 167 C-35.732 166.361 -35.464 165.721 -35.188 165.062 C-34 163 -34 163 -31 162 C-31 161.34 -31 160.68 -31 160 C-30.34 160 -29.68 160 -29 160 C-28.752 159.278 -28.505 158.556 -28.25 157.812 C-26.877 154.724 -25.276 152.49 -23 150 C-22.34 150 -21.68 150 -21 150 C-21 149.34 -21 148.68 -21 148 C-20.34 147.67 -19.68 147.34 -19 147 C-17.994 145.337 -16.994 143.67 -16 142 C-15.526 141.546 -15.051 141.092 -14.562 140.625 C-12.652 138.638 -11.503 136.383 -10.176 133.984 C-8.092 130.467 -5.753 127.028 -3 124 C-2.34 124 -1.68 124 -1 124 C-0.67 83.08 -0.34 42.16 0 0 Z " fill="#F49A7E" transform="translate(508,550)" />
<path d="M0 0 C1.938 0.812 1.938 0.812 4 2 C4.33 2.99 4.66 3.98 5 5 C5.66 5 6.32 5 7 5 C7 5.66 7 6.32 7 7 C7.99 7.33 8.98 7.66 10 8 C10 8.66 10 9.32 10 10 C10.66 10 11.32 10 12 10 C13.625 11.375 13.625 11.375 15 13 C15 13.66 15 14.32 15 15 C15.619 15.247 16.237 15.495 16.875 15.75 C19.351 17.206 19.951 18.378 21 21 C21.66 21 22.32 21 23 21 C24.625 22.375 24.625 22.375 26 24 C26 24.66 26 25.32 26 26 C26.66 26 27.32 26 28 26 C28.247 26.784 28.495 27.567 28.75 28.375 C29.714 31.102 29.714 31.102 31.879 31.918 C34.442 33.226 35.493 34.624 37.188 36.938 C40.723 41.672 44.47 46.196 48.277 50.715 C50 53 50 53 50 55 C50.99 55.33 51.98 55.66 53 56 C56 60.333 56 60.333 56 63 C56.558 63.193 57.116 63.387 57.691 63.586 C60.976 65.598 62.802 68.502 64.938 71.625 C65.376 72.254 65.815 72.884 66.267 73.532 C75 86.134 75 86.134 75 89 C75.66 89 76.32 89 77 89 C77.326 89.592 77.652 90.183 77.988 90.793 C78.425 91.583 78.862 92.373 79.312 93.188 C79.742 93.965 80.171 94.742 80.613 95.543 C82.597 99.057 84.682 102.495 86.832 105.91 C92.458 114.865 97.803 123.857 101 134 C101.66 134 102.32 134 103 134 C104.733 138.305 106.458 142.613 108.174 146.925 C108.707 148.263 109.24 149.601 109.775 150.938 C110.48 152.707 111.178 154.478 111.875 156.25 C112.285 157.286 112.695 158.323 113.117 159.391 C114 162 114 162 114 165 C114.66 165 115.32 165 116 165 C116.159 165.583 116.317 166.165 116.48 166.766 C118.213 172.854 120.428 178.558 123.012 184.336 C124 187 124 187 124 191 C124.99 191.33 125.98 191.66 127 192 C123.689 193.129 120.41 194.213 117 195 C116.67 193.02 116.34 191.04 116 189 C115.34 189 114.68 189 114 189 C113.853 188.296 113.706 187.592 113.555 186.867 C111.901 179.587 109.462 173.087 106.305 166.324 C104.94 162.848 104.385 159.703 104 156 C103.34 156 102.68 156 102 156 C101.654 154.983 101.654 154.983 101.301 153.945 C99.242 148.07 96.908 142.576 93.953 137.094 C93 135 93 135 93 132 C92.34 132 91.68 132 91 132 C90.732 131.392 90.464 130.783 90.188 130.156 C83.334 114.754 83.334 114.754 75 100.125 C73 97 73 97 73 95 C72.34 95 71.68 95 71 95 C70.648 94.31 70.296 93.621 69.934 92.91 C66.921 87.175 63.684 82.1 59.609 77.07 C56.717 73.35 54.495 69.486 53 65 C52.34 65 51.68 65 51 65 C49.966 63.354 48.972 61.683 48 60 C46.672 58.329 45.338 56.663 44 55 C40 49.333 40 49.333 40 47 C39.01 46.67 38.02 46.34 37 46 C36.298 44.685 35.635 43.349 35 42 C34.001 40.999 33.001 39.999 32 39 C30.426 36.942 28.916 34.845 27.402 32.742 C26.1 30.876 26.1 30.876 24 30 C24 29.34 24 28.68 24 28 C23.34 28 22.68 28 22 28 C19 23.615 19 23.615 19 21 C18.423 20.753 17.845 20.505 17.25 20.25 C13.868 18.371 11.631 16.136 9.75 12.75 C7.507 9.226 4.675 6.625 1.645 3.77 C0 2 0 2 0 0 Z " fill="#FBA286" transform="translate(675,537)" />
<path d="M0 0 C-0.103 0.981 -0.103 0.981 -0.208 1.982 C-2.376 23.961 -2.44 47.943 5 69 C5.125 72.375 5.125 72.375 5 75 C5.66 75 6.32 75 7 75 C7.273 76.143 7.273 76.143 7.551 77.309 C8.883 82.78 10.273 88.17 12.137 93.484 C12.801 95.42 13.42 97.371 14.02 99.328 C19.603 117.18 28.963 133.021 39.25 148.562 C40.03 149.743 40.03 149.743 40.825 150.947 C41.569 152.058 41.569 152.058 42.328 153.191 C42.771 153.853 43.213 154.515 43.669 155.198 C44.952 157.04 44.952 157.04 46.604 158.551 C48 160 48 160 49 163 C49.66 163.33 50.32 163.66 51 164 C51 164.66 51 165.32 51 166 C51.66 166 52.32 166 53 166 C54.262 167.539 54.262 167.539 55.688 169.625 C58.256 173.184 60.957 175.827 64.355 178.574 C66.36 180.312 67.903 182.335 69.535 184.418 C72.09 187.177 75.17 189.285 78.207 191.484 C78.799 191.985 79.39 192.485 80 193 C80 193.66 80 194.32 80 195 C80.66 195.33 81.32 195.66 82 196 C81.34 196.33 80.68 196.66 80 197 C79.264 196.397 78.528 195.793 77.77 195.172 C76.794 194.373 75.818 193.573 74.812 192.75 C73.85 191.961 72.887 191.172 71.895 190.359 C70.001 188.816 68.083 187.304 66.137 185.828 C65.432 185.225 64.726 184.622 64 184 C64 183.34 64 182.68 64 182 C63.429 181.733 62.858 181.466 62.27 181.191 C55.374 177.572 50.257 172.485 45.688 166.266 C44.01 164.013 42.236 161.914 40.375 159.812 C39.8 159.163 39.225 158.513 38.633 157.844 C38.094 157.235 37.555 156.627 37 156 C33.953 152.509 31.344 149.004 29 145 C28.237 143.969 27.474 142.938 26.688 141.875 C23.303 137.19 20.67 132.116 18 127 C17.519 126.08 17.038 125.159 16.543 124.211 C13.121 117.524 13.121 117.524 12.488 114.777 C12.327 114.191 12.166 113.604 12 113 C11.34 112.67 10.68 112.34 10 112 C9.222 110.282 9.222 110.282 8.492 108.07 C8.228 107.275 7.964 106.48 7.691 105.66 C7.422 104.824 7.153 103.987 6.875 103.125 C6.598 102.296 6.321 101.467 6.035 100.613 C4 94.408 4 94.408 4 91 C3.34 91 2.68 91 2 91 C1.494 89.085 0.996 87.168 0.5 85.25 C0.222 84.183 -0.057 83.115 -0.344 82.016 C-1 79 -1 79 -1 75 C-1.66 75 -2.32 75 -3 75 C-3.982 70.947 -4.082 67.161 -4 63 C-4.66 63 -5.32 63 -6 63 C-9.803 44.175 -9.725 25.129 -10 6 C-10.66 5.67 -11.32 5.34 -12 5 C-9.786 2.786 -8.382 2.311 -5.438 1.375 C-4.229 0.984 -4.229 0.984 -2.996 0.586 C-1 0 -1 0 0 0 Z " fill="#FAA084" transform="translate(264,245)" />
<path d="M0 0 C3.107 1.578 6.173 3.221 9.236 4.885 C10.566 5.558 11.897 6.229 13.236 6.885 C13.236 7.545 13.236 8.205 13.236 8.885 C5.001 12.491 -3.212 16.088 -11.764 18.885 C-12.778 19.225 -12.778 19.225 -13.811 19.572 C-19.117 21.053 -24.479 21.12 -29.952 21.197 C-30.725 21.215 -31.498 21.233 -32.294 21.251 C-38.349 21.243 -42.42 19.859 -47.139 15.885 C-49.623 11.299 -49.513 6.986 -48.764 1.885 C-39.604 -16.436 -14.253 -6.953 0 0 Z " fill="#FAE0C8" transform="translate(368.764404296875,525.115234375)" />
<path d="M0 0 C0.33 0.66 0.66 1.32 1 2 C3.025 2.652 3.025 2.652 5 3 C5.103 3.639 5.206 4.279 5.312 4.938 C5.653 5.958 5.653 5.958 6 7 C6.99 7.33 7.98 7.66 9 8 C10.246 9.443 11.488 10.891 12.676 12.383 C15.287 15.571 18.323 18.359 21.312 21.188 C23 23 23 23 23 25 C23.577 25.248 24.155 25.495 24.75 25.75 C27.329 27.183 29.061 28.784 31 31 C31 31.66 31 32.32 31 33 C31.541 33.237 32.083 33.474 32.641 33.719 C35.633 35.343 38.112 37.35 40.75 39.5 C41.735 40.294 42.72 41.088 43.734 41.906 C44.482 42.597 45.23 43.288 46 44 C46 44.66 46 45.32 46 46 C46.772 46.335 46.772 46.335 47.559 46.676 C50.972 48.527 53.963 50.857 57.062 53.188 C63.208 57.753 69.473 61.994 76 66 C76.585 66.374 77.17 66.747 77.773 67.132 C97.706 79.809 121.606 91.743 145 96 C145 96.66 145 97.32 145 98 C146.898 98.237 148.797 98.474 150.695 98.707 C152.213 98.9 153.728 99.105 155.242 99.324 C159.225 100.048 159.225 100.048 163 99 C162.34 102.3 161.68 105.6 161 109 C160.67 109 160.34 109 160 109 C160 107.02 160 105.04 160 103 C159.438 102.986 158.876 102.972 158.297 102.957 C132.451 101.49 107.028 89.98 84 79 C83.08 78.567 82.159 78.134 81.211 77.688 C69.544 72.058 56.087 64.355 47 55 C45.948 54.319 44.896 53.639 43.812 52.938 C42.884 52.298 41.956 51.659 41 51 C41 50.34 41 49.68 41 49 C39.979 48.722 39.979 48.722 38.938 48.438 C35.502 46.756 33.517 44.685 30.906 41.938 C28.331 39.32 25.532 37.008 22.699 34.676 C20.899 32.9 20.075 31.264 19 29 C17.686 28.296 16.348 27.637 15 27 C10.441 23.531 6.333 19.692 3 15 C3 14.34 3 13.68 3 13 C2.134 12.567 2.134 12.567 1.25 12.125 C-0.833 11.083 -2.917 10.042 -5 9 C-3.502 5.888 -1.801 2.947 0 0 Z " fill="#FBA185" transform="translate(159,425)" />
<path d="M0 0 C0 0.66 0 1.32 0 2 C-2.906 3.257 -4.796 4 -8 4 C-8 4.66 -8 5.32 -8 6 C-9.039 6.375 -10.078 6.75 -11.148 7.137 C-20.134 10.36 -20.134 10.36 -28.75 14.438 C-35.889 18.161 -43.617 20.501 -51.229 23.063 C-53.923 23.974 -56.61 24.905 -59.297 25.84 C-72.006 30.218 -84.85 34.104 -97.75 37.875 C-98.567 38.116 -99.384 38.357 -100.226 38.605 C-109.442 41.317 -118.468 43.663 -128 45 C-130.02 45.331 -132.04 45.667 -134.059 46.008 C-135.052 46.173 -136.046 46.338 -137.07 46.509 C-139.851 46.975 -142.631 47.452 -145.41 47.93 C-157.902 50.04 -170.417 51.737 -183 53.188 C-184.082 53.314 -184.082 53.314 -185.186 53.444 C-195.777 54.676 -206.351 55.471 -217 56 C-216.34 53.03 -215.68 50.06 -215 47 C-213.206 46.961 -213.206 46.961 -211.375 46.922 C-179.857 46.003 -147.99 42.657 -117.219 35.711 C-113.637 34.92 -110.041 34.244 -106.438 33.562 C-100.805 32.441 -95.426 30.992 -89.965 29.23 C-84.583 27.522 -79.128 26.067 -73.688 24.562 C-60.564 20.91 -47.628 17.139 -34.949 12.117 C-32.296 11.112 -29.666 10.272 -26.938 9.5 C-20.324 7.604 -14.061 4.815 -7.789 2.012 C-4.979 0.761 -3.122 0 0 0 Z " fill="#FB9D81" transform="translate(416,613)" />
<path d="M0 0 C15.485 7.197 26.964 23.356 35 38 C35 38.33 35 38.66 35 39 C28.978 39.238 24.015 38.509 18.25 36.812 C17.469 36.589 16.687 36.366 15.882 36.135 C7.939 33.8 0.378 30.757 -7 27 C-7 26.34 -7 25.68 -7 25 C-7.763 24.732 -8.526 24.464 -9.312 24.188 C-12.864 22.618 -14.346 21.205 -16.188 17.812 C-17.59 12.958 -17.807 8.767 -15.688 4.125 C-11.466 -1.19 -6.276 -1.059 0 0 Z " fill="#FADEC9" transform="translate(389,395)" />
<path d="M0 0 C0.958 0.009 1.916 0.018 2.902 0.027 C3.972 0.045 3.972 0.045 5.062 0.062 C3.043 10.677 -8.958 20.502 -16.938 27.062 C-17.695 27.697 -18.453 28.331 -19.234 28.984 C-25.633 34.181 -30.472 36.678 -38.938 36.062 C-42.386 35.044 -44.678 33.886 -46.938 31.062 C-48.343 26.847 -48.817 23.229 -47.102 19.004 C-42.032 10.004 -33.344 7.176 -23.875 4.312 C-22.92 4.01 -21.966 3.707 -20.982 3.395 C-13.96 1.214 -7.388 -0.091 0 0 Z " fill="#FADFCA" transform="translate(448.9375,552.9375)" />
<path d="M0 0 C3.283 2.406 6.405 4.873 8.25 8.562 C8.383 10.437 8.383 10.437 8.375 12.562 C8.379 13.614 8.379 13.614 8.383 14.688 C8.25 16.562 8.25 16.562 7.25 18.562 C6.59 18.562 5.93 18.562 5.25 18.562 C5.25 19.222 5.25 19.883 5.25 20.562 C1.312 24.093 -2.809 24.063 -7.844 23.914 C-15.262 23.017 -22.972 19.308 -28.75 14.562 C-28.75 13.903 -28.75 13.242 -28.75 12.562 C-29.46 12.323 -30.171 12.083 -30.902 11.836 C-34.195 10.363 -36.549 8.501 -39.312 6.188 C-40.242 5.417 -41.171 4.646 -42.129 3.852 C-44.446 1.828 -46.686 -0.155 -48.75 -2.438 C-48.75 -3.097 -48.75 -3.758 -48.75 -4.438 C-35.183 -8.367 -12.35 -7.302 0 0 Z " fill="#FADFCA" transform="translate(652.75,539.4375)" />
<path d="M0 0 C3.537 14.734 4.756 34.686 -1 49 C-3.337 51.979 -5.795 54.016 -9 56 C-9.99 56.66 -10.98 57.32 -12 58 C-19.063 57.888 -19.063 57.888 -22.375 54.75 C-25.642 49.222 -27.114 44.568 -25.531 38.078 C-24.876 36.063 -24.15 34.096 -23.375 32.125 C-22.966 31.067 -22.966 31.067 -22.548 29.987 C-20.332 24.452 -17.637 19.734 -14 15 C-13.25 13.976 -12.5 12.953 -11.727 11.898 C-2.973 0 -2.973 0 0 0 Z " fill="#FBDEC7" transform="translate(487,606)" />
<path d="M0 0 C5.806 2.997 8.139 7.675 10.273 13.633 C12.328 20.328 12.184 26.639 12.188 33.625 C12.2 34.859 12.212 36.092 12.225 37.363 C12.236 44.491 11.772 51.084 10 58 C9.34 58 8.68 58 8 58 C6.735 56.626 6.735 56.626 5.32 54.711 C4.803 54.016 4.286 53.321 3.754 52.605 C3.216 51.869 2.679 51.133 2.125 50.375 C1.595 49.662 1.065 48.949 0.52 48.215 C-7.933 36.784 -16.021 25.508 -15.441 10.805 C-14.804 6.752 -14.039 3.886 -10.875 1.188 C-7.129 -0.36 -3.94 -0.891 0 0 Z " fill="#FBE0CB" transform="translate(472,352)" />
<path d="M0 0 C0.66 0 1.32 0 2 0 C2 0.66 2 1.32 2 2 C2.596 2.273 3.191 2.547 3.805 2.828 C5.926 3.961 7.377 5.117 9.125 6.75 C12.786 10.004 16.786 12.334 21.059 14.703 C21.699 15.131 22.34 15.559 23 16 C23 16.66 23 17.32 23 18 C23.784 18.227 24.567 18.454 25.375 18.688 C31.752 20.996 37.593 23.907 43 28 C45.094 28.796 45.094 28.796 47 29 C47.495 28.505 47.495 28.505 48 28 C46.68 28 45.36 28 44 28 C43.875 23.25 43.875 23.25 45 21 C45.144 20.237 45.289 19.474 45.438 18.688 C46.01 15.951 46.901 13.564 48 11 C53.937 11.334 56.936 13.072 61 17.188 C62.131 18.281 63.263 19.375 64.395 20.469 C64.981 21.045 65.567 21.621 66.17 22.215 C69.292 25.26 72.494 28.219 75.688 31.188 C76.319 31.778 76.95 32.369 77.601 32.977 C81.966 37.057 86.379 41.073 90.852 45.035 C93.311 47.284 95.658 49.629 98 52 C80.903 50.731 65.251 44.598 50 37 C50 36.34 50 35.68 50 35 C49.274 34.88 48.549 34.76 47.801 34.637 C40.772 33.039 34.613 29.034 29.082 24.527 C26.775 22.835 24.332 21.493 21.84 20.095 C18.843 18.311 16.121 16.207 13.375 14.062 C12.828 13.645 12.282 13.228 11.719 12.799 C2.219 5.447 2.219 5.447 0 0 Z " fill="#F26E4E" transform="translate(563,590)" />
<path d="M0 0 C0.66 0 1.32 0 2 0 C2 0.66 2 1.32 2 2 C2.99 2.33 3.98 2.66 5 3 C7.992 5.767 10.761 8.583 13 12 C13 12.66 13 13.32 13 14 C13.66 14 14.32 14 15 14 C16.34 15.434 16.34 15.434 17.938 17.438 C21.649 21.826 25.837 25.286 30.352 28.824 C33.083 31.068 35.506 33.498 38 36 C39.539 37.279 41.1 38.532 42.688 39.75 C43.454 40.343 44.221 40.936 45.012 41.547 C46.934 43.036 46.934 43.036 49 44 C49 44.66 49 45.32 49 46 C49.735 46.257 50.47 46.513 51.227 46.777 C54.127 48.056 55.99 49.491 58.375 51.562 C72.307 62.973 89.16 70.93 106 77 C106 77.66 106 78.32 106 79 C107.017 79.13 107.017 79.13 108.055 79.262 C114.214 80.192 118.913 81.791 124.363 84.758 C129.014 86.949 133.991 87.941 139 89 C139 89.33 139 89.66 139 90 C127.253 89.512 116.123 86.531 105.34 81.938 C102.841 80.936 100.338 80.176 97.75 79.438 C93.918 78.337 90.504 76.936 87 75 C87 74.34 87 73.68 87 73 C86.216 72.938 85.433 72.876 84.625 72.812 C79.647 71.697 75.475 69.397 71 67 C71 66.34 71 65.68 71 65 C70.332 64.929 69.665 64.858 68.977 64.785 C64.936 63.719 61.866 61.689 58.375 59.438 C57.32 58.767 57.32 58.767 56.243 58.084 C50.319 54.286 44.611 50.248 39 46 C38.242 45.473 37.484 44.946 36.703 44.402 C36.141 43.94 35.579 43.477 35 43 C35 42.34 35 41.68 35 41 C34.34 41 33.68 41 33 41 C32.67 40.34 32.34 39.68 32 39 C30.273 38.037 28.546 37.075 26.816 36.117 C24.122 34.46 22.183 32.285 20 30 C18.34 28.513 16.673 27.035 15 25.562 C11.279 22.24 8.076 18.915 5 15 C4.017 13.983 3.027 12.973 2 12 C1.34 13.32 0.68 14.64 0 16 C0 10.72 0 5.44 0 0 Z " fill="#FB9F83" transform="translate(145,512)" />
<path d="M0 0 C4.28 0.476 6.127 2.987 9 6 C13.557 10.036 18.761 12.949 24 16 C24.969 16.578 24.969 16.578 25.957 17.168 C28.709 18.789 31.435 20.185 34.375 21.438 C37.107 22.615 39.31 23.781 41.812 25.312 C48.983 29.424 57.153 31.537 65 34 C65 34.66 65 35.32 65 36 C66.07 36.195 66.07 36.195 67.161 36.393 C69.999 37 72.673 37.8 75.43 38.707 C76.466 39.045 77.502 39.382 78.569 39.73 C79.66 40.087 80.751 40.444 81.875 40.812 C90.205 43.514 98.519 46.075 107.012 48.211 C110 49 110 49 112.652 49.977 C117.639 51.501 122.729 52.198 127.875 53 C139.674 54.853 139.674 54.853 143.914 56.023 C149.662 57.546 155.602 57.99 161.5 58.625 C162.704 58.759 163.908 58.893 165.148 59.031 C168.098 59.359 171.049 59.682 174 60 C173.625 61.937 173.625 61.937 173 64 C172.01 64.495 172.01 64.495 171 65 C170.34 65.99 169.68 66.98 169 68 C169 67.34 169 66.68 169 66 C167.267 66.093 167.267 66.093 165.5 66.188 C158.956 66.177 152.658 64.763 146.276 63.458 C143.952 62.99 141.624 62.553 139.293 62.121 C124.02 59.249 109.132 55.175 94.264 50.681 C92.368 50.111 90.468 49.557 88.566 49.008 C82.348 47.18 76.555 45.011 70.703 42.23 C67.045 40.565 63.299 39.224 59.508 37.895 C56.977 36.992 54.488 36.012 52 35 C52 34.34 52 33.68 52 33 C49.03 32.505 49.03 32.505 46 32 C46 31.34 46 30.68 46 30 C44.051 29.66 44.051 29.66 42.062 29.312 C36.793 28.167 32.553 25.82 28 23 C28 22.34 28 21.68 28 21 C27.051 20.691 26.102 20.381 25.125 20.062 C22 19 22 19 20 18 C20 17.34 20 16.68 20 16 C19.452 15.912 18.904 15.825 18.34 15.734 C11.506 13.59 4.629 7.427 0 2 C0 1.34 0 0.68 0 0 Z " fill="#FB9E80" transform="translate(588,712)" />
<path d="M0 0 C0.33 0 0.66 0 1 0 C1.33 47.52 1.66 95.04 2 144 C3.65 140.04 5.3 136.08 7 132 C8.879 128.668 8.879 128.668 10.562 126.188 C13.211 122.197 15.674 118.186 18 114 C18.66 114 19.32 114 20 114 C20.206 113.464 20.413 112.928 20.625 112.375 C22.533 109.08 25.048 106.406 28 104 C28.66 104 29.32 104 30 104 C30.33 102.35 30.66 100.7 31 99 C31.33 99 31.66 99 32 99 C32.312 101.188 32.312 101.188 32 104 C29.938 106.25 29.938 106.25 28.562 107.496 C22.329 113.496 17.73 120.81 15 129 C14.34 129 13.68 129 13 129 C12.905 129.663 12.809 130.325 12.711 131.008 C11.795 134.862 10.254 138.274 8.625 141.875 C8.013 143.247 7.401 144.62 6.789 145.992 C6.382 146.895 6.382 146.895 5.967 147.816 C5.648 148.537 5.329 149.257 5 150 C4.493 150.919 3.985 151.838 3.463 152.785 C1.057 158.462 1.592 164.57 1.628 170.627 C1.625 172.006 1.622 173.385 1.617 174.763 C1.607 178.493 1.617 182.222 1.63 185.951 C1.641 189.862 1.637 193.774 1.635 197.685 C1.634 204.252 1.645 210.818 1.664 217.385 C1.685 224.967 1.688 232.548 1.682 240.13 C1.677 247.437 1.682 254.744 1.693 262.051 C1.698 265.154 1.699 268.258 1.697 271.361 C1.695 275.019 1.703 278.676 1.719 282.334 C1.725 284.309 1.722 286.284 1.718 288.259 C1.753 294.214 1.919 299.392 4 305 C3.01 305 2.02 305 1 305 C-1.628 296.266 -2.425 288.278 -2.356 279.185 C-2.357 277.847 -2.359 276.508 -2.363 275.17 C-2.368 271.575 -2.354 267.981 -2.337 264.387 C-2.322 260.613 -2.323 256.84 -2.322 253.067 C-2.319 246.744 -2.304 240.422 -2.281 234.099 C-2.252 225.979 -2.242 217.859 -2.238 209.739 C-2.234 202.748 -2.221 195.758 -2.207 188.767 C-2.203 186.522 -2.2 184.277 -2.197 182.031 C-2.192 177.861 -2.177 173.691 -2.161 169.521 C-2.16 168.275 -2.159 167.03 -2.158 165.746 C-2.152 164.617 -2.146 163.487 -2.14 162.323 C-2.137 161.337 -2.134 160.352 -2.131 159.337 C-2 157 -2 157 -1 155 C-0.894 152.96 -0.853 150.917 -0.842 148.875 C-0.832 147.568 -0.822 146.261 -0.812 144.915 C-0.806 143.458 -0.8 142.001 -0.795 140.544 C-0.785 139.017 -0.775 137.49 -0.765 135.962 C-0.738 131.808 -0.717 127.653 -0.697 123.498 C-0.675 119.159 -0.647 114.82 -0.621 110.482 C-0.571 102.262 -0.526 94.042 -0.483 85.822 C-0.433 76.465 -0.378 67.108 -0.323 57.752 C-0.209 38.501 -0.102 19.251 0 0 Z " fill="#FCBDA2" transform="translate(516,546)" />
<path d="M0 0 C2 1 4 2 6 3 C6 3.66 6 4.32 6 5 C6.66 5 7.32 5 8 5 C9.712 6.62 11.372 8.296 13 10 C13.763 10.763 14.526 11.526 15.312 12.312 C16.83 13.83 18.344 15.351 19.848 16.883 C23.568 20.653 27.353 24.225 31.406 27.633 C34.543 30.324 37.356 33.163 39.875 36.438 C42.182 39.22 44.688 41.333 47.512 43.57 C49 45 49 45 50 48 C51.44 49.195 52.883 50.388 54.347 51.555 C57.184 54.035 59.36 57.005 61.625 60 C62.555 61.208 63.484 62.417 64.414 63.625 C64.85 64.199 65.286 64.772 65.735 65.363 C66.902 66.873 68.117 68.345 69.336 69.812 C71 72 71 72 71 74 C71.66 74 72.32 74 73 74 C76 77.462 76 77.462 76 80 C76.619 80.206 77.237 80.413 77.875 80.625 C80.83 82.537 80.956 84.728 82 88 C83.485 88.495 83.485 88.495 85 89 C86.824 91.215 86.824 91.215 88.688 93.938 C89.31 94.833 89.933 95.729 90.574 96.652 C92 99 92 99 92 101 C92.66 101 93.32 101 94 101 C93.711 101.701 93.423 102.403 93.125 103.125 C91.979 106.055 90.974 109.009 90 112 C88.223 109.334 87.125 106.972 86 104 C85.34 104 84.68 104 84 104 C82.805 102.319 81.693 100.578 80.625 98.812 C78.294 94.976 75.858 91.462 73 88 C69.275 83.3 65.643 78.545 62.125 73.688 C55.794 64.953 49.523 56.386 42.199 48.449 C39.942 45.935 37.84 43.342 35.75 40.688 C33.006 37.206 30.225 34.036 27 31 C26.34 30.34 25.68 29.68 25 29 C25 28.01 25 27.02 25 26 C24.01 26 23.02 26 22 26 C21.773 25.443 21.546 24.886 21.312 24.312 C19.626 21.342 17.446 19.392 15 17 C13.867 15.694 12.743 14.381 11.625 13.062 C8.792 9.769 5.801 6.999 2.383 4.324 C1 3 1 3 0 0 Z " fill="#FCA084" transform="translate(767,536)" />
<path d="M0 0 C0.413 0.516 0.825 1.031 1.25 1.562 C0.92 2.553 0.59 3.543 0.25 4.562 C-0.41 4.562 -1.07 4.562 -1.75 4.562 C-1.75 5.222 -1.75 5.883 -1.75 6.562 C-3.43 8.07 -3.43 8.07 -5.625 9.688 C-6.344 10.226 -7.064 10.765 -7.805 11.32 C-9.75 12.562 -9.75 12.562 -11.75 12.562 C-11.985 13.153 -12.219 13.743 -12.461 14.352 C-14.054 17.084 -15.742 18.201 -18.375 19.938 C-22.425 22.655 -26.32 25.485 -30.156 28.496 C-31.75 29.562 -31.75 29.562 -33.75 29.562 C-33.75 30.222 -33.75 30.883 -33.75 31.562 C-36.221 33.256 -38.687 34.832 -41.25 36.375 C-41.946 36.801 -42.642 37.227 -43.359 37.666 C-44.77 38.529 -46.183 39.389 -47.598 40.245 C-50.463 41.999 -53.285 43.821 -56.104 45.651 C-57.75 46.562 -57.75 46.562 -59.75 46.562 C-60.08 47.553 -60.41 48.543 -60.75 49.562 C-63.365 50.801 -66.005 51.648 -68.75 52.562 C-68.75 54.212 -68.75 55.862 -68.75 57.562 C-72.43 54.181 -74.729 51.137 -76.75 46.562 C-75.554 46.15 -74.358 45.737 -73.125 45.312 C-69.264 43.884 -66.164 41.865 -62.75 39.562 C-61.76 39.562 -60.77 39.562 -59.75 39.562 C-59.75 38.903 -59.75 38.242 -59.75 37.562 C-54 34.562 -54 34.562 -51.75 34.562 C-51.75 33.903 -51.75 33.242 -51.75 32.562 C-49.66 31.047 -49.66 31.047 -46.812 29.312 C-42.297 26.53 -37.887 23.648 -33.527 20.629 C-31.75 19.562 -31.75 19.562 -29.75 19.562 C-29.75 18.903 -29.75 18.242 -29.75 17.562 C-28.36 16.595 -26.962 15.638 -25.532 14.731 C-22.413 12.686 -19.54 10.323 -16.625 8 C-3.211 -2.637 -3.211 -2.637 0 0 Z " fill="#FAA286" transform="translate(419.75,772.4375)" />
<path d="M0 0 C1.32 0 2.64 0 4 0 C4 0.66 4 1.32 4 2 C4.909 2.255 4.909 2.255 5.836 2.516 C12.073 4.32 18.012 6.502 24 9 C25.396 9.562 26.791 10.123 28.188 10.684 C39.87 15.427 50.959 20.924 62 27 C63.015 27.556 64.031 28.111 65.077 28.684 C89.899 42.295 114.952 57.667 133 80 C132.67 80.66 132.34 81.32 132 82 C131.257 80.979 131.257 80.979 130.5 79.938 C124.898 73.355 117.856 68.208 111 63 C110.306 62.473 109.613 61.946 108.898 61.402 C106.94 59.924 104.971 58.461 103 57 C102.174 56.37 102.174 56.37 101.332 55.727 C97.082 52.557 92.576 50.095 87.898 47.609 C84.966 45.981 82.18 44.213 79.375 42.375 C75.417 39.812 71.52 37.77 67.176 35.957 C64.884 34.949 62.741 33.795 60.562 32.562 C50.689 26.998 40.64 22.842 30 19 C30 18.34 30 17.68 30 17 C29.361 16.897 28.721 16.794 28.062 16.688 C22.13 15.356 16.497 13.231 10.875 10.938 C6.959 9.34 3.091 8.067 -1 7 C-1.043 5 -1.041 3 -1 1 C-0.67 0.67 -0.34 0.34 0 0 Z " fill="#FCA082" transform="translate(300,220)" />
<path d="M0 0 C-1.438 3.419 -3.215 5.279 -6.062 7.625 C-8.979 9.955 -8.979 9.955 -11 13 C-11.66 13 -12.32 13 -13 13 C-13.28 13.874 -13.559 14.748 -13.848 15.648 C-14.907 18.728 -16.121 21.648 -17.438 24.625 C-23.892 40.108 -25.468 57.017 -27.023 73.587 C-29.644 101.326 -36.021 128.353 -47 154 C-50.688 152.771 -51.724 151.061 -54 148 C-53.505 147.01 -53.505 147.01 -53 146 C-52.34 146 -51.68 146 -51 146 C-46.314 134.556 -42.569 122.832 -39 111 C-38.79 110.311 -38.579 109.622 -38.362 108.912 C-34.515 96.044 -33.19 82.693 -31.453 69.418 C-28.242 45.176 -24.341 23.228 -8 4 C-2.595 0 -2.595 0 0 0 Z " fill="#FC9F81" transform="translate(574,705)" />
<path d="M0 0 C0 0.66 0 1.32 0 2 C-8.328 6.568 -16.735 10.917 -25.312 15 C-26.142 15.398 -26.972 15.795 -27.827 16.205 C-28.602 16.57 -29.377 16.936 -30.176 17.312 C-31.211 17.802 -31.211 17.802 -32.267 18.301 C-34 19 -34 19 -36 19 C-36 19.66 -36 20.32 -36 21 C-36.736 21.182 -37.472 21.364 -38.23 21.551 C-39.206 21.802 -40.182 22.054 -41.188 22.312 C-42.15 22.556 -43.113 22.8 -44.105 23.051 C-47.015 23.878 -47.015 23.878 -49.395 25.488 C-52.632 27.367 -55.88 28.106 -59.5 28.875 C-61.03 29.214 -62.56 29.554 -64.09 29.895 C-64.893 30.072 -65.696 30.249 -66.523 30.432 C-69.008 31.002 -71.474 31.623 -73.941 32.262 C-93.094 37.172 -112.221 39.674 -132 39 C-132.33 39.66 -132.66 40.32 -133 41 C-133.495 39.515 -133.495 39.515 -134 38 C-134.66 38 -135.32 38 -136 38 C-136.66 36.35 -137.32 34.7 -138 33 C-137.167 32.991 -136.334 32.981 -135.475 32.972 C-110.944 32.629 -87.171 30.557 -63.438 23.938 C-58.299 22.529 -53.317 21.434 -48 21 C-48 20.34 -48 19.68 -48 19 C-46.231 18.495 -44.459 17.996 -42.688 17.5 C-41.701 17.222 -40.715 16.943 -39.699 16.656 C-37 16 -37 16 -34 16 C-34 15.34 -34 14.68 -34 14 C-33.031 13.66 -32.061 13.319 -31.062 12.969 C-22.767 9.991 -14.867 6.632 -7.055 2.541 C-2.181 0 -2.181 0 0 0 Z " fill="#FB9A7D" transform="translate(354,682)" />
<path d="M0 0 C-0.312 1.875 -0.312 1.875 -1 4 C-4 6 -4 6 -8 6 C-8 6.66 -8 7.32 -8 8 C-8.99 8 -9.98 8 -11 8 C-11.33 8.99 -11.66 9.98 -12 11 C-11.051 10.938 -10.103 10.876 -9.125 10.812 C-8.094 10.874 -7.062 10.936 -6 11 C-5.34 11.99 -4.68 12.98 -4 14 C-5.65 14 -7.3 14 -9 14 C-9 14.99 -9 15.98 -9 17 C-0.825 17.567 6.35 16.475 14.211 14.423 C17.634 13.531 20.431 13 24 13 C24 13.66 24 14.32 24 15 C20.855 15.794 17.709 16.585 14.562 17.375 C13.684 17.597 12.806 17.818 11.9 18.047 C6.943 19.291 1.979 20.467 -3.014 21.558 C-5.605 22.135 -8.175 22.794 -10.75 23.438 C-26.117 26.952 -41.257 28.519 -57 28 C-56.67 27.34 -56.34 26.68 -56 26 C-53.678 25.593 -51.343 25.256 -49 25 C-49 24.34 -49 23.68 -49 23 C-33.519 15.087 -33.519 15.087 -27.688 12.875 C-23.141 11.146 -18.995 8.899 -14.754 6.527 C-12.007 5.004 -9.238 3.547 -6.438 2.125 C-5.632 1.715 -4.826 1.305 -3.996 0.883 C-2 0 -2 0 0 0 Z " fill="#F38364" transform="translate(335,587)" />
<path d="M0 0 C0.66 0 1.32 0 2 0 C3.935 11.493 3.935 11.493 0.875 16.125 C0.415 16.736 -0.045 17.347 -0.52 17.977 C-2.267 20.365 -3.514 22.843 -4.812 25.5 C-5.441 26.784 -5.441 26.784 -6.082 28.094 C-6.385 28.723 -6.688 29.352 -7 30 C-7.66 30 -8.32 30 -9 30 C-9.184 30.828 -9.184 30.828 -9.371 31.672 C-10.08 34.296 -11.036 36.734 -12.062 39.25 C-12.425 40.142 -12.787 41.034 -13.16 41.953 C-13.437 42.629 -13.714 43.304 -14 44 C-14.66 44 -15.32 44 -16 44 C-16.116 44.859 -16.232 45.717 -16.352 46.602 C-17.017 50.09 -18.059 53.081 -19.375 56.375 C-19.824 57.512 -20.272 58.649 -20.734 59.82 C-21.152 60.87 -21.57 61.919 -22 63 C-24.169 68.613 -26.133 74.281 -28 80 C-28.66 80 -29.32 80 -30 80 C-30.121 80.629 -30.242 81.258 -30.367 81.906 C-30.535 82.762 -30.702 83.618 -30.875 84.5 C-31.037 85.335 -31.2 86.171 -31.367 87.031 C-32.903 94.236 -34.948 101.182 -37.232 108.176 C-38.489 112.1 -39.434 115.918 -40 120 C-40.66 120 -41.32 120 -42 120 C-40.17 101.495 -34.765 84.123 -29.109 66.485 C-27.364 61.003 -25.68 55.502 -24 50 C-23.34 50 -22.68 50 -22 50 C-21.67 47.36 -21.34 44.72 -21 42 C-20.34 42 -19.68 42 -19 42 C-18.34 39.03 -17.68 36.06 -17 33 C-16.34 33 -15.68 33 -15 33 C-14.916 32.014 -14.832 31.028 -14.746 30.012 C-14.096 25.475 -12.192 21.826 -10.062 17.812 C-9.702 17.114 -9.342 16.416 -8.971 15.697 C-8.284 14.368 -7.594 13.042 -6.899 11.717 C-5.908 9.824 -4.946 7.917 -4 6 C-3.34 6 -2.68 6 -2 6 C-1.34 4.02 -0.68 2.04 0 0 Z " fill="#FAA085" transform="translate(505,174)" />
<path d="M0 0 C4.651 5.885 7.917 12.805 10 20 C10.66 20 11.32 20 12 20 C13.691 22.301 13.691 22.301 15.562 25.312 C16.183 26.299 16.803 27.285 17.441 28.301 C19 31 19 31 20 34 C20.66 34 21.32 34 22 34 C23.588 35.885 25.053 37.762 26.5 39.75 C26.903 40.289 27.307 40.828 27.723 41.383 C29.766 44.148 31.596 46.856 33 50 C33.66 50 34.32 50 35 50 C36.48 51.539 36.48 51.539 38.188 53.625 C41.027 56.986 43.946 59.792 47.422 62.48 C49 64 49 64 50.355 66.391 C52.343 69.544 54.61 71.302 57.562 73.562 C63.514 78.123 63.514 78.123 65 82 C59.89 79.282 55.499 76.149 51.016 72.488 C48.972 70.819 48.972 70.819 46 70 C45.856 69.361 45.711 68.721 45.562 68.062 C45.284 67.042 45.284 67.042 45 66 C43.677 65.313 42.342 64.649 41 64 C32.288 57.266 23.589 48.834 17 40 C17 39.34 17 38.68 17 38 C16.34 38 15.68 38 15 38 C12 34.538 12 34.538 12 32 C11.34 32 10.68 32 10 32 C9.064 30.683 8.142 29.355 7.281 27.988 C5.139 24.664 2.793 21.482 0.488 18.27 C-1 16 -1 16 -2 13 C-4.015 12.267 -4.015 12.267 -6 12 C-5.34 10.35 -4.68 8.7 -4 7 C-3.34 7 -2.68 7 -2 7 C-1.856 6.402 -1.711 5.804 -1.562 5.188 C-1.113 3.438 -0.571 1.713 0 0 Z " fill="#FB9F83" transform="translate(191,324)" />
<path d="M0 0 C0.66 0 1.32 0 2 0 C0.686 3.7 -0.887 6.408 -3.375 9.438 C-4.083 10.3 -4.79 11.162 -5.52 12.051 C-9.864 17.216 -14.246 22.345 -18.664 27.448 C-19.777 28.741 -20.877 30.047 -21.973 31.355 C-27.851 38.318 -34.702 44.545 -42 50 C-42.66 50 -43.32 50 -44 50 C-44 50.66 -44 51.32 -44 52 C-46.008 53.614 -48.012 55.097 -50.125 56.562 C-50.746 57.002 -51.368 57.442 -52.008 57.895 C-55.302 60.203 -58.635 62.424 -62.047 64.555 C-62.689 64.956 -63.33 65.358 -63.992 65.771 C-65.232 66.539 -66.478 67.297 -67.731 68.043 C-69.617 69.171 -69.617 69.171 -72 71 C-72 71.99 -72 72.98 -72 74 C-73.32 74 -74.64 74 -76 74 C-76 73.34 -76 72.68 -76 72 C-79.96 71.505 -79.96 71.505 -84 71 C-82.948 67.698 -81.847 66.905 -78.84 65.035 C-77.545 64.366 -76.244 63.709 -74.938 63.062 C-73.578 62.367 -72.218 61.67 -70.859 60.973 C-70.199 60.638 -69.538 60.303 -68.857 59.958 C-65.727 58.344 -62.684 56.577 -59.637 54.812 C-58 54 -58 54 -56 54 C-56 53.34 -56 52.68 -56 52 C-53.699 50.309 -53.699 50.309 -50.688 48.438 C-49.701 47.817 -48.715 47.197 -47.699 46.559 C-45 45 -45 45 -42 44 C-42 43.34 -42 42.68 -42 42 C-40.349 40.974 -38.68 39.977 -37 39 C-36.443 38.443 -35.886 37.886 -35.312 37.312 C-34.879 36.879 -34.446 36.446 -34 36 C-33.34 36 -32.68 36 -32 36 C-31.769 35.432 -31.539 34.863 -31.301 34.277 C-29.669 31.42 -27.673 29.713 -25.188 27.562 C-19.252 22.399 -13.963 16.92 -8.875 10.938 C-8.35 10.326 -7.826 9.714 -7.285 9.084 C-5.185 6.625 -3.142 4.198 -1.258 1.566 C-0.843 1.049 -0.428 0.533 0 0 Z " fill="#FA9E80" transform="translate(488,785)" />
<path d="M0 0 C0.33 0 0.66 0 1 0 C2.113 50.518 2.219 101.035 2.239 151.564 C2.244 163.566 2.261 175.569 2.29 187.572 C2.311 196.984 2.322 206.397 2.323 215.81 C2.324 221.383 2.33 226.956 2.348 232.528 C2.364 237.718 2.366 242.908 2.358 248.098 C2.357 249.994 2.361 251.89 2.371 253.787 C2.384 256.378 2.378 258.968 2.367 261.559 C2.376 262.302 2.384 263.046 2.392 263.812 C2.342 269.121 1.079 273.113 -1 278 C-2.162 274.013 -1.598 271.126 -1 267 C-0.853 263.356 -0.874 259.714 -0.886 256.067 C-0.886 254.975 -0.886 253.884 -0.886 252.759 C-0.887 249.107 -0.895 245.455 -0.902 241.803 C-0.904 239.183 -0.906 236.563 -0.907 233.943 C-0.91 228.305 -0.916 222.667 -0.925 217.028 C-0.937 208.875 -0.943 200.722 -0.948 192.569 C-0.955 179.339 -0.966 166.109 -0.979 152.879 C-0.981 151.692 -0.981 151.692 -0.982 150.482 C-0.988 144.863 -0.994 139.244 -1 133.625 C-1.007 127.196 -1.014 120.767 -1.021 114.338 C-1.021 113.546 -1.022 112.754 -1.023 111.938 C-1.037 98.749 -1.046 85.561 -1.053 72.372 C-1.058 64.234 -1.066 56.097 -1.079 47.959 C-1.088 41.735 -1.092 35.512 -1.095 29.288 C-1.097 26.728 -1.1 24.167 -1.106 21.607 C-1.113 18.128 -1.114 14.65 -1.114 11.172 C-1.117 10.144 -1.121 9.117 -1.124 8.058 C-1.123 7.134 -1.122 6.21 -1.12 5.258 C-1.122 4.052 -1.122 4.052 -1.123 2.822 C-1 1 -1 1 0 0 Z " fill="#DC7A66" transform="translate(507,186)" />
<path d="M0 0 C4.801 1.39 9.033 3.466 13.438 5.781 C16.24 7.114 19.045 8.055 22 9 C24.148 9.766 26.293 10.537 28.438 11.312 C29.676 11.751 30.915 12.189 32.191 12.641 C34.609 13.496 37.005 14.383 39.402 15.297 C53.476 20.426 68.27 23.248 83.262 23 C84.311 22.984 84.311 22.984 85.382 22.968 C88.846 22.903 92.297 22.783 95.756 22.589 C105.068 22.267 105.068 22.267 107.999 24.572 C109.395 26.512 109.395 26.512 111 30 C87.17 30.696 64.536 29.197 42 21 C40.679 20.542 39.357 20.085 38.035 19.629 C28.918 16.412 20.356 12.384 11.786 7.925 C9.205 6.588 6.603 5.294 4 4 C2.667 3.333 1.333 2.667 0 2 C0 1.34 0 0.68 0 0 Z " fill="#FB9F81" transform="translate(608,667)" />
<path d="M0 0 C10.28 -0.156 20.401 0.195 30.645 1.053 C44.419 2.203 58.205 3.165 72 4.02 C72.697 4.063 73.394 4.106 74.113 4.15 C81.124 4.584 88.135 5.011 95.147 5.432 C111.452 6.415 127.73 7.547 144 9 C144 9.33 144 9.66 144 10 C109.098 10.206 109.098 10.206 96 9 C96 10.32 96 11.64 96 13 C85.44 13 74.88 13 64 13 C64 12.01 64 11.02 64 10 C62.886 10.124 62.886 10.124 61.75 10.25 C59 10 59 10 56.688 8.125 C55 6 55 6 55 4 C54.32 4.005 53.64 4.01 52.94 4.016 C49.814 4.037 46.688 4.05 43.562 4.062 C42.493 4.071 41.424 4.079 40.322 4.088 C34.91 4.104 29.657 3.944 24.289 3.256 C19.69 2.742 15.06 2.624 10.438 2.438 C9.429 2.394 8.42 2.351 7.381 2.307 C4.921 2.202 2.46 2.1 0 2 C0 1.34 0 0.68 0 0 Z " fill="#E97459" transform="translate(608,509)" />
<path d="M0 0 C1.938 0.812 1.938 0.812 4 2 C4.33 2.99 4.66 3.98 5 5 C5.66 5 6.32 5 7 5 C7 5.66 7 6.32 7 7 C7.99 7.33 8.98 7.66 10 8 C10 8.66 10 9.32 10 10 C10.66 10 11.32 10 12 10 C13.625 11.375 13.625 11.375 15 13 C15 13.66 15 14.32 15 15 C15.619 15.247 16.237 15.495 16.875 15.75 C19.351 17.206 19.951 18.378 21 21 C21.66 21 22.32 21 23 21 C24.625 22.375 24.625 22.375 26 24 C26 24.66 26 25.32 26 26 C26.66 26 27.32 26 28 26 C28.247 26.784 28.495 27.567 28.75 28.375 C29.714 31.102 29.714 31.102 31.879 31.918 C34.442 33.226 35.493 34.624 37.188 36.938 C40.723 41.672 44.47 46.196 48.277 50.715 C50 53 50 53 50 55 C50.99 55.33 51.98 55.66 53 56 C56 60.333 56 60.333 56 63 C56.828 63.28 56.828 63.28 57.672 63.566 C61.107 65.681 62.971 68.661 65.25 71.938 C65.938 72.888 65.938 72.888 66.641 73.857 C70 78.612 70 78.612 70 82 C68.68 82 67.36 82 66 82 C65.34 81.01 64.68 80.02 64 79 C63.01 79 62.02 79 61 79 C59.211 76.699 59.211 76.699 57.375 73.688 C56.458 72.208 56.458 72.208 55.523 70.699 C54 68 54 68 53 65 C52.34 65 51.68 65 51 65 C49.966 63.354 48.972 61.683 48 60 C46.672 58.329 45.338 56.663 44 55 C40 49.333 40 49.333 40 47 C39.01 46.67 38.02 46.34 37 46 C36.298 44.685 35.635 43.349 35 42 C34.001 40.999 33.001 39.999 32 39 C30.426 36.942 28.916 34.845 27.402 32.742 C26.1 30.876 26.1 30.876 24 30 C24 29.34 24 28.68 24 28 C23.34 28 22.68 28 22 28 C19 23.615 19 23.615 19 21 C18.423 20.753 17.845 20.505 17.25 20.25 C13.868 18.371 11.631 16.136 9.75 12.75 C7.507 9.226 4.675 6.625 1.645 3.77 C0 2 0 2 0 0 Z " fill="#FD9B7D" transform="translate(675,537)" />
<path d="M0 0 C0.66 0 1.32 0 2 0 C2 0.66 2 1.32 2 2 C2.596 2.273 3.191 2.547 3.805 2.828 C5.926 3.961 7.377 5.117 9.125 6.75 C12.786 10.004 16.786 12.334 21.059 14.703 C21.699 15.131 22.34 15.559 23 16 C23 16.66 23 17.32 23 18 C23.784 18.227 24.567 18.454 25.375 18.688 C30.739 20.63 36.359 22.917 40.867 26.473 C43.702 28.503 46.793 29.691 50 31 C51.361 31.592 52.721 32.189 54.078 32.789 C54.764 33.091 55.45 33.392 56.156 33.703 C57.568 34.325 58.98 34.947 60.391 35.57 C63.239 36.822 66.047 38.016 69 39 C69 39.66 69 40.32 69 41 C69.606 41.049 70.212 41.098 70.836 41.148 C88.655 42.738 88.655 42.738 95 48 C96.024 49.315 97.028 50.646 98 52 C80.903 50.731 65.251 44.598 50 37 C50 36.34 50 35.68 50 35 C49.274 34.88 48.549 34.76 47.801 34.637 C40.772 33.039 34.613 29.034 29.082 24.527 C26.775 22.835 24.332 21.493 21.84 20.095 C18.843 18.311 16.121 16.207 13.375 14.062 C12.828 13.645 12.282 13.228 11.719 12.799 C2.219 5.447 2.219 5.447 0 0 Z " fill="#FC9C7F" transform="translate(563,590)" />
<path d="M0 0 C0.66 0 1.32 0 2 0 C2 0.66 2 1.32 2 2 C2.66 2 3.32 2 4 2 C5.614 3.883 7.096 5.757 8.562 7.75 C9.18 8.558 9.18 8.558 9.811 9.383 C11.95 12.255 13.157 14.562 14 18 C14.99 18.33 15.98 18.66 17 19 C18.552 21.099 19.945 23.16 21.312 25.375 C21.907 26.321 21.907 26.321 22.514 27.286 C25.909 32.734 29.046 38.3 32 44 C32.379 44.718 32.758 45.436 33.148 46.176 C39 57.505 39 57.505 39 64 C39.66 64 40.32 64 41 64 C41.822 66.81 42.632 69.623 43.438 72.438 C43.668 73.221 43.898 74.004 44.135 74.811 C45.67 80.219 46.512 85.397 47 91 C41.796 87.092 39.285 84.641 38 78 C34.523 63.017 28.984 49.51 21.812 35.938 C21.467 35.282 21.122 34.626 20.767 33.95 C19.358 31.322 18.121 29.121 16 27 C15.329 25.335 14.663 23.668 14 22 C10.283 15.527 6.024 9.537 1.285 3.777 C0 2 0 2 0 0 Z " fill="#FC9E80" transform="translate(667,590)" />
</svg>