<?xml version='1.0' encoding='utf-8'?>
<svg xmlns="http://www.w3.org/2000/svg" version="1.1" width="916" height="400" viewBox="56.224500000000006 314.298 916.3684999999999 400.155">
<path d="M0 0 C2.715 1.688 2.715 1.688 4.938 4 C9.126 8.162 13.468 11.795 18.164 15.371 C18.77 15.909 19.376 16.446 20 17 C20 17.66 20 18.32 20 19 C20.581 19.262 21.163 19.523 21.762 19.793 C24.127 21.068 25.837 22.498 27.812 24.312 C30.35 26.59 32.878 28.693 35.688 30.625 C38.809 32.791 41.377 35.239 44 38 C46.567 40.698 48.895 42.93 52 45 C55.105 47.07 57.433 49.302 60 52 C61.392 52.99 61.392 52.99 62.812 54 C67.836 60.889 64.919 71.286 63.787 79.247 C62.421 89.43 62.325 99.743 62 110 C67.28 110 72.56 110 78 110 C77.34 106.7 76.68 103.4 76 100 C75.34 100 74.68 100 74 100 C74 98.68 74 97.36 74 96 C73.34 96 72.68 96 72 96 C66.638 83.887 66.638 83.887 68.906 77.414 C69.886 74.916 70.914 72.453 72 70 C72.66 70 73.32 70 74 70 C74.121 69.241 74.242 68.481 74.367 67.699 C74.619 66.208 74.619 66.208 74.875 64.688 C75.119 63.208 75.119 63.208 75.367 61.699 C76 59 76 59 78 56 C78.68 54.005 79.345 52.004 80 50 C80.737 48.301 81.475 46.601 82.223 44.906 C83.057 42.86 83.718 40.797 84.375 38.688 C88.744 25.374 88.744 25.374 92.785 22.913 C95.203 21.916 97.213 21.583 99.813 21.33 C100.764 21.233 101.715 21.136 102.695 21.037 C103.714 20.941 104.734 20.845 105.785 20.746 C106.838 20.64 107.89 20.535 108.975 20.426 C112.337 20.089 115.7 19.763 119.062 19.438 C122.429 19.107 125.795 18.775 129.161 18.439 C131.255 18.23 133.349 18.025 135.444 17.824 C136.866 17.684 136.866 17.684 138.317 17.541 C139.151 17.46 139.985 17.38 140.844 17.297 C143.178 17.043 143.178 17.043 146 16 C156.839 14.579 156.839 14.579 161.234 17.469 C165.348 22.056 168.168 27.564 171 33 C171.598 33.969 172.196 34.939 172.812 35.938 C174 38 174 38 174 40 C174.99 40 175.98 40 177 40 C177.459 40.941 177.918 41.882 178.391 42.852 C179.01 44.109 179.63 45.367 180.25 46.625 C180.701 47.551 180.701 47.551 181.16 48.496 C182.688 51.585 184.277 54.496 186.234 57.336 C188 60 188 60 188 62 C188.66 62 189.32 62 190 62 C193 66.385 193 66.385 193 69 C193.66 69 194.32 69 195 69 C195.413 69.866 195.825 70.733 196.25 71.625 C197.929 75.021 197.929 75.021 200.062 78.062 C202 81 202 81 202.941 83.41 C204.007 86.016 205.269 88.07 206.875 90.375 C207.401 91.157 207.927 91.94 208.469 92.746 C209.391 94.103 210.325 95.452 211.281 96.785 C214.636 101.854 214.824 106.149 214 112 C212.33 118.143 209.912 124.067 207.625 130 C206.42 133.163 205.224 136.33 204.039 139.5 C203.758 140.249 203.477 140.999 203.188 141.771 C201.221 147.128 199.855 152.344 199 158 C199.66 158 200.32 158 201 158 C201.082 157.443 201.165 156.886 201.25 156.312 C202 154 202 154 203.688 151.938 C207.074 147.636 209.46 142.835 212 138 C212.66 138 213.32 138 214 138 C214.247 137.257 214.495 136.515 214.75 135.75 C216.113 132.752 217.501 131.12 220 129 C222.72 128.093 224.403 127.856 227.208 127.807 C228.053 127.791 228.898 127.775 229.768 127.758 C233.62 127.714 237.471 127.673 241.323 127.65 C243.354 127.633 245.385 127.606 247.416 127.568 C250.348 127.513 253.279 127.491 256.211 127.477 C257.116 127.454 258.022 127.431 258.954 127.408 C263.474 127.423 265.364 127.495 269.01 130.389 C270.845 132.797 272.552 135.164 274.125 137.75 C277.73 143.579 281.443 149.329 285.18 155.073 C292 165.584 292 165.584 292 168 C292.66 168 293.32 168 294 168 C295.875 171.151 297.06 173.166 296.793 176.879 C295.932 180.267 294.712 182.433 292.75 185.312 C289.576 190.09 286.708 194.946 284 200 C283.34 200 282.68 200 282 200 C281.691 200.784 281.381 201.567 281.062 202.375 C280 205 280 205 279 207 C278.34 207 277.68 207 277 207 C277 207.66 277 208.32 277 209 C268.664 213.168 253.598 209.358 244.48 208.511 C241.612 208.249 238.742 208.011 235.871 207.773 C234.031 207.606 232.191 207.436 230.352 207.266 C229.501 207.199 228.651 207.132 227.776 207.063 C221.553 206.444 217.38 204.697 213.125 199.875 C212 198 212 198 212 196 C211.34 196 210.68 196 210 196 C210 195.34 210 194.68 210 194 C209.34 194 208.68 194 208 194 C207.34 192.02 206.68 190.04 206 188 C205.34 188 204.68 188 204 188 C202.062 185.767 200.238 183.528 198.438 181.188 C197.93 180.545 197.423 179.902 196.9 179.24 C194.729 176.451 193.13 174.39 192 171 C179.46 171 166.92 171 154 171 C154.66 173.64 155.32 176.28 156 179 C156 180.32 156 181.64 156 183 C156.69 183.121 157.379 183.242 158.09 183.367 C160.056 183.718 162.019 184.082 163.98 184.457 C165.807 184.785 167.643 185.068 169.488 185.262 C174.271 185.898 176.552 187.118 179.562 190.938 C180.725 192.614 181.87 194.302 183 196 C184.349 197.837 185.704 199.67 187.062 201.5 C188.375 203.333 189.688 205.167 191 207 C191.619 207.821 192.237 208.642 192.875 209.488 C197.028 215.208 197.028 215.208 196.875 219.562 C196.586 220.367 196.298 221.171 196 222 C195.34 222 194.68 222 194 222 C193.567 222.866 193.567 222.866 193.125 223.75 C192.083 225.833 191.042 227.917 190 230 C189.34 230 188.68 230 188 230 C187.723 230.556 187.446 231.111 187.16 231.684 C186.36 233.282 185.555 234.878 184.746 236.473 C184.098 237.755 184.098 237.755 183.438 239.062 C183.003 239.92 182.569 240.777 182.121 241.66 C180.909 244.065 180.909 244.065 180 247 C177.462 248.269 175.645 248.155 172.803 248.193 C171.719 248.209 170.634 248.225 169.516 248.242 C164.552 248.286 159.589 248.327 154.625 248.35 C152.005 248.367 149.386 248.394 146.766 248.432 C142.993 248.487 139.222 248.509 135.449 248.523 C133.693 248.557 133.693 248.557 131.901 248.592 C123.755 248.571 123.755 248.571 119.848 245.616 C118.933 244.321 118.933 244.321 118 243 C117.334 242.212 116.667 241.425 115.98 240.613 C115.389 239.854 114.797 239.095 114.188 238.312 C113.583 237.546 112.978 236.779 112.355 235.988 C111 234 111 234 111 232 C95.49 232 79.98 232 64 232 C64.315 241.56 64.315 241.56 64.721 251.115 C64.881 260.756 64.881 260.756 62.271 264.441 C60.264 266.192 58.259 267.598 56 269 C54.312 270.645 52.646 272.313 51 274 C49.649 275.378 48.295 276.753 46.938 278.125 C46.287 278.788 45.636 279.45 44.965 280.133 C41.03 283.872 38.449 285.379 32.977 286.062 C31.797 286.218 30.618 286.373 29.403 286.534 C28.156 286.688 26.909 286.841 25.625 287 C16.984 288.142 8.514 289.385 0.02 291.34 C-5.614 292.571 -11.275 293.34 -17 294 C-17.888 294.156 -18.776 294.312 -19.691 294.473 C-28.894 295.47 -36.147 289.958 -43.697 285.381 C-46.583 283.65 -49.516 282.012 -52.46 280.382 C-55.069 278.935 -57.661 277.459 -60.255 275.984 C-61.878 275.069 -63.513 274.174 -65.148 273.281 C-66.498 272.523 -66.498 272.523 -67.875 271.75 C-69.016 271.124 -69.016 271.124 -70.18 270.484 C-74.977 266.573 -75.132 258.612 -76.125 252.875 C-76.307 251.893 -76.489 250.91 -76.676 249.898 C-79.066 236.237 -79.066 236.237 -78 230 C-75.711 227.066 -73.014 225.15 -70 223 C-68.358 221.603 -66.733 220.186 -65.125 218.75 C-64.385 218.105 -63.645 217.461 -62.883 216.797 C-60.806 214.946 -60.806 214.946 -59 212 C-58.34 212 -57.68 212 -57 212 C-56.67 211.01 -56.34 210.02 -56 209 C-54.328 207.352 -54.328 207.352 -52.25 205.625 C-49.759 203.522 -47.372 201.424 -45.125 199.062 C-43 197 -43 197 -41 197 C-40.794 196.443 -40.587 195.886 -40.375 195.312 C-38.471 192.11 -35.922 190.279 -33 188 C-32.466 187.488 -31.933 186.976 -31.383 186.449 C-27.733 184.23 -23.94 183.932 -19.75 183.375 C-18.867 183.249 -17.984 183.124 -17.074 182.995 C-10.122 182.048 -3.195 181.512 3.812 181.211 C6.409 181.039 8.511 180.652 11 180 C12.519 179.911 14.041 179.87 15.562 179.875 C16.709 179.871 16.709 179.871 17.879 179.867 C20 180 20 180 23 181 C22.995 180.287 22.99 179.574 22.984 178.839 C22.889 163.855 23.045 148.956 24 134 C24.66 134 25.32 134 26 134 C26.103 133.402 26.206 132.804 26.312 132.188 C27.134 129.574 27.858 128.699 30 127 C31.031 126.505 32.062 126.01 33.125 125.5 C36.296 124.269 36.296 124.269 37 121 C35.96 120.625 35.96 120.625 34.898 120.242 C31.58 118.82 28.68 117.048 25.625 115.125 C21.135 112.317 16.625 109.581 12 107 C12 106.34 12 105.68 12 105 C11.283 104.727 10.567 104.453 9.828 104.172 C2.342 101.07 -4.565 96.786 -11.223 92.199 C-12.989 90.951 -12.989 90.951 -15 90 C-15 89.34 -15 88.68 -15 88 C-24.007 85.598 -32.69 87.353 -41.582 89.344 C-44.532 89.91 -47.017 90.252 -50 90 C-53.794 87.273 -55.636 83.275 -57.754 79.219 C-58.955 76.945 -58.955 76.945 -60.652 74.906 C-62 73 -62 73 -62 70 C-62.66 70 -63.32 70 -64 70 C-64.682 68.8 -65.345 67.59 -66 66.375 C-66.371 65.702 -66.743 65.029 -67.125 64.336 C-69.053 59.19 -67.826 54.693 -66.188 49.625 C-65.82 48.487 -65.453 47.349 -65.074 46.176 C-64.027 43.081 -62.976 40.002 -61.762 36.969 C-61.189 35.489 -60.681 33.983 -60.207 32.469 C-59.912 31.592 -59.617 30.716 -59.312 29.812 C-59.061 29.015 -58.81 28.217 -58.551 27.395 C-56.173 23.723 -52.771 22.088 -49 20 C-48.381 19.65 -47.763 19.3 -47.126 18.94 C-42.148 16.173 -37.07 13.592 -32 11 C-31.049 10.51 -30.098 10.021 -29.118 9.516 C-26.089 7.968 -23.047 6.45 -20 4.938 C-19.045 4.448 -18.091 3.959 -17.107 3.455 C-11.438 0.686 -6.358 -1.386 0 0 Z " fill="#FAC5B3" transform="translate(537,378)" />
<path d="M0 0 C3.947 -0.702 6.007 -0.598 9.492 1.5 C11.359 2.885 13.208 4.293 15.043 5.719 C17.951 7.962 20.927 9.991 24 12 C28.785 15.161 33.443 18.454 38.062 21.852 C42.06 24.775 46.098 27.64 50.142 30.5 C52.755 32.356 55.299 34.244 57.781 36.273 C59.822 38.139 59.822 38.139 62.125 38.375 C64 39 64 39 65.578 41.484 C67.313 45.775 67.524 49.291 67.625 53.875 C67.656 54.794 67.687 55.713 67.719 56.66 C67.828 60.106 67.913 63.553 68 67 C68.043 68.529 68.088 70.058 68.132 71.587 C68.692 90.724 69.198 109.853 69 129 C70.118 129.218 70.118 129.218 71.258 129.441 C78.059 130.827 81.621 131.911 85.625 137.688 C86.752 139.457 87.877 141.228 89 143 C90.617 145.159 92.268 147.285 93.934 149.406 C95 151 95 151 95 153 C95.66 153 96.32 153 97 153 C105.837 163.749 113.335 174.808 113.5 188.875 C113.541 189.748 113.582 190.62 113.625 191.52 C113.681 196.185 113.355 199.189 110.316 202.844 C107.533 205.65 104.551 208.189 101.438 210.625 C98.535 212.906 95.87 215.133 93.285 217.773 C91 220 91 220 89 220 C89 220.66 89 221.32 89 222 C87.307 223.564 85.544 225.053 83.75 226.5 C82.775 227.294 81.801 228.088 80.797 228.906 C78.551 230.587 76.553 231.881 74 233 C74 233.66 74 234.32 74 235 C72.602 236.41 72.602 236.41 70.625 238.062 C67.394 240.809 64.208 243.592 61.062 246.438 C54.268 252.566 47.431 258.643 40.531 264.652 C39.667 265.413 38.814 266.186 38 267 C32.95 267.388 29.983 267.186 26 264 C24.224 262.057 22.522 260.065 20.828 258.051 C18.614 255.567 16.177 253.535 13.613 251.426 C12 250 12 250 9.562 247.062 C6.381 243.26 2.807 240.158 -1 237 C-1.766 236.296 -2.531 235.592 -3.32 234.867 C-6.56 232.61 -8.983 232.278 -12.875 231.75 C-19.15 230.564 -21.854 229.023 -25.562 223.906 C-27.024 221.741 -27.024 221.741 -30 220.062 C-34.296 217.109 -36.959 213.182 -40 209 C-40.563 208.392 -41.127 207.783 -41.707 207.156 C-43.642 203.929 -43.374 201.723 -43 198 C-42.161 194.936 -41.042 192.015 -39.875 189.062 C-39.56 188.238 -39.245 187.413 -38.921 186.563 C-38.273 184.867 -37.62 183.172 -36.962 181.479 C-35.777 178.425 -34.614 175.364 -33.459 172.299 C-32.732 170.369 -31.997 168.442 -31.262 166.516 C-30.011 163.032 -28.975 159.569 -28 156 C-29.187 155.863 -29.187 155.863 -30.398 155.723 C-35.046 154.79 -39.237 153.203 -43.625 151.438 C-44.471 151.127 -45.316 150.817 -46.188 150.498 C-47.005 150.167 -47.822 149.837 -48.664 149.496 C-49.769 149.066 -49.769 149.066 -50.897 148.627 C-54.28 146.01 -55.822 143.013 -57 139 C-57.526 134.071 -57.467 129.168 -57.391 124.219 C-57.383 122.795 -57.377 121.372 -57.373 119.948 C-57.358 116.226 -57.319 112.505 -57.275 108.783 C-57.234 104.975 -57.215 101.167 -57.195 97.359 C-57.153 89.906 -57.084 82.453 -57 75 C-48.506 76.005 -48.506 76.005 -44.668 76.938 C-40.823 77.85 -36.97 78.702 -33.106 79.528 C-31.328 79.926 -29.566 80.391 -27.809 80.871 C-24.815 81.503 -22.983 81.731 -20 81 C-16.522 78.501 -13.58 75.821 -10.629 72.734 C-8.499 70.519 -6.577 68.654 -4 67 C-3.34 67 -2.68 67 -2 67 C-1.505 65.515 -1.505 65.515 -1 64 C3.457 60 3.457 60 6 60 C10.817 45.548 4.357 23.323 0.448 8.972 C-0.23 5.986 -0.059 3.047 0 0 Z " fill="#FBAB90" transform="translate(388,325)" />
<path d="M0 0 C6.452 0.516 12.304 2.176 18.5 4.012 C22.959 5.271 27.439 6.201 32 7 C32 7.66 32 8.32 32 9 C32.802 9.086 33.604 9.173 34.43 9.262 C60.014 12.423 60.014 12.423 66.699 18.422 C70.908 24.467 72.107 29.753 71 37 C69.311 43.14 66.913 49.065 64.625 55 C63.42 58.163 62.224 61.33 61.039 64.5 C60.618 65.624 60.618 65.624 60.188 66.771 C58.221 72.128 56.855 77.344 56 83 C56.66 83 57.32 83 58 83 C58.082 82.443 58.165 81.886 58.25 81.312 C59 79 59 79 60.688 76.938 C64.074 72.636 66.46 67.835 69 63 C69.66 63 70.32 63 71 63 C71.371 61.886 71.371 61.886 71.75 60.75 C73.113 57.752 74.501 56.12 77 54 C79.72 53.093 81.403 52.856 84.208 52.807 C85.053 52.791 85.898 52.775 86.768 52.758 C90.62 52.714 94.471 52.673 98.323 52.65 C100.354 52.633 102.385 52.606 104.416 52.568 C107.348 52.513 110.279 52.491 113.211 52.477 C114.116 52.454 115.022 52.431 115.954 52.408 C120.474 52.423 122.364 52.495 126.01 55.389 C127.845 57.797 129.552 60.164 131.125 62.75 C134.73 68.579 138.443 74.329 142.18 80.073 C149 90.584 149 90.584 149 93 C149.66 93 150.32 93 151 93 C152.875 96.151 154.06 98.166 153.793 101.879 C152.932 105.267 151.712 107.433 149.75 110.312 C146.576 115.09 143.708 119.946 141 125 C140.34 125 139.68 125 139 125 C138.691 125.784 138.381 126.567 138.062 127.375 C137 130 137 130 136 132 C135.34 132 134.68 132 134 132 C134 132.66 134 133.32 134 134 C125.664 138.168 110.598 134.358 101.48 133.511 C98.612 133.249 95.742 133.011 92.871 132.773 C91.031 132.606 89.191 132.436 87.352 132.266 C86.076 132.165 86.076 132.165 84.776 132.063 C78.553 131.444 74.38 129.697 70.125 124.875 C69 123 69 123 69 121 C68.34 121 67.68 121 67 121 C67 120.34 67 119.68 67 119 C66.34 119 65.68 119 65 119 C64.34 117.02 63.68 115.04 63 113 C62.34 113 61.68 113 61 113 C59.062 110.767 57.238 108.528 55.438 106.188 C54.93 105.545 54.423 104.902 53.9 104.24 C51.729 101.451 50.13 99.39 49 96 C36.46 96 23.92 96 11 96 C11.99 99.96 11.99 99.96 13 104 C13 105.32 13 106.64 13 108 C14.034 108.182 14.034 108.182 15.09 108.367 C17.056 108.718 19.019 109.082 20.98 109.457 C22.807 109.785 24.643 110.068 26.488 110.262 C31.271 110.898 33.552 112.118 36.562 115.938 C37.725 117.614 38.87 119.302 40 121 C41.349 122.837 42.704 124.67 44.062 126.5 C45.375 128.333 46.688 130.167 48 132 C48.619 132.821 49.237 133.642 49.875 134.488 C54.028 140.208 54.028 140.208 53.875 144.562 C53.586 145.367 53.298 146.171 53 147 C52.34 147 51.68 147 51 147 C50.711 147.577 50.423 148.155 50.125 148.75 C49.083 150.833 48.042 152.917 47 155 C46.34 155 45.68 155 45 155 C44.723 155.556 44.446 156.111 44.16 156.684 C43.36 158.282 42.555 159.878 41.746 161.473 C41.314 162.327 40.882 163.182 40.438 164.062 C40.003 164.92 39.569 165.777 39.121 166.66 C37.909 169.065 37.909 169.065 37 172 C34.462 173.269 32.645 173.155 29.803 173.193 C28.719 173.209 27.634 173.225 26.516 173.242 C21.552 173.286 16.589 173.327 11.625 173.35 C9.005 173.367 6.386 173.394 3.766 173.432 C-0.007 173.487 -3.778 173.509 -7.551 173.523 C-9.307 173.557 -9.307 173.557 -11.099 173.592 C-19.193 173.571 -19.193 173.571 -23.071 170.826 C-24.974 168.039 -26.648 165.196 -28.312 162.262 C-30.905 158.633 -32.206 157.22 -36.547 156.018 C-40.704 155.571 -44.823 155.683 -49 155.812 C-53.95 155.874 -58.9 155.936 -64 156 C-64.33 143.79 -64.66 131.58 -65 119 C-63.515 118.505 -63.515 118.505 -62 118 C-62 117.34 -62 116.68 -62 116 C-59.864 114.359 -57.724 112.825 -55.5 111.312 C-50.53 107.866 -45.862 104.34 -41.453 100.18 C-40 99 -40 99 -38 99 C-36.983 85.508 -36.689 72.024 -36.438 58.5 C-36.394 56.309 -36.351 54.117 -36.307 51.926 C-36.201 46.617 -36.099 41.309 -36 36 C-33.981 35.78 -31.963 35.56 -29.944 35.339 C-27.477 34.909 -26.328 34.128 -24.688 32.25 C-23.97 31.438 -23.97 31.438 -23.238 30.609 C-21.616 28.501 -20.282 26.33 -19 24 C-16.358 19.773 -13.513 16.513 -10 13 C-9.085 11.743 -8.189 10.472 -7.312 9.188 C-6.549 8.136 -5.786 7.084 -5 6 C-4.34 6 -3.68 6 -3 6 C-2.691 5.381 -2.381 4.762 -2.062 4.125 C-1.375 2.75 -0.688 1.375 0 0 Z " fill="#FB9E7F" transform="translate(680,453)" />
<path d="M0 0 C2.715 1.688 2.715 1.688 4.938 4 C9.126 8.162 13.468 11.795 18.164 15.371 C18.77 15.909 19.376 16.446 20 17 C20 17.66 20 18.32 20 19 C20.581 19.262 21.163 19.523 21.762 19.793 C24.127 21.068 25.837 22.498 27.812 24.312 C30.35 26.59 32.878 28.693 35.688 30.625 C38.809 32.791 41.377 35.239 44 38 C46.567 40.698 48.895 42.93 52 45 C55.105 47.07 57.433 49.302 60 52 C61.392 52.99 61.392 52.99 62.812 54 C69.12 62.65 63.834 80.754 62.5 90.812 C62.258 92.68 62.017 94.548 61.777 96.416 C61.193 100.945 60.6 105.473 60 110 C59.386 110.19 58.773 110.38 58.141 110.576 C57.333 110.833 56.526 111.091 55.694 111.356 C54.895 111.608 54.096 111.86 53.272 112.119 C48.934 113.801 45.932 117.116 42.578 120.234 C40 122 40 122 37.488 121.961 C34.688 120.88 32.429 119.551 29.938 117.875 C24.828 114.499 19.592 111.453 14.238 108.48 C13.5 107.992 12.761 107.503 12 107 C12 106.34 12 105.68 12 105 C11.283 104.727 10.567 104.453 9.828 104.172 C2.342 101.07 -4.565 96.786 -11.223 92.199 C-12.989 90.951 -12.989 90.951 -15 90 C-15 89.34 -15 88.68 -15 88 C-24.007 85.598 -32.69 87.353 -41.582 89.344 C-44.532 89.91 -47.017 90.252 -50 90 C-53.794 87.273 -55.636 83.275 -57.754 79.219 C-58.955 76.945 -58.955 76.945 -60.652 74.906 C-62 73 -62 73 -62 70 C-62.66 70 -63.32 70 -64 70 C-64.682 68.8 -65.345 67.59 -66 66.375 C-66.371 65.702 -66.743 65.029 -67.125 64.336 C-69.053 59.19 -67.826 54.693 -66.188 49.625 C-65.636 47.918 -65.636 47.918 -65.074 46.176 C-64.027 43.081 -62.976 40.002 -61.762 36.969 C-61.189 35.489 -60.681 33.983 -60.207 32.469 C-59.912 31.592 -59.617 30.716 -59.312 29.812 C-59.061 29.015 -58.81 28.217 -58.551 27.395 C-56.173 23.723 -52.771 22.088 -49 20 C-48.381 19.65 -47.763 19.3 -47.126 18.94 C-42.148 16.173 -37.07 13.592 -32 11 C-31.049 10.51 -30.098 10.021 -29.118 9.516 C-26.089 7.968 -23.047 6.45 -20 4.938 C-19.045 4.448 -18.091 3.959 -17.107 3.455 C-11.438 0.686 -6.358 -1.386 0 0 Z " fill="#F57146" transform="translate(537,378)" />
<path d="M0 0 C0.33 14.52 0.66 29.04 1 44 C2.32 44.66 3.64 45.32 5 46 C5 46.66 5 47.32 5 48 C6.031 48.268 7.062 48.536 8.125 48.812 C11.649 49.81 14.769 51.266 18 53 C18 53.66 18 54.32 18 55 C18.565 55.13 19.129 55.26 19.711 55.395 C27.066 57.34 33.417 60.654 39.676 64.926 C41.933 66.17 41.933 66.17 44.379 65.98 C47.982 64.633 50.693 62.42 53.625 60 C54.237 59.507 54.85 59.013 55.481 58.505 C57.329 57.013 59.166 55.509 61 54 C62.524 52.753 62.524 52.753 64.078 51.48 C65.891 49.994 67.702 48.506 69.512 47.016 C72.934 44.243 76.444 41.598 80 39 C83.463 40.484 85.807 41.901 88 45 C88.828 48.735 89.018 52.435 89.188 56.25 C89.276 57.262 89.364 58.274 89.455 59.316 C89.739 64.993 89.363 68.316 85.613 72.734 C83.72 74.663 83.72 74.663 82 76 C81.34 76 80.68 76 80 76 C80 76.66 80 77.32 80 78 C74.524 83 74.524 83 72 83 C71.505 84.485 71.505 84.485 71 86 C69.288 87.587 67.507 89.1 65.688 90.562 C64.722 91.348 63.756 92.133 62.762 92.941 C60.531 94.604 58.533 95.887 56 97 C56 97.66 56 98.32 56 99 C51.171 103.088 47.126 103.709 40.93 104.047 C40.053 104.108 39.177 104.169 38.274 104.232 C36.417 104.357 34.56 104.474 32.702 104.583 C29.931 104.747 27.163 104.935 24.395 105.129 C18.932 105.496 13.469 105.768 8 106 C7.066 106.044 6.132 106.087 5.17 106.132 C2.428 106.249 -0.311 106.326 -3.055 106.391 C-3.882 106.428 -4.71 106.465 -5.562 106.503 C-9.869 106.556 -11.451 106.448 -14.905 103.628 C-15.596 102.761 -16.288 101.893 -17 101 C-17.813 100.196 -18.627 99.391 -19.465 98.562 C-22.232 95.766 -24.907 92.902 -27.562 90 C-28.265 89.238 -28.265 89.238 -28.982 88.461 C-31.787 85.401 -34.422 82.251 -37 79 C-39.346 76.587 -41.714 74.249 -44.25 72.035 C-50.231 66.582 -52.322 62.979 -53 55 C-53.367 53.279 -53.367 53.279 -53.742 51.523 C-55.28 42.351 -55.28 42.351 -52.941 38.056 C-50.177 34.208 -46.94 30.86 -43.546 27.566 C-41.986 25.985 -40.61 24.334 -39.227 22.598 C-38.492 21.74 -37.757 20.883 -37 20 C-36.34 20 -35.68 20 -35 20 C-34.67 19.01 -34.34 18.02 -34 17 C-33.34 17 -32.68 17 -32 17 C-31.642 16.184 -31.642 16.184 -31.277 15.352 C-29.674 12.399 -27.693 9.971 -25.562 7.375 C-24.78 6.413 -23.998 5.452 -23.191 4.461 C-16.195 -3.397 -13.859 0 0 0 Z " fill="#FAA182" transform="translate(328,580)" />
<path d="M0 0 C3.947 -0.702 6.007 -0.598 9.492 1.5 C11.359 2.885 13.208 4.293 15.043 5.719 C17.951 7.962 20.927 9.991 24 12 C28.789 15.164 33.45 18.46 38.074 21.859 C40.819 23.867 43.58 25.848 46.352 27.819 C48.713 29.499 51.069 31.188 53.424 32.876 C54.833 33.881 56.25 34.873 57.668 35.863 C58.396 36.383 59.125 36.902 59.875 37.438 C60.491 37.869 61.107 38.301 61.742 38.746 C62.157 39.16 62.572 39.574 63 40 C63 40.99 63 41.98 63 43 C58.778 46 58.778 46 56 46 C56 46.66 56 47.32 56 48 C54.137 49.691 54.137 49.691 51.688 51.562 C50.487 52.493 50.487 52.493 49.262 53.441 C47 55 47 55 44 56 C44 56.66 44 57.32 44 58 C43.34 58 42.68 58 42 58 C41.773 58.557 41.546 59.114 41.312 59.688 C39.319 63.2 36.639 66.181 33 68 C32.933 79.012 33.123 89.995 33.5 101 C33.548 102.469 33.597 103.937 33.645 105.406 C33.76 108.938 33.879 112.469 34 116 C31 117 31 117 28 116 C27.67 115.34 27.34 114.68 27 114 C24.938 113.418 22.848 112.933 20.75 112.5 C14.464 111.192 14.464 111.192 11.398 109.926 C8.75 108.903 6.705 108.7 3.875 108.688 C3.027 108.671 2.179 108.654 1.305 108.637 C-1.468 109.074 -2.192 109.932 -4 112 C-6.188 112.688 -6.188 112.688 -8 113 C-8 113.66 -8 114.32 -8 115 C-9.624 116.708 -11.292 118.376 -13 120 C-14.471 121.471 -14.435 122.966 -14.812 125 C-15.679 129.048 -17.02 132.455 -18.781 136.184 C-21.572 142.632 -23.713 149.36 -26 156 C-32.435 155.474 -37.791 153.884 -43.75 151.438 C-44.587 151.127 -45.423 150.817 -46.285 150.498 C-47.093 150.167 -47.902 149.837 -48.734 149.496 C-49.821 149.066 -49.821 149.066 -50.929 148.627 C-54.278 145.996 -55.823 142.998 -57 139 C-57.527 134.071 -57.467 129.168 -57.391 124.219 C-57.383 122.795 -57.377 121.372 -57.373 119.948 C-57.358 116.226 -57.319 112.505 -57.275 108.783 C-57.234 104.975 -57.215 101.167 -57.195 97.359 C-57.153 89.906 -57.084 82.453 -57 75 C-48.506 76.005 -48.506 76.005 -44.668 76.938 C-40.823 77.85 -36.97 78.702 -33.106 79.528 C-31.328 79.926 -29.566 80.391 -27.809 80.871 C-24.815 81.503 -22.983 81.731 -20 81 C-16.522 78.501 -13.58 75.821 -10.629 72.734 C-8.499 70.519 -6.577 68.654 -4 67 C-3.34 67 -2.68 67 -2 67 C-1.505 65.515 -1.505 65.515 -1 64 C3.457 60 3.457 60 6 60 C10.817 45.548 4.357 23.323 0.448 8.972 C-0.23 5.986 -0.059 3.047 0 0 Z " fill="#FB9571" transform="translate(388,325)" />
<path d="M0 0 C3.844 2.095 7.423 4.482 11 7 C11.99 7.66 12.98 8.32 14 9 C14 9.66 14 10.32 14 11 C15.176 11.278 15.176 11.278 16.375 11.562 C21.497 13.594 25.569 16.765 30 20 C31.788 21.276 33.58 22.547 35.375 23.812 C36.166 24.376 36.958 24.939 37.773 25.52 C39.797 26.865 41.802 27.971 44 29 C44 29.66 44 30.32 44 31 C44.763 31.248 45.526 31.495 46.312 31.75 C49.351 33.163 50.256 34.185 52 37 C52.524 39.296 52.524 39.296 52.73 41.824 C52.811 42.763 52.892 43.701 52.976 44.668 C53.081 46.163 53.081 46.163 53.188 47.688 C53.305 49.221 53.305 49.221 53.425 50.785 C55.272 76.574 55.272 76.574 51 82 C50.34 82 49.68 82 49 82 C48.752 82.557 48.505 83.114 48.25 83.688 C46.102 87.66 43.761 90.493 40 93 C34.281 93 31.613 91.227 27.633 87.488 C25.606 85.641 23.362 84.378 21 83 C19.981 82.019 18.976 81.023 18 80 C17.34 79.67 16.68 79.34 16 79 C16 78.34 16 77.68 16 77 C14.639 76.629 14.639 76.629 13.25 76.25 C9.843 74.939 8.488 73.571 6 71 C3.862 70.213 3.862 70.213 2 70 C2 69.34 2 68.68 2 68 C-4.187 65.375 -9.288 63.363 -16 65 C-16 65.66 -16 66.32 -16 67 C-16.818 67.346 -16.818 67.346 -17.652 67.699 C-27.957 72.156 -37.457 77.998 -47.109 83.695 C-47.782 84.091 -48.454 84.487 -49.146 84.896 C-50.74 85.845 -52.317 86.822 -53.891 87.805 C-56 89 -56 89 -58 89 C-57.539 77.73 -55.61 66.733 -53.671 55.641 C-53.122 52.481 -52.59 49.319 -52.059 46.156 C-51.709 44.135 -51.359 42.114 -51.008 40.094 C-50.773 38.684 -50.773 38.684 -50.534 37.246 C-49.543 31.691 -48.616 27.058 -43.969 23.402 C-43.154 22.919 -42.339 22.436 -41.5 21.938 C-40.533 21.35 -39.566 20.762 -38.57 20.156 C-38.016 19.824 -37.462 19.491 -36.892 19.148 C-33.02 16.798 -29.203 14.358 -25.375 11.938 C-24.588 11.443 -23.801 10.949 -22.99 10.439 C-18.244 7.451 -13.576 4.381 -8.969 1.183 C-5.626 -0.826 -3.8 -0.852 0 0 Z " fill="#FAA184" transform="translate(272,452)" />
<path d="M0 0 C6.452 0.516 12.304 2.176 18.5 4.012 C22.959 5.271 27.439 6.201 32 7 C32 7.66 32 8.32 32 9 C32.802 9.086 33.604 9.173 34.43 9.262 C60.014 12.423 60.014 12.423 66.699 18.422 C70.911 24.47 72.098 29.75 71 37 C69.334 43.14 66.957 49.064 64.688 55 C63.499 58.165 62.318 61.332 61.137 64.5 C60.712 65.63 60.712 65.63 60.28 66.782 C58.515 71.505 56.94 76.243 55.558 81.094 C54.867 83.455 54.003 85.693 53 87.938 C52.691 88.648 52.381 89.358 52.062 90.09 C50.901 92.177 49.831 93.466 48 95 C45.058 95.262 42.333 95.349 39.395 95.293 C38.136 95.287 38.136 95.287 36.851 95.28 C34.171 95.263 31.492 95.226 28.812 95.188 C26.995 95.172 25.178 95.159 23.361 95.146 C18.907 95.113 14.454 95.062 10 95 C9.508 92.442 9.018 89.883 8.531 87.324 C8.392 86.605 8.253 85.885 8.11 85.143 C7.394 81.368 6.787 77.651 6.5 73.812 C5.924 66.754 4.237 59.711 2 53 C0.67 52.655 -0.665 52.325 -2 52 C-5.25 50.062 -5.25 50.062 -8 48 C-8 47.34 -8 46.68 -8 46 C-8.639 45.773 -9.279 45.546 -9.938 45.312 C-15.682 42.851 -21.064 39.839 -26 36 C-25.42 32.637 -24.421 31.328 -22 29 C-20.974 27.349 -19.977 25.68 -19 24 C-16.358 19.773 -13.513 16.513 -10 13 C-9.085 11.743 -8.189 10.472 -7.312 9.188 C-6.549 8.136 -5.786 7.084 -5 6 C-4.34 6 -3.68 6 -3 6 C-2.691 5.381 -2.381 4.762 -2.062 4.125 C-1.375 2.75 -0.688 1.375 0 0 Z " fill="#F67146" transform="translate(680,453)" />
<path d="M0 0 C1.267 -0.024 1.267 -0.024 2.559 -0.048 C3.923 -0.049 3.923 -0.049 5.315 -0.049 C6.253 -0.056 7.192 -0.064 8.158 -0.072 C10.144 -0.083 12.129 -0.086 14.115 -0.081 C17.149 -0.08 20.18 -0.122 23.213 -0.166 C25.143 -0.171 27.073 -0.174 29.002 -0.174 C29.908 -0.19 30.813 -0.207 31.746 -0.224 C36.259 -0.174 38.165 -0.079 41.801 2.813 C43.638 5.219 45.344 7.584 46.917 10.17 C50.522 15.998 54.234 21.749 57.972 27.493 C64.792 38.004 64.792 38.004 64.792 40.42 C65.452 40.42 66.112 40.42 66.792 40.42 C68.667 43.57 69.851 45.586 69.584 49.299 C68.724 52.687 67.504 54.853 65.542 57.732 C62.367 62.51 59.499 67.366 56.792 72.42 C56.132 72.42 55.472 72.42 54.792 72.42 C54.327 73.596 54.327 73.596 53.854 74.795 C52.792 77.42 52.792 77.42 51.792 79.42 C51.132 79.42 50.472 79.42 49.792 79.42 C49.792 80.08 49.792 80.74 49.792 81.42 C41.456 85.588 26.389 81.777 17.271 80.931 C14.403 80.669 11.533 80.431 8.663 80.193 C6.823 80.026 4.983 79.856 3.143 79.686 C1.868 79.585 1.868 79.585 0.567 79.483 C-6.17 78.813 -10.23 76.745 -14.708 71.482 C-16.208 68.42 -16.208 68.42 -15.958 65.92 C-13.389 62.249 -10.028 59.735 -6.208 57.42 C-5.548 57.42 -4.888 57.42 -4.208 57.42 C-4.208 56.76 -4.208 56.1 -4.208 55.42 C-3.652 55.193 -3.095 54.966 -2.521 54.732 C0.444 53.05 2.408 50.859 4.792 48.42 C11.035 42.798 11.035 42.798 13.792 41.42 C13.333 37.294 12.943 35.16 9.792 32.42 C9.792 31.76 9.792 31.1 9.792 30.42 C9.132 30.42 8.472 30.42 7.792 30.42 C7.393 29.414 6.995 28.409 6.584 27.373 C4.559 22.644 1.728 18.556 -1.156 14.318 C-4.208 9.727 -4.208 9.727 -4.208 6.42 C-4.868 6.42 -5.528 6.42 -6.208 6.42 C-6.538 5.43 -6.868 4.44 -7.208 3.42 C-4.904 0.674 -3.567 0.04 0 0 Z " fill="#F99773" transform="translate(764.20849609375,505.580078125)" />
<path d="M0 0 C2.386 0.351 4.762 0.77 7.125 1.25 C8.502 1.523 9.88 1.795 11.258 2.066 C12.003 2.215 12.749 2.363 13.517 2.516 C18.335 3.455 23.169 4.315 28 5.188 C29.917 5.535 31.833 5.883 33.75 6.23 C35.167 6.487 36.583 6.744 38 7 C38 7.66 38 8.32 38 9 C38.66 9 39.32 9 40 9 C41.765 14.296 41.424 19.967 41.515 25.514 C41.546 26.998 41.594 28.482 41.658 29.965 C42.185 42.297 42.185 42.297 39.267 46.49 C37.261 48.242 35.272 49.621 33 51 C31.312 52.645 29.646 54.313 28 56 C26.649 57.378 25.295 58.753 23.938 60.125 C23.287 60.788 22.636 61.45 21.965 62.133 C18.03 65.872 15.449 67.379 9.977 68.062 C8.797 68.218 7.618 68.374 6.402 68.534 C4.533 68.765 4.533 68.765 2.625 69 C-8.758 70.48 -8.758 70.48 -20 72.75 C-25.997 74.152 -31.856 74.56 -38 74 C-41.108 70.892 -39.744 59.441 -39.896 55.022 C-39.965 53.019 -40.041 51.016 -40.124 49.013 C-40.235 46.155 -40.31 43.297 -40.375 40.438 C-40.413 39.552 -40.451 38.667 -40.49 37.755 C-40.521 35.397 -40.501 33.305 -40 31 C-37.539 28.535 -37.539 28.535 -35 27 C-34.67 26.34 -34.34 25.68 -34 25 C-33.34 25 -32.68 25 -32 25 C-31.794 24.464 -31.587 23.928 -31.375 23.375 C-29.467 20.08 -26.952 17.406 -24 15 C-23.34 15 -22.68 15 -22 15 C-21.67 14.01 -21.34 13.02 -21 12 C-19.328 10.352 -19.328 10.352 -17.25 8.625 C-14.722 6.514 -12.648 4.587 -10.5 2.062 C-7.11 -0.734 -4.18 -0.292 0 0 Z " fill="#F67347" transform="translate(560,596)" />
<path d="M0 0 C2.715 1.688 2.715 1.688 4.938 4 C9.126 8.162 13.468 11.795 18.164 15.371 C18.77 15.909 19.376 16.446 20 17 C20 17.66 20 18.32 20 19 C20.581 19.262 21.163 19.523 21.762 19.793 C24.127 21.068 25.837 22.498 27.812 24.312 C30.35 26.59 32.878 28.693 35.688 30.625 C38.808 32.788 41.382 35.24 44 38 C45.331 39.336 46.664 40.669 48 42 C47.338 41.984 46.675 41.969 45.993 41.953 C39.049 41.797 32.106 41.692 25.161 41.615 C22.575 41.58 19.989 41.533 17.404 41.472 C13.67 41.386 9.938 41.347 6.203 41.316 C4.491 41.262 4.491 41.262 2.745 41.207 C-7.551 41.202 -14.854 45.321 -22.562 51.938 C-25 54 -25 54 -28 54 C-27.773 55.347 -27.773 55.347 -27.541 56.722 C-26.981 60.05 -26.422 63.379 -25.864 66.708 C-25.622 68.149 -25.379 69.59 -25.136 71.032 C-24.787 73.102 -24.44 75.172 -24.094 77.242 C-23.884 78.489 -23.675 79.735 -23.459 81.019 C-23 84 -23 84 -23 86 C-26.561 86.674 -30.124 87.338 -33.688 88 C-34.695 88.191 -35.702 88.382 -36.74 88.578 C-37.717 88.759 -38.693 88.939 -39.699 89.125 C-40.595 89.293 -41.49 89.46 -42.413 89.633 C-49.175 90.593 -49.175 90.593 -52 88.562 C-54.305 85.609 -56.022 82.534 -57.754 79.219 C-58.955 76.945 -58.955 76.945 -60.652 74.906 C-62 73 -62 73 -62 70 C-62.66 70 -63.32 70 -64 70 C-64.682 68.8 -65.345 67.59 -66 66.375 C-66.371 65.702 -66.743 65.029 -67.125 64.336 C-69.053 59.19 -67.826 54.693 -66.188 49.625 C-65.636 47.918 -65.636 47.918 -65.074 46.176 C-64.027 43.081 -62.976 40.002 -61.762 36.969 C-61.189 35.489 -60.681 33.983 -60.207 32.469 C-59.912 31.592 -59.617 30.716 -59.312 29.812 C-59.061 29.015 -58.81 28.217 -58.551 27.395 C-56.173 23.723 -52.771 22.088 -49 20 C-48.381 19.65 -47.763 19.3 -47.126 18.94 C-42.148 16.173 -37.07 13.592 -32 11 C-31.049 10.51 -30.098 10.021 -29.118 9.516 C-26.089 7.968 -23.047 6.45 -20 4.938 C-19.045 4.448 -18.091 3.959 -17.107 3.455 C-11.438 0.686 -6.358 -1.386 0 0 Z " fill="#FAA88D" transform="translate(537,378)" />
<path d="M0 0 C3.869 1.101 7.429 2.564 11.086 4.227 C11.793 4.541 12.499 4.856 13.228 5.18 C16.848 6.803 20.428 8.482 23.961 10.289 C26.529 11.573 28.47 12.306 31.211 12.914 C30.881 14.894 30.551 16.874 30.211 18.914 C29.551 18.914 28.891 18.914 28.211 18.914 C27.551 20.894 26.891 22.874 26.211 24.914 C25.551 24.914 24.891 24.914 24.211 24.914 C23.943 25.45 23.675 25.987 23.398 26.539 C21.305 30.727 21.305 30.727 19.211 34.914 C18.551 34.914 17.891 34.914 17.211 34.914 C17.211 35.904 17.211 36.894 17.211 37.914 C18.27 37.867 19.329 37.82 20.42 37.771 C24.367 37.608 28.313 37.505 32.262 37.42 C33.968 37.375 35.673 37.313 37.377 37.235 C51.541 36.603 51.541 36.603 55.615 39.802 C57.188 42.137 58.22 44.286 59.211 46.914 C59.995 48.398 60.786 49.877 61.586 51.352 C63.211 54.914 63.211 54.914 63.211 56.914 C63.871 56.914 64.531 56.914 65.211 56.914 C66.247 58.655 67.264 60.407 68.273 62.164 C68.842 63.139 69.41 64.113 69.996 65.117 C71.211 67.914 71.211 67.914 71.082 70.086 C70.042 72.269 69.103 73.396 67.211 74.914 C64.91 75.308 64.91 75.308 62.176 75.334 C60.639 75.358 60.639 75.358 59.071 75.382 C57.412 75.383 57.412 75.383 55.719 75.383 C54.581 75.39 53.443 75.398 52.27 75.406 C49.861 75.417 47.452 75.42 45.042 75.415 C41.357 75.414 37.674 75.456 33.988 75.5 C31.648 75.505 29.309 75.508 26.969 75.508 C25.867 75.524 24.764 75.541 23.629 75.557 C16.01 75.489 16.01 75.489 12.183 72.736 C10.241 69.958 8.57 67.123 6.898 64.176 C4.306 60.547 3.005 59.134 -1.336 57.932 C-5.493 57.485 -9.612 57.597 -13.789 57.727 C-21.214 57.819 -21.214 57.819 -28.789 57.914 C-29.119 45.704 -29.449 33.494 -29.789 20.914 C-28.799 20.584 -27.809 20.254 -26.789 19.914 C-26.789 19.254 -26.789 18.594 -26.789 17.914 C-24.695 16.291 -22.6 14.779 -20.414 13.289 C-15.004 9.553 -9.95 5.639 -5.07 1.215 C-2.789 -0.086 -2.789 -0.086 0 0 Z " fill="#F67246" transform="translate(644.7890625,551.0859375)" />
<path d="M0 0 C1.648 1.504 1.648 1.504 3.375 3.562 C4.295 4.657 4.295 4.657 5.234 5.773 C7.2 8.252 9.015 10.805 10.812 13.406 C12.63 15.846 14.824 17.881 17 20 C20 23.621 20 23.621 20 26 C20.66 26 21.32 26 22 26 C25 29.462 25 29.462 25 32 C25.66 32 26.32 32 27 32 C28.445 33.617 28.445 33.617 30.125 35.875 C32.751 39.348 35.402 42.789 38.125 46.188 C38.786 47.019 39.448 47.85 40.129 48.707 C41.72 50.657 43.37 52.514 45.062 54.375 C47 57 47 57 46.783 58.993 C45.475 62.345 42.698 64.414 40.062 66.75 C39.479 67.279 38.895 67.807 38.293 68.352 C34.027 72.18 29.612 75.789 25.094 79.316 C22.518 81.388 20.263 83.595 18 86 C16 88 16 88 12.688 88.312 C6.826 87.816 4.34 85.505 0.625 81.188 C0.032 80.482 -0.561 79.777 -1.172 79.051 C-3.386 76.567 -5.823 74.535 -8.387 72.426 C-10 71 -10 71 -12.438 68.062 C-15.619 64.26 -19.193 61.158 -23 58 C-23.766 57.296 -24.531 56.592 -25.32 55.867 C-28.56 53.61 -30.983 53.278 -34.875 52.75 C-41.128 51.577 -44.057 49.973 -47.766 44.84 C-48.377 43.929 -48.377 43.929 -49 43 C-49.66 42.34 -50.32 41.68 -51 41 C-51 40.01 -51 39.02 -51 38 C-49.355 36.43 -49.355 36.43 -47.188 34.875 C-46.126 34.098 -46.126 34.098 -45.043 33.305 C-43 32 -43 32 -40 31 C-40 30.34 -40 29.68 -40 29 C-37.928 27.277 -35.854 25.658 -33.688 24.062 C-28.6 20.316 -28.6 20.316 -24 16 C-20.333 13 -20.333 13 -18 13 C-18 12.34 -18 11.68 -18 11 C-14.538 8 -14.538 8 -12 8 C-12 7.34 -12 6.68 -12 6 C-10.137 4.492 -10.137 4.492 -7.688 2.875 C-6.487 2.067 -6.487 2.067 -5.262 1.242 C-3 0 -3 0 0 0 Z " fill="#F57348" transform="translate(410,504)" />
<path d="M0 0 C1.604 -0.027 3.208 -0.046 4.812 -0.062 C5.706 -0.074 6.599 -0.086 7.52 -0.098 C10 0 10 0 13 1 C16.232 5.916 16.26 12.315 17 18 C17.088 18.674 17.176 19.348 17.266 20.042 C18.791 32.004 19.58 43.952 20 56 C20.054 57.312 20.108 58.625 20.164 59.977 C20.192 61.119 20.221 62.261 20.25 63.438 C20.276 64.406 20.302 65.374 20.328 66.371 C19.815 70.485 18.014 73.109 14.938 75.812 C13 77 13 77 11 77 C11 77.66 11 78.32 11 79 C7.538 82 7.538 82 5 82 C5 82.66 5 83.32 5 84 C-0.412 88 -0.412 88 -3 88 C-3.238 88.584 -3.477 89.168 -3.723 89.77 C-5.263 92.459 -6.973 93.822 -9.438 95.688 C-10.611 96.59 -10.611 96.59 -11.809 97.512 C-14 99 -14 99 -17 100 C-17 100.66 -17 101.32 -17 102 C-18.898 103.727 -18.898 103.727 -21.375 105.625 C-22.187 106.257 -22.999 106.888 -23.836 107.539 C-26 109 -26 109 -28 109 C-28.33 109.99 -28.66 110.98 -29 112 C-32.316 108.892 -35.353 105.574 -38.312 102.125 C-39.01 101.323 -39.707 100.521 -40.426 99.695 C-42.516 96.116 -42.468 94.111 -42 90 C-41.155 86.938 -40.042 84.015 -38.875 81.062 C-38.56 80.238 -38.245 79.413 -37.921 78.563 C-37.273 76.867 -36.62 75.172 -35.962 73.479 C-34.777 70.425 -33.614 67.364 -32.459 64.299 C-31.732 62.369 -30.997 60.442 -30.262 58.516 C-29.011 55.032 -27.975 51.569 -27 48 C-26.34 48 -25.68 48 -25 48 C-24.794 46.845 -24.587 45.69 -24.375 44.5 C-23.32 39.715 -21.715 35.204 -20 30.625 C-19.739 29.923 -19.478 29.221 -19.208 28.498 C-18.028 25.403 -16.846 22.768 -15 20 C-14.897 18.907 -14.794 17.814 -14.688 16.688 C-13.809 11.976 -12.35 10.35 -9 7 C-8.34 7 -7.68 7 -7 7 C-7 6.34 -7 5.68 -7 5 C-5.546 4.598 -5.546 4.598 -4.062 4.188 C-3.052 3.796 -2.041 3.404 -1 3 C-0.67 2.01 -0.34 1.02 0 0 Z " fill="#FAC5B2" transform="translate(387,433)" />
<path d="M0 0 C2 2 2 2 2 5 C2.66 5 3.32 5 4 5 C5.172 7.289 6.337 9.581 7.5 11.875 C7.834 12.526 8.168 13.177 8.512 13.848 C11 18.773 11 18.773 11 21 C11.66 21 12.32 21 13 21 C14.208 23.199 15.391 25.407 16.562 27.625 C16.905 28.242 17.247 28.86 17.6 29.496 C19.131 32.436 19.998 34.685 20.016 38.016 C18.685 41.927 16.655 44.842 14.188 48.125 C13.749 48.732 13.31 49.339 12.857 49.965 C11.605 51.673 10.316 53.341 9 55 C8.384 55.779 7.768 56.557 7.133 57.359 C4.168 59.64 1.3 59.841 -2.312 60.125 C-3.039 60.196 -3.765 60.266 -4.513 60.339 C-6.12 60.492 -7.729 60.637 -9.337 60.773 C-12.223 61.019 -15.105 61.29 -17.988 61.562 C-35.021 63.135 -35.021 63.135 -42 63 C-42.433 61.866 -42.866 60.731 -43.312 59.562 C-43.869 58.387 -44.426 57.211 -45 56 C-46.485 55.505 -46.485 55.505 -48 55 C-49.141 53.285 -49.141 53.285 -50.25 51.062 C-52.679 46.428 -55.552 42.28 -58.645 38.066 C-60 36 -60 36 -60 34 C-61.32 33.67 -62.64 33.34 -64 33 C-64 30.36 -64 27.72 -64 25 C-63.34 25 -62.68 25 -62 25 C-61.67 23.68 -61.34 22.36 -61 21 C-60.34 21 -59.68 21 -59 21 C-58.731 20.446 -58.461 19.891 -58.184 19.32 C-56.89 16.785 -55.503 14.33 -54.062 11.875 C-53.558 11.006 -53.054 10.137 -52.535 9.242 C-50.734 6.611 -49.106 5.255 -45.957 4.529 C-45.179 4.427 -44.4 4.324 -43.598 4.219 C-42.276 4.04 -42.276 4.04 -40.928 3.859 C-39.982 3.74 -39.037 3.622 -38.062 3.5 C-36.604 3.31 -36.604 3.31 -35.115 3.116 C-28.42 2.261 -21.715 1.499 -15 0.812 C-13.774 0.687 -13.774 0.687 -12.524 0.559 C-3.962 -0.272 -3.962 -0.272 0 0 Z " fill="#FAC7B6" transform="translate(902,561)" />
<path d="M0 0 C19.542 0 19.542 0 28.375 0.312 C29.858 0.346 29.858 0.346 31.371 0.381 C37.993 0.621 43.756 1.781 50 4 C50 4.66 50 5.32 50 6 C50.66 6 51.32 6 52 6 C52.34 6.835 52.34 6.835 52.688 7.688 C54.945 11.666 58.232 14.402 61.812 17.188 C62.534 17.786 63.256 18.384 64 19 C64 19.66 64 20.32 64 21 C64.66 21 65.32 21 66 21 C66 21.66 66 22.32 66 23 C66.66 23 67.32 23 68 23 C68 23.66 68 24.32 68 25 C68.66 25 69.32 25 70 25 C70 25.66 70 26.32 70 27 C70.66 27 71.32 27 72 27 C73.827 28.935 75.469 30.99 77.148 33.055 C79.006 35.006 80.535 35.968 83 37 C82 39 82 39 79.797 39.824 C76.388 41.257 73.973 43.382 71.25 45.812 C65.951 50.405 60.539 54.825 55 59.125 C54.282 59.693 53.565 60.261 52.825 60.847 C46.071 66.049 46.071 66.049 42 66 C39.816 64.996 39.816 64.996 37.562 63.438 C31.365 59.434 24.819 56.771 18 54 C18 53.34 18 52.68 18 52 C17.154 51.732 16.309 51.464 15.438 51.188 C5.352 47.703 5.352 47.703 4 45 C2.68 44.34 1.36 43.68 0 43 C0 28.81 0 14.62 0 0 Z " fill="#FBC6B4" transform="translate(328,581)" />
<path d="M0 0 C1.021 0.742 1.021 0.742 2.062 1.5 C2.062 2.16 2.062 2.82 2.062 3.5 C3.145 3.624 3.145 3.624 4.25 3.75 C7.643 4.655 9.401 6.248 12.062 8.5 C13.374 9.209 14.7 9.895 16.062 10.5 C16.062 11.16 16.062 11.82 16.062 12.5 C16.826 12.768 17.589 13.036 18.375 13.312 C21.055 14.497 22.08 15.438 24.062 17.5 C25.114 18.181 26.166 18.861 27.25 19.562 C28.178 20.202 29.106 20.841 30.062 21.5 C30.062 22.16 30.062 22.82 30.062 23.5 C34.797 25.664 38.093 26.157 43.062 24.5 C43.392 23.84 43.722 23.18 44.062 22.5 C44.062 23.49 44.062 24.48 44.062 25.5 C43.403 25.5 42.743 25.5 42.062 25.5 C42.062 26.49 42.062 27.48 42.062 28.5 C41.279 28.582 40.495 28.665 39.688 28.75 C38.821 28.997 37.955 29.245 37.062 29.5 C36.374 30.822 35.714 32.159 35.062 33.5 C33.424 35.717 31.767 37.897 30.062 40.062 C27.641 43.158 25.244 46.227 23.062 49.5 C22.403 49.5 21.743 49.5 21.062 49.5 C20.794 50.263 20.526 51.026 20.25 51.812 C18.486 55.804 18.486 55.804 16.062 57.5 C13.309 57.745 10.806 57.828 8.062 57.75 C6.976 57.742 6.976 57.742 5.867 57.734 C2.688 57.687 0.095 57.511 -2.938 56.5 C-4.999 56.373 -7.062 56.272 -9.125 56.188 C-15.063 55.789 -18.88 54.574 -23.938 51.5 C-23.938 50.51 -23.938 49.52 -23.938 48.5 C-24.886 48.253 -25.835 48.005 -26.812 47.75 C-30.373 46.326 -30.455 45.783 -31.938 42.5 C-33.988 41.695 -33.988 41.695 -35.938 41.5 C-35.938 40.84 -35.938 40.18 -35.938 39.5 C-37.257 39.17 -38.577 38.84 -39.938 38.5 C-39.938 37.84 -39.938 37.18 -39.938 36.5 C-40.515 36.232 -41.093 35.964 -41.688 35.688 C-43.938 34.5 -43.938 34.5 -45.938 32.938 C-47.826 31.39 -47.826 31.39 -50 31 C-52.413 30.377 -53.396 29.427 -54.938 27.5 C-54.938 26.84 -54.938 26.18 -54.938 25.5 C-55.928 25.17 -56.917 24.84 -57.938 24.5 C-57.938 23.84 -57.938 23.18 -57.938 22.5 C-56.416 21.39 -56.416 21.39 -54.273 20.18 C-53.487 19.73 -52.701 19.281 -51.892 18.818 C-51.04 18.342 -50.189 17.866 -49.312 17.375 C-48.451 16.886 -47.59 16.397 -46.702 15.893 C-44.948 14.897 -43.192 13.903 -41.435 12.913 C-39.216 11.657 -37.007 10.386 -34.805 9.102 C-34.188 8.743 -33.571 8.385 -32.936 8.016 C-31.296 7.063 -29.656 6.11 -28.016 5.156 C-19.362 0.5 -19.362 0.5 -15.938 0.5 C-15.938 -0.16 -15.938 -0.82 -15.938 -1.5 C-9.757 -4.213 -5.856 -2.99 0 0 Z " fill="#FAC6B4" transform="translate(271.9375,518.5)" />
<path d="M0 0 C3.465 1.98 3.465 1.98 7 4 C7 4.66 7 5.32 7 6 C7.536 6.268 8.072 6.536 8.625 6.812 C9.409 7.204 10.192 7.596 11 8 C12.485 8.681 12.485 8.681 14 9.375 C16.949 10.972 18.655 12.655 21 15 C21.804 15.309 22.609 15.619 23.438 15.938 C26.753 17.312 28.503 19.442 31 22 C32.64 23.083 32.64 23.083 34.312 24.188 C35.199 24.786 36.086 25.384 37 26 C37 26.66 37 27.32 37 28 C37.541 28.258 38.083 28.516 38.641 28.781 C41.435 30.225 44.082 31.834 46.75 33.5 C47.735 34.108 48.72 34.717 49.734 35.344 C50.482 35.89 51.23 36.437 52 37 C52 37.66 52 38.32 52 39 C52.66 39 53.32 39 54 39 C54.846 47.44 55.127 55.772 55.062 64.25 C55.042 68.128 55.021 72.005 55 76 C65.23 76 75.46 76 86 76 C86 76.33 86 76.66 86 77 C70.82 77 55.64 77 40 77 C39.67 75.35 39.34 73.7 39 72 C38.34 72 37.68 72 37 72 C37 71.34 37 70.68 37 70 C36.339 69.95 35.679 69.901 34.998 69.849 C28.082 69.281 21.325 68.301 14.5 67.062 C13.545 66.893 12.59 66.723 11.605 66.549 C8.736 66.038 5.868 65.52 3 65 C1.432 64.716 1.432 64.716 -0.168 64.425 C-2.779 63.951 -5.389 63.476 -8 63 C-8.124 62.134 -8.247 61.268 -8.375 60.375 C-8.904 57.062 -8.904 57.062 -9.945 54.23 C-11.432 49.675 -12.281 45.034 -13.219 40.34 C-13.894 37.059 -13.894 37.059 -15.094 34.316 C-16 32 -16 32 -16 28 C-10.463 27.209 -5.722 27 0 27 C0 18.09 0 9.18 0 0 Z " fill="#FBA182" transform="translate(561,533)" />
<path d="M0 0 C4.428 1.578 6.176 3.235 9 7 C9.99 7.66 10.98 8.32 12 9 C12 9.66 12 10.32 12 11 C14.475 11.99 14.475 11.99 17 13 C17 13.66 17 14.32 17 15 C17.99 15.33 18.98 15.66 20 16 C20.66 16.99 21.32 17.98 22 19 C22.866 19.516 23.733 20.031 24.625 20.562 C25.801 21.274 25.801 21.274 27 22 C27 22.66 27 23.32 27 24 C27.639 24.124 28.279 24.247 28.938 24.375 C29.958 24.684 29.958 24.684 31 25 C31.495 25.99 31.495 25.99 32 27 C32.784 27.454 33.567 27.908 34.375 28.375 C37.044 30.027 38.176 31.513 40 34 C40.99 34.33 41.98 34.66 43 35 C43.66 48.86 44.32 62.72 45 77 C46.98 77.99 46.98 77.99 49 79 C47.018 79.428 45.009 79.728 43 80 C42.269 80.138 41.538 80.276 40.785 80.418 C31.244 81.432 24.13 76.127 16.303 71.381 C13.417 69.65 10.484 68.012 7.54 66.382 C4.931 64.935 2.339 63.459 -0.255 61.984 C-1.878 61.069 -3.513 60.174 -5.148 59.281 C-6.048 58.776 -6.948 58.271 -7.875 57.75 C-8.636 57.332 -9.396 56.915 -10.18 56.484 C-14.977 52.573 -15.132 44.612 -16.125 38.875 C-16.307 37.893 -16.489 36.91 -16.676 35.898 C-19.06 22.277 -19.06 22.277 -18 16 C-15.72 13.064 -12.996 11.168 -10 9 C-8.15 7.373 -6.317 5.727 -4.5 4.062 C-3.644 3.29 -2.788 2.518 -1.906 1.723 C-0.963 0.87 -0.963 0.87 0 0 Z " fill="#FA9F80" transform="translate(477,592)" />
<path d="M0 0 C1.954 8.542 3.608 17.121 5.125 25.75 C5.295 26.707 5.466 27.664 5.642 28.651 C6.699 34.753 7.478 40.829 8 47 C8.09 47.986 8.18 48.972 8.273 49.988 C8.452 54.073 8.545 56.261 6.062 59.625 C4.547 60.801 4.547 60.801 3 62 C1.62 63.244 0.246 64.495 -1.125 65.75 C-5.519 69.636 -10.048 73.342 -14.617 77.02 C-16.976 78.83 -16.976 78.83 -18.371 80.797 C-21.172 82.865 -23.86 81.907 -27.188 81.438 C-28.237 81.291 -28.237 81.291 -29.308 81.141 C-37.008 79.985 -44.494 78.035 -52 76 C-53.333 75.664 -54.666 75.33 -56 75 C-56.108 72.082 -56.187 69.169 -56.25 66.25 C-56.284 65.425 -56.317 64.6 -56.352 63.75 C-56.451 57.614 -56.451 57.614 -54.109 54.422 C-52 53 -52 53 -50 53 C-49.897 52.402 -49.794 51.804 -49.688 51.188 C-48.902 48.687 -48.031 47.625 -46 46 C-45.34 46 -44.68 46 -44 46 C-43.67 45.01 -43.34 44.02 -43 43 C-41.376 41.291 -39.702 39.63 -38 38 C-37.14 37.117 -36.28 36.234 -35.395 35.324 C-34.116 34.019 -34.116 34.019 -32.812 32.688 C-31.953 31.804 -31.093 30.921 -30.207 30.012 C-28 28 -28 28 -26 28 C-25.752 27.443 -25.505 26.886 -25.25 26.312 C-22.637 21.478 -18.853 17.853 -15 14 C-14.34 13.175 -13.68 12.35 -13 11.5 C-3.8 0 -3.8 0 0 0 Z " fill="#FAC6B3" transform="translate(388,325)" />
<path d="M0 0 C2.643 3.964 1.749 6.545 1 11 C0.702 12.966 0.406 14.932 0.109 16.898 C-0.987 24.035 -2.225 31.143 -3.5 38.25 C-3.713 39.451 -3.925 40.653 -4.145 41.891 C-4.747 45.264 -5.369 48.632 -6 52 C-6.246 53.372 -6.246 53.372 -6.496 54.771 C-7.651 60.702 -7.651 60.702 -11 63.562 C-14 65 -14 65 -16 65 C-16 65.66 -16 66.32 -16 67 C-16.818 67.346 -16.818 67.346 -17.652 67.699 C-27.957 72.156 -37.457 77.998 -47.109 83.695 C-47.782 84.091 -48.454 84.487 -49.146 84.896 C-50.74 85.845 -52.317 86.822 -53.891 87.805 C-56 89 -56 89 -58 89 C-57.539 77.73 -55.61 66.733 -53.671 55.641 C-53.122 52.481 -52.59 49.319 -52.059 46.156 C-51.709 44.135 -51.359 42.114 -51.008 40.094 C-50.773 38.684 -50.773 38.684 -50.534 37.246 C-49.543 31.691 -48.616 27.058 -43.969 23.402 C-43.154 22.919 -42.339 22.436 -41.5 21.938 C-40.533 21.35 -39.566 20.762 -38.57 20.156 C-38.016 19.824 -37.462 19.491 -36.892 19.148 C-33.02 16.798 -29.203 14.358 -25.375 11.938 C-24.588 11.443 -23.801 10.949 -22.99 10.439 C-18.251 7.456 -13.602 4.385 -9.024 1.159 C-5.91 -0.624 -3.469 -0.637 0 0 Z " fill="#F47248" transform="translate(272,452)" />
<path d="M0 0 C1.589 11.324 2.498 22.577 3 34 C2.34 34 1.68 34 1 34 C0.752 34.557 0.505 35.114 0.25 35.688 C-2.346 40.49 -6.072 44.259 -10 48 C-10.846 48.858 -11.692 49.716 -12.564 50.599 C-16.568 53.892 -20.584 53.842 -25.605 53.91 C-26.985 53.942 -26.985 53.942 -28.393 53.975 C-30.335 54.009 -32.278 54.029 -34.22 54.036 C-37.165 54.062 -40.098 54.179 -43.041 54.299 C-57.635 54.591 -57.635 54.591 -62.709 50.394 C-65.556 47.544 -67.808 44.378 -70 41 C-72.256 37.582 -72.256 37.582 -76 36 C-76 29.73 -76 23.46 -76 17 C-74.68 17 -73.36 17 -72 17 C-72 17.66 -72 18.32 -72 19 C-71.113 19.268 -70.226 19.536 -69.312 19.812 C-66.21 20.925 -63.792 22.282 -61 24 C-59.346 24.698 -57.683 25.375 -56 26 C-56 26.66 -56 27.32 -56 28 C-51.691 26.605 -49.26 24.611 -46.125 21.375 C-44.824 20.041 -44.824 20.041 -43.496 18.68 C-40.763 15.745 -38.167 12.729 -35.668 9.594 C-31.021 5.153 -23.04 4.381 -17 2.875 C-15.92 2.598 -14.84 2.321 -13.727 2.035 C-12.682 1.773 -11.638 1.512 -10.562 1.242 C-9.615 1.004 -8.668 0.765 -7.691 0.519 C-5.054 0.01 -2.678 -0.097 0 0 Z " fill="#F47448" transform="translate(200,556)" />
<path d="M0 0 C5.722 0.684 11.255 1.604 16.875 2.875 C17.614 3.036 18.352 3.197 19.113 3.363 C23.224 4.282 27.258 5.348 31.29 6.571 C32.176 6.839 33.062 7.107 33.975 7.384 C34.643 7.587 35.312 7.79 36 8 C36.117 15.303 36.205 22.606 36.259 29.91 C36.285 33.303 36.32 36.695 36.377 40.088 C36.83 69 36.83 69 31 81 C24.565 80.474 19.209 78.884 13.25 76.438 C12.413 76.127 11.577 75.817 10.715 75.498 C9.907 75.167 9.098 74.837 8.266 74.496 C7.179 74.066 7.179 74.066 6.071 73.627 C2.722 70.996 1.177 67.998 0 64 C-0.527 59.071 -0.467 54.168 -0.391 49.219 C-0.383 47.795 -0.377 46.372 -0.373 44.948 C-0.358 41.226 -0.319 37.505 -0.275 33.783 C-0.234 29.975 -0.215 26.167 -0.195 22.359 C-0.153 14.906 -0.084 7.453 0 0 Z " fill="#F6744B" transform="translate(331,400)" />
<path d="M0 0 C1.23 0.01 1.23 0.01 2.484 0.02 C5.757 0.218 9.005 0.724 12.25 1.188 C12.25 15.378 12.25 29.567 12.25 44.188 C11.26 44.518 10.27 44.847 9.25 45.188 C9.25 45.847 9.25 46.508 9.25 47.188 C5.788 50.188 5.788 50.188 3.25 50.188 C3.25 50.847 3.25 51.508 3.25 52.188 C1.599 53.214 -0.07 54.211 -1.75 55.188 C-2.77 56.167 -3.771 57.166 -4.75 58.188 C-8.417 61.188 -8.417 61.188 -10.75 61.188 C-10.75 61.847 -10.75 62.508 -10.75 63.188 C-12.254 64.484 -12.254 64.484 -14.312 65.938 C-18.315 68.834 -22.032 71.934 -25.75 75.188 C-31.236 72.728 -36.322 68.615 -38.676 62.965 C-39.243 60.37 -39.496 57.831 -39.75 55.188 C-40.119 53.465 -40.119 53.465 -40.496 51.707 C-42.027 42.532 -42.027 42.532 -39.691 38.244 C-36.927 34.395 -33.69 31.047 -30.296 27.753 C-28.736 26.173 -27.36 24.521 -25.977 22.785 C-25.242 21.928 -24.507 21.071 -23.75 20.188 C-23.09 20.188 -22.43 20.188 -21.75 20.188 C-21.42 19.197 -21.09 18.207 -20.75 17.188 C-20.09 17.188 -19.43 17.188 -18.75 17.188 C-18.392 16.372 -18.392 16.372 -18.027 15.539 C-16.424 12.587 -14.443 10.159 -12.312 7.562 C-11.53 6.601 -10.748 5.639 -9.941 4.648 C-6.721 1.032 -4.742 -0.081 0 0 Z " fill="#F57449" transform="translate(314.75,579.8125)" />
<path d="M0 0 C6.098 0.053 6.098 0.053 9.117 2.031 C13.22 6.627 16.043 12.126 18.875 17.562 C19.473 18.532 20.071 19.501 20.688 20.5 C21.875 22.562 21.875 22.562 21.875 24.562 C22.865 24.562 23.855 24.562 24.875 24.562 C25.563 25.974 25.563 25.974 26.266 27.414 C26.885 28.672 27.505 29.93 28.125 31.188 C28.425 31.805 28.726 32.422 29.035 33.059 C30.563 36.147 32.152 39.059 34.109 41.898 C35.875 44.562 35.875 44.562 35.875 46.562 C36.535 46.562 37.195 46.562 37.875 46.562 C40.875 50.947 40.875 50.947 40.875 53.562 C41.535 53.562 42.195 53.562 42.875 53.562 C43.288 54.429 43.7 55.295 44.125 56.188 C45.804 59.583 45.804 59.583 47.938 62.625 C49.672 65.255 50.742 67.649 51.875 70.562 C52.865 71.553 52.865 71.553 53.875 72.562 C53.875 73.553 53.875 74.543 53.875 75.562 C47.015 74.044 40.163 72.497 33.312 70.938 C32.304 70.708 31.295 70.479 30.256 70.242 C27.796 69.682 25.335 69.123 22.875 68.562 C22.875 67.903 22.875 67.243 22.875 66.562 C22.282 66.526 21.689 66.489 21.079 66.451 C14.341 65.921 8.206 64.454 1.75 62.5 C0.794 62.218 -0.163 61.937 -1.148 61.646 C-3.476 60.96 -5.802 60.265 -8.125 59.562 C-8.018 52.017 -7.905 44.472 -7.786 36.928 C-7.73 33.424 -7.677 29.921 -7.628 26.418 C-7.571 22.395 -7.506 18.371 -7.441 14.348 C-7.425 13.084 -7.408 11.821 -7.391 10.519 C-7.371 9.358 -7.351 8.197 -7.33 7 C-7.307 5.458 -7.307 5.458 -7.283 3.885 C-6.974 -0.652 -3.986 0.213 0 0 Z " fill="#FAA385" transform="translate(689.125,393.4375)" />
<path d="M0 0 C2.683 0.982 5.275 2.131 7.875 3.312 C8.582 3.627 9.288 3.942 10.017 4.266 C13.637 5.889 17.217 7.568 20.75 9.375 C23.318 10.659 25.259 11.392 28 12 C27.67 13.98 27.34 15.96 27 18 C26.34 18 25.68 18 25 18 C24.34 19.98 23.68 21.96 23 24 C22.34 24 21.68 24 21 24 C20.732 24.536 20.464 25.072 20.188 25.625 C18.792 28.417 17.396 31.208 16 34 C15.34 34 14.68 34 14 34 C14 34.99 14 35.98 14 37 C15.059 36.953 16.118 36.906 17.209 36.857 C21.156 36.694 25.102 36.591 29.051 36.506 C30.757 36.46 32.462 36.399 34.167 36.321 C48.33 35.689 48.33 35.689 52.404 38.887 C53.977 41.223 55.009 43.372 56 46 C56.784 47.483 57.575 48.963 58.375 50.438 C60 54 60 54 60 56 C60.66 56 61.32 56 62 56 C63.036 57.741 64.053 59.493 65.062 61.25 C65.631 62.225 66.199 63.199 66.785 64.203 C68 67 68 67 67.871 69.172 C66.831 71.355 65.892 72.482 64 74 C61.699 74.394 61.699 74.394 58.965 74.42 C57.428 74.444 57.428 74.444 55.86 74.468 C54.201 74.468 54.201 74.468 52.508 74.469 C51.37 74.476 50.232 74.484 49.059 74.492 C46.65 74.503 44.241 74.505 41.832 74.501 C38.146 74.5 34.463 74.542 30.777 74.586 C28.438 74.591 26.098 74.594 23.758 74.594 C22.656 74.61 21.553 74.627 20.418 74.643 C12.766 74.574 12.766 74.574 8.854 71.642 C6.959 68.942 5.598 66.196 4.125 63.25 C1.901 60.001 0.281 58.293 -3.614 57.403 C-10.394 56.647 -17.191 56.716 -24 57 C-24 56.67 -24 56.34 -24 56 C-22.933 55.933 -22.933 55.933 -21.844 55.864 C-18.624 55.653 -15.406 55.42 -12.188 55.188 C-11.068 55.117 -9.948 55.047 -8.795 54.975 C-7.185 54.854 -7.185 54.854 -5.543 54.73 C-4.553 54.662 -3.563 54.594 -2.544 54.524 C0.331 53.932 1.272 53.332 3 51 C3.33 50.01 3.66 49.02 4 48 C4.66 48 5.32 48 6 48 C6.103 47.443 6.206 46.886 6.312 46.312 C7 44 7 44 8.438 41.625 C10.116 39.036 10.116 39.036 10.938 36 C12.116 32.672 13.74 30.684 16 28 C16.709 26.689 17.395 25.362 18 24 C18.66 24 19.32 24 20 24 C20.495 22.515 20.495 22.515 21 21 C21.66 21 22.32 21 23 21 C23.33 18.69 23.66 16.38 24 14 C23.165 13.598 23.165 13.598 22.312 13.188 C20 12 20 12 17.562 10.438 C14.979 8.988 12.912 8.416 10 8 C10 7.34 10 6.68 10 6 C7.69 6 5.38 6 3 6 C2.67 5.34 2.34 4.68 2 4 C1.34 3.67 0.68 3.34 0 3 C-0.33 2.67 -0.66 2.34 -1 2 C-3 1.957 -5 1.96 -7 2 C-7.99 2 -8.98 2 -10 2 C-6.468 -1.396 -4.646 -1.107 0 0 Z " fill="#F78057" transform="translate(648,552)" />
<path d="M0 0 C3.947 -0.702 6.007 -0.598 9.492 1.5 C11.359 2.885 13.208 4.293 15.043 5.719 C17.951 7.962 20.927 9.991 24 12 C28.789 15.164 33.45 18.46 38.074 21.859 C40.819 23.867 43.58 25.848 46.352 27.819 C48.713 29.499 51.069 31.188 53.424 32.876 C54.833 33.881 56.25 34.873 57.668 35.863 C58.396 36.383 59.125 36.902 59.875 37.438 C60.491 37.869 61.107 38.301 61.742 38.746 C62.365 39.367 62.365 39.367 63 40 C63 40.99 63 41.98 63 43 C58.778 46 58.778 46 56 46 C56 46.66 56 47.32 56 48 C54.137 49.691 54.137 49.691 51.688 51.562 C50.487 52.493 50.487 52.493 49.262 53.441 C47 55 47 55 44 56 C44 56.66 44 57.32 44 58 C42.333 59 40.667 60 39 61 C38.175 61.866 37.35 62.733 36.5 63.625 C33.81 66.18 32.682 67 29 67 C26.438 65.688 26.438 65.688 24 64 C22.674 63.319 21.343 62.647 20 62 C20 61.34 20 60.68 20 60 C19.374 59.925 18.747 59.85 18.102 59.773 C17.284 59.642 16.467 59.51 15.625 59.375 C14.813 59.259 14.001 59.143 13.164 59.023 C11 58 11 58 9.863 55.656 C8.646 50.5 7.574 45.326 6.562 40.125 C6.344 39.016 6.125 37.907 5.899 36.765 C4.41 29.19 2.966 21.606 1.578 14.012 C1.244 12.27 0.877 10.532 0.426 8.816 C-0.259 5.895 -0.057 2.984 0 0 Z " fill="#F57348" transform="translate(388,325)" />
<path d="M0 0 C2 3 2 3 2 7 C3.034 7.182 3.034 7.182 4.09 7.367 C6.056 7.718 8.019 8.082 9.98 8.457 C11.807 8.785 13.643 9.068 15.488 9.262 C20.271 9.898 22.552 11.118 25.562 14.938 C26.725 16.614 27.87 18.302 29 20 C30.349 21.837 31.704 23.67 33.062 25.5 C34.375 27.333 35.688 29.167 37 31 C37.619 31.821 38.237 32.642 38.875 33.488 C43.028 39.208 43.028 39.208 42.875 43.562 C42.586 44.367 42.298 45.171 42 46 C41.34 46 40.68 46 40 46 C39.711 46.577 39.423 47.155 39.125 47.75 C38.083 49.833 37.042 51.917 36 54 C35.34 54 34.68 54 34 54 C33.723 54.556 33.446 55.111 33.16 55.684 C32.36 57.282 31.555 58.878 30.746 60.473 C30.314 61.327 29.882 62.182 29.438 63.062 C29.003 63.92 28.569 64.777 28.121 65.66 C26.909 68.065 26.909 68.065 26 71 C23.525 71.495 23.525 71.495 21 72 C21.516 71.443 22.031 70.886 22.562 70.312 C24.216 68.126 24.216 68.126 23.938 65.688 C22.707 62.161 20.886 59.224 19 56 C19 55.34 19 54.68 19 54 C18.34 54 17.68 54 17 54 C16.697 53.371 16.394 52.742 16.082 52.094 C15.663 51.238 15.244 50.382 14.812 49.5 C14.406 48.665 14 47.829 13.582 46.969 C13.06 45.989 12.538 45.009 12 44 C11.786 43.309 11.573 42.618 11.352 41.906 C10.233 39.136 9.394 37.832 7 36 C0.903 34.817 -5.122 34.925 -11.312 35 C-13.024 34.992 -14.736 34.98 -16.447 34.965 C-20.632 34.935 -24.815 34.954 -29 35 C-29 34.01 -29 33.02 -29 32 C-28.34 32 -27.68 32 -27 32 C-26.773 31.113 -26.546 30.226 -26.312 29.312 C-24.816 25.535 -22.881 23.809 -20 21 C-18.681 18.335 -18.681 18.335 -18 16 C-17.34 16 -16.68 16 -16 16 C-15.732 14.907 -15.464 13.814 -15.188 12.688 C-13.488 7.41 -13.488 7.41 -11 6 C-7.063 5.563 -3.765 5.745 0 7 C0 4.69 0 2.38 0 0 Z " fill="#FBAF94" transform="translate(691,554)" />
<path d="M0 0 C0.495 1.485 0.495 1.485 1 3 C2.766 4.009 2.766 4.009 5 5 C8.25 7 8.25 7 11 9 C11 9.66 11 10.32 11 11 C11.536 11.247 12.072 11.495 12.625 11.75 C18.461 14.822 24.83 18.491 27 25 C26.391 25.136 25.782 25.272 25.155 25.411 C22.332 26.042 19.51 26.677 16.688 27.312 C15.252 27.633 15.252 27.633 13.787 27.959 C11.834 28.4 9.884 28.852 7.937 29.317 C6.005 29.766 4.063 30.175 2.114 30.539 C-5.606 32.18 -9.454 35.573 -14.5 41.5 C-15.188 42.272 -15.877 43.044 -16.586 43.84 C-17.856 45.266 -19.117 46.701 -20.365 48.146 C-20.905 48.758 -21.444 49.37 -22 50 C-22.483 50.576 -22.966 51.151 -23.463 51.744 C-25 53 -25 53 -29 53 C-29.33 52.34 -29.66 51.68 -30 51 C-31.638 50.264 -33.281 49.537 -34.945 48.863 C-38.385 47.418 -41.676 45.691 -45 44 C-45 43.34 -45 42.68 -45 42 C-45.99 42 -46.98 42 -48 42 C-48.312 39.75 -48.312 39.75 -48 37 C-43.892 33 -43.892 33 -41 33 C-41 32.01 -41 31.02 -41 30 C-40.34 30 -39.68 30 -39 30 C-39 29.34 -39 28.68 -39 28 C-37.35 27.34 -35.7 26.68 -34 26 C-34 25.34 -34 24.68 -34 24 C-33.34 24 -32.68 24 -32 24 C-32 23.34 -32 22.68 -32 22 C-30.625 20.375 -30.625 20.375 -29 19 C-28.34 19 -27.68 19 -27 19 C-26.78 18.442 -26.559 17.884 -26.332 17.309 C-24.576 14.265 -22.324 12.378 -19.688 10.062 C-16.808 7.521 -14.005 5.005 -11.332 2.246 C-7.475 -1.469 -4.993 -0.999 0 0 Z " fill="#FAC6B4" transform="translate(173,531)" />
<path d="M0 0 C5.414 3.839 10.752 7.849 15 13 C15 13.66 15 14.32 15 15 C15.66 15 16.32 15 17 15 C18.656 16.609 18.656 16.609 20.5 18.75 C21.108 19.446 21.717 20.142 22.344 20.859 C23.88 22.845 24.972 24.719 26 27 C26.99 27 27.98 27 29 27 C30.684 30.791 31.487 34.293 32.07 38.395 C32.244 39.597 32.418 40.799 32.598 42.037 C32.772 43.283 32.946 44.529 33.125 45.812 C33.307 47.078 33.489 48.343 33.676 49.646 C34.123 52.764 34.564 55.881 35 59 C31.439 59.674 27.876 60.338 24.312 61 C23.305 61.191 22.298 61.382 21.26 61.578 C20.283 61.759 19.307 61.939 18.301 62.125 C16.958 62.376 16.958 62.376 15.587 62.633 C8.825 63.593 8.825 63.593 6 61.562 C3.695 58.609 1.978 55.534 0.246 52.219 C-0.955 49.945 -0.955 49.945 -2.652 47.906 C-4 46 -4 46 -4 43 C-4.66 43 -5.32 43 -6 43 C-6.682 41.8 -7.345 40.59 -8 39.375 C-8.371 38.702 -8.743 38.029 -9.125 37.336 C-11.053 32.19 -9.826 27.693 -8.188 22.625 C-7.821 21.489 -7.455 20.354 -7.078 19.184 C-5.802 15.415 -4.445 11.707 -3 8 C-2.436 6.501 -1.873 5.001 -1.312 3.5 C-0.879 2.345 -0.446 1.19 0 0 Z " fill="#FAC6B4" transform="translate(479,405)" />
<path d="M0 0 C1 3 1 3 1 5 C1.66 5 2.32 5 3 5 C3.291 5.629 3.583 6.258 3.883 6.906 C6.015 11.359 8.153 15.39 11.25 19.25 C13.774 22.433 14.792 24.848 15 29 C15.66 29 16.32 29 17 29 C19.785 31.851 21.907 34.668 22.188 38.688 C20.491 41.992 18.157 43.094 15 45 C12.064 47.251 9.332 49.659 6.75 52.312 C5 54 5 54 3 54 C3 54.66 3 55.32 3 56 C0.336 57.937 -2.202 59.668 -5.25 60.938 C-7.74 62.449 -8.146 64.296 -9 67 C-9.33 66.34 -9.66 65.68 -10 65 C-10.66 65 -11.32 65 -12 65 C-12.66 63.02 -13.32 61.04 -14 59 C-14.66 59 -15.32 59 -16 59 C-17.938 56.767 -19.762 54.528 -21.562 52.188 C-22.07 51.545 -22.577 50.902 -23.1 50.24 C-25.271 47.451 -26.87 45.39 -28 42 C-40.54 42 -53.08 42 -66 42 C-66 41.67 -66 41.34 -66 41 C-64.895 40.985 -63.79 40.971 -62.651 40.956 C-58.553 40.898 -54.455 40.821 -50.357 40.738 C-48.583 40.704 -46.809 40.676 -45.034 40.654 C-42.485 40.62 -39.936 40.568 -37.387 40.512 C-36.196 40.502 -36.196 40.502 -34.981 40.492 C-30.746 40.422 -30.746 40.422 -27.035 38.596 C-25.819 36.722 -25.04 34.925 -24.312 32.812 C-24.061 32.097 -23.81 31.382 -23.551 30.645 C-23.369 30.102 -23.187 29.559 -23 29 C-21.68 29 -20.36 29 -19 29 C-18.918 28.443 -18.835 27.886 -18.75 27.312 C-18 25 -18 25 -16.312 22.938 C-12.926 18.636 -10.54 13.835 -8 9 C-7.34 9 -6.68 9 -6 9 C-5.753 8.258 -5.505 7.515 -5.25 6.75 C-3.909 3.799 -2.391 2.152 0 0 Z " fill="#FBC6B4" transform="translate(757,507)" />
<path d="M0 0 C0.99 0 1.98 0 3 0 C4.005 1.956 5.004 3.915 6 5.875 C6.557 6.966 7.114 8.056 7.688 9.18 C9 12 9 12 9 14 C9.66 14 10.32 14 11 14 C12.208 16.199 13.391 18.407 14.562 20.625 C15.076 21.551 15.076 21.551 15.6 22.496 C17.131 25.436 17.998 27.685 18.016 31.016 C16.685 34.927 14.655 37.842 12.188 41.125 C11.749 41.732 11.31 42.339 10.857 42.965 C9.993 44.143 9.111 45.308 8.208 46.458 C7.214 47.727 6.28 49.042 5.363 50.367 C1.308 53.169 -3.18 52.834 -8 53 C-8.652 53.026 -9.304 53.051 -9.977 53.078 C-15.212 53.284 -20.449 53.428 -25.688 53.562 C-27.275 53.606 -28.863 53.649 -30.451 53.693 C-34.301 53.799 -38.15 53.901 -42 54 C-40.318 48.905 -38.466 43.961 -36.309 39.047 C-34.982 36.098 -34.982 36.098 -34.16 33.328 C-33.078 30.486 -32.334 28.986 -30 27 C-27.137 26.387 -24.456 25.945 -21.562 25.625 C-15.609 25.061 -15.609 25.061 -10.801 21.844 C-9.285 18.954 -8.146 16.054 -7 13 C-5.777 10.566 -4.451 8.192 -3.125 5.812 C-2.083 3.875 -1.041 1.938 0 0 Z " fill="#F5764B" transform="translate(904,568)" />
<path d="M0 0 C3.463 1.484 5.807 2.901 8 6 C8.828 9.735 9.018 13.435 9.188 17.25 C9.32 18.768 9.32 18.768 9.455 20.316 C9.739 25.993 9.363 29.316 5.613 33.734 C3.72 35.663 3.72 35.663 2 37 C1.34 37 0.68 37 0 37 C0 37.66 0 38.32 0 39 C-5.476 44 -5.476 44 -8 44 C-8.33 44.99 -8.66 45.98 -9 47 C-10.712 48.587 -12.493 50.1 -14.312 51.562 C-15.278 52.348 -16.244 53.133 -17.238 53.941 C-19.469 55.604 -21.467 56.887 -24 58 C-24 58.66 -24 59.32 -24 60 C-25.853 62.007 -27.238 62.949 -29.994 63.134 C-32.997 63.067 -32.997 63.067 -36 63 C-36.199 58.286 -36.343 53.575 -36.439 48.858 C-36.48 47.256 -36.534 45.655 -36.604 44.054 C-37.164 30.814 -37.164 30.814 -34.417 26.533 C-32.376 24.732 -30.346 23.372 -28 22 C-26.869 21.116 -25.751 20.216 -24.648 19.297 C-23.559 18.446 -22.468 17.597 -21.375 16.75 C-20.172 15.811 -18.969 14.872 -17.766 13.934 C-17.153 13.456 -16.54 12.979 -15.908 12.488 C-12.639 9.939 -9.383 7.375 -6.125 4.812 C-4.94 3.881 -3.755 2.95 -2.57 2.02 C-1.722 1.353 -0.874 0.687 0 0 Z " fill="#F4744A" transform="translate(408,619)" />
<path d="M0 0 C6.252 2.812 11.041 8.014 13.648 14.348 C14.479 20.691 13.805 26.735 10.648 32.348 C5.973 37.743 2.029 40.91 -5.086 41.621 C-12.201 41.861 -17.036 41.296 -22.352 36.348 C-27.819 30.198 -29.783 25.466 -29.695 17.203 C-28.987 11.32 -25.643 7.284 -21.289 3.473 C-14.696 -1.296 -7.972 -2.211 0 0 Z " fill="#F5784F" transform="translate(724.3515625,649.65234375)" />
<path d="M0 0 C0.845 -0.016 1.689 -0.032 2.559 -0.048 C3.923 -0.049 3.923 -0.049 5.315 -0.049 C6.253 -0.056 7.192 -0.064 8.158 -0.072 C10.144 -0.083 12.129 -0.086 14.115 -0.081 C17.149 -0.08 20.18 -0.122 23.213 -0.166 C25.143 -0.171 27.073 -0.174 29.002 -0.174 C29.908 -0.19 30.813 -0.207 31.746 -0.224 C36.24 -0.174 38.18 -0.051 41.841 2.77 C43.792 5.42 43.792 5.42 44.792 8.42 C43.802 8.42 42.812 8.42 41.792 8.42 C41.675 8.925 41.559 9.431 41.44 9.951 C40.556 13.315 39.495 16.615 38.417 19.92 C38.208 20.584 37.999 21.248 37.784 21.932 C36.573 25.63 35.197 28.388 32.792 31.42 C32.482 32.616 32.173 33.812 31.854 35.045 C30.792 38.42 30.792 38.42 29.116 39.592 C26.227 40.621 23.599 40.846 20.542 41.045 C19.464 41.12 18.386 41.194 17.276 41.271 C16.456 41.32 15.636 41.369 14.792 41.42 C14.338 40.347 13.884 39.275 13.417 38.17 C12.291 35.539 11.112 32.96 9.792 30.42 C9.132 30.42 8.472 30.42 7.792 30.42 C7.393 29.414 6.995 28.409 6.584 27.373 C4.559 22.644 1.728 18.556 -1.156 14.318 C-4.208 9.727 -4.208 9.727 -4.208 6.42 C-4.868 6.42 -5.528 6.42 -6.208 6.42 C-6.538 5.43 -6.868 4.44 -7.208 3.42 C-4.904 0.674 -3.567 0.04 0 0 Z " fill="#FAA68A" transform="translate(764.20849609375,505.580078125)" />
<path d="M0 0 C1.32 0 2.64 0 4 0 C5.605 1.914 5.605 1.914 7.188 4.625 C8.083 6.118 8.083 6.118 8.996 7.641 C9.657 8.749 10.319 9.858 11 11 C12.564 13.471 14.157 15.923 15.75 18.375 C23 29.581 23 29.581 23 32 C23.66 32 24.32 32 25 32 C26.866 35.134 28.057 37.161 27.805 40.855 C26.909 44.356 25.571 46.694 23.562 49.688 C22.945 50.619 22.328 51.551 21.691 52.512 C21.133 53.333 20.575 54.154 20 55 C19.34 55.99 18.68 56.98 18 58 C14.932 56.643 12.963 55.137 10.688 52.688 C7.851 49.753 4.937 47.425 1.578 45.125 C-0.535 43.619 -2.307 41.964 -4 40 C-4 39.34 -4 38.68 -4 38 C-4.66 38 -5.32 38 -6 38 C-6 37.34 -6 36.68 -6 36 C-7.65 35.34 -9.3 34.68 -11 34 C-10.75 26.964 -10.088 22.84 -6 17 C-4.853 13.703 -3.877 10.383 -2.93 7.023 C-2.149 4.485 -1.277 2.317 0 0 Z " fill="#F4754B" transform="translate(806,514)" />
<path d="M0 0 C5.182 4.696 8.995 10.299 13 16 C13.768 17.047 14.537 18.093 15.328 19.172 C16.065 20.208 16.803 21.245 17.562 22.312 C18.244 23.257 18.926 24.202 19.629 25.176 C21.296 28.61 20.98 30.375 20 34 C19.34 34 18.68 34 18 34 C17.711 34.577 17.423 35.155 17.125 35.75 C16.083 37.833 15.042 39.917 14 42 C13.34 42 12.68 42 12 42 C11.723 42.556 11.446 43.111 11.16 43.684 C10.36 45.282 9.555 46.878 8.746 48.473 C8.314 49.327 7.882 50.182 7.438 51.062 C7.003 51.92 6.569 52.777 6.121 53.66 C4.909 56.065 4.909 56.065 4 59 C1.525 59.495 1.525 59.495 -1 60 C-0.484 59.443 0.031 58.886 0.562 58.312 C2.216 56.126 2.216 56.126 1.938 53.688 C0.707 50.161 -1.114 47.224 -3 44 C-3 43.34 -3 42.68 -3 42 C-3.66 42 -4.32 42 -5 42 C-5.326 41.336 -5.652 40.672 -5.988 39.988 C-6.425 39.105 -6.862 38.222 -7.312 37.312 C-7.766 36.393 -8.22 35.474 -8.688 34.527 C-9.975 31.919 -9.975 31.919 -11.812 29.375 C-13.576 25.847 -13.199 22.914 -13 19 C-12.01 18.67 -11.02 18.34 -10 18 C-9.198 16.126 -9.198 16.126 -8.812 13.938 C-8.654 13.204 -8.495 12.471 -8.332 11.715 C-8.222 11.149 -8.113 10.583 -8 10 C-7.34 10 -6.68 10 -6 10 C-5.67 9.01 -5.34 8.02 -5 7 C-3.35 6.67 -1.7 6.34 0 6 C0 4.02 0 2.04 0 0 Z " fill="#FAC7B5" transform="translate(713,566)" />
<path d="M0 0 C4.126 2.879 7.065 6.009 8.688 10.875 C9.669 21.124 9.669 21.124 6.812 25.562 C6.111 26.326 5.41 27.089 4.688 27.875 C4.028 27.875 3.367 27.875 2.688 27.875 C2.688 28.535 2.688 29.195 2.688 29.875 C-3.559 32.552 -8.77 34.267 -15.453 32.219 C-19.545 30.461 -22.67 28.346 -24.688 24.203 C-26.109 18.908 -26.179 13.264 -25.312 7.875 C-23.406 4.945 -23.406 4.945 -21.312 2.875 C-20.653 2.875 -19.992 2.875 -19.312 2.875 C-19.312 2.215 -19.312 1.555 -19.312 0.875 C-12.965 -1.797 -6.52 -2.214 0 0 Z " fill="#F9C4B2" transform="translate(645.3125,642.125)" />
<path d="M0 0 C4.265 3.601 5.729 5.89 6.203 11.332 C6.308 16.897 6.042 21.151 3 26 C-1.219 30.166 -5.325 31.334 -11.188 31.5 C-15.687 31.453 -18.352 30.662 -22 28 C-25.811 24.01 -27.351 19.921 -27.562 14.438 C-27.265 8.312 -25.554 4.322 -20.938 0.125 C-14.842 -3.414 -6.227 -3.041 0 0 Z " fill="#F8C6B6" transform="translate(467,673)" />
<path d="M0 0 C0.799 0.009 1.598 0.018 2.422 0.027 C3.025 0.039 3.628 0.051 4.25 0.062 C4.25 0.722 4.25 1.383 4.25 2.062 C4.807 2.104 5.364 2.145 5.938 2.188 C10.049 3.743 12.113 7.438 14.562 10.938 C15.993 15.359 15.676 19.631 14.375 24 C13.25 26.062 13.25 26.062 11.25 27.062 C10.92 28.053 10.59 29.043 10.25 30.062 C5.243 32.674 -0.155 33.601 -5.75 33.062 C-8.688 32.062 -8.688 32.062 -10.75 31.062 C-10.75 30.403 -10.75 29.742 -10.75 29.062 C-11.348 28.877 -11.946 28.691 -12.562 28.5 C-15.762 26.397 -16.776 23.629 -17.75 20.062 C-18.447 13.789 -17.447 9.254 -13.75 4.062 C-9.424 0.71 -5.377 -0.079 0 0 Z " fill="#F9C7B6" transform="translate(208.75,624.9375)" />
<path d="M0 0 C2.662 2.087 4.988 4.358 7.312 6.812 C7.643 7.143 7.972 7.472 8.312 7.812 C9.553 20.198 9.553 20.198 6.188 24.438 C0.791 28.895 -3.332 30.394 -10.285 30.164 C-14.949 29.482 -17.586 27.097 -20.562 23.625 C-22.963 17.623 -21.748 11.041 -20.688 4.812 C-20.028 4.812 -19.367 4.812 -18.688 4.812 C-18.688 4.153 -18.688 3.492 -18.688 2.812 C-18.028 2.812 -17.367 2.812 -16.688 2.812 C-16.688 2.153 -16.688 1.492 -16.688 0.812 C-11.068 -1.435 -5.723 -2.529 0 0 Z " fill="#F9C8B7" transform="translate(778.6875,616.1875)" />
<path d="M0 0 C4.064 2.194 5.666 3.309 7.125 7.688 C7.647 12.656 7.697 16.543 5.438 21.062 C-0.181 27.441 -0.181 27.441 -4.02 28 C-8.386 28.116 -11.929 27.724 -15.875 25.688 C-15.875 25.028 -15.875 24.367 -15.875 23.688 C-17.195 23.357 -18.515 23.028 -19.875 22.688 C-20.205 21.367 -20.535 20.048 -20.875 18.688 C-21.535 18.688 -22.195 18.688 -22.875 18.688 C-23.34 8.85 -23.34 8.85 -21.625 4.562 C-19.706 2.507 -18.643 1.974 -15.875 1.688 C-15.875 1.028 -15.875 0.367 -15.875 -0.312 C-10.624 -2.063 -5.169 -2.1 0 0 Z " fill="#FAC9BA" transform="translate(927.875,640.3125)" />
<path d="M0 0 C3.833 3.299 5.337 6.889 6.043 11.828 C5.23 17.518 3.104 20.879 -1.082 24.766 C-5.664 26.887 -9.489 27.12 -14.457 26.328 C-18.186 24.565 -19.949 23.039 -22.332 19.703 C-24.057 14.528 -24.791 9.32 -22.508 4.199 C-17.238 -3.764 -7.934 -5.156 0 0 Z " fill="#F2794F" transform="translate(842.45703125,641.671875)" />
<path d="M0 0 C3.558 2.426 4.969 3.901 6.75 7.875 C7.453 12.345 7.628 16.422 6.75 20.875 C4.087 24.353 0.807 25.523 -3.25 26.875 C-8.343 27.479 -12.012 27.823 -16.188 24.625 C-16.868 23.717 -17.549 22.81 -18.25 21.875 C-18.78 21.26 -19.31 20.645 -19.855 20.012 C-22.313 16.247 -21.75 12.21 -21.25 7.875 C-19.697 3.673 -17.19 1.667 -13.211 -0.398 C-8.63 -2.096 -4.604 -1.594 0 0 Z " fill="#F7A185" transform="translate(117.25,626.125)" />
<path d="M0 0 C1.32 0 2.64 0 4 0 C4 0.66 4 1.32 4 2 C5.33 2.402 5.33 2.402 6.688 2.812 C9.79 3.925 12.208 5.282 15 7 C16.654 7.698 18.317 8.375 20 9 C20 9.66 20 10.32 20 11 C20.99 11 21.98 11 23 11 C23 18.92 23 26.84 23 35 C35.54 34.67 48.08 34.34 61 34 C61 33.34 61 32.68 61 32 C61.66 32 62.32 32 63 32 C63 31.34 63 30.68 63 30 C63.99 30.33 64.98 30.66 66 31 C61.007 36.084 57.398 36.815 50.395 36.91 C49.015 36.942 49.015 36.942 47.607 36.975 C45.665 37.009 43.722 37.029 41.78 37.036 C38.835 37.062 35.902 37.179 32.959 37.299 C18.365 37.591 18.365 37.591 13.291 33.394 C10.444 30.544 8.192 27.378 6 24 C3.744 20.582 3.744 20.582 0 19 C0 12.73 0 6.46 0 0 Z " fill="#F59777" transform="translate(124,573)" />
<path d="M0 0 C2.709 2.245 4.439 3.705 6.188 6.812 C6.516 10.504 6.42 14.117 6.188 17.812 C5.528 17.812 4.867 17.812 4.188 17.812 C4.146 18.39 4.105 18.967 4.062 19.562 C3.021 22.24 1.642 23.542 -0.781 25.062 C-4.946 26.6 -9.445 26.092 -13.812 25.812 C-13.812 25.152 -13.812 24.493 -13.812 23.812 C-14.411 23.544 -15.009 23.276 -15.625 23 C-17.872 21.78 -19.192 20.779 -20.812 18.812 C-22.019 13.302 -20.761 8.289 -18 3.477 C-13.76 -2.464 -6.31 -2.664 0 0 Z " fill="#F9C8B8" transform="translate(835.8125,459.1875)" />
<path d="M0 0 C4.028 2.257 6.534 4.602 8 9 C8.492 15.524 7.199 19.389 3 24.375 C-1.63 26.883 -5.862 26.94 -11 26 C-14.186 24.574 -16.138 22.959 -18 20 C-19.28 15.615 -19.33 11.649 -18.438 7.188 C-13.727 0.02 -8.366 -1.743 0 0 Z " fill="#F59877" transform="translate(162,466)" />
<path d="M0 0 C3.689 1.361 6.392 3.275 8.938 6.312 C10.679 10.717 10.484 14.549 9 19 C8.34 19 7.68 19 7 19 C6.753 19.598 6.505 20.196 6.25 20.812 C4.726 23.48 3.733 24.562 1 26 C-3.761 26.538 -6.003 26.489 -10.312 24.375 C-13.79 21.301 -15.736 18.622 -16.211 13.906 C-16.307 8.614 -16.307 8.614 -15 6 C-14.34 6 -13.68 6 -13 6 C-12.67 5.01 -12.34 4.02 -12 3 C-8.629 -0.64 -4.674 -0.785 0 0 Z " fill="#F59C7D" transform="translate(533,493)" />
<path d="M0 0 C4.317 0.443 6.999 1.545 9.938 4.875 C9.938 5.535 9.938 6.195 9.938 6.875 C10.597 6.875 11.257 6.875 11.938 6.875 C12.302 12.004 12.498 15.773 10.125 20.438 C7.708 23.13 6.332 23.791 2.746 24.008 C1.964 24.005 1.181 24.003 0.375 24 C-0.41 24.003 -1.195 24.005 -2.004 24.008 C-4.062 23.875 -4.062 23.875 -6.062 22.875 C-6.062 22.215 -6.062 21.555 -6.062 20.875 C-7.052 20.545 -8.043 20.215 -9.062 19.875 C-9.062 19.215 -9.062 18.555 -9.062 17.875 C-9.722 17.875 -10.382 17.875 -11.062 17.875 C-11.838 11.929 -10.269 7.905 -7.043 2.871 C-4.625 0.434 -3.396 0.127 0 0 Z " fill="#F9C8B9" transform="translate(78.0625,545.125)" />
<path d="M0 0 C2.5 1 2.5 1 4 2 C4 2.66 4 3.32 4 4 C4.66 4 5.32 4 6 4 C8.593 8.214 8.455 11.878 7.438 16.625 C5.375 20.033 2.632 21.618 -1 23 C-4.442 23.543 -6.699 23.792 -9.738 21.941 C-12.761 19.51 -14.789 17.699 -15.273 13.793 C-15.55 6.709 -15.55 6.709 -12.625 2.938 C-8.421 -0.166 -5.144 -0.437 0 0 Z " fill="#F2774D" transform="translate(954,582)" />
<path d="M0 0 C1.32 0.33 2.64 0.66 4 1 C4.11 1.964 4.219 2.928 4.332 3.922 C4.57 5.817 4.57 5.817 4.812 7.75 C4.963 9.003 5.114 10.256 5.27 11.547 C6.001 15.003 6.913 16.294 9 19 C8.54 20.94 8.067 22.88 7.492 24.789 C6.14 30.865 8.153 37.213 10 43 C10.66 43 11.32 43 12 43 C12 44.32 12 45.64 12 47 C12.66 47 13.32 47 14 47 C14.66 50.3 15.32 53.6 16 57 C10.72 57 5.44 57 0 57 C-0.352 33.532 -0.352 33.532 1 24.312 C3.173 11.813 3.173 11.813 0 0 Z " fill="#FCF7F1" transform="translate(599,431)" />
</svg>