<?xml version='1.0' encoding='utf-8'?>
<svg xmlns="http://www.w3.org/2000/svg" version="1.1" width="740" height="379" viewBox="143.0425 312.0 740.5885 379.08000000000004">
<path d="M0 0 C2.219 2.281 2.219 2.281 4.5 5.5 C5.363 6.688 6.229 7.874 7.098 9.059 C7.559 9.694 8.021 10.329 8.497 10.984 C11.195 14.602 14.073 18.075 16.938 21.562 C26 32.623 26 32.623 26 35.25 C22.929 43.695 16.51 51.195 11.254 58.391 C6.807 64.596 6.807 64.596 6 72 C7.606 74.729 9.373 77.185 11.336 79.668 C12.916 81.883 13.573 83.348 14 86 C13.34 86 12.68 86 12 86 C11.621 87.294 11.621 87.294 11.234 88.613 C9.936 92.175 8.293 95 6.25 98.188 C2.99 103.336 -0.014 108.567 -2.871 113.953 C-4 116 -4 116 -5 117 C-6.509 117.254 -8.029 117.448 -9.55 117.617 C-11.012 117.782 -11.012 117.782 -12.504 117.951 C-13.573 118.068 -14.641 118.185 -15.742 118.305 C-16.845 118.429 -17.949 118.552 -19.085 118.68 C-22.681 119.083 -26.278 119.479 -29.875 119.875 C-32.321 120.147 -34.766 120.419 -37.212 120.692 C-41.998 121.225 -46.784 121.756 -51.571 122.285 C-56.797 122.864 -62.022 123.457 -67.246 124.062 C-68.482 124.204 -69.718 124.346 -70.991 124.493 C-73.122 124.738 -75.253 124.986 -77.384 125.238 C-79.921 125.526 -82.457 125.771 -85 126 C-85.735 126.093 -86.47 126.187 -87.227 126.283 C-90.005 126.51 -92.248 126.54 -94.569 124.874 C-96.088 123.287 -97.388 121.646 -98.688 119.875 C-99.357 119.02 -99.357 119.02 -100.041 118.148 C-100.934 117.008 -101.818 115.861 -102.692 114.707 C-105.251 111.368 -107.899 108.101 -110.875 105.125 C-113.392 102.608 -115.734 99.979 -118.047 97.273 C-119.424 95.67 -120.834 94.094 -122.266 92.539 C-128.635 85.301 -128.635 85.301 -128.375 81 C-127.302 76.735 -124.885 73.152 -122.535 69.48 C-121.188 67.304 -120.123 65.225 -119.125 62.875 C-116.727 57.25 -113.983 51.806 -111.203 46.363 C-109.673 43.366 -108.218 40.343 -106.797 37.293 C-106.053 35.757 -105.308 34.222 -104.562 32.688 C-104.24 31.964 -103.917 31.241 -103.585 30.496 C-101.672 26.653 -100.129 24.661 -96.012 23.23 C-94.348 22.795 -92.676 22.387 -91 22 C-88.984 21.452 -86.968 20.902 -84.953 20.352 C-82.72 19.772 -80.485 19.197 -78.25 18.625 C-77.061 18.318 -75.871 18.012 -74.646 17.696 C-66.67 15.65 -58.673 13.717 -50.655 11.846 C-44.293 10.346 -37.988 8.675 -31.688 6.938 C-25.115 5.125 -18.543 3.316 -11.938 1.625 C-10.709 1.308 -9.481 0.991 -8.215 0.664 C-2.606 -0.494 -2.606 -0.494 0 0 Z " fill="#F8836A" transform="translate(429,528)" />
<path d="M0 0 C1.901 -0.006 3.802 0.022 5.702 0.076 C6.722 0.082 7.741 0.088 8.792 0.094 C12.061 0.121 15.328 0.19 18.597 0.26 C20.747 0.281 22.898 0.3 25.048 0.316 C30.229 0.365 35.405 0.479 40.584 0.626 C43.197 0.692 45.808 0.719 48.422 0.737 C57.043 0.887 63.064 1.965 69.784 7.76 C70.532 8.35 71.28 8.941 72.05 9.549 C73.525 10.715 74.989 11.894 76.44 13.089 C79.023 15.198 81.695 17.134 84.409 19.072 C85.243 19.679 86.077 20.286 86.937 20.912 C93.927 26.2 93.927 26.2 101.409 30.697 C101.409 31.357 101.409 32.017 101.409 32.697 C102.43 33.006 102.43 33.006 103.472 33.322 C110.972 36.833 110.972 36.833 113.409 40.697 C113.894 44.687 113.356 48.445 112.754 52.405 C112.368 54.975 112.04 57.548 111.718 60.127 C111.221 64.075 110.705 68.019 110.171 71.963 C109.31 78.366 108.565 84.781 107.839 91.201 C107.448 94.387 106.948 97.533 106.409 100.697 C101.61 101.826 96.808 102.947 92.005 104.06 C90.375 104.439 88.746 104.82 87.117 105.204 C62.384 111.023 62.384 111.023 56.409 107.697 C54.979 106.961 53.548 106.225 52.116 105.49 C50.484 104.623 48.853 103.755 47.222 102.885 C45.514 101.985 43.805 101.085 42.097 100.185 C39.456 98.79 36.833 97.377 34.222 95.927 C33.397 95.48 32.572 95.033 31.722 94.572 C30.726 94.011 30.726 94.011 29.71 93.439 C23.443 91.417 17.679 92.907 11.659 95.01 C10.25 95.477 8.84 95.942 7.429 96.404 C6.744 96.629 6.059 96.854 5.353 97.086 C2.712 97.916 0.042 98.566 -2.653 99.197 C-8.094 100.49 -13.334 102.215 -18.604 104.072 C-21.416 105.048 -23.588 105.697 -26.591 105.697 C-30.591 100.44 -30.591 100.44 -30.591 97.697 C-31.251 97.697 -31.911 97.697 -32.591 97.697 C-34.227 95.434 -35.736 93.184 -37.216 90.822 C-37.636 90.171 -38.056 89.52 -38.489 88.849 C-41.591 83.965 -41.591 83.965 -41.591 81.697 C-42.251 81.697 -42.911 81.697 -43.591 81.697 C-46.591 75.947 -46.591 75.947 -46.591 73.697 C-47.581 73.367 -48.571 73.037 -49.591 72.697 C-48.943 69.2 -47.594 66.626 -45.591 63.697 C-44.601 63.037 -43.611 62.377 -42.591 61.697 C-41.838 60.014 -41.093 58.327 -40.412 56.614 C-39.082 53.509 -37.265 50.736 -35.466 47.885 C-32.893 43.868 -32.893 43.868 -30.591 39.697 C-29.931 39.697 -29.271 39.697 -28.591 39.697 C-28.322 38.966 -28.054 38.235 -27.778 37.482 C-26.616 34.758 -25.278 32.56 -23.591 30.135 C-21.69 27.393 -20.015 24.716 -18.591 21.697 C-17.931 21.697 -17.271 21.697 -16.591 21.697 C-16.446 20.873 -16.446 20.873 -16.298 20.033 C-15.406 17.088 -13.961 14.896 -12.278 12.322 C-11.684 11.407 -11.09 10.492 -10.477 9.549 C-9.855 8.608 -9.232 7.667 -8.591 6.697 C-8.104 5.661 -7.617 4.625 -7.116 3.558 C-4.316 0.386 -3.969 0.263 0 0 Z " fill="#FBA08C" transform="translate(492.590576171875,526.302978515625)" />
<path d="M0 0 C4.062 0.635 7.373 1.948 11.086 3.695 C12.257 4.243 13.428 4.791 14.634 5.355 C15.881 5.945 17.128 6.535 18.375 7.125 C19.653 7.725 20.931 8.325 22.21 8.925 C24.705 10.095 27.199 11.268 29.692 12.444 C32.33 13.685 34.97 14.917 37.617 16.137 C44.636 19.372 51.576 22.742 58.462 26.249 C61.905 27.994 65.363 29.611 68.924 31.107 C73.803 33.206 78.612 35.468 83.438 37.688 C84.551 38.199 85.664 38.71 86.811 39.236 C89.541 40.49 92.271 41.745 95 43 C93.634 46.566 92.238 49.229 89.812 52.188 C86.767 55.999 83.939 59.896 81.168 63.91 C79.381 66.457 77.569 68.98 75.738 71.496 C75.155 72.298 74.572 73.1 73.971 73.926 C72.797 75.538 71.621 77.148 70.443 78.756 C69.626 79.878 69.626 79.878 68.793 81.023 C68.303 81.693 67.814 82.362 67.309 83.052 C65.939 84.969 65.939 84.969 65.045 87.16 C63.481 89.914 61.146 90.228 58.236 91.079 C57.416 91.3 56.595 91.522 55.75 91.75 C54.89 91.995 54.029 92.241 53.143 92.493 C50.101 93.351 47.052 94.179 44 95 C42.772 95.331 41.544 95.662 40.278 96.003 C35.034 97.414 29.787 98.817 24.534 100.196 C18.361 101.818 12.234 103.479 6.17 105.478 C1.802 106.529 -1.421 106.099 -5.438 104.188 C-6.219 103.821 -7 103.455 -7.805 103.078 C-9.565 102.214 -11.316 101.329 -13.062 100.438 C-15.928 99.035 -18.833 97.958 -21.828 96.871 C-24.141 95.943 -26.294 94.846 -28.5 93.688 C-33.692 91.015 -39.065 89.018 -44.555 87.055 C-47.665 85.933 -50.232 84.845 -53 83 C-51.569 79.086 -49.725 75.709 -47.5 72.188 C-46.892 71.212 -46.283 70.236 -45.656 69.23 C-45.11 68.494 -44.563 67.758 -44 67 C-43.34 67 -42.68 67 -42 67 C-41.894 66.27 -41.789 65.541 -41.68 64.789 C-40.945 61.774 -39.881 59.917 -38.125 57.375 C-37.612 56.62 -37.099 55.864 -36.57 55.086 C-35 53 -35 53 -33.379 51.426 C-31.313 49.289 -30.811 46.809 -30 44 C-29.34 44 -28.68 44 -28 44 C-27.67 42.68 -27.34 41.36 -27 40 C-26.34 40 -25.68 40 -25 40 C-24.876 38.917 -24.876 38.917 -24.75 37.812 C-23.828 34.356 -22.279 32.772 -20 30 C-18.412 27.36 -16.879 24.695 -15.367 22.012 C-14.69 21.016 -14.69 21.016 -14 20 C-13.34 20 -12.68 20 -12 20 C-11.67 18.68 -11.34 17.36 -11 16 C-10.34 16 -9.68 16 -9 16 C-8.814 15.216 -8.629 14.433 -8.438 13.625 C-6.413 8.521 -3.249 4.396 0 0 Z " fill="#FAA08C" transform="translate(404,322)" />
<path d="M0 0 C3.888 3.438 7.03 7.407 10.188 11.5 C10.899 12.414 10.899 12.414 11.624 13.347 C13.086 15.229 14.543 17.114 16 19 C16.885 20.139 17.771 21.279 18.656 22.418 C20.323 24.566 21.979 26.722 23.625 28.887 C25.211 30.966 26.815 33.031 28.438 35.082 C29.18 36.045 29.923 37.008 30.688 38 C31.351 38.846 32.015 39.691 32.699 40.562 C34 43 34 43 33.891 45.438 C32.845 48.446 31.536 51.176 30.062 54 C27.909 58.14 27.909 58.14 26.039 62.41 C24.658 65.851 22.986 69.132 21.312 72.438 C20.663 73.728 20.013 75.018 19.363 76.309 C18.992 77.012 18.622 77.715 18.24 78.439 C16.893 81.122 16.893 81.122 15.673 84.531 C11.952 93.973 11.952 93.973 6.952 96.604 C3.208 97.566 -0.482 98.132 -4.312 98.562 C-5.689 98.763 -7.065 98.971 -8.439 99.184 C-11.245 99.614 -14.052 100.014 -16.865 100.396 C-24.243 101.429 -31.513 103.087 -38.8 104.617 C-48.582 106.555 -48.582 106.555 -53 105 C-54.512 103.391 -54.512 103.391 -55.688 101.25 C-58.303 96.919 -61.26 93.185 -64.562 89.375 C-68.288 85.057 -71.744 80.681 -75 76 C-75.986 74.986 -76.988 73.988 -78 73 C-80.774 70.203 -83.185 67.517 -85 64 C-84.888 60.571 -83.561 58.012 -82 55 C-81.37 53.565 -80.745 52.127 -80.125 50.688 C-79.613 49.57 -79.613 49.57 -79.09 48.43 C-77.887 45.749 -76.789 43.036 -75.688 40.312 C-73.085 34.027 -70.14 27.922 -66.939 21.92 C-65.932 19.946 -65.932 19.946 -65.114 17.562 C-62.391 10.737 -62.391 10.737 -58.693 8.778 C-55.787 7.993 -52.95 7.501 -49.969 7.09 C-48.9 6.907 -47.831 6.723 -46.73 6.535 C-43.326 5.96 -39.915 5.448 -36.5 4.938 C-34.204 4.562 -31.908 4.183 -29.613 3.799 C-24.557 2.96 -19.496 2.16 -14.428 1.395 C-12.748 1.122 -11.075 0.813 -9.407 0.475 C-6.1 -0.177 -3.365 -0.361 0 0 Z " fill="#F56D51" transform="translate(297,479)" />
<path d="M0 0 C0.927 0.011 1.854 0.022 2.81 0.033 C3.615 0.043 4.42 0.053 5.25 0.062 C5.484 0.827 5.719 1.592 5.96 2.381 C8.381 10.268 10.838 18.144 13.316 26.014 C14.646 30.241 15.971 34.47 17.298 38.698 C18.455 42.384 19.613 46.069 20.774 49.754 C21.91 53.36 23.042 56.967 24.172 60.575 C24.599 61.936 25.027 63.296 25.457 64.656 C29.961 78.918 29.961 78.918 31.25 86.062 C29.352 87.96 26.119 87.797 23.574 88.184 C22.894 88.288 22.213 88.393 21.512 88.501 C19.321 88.838 17.129 89.169 14.938 89.5 C12.792 89.827 10.646 90.156 8.501 90.485 C7.094 90.7 5.687 90.915 4.28 91.129 C-0.929 91.925 -6.124 92.788 -11.315 93.697 C-15.713 94.357 -19.481 94.486 -23.75 93.062 C-23.75 92.403 -23.75 91.743 -23.75 91.062 C-25.08 90.691 -25.08 90.691 -26.438 90.312 C-29.872 89.016 -31.96 87.4 -34.75 85.062 C-35.74 84.733 -36.73 84.403 -37.75 84.062 C-37.75 83.403 -37.75 82.743 -37.75 82.062 C-39.07 81.733 -40.39 81.403 -41.75 81.062 C-41.75 80.403 -41.75 79.743 -41.75 79.062 C-42.428 78.825 -43.106 78.588 -43.805 78.344 C-47.43 76.767 -50.581 74.733 -53.875 72.562 C-54.495 72.159 -55.115 71.756 -55.754 71.34 C-58.43 69.596 -61.093 67.834 -63.75 66.062 C-63.75 65.403 -63.75 64.743 -63.75 64.062 C-65.235 63.567 -65.235 63.567 -66.75 63.062 C-67.53 61.418 -67.53 61.418 -68.109 59.25 C-68.335 58.434 -68.56 57.617 -68.792 56.776 C-69.026 55.881 -69.259 54.985 -69.5 54.062 C-70.019 52.152 -70.539 50.242 -71.059 48.332 C-71.466 46.81 -71.466 46.81 -71.882 45.256 C-72.779 41.957 -73.714 38.672 -74.66 35.387 C-75.135 33.729 -75.135 33.729 -75.62 32.037 C-76.236 29.888 -76.855 27.739 -77.478 25.592 C-79.043 20.065 -80.223 14.786 -80.75 9.062 C-72.688 7.641 -64.638 6.503 -56.5 5.625 C-55.366 5.5 -54.231 5.375 -53.062 5.247 C-42.09 4.059 -31.103 3.038 -20.11 2.065 C-18.17 1.89 -18.17 1.89 -16.191 1.711 C-15.044 1.61 -13.896 1.508 -12.713 1.404 C-0.476 -0.006 -0.476 -0.006 0 0 Z " fill="#FAA08C" transform="translate(673.75,418.9375)" />
<path d="M0 0 C0.28 1.093 0.559 2.186 0.848 3.312 C3.261 12.654 5.828 21.935 8.562 31.188 C10.853 38.953 12.991 46.713 14.898 54.582 C16.375 60.601 18.011 66.579 19.625 72.562 C19.927 73.682 20.228 74.801 20.539 75.955 C22.31 82.509 22.31 82.509 24.211 89.027 C25 92 25 92 25 96 C24.432 95.945 23.863 95.889 23.277 95.832 C20.536 95.809 18.58 96.038 16 97 C13.036 100.304 11.106 104.112 9 108 C7.869 109.801 6.723 111.593 5.562 113.375 C3.615 116.419 1.704 119.479 -0.148 122.582 C-0.689 123.481 -0.689 123.481 -1.24 124.399 C-2.266 126.11 -3.284 127.827 -4.301 129.543 C-4.862 130.354 -5.422 131.165 -6 132 C-6.66 132 -7.32 132 -8 132 C-9.375 130.27 -9.375 130.27 -11 127.812 C-13.878 123.58 -16.871 119.485 -20 115.438 C-20.428 114.875 -20.857 114.312 -21.298 113.732 C-23.11 111.363 -24.93 109.074 -26.984 106.91 C-33.497 99.865 -35.051 90.55 -37.356 81.496 C-38.189 78.268 -39.121 75.073 -40.062 71.875 C-41.833 65.693 -43.453 59.476 -45.07 53.253 C-46.491 47.825 -48.018 42.438 -49.625 37.062 C-55 19.051 -55 19.051 -55 14 C-44.538 10.967 -34.035 8.12 -23.501 5.349 C-21.552 4.836 -19.604 4.32 -17.656 3.805 C-15.952 3.356 -15.952 3.356 -14.213 2.898 C-12.045 2.292 -9.894 1.622 -7.764 0.895 C-4.995 -0.001 -2.886 -0.17 0 0 Z " fill="#F99F8C" transform="translate(467,423)" />
<path d="M0 0 C1.448 0.175 2.894 0.375 4.336 0.594 C6.027 0.82 7.719 1.045 9.41 1.27 C10.865 1.47 10.865 1.47 12.349 1.674 C15.545 2.073 18.737 2.392 21.944 2.683 C24.931 2.957 27.916 3.258 30.901 3.561 C32.395 3.707 33.891 3.843 35.387 3.969 C47.468 4.999 47.468 4.999 50.567 7.729 C51.984 10.12 52.711 12.299 52.711 15.094 C53.371 15.094 54.031 15.094 54.711 15.094 C56.452 17.731 58.088 20.385 59.711 23.094 C60.809 24.848 61.913 26.598 63.023 28.344 C63.901 29.728 63.901 29.728 64.797 31.141 C67.517 35.338 70.357 39.452 73.207 43.562 C74.711 46.094 74.711 46.094 74.711 49.094 C74.051 49.094 73.391 49.094 72.711 49.094 C72.64 49.618 72.569 50.143 72.496 50.684 C71.375 54.125 69.278 56.778 67.148 59.656 C66.702 60.27 66.255 60.884 65.795 61.517 C64.88 62.774 63.962 64.028 63.042 65.281 C61.106 67.917 59.192 70.569 57.273 73.219 C56.089 74.846 54.902 76.471 53.711 78.094 C53.284 78.795 52.858 79.496 52.418 80.218 C50.711 82.094 50.711 82.094 48.395 82.518 C47.507 82.48 46.619 82.443 45.704 82.404 C44.723 82.367 43.741 82.33 42.73 82.293 C34.993 81.783 27.311 80.991 19.612 80.08 C17.506 79.838 15.398 79.616 13.288 79.412 C-4.282 77.703 -4.282 77.703 -9.268 73.706 C-11.468 70.633 -13.289 67.953 -13.289 64.094 C-13.949 64.094 -14.609 64.094 -15.289 64.094 C-16.979 61.602 -18.558 59.112 -20.102 56.531 C-20.96 55.112 -21.821 53.694 -22.684 52.277 C-23.106 51.576 -23.528 50.875 -23.963 50.152 C-25.276 48.113 -26.725 46.271 -28.238 44.379 C-30.289 41.094 -30.289 41.094 -29.859 38.539 C-29.341 37.732 -28.823 36.925 -28.289 36.094 C-27.357 34.636 -27.357 34.636 -26.406 33.148 C-25.666 32.099 -24.926 31.05 -24.164 29.969 C-23.767 29.403 -23.371 28.838 -22.962 28.255 C-20.364 24.565 -17.708 20.92 -15.039 17.281 C-12.313 13.563 -9.762 9.804 -7.395 5.848 C-7.03 5.269 -6.665 4.69 -6.289 4.094 C-5.715 2.978 -5.715 2.978 -5.129 1.84 C-3.289 0.094 -3.289 0.094 0 0 Z " fill="#F56F52" transform="translate(760.2890625,506.90625)" />
<path d="M0 0 C7.903 -0.304 15.803 -0.534 23.71 -0.674 C27.384 -0.741 31.054 -0.831 34.726 -0.981 C51.184 -1.633 64.724 -2.02 77.624 9.758 C78.194 10.313 78.765 10.868 79.353 11.441 C81.733 13.694 84.313 15.502 87 17.375 C87.834 17.982 88.668 18.589 89.527 19.215 C96.517 24.503 96.517 24.503 104 29 C104 29.66 104 30.32 104 31 C104.681 31.206 105.361 31.413 106.062 31.625 C113.562 35.136 113.562 35.136 116 39 C116.485 42.99 115.947 46.748 115.344 50.708 C114.958 53.278 114.631 55.851 114.309 58.43 C113.812 62.378 113.295 66.322 112.762 70.266 C111.901 76.669 111.155 83.084 110.43 89.504 C110.038 92.69 109.538 95.836 109 99 C104.2 100.129 99.399 101.25 94.596 102.363 C92.966 102.742 91.337 103.123 89.708 103.507 C64.893 109.345 64.893 109.345 59 106 C58.083 105.491 58.083 105.491 57.148 104.973 C55.419 104.005 53.708 103.005 52 102 C51.73 94.659 52.367 87.751 53.508 80.5 C53.951 77.352 54.169 74.298 54.312 71.125 C54.81 63.403 56.58 55.937 58.273 48.401 C59.352 43.525 60.337 39.032 60 34 C59.215 33.697 58.43 33.394 57.621 33.082 C51.424 30.611 46.286 28.049 41 24 C40.01 23.67 39.02 23.34 38 23 C38 22.34 38 21.68 38 21 C36.113 20.474 36.113 20.474 34.188 19.938 C29.167 18.275 25.099 15.688 20.715 12.773 C17.556 10.71 14.303 8.909 10.973 7.141 C9 6 9 6 6.918 4.434 C4.73 2.798 2.56 1.924 0 1 C0 0.67 0 0.34 0 0 Z " fill="#F66E52" transform="translate(490,528)" />
<path d="M0 0 C0.66 0 1.32 0 2 0 C2.181 0.738 2.361 1.476 2.547 2.237 C5.754 15.304 9.006 28.328 12.793 41.24 C15.047 48.993 17.004 56.812 18.908 64.657 C19.958 68.954 21.037 73.221 22.336 77.449 C24.661 85.04 26.655 92.725 28.706 100.393 C29.43 103.098 30.157 105.803 30.885 108.508 C33.078 116.68 35.252 124.857 37.348 133.055 C37.669 134.305 37.99 135.555 38.321 136.843 C39 140 39 140 39 144 C25.8 144 12.6 144 -1 144 C-2.715 138.854 -4.378 133.863 -5.797 128.656 C-6.112 127.505 -6.428 126.354 -6.752 125.168 C-7.082 123.958 -7.411 122.747 -7.75 121.5 C-8.461 118.905 -9.171 116.31 -9.883 113.715 C-10.061 113.064 -10.239 112.413 -10.423 111.743 C-12.13 105.509 -13.875 99.285 -15.625 93.062 C-18.103 84.243 -20.544 75.414 -22.927 66.569 C-23.998 62.605 -25.088 58.655 -26.297 54.73 C-26.673 53.499 -27.05 52.268 -27.438 51 C-27.766 49.969 -28.095 48.938 -28.434 47.875 C-29.29 43.53 -28.846 40.42 -26.574 36.605 C-25.952 35.808 -25.329 35.01 -24.688 34.188 C-23.969 33.243 -23.251 32.298 -22.512 31.324 C-21.913 30.54 -21.913 30.54 -21.302 29.74 C-18.79 26.383 -16.406 22.933 -14 19.5 C-12.972 18.043 -11.943 16.586 -10.914 15.129 C-9.511 13.143 -8.109 11.156 -6.714 9.164 C-5.607 7.584 -4.491 6.01 -3.375 4.438 C-2.764 3.57 -2.153 2.702 -1.523 1.809 C-1.021 1.212 -0.518 0.615 0 0 Z " fill="#F46D52" transform="translate(505,375)" />
<path d="M0 0 C1.32 0 2.64 0 4 0 C4 0.66 4 1.32 4 2 C4.571 2.159 5.142 2.317 5.73 2.48 C16.276 5.515 26.213 9.448 35.934 14.535 C40.242 16.593 44.727 18.025 49.285 19.434 C54.464 22.422 55.123 28.303 56.648 33.738 C57.229 35.928 57.804 38.12 58.375 40.312 C58.997 42.664 59.619 45.016 60.242 47.367 C60.544 48.509 60.845 49.651 61.155 50.827 C62.233 54.875 63.361 58.907 64.5 62.938 C66.68 70.704 68.722 78.505 70.75 86.312 C71.056 87.489 71.362 88.665 71.678 89.877 C71.965 90.986 72.251 92.095 72.547 93.238 C72.803 94.229 73.059 95.219 73.323 96.24 C73.955 98.816 74.502 101.394 75 104 C68.141 105.983 61.25 107.841 54.357 109.701 C52.964 110.079 52.964 110.079 51.543 110.465 C50.622 110.715 49.701 110.965 48.751 111.222 C45.265 112.208 41.82 113.313 38.38 114.451 C35.536 115.107 32.908 115.088 30 115 C27.676 106.591 25.356 98.181 23.039 89.77 C22.408 87.48 21.777 85.191 21.145 82.902 C17.851 70.96 14.697 58.988 11.614 46.99 C9.76 39.816 7.809 32.679 5.75 25.562 C0 5.683 0 5.683 0 0 Z " fill="#F8A08D" transform="translate(348,416)" />
<path d="M0 0 C1.807 1.857 3.166 3.52 4.625 5.625 C5.489 6.819 6.355 8.012 7.223 9.203 C7.671 9.826 8.12 10.45 8.583 11.092 C10.019 13.025 11.519 14.882 13.059 16.734 C13.56 17.343 14.061 17.952 14.578 18.58 C15.545 19.749 16.522 20.912 17.508 22.065 C20.7 25.988 21.687 28.983 22 34 C22.062 34.887 22.124 35.774 22.188 36.688 C21.97 39.367 21.484 40.758 20 43 C17.859 43.91 17.859 43.91 15.18 44.492 C13.681 44.833 13.681 44.833 12.152 45.181 C11.071 45.41 9.989 45.639 8.875 45.875 C6.603 46.387 4.33 46.9 2.059 47.414 C0.892 47.673 -0.275 47.933 -1.477 48.2 C-7.028 49.46 -12.544 50.853 -18.062 52.25 C-20.878 52.958 -23.694 53.665 -26.51 54.37 C-28.109 54.774 -29.705 55.187 -31.298 55.611 C-36.108 56.875 -40.074 57.176 -45 57 C-45 57.66 -45 58.32 -45 59 C-49.678 60.559 -53.763 60.897 -58.348 59.059 C-62.97 56.597 -66.384 53.807 -70 50 C-71.256 49.083 -72.527 48.187 -73.812 47.312 C-74.864 46.549 -75.916 45.786 -77 45 C-77 44.34 -77 43.68 -77 43 C-77.619 42.691 -78.238 42.381 -78.875 42.062 C-80.25 41.375 -81.625 40.688 -83 40 C-83 39.34 -83 38.68 -83 38 C-83.536 37.753 -84.072 37.505 -84.625 37.25 C-89.379 34.748 -93.277 31.856 -97 28 C-97.66 27.67 -98.32 27.34 -99 27 C-99 26.01 -99 25.02 -99 24 C-98.065 23.769 -97.131 23.539 -96.168 23.301 C-88.699 21.449 -81.248 19.544 -73.812 17.562 C-67.128 15.784 -60.423 14.135 -53.688 12.562 C-46.31 10.837 -38.991 8.953 -31.688 6.938 C-25.115 5.125 -18.543 3.316 -11.938 1.625 C-10.709 1.308 -9.481 0.991 -8.215 0.664 C-2.589 -0.498 -2.589 -0.498 0 0 Z " fill="#F56C50" transform="translate(429,528)" />
<path d="M0 0 C-0.713 1.1 -1.426 2.199 -2.16 3.332 C-8.46 13.049 -8.46 13.049 -14.688 22.812 C-17.074 26.577 -19.52 30.296 -22 34 C-25.029 38.523 -27.978 43.087 -30.887 47.688 C-33.73 52.143 -36.616 56.571 -39.5 61 C-47.499 72.012 -47.499 72.012 -53.675 83.932 C-54.821 86.604 -55.802 88.058 -58 90 C-63.77 92.052 -69.659 93.008 -75.688 94 C-77.335 94.298 -78.981 94.598 -80.627 94.902 C-92.159 97 -92.159 97 -95 97 C-94.803 82.512 -91.888 73.126 -83.589 61.305 C-80.81 57.275 -78.271 53.094 -75.688 48.938 C-72.813 44.366 -69.897 39.83 -66.879 35.352 C-63.827 30.799 -61.172 26.102 -58.516 21.309 C-58.015 20.547 -57.515 19.785 -57 19 C-56.34 19 -55.68 19 -55 19 C-54.773 18.134 -54.546 17.268 -54.312 16.375 C-52.621 12.026 -50.566 8.131 -46.166 6.191 C-43.973 5.603 -41.803 5.183 -39.562 4.812 C-38.747 4.659 -37.932 4.505 -37.092 4.346 C-27.805 2.655 -18.428 1.459 -9.059 0.325 C-2.362 -0.733 -2.362 -0.733 0 0 Z " fill="#F56F53" transform="translate(704,517)" />
<path d="M0 0 C0.33 0.66 0.66 1.32 1 2 C1.743 2.268 2.485 2.536 3.25 2.812 C6.647 4.279 8.425 6.362 11 9 C12.093 9.722 13.186 10.444 14.312 11.188 C15.199 11.786 16.086 12.384 17 13 C17 13.66 17 14.32 17 15 C17.928 15.464 17.928 15.464 18.875 15.938 C20.25 16.625 21.625 17.312 23 18 C23 18.66 23 19.32 23 20 C23.572 20.268 24.145 20.536 24.734 20.812 C27.079 22.041 29.124 23.425 31.25 25 C31.956 25.516 32.663 26.031 33.391 26.562 C33.922 27.037 34.453 27.511 35 28 C35 28.66 35 29.32 35 30 C35.763 30.268 36.526 30.536 37.312 30.812 C39.912 31.961 41.389 32.673 43 35 C42.767 38.498 40.798 41.07 39 44 C37.097 47.607 35.291 51.127 34 55 C33.34 55 32.68 55 32 55 C31.773 56.155 31.546 57.31 31.312 58.5 C30.152 63.175 28.084 67.283 25 71 C24.34 71 23.68 71 23 71 C23.095 72.085 23.095 72.085 23.191 73.191 C22.956 76.645 21.915 78.117 19.938 80.938 C15.652 87.339 12.328 94.071 9 101 C5.186 99.729 4.163 98.014 1.688 94.875 C0.893 93.881 0.099 92.887 -0.719 91.863 C-1.472 90.918 -2.224 89.974 -3 89 C-5.554 85.925 -8.11 82.89 -10.938 80.062 C-13.434 77.566 -15.753 74.956 -18.047 72.273 C-19.424 70.67 -20.834 69.094 -22.266 67.539 C-28.635 60.301 -28.635 60.301 -28.375 56 C-27.302 51.735 -24.885 48.152 -22.535 44.48 C-21.188 42.304 -20.123 40.225 -19.125 37.875 C-13.586 24.881 -6.654 12.446 0 0 Z " fill="#FAA08C" transform="translate(329,553)" />
<path d="M0 0 C3.691 0.166 7.332 0.56 11 1 C12.117 1.122 12.117 1.122 13.257 1.247 C27.814 2.98 27.814 2.98 32.719 7.512 C34.744 10.586 36.373 13.7 38 17 C39.387 19.144 40.804 21.27 42.25 23.375 C44.125 26.188 44.125 26.188 46 29 C46.737 30.065 47.475 31.13 48.234 32.227 C50 35 50 35 50 37 C49.34 37 48.68 37 48 37 C47.776 37.678 47.551 38.356 47.32 39.055 C45.634 42.816 43.352 45.848 40.875 49.125 C39.887 50.452 38.898 51.778 37.91 53.105 C37.42 53.76 36.931 54.414 36.426 55.087 C34.364 57.853 32.338 60.644 30.312 63.438 C29.348 64.766 29.348 64.766 28.363 66.121 C27.688 67.051 27.688 67.051 27 68 C21.638 66.391 16.768 64.066 11.75 61.625 C3.1 57.459 -5.591 53.39 -14.312 49.375 C-15.47 48.842 -16.627 48.309 -17.819 47.76 C-20.546 46.506 -23.273 45.252 -26 44 C-26 39.164 -24.231 36.915 -21.562 33.125 C-20.64 31.779 -19.718 30.433 -18.797 29.086 C-18.328 28.405 -17.86 27.724 -17.377 27.022 C-15.298 23.968 -13.301 20.864 -11.312 17.75 C-10.947 17.18 -10.582 16.609 -10.206 16.021 C-9.135 14.349 -8.068 12.674 -7 11 C-6.301 9.904 -5.603 8.809 -4.883 7.68 C-3.253 5.121 -1.626 2.561 0 0 Z " fill="#F56F53" transform="translate(685,560)" />
<path d="M0 0 C4.328 0.566 7.802 1.62 11.746 3.477 C13.362 4.23 13.362 4.23 15.01 4.999 C16.141 5.536 17.272 6.072 18.438 6.625 C19.605 7.172 20.772 7.719 21.974 8.282 C24.286 9.366 26.596 10.452 28.905 11.542 C31.425 12.729 33.95 13.906 36.48 15.07 C43.546 18.323 50.53 21.719 57.461 25.249 C60.905 26.994 64.363 28.611 67.924 30.107 C72.803 32.206 77.612 34.468 82.438 36.688 C83.551 37.199 84.664 37.71 85.811 38.236 C88.541 39.49 91.271 40.745 94 42 C92.634 45.566 91.238 48.229 88.812 51.188 C86.396 54.211 84.076 57.254 81.875 60.438 C77.819 66.303 73.629 72.07 69.443 77.844 C68.626 78.971 68.626 78.971 67.793 80.121 C67.303 80.796 66.814 81.471 66.309 82.166 C65.175 83.755 64.083 85.375 63 87 C61.195 86.832 61.195 86.832 59 86 C57.367 83.637 57.367 83.637 55.875 80.688 C55.377 79.722 54.88 78.756 54.367 77.762 C53.916 76.85 53.465 75.939 53 75 C52.611 74.223 52.221 73.445 51.82 72.645 C51.55 72.102 51.279 71.559 51 71 C50.34 71 49.68 71 49 71 C46 66.615 46 66.615 46 64 C45.01 63.67 44.02 63.34 43 63 C39.973 59.795 38.502 57.396 38 53 C37.34 53 36.68 53 36 53 C34.492 50.883 34.492 50.883 32.875 48.125 C32.336 47.22 31.797 46.315 31.242 45.383 C30 43 30 43 30 41 C29.34 41 28.68 41 28 41 C26.492 39.102 26.492 39.102 24.875 36.625 C24.067 35.407 24.067 35.407 23.242 34.164 C22 32 22 32 22 30 C21.34 30 20.68 30 20 30 C19.505 27.525 19.505 27.525 19 25 C18.34 25 17.68 25 17 25 C16.67 23.68 16.34 22.36 16 21 C15.34 21 14.68 21 14 21 C12.974 19.349 11.977 17.68 11 16 C10.536 15.553 10.072 15.105 9.594 14.645 C7.627 12.615 6.358 10.441 4.938 8 C3.346 5.279 1.75 2.624 0 0 Z " fill="#F46E52" transform="translate(405,323)" />
<path d="M0 0 C1.32 0.33 2.64 0.66 4 1 C3.01 1 2.02 1 1 1 C1.33 2.32 1.66 3.64 2 5 C2.66 5 3.32 5 4 5 C5.329 6.437 5.329 6.437 6.82 8.43 C7.355 9.143 7.89 9.855 8.441 10.59 C8.997 11.344 9.553 12.098 10.125 12.875 C10.688 13.621 11.252 14.368 11.832 15.137 C16 20.738 16 20.738 16 23 C16.66 23 17.32 23 18 23 C18 23.66 18 24.32 18 25 C18.66 25 19.32 25 20 25 C24 30.412 24 30.412 24 33 C24.903 33.379 24.903 33.379 25.824 33.766 C29.521 35.863 31.301 39.184 33 43 C33.185 51.514 27.158 60.775 23.395 68.148 C21.659 71.698 20.292 75.268 19 79 C18.34 79 17.68 79 17 79 C16.34 81.64 15.68 84.28 15 87 C14.34 87 13.68 87 13 87 C12.34 89.97 11.68 92.94 11 96 C7.507 94.836 7.316 94.285 5.5 91.25 C2.781 86.985 -0.267 83.195 -3.562 79.375 C-7.287 75.056 -10.744 70.681 -14 66 C-14.986 64.986 -15.988 63.988 -17 63 C-19.774 60.203 -22.185 57.517 -24 54 C-23.888 50.571 -22.561 48.012 -21 45 C-20.37 43.565 -19.745 42.127 -19.125 40.688 C-18.613 39.57 -18.613 39.57 -18.09 38.43 C-16.887 35.749 -15.789 33.036 -14.688 30.312 C-11.808 23.358 -8.42 16.699 -5 10 C-4.019 8.043 -3.039 6.084 -2.062 4.125 C-1.375 2.75 -0.688 1.375 0 0 Z " fill="#F9A18D" transform="translate(236,489)" />
<path d="M0 0 C1.684 3.132 2.794 6.26 3.84 9.656 C4.351 11.315 4.351 11.315 4.873 13.008 C5.224 14.16 5.576 15.313 5.938 16.5 C6.285 17.621 6.632 18.743 6.99 19.898 C8.967 26.345 10.755 32.796 12.291 39.361 C12.946 42.038 12.946 42.038 14.101 44.619 C15.648 48.716 14.648 52.513 12.938 56.438 C12.628 56.953 12.319 57.469 12 58 C11.34 58 10.68 58 10 58 C9.763 58.664 9.526 59.328 9.281 60.012 C7.652 63.811 5.621 67.271 3.5 70.812 C3.097 71.505 2.693 72.198 2.277 72.912 C1.243 74.644 0.128 76.327 -1 78 C-1.66 78 -2.32 78 -3 78 C-3.081 78.521 -3.162 79.042 -3.246 79.578 C-4.301 82.966 -6.172 85.779 -8.062 88.75 C-8.44 89.352 -8.817 89.954 -9.205 90.574 C-10.132 92.052 -11.065 93.527 -12 95 C-15.957 93.51 -18.855 91.875 -22 89 C-22 88.34 -22 87.68 -22 87 C-23.98 86.67 -25.96 86.34 -28 86 C-29.691 80.674 -31.356 75.341 -33 70 C-33.342 68.899 -33.683 67.798 -34.035 66.664 C-34.312 65.723 -34.589 64.782 -34.875 63.812 C-35.12 62.994 -35.365 62.175 -35.617 61.332 C-36.415 56.471 -34.722 53.124 -32.188 49.062 C-31.65 48.2 -31.112 47.338 -30.559 46.449 C-29.787 45.237 -29.787 45.237 -29 44 C-28.599 43.346 -28.198 42.693 -27.785 42.02 C-26.917 40.64 -25.967 39.312 -25 38 C-24.34 38 -23.68 38 -23 38 C-22.536 36.577 -22.536 36.577 -22.062 35.125 C-21 32 -21 32 -20 30 C-19.34 30 -18.68 30 -18 30 C-17.753 29.134 -17.505 28.267 -17.25 27.375 C-15.907 23.749 -14.229 21.158 -12 18 C-11.038 16.565 -10.08 15.127 -9.125 13.688 C-7.51 11.266 -5.896 8.844 -4.281 6.422 C-3.461 5.192 -3.461 5.192 -2.625 3.938 C-1.75 2.625 -0.875 1.312 0 0 Z " fill="#F8A18F" transform="translate(582,434)" />
<path d="M0 0 C4.339 0.501 6.751 3.292 10 6 C12.217 6.853 12.217 6.853 14 7 C14 7.66 14 8.32 14 9 C15.98 9.66 17.96 10.32 20 11 C20 11.66 20 12.32 20 13 C20.549 13.26 21.098 13.521 21.664 13.789 C24.34 15.176 26.838 16.748 29.375 18.375 C30.338 18.992 31.301 19.61 32.293 20.246 C35.214 22.138 38.117 24.052 41 26 C39.531 30.105 37.518 33.487 35.125 37.125 C34.318 38.361 33.512 39.598 32.707 40.836 C32.273 41.501 31.84 42.166 31.393 42.851 C28.835 46.797 26.324 50.774 23.812 54.75 C23.299 55.561 22.786 56.373 22.257 57.209 C19.077 62.249 15.969 67.319 12.988 72.48 C12.662 72.982 12.336 73.483 12 74 C11.67 74 11.34 74 11 74 C11 71.69 11 69.38 11 67 C9.35 66.67 7.7 66.34 6 66 C6 65.34 6 64.68 6 64 C5.42 63.893 4.84 63.786 4.242 63.676 C1.695 62.908 0.203 61.836 -1.875 60.188 C-4.359 58.248 -6.831 56.426 -9.5 54.75 C-10.325 54.173 -11.15 53.595 -12 53 C-12 52.34 -12 51.68 -12 51 C-13.089 50.617 -13.089 50.617 -14.199 50.227 C-17.155 48.932 -19.306 47.395 -21.812 45.375 C-22.603 44.743 -23.393 44.112 -24.207 43.461 C-25.095 42.738 -25.095 42.738 -26 42 C-24.383 37.371 -21.934 33.481 -19.312 29.375 C-18.868 28.674 -18.424 27.974 -17.967 27.252 C-17.07 25.837 -16.172 24.424 -15.272 23.011 C-14.117 21.186 -12.982 19.351 -11.855 17.508 C-11.243 16.515 -10.631 15.523 -10 14.5 C-9.464 13.623 -8.928 12.747 -8.375 11.844 C-7.921 11.235 -7.467 10.627 -7 10 C-6.34 10 -5.68 10 -5 10 C-4.732 9.092 -4.464 8.185 -4.188 7.25 C-3.104 4.285 -2.016 2.383 0 0 Z " fill="#F9A08E" transform="translate(604,494)" />
<path d="M0 0 C2 1 2 1 3.015 3.413 C3.376 4.497 3.737 5.582 4.109 6.699 C4.528 7.95 4.946 9.201 5.377 10.489 C5.836 11.888 6.293 13.288 6.75 14.688 C6.983 15.394 7.216 16.1 7.457 16.828 C12.049 30.739 16.356 44.738 20.625 58.75 C20.936 59.77 21.248 60.791 21.568 61.842 C22.458 64.764 23.343 67.686 24.227 70.609 C24.493 71.485 24.759 72.361 25.033 73.263 C27.55 81.634 27.55 81.634 28 85 C26.102 86.898 22.869 86.734 20.324 87.121 C19.644 87.226 18.963 87.331 18.262 87.439 C16.071 87.776 13.879 88.107 11.688 88.438 C9.542 88.765 7.397 89.093 5.251 89.422 C3.843 89.638 2.434 89.853 1.025 90.066 C-4.123 90.851 -9.252 91.721 -14.376 92.653 C-17.276 93.037 -20.078 93.058 -23 93 C-21.106 82.895 -19.171 73.011 -15.941 63.234 C-14.623 58.704 -13.808 54.117 -13.039 49.466 C-12.404 45.72 -11.404 42.511 -10 39 C-9.496 36.499 -9.041 34.015 -8.625 31.5 C-7.508 25.129 -5.923 19.084 -3.914 12.926 C-3.066 10.212 -2.399 7.53 -1.812 4.75 C-1 1 -1 1 0 0 Z " fill="#F56F53" transform="translate(677,420)" />
<path d="M0 0 C0.66 0 1.32 0 2 0 C2.99 3.63 3.98 7.26 5 11 C6.32 11.33 7.64 11.66 9 12 C9.66 12.66 10.32 13.32 11 14 C11 9.38 11 4.76 11 0 C12.669 3.338 13.759 6.222 14.805 9.77 C15.139 10.9 15.473 12.03 15.818 13.194 C16.341 14.985 16.341 14.985 16.875 16.812 C17.233 18.025 17.591 19.237 17.959 20.486 C20.207 28.143 22.329 35.815 24.211 43.57 C24.602 44.773 24.602 44.773 25 46 C25.99 46.495 25.99 46.495 27 47 C27 47.66 27 48.32 27 49 C27.571 49.278 28.141 49.556 28.729 49.842 C32.687 51.86 36.45 54.202 40.25 56.5 C41.09 56.999 41.931 57.498 42.797 58.012 C43.591 58.493 44.385 58.973 45.203 59.469 C45.932 59.906 46.66 60.344 47.411 60.795 C47.935 61.193 48.46 61.59 49 62 C49 62.66 49 63.32 49 64 C50.98 64.99 50.98 64.99 53 66 C49.99 66.934 49.133 67.044 46 66 C45.505 67.98 45.505 67.98 45 70 C46.98 70.99 46.98 70.99 49 72 C49 72.99 49 73.98 49 75 C46.028 73.875 43.666 72.777 41 71 C41 70.34 41 69.68 41 69 C39.02 68.34 37.04 67.68 35 67 C35 66.34 35 65.68 35 65 C33.948 64.907 33.948 64.907 32.875 64.812 C28.973 63.71 27.057 61.658 24 59 C23.01 58.67 22.02 58.34 21 58 C20.732 58.536 20.464 59.072 20.188 59.625 C18.792 62.417 17.396 65.208 16 68 C15.34 68 14.68 68 14 68 C13.756 68.688 13.513 69.377 13.262 70.086 C11.78 73.508 9.86 76.525 7.812 79.625 C7.22 80.538 7.22 80.538 6.616 81.47 C4.705 84.414 2.772 87.34 0.816 90.254 C0.176 91.222 -0.465 92.19 -1.125 93.188 C-1.705 94.047 -2.285 94.907 -2.883 95.793 C-3.251 96.521 -3.62 97.25 -4 98 C-2.745 101.764 -1.309 102.436 1.938 104.625 C2.833 105.236 3.729 105.847 4.652 106.477 C6.895 107.994 6.895 107.994 9 109 C9 109.66 9 110.32 9 111 C9.804 111.371 9.804 111.371 10.625 111.75 C14.606 113.845 18.201 116.35 21.688 119.188 C23.95 121.17 23.95 121.17 27 122 C27 122.66 27 123.32 27 124 C27.99 124.495 27.99 124.495 29 125 C26.03 124.505 26.03 124.505 23 124 C23.33 124.99 23.66 125.98 24 127 C24.067 128.561 24.085 130.125 24.062 131.688 C24.053 132.496 24.044 133.304 24.035 134.137 C24.024 134.752 24.012 135.366 24 136 C23.67 136 23.34 136 23 136 C22.95 135.261 22.899 134.523 22.848 133.762 C21.677 129.949 19.724 128.983 16.438 126.812 C14.595 125.585 12.774 124.324 11 123 C11 122.34 11 121.68 11 121 C10.276 120.741 9.551 120.482 8.805 120.215 C5.883 118.949 3.671 117.47 1.125 115.562 C0.17 114.854 -0.785 114.145 -1.77 113.414 C-2.286 113.028 -2.802 112.641 -3.334 112.243 C-6.397 109.957 -9.481 107.699 -12.562 105.438 C-13.198 104.971 -13.833 104.504 -14.488 104.022 C-19.605 100.27 -24.776 96.602 -30 93 C-27.924 92.447 -26.156 92 -24 92 C-24 91.01 -24 90.02 -24 89 C-24 88.34 -24 87.68 -24 87 C-24.66 87 -25.32 87 -26 87 C-25.67 86.01 -25.34 85.02 -25 84 C-23.952 84.866 -23.952 84.866 -22.883 85.75 C-21.973 86.493 -21.063 87.235 -20.125 88 C-19.22 88.743 -18.315 89.485 -17.383 90.25 C-15.224 92.197 -15.224 92.197 -13 92 C-11.242 89.429 -11.242 89.429 -9.5 86.25 C-8.892 85.183 -8.283 84.115 -7.656 83.016 C-6.383 80.697 -5.155 78.379 -4 76 C-3.34 76 -2.68 76 -2 76 C-1.644 75.004 -1.644 75.004 -1.281 73.988 C0.348 70.189 2.379 66.729 4.5 63.188 C4.903 62.495 5.307 61.802 5.723 61.088 C6.757 59.356 7.872 57.673 9 56 C9.66 56 10.32 56 11 56 C14.289 48.454 12.439 42.167 9.898 34.736 C8.05 29.106 6.49 23.388 4.875 17.688 C4.515 16.426 4.156 15.165 3.785 13.865 C0.922 3.801 0.922 3.801 0 0 Z " fill="#FCF7F3" transform="translate(583,436)" />
<path d="M0 0 C5.308 2.93 9.316 6.019 12.188 11.5 C13.736 19.863 13.382 27.142 9.812 34.875 C9.153 34.875 8.493 34.875 7.812 34.875 C7.606 35.452 7.4 36.03 7.188 36.625 C4.539 40.96 -0.375 43.532 -5.188 44.875 C-12.592 46.002 -19.006 44.022 -25.188 39.875 C-31.665 32.751 -32.49 26.366 -32.406 17.008 C-32.145 13.271 -31.336 10.944 -29.188 7.875 C-28.631 7.009 -28.074 6.143 -27.5 5.25 C-20.19 -2.258 -9.449 -4.453 0 0 Z " fill="#F27155" transform="translate(185.1875,567.125)" />
<path d="M0 0 C1.991 2.987 2.688 5.054 3.586 8.488 C3.875 9.579 4.163 10.671 4.461 11.795 C4.763 12.956 5.064 14.117 5.375 15.312 C6.007 17.705 6.64 20.097 7.273 22.488 C7.575 23.63 7.876 24.772 8.187 25.948 C9.083 29.312 10.026 32.657 11 36 C12.578 41.437 14.054 46.898 15.515 52.367 C16.43 55.785 17.355 59.199 18.281 62.613 C19.318 66.436 20.323 70.263 21.281 74.105 C23.58 83.037 26.735 89.128 33 96 C34.811 98.261 36.562 100.567 38.312 102.875 C39.142 103.956 39.971 105.037 40.801 106.117 C41.527 107.069 42.252 108.02 43 109 C43.891 110.069 43.891 110.069 44.801 111.16 C46 113 46 113 45.875 116.562 C44.999 120.005 44.512 120.766 42 123 C40.057 120.65 38.121 118.295 36.188 115.938 C35.303 114.869 35.303 114.869 34.401 113.78 C31.425 110.144 28.604 106.502 26.039 102.562 C25.577 101.869 25.116 101.176 24.64 100.461 C23.773 99.139 22.935 97.797 22.132 96.435 C20.834 94.318 20.834 94.318 18 92 C11.296 91.178 4.278 93.86 -2.062 95.812 C-9.429 98.004 -16.792 99.968 -24.288 101.662 C-28.974 102.73 -33.551 103.989 -38.117 105.484 C-40 106 -40 106 -43 106 C-43 105.34 -43 104.68 -43 104 C-41.44 103.491 -39.877 102.993 -38.312 102.5 C-37.442 102.222 -36.572 101.943 -35.676 101.656 C-33.006 101.001 -30.736 100.882 -28 101 C-27.34 99.02 -26.68 97.04 -26 95 C-28.64 95 -31.28 95 -34 95 C-34.33 92.36 -34.66 89.72 -35 87 C-33.539 89.647 -33 90.894 -33 94 C-28.201 92.814 -23.412 91.591 -18.629 90.344 C-16.901 89.893 -16.901 89.893 -15.139 89.434 C-12.758 88.812 -10.378 88.19 -7.998 87.566 C-1.687 85.922 4.622 84.364 11 83 C9.467 74.339 7.155 65.906 4.812 57.438 C4.41 55.972 4.009 54.507 3.607 53.042 C1.447 45.172 -0.755 37.316 -2.981 29.465 C-5.656 20.029 -8.189 10.644 -10 1 C-8.078 1.711 -8.078 1.711 -6 3 C-5.172 5.164 -5.172 5.164 -4.75 7.625 C-4.6 8.442 -4.451 9.26 -4.297 10.102 C-4.15 11.041 -4.15 11.041 -4 12 C-3.34 11.67 -2.68 11.34 -2 11 C-1.309 8.42 -1.309 8.42 -0.875 5.438 C-0.707 4.426 -0.54 3.414 -0.367 2.371 C-0.185 1.197 -0.185 1.197 0 0 Z " fill="#FCF6F2" transform="translate(411,437)" />
<path d="M0 0 C17.366 1.721 34.68 3.87 52 6 C52 6.99 52 7.98 52 9 C51.381 9.227 50.763 9.454 50.125 9.688 C47.271 11.45 47.081 12.825 46 16 C45.303 17.609 44.594 19.213 43.875 20.812 C43.345 21.998 43.345 21.998 42.805 23.207 C42.539 23.799 42.274 24.39 42 25 C41.34 25 40.68 25 40 25 C39.34 26.98 38.68 28.96 38 31 C37.34 31 36.68 31 36 31 C35.818 31.94 35.818 31.94 35.633 32.898 C35.381 34.124 35.381 34.124 35.125 35.375 C34.963 36.187 34.8 36.999 34.633 37.836 C34 40 34 40 32 42 C31.01 42 30.02 42 29 42 C27.281 39.699 27.281 39.699 25.5 36.688 C23.545 33.407 21.78 30.615 19 28 C16 23.444 16 23.444 16 21 C15.34 21 14.68 21 14 21 C12.309 18.699 12.309 18.699 10.438 15.688 C9.817 14.701 9.197 13.715 8.559 12.699 C7 10 7 10 6 7 C5.34 7 4.68 7 4 7 C3.567 5.546 3.567 5.546 3.125 4.062 C2.358 0.893 2.358 0.893 0 0 Z " fill="#F9A18C" transform="translate(757,507)" />
<path d="M0 0 C3.708 1.664 5.608 4.424 7.875 7.75 C9.552 12.593 9.968 17.062 8.344 21.992 C6.434 25.828 3.974 28.395 0.059 30.34 C-5.367 32.08 -10.272 31.832 -15.375 29.375 C-19.895 25.286 -22.66 21.401 -23.164 15.156 C-22.848 10.999 -21.26 7.467 -19 4 C-16.375 2 -16.375 2 -14 1 C-9.792 -1.104 -4.571 -0.526 0 0 Z " fill="#F27156" transform="translate(458,649)" />
<path d="M0 0 C4.005 2.002 6.659 4.18 9 8 C9.97 10.911 10.165 12.902 10.188 15.938 C10.202 16.792 10.216 17.647 10.23 18.527 C9.987 21.139 9.318 22.755 8 25 C7.34 25 6.68 25 6 25 C5.67 25.99 5.34 26.98 5 28 C1.281 31.138 -2.04 31.476 -6.727 31.273 C-11.132 30.744 -14.473 29.647 -17.543 26.336 C-20.523 22.145 -21.8 18.393 -21.488 13.242 C-20.388 8.188 -17.584 4.491 -13.875 1 C-9.262 -0.605 -4.822 -0.644 0 0 Z " fill="#F27256" transform="translate(264,613)" />
<path d="M0 0 C3.366 2.084 6.214 4.429 8 8 C8.512 13.61 8.763 18.448 6.25 23.562 C2.005 28.161 -1.448 30.115 -7.75 30.438 C-12.672 30.387 -15.155 29.171 -18.594 25.707 C-21.588 22.072 -22.873 19.183 -23.375 14.5 C-22.96 10.624 -22.123 8.261 -20 5 C-17.812 3.625 -17.812 3.625 -16 3 C-16 2.34 -16 1.68 -16 1 C-10.603 -1.415 -5.648 -1.559 0 0 Z " fill="#F47457" transform="translate(776,616)" />
<path d="M0 0 C3.572 2.001 7.137 4.274 9 8 C9.631 13.433 9.945 18.417 6.75 23.062 C4.331 26.117 1.759 27.72 -2.113 28.336 C-7.95 28.44 -11.313 27.562 -16 24 C-18.743 20.107 -19.543 16.633 -19.355 11.957 C-18.589 7.739 -16.068 4.938 -12.938 2.188 C-8.905 -0.284 -4.606 -0.89 0 0 Z " fill="#F37658" transform="translate(864,592)" />
<path d="M0 0 C1.283 3.848 0.487 5.282 -1 9 C-1.956 10.692 -2.944 12.368 -4 14 C-1.612 16.388 -0.878 16.304 2.395 16.527 C3.268 16.598 4.141 16.668 5.041 16.74 C6.877 16.871 8.713 16.999 10.549 17.123 C15.468 17.524 18.936 17.948 23 21 C24.326 21.681 25.657 22.353 27 23 C20.425 22.329 14.04 21.012 7.586 19.621 C4.212 19.037 1.398 18.552 -2 19 C-3.785 20.785 -3.785 20.785 -4.938 23.312 C-5.436 24.233 -5.935 25.153 -6.449 26.102 C-6.961 27.058 -7.473 28.015 -8 29 C-9.065 30.741 -10.149 32.47 -11.25 34.188 C-12.116 35.541 -12.116 35.541 -13 36.922 C-15.395 40.608 -17.816 44.277 -20.25 47.938 C-20.674 48.576 -21.099 49.215 -21.536 49.874 C-23.229 52.409 -24.928 54.907 -26.797 57.316 C-28.194 58.926 -28.194 58.926 -28 61 C-27.01 61.66 -26.02 62.32 -25 63 C-25.804 63.124 -26.609 63.247 -27.438 63.375 C-28.283 63.581 -29.129 63.788 -30 64 C-30.33 64.66 -30.66 65.32 -31 66 C-32.114 65.67 -33.227 65.34 -34.375 65 C-37.695 63.911 -37.695 63.911 -40 64 C-40 64.66 -40 65.32 -40 66 C-42.405 67.203 -43.95 67.101 -46.625 67.062 C-47.442 67.053 -48.26 67.044 -49.102 67.035 C-49.728 67.024 -50.355 67.012 -51 67 C-51 66.67 -51 66.34 -51 66 C-46.05 65.505 -46.05 65.505 -41 65 C-40.751 64.304 -40.502 63.608 -40.246 62.891 C-38.819 59.58 -37.039 56.766 -35.062 53.75 C-34.671 53.149 -34.279 52.547 -33.875 51.928 C-33.029 50.63 -32.182 49.333 -31.333 48.037 C-29.041 44.534 -26.772 41.016 -24.5 37.5 C-23.566 36.059 -22.633 34.617 -21.699 33.176 C-19.602 29.934 -17.514 26.686 -15.432 23.435 C-11.034 16.569 -6.546 9.769 -2 3 C-1.34 2.01 -0.68 1.02 0 0 Z " fill="#FCF1EA" transform="translate(687,542)" />
<path d="M0 0 C4.328 2.205 7.52 4.802 10 9 C10.62 14.578 10.242 18.245 7 23 C3.439 26.301 0.683 27.275 -4.062 27.438 C-8.142 27.248 -10.887 26.83 -14 24 C-17.073 19.656 -17.574 15.599 -17.426 10.406 C-16.719 6.415 -14.942 4.737 -12 2 C-7.954 -0.698 -4.752 -0.659 0 0 Z " fill="#F27458" transform="translate(540,642)" />
<path d="M0 0 C3.57 2.01 7.136 4.271 9 8 C9.414 12.499 9.532 16.639 7.875 20.875 C5.053 24.073 2.345 26.537 -1.957 27.387 C-7.044 27.669 -10.074 26.379 -14 23 C-17.365 19.186 -17.568 15.352 -17.422 10.441 C-16.614 5.763 -13.908 3.448 -10.188 0.625 C-6.68 -0.377 -3.556 -0.756 0 0 Z " fill="#F27257" transform="translate(560,392)" />
<path d="M0 0 C0 0.66 0 1.32 0 2 C-0.66 2 -1.32 2 -2 2 C-2.248 2.887 -2.495 3.774 -2.75 4.688 C-4 8 -4 8 -5.812 10.25 C-8.918 14.154 -10.857 18.516 -13 23 C-13.664 24.335 -14.33 25.669 -15 27 C-15.66 27 -16.32 27 -17 27 C-17.103 27.784 -17.206 28.567 -17.312 29.375 C-18 32 -18 32 -21 34 C-25 28.25 -25 28.25 -25 26 C-25.66 26 -26.32 26 -27 26 C-28.145 24.563 -28.145 24.563 -29.383 22.57 C-30.05 21.501 -30.05 21.501 -30.73 20.41 C-31.191 19.656 -31.651 18.902 -32.125 18.125 C-32.593 17.379 -33.061 16.632 -33.543 15.863 C-37 10.27 -37 10.27 -37 8 C-32.514 6.382 -28.062 5.369 -23.375 4.562 C-17.291 3.477 -11.328 2.157 -5.355 0.551 C-3 0 -3 0 0 0 Z " fill="#F46E53" transform="translate(487,598)" />
<path d="M0 0 C4.332 2.757 5.433 4.481 6.688 9.5 C7.119 14.315 5.658 17.94 2.75 21.75 C-1.53 24.794 -5.063 25.316 -10.25 24.75 C-13.435 23.23 -15.986 21.467 -18.25 18.75 C-19.697 14.408 -19.772 10.287 -19.25 5.75 C-17.458 2.564 -16.086 1.224 -12.938 -0.562 C-8.214 -1.771 -4.569 -1.757 0 0 Z " fill="#F17458" transform="translate(670.25,624.25)" />
</svg>