<?xml version='1.0' encoding='utf-8'?>
<svg xmlns="http://www.w3.org/2000/svg" version="1.1" width="185" height="148" viewBox="7.848056301 43.379412269 185.25958639600003 148.768790856">
<path d="M0 0 C0.33 0.33 0.66 0.66 1 1 C4.27876092 1.204213483 7.55018796 1.346023897 10.833984375 1.4296875 C15.507994299 1.636845835 19.105243278 2.162141279 23 5 C24.2578125 8.16015625 24.2578125 8.16015625 25 12 C25.306045527 13.37456085 25.616058067 14.74824344 25.9296875 16.12109375 C26.083408203 16.825163574 26.237128906 17.529233398 26.395507812 18.254638672 C28.081888211 26.22358927 28.081888211 26.22358927 31.25 33.6875 C33.107642697 37.203752248 33.636175447 39.092065111 33 43 C31.454935337 45.036676147 30.278538437 45.860730781 28 47 C26.523316626 47.095269895 25.042245425 47.129859591 23.5625 47.125 C22.388808594 47.128867187 22.388808594 47.128867187 21.19140625 47.1328125 C19 47 19 47 16 46 C14.438815721 45.932591352 12.8749748 45.914855438 11.3125 45.9375 C10.504257812 45.946523437 9.696015625 45.955546875 8.86328125 45.96484375 C8.248398437 45.976445313 7.633515625 45.988046875 7 46 C0.761488035 55.565718347 0.694866744 65.387340633 0.8125 76.5625 C0.813144531 77.729746094 0.813789063 78.896992188 0.814453125 80.099609375 C0.275386806 91.830271688 0.275386806 91.830271688 4.5625 102.0625 C5.7690625 103.0215625 5.7690625 103.0215625 7 104 C6.67 104.99 6.34 105.98 6 107 C2.850691067 108.049769644 0.611855437 108.101315946 -2.6875 108.0625 C-3.681367188 108.053476563 -4.675234375 108.044453125 -5.69921875 108.03515625 C-6.458476562 108.023554687 -7.217734375 108.011953125 -8 108 C-9.741662123 104.11933493 -10.486541151 100.554392873 -11.03515625 96.34375 C-11.204667969 95.074023437 -11.374179688 93.804296875 -11.548828125 92.49609375 C-11.720355238 91.164101504 -11.891576421 89.832069827 -12.0625 88.5 C-12.405028936 85.885076218 -12.751278862 83.270669368 -13.09765625 80.65625 C-13.247268066 79.499316406 -13.396879883 78.342382813 -13.551025391 77.150390625 C-13.942246957 74.405244846 -14.422875011 71.711248709 -15 69 C-19.701996374 82.57732806 -23.269101487 95.724208457 -25 110 C-25.33 110 -25.66 110 -26 110 C-26 103.4 -26 96.8 -26 90 C-26.66 90.66 -27.32 91.32 -28 92 C-28.33 90.68 -28.66 89.36 -29 88 C-32.11785113 88.646446609 -32.11785113 88.646446609 -33 91 C-33.153442085 92.884728588 -33.249595713 94.774278736 -33.31640625 96.6640625 C-33.358300781 97.785546875 -33.400195313 98.90703125 -33.443359375 100.0625 C-33.482675781 101.238125 -33.521992188 102.41375 -33.5625 103.625 C-33.605683594 104.808359375 -33.648867188 105.99171875 -33.693359375 107.2109375 C-33.799674262 110.140503277 -33.901706416 113.070155885 -34 116 C-32.02 116.495 -32.02 116.495 -30 117 C-29.67 116.34 -29.34 115.68 -29 115 C-27.515 115.99 -27.515 115.99 -26 117 C-26.33 116.01 -26.66 115.02 -27 114 C-26.01 114 -25.02 114 -24 114 C-23.67 113.34 -23.34 112.68 -23 112 C-21.4375 113.25 -21.4375 113.25 -20 115 C-20.41015625 117.109375 -20.41015625 117.109375 -21 119 C-22.937193781 119.054061222 -24.874819215 119.092820248 -26.8125 119.125 C-27.891445312 119.148203125 -28.970390625 119.17140625 -30.08203125 119.1953125 C-33 119 -33 119 -36 117 C-36.36076355 114.899261475 -36.36076355 114.899261475 -36.340576172 112.274902344 C-36.340349579 111.29403656 -36.340122986 110.313170776 -36.339889526 109.302581787 C-36.32440567 108.241089172 -36.308921814 107.179596558 -36.29296875 106.0859375 C-36.288723907 105.001161194 -36.284479065 103.916384888 -36.280105591 102.798736572 C-36.263273 99.323908331 -36.22561189 95.849653817 -36.1875 92.375 C-36.17245911 90.023445858 -36.158769675 87.671882653 -36.146484375 85.3203125 C-36.113354537 79.546678265 -36.063109823 73.773380109 -36 68 C-37.256835938 68.018046875 -38.513671875 68.03609375 -39.80859375 68.0546875 C-42.571930825 68.094366186 -44.349068466 67.900266153 -47.0625 67.125 C-50.495828494 66.978900915 -51.132981321 67.485072801 -53.75 69.5625 C-58.481836546 74.148098772 -59.10603226 78.381725855 -59.375 84.8125 C-59.233523452 91.528474933 -57.934403734 96.965059949 -53.17578125 101.88671875 C-51.498974058 103.345847118 -49.806257636 104.706191862 -48 106 C-48.495 107.485 -48.495 107.485 -49 109 C-52.5625 110.1875 -52.5625 110.1875 -56 111 C-56 112.32 -56 113.64 -56 115 C-59.864119276 117.052813365 -62.863122417 117.28964462 -67.0859375 116.59375 C-70.365003839 115.576570238 -71.872212635 113.631737004 -74 111 C-74.482109375 110.419921875 -74.96421875 109.83984375 -75.4609375 109.2421875 C-77.074289128 107.219355763 -78.541277845 105.136666133 -80 103 C-80.504023437 102.328398437 -81.008046875 101.656796875 -81.52734375 100.96484375 C-85.870524438 94.143282947 -84.899228609 88.115396722 -84.195800781 80.417480469 C-83.654290569 72.947452577 -85.203102575 67.902005439 -90 62 C-90.99 61.01 -90.99 61.01 -92 60 C-93 58 -93 58 -93 54 C-93.328710938 54.568476562 -93.657421875 55.136953125 -93.99609375 55.72265625 C-98.638994104 63.259505334 -104.442524875 69.15196531 -113 72 C-117.583094522 72.685471528 -121.559550599 72.673641169 -125.5 70.0625 C-128 68 -128 68 -129 67 C-128.729653662 69.437172582 -128.729653662 69.437172582 -128 72 C-123.483756151 75.010829233 -119.293780318 74.548830243 -114 74 C-106.562874956 72.178885803 -101.365754376 68.335778094 -96 63 C-96 63.99 -96 64.98 -96 66 C-102.925391983 72.771494384 -110.341878165 76.550942711 -119.9375 77.3125 C-124.231582543 77.26379585 -126.688784996 75.759345837 -130 73 C-132.151943699 69.772084452 -132.200864427 68.715991908 -132 65 C-130.515 64.505 -130.515 64.505 -129 64 C-126.942728685 65.595434898 -124.941253439 67.265262884 -123 69 C-119.871435237 70.564282382 -117.472878689 70.280070862 -114 70 C-106.578364738 67.453360449 -100.211118301 62.684051474 -96.375 55.8125 C-93.740247667 50.12970085 -92.375759663 44.122600464 -90.885498047 38.064453125 C-89.281991092 31.673305311 -87.084546581 25.840949908 -84 20 C-84.66 19.67 -85.32 19.34 -86 19 C-85.154375 18.505 -84.30875 18.01 -83.4375 17.5 C-80.713720647 15.721716468 -79.062052633 13.846366063 -77.125 11.25 C-59.911180276 -8.882684808 -21.935004727 -12.416040412 0 0 Z " fill="#EBE6D8" transform="translate(150,63)" />
<path d="M0 0 C0.495 0.495 0.495 0.495 1 1 C4.27876092 1.204213483 7.55018796 1.346023897 10.833984375 1.4296875 C15.507994299 1.636845835 19.105243278 2.162141279 23 5 C24.2578125 8.16015625 24.2578125 8.16015625 25 12 C25.306045527 13.37456085 25.616058067 14.74824344 25.9296875 16.12109375 C26.083408203 16.825163574 26.237128906 17.529233398 26.395507812 18.254638672 C28.081888211 26.22358927 28.081888211 26.22358927 31.25 33.6875 C33.107642697 37.203752248 33.636175447 39.092065111 33 43 C31.454935337 45.036676147 30.278538437 45.860730781 28 47 C26.523316626 47.095269895 25.042245425 47.129859591 23.5625 47.125 C22.388808594 47.128867187 22.388808594 47.128867187 21.19140625 47.1328125 C19 47 19 47 16 46 C14.438815721 45.932591352 12.8749748 45.914855438 11.3125 45.9375 C10.504257812 45.946523437 9.696015625 45.955546875 8.86328125 45.96484375 C8.248398437 45.976445313 7.633515625 45.988046875 7 46 C0.761488035 55.565718347 0.694866744 65.387340633 0.8125 76.5625 C0.813144531 77.729746094 0.813789063 78.896992188 0.814453125 80.099609375 C0.275386806 91.830271688 0.275386806 91.830271688 4.5625 102.0625 C5.366875 102.701875 6.17125 103.34125 7 104 C6.505 105.485 6.505 105.485 6 107 C2.850691067 108.049769644 0.611855437 108.101315946 -2.6875 108.0625 C-3.681367188 108.053476563 -4.675234375 108.044453125 -5.69921875 108.03515625 C-6.458476562 108.023554687 -7.217734375 108.011953125 -8 108 C-8 107.34 -8 106.68 -8 106 C-6.88625 106.020625 -5.7725 106.04125 -4.625 106.0625 C-1.167840791 106.263807176 -1.167840791 106.263807176 1 105 C-0.65 104.34 -2.3 103.68 -4 103 C-2 102 -2 102 1 102 C0.67402832 101.035056152 0.348056641 100.070112305 0.012207031 99.075927734 C-1.253426487 94.62444448 -1.253435952 90.385159657 -1.1953125 85.78515625 C-1.192482605 84.929415131 -1.18965271 84.073674011 -1.186737061 83.192001343 C-1.175619348 80.482020088 -1.150530821 77.772379906 -1.125 75.0625 C-1.114959314 73.215499594 -1.105835373 71.368493963 -1.09765625 69.521484375 C-1.07570763 65.014193232 -1.041236544 60.507154273 -1 56 C-1.99 56.495 -1.99 56.495 -3 57 C-0.526008282 51.612474888 3.434553364 44.491734709 9.08203125 42.12890625 C11 41.875 11 41.875 14 42 C13.67 41.34 13.34 40.68 13 40 C11.72125 39.896875 10.4425 39.79375 9.125 39.6875 C5.254355388 39.278970426 5.254355388 39.278970426 3.0625 36.875 C0.321680303 29.45866435 0.894357692 21.805792771 1 14 C0.34 14 -0.32 14 -1 14 C-1.181757812 15.065410156 -1.181757812 15.065410156 -1.3671875 16.15234375 C-1.534765625 17.071445313 -1.70234375 17.990546875 -1.875 18.9375 C-2.037421875 19.854023438 -2.19984375 20.770546875 -2.3671875 21.71484375 C-2.576015625 22.468945312 -2.78484375 23.223046875 -3 24 C-3.99 24.495 -3.99 24.495 -5 25 C-4.525625 25.721875 -4.05125 26.44375 -3.5625 27.1875 C-1.509067828 30.883677909 -1 33.805711873 -1 38 C-1.33 38 -1.66 38 -2 38 C-2 38.66 -2 39.32 -2 40 C-1.34 40 -0.68 40 0 40 C0 40.66 0 41.32 0 42 C-5.933333069 41.590804616 -9.380484943 40.811099922 -14 37 C-14 36.34 -14 35.68 -14 35 C-14.5775 34.7525 -15.155 34.505 -15.75 34.25 C-18.498921549 32.722821361 -20.120218471 31.551132075 -22 29 C-22.437459591 22.902078426 -21.435577598 17.922917029 -19.625 12.125 C-19.292421875 10.988046875 -19.292421875 10.988046875 -18.953125 9.828125 C-17.272640306 4.272640306 -17.272640306 4.272640306 -15 2 C-12.1796875 1.5859375 -12.1796875 1.5859375 -8.875 1.375 C-7.779296875 1.300234375 -6.68359375 1.22546875 -5.5546875 1.1484375 C-4.711640625 1.099453125 -3.86859375 1.05046875 -3 1 C-17.189285671 -6.060369199 -29.640751207 -6.147295088 -44.75 -1.9375 C-45.894365234 -1.623129883 -47.038730469 -1.308759766 -48.217773438 -0.984863281 C-59.536517733 2.244241702 -69.046967963 6.238939684 -78 14 C-74.395877116 5.868959483 -65.957079442 2.726304273 -58.132324219 -0.446533203 C-52.214790106 -2.711213552 -46.207017587 -4.464829742 -40.0625 -6 C-39.211477051 -6.219865723 -38.360454102 -6.439731445 -37.483642578 -6.666259766 C-24.775460596 -9.620587731 -11.217079058 -6.349290033 0 0 Z " fill="#E4DFD2" transform="translate(150,63)" />
<path d="M0 0 C2.798724365 2.527880072 4.457730191 4.204111335 5 8 C4.01 7.67 3.02 7.34 2 7 C0.128198237 18.517618914 -0.197199942 29.982350153 4 41 C6.97 41.66 9.94 42.32 13 43 C12.892491658 30.93931014 12.892491658 30.93931014 8.7421875 19.796875 C7.794873001 17.50337674 8.196786253 16.297801351 9 14 C9.816747958 15.74802146 10.628234513 17.498501892 11.4375 19.25 C11.889960938 20.22453125 12.342421875 21.1990625 12.80859375 22.203125 C14.910028652 27.136329557 15.07224701 30.920381313 14.87890625 36.31640625 C14.855249939 37.037611542 14.831593628 37.758816833 14.807220459 38.501876831 C14.756317486 40.051333115 14.703142562 41.600716112 14.647918701 43.150024414 C14.504157115 47.210274841 14.379277335 51.271059465 14.2578125 55.33203125 C14.233415985 56.147272644 14.20901947 56.962514038 14.183883667 57.802459717 C13.8599656 69.20042874 13.905133561 80.59851355 14 92 C15.98 92.495 15.98 92.495 18 93 C18.33 92.34 18.66 91.68 19 91 C20.485 91.99 20.485 91.99 22 93 C21.67 92.01 21.34 91.02 21 90 C21.99 90 22.98 90 24 90 C24.33 89.34 24.66 88.68 25 88 C26.5625 89.25 26.5625 89.25 28 91 C27.58984375 93.109375 27.58984375 93.109375 27 95 C25.062806219 95.054061222 23.125180785 95.092820248 21.1875 95.125 C20.108554688 95.148203125 19.029609375 95.17140625 17.91796875 95.1953125 C15 95 15 95 12 93 C11.63923645 90.899261475 11.63923645 90.899261475 11.659423828 88.274902344 C11.659650421 87.29403656 11.659877014 86.313170776 11.660110474 85.302581787 C11.67559433 84.241089172 11.691078186 83.179596558 11.70703125 82.0859375 C11.711276093 81.001161194 11.715520935 79.916384888 11.719894409 78.798736572 C11.736727 75.323908331 11.77438811 71.849653817 11.8125 68.375 C11.82754089 66.023445858 11.841230325 63.671882653 11.853515625 61.3203125 C11.886645463 55.546678265 11.936890177 49.773380109 12 44 C10.743164062 44.018046875 9.486328125 44.03609375 8.19140625 44.0546875 C5.428069175 44.094366186 3.650931534 43.900266153 0.9375 43.125 C-2.495828494 42.978900915 -3.132981321 43.485072801 -5.75 45.5625 C-10.481836546 50.148098772 -11.10603226 54.381725855 -11.375 60.8125 C-11.233523452 67.528474933 -9.934403734 72.965059949 -5.17578125 77.88671875 C-3.498974058 79.345847118 -1.806257636 80.706191862 0 82 C-0.495 83.485 -0.495 83.485 -1 85 C-4.5625 86.1875 -4.5625 86.1875 -8 87 C-8 88.32 -8 89.64 -8 91 C-11.864119276 93.052813365 -14.863122417 93.28964462 -19.0859375 92.59375 C-22.365003839 91.576570238 -23.872212635 89.631737004 -26 87 C-26.482109375 86.419921875 -26.96421875 85.83984375 -27.4609375 85.2421875 C-29.074289128 83.219355763 -30.541277845 81.136666133 -32 79 C-32.504023437 78.328398437 -33.008046875 77.656796875 -33.52734375 76.96484375 C-37.870524438 70.143282947 -36.899228609 64.115396722 -36.195800781 56.417480469 C-35.654290569 48.947452577 -37.203102575 43.902005439 -42 38 C-42.66 37.34 -43.32 36.68 -44 36 C-45 34 -45 34 -45 30 C-45.493066406 30.852714844 -45.493066406 30.852714844 -45.99609375 31.72265625 C-50.638994104 39.259505334 -56.442524875 45.15196531 -65 48 C-69.583094522 48.685471528 -73.559550599 48.673641169 -77.5 46.0625 C-80 44 -80 44 -81 43 C-80.729653662 45.437172582 -80.729653662 45.437172582 -80 48 C-75.483756151 51.010829233 -71.293780318 50.548830243 -66 50 C-58.562874956 48.178885803 -53.365754376 44.335778094 -48 39 C-48 39.99 -48 40.98 -48 42 C-54.925391983 48.771494384 -62.341878165 52.550942711 -71.9375 53.3125 C-76.231582543 53.26379585 -78.688784996 51.759345837 -82 49 C-84.151943699 45.772084452 -84.200864427 44.715991908 -84 41 C-82.515 40.505 -82.515 40.505 -81 40 C-78.942728685 41.595434898 -76.941253439 43.265262884 -75 45 C-71.871435237 46.564282382 -69.472878689 46.280070862 -66 46 C-58.578364738 43.453360449 -52.211118301 38.684051474 -48.375 31.8125 C-45.703010598 26.055417572 -44.250547824 19.93057054 -42.786621094 13.776611328 C-41.672798955 9.160248408 -40.336031321 5.185952079 -38 1 C-36.684571343 4.94628597 -38.022270278 7.23798296 -39.4375 10.9375 C-42.42997621 19.373530038 -43.860450793 27.282630198 -40.25 35.8125 C-38.930099528 38.456998098 -37.518650449 40.687642215 -35.8125 43.125 C-32.534251027 48.511613018 -33.15817394 55.854942436 -33 62 C-32.34 61.01 -31.68 60.02 -31 59 C-30.01 58.67 -29.02 58.34 -28 58 C-27.01 58.495 -27.01 58.495 -26 59 C-26 59.99 -26 60.98 -26 62 C-25.01 61.34 -24.02 60.68 -23 60 C-22.01 60 -21.02 60 -20 60 C-19.731875 59.154375 -19.46375 58.30875 -19.1875 57.4375 C-18 54 -18 54 -16.375 51 C-13.533226043 44.364311328 -13.984783375 36.384055416 -16.01953125 29.6015625 C-17.649671116 25.612398477 -19.412716954 21.921358277 -21.73046875 18.28515625 C-22.149414062 17.531054688 -22.568359375 16.776953125 -23 16 C-22.67 15.34 -22.34 14.68 -22 14 C-13.843790567 27.118563392 -13.843790567 27.118563392 -12.3359375 34.0546875 C-11.253657347 37.278272953 -11.253657347 37.278272953 -7.9609375 38.4609375 C-6.777578125 38.762578125 -5.59421875 39.06421875 -4.375 39.375 C-3.186484375 39.692109375 -1.99796875 40.00921875 -0.7734375 40.3359375 C0.599414062 40.664648438 0.599414062 40.664648438 2 41 C1.525625 39.80375 1.05125 38.6075 0.5625 37.375 C-3.307754682 26.932614726 -2.429993738 17.475088011 0.44140625 6.8828125 C0.982953854 4.08797242 0.960946116 2.634646968 0 0 Z M-26 57 C-24.515 57.99 -24.515 57.99 -23 59 C-23.99 59 -24.98 59 -26 59 C-26 58.34 -26 57.68 -26 57 Z " fill="#9B988B" transform="translate(102,87)" />
<path d="M0 0 C0.495 0.495 0.495 0.495 1 1 C4.27876092 1.204213483 7.55018796 1.346023897 10.833984375 1.4296875 C15.507994299 1.636845835 19.105243278 2.162141279 23 5 C24.2578125 8.16015625 24.2578125 8.16015625 25 12 C25.306045527 13.37456085 25.616058067 14.74824344 25.9296875 16.12109375 C26.083408203 16.825163574 26.237128906 17.529233398 26.395507812 18.254638672 C28.081888211 26.22358927 28.081888211 26.22358927 31.25 33.6875 C33.107642697 37.203752248 33.636175447 39.092065111 33 43 C31.454935337 45.036676147 30.278538437 45.860730781 28 47 C26.523316626 47.095269895 25.042245425 47.129859591 23.5625 47.125 C22.388808594 47.128867187 22.388808594 47.128867187 21.19140625 47.1328125 C19 47 19 47 16 46 C14.438815721 45.932591352 12.8749748 45.914855438 11.3125 45.9375 C10.504257812 45.946523437 9.696015625 45.955546875 8.86328125 45.96484375 C8.248398437 45.976445313 7.633515625 45.988046875 7 46 C0.761488035 55.565718347 0.694866744 65.387340633 0.8125 76.5625 C0.813144531 77.729746094 0.813789063 78.896992188 0.814453125 80.099609375 C0.275386806 91.830271688 0.275386806 91.830271688 4.5625 102.0625 C5.366875 102.701875 6.17125 103.34125 7 104 C6.505 105.485 6.505 105.485 6 107 C2.850691067 108.049769644 0.611855437 108.101315946 -2.6875 108.0625 C-3.681367188 108.053476563 -4.675234375 108.044453125 -5.69921875 108.03515625 C-6.458476562 108.023554687 -7.217734375 108.011953125 -8 108 C-8 107.34 -8 106.68 -8 106 C-6.88625 106.020625 -5.7725 106.04125 -4.625 106.0625 C-1.167840791 106.263807176 -1.167840791 106.263807176 1 105 C-0.65 104.34 -2.3 103.68 -4 103 C-2 102 -2 102 1 102 C0.67402832 101.035056152 0.348056641 100.070112305 0.012207031 99.075927734 C-1.253426487 94.62444448 -1.253435952 90.385159657 -1.1953125 85.78515625 C-1.192482605 84.929415131 -1.18965271 84.073674011 -1.186737061 83.192001343 C-1.175619348 80.482020088 -1.150530821 77.772379906 -1.125 75.0625 C-1.114959314 73.215499594 -1.105835373 71.368493963 -1.09765625 69.521484375 C-1.07570763 65.014193232 -1.041236544 60.507154273 -1 56 C-1.99 56.495 -1.99 56.495 -3 57 C-0.526008282 51.612474888 3.434553364 44.491734709 9.08203125 42.12890625 C11 41.875 11 41.875 14 42 C13.67 41.34 13.34 40.68 13 40 C11.72125 39.896875 10.4425 39.79375 9.125 39.6875 C5.254355388 39.278970426 5.254355388 39.278970426 3.0625 36.875 C0.321680303 29.45866435 0.894357692 21.805792771 1 14 C0.34 13.67 -0.32 13.34 -1 13 C0.32 12.67 1.64 12.34 3 12 C2.976796875 12.810820312 2.95359375 13.621640625 2.9296875 14.45703125 C2.808459712 21.89522198 3.370810748 28.741380029 5 36 C5.614882813 36.132773437 6.229765625 36.265546875 6.86328125 36.40234375 C7.671523438 36.578945312 8.479765625 36.755546875 9.3125 36.9375 C10.113007813 37.111523437 10.913515625 37.285546875 11.73828125 37.46484375 C14 38 14 38 17 39 C18.333333333 36 18.333333333 36 17 33 C17.99 32.34 18.98 31.68 20 31 C18.68 31.33 17.36 31.66 16 32 C16 31.34 16 30.68 16 30 C15.360625 29.731875 14.72125 29.46375 14.0625 29.1875 C12 28 12 28 11 25 C11.61875 25.165 12.2375 25.33 12.875 25.5 C14.960633865 26.076346445 14.960633865 26.076346445 17 26 C19.002122292 26.320339567 21.002396951 26.652590774 23 27 C23.66 29.31 24.32 31.62 25 34 C23.68 34.33 22.36 34.66 21 35 C20.67 36.65 20.34 38.3 20 40 C20.99 40 21.98 40 23 40 C23.37125 39.0409375 23.37125 39.0409375 23.75 38.0625 C25 36 25 36 27.078125 35.37109375 C27.71234375 35.248632813 28.3465625 35.126171875 29 35 C28.049088039 32.060045005 27.087995649 29.123516966 26.125 26.1875 C25.855585937 25.354121094 25.586171875 24.520742187 25.30859375 23.662109375 C25.044335937 22.859667969 24.780078125 22.057226563 24.5078125 21.23046875 C24.266918945 20.492077637 24.026025391 19.753686523 23.777832031 18.992919922 C22.979293579 16.736874047 22.979293579 16.736874047 21 14 C21.66 14 22.32 14 23 14 C22.528271629 11.075284099 22.135406855 8.695213359 21 6 C16.309477757 3.30294971 10.336857384 3.400791661 5 3 C5.99 4.65 6.98 6.3 8 8 C4.125 6.125 4.125 6.125 3 5 C0.813605468 4.92741054 -1.37500389 4.916262174 -3.5625 4.9375 C-4.760039062 4.946523438 -5.957578125 4.955546875 -7.19140625 4.96484375 C-8.581660156 4.982246094 -8.581660156 4.982246094 -10 5 C-9.505 5.99 -9.505 5.99 -9 7 C-10.98 6.34 -12.96 5.68 -15 5 C-15.651041514 7.352833749 -16.295921222 9.707084486 -16.9375 12.0625 C-17.119902344 12.719277344 -17.302304687 13.376054688 -17.490234375 14.052734375 C-19.972250027 21.622299093 -19.972250027 21.622299093 -19 29 C-18.39671875 28.855625 -17.7934375 28.71125 -17.171875 28.5625 C-16.37265625 28.376875 -15.5734375 28.19125 -14.75 28 C-13.96109375 27.814375 -13.1721875 27.62875 -12.359375 27.4375 C-10 27 -10 27 -6 27 C-5.505 26.01 -5.505 26.01 -5 25 C-2.121119196 29.380905572 -1 32.769936476 -1 38 C-1.33 38 -1.66 38 -2 38 C-2 38.66 -2 39.32 -2 40 C-1.34 40 -0.68 40 0 40 C0 40.66 0 41.32 0 42 C-5.933333069 41.590804616 -9.380484943 40.811099922 -14 37 C-14 36.34 -14 35.68 -14 35 C-14.5775 34.7525 -15.155 34.505 -15.75 34.25 C-18.498921549 32.722821361 -20.120218471 31.551132075 -22 29 C-22.437459591 22.902078426 -21.435577598 17.922917029 -19.625 12.125 C-19.292421875 10.988046875 -19.292421875 10.988046875 -18.953125 9.828125 C-17.272640306 4.272640306 -17.272640306 4.272640306 -15 2 C-12.1796875 1.5859375 -12.1796875 1.5859375 -8.875 1.375 C-7.779296875 1.300234375 -6.68359375 1.22546875 -5.5546875 1.1484375 C-4.711640625 1.099453125 -3.86859375 1.05046875 -3 1 C-17.189285671 -6.060369199 -29.640751207 -6.147295088 -44.75 -1.9375 C-45.894365234 -1.623129883 -47.038730469 -1.308759766 -48.217773438 -0.984863281 C-59.536517733 2.244241702 -69.046967963 6.238939684 -78 14 C-74.395877116 5.868959483 -65.957079442 2.726304273 -58.132324219 -0.446533203 C-52.214790106 -2.711213552 -46.207017587 -4.464829742 -40.0625 -6 C-39.211477051 -6.219865723 -38.360454102 -6.439731445 -37.483642578 -6.666259766 C-24.775460596 -9.620587731 -11.217079058 -6.349290033 0 0 Z " fill="#8C887D" transform="translate(150,63)" />
<path d="M0 0 C0 3.628506257 -1.069536678 5.861672777 -2.5 9.1875 C-3.19609375 10.817519531 -3.19609375 10.817519531 -3.90625 12.48046875 C-4.44765625 13.727636719 -4.44765625 13.727636719 -5 15 C-0.24932244 15.33144262 2.046098473 14.566331315 6 12 C5.989526367 13.169824219 5.979052734 14.339648438 5.968261719 15.544921875 C5.931874931 19.913379942 5.9090319 24.281824783 5.890136719 28.650390625 C5.880121532 30.535830262 5.866505482 32.421254535 5.849121094 34.306640625 C5.824674682 37.027382492 5.81347184 39.747917769 5.8046875 42.46875 C5.789203644 43.719241333 5.789203644 43.719241333 5.773406982 44.994995117 C5.77240032 50.327623912 6.512758525 54.874420384 8 60 C6.35 60 4.7 60 3 60 C4.98 60.66 6.96 61.32 9 62 C5.004393923 64.830220971 1.572626766 63.762104461 -3 63 C-4.546283177 54.795125944 -5.873609649 46.567041535 -7.125 38.3125 C-7.306757812 37.122050781 -7.488515625 35.931601562 -7.67578125 34.705078125 C-8.118577983 31.803594267 -8.559958676 28.901902794 -9 26 C-13.701996374 39.57732806 -17.269101487 52.724208457 -19 67 C-19.33 67 -19.66 67 -20 67 C-21.294895653 50.346203124 -14.668966875 34.343039118 -9 19 C-8.525594171 17.685057195 -8.051598265 16.369966382 -7.578125 15.0546875 C-5.55178987 9.563569462 -3.586950204 4.649750264 0 0 Z " fill="#E1DED2" transform="translate(144,106)" />
<path d="M0 0 C1.315428657 3.94628597 -0.022270278 6.23798296 -1.4375 9.9375 C-4.42997621 18.373530038 -5.860450793 26.282630198 -2.25 34.8125 C-0.930099528 37.456998098 0.481349551 39.687642215 2.1875 42.125 C5.465748973 47.511613018 4.84182606 54.854942436 5 61 C5.66 60.01 6.32 59.02 7 58 C7.99 57.67 8.98 57.34 10 57 C10.99 57.495 10.99 57.495 12 58 C12 58.99 12 59.98 12 61 C13.65 60.34 15.3 59.68 17 59 C16.505 59.94875 16.01 60.8975 15.5 61.875 C13.855756311 64.72278166 13.855756311 64.72278166 14 67 C14.66 67 15.32 67 16 67 C18.97 74.425 18.97 74.425 22 82 C19.69 81.67 17.38 81.34 15 81 C15 81.66 15 82.32 15 83 C10.059494057 81.627637238 8.639411111 79.257114696 6 75 C5.278125 74.360625 4.55625 73.72125 3.8125 73.0625 C1.249790581 70.14631342 1.334805295 67.842474728 1 64 C1.226283311 61.412383786 1.499103303 58.828515913 1.8125 56.25 C2.546679048 48.481970269 0.774343225 43.309385224 -4 37 C-4.66 36.34 -5.32 35.68 -6 35 C-7 33 -7 33 -7 29 C-7.493066406 29.852714844 -7.493066406 29.852714844 -7.99609375 30.72265625 C-12.638994104 38.259505334 -18.442524875 44.15196531 -27 47 C-31.583094522 47.685471528 -35.559550599 47.673641169 -39.5 45.0625 C-42 43 -42 43 -43 42 C-42.729653662 44.437172582 -42.729653662 44.437172582 -42 47 C-37.483756151 50.010829233 -33.293780318 49.548830243 -28 49 C-20.562874956 47.178885803 -15.365754376 43.335778094 -10 38 C-10 38.99 -10 39.98 -10 41 C-16.925391983 47.771494384 -24.341878165 51.550942711 -33.9375 52.3125 C-38.231582543 52.26379585 -40.688784996 50.759345837 -44 48 C-46.151943699 44.772084452 -46.200864427 43.715991908 -46 40 C-44.515 39.505 -44.515 39.505 -43 39 C-40.942728685 40.595434898 -38.941253439 42.265262884 -37 44 C-33.871435237 45.564282382 -31.472878689 45.280070862 -28 45 C-20.578364738 42.453360449 -14.211118301 37.684051474 -10.375 30.8125 C-7.703010598 25.055417572 -6.250547824 18.93057054 -4.786621094 12.776611328 C-3.672798955 8.160248408 -2.336031321 4.185952079 0 0 Z M12 56 C13.485 56.99 13.485 56.99 15 58 C14.01 58 13.02 58 12 58 C12 57.34 12 56.68 12 56 Z " fill="#E6E4D5" transform="translate(64,88)" />
<path d="M0 0 C2.798724365 2.527880072 4.457730191 4.204111335 5 8 C4.01 7.67 3.02 7.34 2 7 C0.128198237 18.517618914 -0.197199942 29.982350153 4 41 C6.97 41.66 9.94 42.32 13 43 C12.892491658 30.93931014 12.892491658 30.93931014 8.7421875 19.796875 C7.794873001 17.50337674 8.196786253 16.297801351 9 14 C9.816747958 15.74802146 10.628234513 17.498501892 11.4375 19.25 C11.889960938 20.22453125 12.342421875 21.1990625 12.80859375 22.203125 C14.910028652 27.136329557 15.07224701 30.920381313 14.87890625 36.31640625 C14.855249939 37.037611542 14.831593628 37.758816833 14.807220459 38.501876831 C14.756317486 40.051333115 14.703142562 41.600716112 14.647918701 43.150024414 C14.504157115 47.210274841 14.379277335 51.271059465 14.2578125 55.33203125 C14.233415985 56.147272644 14.20901947 56.962514038 14.183883667 57.802459717 C13.8599656 69.20042874 13.905133561 80.59851355 14 92 C15.32 92.33 16.64 92.66 18 93 C18.33 92.34 18.66 91.68 19 91 C19.99 91.66 20.98 92.32 22 93 C21.67 92.01 21.34 91.02 21 90 C21.99 90 22.98 90 24 90 C24.33 89.34 24.66 88.68 25 88 C26.5625 89.25 26.5625 89.25 28 91 C27.58984375 93.109375 27.58984375 93.109375 27 95 C25.062806219 95.054061222 23.125180785 95.092820248 21.1875 95.125 C20.108554688 95.148203125 19.029609375 95.17140625 17.91796875 95.1953125 C15 95 15 95 12 93 C11.63923645 90.899261475 11.63923645 90.899261475 11.659423828 88.274902344 C11.659650421 87.29403656 11.659877014 86.313170776 11.660110474 85.302581787 C11.67559433 84.241089172 11.691078186 83.179596558 11.70703125 82.0859375 C11.711276093 81.001161194 11.715520935 79.916384888 11.719894409 78.798736572 C11.736727 75.323908331 11.77438811 71.849653817 11.8125 68.375 C11.82754089 66.023445858 11.841230325 63.671882653 11.853515625 61.3203125 C11.886645463 55.546678265 11.936890177 49.773380109 12 44 C10.743164062 44.018046875 9.486328125 44.03609375 8.19140625 44.0546875 C5.428069175 44.094366186 3.650931534 43.900266153 0.9375 43.125 C-2.495828494 42.978900915 -3.132981321 43.485072801 -5.75 45.5625 C-10.527751797 50.192595008 -11.095045413 54.383218344 -11.25 60.875 C-11.17475654 65.903771233 -10.47570187 70.203968922 -9 75 C-12.277393711 72.007597046 -12.947668396 69.922847717 -13.203125 65.41796875 C-13.224349205 64.007885659 -13.239771853 62.597705721 -13.25 61.1875 C-13.270625 60.488183594 -13.29125 59.788867187 -13.3125 59.068359375 C-13.354164224 53.500977493 -12.290465221 49.396350475 -8.39453125 45.3203125 C-6.9296875 44.213541667 -5.46484375 43.106770833 -4 42 C-5.65 41.34 -7.3 40.68 -9 40 C-4.997996221 38.399198488 -1.954437641 39.707203079 2 41 C1.525625 39.80375 1.05125 38.6075 0.5625 37.375 C-3.307754682 26.932614726 -2.429993738 17.475088011 0.44140625 6.8828125 C0.982953854 4.08797242 0.960946116 2.634646968 0 0 Z " fill="#464136" transform="translate(102,87)" />
<path d="M0 0 C1.315428657 3.94628597 -0.022270278 6.23798296 -1.4375 9.9375 C-4.42997621 18.373530038 -5.860450793 26.282630198 -2.25 34.8125 C-0.948311438 37.400380832 0.457509914 39.652266428 2.12890625 42.03515625 C4.953628692 46.964250777 4.394127335 52.105598635 4.1875 57.625 C4.13499142 59.658746949 4.086667009 61.692607175 4.04296875 63.7265625 C4.012272949 64.619399414 3.981577148 65.512236328 3.949951172 66.432128906 C4.001357619 69.069655806 4.405829575 71.434591998 5 74 C2.453626659 72.117897965 2.004321841 71.020906256 1.3515625 67.86328125 C0.982915317 63.812258316 1.322481188 60.281699493 1.8125 56.25 C2.546679048 48.481970269 0.774343225 43.309385224 -4 37 C-4.66 36.34 -5.32 35.68 -6 35 C-7 33 -7 33 -7 29 C-7.493066406 29.852714844 -7.493066406 29.852714844 -7.99609375 30.72265625 C-12.638994104 38.259505334 -18.442524875 44.15196531 -27 47 C-31.583094522 47.685471528 -35.559550599 47.673641169 -39.5 45.0625 C-42 43 -42 43 -43 42 C-42.729653662 44.437172582 -42.729653662 44.437172582 -42 47 C-37.483756151 50.010829233 -33.293780318 49.548830243 -28 49 C-20.562874956 47.178885803 -15.365754376 43.335778094 -10 38 C-10 38.99 -10 39.98 -10 41 C-16.925391983 47.771494384 -24.341878165 51.550942711 -33.9375 52.3125 C-38.231582543 52.26379585 -40.688784996 50.759345837 -44 48 C-46.151943699 44.772084452 -46.200864427 43.715991908 -46 40 C-44.515 39.505 -44.515 39.505 -43 39 C-40.942728685 40.595434898 -38.941253439 42.265262884 -37 44 C-33.871435237 45.564282382 -31.472878689 45.280070862 -28 45 C-20.578364738 42.453360449 -14.211118301 37.684051474 -10.375 30.8125 C-7.703010598 25.055417572 -6.250547824 18.93057054 -4.786621094 12.776611328 C-3.672798955 8.160248408 -2.336031321 4.185952079 0 0 Z " fill="#3E3A2F" transform="translate(64,88)" />
<path d="M0 0 C2.755897772 0.017479267 5.387866764 0.138632708 8.125 0.375 C8.879101563 0.43171875 9.633203125 0.4884375 10.41015625 0.546875 C12.274180958 0.688446497 14.137211372 0.842999592 16 1 C16 1.33 16 1.66 16 2 C12.37 2.33 8.74 2.66 5 3 C5.33 3.66 5.66 4.32 6 5 C4.02 4.34 2.04 3.68 0 3 C-0.651041514 5.352833749 -1.295921222 7.707084486 -1.9375 10.0625 C-2.119902344 10.719277344 -2.302304687 11.376054688 -2.490234375 12.052734375 C-4.972250027 19.622299093 -4.972250027 19.622299093 -4 27 C-3.39671875 26.855625 -2.7934375 26.71125 -2.171875 26.5625 C-1.37265625 26.376875 -0.5734375 26.19125 0.25 26 C1.03890625 25.814375 1.8278125 25.62875 2.640625 25.4375 C5 25 5 25 9 25 C9.33 24.34 9.66 23.68 10 23 C12.878880804 27.380905572 14 30.769936476 14 36 C13.67 36 13.34 36 13 36 C13 36.66 13 37.32 13 38 C13.66 38 14.32 38 15 38 C15 38.66 15 39.32 15 40 C9.066666931 39.590804616 5.619515057 38.811099922 1 35 C1 34.34 1 33.68 1 33 C0.4225 32.7525 -0.155 32.505 -0.75 32.25 C-3.498921549 30.722821361 -5.120218471 29.551132075 -7 27 C-7.437459591 20.902078426 -6.435577598 15.922917029 -4.625 10.125 C-4.40328125 9.36703125 -4.1815625 8.6090625 -3.953125 7.828125 C-2.272640306 2.272640306 -2.272640306 2.272640306 0 0 Z " fill="#908D82" transform="translate(135,65)" />
<path d="M0 0 C2.657765755 2.657765755 2.454097987 4.422780257 2.875 8.125 C3.881791777 15.188151614 5.172469787 20.622304139 10.75 25.3125 C11.4925 25.869375 12.235 26.42625 13 27 C13 27.99 13 28.98 13 30 C12.01 30 11.02 30 10 30 C10 29.01 10 28.02 10 27 C9.34 27 8.68 27 8 27 C8 27.99 8 28.98 8 30 C6.02 30 4.04 30 2 30 C-0.250090686 25.660539391 -2.40316295 21.286021471 -4.375 16.8125 C-4.733359375 16.014570312 -5.09171875 15.216640625 -5.4609375 14.39453125 C-6.626549722 9.216847973 -2.542204546 4.321747729 0 0 Z " fill="#E5E2D4" transform="translate(86,141)" />
<path d="M0 0 C0.495 0.495 0.495 0.495 1 1 C4.27876092 1.204213483 7.55018796 1.346023897 10.833984375 1.4296875 C15.534561657 1.638023335 18.954996226 2.362755898 23 5 C24.633165818 8.905396521 25.615018729 11.962453177 24 16 C22.515 15.505 22.515 15.505 21 15 C21.99 14.505 21.99 14.505 23 14 C22.528271629 11.075284099 22.135406855 8.695213359 21 6 C16.309477757 3.30294971 10.336857384 3.400791661 5 3 C5.99 4.65 6.98 6.3 8 8 C5.506384291 6.79618552 3.318569172 5.545712781 1 4 C-2.19806665 3.539623599 -2.19806665 3.539623599 -5.6875 3.375 C-6.866992187 3.300234375 -8.046484375 3.22546875 -9.26171875 3.1484375 C-10.165351563 3.099453125 -11.068984375 3.05046875 -12 3 C-12 2.67 -12 2.34 -12 2 C-7.545 1.505 -7.545 1.505 -3 1 C-17.337367105 -5.937435696 -29.506683394 -6.184649561 -44.75 -1.9375 C-45.894365234 -1.623129883 -47.038730469 -1.308759766 -48.217773438 -0.984863281 C-59.536517733 2.244241702 -69.046967963 6.238939684 -78 14 C-74.395877116 5.868959483 -65.957079442 2.726304273 -58.132324219 -0.446533203 C-52.214790106 -2.711213552 -46.207017587 -4.464829742 -40.0625 -6 C-39.211477051 -6.219865723 -38.360454102 -6.439731445 -37.483642578 -6.666259766 C-24.775460596 -9.620587731 -11.217079058 -6.349290033 0 0 Z " fill="#433D33" transform="translate(150,63)" />
<path d="M0 0 C0 3.581151619 -1.01882834 5.720577693 -2.4375 9 C-4.954582885 14.85167987 -6.172919484 19.066016574 -5.8125 25.4375 C-5.757070312 26.756210937 -5.701640625 28.074921875 -5.64453125 29.43359375 C-4.914071431 33.475471415 -4.023837893 34.387990776 -1 37 C0.30078125 39.21875 0.30078125 39.21875 1.3125 41.5 C1.659257813 42.2528125 2.006015625 43.005625 2.36328125 43.78125 C3 46 3 46 2 50 C0.02 45.38 -1.96 40.76 -4 36 C-3.67 38.413125 -3.34 40.82625 -3 43.3125 C-2.137991615 49.9043685 -1.746196755 56.344714906 -2 63 C-4.267065281 59.599402078 -4.515723434 57.56182119 -5.03515625 53.5390625 C-5.204667969 52.262890625 -5.374179688 50.98671875 -5.548828125 49.671875 C-5.72038641 48.322959145 -5.891607188 46.974000325 -6.0625 45.625 C-6.404838209 42.991824766 -6.751324069 40.359217855 -7.09765625 37.7265625 C-7.322073975 35.972067871 -7.322073975 35.972067871 -7.551025391 34.182128906 C-7.940003425 31.425228578 -8.419363429 28.721993569 -9 26 C-13.701996374 39.57732806 -17.269101487 52.724208457 -19 67 C-19.33 67 -19.66 67 -20 67 C-21.294895653 50.346203124 -14.668966875 34.343039118 -9 19 C-8.525594171 17.685057195 -8.051598265 16.369966382 -7.578125 15.0546875 C-5.55178987 9.563569462 -3.586950204 4.649750264 0 0 Z " fill="#454135" transform="translate(144,106)" />
<path d="M0 0 C0.33 0 0.66 0 1 0 C0.75 3.375 0.75 3.375 0 7 C-2.831624582 8.952628038 -5.174414522 9.250560813 -8.5625 9.1875 C-9.709121094 9.177832031 -9.709121094 9.177832031 -10.87890625 9.16796875 C-13 9 -13 9 -16 8 C-17.561184279 7.932591352 -19.1250252 7.914855438 -20.6875 7.9375 C-21.495742188 7.946523438 -22.303984375 7.955546875 -23.13671875 7.96484375 C-23.751601563 7.976445313 -24.366484375 7.988046875 -25 8 C-31.238511965 17.565718347 -31.305133256 27.387340633 -31.1875 38.5625 C-31.186855469 39.729746094 -31.186210937 40.896992187 -31.185546875 42.099609375 C-31.724613194 53.830271688 -31.724613194 53.830271688 -27.4375 64.0625 C-26.2309375 65.0215625 -26.2309375 65.0215625 -25 66 C-25.33 66.99 -25.66 67.98 -26 69 C-29.149308933 70.049769644 -31.388144563 70.101315946 -34.6875 70.0625 C-35.681367188 70.053476563 -36.675234375 70.044453125 -37.69921875 70.03515625 C-38.458476563 70.023554687 -39.217734375 70.011953125 -40 70 C-40 69.34 -40 68.68 -40 68 C-38.88625 68.020625 -37.7725 68.04125 -36.625 68.0625 C-33.167840791 68.263807176 -33.167840791 68.263807176 -31 67 C-32.65 66.34 -34.3 65.68 -36 65 C-34 64 -34 64 -31 64 C-31.32597168 63.035056152 -31.651943359 62.070112305 -31.987792969 61.075927734 C-33.253426487 56.62444448 -33.253435952 52.385159657 -33.1953125 47.78515625 C-33.191067657 46.501544571 -33.191067657 46.501544571 -33.186737061 45.192001343 C-33.175619348 42.482020088 -33.150530821 39.772379906 -33.125 37.0625 C-33.114959314 35.215499594 -33.105835373 33.368493963 -33.09765625 31.521484375 C-33.07570763 27.014193232 -33.041236544 22.507154273 -33 18 C-33.66 18.33 -34.32 18.66 -35 19 C-32.64374357 14.10796284 -30.255792916 9.487995225 -26 6 C-21.888364053 5.208483519 -18.135520024 5.510267366 -14 6 C-13.01 6 -12.02 6 -11 6 C-11 5.01 -11 4.02 -11 3 C-10.649375 3.495 -10.29875 3.99 -9.9375 4.5 C-7.056257112 6.730639655 -4.529909736 6.199806211 -1 6 C-1 5.34 -1 4.68 -1 4 C-2.98 4.33 -4.96 4.66 -7 5 C-7 4.34 -7 3.68 -7 3 C-5.5459375 2.814375 -5.5459375 2.814375 -4.0625 2.625 C-3.051875 2.41875 -2.04125 2.2125 -1 2 C-0.67 1.34 -0.34 0.68 0 0 Z " fill="#39352A" transform="translate(182,101)" />
<path d="M0 0 C0.33 0 0.66 0 1 0 C0.9071875 1.3921875 0.9071875 1.3921875 0.8125 2.8125 C0.669071696 5.931121339 0.669071696 5.931121339 2.3125 7.5 C2.869375 7.995 3.42625 8.49 4 9 C5.046228749 10.976209859 6.054399353 12.973712899 7 15 C5.02 15.33 3.04 15.66 1 16 C0.8453125 15.0409375 0.8453125 15.0409375 0.6875 14.0625 C0.460625 13.381875 0.23375 12.70125 0 12 C-0.99 11.67 -1.98 11.34 -3 11 C-4.794643839 12.310028327 -4.794643839 12.310028327 -6.5625 14.1875 C-13.270375109 20.307824005 -20.479149291 22.805053857 -29.56640625 22.45703125 C-32 22 -32 22 -35.25 19.75 C-37 17 -37 17 -36.8125 14.6875 C-36.4103125 13.8521875 -36.4103125 13.8521875 -36 13 C-35.21625 13.639375 -34.4325 14.27875 -33.625 14.9375 C-29.120694968 18.476596811 -25.606769776 18.637949766 -20 18 C-11.426185636 15.24187957 -5.292036766 9.224992162 -0.9453125 1.5390625 C-0.633359375 1.031171875 -0.32140625 0.52328125 0 0 Z " fill="#DCD9CF" transform="translate(57,116)" />
<path d="M0 0 C2.052588241 2.052588241 4.102321413 4.105330866 6.125 6.1875 C7.879198691 8.064643214 7.879198691 8.064643214 10 9 C10 8.34 10 7.68 10 7 C16.164564758 7.377422332 19.173755155 9.158703082 24 13 C23.67 14.32 23.34 15.64 23 17 C18.604664119 17.986708055 15.006607302 18.4304872 10.83984375 16.41796875 C5.905369655 12.614966422 1.033301823 6.244095304 0 0 Z " fill="#9E9B92" transform="translate(69,162)" />
<path d="M0 0 C0.33 0 0.66 0 1 0 C1.597916634 3.912943274 2.185585865 7.827276649 2.763916016 11.743164062 C3.059230087 13.728022331 3.362578737 15.711679771 3.666015625 17.6953125 C3.849707031 18.945703125 4.033398438 20.19609375 4.22265625 21.484375 C4.481878662 23.212524414 4.481878662 23.212524414 4.746337891 24.975585938 C4.974611526 27.697293151 4.878953077 29.448024087 4 32 C4 31.01 4 30.02 4 29 C3.34 29 2.68 29 2 29 C1.67 29.99 1.34 30.98 1 32 C0.375 29.1875 0.375 29.1875 0 26 C0.66 25.01 1.32 24.02 2 23 C1.34 22.34 0.68 21.68 0 21 C-3.596790661 21.32326553 -3.596790661 21.32326553 -7 22 C-5.0827282 14.490685449 -2.759509855 7.24196241 0 0 Z " fill="#E4E0D2" transform="translate(135,130)" />
<path d="M0 0 C0.66 0.33 1.32 0.66 2 1 C2.053838482 3.458624007 2.09359038 5.916075499 2.125 8.375 C2.141757813 9.073671875 2.158515625 9.77234375 2.17578125 10.4921875 C2.193442667 12.32897486 2.103032605 14.166019626 2 16 C1.34 16.66 0.68 17.32 0 18 C-0.99 18 -1.98 18 -3 18 C-4.030132774 16.351787561 -5.031146284 14.684962983 -6 13 C-6.66 13 -7.32 13 -8 13 C-8.485900217 5.8329718 -8.485900217 5.8329718 -6.25 2 C-4 0 -4 0 0 0 Z " fill="#ECE9DE" transform="translate(146,127)" />
<path d="M0 0 C0.66 0.99 1.32 1.98 2 3 C2.66 2.34 3.32 1.68 4 1 C4 1.66 4 2.32 4 3 C4.598125 3.12375 5.19625 3.2475 5.8125 3.375 C8 4 8 4 11 6 C11.99 5.67 12.98 5.34 14 5 C14.33 5.66 14.66 6.32 15 7 C14.34 7.66 13.68 8.32 13 9 C13 9.66 13 10.32 13 11 C12.67 11.66 12.34 12.32 12 13 C12.33 13.33 12.66 13.66 13 14 C12.34 14.66 11.68 15.32 11 16 C10.154375 15.54625 9.30875 15.0925 8.4375 14.625 C4.939533549 12.971415859 1.730403047 11.969904792 -2 11 C-2.285714286 3.571428571 -2.285714286 3.571428571 0 0 Z " fill="#ECE7DB" transform="translate(156,88)" />
<path d="M0 0 C11.663133989 -0.633610901 11.663133989 -0.633610901 17 3 C17.917141002 5.801147517 17.950827738 8.000492015 18 11 C11.476917939 10.456409828 5.599630531 8.762107439 1 3.875 C0 2 0 2 0 0 Z " fill="#C3C0B4" transform="translate(155,66)" />
<path d="M0 0 C0.33 0.99 0.66 1.98 1 3 C-0.1015625 4.7265625 -0.1015625 4.7265625 -1.625 6.625 C-3.635233536 9.651616423 -3.635233536 9.651616423 -3.80859375 13.171875 C-3.010595587 15.528267482 -2.031548097 17.736531155 -1 20 C-0.703515625 20.910078125 -0.40703125 21.82015625 -0.1015625 22.7578125 C0.761598625 25.347295875 1.597210862 27.657388437 3 30 C6.110956369 31.30110818 6.110956369 31.30110818 9 31 C9 30.01 9 29.02 9 28 C9.66 28 10.32 28 11 28 C11 28.99 11 29.98 11 31 C11.99 31 12.98 31 14 31 C12.770659854 27.311979563 11.061406225 26.27643027 8 24 C8.33 23.34 8.66 22.68 9 22 C11.64 24.31 14.28 26.62 17 29 C16.67 29.99 16.34 30.98 16 32 C12.4375 33.1875 12.4375 33.1875 9 34 C9 35.32 9 36.64 9 38 C8.34 37.67 7.68 37.34 7 37 C7 36.34 7 35.68 7 35 C6.079609375 34.445703125 5.15921875 33.89140625 4.2109375 33.3203125 C0.496424158 30.636102129 -0.809614631 28.02369893 -2.375 23.875 C-2.634101563 23.242070313 -2.893203125 22.609140625 -3.16015625 21.95703125 C-5 17.37202381 -5 17.37202381 -5 15 C-5.66 15 -6.32 15 -7 15 C-7 16.65 -7 18.3 -7 20 C-7.33 20 -7.66 20 -8 20 C-8.472711968 14.201892267 -7.1947891 10.762941395 -4 6.0625 C-3.6184375 5.474042969 -3.236875 4.885585937 -2.84375 4.279296875 C-1.909951924 2.843582334 -0.956910726 1.420414359 0 0 Z " fill="#454337" transform="translate(85,140)" />
<path d="M0 0 C2.327184472 2.115622247 3.858134112 4.050179789 5 7 C4.67 7.66 4.34 8.32 4 9 C4.66 9 5.32 9 6 9 C5.67 10.98 5.34 12.96 5 15 C4.01 14.34 3.02 13.68 2 13 C2.33 13.99 2.66 14.98 3 16 C2.443125 15.649375 1.88625 15.29875 1.3125 14.9375 C-1.544056819 13.779436425 -3.062636925 14.285506279 -6 15 C-7 14 -7 14 -7.09765625 11.93359375 C-7.086054687 11.109882812 -7.074453125 10.286171875 -7.0625 9.4375 C-7.053476562 8.611210938 -7.044453125 7.784921875 -7.03515625 6.93359375 C-7.023554687 6.295507813 -7.011953125 5.657421875 -7 5 C-6.37609375 4.703515625 -5.7521875 4.40703125 -5.109375 4.1015625 C-2.962029085 2.980170744 -1.619041654 1.78094582 0 0 Z " fill="#DAD7CA" transform="translate(122,165)" />
<path d="M0 0 C1.157598012 3.472794035 1.022604829 5.980388236 0.87890625 9.63671875 C0.830566406 10.935449219 0.782226562 12.234179687 0.732421875 13.572265625 C0.675900479 14.944015335 0.619258307 16.315760073 0.5625 17.6875 C0.509259489 19.070944156 0.456519223 20.454407661 0.404296875 21.837890625 C0.27445883 25.225483248 0.139486247 28.612793145 0 32 C-0.33 32 -0.66 32 -1 32 C-1.33 24.74 -1.66 17.48 -2 10 C-2.99 10.33 -3.98 10.66 -5 11 C-5 10.34 -5 9.68 -5 9 C-7.97 11.475 -7.97 11.475 -11 14 C-12 13 -12 13 -12.125 9.625 C-12 6 -12 6 -11 3 C-9.9275 3.061875 -8.855 3.12375 -7.75 3.1875 C-3.891338126 2.994566906 -2.711822124 2.603349239 0 0 Z " fill="#BFBCB0" transform="translate(149,118)" />
</svg>