<?xml version='1.0' encoding='utf-8'?>
<svg xmlns="http://www.w3.org/2000/svg" version="1.1" width="186" height="157" viewBox="49.465365074 33.0 186.284634926 157.1875">
<path d="M0 0 C3.083646818 0.33039073 3.978470969 0.976571349 6.125 3.3125 C7.657383039 5.50891569 8.915950697 7.560889069 10 10 C10.33 7.69 10.66 5.38 11 3 C11.99 2.67 12.98 2.34 14 2 C14.33 5.3 14.66 8.6 15 12 C16.381875 11.195625 17.76375 10.39125 19.1875 9.5625 C22.469649682 7.651994961 25.239701501 6.581076322 29 6 C27.92578125 11.95703125 27.92578125 11.95703125 27 14 C24.525 15.485 24.525 15.485 22 17 C26.29 20.96 30.58 24.92 35 29 C34.67 30.32 34.34 31.64 34 33 C27.287917126 36.356041437 18.659516183 33.091212558 12 31 C12.0309375 31.916523438 12.0309375 31.916523438 12.0625 32.8515625 C11.798777043 44.554268699 7.203615852 56.592768296 2 67 C1.922152674 68.499281843 1.862357503 69.999526582 1.8125 71.5 C1.272420373 77.701914381 -1.5217755 81.971797473 -5 87 C-7.227647871 90.341471807 -7.24733948 91.408541364 -7.23046875 95.3046875 C-7.22958252 96.35744873 -7.228696289 97.410209961 -7.227783203 98.494873047 C-7.214489746 99.610314941 -7.201196289 100.725756836 -7.1875 101.875 C-7.177429199 103.006555176 -7.167358398 104.138110352 -7.156982422 105.303955078 C-7.119095971 108.536389877 -7.062185119 111.767954795 -7 115 C-6.986948242 116.16329834 -6.986948242 116.16329834 -6.973632812 117.350097656 C-6.86728137 124.792865004 -6.301108596 128.698891404 -1 134 C-1.33 134.99 -1.66 135.98 -2 137 C-4.875 137.1875 -4.875 137.1875 -8 137 C-10 134 -10 134 -10 131 C-10.99 130.67 -11.98 130.34 -13 130 C-13.99 122.08 -13.99 122.08 -15 114 C-15.0825 116.35125 -15.165 118.7025 -15.25 121.125 C-15.286416016 121.853481445 -15.322832031 122.581962891 -15.360351562 123.332519531 C-15.445965769 128.423803047 -14.006645618 131.010867822 -11 135 C-11 135.66 -11 136.32 -11 137 C-13.64 137 -16.28 137 -19 137 C-19.12375 136.195625 -19.2475 135.39125 -19.375 134.5625 C-19.58125 133.716875 -19.7875 132.87125 -20 132 C-20.66 131.67 -21.32 131.34 -22 131 C-22.394775391 128.291259766 -22.394775391 128.291259766 -22.59765625 124.69140625 C-22.676933594 123.386230469 -22.756210937 122.081054688 -22.837890625 120.736328125 C-22.913177382 119.345074584 -22.988044374 117.953798268 -23.0625 116.5625 C-23.216714132 113.876096239 -23.376066237 111.190029359 -23.53515625 108.50390625 C-23.610083008 107.222739258 -23.685009766 105.941572266 -23.762207031 104.621582031 C-24.061237263 100.067357741 -24.486401404 95.534650415 -25 91 C-25.674985352 91.15380127 -26.349970703 91.307602539 -27.045410156 91.466064453 C-35.627480595 93.381658253 -42.555289068 93.937139191 -50.859375 90.75390625 C-53.215807263 89.923994887 -55.54401622 89.442248828 -58 89 C-58.409921875 89.975820312 -58.81984375 90.951640625 -59.2421875 91.95703125 C-59.786297144 93.242255753 -60.330576894 94.527408249 -60.875 95.8125 C-61.144414063 96.455097656 -61.413828125 97.097695312 -61.69140625 97.759765625 C-62.946957305 100.714904085 -64.212771777 103.319157665 -66 106 C-65.6227663 111.077194555 -64.349338466 115.852557396 -62.8125 120.6875 C-62.628808594 121.337832031 -62.445117187 121.988164063 -62.255859375 122.658203125 C-60.660429846 127.658574907 -58.42194755 129.388421018 -54 132 C-54 132.66 -54 133.32 -54 134 C-56.956645193 135.478322596 -59.74229737 135.060327826 -63 135 C-63.33 134.34 -63.66 133.68 -64 133 C-64.99 132.67 -65.98 132.34 -67 132 C-67.382739093 129.981921147 -67.761558503 127.963049579 -68.125 125.94140625 C-69.477352459 121.395328564 -71.891917903 117.447654289 -74.344482422 113.405761719 C-76.161352941 110.266216072 -77.026624253 108.385133591 -76.7734375 104.72265625 C-76.518203125 103.824179688 -76.26296875 102.925703125 -76 102 C-75.7215625 100.576875 -75.7215625 100.576875 -75.4375 99.125 C-75.293125 98.42375 -75.14875 97.7225 -75 97 C-75.53109375 97.398320313 -76.0621875 97.796640625 -76.609375 98.20703125 C-83 103 -83 103 -85.057373047 104.308105469 C-88.596464294 107.390410652 -88.44256557 111.858044316 -89.0625 116.3125 C-89.229433594 117.250292969 -89.396367188 118.188085938 -89.568359375 119.154296875 C-90.41540937 124.189788204 -90.41540937 124.189788204 -88.940917969 128.899902344 C-87.692962503 130.326829876 -86.350702891 131.669918527 -85 133 C-85 133.99 -85 134.98 -85 136 C-87.64 136 -90.28 136 -93 136 C-93.474375 134.865625 -93.94875 133.73125 -94.4375 132.5625 C-95.636220833 129.242598338 -95.636220833 129.242598338 -97 128 C-96.789357187 125.788250466 -96.567252701 123.577281845 -96.3046875 121.37109375 C-96.064666266 118.715474195 -95.936870061 116.134163695 -95.8828125 113.47265625 C-95.860092773 112.675290527 -95.837373047 111.877924805 -95.813964844 111.056396484 C-95.771794266 109.453431664 -95.748249694 107.849853236 -95.744628906 106.246337891 C-95.561602688 100.536288376 -95.561602688 100.536288376 -92.66015625 97.765625 C-91.782304688 97.18296875 -90.904453125 96.6003125 -90 96 C-86.767377518 91.750609059 -84.179223144 87.732490393 -83.625 82.375 C-83.74875 81.59125 -83.8725 80.8075 -84 80 C-84.3403125 80.640664062 -84.680625 81.281328125 -85.03125 81.94140625 C-90.729034063 92.109526213 -97.93234409 98.310781363 -109 102 C-116.524100375 102.669233833 -123.375198376 103.123919123 -129.64453125 98.4453125 C-131.534634926 96.429928177 -132 94.736766282 -132 92 C-129.818125976 93.01301294 -128.056841777 93.949979236 -126.2421875 95.546875 C-121.743318692 98.4625182 -116.146440163 97.527687989 -111 97 C-103.004112129 95.045204208 -96.962477128 90.938143247 -92.04296875 84.3984375 C-89.11153073 79.522049207 -87.223752192 74.31737911 -85.263671875 68.98828125 C-82.93031686 63.082123083 -80.290403916 59.535335573 -75 56 C-74.401230469 55.587580566 -73.802460938 55.175161133 -73.185546875 54.750244141 C-67.364359312 51.286939156 -61.787846076 51.635415195 -55.1875 51.9375 C-46.821187534 52.292948913 -39.973922562 51.600813452 -32 49 C-30.595246427 48.583978624 -29.190316464 48.168552072 -27.78515625 47.75390625 C-26.556679687 47.360742187 -25.328203125 46.967578125 -24.0625 46.5625 C-22.192714844 45.976621094 -22.192714844 45.976621094 -20.28515625 45.37890625 C-14.186172526 42.81892854 -11.959114265 38.515387171 -9.0625 32.8125 C-8.366484843 31.473646545 -7.669871153 30.135104072 -6.97265625 28.796875 C-6.470163574 27.825244141 -6.470163574 27.825244141 -5.957519531 26.833984375 C-4.04972777 23.179896738 -2.023979974 19.59061832 0 16 C-0.766992187 15.893007813 -1.533984375 15.786015625 -2.32421875 15.67578125 C-6.333507123 14.663216449 -7.715977566 12.328146975 -10 9 C-10 7.68 -10 6.36 -10 5 C-6.021264269 5.284195409 -3.76697373 5.961728274 -0.875 8.625 C1.686531683 11.30179833 1.686531683 11.30179833 4.375 10.8125 C5.179375 10.4103125 5.179375 10.4103125 6 10 C5.38125 9.0925 4.7625 8.185 4.125 7.25 C2.556103886 4.850511826 1.195561792 2.590383882 0 0 Z " fill="#AAA99E" transform="translate(191,43)" />
<path d="M0 0 C3.083646818 0.33039073 3.978470969 0.976571349 6.125 3.3125 C7.657383039 5.50891569 8.915950697 7.560889069 10 10 C10.33 7.69 10.66 5.38 11 3 C11.99 2.67 12.98 2.34 14 2 C14.495 6.95 14.495 6.95 15 12 C16.381875 11.195625 17.76375 10.39125 19.1875 9.5625 C22.469649682 7.651994961 25.239701501 6.581076322 29 6 C27.92578125 11.95703125 27.92578125 11.95703125 27 14 C25.35 14.99 23.7 15.98 22 17 C28.435 22.94 28.435 22.94 35 29 C34.67 30.32 34.34 31.64 34 33 C27.287917126 36.356041437 18.659516183 33.091212558 12 31 C11.997421875 31.669023438 11.99484375 32.338046875 11.9921875 33.02734375 C11.721775375 39.742578185 10.414501808 45.679736247 8.25 52 C8.010073242 52.729528809 7.770146484 53.459057617 7.522949219 54.210693359 C5.874657523 58.78520761 4.202158525 61.255733208 0 64 C-0.495 61.525 -0.495 61.525 -1 59 C-0.67 63.95 -0.34 68.9 0 74 C-1.333333333 72.666666667 -2.666666667 71.333333333 -4 70 C-3.484375 70.721875 -2.96875 71.44375 -2.4375 72.1875 C-1 75 -1 75 -0.9375 77.3125 C-2.553748676 81.400658416 -5.245800374 84.605680583 -8 88 C-11.33363045 85.35410993 -12.038264176 82.315010973 -13.1875 78.3125 C-13.531679688 77.133007812 -13.875859375 75.953515625 -14.23046875 74.73828125 C-14.484414063 73.834648437 -14.738359375 72.931015625 -15 72 C-19.833347202 71.916666428 -24.236925626 72.047385125 -29 73 C-27 64.846153846 -27 64.846153846 -24 63 C-20.558296896 63.503480585 -17.953202812 65.034275746 -15 66.8125 C-14.154375 67.313945312 -13.30875 67.815390625 -12.4375 68.33203125 C-9.981961178 70.012343874 -8.03038764 71.833313189 -6 74 C-10.534564532 66.992036632 -18.651445107 63.480894423 -26 60 C-26 59.01 -26 58.02 -26 57 C-20.632833349 56.161380211 -17.203727612 59.079295952 -13 62 C-14.172195427 61.216542852 -15.337636683 60.422971642 -16.5 59.625 C-17.1496875 59.184140625 -17.799375 58.74328125 -18.46875 58.2890625 C-18.9740625 57.863671875 -19.479375 57.43828125 -20 57 C-20 56.34 -20 55.68 -20 55 C-20.804375 55.185625 -21.60875 55.37125 -22.4375 55.5625 C-23.283125 55.706875 -24.12875 55.85125 -25 56 C-26 55 -26 55 -26.0625 51.9375 C-26.041875 50.968125 -26.02125 49.99875 -26 49 C-25.408320312 48.818242188 -24.816640625 48.636484375 -24.20703125 48.44921875 C-20.594672581 47.300099761 -17.422247894 46.262732023 -14.1875 44.25 C-12 43 -12 43 -9.6875 43.3125 C-9.130625 43.539375 -8.57375 43.76625 -8 44 C-8.495 43.505 -8.495 43.505 -9 43 C-9.364422327 41.339853845 -9.699728832 39.672939364 -10 38 C-9.01 37.505 -9.01 37.505 -8 37 C-7.505 37.495 -7.505 37.495 -7 38 C-7.048984375 37.136328125 -7.09796875 36.27265625 -7.1484375 35.3828125 C-6.985432078 31.668004717 -6.123198772 29.261102426 -4.625 25.875 C-4.184140625 24.861796875 -3.74328125 23.84859375 -3.2890625 22.8046875 C-2.23491686 20.511122139 -1.150144716 18.246544351 0 16 C-0.721875 15.95875 -1.44375 15.9175 -2.1875 15.875 C-6.201986876 14.626048528 -7.660173345 12.409461698 -10 9 C-10 7.68 -10 6.36 -10 5 C-6.021264269 5.284195409 -3.76697373 5.961728274 -0.875 8.625 C1.686531683 11.30179833 1.686531683 11.30179833 4.375 10.8125 C4.91125 10.544375 5.4475 10.27625 6 10 C5.071875 8.63875 5.071875 8.63875 4.125 7.25 C2.556103886 4.850511826 1.195561792 2.590383882 0 0 Z " fill="#8D8B81" transform="translate(191,43)" />
<path d="M0 0 C0 0.99 0 1.98 0 3 C0.495 2.34 0.99 1.68 1.5 1 C4.248683146 -1.198946517 6.042361386 -1.750995621 9.5625 -1.59765625 C14.855589681 -0.299831376 19.64425847 2.791270406 24 6 C24 6.66 24 7.32 24 8 C23.01 8.33 22.02 8.66 21 9 C19.865918215 13.564917438 19.141837197 17.328318703 21.3515625 21.6328125 C24.567700821 26.016647173 24.567700821 26.016647173 29.06640625 28.8671875 C31.295279318 29.224467115 31.295279318 29.224467115 33.75 27.0625 C34.4925 26.381875 35.235 25.70125 36 25 C39.75058597 33.595092847 39.28499689 41.806211451 39 51 C38.34 51 37.68 51 37 51 C37 51.66 37 52.32 37 53 C37.66 53 38.32 53 39 53 C39.336958616 55.72876308 39.669684285 58.457931627 40 61.1875 C40.095390625 61.956425781 40.19078125 62.725351563 40.2890625 63.517578125 C40.751928936 67.369288106 41.124674677 71.111708513 41 75 C39.02 74.505 39.02 74.505 37 74 C36.951015625 72.914609375 36.90203125 71.82921875 36.8515625 70.7109375 C36.776480144 69.265602155 36.700934719 67.820290814 36.625 66.375 C36.5940625 65.662148437 36.563125 64.949296875 36.53125 64.21484375 C36.287903783 59.794054137 35.48685087 56.201480111 34 52 C33.572132227 49.675779999 33.198432931 47.341038356 32.875 45 C32.707421875 43.824375 32.53984375 42.64875 32.3671875 41.4375 C32.027496874 38.257417548 31.931822292 35.19461258 32 32 C30.783125 32.474375 29.56625 32.94875 28.3125 33.4375 C22.282644835 35.479559577 16.330002174 35.666841991 10 36 C9.01 29.565 9.01 29.565 8 23 C7.01 23.495 7.01 23.495 6 24 C6.495 25.051875 6.99 26.10375 7.5 27.1875 C8.827797881 30.254526092 9.307150059 32.621349355 9 36 C1.043478261 35.347826087 1.043478261 35.347826087 -2 32 C-2.598125 32.185625 -3.19625 32.37125 -3.8125 32.5625 C-6 33 -6 33 -9.25 31.0625 C-10.61125 30.0415625 -10.61125 30.0415625 -12 29 C-15.63 31.97 -19.26 34.94 -23 38 C-24.20767624 35.58464752 -23.977930357 34.521535924 -23.66015625 31.8671875 C-23.566699219 31.061523438 -23.473242188 30.255859375 -23.376953125 29.42578125 C-23.273183594 28.584023438 -23.169414062 27.742265625 -23.0625 26.875 C-22.962597656 26.025507812 -22.862695312 25.176015625 -22.759765625 24.30078125 C-22.511906162 22.199877229 -22.256648151 20.099848505 -22 18 C-20.68 19.32 -19.36 20.64 -18 22 C-18.495 21.21625 -18.99 20.4325 -19.5 19.625 C-20.947028016 17.092700972 -21 16.66107676 -21 14 C-22.32 13.67 -23.64 13.34 -25 13 C-24.67 13.99 -24.34 14.98 -24 16 C-25.32 17.32 -26.64 18.64 -28 20 C-30.6652255 16.688659227 -31.961321245 14.73489634 -32.1875 10.4375 C-30.568982105 5.75231662 -28.181564274 4.378264681 -24 2 C-22.6696875 1.1028125 -22.6696875 1.1028125 -21.3125 0.1875 C-14.637157759 -2.205547218 -6.858898703 -1.524199712 0 0 Z " fill="#A9A599" transform="translate(142,98)" />
<path d="M0 0 C0.33 0.66 0.66 1.32 1 2 C0.525625 2.9075 0.05125 3.815 -0.4375 4.75 C-2.12711416 8.264397452 -2.500707323 10.161243855 -2 14 C-0.620732274 16.342616083 -0.620732274 16.342616083 1 18 C-1.468000469 16.848266448 -3.047835655 15.952164345 -5 14 C-5 15.32 -5 16.64 -5 18 C-4.34 18.33 -3.68 18.66 -3 19 C-3.33 19.66 -3.66 20.32 -4 21 C-4.556875 20.784726562 -5.11375 20.569453125 -5.6875 20.34765625 C-8.838632289 19.873921835 -10.251948858 20.891721232 -13 22.4375 C-16.541542214 24.418820111 -17.802716871 25 -22 25 C-21.505 27.97 -21.505 27.97 -21 31 C-20.2575 30.9175 -19.515 30.835 -18.75 30.75 C-15.135958098 31.078549264 -14.330219217 32.293938973 -12 35 C-11.2575 35.7425 -10.515 36.485 -9.75 37.25 C-9.1725 37.8275 -8.595 38.405 -8 39 C-10.637214952 38.047672378 -12.780034513 37.171848037 -15 35.4375 C-17.324627906 33.766673692 -19.191090594 33.390126306 -22 33 C-22 33.99 -22 34.98 -22 36 C-21.126015625 36.261679687 -20.25203125 36.523359375 -19.3515625 36.79296875 C-16.023886638 37.99139747 -13.354536072 39.419865115 -10.375 41.3125 C-9.454609375 41.886132812 -8.53421875 42.459765625 -7.5859375 43.05078125 C-4.81912246 45.136341228 -2.892087467 47.097260935 -1 50 C-1.33 50.99 -1.66 51.98 -2 53 C-2.433125 52.154375 -2.86625 51.30875 -3.3125 50.4375 C-6.517044891 45.601760778 -11.808015791 42.38983979 -17 40 C-19.21635304 39.892074066 -19.21635304 39.892074066 -21 41 C-22.342314418 42.839834239 -22.342314418 42.839834239 -23.25 45.0625 C-23.58515625 45.795976563 -23.9203125 46.529453125 -24.265625 47.28515625 C-24.629140625 48.134003906 -24.629140625 48.134003906 -25 49 C-23.7625 48.505 -23.7625 48.505 -22.5 48 C-18.412601697 46.832171914 -15.230766556 46.854111498 -11 47 C-9 52.333333333 -7 57.666666667 -5 63 C-3.661043677 61.337847323 -2.328698578 59.670363926 -1 58 C-0.401875 57.319375 0.19625 56.63875 0.8125 55.9375 C2.176009096 54.111946786 2.176009096 54.111946786 1.9375 52.125 C0.630806321 49.163160995 -1.142847455 46.645035443 -3 44 C-3.66 43.01 -4.32 42.02 -5 41 C-0.338923992 42.664670003 -0.172562515 44.241156228 3 49 C2.67 43.72 2.34 38.44 2 33 C4.138548496 35.138548496 4.426550627 36.132753136 5 39 C5.99 38.01 6.98 37.02 8 36 C7.690625 36.94875 7.38125 37.8975 7.0625 38.875 C6.165566892 41.907488127 5.884510707 44.658971191 5.75 47.8125 C5.259626715 53.863521284 2.38807842 58.102114751 -1 63 C-3.227647871 66.341471807 -3.24733948 67.408541364 -3.23046875 71.3046875 C-3.22958252 72.35744873 -3.228696289 73.410209961 -3.227783203 74.494873047 C-3.214489746 75.610314941 -3.201196289 76.725756836 -3.1875 77.875 C-3.177429199 79.006555176 -3.167358398 80.138110352 -3.156982422 81.303955078 C-3.119095971 84.536389877 -3.062185119 87.767954795 -3 91 C-2.986948242 92.16329834 -2.986948242 92.16329834 -2.973632812 93.350097656 C-2.86728137 100.792865004 -2.301108596 104.698891404 3 110 C2.67 110.99 2.34 111.98 2 113 C-0.875 113.1875 -0.875 113.1875 -4 113 C-6 110 -6 110 -6 107 C-7.485 106.505 -7.485 106.505 -9 106 C-9.99 98.08 -9.99 98.08 -11 90 C-11.0825 92.35125 -11.165 94.7025 -11.25 97.125 C-11.286416016 97.853481445 -11.322832031 98.581962891 -11.360351562 99.332519531 C-11.445965769 104.423803047 -10.006645618 107.010867822 -7 111 C-7 111.66 -7 112.32 -7 113 C-8.98 113 -10.96 113 -13 113 C-12.01 112.67 -11.02 112.34 -10 112 C-10.48984375 111.372226563 -10.9796875 110.744453125 -11.484375 110.09765625 C-13.581373729 105.811779982 -13.364576826 102.1387304 -13.25 97.4375 C-13.24484375 96.587363281 -13.2396875 95.737226562 -13.234375 94.861328125 C-13.186687034 91.061193363 -13.036993966 87.674678519 -12 84 C-10.515 84.495 -10.515 84.495 -9 85 C-7.568413891 88.900614145 -7.659242874 93.135033881 -7.4375 97.25 C-7.372724609 98.367617188 -7.372724609 98.367617188 -7.306640625 99.5078125 C-7.20103275 101.338348997 -7.100057985 103.169151757 -7 105 C-5.515 105.495 -5.515 105.495 -4 106 C-4.144375 104.830820313 -4.28875 103.661640625 -4.4375 102.45703125 C-4.625155544 100.908873013 -4.812646901 99.360694867 -5 97.8125 C-5.095390625 97.043574219 -5.19078125 96.274648437 -5.2890625 95.482421875 C-5.751928936 91.630711894 -6.124674677 87.888291487 -6 84 C-6.66 84 -7.32 84 -8 84 C-8 83.34 -8 82.68 -8 82 C-7.34 82 -6.68 82 -6 82 C-6.193828343 69.131303582 -6.193828343 69.131303582 -10 57 C-11.32 58.32 -12.64 59.64 -14 61 C-19.068782339 59.307482714 -21.511166283 56.871126139 -24.68359375 52.6640625 C-26.941762073 48.094119485 -26.075678193 43.836032213 -25 39 C-23.68 39 -22.36 39 -21 39 C-21 38.34 -21 37.68 -21 37 C-21.86625 36.7525 -22.7325 36.505 -23.625 36.25 C-27 35 -27 35 -29.875 32.875 C-34.055892783 30.36646433 -36.185428783 30.447508221 -41 31 C-42.920051352 32.251179619 -42.920051352 32.251179619 -44 34 C-44.99 34.99 -44.99 34.99 -46 36 C-45.67 34.35 -45.34 32.7 -45 31 C-47.97 30.67 -50.94 30.34 -54 30 C-54.33 30.66 -54.66 31.32 -55 32 C-55 31.34 -55 30.68 -55 30 C-62.790683153 30.424946354 -68.411614906 33.055684025 -74.4375 38 C-78.036806207 42.607111945 -78.105775291 46.474011458 -77.819335938 52.096191406 C-77.161886007 65.330414999 -77.161886007 65.330414999 -81.25 70.625 C-83.605329591 73.091050213 -85.892723766 74.611350002 -89 76 C-88.976796875 76.94359375 -88.95359375 77.8871875 -88.9296875 78.859375 C-88.82362217 86.405165634 -89.135683342 93.287292324 -90.7578125 100.70703125 C-90.837734375 101.463710937 -90.91765625 102.220390625 -91 103 C-90.01 103.99 -90.01 103.99 -89 105 C-88.875 107.625 -88.875 107.625 -89 110 C-87.35 110 -85.7 110 -84 110 C-84.66 109.29875 -85.32 108.5975 -86 107.875 C-88.302332026 104.565397712 -88.36630156 102.937741768 -88 99 C-87.773125 99.53625 -87.54625 100.0725 -87.3125 100.625 C-86.137515222 102.751162931 -84.966157382 104.254981274 -83.375 106.0625 C-81 109 -81 109 -81 112 C-83.64 112 -86.28 112 -89 112 C-89.474375 110.865625 -89.94875 109.73125 -90.4375 108.5625 C-91.636220833 105.242598338 -91.636220833 105.242598338 -93 104 C-92.789357187 101.788250466 -92.567252701 99.577281845 -92.3046875 97.37109375 C-92.064666266 94.715474195 -91.936870061 92.134163695 -91.8828125 89.47265625 C-91.860092773 88.675290527 -91.837373047 87.877924805 -91.813964844 87.056396484 C-91.771794266 85.453431664 -91.748249694 83.849853236 -91.744628906 82.246337891 C-91.561602688 76.536288376 -91.561602688 76.536288376 -88.66015625 73.765625 C-87.782304688 73.18296875 -86.904453125 72.6003125 -86 72 C-82.767377518 67.750609059 -80.179223144 63.732490393 -79.625 58.375 C-79.74875 57.59125 -79.8725 56.8075 -80 56 C-80.3403125 56.640664063 -80.680625 57.281328125 -81.03125 57.94140625 C-86.729034063 68.109526213 -93.93234409 74.310781363 -105 78 C-112.524100375 78.669233833 -119.375198376 79.123919123 -125.64453125 74.4453125 C-127.534634926 72.429928177 -128 70.736766282 -128 68 C-125.818125976 69.01301294 -124.056841777 69.949979236 -122.2421875 71.546875 C-117.743318692 74.4625182 -112.146440163 73.527687989 -107 73 C-99.004112129 71.045204208 -92.962477128 66.938143247 -88.04296875 60.3984375 C-85.11153073 55.522049207 -83.223752192 50.31737911 -81.263671875 44.98828125 C-78.93031686 39.082123083 -76.290403916 35.535335573 -71 32 C-70.401230469 31.587580566 -69.802460938 31.175161133 -69.185546875 30.750244141 C-63.364359312 27.286939156 -57.787846076 27.635415195 -51.1875 27.9375 C-42.821187534 28.292948913 -35.973922562 27.600813452 -28 25 C-26.595246427 24.583978624 -25.190316464 24.168552072 -23.78515625 23.75390625 C-22.556679687 23.360742187 -21.328203125 22.967578125 -20.0625 22.5625 C-18.192714844 21.976621094 -18.192714844 21.976621094 -16.28515625 21.37890625 C-9.972873017 18.729398543 -7.769407145 14.143099268 -4.8125 8.3125 C-1.089527027 1.089527027 -1.089527027 1.089527027 0 0 Z " fill="#343026" transform="translate(187,67)" />
<path d="M0 0 C0.9075 0.78375 1.815 1.5675 2.75 2.375 C5.065302309 4.318102411 7.272647309 5.686830186 10 7 C11.178291986 9.356583971 11.044143724 10.525732359 10.87890625 13.1328125 C10.830566406 13.938476562 10.782226562 14.744140625 10.732421875 15.57421875 C10.676347656 16.415976562 10.620273438 17.257734375 10.5625 18.125 C10.510292969 18.974492188 10.458085938 19.823984375 10.404296875 20.69921875 C10.274486216 22.79979124 10.137882602 24.89994191 10 27 C9.67 27 9.34 27 9 27 C8.505 24.525 8.505 24.525 8 22 C8.33 26.95 8.66 31.9 9 37 C7.666666667 35.666666667 6.333333333 34.333333333 5 33 C5.515625 33.721875 6.03125 34.44375 6.5625 35.1875 C8 38 8 38 8.0625 40.3125 C6.446251324 44.400658416 3.754199626 47.605680583 1 51 C-2.33363045 48.35410993 -3.038264176 45.315010973 -4.1875 41.3125 C-4.531679688 40.133007812 -4.875859375 38.953515625 -5.23046875 37.73828125 C-5.484414063 36.834648437 -5.738359375 35.931015625 -6 35 C-10.833347202 34.916666428 -15.236925626 35.047385125 -20 36 C-18 27.846153846 -18 27.846153846 -15 26 C-11.558296896 26.503480585 -8.953202812 28.034275746 -6 29.8125 C-5.154375 30.313945312 -4.30875 30.815390625 -3.4375 31.33203125 C-0.981961178 33.012343874 0.96961236 34.833313189 3 37 C-1.534564532 29.992036632 -9.651445107 26.480894423 -17 23 C-17 22.01 -17 21.02 -17 20 C-11.632833349 19.161380211 -8.203727612 22.079295952 -4 25 C-5.172195427 24.216542852 -6.337636683 23.422971642 -7.5 22.625 C-8.1496875 22.184140625 -8.799375 21.74328125 -9.46875 21.2890625 C-9.9740625 20.863671875 -10.479375 20.43828125 -11 20 C-11 19.34 -11 18.68 -11 18 C-11.804375 18.185625 -12.60875 18.37125 -13.4375 18.5625 C-14.283125 18.706875 -15.12875 18.85125 -16 19 C-17 18 -17 18 -17.0625 14.9375 C-17.041875 13.968125 -17.02125 12.99875 -17 12 C-16.408320312 11.818242188 -15.816640625 11.636484375 -15.20703125 11.44921875 C-11.594672581 10.300099761 -8.422247894 9.262732023 -5.1875 7.25 C-3 6 -3 6 -0.6875 6.3125 C-0.130625 6.539375 0.42625 6.76625 1 7 C0.67 6.67 0.34 6.34 0 6 C-0.625 3.5 -0.625 3.5 -1 1 C-0.67 0.67 -0.34 0.34 0 0 Z " fill="#E4E0D4" transform="translate(182,80)" />
<path d="M0 0 C0.66 0.99 1.32 1.98 2 3 C3.323815167 4.674236829 4.655766605 6.342112146 6 8 C7.429449453 5.645612666 8.086612612 4.519675673 7.625 1.75 C7.41875 1.1725 7.2125 0.595 7 0 C7.70125 0.33 8.4025 0.66 9.125 1 C12.26003116 2.090445621 14.705631816 2.153226427 18 2 C14.25 4 14.25 4 12 4 C12.558808594 4.831445312 12.558808594 4.831445312 13.12890625 5.6796875 C13.601992188 6.404140625 14.075078125 7.12859375 14.5625 7.875 C15.038164063 8.594296875 15.513828125 9.31359375 16.00390625 10.0546875 C16.332617188 10.696640625 16.661328125 11.33859375 17 12 C16.67 12.66 16.34 13.32 16 14 C14.68 12.02 13.36 10.04 12 8 C11.34 13.94 10.68 19.88 10 26 C10.99 26 11.98 26 13 26 C12.276835937 26.605214844 12.276835937 26.605214844 11.5390625 27.22265625 C9.656225896 29.396998013 9.556771983 30.600900365 9.375 33.4375 C9.061971831 37.842253521 9.061971831 37.842253521 8.26953125 39.859375 C7.83569241 43.304935643 9.693299868 45.884159337 11.3125 48.8125 C13.299316034 52.463622851 15.044116668 55.832310867 16.04296875 59.88671875 C16.358789062 60.914101563 16.674609375 61.941484375 17 63 C17.99 63.33 18.98 63.66 20 64 C19.777475586 63.390031738 19.554951172 62.780063477 19.325683594 62.151611328 C18.324748634 59.377825007 17.34972583 56.59559875 16.375 53.8125 C16.024375 52.852792969 15.67375 51.893085937 15.3125 50.904296875 C14.990234375 49.972949219 14.66796875 49.041601563 14.3359375 48.08203125 C14.032202148 47.228430176 13.728466797 46.374829102 13.415527344 45.495361328 C12.900949733 42.405174629 13.626562052 40.76637265 15 38 C16 40 16 40 16.42578125 43.14453125 C17.018850618 47.126568432 17.971620707 50.862305146 19.1875 54.6875 C19.371191406 55.337832031 19.554882813 55.988164063 19.744140625 56.658203125 C21.339570154 61.658574907 23.57805245 63.388421018 28 66 C28 66.66 28 67.32 28 68 C25.043354807 69.478322596 22.25770263 69.060327826 19 69 C18.67 68.34 18.34 67.68 18 67 C16.515 66.505 16.515 66.505 15 66 C14.617260907 63.981921147 14.238441497 61.963049579 13.875 59.94140625 C12.522647541 55.395328564 10.108082097 51.447654289 7.655517578 47.405761719 C5.838647059 44.266216072 4.973375747 42.385133591 5.2265625 38.72265625 C5.481796875 37.824179687 5.73703125 36.925703125 6 36 C6.185625 35.05125 6.37125 34.1025 6.5625 33.125 C6.706875 32.42375 6.85125 31.7225 7 31 C6.46890625 31.398320313 5.9378125 31.796640625 5.390625 32.20703125 C-1 37 -1 37 -3.070556641 38.315185547 C-5.45073705 40.393589318 -5.632770003 41.468838157 -6.01171875 44.5625 C-6.188642578 45.881210937 -6.188642578 45.881210937 -6.369140625 47.2265625 C-6.526728516 48.599414062 -6.526728516 48.599414062 -6.6875 50 C-6.918562734 51.81275736 -7.151554035 53.625270216 -7.38671875 55.4375 C-7.481706543 56.240585937 -7.576694336 57.043671875 -7.674560547 57.87109375 C-8 60 -8 60 -9 63 C-8.505 63.45375 -8.01 63.9075 -7.5 64.375 C-6 66 -6 66 -6 68 C-7.65 68 -9.3 68 -11 68 C-13.168276359 61.639722679 -14.218384262 58.45453858 -12.5234375 51.83984375 C-11.992884341 48.961394897 -11.873354084 46.184441108 -11.804931641 43.262695312 C-11.575467635 34.855134149 -11.575467635 34.855134149 -9.74609375 32.13671875 C-8.1875 30.9375 -8.1875 30.9375 -5 29 C-0.388981431 23.76320034 -0.530213855 19.419909587 -0.8125 12.8125 C-0.864813533 11.027460179 -0.913163921 9.242298604 -0.95703125 7.45703125 C-0.987727051 6.673039551 -1.018422852 5.889047852 -1.050048828 5.081298828 C-1 3 -1 3 0 0 Z " fill="#69655A" transform="translate(109,109)" />
<path d="M0 0 C0.33 1.65 0.66 3.3 1 5 C1.7425 4.9175 2.485 4.835 3.25 4.75 C6.864041902 5.078549264 7.669780783 6.293938973 10 9 C10.7425 9.7425 11.485 10.485 12.25 11.25 C13.11625 12.11625 13.11625 12.11625 14 13 C11.362785048 12.047672378 9.219965487 11.171848037 7 9.4375 C4.675372094 7.766673692 2.808909406 7.390126306 0 7 C0 7.99 0 8.98 0 10 C0.873984375 10.261679687 1.74796875 10.523359375 2.6484375 10.79296875 C5.976113362 11.99139747 8.645463928 13.419865115 11.625 15.3125 C13.005585938 16.172949219 13.005585938 16.172949219 14.4140625 17.05078125 C17.18087754 19.136341228 19.107912533 21.097260935 21 24 C20.67 24.99 20.34 25.98 20 27 C19.566875 26.154375 19.13375 25.30875 18.6875 24.4375 C15.482955109 19.601760778 10.191984209 16.38983979 5 14 C2.78364696 13.892074066 2.78364696 13.892074066 1 15 C-0.342314418 16.839834239 -0.342314418 16.839834239 -1.25 19.0625 C-1.58515625 19.795976563 -1.9203125 20.529453125 -2.265625 21.28515625 C-2.50796875 21.851054687 -2.7503125 22.416953125 -3 23 C-2.175 22.67 -1.35 22.34 -0.5 22 C3.587398303 20.832171914 6.769233444 20.854111498 11 21 C13 26.333333333 15 31.666666667 17 37 C18.338956323 35.337847323 19.671301422 33.670363926 21 32 C21.8971875 30.9790625 21.8971875 30.9790625 22.8125 29.9375 C24.176009096 28.111946786 24.176009096 28.111946786 23.9375 26.125 C22.630806321 23.163160995 20.857152545 20.645035443 19 18 C18.34 17.01 17.68 16.02 17 15 C21.661076008 16.664670003 21.827437485 18.241156228 25 23 C24.67 17.72 24.34 12.44 24 7 C26.138548496 9.138548496 26.426550627 10.132753136 27 13 C27.99 12.01 28.98 11.02 30 10 C29.690625 10.94875 29.38125 11.8975 29.0625 12.875 C28.165566892 15.907488127 27.884510707 18.658971191 27.75 21.8125 C27.259626715 27.863521284 24.38807842 32.102114751 21 37 C18.772352129 40.341471807 18.75266052 41.408541364 18.76953125 45.3046875 C18.77041748 46.35744873 18.771303711 47.410209961 18.772216797 48.494873047 C18.792156982 50.168035889 18.792156982 50.168035889 18.8125 51.875 C18.822570801 53.006555176 18.832641602 54.138110352 18.843017578 55.303955078 C18.880904029 58.536389877 18.937814881 61.767954795 19 65 C19.013051758 66.16329834 19.013051758 66.16329834 19.026367188 67.350097656 C19.13271863 74.792865004 19.698891404 78.698891404 25 84 C24.505 85.485 24.505 85.485 24 87 C21.125 87.1875 21.125 87.1875 18 87 C16 84 16 84 16 81 C14.515 80.505 14.515 80.505 13 80 C12.34 74.72 11.68 69.44 11 64 C10.9175 66.35125 10.835 68.7025 10.75 71.125 C10.695375977 72.217722168 10.695375977 72.217722168 10.639648438 73.332519531 C10.554034231 78.423803047 11.993354382 81.010867822 15 85 C15 85.66 15 86.32 15 87 C13.02 87 11.04 87 9 87 C10.485 86.505 10.485 86.505 12 86 C11.265234375 85.058339844 11.265234375 85.058339844 10.515625 84.09765625 C8.418626271 79.811779982 8.635423174 76.1387304 8.75 71.4375 C8.75515625 70.587363281 8.7603125 69.737226562 8.765625 68.861328125 C8.813312966 65.061193363 8.963006034 61.674678519 10 58 C11.485 58.495 11.485 58.495 13 59 C14.431586109 62.900614145 14.340757126 67.135033881 14.5625 71.25 C14.605683594 71.995078125 14.648867188 72.74015625 14.693359375 73.5078125 C14.79896725 75.338348997 14.899942015 77.169151757 15 79 C16.485 79.495 16.485 79.495 18 80 C17.855625 78.830820313 17.71125 77.661640625 17.5625 76.45703125 C17.374844456 74.908873013 17.187353099 73.360694867 17 71.8125 C16.856914063 70.659111328 16.856914063 70.659111328 16.7109375 69.482421875 C16.248071064 65.630711894 15.875325323 61.888291487 16 58 C15.34 58 14.68 58 14 58 C14 57.34 14 56.68 14 56 C14.66 56 15.32 56 16 56 C15.806171657 43.131303582 15.806171657 43.131303582 12 31 C10.68 32.32 9.36 33.64 8 35 C2.931217661 33.307482714 0.488833717 30.871126139 -2.68359375 26.6640625 C-4.941762073 22.094119485 -4.075678193 17.836032213 -3 13 C-1.68 13 -0.36 13 1 13 C1 12.34 1 11.68 1 11 C0.0925 10.773125 -0.815 10.54625 -1.75 10.3125 C-5.475174459 8.808102622 -6.834426024 7.331652271 -9 4 C-9 3.34 -9 2.68 -9 2 C-5.629026167 0.501789407 -3.795578809 0 0 0 Z " fill="#737063" transform="translate(165,93)" />
<path d="M0 0 C3.083646818 0.33039073 3.978470969 0.976571349 6.125 3.3125 C7.657383039 5.50891569 8.915950697 7.560889069 10 10 C10.33 7.69 10.66 5.38 11 3 C11.99 2.67 12.98 2.34 14 2 C14.33 5.3 14.66 8.6 15 12 C16.381875 11.195625 17.76375 10.39125 19.1875 9.5625 C22.469649682 7.651994961 25.239701501 6.581076322 29 6 C27.92578125 11.95703125 27.92578125 11.95703125 27 14 C25.35 14.99 23.7 15.98 22 17 C28.435 22.94 28.435 22.94 35 29 C34.67 30.32 34.34 31.64 34 33 C27.287917126 36.356041437 18.659516183 33.091212558 12 31 C11.997421875 31.680625 11.99484375 32.36125 11.9921875 33.0625 C11.614203395 42.537301563 8.587811985 50.35414115 5 59 C3.859588067 55.578764201 4.16873197 54.651319623 5.1796875 51.2890625 C5.583808594 49.916210937 5.583808594 49.916210937 5.99609375 48.515625 C6.286132812 47.56171875 6.576171875 46.6078125 6.875 45.625 C7.436612974 43.742698982 7.996563329 41.859900936 8.5546875 39.9765625 C8.807182617 39.142055664 9.059677734 38.307548828 9.319824219 37.447753906 C10.00550509 34.980188788 10.529022089 32.51656016 11 30 C10.01 30 9.02 30 8 30 C7.9175 30.66 7.835 31.32 7.75 32 C6.752402092 35.990391632 4.92833317 39.38549643 3 43 C2 41 2 41 2.99609375 37.9609375 C3.471757812 36.777578125 3.947421875 35.59421875 4.4375 34.375 C4.910585938 33.186484375 5.383671875 31.99796875 5.87109375 30.7734375 C6.243632813 29.858203125 6.616171875 28.94296875 7 28 C6.01 28 5.02 28 4 28 C4 27.01 4 26.02 4 25 C5.65 24.67 7.3 24.34 9 24 C9.33 22.02 9.66 20.04 10 18 C10.99 17.67 11.98 17.34 13 17 C14.32 18.65 15.64 20.3 17 22 C18.32 21.01 19.64 20.02 21 19 C17.498727223 15.259800281 17.498727223 15.259800281 12.80859375 13.73828125 C11.264937649 13.787908096 9.721763206 13.855735377 8.1796875 13.94140625 C5.075397457 14.024854907 2.78814476 13.327687981 0 12 C-1.875 9.875 -1.875 9.875 -3 8 C-2.443125 8.309375 -1.88625 8.61875 -1.3125 8.9375 C1.125404334 10.057618207 3.362241861 10.560373643 6 11 C4.334337723 7.430723693 2.845993099 4.710469619 0 2 C0 1.34 0 0.68 0 0 Z " fill="#77746D" transform="translate(191,43)" />
<path d="M0 0 C1.65 0 3.3 0 5 0 C6.048450041 2.912361226 5.969252077 4.112010291 5.125 7.1875 C4.957075373 12.309201117 6.920450967 14.301191727 10.04296875 18.1796875 C12.118028236 20.10978275 13.1842831 20.823662174 16 21 C18.752567943 19.148359641 18.752567943 19.148359641 21 17 C24.75058597 25.595092847 24.28499689 33.806211451 24 43 C23.34 43 22.68 43 22 43 C22 43.66 22 44.32 22 45 C22.66 45 23.32 45 24 45 C24.336958616 47.72876308 24.669684285 50.457931627 25 53.1875 C25.095390625 53.956425781 25.19078125 54.725351563 25.2890625 55.517578125 C25.751928936 59.369288106 26.124674677 63.111708513 26 67 C24.68 66.67 23.36 66.34 22 66 C21.951015625 64.914609375 21.90203125 63.82921875 21.8515625 62.7109375 C21.776480144 61.265602155 21.700934719 59.820290814 21.625 58.375 C21.5940625 57.662148438 21.563125 56.949296875 21.53125 56.21484375 C21.287903783 51.794054137 20.48685087 48.201480111 19 44 C18.572132227 41.675779999 18.198432931 39.341038356 17.875 37 C17.707421875 35.824375 17.53984375 34.64875 17.3671875 33.4375 C17.027496874 30.257417548 16.931822292 27.19461258 17 24 C16.419921875 24.2165625 15.83984375 24.433125 15.2421875 24.65625 C10.674461133 26.284350487 6.921953604 27.378611816 2 27 C2.0825 25.700625 2.165 24.40125 2.25 23.0625 C2.28579023 19.250840527 1.642332081 16.862675469 -0.125 13.5 C-2.345841275 9.097143346 -1.944730208 6.300390532 -0.578125 1.65234375 C-0.38734375 1.107070312 -0.1965625 0.561796875 0 0 Z " fill="#E8E5D9" transform="translate(157,106)" />
<path d="M0 0 C0.81832722 1.893325339 1.629422677 3.789777334 2.4375 5.6875 C3.116191406 7.271113281 3.116191406 7.271113281 3.80859375 8.88671875 C4.86608238 11.650057892 5.668323433 14.065164922 6 17 C3.07049054 23.277520272 -2.574577726 26.920579435 -8 31 C-9.20767624 28.58464752 -8.977930357 27.521535924 -8.66015625 24.8671875 C-8.566699219 24.061523438 -8.473242188 23.255859375 -8.376953125 22.42578125 C-8.221298828 21.163144531 -8.221298828 21.163144531 -8.0625 19.875 C-7.962597656 19.025507812 -7.862695312 18.176015625 -7.759765625 17.30078125 C-7.511906162 15.199877229 -7.256648151 13.099848505 -7 11 C-5.68 12.32 -4.36 13.64 -3 15 C-3.495 14.21625 -3.99 13.4325 -4.5 12.625 C-5.947028016 10.092700972 -6 9.66107676 -6 7 C-7.648212439 5.969867226 -9.315037017 4.968853716 -11 4 C-10.67 3.01 -10.34 2.02 -10 1 C-6.785487308 -0.607256346 -3.563874644 -0.057481849 0 0 Z " fill="#E4E1D5" transform="translate(127,105)" />
<path d="M0 0 C3.875 3.75 3.875 3.75 5 6 C4.962019081 8.933295621 4.856480688 11.82408782 4.6875 14.75 C4.652050781 15.54921875 4.616601562 16.3484375 4.580078125 17.171875 C4.326734865 21.769866108 3.711365252 25.669198138 2 30 C1.34 30 0.68 30 0 30 C-0.33 30.99 -0.66 31.98 -1 33 C-3.5625 34.1875 -3.5625 34.1875 -6 35 C-6.060585937 35.580078125 -6.121171875 36.16015625 -6.18359375 36.7578125 C-6.550640566 40.1798182 -6.914865766 43.555410113 -7.5625 46.9375 C-7.959984525 49.719891675 -8.164823946 52.380746226 -8.25 55.1875 C-8.27578125 56.026679688 -8.3015625 56.865859375 -8.328125 57.73046875 C-7.929731156 60.486026173 -7.028684588 61.190199802 -5 63 C-5 63.66 -5 64.32 -5 65 C-6.65 65 -8.3 65 -10 65 C-12.168276359 58.639722679 -13.218384262 55.45453858 -11.5234375 48.83984375 C-10.992884341 45.961394897 -10.873354084 43.184441108 -10.804931641 40.262695312 C-10.575467635 31.855134149 -10.575467635 31.855134149 -8.74609375 29.13671875 C-7.1875 27.9375 -7.1875 27.9375 -4 26 C0.642774942 20.742618 0.496524784 16.271687448 0.25 9.625 C0.231953125 8.698164062 0.21390625 7.771328125 0.1953125 6.81640625 C0.148441972 4.543185646 0.082855251 2.272145931 0 0 Z " fill="#DDDACF" transform="translate(108,112)" />
<path d="M0 0 C-0.475285668 5.50772215 -1.941232794 9.025174546 -4.75 13.75 C-7.260555255 18.343077397 -8.564130995 21.656333058 -7.125 26.875 C-6.465895152 28.602923519 -5.759245034 30.31367682 -5 32 C-2 39.768558952 -2 39.768558952 -2 44 C-3.84375 43.9140625 -3.84375 43.9140625 -6 43 C-7.34375 40.0859375 -7.34375 40.0859375 -8.5 36.375 C-10.331716514 30.601600369 -10.331716514 30.601600369 -13.4375 25.4375 C-15.96745916 19.871589848 -14.939627609 14.687134536 -13 9 C-10.996248248 6.356646692 -8.803062517 4.73075001 -6 3 C-5.236875 2.38125 -4.47375 1.7625 -3.6875 1.125 C-2 0 -2 0 0 0 Z " fill="#E1DED3" transform="translate(131,129)" />
<path d="M0 0 C0.33 0 0.66 0 1 0 C1.793015604 6.0797863 -0.052413863 9.504606727 -3.19921875 14.66796875 C-5 17 -5 17 -7.65625 18.72265625 C-10.717843494 21.697504595 -10.644729015 23.611352297 -10.794921875 27.75 C-10.800722656 28.575 -10.806523438 29.4 -10.8125 30.25 C-10.837636719 31.09046875 -10.862773437 31.9309375 -10.888671875 32.796875 C-10.947399355 34.864082281 -10.976597739 36.932091107 -11 39 C-11.33 37.68 -11.66 36.36 -12 35 C-13.485 35.495 -13.485 35.495 -15 36 C-15.433125 35.0409375 -15.433125 35.0409375 -15.875 34.0625 C-16.828234509 31.847939209 -16.828234509 31.847939209 -19 31 C-19 29.68 -19 28.36 -19 27 C-20.98 27 -22.96 27 -25 27 C-25 25.68 -25 24.36 -25 23 C-22.41031136 21.273540907 -20.073478225 20.128904926 -17.25 18.875 C-9.491223576 15.023846055 -5.21067597 8.813084451 -0.9453125 1.46875 C-0.633359375 0.9840625 -0.32140625 0.499375 0 0 Z " fill="#E4E1D4" transform="translate(107,122)" />
<path d="M0 0 C0.99 0 1.98 0 3 0 C4.767221613 4.528505384 5.092000436 8.164227068 5 13 C7.72929336 12.521546147 10.458436513 12.042261774 13.1875 11.5625 C13.956425781 11.427792969 14.725351563 11.293085937 15.517578125 11.154296875 C19.354655741 10.47910296 23.183995683 9.787672234 27 9 C28.584440517 15.390140265 29.202872761 20.504487093 28 27 C27.67 27 27.34 27 27 27 C26.662233161 25.2508503 26.329963287 23.500638552 26 21.75 C25.814375 20.77546875 25.62875 19.8009375 25.4375 18.796875 C25 16 25 16 25 12 C23.68 12 22.36 12 21 12 C21.245566406 13.241367188 21.245566406 13.241367188 21.49609375 14.5078125 C22.046454702 18.321941891 22.110890547 22.033535006 22.0625 25.875 C22.057988281 26.563359375 22.053476563 27.25171875 22.048828125 27.9609375 C22.037163362 29.640663353 22.019232705 31.320343752 22 33 C21.67 33 21.34 33 21 33 C20.01 23.1 20.01 23.1 19 13 C17.535625 13.33 16.07125 13.66 14.5625 14 C6.763556919 15.526835336 0.617822473 15.620165281 -6.859375 12.75390625 C-9.215807263 11.923994887 -11.54401622 11.442248828 -14 11 C-14.614882813 12.498535156 -14.614882813 12.498535156 -15.2421875 14.02734375 C-15.786107304 15.330875695 -16.33039735 16.634253194 -16.875 17.9375 C-17.144414063 18.596855469 -17.413828125 19.256210937 -17.69140625 19.935546875 C-19.7734375 24.88671875 -19.7734375 24.88671875 -22 26 C-20 20 -18 14 -16 8 C-18.31 9.65 -20.62 11.3 -23 13 C-23.66 12.67 -24.32 12.34 -25 12 C-22.36 9.69 -19.72 7.38 -17 5 C-16.67 5.66 -16.34 6.32 -16 7 C-12.280982927 8.962814566 -10.027840929 9.150811694 -6 8 C-5.7525 8.9590625 -5.7525 8.9590625 -5.5 9.9375 C-4.218214003 12.161192414 -4.218214003 12.161192414 -2.0859375 12.48828125 C-0.064248447 12.727597799 1.968419392 12.868930283 4 13 C3.523435875 11.207639329 3.043665019 9.416131029 2.5625 7.625 C2.295664063 6.627265625 2.028828125 5.62953125 1.75390625 4.6015625 C1.098156436 2.045822993 1.098156436 2.045822993 0 0 Z " fill="#39362D" transform="translate(147,121)" />
<path d="M0 0 C6.216010065 2.064681788 12.88669586 5.992503077 16.2109375 11.734375 C16.2109375 13.054375 16.2109375 14.374375 16.2109375 15.734375 C16.8709375 15.734375 17.5309375 15.734375 18.2109375 15.734375 C17.731612804 20.048297264 16.465139001 21.900070467 13.2109375 24.734375 C10.752377591 19.471147235 8.649172414 14.367461747 7.2109375 8.734375 C2.377590298 8.651041428 -2.025988126 8.781760125 -6.7890625 9.734375 C-4.246730041 -0.630518871 -4.246730041 -0.630518871 0 0 Z " fill="#E7E4D7" transform="translate(168.7890625,106.265625)" />
<path d="M0 0 C0.33 0 0.66 0 1 0 C1.034401855 1.089418945 1.068803711 2.178837891 1.104248047 3.301269531 C1.238779245 7.361464732 1.404671326 11.419887124 1.579833984 15.478515625 C1.651161076 17.23177113 1.71409591 18.985389746 1.768310547 20.739257812 C1.847952506 23.267710633 1.958193124 25.793299095 2.07421875 28.3203125 C2.092159882 29.098674622 2.110101013 29.877036743 2.128585815 30.678985596 C2.438950347 36.471852698 4.160981615 38.73284855 8 43 C7.67 43.99 7.34 44.98 7 46 C4.125 46.1875 4.125 46.1875 1 46 C-1 43 -1 43 -1 40 C-1.99 39.67 -2.98 39.34 -4 39 C-4.66 33.72 -5.32 28.44 -6 23 C-6.0825 25.35125 -6.165 27.7025 -6.25 30.125 C-6.286416016 30.853481445 -6.322832031 31.581962891 -6.360351562 32.332519531 C-6.445965769 37.423803047 -5.006645618 40.010867822 -2 44 C-2 44.66 -2 45.32 -2 46 C-3.98 46 -5.96 46 -8 46 C-6.515 45.505 -6.515 45.505 -5 45 C-5.48984375 44.372226563 -5.9796875 43.744453125 -6.484375 43.09765625 C-8.581373729 38.811779982 -8.364576826 35.1387304 -8.25 30.4375 C-8.24484375 29.587363281 -8.2396875 28.737226562 -8.234375 27.861328125 C-8.186687034 24.061193363 -8.036993966 20.674678519 -7 17 C-6.01 17.33 -5.02 17.66 -4 18 C-2.568413891 21.900614145 -2.659242874 26.135033881 -2.4375 30.25 C-2.394316406 30.995078125 -2.351132812 31.74015625 -2.306640625 32.5078125 C-2.20103275 34.338348997 -2.100057985 36.169151757 -2 38 C-1.01 38.33 -0.02 38.66 1 39 C0.855625 37.830820313 0.71125 36.661640625 0.5625 35.45703125 C0.374844456 33.908873013 0.187353099 32.360694867 0 30.8125 C-0.095390625 30.043574219 -0.19078125 29.274648437 -0.2890625 28.482421875 C-0.751928936 24.630711894 -1.124674677 20.888291487 -1 17 C-1.66 17 -2.32 17 -3 17 C-3 16.34 -3 15.68 -3 15 C-2.34 15 -1.68 15 -1 15 C-1.011601563 14.25234375 -1.023203125 13.5046875 -1.03515625 12.734375 C-1.048691406 11.257109375 -1.048691406 11.257109375 -1.0625 9.75 C-1.074101563 8.77546875 -1.085703125 7.8009375 -1.09765625 6.796875 C-1.011955769 4.34241322 -0.707060665 2.33831086 0 0 Z " fill="#403D34" transform="translate(182,134)" />
<path d="M0 0 C2.97 0 5.94 0 9 0 C9.66 1.32 10.32 2.64 11 4 C13.050008709 4.805288895 13.050008709 4.805288895 15 5 C15 5.66 15 6.32 15 7 C15.66 7 16.32 7 17 7 C17.33 6.34 17.66 5.68 18 5 C18.66 5 19.32 5 20 5 C20 4.01 20 3.02 20 2 C20.99 2 21.98 2 23 2 C23.66 3.32 24.32 4.64 25 6 C25.33 4.35 25.66 2.7 26 1 C26.99 1.33 27.98 1.66 29 2 C28.814375 2.5775 28.62875 3.155 28.4375 3.75 C27.959764535 6.206925246 28.242706359 7.64397534 29 10 C25.83095102 11.58452449 22.459168184 11.295714179 19 11 C16.6875 10 16.6875 10 15 9 C14.01 9 13.02 9 12 9 C11.67 8.67 11.34 8.34 11 8 C10.01 8.66 9.02 9.32 8 10 C4.4375 10.25 4.4375 10.25 1 10 C0.34 9.34 -0.32 8.68 -1 8 C-0.01 7.34 0.98 6.68 2 6 C1.01 6 0.02 6 -1 6 C-0.67 4.02 -0.34 2.04 0 0 Z " fill="#D5A295" transform="translate(67,70)" />
<path d="M0 0 C3.3125 1.375 3.3125 1.375 5.3125 4.375 C4.966081611 7.839183894 4.27963413 9.424298806 2.3125 12.375 C1.92750109 14.030495312 1.584568654 15.697243302 1.3125 17.375 C0.6525 17.375 -0.0075 17.375 -0.6875 17.375 C-0.096452345 12.52840923 1.291941569 8.767518328 3.3125 4.375 C0.977110931 4.336273131 0.977110931 4.336273131 -1.6875 5.375 C-3.168127222 7.124832172 -4.370165041 8.929672721 -5.57421875 10.87890625 C-5.941601563 11.372617187 -6.308984375 11.866328125 -6.6875 12.375 C-7.3475 12.375 -8.0075 12.375 -8.6875 12.375 C-9.0175 11.715 -9.3475 11.055 -9.6875 10.375 C-10.265 10.725625 -10.8425 11.07625 -11.4375 11.4375 C-14.045517763 12.524174068 -15.081676285 12.305651327 -17.6875 11.375 C-17.6875 9.395 -17.6875 7.415 -17.6875 5.375 C-16.799980469 5.102363281 -16.799980469 5.102363281 -15.89453125 4.82421875 C-10.742739431 3.202926165 -10.742739431 3.202926165 -6.0625 0.5625 C-3.6875 -0.625 -3.6875 -0.625 0 0 Z " fill="#AEAA9E" transform="translate(182.6875,86.625)" />
<path d="M0 0 C2.97 0.33 5.94 0.66 9 1 C8.34 2.65 7.68 4.3 7 6 C6.67 4.68 6.34 3.36 6 2 C5.34 2 4.68 2 4 2 C5.432488695 5.422056326 6.88310899 8.770870358 8.5703125 12.078125 C14.089583333 23.116666667 14.089583333 23.116666667 12 30 C10.5 33 10.5 33 9 35 C8.67 35 8.34 35 8 35 C7.961328125 33.874648438 7.961328125 33.874648438 7.921875 32.7265625 C7.517699066 25.433024062 6.136593164 19.594140048 3 13 C2.67 13 2.34 13 2 13 C1.34 8.71 0.68 4.42 0 0 Z " fill="#DFDBCE" transform="translate(133,97)" />
<path d="M0 0 C1.65 0 3.3 0 5 0 C6.036197565 2.878326569 5.937770069 4.342264623 5.375 7.4375 C4.947722407 11.496637134 5.585817303 12.81327884 8 16 C7.01 16.66 6.02 17.32 5 18 C5.66 18.45375 6.32 18.9075 7 19.375 C7.66 19.91125 8.32 20.4475 9 21 C9 21.66 9 22.32 9 23 C10.98 23.33 12.96 23.66 15 24 C11.837594182 26.108270545 10.493425315 26.338174651 6.8125 26.625 C5.911445313 26.699765625 5.010390625 26.77453125 4.08203125 26.8515625 C3.394960938 26.900546875 2.707890625 26.94953125 2 27 C2.0825 25.700625 2.165 24.40125 2.25 23.0625 C2.28579023 19.250840527 1.642332081 16.862675469 -0.125 13.5 C-2.345841275 9.097143346 -1.944730208 6.300390532 -0.578125 1.65234375 C-0.38734375 1.107070312 -0.1965625 0.561796875 0 0 Z " fill="#E2E0D1" transform="translate(157,106)" />
<path d="M0 0 C0.66 0.33 1.32 0.66 2 1 C2.672482467 7.906288192 3.126154199 13.477038657 -1.25 19.1875 C-3.607533475 21.902693468 -5.69600734 23.574604937 -9 25 C-8.976796875 25.94359375 -8.95359375 26.8871875 -8.9296875 27.859375 C-8.82362217 35.405165634 -9.135683342 42.287292324 -10.7578125 49.70703125 C-10.837734375 50.463710937 -10.91765625 51.220390625 -11 52 C-10.34 52.66 -9.68 53.32 -9 54 C-8.875 56.625 -8.875 56.625 -9 59 C-7.35 59 -5.7 59 -4 59 C-4.99 57.948125 -4.99 57.948125 -6 56.875 C-8.302332026 53.565397712 -8.36630156 51.937741768 -8 48 C-7.773125 48.53625 -7.54625 49.0725 -7.3125 49.625 C-6.137515222 51.751162931 -4.966157382 53.254981274 -3.375 55.0625 C-1 58 -1 58 -1 61 C-3.64 61 -6.28 61 -9 61 C-9.474375 59.865625 -9.94875 58.73125 -10.4375 57.5625 C-11.636220833 54.242598338 -11.636220833 54.242598338 -13 53 C-12.789357187 50.788250466 -12.567252701 48.577281845 -12.3046875 46.37109375 C-12.064666266 43.715474195 -11.936870061 41.134163695 -11.8828125 38.47265625 C-11.860092773 37.675290527 -11.837373047 36.877924805 -11.813964844 36.056396484 C-11.771794266 34.453431664 -11.748249694 32.849853236 -11.744628906 31.246337891 C-11.561602688 25.536288376 -11.561602688 25.536288376 -8.66015625 22.765625 C-7.343378906 21.891640625 -7.343378906 21.891640625 -6 21 C-2.767377518 16.750609059 -0.179223144 12.732490393 0.375 7.375 C0.25125 6.59125 0.1275 5.8075 0 5 C-1.485 7.475 -1.485 7.475 -3 10 C-3.33 9.34 -3.66 8.68 -4 8 C-3.22265625 6.0546875 -3.22265625 6.0546875 -2.0625 3.875 C-1.682226563 3.150546875 -1.301953125 2.42609375 -0.91015625 1.6796875 C-0.609804688 1.125390625 -0.309453125 0.57109375 0 0 Z " fill="#343026" transform="translate(107,118)" />
<path d="M0 0 C0.99 0.33 1.98 0.66 3 1 C2.01 1.66 1.02 2.32 0 3 C0 3.66 0 4.32 0 5 C3.63 5.99 7.26 6.98 11 8 C8.525 6.515 8.525 6.515 6 5 C6.66 4.67 7.32 4.34 8 4 C9.670637472 4.99335201 11.33675599 5.994317575 13 7 C15.692549907 7.706707279 15.692549907 7.706707279 18 8 C17.505 7.38125 17.01 6.7625 16.5 6.125 C15 4 15 4 15 2 C16.9375 2.75 16.9375 2.75 19 4 C19.75 6.125 19.75 6.125 20 8 C15.894660158 10.736893228 12.821835452 10.494363516 8 10 C4.276075883 9.170863742 0.639027255 8.142722577 -3 7 C-3.002578125 7.680625 -3.00515625 8.36125 -3.0078125 9.0625 C-3.385796605 18.537301563 -6.412188015 26.35414115 -10 35 C-11.140411933 31.578764201 -10.83126803 30.651319623 -9.8203125 27.2890625 C-9.550898437 26.373828125 -9.281484375 25.45859375 -9.00390625 24.515625 C-8.713867188 23.56171875 -8.423828125 22.6078125 -8.125 21.625 C-7.563387026 19.742698982 -7.003436671 17.859900936 -6.4453125 15.9765625 C-6.192817383 15.142055664 -5.940322266 14.307548828 -5.680175781 13.447753906 C-4.99449491 10.980188788 -4.470977911 8.51656016 -4 6 C-4.99 6 -5.98 6 -7 6 C-7.0825 6.66 -7.165 7.32 -7.25 8 C-8.247597908 11.990391632 -10.07166683 15.38549643 -12 19 C-13 17 -13 17 -12.21484375 14.28515625 C-8.726523888 5.484349259 -8.726523888 5.484349259 -4.8125 2.875 C-3.4203125 2.441875 -3.4203125 2.441875 -2 2 C-1.34 1.34 -0.68 0.68 0 0 Z " fill="#312F26" transform="translate(206,67)" />
<path d="M0 0 C5.660333463 1.635207445 5.660333463 1.635207445 7.42578125 3.53125 C9.431524491 5.402613421 10.669585749 5.479746346 13.375 5.6875 C14.17421875 5.7596875 14.9734375 5.831875 15.796875 5.90625 C18.07524808 6.062177106 18.07524808 6.062177106 20.625 5.6875 C24.644853028 6.21642803 27.165435996 9.255292492 30 12 C27.947663154 14.247797498 26.993327393 15.002224202 24 16 C23.67 14.02 23.34 12.04 23 10 C21.02 10 19.04 10 17 10 C16.67 11.98 16.34 13.96 16 16 C14.68 16.33 13.36 16.66 12 17 C10.19588033 14.240758151 9.987275503 13.110278972 10.375 9.75 C10.58125 8.8425 10.7875 7.935 11 7 C9.39125 7.12375 9.39125 7.12375 7.75 7.25 C4 7 4 7 1.5625 5.1875 C0 3 0 3 0 0 Z " fill="#C3C1B9" transform="translate(183,50)" />
<path d="M0 0 C0.33 1.65 0.66 3.3 1 5 C1.7425 4.9175 2.485 4.835 3.25 4.75 C6.864041902 5.078549264 7.669780783 6.293938973 10 9 C10.7425 9.7425 11.485 10.485 12.25 11.25 C13.11625 12.11625 13.11625 12.11625 14 13 C11.362785048 12.047672378 9.219965487 11.171848037 7 9.4375 C4.675372094 7.766673692 2.808909406 7.390126306 0 7 C0 7.99 0 8.98 0 10 C0.873984375 10.261679687 1.74796875 10.523359375 2.6484375 10.79296875 C5.976113362 11.99139747 8.645463928 13.419865115 11.625 15.3125 C13.005585938 16.172949219 13.005585938 16.172949219 14.4140625 17.05078125 C17.18087754 19.136341228 19.107912533 21.097260935 21 24 C20.67 24.99 20.34 25.98 20 27 C19.566875 26.154375 19.13375 25.30875 18.6875 24.4375 C15.399433623 19.528886623 10.283074666 16.440631677 5 14 C2.177302097 13.728400202 0.729371311 14.090209563 -2 15 C-2.33 14.34 -2.66 13.68 -3 13 C-1.68 13 -0.36 13 1 13 C1 12.34 1 11.68 1 11 C0.0925 10.773125 -0.815 10.54625 -1.75 10.3125 C-5.475174459 8.808102622 -6.834426024 7.331652271 -9 4 C-9 3.34 -9 2.68 -9 2 C-5.629026167 0.501789407 -3.795578809 0 0 0 Z " fill="#7A766B" transform="translate(165,93)" />
<path d="M0 0 C0.66 0 1.32 0 2 0 C5.111877965 3.241539547 5.862059026 6.732721346 7 11 C7.950821036 13.687716888 8.973271446 16.339839655 10 19 C10.99 17.02 11.98 15.04 13 13 C13.33 13.99 13.66 14.98 14 16 C13.46375 17.0725 12.9275 18.145 12.375 19.25 C10.552171582 22.977348825 10.552171582 22.977348825 12.3125 26.625 C12.869375 27.73875 13.42625 28.8525 14 30 C14.1875 32.9375 14.1875 32.9375 14 35 C11.36 34.67 8.72 34.34 6 34 C6.144375 33.175 6.28875 32.35 6.4375 31.5 C6.623125 30.345 6.80875 29.19 7 28 C7.2578125 26.77796875 7.515625 25.5559375 7.78125 24.296875 C8.399712043 19.279883185 6.513147204 16.011290675 4.0625 11.75 C3.296324781 10.373698606 2.536930883 8.993594959 1.78515625 7.609375 C1.272874756 6.711704102 1.272874756 6.711704102 0.750244141 5.795898438 C0 4 0 4 0 0 Z " fill="#8B877B" transform="translate(137,99)" />
<path d="M0 0 C0 3 0 3 -1.4609375 4.53515625 C-2.092578125 5.039179687 -2.72421875 5.543203125 -3.375 6.0625 C-5.351316927 7.660632824 -7.199939811 9.199939811 -9 11 C-13.060511512 15.060511512 -18.357756518 15.333053297 -23.875 15.4375 C-29.386276556 15.355851458 -33.196998574 14.764366736 -37.64453125 11.4453125 C-39.534634926 9.429928177 -40 7.736766282 -40 5 C-37.810541788 6.01653417 -36.059962812 6.946461775 -34.25 8.5625 C-30.936800831 10.679266136 -27.90140822 10.622444366 -24 11 C-23.34 11.33 -22.68 11.66 -22 12 C-13.419365785 10.55637723 -5.961937619 6.279658433 0 0 Z " fill="#615D55" transform="translate(99,130)" />
<path d="M0 0 C0.33 0 0.66 0 1 0 C0.9175 0.969375 0.835 1.93875 0.75 2.9375 C0.723152573 6.266580983 1.534006851 8.46421812 3 11.4375 C5.171685614 15.918999642 5.433871055 19.053869974 5 24 C4.67 24.66 4.34 25.32 4 26 C2.68 26 1.36 26 0 26 C-0.699510629 23.586238001 -1.384839194 21.169897664 -2.0625 18.75 C-2.261660156 18.068085938 -2.460820313 17.386171875 -2.666015625 16.68359375 C-4.401358567 10.412003468 -4.401358567 10.412003468 -3 7 C-2.751210937 6.36578125 -2.502421875 5.7315625 -2.24609375 5.078125 C-1.497395833 3.385416667 -0.748697917 1.692708333 0 0 Z " fill="#9A9788" transform="translate(155,108)" />
<path d="M0 0 C0.99 0 1.98 0 3 0 C1.74034951 9.01856149 -1.340807423 17.531270506 -8.21875 23.73046875 C-10.664319059 25.473473013 -13.08059385 26.359154748 -16 27 C-12.852811123 23.731765397 -9.506475008 20.868934097 -6 18 C-13.98441265 24.704579657 -22.466677847 28.95339238 -33 29 C-29.858604966 26.905736644 -27.503156824 26.26028092 -23.875 25.3125 C-16.114571942 22.985236736 -10.819523582 19.429150302 -5.6875 13.1875 C-3.429812461 8.922979094 -1.679136927 4.519379177 0 0 Z " fill="#423F37" transform="translate(105,114)" />
<path d="M0 0 C0 1.98 0 3.96 0 6 C-0.922324219 6.164355469 -0.922324219 6.164355469 -1.86328125 6.33203125 C-3.075644531 6.569863281 -3.075644531 6.569863281 -4.3125 6.8125 C-5.513261719 7.038730469 -5.513261719 7.038730469 -6.73828125 7.26953125 C-9.234455868 8.075722362 -10.324221058 9.02052002 -12 11 C-11.01 12.98 -10.02 14.96 -9 17 C-10.32 18.32 -11.64 19.64 -13 21 C-15.6652255 17.688659227 -16.961321245 15.73489634 -17.1875 11.4375 C-15.201761239 5.68930885 -10.849743219 4.031587564 -5.75 1.1875 C-3 0 -3 0 0 0 Z " fill="#E1DFD3" transform="translate(127,97)" />
<path d="M0 0 C2.630822068 -0.398609404 4.413519389 -0.356697775 6.71484375 1.04296875 C7.922518057 1.944099907 9.12028636 2.858635801 10.30859375 3.78515625 C12.033054235 5.156467235 12.033054235 5.156467235 14.5625 5.8125 C19.421550493 8.179729727 22.072212046 13.608318069 25 18 C24.75 20.625 24.75 20.625 24 23 C23.34 23.33 22.68 23.66 22 24 C22 23.34 22 22.68 22 22 C21.34 22 20.68 22 20 22 C20 20.96875 20 19.9375 20 18.875 C19.486390748 15.425489213 18.370252246 14.049663463 15.625 11.9375 C10.643051931 8.576949575 5.330380518 5.763175195 0 3 C0 2.01 0 1.02 0 0 Z " fill="#D9D6CD" transform="translate(165,100)" />
<path d="M0 0 C1.9375 0.375 1.9375 0.375 4 1 C4.33 1.66 4.66 2.32 5 3 C6.32 3 7.64 3 9 3 C8.67 4.32 8.34 5.64 8 7 C8.66 7.33 9.32 7.66 10 8 C9.67 9.65 9.34 11.3 9 13 C7.35 13 5.7 13 4 13 C4 12.34 4 11.68 4 11 C3.34 11 2.68 11 2 11 C1.67 11.99 1.34 12.98 1 14 C-1.0625 13.0625 -1.0625 13.0625 -3 11 C-3.059897457 7.928894018 -2.580522453 5.009882717 -2 2 C-1.34 2 -0.68 2 0 2 C0 1.34 0 0.68 0 0 Z " fill="#D6A698" transform="translate(110,48)" />
<path d="M0 0 C0.86625 0.37125 0.86625 0.37125 1.75 0.75 C0.7909375 1.8946875 0.7909375 1.8946875 -0.1875 3.0625 C-2.392327808 5.63246713 -2.392327808 5.63246713 -3.25 8.75 C-0.28 8.09 2.69 7.43 5.75 6.75 C5.09 8.07 4.43 9.39 3.75 10.75 C3.09 10.75 2.43 10.75 1.75 10.75 C1.701015625 11.364882812 1.65203125 11.979765625 1.6015625 12.61328125 C1.526796875 13.421523437 1.45203125 14.229765625 1.375 15.0625 C1.305390625 15.863007813 1.23578125 16.663515625 1.1640625 17.48828125 C0.75 19.75 0.75 19.75 -1.25 22.75 C-1.527148437 22.039726562 -1.804296875 21.329453125 -2.08984375 20.59765625 C-2.452070313 19.678554687 -2.814296875 18.759453125 -3.1875 17.8125 C-3.547148437 16.895976562 -3.906796875 15.979453125 -4.27734375 15.03515625 C-5.049621804 12.825814667 -5.049621804 12.825814667 -6.25 11.75 C-6.835467852 4.607292211 -6.835467852 4.607292211 -4.5 1.1875 C-2.25 -0.25 -2.25 -0.25 0 0 Z " fill="#E3E0D3" transform="translate(148.25,97.25)" />
<path d="M0 0 C0.99 0 1.98 0 3 0 C2.679208886 9.944524545 -0.694074526 18.719144998 -4 28 C-4.33 28 -4.66 28 -5 28 C-5.33 23.38 -5.66 18.76 -6 14 C-5.34 14 -4.68 14 -4 14 C-3.896875 12.989375 -3.79375 11.97875 -3.6875 10.9375 C-2.962952335 6.787817916 -1.777307337 3.78643737 0 0 Z " fill="#DFDDD0" transform="translate(199,73)" />
<path d="M0 0 C3 1 3 1 6 3 C7.655495312 3.38499891 9.322243302 3.727931346 11 4 C10.01 5.485 10.01 5.485 9 7 C8.606122124 9.323879466 8.265139152 11.657937493 8 14 C7.34 13.67 6.68 13.34 6 13 C6.33 11.68 6.66 10.36 7 9 C6.34 9 5.68 9 5 9 C5 10.65 5 12.3 5 14 C4.67 14 4.34 14 4 14 C4 12.35 4 10.7 4 9 C3.34 9 2.68 9 2 9 C2 10.65 2 12.3 2 14 C1.34 14 0.68 14 0 14 C-0.33 12.02 -0.66 10.04 -1 8 C-1.99 7.67 -2.98 7.34 -4 7 C-4.33 6.01 -4.66 5.02 -5 4 C-4.360625 3.525625 -3.72125 3.05125 -3.0625 2.5625 C-1.117066937 1.162612736 -1.117066937 1.162612736 0 0 Z " fill="#D6B2A5" transform="translate(109,66)" />
</svg>