<?xml version='1.0' encoding='utf-8'?>
<svg xmlns="http://www.w3.org/2000/svg" version="1.1" width="155" height="144" viewBox="43.875 43.0 155.455 144.52150157900002">
<path d="M0 0 C3.299127741 0.380668585 6.511210273 0.888911426 9.75 1.625 C12.159211794 2.206867025 12.159211794 2.206867025 15 1 C21.184328948 0.419521471 26.257995289 1.060975904 31.9921875 3.44140625 C35.109097292 4.308562087 37.183367989 3.408316005 40 2 C41.99960012 1.960007998 44.000472422 1.956532009 46 2 C46.8125 4.0625 46.8125 4.0625 47 7 C45.589737074 9.546892747 43.860239647 11.766425061 42 14 C55.181754086 22.47398477 67.081939975 24.37022594 82.1875 21.5 C102.649386333 17.687665964 102.649386333 17.687665964 109.9765625 21.58203125 C112.507488573 23.581539311 114.735921141 25.706571971 117 28 C118.265760874 28.944337345 119.536156968 29.882515013 120.8125 30.8125 C128.896807138 37.912301351 131.029512791 51.037442897 134 61 C134.33 61.99 134.66 62.98 135 64 C132.67578125 63.78515625 132.67578125 63.78515625 130 63 C128.41796875 60.93359375 128.41796875 60.93359375 127.1875 58.4375 C126.768554688 57.611210938 126.349609375 56.784921875 125.91796875 55.93359375 C125.463574219 54.976464844 125.463574219 54.976464844 125 54 C124.912709533 58.062364018 124.859510081 62.124485895 124.8125 66.1875 C124.787363281 67.337988281 124.762226563 68.488476562 124.736328125 69.673828125 C124.726660156 70.785644531 124.716992188 71.897460938 124.70703125 73.04296875 C124.691320801 74.064147949 124.675610352 75.085327148 124.659423828 76.137451172 C124.80775384 79.067243712 124.80775384 79.067243712 126.497802734 81.469970703 C128.389998606 84.656843093 128.359019698 86.751442909 128.328125 90.4375 C128.32296875 91.662109375 128.3178125 92.88671875 128.3125 94.1484375 C128.291875 95.419453125 128.27125 96.69046875 128.25 98 C128.24484375 99.271015625 128.2396875 100.54203125 128.234375 101.8515625 C128.148439381 112.056417254 128.148439381 112.056417254 127 117 C118.571428571 119.428571429 118.571428571 119.428571429 114 118 C114.612776117 115.038248769 115.253725218 113.619412173 117 111 C118.853880869 104.036062891 118.780251146 96.288201257 117.125 89.3125 C112.297121696 81.786689703 105.447820225 75.85727406 98 71 C98.342246094 72.051875 98.342246094 72.051875 98.69140625 73.125 C98.978867187 74.07375 99.266328125 75.0225 99.5625 76 C99.852539062 76.928125 100.142578125 77.85625 100.44140625 78.8125 C101.819821055 86.678139728 99.041214118 93.168858178 96.0625 100.3125 C95.702207031 101.205175781 95.341914062 102.097851563 94.970703125 103.017578125 C93.507472193 106.598856041 92.154199476 109.768700787 90 113 C86.476395468 114.435542587 82.748005351 114.072077026 79 114 C78.67 112.68 78.34 111.36 78 110 C78.928125 109.484375 79.85625 108.96875 80.8125 108.4375 C85.156735426 105.548173608 86.278337754 101.493015033 87.6875 96.625 C88.354924796 91.018631712 88.881807797 86.023230192 86 81 C81.555443022 81.551129535 81.555443022 81.551129535 77.1875 82.5 C74.219761823 83.178340155 71.285034936 83.350047554 68.25 83.5625 C67.07953125 83.646289062 65.9090625 83.730078125 64.703125 83.81640625 C63.81109375 83.876992187 62.9190625 83.937578125 62 84 C61.769257813 85.029960937 61.538515625 86.059921875 61.30078125 87.12109375 C59.537380868 94.876381681 57.659202991 102.59464394 55.5 110.25 C55.310910645 110.951813965 55.121821289 111.65362793 54.927001953 112.376708984 C53.675637105 116.697558139 52.096275466 119.731709231 49 123 C45.956996842 124.521501579 43.345915002 124.238993929 40 124 C39.34 123.01 38.68 122.02 38 121 C34.416427587 120.749841272 34.416427587 120.749841272 31 121 C30.67 119.68 30.34 118.36 30 117 C31.485 116.01 31.485 116.01 33 115 C34.177763706 108.255372695 32.582173752 100.903713592 31.375 94.25 C31.234492187 93.363125 31.093984375 92.47625 30.94921875 91.5625 C29.968445948 86.07017231 28.369902535 81.344236606 26.06640625 76.2578125 C22.497140767 68.28688873 20.806810684 60.202187015 19.189208984 51.651855469 C17.703734567 43.930453306 16.365789904 38.108197542 10.589111328 32.547119141 C6.547762676 28.612562925 5.089077013 23.404014407 4.9453125 17.91015625 C4.938387634 15.940032 4.966612653 13.969853497 5 12 C4.195625 11.71125 3.39125 11.4225 2.5625 11.125 C0 10 0 10 -1 8 C-1.125 4.4375 -1.125 4.4375 -1 1 C-0.67 0.67 -0.34 0.34 0 0 Z " fill="#ECE7D9" transform="translate(55,53)" />
<path d="M0 0 C3.299127741 0.380668585 6.511210273 0.888911426 9.75 1.625 C12.159211794 2.206867025 12.159211794 2.206867025 15 1 C21.184328948 0.419521471 26.257995289 1.060975904 31.9921875 3.44140625 C35.109097292 4.308562087 37.183367989 3.408316005 40 2 C41.99960012 1.960007998 44.000472422 1.956532009 46 2 C46.8125 4.0625 46.8125 4.0625 47 7 C45.589737074 9.546892747 43.860239647 11.766425061 42 14 C45.938285355 16.316638444 49.692351847 18.43358249 54 20 C50.696685999 20.88935377 47.377056252 21.462741051 44 22 C39.851476024 33.823293331 36.468627527 45.417350891 36 58 C36.99 58 37.98 58 39 58 C38.67 59.65 38.34 61.3 38 63 C39.32 63 40.64 63 42 63 C42.02578125 63.643242187 42.0515625 64.286484375 42.078125 64.94921875 C42.502050555 71.70312361 43.919675579 77.641970298 46.0625 84.0546875 C49.016574989 93.335406423 49.561541251 104.782946009 46 114 C44.495170367 116.542643173 42.866228992 118.691769404 41 121 C43.31 121 45.62 121 48 121 C51.077580277 115.265705125 53.121527631 109.788566257 54.75 103.5 C54.970429688 102.677578125 55.190859375 101.85515625 55.41796875 101.0078125 C55.953003095 99.007249297 56.477614933 97.003903371 57 95 C57.33 95 57.66 95 58 95 C58.299962693 100.257679418 57.236774714 104.584847815 55.75 109.5625 C55.545039062 110.304355469 55.340078125 111.046210938 55.12890625 111.810546875 C53.806776474 116.309794569 52.316197021 119.544522704 49 123 C45.956996842 124.521501579 43.345915002 124.238993929 40 124 C39.34 123.01 38.68 122.02 38 121 C34.416427587 120.749841272 34.416427587 120.749841272 31 121 C30.67 119.68 30.34 118.36 30 117 C31.485 116.01 31.485 116.01 33 115 C34.177763706 108.255372695 32.582173752 100.903713592 31.375 94.25 C31.234492187 93.363125 31.093984375 92.47625 30.94921875 91.5625 C29.968445948 86.07017231 28.369902535 81.344236606 26.06640625 76.2578125 C22.497140767 68.28688873 20.806810684 60.202187015 19.189208984 51.651855469 C17.703734567 43.930453306 16.365789904 38.108197542 10.589111328 32.547119141 C6.547762676 28.612562925 5.089077013 23.404014407 4.9453125 17.91015625 C4.938387634 15.940032 4.966612653 13.969853497 5 12 C4.195625 11.71125 3.39125 11.4225 2.5625 11.125 C0 10 0 10 -1 8 C-1.125 4.4375 -1.125 4.4375 -1 1 C-0.67 0.67 -0.34 0.34 0 0 Z " fill="#DFDBCD" transform="translate(55,53)" />
<path d="M0 0 C2.530926073 1.999508061 4.759358641 4.124540721 7.0234375 6.41796875 C8.289198374 7.362306095 9.559594468 8.300483763 10.8359375 9.23046875 C18.920244638 16.330270101 21.052950291 29.455411647 24.0234375 39.41796875 C24.3534375 40.40796875 24.6834375 41.39796875 25.0234375 42.41796875 C22.69921875 42.203125 22.69921875 42.203125 20.0234375 41.41796875 C18.44140625 39.3515625 18.44140625 39.3515625 17.2109375 36.85546875 C16.791992188 36.029179688 16.373046875 35.202890625 15.94140625 34.3515625 C15.487011719 33.394433594 15.487011719 33.394433594 15.0234375 32.41796875 C14.936147033 36.480332768 14.882947581 40.542454645 14.8359375 44.60546875 C14.810800781 45.755957031 14.785664063 46.906445312 14.759765625 48.091796875 C14.750097656 49.203613281 14.740429688 50.315429688 14.73046875 51.4609375 C14.714758301 52.482116699 14.699047852 53.503295898 14.682861328 54.555419922 C14.83119134 57.485212462 14.83119134 57.485212462 16.521240234 59.887939453 C18.413436106 63.074811843 18.382457198 65.169411659 18.3515625 68.85546875 C18.34640625 70.080078125 18.34125 71.3046875 18.3359375 72.56640625 C18.3153125 73.837421875 18.2946875 75.1084375 18.2734375 76.41796875 C18.26828125 77.688984375 18.263125 78.96 18.2578125 80.26953125 C18.171876881 90.474386004 18.171876881 90.474386004 17.0234375 95.41796875 C8.594866071 97.846540179 8.594866071 97.846540179 4.0234375 96.41796875 C4.636213617 93.456217519 5.277162718 92.037380923 7.0234375 89.41796875 C8.877318369 82.454031641 8.803688646 74.706170007 7.1484375 67.73046875 C2.320559196 60.204658453 -4.528742275 54.27524281 -11.9765625 49.41796875 C-11.634316406 50.46984375 -11.634316406 50.46984375 -11.28515625 51.54296875 C-10.997695313 52.49171875 -10.710234375 53.44046875 -10.4140625 54.41796875 C-9.979003906 55.81015625 -9.979003906 55.81015625 -9.53515625 57.23046875 C-8.156741445 65.096108478 -10.935348382 71.586826928 -13.9140625 78.73046875 C-14.454501953 80.069482422 -14.454501953 80.069482422 -15.005859375 81.435546875 C-16.469090307 85.016824791 -17.822363024 88.186669537 -19.9765625 91.41796875 C-23.500167032 92.853511337 -27.228557149 92.490045776 -30.9765625 92.41796875 C-31.3065625 91.09796875 -31.6365625 89.77796875 -31.9765625 88.41796875 C-30.584375 87.64453125 -30.584375 87.64453125 -29.1640625 86.85546875 C-24.819827074 83.966142358 -23.698224746 79.910983783 -22.2890625 75.04296875 C-21.621637704 69.436600462 -21.094754703 64.441198942 -23.9765625 59.41796875 C-28.421119478 59.969098285 -28.421119478 59.969098285 -32.7890625 60.91796875 C-35.756800677 61.596308905 -38.691527564 61.768016304 -41.7265625 61.98046875 C-42.89703125 62.064257812 -44.0675 62.148046875 -45.2734375 62.234375 C-46.16546875 62.294960938 -47.0575 62.355546875 -47.9765625 62.41796875 C-48.9665625 66.04796875 -49.9565625 69.67796875 -50.9765625 73.41796875 C-51.3065625 73.41796875 -51.6365625 73.41796875 -51.9765625 73.41796875 C-51.252323228 67.071542137 -50.215014789 60.820543052 -49.0390625 54.54296875 C-48.869550781 53.59421875 -48.700039062 52.64546875 -48.525390625 51.66796875 C-48.355878906 50.763046875 -48.186367187 49.858125 -48.01171875 48.92578125 C-47.860979004 48.107387695 -47.710239258 47.288994141 -47.554931641 46.445800781 C-46.9765625 44.41796875 -46.9765625 44.41796875 -44.9765625 42.41796875 C-44.9765625 45.71796875 -44.9765625 49.01796875 -44.9765625 52.41796875 C-45.3065625 52.41796875 -45.6365625 52.41796875 -45.9765625 52.41796875 C-46.3065625 54.72796875 -46.6365625 57.03796875 -46.9765625 59.41796875 C-44.580416749 59.276309819 -42.184733532 59.12978034 -39.7890625 58.98046875 C-39.115527344 58.941152344 -38.441992188 58.901835938 -37.748046875 58.861328125 C-34.079571483 58.6286931 -30.559620438 58.245898643 -26.9765625 57.41796875 C-26.6465625 56.42796875 -26.3165625 55.43796875 -25.9765625 54.41796875 C-25.1103125 54.37671875 -24.2440625 54.33546875 -23.3515625 54.29296875 C-18.968725665 53.156677719 -16.416770934 51.24774032 -13.9765625 47.41796875 C-13.47372629 43.665066676 -13.47372629 43.665066676 -13.9765625 40.41796875 C-13.3165625 40.08796875 -12.6565625 39.75796875 -11.9765625 39.41796875 C-11.96109375 40.427304687 -11.945625 41.436640625 -11.9296875 42.4765625 C-11.179509475 47.689775176 -7.563417576 50.218058078 -3.7265625 53.48046875 C-2.384946174 54.655352411 -1.046349255 55.833693771 0.2890625 57.015625 C0.929082031 57.58168457 1.569101563 58.147744141 2.228515625 58.730957031 C4.760533626 61.110750881 6.861615701 63.69991178 9.0234375 66.41796875 C9.6834375 67.07796875 10.3434375 67.73796875 11.0234375 68.41796875 C11.098331429 62.94111016 11.152386521 57.464558302 11.188232422 51.987304688 C11.203196546 50.129178855 11.223575226 48.271087581 11.249755859 46.413085938 C11.441893194 32.413432337 11.302587788 19.376741388 3.0234375 7.41796875 C2.314453125 6.354492188 1.60546875 5.291015625 0.875 4.1953125 C-2.208083496 1.192473643 -3.703669472 0.715106307 -7.953857422 0.73828125 C-9.078846436 0.796289062 -9.078846436 0.796289062 -10.2265625 0.85546875 C-11.010715332 0.874804688 -11.794868164 0.894140625 -12.602783203 0.9140625 C-18.908436832 1.156320728 -25.057357606 2.060220813 -31.229492188 3.349365234 C-38.225729828 4.808210342 -43.665802097 4.844309569 -50.4140625 2.41796875 C-51.464648438 2.04671875 -52.515234375 1.67546875 -53.59765625 1.29296875 C-54.382695313 1.00421875 -55.167734375 0.71546875 -55.9765625 0.41796875 C-52.292798114 -0.94638843 -50.498153963 -0.0781675 -46.9765625 1.41796875 C-40.466428354 2.270486317 -34.173478475 1.161733104 -27.7890625 -0.08203125 C-7.342062808 -3.902277477 -7.342062808 -3.902277477 0 0 Z " fill="#383329" transform="translate(164.9765625,74.58203125)" />
<path d="M0 0 C1.335999208 0.322482567 2.66893378 0.657725829 4 1 C5.32 1 6.64 1 8 1 C10.753839234 2.376919617 11.514831007 4.367200421 13 7 C13.6496875 5.7934375 13.6496875 5.7934375 14.3125 4.5625 C16 2 16 2 19 1 C19.33 2.32 19.66 3.64 20 5 C20.66 4.34 21.32 3.68 22 3 C23.732840231 5.330685285 25.462126899 7.663792496 27.1875 10 C27.947523193 11.028067627 27.947523193 11.028067627 28.722900391 12.076904297 C31.290204918 15.575587595 33.740329483 19.064794594 35.9375 22.8125 C37.989852928 25.984318161 38.718617447 26.595650473 42 28 C41.649375 27.401875 41.29875 26.80375 40.9375 26.1875 C40 24 40 24 41 21 C41.470507812 21.831445312 41.941015625 22.662890625 42.42578125 23.51953125 C43.048398437 24.606210937 43.671015625 25.692890625 44.3125 26.8125 C45.234824219 28.430917969 45.234824219 28.430917969 46.17578125 30.08203125 C47.653912557 32.446408309 48.925105555 34.180477179 51 36 C50.505 36.99 50.505 36.99 50 38 C49.01 38 48.02 38 47 38 C44.312324219 40.437500247 44.312324219 40.437500247 42 43 C40.34786411 41.569748059 38.703474109 40.130544553 37.0625 38.6875 C36.145976563 37.886992187 35.229453125 37.086484375 34.28515625 36.26171875 C32 34 32 34 31 31 C30.913632812 31.746367187 30.827265625 32.492734375 30.73828125 33.26171875 C29.855111656 36.537390103 28.745666099 37.634024602 26.1875 39.8125 C25.500429688 40.417070313 24.813359375 41.021640625 24.10546875 41.64453125 C22 43 22 43 18 43 C17.67 43.66 17.34 44.32 17 45 C12.817205638 47.252879826 8.820556296 47.240272214 4.1875 47.125 C3.148193359 47.111464844 3.148193359 47.111464844 2.087890625 47.09765625 C0.391776047 47.074261566 -1.304158708 47.038396407 -3 47 C-3 44.36 -3 41.72 -3 39 C-2.67 39 -2.34 39 -2 39 C-2.011601563 38.312929688 -2.023203125 37.625859375 -2.03515625 36.91796875 C-2.044179688 36.016914063 -2.053203125 35.115859375 -2.0625 34.1875 C-2.074101563 33.294179687 -2.085703125 32.400859375 -2.09765625 31.48046875 C-2 29 -2 29 -1 26 C-1.308064531 23.923521238 -1.308064531 23.923521238 -1.9375 21.8125 C-2.288125 20.554375 -2.63875 19.29625 -3 18 C-4.32 17.67 -5.64 17.34 -7 17 C-6.01 15.68 -5.02 14.36 -4 13 C-1.747541185 15.688418586 -0.117860418 17.646418747 1 21 C1.99 21 2.98 21 4 21 C3.8453125 22.423125 3.8453125 22.423125 3.6875 23.875 C3.63294589 29.188570279 6.458630045 33.48906833 9 38 C9.99 37.505 9.99 37.505 11 37 C10.505 34.525 10.505 34.525 10 32 C13.5 35.5 13.5 35.5 17 39 C17.33 38.34 17.66 37.68 18 37 C18.99 37.66 19.98 38.32 21 39 C20.505 36.525 20.505 36.525 20 34 C21.65 35.32 23.3 36.64 25 38 C25.66 36.68 26.32 35.36 27 34 C26.236875 33.34 25.47375 32.68 24.6875 32 C21.968549518 29.296324521 20.951043237 26.648319266 19.7421875 23.0625 C18.30537254 19.069666848 16.63744571 14.963203359 12.875 12.75 C12.25625 12.5025 11.6375 12.255 11 12 C10.34 11.01 9.68 10.02 9 9 C8.01 9.66 7.02 10.32 6 11 C6.66 11.33 7.32 11.66 8 12 C8 12.66 8 13.32 8 14 C7.01 14 6.02 14 5 14 C5 15.98 5 17.96 5 20 C2.766233885 17.146841511 0.896258939 14.258420898 -0.8125 11.0625 C-1.272695313 10.228476562 -1.732890625 9.394453125 -2.20703125 8.53515625 C-3 6 -3 6 -2.19921875 3.24609375 C-1 1 -1 1 0 0 Z " fill="#C9C4B4" transform="translate(121,87)" />
<path d="M0 0 C3.299127741 0.380668585 6.511210273 0.888911426 9.75 1.625 C12.159211794 2.206867025 12.159211794 2.206867025 15 1 C21.184328948 0.419521471 26.257995289 1.060975904 31.9921875 3.44140625 C35.109097292 4.308562087 37.183367989 3.408316005 40 2 C41.99960012 1.960007998 44.000472422 1.956532009 46 2 C46.8125 4.0625 46.8125 4.0625 47 7 C45.589737074 9.546892747 43.860239647 11.766425061 42 14 C45.938285355 16.316638444 49.692351847 18.43358249 54 20 C51.647587963 20.815713346 50.373536809 21.116864683 47.96484375 20.36328125 C41.205709816 16.859992178 41.205709816 16.859992178 39 13 C40.26953125 11.567708333 41.5390625 10.135416667 42.80859375 8.703125 C44.129101773 6.815447957 44.574830029 5.248025136 45 3 C44.182089844 3.485332031 44.182089844 3.485332031 43.34765625 3.98046875 C37.261662325 7.195121951 37.261662325 7.195121951 33.3984375 6.59765625 C31.195602161 5.838901855 29.097790631 5.011700446 27 4 C26.909121094 4.995800781 26.909121094 4.995800781 26.81640625 6.01171875 C25.984182777 14.782073814 25.984182777 14.782073814 25 19 C26.32 19 27.64 19 29 19 C28.67 17.68 28.34 16.36 28 15 C29.32 15 30.64 15 32 15 C32 15.99 32 16.98 32 18 C32.99 18 33.98 18 35 18 C35 20.64 35 23.28 35 26 C34.34 26 33.68 26 33 26 C32.34 24.02 31.68 22.04 31 20 C30.071875 20.165 29.14375 20.33 28.1875 20.5 C24.93390145 21.0103684 21.976659379 20.999559611 18.6875 20.9375 C15.334245361 20.994334824 12.284458428 21.359130063 9 22 C9.424921258 23.295859156 9.865458823 24.586604403 10.3125 25.875 C10.556132812 26.594296875 10.799765625 27.31359375 11.05078125 28.0546875 C11.963355466 30.339949051 11.963355466 30.339949051 15 32 C15.33 31.01 15.66 30.02 16 29 C18.31 29 20.62 29 23 29 C23 29.66 23 30.32 23 31 C23.66 31.33 24.32 31.66 25 32 C24.34 32.66 23.68 33.32 23 34 C23.66 34.66 24.32 35.32 25 36 C21.535 36.495 21.535 36.495 18 37 C21.947275881 37.179421631 24.598051297 37.093506894 28 35 C27.4375 36.9375 27.4375 36.9375 26 39 C23.678336032 39.406733296 21.343189612 39.745013731 19 40 C19.554296875 41.085390625 20.10859375 42.17078125 20.6796875 43.2890625 C21.411673666 44.734265956 22.143432476 46.179584581 22.875 47.625 C23.239804687 48.337851562 23.604609375 49.050703125 23.98046875 49.78515625 C26.000009272 53.787518375 27.708111101 57.689170728 29 62 C26 61 26 61 24.83203125 58.71484375 C24.495585937 57.798320313 24.159140625 56.881796875 23.8125 55.9375 C23.468320312 55.018398437 23.124140625 54.099296875 22.76953125 53.15234375 C22.515585937 52.442070312 22.261640625 51.731796875 22 51 C22 60.815027038 27.774123935 67.897665654 34 75 C33.67 75.66 33.34 76.32 33 77 C30.69 74.36 28.38 71.72 26 69 C26.337734375 69.845625 26.67546875 70.69125 27.0234375 71.5625 C27.469453125 72.696875 27.91546875 73.83125 28.375 75 C28.815859375 76.11375 29.25671875 77.2275 29.7109375 78.375 C32.052666667 84.960226265 33.406376415 91.692198664 34.625 98.5625 C34.7590625 99.278574219 34.893125 99.994648438 35.03125 100.732421875 C37.107373817 112.373544706 37.107373817 112.373544706 34 116.9375 C33.34 117.618125 32.68 118.29875 32 119 C37.015350522 118.670397845 37.015350522 118.670397845 41 116 C41.27917295 112.79186374 41.27917295 112.79186374 41.1953125 109.0234375 C41.191067657 107.995566254 41.191067657 107.995566254 41.186737061 106.946929932 C41.175532815 104.756109729 41.150428588 102.565696844 41.125 100.375 C41.114970479 98.8906309 41.10584458 97.406255399 41.09765625 95.921875 C41.07559294 92.281117393 41.041061756 88.640598438 41 85 C41.66 85 42.32 85 43 85 C43.217466174 89.483383187 43.414237153 93.96705805 43.592041016 98.452148438 C43.655393034 99.977133603 43.724352938 101.501896703 43.799072266 103.026367188 C43.90562523 105.220357087 43.991850015 107.414360364 44.07421875 109.609375 C44.111576385 110.288690796 44.148934021 110.968006592 44.187423706 111.667907715 C44.288121222 114.852663862 44.177295427 116.709906362 42.495361328 119.461914062 C42.00189209 119.969482422 41.508422852 120.477050781 41 121 C43.31 121 45.62 121 48 121 C51.077580277 115.265705125 53.121527631 109.788566257 54.75 103.5 C54.970429688 102.677578125 55.190859375 101.85515625 55.41796875 101.0078125 C55.953003095 99.007249297 56.477614933 97.003903371 57 95 C57.33 95 57.66 95 58 95 C58.299962693 100.257679418 57.236774714 104.584847815 55.75 109.5625 C55.545039062 110.304355469 55.340078125 111.046210938 55.12890625 111.810546875 C53.806776474 116.309794569 52.316197021 119.544522704 49 123 C45.956996842 124.521501579 43.345915002 124.238993929 40 124 C39.34 123.01 38.68 122.02 38 121 C34.416427587 120.749841272 34.416427587 120.749841272 31 121 C30.67 119.68 30.34 118.36 30 117 C31.485 116.01 31.485 116.01 33 115 C34.177763706 108.255372695 32.582173752 100.903713592 31.375 94.25 C31.234492187 93.363125 31.093984375 92.47625 30.94921875 91.5625 C29.968445948 86.07017231 28.369902535 81.344236606 26.06640625 76.2578125 C22.497140767 68.28688873 20.806810684 60.202187015 19.189208984 51.651855469 C17.703734567 43.930453306 16.365789904 38.108197542 10.589111328 32.547119141 C6.547762676 28.612562925 5.089077013 23.404014407 4.9453125 17.91015625 C4.938387634 15.940032 4.966612653 13.969853497 5 12 C4.195625 11.71125 3.39125 11.4225 2.5625 11.125 C0 10 0 10 -1 8 C-1.125 4.4375 -1.125 4.4375 -1 1 C-0.67 0.67 -0.34 0.34 0 0 Z " fill="#565246" transform="translate(55,53)" />
<path d="M0 0 C0.66 0 1.32 0 2 0 C5.316777775 5.078815967 6.451859845 7.7630613 6 14 C5.334583447 17.107276556 4.455414614 20.138935313 3.5625 23.1875 C1.525475948 30.465815906 0.166732825 37.406077697 0 45 C0.99 45 1.98 45 3 45 C2.67 46.65 2.34 48.3 2 50 C3.32 50 4.64 50 6 50 C6.02578125 50.643242187 6.0515625 51.286484375 6.078125 51.94921875 C6.502050555 58.70312361 7.919675579 64.641970298 10.0625 71.0546875 C13.171082125 80.820816343 12.88860808 91.210828175 10 101 C9.01 101.99 9.01 101.99 8 103 C6.564907794 100.129815588 6.888414944 97.664562774 6.90234375 94.4609375 C6.905566406 93.158984375 6.908789063 91.85703125 6.912109375 90.515625 C6.920465341 89.135416011 6.928930294 87.755207678 6.9375 86.375 C6.942514988 84.986980745 6.947077897 83.598959777 6.951171875 82.2109375 C6.962990239 78.807248679 6.979465661 75.403645612 7 72 C5.672399128 73.094789074 5.672399128 73.094789074 5.965820312 75.803955078 C6.002880859 77.030095215 6.039941406 78.256235352 6.078125 79.51953125 C6.105395492 80.865210034 6.131396784 82.210915026 6.15625 83.556640625 C6.199434756 85.683735211 6.249897075 87.809475891 6.322265625 89.935791016 C6.389045772 91.984749028 6.423690974 94.032240053 6.453125 96.08203125 C6.485673828 97.311555176 6.518222656 98.541079102 6.551757812 99.807861328 C6 103 6 103 3.647460938 105.416748047 C0.768708922 107.138318207 -0.71157889 107.375819555 -4 107 C-4 106.01 -4 105.02 -4 104 C-3.505 103.5875 -3.01 103.175 -2.5 102.75 C-0.221765815 100.092060117 -0.769404489 97.328757777 -1 94 C-1.421451979 90.290208781 -1.998832791 86.617854354 -2.625 82.9375 C-2.796687012 81.922685547 -2.968374023 80.907871094 -3.145263672 79.862304688 C-4.49020904 72.513911305 -6.573762074 66.202215736 -9.92578125 59.546875 C-11 57 -11 57 -10 54 C-7.69 56.97 -5.38 59.94 -3 63 C-10.068197611 53.959282125 -14.554442128 46.542887488 -16 35 C-13.1251845 37.713761411 -11.566832935 40.344056486 -10 44 C-10 45.32 -10 46.64 -10 48 C-8.68 48.33 -7.36 48.66 -6 49 C-6 46.69 -6 44.38 -6 42 C-4.042249225 44.936626163 -3.439268513 46.573705598 -3 50 C-3.33 50.66 -3.66 51.32 -4 52 C-3.01 52.99 -2.02 53.98 -1 55 C-1.165 54.113125 -1.33 53.22625 -1.5 52.3125 C-1.683666834 50.877073052 -1.847879104 49.439111969 -2 48 C-2.091523438 47.16984375 -2.183046875 46.3396875 -2.27734375 45.484375 C-2.780273544 36.308972905 -0.504324256 28.102180344 1.953369141 19.314697266 C2.227858887 18.313659668 2.502348633 17.31262207 2.78515625 16.28125 C3.041760254 15.384707031 3.298364258 14.488164063 3.562744141 13.564453125 C4.051581035 10.697483423 3.811770774 8.779851493 3 6 C2.031269677 4.643777548 1.035657852 3.305829465 0 2 C0 1.34 0 0.68 0 0 Z " fill="#D3D0C2" transform="translate(91,66)" />
<path d="M0 0 C8.544081484 5.528523313 12.489771212 15.933435525 14.570358276 25.50038147 C15.261932319 29.523899661 15.285682931 33.484912747 15.265625 37.55859375 C15.267538452 38.428957672 15.269451904 39.299321594 15.27142334 40.196060181 C15.272773723 42.017021616 15.26915824 43.837993059 15.260742188 45.658935547 C15.249934353 48.454480252 15.260722783 51.249395653 15.2734375 54.044921875 C15.272117484 55.820313919 15.269558369 57.595705572 15.265625 59.37109375 C15.269673462 60.207488861 15.273721924 61.043883972 15.277893066 61.90562439 C15.229980151 67.770019849 15.229980151 67.770019849 13 70 C12.563007812 69.238164063 12.563007812 69.238164063 12.1171875 68.4609375 C9.222309189 63.599726752 6.142078484 59.853096264 2 56 C2.33 55.236875 2.66 54.47375 3 53.6875 C4.174366856 51.009308647 4.174366856 51.009308647 4 48 C5.65 48.33 7.3 48.66 9 49 C8.063987537 47.582350056 7.126120801 46.165924322 6.1875 44.75 C5.665429687 43.96109375 5.143359375 43.1721875 4.60546875 42.359375 C3.128658783 40.189075195 1.59310127 38.085862324 0 36 C0.33 37.32 0.66 38.64 1 40 C-1.995493871 39.679054228 -2.957522494 39.0450519 -5.0625 36.8125 C-10.154451847 29.420956996 -10.154451847 29.420956996 -9.6875 25.125 C-9.460625 24.42375 -9.23375 23.7225 -9 23 C-9.66 23 -10.32 23 -11 23 C-11 22.01 -11 21.02 -11 20 C-9.68 19.67 -8.36 19.34 -7 19 C-6.01 20.32 -5.02 21.64 -4 23 C-1.129048831 22.136024443 -1.129048831 22.136024443 0.875 21 C3.253305516 19.880797404 5.399401831 19.351432185 8 19 C8.33 19.33 8.66 19.66 9 20 C8.506289063 19.408320312 8.012578125 18.816640625 7.50390625 18.20703125 C6.863242187 17.416835937 6.222578125 16.626640625 5.5625 15.8125 C4.924414063 15.035195313 4.286328125 14.257890625 3.62890625 13.45703125 C1.920869021 10.880639362 1.453935276 9.021017528 1 6 C0.67 5.67 0.34 5.34 0 5 C-0.625 3 -0.625 3 -1 1 C-0.67 0.67 -0.34 0.34 0 0 Z " fill="#EBE6D8" transform="translate(162,75)" />
<path d="M0 0 C2.530926073 1.999508061 4.759358641 4.124540721 7.0234375 6.41796875 C8.289198374 7.362306095 9.559594468 8.300483763 10.8359375 9.23046875 C18.920244638 16.330270101 21.052950291 29.455411647 24.0234375 39.41796875 C24.3534375 40.40796875 24.6834375 41.39796875 25.0234375 42.41796875 C22.69921875 42.203125 22.69921875 42.203125 20.0234375 41.41796875 C18.44140625 39.3515625 18.44140625 39.3515625 17.2109375 36.85546875 C16.791992188 36.029179688 16.373046875 35.202890625 15.94140625 34.3515625 C15.487011719 33.394433594 15.487011719 33.394433594 15.0234375 32.41796875 C14.936147033 36.480332768 14.882947581 40.542454645 14.8359375 44.60546875 C14.810800781 45.755957031 14.785664063 46.906445312 14.759765625 48.091796875 C14.750097656 49.203613281 14.740429688 50.315429688 14.73046875 51.4609375 C14.714758301 52.482116699 14.699047852 53.503295898 14.682861328 54.555419922 C15.076075885 57.860395322 16.251019194 59.641641638 18.0234375 62.41796875 C18.31640625 65.96875 18.31640625 65.96875 18.2109375 69.73046875 C18.170332031 71.611855469 18.170332031 71.611855469 18.12890625 73.53125 C18.076699219 74.960175781 18.076699219 74.960175781 18.0234375 76.41796875 C17.6934375 76.41796875 17.3634375 76.41796875 17.0234375 76.41796875 C16.6934375 82.02796875 16.3634375 87.63796875 16.0234375 93.41796875 C11.573511763 95.197939045 9.586322187 95.630195945 5.0234375 95.41796875 C5.658945313 94.61875 6.294453125 93.81953125 6.94921875 92.99609375 C9.647011705 88.948809828 9.869653224 84.922940686 10.2109375 80.16796875 C10.937008929 71.590825893 10.937008929 71.590825893 12.0234375 69.41796875 C12.276540557 67.778423392 12.47880609 66.130740038 12.6484375 64.48046875 C12.743828125 63.605195313 12.83921875 62.729921875 12.9375 61.828125 C13.16932525 59.272578526 13.16932525 59.272578526 12.0234375 56.41796875 C11.907688427 54.42138683 11.844990731 52.421545363 11.8125 50.421875 C11.784140625 49.222402344 11.75578125 48.022929688 11.7265625 46.787109375 C11.67520347 44.28464064 11.630729541 41.7820194 11.59375 39.279296875 C11.299415599 27.757331465 9.70159731 17.064199586 3.0234375 7.41796875 C2.314453125 6.354492188 1.60546875 5.291015625 0.875 4.1953125 C-2.208083496 1.192473643 -3.703669472 0.715106307 -7.953857422 0.73828125 C-9.078846436 0.796289062 -9.078846436 0.796289062 -10.2265625 0.85546875 C-11.010715332 0.874804688 -11.794868164 0.894140625 -12.602783203 0.9140625 C-18.908436832 1.156320728 -25.057357606 2.060220813 -31.229492188 3.349365234 C-38.225729828 4.808210342 -43.665802097 4.844309569 -50.4140625 2.41796875 C-51.464648438 2.04671875 -52.515234375 1.67546875 -53.59765625 1.29296875 C-54.382695313 1.00421875 -55.167734375 0.71546875 -55.9765625 0.41796875 C-52.292798114 -0.94638843 -50.498153963 -0.0781675 -46.9765625 1.41796875 C-40.466428354 2.270486317 -34.173478475 1.161733104 -27.7890625 -0.08203125 C-7.342062808 -3.902277477 -7.342062808 -3.902277477 0 0 Z " fill="#5D594F" transform="translate(164.9765625,74.58203125)" />
<path d="M0 0 C0.86625 1.175625 0.86625 1.175625 1.75 2.375 C3.685410033 5.05389474 3.685410033 5.05389474 5.921875 5.73828125 C9.045028184 7.634481397 10.053777836 10.593169842 11.5 13.8125 C13.136466465 17.38806714 14.70028218 20.635378498 17.21875 23.69921875 C19 26 19 26 19 30 C18.01 30.66 17.02 31.32 16 32 C15.01 31.01 14.02 30.02 13 29 C13 29.99 13 30.98 13 32 C11 32 9 32 7 32 C5.618760367 30.032779917 4.285118739 28.031316717 3 26 C2.34 25.67 1.68 25.34 1 25 C1 24.34 1 23.68 1 23 C0.01 22.67 -0.98 22.34 -2 22 C-2.66 17.05 -3.32 12.1 -4 7 C-3.34 6.67 -2.68 6.34 -2 6 C-1.34 6.33 -0.68 6.66 0 7 C0 6.34 0 5.68 0 5 C-0.99 4.67 -1.98 4.34 -3 4 C-2.01 2.68 -1.02 1.36 0 0 Z " fill="#DBD5C5" transform="translate(129,94)" />
<path d="M0 0 C0 0.99 0 1.98 0 3 C-3.088096954 4.764626831 -4.233121357 5 -8 5 C-7.168554688 6.628085938 -7.168554688 6.628085938 -6.3203125 8.2890625 C-5.588326334 9.734265956 -4.856567524 11.179584581 -4.125 12.625 C-3.760195313 13.337851562 -3.395390625 14.050703125 -3.01953125 14.78515625 C-0.999990728 18.787518375 0.708111101 22.689170728 2 27 C-1 26 -1 26 -2.16796875 23.71484375 C-2.504414063 22.798320312 -2.840859375 21.881796875 -3.1875 20.9375 C-3.531679688 20.018398437 -3.875859375 19.099296875 -4.23046875 18.15234375 C-4.484414062 17.442070312 -4.738359375 16.731796875 -5 16 C-5 25.815027038 0.774123935 32.897665654 7 40 C6.67 40.66 6.34 41.32 6 42 C3.69 39.36 1.38 36.72 -1 34 C-0.662265625 34.845625 -0.32453125 35.69125 0.0234375 36.5625 C0.692460938 38.2640625 0.692460938 38.2640625 1.375 40 C1.815859375 41.11375 2.25671875 42.2275 2.7109375 43.375 C5.052666667 49.960226265 6.406376415 56.692198664 7.625 63.5625 C7.82609375 64.636611328 7.82609375 64.636611328 8.03125 65.732421875 C10.107373817 77.373544706 10.107373817 77.373544706 7 81.9375 C6.34 82.618125 5.68 83.29875 5 84 C10.015350522 83.670397845 10.015350522 83.670397845 14 81 C14.27917295 77.79186374 14.27917295 77.79186374 14.1953125 74.0234375 C14.191067657 72.995566254 14.191067657 72.995566254 14.186737061 71.946929932 C14.175532815 69.756109729 14.150428588 67.565696844 14.125 65.375 C14.114970479 63.8906309 14.10584458 62.406255399 14.09765625 60.921875 C14.07559294 57.281117393 14.041061756 53.640598438 14 50 C14.66 50 15.32 50 16 50 C16.217466174 54.483383187 16.414237153 58.96705805 16.592041016 63.452148438 C16.655393034 64.977133603 16.724352938 66.501896703 16.799072266 68.026367188 C16.90562523 70.220357087 16.991850015 72.414360364 17.07421875 74.609375 C17.111576385 75.288690796 17.148934021 75.968006592 17.187423706 76.667907715 C17.288121222 79.852663862 17.177295427 81.709906362 15.495361328 84.461914062 C15.00189209 84.969482422 14.508422852 85.477050781 14 86 C16.31 86 18.62 86 21 86 C24.077580277 80.265705125 26.121527631 74.788566257 27.75 68.5 C27.970429688 67.677578125 28.190859375 66.85515625 28.41796875 66.0078125 C28.953003095 64.007249297 29.477614933 62.003903371 30 60 C30.33 60 30.66 60 31 60 C31.299962693 65.257679418 30.236774714 69.584847815 28.75 74.5625 C28.545039062 75.304355469 28.340078125 76.046210938 28.12890625 76.810546875 C26.806776474 81.309794569 25.316197021 84.544522704 22 88 C18.956996842 89.521501579 16.345915002 89.238993929 13 89 C12.34 88.01 11.68 87.02 11 86 C7.416427587 85.749841272 7.416427587 85.749841272 4 86 C3.67 84.68 3.34 83.36 3 82 C4.485 81.01 4.485 81.01 6 80 C7.177763706 73.255372695 5.582173752 65.903713592 4.375 59.25 C4.234492187 58.363125 4.093984375 57.47625 3.94921875 56.5625 C2.971804206 51.088978556 1.383920417 46.355869586 -0.8984375 41.28125 C-3.971256922 34.405734245 -5.912104245 27.573092789 -7.553222656 20.236328125 C-8.010165814 18.204803789 -8.494141393 16.180920308 -8.98046875 14.15625 C-10.678052115 6.772874318 -10.678052115 6.772874318 -11 4 C-10.34 3.34 -9.68 2.68 -9 2 C-7 2 -5 2 -3 2 C-2.01 1.34 -1.02 0.68 0 0 Z " fill="#403B31" transform="translate(82,88)" />
<path d="M0 0 C0.99 0.99 1.98 1.98 3 3 C3.66 2.34 4.32 1.68 5 1 C5.944532416 6.289381532 5.88438576 9.460641909 4.467285156 14.716796875 C3.601575024 18.946745232 3.793770067 23.201061996 3.875 27.5 C3.888535156 28.87671875 3.888535156 28.87671875 3.90234375 30.28125 C3.925675683 32.521115558 3.958407648 34.76041183 4 37 C3.01 36.67 2.02 36.34 1 36 C0 33 0 33 1 30 C0.67 29.34 0.34 28.68 0 28 C-0.33 29.32 -0.66 30.64 -1 32 C-2.467764984 29.484262897 -3.924222347 26.963010178 -5.375 24.4375 C-5.7875 23.733027344 -6.2 23.028554688 -6.625 22.302734375 C-9.127419722 17.923499862 -10.825955599 13.909053786 -12 9 C-10.7625 8.62875 -9.525 8.2575 -8.25 7.875 C-3.721625845 6.212990337 -2.235419386 4.191411349 0 0 Z " fill="#EBE5D9" transform="translate(86,84)" />
<path d="M0 0 C3.158292081 3.042656673 5.93277721 6.277107653 8.6875 9.6875 C11.235516255 12.93895468 11.235516255 12.93895468 14 16 C15.590687288 23.928581952 16.312443543 32.068888689 16.9375 40.125 C17.019355469 40.942104492 17.101210937 41.759208984 17.185546875 42.601074219 C17.332961474 44.840749818 17.398658242 46.79063774 17 49 C14.377564513 51.869668462 13.064916468 52.905340758 9.1875 53.25 C8.465625 53.1675 7.74375 53.085 7 53 C7 52.01 7 51.02 7 50 C7.495 49.5875 7.99 49.175 8.5 48.75 C10.778234185 46.092060117 10.230595511 43.328757777 10 40 C9.578548466 36.290212697 9.001460537 32.617804771 8.375 28.9375 C8.116381836 27.41527832 8.116381836 27.41527832 7.852539062 25.862304688 C6.508731617 18.542396886 4.453046491 12.206678521 1.171875 5.546875 C0 3 0 3 0 0 Z " fill="#E6E2D6" transform="translate(80,120)" />
<path d="M0 0 C0.721875 0.144375 1.44375 0.28875 2.1875 0.4375 C3.5796875 0.7159375 3.5796875 0.7159375 5 1 C5.756679687 1.198515625 6.513359375 1.39703125 7.29296875 1.6015625 C11.461463133 2.215107128 15.174893035 1.137709572 19.2578125 0.27734375 C22 0 22 0 25 2 C24.858922528 3.45880109 24.711975854 4.917035514 24.5625 6.375 C24.481289062 7.187109375 24.400078125 7.99921875 24.31640625 8.8359375 C24 11 24 11 23 13 C21.35 13 19.7 13 18 13 C17.34 10.69 16.68 8.38 16 6 C16.66 9.3 17.32 12.6 18 16 C16.35 16.33 14.7 16.66 13 17 C12.896875 16.360625 12.79375 15.72125 12.6875 15.0625 C12.460625 14.381875 12.23375 13.70125 12 13 C11.01 12.67 10.02 12.34 9 12 C9.99 13.98 10.98 15.96 12 18 C11.01 18.33 10.02 18.66 9 19 C9 18.34 9 17.68 9 17 C8.01 17.33 7.02 17.66 6 18 C5 17 5 17 4.90234375 15.15234375 C4.934895833 13.1015625 4.967447917 11.05078125 5 9 C4.360625 8.814375 3.72125 8.62875 3.0625 8.4375 C1 7 1 7 0.25 3.375 C0.1675 2.26125 0.085 1.1475 0 0 Z " fill="#E9E3D7" transform="translate(56,55)" />
<path d="M0 0 C0.371376285 1.64203564 0.721037839 3.288984006 1.0625 4.9375 C1.358339844 6.312285156 1.358339844 6.312285156 1.66015625 7.71484375 C2.508756587 15.91798034 0.358310836 22.500050767 -2.9375 29.9375 C-3.297792969 30.786347656 -3.658085938 31.635195313 -4.029296875 32.509765625 C-6.705915179 38.705915179 -6.705915179 38.705915179 -9 41 C-11.688393846 41.269919061 -14.291419364 41.087373569 -17 41 C-16.2575 40.360625 -15.515 39.72125 -14.75 39.0625 C-8.961288211 33.175116987 -7.355655037 25.858635623 -6.8828125 17.8203125 C-7.04629885 13.88574102 -8.067293517 11.40156341 -10 8 C-8.523510617 6.663702538 -7.043736704 5.331033294 -5.5625 4 C-4.738789062 3.2575 -3.915078125 2.515 -3.06640625 1.75 C-1 0 -1 0 0 0 Z " fill="#D7D3C7" transform="translate(152,124)" />
<path d="M0 0 C8.5818294 5.552948435 12.562724078 16.088447458 14.625 25.70703125 C15.141170967 28.863201642 15.135804167 31.808602085 15 35 C13.515 35.495 13.515 35.495 12 36 C12.33 36.99 12.66 37.98 13 39 C12.01 39.99 11.02 40.98 10 42 C7 38.25 7 38.25 7 36 C5.515 36.495 5.515 36.495 4 37 C2 30.375 2 30.375 2 27 C2.66 26.67 3.32 26.34 4 26 C4 26.66 4 27.32 4 28 C4.66 28.33 5.32 28.66 6 29 C5.34 29 4.68 29 4 29 C4.33 29.66 4.66 30.32 5 31 C5.66 31 6.32 31 7 31 C6.426550627 28.132753136 6.138548496 27.138548496 4 25 C3.375 22.375 3.375 22.375 3 20 C4.656146574 19.617812329 6.324570244 19.286048983 8 19 C8.33 19.33 8.66 19.66 9 20 C8.506289063 19.408320312 8.012578125 18.816640625 7.50390625 18.20703125 C6.863242187 17.416835937 6.222578125 16.626640625 5.5625 15.8125 C4.924414063 15.035195313 4.286328125 14.257890625 3.62890625 13.45703125 C1.920869021 10.880639362 1.453935276 9.021017528 1 6 C0.67 5.67 0.34 5.34 0 5 C-0.625 3 -0.625 3 -1 1 C-0.67 0.67 -0.34 0.34 0 0 Z " fill="#D8D5C8" transform="translate(162,75)" />
<path d="M0 0 C4.036159936 1.345386645 4.982669428 3.839969943 6.8125 7.4375 C9.490254752 12.795047887 10.779552757 16.70333168 8.94921875 22.54296875 C8.635976563 23.353789062 8.322734375 24.164609375 8 25 C7.676445312 25.986132812 7.352890625 26.972265625 7.01953125 27.98828125 C4.464705882 35.535294118 4.464705882 35.535294118 2 38 C-0.688393846 38.269919061 -3.291419364 38.087373569 -6 38 C-5.566875 37.29875 -5.13375 36.5975 -4.6875 35.875 C2.016791548 24.452873659 2.022615131 12.894171461 0 0 Z " fill="#DBD7CC" transform="translate(101,137)" />
<path d="M0 0 C0.33 0 0.66 0 1 0 C1.2475 1.051875 1.495 2.10375 1.75 3.1875 C2.987732255 8.174047214 4.543936496 13.053535752 6.09765625 17.94921875 C9.026429361 27.851261173 8.920970232 38.101156436 6 48 C5.34 48.66 4.68 49.32 4 50 C2.564907794 47.129815588 2.888414944 44.664562774 2.90234375 41.4609375 C2.905566406 40.158984375 2.908789063 38.85703125 2.912109375 37.515625 C2.920465341 36.135416011 2.928930294 34.755207678 2.9375 33.375 C2.942514988 31.986980745 2.947077897 30.598959777 2.951171875 29.2109375 C2.962990239 25.807248679 2.979465661 22.403645612 3 19 C1.726944442 20.048712528 1.726944442 20.048712528 1.886474609 22.408447266 C1.891711426 23.45057373 1.896948242 24.492700195 1.90234375 25.56640625 C1.905566406 26.691113281 1.908789063 27.815820312 1.912109375 28.974609375 C1.920488281 30.158613281 1.928867188 31.342617187 1.9375 32.5625 C1.942011719 33.750371094 1.946523438 34.938242188 1.951171875 36.162109375 C1.963003252 39.10812226 1.979487134 42.054036807 2 45 C1.67 45 1.34 45 1 45 C0.951015625 44.151796875 0.90203125 43.30359375 0.8515625 42.4296875 C0.445621076 36.06060654 -0.060169239 29.713220219 -0.8125 23.375 C-0.942695313 22.248359375 -1.072890625 21.12171875 -1.20703125 19.9609375 C-2.115285029 16.569526838 -3.333700359 15.217409437 -6 13 C-5.67 12.34 -5.34 11.68 -5 11 C-4.21625 11.474375 -3.4325 11.94875 -2.625 12.4375 C-1.11051322 13.338980226 0.423589697 14.211794848 2 15 C1.67 14.01 1.34 13.02 1 12 C-0.186512602 7.914051672 -0.148651792 4.236576062 0 0 Z " fill="#8C887F" transform="translate(95,119)" />
<path d="M0 0 C4.231825225 3.733963434 6.716088555 7.724960992 9.375 12.6953125 C11.256787254 15.364193462 13.123868458 16.513350926 16 18 C15.649375 17.401875 15.29875 16.80375 14.9375 16.1875 C14 14 14 14 15 11 C15.470507812 11.831445312 15.941015625 12.662890625 16.42578125 13.51953125 C17.048398437 14.606210937 17.671015625 15.692890625 18.3125 16.8125 C19.234824219 18.430917969 19.234824219 18.430917969 20.17578125 20.08203125 C21.653912557 22.446408309 22.925105555 24.180477179 25 26 C24.67 26.66 24.34 27.32 24 28 C23.01 28 22.02 28 21 28 C18.312324219 30.437500247 18.312324219 30.437500247 16 33 C14.02 31.35 12.04 29.7 10 28 C10.33 27.01 10.66 26.02 11 25 C10.086078276 22.258234827 9.11235585 19.657841412 8 17 C7.54625 15.845 7.0925 14.69 6.625 13.5 C5.000422082 10.0009091 3.121802358 6.902647199 0.98828125 3.69921875 C0 2 0 2 0 0 Z " fill="#B4AE9E" transform="translate(147,97)" />
<path d="M0 0 C0.66 0 1.32 0 2 0 C3.486797246 2.973594493 3.11112605 5.662991789 3.09765625 8.9765625 C3.096241302 9.661809998 3.094826355 10.347057495 3.09336853 11.053070068 C3.087766747 13.243757608 3.075214061 15.434343301 3.0625 17.625 C3.057485225 19.109373525 3.052922279 20.59374865 3.048828125 22.078125 C3.037796771 25.718783154 3.02053099 29.35938164 3 33 C-0.896636516 34.686108476 -3.73566065 35.198341365 -8 35 C-7.364492187 34.20078125 -6.728984375 33.4015625 -6.07421875 32.578125 C-3.376425795 28.530841078 -3.153784276 24.504971936 -2.8125 19.75 C-2.086428571 11.172857143 -2.086428571 11.172857143 -1 9 C-0.775321695 7.463311346 -0.592031946 5.920319462 -0.4375 4.375 C-0.353710938 3.557734375 -0.269921875 2.74046875 -0.18359375 1.8984375 C-0.123007812 1.271953125 -0.062421875 0.64546875 0 0 Z " fill="#E8E5DA" transform="translate(178,135)" />
<path d="M0 0 C3.798550793 1.568775038 6.200220027 3.965231219 9.0625 6.875 C9.919726562 7.738671875 10.776953125 8.60234375 11.66015625 9.4921875 C14 12 14 12 17 16 C17.33 12.04 17.66 8.08 18 4 C19.962997854 7.925995708 20.244011481 8.615435356 19.6875 12.625 C19.588242187 13.401015625 19.488984375 14.17703125 19.38671875 14.9765625 C19 17 19 17 18 19 C17.625995969 22.751149345 17.280759865 26.499526848 17.013671875 30.259765625 C16.543262677 35.342682716 15.754889409 38.245110591 12 42 C16.455 41.505 16.455 41.505 21 41 C21.33 31.76 21.66 22.52 22 13 C22.33 13 22.66 13 23 13 C24.121035773 22.80906301 25.287901922 33.303653758 23 43 C14.571428571 45.428571429 14.571428571 45.428571429 10 44 C10.612776117 41.038248769 11.253725218 39.619412173 13 37 C14.008950707 33.209967218 14.194245198 29.537128637 14.25 25.625 C14.27578125 24.544765625 14.3015625 23.46453125 14.328125 22.3515625 C13.624338887 15.162890062 10.401627473 10.826697123 5.3125 6.125 C3.526083724 4.430945726 1.757365712 2.724545639 0 1 C0 0.67 0 0.34 0 0 Z " fill="#474338" transform="translate(159,127)" />
<path d="M0 0 C0.86625 1.175625 0.86625 1.175625 1.75 2.375 C3.698690707 5.040164099 3.698690707 5.040164099 5.9375 5.828125 C8.8183739 7.464985171 9.709285595 9.472543064 11.25 12.375 C11.77078125 13.331484375 12.2915625 14.28796875 12.828125 15.2734375 C14 18 14 18 14 22 C12 21 12 21 11 18 C9.68 18.33 8.36 18.66 7 19 C6.34 18.01 5.68 17.02 5 16 C4.01 17.98 3.02 19.96 2 22 C1.67 22 1.34 22 1 22 C1.0825 21.071875 1.165 20.14375 1.25 19.1875 C1.12625 17.6096875 1.12625 17.6096875 1 16 C-0.317872846 14.979711345 -1.652106526 13.980286163 -3 13 C-3.75 9.8125 -3.75 9.8125 -4 7 C-3.34 6.67 -2.68 6.34 -2 6 C-1.34 6.33 -0.68 6.66 0 7 C0 6.34 0 5.68 0 5 C-0.99 4.67 -1.98 4.34 -3 4 C-2.01 2.68 -1.02 1.36 0 0 Z " fill="#EFE8D9" transform="translate(129,94)" />
<path d="M0 0 C6.658463866 1.979234104 8.777478837 7.236336527 12 13 C14.607134792 18.082902328 16.264354046 23.571490313 18 29 C16.68 29 15.36 29 14 29 C11.434540596 26.434540596 11.459539129 24.523133324 11 21 C10.01 23.475 10.01 23.475 9 26 C6.668895067 23.668895067 5.439291231 21.97453521 4 19 C4.99 18.67 5.98 18.34 7 18 C5.667811283 13.797981305 5.667811283 13.797981305 3.8125 9.8125 C3 8 3 8 4 5 C2.68 5 1.36 5 0 5 C-0.33 4.01 -0.66 3.02 -1 2 C-0.67 1.34 -0.34 0.68 0 0 Z " fill="#E8E2D3" transform="translate(141,94)" />
<path d="M0 0 C0.66 0 1.32 0 2 0 C2.33 0.66 2.66 1.32 3 2 C3.66 1.67 4.32 1.34 5 1 C5.819176422 2.726013789 6.630060156 4.455964696 7.4375 6.1875 C8.116191406 7.631894531 8.116191406 7.631894531 8.80859375 9.10546875 C10 12 10 12 11 17 C6.71 17 2.42 17 -2 17 C-2 14.36 -2 11.72 -2 9 C-1.67 9 -1.34 9 -1 9 C-0.67 6.03 -0.34 3.06 0 0 Z " fill="#E2DFD1" transform="translate(120,117)" />
<path d="M0 0 C3.006172688 3.006172688 2.595853159 5.823815978 3 10 C4.65 10 6.3 10 8 10 C8.33 8.35 8.66 6.7 9 5 C10.108449188 8.325347565 9.844543562 10.621825754 9 14 C10.32 14 11.64 14 13 14 C12.67 12.68 12.34 11.36 12 10 C13.32 10 14.64 10 16 10 C16 10.99 16 11.98 16 13 C16.99 13 17.98 13 19 13 C19 15.64 19 18.28 19 21 C18.34 21 17.68 21 17 21 C16.34 19.02 15.68 17.04 15 15 C14.071875 15.165 13.14375 15.33 12.1875 15.5 C8.934894545 16.01021262 6.035883109 16.00138012 2.75 15.875 C-1.269640887 16.00898803 -4.203548783 16.76034246 -8 18 C-8.33 17.01 -8.66 16.02 -9 15 C-7.35 14.67 -5.7 14.34 -4 14 C-4.66 12.35 -5.32 10.7 -6 9 C-4.0625 9.3125 -4.0625 9.3125 -2 10 C-1.67 10.99 -1.34 11.98 -1 13 C0.32 13 1.64 13 3 13 C2.7834375 12.312929688 2.566875 11.625859375 2.34375 10.91796875 C2.0653125 10.016914063 1.786875 9.115859375 1.5 8.1875 C1.2215625 7.294179688 0.943125 6.400859375 0.65625 5.48046875 C0 3 0 3 0 0 Z " fill="#7F7C6E" transform="translate(71,58)" />
<path d="M0 0 C0.515625 0.350625 1.03125 0.70125 1.5625 1.0625 C4.972417135 2.37400659 7.401023562 1.580480071 11 1 C17.234695524 0.525172195 22.196277323 1.035354977 27.9921875 3.44140625 C31.109097292 4.308562087 33.183367989 3.408316005 36 2 C37.99960012 1.960007998 40.000472422 1.956532009 42 2 C42.8125 4.0625 42.8125 4.0625 43 7 C41.589737074 9.546892747 39.860239647 11.766425061 38 14 C41.938285355 16.316638444 45.692351847 18.43358249 50 20 C47.647587963 20.815713346 46.373536809 21.116864683 43.96484375 20.36328125 C37.205709816 16.859992178 37.205709816 16.859992178 35 13 C36.26953125 11.567708333 37.5390625 10.135416667 38.80859375 8.703125 C40.129101773 6.815447957 40.574830029 5.248025136 41 3 C40.182089844 3.485332031 40.182089844 3.485332031 39.34765625 3.98046875 C33.261662325 7.195121951 33.261662325 7.195121951 29.3984375 6.59765625 C27.195602161 5.838901855 25.097790631 5.011700446 23 4 C23 5.98 23 7.96 23 10 C22.67 10 22.34 10 22 10 C21.67 8.02 21.34 6.04 21 4 C17.25948237 2.75316079 15.109810797 3.404391546 11.25 4.125 C5.340257466 5.054897376 2.079332371 5.144348611 -3 2 C-2.01 1.34 -1.02 0.68 0 0 Z " fill="#3F392F" transform="translate(59,53)" />
<path d="M0 0 C0.66 0 1.32 0 2 0 C2.217466174 4.483383187 2.414237153 8.96705805 2.592041016 13.452148438 C2.655393034 14.977133603 2.724352938 16.501896703 2.799072266 18.026367188 C2.90562523 20.220357087 2.991850015 22.414360364 3.07421875 24.609375 C3.111576385 25.288690796 3.148934021 25.968006592 3.187423706 26.667907715 C3.288121222 29.852663862 3.177295427 31.709906362 1.495361328 34.461914062 C1.00189209 34.969482422 0.508422852 35.477050781 0 36 C2.31 36 4.62 36 7 36 C10.077580277 30.265705125 12.121527631 24.788566257 13.75 18.5 C13.970429688 17.677578125 14.190859375 16.85515625 14.41796875 16.0078125 C14.953003095 14.007249297 15.477614933 12.003903371 16 10 C16.33 10 16.66 10 17 10 C17.299962693 15.257679418 16.236774714 19.584847815 14.75 24.5625 C14.545039062 25.304355469 14.340078125 26.046210938 14.12890625 26.810546875 C12.806776474 31.309794569 11.316197021 34.544522704 8 38 C4.956996842 39.521501579 2.345915002 39.238993929 -1 39 C-1.66 38.01 -2.32 37.02 -3 36 C-6.583572413 35.749841272 -6.583572413 35.749841272 -10 36 C-10.33 34.68 -10.66 33.36 -11 32 C-10.01 32 -9.02 32 -8 32 C-8.33 32.66 -8.66 33.32 -9 34 C-3.984649478 33.670397845 -3.984649478 33.670397845 0 31 C0.27917295 27.79186374 0.27917295 27.79186374 0.1953125 24.0234375 C0.192482605 23.338190002 0.18965271 22.652942505 0.186737061 21.946929932 C0.175532815 19.756109729 0.150428588 17.565696844 0.125 15.375 C0.114970479 13.8906309 0.10584458 12.406255399 0.09765625 10.921875 C0.07559294 7.281117393 0.041061756 3.640598438 0 0 Z " fill="#29251B" transform="translate(96,138)" />
<path d="M0 0 C0.66 0 1.32 0 2 0 C3.333333333 1.333333333 4.666666667 2.666666667 6 4 C6.66 4 7.32 4 8 4 C8.553476395 6.075536483 9 7.843659638 9 10 C9.33 10.33 9.66 10.66 10 11 C10.66 10.01 11.32 9.02 12 8 C12 10.31 12 12.62 12 15 C11.01 15.33 10.02 15.66 9 16 C9.33 16.99 9.66 17.98 10 19 C9.01 19.99 8.02 20.98 7 22 C4 18.25 4 18.25 4 16 C3.01 16.33 2.02 16.66 1 17 C-1 10.375 -1 10.375 -1 7 C-0.34 6.67 0.32 6.34 1 6 C1 6.66 1 7.32 1 8 C1.66 8.33 2.32 8.66 3 9 C2.34 9 1.68 9 1 9 C1.33 9.66 1.66 10.32 2 11 C2.66 11 3.32 11 4 11 C3.426550627 8.132753136 3.138548496 7.138548496 1 5 C0.375 2.375 0.375 2.375 0 0 Z " fill="#C4C0B2" transform="translate(165,95)" />
<path d="M0 0 C1.338416723 0.312297235 2.671390746 0.648309315 4 1 C4.99 1 5.98 1 7 1 C8.125 3.25 8.125 3.25 9 6 C8.247932328 8.082648938 7.560030961 9.439969039 6 11 C6.66 11.33 7.32 11.66 8 12 C8 12.66 8 13.32 8 14 C7.01 14 6.02 14 5 14 C5 15.98 5 17.96 5 20 C2.766233885 17.146841511 0.896258939 14.258420898 -0.8125 11.0625 C-1.272695313 10.228476562 -1.732890625 9.394453125 -2.20703125 8.53515625 C-3 6 -3 6 -2.19921875 3.24609375 C-1 1 -1 1 0 0 Z " fill="#DAD2C4" transform="translate(121,87)" />
<path d="M0 0 C0.66 0 1.32 0 2 0 C5.313956097 5.074495274 6.459827457 7.766783356 6 14 C5.309164043 17.023469049 4.399718982 19.97062031 3.5 22.9375 C0.129523258 34.81999629 -0.975365596 48.073903213 3 60 C2.34 60.66 1.68 61.32 1 62 C-0.65 60.02 -2.3 58.04 -4 56 C-3.67 55.34 -3.34 54.68 -3 54 C-2.34 54.33 -1.68 54.66 -1 55 C-1.165 54.113125 -1.33 53.22625 -1.5 52.3125 C-1.683666834 50.877073052 -1.847879104 49.439111969 -2 48 C-2.091523438 47.16984375 -2.183046875 46.3396875 -2.27734375 45.484375 C-2.780273544 36.308972905 -0.504324256 28.102180344 1.953369141 19.314697266 C2.227858887 18.313659668 2.502348633 17.31262207 2.78515625 16.28125 C3.170062256 14.936435547 3.170062256 14.936435547 3.562744141 13.564453125 C4.051581035 10.697483423 3.811770774 8.779851493 3 6 C2.031269677 4.643777548 1.035657852 3.305829465 0 2 C0 1.34 0 0.68 0 0 Z " fill="#716D5F" transform="translate(91,66)" />
<path d="M0 0 C6.087645412 5.671396153 7.757168154 13.019711306 9 21 C4.742558044 20.173398535 3.47457199 18.59212063 1 15 C-2.095298602 9.876747141 -2.095298602 9.876747141 -1.6875 6.125 C-1.460625 5.42375 -1.23375 4.7225 -1 4 C-1.66 4 -2.32 4 -3 4 C-3 3.01 -3 2.02 -3 1 C-2.01 0.67 -1.02 0.34 0 0 Z " fill="#DCD7CB" transform="translate(154,94)" />
<path d="M0 0 C0.33 0 0.66 0 1 0 C1 3.3 1 6.6 1 10 C0.67 10 0.34 10 0 10 C-0.33 12.31 -0.66 14.62 -1 17 C1.396145751 16.858341069 3.791828968 16.71181159 6.1875 16.5625 C6.861035156 16.523183594 7.534570312 16.483867188 8.228515625 16.443359375 C11.896991017 16.21072435 15.416942062 15.827929893 19 15 C19.33 14.01 19.66 13.02 20 12 C22.31 12 24.62 12 27 12 C20.713722136 17.500493131 12.323982779 18.997321206 4.25 19.5625 C2.494296875 19.688183594 2.494296875 19.688183594 0.703125 19.81640625 C-0.634921875 19.907285156 -0.634921875 19.907285156 -2 20 C-3.485 25.445 -3.485 25.445 -5 31 C-5.33 31 -5.66 31 -6 31 C-5.282267168 24.645073883 -4.206849091 18.404113388 -3 12.125 C-2.822109375 11.17625 -2.64421875 10.2275 -2.4609375 9.25 C-2.288203125 8.345078125 -2.11546875 7.44015625 -1.9375 6.5078125 C-1.703535156 5.280222168 -1.703535156 5.280222168 -1.46484375 4.027832031 C-1 2 -1 2 0 0 Z " fill="#49453A" transform="translate(119,117)" />
</svg>