<?xml version='1.0' encoding='utf-8'?>
<svg xmlns="http://www.w3.org/2000/svg" version="1.1" width="215" height="157" viewBox="28.495000000000005 33.012046688 215.505 157.63634275200002">
<path d="M0 0 C0.759257813 0.261035156 1.518515625 0.522070312 2.30078125 0.791015625 C5.791859998 2.007785757 9.115299055 3.300074883 12.46875 4.87109375 C16.290798089 6.34819261 19.170594569 6.454604425 23.25 6.4375 C30.92344459 6.786292936 34.459647736 9.007597835 39.875 14.1875 C42.639491578 15.99042929 44.750794834 17.146098278 47.875 18.1875 C47.545 19.1775 47.215 20.1675 46.875 21.1875 C46.215 20.8575 45.555 20.5275 44.875 20.1875 C44.875 20.8475 44.875 21.5075 44.875 22.1875 C45.535 22.5175 46.195 22.8475 46.875 23.1875 C47.255632205 25.513585699 47.587699447 27.848052641 47.875 30.1875 C48.205 30.8475 48.535 31.5075 48.875 32.1875 C49.030991539 34.414712533 49.150447591 36.644551985 49.25 38.875 C49.603187144 44.446242361 50.36128492 48.264807969 52.875 53.1875 C54.140057228 57.761812889 53.988763357 62.295601158 53.9375 67 C53.932988281 67.788261719 53.928476563 68.576523438 53.923828125 69.388671875 C53.912113121 71.321647607 53.894179983 73.254583925 53.875 75.1875 C55.195 75.1875 56.515 75.1875 57.875 75.1875 C57.875 76.1775 57.875 77.1675 57.875 78.1875 C55.4 78.6825 55.4 78.6825 52.875 79.1875 C52.689375 80.061484375 52.689375 80.061484375 52.5 80.953125 C50.289749259 89.738871697 46.098498084 98.109792759 38.6640625 103.52734375 C34.486492994 105.714634965 30.618239047 105.609893193 26 105.375 C23.289930043 105.282096264 20.586972779 105.220138622 17.875 105.1875 C15.609501183 107.452998817 16.452229079 112.890662794 16.402099609 116.028076172 C16.47376348 120.439110995 16.798115742 123.14987004 19.9375 126.5 C20.906875 127.386875 21.87625 128.27375 22.875 129.1875 C22.545 130.1775 22.215 131.1675 21.875 132.1875 C15.935 132.1875 9.995 132.1875 3.875 132.1875 C1.885167717 128.207835434 1.650992841 127.51074868 2.25 123.4375 C2.360859375 122.63828125 2.47171875 121.8390625 2.5859375 121.015625 C2.729023437 120.110703125 2.729023437 120.110703125 2.875 119.1875 C2.215 119.1875 1.555 119.1875 0.875 119.1875 C0.4728125 120.0846875 0.4728125 120.0846875 0.0625 121 C-1.10993467 123.159748076 -2.318692818 124.545402562 -4.125 126.1875 C-4.125 125.5275 -4.125 124.8675 -4.125 124.1875 C-6.6 125.1775 -6.6 125.1775 -9.125 126.1875 C-8.135 127.115625 -8.135 127.115625 -7.125 128.0625 C-5.125 130.1875 -5.125 130.1875 -5.125 132.1875 C-8.42177888 133.83588944 -12.068160442 133.330227377 -15.6875 133.3125 C-16.877626953 133.318300781 -16.877626953 133.318300781 -18.091796875 133.32421875 C-23.998369333 133.314130667 -23.998369333 133.314130667 -25.125 132.1875 C-25.225869129 129.984936927 -25.255822929 127.77908943 -25.2578125 125.57421875 C-25.259791412 124.557420349 -25.259791412 124.557420349 -25.261810303 123.520080566 C-25.263734149 121.305007903 -25.257380458 119.090059894 -25.25 116.875 C-25.248670654 115.755101776 -25.248670654 115.755101776 -25.247314453 114.612579346 C-25.23073208 102.780258625 -24.928448101 90.995317622 -24.125 79.1875 C-25.697011719 79.819785156 -25.697011719 79.819785156 -27.30078125 80.46484375 C-28.679669129 81.01827494 -30.058576392 81.571657836 -31.4375 82.125 C-32.127792969 82.402792969 -32.818085938 82.680585937 -33.529296875 82.966796875 C-39.177616567 85.231582065 -43.20976445 86.3059884 -49.3125 86.25 C-50.584804687 86.240976563 -51.857109375 86.231953125 -53.16796875 86.22265625 C-54.143789063 86.211054687 -55.119609375 86.199453125 -56.125 86.1875 C-56.043713188 90.542407255 -55.930901396 94.895956193 -55.8125 99.25 C-55.789941406 100.479121094 -55.767382813 101.708242187 -55.744140625 102.974609375 C-55.601675502 113.259192882 -55.601675502 113.259192882 -50.51953125 121.859375 C-49.997460937 122.21515625 -49.475390625 122.5709375 -48.9375 122.9375 C-48.009375 123.68 -47.08125 124.4225 -46.125 125.1875 C-46.125 126.1775 -46.125 127.1675 -46.125 128.1875 C-48.310522416 127.094738792 -49.434035118 125.943501993 -51.125 124.1875 C-51.785 123.630625 -52.445 123.07375 -53.125 122.5 C-59.019569605 115.684403894 -58.648145049 107.233957476 -58.8125 98.6875 C-58.846660156 97.483515625 -58.880820313 96.27953125 -58.916015625 95.0390625 C-58.997971949 92.088634837 -59.067293836 89.138484839 -59.125 86.1875 C-63.111612624 85.394664356 -63.111612624 85.394664356 -67.125 85.1875 C-69.474135269 86.739839883 -69.474135269 86.739839883 -71 89.125 C-72.014100509 90.499931621 -73.049956186 91.859675613 -74.125 93.1875 C-74.785 93.1875 -75.445 93.1875 -76.125 93.1875 C-76.400859375 93.902929688 -76.67671875 94.618359375 -76.9609375 95.35546875 C-78.10672034 98.143027673 -79.413547014 100.799739727 -80.75 103.5 C-84.17392983 111.067087523 -83.68918886 116.389792562 -81.07421875 124.20703125 C-80.224385179 126.269169426 -80.224385179 126.269169426 -78.51953125 127.76171875 C-77.125 129.1875 -77.125 129.1875 -77.125 132.1875 C-79.81067297 133.530336485 -82.002468532 133.430375186 -85 133.5 C-86.573945313 133.556074219 -86.573945313 133.556074219 -88.1796875 133.61328125 C-91.800523132 133.089844799 -92.878717842 132.003188565 -95.125 129.1875 C-96.905494815 125.626510371 -96.8266315 121.333966779 -97.19921875 117.392578125 C-97.599161 113.762593807 -98.198067058 110.708937398 -99.70703125 107.3671875 C-101.359036128 103.662691712 -101.235747332 102.032394611 -100.125 98.1875 C-99.782109375 97.572617187 -99.43921875 96.957734375 -99.0859375 96.32421875 C-95.895222312 89.229417092 -98.390056329 78.707548629 -99.125 71.1875 C-99.598085938 72.238085938 -100.071171875 73.288671875 -100.55859375 74.37109375 C-105.187537909 84.322257116 -109.963720678 91.566540509 -118.875 98.25 C-124.144650639 99.77009153 -129.709101898 100.105816501 -135.125 99.1875 C-137.01953125 97.16015625 -137.01953125 97.16015625 -138.125 95.1875 C-137.63 94.6925 -137.63 94.6925 -137.125 94.1875 C-135.08263644 94.220059419 -133.040811757 94.288997682 -131 94.375 C-125.281791279 94.381242586 -121.304230339 94.28251411 -117.125 90.1875 C-114.464852879 87.028220797 -112.249113358 83.72592325 -110.125 80.1875 C-109.519785156 79.205234375 -109.519785156 79.205234375 -108.90234375 78.203125 C-105.843375218 72.387595471 -105.200594665 66.112009082 -104.259765625 59.697265625 C-101.10906553 38.242498314 -93.75386903 18.969768339 -76.25 4.9375 C-68.05549075 -1.107118991 -58.963866276 -1.248074809 -49.125 -0.8125 C-47.124298571 -0.483402898 -45.124293815 -0.150043112 -43.125 0.1875 C-35.392169638 0.709717115 -28.578848153 0.155753181 -21.171875 -2.15625 C-13.538073908 -3.800453312 -7.244883681 -2.628289706 0 0 Z " fill="#EAE5D8" transform="translate(176.125,46.8125)" />
<path d="M0 0 C0 0.66 0 1.32 0 2 C0.99 2.495 0.99 2.495 2 3 C-8.55808656 4.332574032 -8.55808656 4.332574032 -13 3 C-13.2784375 4.2684375 -13.2784375 4.2684375 -13.5625 5.5625 C-15.189648178 9.453506514 -17.104886013 11.287622853 -20.109375 14.140625 C-25.682101504 19.578843555 -25.682101504 19.578843555 -28.375 26.625 C-26.49223946 29.877040933 -23.848069348 31.414142906 -20.7890625 33.52734375 C-18.41680237 35.480055691 -18.456073389 37.035522972 -18 40 C-13.550519892 44.245954993 -8.726352706 46.900913748 -3.25 49.625 C-1.73075703 50.380791461 -0.214948662 51.143537259 1.296875 51.9140625 C1.960419922 52.243579102 2.623964844 52.573095703 3.307617188 52.912597656 C5 54 5 54 7 57 C6.01 57.99 5.02 58.98 4 60 C3.34 59.67 2.68 59.34 2 59 C2.034643555 60.119470215 2.069287109 61.23894043 2.104980469 62.392333984 C2.100537457 67.300583031 1.267581944 71.919672783 0.3203125 76.72265625 C0.147487488 77.626968842 -0.025337524 78.531281433 -0.203399658 79.462997437 C-0.568157867 81.36377886 -0.93645037 83.263885143 -1.308105469 85.163330078 C-1.873718031 88.055943852 -2.42800588 90.950552146 -2.98046875 93.845703125 C-3.337879471 95.700648548 -3.695930864 97.555470664 -4.0546875 99.41015625 C-4.301688995 100.696366196 -4.301688995 100.696366196 -4.55368042 102.008560181 C-5.486898928 106.758906099 -6.636560566 111.356060502 -8 116 C-8.260421355 117.80575185 -8.475550482 119.619197531 -8.625 121.4375 C-8.699765625 122.302460938 -8.77453125 123.167421875 -8.8515625 124.05859375 C-8.900546875 124.699257812 -8.94953125 125.339921875 -9 126 C-8.175 126.474375 -7.35 126.94875 -6.5 127.4375 C-5.675 127.953125 -4.85 128.46875 -4 129 C-4 129.33 -4 129.66 -4 130 C-6.64551056 130.193864923 -9.291177831 130.380382671 -11.9375 130.5625 C-12.692246094 130.618574219 -13.446992188 130.674648437 -14.224609375 130.732421875 C-16.147459577 130.861761575 -18.073895482 130.93516912 -20 131 C-21 130 -21 130 -21.037597656 126.759765625 C-21.001900798 125.308448566 -20.960246219 123.857271204 -20.9140625 122.40625 C-20.892823181 121.626729736 -20.871583862 120.847209473 -20.849700928 120.044067383 C-20.803271748 118.379406377 -20.754331181 116.714813879 -20.703125 115.050292969 C-20.627028156 112.566206626 -20.558861557 110.082011221 -20.4921875 107.59765625 C-20.11816998 94.394474673 -20.11816998 94.394474673 -19.666992188 88.09375 C-19.612398376 87.314874268 -19.557804565 86.535998535 -19.501556396 85.733520508 C-19.393824869 84.260336044 -19.27651504 82.787810119 -19.148101807 81.31628418 C-18.869966451 77.541515646 -18.827216557 76.259175164 -21 73 C-21.75535166 70.786323418 -22.459005886 68.554680184 -23.125 66.3125 C-23.478203125 65.133007812 -23.83140625 63.953515625 -24.1953125 62.73828125 C-24.593632813 61.382832031 -24.593632813 61.382832031 -25 60 C-24.690625 61.155 -24.38125 62.31 -24.0625 63.5 C-23.016549255 67.654130618 -22.456095796 71.743105902 -22 76 C-33.534326938 82.456160874 -43.809904438 85.049683915 -57 83 C-57.99 82.67 -58.98 82.34 -60 82 C-58.125 78.125 -58.125 78.125 -57 77 C-54.652760336 76.602507004 -52.296714517 76.256312773 -49.9375 75.9375 C-48.001972656 75.672597656 -48.001972656 75.672597656 -46.02734375 75.40234375 C-45.028320312 75.269570312 -44.029296875 75.136796875 -43 75 C-47.29 75 -51.58 75 -56 75 C-55.34 73.02 -54.68 71.04 -54 69 C-52.969618334 58.826336809 -53.588165873 49.943767978 -59 41 C-61.061937903 38.728080519 -61.061937903 38.728080519 -63 37 C-62.236875 37.99 -61.47375 38.98 -60.6875 40 C-55.102351657 47.831865241 -52.864554979 57.443337738 -54 67 C-55.799655375 72.927125854 -58.760258884 77.537114615 -63 82 C-63.99 82.495 -63.99 82.495 -65 83 C-65.53625 83.70125 -66.0725 84.4025 -66.625 85.125 C-69 87 -69 87 -71.0390625 87.0390625 C-73.038982241 86.777588894 -75.022227502 86.3955545 -77 86 C-75.478999771 87.521000229 -73.724904264 88.72023232 -72 90 C-72.580078125 90.926191406 -72.580078125 90.926191406 -73.171875 91.87109375 C-81.009367214 104.542242844 -81.009367214 104.542242844 -81 119 C-80.945859375 119.698671875 -80.89171875 120.39734375 -80.8359375 121.1171875 C-80.717497566 123.204552462 -80.717497566 123.204552462 -80 126 C-78.082358261 127.376279395 -78.082358261 127.376279395 -76 128 C-75.505 128.99 -75.505 128.99 -75 130 C-77.429611793 131.214805897 -79.163841161 131.236072674 -81.875 131.3125 C-83.170507813 131.368574219 -83.170507813 131.368574219 -84.4921875 131.42578125 C-87 131 -87 131 -89.25390625 129.46484375 C-91.571662561 126.193022201 -91.784113269 123.133517315 -92.0625 119.25 C-92.674751072 112.685661001 -92.674751072 112.685661001 -94.6875 106.4375 C-96.210822749 102.447845181 -96.005669494 100.106483765 -95 96 C-94.505 95.505 -94.505 95.505 -94 95 C-93.3938555 83.203495509 -93.980413519 71.753565619 -95.932617188 60.106445312 C-98.313407241 45.804739742 -95.922583196 34.492005511 -87.59375 22.5390625 C-73.186221851 2.635084391 -73.186221851 2.635084391 -61 0 C-59.606257498 -0.0882748 -58.209033439 -0.130586695 -56.8125 -0.1328125 C-56.031328125 -0.134101562 -55.25015625 -0.135390625 -54.4453125 -0.13671875 C-53.638359375 -0.132851563 -52.83140625 -0.128984375 -52 -0.125 C-51.193046875 -0.128867187 -50.38609375 -0.132734375 -49.5546875 -0.13671875 C-48.773515625 -0.135429688 -47.99234375 -0.134140625 -47.1875 -0.1328125 C-46.125957031 -0.131120605 -46.125957031 -0.131120605 -45.04296875 -0.129394531 C-42.91876014 0.00514545 -41.050975992 0.447690772 -39 1 C-33.429192865 1.524786179 -28.509250072 0.997980335 -23.125 -0.5 C-15.29753469 -2.631090555 -7.525627549 -3.428189682 0 0 Z " fill="#ECE6D9" transform="translate(173,48)" />
<path d="M0 0 C0.759257813 0.261035156 1.518515625 0.522070312 2.30078125 0.791015625 C5.791859998 2.007785757 9.115299055 3.300074883 12.46875 4.87109375 C16.290798089 6.34819261 19.170594569 6.454604425 23.25 6.4375 C30.92344459 6.786292936 34.459647736 9.007597835 39.875 14.1875 C42.639491578 15.99042929 44.750794834 17.146098278 47.875 18.1875 C47.545 19.1775 47.215 20.1675 46.875 21.1875 C46.215 20.8575 45.555 20.5275 44.875 20.1875 C44.875 20.8475 44.875 21.5075 44.875 22.1875 C45.535 22.5175 46.195 22.8475 46.875 23.1875 C47.255632205 25.513585699 47.587699447 27.848052641 47.875 30.1875 C48.205 30.8475 48.535 31.5075 48.875 32.1875 C49.030991539 34.414712533 49.150447591 36.644551985 49.25 38.875 C49.603187144 44.446242361 50.36128492 48.264807969 52.875 53.1875 C54.140057228 57.761812889 53.988763357 62.295601158 53.9375 67 C53.932988281 67.788261719 53.928476563 68.576523438 53.923828125 69.388671875 C53.912113121 71.321647607 53.894179983 73.254583925 53.875 75.1875 C55.195 75.1875 56.515 75.1875 57.875 75.1875 C57.875 76.1775 57.875 77.1675 57.875 78.1875 C55.4 78.6825 55.4 78.6825 52.875 79.1875 C52.70484375 79.839765625 52.5346875 80.49203125 52.359375 81.1640625 C50.864619016 86.554725039 49.272930977 90.73503872 45.875 95.1875 C45.545 94.5275 45.215 93.8675 44.875 93.1875 C45.6171875 91.19921875 45.6171875 91.19921875 46.75 88.875 C48.261888667 85.642686299 49.414188924 82.758785835 49.875 79.1875 C49.2975 79.06375 48.72 78.94 48.125 78.8125 C45.848877944 78.180243873 43.967397941 77.268865322 41.875 76.1875 C41.92140625 76.9609375 41.9678125 77.734375 42.015625 78.53125 C42.250591525 85.311712569 42.127452167 90.676533952 37.875 96.1875 C34.295638156 99.517138925 31.768130008 100.407558838 27 100.4375 C25.623945126 100.373919907 24.248135911 100.297350873 22.875 100.1875 C22.545 100.8475 22.215 101.5075 21.875 102.1875 C20.225 101.5275 18.575 100.8675 16.875 100.1875 C16.875 97.5475 16.875 94.9075 16.875 92.1875 C18.525 92.5175 20.175 92.8475 21.875 93.1875 C22.205 94.5075 22.535 95.8275 22.875 97.1875 C26.781818042 98.046999969 29.286180615 98.379998645 33.125 97.125 C36.507030875 94.74220552 37.344400667 93.018422029 38.875 89.1875 C39.15894484 86.400943285 39.296603909 83.897932567 39.25 81.125 C39.267402344 80.083759766 39.267402344 80.083759766 39.28515625 79.021484375 C39.260032854 74.612328338 38.724247231 71.611885304 35.875 68.1875 C34.781875 68.084375 33.68875 67.98125 32.5625 67.875 C28.318051577 67.083662159 27.894909938 66.455896883 25.4375 63.125 C24.56307005 61.825912163 23.701964329 60.517307108 22.875 59.1875 C26.256224533 60.73578146 27.668385448 62.213367343 29.875 65.1875 C30.865 65.5175 31.855 65.8475 32.875 66.1875 C31.443247901 61.176367653 28.89054307 59.24280451 24.875 56.1875 C28.026353873 56.1875 28.801313411 56.53902208 31.375 58.125 C33.607426966 59.490892815 35.350326817 60.345942272 37.875 61.1875 C35.968029745 53.52871088 35.968029745 53.52871088 33.125 46.1875 C31.875 43.1875 31.875 43.1875 32.875 40.1875 C38.988005008 52.624966164 38.988005008 52.624966164 39.875 57.9375 C40.951631206 63.891929731 44.362342922 69.175585969 49.0703125 72.9453125 C49.665859375 73.355234375 50.26140625 73.76515625 50.875 74.1875 C51.205 72.2075 51.535 70.2275 51.875 68.1875 C49.895 68.1875 47.915 68.1875 45.875 68.1875 C45.875 67.8575 45.875 67.5275 45.875 67.1875 C48.35 66.6925 48.35 66.6925 50.875 66.1875 C51.205 64.5375 51.535 62.8875 51.875 61.1875 C49.235 61.1875 46.595 61.1875 43.875 61.1875 C45.875 59.1875 45.875 59.1875 49 59.0625 C49.94875 59.10375 50.8975 59.145 51.875 59.1875 C51.525664062 58.258085937 51.176328125 57.328671875 50.81640625 56.37109375 C50.361367188 55.134882812 49.906328125 53.898671875 49.4375 52.625 C48.985039062 51.406835938 48.532578125 50.188671875 48.06640625 48.93359375 C46.875 45.1875 46.875 45.1875 46.33984375 41.28515625 C46.186445313 40.262929687 46.033046875 39.240703125 45.875 38.1875 C45.215 37.8575 44.555 37.5275 43.875 37.1875 C43.875 36.5275 43.875 35.8675 43.875 35.1875 C41.565 34.8575 39.255 34.5275 36.875 34.1875 C36.545 34.8475 36.215 35.5075 35.875 36.1875 C35.215 35.8575 34.555 35.5275 33.875 35.1875 C33.875 35.8475 33.875 36.5075 33.875 37.1875 C29.813778996 38.541240335 27.060376703 37.9153916 22.875 37.1875 C22.75125 36.383125 22.6275 35.57875 22.5 34.75 C22.29375 33.904375 22.0875 33.05875 21.875 32.1875 C21.215 31.8575 20.555 31.5275 19.875 31.1875 C20.535 31.1875 21.195 31.1875 21.875 31.1875 C21.875 30.5275 21.875 29.8675 21.875 29.1875 C23.525 28.8575 25.175 28.5275 26.875 28.1875 C26.875 27.8575 26.875 27.5275 26.875 27.1875 C22.39616304 27.634539863 22.39616304 27.634539863 18.875 30.1875 C18.875 29.5275 18.875 28.8675 18.875 28.1875 C15.905 28.6825 15.905 28.6825 12.875 29.1875 C12.545 28.1975 12.215 27.2075 11.875 26.1875 C12.205 25.5275 12.535 24.8675 12.875 24.1875 C13.865 24.1875 14.855 24.1875 15.875 24.1875 C15.175584041 21.040128184 14.114213017 18.16161124 12.875 15.1875 C13.865 14.6925 13.865 14.6925 14.875 14.1875 C11.822295372 14.029386117 11.822295372 14.029386117 8.875 15.1875 C8.875 13.8675 8.875 12.5475 8.875 11.1875 C8.14796875 11.005742187 7.4209375 10.823984375 6.671875 10.63671875 C-0.59375 8.8203125 -7.859375 7.00390625 -15.125 5.1875 C-15.447910156 6.484941406 -15.447910156 6.484941406 -15.77734375 7.80859375 C-17.362197917 11.782213617 -19.707332306 14.29272732 -22.6875 17.25 C-27.483580764 21.890556906 -27.483580764 21.890556906 -29.125 28.1875 C-28.63 29.1775 -28.63 29.1775 -28.125 30.1875 C-26.805 29.8575 -25.485 29.5275 -24.125 29.1875 C-24.455 30.8375 -24.785 32.4875 -25.125 34.1875 C-30.826544712 30.912144527 -30.826544712 30.912144527 -32.07421875 27.8828125 C-32.147353544 24.001042639 -30.533153587 22.621178905 -28 19.75 C-27.171132812 18.7909375 -26.342265625 17.831875 -25.48828125 16.84375 C-24.708398437 15.9671875 -23.928515625 15.090625 -23.125 14.1875 C-20.367832054 10.991542856 -17.941226092 8.023564975 -16.125 4.1875 C-15.354140625 4.199101562 -14.58328125 4.210703125 -13.7890625 4.22265625 C-12.284726562 4.236191406 -12.284726562 4.236191406 -10.75 4.25 C-9.253398438 4.267402344 -9.253398438 4.267402344 -7.7265625 4.28515625 C-5.140675465 4.367566019 -5.140675465 4.367566019 -3.125 3.1875 C-3.909666999 1.040192629 -3.909666999 1.040192629 -5.84375 0.578125 C-13.984438246 -0.815828467 -21.365242334 0.328486056 -29.2265625 2.515625 C-34.037852815 3.630910626 -39.193323754 3.96121057 -44.011230469 2.689697266 C-52.732670033 0.617625057 -63.828199056 1.153939575 -71.984375 4.82421875 C-77.352429557 8.242925028 -81.332688888 12.298110799 -85.125 17.375 C-85.769007568 18.231461182 -85.769007568 18.231461182 -86.426025391 19.105224609 C-96.859179915 33.15688236 -100.170284341 44.785250182 -98.125 62.1875 C-97.784263541 64.252261231 -97.430744262 66.314966883 -97.0625 68.375 C-96.057834931 74.36522105 -95.904261167 80.253384919 -95.875 86.3125 C-95.865895996 87.238288574 -95.856791992 88.164077148 -95.847412109 89.117919922 C-95.851359863 89.989084473 -95.855307617 90.860249023 -95.859375 91.7578125 C-95.861630859 92.539145508 -95.863886719 93.320478516 -95.866210938 94.125488281 C-96.125 96.1875 -96.125 96.1875 -98.125 99.1875 C-97.886399568 103.720908216 -97.045900445 107.577301117 -95.625 111.875 C-93.703927888 117.881864507 -93.409901338 123.919670569 -93.125 130.1875 C-90.110094431 131.192468523 -88.083183081 131.290853027 -84.9375 131.25 C-84.036445313 131.240976563 -83.135390625 131.231953125 -82.20703125 131.22265625 C-81.519960938 131.211054687 -80.832890625 131.199453125 -80.125 131.1875 C-80.125 130.5275 -80.125 129.8675 -80.125 129.1875 C-81.053125 128.445 -81.053125 128.445 -82 127.6875 C-85.809078996 123.206230593 -86.278124767 117.628828826 -85.91796875 111.88671875 C-84.959952497 107.417549335 -83.242823124 103.833401945 -81.125 99.8125 C-80.756328125 99.089335937 -80.38765625 98.366171875 -80.0078125 97.62109375 C-77.309302606 92.371802606 -77.309302606 92.371802606 -76.125 91.1875 C-77.775 90.1975 -79.425 89.2075 -81.125 88.1875 C-80.795 87.5275 -80.465 86.8675 -80.125 86.1875 C-77.485 86.5175 -74.845 86.8475 -72.125 87.1875 C-71.7125 86.56875 -71.3 85.95 -70.875 85.3125 C-69.125 83.1875 -69.125 83.1875 -67.25 82.375 C-63.024583206 80.013737674 -60.774486886 75.61018556 -58.8125 71.3125 C-56.360954723 60.169112375 -59.329293418 49.837793834 -65.2734375 40.35546875 C-66.201116832 38.950791179 -67.159655213 37.566563981 -68.125 36.1875 C-64.370272868 37.650380701 -62.996278604 39.488432255 -61 42.9375 C-60.502421875 43.77796875 -60.00484375 44.6184375 -59.4921875 45.484375 C-56.650812205 51.10217987 -55.804906468 55.994152233 -55.875 62.25 C-55.863398437 63.291240234 -55.863398437 63.291240234 -55.8515625 64.353515625 C-55.868032474 68.689236211 -56.458414017 71.021035042 -58.125 75.1875 C-52.845 75.1875 -47.565 75.1875 -42.125 75.1875 C-47.069042466 77.659521233 -51.458285459 77.891937391 -56.91015625 78.4296875 C-60.208799009 78.89351134 -60.208799009 78.89351134 -62.05859375 81.2578125 C-62.410507813 81.894609375 -62.762421875 82.53140625 -63.125 83.1875 C-49.517975586 84.832501637 -38.494513546 83.729431177 -26.125 77.1875 C-26.310625 75.393125 -26.310625 75.393125 -26.5 73.5625 C-26.604414062 72.553164063 -26.604414062 72.553164063 -26.7109375 71.5234375 C-27.073826579 69.071436111 -27.073826579 69.071436111 -28.15625 66.40625 C-29.288347943 62.644763285 -29.347811988 59.194883528 -29.25 55.3125 C-29.240976563 54.624140625 -29.231953125 53.93578125 -29.22265625 53.2265625 C-29.199325127 51.546721616 -29.163463264 49.867062536 -29.125 48.1875 C-28.795 48.1875 -28.465 48.1875 -28.125 48.1875 C-28.09921875 48.975117187 -28.0734375 49.762734375 -28.046875 50.57421875 C-27.61018832 58.960587945 -25.908230813 66.277946388 -23.125 74.1875 C-22.135 72.2075 -22.135 72.2075 -21.125 70.1875 C-21.097579866 72.499931278 -21.078417181 74.812460936 -21.0625 77.125 C-21.050898437 78.412773437 -21.039296875 79.700546875 -21.02734375 81.02734375 C-21.049597483 83.853065836 -21.258713561 86.583712819 -21.611328125 89.38671875 C-22.139637429 93.98191976 -22.34015161 98.538167196 -22.44140625 103.16015625 C-22.472577896 104.372934952 -22.472577896 104.372934952 -22.504379272 105.610214233 C-22.569016165 108.156735136 -22.628354094 110.703346267 -22.6875 113.25 C-22.730767199 114.991545254 -22.774383884 116.733081862 -22.818359375 118.474609375 C-22.924607483 122.712150516 -23.026108232 126.949781063 -23.125 131.1875 C-22.076992187 131.1153125 -21.028984375 131.043125 -19.94921875 130.96875 C-18.570316098 130.874947098 -17.191409648 130.781200013 -15.8125 130.6875 C-14.777060547 130.615957031 -14.777060547 130.615957031 -13.720703125 130.54296875 C-10.848376415 130.348705108 -8.004862122 130.1875 -5.125 130.1875 C-5.125 130.8475 -5.125 131.5075 -5.125 132.1875 C-8.42177888 133.83588944 -12.068160442 133.330227377 -15.6875 133.3125 C-16.877626953 133.318300781 -16.877626953 133.318300781 -18.091796875 133.32421875 C-23.998369333 133.314130667 -23.998369333 133.314130667 -25.125 132.1875 C-25.225869129 129.984936927 -25.255822929 127.77908943 -25.2578125 125.57421875 C-25.259791412 124.557420349 -25.259791412 124.557420349 -25.261810303 123.520080566 C-25.263734149 121.305007903 -25.257380458 119.090059894 -25.25 116.875 C-25.248670654 115.755101776 -25.248670654 115.755101776 -25.247314453 114.612579346 C-25.23073208 102.780258625 -24.928448101 90.995317622 -24.125 79.1875 C-25.697011719 79.819785156 -25.697011719 79.819785156 -27.30078125 80.46484375 C-28.679669129 81.01827494 -30.058576392 81.571657836 -31.4375 82.125 C-32.127792969 82.402792969 -32.818085938 82.680585937 -33.529296875 82.966796875 C-39.177616567 85.231582065 -43.20976445 86.3059884 -49.3125 86.25 C-50.584804687 86.240976563 -51.857109375 86.231953125 -53.16796875 86.22265625 C-54.143789063 86.211054687 -55.119609375 86.199453125 -56.125 86.1875 C-56.043713188 90.542407255 -55.930901396 94.895956193 -55.8125 99.25 C-55.789941406 100.479121094 -55.767382813 101.708242187 -55.744140625 102.974609375 C-55.601675502 113.259192882 -55.601675502 113.259192882 -50.51953125 121.859375 C-49.997460937 122.21515625 -49.475390625 122.5709375 -48.9375 122.9375 C-48.009375 123.68 -47.08125 124.4225 -46.125 125.1875 C-46.125 126.1775 -46.125 127.1675 -46.125 128.1875 C-48.310522416 127.094738792 -49.434035118 125.943501993 -51.125 124.1875 C-51.785 123.630625 -52.445 123.07375 -53.125 122.5 C-59.019569605 115.684403894 -58.648145049 107.233957476 -58.8125 98.6875 C-58.846660156 97.483515625 -58.880820313 96.27953125 -58.916015625 95.0390625 C-58.997971949 92.088634837 -59.067293836 89.138484839 -59.125 86.1875 C-63.111612624 85.394664356 -63.111612624 85.394664356 -67.125 85.1875 C-69.474135269 86.739839883 -69.474135269 86.739839883 -71 89.125 C-72.014100509 90.499931621 -73.049956186 91.859675613 -74.125 93.1875 C-74.785 93.1875 -75.445 93.1875 -76.125 93.1875 C-76.400859375 93.902929688 -76.67671875 94.618359375 -76.9609375 95.35546875 C-78.10672034 98.143027673 -79.413547014 100.799739727 -80.75 103.5 C-84.17392983 111.067087523 -83.68918886 116.389792562 -81.07421875 124.20703125 C-80.224385179 126.269169426 -80.224385179 126.269169426 -78.51953125 127.76171875 C-77.125 129.1875 -77.125 129.1875 -77.125 132.1875 C-79.81067297 133.530336485 -82.002468532 133.430375186 -85 133.5 C-86.573945313 133.556074219 -86.573945313 133.556074219 -88.1796875 133.61328125 C-91.800523132 133.089844799 -92.878717842 132.003188565 -95.125 129.1875 C-96.905494815 125.626510371 -96.8266315 121.333966779 -97.19921875 117.392578125 C-97.599161 113.762593807 -98.198067058 110.708937398 -99.70703125 107.3671875 C-101.359036128 103.662691712 -101.235747332 102.032394611 -100.125 98.1875 C-99.782109375 97.572617187 -99.43921875 96.957734375 -99.0859375 96.32421875 C-95.895222312 89.229417092 -98.390056329 78.707548629 -99.125 71.1875 C-99.598085938 72.238085938 -100.071171875 73.288671875 -100.55859375 74.37109375 C-105.187537909 84.322257116 -109.963720678 91.566540509 -118.875 98.25 C-124.144650639 99.77009153 -129.709101898 100.105816501 -135.125 99.1875 C-137.01953125 97.16015625 -137.01953125 97.16015625 -138.125 95.1875 C-137.63 94.6925 -137.63 94.6925 -137.125 94.1875 C-135.08263644 94.220059419 -133.040811757 94.288997682 -131 94.375 C-125.281791279 94.381242586 -121.304230339 94.28251411 -117.125 90.1875 C-114.464852879 87.028220797 -112.249113358 83.72592325 -110.125 80.1875 C-109.519785156 79.205234375 -109.519785156 79.205234375 -108.90234375 78.203125 C-105.843375218 72.387595471 -105.200594665 66.112009082 -104.259765625 59.697265625 C-101.10906553 38.242498314 -93.75386903 18.969768339 -76.25 4.9375 C-68.05549075 -1.107118991 -58.963866276 -1.248074809 -49.125 -0.8125 C-47.124298571 -0.483402898 -45.124293815 -0.150043112 -43.125 0.1875 C-35.392169638 0.709717115 -28.578848153 0.155753181 -21.171875 -2.15625 C-13.538073908 -3.800453312 -7.244883681 -2.628289706 0 0 Z M-8.125 14.1875 C-7.135 14.5896875 -7.135 14.5896875 -6.125 15 C-4.501256981 15.642731612 -2.872463979 16.275135703 -1.22265625 16.84765625 C3.267585266 18.424842809 7.256389178 19.999676181 10.875 23.1875 C11.95169974 25.884425792 12.392732911 28.293897469 12.875 31.1875 C11 30.5625 11 30.5625 8.875 29.1875 C8.532753906 27.775976563 8.532753906 27.775976563 8.18359375 26.3359375 C6.436551404 22.132605765 3.789512743 21.126640008 -0.1875 19.4375 C-7.024633291 16.388233418 -7.024633291 16.388233418 -8.125 14.1875 Z " fill="#D7D2C6" transform="translate(176.125,46.8125)" />
<path d="M0 0 C3.25 1.1875 3.25 1.1875 6 3 C6.875 6.1875 6.875 6.1875 7 9 C8.32 9 9.64 9 11 9 C11.66 9 12.32 9 13 9 C13.33 8.34 13.66 7.68 14 7 C14.598125 7.20625 15.19625 7.4125 15.8125 7.625 C18.284508457 8.306719154 18.284508457 8.306719154 21 6 C23.26171875 6.0234375 23.26171875 6.0234375 25.6875 6.375 C26.899863281 6.541289062 26.899863281 6.541289062 28.13671875 6.7109375 C28.751601563 6.806328125 29.366484375 6.90171875 30 7 C30 7.33 30 7.66 30 8 C28.710730085 8.362794558 27.418467279 8.714966977 26.125 9.0625 C25.046054688 9.358339844 25.046054688 9.358339844 23.9453125 9.66015625 C22 10 22 10 20 9 C20.495 12.465 20.495 12.465 21 16 C23.90073181 16.67801034 23.90073181 16.67801034 27 17 C27.66 16.34 28.32 15.68 29 15 C29.495 15.99 29.495 15.99 30 17 C30.66 17 31.32 17 32 17 C32 16.34 32 15.68 32 15 C35.663052343 14.250739294 38.423551516 13.761998602 42 15 C42 15.66 42 16.32 42 17 C43.485 17.495 43.485 17.495 45 18 C45.625 19.75 45.625 19.75 46 22 C46.788995564 26.185688331 47.965548357 30.053346452 49.4140625 34.0546875 C50 36 50 36 50 39 C48.02 39.33 46.04 39.66 44 40 C45.98 40.33 47.96 40.66 50 41 C50 45.666666667 50 50.333333333 50 55 C44.128311808 52.236852615 40.593794319 47.187588638 37.75 41.5 C36.903409158 38.678030527 36.200366512 35.840938293 35.5625 32.96484375 C34.946730413 30.813926374 34.052722578 28.96946849 33 27 C33.2165625 27.67546875 33.433125 28.3509375 33.65625 29.046875 C33.9346875 29.93890625 34.213125 30.8309375 34.5 31.75 C34.7784375 32.63171875 35.056875 33.5134375 35.34375 34.421875 C36 37 36 37 36 41 C31.000880762 40.523893406 28.021673168 38.968377815 24 36 C24.5053125 36.38671875 25.010625 36.7734375 25.53125 37.171875 C26.1809375 37.69265625 26.830625 38.2134375 27.5 38.75 C28.47453125 39.515703125 28.47453125 39.515703125 29.46875 40.296875 C31 42 31 42 31 46 C29.25 45.8125 29.25 45.8125 27 45 C26.428945312 44.194335938 25.857890625 43.388671875 25.26953125 42.55859375 C22.447228192 39.376823521 20.531931346 39.162979003 16.4375 38.25 C12.9453125 37.0625 12.9453125 37.0625 10 35 C8.057161318 30.783532849 7.777051482 26.214908663 7.39453125 21.640625 C7.264335937 20.43921875 7.134140625 19.2378125 7 18 C6.34 17.67 5.68 17.34 5 17 C4.67 17.99 4.34 18.98 4 20 C3.34 19.01 2.68 18.02 2 17 C1.67 17.66 1.34 18.32 1 19 C0.01 19.33 -0.98 19.66 -2 20 C-1.979375 21.258125 -1.95875 22.51625 -1.9375 23.8125 C-1.891139166 26.640510873 -2.083070387 28.249211161 -3 31 C-7.036659599 30.398170751 -10.062924314 29.097389016 -13.625 27.125 C-14.566015625 26.611953125 -15.50703125 26.09890625 -16.4765625 25.5703125 C-18.691874201 24.191743918 -20.359135155 23.01529038 -22 21 C-22 20.34 -22 19.68 -22 19 C-20.0085944 18.618667013 -18.007209229 18.286744176 -16 18 C-15.67 18.33 -15.34 18.66 -15 19 C-13.997829357 15.416722469 -13.997829357 15.416722469 -15 12 C-14 10 -14 10 -11 9 C-9.321710962 6.6116656 -8.147203883 4.588815533 -7.4375 1.75 C-7.293125 1.1725 -7.14875 0.595 -7 0 C-4.238686306 -1.380656847 -2.961289362 -0.807624371 0 0 Z " fill="#E8E3D7" transform="translate(178,67)" />
<path d="M0 0 C0.759257813 0.261035156 1.518515625 0.522070312 2.30078125 0.791015625 C5.783872761 2.005001909 9.102720184 3.294018294 12.44921875 4.859375 C17.436313666 6.792798343 22.154447417 6.603773077 27.44921875 6.68359375 C31.337482861 7.255527696 32.490262517 8.150733028 34.875 11.1875 C34.1325 10.8575 33.39 10.5275 32.625 10.1875 C29.081366811 9.24253115 27.352167761 9.268793662 23.8125 9.5625 C14.676921726 9.80442578 6.331340527 5.520254783 -1.93359375 2.035400391 C-11.013216834 -1.477693523 -20.091107205 -0.025997733 -29.2265625 2.515625 C-34.037852815 3.630910626 -39.193323754 3.96121057 -44.011230469 2.689697266 C-52.732670033 0.617625057 -63.828199056 1.153939575 -71.984375 4.82421875 C-77.352429557 8.242925028 -81.332688888 12.298110799 -85.125 17.375 C-85.769007568 18.231461182 -85.769007568 18.231461182 -86.426025391 19.105224609 C-96.859179915 33.15688236 -100.170284341 44.785250182 -98.125 62.1875 C-97.784263541 64.252261231 -97.430744262 66.314966883 -97.0625 68.375 C-96.057834931 74.36522105 -95.904261167 80.253384919 -95.875 86.3125 C-95.865895996 87.238288574 -95.856791992 88.164077148 -95.847412109 89.117919922 C-95.851359863 89.989084473 -95.855307617 90.860249023 -95.859375 91.7578125 C-95.861630859 92.539145508 -95.863886719 93.320478516 -95.866210938 94.125488281 C-96.125 96.1875 -96.125 96.1875 -98.125 99.1875 C-97.886399568 103.720908216 -97.045900445 107.577301117 -95.625 111.875 C-93.703927888 117.881864507 -93.409901338 123.919670569 -93.125 130.1875 C-90.110094431 131.192468523 -88.083183081 131.290853027 -84.9375 131.25 C-84.036445313 131.240976563 -83.135390625 131.231953125 -82.20703125 131.22265625 C-81.519960938 131.211054687 -80.832890625 131.199453125 -80.125 131.1875 C-80.125 130.5275 -80.125 129.8675 -80.125 129.1875 C-81.053125 128.445 -81.053125 128.445 -82 127.6875 C-85.809078996 123.206230593 -86.278124767 117.628828826 -85.91796875 111.88671875 C-84.959952497 107.417549335 -83.242823124 103.833401945 -81.125 99.8125 C-80.756328125 99.089335937 -80.38765625 98.366171875 -80.0078125 97.62109375 C-77.309302606 92.371802606 -77.309302606 92.371802606 -76.125 91.1875 C-77.775 90.1975 -79.425 89.2075 -81.125 88.1875 C-80.795 87.5275 -80.465 86.8675 -80.125 86.1875 C-77.485 86.5175 -74.845 86.8475 -72.125 87.1875 C-71.7125 86.56875 -71.3 85.95 -70.875 85.3125 C-69.125 83.1875 -69.125 83.1875 -67.25 82.375 C-63.024583206 80.013737674 -60.774486886 75.61018556 -58.8125 71.3125 C-56.360954723 60.169112375 -59.329293418 49.837793834 -65.2734375 40.35546875 C-66.201116832 38.950791179 -67.159655213 37.566563981 -68.125 36.1875 C-64.370272868 37.650380701 -62.996278604 39.488432255 -61 42.9375 C-60.502421875 43.77796875 -60.00484375 44.6184375 -59.4921875 45.484375 C-56.650812205 51.10217987 -55.804906468 55.994152233 -55.875 62.25 C-55.863398437 63.291240234 -55.863398437 63.291240234 -55.8515625 64.353515625 C-55.868032474 68.689236211 -56.458414017 71.021035042 -58.125 75.1875 C-52.845 75.1875 -47.565 75.1875 -42.125 75.1875 C-47.069042466 77.659521233 -51.458285459 77.891937391 -56.91015625 78.4296875 C-60.208799009 78.89351134 -60.208799009 78.89351134 -62.05859375 81.2578125 C-62.410507813 81.894609375 -62.762421875 82.53140625 -63.125 83.1875 C-49.517975586 84.832501637 -38.494513546 83.729431177 -26.125 77.1875 C-26.310625 75.393125 -26.310625 75.393125 -26.5 73.5625 C-26.604414062 72.553164063 -26.604414062 72.553164063 -26.7109375 71.5234375 C-27.073826579 69.071436111 -27.073826579 69.071436111 -28.15625 66.40625 C-29.288347943 62.644763285 -29.347811988 59.194883528 -29.25 55.3125 C-29.240976563 54.624140625 -29.231953125 53.93578125 -29.22265625 53.2265625 C-29.199325127 51.546721616 -29.163463264 49.867062536 -29.125 48.1875 C-28.795 48.1875 -28.465 48.1875 -28.125 48.1875 C-28.09921875 48.975117187 -28.0734375 49.762734375 -28.046875 50.57421875 C-27.61018832 58.960587945 -25.908230813 66.277946388 -23.125 74.1875 C-22.135 72.2075 -22.135 72.2075 -21.125 70.1875 C-21.097579866 72.499931278 -21.078417181 74.812460936 -21.0625 77.125 C-21.050898437 78.412773437 -21.039296875 79.700546875 -21.02734375 81.02734375 C-21.049597483 83.853065836 -21.258713561 86.583712819 -21.611328125 89.38671875 C-22.139637429 93.98191976 -22.34015161 98.538167196 -22.44140625 103.16015625 C-22.472577896 104.372934952 -22.472577896 104.372934952 -22.504379272 105.610214233 C-22.569016165 108.156735136 -22.628354094 110.703346267 -22.6875 113.25 C-22.730767199 114.991545254 -22.774383884 116.733081862 -22.818359375 118.474609375 C-22.924607483 122.712150516 -23.026108232 126.949781063 -23.125 131.1875 C-22.076992187 131.1153125 -21.028984375 131.043125 -19.94921875 130.96875 C-18.570316098 130.874947098 -17.191409648 130.781200013 -15.8125 130.6875 C-14.777060547 130.615957031 -14.777060547 130.615957031 -13.720703125 130.54296875 C-10.848376415 130.348705108 -8.004862122 130.1875 -5.125 130.1875 C-5.125 130.8475 -5.125 131.5075 -5.125 132.1875 C-8.42177888 133.83588944 -12.068160442 133.330227377 -15.6875 133.3125 C-16.877626953 133.318300781 -16.877626953 133.318300781 -18.091796875 133.32421875 C-23.998369333 133.314130667 -23.998369333 133.314130667 -25.125 132.1875 C-25.225869129 129.984936927 -25.255822929 127.77908943 -25.2578125 125.57421875 C-25.259791412 124.557420349 -25.259791412 124.557420349 -25.261810303 123.520080566 C-25.263734149 121.305007903 -25.257380458 119.090059894 -25.25 116.875 C-25.248670654 115.755101776 -25.248670654 115.755101776 -25.247314453 114.612579346 C-25.23073208 102.780258625 -24.928448101 90.995317622 -24.125 79.1875 C-25.697011719 79.819785156 -25.697011719 79.819785156 -27.30078125 80.46484375 C-28.679669129 81.01827494 -30.058576392 81.571657836 -31.4375 82.125 C-32.127792969 82.402792969 -32.818085938 82.680585937 -33.529296875 82.966796875 C-39.177616567 85.231582065 -43.20976445 86.3059884 -49.3125 86.25 C-50.584804687 86.240976563 -51.857109375 86.231953125 -53.16796875 86.22265625 C-54.143789063 86.211054687 -55.119609375 86.199453125 -56.125 86.1875 C-56.043713188 90.542407255 -55.930901396 94.895956193 -55.8125 99.25 C-55.789941406 100.479121094 -55.767382813 101.708242187 -55.744140625 102.974609375 C-55.601675502 113.259192882 -55.601675502 113.259192882 -50.51953125 121.859375 C-49.997460937 122.21515625 -49.475390625 122.5709375 -48.9375 122.9375 C-48.009375 123.68 -47.08125 124.4225 -46.125 125.1875 C-46.125 126.1775 -46.125 127.1675 -46.125 128.1875 C-48.310522416 127.094738792 -49.434035118 125.943501993 -51.125 124.1875 C-51.785 123.630625 -52.445 123.07375 -53.125 122.5 C-59.019569605 115.684403894 -58.648145049 107.233957476 -58.8125 98.6875 C-58.846660156 97.483515625 -58.880820313 96.27953125 -58.916015625 95.0390625 C-58.997971949 92.088634837 -59.067293836 89.138484839 -59.125 86.1875 C-63.111612624 85.394664356 -63.111612624 85.394664356 -67.125 85.1875 C-69.474135269 86.739839883 -69.474135269 86.739839883 -71 89.125 C-72.014100509 90.499931621 -73.049956186 91.859675613 -74.125 93.1875 C-74.785 93.1875 -75.445 93.1875 -76.125 93.1875 C-76.400859375 93.902929688 -76.67671875 94.618359375 -76.9609375 95.35546875 C-78.10672034 98.143027673 -79.413547014 100.799739727 -80.75 103.5 C-84.17392983 111.067087523 -83.68918886 116.389792562 -81.07421875 124.20703125 C-80.224385179 126.269169426 -80.224385179 126.269169426 -78.51953125 127.76171875 C-77.125 129.1875 -77.125 129.1875 -77.125 132.1875 C-79.81067297 133.530336485 -82.002468532 133.430375186 -85 133.5 C-86.573945313 133.556074219 -86.573945313 133.556074219 -88.1796875 133.61328125 C-91.800523132 133.089844799 -92.878717842 132.003188565 -95.125 129.1875 C-96.905494815 125.626510371 -96.8266315 121.333966779 -97.19921875 117.392578125 C-97.599161 113.762593807 -98.198067058 110.708937398 -99.70703125 107.3671875 C-101.359036128 103.662691712 -101.235747332 102.032394611 -100.125 98.1875 C-99.782109375 97.572617187 -99.43921875 96.957734375 -99.0859375 96.32421875 C-95.895222312 89.229417092 -98.390056329 78.707548629 -99.125 71.1875 C-99.598085938 72.238085938 -100.071171875 73.288671875 -100.55859375 74.37109375 C-105.187537909 84.322257116 -109.963720678 91.566540509 -118.875 98.25 C-124.144650639 99.77009153 -129.709101898 100.105816501 -135.125 99.1875 C-137.01953125 97.16015625 -137.01953125 97.16015625 -138.125 95.1875 C-137.63 94.6925 -137.63 94.6925 -137.125 94.1875 C-135.08263644 94.220059419 -133.040811757 94.288997682 -131 94.375 C-125.281791279 94.381242586 -121.304230339 94.28251411 -117.125 90.1875 C-114.464852879 87.028220797 -112.249113358 83.72592325 -110.125 80.1875 C-109.519785156 79.205234375 -109.519785156 79.205234375 -108.90234375 78.203125 C-105.843375218 72.387595471 -105.200594665 66.112009082 -104.259765625 59.697265625 C-101.10906553 38.242498314 -93.75386903 18.969768339 -76.25 4.9375 C-68.05549075 -1.107118991 -58.963866276 -1.248074809 -49.125 -0.8125 C-47.124298571 -0.483402898 -45.124293815 -0.150043112 -43.125 0.1875 C-35.392169638 0.709717115 -28.578848153 0.155753181 -21.171875 -2.15625 C-13.538073908 -3.800453312 -7.244883681 -2.628289706 0 0 Z " fill="#3D382F" transform="translate(176.125,46.8125)" />
<path d="M0 0 C0.66 0 1.32 0 2 0 C1.835 0.810820312 1.67 1.621640625 1.5 2.45703125 C0.746221037 7.515594758 0.193970872 11.394079021 2.5390625 16.06640625 C4.585692318 18.822074488 6.750565879 21.408618934 9 24 C9.932986893 25.384977953 10.852548707 26.779235235 11.75 28.1875 C12.4925 29.115625 13.235 30.04375 14 31 C15.32 31 16.64 31 18 31 C17.01 30.01 16.02 29.02 15 28 C16 26 16 26 19 25 C19 24.01 19 23.02 19 22 C20.32 21.67 21.64 21.34 23 21 C23.66 21.99 24.32 22.98 25 24 C27.562827418 24.729653662 27.562827418 24.729653662 30 25 C30 26.98 30 28.96 30 31 C29.01 31.495 29.01 31.495 28 32 C27.46375 32.70125 26.9275 33.4025 26.375 34.125 C24 36 24 36 21.9609375 36.0390625 C19.961017759 35.777588894 17.977772498 35.3955545 16 35 C17.521000229 36.521000229 19.275095736 37.72023232 21 39 C20.419921875 39.926191406 20.419921875 39.926191406 19.828125 40.87109375 C11.990632786 53.542242844 11.990632786 53.542242844 12 68 C12.054140625 68.698671875 12.10828125 69.39734375 12.1640625 70.1171875 C12.282502434 72.204552462 12.282502434 72.204552462 13 75 C14.917641739 76.376279395 14.917641739 76.376279395 17 77 C17.495 77.99 17.495 77.99 18 79 C15.570388207 80.214805897 13.836158839 80.236072674 11.125 80.3125 C9.829492187 80.368574219 9.829492187 80.368574219 8.5078125 80.42578125 C6 80 6 80 3.74609375 78.46484375 C1.428337439 75.193022201 1.215886731 72.133517315 0.9375 68.25 C0.325248928 61.685661001 0.325248928 61.685661001 -1.6875 55.4375 C-3.23057361 51.396116736 -3.039736257 49.158945027 -2 45 C-1.514667969 44.11828125 -1.514667969 44.11828125 -1.01953125 43.21875 C0.333985783 40.273165039 0.676403657 37.454259595 1.125 34.25 C1.376367187 32.494296875 1.376367187 32.494296875 1.6328125 30.703125 C1.753984375 29.81109375 1.87515625 28.9190625 2 28 C6.75 26.875 6.75 26.875 9 28 C8.278125 27.0821875 7.55625 26.164375 6.8125 25.21875 C5.873996921 23.979925936 4.93655255 22.740299323 4 21.5 C3.523046875 20.899296875 3.04609375 20.29859375 2.5546875 19.6796875 C-1.819364817 13.805960102 -1.527503005 9.692521036 -0.5 2.5 C-0.335 1.675 -0.17 0.85 0 0 Z " fill="#EDE8DC" transform="translate(80,99)" />
<path d="M0 0 C2.247184053 2.247184053 2.437645576 3.160038958 3.078125 6.19140625 C3.266489258 7.044685059 3.454853516 7.897963867 3.648925781 8.777099609 C3.847280273 9.696281738 4.045634766 10.615463867 4.25 11.5625 C5.782315396 18.407965101 7.565202789 24.908462579 10.125 31.4375 C13.05711913 38.978804212 14.125558346 46.469876106 14.799316406 54.515380859 C15.414640272 60.698429545 16.668276778 63.541905598 21 68 C21 68.66 21 69.32 21 70 C18.541593945 70.026916855 16.083481184 70.046798022 13.625 70.0625 C12.926328125 70.070878906 12.22765625 70.079257813 11.5078125 70.087890625 C6.2265625 70.11328125 6.2265625 70.11328125 4 69 C3.842326964 66.983604449 3.777360078 64.959865751 3.75 62.9375 C3.252682694 53.788738239 0.385701867 44.828550049 -4.234375 36.875 C-5.322305278 34.210680953 -4.844727531 32.440898851 -4.3125 29.625 C-4.115273438 28.499648438 -3.918046875 27.374296875 -3.71484375 26.21484375 C-3.601245117 25.567573242 -3.487646484 24.920302734 -3.370605469 24.253417969 C-2.602017139 19.580117388 -2.0036775 14.881273344 -1.375 10.1875 C-1.112019338 8.243484149 -0.849001563 6.299473317 -0.5859375 4.35546875 C-0.390467792 2.903666991 -0.195092076 1.451852553 0 0 Z " fill="#E8E4D7" transform="translate(176,108)" />
<path d="M0 0 C3.625 1 3.625 1 4.625 2 C4.734543139 3.82056549 4.780889442 5.645000369 4.80078125 7.46875 C4.824628906 8.59796875 4.848476562 9.7271875 4.873046875 10.890625 C4.9154545 13.265451974 4.947004182 15.640501885 4.966796875 18.015625 C5.124687381 24.507495116 5.716927849 29.529383759 8.774169922 35.310546875 C9.625 37 9.625 37 9.625 39 C10.8315625 39.433125 10.8315625 39.433125 12.0625 39.875 C14.625 41 14.625 41 15.625 43 C15.295 43.66 14.965 44.32 14.625 45 C3.898007605 46.161418726 3.898007605 46.161418726 -0.69140625 43.81640625 C-6.217266606 38.457634544 -6.754795262 31.398645756 -7.671875 24.12109375 C-8.241334668 20.010036689 -9.637699609 16.757957263 -11.375 13 C-12 10 -12 10 -11.375 7 C-8.466657457 2.566980912 -5.566211763 -0.653075387 0 0 Z " fill="#EBE7D9" transform="translate(113.375,131)" />
<path d="M0 0 C3.754727132 1.462880701 5.128721396 3.300932255 7.125 6.75 C7.622578125 7.59046875 8.12015625 8.4309375 8.6328125 9.296875 C11.474187795 14.91467987 12.320093532 19.806652233 12.25 26.0625 C12.257734375 26.756660156 12.26546875 27.450820312 12.2734375 28.166015625 C12.256967526 32.501736211 11.666585983 34.833535042 10 39 C15.28 39 20.56 39 26 39 C21.055957534 41.472021233 16.666714541 41.704437391 11.21484375 42.2421875 C7.916200991 42.70601134 7.916200991 42.70601134 6.06640625 45.0703125 C5.714492187 45.707109375 5.362578125 46.34390625 5 47 C18.607024414 48.645001637 29.630486454 47.541931177 42 41 C41.87625 39.80375 41.7525 38.6075 41.625 37.375 C41.520585938 36.365664063 41.520585938 36.365664063 41.4140625 35.3359375 C41.051173421 32.883936111 41.051173421 32.883936111 39.96875 30.21875 C38.836652057 26.457263285 38.777188012 23.007383528 38.875 19.125 C38.884023437 18.436640625 38.893046875 17.74828125 38.90234375 17.0390625 C38.925674873 15.359221616 38.961536736 13.679562536 39 12 C39.33 12 39.66 12 40 12 C40.02578125 12.787617188 40.0515625 13.575234375 40.078125 14.38671875 C40.51481168 22.773087945 42.216769187 30.090446388 45 38 C45.66 36.68 46.32 35.36 47 34 C47.027420134 36.312431278 47.046582819 38.624960936 47.0625 40.9375 C47.074101563 42.225273437 47.085703125 43.513046875 47.09765625 44.83984375 C47.075402517 47.665565836 46.866286439 50.396212819 46.513671875 53.19921875 C45.985362571 57.79441976 45.78484839 62.350667196 45.68359375 66.97265625 C45.662812653 67.781175385 45.642031555 68.589694519 45.620620728 69.422714233 C45.555983835 71.969235136 45.496645906 74.515846267 45.4375 77.0625 C45.394232801 78.804045254 45.350616116 80.545581862 45.306640625 82.287109375 C45.200392517 86.524650516 45.098891768 90.762281063 45 95 C46.048007813 94.9278125 47.096015625 94.855625 48.17578125 94.78125 C49.554683902 94.687447098 50.933590352 94.593700013 52.3125 94.5 C53.347939453 94.428457031 53.347939453 94.428457031 54.404296875 94.35546875 C57.276623585 94.161205108 60.120137878 94 63 94 C63 94.66 63 95.32 63 96 C59.70322112 97.64838944 56.056839558 97.142727377 52.4375 97.125 C51.644082031 97.128867188 50.850664063 97.132734375 50.033203125 97.13671875 C44.126630667 97.126630667 44.126630667 97.126630667 43 96 C42.899130871 93.797436927 42.869177071 91.59158943 42.8671875 89.38671875 C42.865208588 88.369920349 42.865208588 88.369920349 42.863189697 87.332580566 C42.861265851 85.117507903 42.867619542 82.902559894 42.875 80.6875 C42.876329346 79.567601776 42.876329346 79.567601776 42.877685547 78.425079346 C42.89426792 66.592758625 43.196551899 54.807817622 44 43 C42.951992187 43.421523437 41.903984375 43.843046875 40.82421875 44.27734375 C39.445330871 44.83077494 38.066423608 45.384157836 36.6875 45.9375 C35.652060547 46.354189453 35.652060547 46.354189453 34.595703125 46.779296875 C28.947383433 49.044082065 24.91523555 50.1184884 18.8125 50.0625 C17.540195313 50.053476563 16.267890625 50.044453125 14.95703125 50.03515625 C13.493300781 50.017753906 13.493300781 50.017753906 12 50 C12.081286812 54.354907255 12.194098604 58.708456193 12.3125 63.0625 C12.335058594 64.291621094 12.357617187 65.520742187 12.380859375 66.787109375 C12.523324498 77.071692882 12.523324498 77.071692882 17.60546875 85.671875 C18.127539063 86.02765625 18.649609375 86.3834375 19.1875 86.75 C20.115625 87.4925 21.04375 88.235 22 89 C22 89.99 22 90.98 22 92 C19.814477584 90.907238792 18.690964882 89.756001993 17 88 C16.34 87.443125 15.68 86.88625 15 86.3125 C9.105430395 79.496903894 9.476854951 71.046457476 9.3125 62.5 C9.278339844 61.296015625 9.244179688 60.09203125 9.208984375 58.8515625 C9.127028051 55.901134837 9.057706164 52.950984839 9 50 C5.013387376 49.207164356 5.013387376 49.207164356 1 49 C-1.349135269 50.552339883 -1.349135269 50.552339883 -2.875 52.9375 C-3.889100509 54.312431621 -4.924956186 55.672175613 -6 57 C-6.66 57 -7.32 57 -8 57 C-8.275859375 57.715429688 -8.55171875 58.430859375 -8.8359375 59.16796875 C-9.98172034 61.955527673 -11.288547014 64.612239727 -12.625 67.3125 C-15.923873708 74.540914449 -15.279889005 80.320665968 -14 88 C-14.99 88.495 -14.99 88.495 -16 89 C-16.369381066 87.482790165 -16.719671652 85.960929283 -17.0625 84.4375 C-17.259726563 83.590585938 -17.456953125 82.743671875 -17.66015625 81.87109375 C-18.490412556 74.85685944 -16.176238752 69.655411337 -13 63.625 C-12.631328125 62.901835938 -12.26265625 62.178671875 -11.8828125 61.43359375 C-9.184302606 56.184302606 -9.184302606 56.184302606 -8 55 C-9.65 54.01 -11.3 53.02 -13 52 C-12.67 51.34 -12.34 50.68 -12 50 C-9.36 50.33 -6.72 50.66 -4 51 C-3.5875 50.38125 -3.175 49.7625 -2.75 49.125 C-1 47 -1 47 0.875 46.1875 C5.100416794 43.826237674 7.350513114 39.42268556 9.3125 35.125 C11.764045277 23.981612375 8.795706582 13.650293834 2.8515625 4.16796875 C1.923883168 2.763291179 0.965344787 1.379063981 0 0 Z " fill="#474338" transform="translate(108,83)" />
<path d="M0 0 C2.541712039 1.173097864 4.728837441 2.490849705 7.0625 4.0625 C9.883573401 6.104725434 9.883573401 6.104725434 13 7 C12.67 7.99 12.34 8.98 12 10 C11.34 9.67 10.68 9.34 10 9 C10 9.66 10 10.32 10 11 C10.66 11.33 11.32 11.66 12 12 C12.380632205 14.326085699 12.712699447 16.660552641 13 19 C13.33 19.66 13.66 20.32 14 21 C14.155991539 23.227212533 14.275447591 25.457051985 14.375 27.6875 C14.728187144 33.258742361 15.48628492 37.077307969 18 42 C19.265057228 46.574312889 19.113763357 51.108101158 19.0625 55.8125 C19.057988281 56.600761719 19.053476563 57.389023438 19.048828125 58.201171875 C19.037113121 60.134147607 19.019179983 62.067083925 19 64 C20.32 64 21.64 64 23 64 C23 64.99 23 65.98 23 67 C20.525 67.495 20.525 67.495 18 68 C17.82984375 68.652265625 17.6596875 69.30453125 17.484375 69.9765625 C15.989619016 75.367225039 14.397930977 79.54753872 11 84 C10.505 83.01 10.505 83.01 10 82 C10.7421875 80.01171875 10.7421875 80.01171875 11.875 77.6875 C13.386888667 74.455186299 14.539188924 71.571285835 15 68 C14.13375 67.814375 14.13375 67.814375 13.25 67.625 C10.973877944 66.992743873 9.092397941 66.081365322 7 65 C7.04640625 65.7734375 7.0928125 66.546875 7.140625 67.34375 C7.375591525 74.124212569 7.252452167 79.489033952 3 85 C-0.579361844 88.329638925 -3.106869992 89.220058838 -7.875 89.25 C-9.251054874 89.186419907 -10.626864089 89.109850873 -12 89 C-12.495 89.99 -12.495 89.99 -13 91 C-14.65 90.34 -16.3 89.68 -18 89 C-18 86.36 -18 83.72 -18 81 C-16.35 81.33 -14.7 81.66 -13 82 C-12.67 83.32 -12.34 84.64 -12 86 C-8.093181958 86.859499969 -5.588819385 87.192498645 -1.75 85.9375 C1.632030875 83.55470552 2.469400667 81.830922029 4 78 C4.28394484 75.213443285 4.421603909 72.710432567 4.375 69.9375 C4.386601563 69.243339844 4.398203125 68.549179688 4.41015625 67.833984375 C4.385032854 63.424828338 3.849247231 60.424385304 1 57 C-0.093125 56.896875 -1.18625 56.79375 -2.3125 56.6875 C-6.556948423 55.896162159 -6.980090062 55.268396883 -9.4375 51.9375 C-10.31192995 50.638412163 -11.173035671 49.329807108 -12 48 C-8.618775467 49.54828146 -7.206614552 51.025867343 -5 54 C-4.01 54.33 -3.02 54.66 -2 55 C-3.431752099 49.988867653 -5.98445693 48.05530451 -10 45 C-6.848646127 45 -6.073686589 45.35152208 -3.5 46.9375 C-1.267573034 48.303392815 0.475326817 49.158442272 3 50 C1.093029745 42.34121088 1.093029745 42.34121088 -1.75 35 C-3 32 -3 32 -2 29 C4.113005008 41.437466164 4.113005008 41.437466164 5 46.75 C6.076631206 52.704429731 9.487342922 57.988085969 14.1953125 61.7578125 C14.790859375 62.167734375 15.38640625 62.57765625 16 63 C16.33 61.02 16.66 59.04 17 57 C15.02 57 13.04 57 11 57 C11 56.67 11 56.34 11 56 C13.475 55.505 13.475 55.505 16 55 C16.33 53.35 16.66 51.7 17 50 C14.36 50 11.72 50 9 50 C11 48 11 48 14.125 47.875 C15.07375 47.91625 16.0225 47.9575 17 48 C16.650664062 47.151796875 16.301328125 46.30359375 15.94140625 45.4296875 C13.497693749 39.130032045 11.74849386 33.83527436 11.5625 27 C11.166028738 16.940957689 7.171609709 7.171609709 0 0 Z " fill="#5E5950" transform="translate(211,58)" />
<path d="M0 0 C3.882324219 1.759277344 3.882324219 1.759277344 4.94140625 3.92578125 C5.146367188 4.713398438 5.351328125 5.501015625 5.5625 6.3125 C5.803554687 7.210976562 6.044609375 8.109453125 6.29296875 9.03515625 C7.023727254 12.099497159 7.700794075 15.172758432 8.375 18.25 C9.387607055 22.844038325 10.745266766 27.014435377 12.5 31.375 C15.293728242 38.728225374 16.07578859 46.09643699 16.66015625 53.917480469 C17.241523849 59.997962656 18.30570174 63.351889438 22.840087891 67.564697266 C23.222858887 68.038347168 23.605629883 68.51199707 24 69 C23.505 70.485 23.505 70.485 23 72 C17.06 72 11.12 72 5 72 C3.010167717 68.020335434 2.775992841 67.32324868 3.375 63.25 C3.485859375 62.45078125 3.59671875 61.6515625 3.7109375 60.828125 C3.806328125 60.22484375 3.90171875 59.6215625 4 59 C3.34 59 2.68 59 2 59 C1.731875 59.598125 1.46375 60.19625 1.1875 60.8125 C0.01506533 62.972248076 -1.193692818 64.357902562 -3 66 C-3 65.34 -3 64.68 -3 64 C-5.475 64.99 -5.475 64.99 -8 66 C-7.67 66.99 -7.34 67.98 -7 69 C-8.65 68.34 -10.3 67.68 -12 67 C-10.716729326 57.996617652 -9.04186281 49.137882331 -7.125 40.25 C-4.296082758 26.896433929 -2.001264969 13.500454436 0 0 Z M1 1 C0.919594727 1.598366699 0.839189453 2.196733398 0.756347656 2.813232422 C0.516241165 4.596562588 0.275103878 6.379754128 0.033203125 8.162841797 C-0.240180581 10.188530032 -0.509677757 12.21474638 -0.775390625 14.241455078 C-1.92695158 22.899719242 -1.92695158 22.899719242 -2.8203125 26.96875 C-4.56962123 35.25283272 -2.985487798 39.672573425 1 47 C3.94226661 53.628962122 4.436923191 59.93818504 4.69140625 67.15625 C4.793242187 68.0946875 4.895078125 69.033125 5 70 C8.065331644 71.532665822 11.267542719 71.102764709 14.625 71.0625 C15.684609375 71.055732422 15.684609375 71.055732422 16.765625 71.048828125 C18.510452751 71.037038748 20.255236997 71.019103245 22 71 C20.989884863 68.824367398 20.106891611 67.113084324 18.44921875 65.359375 C16.145170429 61.608309809 16.220254957 57.572202548 15.8125 53.25 C14.707293414 43.473172508 12.203812404 34.701668171 8.916748047 25.451660156 C6.556012389 18.795033582 4.774469388 12.384604488 3.5703125 5.4140625 C3.183947577 2.833555774 3.183947577 2.833555774 1 1 Z " fill="#9A9589" transform="translate(175,107)" />
<path d="M0 0 C0.763125 0.309375 1.52625 0.61875 2.3125 0.9375 C4.187896768 1.678935932 6.086846517 2.362282172 8 3 C7.529606965 11.310276949 4.81095066 18.640571162 -0.5625 25.0625 C-5.675817899 29.126932176 -9.384243241 29.262238537 -15.75 29.125 C-16.542773437 29.115976563 -17.335546875 29.106953125 -18.15234375 29.09765625 C-20.101692814 29.074170117 -22.050885745 29.038301372 -24 29 C-24.99 32.465 -24.99 32.465 -26 36 C-26.33 36 -26.66 36 -27 36 C-27.66 31.05 -28.32 26.1 -29 21 C-28.34 21 -27.68 21 -27 21 C-26.34 20.01 -25.68 19.02 -25 18 C-25 19.98 -25 21.96 -25 24 C-23.35 24.33 -21.7 24.66 -20 25 C-20 24.34 -20 23.68 -20 23 C-19.021601562 23.069609375 -19.021601562 23.069609375 -18.0234375 23.140625 C-13.617009144 23.322601392 -10.6324732 23.287487818 -6.5625 21.4375 C-0.275892127 15.457555926 -0.392360402 8.239568437 0 0 Z " fill="#CCC7BB" transform="translate(218,123)" />
<path d="M0 0 C1 2 1 2 0.1875 4.8125 C-0.376770124 8.140426569 -0.376770124 8.140426569 2.125 10.5 C7.206938168 14.214654804 13.252195623 16.518381196 19 19 C19.33 15.37 19.66 11.74 20 8 C20.66 8 21.32 8 22 8 C22.33 6.68 22.66 5.36 23 4 C23.598125 4.185625 24.19625 4.37125 24.8125 4.5625 C27.164087618 5.220936871 27.164087618 5.220936871 30 4 C30.66 10.27 31.32 16.54 32 23 C36.455 23.99 36.455 23.99 41 25 C41.66 25.66 42.32 26.32 43 27 C37.06 26.01 37.06 26.01 31 25 C31 25.66 31 26.32 31 27 C28.3125 27.8125 28.3125 27.8125 25 28 C23.840238793 26.823338812 22.685260438 25.641442787 21.559326172 24.432373047 C18.4933973 21.616057924 14.671496821 19.907271076 11 18 C-1.862302483 11.318284424 -1.862302483 11.318284424 -3.75 5.8125 C-3.8325 5.214375 -3.915 4.61625 -4 4 C-4.33 3.34 -4.66 2.68 -5 2 C-3.68 2.33 -2.36 2.66 -1 3 C-0.67 2.01 -0.34 1.02 0 0 Z " fill="#979186" transform="translate(156,79)" />
<path d="M0 0 C0.66 0.33 1.32 0.66 2 1 C1.965195312 1.978398438 1.930390625 2.956796875 1.89453125 3.96484375 C1.680073076 13.73675218 1.680073076 13.73675218 4.34375 23.0703125 C5.152557037 25.448590336 5.103568039 27.505736405 5 30 C3.441482445 30.820113121 1.877982836 31.63076213 0.3125 32.4375 C-0.992675781 33.116191406 -0.992675781 33.116191406 -2.32421875 33.80859375 C-4.909982644 34.95991928 -7.213565278 35.56320753 -10 36 C-9.67 34.68 -9.34 33.36 -9 32 C-9.99 31.67 -10.98 31.34 -12 31 C-9.69 30.34 -7.38 29.68 -5 29 C-4.67 29.33 -4.34 29.66 -4 30 C-3.67 29.34 -3.34 28.68 -3 28 C-5.64 28 -8.28 28 -11 28 C-10.792460938 27.486953125 -10.584921875 26.97390625 -10.37109375 26.4453125 C-6.83648346 17.660548851 -3.42365728 8.828419616 0 0 Z " fill="#E3E0D0" transform="translate(146,94)" />
<path d="M0 0 C0.66 0 1.32 0 2 0 C1.835 0.810820312 1.67 1.621640625 1.5 2.45703125 C0.746221037 7.515594758 0.193970872 11.394079021 2.5390625 16.06640625 C4.585692318 18.822074488 6.750565879 21.408618934 9 24 C9.932986893 25.384977953 10.852548707 26.779235235 11.75 28.1875 C12.4925 29.115625 13.235 30.04375 14 31 C15.32 31 16.64 31 18 31 C17.01 30.01 16.02 29.02 15 28 C16 26 16 26 19 25 C19 24.01 19 23.02 19 22 C20.32 21.67 21.64 21.34 23 21 C23.66 21.99 24.32 22.98 25 24 C27.562827418 24.729653662 27.562827418 24.729653662 30 25 C30 26.98 30 28.96 30 31 C29.34 31.33 28.68 31.66 28 32 C27.46375 32.70125 26.9275 33.4025 26.375 34.125 C24 36 24 36 20.0625 36 C15.041309453 35.361120885 11.994008126 32.225388043 8.90234375 28.4140625 C6.92925182 25.613291847 4.963299739 22.807641589 3 20 C2.537226562 19.416054688 2.074453125 18.832109375 1.59765625 18.23046875 C-1.500129341 14.228703022 -1.507147987 10.822690287 -1 6 C-0.713255824 3.992790771 -0.397642626 1.988213131 0 0 Z " fill="#B6B1A3" transform="translate(80,99)" />
<path d="M0 0 C0.66 0 1.32 0 2 0 C4.942028986 20.173913043 4.942028986 20.173913043 3 26 C0.36 25.34 -2.28 24.68 -5 24 C-5.338956561 22.271926818 -5.670915248 20.542480259 -6 18.8125 C-6.185625 17.849570312 -6.37125 16.886640625 -6.5625 15.89453125 C-6.968776123 13.206579403 -7.079335717 10.712289811 -7 8 C-6.34 8 -5.68 8 -5 8 C-4.67 7.34 -4.34 6.68 -4 6 C-3.01 6.33 -2.02 6.66 -1 7 C-1 6.34 -1 5.68 -1 5 C-1.66 4.67 -2.32 4.34 -3 4 C-1.625 2 -1.625 2 0 0 Z " fill="#EFEBE1" transform="translate(115,144)" />
<path d="M0 0 C6.364311375 7.546254917 7.616961009 18.443177176 8 28 C10.64 28.66 13.28 29.32 16 30 C16.33 27.36 16.66 24.72 17 22 C19 25 19 25 19.8125 27.5625 C20.796148003 30.233161965 20.796148003 30.233161965 23.5625 31.1875 C24.366875 31.455625 25.17125 31.72375 26 32 C26.33 32.66 26.66 33.32 27 34 C26.67 34.66 26.34 35.32 26 36 C15.273007605 37.161418726 15.273007605 37.161418726 10.68359375 34.81640625 C5.157733394 29.457634544 4.620204738 22.398645756 3.703125 15.12109375 C3.307309721 12.233930938 2.628796961 9.874634072 1.421875 7.22265625 C0 4 0 4 0 0 Z " fill="#979288" transform="translate(102,140)" />
<path d="M0 0 C0.146953125 1.264570313 0.146953125 1.264570313 0.296875 2.5546875 C0.44640625 3.650390625 0.5959375 4.74609375 0.75 5.875 C0.88921875 6.965546875 1.0284375 8.05609375 1.171875 9.1796875 C1.695949157 12.120585788 1.695949157 12.120585788 4.015625 13.2578125 C4.67046875 13.502734375 5.3253125 13.74765625 6 14 C6.33 14.66 6.66 15.32 7 16 C3.296957332 17.851521334 -0.957682547 17.45639068 -5 17 C-7.625 15.4375 -7.625 15.4375 -9 13 C-9.25 9.25 -9.25 9.25 -9 6 C-8.01 6 -7.02 6 -6 6 C-6.66 4.35 -7.32 2.7 -8 1 C-3.375 -1.125 -3.375 -1.125 0 0 Z " fill="#E5DFD0" transform="translate(91,162)" />
<path d="M0 0 C3.381224533 1.54828146 4.793385448 3.025867343 7 6 C7.99 6.33 8.98 6.66 10 7 C10.33 6.34 10.66 5.68 11 5 C15.486782247 6.495594082 17.196328438 9.944987021 19.96484375 13.65234375 C21.917266456 15.904562649 23.261252431 16.92778339 26 18 C26 18.66 26 19.32 26 20 C21.25 18.125 21.25 18.125 19 17 C19.04640625 17.7734375 19.0928125 18.546875 19.140625 19.34375 C19.375591525 26.124212569 19.252452167 31.489033952 15 37 C11.420638156 40.329638925 8.893130008 41.220058838 4.125 41.25 C2.748945126 41.186419907 1.373135911 41.109850873 0 41 C-0.33 41.66 -0.66 42.32 -1 43 C-2.65 42.34 -4.3 41.68 -6 41 C-6 38.36 -6 35.72 -6 33 C-4.35 33.33 -2.7 33.66 -1 34 C-0.67 35.32 -0.34 36.64 0 38 C3.906818042 38.859499969 6.411180615 39.192498645 10.25 37.9375 C13.632030875 35.55470552 14.469400667 33.830922029 16 30 C16.28394484 27.213443285 16.421603909 24.710432567 16.375 21.9375 C16.386601563 21.243339844 16.398203125 20.549179688 16.41015625 19.833984375 C16.385032854 15.424828338 15.849247231 12.424385304 13 9 C11.906875 8.896875 10.81375 8.79375 9.6875 8.6875 C5.443051577 7.896162159 5.019909938 7.268396883 2.5625 3.9375 C1.68807005 2.638412163 0.826964329 1.329807108 0 0 Z " fill="#3F3B32" transform="translate(199,106)" />
<path d="M0 0 C2.31 0.33 4.62 0.66 7 1 C7.33 2.32 7.66 3.64 8 5 C9.65 4.34 11.3 3.68 13 3 C13 4.32 13 5.64 13 7 C13.99 7.66 14.98 8.32 16 9 C15.01 9.33 14.02 9.66 13 10 C13.99 11.485 13.99 11.485 15 13 C14.67 13.66 14.34 14.32 14 15 C13.01 15 12.02 15 11 15 C11 16.65 11 18.3 11 20 C10.34 19.67 9.68 19.34 9 19 C8.7525 18.071875 8.505 17.14375 8.25 16.1875 C6.650909995 12.109820487 4.665146638 11.272390916 1 9 C-1.375 6.25 -1.375 6.25 -3 4 C-2.01 3.67 -1.02 3.34 0 3 C0 2.01 0 1.02 0 0 Z " fill="#EDE7DC" transform="translate(178,56)" />
<path d="M0 0 C0.66 0.33 1.32 0.66 2 1 C1.679139364 3.387807562 1.357087261 5.775442005 1.033203125 8.162841797 C0.759819419 10.188530032 0.490322243 12.21474638 0.224609375 14.241455078 C-0.92695158 22.899719242 -0.92695158 22.899719242 -1.8203125 26.96875 C-3.334633964 34.140019462 -2.738971571 38.067513362 0.75 44.54296875 C2.389903903 47.76640486 2.761529456 50.422941841 3 54 C0.996150088 50.994225132 -0.261197423 48.150227361 -1.625 44.8125 C-2.071015625 43.725820312 -2.51703125 42.639140625 -2.9765625 41.51953125 C-3.314296875 40.688085938 -3.65203125 39.856640625 -4 39 C-4.846632005 42.350951462 -5.674862354 45.706196871 -6.5 49.0625 C-6.738476563 50.005449219 -6.976953125 50.948398438 -7.22265625 51.919921875 C-8.483377466 57.08887886 -9.295181842 61.679347307 -9 67 C-9.66 66.67 -10.32 66.34 -11 66 C-11.417853724 60.150047869 -10.702992844 55.391173285 -9.18359375 49.71875 C-7.15407148 41.91328692 -5.59275637 34.072695818 -4.189697266 26.133300781 C-3.807527163 23.971875309 -3.417073598 21.812063753 -3.025390625 19.65234375 C-1.850530743 13.113734191 -0.784990402 6.597017425 0 0 Z " fill="#49443A" transform="translate(175,107)" />
<path d="M0 0 C0.66 0.33 1.32 0.66 2 1 C1.67 3.64 1.34 6.28 1 9 C1.66 9 2.32 9 3 9 C3.132773437 9.81984375 3.265546875 10.6396875 3.40234375 11.484375 C3.578945312 12.56203125 3.755546875 13.6396875 3.9375 14.75 C4.111523438 15.81734375 4.285546875 16.8846875 4.46484375 17.984375 C4.931940823 20.893994863 4.931940823 20.893994863 5.62890625 23.265625 C6 25 6 25 5 27 C5.66 27 6.32 27 7 27 C6.67 27.99 6.34 28.98 6 30 C5.67 29.67 5.34 29.34 5 29 C4.34 29.99 3.68 30.98 3 32 C2.01 32.495 2.01 32.495 1 33 C0.8046875 30.94921875 0.609375 28.8984375 0.4140625 26.84765625 C0.209101562 25.933066406 0.209101562 25.933066406 0 25 C-0.66 24.67 -1.32 24.34 -2 24 C-2.054101364 20.937261688 -2.093722249 17.875485477 -2.125 14.8125 C-2.141757813 13.948183594 -2.158515625 13.083867188 -2.17578125 12.193359375 C-2.210382326 7.677918967 -2.155679158 4.099185171 0 0 Z " fill="#F0EADD" transform="translate(156,127)" />
<path d="M0 0 C0.33 0 0.66 0 1 0 C1.794922682 12.122570902 -2.905372454 21.928581132 -10.73046875 31.0078125 C-15.64524226 36.193820751 -19.874636005 39.11004116 -27.1875 39.375 C-31.509643258 39.414835422 -31.509643258 39.414835422 -33.80078125 37.4765625 C-34.196523437 36.989296875 -34.592265625 36.50203125 -35 36 C-34.058984375 36.04640625 -33.11796875 36.0928125 -32.1484375 36.140625 C-24.691594265 36.431907033 -24.691594265 36.431907033 -17.5625 34.625 C-8.770036985 25.618086668 -4.116143313 15.838887294 -1.61328125 3.66015625 C-1 1 -1 1 0 0 Z " fill="#D5D1CA" transform="translate(75,106)" />
<path d="M0 0 C0.66 0.33 1.32 0.66 2 1 C2 6.61 2 12.22 2 18 C1.01 17.67 0.02 17.34 -1 17 C-0.67 18.32 -0.34 19.64 0 21 C-2.052905479 22.026452739 -4.099759031 23.045604128 -6.1875 24 C-8.172015233 24.871445689 -8.172015233 24.871445689 -9 27 C-5.37 27 -1.74 27 2 27 C2 27.33 2 27.66 2 28 C-2.29 28 -6.58 28 -11 28 C-10.2265625 26.081875 -10.2265625 26.081875 -9.4375 24.125 C-6.228464061 16.108202637 -3.12214401 8.050921914 0 0 Z " fill="#B0AA9A" transform="translate(146,94)" />
<path d="M0 0 C0.625 1.8125 0.625 1.8125 1 4 C0.01 5.485 0.01 5.485 -1 7 C0.65 7.33 2.3 7.66 4 8 C3.67 8.66 3.34 9.32 3 10 C3.99 10.66 4.98 11.32 6 12 C4.68 13.32 3.36 14.64 2 16 C1.01 15.34 0.02 14.68 -1 14 C-1.4125 14.474375 -1.825 14.94875 -2.25 15.4375 C-4.182184997 17.162665176 -5.481922755 17.565848751 -8 18 C-10 15 -10 15 -10.0625 12.75 C-8.677108359 9.164280458 -6.486331358 7.227470689 -3.69140625 4.6484375 C-1.788001021 2.908108929 -1.788001021 2.908108929 0 0 Z " fill="#D9D4C4" transform="translate(156,60)" />
<path d="M0 0 C0.66 0.33 1.32 0.66 2 1 C3.333932792 8.525394431 3.134987777 16.380689928 3 24 C0.489168859 22.74458443 0.128745539 21.499365123 -1 19 C-2.98 19.99 -2.98 19.99 -5 21 C-5.33 20.01 -5.66 19.02 -6 18 C-5.67 17.34 -5.34 16.68 -5 16 C-5.66 15.67 -6.32 15.34 -7 15 C-6.367714844 13.752832031 -6.367714844 13.752832031 -5.72265625 12.48046875 C-5.174804688 11.393789062 -4.626953125 10.307109375 -4.0625 9.1875 C-3.517226562 8.108554688 -2.971953125 7.029609375 -2.41015625 5.91796875 C-0.941479304 3.037884725 -0.941479304 3.037884725 0 0 Z " fill="#E3DFD3" transform="translate(76,117)" />
<path d="M0 0 C3.625 1 3.625 1 4.625 2 C4.71169432 3.488718596 4.732034937 4.981444996 4.72265625 6.47265625 C4.719433594 7.371777344 4.716210937 8.270898437 4.712890625 9.197265625 C4.704511719 10.142792969 4.696132812 11.088320313 4.6875 12.0625 C4.682988281 13.011894531 4.678476562 13.961289062 4.673828125 14.939453125 C4.662001102 17.293030651 4.645520253 19.646484773 4.625 22 C4.295 22 3.965 22 3.625 22 C3.295 18.04 2.965 14.08 2.625 10 C1.965 10 1.305 10 0.625 10 C0.625 9.34 0.625 8.68 0.625 8 C-1.449535599 6.776393202 -1.449535599 6.776393202 -4.375 7 C-4.045 6.01 -3.715 5.02 -3.375 4 C-6.158918302 5.391959151 -6.353989974 7.155757785 -7.375 10 C-6.715 10.33 -6.055 10.66 -5.375 11 C-7.025 11 -8.675 11 -10.375 11 C-11.05859375 9.23828125 -11.05859375 9.23828125 -11.375 7 C-8.741987621 2.528341689 -5.354971209 -0.64879398 0 0 Z " fill="#DFDBCF" transform="translate(113.375,131)" />
<path d="M0 0 C0.66 0 1.32 0 2 0 C1.9071875 0.594257813 1.814375 1.188515625 1.71875 1.80078125 C1.079352496 9.142434736 3.393106356 12.829021864 7.95703125 18.45703125 C9.897567227 20.872497638 11.469658329 23.311040029 13 26 C12.05125 25.67 11.1025 25.34 10.125 25 C7.229375482 23.898408091 7.229375482 23.898408091 5 24 C4.34 28.29 3.68 32.58 3 37 C2.67 37 2.34 37 2 37 C1.916976318 35.88927124 1.916976318 35.88927124 1.832275391 34.756103516 C1.577339595 31.358109125 1.319937191 27.96030576 1.0625 24.5625 C0.975488281 23.397832031 0.888476563 22.233164062 0.798828125 21.033203125 C0.410909823 15.932795821 0.004740896 10.853640546 -0.62890625 5.77734375 C-1 2 -1 2 0 0 Z " fill="#E0DACE" transform="translate(78,103)" />
<path d="M0 0 C3.004980483 0.305591236 6.001077247 0.641612253 9 1 C10.0828125 1.122460938 11.165625 1.244921875 12.28125 1.37109375 C18.534817402 2.181475764 23.151736023 2.844345162 28 7 C24.905146406 7 22.552420789 6.461782276 19.5625 5.6875 C18.506757812 5.416796875 17.451015625 5.14609375 16.36328125 4.8671875 C15.253398438 4.581015625 14.143515625 4.29484375 13 4 C10.75044928 3.435705921 8.500470316 2.873115381 6.25 2.3125 C4.5 1.875 2.75 1.4375 1 1 C0.784726562 1.864960938 0.569453125 2.729921875 0.34765625 3.62109375 C-1.237197917 7.594713617 -3.582332306 10.10522732 -6.5625 13.0625 C-11.358580764 17.703056906 -11.358580764 17.703056906 -13 24 C-12.67 24.66 -12.34 25.32 -12 26 C-10.68 25.67 -9.36 25.34 -8 25 C-8.33 26.65 -8.66 28.3 -9 30 C-14.701544712 26.724644527 -14.701544712 26.724644527 -15.94921875 23.6953125 C-16.022353544 19.813542639 -14.408153587 18.433678905 -11.875 15.5625 C-11.046132812 14.6034375 -10.217265625 13.644375 -9.36328125 12.65625 C-8.583398437 11.7796875 -7.803515625 10.903125 -7 10 C-4.242832054 6.804042856 -1.816226092 3.836064975 0 0 Z " fill="#39352A" transform="translate(160,51)" />
</svg>