<?xml version='1.0' encoding='utf-8'?>
<svg xmlns="http://www.w3.org/2000/svg" version="1.1" width="133" height="193" viewBox="72.936875 22.0 133.58761266200003 193.0">
<path d="M0 0 C1.8984375 0.2734375 1.8984375 0.2734375 4 1 C5.21491262 3.710189692 6.157503928 6.178385938 7 9 C7.207539063 9.688359375 7.415078125 10.37671875 7.62890625 11.0859375 C8.10532595 12.718424585 8.555440727 14.358550376 9 16 C10.98 16.33 12.96 16.66 15 17 C15.086367188 16.443125 15.172734375 15.88625 15.26171875 15.3125 C16.298095877 9.683736153 17.876765084 4.180185674 22 0 C23.32 0 24.64 0 26 0 C25.294122146 3.169097447 24.231489618 6.060744055 23 9.0625 C21.921520075 11.699224816 20.901297587 14.296107238 20 17 C21.878808715 16.952315971 21.878808715 16.952315971 24 16 C25.363632079 14.020534079 26.694186441 12.018075501 28 10 C31.228277522 6.937275171 33.561206114 5.50729073 38 5 C38.579040853 14.843694494 38.579040853 14.843694494 35 19 C33.215196995 20.315331013 31.416596182 21.537138615 29.5234375 22.69140625 C27.541341215 24.393976136 27.469787343 25.443649823 27 28 C26.775936048 31.976287841 26.814857594 35.955522951 26.8125 39.9375 C26.794130859 41.564619141 26.794130859 41.564619141 26.775390625 43.224609375 C26.773457031 44.273261719 26.771523438 45.321914062 26.76953125 46.40234375 C26.765422363 47.356169434 26.761313477 48.309995117 26.757080078 49.292724609 C27.095287236 53.061949909 27.871453597 55.867794577 30.581298828 58.586425781 C31.200290527 59.034858398 31.819282227 59.483291016 32.45703125 59.9453125 C33.151352539 60.459165039 33.845673828 60.973017578 34.561035156 61.502441406 C35.304018555 62.037885742 36.047001953 62.573330078 36.8125 63.125 C38.359689427 64.279086037 39.905245055 65.435365378 41.44921875 66.59375 C42.217983398 67.167382812 42.986748047 67.741015625 43.778808594 68.33203125 C62.513360362 82.40044823 70.756171852 99.041585427 75 122 C75.269661274 126.032078101 75.274801358 129.96958008 75 134 C74.67 134 74.34 134 74 134 C74 132.35 74 130.7 74 129 C72.02 128.34 70.04 127.68 68 127 C68 127.66 68 128.32 68 129 C68.66 129.33 69.32 129.66 70 130 C67.6875 130.6875 67.6875 130.6875 65 131 C63.1875 129.5625 63.1875 129.5625 62 128 C62.66 127.67 63.32 127.34 64 127 C60.282633587 126.65099442 60.282633587 126.65099442 57.1875 128.5 C56.795625 128.995 56.40375 129.49 56 130 C56.875 126.125 56.875 126.125 58 125 C59.601639159 124.900809232 61.207799179 124.870301022 62.8125 124.875 C63.685195313 124.872421875 64.557890625 124.86984375 65.45703125 124.8671875 C67.786542154 124.988851664 69.769380151 125.344852912 72 126 C71.319375 124.3603125 71.319375 124.3603125 70.625 122.6875 C70.369765625 122.072617187 70.11453125 121.457734375 69.8515625 120.82421875 C68.931933085 118.734660675 68.931933085 118.734660675 67 116 C68.485 116.495 68.485 116.495 70 117 C69.34 112.71 68.68 108.42 68 104 C67.67 106.64 67.34 109.28 67 112 C66.67 112 66.34 112 66 112 C65.926523438 110.480195313 65.926523438 110.480195313 65.8515625 108.9296875 C65.776474355 107.578100892 65.700929192 106.22653962 65.625 104.875 C65.5940625 104.20984375 65.563125 103.5446875 65.53125 102.859375 C65.28080367 98.601787382 64.524718028 94.979142169 63 91 C62.528203125 92.2684375 62.528203125 92.2684375 62.046875 93.5625 C59.65617365 99.89929876 57.169345871 106.013457799 54 112 C57.465 111.505 57.465 111.505 61 111 C61.495 109.515 61.495 109.515 62 108 C62.99 109.98 63.98 111.96 65 114 C63.741875 113.9175 62.48375 113.835 61.1875 113.75 C57.866610077 113.731187496 57.866610077 113.731187496 55.125 115.5 C50.904048072 124.879893174 50.735864789 134.370155753 54.31640625 143.9296875 C55.361113433 147.093657825 55.459420961 149.718421707 55 153 C52.221064685 156.206463825 49.096355933 156.534505008 45 157 C45 158.32 45 159.64 45 161 C47.125469586 160.188729214 49.250361955 159.375946019 51.375 158.5625 C52.558359375 158.110039062 53.74171875 157.657578125 54.9609375 157.19140625 C57.86036193 156.107280885 57.86036193 156.107280885 60 155 C62.300281619 154.76825521 64.598800469 154.618905166 66.90625 154.4765625 C69.387420902 154.164410351 69.387420902 154.164410351 71 151 C71 151.66 71 152.32 71 153 C72.446328125 152.982597656 72.446328125 152.982597656 73.921875 152.96484375 C75.816796875 152.951308594 75.816796875 152.951308594 77.75 152.9375 C79.00296875 152.925898437 80.2559375 152.914296875 81.546875 152.90234375 C84.285365006 152.979789734 86.418802926 153.172191847 89 154 C88.67 153.01 88.34 152.02 88 151 C84.04 150.67 80.08 150.34 76 150 C76 149.67 76 149.34 76 149 C78.124725755 148.946133713 80.249836523 148.907269294 82.375 148.875 C83.558359375 148.851796875 84.74171875 148.82859375 85.9609375 148.8046875 C89 149 89 149 91 151 C90.625 153.625 90.625 153.625 90 156 C88.741875 155.95359375 87.48375 155.9071875 86.1875 155.859375 C73.498836645 155.536834632 62.045901997 156.37791376 50.28515625 161.6171875 C46.561090079 163.184749241 44.00265474 163.384870648 40 163 C39.01 162.34 38.02 161.68 37 161 C38.249767558 157.346833291 38.670987534 156.219341644 42 154 C44.048690742 153.555705622 46.114542928 153.187058054 48.1875 152.875 C49.817519531 152.623632812 49.817519531 152.623632812 51.48046875 152.3671875 C52.311914062 152.246015625 53.143359375 152.12484375 54 152 C53.71125 151.175 53.4225 150.35 53.125 149.5 C49.710284073 138.876439339 47.324825506 127.136021974 52 116.5 C52.635998728 115.316335701 53.29011567 114.14088553 54 113 C53.405742187 113.2165625 52.811484375 113.433125 52.19921875 113.65625 C45.644776778 115.858053213 39.886562205 116.353492737 33 116 C35.405698902 122.010354539 38.499470994 127.28307652 41.947265625 132.74609375 C45 137.688616071 45 137.688616071 45 141 C40.825927921 135.94863401 37.47643521 130.548925431 34 125 C33.34 132.59 32.68 140.18 32 148 C31.67 148 31.34 148 31 148 C30.455336134 143.915021003 30 140.127451503 30 136 C27.497643477 138.502356523 27.667289067 139.545565627 27.4375 143.015625 C27.362734375 144.019804687 27.28796875 145.023984375 27.2109375 146.05859375 C27.141328125 147.111757813 27.07171875 148.164921875 27 149.25 C26.159377317 161.781504818 26.159377317 161.781504818 24 167 C25.32 166.67 26.64 166.34 28 166 C28.495 168.475 28.495 168.475 29 171 C27.68 171.33 26.36 171.66 25 172 C26.32 172.33 27.64 172.66 29 173 C26.36 173 23.72 173 21 173 C20.736738703 165.1021611 20.736738703 165.1021611 23 161 C23.16750414 158.33290931 23.16750414 158.33290931 23 156 C21.68 156.33 20.36 156.66 19 157 C18.896875 158.11375 18.79375 159.2275 18.6875 160.375 C18.460625 161.57125 18.23375 162.7675 18 164 C14.796199828 166.135866782 13.980600329 166.231321749 10.3125 166.125 C9.504257813 166.106953125 8.696015625 166.08890625 7.86328125 166.0703125 C7.248398438 166.047109375 6.633515625 166.02390625 6 166 C5.3515625 164.16015625 5.3515625 164.16015625 5 162 C7.375 159.4375 7.375 159.4375 10 157 C14.512152727 143.463541818 10.090773455 126.445527786 7 113 C6.735822754 111.813740234 6.735822754 111.813740234 6.466308594 110.603515625 C4.311329524 100.898494276 4.311329524 100.898494276 0 92 C-2.258904266 85.077122809 -1.573808439 78.878622939 1.5 72.375 C6.386379426 60.619767209 6.170547172 45.046467714 1.5 33.25 C1.0359375 32.30640625 0.571875 31.3628125 0.09375 30.390625 C-1 28 -1 28 -1 24 C0.65 24.33 2.3 24.66 4 25 C4 25.99 4 26.98 4 28 C4.66 28.33 5.32 28.66 6 29 C4.68 29.33 3.36 29.66 2 30 C2.61875 31.134375 3.2375 32.26875 3.875 33.4375 C6.090071718 37.828369114 7.151736901 42.178293962 8 47 C8.99 47 9.98 47 11 47 C11 46.34 11 45.68 11 45 C13.97 44.505 13.97 44.505 17 44 C17.33 44.66 17.66 45.32 18 46 C18.33 45.01 18.66 44.02 19 43 C18.34 43 17.68 43 17 43 C17.309375 42.443125 17.61875 41.88625 17.9375 41.3125 C19.057618207 38.874595666 19.560373643 36.637758139 20 34 C21.485 33.505 21.485 33.505 23 33 C23 32.01 23 31.02 23 30 C21.35 29.67 19.7 29.34 18 29 C17.896875 30.093125 17.79375 31.18625 17.6875 32.3125 C16.98885988 36.059751554 16.686027617 36.659627412 14 39 C14.449621961 37.039648251 14.909982476 35.081756907 15.375 33.125 C15.630234375 32.034453125 15.88546875 30.94390625 16.1484375 29.8203125 C17 27 17 27 19 25 C20.988213131 24.602357374 22.989443391 24.262246514 25 24 C24.505 22.515 24.505 22.515 24 21 C20.877093647 21.485785433 18.004196412 21.998601196 15 23 C14.878828125 23.854648438 14.75765625 24.709296875 14.6328125 25.58984375 C14.465234375 26.694570313 14.29765625 27.799296875 14.125 28.9375 C13.881367188 30.590722656 13.881367188 30.590722656 13.6328125 32.27734375 C13.423984375 33.175820313 13.21515625 34.074296875 13 35 C12.01 35.495 12.01 35.495 11 36 C11.04640625 35.32453125 11.0928125 34.6490625 11.140625 33.953125 C11.55733739 28.322167373 11.55733739 28.322167373 9 23.5625 C8.34 23.046875 7.68 22.53125 7 22 C7 21.01 7 20.02 7 19 C6.01 19 5.02 19 4 19 C4 19.66 4 20.32 4 21 C1.76171875 21.69921875 1.76171875 21.69921875 -1 22 C-3.16796875 20.70703125 -3.16796875 20.70703125 -5.1875 18.8125 C-6.198769531 17.894042969 -6.198769531 17.894042969 -7.23046875 16.95703125 C-9.787723314 14.128809315 -10.951188461 12.073853858 -11.125 8.25 C-11.063125 7.13625 -11.063125 7.13625 -11 6 C-8.8125 5.25 -8.8125 5.25 -6 5 C-2.186733431 7.36059359 0.003507526 10.007015052 2 14 C2 14.66 2 15.32 2 16 C2.99 15.67 3.98 15.34 5 15 C4.722851562 14.336132812 4.445703125 13.672265625 4.16015625 12.98828125 C3.616816406 11.663769531 3.616816406 11.663769531 3.0625 10.3125 C2.702851563 9.442382812 2.343203125 8.572265625 1.97265625 7.67578125 C1.042968802 5.118207346 0.45837375 2.677867699 0 0 Z " fill="#877D6D" transform="translate(94,32)" />
<path d="M0 0 C1.103479686 2.128139395 2.011635309 4.043257651 2.63671875 6.3671875 C4.73757231 10.424423315 8.157529377 12.490979748 11.8125 15.125 C13.359689427 16.279086037 14.905245055 17.435365378 16.44921875 18.59375 C17.217983398 19.167382812 17.986748047 19.741015625 18.778808594 20.33203125 C37.513360362 34.40044823 45.756171852 51.041585427 50 74 C50.269661274 78.032078101 50.274801358 81.96958008 50 86 C49.67 86 49.34 86 49 86 C49 84.35 49 82.7 49 81 C47.02 80.34 45.04 79.68 43 79 C43 79.66 43 80.32 43 81 C43.66 81.33 44.32 81.66 45 82 C42.6875 82.6875 42.6875 82.6875 40 83 C38.1875 81.5625 38.1875 81.5625 37 80 C37.66 79.67 38.32 79.34 39 79 C35.282633587 78.65099442 35.282633587 78.65099442 32.1875 80.5 C31.795625 80.995 31.40375 81.49 31 82 C31.875 78.125 31.875 78.125 33 77 C34.601639159 76.900809232 36.207799179 76.870301022 37.8125 76.875 C38.685195313 76.872421875 39.557890625 76.86984375 40.45703125 76.8671875 C42.786542154 76.988851664 44.769380151 77.344852912 47 78 C46.319375 76.3603125 46.319375 76.3603125 45.625 74.6875 C45.369765625 74.072617187 45.11453125 73.457734375 44.8515625 72.82421875 C43.931933085 70.734660675 43.931933085 70.734660675 42 68 C43.485 68.495 43.485 68.495 45 69 C44.34 64.71 43.68 60.42 43 56 C42.67 58.64 42.34 61.28 42 64 C41.67 64 41.34 64 41 64 C40.951015625 62.986796875 40.90203125 61.97359375 40.8515625 60.9296875 C40.776474355 59.578100892 40.700929192 58.22653962 40.625 56.875 C40.5940625 56.20984375 40.563125 55.5446875 40.53125 54.859375 C40.28080367 50.601787382 39.524718028 46.979142169 38 43 C37.528203125 44.2684375 37.528203125 44.2684375 37.046875 45.5625 C34.65617365 51.89929876 32.169345871 58.013457799 29 64 C31.31 63.67 33.62 63.34 36 63 C36.33 62.01 36.66 61.02 37 60 C37.99 61.98 38.98 63.96 40 66 C38.741875 65.9175 37.48375 65.835 36.1875 65.75 C32.866610077 65.731187496 32.866610077 65.731187496 30.125 67.5 C25.904048072 76.879893174 25.735864789 86.370155753 29.31640625 95.9296875 C30.361113433 99.093657825 30.459420961 101.718421707 30 105 C27.221064685 108.206463825 24.096355933 108.534505008 20 109 C20 110.32 20 111.64 20 113 C22.125469586 112.188729214 24.250361955 111.375946019 26.375 110.5625 C27.558359375 110.110039062 28.74171875 109.657578125 29.9609375 109.19140625 C32.86036193 108.107280885 32.86036193 108.107280885 35 107 C37.300281619 106.76825521 39.598800469 106.618905166 41.90625 106.4765625 C44.387420902 106.164410351 44.387420902 106.164410351 46 103 C46 103.66 46 104.32 46 105 C47.446328125 104.982597656 47.446328125 104.982597656 48.921875 104.96484375 C50.18515625 104.955820313 51.4484375 104.946796875 52.75 104.9375 C54.00296875 104.925898437 55.2559375 104.914296875 56.546875 104.90234375 C59.285365006 104.979789734 61.418802926 105.172191847 64 106 C63.67 105.01 63.34 104.02 63 103 C59.04 102.67 55.08 102.34 51 102 C51 101.67 51 101.34 51 101 C53.124725755 100.946133713 55.249836523 100.907269294 57.375 100.875 C59.150039063 100.840195312 59.150039063 100.840195312 60.9609375 100.8046875 C64 101 64 101 66 103 C65.625 105.625 65.625 105.625 65 108 C63.741875 107.95359375 62.48375 107.9071875 61.1875 107.859375 C48.498836645 107.536834632 37.045901997 108.37791376 25.28515625 113.6171875 C21.561090079 115.184749241 19.00265474 115.384870648 15 115 C14.01 114.34 13.02 113.68 12 113 C13.249767558 109.346833291 13.670987534 108.219341644 17 106 C19.048690742 105.555705622 21.114542928 105.187058054 23.1875 104.875 C24.274179688 104.707421875 25.360859375 104.53984375 26.48046875 104.3671875 C27.311914062 104.246015625 28.143359375 104.12484375 29 104 C28.566875 102.7625 28.566875 102.7625 28.125 101.5 C24.710284073 90.876439339 22.324825506 79.136021974 27 68.5 C27.635998728 67.316335701 28.29011567 66.14088553 29 65 C28.405742188 65.2165625 27.811484375 65.433125 27.19921875 65.65625 C20.644776778 67.858053213 14.886562205 68.353492737 8 68 C10.405698902 74.010354539 13.499470994 79.28307652 16.947265625 84.74609375 C20 89.688616071 20 89.688616071 20 93 C15.825927921 87.94863401 12.47643521 82.548925431 9 77 C8.34 84.59 7.68 92.18 7 100 C6.67 100 6.34 100 6 100 C5.455336134 95.915021003 5 92.127451503 5 88 C2.497643477 90.502356523 2.667289067 91.545565627 2.4375 95.015625 C2.362734375 96.019804687 2.28796875 97.023984375 2.2109375 98.05859375 C2.141328125 99.111757813 2.07171875 100.164921875 2 101.25 C1.159377317 113.781504818 1.159377317 113.781504818 -1 119 C0.98 118.505 0.98 118.505 3 118 C3.33 119.65 3.66 121.3 4 123 C2.02 123.495 2.02 123.495 0 124 C1.32 124.33 2.64 124.66 4 125 C1.36 125 -1.28 125 -4 125 C-4.263261297 117.1021611 -4.263261297 117.1021611 -2 113 C-1.83249586 110.33290931 -1.83249586 110.33290931 -2 108 C-3.98 108.495 -3.98 108.495 -6 109 C-6.103125 110.11375 -6.20625 111.2275 -6.3125 112.375 C-6.539375 113.57125 -6.76625 114.7675 -7 116 C-10.203800172 118.135866782 -11.019399671 118.231321749 -14.6875 118.125 C-15.495742187 118.106953125 -16.303984375 118.08890625 -17.13671875 118.0703125 C-17.751601562 118.047109375 -18.366484375 118.02390625 -19 118 C-19.6484375 116.16015625 -19.6484375 116.16015625 -20 114 C-17.625 111.4375 -17.625 111.4375 -15 109 C-10.487847273 95.463541818 -14.909226545 78.445527786 -18 65 C-18.176118164 64.209160156 -18.352236328 63.418320312 -18.533691406 62.603515625 C-20.688670476 52.898494276 -20.688670476 52.898494276 -25 44 C-27.811775385 35.382735437 -25.56723351 28.160310214 -22.1796875 20.07421875 C-20.727953824 16.291058475 -20.236714008 13.024138129 -20 9 C-19.67 9 -19.34 9 -19 9 C-18.663050091 15.901233321 -19.008394469 20.657796273 -22 27 C-22.499629715 29.664691813 -22.734078198 32.296461681 -23 35 C-23.223007813 35.621328125 -23.446015625 36.24265625 -23.67578125 36.8828125 C-24.433636163 41.831696387 -20.465583928 46.912859837 -18 51 C-14.244128225 56.078464754 -11.098974942 59.94939144 -5 62 C-6.485 57.05 -6.485 57.05 -8 52 C-7.34 51.34 -6.68 50.68 -6 50 C-6 50.66 -6 51.32 -6 52 C-5.34 52 -4.68 52 -4 52 C-3.806640625 52.952617188 -3.61328125 53.905234375 -3.4140625 54.88671875 C-3.023476563 56.768105469 -3.023476563 56.768105469 -2.625 58.6875 C-2.242148437 60.549550781 -2.242148437 60.549550781 -1.8515625 62.44921875 C-1.118263064 65.894846135 -1.118263064 65.894846135 0.0625 68.625 C1.097966684 71.248182265 1.400657108 73.508213855 1.625 76.3125 C1.699765625 77.195507813 1.77453125 78.078515625 1.8515625 78.98828125 C1.925039062 79.984082031 1.925039062 79.984082031 2 81 C2.99 80.01 3.98 79.02 5 78 C4.67 79.65 4.34 81.3 4 83 C5.296336207 81.933548851 5.296336207 81.933548851 5.0625 79.4375 C5.041875 78.633125 5.02125 77.82875 5 77 C3.515 77.495 3.515 77.495 2 78 C3.192422353 74.392922382 4.414068062 70.797188844 5.65625 67.20703125 C10.322124545 53.85606589 10.322124545 53.85606589 13 40 C13.33 40 13.66 40 14 40 C14.495 42.475 14.495 42.475 15 45 C18.823754439 39.54887388 22.023813722 34.830269919 21.52734375 27.9765625 C20.629877164 24.612724777 18.71722154 23.037916155 16 21 C15.358046875 20.690625 14.71609375 20.38125 14.0546875 20.0625 C11.844531518 18.919605652 10.22426912 17.59532496 8.375 15.9375 C6.581874199 14.336215169 5.153436835 13.076718418 3 12 C2.34 12.66 1.68 13.32 1 14 C-0.382260163 11.235479675 -0.095253869 8.953863696 -0.0625 5.875 C-0.053476562 4.779296875 -0.044453125 3.68359375 -0.03515625 2.5546875 C-0.023554687 1.711640625 -0.011953125 0.86859375 0 0 Z " fill="#4D493D" transform="translate(119,80)" />
<path d="M0 0 C2.751379328 2.33155033 3.464245028 4.036861474 4.0625 7.5625 C4.646024482 11.19635678 4.646024482 11.19635678 7 14 C7.66796875 16.2421875 7.66796875 16.2421875 8.1875 18.875 C8.366679688 19.738671875 8.545859375 20.60234375 8.73046875 21.4921875 C9.000469886 24.004371982 8.753924864 25.615244757 8 28 C8 29.788812372 8.869831162 31.4083068 9.5 33.0625 C9.7784375 33.795976563 10.056875 34.529453125 10.34375 35.28515625 C10.5603125 35.851054688 10.776875 36.416953125 11 37 C10.071875 36.7525 10.071875 36.7525 9.125 36.5 C4.745292707 35.799246833 0.425710113 35.922657493 -4 36 C-3.67 36 -3.34 36 -3 36 C-1 36 1 36 3 36 C2.67 36.66 2.34 37.32 2 38 C2.99 38.66 3.98 39.32 5 40 C5.33 39.01 5.66 38.02 6 37 C7.98 37.66 9.96 38.32 12 39 C13.125 45.625 13.125 45.625 12 49 C11.932591352 50.561184279 11.914855438 52.1250252 11.9375 53.6875 C11.946523437 54.495742188 11.955546875 55.303984375 11.96484375 56.13671875 C11.976445313 56.751601563 11.988046875 57.366484375 12 58 C13.65 58 15.3 58 17 58 C17 58.33 17 58.66 17 59 C17.626484375 59.02578125 18.25296875 59.0515625 18.8984375 59.078125 C19.715703125 59.13484375 20.53296875 59.1915625 21.375 59.25 C22.187109375 59.29640625 22.99921875 59.3428125 23.8359375 59.390625 C26 60 26 60 27.2890625 62.046875 C27.523671875 62.69140625 27.75828125 63.3359375 28 64 C27.01 64.33 26.02 64.66 25 65 C24.01 64.505 24.01 64.505 23 64 C20.672507029 63.717620338 18.337297454 63.496897443 16 63.3125 C14.741875 63.205507813 13.48375 63.098515625 12.1875 62.98828125 C8.904251681 62.626080077 8.904251681 62.626080077 7 65 C5.700625 65.103125 4.40125 65.20625 3.0625 65.3125 C-2.044784024 65.742239109 -5.990355479 67.634336918 -10.51953125 69.94140625 C-13 71 -13 71 -17 71 C-17.33 69.68 -17.66 68.36 -18 67 C-14.666666667 65.666666667 -11.333333333 64.333333333 -8 63 C-7.729395234 58.760525335 -7.973623906 55.727177147 -9.5 51.75 C-12.516052889 43.290689755 -11.697194012 34.155127533 -8 26 C-6.625 24.23046875 -6.625 24.23046875 -5 23 C-1.3125 22.8125 -1.3125 22.8125 2 23 C-1.850310502 20.433126332 -3.585697631 21.167112761 -8 22 C-6.890640588 18.39458191 -5.57083014 14.985502992 -4 11.5625 C-2.271328876 7.756843421 -1.033185249 4.046642225 0 0 Z " fill="#CFC4B2" transform="translate(156,122)" />
<path d="M0 0 C1.8984375 0.2734375 1.8984375 0.2734375 4 1 C5.21491262 3.710189692 6.157503928 6.178385938 7 9 C7.207539063 9.688359375 7.415078125 10.37671875 7.62890625 11.0859375 C8.10532595 12.718424585 8.555440727 14.358550376 9 16 C10.98 16.33 12.96 16.66 15 17 C15.086367188 16.443125 15.172734375 15.88625 15.26171875 15.3125 C16.298095877 9.683736153 17.876765084 4.180185674 22 0 C23.32 0 24.64 0 26 0 C25.294122146 3.169097447 24.231489618 6.060744055 23 9.0625 C21.921520075 11.699224816 20.901297587 14.296107238 20 17 C21.878808715 16.952315971 21.878808715 16.952315971 24 16 C25.363632079 14.020534079 26.694186441 12.018075501 28 10 C31.228277522 6.937275171 33.561206114 5.50729073 38 5 C38.579040853 14.843694494 38.579040853 14.843694494 35 19 C33.835067944 19.658028258 32.668215359 20.312662211 31.5 20.96484375 C28.179246317 23.295091575 27.37556375 25.114218939 26.66015625 29.08203125 C26.429254851 30.988617087 26.230814072 32.899372879 26.0625 34.8125 C25.950996094 35.791542969 25.839492187 36.770585938 25.724609375 37.779296875 C25.454742869 40.184628775 25.214301329 42.589189654 25 45 C24.67 45 24.34 45 24 45 C23.505 41.04 23.505 41.04 23 37 C21.050909787 40.565210847 20.310659529 43.917668743 19.5625 47.87890625 C19 50 19 50 17 53 C16.67 52.34 16.34 51.68 16 51 C16.33 50.34 16.66 49.68 17 49 C13.535 49.495 13.535 49.495 10 50 C10.66 51.98 11.32 53.96 12 56 C10.291597186 54.365875569 9.065469532 53.130939064 8 51 C7.67 52.65 7.34 54.3 7 56 C6.67 56 6.34 56 6 56 C5.913632812 55.068007812 5.827265625 54.136015625 5.73828125 53.17578125 C4.844778385 45.068677273 3.311368266 38.261669861 0.0234375 30.70703125 C-1 28 -1 28 -1 24 C0.65 24.33 2.3 24.66 4 25 C4 25.99 4 26.98 4 28 C4.66 28.33 5.32 28.66 6 29 C4.68 29.33 3.36 29.66 2 30 C2.61875 31.134375 3.2375 32.26875 3.875 33.4375 C6.090071718 37.828369114 7.151736901 42.178293962 8 47 C8.99 47 9.98 47 11 47 C11 46.34 11 45.68 11 45 C13.97 44.505 13.97 44.505 17 44 C17.33 44.66 17.66 45.32 18 46 C18.33 45.01 18.66 44.02 19 43 C18.34 43 17.68 43 17 43 C17.309375 42.443125 17.61875 41.88625 17.9375 41.3125 C19.057618207 38.874595666 19.560373643 36.637758139 20 34 C21.485 33.505 21.485 33.505 23 33 C23 32.01 23 31.02 23 30 C21.35 29.67 19.7 29.34 18 29 C17.896875 30.093125 17.79375 31.18625 17.6875 32.3125 C16.98885988 36.059751554 16.686027617 36.659627412 14 39 C14.449621961 37.039648251 14.909982476 35.081756907 15.375 33.125 C15.630234375 32.034453125 15.88546875 30.94390625 16.1484375 29.8203125 C17 27 17 27 19 25 C20.988213131 24.602357374 22.989443391 24.262246514 25 24 C24.505 22.515 24.505 22.515 24 21 C20.877093647 21.485785433 18.004196412 21.998601196 15 23 C14.878828125 23.854648438 14.75765625 24.709296875 14.6328125 25.58984375 C14.465234375 26.694570313 14.29765625 27.799296875 14.125 28.9375 C13.881367188 30.590722656 13.881367188 30.590722656 13.6328125 32.27734375 C13.423984375 33.175820313 13.21515625 34.074296875 13 35 C12.01 35.495 12.01 35.495 11 36 C11.04640625 35.32453125 11.0928125 34.6490625 11.140625 33.953125 C11.55733739 28.322167373 11.55733739 28.322167373 9 23.5625 C8.34 23.046875 7.68 22.53125 7 22 C7 21.01 7 20.02 7 19 C6.01 19 5.02 19 4 19 C4 19.66 4 20.32 4 21 C1.76171875 21.69921875 1.76171875 21.69921875 -1 22 C-3.16796875 20.70703125 -3.16796875 20.70703125 -5.1875 18.8125 C-6.198769531 17.894042969 -6.198769531 17.894042969 -7.23046875 16.95703125 C-9.787723314 14.128809315 -10.951188461 12.073853858 -11.125 8.25 C-11.063125 7.13625 -11.063125 7.13625 -11 6 C-8.8125 5.25 -8.8125 5.25 -6 5 C-2.186733431 7.36059359 0.003507526 10.007015052 2 14 C2 14.66 2 15.32 2 16 C2.99 15.67 3.98 15.34 5 15 C4.722851562 14.336132812 4.445703125 13.672265625 4.16015625 12.98828125 C3.616816406 11.663769531 3.616816406 11.663769531 3.0625 10.3125 C2.702851563 9.442382812 2.343203125 8.572265625 1.97265625 7.67578125 C1.042968802 5.118207346 0.45837375 2.677867699 0 0 Z " fill="#7B766E" transform="translate(94,32)" />
<path d="M0 0 C3.568028211 1.928663898 5.885487824 3.522802199 8 7 C8.73046875 10.234375 8.73046875 10.234375 9.1875 13.75 C9.346054687 14.92046875 9.504609375 16.0909375 9.66796875 17.296875 C9.777539063 18.18890625 9.887109375 19.0809375 10 20 C10 19.385117188 10 18.770234375 10 18.13671875 C10 14.7578125 10 11.37890625 10 8 C11.96732407 10.201772016 12.95933134 11.448320792 13.1796875 14.4375 C13.079140625 15.283125 12.97859375 16.12875 12.875 17 C12.789921875 17.845625 12.70484375 18.69125 12.6171875 19.5625 C11.922932969 22.304365997 10.825772754 23.868286947 9 26 C8.67 25.67 8.34 25.34 8 25 C7.619082031 25.779238281 7.619082031 25.779238281 7.23046875 26.57421875 C6.516865182 28.020134595 5.79097762 29.460034982 5.0546875 30.89453125 C4.239266046 32.522354078 3.507546685 34.192255393 2.8125 35.875 C-0.074102305 39.259292358 -3.716983624 39.49740114 -8 40 C-11.5625 40.125 -11.5625 40.125 -14 40 C-14 36.8125 -14 36.8125 -13 33 C-10.544797069 30.902955636 -7.88734564 29.427230077 -5 28 C-9.75 31 -9.75 31 -12 31 C-10.325505507 25.116393665 -7.397825808 20.331997579 -4.189453125 15.185546875 C-1.15706052 10.058768542 -0.332220458 5.950826101 0 0 Z " fill="#B6A795" transform="translate(142,107)" />
<path d="M0 0 C3.507080896 4.23772275 6.358207762 8.691517719 9.21875 13.37890625 C10.944215871 15.917914143 12.792937985 17.881034998 15 20 C16.935294151 23.096470641 17 24.139306767 17 28 C14.751949975 28.673212842 12.501477763 29.338341229 10.25 30 C8.99703125 30.37125 7.7440625 30.7425 6.453125 31.125 C3 32 3 32 -1 32 C-0.988398437 33.059609375 -0.976796875 34.11921875 -0.96484375 35.2109375 C-0.955465243 36.598956575 -0.946365107 37.986977551 -0.9375 39.375 C-0.929121094 40.073671875 -0.920742187 40.77234375 -0.912109375 41.4921875 C-0.88671875 46.7734375 -0.88671875 46.7734375 -2 49 C-3.98 49 -5.96 49 -8 49 C-7 47 -6 45 -5 43 C-6.65 43.66 -8.3 44.32 -10 45 C-9.125 40.25 -9.125 40.25 -8 38 C-7.826274624 36.308492106 -7.702631895 34.611689899 -7.60546875 32.9140625 C-7.536503906 31.900859375 -7.467539062 30.88765625 -7.396484375 29.84375 C-7.257713873 27.706424883 -7.130017237 25.568350555 -7.013671875 23.4296875 C-6.940839844 22.41390625 -6.868007812 21.398125 -6.79296875 20.3515625 C-6.736491699 19.421665039 -6.680014648 18.491767578 -6.621826172 17.533691406 C-5.844918762 14.368106364 -4.443254206 13.08635376 -2 11 C-2 13.97 -2 16.94 -2 20 C-1.135807768 17.407423305 -0.82419068 15.659622926 -0.68359375 12.98828125 C-0.641699219 12.230957031 -0.599804687 11.473632812 -0.556640625 10.693359375 C-0.517324219 9.907675781 -0.478007812 9.121992188 -0.4375 8.3125 C-0.394316406 7.515214844 -0.351132812 6.717929688 -0.306640625 5.896484375 C-0.200726316 3.931185532 -0.099874494 1.965615036 0 0 Z " fill="#5D5950" transform="translate(127,155)" />
<path d="M0 0 C0.33 0 0.66 0 1 0 C1 4 1 8 1 12 C1.66 12 2.32 12 3 12 C3.448749341 18.943376172 1.889499647 24.305097856 -0.4375 30.8125 C-0.762988281 31.752871094 -1.088476563 32.693242188 -1.423828125 33.662109375 C-2.024999513 35.396209937 -2.631109647 37.128612495 -3.243896484 38.858642578 C-3.846867605 40.566314422 -4.427311839 42.281935516 -5 44 C-4.34 44.66 -3.68 45.32 -3 46 C-2.389072525 50.398677823 -3.879898177 53.201484233 -6 57 C-6.934236446 53.989682564 -7.044499108 53.133497324 -6 50 C-6.66 50.66 -7.32 51.32 -8 52 C-8.02578125 51.27296875 -8.0515625 50.5459375 -8.078125 49.796875 C-8.464468709 42.948054706 -9.683385663 37.188121027 -12.16015625 30.7890625 C-13.098491138 27.672917801 -13.280957801 25.237704179 -13 22 C-12.01 20.515 -12.01 20.515 -11 19 C-11.66 19.33 -12.32 19.66 -13 20 C-12.529714947 15.065624517 -11.215034615 12.421723424 -8.0625 8.625 C-7.352226562 7.751015625 -6.641953125 6.87703125 -5.91015625 5.9765625 C-5.279804688 5.324296875 -4.649453125 4.67203125 -4 4 C-3.34 4 -2.68 4 -2 4 C-1.34 2.68 -0.68 1.36 0 0 Z " fill="#D1CAB8" transform="translate(128,111)" />
<path d="M0 0 C-0.495 1.155 -0.99 2.31 -1.5 3.5 C-4.50208988 12.534860972 -4.258653576 23.426856025 -0.66796875 32.2265625 C0.198692345 34.527522366 0.235328108 36.568276215 0 39 C-3.055317819 40.726609837 -5.662927486 41.342278211 -9.125 41.8125 C-11.734511013 42.22545463 -11.734511013 42.22545463 -14 43 C-15.755680037 45.45748398 -15.755680037 45.45748398 -16 48 C-15.34 48.66 -14.68 49.32 -14 50 C-14.99 50.99 -15.98 51.98 -17 53 C-18.5625 51.75 -18.5625 51.75 -20 50 C-19.666666667 48.666666667 -19.333333333 47.333333333 -19 46 C-20.354443007 44.228090912 -20.354443007 44.228090912 -22 43 C-19.067291176 41.438604098 -16.17931727 40.334611005 -13 39.375 C-12.154375 39.114609375 -11.30875 38.85421875 -10.4375 38.5859375 C-8 38 -8 38 -4 38 C-7.195342303 28.687258947 -12.223095812 20.715171565 -17.62890625 12.53515625 C-19.95218096 8.980744515 -21 7.361438532 -21 3 C-19.951992187 2.867226563 -18.903984375 2.734453125 -17.82421875 2.59765625 C-16.445292222 2.419427651 -15.066387073 2.241033588 -13.6875 2.0625 C-12.652060547 1.931982422 -12.652060547 1.931982422 -11.595703125 1.798828125 C-7.652813597 1.284538187 -3.937169258 0 0 0 Z " fill="#E8E3D5" transform="translate(148,145)" />
<path d="M0 0 C4.08622541 1.954039672 6.859540491 3.754858507 10 7 C11.325205026 7.682681377 12.658121816 8.350704104 14 9 C15.75 10.5 15.75 10.5 17 12 C17 12.66 17 13.32 17 14 C17.99 14.33 18.98 14.66 20 15 C21.018102309 23.726591219 17.755777545 28.829937426 13 36 C12.34 34.68 11.68 33.36 11 32 C10.01 32 9.02 32 8 32 C7.67 32.99 7.34 33.98 7 35 C6.67 34.34 6.34 33.68 6 33 C6.33 32.34 6.66 31.68 7 31 C7.069960137 29.292972647 7.084401538 27.583319972 7.0625 25.875 C7.053476563 24.964921875 7.044453125 24.05484375 7.03515625 23.1171875 C7.023554687 22.418515625 7.011953125 21.71984375 7 21 C6.4225 21.61875 5.845 22.2375 5.25 22.875 C3.197501792 24.81347053 1.566334184 25.900142492 -1 27 C-0.754433594 25.590410156 -0.754433594 25.590410156 -0.50390625 24.15234375 C0.190196485 19.293624604 0.10834309 14.460657887 0.0625 9.5625 C0.057988281 8.640175781 0.053476562 7.717851563 0.048828125 6.767578125 C0.037139376 4.511649521 0.020754554 2.255860331 0 0 Z " fill="#90816E" transform="translate(121,91)" />
<path d="M0 0 C1.98 0.66 3.96 1.32 6 2 C7.125 8.625 7.125 8.625 6 12 C5.932591352 13.561184279 5.914855438 15.1250252 5.9375 16.6875 C5.946523437 17.495742188 5.955546875 18.303984375 5.96484375 19.13671875 C5.976445313 19.751601563 5.988046875 20.366484375 6 21 C7.65 21 9.3 21 11 21 C11 21.33 11 21.66 11 22 C11.939726562 22.038671875 11.939726562 22.038671875 12.8984375 22.078125 C13.715703125 22.13484375 14.53296875 22.1915625 15.375 22.25 C16.593164062 22.319609375 16.593164062 22.319609375 17.8359375 22.390625 C20 23 20 23 21.2890625 25.046875 C21.523671875 25.69140625 21.75828125 26.3359375 22 27 C21.01 27.33 20.02 27.66 19 28 C18.34 27.67 17.68 27.34 17 27 C14.672507029 26.717620338 12.337297454 26.496897443 10 26.3125 C8.1128125 26.152011719 8.1128125 26.152011719 6.1875 25.98828125 C2.904251681 25.626080077 2.904251681 25.626080077 1 28 C-2.4375 28.375 -2.4375 28.375 -6 28 C-8.183958831 25.850628752 -8.948929331 24.589634092 -9.21484375 21.51953125 C-8.578097468 15.304528806 -7.629706029 9.242908708 -4 4 C-1.86328125 2.75390625 -1.86328125 2.75390625 0 2 C0 1.34 0 0.68 0 0 Z " fill="#948B7E" transform="translate(162,159)" />
<path d="M0 0 C1.103479686 2.128139395 2.011635309 4.043257651 2.63671875 6.3671875 C4.73757231 10.424423315 8.157529377 12.490979748 11.8125 15.125 C13.359689427 16.279086037 14.905245055 17.435365378 16.44921875 18.59375 C17.217983398 19.167382812 17.986748047 19.741015625 18.778808594 20.33203125 C37.513360362 34.40044823 45.756171852 51.041585427 50 74 C50.269661274 78.032078101 50.274801358 81.96958008 50 86 C49.67 86 49.34 86 49 86 C49 84.35 49 82.7 49 81 C46.03 80.01 46.03 80.01 43 79 C43 79.66 43 80.32 43 81 C43.99 81.495 43.99 81.495 45 82 C42.6875 82.6875 42.6875 82.6875 40 83 C38.1875 81.5625 38.1875 81.5625 37 80 C37.66 79.67 38.32 79.34 39 79 C35.282633587 78.65099442 35.282633587 78.65099442 32.1875 80.5 C31.795625 80.995 31.40375 81.49 31 82 C31.875 78.125 31.875 78.125 33 77 C34.601639159 76.900809232 36.207799179 76.870301022 37.8125 76.875 C38.685195313 76.872421875 39.557890625 76.86984375 40.45703125 76.8671875 C42.786542154 76.988851664 44.769380151 77.344852912 47 78 C46.319375 76.3603125 46.319375 76.3603125 45.625 74.6875 C45.369765625 74.072617187 45.11453125 73.457734375 44.8515625 72.82421875 C43.931933085 70.734660675 43.931933085 70.734660675 42 68 C42.99 68.33 43.98 68.66 45 69 C44.34 64.71 43.68 60.42 43 56 C42.67 58.64 42.34 61.28 42 64 C41.67 64 41.34 64 41 64 C40.951015625 62.986796875 40.90203125 61.97359375 40.8515625 60.9296875 C40.776474355 59.578100892 40.700929192 58.22653962 40.625 56.875 C40.5940625 56.20984375 40.563125 55.5446875 40.53125 54.859375 C40.28080367 50.601787382 39.524718028 46.979142169 38 43 C37.34 44.98 36.68 46.96 36 49 C35.67 49 35.34 49 35 49 C35.011601563 48.289726562 35.023203125 47.579453125 35.03515625 46.84765625 C35.044179687 45.928554687 35.053203125 45.009453125 35.0625 44.0625 C35.074101563 43.145976563 35.085703125 42.229453125 35.09765625 41.28515625 C35.25949049 39.034066726 35.25949049 39.034066726 34 38 C34.023203125 38.626484375 34.04640625 39.25296875 34.0703125 39.8984375 C34.088359375 40.715703125 34.10640625 41.53296875 34.125 42.375 C34.148203125 43.187109375 34.17140625 43.99921875 34.1953125 44.8359375 C34 47 34 47 32 49 C31.90203125 47.975195313 31.8040625 46.950390625 31.703125 45.89453125 C31.552970488 44.533755981 31.401879129 43.17308386 31.25 41.8125 C31.188125 41.138964844 31.12625 40.465429688 31.0625 39.771484375 C30.514132423 35.087511324 29.428572588 32.269842376 26 29 C25.01 29 24.02 29 23 29 C21.021758194 27.285523768 19.357355078 25.453608613 17.73828125 23.3984375 C16.546344108 21.887934575 15.276299709 20.439927877 14 19 C13.01 19 12.02 19 11 19 C9.650804677 17.346147668 8.318662718 15.678298005 7 14 C4.88339573 12.688347432 4.88339573 12.688347432 3 12 C2.34 12.66 1.68 13.32 1 14 C-0.382260163 11.235479675 -0.095253869 8.953863696 -0.0625 5.875 C-0.053476562 4.779296875 -0.044453125 3.68359375 -0.03515625 2.5546875 C-0.023554687 1.711640625 -0.011953125 0.86859375 0 0 Z " fill="#473D2F" transform="translate(119,80)" />
<path d="M0 0 C1.8984375 0.2734375 1.8984375 0.2734375 4 1 C5.21491262 3.710189692 6.157503928 6.178385938 7 9 C7.207539063 9.688359375 7.415078125 10.37671875 7.62890625 11.0859375 C8.10532595 12.718424585 8.555440727 14.358550376 9 16 C10.98 16.33 12.96 16.66 15 17 C15.086367188 16.443125 15.172734375 15.88625 15.26171875 15.3125 C16.298095877 9.683736153 17.876765084 4.180185674 22 0 C23.32 0 24.64 0 26 0 C25.237577841 3.610550913 23.875266262 6.858346254 22.4375 10.25 C21.982460938 11.32765625 21.527421875 12.4053125 21.05859375 13.515625 C20.709257812 14.33546875 20.359921875 15.1553125 20 16 C19.67 16 19.34 16 19 16 C19.501991984 12.270916693 20.042070234 8.638523144 21 5 C18.590098964 11.888240688 18.590098964 11.888240688 17 19 C13.710231922 20.096589359 12.286962332 19.799531378 9 19 C9 19.99 9 20.98 9 22 C9.66 22 10.32 22 11 22 C10.67 22.66 10.34 23.32 10 24 C9.01 23.34 8.02 22.68 7 22 C7 21.01 7 20.02 7 19 C6.01 19 5.02 19 4 19 C4 19.66 4 20.32 4 21 C1.76171875 21.69921875 1.76171875 21.69921875 -1 22 C-3.16796875 20.70703125 -3.16796875 20.70703125 -5.1875 18.8125 C-6.198769531 17.894042969 -6.198769531 17.894042969 -7.23046875 16.95703125 C-9.787723314 14.128809315 -10.951188461 12.073853858 -11.125 8.25 C-11.063125 7.13625 -11.063125 7.13625 -11 6 C-8.8125 5.25 -8.8125 5.25 -6 5 C-2.186733431 7.36059359 0.003507526 10.007015052 2 14 C2 14.66 2 15.32 2 16 C2.99 15.67 3.98 15.34 5 15 C4.722851562 14.336132812 4.445703125 13.672265625 4.16015625 12.98828125 C3.616816406 11.663769531 3.616816406 11.663769531 3.0625 10.3125 C2.702851563 9.442382812 2.343203125 8.572265625 1.97265625 7.67578125 C1.042968802 5.118207346 0.45837375 2.677867699 0 0 Z " fill="#322E26" transform="translate(94,32)" />
<path d="M0 0 C2.751379328 2.33155033 3.464245028 4.036861474 4.0625 7.5625 C4.646024482 11.19635678 4.646024482 11.19635678 7 14 C7.66796875 16.2421875 7.66796875 16.2421875 8.1875 18.875 C8.366679688 19.738671875 8.545859375 20.60234375 8.73046875 21.4921875 C8.999190698 23.992469972 8.776957702 25.630554525 8 28 C5.666666667 28 3.333333333 28 1 28 C2.98 28.66 4.96 29.32 7 30 C7 30.33 7 30.66 7 31 C6.263945312 31.037382812 5.527890625 31.074765625 4.76953125 31.11328125 C-2.604126584 31.529844727 -2.604126584 31.529844727 -9 35 C-10.402539262 30.792382214 -8.906025314 28.882644157 -7 25 C-5 23 -5 23 -1.375 22.875 C0.295625 22.936875 0.295625 22.936875 2 23 C-1.850310502 20.433126332 -3.585697631 21.167112761 -8 22 C-6.890640588 18.39458191 -5.57083014 14.985502992 -4 11.5625 C-2.271328876 7.756843421 -1.033185249 4.046642225 0 0 Z " fill="#CABEAD" transform="translate(156,122)" />
<path d="M0 0 C0.680625 0.721875 1.36125 1.44375 2.0625 2.1875 C4.106171102 4.288555598 6.119876456 5.679876258 8.643066406 7.152587891 C11.81119072 9.397903478 11.953032545 9.766679228 12.778808594 13.868896484 C12.77098687 15.370237597 12.725428334 16.871707633 12.6484375 18.37109375 C12.636161194 19.171042633 12.623884888 19.970991516 12.611236572 20.795181274 C12.565586072 23.344632739 12.471859068 25.889528242 12.375 28.4375 C12.30991748 30.981262333 12.254706788 33.525039729 12.203033447 36.069107056 C12.167498994 37.6487416 12.122403934 39.228199575 12.066253662 40.807235718 C11.962657315 44.116635059 12.024388726 47.143429912 12.580566406 50.414306641 C12.718979492 51.267585449 12.857392578 52.120864258 13 53 C11.5625 54.875 11.5625 54.875 10 56 C10.33 56.33 10.66 56.66 11 57 C11.040638321 58.666171151 11.042721001 60.333880948 11 62 C8.03 62.495 8.03 62.495 5 63 C5.33 62.01 5.66 61.02 6 60 C5.34 60 4.68 60 4 60 C4 60.99 4 61.98 4 63 C3.34 63 2.68 63 2 63 C2.33 61.68 2.66 60.36 3 59 C4.98 58.505 4.98 58.505 7 58 C7 50.08 7 42.16 7 34 C7.66 34 8.32 34 9 34 C8.054238419 26.16570631 6.156860259 19.369119513 3.17578125 12.0703125 C1.649157431 8.083846315 0.78120141 4.190080291 0 0 Z " fill="#E6E3D5" transform="translate(100,133)" />
<path d="M0 0 C1.32 1.65 2.64 3.3 4 5 C2 6 2 6 -0.9375 5.8125 C-3.995166852 5.69067854 -3.995166852 5.69067854 -5.75 7.5 C-9.364139855 14.72827971 -10.481676251 23.612864959 -8.32421875 31.45703125 C-7.78704629 32.951439942 -7.240601072 34.442557904 -6.68359375 35.9296875 C-5.638886567 39.093657825 -5.540579039 41.718421707 -6 45 C-8.778935315 48.206463825 -11.903644067 48.534505008 -16 49 C-16 50.32 -16 51.64 -16 53 C-13.874530414 52.188729214 -11.749638045 51.375946019 -9.625 50.5625 C-8.441640625 50.110039062 -7.25828125 49.657578125 -6.0390625 49.19140625 C-3.13963807 48.107280885 -3.13963807 48.107280885 -1 47 C1.300281619 46.76825521 3.598800469 46.618905166 5.90625 46.4765625 C8.387420902 46.164410351 8.387420902 46.164410351 10 43 C10 43.66 10 44.32 10 45 C11.446328125 44.982597656 11.446328125 44.982597656 12.921875 44.96484375 C14.18515625 44.955820313 15.4484375 44.946796875 16.75 44.9375 C18.00296875 44.925898437 19.2559375 44.914296875 20.546875 44.90234375 C23.285365006 44.979789734 25.418802926 45.172191847 28 46 C27.67 45.01 27.34 44.02 27 43 C23.04 42.67 19.08 42.34 15 42 C15 41.67 15 41.34 15 41 C17.124725755 40.946133713 19.249836523 40.907269294 21.375 40.875 C22.558359375 40.851796875 23.74171875 40.82859375 24.9609375 40.8046875 C28 41 28 41 30 43 C29.625 45.625 29.625 45.625 29 48 C27.741875 47.95359375 26.48375 47.9071875 25.1875 47.859375 C12.498836645 47.536834632 1.045901997 48.37791376 -10.71484375 53.6171875 C-14.438909921 55.184749241 -16.99734526 55.384870648 -21 55 C-21.99 54.34 -22.98 53.68 -24 53 C-22.750232442 49.346833291 -22.329012466 48.219341644 -19 46 C-16.951309258 45.555705622 -14.885457072 45.187058054 -12.8125 44.875 C-11.182480469 44.623632813 -11.182480469 44.623632813 -9.51953125 44.3671875 C-8.688085938 44.246015625 -7.856640625 44.12484375 -7 44 C-7.28875 43.175 -7.5775 42.35 -7.875 41.5 C-11.289715927 30.876439339 -13.675174494 19.136021974 -9 8.5 C-8.364001272 7.316335701 -7.70988433 6.14088553 -7 5 C-7.99 4.67 -8.98 4.34 -10 4 C-6.7 3.67 -3.4 3.34 0 3 C0 2.01 0 1.02 0 0 Z " fill="#372F26" transform="translate(155,140)" />
<path d="M0 0 C2.475 0.495 2.475 0.495 5 1 C5 1.99 5 2.98 5 4 C5.66 4.33 6.32 4.66 7 5 C5.68 5.33 4.36 5.66 3 6 C3.61875 7.134375 4.2375 8.26875 4.875 9.4375 C7.090071718 13.828369114 8.151736901 18.178293962 9 23 C9.99 23 10.98 23 12 23 C12 22.34 12 21.68 12 21 C13.98 20.67 15.96 20.34 18 20 C18.33 20.66 18.66 21.32 19 22 C19.33 21.01 19.66 20.02 20 19 C19.34 19 18.68 19 18 19 C18.309375 18.443125 18.61875 17.88625 18.9375 17.3125 C20.057618207 14.874595666 20.560373643 12.637758139 21 10 C21.99 9.67 22.98 9.34 24 9 C24 8.01 24 7.02 24 6 C21.525 5.505 21.525 5.505 19 5 C18.896875 6.093125 18.79375 7.18625 18.6875 8.3125 C17.98885988 12.059751554 17.686027617 12.659627412 15 15 C15.449621961 13.039648251 15.909982476 11.081756907 16.375 9.125 C16.630234375 8.034453125 16.88546875 6.94390625 17.1484375 5.8203125 C18 3 18 3 20 1 C22.625 0.375 22.625 0.375 25 0 C25 0.66 25 1.32 25 2 C25.99 1.67 26.98 1.34 28 1 C27.34 7.6 26.68 14.2 26 21 C25.67 21 25.34 21 25 21 C24.67 18.36 24.34 15.72 24 13 C22.050909787 16.565210847 21.310659529 19.917668743 20.5625 23.87890625 C20 26 20 26 18 29 C17.67 28.34 17.34 27.68 17 27 C17.33 26.34 17.66 25.68 18 25 C15.69 25.33 13.38 25.66 11 26 C11.66 27.98 12.32 29.96 13 32 C11.291597186 30.365875569 10.065469532 29.130939064 9 27 C8.67 28.65 8.34 30.3 8 32 C7.67 32 7.34 32 7 32 C6.870449219 30.602011719 6.870449219 30.602011719 6.73828125 29.17578125 C5.844778385 21.068677273 4.311368266 14.261669861 1.0234375 6.70703125 C0 4 0 4 0 0 Z " fill="#373125" transform="translate(93,56)" />
<path d="M0 0 C2.26656844 2.906175425 3.744330955 5.522762644 5 9 C7.97 9.33 10.94 9.66 14 10 C13.01 10.495 13.01 10.495 12 11 C12 12.32 12 13.64 12 15 C10.02 15.99 8.04 16.98 6 18 C8.657765662 18 11.374235171 17.38192943 14 17 C11.978256998 22.881434188 8.425285645 27.862071532 5 33 C-0.111126061 21.810284731 -0.583750425 12.167953299 0 0 Z " fill="#E9DFCF" transform="translate(101,81)" />
<path d="M0 0 C0.66 0 1.32 0 2 0 C1.67 1.65 1.34 3.3 1 5 C1.66 5 2.32 5 3 5 C3 3.68 3 2.36 3 1 C4.65 1 6.3 1 8 1 C8 3.97 8 6.94 8 10 C8.99 10.33 9.98 10.66 11 11 C12.524487662 15.712052775 11.178627107 17.72989087 9 22 C8.748031772 25.251003639 8.748031772 25.251003639 9 28 C7.02 28.66 5.04 29.32 3 30 C2.67 29.34 2.34 28.68 2 28 C0.68 28 -0.64 28 -2 28 C-1.67 24.37 -1.34 20.74 -1 17 C0.32 16.67 1.64 16.34 3 16 C3.33 15.34 3.66 14.68 4 14 C4.66 14 5.32 14 6 14 C5.67 11.36 5.34 8.72 5 6 C4.34 6 3.68 6 3 6 C3 7.65 3 9.3 3 11 C2.34 11 1.68 11 1 11 C0.67 10.34 0.34 9.68 0 9 C-0.99 9.495 -0.99 9.495 -2 10 C-1.34 6.7 -0.68 3.4 0 0 Z " fill="#767268" transform="translate(184,58)" />
<path d="M0 0 C3.678450908 4.598063635 6.704280911 9.179250632 9.75 14.1875 C10.256601563 15.006699219 10.763203125 15.825898438 11.28515625 16.669921875 C11.763398438 17.453027344 12.241640625 18.236132812 12.734375 19.04296875 C13.387446289 20.110675049 13.387446289 20.110675049 14.053710938 21.199951172 C15 23 15 23 15 25 C9.72 25 4.44 25 -1 25 C-0.67 16.75 -0.34 8.5 0 0 Z " fill="#E8E2D7" transform="translate(127,155)" />
<path d="M0 0 C0.66 0 1.32 0 2 0 C2.33 4.62 2.66 9.24 3 14 C2.34 14 1.68 14 1 14 C1.728320313 14.5465625 2.456640625 15.093125 3.20703125 15.65625 C6.085796049 18.071996685 8.326166876 20.581408295 10.6875 23.5 C11.454492187 24.4384375 12.221484375 25.376875 13.01171875 26.34375 C15.955832708 30.276947429 17 32.012220911 17 37 C11.1546797 36.393894732 8.903463885 33.250462922 5.2265625 28.96484375 C0.399972527 22.537858155 -3.473273716 16.203411086 -3 8 C-2.67 8 -2.34 8 -2 8 C-1.34 5.36 -0.68 2.72 0 0 Z " fill="#E0DACC" transform="translate(97,105)" />
<path d="M0 0 C0.33 0.66 0.66 1.32 1 2 C3.024632551 2.652132917 3.024632551 2.652132917 5 3 C4.976796875 3.915234375 4.95359375 4.83046875 4.9296875 5.7734375 C4.911640625 6.961953125 4.89359375 8.15046875 4.875 9.375 C4.851796875 10.558359375 4.82859375 11.74171875 4.8046875 12.9609375 C4.671337713 16.111538172 4.671337713 16.111538172 7 18 C10.880409856 14.304371566 13.246890673 11.422387157 14 6 C16.31 6 18.62 6 21 6 C19.25 10.875 19.25 10.875 17 12 C16.7834375 12.8971875 16.7834375 12.8971875 16.5625 13.8125 C15.893994034 16.412245422 14.689366878 17.943379453 13 20 C13.66 20 14.32 20 15 20 C14.67 21.32 14.34 22.64 14 24 C13.67 23.01 13.34 22.02 13 21 C11.02 21.33 9.04 21.66 7 22 C7 22.66 7 23.32 7 24 C8.65 24 10.3 24 12 24 C11.34 24.66 10.68 25.32 10 26 C7 25.9375 7 25.9375 4 25 C2.75 22.8125 2.75 22.8125 2 20 C1.67 19.05125 1.34 18.1025 1 17.125 C-0.074606425 13.766854921 -1.049366187 10.395120761 -2 7 C-1.01 6.67 -0.02 6.34 1 6 C0.34 4.35 -0.32 2.7 -1 1 C-0.67 0.67 -0.34 0.34 0 0 Z " fill="#B2ACA0" transform="translate(98,55)" />
<path d="M0 0 C0.33 0 0.66 0 1 0 C1.307453369 11.204967233 0.318984032 19.071229806 -5 29 C-5.66 29 -6.32 29 -7 29 C-12.192479732 19.004053676 -12.192479732 19.004053676 -11.734375 14.234375 C-10.991790326 11.97750001 -10.258690018 10.014861208 -9 8 C-8.34 7.67 -7.68 7.34 -7 7 C-7 7.99 -7 8.98 -7 10 C-6.01 8.02 -5.02 6.04 -4 4 C-3.34 4.66 -2.68 5.32 -2 6 C-1.34 4.02 -0.68 2.04 0 0 Z " fill="#D7CBB7" transform="translate(119,100)" />
<path d="M0 0 C2 1 2 1 3.099121094 3.588378906 C4.093624431 7.354554958 4.32063263 10.693026266 4.4140625 14.5859375 C4.43342865 15.287721252 4.4527948 15.989505005 4.472747803 16.712554932 C4.532075688 18.933249991 4.578739169 21.15399823 4.625 23.375 C4.663223023 24.889344338 4.702277217 26.40366794 4.7421875 27.91796875 C4.837737341 31.611788311 4.921939368 35.305764704 5 39 C2.525 39.495 2.525 39.495 0 40 C-3.771729647 31.042142088 -1.847319032 20.79856167 -1 11.375 C-0.904609375 10.275429688 -0.80921875 9.175859375 -0.7109375 8.04296875 C-0.477776755 5.361620184 -0.240729603 2.680677792 0 0 Z " fill="#E5E2D5" transform="translate(114,143)" />
<path d="M0 0 C0.33 0.66 0.66 1.32 1 2 C1.66 2 2.32 2 3 2 C3.204960938 2.987421875 3.409921875 3.97484375 3.62109375 4.9921875 C3.890507813 6.273515625 4.159921875 7.55484375 4.4375 8.875 C4.704335938 10.151171875 4.971171875 11.42734375 5.24609375 12.7421875 C5.834782597 15.86460244 5.834782597 15.86460244 7 18 C7.039992002 19.99960012 7.043467991 22.000472422 7 24 C5.262169132 20.772599816 4.134539311 17.479889484 3 14 C2.659226858 17.62433988 2.328778199 21.249553913 2 24.875 C1.904609375 25.888203125 1.80921875 26.90140625 1.7109375 27.9453125 C0.984860083 36.035889431 0.272892448 44.01212757 2 52 C2.281914543 57.074461773 1.780087506 61.221870379 0 66 C-3.203800172 68.135866782 -4.019399671 68.231321749 -7.6875 68.125 C-8.495742187 68.106953125 -9.303984375 68.08890625 -10.13671875 68.0703125 C-10.751601562 68.047109375 -11.366484375 68.02390625 -12 68 C-12.62109375 66.140625 -12.62109375 66.140625 -13 64 C-11.0625 61.75 -11.0625 61.75 -9 60 C-8.34 60.33 -7.68 60.66 -7 61 C-8.485 63.475 -8.485 63.475 -10 66 C-9.34 66 -8.68 66 -8 66 C-8 65.01 -8 64.02 -8 63 C-7.34 63 -6.68 63 -6 63 C-6 63.66 -6 64.32 -6 65 C-4.35 65 -2.7 65 -1 65 C-1 63.35 -1 61.7 -1 60 C-1.66 59.67 -2.32 59.34 -3 59 C-2.484375 58.62875 -1.96875 58.2575 -1.4375 57.875 C-0.7259375 56.946875 -0.7259375 56.946875 0 56 C-0.331247104 53.999653413 -0.665247556 51.999762964 -1 50 C-1.158057076 46.333223895 -1.14171154 42.669675211 -1.125 39 C-1.123066406 37.982849121 -1.121132813 36.965698242 -1.119140625 35.917724609 C-1.075295981 28.240649284 -0.741917184 20.644396695 0 13 C-0.99 12.67 -1.98 12.34 -3 12 C-2.34 11.67 -1.68 11.34 -1 11 C-0.01 11.33 0.98 11.66 2 12 C1.771835938 11.301328125 1.543671875 10.60265625 1.30859375 9.8828125 C1.021132812 8.972734375 0.733671875 8.06265625 0.4375 7.125 C0.147460938 6.220078125 -0.142578125 5.31515625 -0.44140625 4.3828125 C-1 2 -1 2 0 0 Z " fill="#3B372D" transform="translate(112,130)" />
<path d="M0 0 C0.33 0 0.66 0 1 0 C1.440621993 6.87859889 1.686716836 11.509845992 -3 17 C-5.253273359 19.705365127 -5.253273359 19.705365127 -6.375 22.9375 C-7.337370977 26.113324225 -9.609888421 27.793743157 -12 30 C-13.385501968 27.228996065 -13.187746698 25.066529404 -13 22 C-12.01 20.515 -12.01 20.515 -11 19 C-11.66 19.33 -12.32 19.66 -13 20 C-12.529714947 15.065624517 -11.215034615 12.421723424 -8.0625 8.625 C-7.352226562 7.751015625 -6.641953125 6.87703125 -5.91015625 5.9765625 C-5.279804688 5.324296875 -4.649453125 4.67203125 -4 4 C-3.34 4 -2.68 4 -2 4 C-1.34 2.68 -0.68 1.36 0 0 Z " fill="#DAD1BF" transform="translate(128,111)" />
<path d="M0 0 C1.251279063 3.546671783 0.722850534 5.722534375 -0.4375 9.25 C-0.724960937 10.14203125 -1.012421875 11.0340625 -1.30859375 11.953125 C-1.536757813 12.62859375 -1.764921875 13.3040625 -2 14 C-0.68 12.02 0.64 10.04 2 8 C3 11 3 11 2.3203125 13.19140625 C-0.825125684 19.43088657 -0.825125684 19.43088657 -4.12890625 21.03125 C-8.385532285 22.010778157 -12.637154351 22.223735674 -17 22 C-17.056539142 19.173042923 -17.059253349 17.565054678 -16 15 C-13.907007084 13.249976511 -11.708265468 11.938157502 -9.36328125 10.546875 C-5.357671389 7.925021273 -2.144438538 4.288877076 0 0 Z " fill="#E9E0D1" transform="translate(145,125)" />
<path d="M0 0 C0.99 0 1.98 0 3 0 C3.212858025 7.651063458 3.176298316 14.624766817 1 22 C-1.425205459 24.425205459 -2.620677415 24.685644411 -6 25 C-8.6875 24.5625 -8.6875 24.5625 -11 23 C-12.056017618 20.327295616 -12.49316069 17.856730655 -13 15 C-9.535 14.505 -9.535 14.505 -6 14 C-6 14.99 -6 15.98 -6 17 C-4.460940952 14.178391746 -3.604293295 11.650957897 -3 8.5 C-2.395706705 5.349042103 -1.539059048 2.821608254 0 0 Z " fill="#B4AB9D" transform="translate(117,67)" />
<path d="M0 0 C0.99 0 1.98 0 3 0 C3 1.32 3 2.64 3 4 C3.66 3.67 4.32 3.34 5 3 C5 2.01 5 1.02 5 0 C5.66 0 6.32 0 7 0 C7.382187671 1.656146574 7.713951017 3.324570244 8 5 C7.67 5.33 7.34 5.66 7 6 C7.99 6.33 8.98 6.66 10 7 C9.835 7.9075 9.67 8.815 9.5 9.75 C8.711266893 15.137824748 8.919740772 20.569125559 9 26 C8.34 26 7.68 26 7 26 C6.67 24.02 6.34 22.04 6 20 C5.67 21.98 5.34 23.96 5 26 C4.01 25.01 3.02 24.02 2 23 C1.67 23.99 1.34 24.98 1 26 C0.34 26 -0.32 26 -1 26 C-1 22.04 -1 18.08 -1 14 C-0.01 14 0.98 14 2 14 C1.49396008 11.831257484 1.000161867 10.000323734 0 8 C0.66 8 1.32 8 2 8 C2 7.34 2 6.68 2 6 C1.34 6 0.68 6 0 6 C0 4.02 0 2.04 0 0 Z " fill="#868277" transform="translate(149,46)" />
<path d="M0 0 C0.66 0 1.32 0 2 0 C0.8874606 8.900315198 -3.538664556 15.73120604 -8.0234375 23.314941406 C-9.099654423 25.171953706 -10.082248932 27.059754536 -11 29 C-9.02 27.68 -7.04 26.36 -5 25 C-4.34 25.33 -3.68 25.66 -3 26 C-4.120738621 26.839055652 -5.246745475 27.671078308 -6.375 28.5 C-7.001484375 28.9640625 -7.62796875 29.428125 -8.2734375 29.90625 C-10 31 -10 31 -12 31 C-12.33 33.31 -12.66 35.62 -13 38 C-12.25234375 37.855625 -11.5046875 37.71125 -10.734375 37.5625 C-9.74953125 37.376875 -8.7646875 37.19125 -7.75 37 C-6.77546875 36.814375 -5.8009375 36.62875 -4.796875 36.4375 C-2 36 -2 36 2 36 C2.275859375 35.284570312 2.55171875 34.569140625 2.8359375 33.83203125 C3.982485225 31.04261145 5.262271148 28.377096418 6.625 25.6875 C7.071015625 24.804492187 7.51703125 23.921484375 7.9765625 23.01171875 C8.483164063 22.015917969 8.483164063 22.015917969 9 21 C9.66 21.33 10.32 21.66 11 22 C11.66 21.34 12.32 20.68 13 20 C12.396445919 23.850258792 11.232273971 26.861011594 9.4375 30.3125 C8.982460938 31.195507813 8.527421875 32.078515625 8.05859375 32.98828125 C7.709257812 33.652148437 7.359921875 34.316015625 7 35 C6.01 35 5.02 35 4 35 C4 35.66 4 36.32 4 37 C-2.07027358 39.158319495 -7.593705756 39.20852314 -14 39 C-15.199605962 34.797558732 -14.731336062 32.422796317 -13.1875 28.375 C-11.130546782 22.638306942 -9.900257681 17.017511869 -9 11 C-8.67 11 -8.34 11 -8 11 C-7.67 12.65 -7.34 14.3 -7 16 C-2.002465914 8.577158166 -2.002465914 8.577158166 0 0 Z " fill="#5F5547" transform="translate(141,109)" />
<path d="M0 0 C0.99 0 1.98 0 3 0 C3.33 0.99 3.66 1.98 4 3 C4.680625 3.53625 5.36125 4.0725 6.0625 4.625 C8.959363162 8.175993553 8.339628889 11.584824443 8 16 C8.114414527 11.225793808 8.3161043 7.937914102 11.1875 4 C14.249711559 1.822427336 16.285097652 1.259179234 20 1 C20.33 2.32 20.66 3.64 21 5 C19.88625 5.33 18.7725 5.66 17.625 6 C15.648122897 6.758014813 15.648122897 6.758014813 14 8 C12.877598634 11.447154291 12.877598634 11.447154291 12.53125 13.859375 C11.615196795 17.550530561 9.335422615 20.049992486 7 23 C5 22 5 22 4 19 C4.08573227 16.934128855 4.238335346 14.870534755 4.4375 12.8125 C4.539335937 11.725820312 4.641171875 10.639140625 4.74609375 9.51953125 C4.829882813 8.688085937 4.913671875 7.856640625 5 7 C0.983319456 5.293431064 -2.656364562 4.511015934 -7 4 C-5 2 -5 2 -2.375 1.875 C-1.59125 1.91625 -0.8075 1.9575 0 2 C0 1.34 0 0.68 0 0 Z " fill="#DBD5C9" transform="translate(98,51)" />
<path d="M0 0 C0.33 0 0.66 0 1 0 C1.121171875 1.18078125 1.24234375 2.3615625 1.3671875 3.578125 C1.536055198 5.135460433 1.705348349 6.692749774 1.875 8.25 C1.953632812 9.027304687 2.032265625 9.804609375 2.11328125 10.60546875 C2.547077879 14.509638411 3.00909968 17.549106112 5 21 C5.125 23.75 5.125 23.75 5 26 C1.944682181 27.726609837 -0.662927486 28.342278211 -4.125 28.8125 C-6.734511013 29.22545463 -6.734511013 29.22545463 -9 30 C-10.755680037 32.45748398 -10.755680037 32.45748398 -11 35 C-10.34 35.66 -9.68 36.32 -9 37 C-9.99 37.99 -10.98 38.98 -12 40 C-13.5625 38.75 -13.5625 38.75 -15 37 C-14.666666667 35.666666667 -14.333333333 34.333333333 -14 33 C-15.354443007 31.228090912 -15.354443007 31.228090912 -17 30 C-14.067291176 28.438604098 -11.17931727 27.334611005 -8 26.375 C-7.154375 26.114609375 -6.30875 25.85421875 -5.4375 25.5859375 C-3 25 -3 25 1 25 C-1.25955676 19.02659729 -3.676887255 13.45939951 -7 8 C-6.34 8 -5.68 8 -5 8 C-5 7.34 -5 6.68 -5 6 C-3 4.375 -3 4.375 -1 3 C-1 5.666666667 -1 8.333333333 -1 11 C-0.67 7.37 -0.34 3.74 0 0 Z " fill="#D8D3C7" transform="translate(143,158)" />
<path d="M0 0 C2.475 0.99 2.475 0.99 5 2 C5.511372263 8.903525551 3.869643738 13.748276143 1 20 C-1.31 19.01 -3.62 18.02 -6 17 C-5.884903389 15.582494369 -5.757463422 14.165988307 -5.625 12.75 C-5.555390625 11.96109375 -5.48578125 11.1721875 -5.4140625 10.359375 C-4.974162331 7.852774038 -4.351755174 6.151773543 -3 4 C-2.01 3.34 -1.02 2.68 0 2 C0 1.34 0 0.68 0 0 Z " fill="#DACFBE" transform="translate(162,159)" />
<path d="M0 0 C0.33 0 0.66 0 1 0 C0.67 11.88 0.34 23.76 0 36 C-0.99 35.67 -1.98 35.34 -3 35 C-2.67 34.01 -2.34 33.02 -2 32 C-3.65 32.66 -5.3 33.32 -7 34 C-6.125 29.25 -6.125 29.25 -5 27 C-4.814507754 25.308789873 -4.679138852 23.611930543 -4.5703125 21.9140625 C-4.496835937 20.900859375 -4.423359375 19.88765625 -4.34765625 18.84375 C-4.199792962 16.706217562 -4.059109978 14.568175733 -3.92578125 12.4296875 C-3.849726562 11.41390625 -3.773671875 10.398125 -3.6953125 9.3515625 C-3.633598633 8.421665039 -3.571884766 7.491767578 -3.508300781 6.533691406 C-2.9294462 3.648315403 -1.968947462 2.158817033 0 0 Z " fill="#E1DED5" transform="translate(124,166)" />
<path d="M0 0 C0.99 0.33 1.98 0.66 3 1 C3.489759685 6.877116216 2.370714477 11.096117734 -1 16 C-1.99 16.66 -2.98 17.32 -4 18 C-4 18.66 -4 19.32 -4 20 C-9.411764706 24 -9.411764706 24 -12 24 C-10.421958459 18.395231768 -7.735836148 13.64949374 -4.875 8.625 C-4.173105469 7.377832031 -4.173105469 7.377832031 -3.45703125 6.10546875 C-2.309294511 4.067650459 -1.156867176 2.032644312 0 0 Z " fill="#E9DECE" transform="translate(142,114)" />
<path d="M0 0 C3.51855159 1.407420636 4.386128338 2.664665232 6 6 C6.99 6.33 7.98 6.66 9 7 C10.005165388 15.615703329 6.929639313 21.013388887 2 28 C1.67 28 1.34 28 1 28 C1.32626495 21.677210288 1.615048916 16.445356092 5 11 C4.67 11.33 4.34 11.66 4 12 C3.34 12.66 2.68 13.32 2 14 C1.664685847 12.042004858 1.331808571 10.083592257 1 8.125 C0.814375 7.034453125 0.62875 5.94390625 0.4375 4.8203125 C0 2 0 2 0 0 Z " fill="#ECE3D4" transform="translate(132,99)" />
<path d="M0 0 C2.5625 0.3125 2.5625 0.3125 4.25 1.375 C6.13363816 4.155608712 6.768618601 7.075906605 7.5625 10.3125 C6.94375 10.1475 6.325 9.9825 5.6875 9.8125 C2.869581728 9.361633076 0.223254873 9.144938636 -2.625 9.0625 C-3.484804688 9.03671875 -4.344609375 9.0109375 -5.23046875 8.984375 C-5.958789062 9.09265625 -6.687109375 9.2009375 -7.4375 9.3125 C-9.627257729 12.597136593 -10.435565632 15.519462751 -11.4375 19.3125 C-12.0975 19.3125 -12.7575 19.3125 -13.4375 19.3125 C-13.4375 15.0225 -13.4375 10.7325 -13.4375 6.3125 C-12.4475 6.3125 -11.4575 6.3125 -10.4375 6.3125 C-9.4475 5.6525 -8.4575 4.9925 -7.4375 4.3125 C-5.39453125 3.8984375 -5.39453125 3.8984375 -3.25 3.6875 C-1.991875 3.56375 -0.73375 3.44 0.5625 3.3125 C-1.0875 2.9825 -2.7375 2.6525 -4.4375 2.3125 C-2.4375 0.3125 -2.4375 0.3125 0 0 Z " fill="#EBE0CE" transform="translate(159.4375,148.6875)" />
<path d="M0 0 C0.33 0 0.66 0 1 0 C1.213984375 1.134375 1.42796875 2.26875 1.6484375 3.4375 C2.947768357 8.634823426 5.632185238 12.617121529 8.625 17 C9.140625 17.774726563 9.65625 18.549453125 10.1875 19.34765625 C11.448297021 21.238851781 12.719069068 23.122409778 14 25 C13.34 25.66 12.68 26.32 12 27 C11.445703125 26.096367187 10.89140625 25.192734375 10.3203125 24.26171875 C9.588571444 23.070294211 8.856798964 21.878888971 8.125 20.6875 C7.760195313 20.092597656 7.395390625 19.497695313 7.01953125 18.884765625 C5.385884613 16.226377007 3.731041755 13.596562633 2 11 C1.34 18.59 0.68 26.18 0 34 C-0.33 34 -0.66 34 -1 34 C-2.249116667 26.349160417 -2.090534259 18.725590138 -2 11 C-2.99 11.33 -3.98 11.66 -5 12 C-3.68938409 7.765702443 -2.056437407 3.925925959 0 0 Z " fill="#4B463A" transform="translate(126,146)" />
<path d="M0 0 C3.659239257 0.162632856 5.516194624 0.581573729 8.3125 3 C10.537341543 6.955273854 10.804908501 10.522650087 11 15 C10.34 15 9.68 15 9 15 C8.67 13.35 8.34 11.7 8 10 C7.34 10 6.68 10 6 10 C6 10.66 6 11.32 6 12 C4.1875 11.8125 4.1875 11.8125 2 11 C-0.599464293 7.657831623 -1.468748504 5.218736536 -1 1 C-0.67 0.67 -0.34 0.34 0 0 Z " fill="#7B776E" transform="translate(84,37)" />
<path d="M0 0 C0.33 0 0.66 0 1 0 C1.060585938 0.796640625 1.121171875 1.59328125 1.18359375 2.4140625 C1.267382813 3.473671875 1.351171875 4.53328125 1.4375 5.625 C1.523867188 6.719414062 1.610234375 7.813828125 1.69921875 8.94140625 C1.953859044 12.10261517 1.953859044 12.10261517 2.75 15.5625 C3 18 3 18 1.5625 19.875 C1.046875 20.24625 0.53125 20.6175 0 21 C0.33 21.33 0.66 21.66 1 22 C1.040638321 23.666171151 1.042721001 25.333880948 1 27 C-0.98 27.33 -2.96 27.66 -5 28 C-4.67 27.01 -4.34 26.02 -4 25 C-4.66 25 -5.32 25 -6 25 C-6 25.99 -6 26.98 -6 28 C-6.66 28 -7.32 28 -8 28 C-7.67 26.68 -7.34 25.36 -7 24 C-5.68 23.67 -4.36 23.34 -3 23 C-2.951015625 22.01 -2.90203125 21.02 -2.8515625 20 C-2.475968926 13.144766706 -2.021535107 6.60368135 0 0 Z " fill="#D2D0C6" transform="translate(110,168)" />
<path d="M0 0 C2.899952411 3.52022001 3.963315918 6.735631106 5.15625 11.07421875 C5.57390625 12.027480469 5.57390625 12.027480469 6 13 C6.99 13.33 7.98 13.66 9 14 C9.6875 16.0625 9.6875 16.0625 10 18 C9.21625 18.0825 8.4325 18.165 7.625 18.25 C4.893417492 18.703663171 4.893417492 18.703663171 3.9375 20.8125 C3.628125 21.534375 3.31875 22.25625 3 23 C1.70529025 24.370869147 0.378491034 25.713408369 -1 27 C-0.754433594 25.590410156 -0.754433594 25.590410156 -0.50390625 24.15234375 C0.190196485 19.293624604 0.10834309 14.460657887 0.0625 9.5625 C0.057988281 8.640175781 0.053476562 7.717851563 0.048828125 6.767578125 C0.037139376 4.511649521 0.020754554 2.255860331 0 0 Z " fill="#EBDFCC" transform="translate(121,91)" />
</svg>