<?xml version='1.0' encoding='utf-8'?>
<svg xmlns="http://www.w3.org/2000/svg" version="1.1" width="127" height="251" viewBox="79.0 8.0 127.36000000000001 251.0">
<path d="M0 0 C3.970370829 0.533540234 6.180249354 1.552520227 9.1875 4.1875 C9.861679687 4.758554688 10.535859375 5.329609375 11.23046875 5.91796875 C13 8 13 8 15 14 C19.29 14 23.58 14 28 14 C28.33 12.35 28.66 10.7 29 9 C31.25 6.4375 31.25 6.4375 34 4 C34.845625 3.21625 35.69125 2.4325 36.5625 1.625 C39 0 39 0 41.15234375 0.3984375 C41.762070312 0.596953125 42.371796875 0.79546875 43 1 C42.967461507 8.792969155 41.136370136 14.071453375 36 20 C35.01 20.66 34.02 21.32 33 22 C33.106992187 22.580078125 33.213984375 23.16015625 33.32421875 23.7578125 C34.335043867 30.344479391 34.335043867 30.344479391 32.5625 33.8125 C28.633126464 41.828422014 31.138559547 50.336719797 33.84375 58.375 C35.187844967 62.588919355 36.257809365 66.816803823 37.25 71.125 C37.424990234 71.84059082 37.599980469 72.556181641 37.780273438 73.293457031 C40.172939876 83.901586804 39.070460979 92.259751626 35.125 102.3125 C30.303284474 115.488361774 28.86209545 127.127603384 28.6875 141.125 C28.669453125 142.22956543 28.65140625 143.334130859 28.6328125 144.472167969 C28.634746094 146.036687012 28.634746094 146.036687012 28.63671875 147.6328125 C28.633737793 148.57012207 28.630756836 149.507431641 28.627685547 150.473144531 C29.065834888 153.446813827 30.192522884 154.657538334 32 157 C32 158.32 32 159.64 32 161 C30.35 161 28.7 161 27 161 C27 161.66 27 162.32 27 163 C24.03 163 21.06 163 18 163 C14.477386657 157.43502041 14.571444738 152.492447093 14.5 146.125 C14.241331166 136.421464671 13.161047332 127.460094953 11 118 C10.78859375 117.017734375 10.5771875 116.03546875 10.359375 115.0234375 C9.923422172 113.011826595 9.465444667 111.00499241 9 109 C6.36 108.67 3.72 108.34 1 108 C-0.294174002 110.561260642 -1.585407843 113.123933584 -2.875 115.6875 C-3.239804687 116.408730469 -3.604609375 117.129960938 -3.98046875 117.873046875 C-5.002626075 119.908069185 -6.003954721 121.952101142 -7 124 C-7.415078125 124.831445312 -7.83015625 125.662890625 -8.2578125 126.51953125 C-10.127439812 132.768022528 -8.863050457 138.958443009 -7.3125 145.125 C-7.089169922 146.140136719 -7.089169922 146.140136719 -6.861328125 147.17578125 C-5.939011041 150.915686602 -4.87457503 153.409645106 -2.29296875 156.3046875 C-1.536289063 157.194140625 -0.779609375 158.08359375 0 159 C-0.33 159.99 -0.66 160.98 -1 162 C-6.270711024 162.527071102 -6.270711024 162.527071102 -9 162 C-11.4375 159.0625 -11.4375 159.0625 -13 156 C-13.33 155.67 -13.66 155.34 -14 155 C-14.354157449 152.69351241 -14.657464719 150.379155508 -14.9375 148.0625 C-15.503384229 143.500802274 -16.145576485 138.994234145 -17.125 134.5 C-18.277449946 128.867865585 -18.911873508 124.397289656 -16.125 119.1875 C-13.384335537 114.251756818 -13.384335537 114.251756818 -12 105 C-14.64 111.93 -17.28 118.86 -20 126 C-21.010929921 121.956280315 -21.095620873 121.430737425 -19.63671875 117.8828125 C-19.326699219 117.110664063 -19.016679688 116.338515625 -18.697265625 115.54296875 C-18.364042969 114.745039062 -18.030820312 113.947109375 -17.6875 113.125 C-17.044326303 111.54477765 -16.402373094 109.964057924 -15.76171875 108.3828125 C-15.303336182 107.256252441 -15.303336182 107.256252441 -14.835693359 106.106933594 C-12.103130754 99.249128584 -12.103130754 99.249128584 -12 92 C-13.179807697 89.804817735 -14.480577704 87.777838624 -15.90625 85.734375 C-17 84 -17 84 -17 82 C-16.34 82 -15.68 82 -15 82 C-12.500218078 85.361775688 -10.498668693 88.884949605 -8.5 92.5625 C-5.260482362 98.728281943 -5.260482362 98.728281943 0 103 C0 98.71 0 94.42 0 90 C1.134375 90.04125 2.26875 90.0825 3.4375 90.125 C10.053609892 90.125 16.915921601 88.58573332 23 86 C25.082486383 79.752540851 24.262026686 76.00085623 21.5 70.125 C18.384847524 64.228461384 14.173568836 57.086784418 8 54 C8.337734375 54.53109375 8.67546875 55.0621875 9.0234375 55.609375 C9.469453125 56.31578125 9.91546875 57.0221875 10.375 57.75 C10.815859375 58.44609375 11.25671875 59.1421875 11.7109375 59.859375 C12.918809056 61.865173827 13.983877373 63.891782962 15 66 C14.67 66.33 14.34 66.66 14 67 C14.09002398 69.024087549 14.246410377 71.045442867 14.4375 73.0625 C14.539335937 74.167226563 14.641171875 75.271953125 14.74609375 76.41015625 C14.829882812 77.264804688 14.913671875 78.119453125 15 79 C14.01 78.505 14.01 78.505 13 78 C12.62853179 75.992302768 12.353288299 73.966470492 12.125 71.9375 C11.332301841 66.132903803 9.956725782 62.026433829 7 57 C4.53721199 59.46278801 4.002287446 61.706769819 3 65 C1.875 61.25 1.875 61.25 3 59 C-6.626768917 59.685095211 -14.527774851 60.249231072 -22 67 C-22.794707031 67.651621094 -22.794707031 67.651621094 -23.60546875 68.31640625 C-27.896107296 73.496420853 -27.242413787 80.043687357 -27.125 86.375 C-27.115976562 87.301835938 -27.106953125 88.228671875 -27.09765625 89.18359375 C-27.074229374 91.456000767 -27.041427485 93.727861803 -27 96 C-27.33 96 -27.66 96 -28 96 C-29.593433068 87.719372419 -31.389378964 75.970034937 -27.0625 68.3125 C-21.693138404 61.619598291 -15.043007112 58.414508044 -6.6640625 57.234375 C-3.075694459 56.918682797 0.400284586 56.864161682 4 57 C4.274570313 56.13375 4.549140625 55.2675 4.83203125 54.375 C6.305736564 50.116533809 8.184643794 46.0878692 10.07421875 42 C11.144478285 38.531817203 10.902932515 36.483444564 10 33 C9.62875 32.29875 9.2575 31.5975 8.875 30.875 C7.774159055 28.516055118 8.142873043 27.399955479 9 25 C11.025183179 28.037774769 11.871378285 30.547745341 13 34 C14.84756856 38.888563984 14.84756856 38.888563984 18 43 C22.20450061 43.306688074 22.20450061 43.306688074 26 42 C28.925496715 38.076064073 31 33.931392202 31 29 C29.35 29 27.7 29 26 29 C26.495 32.465 26.495 32.465 27 36 C26.34 36 25.68 36 25 36 C24.750459946 34.565896317 24.526073577 33.127399281 24.3125 31.6875 C24.121074219 30.486738281 24.121074219 30.486738281 23.92578125 29.26171875 C24 27 24 27 25.29296875 25.26953125 C27 24 27 24 30 23 C28.68 20.69 27.36 18.38 26 16 C19.865729361 15.388666419 19.865729361 15.388666419 14.5 17.875 C12.97895603 19.916719609 12.97895603 19.916719609 12 22 C6.886115752 19.916565677 3.807907548 16.476520691 1.1875 11.6875 C-0.179385051 7.44296221 -0.232742359 4.422104817 0 0 Z " fill="#BFB9AA" transform="translate(135,18)" />
<path d="M0 0 C8.834535036 3.896454317 13.648348555 13.389927206 17 22 C17.664475753 24.835434702 17.610363768 26.070253914 17 29 C13.871747444 33.504683681 8.958443496 35.426579563 3.72265625 36.44140625 C-0.687109022 37.021059256 -3.493579844 36.901284031 -8 36 C-7.505 42.93 -7.505 42.93 -7 50 C-12.627729258 46.623362445 -12.627729258 46.623362445 -15.125 42.625 C-15.627734375 41.828359375 -16.13046875 41.03171875 -16.6484375 40.2109375 C-17.094453125 39.481328125 -17.54046875 38.75171875 -18 38 C-18.5775 37.0925 -19.155 36.185 -19.75 35.25 C-21.058606369 32.894508536 -22.062493259 30.524056611 -23 28 C-23.66 28 -24.32 28 -25 28 C-24.566875 28.652265625 -24.13375 29.30453125 -23.6875 29.9765625 C-23.130625 30.850546875 -22.57375 31.72453125 -22 32.625 C-21.443125 33.483515625 -20.88625 34.34203125 -20.3125 35.2265625 C-18.407002073 39.253061096 -18.560672311 42.505041602 -19.810302734 46.757324219 C-20.18098877 47.680454102 -20.551674805 48.603583984 -20.93359375 49.5546875 C-21.335136719 50.582070313 -21.736679688 51.609453125 -22.150390625 52.66796875 C-22.787509766 54.255449219 -22.787509766 54.255449219 -23.4375 55.875 C-28.909673518 69.534483666 -30.912296986 83.330652218 -28 98 C-26.557809196 100.852487728 -26.557809196 100.852487728 -25 103 C-25 103.99 -25 104.98 -25 106 C-27.31 106 -29.62 106 -32 106 C-32.474375 105.030625 -32.94875 104.06125 -33.4375 103.0625 C-34.701939471 100.195225629 -34.701939471 100.195225629 -36 99 C-36.048439986 96.450845754 -36.042531474 93.923021961 -36 91.375 C-35.918874839 84.179351269 -36.286551463 77.137343711 -36.9765625 69.9765625 C-37 67 -37 67 -35 64 C-34.507549728 58.516274095 -34.828691319 52.958031452 -35.5 47.5 C-36.079465631 42.276287771 -36.185409227 37.063349926 -36.25 31.8125 C-36.271269531 30.9565625 -36.292539062 30.100625 -36.314453125 29.21875 C-36.348621316 22.941565107 -35.628294879 18.014442468 -31.3515625 13.109375 C-22.638566815 6.249369348 -16.048352704 4.774523414 -5 5 C-5 6.32 -5 7.64 -5 9 C-4.01 6.36 -3.02 3.72 -2 1 C3.749863405 8.118878502 4.878716817 15.108883941 6 24 C5.505 18.06 5.505 18.06 5 12 C5.66 12 6.32 12 7 12 C6.367714844 11.203359375 6.367714844 11.203359375 5.72265625 10.390625 C5.174804688 9.68421875 4.626953125 8.9778125 4.0625 8.25 C3.517226563 7.55390625 2.971953125 6.8578125 2.41015625 6.140625 C1.025743462 4.039078718 0.437130132 2.456782008 0 0 Z " fill="#D4BA9F" transform="translate(143,72)" />
<path d="M0 0 C2.030793331 3.046189997 2.971808781 5.504149857 4 9 C4.28875 9.94875 4.5775 10.8975 4.875 11.875 C5.031868366 15.79670916 3.718979284 17.74269537 1.8828125 21.11328125 C0.821317905 23.068749106 0.821317905 23.068749106 0.875 25.75 C2.485627036 28.971254073 4.987854499 30.141442138 8 32 C8 32.66 8 33.32 8 34 C10.97 34.495 10.97 34.495 14 35 C12.02 35.495 12.02 35.495 10 36 C10.598125 36.825 11.19625 37.65 11.8125 38.5 C15.887126707 44.69169254 18.473518253 51.517960713 17 59 C13.60738873 64.034197369 8.742631876 65.736415526 3 67 C1.68 67 0.36 67 -1 67 C1.697879742 81.152968701 1.697879742 81.152968701 5.1875 95.125 C7.165915055 102.363671555 8.035513877 108.914633791 7.98046875 116.40234375 C7.972250977 117.596700439 7.972250977 117.596700439 7.963867188 118.815185547 C7.946660812 120.404066916 7.91789532 121.992877322 7.875976562 123.581298828 C7.802579025 128.145336265 8.252709141 131.696868002 10 136 C11.65 136.33 13.3 136.66 15 137 C14.570137939 136.23260498 14.570137939 136.23260498 14.131591797 135.449707031 C9.944471512 126.787014312 10.584643152 118.251825029 10.8125 108.875 C10.855513247 106.476950713 10.892461857 104.078941935 10.92477417 101.680725098 C10.946198136 100.102648334 10.972467646 98.52462957 11.003692627 96.946716309 C11.05981955 93.075827799 10.982792252 89.286059236 10.614746094 85.430664062 C10.547770233 84.705818176 10.480794373 83.98097229 10.41178894 83.234161377 C10.212247968 81.261611992 9.975921643 79.292882087 9.737060547 77.324707031 C10 74 10 74 12.487548828 71.054199219 C13.731212158 70.037370605 13.731212158 70.037370605 15 69 C14.67 69.53625 14.34 70.0725 14 70.625 C12.773007958 73.539106099 12.85766714 75.868677083 13 79 C15.31 77.02 17.62 75.04 20 73 C18 77 18 77 15.405517578 79.322998047 C12.360356099 82.71183349 12.412762886 84.339435013 12.51171875 88.83203125 C12.527832031 90.124316406 12.543945312 91.416601563 12.560546875 92.748046875 C12.602317259 94.102881568 12.644641913 95.457699278 12.6875 96.8125 C12.71259931 98.186808665 12.735409641 99.561161161 12.755859375 100.935546875 C12.81473539 104.291479755 12.896935797 107.6451809 13 111 C13.33 111 13.66 111 14 111 C14.099454147 117.110904833 14.071282797 122.974034269 13 129 C13.99 129 14.98 129 16 129 C16.495 131.475 16.495 131.475 17 134 C18.32 134 19.64 134 21 134 C20.34 132.02 19.68 130.04 19 128 C21 129.75 21 129.75 23 132 C23 133.32 23 134.64 23 136 C21.35 136 19.7 136 18 136 C18 136.66 18 137.32 18 138 C15.03 138 12.06 138 9 138 C5.477386657 132.43502041 5.571444738 127.492447093 5.5 121.125 C5.241331166 111.421464671 4.161047332 102.460094953 2 93 C1.78859375 92.017734375 1.5771875 91.03546875 1.359375 90.0234375 C0.923422172 88.011826595 0.465444667 86.00499241 0 84 C-2.64 83.67 -5.28 83.34 -8 83 C-9.294174002 85.561260642 -10.585407843 88.123933584 -11.875 90.6875 C-12.239804687 91.408730469 -12.604609375 92.129960938 -12.98046875 92.873046875 C-14.002626075 94.908069185 -15.003954721 96.952101142 -16 99 C-16.415078125 99.831445312 -16.83015625 100.662890625 -17.2578125 101.51953125 C-19.127439812 107.768022528 -17.863050457 113.958443009 -16.3125 120.125 C-16.089169922 121.140136719 -16.089169922 121.140136719 -15.861328125 122.17578125 C-14.939011041 125.915686602 -13.87457503 128.409645106 -11.29296875 131.3046875 C-10.536289063 132.194140625 -9.779609375 133.08359375 -9 134 C-9.33 134.99 -9.66 135.98 -10 137 C-15.270711024 137.527071102 -15.270711024 137.527071102 -18 137 C-20.4375 134.0625 -20.4375 134.0625 -22 131 C-22.33 130.67 -22.66 130.34 -23 130 C-23.354157449 127.69351241 -23.657464719 125.379155508 -23.9375 123.0625 C-24.503384229 118.500802274 -25.145576485 113.994234145 -26.125 109.5 C-27.277449946 103.867865585 -27.911873508 99.397289656 -25.125 94.1875 C-22.384335537 89.251756818 -22.384335537 89.251756818 -21 80 C-23.64 86.93 -26.28 93.86 -29 101 C-30.010929921 96.956280315 -30.095620873 96.430737425 -28.63671875 92.8828125 C-28.326699219 92.110664063 -28.016679688 91.338515625 -27.697265625 90.54296875 C-27.364042969 89.745039062 -27.030820312 88.947109375 -26.6875 88.125 C-26.044326303 86.54477765 -25.402373094 84.964057924 -24.76171875 83.3828125 C-24.303336182 82.256252441 -24.303336182 82.256252441 -23.835693359 81.106933594 C-21.103130754 74.249128584 -21.103130754 74.249128584 -21 67 C-22.179807697 64.804817735 -23.480577704 62.777838624 -24.90625 60.734375 C-26 59 -26 59 -26 57 C-25.34 57 -24.68 57 -24 57 C-21.500218078 60.361775688 -19.498668693 63.884949605 -17.5 67.5625 C-14.260482362 73.728281943 -14.260482362 73.728281943 -9 78 C-9 73.71 -9 69.42 -9 65 C-7.865625 65.04125 -6.73125 65.0825 -5.5625 65.125 C1.053609892 65.125 7.915921601 63.58573332 14 61 C16.082486383 54.752540851 15.262026686 51.00085623 12.5 45.125 C9.384847524 39.228461384 5.173568836 32.086784418 -1 29 C-0.662265625 29.53109375 -0.32453125 30.0621875 0.0234375 30.609375 C0.469453125 31.31578125 0.91546875 32.0221875 1.375 32.75 C1.815859375 33.44609375 2.25671875 34.1421875 2.7109375 34.859375 C3.918809056 36.865173827 4.983877373 38.891782962 6 41 C5.67 41.33 5.34 41.66 5 42 C5.09002398 44.024087549 5.246410377 46.045442867 5.4375 48.0625 C5.590253906 49.719589844 5.590253906 49.719589844 5.74609375 51.41015625 C5.829882812 52.264804688 5.913671875 53.119453125 6 54 C5.01 53.505 5.01 53.505 4 53 C3.62853179 50.992302768 3.353288299 48.966470492 3.125 46.9375 C2.332301841 41.132903803 0.956725782 37.026433829 -2 32 C-4.46278801 34.46278801 -4.997712554 36.706769819 -6 40 C-7.125 36.25 -7.125 36.25 -6 34 C-15.626768917 34.685095211 -23.527774851 35.249231072 -31 42 C-31.529804688 42.434414062 -32.059609375 42.868828125 -32.60546875 43.31640625 C-36.896107296 48.496420853 -36.242413787 55.043687357 -36.125 61.375 C-36.115976562 62.301835938 -36.106953125 63.228671875 -36.09765625 64.18359375 C-36.074229374 66.456000767 -36.041427485 68.727861803 -36 71 C-36.33 71 -36.66 71 -37 71 C-38.593433068 62.719372419 -40.389378964 50.970034937 -36.0625 43.3125 C-30.693138404 36.619598291 -24.043007112 33.414508044 -15.6640625 32.234375 C-12.075694459 31.918682797 -8.599715414 31.864161682 -5 32 C-4.725429687 31.13375 -4.450859375 30.2675 -4.16796875 29.375 C-2.694263436 25.116533809 -0.815356206 21.0878692 1.07421875 17 C2.144478285 13.531817203 1.902932515 11.483444564 1 8 C0.62875 7.29875 0.2575 6.5975 -0.125 5.875 C-1.225840945 3.516055118 -0.857126957 2.399955479 0 0 Z " fill="#413D31" transform="translate(144,43)" />
<path d="M0 0 C8.834535036 3.896454317 13.648348555 13.389927206 17 22 C17.664475753 24.835434702 17.610363768 26.070253914 17 29 C13.871747444 33.504683681 8.958443496 35.426579563 3.72265625 36.44140625 C-0.687109022 37.021059256 -3.493579844 36.901284031 -8 36 C-7.67 40.62 -7.34 45.24 -7 50 C-11.430822697 47.341506382 -12.699811944 46.52661272 -15.25 42.5 C-15.75015625 41.7265625 -16.2503125 40.953125 -16.765625 40.15625 C-19.840433479 34.785065569 -19.576247027 29.016917011 -19 23 C-18.140266234 20.522164693 -17.094019578 18.306749114 -15.890625 15.98046875 C-14.673200192 13.273300427 -14.700588459 10.919262526 -15 8 C-10.545 7.505 -10.545 7.505 -6 7 C-5.67 7.66 -5.34 8.32 -5 9 C-4.01 6.36 -3.02 3.72 -2 1 C3.749863405 8.118878502 4.878716817 15.108883941 6 24 C5.67 20.04 5.34 16.08 5 12 C5.66 12 6.32 12 7 12 C6.367714844 11.203359375 6.367714844 11.203359375 5.72265625 10.390625 C5.174804688 9.68421875 4.626953125 8.9778125 4.0625 8.25 C3.517226563 7.55390625 2.971953125 6.8578125 2.41015625 6.140625 C1.025743462 4.039078718 0.437130132 2.456782008 0 0 Z " fill="#EFDFCA" transform="translate(143,72)" />
<path d="M0 0 C3.970370829 0.533540234 6.180249354 1.552520227 9.1875 4.1875 C9.861679687 4.758554688 10.535859375 5.329609375 11.23046875 5.91796875 C13 8 13 8 15 14 C19.29 14 23.58 14 28 14 C28.33 12.35 28.66 10.7 29 9 C31.25 6.4375 31.25 6.4375 34 4 C34.845625 3.21625 35.69125 2.4325 36.5625 1.625 C39 0 39 0 41.15234375 0.3984375 C41.762070312 0.596953125 42.371796875 0.79546875 43 1 C42.967461507 8.792969155 41.136370136 14.071453375 36 20 C35.01 20.66 34.02 21.32 33 22 C33.106992187 22.580078125 33.213984375 23.16015625 33.32421875 23.7578125 C34.192572455 29.416117289 33.622722539 31.855428866 31 37 C30.440315327 40.989678817 30.188773373 44.977174317 30 49 C28 46 28 46 27 44 C26.01 44.495 26.01 44.495 25 45 C23.459760039 45.069505413 21.916650123 45.084523573 20.375 45.0625 C19.149101562 45.048964844 19.149101562 45.048964844 17.8984375 45.03515625 C17.271953125 45.023554688 16.64546875 45.011953125 16 45 C15.34 43.35 14.68 41.7 14 40 C14.495 40.515625 14.99 41.03125 15.5 41.5625 C18.441560365 43.25389721 20.669288093 43.513991611 24.02734375 42.98046875 C27.561157399 41.224058402 28.647379862 37.920715179 30.1875 34.4453125 C31.157659025 31.954967536 31.157659025 31.954967536 31 29 C29.35 29 27.7 29 26 29 C26.33 31.31 26.66 33.62 27 36 C26.34 36 25.68 36 25 36 C24.750459946 34.565896317 24.526073577 33.127399281 24.3125 31.6875 C24.121074219 30.486738281 24.121074219 30.486738281 23.92578125 29.26171875 C24 27 24 27 25.29296875 25.26953125 C27 24 27 24 30 23 C28.68 20.69 27.36 18.38 26 16 C19.865729361 15.388666419 19.865729361 15.388666419 14.5 17.875 C12.97895603 19.916719609 12.97895603 19.916719609 12 22 C6.886115752 19.916565677 3.807907548 16.476520691 1.1875 11.6875 C-0.179385051 7.44296221 -0.232742359 4.422104817 0 0 Z " fill="#6C665B" transform="translate(135,18)" />
<path d="M0 0 C2.351193992 3.526790988 2.214434519 5.028794853 2.125 9.1875 C2.106953125 10.274179687 2.08890625 11.360859375 2.0703125 12.48046875 C2.035507813 13.727636719 2.035507813 13.727636719 2 15 C0.5 13.625 0.5 13.625 -1 12 C-1 11.34 -1 10.68 -1 10 C-1.66 10 -2.32 10 -3 10 C-2.566875 10.652265625 -2.13375 11.30453125 -1.6875 11.9765625 C-1.130625 12.850546875 -0.57375 13.72453125 0 14.625 C0.8353125 15.912773437 0.8353125 15.912773437 1.6875 17.2265625 C3.596993353 21.261503811 3.421302633 24.520909256 2.205566406 28.7890625 C1.841245117 29.724921875 1.476923828 30.66078125 1.1015625 31.625 C0.70453125 32.66140625 0.3075 33.6978125 -0.1015625 34.765625 C-0.521796875 35.83296875 -0.94203125 36.9003125 -1.375 38 C-2.196133485 40.124682893 -3.016470876 42.24967366 -3.8359375 44.375 C-4.202514648 45.310859375 -4.569091797 46.24671875 -4.946777344 47.2109375 C-6.747837174 51.980364367 -8.252119728 56.083417855 -8.265625 61.22265625 C-8.268203125 62.173339844 -8.27078125 63.124023438 -8.2734375 64.103515625 C-8.265703125 65.079980469 -8.25796875 66.056445312 -8.25 67.0625 C-8.257734375 68.042832031 -8.26546875 69.023164063 -8.2734375 70.033203125 C-8.270859375 70.982597656 -8.26828125 71.931992187 -8.265625 72.91015625 C-8.263369141 73.767463379 -8.261113281 74.624770508 -8.258789062 75.508056641 C-7.969267651 78.295929329 -7.069640234 80.422825603 -6 83 C-6 83.99 -6 84.98 -6 86 C-7.32 85.67 -8.64 85.34 -10 85 C-10 83.68 -10 82.36 -10 81 C-10.66 81 -11.32 81 -12 81 C-12.19244514 76.498076838 -12.371136581 71.99589691 -12.537109375 67.492919922 C-12.595504032 65.96119563 -12.657653055 64.429609669 -12.723632812 62.898193359 C-12.817829267 60.696708034 -12.898506375 58.495078107 -12.9765625 56.29296875 C-13.00875885 55.608491669 -13.0409552 54.924014587 -13.074127197 54.218795776 C-13.190407317 50.527003573 -13.115261747 49.17289262 -11 46 C-10.815709646 43.282742153 -10.815709646 43.282742153 -11.0234375 40.23828125 C-11.075 39.120019531 -11.1265625 38.001757812 -11.1796875 36.849609375 C-11.244140625 35.682363281 -11.30859375 34.515117188 -11.375 33.3125 C-11.43171875 32.133652344 -11.4884375 30.954804688 -11.546875 29.740234375 C-11.68844672 26.826216481 -11.839869419 23.913047425 -12 21 C-7 28.5 -7 28.5 -7 32 C-7.66 32 -8.32 32 -9 32 C-9.33 32.66 -9.66 33.32 -10 34 C-8.68 34 -7.36 34 -6 34 C-4.187077366 29.521014669 -3.73201456 26.681792396 -5 22 C-5.983573517 19.991870737 -6.983087363 17.991453913 -8 16 C-8.87109375 13.6796875 -8.87109375 13.6796875 -9 11 C-7.12890625 8.10546875 -7.12890625 8.10546875 -4.5625 5.1875 C-3.295996094 3.723769531 -3.295996094 3.723769531 -2.00390625 2.23046875 C-1.342617187 1.494414062 -0.681328125 0.758359375 0 0 Z " fill="#ECE0CF" transform="translate(121,90)" />
<path d="M0 0 C2.95569436 2.660124924 4.416216884 5.059463967 5 9 C4.195625 9.309375 3.39125 9.61875 2.5625 9.9375 C0.109195955 10.763353448 0.109195955 10.763353448 -1 12 C-1.07179964 13.519280378 -1.083920073 15.041674817 -1.0625 16.5625 C-1.053476563 17.388789062 -1.044453125 18.215078125 -1.03515625 19.06640625 C-1.023554687 19.704492188 -1.011953125 20.342578125 -1 21 C-0.34 21 0.32 21 1 21 C0.649375 20.4225 0.29875 19.845 -0.0625 19.25 C-1.149174068 16.641982237 -0.930651327 15.605823715 0 13 C1.65 13 3.3 13 5 13 C5.988103918 15.622744967 6.0647474 16.80205795 5.1796875 19.5078125 C4.749140625 20.371484375 4.31859375 21.23515625 3.875 22.125 C3.252382813 23.428242188 3.252382813 23.428242188 2.6171875 24.7578125 C0.656022534 27.476915617 -0.802250502 28.120116097 -4 29 C-6.765490929 28.802464934 -8.369132982 28.524907441 -10.51171875 26.7421875 C-15.286326562 21.153014051 -16.526539864 14.10828817 -16 7 C-15.34 7 -14.68 7 -14 7 C-13.731875 6.21625 -13.46375 5.4325 -13.1875 4.625 C-10.636268587 -1.014564175 -5.458866934 -0.977265509 0 0 Z " fill="#B1A796" transform="translate(161,33)" />
<path d="M0 0 C2.030793331 3.046189997 2.971808781 5.504149857 4 9 C4.28875 9.94875 4.5775 10.8975 4.875 11.875 C5.031868366 15.79670916 3.718979284 17.74269537 1.8828125 21.11328125 C0.821317905 23.068749106 0.821317905 23.068749106 0.875 25.75 C2.485627036 28.971254073 4.987854499 30.141442138 8 32 C8 32.66 8 33.32 8 34 C10.97 34.495 10.97 34.495 14 35 C12.02 35.495 12.02 35.495 10 36 C10.598125 36.825 11.19625 37.65 11.8125 38.5 C15.887126707 44.69169254 18.473518253 51.517960713 17 59 C13.60738873 64.034197369 8.742631876 65.736415526 3 67 C1.68 67 0.36 67 -1 67 C-1.083333572 71.833347202 -0.952614875 76.236925626 0 81 C-5.75 81.125 -5.75 81.125 -8 80 C-9.176008319 76.775222472 -9.102999565 73.65196344 -9.0625 70.25 C-9.053476563 69.26515625 -9.044453125 68.2803125 -9.03515625 67.265625 C-9.023554687 66.51796875 -9.011953125 65.7703125 -9 65 C-7.865625 65.04125 -6.73125 65.0825 -5.5625 65.125 C1.053609892 65.125 7.915921601 63.58573332 14 61 C16.082486383 54.752540851 15.262026686 51.00085623 12.5 45.125 C9.384847524 39.228461384 5.173568836 32.086784418 -1 29 C-0.662265625 29.53109375 -0.32453125 30.0621875 0.0234375 30.609375 C0.469453125 31.31578125 0.91546875 32.0221875 1.375 32.75 C1.815859375 33.44609375 2.25671875 34.1421875 2.7109375 34.859375 C3.918809056 36.865173827 4.983877373 38.891782962 6 41 C5.67 41.33 5.34 41.66 5 42 C5.09002398 44.024087549 5.246410377 46.045442867 5.4375 48.0625 C5.590253906 49.719589844 5.590253906 49.719589844 5.74609375 51.41015625 C5.829882812 52.264804688 5.913671875 53.119453125 6 54 C5.01 53.505 5.01 53.505 4 53 C3.62853179 50.992302768 3.353288299 48.966470492 3.125 46.9375 C2.332301841 41.132903803 0.956725782 37.026433829 -2 32 C-4.46278801 34.46278801 -4.997712554 36.706769819 -6 40 C-7.125 36.25 -7.125 36.25 -6 34 C-15.626768917 34.685095211 -23.527774851 35.249231072 -31 42 C-31.529804688 42.434414062 -32.059609375 42.868828125 -32.60546875 43.31640625 C-36.896107296 48.496420853 -36.242413787 55.043687357 -36.125 61.375 C-36.115976562 62.301835938 -36.106953125 63.228671875 -36.09765625 64.18359375 C-36.074229374 66.456000767 -36.041427485 68.727861803 -36 71 C-36.33 71 -36.66 71 -37 71 C-38.593433068 62.719372419 -40.389378964 50.970034937 -36.0625 43.3125 C-30.693138404 36.619598291 -24.043007112 33.414508044 -15.6640625 32.234375 C-12.075694459 31.918682797 -8.599715414 31.864161682 -5 32 C-4.725429687 31.13375 -4.450859375 30.2675 -4.16796875 29.375 C-2.694263436 25.116533809 -0.815356206 21.0878692 1.07421875 17 C2.144478285 13.531817203 1.902932515 11.483444564 1 8 C0.62875 7.29875 0.2575 6.5975 -0.125 5.875 C-1.225840945 3.516055118 -0.857126957 2.399955479 0 0 Z " fill="#C0AA90" transform="translate(144,43)" />
<path d="M0 0 C0.309375 0.66 0.61875 1.32 0.9375 2 C3.412848688 4.400338122 4.156806767 4.29619174 7.5 4.3125 C10.343740317 4.222448223 12.2642373 3.9119209 15 3 C19.554924661 16.050095568 20.71774599 27.258032077 19 41 C18.67 41.66 18.34 42.32 18 43 C17.34 43 16.68 43 16 43 C16 41.35 16 39.7 16 38 C15.67 38 15.34 38 15 38 C15 32.72 15 27.44 15 22 C13.35 22 11.7 22 10 22 C10 21.34 10 20.68 10 20 C8.02 19.67 6.04 19.34 4 19 C4 18.34 4 17.68 4 17 C3.236875 16.731875 2.47375 16.46375 1.6875 16.1875 C-2.496519722 14.3387471 -2.496519722 14.3387471 -4 12 C-3.796422052 7.419496167 -2.180907895 3.982527461 0 0 Z " fill="#E6D4BB" transform="translate(148,58)" />
<path d="M0 0 C0.33 0 0.66 0 1 0 C0.491561234 5.61142785 -0.682990865 10.235964678 -2.875 15.4375 C-7.383718688 26.888513571 -9.223325466 38.274249147 -9.3125 50.5625 C-9.318139648 51.288081055 -9.323779297 52.013662109 -9.329589844 52.761230469 C-9.237020184 59.565884959 -7.737742638 65.742302542 -5 72 C-6.666119052 72.042721001 -8.333828849 72.040638321 -10 72 C-11 71 -11 71 -11.0625 68.4375 C-11.041875 67.633125 -11.02125 66.82875 -11 66 C-11.99 66 -12.98 66 -14 66 C-14 63.03 -14 60.06 -14 57 C-14.33 57 -14.66 57 -15 57 C-15.173784839 51.716558964 -15.300408966 46.434800589 -15.384521484 41.149169922 C-15.419601406 39.353627557 -15.467280823 37.558283414 -15.528076172 35.763427734 C-16.021339135 20.820461506 -16.021339135 20.820461506 -13.546875 16.409912109 C-11.794193192 14.694834481 -10.02621297 13.370632801 -8 12 C-6.653826676 10.270239654 -5.351238055 8.504253617 -4.125 6.6875 C-3.550078125 5.845742187 -2.97515625 5.003984375 -2.3828125 4.13671875 C-0.987222019 2.066533087 -0.987222019 2.066533087 0 0 Z " fill="#DAD6CA" transform="translate(171,106)" />
<path d="M0 0 C0.66 0 1.32 0 2 0 C3.4375 1.49609375 3.4375 1.49609375 5 3.4375 C7.145250436 6.151882381 7.145250436 6.151882381 10 8 C8.749598022 12.209468439 7.083753703 15.906550275 5.028564453 19.758789062 C-0.497443973 30.16039633 -2.097739779 36.482365307 1.17578125 48.05078125 C1.931758961 50.75581998 2.486788435 53.428439534 3 56.1875 C3.33 57.445625 3.66 58.70375 4 60 C4.99 60.33 5.98 60.66 7 61 C7 61.66 7 62.32 7 63 C5.35 63 3.7 63 2 63 C1.87625 62.071875 1.87625 62.071875 1.75 61.125 C1.5025 60.42375 1.255 59.7225 1 59 C0.349023437 58.796328125 -0.301953125 58.59265625 -0.97265625 58.3828125 C-3 57 -3 57 -3.79296875 53.296875 C-3.943291999 51.783000153 -4.074037501 50.267082856 -4.1875 48.75 C-4.325638058 47.244682466 -4.464940563 45.739471286 -4.60546875 44.234375 C-4.699731445 43.149266357 -4.699731445 43.149266357 -4.795898438 42.042236328 C-5.066230227 39.337301614 -5.528628717 36.676298108 -6 34 C-6.54637986 28.627264706 -6.035649415 25.741254195 -3.5625 20.9375 C-0.151059043 14.095344407 -0.111894057 7.537590544 0 0 Z " fill="#E7E4D8" transform="translate(125,115)" />
<path d="M0 0 C1.445088497 3.819819912 0.509146165 6.293706872 -0.8125 10.0625 C-1.169570312 11.105351563 -1.526640625 12.148203125 -1.89453125 13.22265625 C-3 16 -3 16 -5 19 C-5.111442037 25.705095871 -4.086291021 32.318196115 -2.47265625 38.80859375 C-1.76186355 42.104087178 -1.508300492 45.418416043 -1.22265625 48.7734375 C-1.030432002 51.123492222 -1.030432002 51.123492222 -0.375 53.875 C0.041225326 56.23361018 -0.248656524 57.745969573 -1 60 C-5.207549997 57.533505174 -6.299724773 54.453101784 -8 50 C-8.33 49.34 -8.66 48.68 -9 48 C-9.534982628 44.684428653 -9.749862329 41.347296839 -10 38 C-10.101835937 37.13375 -10.203671875 36.2675 -10.30859375 35.375 C-11.150788907 23.274889995 -5.582005112 10.545695812 0 0 Z " fill="#E2DFD4" transform="translate(123,122)" />
<path d="M0 0 C0.66 0 1.32 0 2 0 C5.034191012 4.080463775 7.430214094 8.48437567 9.8515625 12.94921875 C10.820907061 14.680191181 11.899525356 16.349288034 13 18 C12.01 18 11.02 18 10 18 C9.67 17.01 9.34 16.02 9 15 C8.34 15 7.68 15 7 15 C7.087011719 16.432792969 7.087011719 16.432792969 7.17578125 17.89453125 C7.458494484 25.99628477 6.931660144 31.260170715 3.12109375 38.58984375 C0.326462867 44.597813279 2.243970497 50.806433369 3.5 57.04296875 C4.203025513 61.200705575 4.388896262 65.356813724 4.55859375 69.56640625 C4.777089844 70.771035156 4.777089844 70.771035156 5 72 C5.99 72.66 6.98 73.32 8 74 C8.33 74.99 8.66 75.98 9 77 C10.65 77.33 12.3 77.66 14 78 C13.319375 77.2575 12.63875 76.515 11.9375 75.75 C10 73 10 73 10.25 70.6875 C10.4975 70.130625 10.745 69.57375 11 69 C13.217135083 72.251798121 15.348324433 75.421369604 17 79 C16 80 16 80 12.1875 80.4375 C10.0078125 80.4296875 10.0078125 80.4296875 8 80 C5.5625 77.0625 5.5625 77.0625 4 74 C3.67 73.67 3.34 73.34 3 73 C2.645842551 70.69351241 2.342535281 68.379155508 2.0625 66.0625 C1.496615771 61.500802274 0.854423515 56.994234145 -0.125 52.5 C-1.277449946 46.867865585 -1.911873508 42.397289656 0.875 37.1875 C3.615664463 32.251756818 3.615664463 32.251756818 5 23 C2.36 29.93 -0.28 36.86 -3 44 C-4.010929921 39.956280315 -4.095620873 39.430737425 -2.63671875 35.8828125 C-2.326699219 35.110664063 -2.016679688 34.338515625 -1.697265625 33.54296875 C-1.364042969 32.745039062 -1.030820312 31.947109375 -0.6875 31.125 C-0.044326303 29.54477765 0.597626906 27.964057924 1.23828125 26.3828125 C1.543869629 25.631772461 1.849458008 24.880732422 2.164306641 24.106933594 C4.896869246 17.249128584 4.896869246 17.249128584 5 10 C3.820192303 7.804817735 2.519422296 5.777838624 1.09375 3.734375 C0 2 0 2 0 0 Z " fill="#403D33" transform="translate(118,100)" />
<path d="M0 0 C5.821772161 0.782332385 9.136140235 3.728047181 13 8 C14.5 11.4375 14.5 11.4375 15 14 C18.96 14 22.92 14 27 14 C26.67 14.66 26.34 15.32 26 16 C25.39671875 15.95359375 24.7934375 15.9071875 24.171875 15.859375 C18.976994075 15.53165845 18.976994075 15.53165845 14.5 17.875 C12.97895603 19.916719609 12.97895603 19.916719609 12 22 C6.886115752 19.916565677 3.807907548 16.476520691 1.1875 11.6875 C-0.179385051 7.44296221 -0.232742359 4.422104817 0 0 Z " fill="#777164" transform="translate(135,18)" />
<path d="M0 0 C0.125 6.75 0.125 6.75 -1 9 C-0.21625 8.814375 0.5675 8.62875 1.375 8.4375 C4 8 4 8 6 9 C4.734599205 13.534352847 3.135822638 16.495257052 0 20 C-0.61875 20.763125 -1.2375 21.52625 -1.875 22.3125 C-4.676574174 24.537279491 -6.515909448 24.316735505 -10 24 C-10.66 22.68 -11.32 21.36 -12 20 C-11.38125 19.46375 -10.7625 18.9275 -10.125 18.375 C-6.906218946 14.777538822 -6.065733142 10.618176949 -5 6 C-6.32 5.67 -7.64 5.34 -9 5 C-9 3.68 -9 2.36 -9 1 C-1.125 0 -1.125 0 0 0 Z " fill="#DAC8B2" transform="translate(137,79)" />
<path d="M0 0 C1.32 0.99 2.64 1.98 4 3 C4.33 2.34 4.66 1.68 5 1 C8.122906353 1.485785433 10.995803588 1.998601196 14 3 C14 2.01 14 1.02 14 0 C15.32 0.33 16.64 0.66 18 1 C18.125 8.625 18.125 8.625 17 12 C18.32 12.33 19.64 12.66 21 13 C18.36 13 15.72 13 13 13 C13 10.36 13 7.72 13 5 C12.34 5 11.68 5 11 5 C11 8.3 11 11.6 11 15 C9.68 15 8.36 15 7 15 C7.33 13.35 7.66 11.7 8 10 C6.68 9.67 5.36 9.34 4 9 C3.67 7.68 3.34 6.36 3 5 C2.34 5 1.68 5 1 5 C0.67 6.65 0.34 8.3 0 10 C-0.99 10 -1.98 10 -3 10 C-2.67 11.65 -2.34 13.3 -2 15 C-3.32 14.34 -4.64 13.68 -6 13 C-6 11.02 -6 9.04 -6 7 C-4.68 6.67 -3.36 6.34 -2 6 C-2 5.01 -2 4.02 -2 3 C-1.34 2.01 -0.68 1.02 0 0 Z " fill="#F3EDE1" transform="translate(178,232)" />
<path d="M0 0 C0 0.99 0 1.98 0 3 C-0.33 3.33 -0.66 3.66 -1 4 C-1.040807829 5.999583637 -1.042543563 8.00045254 -1 10 C1.31 8.02 3.62 6.04 6 4 C4 8 4 8 1.405517578 10.322998047 C-1.639643901 13.71183349 -1.587237114 15.339435013 -1.48828125 19.83203125 C-1.472167969 21.124316406 -1.456054688 22.416601563 -1.439453125 23.748046875 C-1.397682741 25.102881568 -1.355358087 26.457699278 -1.3125 27.8125 C-1.28740069 29.186808665 -1.264590359 30.561161161 -1.244140625 31.935546875 C-1.18526461 35.291479755 -1.103064203 38.6451809 -1 42 C-0.67 42 -0.34 42 0 42 C0.099454147 48.110904833 0.071282797 53.974034269 -1 60 C-0.01 60 0.98 60 2 60 C2.33 61.65 2.66 63.3 3 65 C4.32 65 5.64 65 7 65 C6.34 63.02 5.68 61.04 5 59 C7 60.75 7 60.75 9 63 C9 64.32 9 65.64 9 67 C7.35 67 5.7 67 4 67 C4 67.66 4 68.32 4 69 C1.03 69 -1.94 69 -5 69 C-9.044998204 63.101044286 -8.277489765 56.926966719 -8 50 C-7.67 50 -7.34 50 -7 50 C-6.951015625 50.724453125 -6.90203125 51.44890625 -6.8515625 52.1953125 C-6.447938476 57.414588674 -5.987241926 62.098136582 -4 67 C-2.35 67.33 -0.7 67.66 1 68 C0.713425293 67.48840332 0.426850586 66.976806641 0.131591797 66.449707031 C-4.055528488 57.787014312 -3.415356848 49.251825029 -3.1875 39.875 C-3.130281653 36.684996348 -3.085951396 33.494909439 -3.04296875 30.3046875 C-3.028295593 29.526557007 -3.013622437 28.748426514 -2.998504639 27.946716309 C-2.945281986 24.081288704 -3.01470657 20.283249874 -3.350097656 16.430664062 C-3.412561798 15.705818176 -3.47502594 14.98097229 -3.539382935 14.234161377 C-3.726040105 12.262139467 -3.944555813 10.293206646 -4.165283203 8.324707031 C-3.964477152 4.285450311 -2.785935653 2.838220437 0 0 Z " fill="#2F2C23" transform="translate(158,112)" />
<path d="M0 0 C8.834535036 3.896454317 13.648348555 13.389927206 17 22 C17.664475753 24.835434702 17.610363768 26.070253914 17 29 C14.781369706 31.907170729 13.480550714 32.839816429 10 34 C10 32.68 10 31.36 10 30 C9.38125 30.474375 8.7625 30.94875 8.125 31.4375 C3.838943241 33.580528379 -0.266007088 33.733425642 -5 34 C-5 33.67 -5 33.34 -5 33 C-4.336132813 32.818242188 -3.672265625 32.636484375 -2.98828125 32.44921875 C3.996591578 30.687719192 3.996591578 30.687719192 10 27 C11.260063154 23.681905359 11.260063154 23.681905359 11 20 C9.25 16.833333333 9.25 16.833333333 7 14 C6.67 13.154375 6.34 12.30875 6 11.4375 C5.067238577 8.834859125 5.067238577 8.834859125 2.9375 6.4375 C1.110144388 4.138568746 0.422040405 2.848772731 0 0 Z " fill="#E0C4A5" transform="translate(143,72)" />
<path d="M0 0 C3.194959015 3.194959015 2.551102373 7.077792337 2.75 11.4375 C2.805429687 12.309550781 2.860859375 13.181601562 2.91796875 14.080078125 C2.960507812 14.918613281 3.003046875 15.757148438 3.046875 16.62109375 C3.086513672 17.388649902 3.126152344 18.156206055 3.166992188 18.947021484 C3 21 3 21 1 24 C0.828879984 26.47056823 0.767468756 28.825039209 0.8046875 31.29296875 C0.807517395 31.998997345 0.81034729 32.70502594 0.813262939 33.432449341 C0.824445365 35.684306327 0.849545796 37.935763516 0.875 40.1875 C0.885032333 41.715489042 0.894157743 43.243484326 0.90234375 44.771484375 C0.924378278 48.514476628 0.958894329 52.25717056 1 56 C1.66 56 2.32 56 3 56 C3.103125 56.639375 3.20625 57.27875 3.3125 57.9375 C3.6528125 58.9584375 3.6528125 58.9584375 4 60 C4.99 60.33 5.98 60.66 7 61 C6.267167969 59.371914062 6.267167969 59.371914062 5.51953125 57.7109375 C3.519787335 52.369655637 3.59407847 47.267660383 3.6875 41.625 C3.684277344 40.628554688 3.681054687 39.632109375 3.677734375 38.60546875 C3.732495301 31.267504699 3.732495301 31.267504699 6 29 C5.988398437 30.038984375 5.976796875 31.07796875 5.96484375 32.1484375 C5.162306791 46.755681377 5.162306791 46.755681377 10 60 C10 60.99 10 61.98 10 63 C7.69 63 5.38 63 3 63 C2.525625 62.030625 2.05125 61.06125 1.5625 60.0625 C0.298060529 57.195225629 0.298060529 57.195225629 -1 56 C-1.048439986 53.450845754 -1.042531474 50.923021961 -1 48.375 C-0.918874839 41.179351269 -1.286551463 34.137343711 -1.9765625 26.9765625 C-2 24 -2 24 0 21 C0.275124186 18.677339183 0.275124186 18.677339183 0.1953125 16.11328125 C0.188867187 15.175488281 0.182421875 14.237695312 0.17578125 13.271484375 C0.150644531 11.806787109 0.150644531 11.806787109 0.125 10.3125 C0.115976562 9.324433594 0.106953125 8.336367188 0.09765625 7.318359375 C0.074084298 4.87866235 0.041180223 2.439453034 0 0 Z " fill="#3D382D" transform="translate(108,115)" />
<path d="M0 0 C3.043158814 4.564738221 4.593100216 9.533104513 5 15 C4.047028059 17.591162379 3.076936751 19.826366109 1.8125 22.25 C1.159310094 23.567947904 0.508271201 24.886964035 -0.140625 26.20703125 C-0.459667969 26.848500977 -0.778710937 27.489970703 -1.107421875 28.150878906 C-2.967490218 32.004313706 -4.485130908 36.001121962 -6 40 C-7.125 36.25 -7.125 36.25 -6 34 C-15.626768917 34.685095211 -23.527774851 35.249231072 -31 42 C-31.529804688 42.434414062 -32.059609375 42.868828125 -32.60546875 43.31640625 C-36.896107296 48.496420853 -36.242413787 55.043687357 -36.125 61.375 C-36.115976562 62.301835938 -36.106953125 63.228671875 -36.09765625 64.18359375 C-36.074229374 66.456000767 -36.041427485 68.727861803 -36 71 C-36.33 71 -36.66 71 -37 71 C-38.593433068 62.719372419 -40.389378964 50.970034937 -36.0625 43.3125 C-30.693138404 36.619598291 -24.043007112 33.414508044 -15.6640625 32.234375 C-12.075694459 31.918682797 -8.599715414 31.864161682 -5 32 C-4.725429687 31.13375 -4.450859375 30.2675 -4.16796875 29.375 C-2.694263436 25.116533809 -0.815356206 21.0878692 1.07421875 17 C2.144478285 13.531817203 1.902932515 11.483444564 1 8 C0.62875 7.29875 0.2575 6.5975 -0.125 5.875 C-1.225840945 3.516055118 -0.857126957 2.399955479 0 0 Z " fill="#372D21" transform="translate(144,43)" />
<path d="M0 0 C0.33 0 0.66 0 1 0 C1.867918225 3.712784922 2.094937164 7.086566875 2.02734375 10.89453125 C2.015097656 12.015371094 2.002851563 13.136210938 1.990234375 14.291015625 C1.955252645 16.6270178 1.916230933 18.962963185 1.873046875 21.298828125 C1.792048773 29.613045078 2.638115771 36.315693192 6 44 C4.333880948 44.042721001 2.666171151 44.040638321 1 44 C0 43 0 43 -0.0625 40.4375 C-0.041875 39.633125 -0.02125 38.82875 0 38 C-0.99 38 -1.98 38 -3 38 C-2.906586385 32.909337736 -2.800520889 27.819157964 -2.682617188 22.729003906 C-2.644286593 20.996655934 -2.609440937 19.264227255 -2.578125 17.531738281 C-2.532562353 15.044302515 -2.474554969 12.557424337 -2.4140625 10.0703125 C-2.402511292 9.293179016 -2.390960083 8.516045532 -2.379058838 7.715362549 C-2.227743414 2.227743414 -2.227743414 2.227743414 0 0 Z " fill="#E6E4D8" transform="translate(160,134)" />
<path d="M0 0 C2.130329872 3.431159254 2.130329872 3.431159254 1.550048828 5.963867188 C1.101817627 6.994956055 1.101817627 6.994956055 0.64453125 8.046875 C-1.374813395 13.49274979 -1.410003907 18.493369309 -1.3125 24.25 C-1.315722656 25.216796875 -1.318945313 26.18359375 -1.322265625 27.1796875 C-1.28625878 31.932591043 -1.113277607 35.655572729 1 40 C1 40.99 1 41.98 1 43 C-0.32 42.67 -1.64 42.34 -3 42 C-3 40.68 -3 39.36 -3 38 C-3.66 38 -4.32 38 -5 38 C-5.26694913 33.517082512 -5.499957551 29.034057559 -5.701904297 24.547851562 C-5.775312927 23.022637371 -5.857916994 21.497836496 -5.949951172 19.973632812 C-6.080812364 17.779741359 -6.178311982 15.586478197 -6.26953125 13.390625 C-6.317211456 12.711309204 -6.364891663 12.031993408 -6.414016724 11.332092285 C-6.475830078 9.391601562 -6.475830078 9.391601562 -6 6 C-3.545654297 3.663085938 -3.545654297 3.663085938 -1 2 C-0.67 1.34 -0.34 0.68 0 0 Z " fill="#DFDCD1" transform="translate(114,133)" />
<path d="M0 0 C0.99 0 1.98 0 3 0 C3.482756708 3.586192689 3.953046976 7.131369056 4.1484375 10.74609375 C4.536924867 17.711117261 5.932552096 23.77134679 8.16015625 30.3828125 C9 33 9 33 9 35 C9.99 35.33 10.98 35.66 12 36 C12 36.66 12 37.32 12 38 C10.35 38 8.7 38 7 38 C6.87625 37.071875 6.87625 37.071875 6.75 36.125 C6.5025 35.42375 6.255 34.7225 6 34 C5.349023437 33.796328125 4.698046875 33.59265625 4.02734375 33.3828125 C2 32 2 32 1.20703125 28.296875 C1.056708001 26.783000153 0.925962499 25.267082856 0.8125 23.75 C0.674361942 22.244682466 0.535059437 20.739471286 0.39453125 19.234375 C0.332011719 18.510163574 0.269492188 17.785952148 0.205078125 17.039794922 C-0.066629741 14.337272045 -0.550489827 11.677851199 -1 9 C-1.155874288 6.299707193 -1.091913634 3.711452216 -1 1 C-0.67 0.67 -0.34 0.34 0 0 Z " fill="#DEDCD0" transform="translate(120,140)" />
<path d="M0 0 C0.99 0.33 1.98 0.66 3 1 C3 1.66 3 2.32 3 3 C3.99 3 4.98 3 6 3 C6 4.65 6 6.3 6 8 C6.9590625 8.2165625 6.9590625 8.2165625 7.9375 8.4375 C10 9 10 9 11 10 C11.99 7.69 12.98 5.38 14 3 C14.66 3 15.32 3 16 3 C16.99 5.97 17.98 8.94 19 12 C18.34 12 17.68 12 17 12 C16.67 10.35 16.34 8.7 16 7 C15.34 7 14.68 7 14 7 C13.9175 7.78375 13.835 8.5675 13.75 9.375 C13 12 13 12 10.9375 13.3125 C10.298125 13.539375 9.65875 13.76625 9 14 C8.67 13.67 8.34 13.34 8 13 C7.67 13.66 7.34 14.32 7 15 C4.36 15 1.72 15 -1 15 C-0.67 14.34 -0.34 13.68 0 13 C0.99 13 1.98 13 3 13 C2.540863217 9.514006678 2.540863217 9.514006678 1 6 C-2.514006678 4.459136783 -2.514006678 4.459136783 -6 4 C-6 4.99 -6 5.98 -6 7 C-5.01 7.33 -4.02 7.66 -3 8 C-3.99 8 -4.98 8 -6 8 C-6 8.99 -6 9.98 -6 11 C-5.01 11.33 -4.02 11.66 -3 12 C-4.65 12 -6.3 12 -8 12 C-8 9.03 -8 6.06 -8 3 C-6.865625 2.87625 -5.73125 2.7525 -4.5625 2.625 C-3.386875 2.41875 -2.21125 2.2125 -1 2 C-0.67 1.34 -0.34 0.68 0 0 Z " fill="#8D897C" transform="translate(97,234)" />
<path d="M0 0 C0.309375 0.66 0.61875 1.32 0.9375 2 C3.412848688 4.400338122 4.156806767 4.29619174 7.5 4.3125 C10.343740317 4.222448223 12.2642373 3.9119209 15 3 C14.3125 5.875 14.3125 5.875 13 9 C9.396959661 11.201857985 6.151026875 11.193071017 2 11 C3.32 11.66 4.64 12.32 6 13 C4 15 4 15 1.5625 15.3125 C-1 15 -1 15 -2.875 13.875 C-4 12 -4 12 -3.875 9.1875 C-2.956888427 5.842950699 -1.66278443 3.036388959 0 0 Z " fill="#D4C6B4" transform="translate(148,58)" />
<path d="M0 0 C0.99 0 1.98 0 3 0 C3 0.66 3 1.32 3 2 C4.65 2 6.3 2 8 2 C8.33 1.34 8.66 0.68 9 0 C9 0.66 9 1.32 9 2 C9.8971875 1.6596875 9.8971875 1.6596875 10.8125 1.3125 C11.8953125 1.1578125 11.8953125 1.1578125 13 1 C14.75 2.4375 14.75 2.4375 16 4 C16.66 3.67 17.32 3.34 18 3 C16.848266448 5.468000469 15.952164345 7.047835655 14 9 C13.01 9 12.02 9 11 9 C11 9.66 11 10.32 11 11 C11.99 11 12.98 11 14 11 C14 11.66 14 12.32 14 13 C12.333880948 13.042721001 10.666171151 13.040638321 9 13 C8 12 8 12 7.90234375 9.93359375 C7.913945313 9.109882812 7.925546875 8.286171875 7.9375 7.4375 C7.946523437 6.611210938 7.955546875 5.784921875 7.96484375 4.93359375 C7.976445313 4.295507813 7.988046875 3.657421875 8 3 C6.68 3 5.36 3 4 3 C4.33 3.99 4.66 4.98 5 6 C4.3125 9.125 4.3125 9.125 3 12 C0.875 12.875 0.875 12.875 -1 13 C-1.66 12.01 -2.32 11.02 -3 10 C-0.525 10.495 -0.525 10.495 2 11 C2 10.01 2 9.02 2 8 C0.68 7.67 -0.64 7.34 -2 7 C-1.424155676 4.614359231 -0.777724053 2.333172159 0 0 Z " fill="#979085" transform="translate(139,234)" />
<path d="M0 0 C0.33 3.3 0.66 6.6 1 10 C0.01 10.33 -0.98 10.66 -2 11 C-1.34 11.33 -0.68 11.66 0 12 C-0.33 12.66 -0.66 13.32 -1 14 C-1.66 13.67 -2.32 13.34 -3 13 C-3 13.66 -3 14.32 -3 15 C-2.34 15 -1.68 15 -1 15 C-1 15.66 -1 16.32 -1 17 C-0.34 17 0.32 17 1 17 C1 16.34 1 15.68 1 15 C2.65 14.34 4.3 13.68 6 13 C5.67 12.01 5.34 11.02 5 10 C5.66 10 6.32 10 7 10 C6.649375 9.4225 6.29875 8.845 5.9375 8.25 C4.850825932 5.641982237 5.069348673 4.605823715 6 2 C7.65 2 9.3 2 11 2 C11.988103918 4.622744967 12.0647474 5.80205795 11.1796875 8.5078125 C10.749140625 9.371484375 10.31859375 10.23515625 9.875 11.125 C9.459921875 11.993828125 9.04484375 12.86265625 8.6171875 13.7578125 C6.656022534 16.476915617 5.197749498 17.120116097 2 18 C-0.856614649 17.795956096 -2.496182441 17.335878372 -4.875 15.75 C-6 14 -6 14 -5.8125 11.8125 C-5.544375 10.884375 -5.27625 9.95625 -5 9 C-4.85046875 8.318085938 -4.7009375 7.636171875 -4.546875 6.93359375 C-4.104231405 4.938127865 -3.557191753 2.966559127 -3 1 C-1 0 -1 0 0 0 Z " fill="#D9D2C3" transform="translate(155,44)" />
<path d="M0 0 C1.379187931 0.12744971 2.757331353 0.281173016 4.125 0.5 C4.125 1.16 4.125 1.82 4.125 2.5 C1.155 3.16 -1.815 3.82 -4.875 4.5 C-5.0296875 6.0159375 -5.0296875 6.0159375 -5.1875 7.5625 C-5.784227664 10.980122075 -6.723105406 13.360351523 -8.17578125 16.45703125 C-9.605355336 20.633943246 -9.645256123 25.119021927 -9.875 29.5 C-12.083023612 26.187964581 -12.078309354 25.261882051 -11.9375 21.4375 C-11.73288259 17.827102047 -11.73288259 17.827102047 -12.875 14.5 C-15.845 17.965 -15.845 17.965 -18.875 21.5 C-18.875 16.86979365 -15.911280657 14.601172728 -13.01953125 11.15234375 C-11.118719096 8.801430357 -9.550330196 6.423726029 -7.9375 3.875 C-5.559220077 0.594159552 -4.042706986 0.01261375 0 0 Z " fill="#BDA890" transform="translate(133.875,76.5)" />
<path d="M0 0 C2.97 0.33 5.94 0.66 9 1 C9.054178348 4.208562168 9.093759947 7.416200235 9.125 10.625 C9.141757813 11.528632813 9.158515625 12.432265625 9.17578125 13.36328125 C9.212016434 18.32750152 8.964441456 22.344119068 7 27 C7.66 27.33 8.32 27.66 9 28 C8.34 28 7.68 28 7 28 C6.01 30.475 6.01 30.475 5 33 C4.566875 32.54625 4.13375 32.0925 3.6875 31.625 C1.892016584 29.799756662 1.892016584 29.799756662 -1 28 C-0.030625 27.731875 0.93875 27.46375 1.9375 27.1875 C2.948125 26.795625 3.95875 26.40375 5 26 C7.666299482 18.001101555 5.492015702 11.379113472 2 4 C1.34 2.68 0.68 1.36 0 0 Z " fill="#EFDEC6" transform="translate(154,79)" />
</svg>