<?xml version='1.0' encoding='utf-8'?>
<svg xmlns="http://www.w3.org/2000/svg" version="1.1" width="193" height="146" viewBox="42.0 43.754535947 193.0 146.620464053">
<path d="M0 0 C1.98 0.495 1.98 0.495 4 1 C3.01 1.33 2.02 1.66 1 2 C2.525559663 6.811228474 2.525559663 6.811228474 6 10 C5.67 8.68 5.34 7.36 5 6 C6.708402814 7.634124431 7.934530468 8.869060936 9 11 C11.527332351 11.655551192 11.527332351 11.655551192 14 12 C13.67 12.66 13.34 13.32 13 14 C12.34 14 11.68 14 11 14 C11.33 14.99 11.66 15.98 12 17 C12.825 17.28875 13.65 17.5775 14.5 17.875 C15.325 18.24625 16.15 18.6175 17 19 C17.8125 21.625 17.8125 21.625 18 24 C17.67 23.01 17.34 22.02 17 21 C16.01 21 15.02 21 14 21 C14.99 22.98 14.99 22.98 16 25 C15.01 24.67 14.02 24.34 13 24 C13 23.01 13 22.02 13 21 C12.34 21 11.68 21 11 21 C11.99 24.3 12.98 27.6 14 31 C14.66 31 15.32 31 16 31 C16.33 30.01 16.66 29.02 17 28 C17.66 28 18.32 28 19 28 C18.34 29.98 17.68 31.96 17 34 C18.093125 33.814375 19.18625 33.62875 20.3125 33.4375 C24 33 24 33 27 34 C26.649375 33.154375 26.29875 32.30875 25.9375 31.4375 C24.87722491 27.549824669 25.216851277 24.915743614 26 21 C26.99 21.99 26.99 21.99 28 23 C28.99 23 29.98 23 31 23 C30.01 24.485 30.01 24.485 29 26 C28.34 26 27.68 26 27 26 C27.99 28.475 27.99 28.475 29 31 C30.883917854 27.734542387 31.492879674 24.718882389 32 21 C30.68 20.67 29.36 20.34 28 20 C29 19 29 19 31.5625 18.9375 C32.7690625 18.9684375 32.7690625 18.9684375 34 19 C33.108093809 34.34693757 28.427799364 48.046701773 23.140136719 62.321289062 C17.449969713 77.332194741 17.449969713 77.332194741 19 93 C19.153620373 94.977151101 19.274172242 96.956954757 19.375 98.9375 C19.93496772 110.058502013 19.93496772 110.058502013 24.53125 119.859375 C26.304277821 121.414581144 26.304277821 121.414581144 29 123 C28.67 123.99 28.34 124.98 28 126 C26.7625 125.9175 25.525 125.835 24.25 125.75 C23.55390625 125.70359375 22.8578125 125.6571875 22.140625 125.609375 C19.089214075 124.740725175 17.920328124 123.519404846 16 121 C15.09375 117.6796875 15.09375 117.6796875 14.5 113.875 C13.559178608 108.362385045 12.164111269 103.48379772 9.91796875 98.36328125 C8.367269969 94.371056729 7.681573018 90.214991032 7 86 C2.913913054 93.348089131 2.792580569 102.256542335 2.625 110.5 C2.586086426 111.523354492 2.586086426 111.523354492 2.546386719 112.567382812 C2.533357132 116.061049366 2.6999268 117.657387687 5.0390625 120.328125 C5.686171875 120.87984375 6.33328125 121.4315625 7 122 C6.75 124.25 6.75 124.25 6 126 C2.75 126.375 2.75 126.375 -1 126 C-3.5 123.5 -3.5 123.5 -5 120 C-4.75 116.1875 -4.75 116.1875 -4.3671875 114.15625 C-3.966331913 111.802289533 -3.882748894 109.574159324 -3.875 107.1875 C-3.872421875 106.459179688 -3.86984375 105.730859375 -3.8671875 104.98046875 C-3.930650805 102.787977796 -3.930650805 102.787977796 -5 100 C-5.14715199 98.374329209 -5.247218667 96.744131429 -5.31640625 95.11328125 C-5.358300781 94.175488281 -5.400195312 93.237695312 -5.443359375 92.271484375 C-5.482675781 91.295019531 -5.521992188 90.318554688 -5.5625 89.3125 C-5.605683594 88.324433594 -5.648867188 87.336367188 -5.693359375 86.318359375 C-5.799416542 83.87904454 -5.901477136 81.439628866 -6 79 C-6.611257324 79.208586426 -7.222514648 79.417172852 -7.852294922 79.632080078 C-8.657717285 79.904313965 -9.463139648 80.176547852 -10.29296875 80.45703125 C-11.089851074 80.727492676 -11.886733398 80.997954102 -12.707763672 81.276611328 C-25.691594967 85.374075608 -38.202981804 83.068494951 -50 77 C-50.447304687 77.785039063 -50.894609375 78.570078125 -51.35546875 79.37890625 C-56.885639911 88.988905176 -56.885639911 88.988905176 -59.9375 92.8125 C-62.459283965 96.709802491 -62.359541524 98.415845572 -62 103 C-61.316828866 105.681285015 -60.360726083 108.192225841 -59.3125 110.75 C-59.068222656 111.408710938 -58.823945313 112.067421875 -58.572265625 112.74609375 C-56.831796256 117.090657794 -55.210186594 119.010935467 -51 121 C-49.515 121.99 -49.515 121.99 -48 123 C-48 123.66 -48 124.32 -48 125 C-52.455 125.495 -52.455 125.495 -57 126 C-57.33 125.01 -57.66 124.02 -58 123 C-58.638649902 122.85651123 -59.277299805 122.713022461 -59.935302734 122.565185547 C-62 122 -62 122 -63.140869141 120.237548828 C-63.435983887 119.484978027 -63.731098633 118.732407227 -64.03515625 117.95703125 C-64.369667969 117.130097656 -64.704179688 116.303164063 -65.048828125 115.451171875 C-65.383339844 114.580410156 -65.717851563 113.709648437 -66.0625 112.8125 C-66.739127136 111.109977245 -67.417476718 109.408137895 -68.09765625 107.70703125 C-68.417182617 106.895646973 -68.736708984 106.084262695 -69.065917969 105.248291016 C-69.868856854 103.315655314 -70.80376724 101.438802434 -71.76171875 99.578125 C-73.359581419 96.25134468 -72.900117918 94.525461846 -72 91 C-71.660608305 89.334556466 -71.32629808 87.668058288 -71 86 C-73.271596891 87.290339053 -75.542296255 88.582214025 -77.8125 89.875 C-78.776396484 90.422207031 -78.776396484 90.422207031 -79.759765625 90.98046875 C-85.989924018 94.531336228 -88.533331969 96.485544517 -90.6875 103.3125 C-90.912441406 103.977011719 -91.137382812 104.641523437 -91.369140625 105.326171875 C-92.551341255 108.959013324 -93.471677004 112.179416271 -93 116 C-91.675940115 118.00615134 -90.343316542 120.006691583 -89 122 C-89.495 123.485 -89.495 123.485 -90 125 C-92.31 125 -94.62 125 -97 125 C-97.54506872 123.697378143 -98.059530592 122.381948895 -98.5625 121.0625 C-98.997558594 119.966152344 -98.997558594 119.966152344 -99.44140625 118.84765625 C-100.792582108 111.95949401 -98.66650865 104.467321643 -97.25 97.6875 C-97.105625 96.903105469 -96.96125 96.118710937 -96.8125 95.310546875 C-95.983910532 91.378087987 -95.477606018 89.463292904 -92.5234375 86.59765625 C-91.690703125 86.070429687 -90.85796875 85.543203125 -90 85 C-85.617898642 81.243913121 -83.245863518 77.601321347 -82 72 C-81.954393615 70.000520053 -81.945965677 67.99926994 -82 66 C-82.363515625 66.785039063 -82.72703125 67.570078125 -83.1015625 68.37890625 C-87.99056641 78.595670831 -93.009831338 86.519934711 -103.9375 90.75 C-111.765309573 93.022589876 -119.163969685 93.04140146 -126.40625 89.16796875 C-128 88 -128 88 -130 85 C-130 84.01 -130 83.02 -130 82 C-127.057878601 82.452634061 -125.773869765 83.177673756 -123.375 85.0625 C-118.77528142 87.703079185 -115.190691118 87.91198087 -110 87 C-107.239751775 85.906832386 -104.714121173 84.647923807 -102.12890625 83.19140625 C-100 82 -100 82 -97 81 C-95.936458401 79.156916981 -95.936458401 79.156916981 -95 77 C-94.068521754 75.630208834 -93.120758954 74.271401586 -92.16015625 72.921875 C-88.263706986 67.146379338 -85.877139529 60.922497259 -83.345703125 54.46484375 C-79.306710447 44.550300446 -73.358523157 40.269007632 -63.79296875 36.01953125 C-54.406426782 32.613511762 -43.603386041 33.399536776 -33.8125 34.5 C-22.12133127 35.810046072 -13.639924657 35.129440262 -3 30 C-0.329354592 28.970613764 2.351069185 27.975175346 5.0390625 26.9921875 C7.333022203 26.03345833 7.333022203 26.03345833 9 23 C9.543988169 18.927437537 9.543988169 18.927437537 9 15 C6.24045872 12.66030012 6.24045872 12.66030012 3 11 C0.192525725 8.286108201 0.012764321 7.255286429 -0.1875 3.25 C-0.125625 2.1775 -0.06375 1.105 0 0 Z " fill="#ADAA9D" transform="translate(182,54)" />
<path d="M0 0 C0.99 0.495 0.99 0.495 2 1 C1.312929688 1.9178125 0.625859375 2.835625 -0.08203125 3.78125 C-0.992674378 5.020475699 -1.902803192 6.260079455 -2.8125 7.5 C-3.490224609 8.401054687 -3.490224609 8.401054687 -4.181640625 9.3203125 C-6.954449259 13.125334567 -8.718912364 16.655477645 -10.241943359 21.098144531 C-11.459538595 24.152916476 -13.398067188 26.579702963 -15.375 29.1875 C-19.931419622 35.407536138 -22.604546575 41.645115363 -25 49 C-26.32 49 -27.64 49 -29 49 C-28.855625 48.289726562 -28.71125 47.579453125 -28.5625 46.84765625 C-28.2840625 45.469003906 -28.2840625 45.469003906 -28 44.0625 C-27.814375 43.145976563 -27.62875 42.229453125 -27.4375 41.28515625 C-26.968660365 39.224082984 -26.968660365 39.224082984 -27 38 C-27.99 41.3 -28.98 44.6 -30 48 C-30.99 48 -31.98 48 -33 48 C-32.835 47.195625 -32.67 46.39125 -32.5 45.5625 C-31.968081607 43.271555705 -31.968081607 43.271555705 -32 42 C-32.433125 42.825 -32.86625 43.65 -33.3125 44.5 C-33.869375 45.325 -34.42625 46.15 -35 47 C-35.99 47 -36.98 47 -38 47 C-38 46.01 -38 45.02 -38 44 C-38.495 44.99 -38.495 44.99 -39 46 C-46.571428571 44.142857143 -46.571428571 44.142857143 -49 41 C-50.7370806 42.158053734 -52.473262387 43.317462734 -54.20703125 44.48046875 C-62.983259317 50.230411277 -72.188042858 55.233237427 -82 59 C-80.063188692 53.773529284 -77.304763326 49.089676792 -74.55859375 44.25390625 C-73.011650535 41.024323046 -72.582487322 38.499404603 -72 35 C-70.87266096 32.474976826 -69.722851184 30.063349374 -68.4375 27.625 C-68.108144531 26.984335937 -67.778789062 26.343671875 -67.439453125 25.68359375 C-66.633605176 24.118613675 -65.817815066 22.558759786 -65 21 C-64.34 21 -63.68 21 -63 21 C-63 20.34 -63 19.68 -63 19 C-64.447542553 17.552457447 -66.039629126 17.442664391 -68 17 C-68.413789063 18.073144531 -68.413789063 18.073144531 -68.8359375 19.16796875 C-69.982485225 21.95738855 -71.262271148 24.622903582 -72.625 27.3125 C-73.071015625 28.195507812 -73.51703125 29.078515625 -73.9765625 29.98828125 C-74.483164062 30.984082031 -74.483164062 30.984082031 -75 32 C-75.33 32 -75.66 32 -76 32 C-76.610169492 19.627118644 -76.610169492 19.627118644 -74.6875 14.5 C-70.676707024 10.76902979 -66.134029958 7.940361322 -61 6 C-60.3090625 6.174023437 -59.618125 6.348046875 -58.90625 6.52734375 C-58.2771875 6.683320313 -57.648125 6.839296875 -57 7 C-56.390273437 6.53078125 -55.780546875 6.0615625 -55.15234375 5.578125 C-52.208082807 3.419356541 -50.172354419 3.666535158 -46.5625 3.75 C-45.450039062 3.76546875 -44.337578125 3.7809375 -43.19140625 3.796875 C-40.357819994 3.977225655 -37.766727596 4.394930826 -35 5 C-34.34 5 -33.68 5 -33 5 C-32.33081543 5.015710449 -31.661630859 5.031420898 -30.972167969 5.047607422 C-28.273217546 5.110577618 -25.574405073 5.148989466 -22.875 5.1875 C-21.949453125 5.212636719 -21.02390625 5.237773437 -20.0703125 5.263671875 C-13.979670594 5.328191387 -9.551280223 4.544870957 -4 2 C-3.67 1.67 -3.34 1.34 -3 1 C-2.01 0.67 -1.02 0.34 0 0 Z " fill="#C4C0B5" transform="translate(179,86)" />
<path d="M0 0 C1.98 0.495 1.98 0.495 4 1 C3.01 1.33 2.02 1.66 1 2 C2.525559663 6.811228474 2.525559663 6.811228474 6 10 C5.67 8.68 5.34 7.36 5 6 C6.708402814 7.634124431 7.934530468 8.869060936 9 11 C11.527332351 11.655551192 11.527332351 11.655551192 14 12 C13.67 12.66 13.34 13.32 13 14 C12.34 14 11.68 14 11 14 C11.33 14.99 11.66 15.98 12 17 C12.825 17.28875 13.65 17.5775 14.5 17.875 C15.325 18.24625 16.15 18.6175 17 19 C17.8125 21.625 17.8125 21.625 18 24 C17.67 23.01 17.34 22.02 17 21 C16.01 21 15.02 21 14 21 C14.99 22.98 14.99 22.98 16 25 C15.01 24.67 14.02 24.34 13 24 C13 23.01 13 22.02 13 21 C12.34 21 11.68 21 11 21 C11.99 25.95 11.99 25.95 13 31 C12.01 30.01 12.01 30.01 11 29 C11 28.01 11 27.02 11 26 C8.03 27.98 5.06 29.96 2 32 C2.33 32.99 2.66 33.98 3 35 C3.99 34.34 4.98 33.68 6 33 C4.436326427 36.52238047 2.305041106 39.271239935 -0.125 42.25 C-0.849453125 43.14203125 -1.57390625 44.0340625 -2.3203125 44.953125 C-2.874609375 45.62859375 -3.42890625 46.3040625 -4 47 C-4 43.402395237 -3.104877044 42.778437698 -1 40 C-0.294851538 37.852660734 -0.294851538 37.852660734 0 36 C-4.873059695 40.299758554 -7.8200442 45.372243172 -11 51 C-12.234552961 47.507118451 -12.234552961 47.507118451 -11.195556641 45.260742188 C-10.559283447 44.41237793 -10.559283447 44.41237793 -9.91015625 43.546875 C-9.228564453 42.61875 -9.228564453 42.61875 -8.533203125 41.671875 C-8.047871094 41.03765625 -7.562539062 40.4034375 -7.0625 39.75 C-6.581035156 39.1003125 -6.099570313 38.450625 -5.603515625 37.78125 C-4.413643583 36.179046062 -3.208269717 34.588375656 -2 33 C-2.99 33.66 -3.98 34.32 -5 35 C-6.663214816 35.350150488 -8.330345494 35.68197057 -10 36 C-10.66 36.337734375 -11.32 36.67546875 -12 37.0234375 C-16.51696632 38.493804141 -20.909182292 38.208522657 -25.625 38.125 C-26.57890625 38.115976563 -27.5328125 38.106953125 -28.515625 38.09765625 C-30.280812684 38.080252991 -32.045968136 38.058735434 -33.811035156 38.031738281 C-35.540540673 38.006661802 -37.270312698 38 -39 38 C-40.584505606 37.844873577 -42.167776707 37.67689453 -43.75 37.5 C-52.458805015 36.351239903 -52.458805015 36.351239903 -60 40 C-60.873984375 39.715761719 -60.873984375 39.715761719 -61.765625 39.42578125 C-65.037943342 38.802210097 -66.688960007 40.037711242 -69.5625 41.625 C-70.512539062 42.132890625 -71.462578125 42.64078125 -72.44140625 43.1640625 C-75.342158936 45.245518626 -76.574337683 46.735233295 -78 50 C-78.360123328 53.123537888 -78.360123328 53.123537888 -78.1875 56.3125 C-78.125625 58.189375 -78.06375 60.06625 -78 62 C-74.535 55.565 -74.535 55.565 -71 49 C-68.69 49 -66.38 49 -64 49 C-64 49.66 -64 50.32 -64 51 C-64.66 51 -65.32 51 -66 51 C-66 51.66 -66 52.32 -66 53 C-66.66 53 -67.32 53 -68 53 C-68.226875 53.78375 -68.45375 54.5675 -68.6875 55.375 C-70.109309624 59.30190277 -71.919218608 62.854199938 -73.87890625 66.53515625 C-75.083693899 68.920864518 -75.083693899 68.920864518 -75.4375 71.36328125 C-76.193772906 74.908310495 -77.786218055 77.930055299 -79.4375 81.125 C-79.750097656 81.745039062 -80.062695312 82.365078125 -80.384765625 83.00390625 C-81.799816254 85.786141101 -83.266342897 88.399514346 -85 91 C-84.382539063 90.61328125 -83.765078125 90.2265625 -83.12890625 89.828125 C-79.027709293 87.306232199 -75.015162403 84.909709584 -70.5625 83.0625 C-63.491380063 80.067968781 -57.077032359 75.660474699 -51 71 C-49.77734375 73.1015625 -49.77734375 73.1015625 -49 76 C-50.37890625 79.0859375 -50.37890625 79.0859375 -52.5625 82.375 C-52.934394531 82.950083008 -53.306289063 83.525166016 -53.689453125 84.117675781 C-55.665293725 87.143930773 -57.771395486 90.032721779 -60 92.875 C-62.464237457 96.725371026 -62.349523892 98.479490993 -62 103 C-61.317228392 105.681393184 -60.36072423 108.192230364 -59.3125 110.75 C-59.068222656 111.408710938 -58.823945313 112.067421875 -58.572265625 112.74609375 C-56.831796256 117.090657794 -55.210186594 119.010935467 -51 121 C-49.515 121.99 -49.515 121.99 -48 123 C-48 123.66 -48 124.32 -48 125 C-52.455 125.495 -52.455 125.495 -57 126 C-57.33 125.01 -57.66 124.02 -58 123 C-58.638649902 122.85651123 -59.277299805 122.713022461 -59.935302734 122.565185547 C-62 122 -62 122 -63.140869141 120.237548828 C-63.435983887 119.484978027 -63.731098633 118.732407227 -64.03515625 117.95703125 C-64.369667969 117.130097656 -64.704179688 116.303164063 -65.048828125 115.451171875 C-65.383339844 114.580410156 -65.717851563 113.709648437 -66.0625 112.8125 C-66.739127136 111.109977245 -67.417476718 109.408137895 -68.09765625 107.70703125 C-68.417182617 106.895646973 -68.736708984 106.084262695 -69.065917969 105.248291016 C-69.868856854 103.315655314 -70.80376724 101.438802434 -71.76171875 99.578125 C-73.359581419 96.25134468 -72.900117918 94.525461846 -72 91 C-71.660608305 89.334556466 -71.32629808 87.668058288 -71 86 C-73.271596891 87.290339053 -75.542296255 88.582214025 -77.8125 89.875 C-78.776396484 90.422207031 -78.776396484 90.422207031 -79.759765625 90.98046875 C-85.989924018 94.531336228 -88.533331969 96.485544517 -90.6875 103.3125 C-90.912441406 103.977011719 -91.137382812 104.641523437 -91.369140625 105.326171875 C-92.551341255 108.959013324 -93.471677004 112.179416271 -93 116 C-91.675940115 118.00615134 -90.343316542 120.006691583 -89 122 C-89.495 123.485 -89.495 123.485 -90 125 C-92.31 125 -94.62 125 -97 125 C-97.54506872 123.697378143 -98.059530592 122.381948895 -98.5625 121.0625 C-98.997558594 119.966152344 -98.997558594 119.966152344 -99.44140625 118.84765625 C-100.792582108 111.95949401 -98.66650865 104.467321643 -97.25 97.6875 C-97.105625 96.903105469 -96.96125 96.118710937 -96.8125 95.310546875 C-95.983910532 91.378087987 -95.477606018 89.463292904 -92.5234375 86.59765625 C-91.690703125 86.070429687 -90.85796875 85.543203125 -90 85 C-85.617898642 81.243913121 -83.245863518 77.601321347 -82 72 C-81.954393615 70.000520053 -81.945965677 67.99926994 -82 66 C-82.363515625 66.785039063 -82.72703125 67.570078125 -83.1015625 68.37890625 C-87.99056641 78.595670831 -93.009831338 86.519934711 -103.9375 90.75 C-111.765309573 93.022589876 -119.163969685 93.04140146 -126.40625 89.16796875 C-128 88 -128 88 -130 85 C-130 84.01 -130 83.02 -130 82 C-127.057878601 82.452634061 -125.773869765 83.177673756 -123.375 85.0625 C-118.77528142 87.703079185 -115.190691118 87.91198087 -110 87 C-107.239751775 85.906832386 -104.714121173 84.647923807 -102.12890625 83.19140625 C-100 82 -100 82 -97 81 C-95.936458401 79.156916981 -95.936458401 79.156916981 -95 77 C-94.068521754 75.630208834 -93.120758954 74.271401586 -92.16015625 72.921875 C-88.263706986 67.146379338 -85.877139529 60.922497259 -83.345703125 54.46484375 C-79.306710447 44.550300446 -73.358523157 40.269007632 -63.79296875 36.01953125 C-54.406426782 32.613511762 -43.603386041 33.399536776 -33.8125 34.5 C-22.12133127 35.810046072 -13.639924657 35.129440262 -3 30 C-0.329354592 28.970613764 2.351069185 27.975175346 5.0390625 26.9921875 C7.333022203 26.03345833 7.333022203 26.03345833 9 23 C9.543988169 18.927437537 9.543988169 18.927437537 9 15 C6.24045872 12.66030012 6.24045872 12.66030012 3 11 C0.192525725 8.286108201 0.012764321 7.255286429 -0.1875 3.25 C-0.125625 2.1775 -0.06375 1.105 0 0 Z " fill="#A19E91" transform="translate(182,54)" />
<path d="M0 0 C0.66 0.33 1.32 0.66 2 1 C1.312929688 1.9178125 0.625859375 2.835625 -0.08203125 3.78125 C-0.992674378 5.020475699 -1.902803192 6.260079455 -2.8125 7.5 C-3.264316406 8.100703125 -3.716132813 8.70140625 -4.181640625 9.3203125 C-6.954449259 13.125334567 -8.718912364 16.655477645 -10.241943359 21.098144531 C-11.459538595 24.152916476 -13.398067188 26.579702963 -15.375 29.1875 C-19.931419622 35.407536138 -22.604546575 41.645115363 -25 49 C-26.32 49 -27.64 49 -29 49 C-28.855625 48.289726562 -28.71125 47.579453125 -28.5625 46.84765625 C-28.2840625 45.469003906 -28.2840625 45.469003906 -28 44.0625 C-27.814375 43.145976563 -27.62875 42.229453125 -27.4375 41.28515625 C-26.968660365 39.224082984 -26.968660365 39.224082984 -27 38 C-27.99 41.3 -28.98 44.6 -30 48 C-30.99 48 -31.98 48 -33 48 C-32.835 47.195625 -32.67 46.39125 -32.5 45.5625 C-31.968081607 43.271555705 -31.968081607 43.271555705 -32 42 C-32.433125 42.825 -32.86625 43.65 -33.3125 44.5 C-33.869375 45.325 -34.42625 46.15 -35 47 C-35.99 47 -36.98 47 -38 47 C-38 46.01 -38 45.02 -38 44 C-38.33 44.66 -38.66 45.32 -39 46 C-46.571428571 44.142857143 -46.571428571 44.142857143 -49 41 C-49.99 41.66 -50.98 42.32 -52 43 C-53.393250658 43.879106534 -54.789208721 44.753933302 -56.1875 45.625 C-57.260644531 46.294023438 -57.260644531 46.294023438 -58.35546875 46.9765625 C-58.898164063 47.314296875 -59.440859375 47.65203125 -60 48 C-61 46 -61 46 -60.5 43 C-60.005 42.01 -59.51 41.02 -59 40 C-57.362246094 39.603613281 -57.362246094 39.603613281 -55.69140625 39.19921875 C-51.22909145 37.749556693 -49.752183208 35.650425292 -47.4375 31.8125 C-46.673330733 30.631024194 -45.906414663 29.451320325 -45.13671875 28.2734375 C-44.079042969 26.653085938 -44.079042969 26.653085938 -43 25 C-39.791753449 20.785102725 -36.418248379 16.985302959 -32 14 C-31.01 14 -30.02 14 -29 14 C-28.7525 13.38125 -28.505 12.7625 -28.25 12.125 C-26.793713607 9.649313132 -25.621874938 9.048749975 -23 8 C-23.884233073 12.224669128 -24.973243398 14.271384887 -28.5 16.625 C-29.120039062 17.023320313 -29.740078125 17.421640625 -30.37890625 17.83203125 C-32.366545707 19.264089558 -33.228493579 20.685480738 -34 23 C-32.02 22.34 -30.04 21.68 -28 21 C-28 21.99 -28 22.98 -28 24 C-26.874839152 22.167155569 -26.874839152 22.167155569 -26 20 C-26.495 18.515 -26.495 18.515 -27 17 C-25.0625 13.8125 -25.0625 13.8125 -23 11 C-22.505 12.98 -22.505 12.98 -22 15 C-21.416054688 14.220761719 -21.416054688 14.220761719 -20.8203125 13.42578125 C-16.324767088 7.821887084 -11.727003424 4.557983021 -5 2 C-4.34 2 -3.68 2 -3 2 C-2.01 1.34 -1.02 0.68 0 0 Z " fill="#DCD9CD" transform="translate(179,86)" />
<path d="M0 0 C1.2065625 0.0309375 1.2065625 0.0309375 2.4375 0.0625 C1.545593809 15.40943757 -3.134700636 29.109201773 -8.422363281 43.383789062 C-14.112530287 58.394694741 -14.112530287 58.394694741 -12.5625 74.0625 C-12.408879627 76.039651101 -12.288327758 78.019454757 -12.1875 80 C-11.62753228 91.121002013 -11.62753228 91.121002013 -7.03125 100.921875 C-5.258222179 102.477081144 -5.258222179 102.477081144 -2.5625 104.0625 C-3.0575 105.5475 -3.0575 105.5475 -3.5625 107.0625 C-4.8 106.98 -6.0375 106.8975 -7.3125 106.8125 C-8.00859375 106.76609375 -8.7046875 106.7196875 -9.421875 106.671875 C-12.473285925 105.803225175 -13.642171876 104.581904846 -15.5625 102.0625 C-16.46875 98.7421875 -16.46875 98.7421875 -17.0625 94.9375 C-18.003321392 89.424885045 -19.398388731 84.54629772 -21.64453125 79.42578125 C-23.195230031 75.433556729 -23.880926982 71.277491032 -24.5625 67.0625 C-28.648586946 74.410589131 -28.769919431 83.319042335 -28.9375 91.5625 C-28.963442383 92.244736328 -28.989384766 92.926972656 -29.016113281 93.629882812 C-29.029142868 97.123549366 -28.8625732 98.719887687 -26.5234375 101.390625 C-25.876328125 101.94234375 -25.22921875 102.4940625 -24.5625 103.0625 C-24.8125 105.3125 -24.8125 105.3125 -25.5625 107.0625 C-28.8125 107.4375 -28.8125 107.4375 -32.5625 107.0625 C-35.0625 104.5625 -35.0625 104.5625 -36.5625 101.0625 C-36.3125 97.25 -36.3125 97.25 -35.9296875 95.21875 C-35.528831913 92.864789533 -35.445248894 90.636659324 -35.4375 88.25 C-35.434921875 87.521679688 -35.43234375 86.793359375 -35.4296875 86.04296875 C-35.493150805 83.850477796 -35.493150805 83.850477796 -36.5625 81.0625 C-36.70965199 79.436829209 -36.809718667 77.806631429 -36.87890625 76.17578125 C-36.920800781 75.237988281 -36.962695312 74.300195312 -37.005859375 73.333984375 C-37.045175781 72.357519531 -37.084492187 71.381054688 -37.125 70.375 C-37.189775391 68.892900391 -37.189775391 68.892900391 -37.255859375 67.380859375 C-37.361916542 64.94154454 -37.463977136 62.502128866 -37.5625 60.0625 C-38.5525 59.7325 -39.5425 59.4025 -40.5625 59.0625 C-40.253125 58.530117187 -39.94375 57.997734375 -39.625 57.44921875 C-37.943557644 53.672155223 -37.676409019 49.716096059 -37.125 45.64453125 C-36.8465625 44.366425781 -36.8465625 44.366425781 -36.5625 43.0625 C-35.5725 42.5675 -35.5725 42.5675 -34.5625 42.0625 C-34.723632812 42.766328125 -34.884765625 43.47015625 -35.05078125 44.1953125 C-36.377484718 51.628902923 -36.079132703 58.956713544 -33.5625 66.0625 C-32.512144823 69.843778638 -32.512977127 72.699596388 -33.05078125 76.640625 C-33.661986141 81.370160902 -33.746260584 86.048484043 -33.75 90.8125 C-33.762246094 91.649101562 -33.774492187 92.485703125 -33.787109375 93.34765625 C-33.789042969 94.155898438 -33.790976562 94.964140625 -33.79296875 95.796875 C-33.797077637 96.521005859 -33.801186523 97.245136719 -33.805419922 97.991210938 C-33.519918042 100.425580735 -32.890496256 102.006065789 -31.5625 104.0625 C-29.007300786 104.874212283 -29.007300786 104.874212283 -26.5625 105.0625 C-27.3875 104.250390625 -28.2125 103.43828125 -29.0625 102.6015625 C-31.793369598 99.301761736 -32.059124038 96.989011113 -31.799560547 92.794189453 C-31.682215576 91.627628174 -31.682215576 91.627628174 -31.5625 90.4375 C-31.497805176 89.617897949 -31.433110352 88.798295898 -31.366455078 87.953857422 C-31.139241548 85.317530576 -30.859965311 82.691786785 -30.5625 80.0625 C-30.463725586 79.169018555 -30.364951172 78.275537109 -30.263183594 77.354980469 C-29.95364625 74.690456059 -29.611116498 72.032996984 -29.25 69.375 C-29.144941406 68.562729492 -29.039882812 67.750458984 -28.931640625 66.913574219 C-27.700222404 58.773092288 -24.847792608 52.541985863 -18.5625 47.0625 C-17.5725 46.4025 -16.5825 45.7425 -15.5625 45.0625 C-17.230011483 49.003890778 -19.78960649 51.851781199 -22.5625 55.0625 C-21.269349387 54.106170012 -19.978031473 53.147361487 -18.6875 52.1875 C-17.968203125 51.653828125 -17.24890625 51.12015625 -16.5078125 50.5703125 C-13.432313211 48.186491766 -12.177983813 46.435235612 -10.90625 42.80859375 C-10.605898438 41.953300781 -10.305546875 41.098007813 -9.99609375 40.216796875 C-9.533964844 38.871982422 -9.533964844 38.871982422 -9.0625 37.5 C-8.754414062 36.630527344 -8.446328125 35.761054688 -8.12890625 34.865234375 C-6.199410093 29.312757238 -4.732197331 23.823259357 -3.5625 18.0625 C-5.5425 19.0525 -5.5425 19.0525 -7.5625 20.0625 C-7.5625 19.4025 -7.5625 18.7425 -7.5625 18.0625 C-8.820625 17.959375 -10.07875 17.85625 -11.375 17.75 C-14.167496566 17.413911918 -15.306831208 17.262241243 -17.5625 15.5 C-17.8925 15.025625 -18.2225 14.55125 -18.5625 14.0625 C-18.2325 13.4025 -17.9025 12.7425 -17.5625 12.0625 C-16.9025 12.0625 -16.2425 12.0625 -15.5625 12.0625 C-15.2325 11.0725 -14.9025 10.0825 -14.5625 9.0625 C-13.9025 9.0625 -13.2425 9.0625 -12.5625 9.0625 C-13.2225 11.0425 -13.8825 13.0225 -14.5625 15.0625 C-13.469375 14.876875 -12.37625 14.69125 -11.25 14.5 C-7.5625 14.0625 -7.5625 14.0625 -4.5625 15.0625 C-4.913125 14.216875 -5.26375 13.37125 -5.625 12.5 C-6.68527509 8.612324669 -6.345648723 5.978243614 -5.5625 2.0625 C-4.9025 2.7225 -4.2425 3.3825 -3.5625 4.0625 C-2.5725 4.0625 -1.5825 4.0625 -0.5625 4.0625 C-1.2225 5.0525 -1.8825 6.0425 -2.5625 7.0625 C-3.2225 7.0625 -3.8825 7.0625 -4.5625 7.0625 C-3.9025 8.7125 -3.2425 10.3625 -2.5625 12.0625 C-0.678582146 8.797042387 -0.069620326 5.781382389 0.4375 2.0625 C-0.8825 1.7325 -2.2025 1.4025 -3.5625 1.0625 C-2.5625 0.0625 -2.5625 0.0625 0 0 Z " fill="#DCD9CF" transform="translate(213.5625,72.9375)" />
<path d="M0 0 C0 3.112501914 -0.368634362 3.996840074 -1.8125 6.625 C-4.064848399 10.937325404 -5.581049009 15.356160393 -7 20 C-7.66 20 -8.32 20 -9 20 C-8.994763184 20.706083984 -8.989526367 21.412167969 -8.984130859 22.139648438 C-8.963325871 25.343089884 -8.950328593 28.546517097 -8.9375 31.75 C-8.929121094 32.861171875 -8.920742187 33.97234375 -8.912109375 35.1171875 C-8.908886719 36.187109375 -8.905664062 37.25703125 -8.90234375 38.359375 C-8.897106934 39.343896484 -8.891870117 40.328417969 -8.886474609 41.342773438 C-8.988408971 43.728695142 -9.316966431 45.721645813 -10 48 C-10.66 48 -11.32 48 -12 48 C-12.904136732 44.162758279 -13.105768981 40.624977258 -13.0625 36.6875 C-13.053476563 35.618867188 -13.044453125 34.550234375 -13.03515625 33.44921875 C-13.023554687 32.640976563 -13.011953125 31.832734375 -13 31 C-13.132773437 31.759257812 -13.265546875 32.518515625 -13.40234375 33.30078125 C-13.578945312 34.294648438 -13.755546875 35.288515625 -13.9375 36.3125 C-14.111523438 37.298632813 -14.285546875 38.284765625 -14.46484375 39.30078125 C-15 42 -15 42 -16 45 C-27.520848904 48.993675155 -40.666474708 49.951942495 -52 45 C-55.125 42.8125 -55.125 42.8125 -57 41 C-52.25 41.875 -52.25 41.875 -50 43 C-49.34 41.68 -48.68 40.36 -48 39 C-48.495 41.475 -48.495 41.475 -49 44 C-45.884030877 43.33372488 -45.884030877 43.33372488 -44.83203125 40.93359375 C-44.495585938 40.109882812 -44.159140625 39.286171875 -43.8125 38.4375 C-43.468320312 37.611210938 -43.124140625 36.784921875 -42.76953125 35.93359375 C-42.515585937 35.295507813 -42.261640625 34.657421875 -42 34 C-40.863560343 37.409318971 -41.132522361 38.00335456 -42.4375 41.1875 C-42.724960937 41.902929688 -43.012421875 42.618359375 -43.30859375 43.35546875 C-43.536757813 43.898164063 -43.764921875 44.440859375 -44 45 C-43.01 45 -42.02 45 -41 45 C-40.878828125 44.347734375 -40.75765625 43.69546875 -40.6328125 43.0234375 C-39.710560111 38.213536578 -38.698327234 33.609745348 -37 29 C-35.709349434 32.871951699 -36.776759015 35.442326013 -37.9375 39.1875 C-38.132792969 39.841699219 -38.328085937 40.495898437 -38.529296875 41.169921875 C-39.011825634 42.782274068 -39.504902053 44.391462894 -40 46 C-38.68 46 -37.36 46 -36 46 C-35.864648437 45.333554687 -35.729296875 44.667109375 -35.58984375 43.98046875 C-33.772729332 36.200607619 -30.481791941 30.540461206 -26 24 C-25.055619531 22.441648939 -24.117279647 20.879606349 -23.1875 19.3125 C-22.465625 18.219375 -21.74375 17.12625 -21 16 C-20.34 16 -19.68 16 -19 16 C-18.7215625 14.7934375 -18.7215625 14.7934375 -18.4375 13.5625 C-16.490560081 8.737474983 -13.566518911 4.785220542 -10 1 C-9.34 1 -8.68 1 -8 1 C-8.557289126 4.343734754 -9.351738886 7.033129995 -11 10 C-9.948125 8.63875 -9.948125 8.63875 -8.875 7.25 C-6.25361695 4.080304736 -3.507475092 2.120798893 0 0 Z " fill="#C3C1B2" transform="translate(190,89)" />
<path d="M0 0 C1.98 0.495 1.98 0.495 4 1 C3.01 1.33 2.02 1.66 1 2 C2.525559663 6.811228474 2.525559663 6.811228474 6 10 C5.67 8.68 5.34 7.36 5 6 C6.708402814 7.634124431 7.934530468 8.869060936 9 11 C11.527332351 11.655551192 11.527332351 11.655551192 14 12 C13.67 12.66 13.34 13.32 13 14 C12.34 14 11.68 14 11 14 C11.33 14.99 11.66 15.98 12 17 C12.825 17.28875 13.65 17.5775 14.5 17.875 C15.325 18.24625 16.15 18.6175 17 19 C17.8125 21.625 17.8125 21.625 18 24 C17.67 23.01 17.34 22.02 17 21 C16.01 21 15.02 21 14 21 C14.99 22.98 14.99 22.98 16 25 C15.01 24.67 14.02 24.34 13 24 C13 23.01 13 22.02 13 21 C12.34 21 11.68 21 11 21 C11.99 25.95 11.99 25.95 13 31 C12.01 30.01 12.01 30.01 11 29 C11 28.01 11 27.02 11 26 C8.03 27.98 5.06 29.96 2 32 C2.33 32.99 2.66 33.98 3 35 C3.99 34.34 4.98 33.68 6 33 C4.436326427 36.52238047 2.305041106 39.271239935 -0.125 42.25 C-0.849453125 43.14203125 -1.57390625 44.0340625 -2.3203125 44.953125 C-2.874609375 45.62859375 -3.42890625 46.3040625 -4 47 C-4 43.402395237 -3.104877044 42.778437698 -1 40 C-0.294851538 37.852660734 -0.294851538 37.852660734 0 36 C-4.873059695 40.299758554 -7.8200442 45.372243172 -11 51 C-12.234552961 47.507118451 -12.234552961 47.507118451 -11.195556641 45.260742188 C-10.559283447 44.41237793 -10.559283447 44.41237793 -9.91015625 43.546875 C-9.228564453 42.61875 -9.228564453 42.61875 -8.533203125 41.671875 C-8.047871094 41.03765625 -7.562539062 40.4034375 -7.0625 39.75 C-6.581035156 39.1003125 -6.099570313 38.450625 -5.603515625 37.78125 C-4.413643583 36.179046062 -3.208269717 34.588375656 -2 33 C-2.99 33.66 -3.98 34.32 -5 35 C-6.663214816 35.350150488 -8.330345494 35.68197057 -10 36 C-10.66 36.337734375 -11.32 36.67546875 -12 37.0234375 C-16.51696632 38.493804141 -20.909182292 38.208522657 -25.625 38.125 C-26.57890625 38.115976563 -27.5328125 38.106953125 -28.515625 38.09765625 C-30.280812684 38.080252991 -32.045968136 38.058735434 -33.811035156 38.031738281 C-35.540540673 38.006661802 -37.270312698 38 -39 38 C-40.584505606 37.844873577 -42.167776707 37.67689453 -43.75 37.5 C-52.458805015 36.351239903 -52.458805015 36.351239903 -60 40 C-60.873984375 39.715761719 -60.873984375 39.715761719 -61.765625 39.42578125 C-65.037943342 38.802210097 -66.688960007 40.037711242 -69.5625 41.625 C-70.512539062 42.132890625 -71.462578125 42.64078125 -72.44140625 43.1640625 C-76.181206763 45.847583479 -77.6138827 48.41431603 -78.6953125 52.85546875 C-79.036689016 56.378649463 -78.985200787 59.775054745 -78.875 63.3125 C-78.823709611 72.023317655 -79.907534643 78.487364618 -86 85 C-86.99 84.505 -86.99 84.505 -88 84 C-87.475996094 83.307773438 -87.475996094 83.307773438 -86.94140625 82.6015625 C-83.130786727 77.139314686 -82.149053937 72.612574679 -82 66 C-82.363515625 66.785039063 -82.72703125 67.570078125 -83.1015625 68.37890625 C-87.99056641 78.595670831 -93.009831338 86.519934711 -103.9375 90.75 C-111.765309573 93.022589876 -119.163969685 93.04140146 -126.40625 89.16796875 C-128 88 -128 88 -130 85 C-130 84.01 -130 83.02 -130 82 C-127.057878601 82.452634061 -125.773869765 83.177673756 -123.375 85.0625 C-118.77528142 87.703079185 -115.190691118 87.91198087 -110 87 C-107.239751775 85.906832386 -104.714121173 84.647923807 -102.12890625 83.19140625 C-100 82 -100 82 -97 81 C-95.936458401 79.156916981 -95.936458401 79.156916981 -95 77 C-94.068521754 75.630208834 -93.120758954 74.271401586 -92.16015625 72.921875 C-88.263706986 67.146379338 -85.877139529 60.922497259 -83.345703125 54.46484375 C-79.306710447 44.550300446 -73.358523157 40.269007632 -63.79296875 36.01953125 C-54.406426782 32.613511762 -43.603386041 33.399536776 -33.8125 34.5 C-22.12133127 35.810046072 -13.639924657 35.129440262 -3 30 C-0.329354592 28.970613764 2.351069185 27.975175346 5.0390625 26.9921875 C7.333022203 26.03345833 7.333022203 26.03345833 9 23 C9.543988169 18.927437537 9.543988169 18.927437537 9 15 C6.24045872 12.66030012 6.24045872 12.66030012 3 11 C0.192525725 8.286108201 0.012764321 7.255286429 -0.1875 3.25 C-0.125625 2.1775 -0.06375 1.105 0 0 Z " fill="#444037" transform="translate(182,54)" />
<path d="M0 0 C1.112460938 0.01546875 2.224921875 0.0309375 3.37109375 0.046875 C6.204680006 0.227225655 8.795772404 0.644930826 11.5625 1.25 C12.2225 1.25 12.8825 1.25 13.5625 1.25 C14.5525 1.58 15.5425 1.91 16.5625 2.25 C13.86018558 5.834319821 11.085712839 8.660821589 7.5625 11.4375 C6.716875 12.111679688 5.87125 12.785859375 5 13.48046875 C2.898945689 15.00575337 0.921154325 16.185329645 -1.4375 17.25 C-1.9325 15.765 -1.9325 15.765 -2.4375 14.25 C-1.1175 13.59 0.2025 12.93 1.5625 12.25 C0.2425 12.25 -1.0775 12.25 -2.4375 12.25 C-2.1075 10.93 -1.7775 9.61 -1.4375 8.25 C-6.3875 14.685 -6.3875 14.685 -11.4375 21.25 C-12.0975 20.59 -12.7575 19.93 -13.4375 19.25 C-12.7775 18.26 -12.1175 17.27 -11.4375 16.25 C-11.919609375 16.8996875 -12.40171875 17.549375 -12.8984375 18.21875 C-13.530078125 19.0540625 -14.16171875 19.889375 -14.8125 20.75 C-15.438984375 21.5853125 -16.06546875 22.420625 -16.7109375 23.28125 C-17.280703125 23.9309375 -17.85046875 24.580625 -18.4375 25.25 C-19.0975 25.25 -19.7575 25.25 -20.4375 25.25 C-20.568903809 25.979206543 -20.700307617 26.708413086 -20.835693359 27.459716797 C-21.396745157 30.061039718 -22.135235202 32.405764994 -23.06640625 34.89453125 C-23.379003906 35.735644531 -23.691601562 36.576757813 -24.013671875 37.443359375 C-24.501904297 38.739833984 -24.501904297 38.739833984 -25 40.0625 C-25.329355469 40.946152344 -25.658710938 41.829804688 -25.998046875 42.740234375 C-26.807846008 44.911434949 -27.621088928 47.081278887 -28.4375 49.25 C-28.089694824 48.394505615 -28.089694824 48.394505615 -27.734863281 47.521728516 C-26.684382076 44.949073269 -25.623596474 42.38079406 -24.5625 39.8125 C-24.015292969 38.465751953 -24.015292969 38.465751953 -23.45703125 37.091796875 C-23.102539062 36.237792969 -22.748046875 35.383789062 -22.3828125 34.50390625 C-22.058129883 33.713146973 -21.733447266 32.922387695 -21.398925781 32.107666016 C-20.4375 30.25 -20.4375 30.25 -18.4375 29.25 C-19.113803824 31.611939871 -19.811431153 33.964562358 -20.53515625 36.3125 C-21.134088488 38.262270747 -21.704771113 40.220955926 -22.24609375 42.1875 C-24.122816958 48.326470137 -25.898351337 51.480982884 -31.6328125 54.54296875 C-33.4375 55.25 -33.4375 55.25 -35.4375 55.25 C-33.500688692 50.023529284 -30.742263326 45.339676792 -27.99609375 40.50390625 C-26.449150535 37.274323046 -26.019987322 34.749404603 -25.4375 31.25 C-24.31016096 28.724976826 -23.160351184 26.313349374 -21.875 23.875 C-21.545644531 23.234335937 -21.216289062 22.593671875 -20.876953125 21.93359375 C-20.071105176 20.368613675 -19.255315066 18.808759786 -18.4375 17.25 C-17.7775 17.25 -17.1175 17.25 -16.4375 17.25 C-16.4375 16.59 -16.4375 15.93 -16.4375 15.25 C-17.885042553 13.802457447 -19.477129126 13.692664391 -21.4375 13.25 C-21.713359375 13.965429688 -21.98921875 14.680859375 -22.2734375 15.41796875 C-23.419985225 18.20738855 -24.699771148 20.872903582 -26.0625 23.5625 C-26.508515625 24.445507812 -26.95453125 25.328515625 -27.4140625 26.23828125 C-27.920664062 27.234082031 -27.920664062 27.234082031 -28.4375 28.25 C-28.7675 28.25 -29.0975 28.25 -29.4375 28.25 C-30.047669492 15.877118644 -30.047669492 15.877118644 -28.125 10.75 C-24.114207024 7.01902979 -19.571529958 4.190361322 -14.4375 2.25 C-13.7465625 2.424023437 -13.055625 2.598046875 -12.34375 2.77734375 C-11.40015625 3.011308594 -11.40015625 3.011308594 -10.4375 3.25 C-9.827773437 2.78078125 -9.218046875 2.3115625 -8.58984375 1.828125 C-5.645582807 -0.330643459 -3.609854419 -0.083464842 0 0 Z " fill="#D3D0C4" transform="translate(132.4375,89.75)" />
<path d="M0 0 C-0.121481609 7.045933345 -0.121481609 7.045933345 -2.58984375 9.7265625 C-3.8313665 10.716734018 -5.103286701 11.670322701 -6.40625 12.578125 C-8.326245802 14.291062432 -8.615032455 15.497710959 -9 18 C-10.65 18.33 -12.3 18.66 -14 19 C-13.01 19.33 -12.02 19.66 -11 20 C-10.673863825 24.674618509 -11.294172118 27.166743833 -14 31 C-16 28 -16 28 -16 25 C-14.5 23.3125 -14.5 23.3125 -13 22 C-13.99 22.33 -14.98 22.66 -16 23 C-16.33 22.67 -16.66 22.34 -17 22 C-16.67 25.63 -16.34 29.26 -16 33 C-19.3 33 -22.6 33 -26 33 C-25.34 31.02 -24.68 29.04 -24 27 C-24.66 27 -25.32 27 -26 27 C-26.33 28.65 -26.66 30.3 -27 32 C-30 30 -30 30 -30.73046875 27.6171875 C-30.881289063 26.712265625 -31.032109375 25.80734375 -31.1875 24.875 C-31.346054687 23.964921875 -31.504609375 23.05484375 -31.66796875 22.1171875 C-31.777539063 21.418515625 -31.887109375 20.71984375 -32 20 C-31.34 20 -30.68 20 -30 20 C-29.67 20.66 -29.34 21.32 -29 22 C-29 21.34 -29 20.68 -29 20 C-28.01 19.67 -27.02 19.34 -26 19 C-27.98 18.01 -29.96 17.02 -32 16 C-32 15.01 -32 14.02 -32 13 C-31.34 12.67 -30.68 12.34 -30 12 C-30.804375 11.690625 -31.60875 11.38125 -32.4375 11.0625 C-35 10 -35 10 -36 9 C-36.99 9 -37.98 9 -39 9 C-41.107707587 6.111659973 -42 4.615376048 -42 1 C-40.375 0.25 -40.375 0.25 -38 0 C-34.115419107 2.185076753 -31.025626468 4.741633034 -28 8 C-27.195625 7.484375 -26.39125 6.96875 -25.5625 6.4375 C-21.888817101 4.955136725 -21.197392711 4.965500763 -17.5625 5.6875 C-14.674556183 6.160693497 -13.486169178 6.288202562 -10.9375 4.77734375 C-9.20612566 3.251570113 -7.610492074 1.650642846 -6 0 C-3.509071894 -1.245464053 -2.589192669 -0.776757801 0 0 Z " fill="#88857B" transform="translate(225,55)" />
<path d="M0 0 C0.363515625 0.831445312 0.363515625 0.831445312 0.734375 1.6796875 C1.06953125 2.404140625 1.4046875 3.12859375 1.75 3.875 C2.237265625 4.953945312 2.237265625 4.953945312 2.734375 6.0546875 C4.259410349 8.398723315 5.386332811 9.063761007 8 10 C10.332038116 10.077734604 12.668390593 10.089677285 15 10 C15 10.66 15 11.32 15 12 C15.99 11.01 16.98 10.02 18 9 C16.829509082 19.199992287 16.829509082 19.199992287 14.1328125 21.80078125 C11.62120258 24.390591479 10.393313249 26.924318908 8.875 30.1875 C6.211356467 35.894321767 6.211356467 35.894321767 4 37 C3.34 36.34 2.68 35.68 2 35 C3.485 34.505 3.485 34.505 5 34 C5.80212628 32.126127837 5.80212628 32.126127837 6.1875 29.9375 C6.346054687 29.204023437 6.504609375 28.470546875 6.66796875 27.71484375 C6.832324219 26.865996094 6.832324219 26.865996094 7 26 C6.62875 26.66 6.2575 27.32 5.875 28 C3.472936981 31.84330083 0.755957748 35.405660284 -2 39 C-2.66 38.01 -3.32 37.02 -4 36 C-2.806312745 31.864726295 -0.545793133 28.145847512 1.5 24.375 C2.41265625 22.685039062 2.41265625 22.685039062 3.34375 20.9609375 C5 18 5 18 7 15 C6.34 15 5.68 15 5 15 C4.67 15.99 4.34 16.98 4 18 C3.34 18 2.68 18 2 18 C1.34 19.32 0.68 20.64 0 22 C-0.66 21.67 -1.32 21.34 -2 21 C-1.67 20.01 -1.34 19.02 -1 18 C-8.542047254 32.303898036 -8.542047254 32.303898036 -10.1171875 48.078125 C-9.920884905 52.972603029 -11.451608563 57.400908768 -13 62 C-13.33 62 -13.66 62 -14 62 C-13.835 60.71609375 -13.67 59.4321875 -13.5 58.109375 C-12.946953963 53.135855357 -12.920289679 48.247837125 -13 43.25 C-13.153611957 33.434195959 -13.153611957 33.434195959 -12 29 C-11.34 29 -10.68 29 -10 29 C-9.82984375 28.29875 -9.6596875 27.5975 -9.484375 26.875 C-7.927311381 20.779261578 -6.01993679 15.519194822 -3 10 C-5.475 11.485 -5.475 11.485 -8 13 C-7.67 11.68 -7.34 10.36 -7 9 C-7.99 9.495 -7.99 9.495 -9 10 C-9.33 8.68 -9.66 7.36 -10 6 C-8.712833531 4.994214108 -7.420113419 3.995532023 -6.125 3 C-5.405703125 2.443125 -4.68640625 1.88625 -3.9453125 1.3125 C-2 0 -2 0 0 0 Z " fill="#DFDDCF" transform="translate(193,80)" />
<path d="M0 0 C0.66 0 1.32 0 2 0 C1.115766927 4.224669128 0.026756602 6.271384887 -3.5 8.625 C-4.120039062 9.023320313 -4.740078125 9.421640625 -5.37890625 9.83203125 C-7.366545707 11.264089558 -8.228493579 12.685480738 -9 15 C-7.02 14.34 -5.04 13.68 -3 13 C-4.480339798 20.54973297 -7.656449145 27.102612073 -11 34 C-11.66 34 -12.32 34 -13 34 C-13.33 35.32 -13.66 36.64 -14 38 C-21.571428571 36.142857143 -21.571428571 36.142857143 -24 33 C-24.99 33.66 -25.98 34.32 -27 35 C-28.393250658 35.879106534 -29.789208721 36.753933302 -31.1875 37.625 C-32.260644531 38.294023438 -32.260644531 38.294023438 -33.35546875 38.9765625 C-33.898164063 39.314296875 -34.440859375 39.65203125 -35 40 C-36 38 -36 38 -35.5 35 C-35.005 34.01 -34.51 33.02 -34 32 C-32.908164063 31.735742187 -31.816328125 31.471484375 -30.69140625 31.19921875 C-26.22909145 29.749556693 -24.752183208 27.650425292 -22.4375 23.8125 C-21.673330733 22.631024194 -20.906414663 21.451320325 -20.13671875 20.2734375 C-19.079042969 18.653085938 -19.079042969 18.653085938 -18 17 C-14.791753449 12.785102725 -11.418248379 8.985302959 -7 6 C-6.01 6 -5.02 6 -4 6 C-3.566875 5.071875 -3.566875 5.071875 -3.125 4.125 C-2 2 -2 2 0 0 Z " fill="#B5B2A6" transform="translate(154,94)" />
<path d="M0 0 C2.66428239 8.530000878 2.11162224 20.034807126 -2 28 C-4.1875 31.0625 -4.1875 31.0625 -6 33 C-6.99 32.505 -6.99 32.505 -8 32 C-7.475996094 31.307773438 -7.475996094 31.307773438 -6.94140625 30.6015625 C-3.130786727 25.139314686 -2.149053937 20.612574679 -2 14 C-2.363515625 14.785039063 -2.72703125 15.570078125 -3.1015625 16.37890625 C-7.99056641 26.595670831 -13.009831338 34.519934711 -23.9375 38.75 C-31.765309573 41.022589876 -39.163969685 41.04140146 -46.40625 37.16796875 C-48 36 -48 36 -50 33 C-50 32.01 -50 31.02 -50 30 C-47.057878601 30.452634061 -45.773869765 31.177673756 -43.375 33.0625 C-38.77528142 35.703079185 -35.190691118 35.91198087 -30 35 C-27.239751775 33.906832386 -24.714121173 32.647923807 -22.12890625 31.19140625 C-20 30 -20 30 -17 29 C-15.934202872 27.145071124 -15.934202872 27.145071124 -15 25 C-14.094660924 23.721072209 -13.176954329 22.450849045 -12.25 21.1875 C-8.983318444 16.419263108 -7.009272887 11.382872613 -5.092773438 5.965576172 C-4.474077512 4.279305285 -3.744367697 2.634689844 -3 1 C-2.01 0.67 -1.02 0.34 0 0 Z " fill="#55524A" transform="translate(102,106)" />
<path d="M0 0 C2.804354107 -0.056324237 5.35146678 0.041852976 8.125 0.3125 C8.879101563 0.373730469 9.633203125 0.434960937 10.41015625 0.498046875 C12.274634381 0.651453303 14.137524979 0.823934594 16 1 C15.06409496 2.105518898 14.126201421 3.209354534 13.1875 4.3125 C12.665429687 4.927382812 12.143359375 5.542265625 11.60546875 6.17578125 C10.128275306 7.854246793 8.599608694 9.438820343 7 11 C7 10.01 7 9.02 7 8 C5.351636698 9.752442472 5.351636698 9.752442472 4 12 C4.185625 12.66 4.37125 13.32 4.5625 14 C4.706875 14.66 4.85125 15.32 5 16 C3.0625 18.25 3.0625 18.25 1 20 C1.33 18.68 1.66 17.36 2 16 C0.02 16.99 -1.96 17.98 -4 19 C-4 15.026214507 -2.652463433 13.873502053 0 11 C1.0209375 10.5359375 1.0209375 10.5359375 2.0625 10.0625 C4.996714605 8.453414571 5.702890089 5.983352796 7 3 C3.476183132 5.546045967 3.476183132 5.546045967 1 9 C-0.658481775 10.01351664 -2.32665961 11.011207951 -4 12 C-8.390037131 15.106571126 -11.13211051 18.625072855 -14.125 23 C-15.384608909 24.808087262 -16.645054716 26.615575887 -17.907226562 28.421875 C-18.82653303 29.749488272 -19.724428075 31.091891591 -20.6171875 32.4375 C-21.073515625 32.953125 -21.52984375 33.46875 -22 34 C-22.99 34 -23.98 34 -25 34 C-23.585502456 29.885098054 -21.490647341 26.481284075 -19.12109375 22.8671875 C-17.843483237 20.89250091 -17.843483237 20.89250091 -17 18 C-17.99 18.33 -18.98 18.66 -20 19 C-20.66 17.35 -21.32 15.7 -22 14 C-22.99 14.495 -22.99 14.495 -24 15 C-22.332488517 11.058609222 -19.77289351 8.210718801 -17 5 C-17 8 -17 8 -18 10 C-17.01 9.67 -16.02 9.34 -15 9 C-15 9.66 -15 10.32 -15 11 C-16 12 -17 13 -18 14 C-18 14.66 -18 15.32 -18 16 C-17.263945312 15.39671875 -16.527890625 14.7934375 -15.76953125 14.171875 C-14.793710938 13.37265625 -13.817890625 12.5734375 -12.8125 11.75 C-11.849570312 10.96109375 -10.886640625 10.1721875 -9.89453125 9.359375 C-8.036784663 7.84509843 -6.16040738 6.35323821 -4.26171875 4.890625 C-1.811473498 3.02338618 -1.811473498 3.02338618 0 0 Z " fill="#A29F92" transform="translate(149,91)" />
<path d="M0 0 C0.33 0.66 0.66 1.32 1 2 C0.67 2.99 0.34 3.98 0 5 C-0.420718279 11.692355878 -0.24129932 17.671625448 2 24 C3.050355177 27.781278638 3.049522873 30.637096388 2.51171875 34.578125 C1.900513859 39.307660902 1.816239416 43.985984043 1.8125 48.75 C1.800253906 49.586601562 1.788007813 50.423203125 1.775390625 51.28515625 C1.773457031 52.093398438 1.771523438 52.901640625 1.76953125 53.734375 C1.765422363 54.458505859 1.761313477 55.182636719 1.757080078 55.928710938 C2.042581958 58.363080735 2.672003744 59.943565789 4 62 C6.555199214 62.811712283 6.555199214 62.811712283 9 63 C7.7625 61.781835938 7.7625 61.781835938 6.5 60.5390625 C3.769130402 57.239261736 3.503375962 54.926511113 3.762939453 50.731689453 C3.841169434 49.953981934 3.919399414 49.176274414 4 48.375 C4.064694824 47.555397949 4.129389648 46.735795898 4.196044922 45.891357422 C4.423258452 43.255030576 4.702534689 40.629286785 5 38 C5.098774414 37.106518555 5.197548828 36.213037109 5.299316406 35.292480469 C5.60885375 32.627956059 5.951383502 29.970496984 6.3125 27.3125 C6.417558594 26.500229492 6.522617188 25.687958984 6.630859375 24.851074219 C7.862277596 16.710592288 10.714707392 10.479485863 17 5 C17.99 4.34 18.98 3.68 20 3 C18.332488517 6.941390778 15.77289351 9.789281199 13 13 C13.33 13.66 13.66 14.32 14 15 C13.01 15.495 13.01 15.495 12 16 C13.552143449 25.6030989 15.625241659 34.564810844 19.01171875 43.6953125 C19.997125982 46.990389649 20.192047827 49.58466297 20 53 C15.39367836 44.341821362 12.492206925 34.665937395 11 25 C6.913913054 32.348089131 6.792580569 41.256542335 6.625 49.5 C6.599057617 50.182236328 6.573115234 50.864472656 6.546386719 51.567382812 C6.533357132 55.061049366 6.6999268 56.657387687 9.0390625 59.328125 C10.009726562 60.155703125 10.009726562 60.155703125 11 61 C10.75 63.25 10.75 63.25 10 65 C6.75 65.375 6.75 65.375 3 65 C0.5 62.5 0.5 62.5 -1 59 C-0.75 55.1875 -0.75 55.1875 -0.3671875 53.15625 C0.033668087 50.802289533 0.117251106 48.574159324 0.125 46.1875 C0.127578125 45.459179688 0.13015625 44.730859375 0.1328125 43.98046875 C0.069349195 41.787977796 0.069349195 41.787977796 -1 39 C-1.14715199 37.374329209 -1.247218667 35.744131429 -1.31640625 34.11328125 C-1.358300781 33.175488281 -1.400195312 32.237695312 -1.443359375 31.271484375 C-1.482675781 30.295019531 -1.521992187 29.318554688 -1.5625 28.3125 C-1.605683594 27.324433594 -1.648867188 26.336367188 -1.693359375 25.318359375 C-1.799416542 22.87904454 -1.901477136 20.439628866 -2 18 C-2.99 17.67 -3.98 17.34 -5 17 C-4.691914062 16.467617187 -4.383828125 15.935234375 -4.06640625 15.38671875 C-2.790000968 12.530002167 -2.385835476 9.905638029 -1.9375 6.8125 C-1.101983003 1.101983003 -1.101983003 1.101983003 0 0 Z " fill="#3C382F" transform="translate(178,115)" />
<path d="M0 0 C-0.536289709 5.820977887 -4.094748604 9.799256053 -7.40625 14.384765625 C-10.087138948 18.222956924 -12.006093913 21.167527283 -12 26 C-11.248688791 29.160013468 -10.139454964 32.111509641 -8.9375 35.125 C-8.505341797 36.321894531 -8.505341797 36.321894531 -8.064453125 37.54296875 C-5.97160694 42.911769027 -4.051081088 45.234443546 1 48 C1 48.33 1 48.66 1 49 C-3.307166408 49.369185692 -5.550483146 48.596644183 -9 46 C-10.40625 43.21484375 -10.40625 43.21484375 -11.5 39.9375 C-13.005208832 35.618413511 -14.616366059 31.724447017 -16.875 27.75 C-19.379671616 22.921244377 -19.455908282 19.196917644 -18 14 C-17.795039062 13.187890625 -17.590078125 12.37578125 -17.37890625 11.5390625 C-15.382183564 7.862377668 -12.521056605 6.312153634 -9 4.1875 C-8.358046875 3.780800781 -7.71609375 3.374101562 -7.0546875 2.955078125 C-2.306696429 0 -2.306696429 0 0 0 Z " fill="#E4E0D5" transform="translate(130,129)" />
<path d="M0 0 C1.597020812 3.07924176 2.540855347 5.860444347 3.3125 9.25 C4.692688371 15.048214034 6.432152205 20.672750049 8.374267578 26.303710938 C9.811585726 30.665759579 10.219176831 34.420981345 10 39 C10.66 39.33 11.32 39.66 12 40 C10.68 39.67 9.36 39.34 8 39 C8 37.35 8 35.7 8 34 C7.01 34 6.02 34 5 34 C5.33 34.99 5.66 35.98 6 37 C3.03 37.495 3.03 37.495 0 38 C-0.33 36.68 -0.66 35.36 -1 34 C-1.66 34.99 -2.32 35.98 -3 37 C-5.260480341 34.739519659 -4.304689815 30.123854408 -4.330078125 27.080078125 C-4.208590691 17.855132277 -2.055063431 8.954204948 0 0 Z " fill="#E4E0D5" transform="translate(188,136)" />
<path d="M0 0 C0.33 0 0.66 0 1 0 C1.260122277 4.696261648 0.492962614 7.925411084 -1.3125 12.25 C-3.545958021 17.776539592 -5.374291416 23.26723815 -7 29 C-3.7 28.67 -0.4 28.34 3 28 C-1.366757838 32.366757838 -9.106743939 32.152605456 -15 32.3125 C-22.959476531 32.158842152 -30.126198888 30.678007741 -36 25 C-31.25 25.875 -31.25 25.875 -29 27 C-28.34 25.68 -27.68 24.36 -27 23 C-27.33 24.65 -27.66 26.3 -28 28 C-24.884030877 27.33372488 -24.884030877 27.33372488 -23.83203125 24.93359375 C-23.327363281 23.698027344 -23.327363281 23.698027344 -22.8125 22.4375 C-22.468320312 21.611210938 -22.124140625 20.784921875 -21.76953125 19.93359375 C-21.515585937 19.295507813 -21.261640625 18.657421875 -21 18 C-19.863560343 21.409318971 -20.132522361 22.00335456 -21.4375 25.1875 C-21.724960937 25.902929688 -22.012421875 26.618359375 -22.30859375 27.35546875 C-22.536757813 27.898164063 -22.764921875 28.440859375 -23 29 C-22.01 29 -21.02 29 -20 29 C-19.878828125 28.347734375 -19.75765625 27.69546875 -19.6328125 27.0234375 C-18.710560111 22.213536578 -17.698327234 17.609745348 -16 13 C-14.709349434 16.871951699 -15.776759015 19.442326013 -16.9375 23.1875 C-17.132792969 23.841699219 -17.328085937 24.495898437 -17.529296875 25.169921875 C-18.011825634 26.782274068 -18.504902053 28.391462894 -19 30 C-17.68 30 -16.36 30 -15 30 C-14.864648437 29.333554687 -14.729296875 28.667109375 -14.58984375 27.98046875 C-12.773451193 20.203698223 -9.487572492 14.534535384 -5 8 C-4.033846247 6.44232354 -3.074546289 4.880355501 -2.125 3.3125 C-1.073125 1.6728125 -1.073125 1.6728125 0 0 Z " fill="#AEAB9E" transform="translate(169,105)" />
<path d="M0 0 C-1.195555102 3.586665307 -2.381536177 4.291230577 -5.375 6.5 C-8.648080477 8.922078644 -8.648080477 8.922078644 -11.63671875 11.671875 C-13.607927507 13.592250294 -15.302562077 13.736835325 -18 14 C-20.3125 13.5625 -20.3125 13.5625 -22 13 C-22.275859375 13.715429688 -22.55171875 14.430859375 -22.8359375 15.16796875 C-23.982485225 17.95738855 -25.262271148 20.622903582 -26.625 23.3125 C-27.294023438 24.637011719 -27.294023438 24.637011719 -27.9765625 25.98828125 C-28.483164062 26.984082031 -28.483164062 26.984082031 -29 28 C-29.33 28 -29.66 28 -30 28 C-30.610169492 15.627118644 -30.610169492 15.627118644 -28.6875 10.5 C-24.676707024 6.76902979 -20.134029958 3.940361322 -15 2 C-12.76953125 2.4296875 -12.76953125 2.4296875 -11 3 C-10.401875 2.525625 -9.80375 2.05125 -9.1875 1.5625 C-6.120853886 -0.62796151 -3.672213608 -0.211858477 0 0 Z " fill="#CAC7BA" transform="translate(133,90)" />
<path d="M0 0 C0.99 1.32 1.98 2.64 3 4 C1.775707386 6.190359739 0.546656899 8.377701301 -0.6875 10.5625 C-1.050371094 11.207111816 -1.413242188 11.851723633 -1.787109375 12.515869141 C-3.680041317 15.837325876 -5.606978168 18.944498631 -8 21.9375 C-10.487447432 25.746403881 -10.347561947 27.500231328 -10 32 C-9.317308589 34.681418559 -8.360725495 37.192227276 -7.3125 39.75 C-7.068222656 40.408710937 -6.823945313 41.067421875 -6.572265625 41.74609375 C-4.831796256 46.090657794 -3.210186594 48.010935467 1 50 C1.99 50.66 2.98 51.32 4 52 C4 52.66 4 53.32 4 54 C-0.455 54.495 -0.455 54.495 -5 55 C-5.33 54.01 -5.66 53.02 -6 52 C-6.638649902 51.85651123 -7.277299805 51.713022461 -7.935302734 51.565185547 C-10 51 -10 51 -11.140869141 49.237548828 C-11.435983887 48.484978027 -11.731098633 47.732407227 -12.03515625 46.95703125 C-12.369667969 46.130097656 -12.704179688 45.303164063 -13.048828125 44.451171875 C-13.383339844 43.580410156 -13.717851563 42.709648437 -14.0625 41.8125 C-14.739127136 40.109977245 -15.417476718 38.408137895 -16.09765625 36.70703125 C-16.417182617 35.895646973 -16.736708984 35.084262695 -17.065917969 34.248291016 C-17.868856854 32.315655314 -18.80376724 30.438802434 -19.76171875 28.578125 C-21.359581419 25.25134468 -20.900117918 23.525461846 -20 20 C-19.660608305 18.334556466 -19.32629808 16.668058288 -19 15 C-19.770859375 15.444726562 -20.54171875 15.889453125 -21.3359375 16.34765625 C-22.338828125 16.913554688 -23.34171875 17.479453125 -24.375 18.0625 C-25.372734375 18.630976562 -26.37046875 19.199453125 -27.3984375 19.78515625 C-28.256953125 20.186054687 -29.11546875 20.586953125 -30 21 C-30.66 20.67 -31.32 20.34 -32 20 C-27.701048222 16.95109803 -23.509610239 14.085240949 -18.625 12.0625 C-11.92079998 9.253345766 -4.954606697 5.397568223 0 0 Z M-16 13 C-19.082128059 17.202901898 -19.479161191 21.906694007 -19 27 C-17.74486853 30.322037677 -16.167062164 33.459702864 -14.5625 36.625 C-13.727284037 38.303106193 -12.895132804 39.982742067 -12.06640625 41.6640625 C-11.694592285 42.400922852 -11.32277832 43.137783203 -10.939697266 43.896972656 C-10 46 -10 46 -9.511474609 48.161621094 C-9.123702389 50.262435138 -9.123702389 50.262435138 -6.75 51.75 C-3.878601259 53.055181246 -2.109025338 53.266487886 1 53 C0.147612024 50.775408959 0.147612024 50.775408959 -2.3203125 49.92578125 C-6.246777918 47.103991963 -7.241961319 43.628655195 -8.875 39.1875 C-9.1946875 38.392792969 -9.514375 37.598085938 -9.84375 36.779296875 C-11.595940357 32.174083523 -12.677957803 28.825754613 -11 24 C-9.49526122 21.356764723 -7.779608315 18.901763181 -6 16.4375 C-1.78323593 10.754301219 -1.78323593 10.754301219 0 4 C-5.244459475 4 -12.018831414 9.68432455 -16 13 Z " fill="#322E24" transform="translate(130,125)" />
<path d="M0 0 C0.66 0.33 1.32 0.66 2 1 C1.312929688 1.9178125 0.625859375 2.835625 -0.08203125 3.78125 C-0.992674378 5.020475699 -1.902803192 6.260079455 -2.8125 7.5 C-3.264316406 8.100703125 -3.716132813 8.70140625 -4.181640625 9.3203125 C-6.954449259 13.125334567 -8.718912364 16.655477645 -10.241943359 21.098144531 C-11.459538595 24.152916476 -13.398067188 26.579702963 -15.375 29.1875 C-19.931419622 35.407536138 -22.604546575 41.645115363 -25 49 C-26.32 49 -27.64 49 -29 49 C-28.405438532 45.649471256 -27.717777193 42.32617013 -27 39 C-26.812441406 37.922988281 -26.812441406 37.922988281 -26.62109375 36.82421875 C-24.898521726 29.621968793 -19.820791952 24.814995712 -15.0234375 19.4453125 C-10.713437271 14.604933125 -6.25230691 9.426587805 -4.0078125 3.28515625 C-3.675234375 2.531054688 -3.34265625 1.776953125 -3 1 C-2.01 0.67 -1.02 0.34 0 0 Z " fill="#E3E0D4" transform="translate(179,86)" />
<path d="M0 0 C1.2065625 0.0309375 1.2065625 0.0309375 2.4375 0.0625 C1.69088475 12.909431378 -1.559684848 24.526061385 -5.93359375 36.5390625 C-7.690653544 41.371777052 -9.321370989 46.243640639 -10.9375 51.125 C-11.200227051 51.917370605 -11.462954102 52.709741211 -11.733642578 53.526123047 C-12.344551903 55.371155338 -12.95372987 57.216760775 -13.5625 59.0625 C-13.8925 59.0625 -14.2225 59.0625 -14.5625 59.0625 C-14.2325 56.4225 -13.9025 53.7825 -13.5625 51.0625 C-16.5325 53.5375 -16.5325 53.5375 -19.5625 56.0625 C-20.2225 55.7325 -20.8825 55.4025 -21.5625 55.0625 C-20.994023438 54.71703125 -20.425546875 54.3715625 -19.83984375 54.015625 C-8.740613892 45.936719795 -6.231764829 30.84144418 -3.5625 18.0625 C-5.5425 19.0525 -5.5425 19.0525 -7.5625 20.0625 C-7.5625 19.4025 -7.5625 18.7425 -7.5625 18.0625 C-8.820625 17.959375 -10.07875 17.85625 -11.375 17.75 C-14.167496566 17.413911918 -15.306831208 17.262241243 -17.5625 15.5 C-17.8925 15.025625 -18.2225 14.55125 -18.5625 14.0625 C-18.2325 13.4025 -17.9025 12.7425 -17.5625 12.0625 C-16.9025 12.0625 -16.2425 12.0625 -15.5625 12.0625 C-15.2325 11.0725 -14.9025 10.0825 -14.5625 9.0625 C-13.9025 9.0625 -13.2425 9.0625 -12.5625 9.0625 C-13.2225 11.0425 -13.8825 13.0225 -14.5625 15.0625 C-13.469375 14.876875 -12.37625 14.69125 -11.25 14.5 C-7.5625 14.0625 -7.5625 14.0625 -4.5625 15.0625 C-4.913125 14.216875 -5.26375 13.37125 -5.625 12.5 C-6.68527509 8.612324669 -6.345648723 5.978243614 -5.5625 2.0625 C-4.9025 2.7225 -4.2425 3.3825 -3.5625 4.0625 C-2.5725 4.0625 -1.5825 4.0625 -0.5625 4.0625 C-1.5525 5.5475 -1.5525 5.5475 -2.5625 7.0625 C-3.2225 7.0625 -3.8825 7.0625 -4.5625 7.0625 C-3.9025 8.7125 -3.2425 10.3625 -2.5625 12.0625 C-0.678582146 8.797042387 -0.069620326 5.781382389 0.4375 2.0625 C-0.8825 1.7325 -2.2025 1.4025 -3.5625 1.0625 C-2.5625 0.0625 -2.5625 0.0625 0 0 Z " fill="#353329" transform="translate(213.5625,72.9375)" />
<path d="M0 0 C0.99 0.66 1.98 1.32 3 2 C2.444748823 4.961339609 1.770484539 7.739549819 0.875 10.625 C-0.470994286 15.791242774 0.289221553 20.774817901 1 26 C-2.3 26 -5.6 26 -9 26 C-8.690625 25.13375 -8.38125 24.2675 -8.0625 23.375 C-5.794694459 16.171382399 -5.878853468 10.281362658 -8 3 C-8.66 2.67 -9.32 2.34 -10 2 C-6.596771262 -0.094294608 -3.96047946 -0.337062082 0 0 Z " fill="#DEDCCE" transform="translate(208,62)" />
<path d="M0 0 C0.66 0.33 1.32 0.66 2 1 C0.439888166 4.477749296 -1.631723259 7.272240275 -4 10.25 C-4.70125 11.14203125 -5.4025 12.0340625 -6.125 12.953125 C-6.74375 13.62859375 -7.3625 14.3040625 -8 15 C-8.66 15 -9.32 15 -10 15 C-10.131403809 15.729206543 -10.262807617 16.458413086 -10.398193359 17.209716797 C-10.959245157 19.811039718 -11.697735202 22.155764994 -12.62890625 24.64453125 C-13.097802734 25.906201172 -13.097802734 25.906201172 -13.576171875 27.193359375 C-13.901660156 28.057675781 -14.227148438 28.921992187 -14.5625 29.8125 C-14.891855469 30.696152344 -15.221210938 31.579804688 -15.560546875 32.490234375 C-16.370346008 34.661434949 -17.183588928 36.831278887 -18 39 C-17.652194824 38.144505615 -17.652194824 38.144505615 -17.297363281 37.271728516 C-16.246882076 34.699073269 -15.186096474 32.13079406 -14.125 29.5625 C-13.760195313 28.664667969 -13.395390625 27.766835938 -13.01953125 26.841796875 C-12.665039062 25.987792969 -12.310546875 25.133789062 -11.9453125 24.25390625 C-11.458288574 23.067767334 -11.458288574 23.067767334 -10.961425781 21.857666016 C-10 20 -10 20 -8 19 C-8.676303824 21.361939871 -9.373931153 23.714562358 -10.09765625 26.0625 C-10.696588488 28.012270747 -11.267271113 29.970955926 -11.80859375 31.9375 C-13.685316958 38.076470137 -15.460851337 41.230982884 -21.1953125 44.29296875 C-23 45 -23 45 -25 45 C-23.063188692 39.773529284 -20.304763326 35.089676792 -17.55859375 30.25390625 C-16.011650535 27.024323046 -15.582487322 24.499404603 -15 21 C-13.87266096 18.474976826 -12.722851184 16.063349374 -11.4375 13.625 C-11.108144531 12.984335937 -10.778789062 12.343671875 -10.439453125 11.68359375 C-9.633605176 10.118613675 -8.817815066 8.558759786 -8 7 C-7.34 7 -6.68 7 -6 7 C-6 6.34 -6 5.68 -6 5 C-5.34 5 -4.68 5 -4 5 C-4 4.34 -4 3.68 -4 3 C-2 1.375 -2 1.375 0 0 Z " fill="#E6E3D6" transform="translate(122,100)" />
<path d="M0 0 C0.66 0 1.32 0 2 0 C1.442710874 3.343734754 0.648261114 6.033129995 -1 9 C0.65 7.02 2.3 5.04 4 3 C4.33 3.66 4.66 4.32 5 5 C3.81321012 7.115842564 2.583146166 9.104805809 1.25 11.125 C-4.971200546 20.984203633 -6.484628868 27.225313422 -6 39 C-7.65 39 -9.3 39 -11 39 C-11.594448741 31.420778549 -9.428333365 25.128962609 -7 18 C-6.67 17.01 -6.34 16.02 -6 15 C-7.98 19.455 -7.98 19.455 -10 24 C-11.370400935 19.888797194 -10.532106703 16.919639648 -9 13 C-6.415478298 8.390107926 -3.752030506 3.752030506 0 0 Z " fill="#E7E5D8" transform="translate(180,90)" />
<path d="M0 0 C0 3.112501914 -0.368634362 3.996840074 -1.8125 6.625 C-4.064848399 10.937325404 -5.581049009 15.356160393 -7 20 C-7.66 20 -8.32 20 -9 20 C-8.994763184 20.706083984 -8.989526367 21.412167969 -8.984130859 22.139648438 C-8.963325871 25.343089884 -8.950328593 28.546517097 -8.9375 31.75 C-8.929121094 32.861171875 -8.920742187 33.97234375 -8.912109375 35.1171875 C-8.908886719 36.187109375 -8.905664062 37.25703125 -8.90234375 38.359375 C-8.897106934 39.343896484 -8.891870117 40.328417969 -8.886474609 41.342773438 C-8.988408971 43.728695142 -9.316966431 45.721645813 -10 48 C-10.66 48 -11.32 48 -12 48 C-13.544402408 41.254050283 -14.072862612 33.6657941 -11.9375 27 C-10.96548783 23.889561058 -11.082252173 22.977867074 -12 20 C-13.924713168 25.33835539 -15.398914236 30.349793816 -16 36 C-16.33 36 -16.66 36 -17 36 C-17.458243658 28.782662383 -16.407739424 24.321878709 -13 18 C-12.55744873 17.160336914 -12.55744873 17.160336914 -12.105957031 16.303710938 C-11.108263337 14.422003789 -10.089635507 12.553285856 -9.0625 10.6875 C-8.738945312 10.08848877 -8.415390625 9.489477539 -8.08203125 8.872314453 C-5.903693619 5.031589696 -3.602836256 2.537649885 0 0 Z " fill="#979486" transform="translate(190,89)" />
<path d="M0 0 C0.33 0 0.66 0 1 0 C0.552994686 4.172049595 0.090818551 8.334493571 -0.4765625 12.4921875 C-1.496881932 20.060825673 -2.3253104 27.631828443 -2.875 35.25 C-2.948476562 36.060014648 -3.021953125 36.870029297 -3.09765625 37.704589844 C-3.398517212 42.456872042 -3.398517212 42.456872042 -1.0078125 46.421875 C-0.345234375 46.94265625 0.31734375 47.4634375 1 48 C1 48.66 1 49.32 1 50 C-1.3125 50.3125 -1.3125 50.3125 -4 50 C-6.73513582 46.409957142 -7.365469553 43.792503719 -7.29296875 39.33203125 C-7.283300781 38.274355469 -7.273632813 37.216679688 -7.263671875 36.126953125 C-7.238535156 35.033183594 -7.213398437 33.939414062 -7.1875 32.8125 C-7.173964844 31.707128906 -7.160429687 30.601757813 -7.146484375 29.462890625 C-7.110246514 26.641514287 -7.05712913 23.821007155 -7 21 C-7 20.34 -7 19.68 -7 19 C-6.204926674 15.409875083 -5.115700292 11.89626588 -4.0625 8.375 C-3.723476562 7.227734375 -3.384453125 6.08046875 -3.03515625 4.8984375 C-2 2 -2 2 0 0 Z " fill="#D8D5CB" transform="translate(186,128)" />
<path d="M0 0 C0.66 0 1.32 0 2 0 C1.138768001 3.469256582 0.598404117 5.511356074 -2.21484375 7.80859375 C-3.113320313 8.346132813 -4.011796875 8.883671875 -4.9375 9.4375 C-11.302860994 13.761930531 -15.168738821 19.126380347 -19.4921875 25.4140625 C-22.853464316 30.289316317 -26.083238334 34.861527176 -31.3125 37.875 C-32.009882812 38.284921875 -32.707265625 38.69484375 -33.42578125 39.1171875 C-34.205019531 39.554179687 -34.205019531 39.554179687 -35 40 C-36 38 -36 38 -35.5 35 C-35.005 34.01 -34.51 33.02 -34 32 C-32.908164063 31.735742187 -31.816328125 31.471484375 -30.69140625 31.19921875 C-26.22909145 29.749556693 -24.752183208 27.650425292 -22.4375 23.8125 C-21.673330733 22.631024194 -20.906414663 21.451320325 -20.13671875 20.2734375 C-19.079042969 18.653085938 -19.079042969 18.653085938 -18 17 C-14.791753449 12.785102725 -11.418248379 8.985302959 -7 6 C-6.01 6 -5.02 6 -4 6 C-3.566875 5.071875 -3.566875 5.071875 -3.125 4.125 C-2 2 -2 2 0 0 Z " fill="#E4E1D5" transform="translate(154,94)" />
<path d="M0 0 C0.7109375 1.6796875 0.7109375 1.6796875 1 4 C-2.797898977 10.951709824 -8.554313699 16.937912935 -13.921875 22.7109375 C-16.057541232 25.063381883 -18.039410776 27.500690314 -20 30 C-21.2109375 27.828125 -21.2109375 27.828125 -22 25 C-20.7265625 22.421875 -20.7265625 22.421875 -18.625 19.75 C-17.515117188 18.324941406 -17.515117188 18.324941406 -16.3828125 16.87109375 C-13.020844364 12.820197717 -9.581769322 8.858022807 -6 5 C-6.33 4.34 -6.66 3.68 -7 3 C-4.69 2.01 -2.38 1.02 0 0 Z " fill="#9D9B8E" transform="translate(174,88)" />
<path d="M0 0 C0.33 0 0.66 0 1 0 C1.462101849 7.162578658 0.528969933 12.672979473 -3 19 C-5.266674683 21.210007816 -7.402749523 22.634015685 -10.078125 24.2734375 C-12.532753031 26.478611463 -12.747877778 27.965549078 -13.25 31.1875 C-13.39953125 32.088554687 -13.5490625 32.989609375 -13.703125 33.91796875 C-13.80109375 34.605039062 -13.8990625 35.292109375 -14 36 C-15.32 36 -16.64 36 -18 36 C-18 34.02 -18 32.04 -18 30 C-18.66 30 -19.32 30 -20 30 C-20 28.68 -20 27.36 -20 26 C-18.2421875 24.578125 -18.2421875 24.578125 -15.875 23.25 C-6.923602743 17.609777904 -3.64301034 9.671708868 0 0 Z " fill="#E3E0D6" transform="translate(100,117)" />
<path d="M0 0 C0.454384744 3.104962415 0.569692077 5.204484036 -1.30078125 7.81640625 C-2.370578744 8.998545247 -3.466465938 10.15771747 -4.58984375 11.2890625 C-6.155821458 13.189057614 -6.585659004 14.597871186 -7 17 C-8.65 17.33 -10.3 17.66 -12 18 C-11.01 18.33 -10.02 18.66 -9 19 C-8.673863825 23.674618509 -9.294172118 26.166743833 -12 30 C-14 27 -14 27 -14 24 C-12.5 22.3125 -12.5 22.3125 -11 21 C-11.99 21.33 -12.98 21.66 -14 22 C-15.025725899 17.589378636 -15.036847118 15.073694235 -13 11 C-11.68 11 -10.36 11 -9 11 C-9.66 10.67 -10.32 10.34 -11 10 C-9.64717831 5.572583559 -7.767011125 3.636907787 -4 1 C-2 0 -2 0 0 0 Z " fill="#ACAAA0" transform="translate(223,56)" />
<path d="M0 0 C0 3 0 3 -1 5 C-0.01 4.67 0.98 4.34 2 4 C2 4.66 2 5.32 2 6 C1 7 0 8 -1 9 C-1 9.66 -1 10.32 -1 11 C1.31 9.02 3.62 7.04 6 5 C6.66 5.33 7.32 5.66 8 6 C8 6.66 8 7.32 8 8 C8.66 8.33 9.32 8.66 10 9 C9.25234375 9.941015625 8.5046875 10.88203125 7.734375 11.8515625 C6.73946379 13.109280445 5.744678833 14.367098269 4.75 15.625 C4.258867187 16.242460937 3.767734375 16.859921875 3.26171875 17.49609375 C0.959386579 20.412381167 -1.21923631 23.297662822 -3.171875 26.4609375 C-4.076796875 27.717773438 -4.076796875 27.717773438 -5 29 C-5.99 29 -6.98 29 -8 29 C-6.585502456 24.885098054 -4.490647341 21.481284075 -2.12109375 17.8671875 C-0.843483237 15.89250091 -0.843483237 15.89250091 0 13 C-0.99 13.33 -1.98 13.66 -3 14 C-3.66 12.35 -4.32 10.7 -5 9 C-5.99 9.495 -5.99 9.495 -7 10 C-5.332488517 6.058609222 -2.77289351 3.210718801 0 0 Z " fill="#8C897C" transform="translate(132,96)" />
<path d="M0 0 C0.66 0.33 1.32 0.66 2 1 C1.01 2.32 0.02 3.64 -1 5 C0.65 3.68 2.3 2.36 4 1 C4 1.99 4 2.98 4 4 C4.33 4.66 4.66 5.32 5 6 C4.22265625 8.1640625 4.22265625 8.1640625 3.0625 10.625 C2.682226563 11.442265625 2.301953125 12.25953125 1.91015625 13.1015625 C1.609804688 13.728046875 1.309453125 14.35453125 1 15 C0.67 13.68 0.34 12.36 0 11 C-1.534456278 14.725549251 -2.863607576 18.486276313 -4.125 22.3125 C-4.654804688 23.915449219 -4.654804688 23.915449219 -5.1953125 25.55078125 C-5.593632813 26.763144531 -5.593632813 26.763144531 -6 28 C-7.315344935 24.341424683 -6.654683092 21.919735188 -5.5625 18.25 C-5.131308594 16.772734375 -5.131308594 16.772734375 -4.69140625 15.265625 C-4.463242188 14.51796875 -4.235078125 13.7703125 -4 13 C-4.99 14.98 -5.98 16.96 -7 19 C-7.33 17.68 -7.66 16.36 -8 15 C-8.231870117 15.57032959 -8.463740234 16.14065918 -8.702636719 16.728271484 C-9.753117924 19.300926731 -10.813903526 21.86920594 -11.875 24.4375 C-12.239804687 25.335332031 -12.604609375 26.233164063 -12.98046875 27.158203125 C-13.334960938 28.012207031 -13.689453125 28.866210938 -14.0546875 29.74609375 C-14.379370117 30.536853027 -14.704052734 31.327612305 -15.038574219 32.142333984 C-16 34 -16 34 -18 35 C-15.809992574 28.280659034 -13.477140542 21.619079992 -11 15 C-10.679023438 14.11828125 -10.358046875 13.2365625 -10.02734375 12.328125 C-8.635009326 9.172872844 -6.484709014 7.366389537 -4 5 C-2.644447074 3.35135455 -1.303683467 1.68996005 0 0 Z " fill="#7B786B" transform="translate(121,105)" />
<path d="M0 0 C1.32 0.66 2.64 1.32 4 2 C3.649375 2.515625 3.29875 3.03125 2.9375 3.5625 C0.788580386 9.149690997 3.600032408 15.36955557 5.6875 20.6875 C5.918886719 21.337832031 6.150273438 21.988164063 6.388671875 22.658203125 C8.351174751 27.684874982 10.506632194 29.417099065 15 32 C15 32.33 15 32.66 15 33 C10.692833592 33.369185692 8.449516854 32.596644183 5 30 C3.59375 27.21484375 3.59375 27.21484375 2.5 23.9375 C0.650658267 18.688892034 -1.470558001 13.835350958 -4.08203125 8.92578125 C-5 7 -5 7 -5 5 C-3.333333333 3.333333333 -1.666666667 1.666666667 0 0 Z " fill="#D7D5C8" transform="translate(116,145)" />
<path d="M0 0 C1.290650566 3.871951699 0.223240985 6.442326013 -0.9375 10.1875 C-1.132792969 10.841699219 -1.328085937 11.495898437 -1.529296875 12.169921875 C-2.011825634 13.782274068 -2.504902053 15.391462894 -3 17 C-1.68 17 -0.36 17 1 17 C1.181757812 16.263945312 1.363515625 15.527890625 1.55078125 14.76953125 C4.04745167 5.077328647 4.04745167 5.077328647 7 1 C8 3 8 3 7.2578125 5.2421875 C6.883984375 6.111015625 6.51015625 6.97984375 6.125 7.875 C4.804187181 10.969211849 3.822282533 13.710869868 3 17 C8.28 16.34 13.56 15.68 19 15 C14.633242162 19.366757838 6.893256061 19.152605456 1 19.3125 C-6.959476531 19.158842152 -14.126198888 17.678007741 -20 12 C-15.25 12.875 -15.25 12.875 -13 14 C-12.34 12.68 -11.68 11.36 -11 10 C-11.33 11.65 -11.66 13.3 -12 15 C-8.884030877 14.33372488 -8.884030877 14.33372488 -7.83203125 11.93359375 C-7.327363281 10.698027344 -7.327363281 10.698027344 -6.8125 9.4375 C-6.296230469 8.198066406 -6.296230469 8.198066406 -5.76953125 6.93359375 C-5.515585937 6.295507813 -5.261640625 5.657421875 -5 5 C-3.863560343 8.409318971 -4.132522361 9.00335456 -5.4375 12.1875 C-5.724960937 12.902929688 -6.012421875 13.618359375 -6.30859375 14.35546875 C-6.536757813 14.898164063 -6.764921875 15.440859375 -7 16 C-6.01 16 -5.02 16 -4 16 C-3.878828125 15.347734375 -3.75765625 14.69546875 -3.6328125 14.0234375 C-2.710560111 9.213536578 -1.698327234 4.609745348 0 0 Z " fill="#4B473C" transform="translate(153,118)" />
<path d="M0 0 C0.33 0 0.66 0 1 0 C1.060585938 0.831445312 1.121171875 1.662890625 1.18359375 2.51953125 C1.267382812 3.606210938 1.351171875 4.692890625 1.4375 5.8125 C1.559316406 7.430917969 1.559316406 7.430917969 1.68359375 9.08203125 C1.902124613 12.059899047 1.902124613 12.059899047 3 15 C3.153620373 16.977151101 3.274172242 18.956954757 3.375 20.9375 C3.93496772 32.058502013 3.93496772 32.058502013 8.53125 41.859375 C10.304277821 43.414581144 10.304277821 43.414581144 13 45 C12.67 45.99 12.34 46.98 12 48 C4.8 47.52 4.8 47.52 1.5 45.375 C-0.531641293 42.158234619 -0.28668933 39.726961288 0 36 C0.33 36 0.66 36 1 36 C1.33 37.65 1.66 39.3 2 41 C2.99 41.33 3.98 41.66 5 42 C5.33 42.99 5.66 43.98 6 45 C7.32 45 8.64 45 10 45 C9.222695313 44.461171875 8.445390625 43.92234375 7.64453125 43.3671875 C2.265084099 38.551906889 1.186616093 31.006592617 0.75390625 24.03515625 C0.750499615 20.679620674 0.819176488 17.350257852 1 14 C0.34 14 -0.32 14 -1 14 C-1 16.31 -1 18.62 -1 21 C-3 19 -3 19 -3.25 16.625 C-3 14 -3 14 -2.0234375 12.1640625 C-0.823171973 9.626096463 -0.595302274 7.540495468 -0.375 4.75 C-0.300234375 3.85796875 -0.22546875 2.9659375 -0.1484375 2.046875 C-0.099453125 1.37140625 -0.05046875 0.6959375 0 0 Z " fill="#413E33" transform="translate(198,132)" />
<path d="M0 0 C1.136439657 3.409318971 0.867477639 4.00335456 -0.4375 7.1875 C-0.724960937 7.902929688 -1.012421875 8.618359375 -1.30859375 9.35546875 C-1.536757813 9.898164063 -1.764921875 10.440859375 -2 11 C-1.208059258 10.208059258 -0.44266371 9.389584064 0.3125 8.5625 C2.097187864 6.910011237 3.791091757 5.990200247 6 5 C6 6.65 6 8.3 6 10 C5.34 9.67 4.68 9.34 4 9 C1.03 14.61 -1.94 20.22 -5 26 C-3.074535599 27.149071198 -3.074535599 27.149071198 -1 27 C-2.312245481 30.936736443 -3.919103272 33.227192944 -7 36 C-6.70703125 33.981770833 -6.4140625 31.963541667 -6.12109375 29.9453125 C-5.831570301 27.918593333 -5.831570301 27.918593333 -7 26 C-7.33 25.01 -7.66 24.02 -8 23 C-8.33 22.34 -8.66 21.68 -9 21 C-7.968581181 18.337225342 -6.879659623 15.77704595 -5.6875 13.1875 C-5.04494449 11.764606537 -4.403003067 10.34143558 -3.76171875 8.91796875 C-3.304182129 7.90935791 -3.304182129 7.90935791 -2.837402344 6.880371094 C-1.826957011 4.611435246 -0.896436427 2.316173307 0 0 Z " fill="#918E81" transform="translate(194,90)" />
<path d="M0 0 C0.66 0.33 1.32 0.66 2 1 C1.209804687 1.6703125 0.419609375 2.340625 -0.39453125 3.03125 C-3.509628785 6.580686471 -3.961553268 8.876135467 -4.6875 13.5 C-5.416289516 17.971101324 -6.280454172 21.820756011 -8 26 C-7.737402168 28.480512224 -7.737402168 28.480512224 -7 31 C-6.660552046 32.998971285 -6.325783844 34.998756387 -6 37 C-4.35 37.33 -2.7 37.66 -1 38 C-1.66 37.175 -2.32 36.35 -3 35.5 C-5.446726262 31.720290256 -5.851480066 28.384066788 -5 24 C-3.532733483 19.577892261 -1.828581703 15.284105703 0 11 C1.303225763 14.927053633 0.303231054 17.052845082 -1.21484375 20.8515625 C-2.508902634 24.392519644 -2.93865769 27.196776806 -3 31 C-1.096430131 34.273105529 -1.096430131 34.273105529 1 37 C0.67 37.99 0.34 38.98 0 40 C-2.31 40 -4.62 40 -7 40 C-7.54506872 38.697378143 -8.059530592 37.381948895 -8.5625 36.0625 C-8.852539062 35.331601562 -9.142578125 34.600703125 -9.44140625 33.84765625 C-10.792582108 26.95949401 -8.66650865 19.467321643 -7.25 12.6875 C-7.0334375 11.510908203 -7.0334375 11.510908203 -6.8125 10.310546875 C-5.954979338 6.240781477 -5.441452483 4.425126578 -2.359375 1.45703125 C-1.58078125 0.976210938 -0.8021875 0.495390625 0 0 Z " fill="#373329" transform="translate(92,139)" />
<path d="M0 0 C1.61107914 4.02769785 0.477593964 7.059749429 -1 11 C-1.622617187 11.604570313 -2.245234375 12.209140625 -2.88671875 12.83203125 C-5.394776831 15.404992867 -6.612850709 17.937566576 -8.125 21.1875 C-10.788643533 26.894321767 -10.788643533 26.894321767 -13 28 C-13.66 27.34 -14.32 26.68 -15 26 C-14.01 25.67 -13.02 25.34 -12 25 C-10.947252405 21.532125568 -10.199951741 18.139174597 -9.57421875 14.57421875 C-8.412134107 8.400012515 -8.412134107 8.400012515 -5.875 5.9375 C-5.25625 5.628125 -4.6375 5.31875 -4 5 C-5.423125 4.8453125 -5.423125 4.8453125 -6.875 4.6875 C-10 4 -10 4 -12 1 C-8.7 1 -5.4 1 -2 1 C-2 1.66 -2 2.32 -2 3 C-1.34 2.01 -0.68 1.02 0 0 Z " fill="#CCC9BD" transform="translate(210,89)" />
<path d="M0 0 C1.65 0 3.3 0 5 0 C4.3125 2.0625 4.3125 2.0625 3.625 4.125 C3.217011719 5.364433594 3.217011719 5.364433594 2.80078125 6.62890625 C2.183668719 8.456161401 1.50976055 10.264301738 0.8125 12.0625 C-0.269912187 15.975836368 -0.327986653 18.932965504 0 23 C1.379267726 25.342616083 1.379267726 25.342616083 3 27 C3 27.66 3 28.32 3 29 C1.35 29 -0.3 29 -2 29 C-5.56680698 20.725007806 -4.301756337 15.746599081 -1.9375 7.125 C-1.751230469 6.436640625 -1.564960938 5.74828125 -1.373046875 5.0390625 C-0.917941888 3.358674858 -0.459333217 1.679236783 0 0 Z " fill="#DDD9CD" transform="translate(88,148)" />
</svg>