<?xml version='1.0' encoding='utf-8'?>
<svg xmlns="http://www.w3.org/2000/svg" version="1.1" width="170" height="154" viewBox="45.19921875 47.0 170.932785558 154.125">
<path d="M0 0 C1.98 0.495 1.98 0.495 4 1 C4.094746094 1.926191406 4.094746094 1.926191406 4.19140625 2.87109375 C5.119091874 9.286772225 7.09732095 12.936204607 11.2578125 17.84765625 C13.796967398 20.984594252 15.408506384 24.313656649 17 28 C17.287460937 28.600703125 17.574921875 29.20140625 17.87109375 29.8203125 C23.132004308 41.852442868 21.101487983 55.806744783 17.01953125 67.90625 C16 70 16 70 14 71 C9.951516759 71.264031516 7.5298694 70.933023719 4 69 C3.734453125 69.987421875 3.46890625 70.97484375 3.1953125 71.9921875 C2.838892469 73.286554982 2.482102341 74.580820594 2.125 75.875 C1.950976562 76.525976563 1.776953125 77.176953125 1.59765625 77.84765625 C0.2265625 82.7734375 0.2265625 82.7734375 -2 85 C-2.766641168 87.145141496 -2.766641168 87.145141496 -3.375 89.6875 C-3.62765625 90.660742188 -3.8803125 91.633984375 -4.140625 92.63671875 C-4.42421875 93.746601563 -4.7078125 94.856484375 -5 96 C-5.525777142 97.99684518 -6.056300287 99.992373951 -6.588378906 101.987548828 C-7.105926895 103.928471518 -7.619447173 105.870466826 -8.1328125 107.8125 C-8.698369596 109.891304463 -9.318730389 111.956191168 -10 114 C-10.403422434 118.045682628 -10.403422434 118.045682628 -10 122 C-7.666633343 125.003332667 -7.666633343 125.003332667 -5 127 C-5.33 127.99 -5.66 128.98 -6 130 C-7.98 130 -9.96 130 -12 130 C-12.33 129.01 -12.66 128.02 -13 127 C-14.485 126.505 -14.485 126.505 -16 126 C-17.340863417 123.318273166 -16.986596253 121.37321932 -16.875 118.375 C-16.784964018 110.334786816 -18.313705951 102.819184905 -20 95 C-23.227580375 111.581542137 -23.227580375 111.581542137 -20 127 C-20.375 129.1875 -20.375 129.1875 -21 131 C-22.65 131 -24.3 131 -26 131 C-26.33 130.01 -26.66 129.02 -27 128 C-27.515625 127.5875 -28.03125 127.175 -28.5625 126.75 C-30.828053635 123.991934705 -30.171415793 121.485454453 -30 118 C-29.808168527 112.003813198 -30.474817892 106.882500887 -32.34375 101.171875 C-33 99 -33 99 -33 96 C-33.7425 96.165 -34.485 96.33 -35.25 96.5 C-47.379538945 98.117271859 -55.954418663 95.709791027 -67 91 C-67.10828125 91.564609375 -67.2165625 92.12921875 -67.328125 92.7109375 C-68.106182464 95.361761185 -69.247268632 97.308934644 -70.75 99.625 C-71.23984375 100.401015625 -71.7296875 101.17703125 -72.234375 101.9765625 C-74.296498662 104.339792714 -76.041335439 105.064095904 -79 106 C-79.213332982 114.268557458 -79.213332982 114.268557458 -76.890625 121.97265625 C-75.443362039 123.435300569 -75.443362039 123.435300569 -73 125 C-71 127 -71 127 -71 130 C-71.66 130 -72.32 130 -73 130 C-74.366393415 128.360327902 -75.694941895 126.688898724 -77 125 C-77.698671875 124.4225 -78.39734375 123.845 -79.1171875 123.25 C-81.691020338 120.174216359 -81.407947826 118.198695645 -81.25 114.25 C-81.21390625 113.07953125 -81.1778125 111.9090625 -81.140625 110.703125 C-81.09421875 109.81109375 -81.0478125 108.9190625 -81 108 C-81.99 107.67 -82.98 107.34 -84 107 C-83.855625 107.6290625 -83.71125 108.258125 -83.5625 108.90625 C-82.369855526 114.405666185 -81.791728497 119.376669426 -82 125 C-82.99 124.505 -82.99 124.505 -84 124 C-85.588573039 116.772973274 -86.295568657 109.389216417 -86 102 C-89.526926722 103.130162546 -89.526926722 103.130162546 -93 105 C-94.827347253 110.865683723 -95.155505096 118.358845494 -92.6875 124 C-91.195017818 125.768867772 -89.716413432 127.447054514 -88 129 C-88.33 129.99 -88.66 130.98 -89 132 C-91.875 132.125 -91.875 132.125 -95 132 C-97.236375311 129.763624689 -97.838479707 127.903800734 -99 125 C-99.66 124.34 -100.32 123.68 -101 123 C-101.601810986 119.617669901 -101.653295769 116.178659246 -101.8125 112.75 C-101.876308594 111.807695313 -101.940117187 110.865390625 -102.005859375 109.89453125 C-102.283649621 104.315251105 -101.928581842 100.912459864 -99 96 C-97.924580083 91.961190904 -97.884616203 88.115192377 -97.90234375 83.94921875 C-97.904466171 82.961008835 -97.904466171 82.961008835 -97.90663147 81.952835083 C-97.912194998 79.86434238 -97.924740533 77.775959887 -97.9375 75.6875 C-97.942519722 74.264975515 -97.947081802 72.842449337 -97.951171875 71.419921875 C-97.962152428 67.946579232 -97.979391645 64.473300387 -98 61 C-101.834503587 69.021816301 -104.789998032 77.059065538 -107.404296875 85.544921875 C-109.693905976 92.719030391 -112.266374032 98.928505229 -119 103 C-124.985507246 103.507246377 -124.985507246 103.507246377 -128 102 C-127.80078125 100.1796875 -127.80078125 100.1796875 -127 98 C-124.614122318 96.339881103 -122.123140256 95.091726868 -119.54296875 93.7578125 C-113.286906835 89.433345739 -111.727018731 82.662043576 -109.625 75.75 C-104.539000495 59.882280377 -96.817071441 48.575501904 -82.05859375 40.36328125 C-72.569327839 35.557029685 -65.299349188 34.653848285 -55.15625 37.54296875 C-47.855478028 39.090414983 -40.913755966 38.358138467 -34.0078125 35.734375 C-27.918878237 33.507293985 -21.384052744 33.884393411 -15 34 C-15.33 33.01 -15.66 32.02 -16 31 C-15.34 31 -14.68 31 -14 31 C-13.01 32.485 -13.01 32.485 -12 34 C-8.916341292 34.250215697 -8.916341292 34.250215697 -6 34 C-10.455 32.02 -10.455 32.02 -15 30 C-14.67 29.34 -14.34 28.68 -14 28 C-8.544316299 30.124050769 -3.183653287 32.271761428 2 35 C-0.359530941 37.359530941 -1.778956175 37.491414133 -5 38 C-5 38.99 -5 39.98 -5 41 C-3.02 41.495 -3.02 41.495 -1 42 C-1.33 43.32 -1.66 44.64 -2 46 C-2.66 45.67 -3.32 45.34 -4 45 C-4 45.66 -4 46.32 -4 47 C-1.490343863 46.296604336 -1.490343863 46.296604336 1 45 C1.886933034 42.958943606 1.886933034 42.958943606 2 41 C1.01 40.67 0.02 40.34 -1 40 C-1 39.34 -1 38.68 -1 38 C1.475 37.505 1.475 37.505 4 37 C3.67 35.68 3.34 34.36 3 33 C5.64 33 8.28 33 11 33 C8.229776285 26.616441005 4.556267901 21.786358024 0.0234375 16.515625 C-1.699266296 14.373885146 -2.911648396 12.50437896 -4 10 C-4.66 10 -5.32 10 -6 10 C-6.99 8.515 -6.99 8.515 -8 7 C-8.992936282 9.978808847 -9.134064105 12.016011978 -9.125 15.125 C-9.127578125 16.014453125 -9.13015625 16.90390625 -9.1328125 17.8203125 C-9.24301985 19.97791088 -9.24301985 19.97791088 -8 21 C-8.495 19.02 -8.495 19.02 -9 17 C-5.838842244 18.369835027 -5.007290803 18.989063796 -3 22 C-3 23.32 -3 24.64 -3 26 C-4.32 26.33 -5.64 26.66 -7 27 C-12.896102819 21.103897181 -12.034710336 14.292711561 -12.0625 6.4375 C-12.046659983 4.624949484 -12.027600146 2.812409587 -12 1 C-8.218509242 1 -7.035651001 1.077421033 -4 3 C-3.01 4.485 -3.01 4.485 -2 6 C-1.34 4.02 -0.68 2.04 0 0 Z " fill="#CDB7A1" transform="translate(183,59)" />
<path d="M0 0 C1.98 0.495 1.98 0.495 4 1 C4.094746094 1.926191406 4.094746094 1.926191406 4.19140625 2.87109375 C5.119091874 9.286772225 7.09732095 12.936204607 11.2578125 17.84765625 C13.796967398 20.984594252 15.408506384 24.313656649 17 28 C17.287460937 28.600703125 17.574921875 29.20140625 17.87109375 29.8203125 C23.132004308 41.852442868 21.101487983 55.806744783 17.01953125 67.90625 C16 70 16 70 14 71 C9.951516759 71.264031516 7.5298694 70.933023719 4 69 C3.734453125 69.987421875 3.46890625 70.97484375 3.1953125 71.9921875 C2.838892469 73.286554982 2.482102341 74.580820594 2.125 75.875 C1.950976562 76.525976563 1.776953125 77.176953125 1.59765625 77.84765625 C0.2265625 82.7734375 0.2265625 82.7734375 -2 85 C-2.766641168 87.145141496 -2.766641168 87.145141496 -3.375 89.6875 C-3.62765625 90.660742188 -3.8803125 91.633984375 -4.140625 92.63671875 C-4.42421875 93.746601563 -4.7078125 94.856484375 -5 96 C-5.525777142 97.99684518 -6.056300287 99.992373951 -6.588378906 101.987548828 C-7.105926895 103.928471518 -7.619447173 105.870466826 -8.1328125 107.8125 C-8.698369596 109.891304463 -9.318730389 111.956191168 -10 114 C-10.403422434 118.045682628 -10.403422434 118.045682628 -10 122 C-7.666633343 125.003332667 -7.666633343 125.003332667 -5 127 C-5.33 127.99 -5.66 128.98 -6 130 C-7.98 130 -9.96 130 -12 130 C-12.33 129.01 -12.66 128.02 -13 127 C-14.485 126.505 -14.485 126.505 -16 126 C-17.340863417 123.318273166 -16.986596253 121.37321932 -16.875 118.375 C-16.784964018 110.334786816 -18.313705951 102.819184905 -20 95 C-23.227580375 111.581542137 -23.227580375 111.581542137 -20 127 C-20.375 129.1875 -20.375 129.1875 -21 131 C-22.65 131 -24.3 131 -26 131 C-26.33 130.01 -26.66 129.02 -27 128 C-27.515625 127.5875 -28.03125 127.175 -28.5625 126.75 C-30.828053635 123.991934705 -30.171415793 121.485454453 -30 118 C-29.808168527 112.003813198 -30.474817892 106.882500887 -32.34375 101.171875 C-33 99 -33 99 -33 96 C-33.7425 96.165 -34.485 96.33 -35.25 96.5 C-47.379538945 98.117271859 -55.954418663 95.709791027 -67 91 C-67.10828125 91.564609375 -67.2165625 92.12921875 -67.328125 92.7109375 C-68.106182464 95.361761185 -69.247268632 97.308934644 -70.75 99.625 C-71.23984375 100.401015625 -71.7296875 101.17703125 -72.234375 101.9765625 C-74.296498662 104.339792714 -76.041335439 105.064095904 -79 106 C-79.213332982 114.268557458 -79.213332982 114.268557458 -76.890625 121.97265625 C-75.443362039 123.435300569 -75.443362039 123.435300569 -73 125 C-71 127 -71 127 -71 130 C-71.66 130 -72.32 130 -73 130 C-74.366393415 128.360327902 -75.694941895 126.688898724 -77 125 C-77.698671875 124.4225 -78.39734375 123.845 -79.1171875 123.25 C-81.691020338 120.174216359 -81.407947826 118.198695645 -81.25 114.25 C-81.21390625 113.07953125 -81.1778125 111.9090625 -81.140625 110.703125 C-81.09421875 109.81109375 -81.0478125 108.9190625 -81 108 C-81.99 107.67 -82.98 107.34 -84 107 C-83.855625 107.6290625 -83.71125 108.258125 -83.5625 108.90625 C-82.369855526 114.405666185 -81.791728497 119.376669426 -82 125 C-82.99 124.505 -82.99 124.505 -84 124 C-85.588573039 116.772973274 -86.295568657 109.389216417 -86 102 C-89.526926722 103.130162546 -89.526926722 103.130162546 -93 105 C-94.827347253 110.865683723 -95.155505096 118.358845494 -92.6875 124 C-91.195017818 125.768867772 -89.716413432 127.447054514 -88 129 C-88.33 129.99 -88.66 130.98 -89 132 C-91.875 132.125 -91.875 132.125 -95 132 C-97.236375311 129.763624689 -97.838479707 127.903800734 -99 125 C-99.66 124.34 -100.32 123.68 -101 123 C-101.601810986 119.617669901 -101.653295769 116.178659246 -101.8125 112.75 C-101.876308594 111.807695313 -101.940117187 110.865390625 -102.005859375 109.89453125 C-102.283649621 104.315251105 -101.928581842 100.912459864 -99 96 C-97.924580083 91.961190904 -97.884616203 88.115192377 -97.90234375 83.94921875 C-97.904466171 82.961008835 -97.904466171 82.961008835 -97.90663147 81.952835083 C-97.912194998 79.86434238 -97.924740533 77.775959887 -97.9375 75.6875 C-97.942519722 74.264975515 -97.947081802 72.842449337 -97.951171875 71.419921875 C-97.962152428 67.946579232 -97.979391645 64.473300387 -98 61 C-101.834503587 69.021816301 -104.789998032 77.059065538 -107.404296875 85.544921875 C-109.693905976 92.719030391 -112.266374032 98.928505229 -119 103 C-124.985507246 103.507246377 -124.985507246 103.507246377 -128 102 C-127.80078125 100.1796875 -127.80078125 100.1796875 -127 98 C-124.614122318 96.339881103 -122.123140256 95.091726868 -119.54296875 93.7578125 C-113.286906835 89.433345739 -111.727018731 82.662043576 -109.625 75.75 C-104.539000495 59.882280377 -96.817071441 48.575501904 -82.05859375 40.36328125 C-72.569327839 35.557029685 -65.299349188 34.653848285 -55.15625 37.54296875 C-47.855478028 39.090414983 -40.913755966 38.358138467 -34.0078125 35.734375 C-27.918878237 33.507293985 -21.384052744 33.884393411 -15 34 C-15.33 33.01 -15.66 32.02 -16 31 C-15.34 31 -14.68 31 -14 31 C-13.01 32.485 -13.01 32.485 -12 34 C-8.916341292 34.250215697 -8.916341292 34.250215697 -6 34 C-10.455 32.02 -10.455 32.02 -15 30 C-14.67 29.34 -14.34 28.68 -14 28 C-8.544316299 30.124050769 -3.183653287 32.271761428 2 35 C-0.437731352 37.437731352 -1.610889065 37.614873757 -5 38 C-5.870117188 37.847890625 -6.740234375 37.69578125 -7.63671875 37.5390625 C-18.507999985 35.79662718 -28.866455646 36.438160816 -39.24609375 40.1015625 C-44.641224357 41.861676031 -49.27066767 41.198332586 -54.75 40 C-67.852444512 37.331721026 -76.881219618 39.847328241 -88 47 C-88.33 47.99 -88.66 48.98 -89 50 C-89.99 50.33 -90.98 50.66 -92 51 C-93.802662686 54.415571405 -94.218934 57.168655008 -94 61 C-93.198041992 60.75552124 -93.198041992 60.75552124 -92.379882812 60.506103516 C-89.506201497 59.894989301 -86.860342463 59.887939498 -83.921875 59.90234375 C-82.181640625 59.907177734 -82.181640625 59.907177734 -80.40625 59.912109375 C-78.59640625 59.924677734 -78.59640625 59.924677734 -76.75 59.9375 C-74.916953125 59.944267578 -74.916953125 59.944267578 -73.046875 59.951171875 C-70.031200538 59.962951853 -67.015625024 59.979401468 -64 60 C-64.99 61.32 -65.98 62.64 -67 64 C-66.67 64.66 -66.34 65.32 -66 66 C-67.98 66.99 -67.98 66.99 -70 68 C-69.67 68.66 -69.34 69.32 -69 70 C-70.65 70 -72.3 70 -74 70 C-74 69.34 -74 68.68 -74 68 C-73.01 67.34 -72.02 66.68 -71 66 C-71.99 66 -72.98 66 -74 66 C-74 66.33 -74 66.66 -74 67 C-74.929414063 67.060585937 -75.858828125 67.121171875 -76.81640625 67.18359375 C-85.941468852 67.795715525 -85.941468852 67.795715525 -95 69 C-94.67 69.66 -94.34 70.32 -94 71 C-92.2365625 70.505 -92.2365625 70.505 -90.4375 70 C-86.498832397 69.003046703 -83.04860871 68.83130797 -79 69 C-79 69.33 -79 69.66 -79 70 C-81.10320063 70.504048083 -83.207597912 71.003105081 -85.3125 71.5 C-86.484257813 71.7784375 -87.656015625 72.056875 -88.86328125 72.34375 C-92 73 -92 73 -95 73 C-94.988398437 74.073789062 -94.976796875 75.147578125 -94.96484375 76.25390625 C-94.955456847 77.690102413 -94.946357618 79.126300476 -94.9375 80.5625 C-94.929121094 81.266972656 -94.920742187 81.971445313 -94.912109375 82.697265625 C-94.891173972 87.240247981 -95.251993184 91.517848921 -96 96 C-95.030625 95.566875 -94.06125 95.13375 -93.0625 94.6875 C-89.449710364 93.127598976 -85.772878 91.90874022 -82.015625 90.74609375 C-79.734494978 89.990097673 -79.734494978 89.990097673 -77 88 C-76.505 86.515 -76.505 86.515 -76 85 C-75.01 85 -74.02 85 -73 85 C-73 84.01 -73 83.02 -73 82 C-74.175625 82.99 -74.175625 82.99 -75.375 84 C-78 86 -78 86 -80 86 C-78.646965105 81.940895315 -76.655632694 81.078693101 -73 79 C-71.68 79 -70.36 79 -69 79 C-68.426367188 78.269101562 -67.852734375 77.538203125 -67.26171875 76.78515625 C-64.285083379 73.119627718 -60.983328005 71.525860463 -56.8125 69.4375 C-56.053806152 69.04763916 -55.295112305 68.65777832 -54.513427734 68.256103516 C-40.286222038 61 -40.286222038 61 -37 61 C-37 60.01 -37 59.02 -37 58 C-37.544145508 58.201577148 -38.088291016 58.403154297 -38.648925781 58.610839844 C-41.140582453 59.533224336 -43.632785744 60.454123178 -46.125 61.375 C-46.9809375 61.692109375 -47.836875 62.00921875 -48.71875 62.3359375 C-53.124357058 63.962623183 -57.532200241 65.549796144 -62 67 C-59.372265223 63.829885803 -56.330878808 62.712496106 -52.5625 61.1875 C-40.249302929 56.65969069 -40.249302929 56.65969069 -30 49 C-28.515 49.495 -28.515 49.495 -27 50 C-27.57363911 53.872063994 -29.341058928 56.18465063 -32 59 C-32.99 59 -33.98 59 -35 59 C-35.33 61.31 -35.66 63.62 -36 66 C-37.65 66.66 -39.3 67.32 -41 68 C-41 68.66 -41 69.32 -41 70 C-42.32 70.33 -43.64 70.66 -45 71 C-44.21625 70.236875 -43.4325 69.47375 -42.625 68.6875 C-39.927422825 66.091081951 -39.927422825 66.091081951 -38 63 C-38.914952393 63.438684082 -38.914952393 63.438684082 -39.848388672 63.886230469 C-42.627305512 65.217470251 -45.407388594 66.546256826 -48.1875 67.875 C-49.147207031 68.335195313 -50.106914062 68.795390625 -51.095703125 69.26953125 C-52.027050781 69.714257812 -52.958398437 70.158984375 -53.91796875 70.6171875 C-54.771569824 71.02565918 -55.625170898 71.434130859 -56.504638672 71.854980469 C-58.225525087 72.644625052 -59.978375307 73.366901593 -61.751220703 74.031738281 C-64.576761158 75.248337287 -64.786881488 76.250264707 -66 79 C-67.333333333 80.333333333 -68.666666667 81.666666667 -70 83 C-70.697485832 84.317473239 -71.369599569 85.649141933 -72 87 C-69.791954407 87.792476637 -67.583575027 88.584001298 -65.375 89.375 C-63.530351563 90.036289063 -63.530351563 90.036289063 -61.6484375 90.7109375 C-60.444453125 91.136328125 -59.24046875 91.56171875 -58 92 C-57.016445312 92.380273437 -56.032890625 92.760546875 -55.01953125 93.15234375 C-51.350917566 94.182213309 -48.118161428 94.229154006 -44.3125 94.1875 C-43.009257812 94.181054687 -41.706015625 94.174609375 -40.36328125 94.16796875 C-37.006054003 94.151192467 -37.006054003 94.151192467 -34 93 C-33.962617188 92.336132813 -33.925234375 91.672265625 -33.88671875 90.98828125 C-33.510089703 85.929636212 -33.187947052 82.158191807 -30 78 C-29.67 78.66 -29.34 79.32 -29 80 C-29.302929688 80.750234375 -29.605859375 81.50046875 -29.91796875 82.2734375 C-32.853610811 89.670831573 -31.021240445 97.538616898 -28.7265625 104.8515625 C-27.621880973 109.638515782 -27.504761003 114.438758011 -27.379150391 119.338623047 C-27.398252944 123.630436869 -27.398252944 123.630436869 -25 127 C-25 127.99 -25 128.98 -25 130 C-24.01 130 -23.02 130 -22 130 C-22.474375 129.071875 -22.94875 128.14375 -23.4375 127.1875 C-25.544049688 122.890138637 -26.141834961 120.846651195 -25.125 116.25 C-24.202532151 111.655867357 -23.817421974 107.24316452 -23.625 102.5625 C-23.287827941 96.437207589 -22.11658939 91.30604715 -19.9375 85.5859375 C-19.02295481 83.063317018 -18.457446329 80.639846526 -18 78 C-17.34 78 -16.68 78 -16 78 C-16.115096611 79.417505631 -16.242536578 80.834011693 -16.375 82.25 C-16.444609375 83.03890625 -16.51421875 83.8278125 -16.5859375 84.640625 C-17.015071129 87.085876997 -17.786006378 88.848369028 -19 91 C-9.41531143 86.929100197 -9.41531143 86.929100197 -2 80 C-0.687541572 74.750166286 -0.890099404 69.385129214 -1 64 C-0.67 64 -0.34 64 0 64 C0.33 66.31 0.66 68.62 1 71 C1.597328192 68.237357113 2 65.83967231 2 63 C2.86625 63.825 3.7325 64.65 4.625 65.5 C7.178906413 67.658658992 7.866397513 67.987629399 11.375 68.3125 C12.24125 68.209375 13.1075 68.10625 14 68 C16.019895754 63.763943317 16.346357566 60.038158044 16.5625 55.375 C16.903559127 48.289322618 16.903559127 48.289322618 18 45 C13.71 45 9.42 45 5 45 C5.763125 45.94875 6.52625 46.8975 7.3125 47.875 C10.066044221 51.670846271 11.211441294 55.441559121 12.32421875 59.9609375 C12.547226562 60.633828125 12.770234375 61.30671875 13 62 C13.66 62.33 14.32 62.66 15 63 C15 63.66 15 64.32 15 65 C12.69 65 10.38 65 8 65 C8.20625 64.071875 8.4125 63.14375 8.625 62.1875 C9.366929662 58.848265977 9.366929662 58.848265977 7 56 C4.416198225 55.749690229 4.416198225 55.749690229 2 56 C2 54.68 2 53.36 2 52 C1.34 51.67 0.68 51.34 0 51 C-0.220368641 47.143548789 0.396448985 44.507767845 2 41 C1.01 40.67 0.02 40.34 -1 40 C-1 39.34 -1 38.68 -1 38 C1.475 37.505 1.475 37.505 4 37 C3.67 35.68 3.34 34.36 3 33 C5.64 33 8.28 33 11 33 C8.229776285 26.616441005 4.556267901 21.786358024 0.0234375 16.515625 C-1.699266296 14.373885146 -2.911648396 12.50437896 -4 10 C-4.66 10 -5.32 10 -6 10 C-6.99 8.515 -6.99 8.515 -8 7 C-8.992936282 9.978808847 -9.134064105 12.016011978 -9.125 15.125 C-9.127578125 16.014453125 -9.13015625 16.90390625 -9.1328125 17.8203125 C-9.24301985 19.97791088 -9.24301985 19.97791088 -8 21 C-8.495 19.02 -8.495 19.02 -9 17 C-5.838842244 18.369835027 -5.007290803 18.989063796 -3 22 C-3 23.32 -3 24.64 -3 26 C-4.32 26.33 -5.64 26.66 -7 27 C-12.896102819 21.103897181 -12.034710336 14.292711561 -12.0625 6.4375 C-12.046659983 4.624949484 -12.027600146 2.812409587 -12 1 C-8.218509242 1 -7.035651001 1.077421033 -4 3 C-3.01 4.485 -3.01 4.485 -2 6 C-1.34 4.02 -0.68 2.04 0 0 Z " fill="#4D473D" transform="translate(183,59)" />
<path d="M0 0 C-1.98 0.99 -1.98 0.99 -4 2 C-3.390031738 1.909121094 -2.780063477 1.818242188 -2.151611328 1.724609375 C0.627555601 1.312685346 3.407504509 0.906292955 6.1875 0.5 C7.627060547 0.285371094 7.627060547 0.285371094 9.095703125 0.06640625 C10.027050781 -0.068945313 10.958398437 -0.204296875 11.91796875 -0.34375 C12.771569824 -0.469433594 13.625170898 -0.595117187 14.504638672 -0.724609375 C17.024696753 -1.002725559 19.466857824 -1.047607997 22 -1 C18.591414135 2.408585865 13.677985352 2.930083944 9 3.125 C8.34 3.08375 7.68 3.0425 7 3 C7 3.66 7 4.32 7 5 C5.065243294 5.530933236 3.127068452 6.049423173 1.1875 6.5625 C0.108554688 6.852539062 -0.970390625 7.142578125 -2.08203125 7.44140625 C-5 8 -5 8 -8 7 C-8.66 7.66 -9.32 8.32 -10 9 C-12.062988281 9.502441406 -12.062988281 9.502441406 -14.5703125 9.8515625 C-15.466210937 9.98046875 -16.362109375 10.109375 -17.28515625 10.2421875 C-18.222304687 10.368515625 -19.159453125 10.49484375 -20.125 10.625 C-21.069882812 10.7590625 -22.014765625 10.893125 -22.98828125 11.03125 C-25.324579453 11.361635604 -27.661690715 11.684217501 -30 12 C-19.462263341 11.350540559 -19.462263341 11.350540559 -9 10 C-10.32 10.99 -11.64 11.98 -13 13 C-9.535 12.505 -9.535 12.505 -6 12 C-6.66 11.34 -7.32 10.68 -8 10 C-7.441271973 9.833952637 -6.882543945 9.667905273 -6.306884766 9.496826172 C-3.724969271 8.728567077 -1.143734212 7.958044864 1.4375 7.1875 C2.315996094 6.926464844 3.194492188 6.665429687 4.099609375 6.396484375 C9.188777816 4.875367608 14.216018855 3.265870614 19.207275391 1.446533203 C21 1 21 1 23 2 C17.487179487 5.717948718 17.487179487 5.717948718 14.625 7.375 C12.412227241 8.744811708 10.540886736 10.170396073 8.5234375 11.796875 C3.717227688 15.422612226 -1.447815506 17.623493461 -7 19.875 C-7.965507812 20.2771875 -8.931015625 20.679375 -9.92578125 21.09375 C-12.27987105 22.072678432 -14.637692769 23.041113361 -17 24 C-15.811484375 23.550117188 -14.62296875 23.100234375 -13.3984375 22.63671875 C-9.82743006 21.298181144 -6.240934884 20.025557847 -2.625 18.8125 C-1.606640625 18.468320312 -0.58828125 18.124140625 0.4609375 17.76953125 C3 17 3 17 5 17 C5 17.99 5 18.98 5 20 C4.339919434 20.307038574 3.679838867 20.614077148 2.999755859 20.930419922 C-0.02445119 22.342176084 -3.04345833 23.764733236 -6.0625 25.1875 C-7.100839844 25.670253906 -8.139179687 26.153007812 -9.208984375 26.650390625 C-15.509916947 29.630831746 -21.6469344 32.545563864 -26.566650391 37.614013672 C-28.336331602 39.325217937 -29.625072828 39.441193607 -32 40 C-35.66533601 41.828790564 -35.66533601 41.828790564 -38 45 C-37.21625 44.34 -36.4325 43.68 -35.625 43 C-33 41 -33 41 -31 41 C-31 41.99 -31 42.98 -31 44 C-31.99 44 -32.98 44 -34 44 C-34.020625 44.5775 -34.04125 45.155 -34.0625 45.75 C-35.557549971 49.338119931 -38.598714791 50.522242333 -42 52 C-45.301741922 53.128886043 -48.636128015 54.076699473 -52 55 C-53.485 55.495 -53.485 55.495 -55 56 C-54.34 48.08 -53.68 40.16 -53 32 C-50.03 31.01 -47.06 30.02 -44 29 C-46.97 29.66 -49.94 30.32 -53 31 C-53 30.01 -53 29.02 -53 28 C-47.670675679 26.299151812 -42.568905168 25.479860309 -37 25 C-37.33 24.34 -37.66 23.68 -38 23 C-34.7 23.33 -31.4 23.66 -28 24 C-28.66 24.99 -29.32 25.98 -30 27 C-30.66 27 -31.32 27 -32 27 C-32 27.66 -32 28.32 -32 29 C-29.330646128 27.220430752 -27.827157256 25.792588707 -25.8125 23.375 C-25.017792969 22.427539063 -25.017792969 22.427539063 -24.20703125 21.4609375 C-23.808710937 20.978828125 -23.410390625 20.49671875 -23 20 C-27.062484894 19.970902312 -31.124942858 19.953168264 -35.1875 19.9375 C-36.337988281 19.929121094 -37.488476562 19.920742187 -38.673828125 19.912109375 C-39.785644531 19.908886719 -40.897460938 19.905664062 -42.04296875 19.90234375 C-43.574737549 19.894488525 -43.574737549 19.894488525 -45.137451172 19.886474609 C-47.869016162 19.994805332 -50.341693737 20.382931317 -53 21 C-53.081744117 15.955220194 -52.49685188 11.946980713 -49.375 7.875 C-35.225743079 -6.593849993 -17.916124748 -3.344343286 0 0 Z " fill="#E2CAAF" transform="translate(141,100)" />
<path d="M0 0 C5.999323741 1.833126699 11.449205631 4.073217515 17 7 C14.562268648 9.437731352 13.389110935 9.614873757 10 10 C8.694824219 9.771835938 8.694824219 9.771835938 7.36328125 9.5390625 C-3.507999985 7.79662718 -13.866455646 8.438160816 -24.24609375 12.1015625 C-29.641224357 13.861676031 -34.27066767 13.198332586 -39.75 12 C-52.852444512 9.331721026 -61.881219618 11.847328241 -73 19 C-73.495 20.485 -73.495 20.485 -74 22 C-74.99 22.33 -75.98 22.66 -77 23 C-78.802662686 26.415571405 -79.218934 29.168655008 -79 33 C-78.198041992 32.75552124 -78.198041992 32.75552124 -77.379882812 32.506103516 C-74.506201497 31.894989301 -71.860342463 31.887939498 -68.921875 31.90234375 C-67.76171875 31.905566406 -66.6015625 31.908789063 -65.40625 31.912109375 C-63.59640625 31.924677734 -63.59640625 31.924677734 -61.75 31.9375 C-59.916953125 31.944267578 -59.916953125 31.944267578 -58.046875 31.951171875 C-55.031200538 31.962951853 -52.015625024 31.979401468 -49 32 C-49.99 33.32 -50.98 34.64 -52 36 C-51.67 36.66 -51.34 37.32 -51 38 C-52.32 38.66 -53.64 39.32 -55 40 C-54.67 40.66 -54.34 41.32 -54 42 C-55.65 42 -57.3 42 -59 42 C-59 41.34 -59 40.68 -59 40 C-58.01 39.34 -57.02 38.68 -56 38 C-56.99 38 -57.98 38 -59 38 C-59 38.33 -59 38.66 -59 39 C-59.929414063 39.060585938 -60.858828125 39.121171875 -61.81640625 39.18359375 C-70.941468852 39.795715525 -70.941468852 39.795715525 -80 41 C-79.67 41.66 -79.34 42.32 -79 43 C-77.2365625 42.505 -77.2365625 42.505 -75.4375 42 C-71.498832397 41.003046703 -68.04860871 40.83130797 -64 41 C-64 41.33 -64 41.66 -64 42 C-66.10320063 42.504048083 -68.207597912 43.003105081 -70.3125 43.5 C-71.484257813 43.7784375 -72.656015625 44.056875 -73.86328125 44.34375 C-77 45 -77 45 -80 45 C-79.988398437 46.073789062 -79.976796875 47.147578125 -79.96484375 48.25390625 C-79.955456847 49.690102413 -79.946357618 51.126300476 -79.9375 52.5625 C-79.929121094 53.266972656 -79.920742187 53.971445313 -79.912109375 54.697265625 C-79.891173972 59.240247981 -80.251993184 63.517848921 -81 68 C-80.030625 67.566875 -79.06125 67.13375 -78.0625 66.6875 C-74.449710364 65.127598976 -70.772878 63.90874022 -67.015625 62.74609375 C-64.734494978 61.990097673 -64.734494978 61.990097673 -62 60 C-61.67 59.01 -61.34 58.02 -61 57 C-60.01 57 -59.02 57 -58 57 C-58 56.01 -58 55.02 -58 54 C-59.175625 54.99 -59.175625 54.99 -60.375 56 C-63 58 -63 58 -65 58 C-63.646965105 53.940895315 -61.655632694 53.078693101 -58 51 C-56.68 51 -55.36 51 -54 51 C-53.426367188 50.269101562 -52.852734375 49.538203125 -52.26171875 48.78515625 C-49.285083379 45.119627718 -45.983328005 43.525860463 -41.8125 41.4375 C-41.053806152 41.04763916 -40.295112305 40.65777832 -39.513427734 40.256103516 C-25.286222038 33 -25.286222038 33 -22 33 C-22 32.01 -22 31.02 -22 30 C-22.544145508 30.201577148 -23.088291016 30.403154297 -23.648925781 30.610839844 C-26.140582453 31.533224336 -28.632785744 32.454123178 -31.125 33.375 C-31.9809375 33.692109375 -32.836875 34.00921875 -33.71875 34.3359375 C-38.124357058 35.962623183 -42.532200241 37.549796144 -47 39 C-44.372265223 35.829885803 -41.330878808 34.712496106 -37.5625 33.1875 C-25.249302929 28.65969069 -25.249302929 28.65969069 -15 21 C-13.515 21.495 -13.515 21.495 -12 22 C-12.57363911 25.872063994 -14.341058928 28.18465063 -17 31 C-17.99 31 -18.98 31 -20 31 C-20.33 33.31 -20.66 35.62 -21 38 C-22.65 38.66 -24.3 39.32 -26 40 C-26 40.66 -26 41.32 -26 42 C-27.32 42.33 -28.64 42.66 -30 43 C-29.21625 42.236875 -28.4325 41.47375 -27.625 40.6875 C-24.927422825 38.091081951 -24.927422825 38.091081951 -23 35 C-23.914952393 35.438684082 -23.914952393 35.438684082 -24.848388672 35.886230469 C-27.627305512 37.217470251 -30.407388594 38.546256826 -33.1875 39.875 C-34.147207031 40.335195312 -35.106914062 40.795390625 -36.095703125 41.26953125 C-37.027050781 41.714257812 -37.958398437 42.158984375 -38.91796875 42.6171875 C-39.771569824 43.02565918 -40.625170898 43.434130859 -41.504638672 43.854980469 C-43.225525087 44.644625052 -44.978375307 45.366901593 -46.751220703 46.031738281 C-49.576761158 47.248337287 -49.786881488 48.250264707 -51 51 C-52.333333333 52.333333333 -53.666666667 53.666666667 -55 55 C-56.23512079 57.133091925 -56.23512079 57.133091925 -57 59 C-56.01 59.66 -55.02 60.32 -54 61 C-55.010625 61.350625 -56.02125 61.70125 -57.0625 62.0625 C-60.172057604 63.372114081 -62.001269666 64.875805755 -64.25 67.375 C-67.858928392 71.280552643 -71.834193146 72.96036901 -76.7421875 74.859375 C-79.33710358 75.837692847 -79.33710358 75.837692847 -80 79 C-80.17322707 81.496173677 -80.276581182 83.939944829 -80.3125 86.4375 C-80.349882812 87.756210937 -80.387265625 89.074921875 -80.42578125 90.43359375 C-80.316260331 94.037318974 -80.316260331 94.037318974 -78.08984375 96.36328125 C-77.400195313 96.903398438 -76.710546875 97.443515625 -76 98 C-75 99 -74 100 -73 101 C-73.495 102.485 -73.495 102.485 -74 104 C-76.875 104.125 -76.875 104.125 -80 104 C-82.236375311 101.763624689 -82.838479707 99.903800734 -84 97 C-84.66 96.34 -85.32 95.68 -86 95 C-86.601810986 91.617669901 -86.653295769 88.178659246 -86.8125 84.75 C-86.876308594 83.807695313 -86.940117187 82.865390625 -87.005859375 81.89453125 C-87.283649621 76.315251105 -86.928581842 72.912459864 -84 68 C-82.924580083 63.961190904 -82.884616203 60.115192377 -82.90234375 55.94921875 C-82.904466171 54.961008835 -82.904466171 54.961008835 -82.90663147 53.952835083 C-82.912194998 51.86434238 -82.924740533 49.775959887 -82.9375 47.6875 C-82.942519722 46.264975515 -82.947081802 44.842449337 -82.951171875 43.419921875 C-82.962152428 39.946579232 -82.979391645 36.473300387 -83 33 C-86.834503587 41.021816301 -89.789998032 49.059065538 -92.404296875 57.544921875 C-94.693905976 64.719030391 -97.266374032 70.928505229 -104 75 C-109.985507246 75.507246377 -109.985507246 75.507246377 -113 74 C-112.80078125 72.1796875 -112.80078125 72.1796875 -112 70 C-109.614122318 68.339881103 -107.123140256 67.091726868 -104.54296875 65.7578125 C-98.286906835 61.433345739 -96.727018731 54.662043576 -94.625 47.75 C-89.539000495 31.882280377 -81.817071441 20.575501904 -67.05859375 12.36328125 C-57.569327839 7.557029685 -50.299349188 6.653848285 -40.15625 9.54296875 C-32.855478028 11.090414983 -25.913755966 10.358138467 -19.0078125 7.734375 C-12.918878237 5.507293985 -6.384052744 5.884393411 0 6 C-0.495 4.515 -0.495 4.515 -1 3 C-0.34 3 0.32 3 1 3 C1.99 4.485 1.99 4.485 3 6 C6.083658708 6.250215697 6.083658708 6.250215697 9 6 C4.545 4.02 4.545 4.02 0 2 C0 1.34 0 0.68 0 0 Z " fill="#B79B7E" transform="translate(168,87)" />
<path d="M0 0 C0 1.32 0 2.64 0 4 C1.32 4.33 2.64 4.66 4 5 C3.67 6.32 3.34 7.64 3 9 C2.01 8.505 2.01 8.505 1 8 C1 8.66 1 9.32 1 10 C2.65 10 4.3 10 6 10 C5.67 11.32 5.34 12.64 5 14 C6.32 14.66 7.64 15.32 9 16 C8.01 17.485 8.01 17.485 7 19 C10.930756442 18.425472537 10.930756442 18.425472537 14 16 C14.194914519 17.457360865 14.380693578 18.915945928 14.5625 20.375 C14.719121094 21.593164062 14.719121094 21.593164062 14.87890625 22.8359375 C15 25 15 25 14 27 C15.98 27.33 17.96 27.66 20 28 C20 27.34 20 26.68 20 26 C18.515 25.505 18.515 25.505 17 25 C15.9375 22.3828125 15.9375 22.3828125 15 19.125 C13.856128448 15.169110884 13.056629148 12.76138656 10 10 C10 9.34 10 8.68 10 8 C14.29 8 18.58 8 23 8 C23.252248941 15.441343761 22.690020986 22.728736867 21 30 C19 32 19 32 16.25 32.4375 C11.799536981 31.838399209 10.216662182 30.063487793 7 27 C7.495 28.485 7.495 28.485 8 30 C6.5 34.5 6.5 34.5 5 36 C4.814375 37.670625 4.814375 37.670625 4.625 39.375 C4.016883614 42.902075036 3.782155932 43.943623876 1 46 C-0.929089426 40.763900129 -1.984085792 35.468644565 -3 30 C-5.918325434 34.067272455 -6.337904358 36.84915617 -6.1875 41.8125 C-6.160429687 42.973945313 -6.133359375 44.135390625 -6.10546875 45.33203125 C-6.053261719 46.652675781 -6.053261719 46.652675781 -6 48 C-6.33 48 -6.66 48 -7 48 C-7.99 41.73 -8.98 35.46 -10 29 C-15.017918615 36.730307056 -16.550632076 44.056339397 -18 53 C-18.66 53 -19.32 53 -20 53 C-19.09920571 43.790386735 -17.377014289 36.186019091 -13 28 C-15.31 29.65 -17.62 31.3 -20 33 C-18.827911878 29.952570882 -17.291316782 28.335782883 -14.875 26.25 C-12.933179557 24.411868998 -12.088798755 23.491945104 -11.609375 20.8359375 C-11.591374195 18.384167063 -11.591374195 18.384167063 -12 15 C-12.66 15.845625 -13.32 16.69125 -14 17.5625 C-18.323573625 22.760642649 -23.574734049 27.000527773 -29 31 C-28.626537815 24.775630245 -27.029345033 22.432279536 -23 18 C-22.505 16.515 -22.505 16.515 -22 15 C-22.66 14.67 -23.32 14.34 -24 14 C-23.75390625 12.140625 -23.75390625 12.140625 -23 10 C-21.15234375 8.734375 -21.15234375 8.734375 -18.9375 7.75 C-17.837285156 7.247265625 -17.837285156 7.247265625 -16.71484375 6.734375 C-16.148945312 6.49203125 -15.583046875 6.2496875 -15 6 C-15.848203125 6.24234375 -16.69640625 6.4846875 -17.5703125 6.734375 C-26.046875 9.15625 -34.5234375 11.578125 -43 14 C-42.34 14.66 -41.68 15.32 -41 16 C-48.428571429 18.428571429 -48.428571429 18.428571429 -52 17 C-51.01 16.34 -50.02 15.68 -49 15 C-50.120195313 15.155976563 -51.240390625 15.311953125 -52.39453125 15.47265625 C-53.867139591 15.66962934 -55.339798555 15.866224227 -56.8125 16.0625 C-57.550488281 16.166269531 -58.288476562 16.270039063 -59.048828125 16.376953125 C-62.431747793 16.820865661 -64.720550245 17.093149918 -68 16 C-62.774129808 14.04435603 -57.751263006 13.381713038 -52.21484375 12.876953125 C-50.034139462 12.663543321 -50.034139462 12.663543321 -47 12 C-46.34 11.01 -45.68 10.02 -45 9 C-44.4225 9.165 -43.845 9.33 -43.25 9.5 C-38.74438916 10.501246853 -34.49448519 9.69145926 -30 9 C-30 8.34 -30 7.68 -30 7 C-25.71 6.01 -21.42 5.02 -17 4 C-18.111171875 4.132773438 -19.22234375 4.265546875 -20.3671875 4.40234375 C-28.238986839 5.338430487 -36.107968542 6.248377956 -44 7 C-41 5 -41 5 -37 5 C-37 4.34 -37 3.68 -37 3 C-24.969443334 -1.761209705 -12.693144758 -2.474258011 0 0 Z " fill="#BD9B79" transform="translate(178,96)" />
<path d="M0 0 C0.66 0 1.32 0 2 0 C1.482835013 2.585824937 0.712443082 4.600118786 -0.4375 7 C-2.361587504 11.30807885 -2.906356875 15.783916048 -3.5703125 20.42578125 C-4 23 -4 23 -5 25 C-4.34 25 -3.68 25 -3 25 C-2.87625 23.865625 -2.7525 22.73125 -2.625 21.5625 C-1.556626258 13.376447137 -0.208133487 6.659878013 5 0 C5.33 0 5.66 0 6 0 C6.66 3.96 7.32 7.92 8 12 C8 10.35 8 8.7 8 7 C9.5 3.6875 9.5 3.6875 11 1 C11.66 1.33 12.32 1.66 13 2 C13.63860769 4.697971021 14.168252418 7.33366623 14.625 10.0625 C14.82609375 11.200419922 14.82609375 11.200419922 15.03125 12.361328125 C15.362001225 14.239522581 15.682007336 16.119603379 16 18 C11.069480772 22.366010504 7.357797329 24.169725011 1 26 C1.99 21.71 2.98 17.42 4 13 C3.34 13 2.68 13 2 13 C1.896875 14.27875 1.79375 15.5575 1.6875 16.875 C1.321465308 20.25820637 0.668823546 23.224691722 -0.4375 26.4375 C-2.66888048 33.371106664 -3.105608285 40.605150129 -3.772705078 47.822509766 C-4.003140832 50.03008924 -4.321138166 52.214513584 -4.64453125 54.41015625 C-5.362129774 57.94098565 -5.362129774 57.94098565 -3.5625 60.3125 C-3.046875 60.869375 -2.53125 61.42625 -2 62 C-2 62.99 -2 63.98 -2 65 C-2.99 65 -3.98 65 -5 65 C-8.361304392 60.956921604 -8.424554139 56.91087153 -8.5 51.875 C-8.674509761 46.739817775 -9.011965664 42.127574512 -10.5625 37.1875 C-12.70263527 30.359946506 -13.026214202 22.912004898 -11 16 C-12.98 18.97 -12.98 18.97 -15 22 C-15.99 21.67 -16.98 21.34 -18 21 C-18.33 20.01 -18.66 19.02 -19 18 C-17.70703125 15.9921875 -17.70703125 15.9921875 -15.8125 13.875 C-15.200195312 13.171171875 -14.587890625 12.46734375 -13.95703125 11.7421875 C-12 10 -12 10 -10.01953125 9.54296875 C-7.004346873 8.732309894 -5.829394325 6.811754703 -3.875 4.4375 C-2.623649322 2.924073991 -1.339906415 1.435614016 0 0 Z " fill="#D1C2AF" transform="translate(163,124)" />
<path d="M0 0 C0.33 0.66 0.66 1.32 1 2 C-0.32 3.65 -1.64 5.3 -3 7 C-2.01 7 -1.02 7 0 7 C-0.33 7.78375 -0.66 8.5675 -1 9.375 C-2.118665109 11.843324973 -2.118665109 11.843324973 -2 14 C-1.1028125 12.7625 -1.1028125 12.7625 -0.1875 11.5 C0.534375 10.675 1.25625 9.85 2 9 C2.99 9 3.98 9 5 9 C5.014179687 9.617460937 5.028359375 10.234921875 5.04296875 10.87109375 C5.327836871 15.929427675 5.996012153 19.468087551 8.6875 23.8125 C11.069134452 27.668154629 11.069134452 27.668154629 10.375 31 C9 33 9 33 8 34 C7.814375 35.670625 7.814375 35.670625 7.625 37.375 C7.016883614 40.902075036 6.782155932 41.943623876 4 44 C2.070910574 38.763900129 1.015914208 33.468644565 0 28 C-2.918325434 32.067272455 -3.337904358 34.84915617 -3.1875 39.8125 C-3.160429687 40.973945313 -3.133359375 42.135390625 -3.10546875 43.33203125 C-3.053261719 44.652675781 -3.053261719 44.652675781 -3 46 C-3.33 46 -3.66 46 -4 46 C-5.485 36.595 -5.485 36.595 -7 27 C-12.017918615 34.730307056 -13.550632076 42.056339397 -15 51 C-15.66 51 -16.32 51 -17 51 C-16.09920571 41.790386735 -14.377014289 34.186019091 -10 26 C-13.465 28.475 -13.465 28.475 -17 31 C-15.827911878 27.952570882 -14.291316782 26.335782883 -11.875 24.25 C-9.933179557 22.411868998 -9.088798755 21.491945104 -8.609375 18.8359375 C-8.591374195 16.384167063 -8.591374195 16.384167063 -9 13 C-9.99 14.2684375 -9.99 14.2684375 -11 15.5625 C-15.323573625 20.760642649 -20.574734049 25.000527773 -26 29 C-25.626537815 22.775630245 -24.029345033 20.432279536 -20 16 C-19.67 15.01 -19.34 14.02 -19 13 C-19.66 12.67 -20.32 12.34 -21 12 C-20.67 10.68 -20.34 9.36 -20 8 C-18.02 8 -16.04 8 -14 8 C-14.99 8.99 -15.98 9.98 -17 11 C-16.34 11.33 -15.68 11.66 -15 12 C-13.63875 11.071875 -13.63875 11.071875 -12.25 10.125 C-9.850511826 8.556103886 -7.590383882 7.195561792 -5 6 C-5 5.34 -5 4.68 -5 4 C-4.34 4 -3.68 4 -3 4 C-3 3.34 -3 2.68 -3 2 C-2.01 1.34 -1.02 0.68 0 0 Z " fill="#C4AE91" transform="translate(175,98)" />
<path d="M0 0 C0.495 0.99 0.495 0.99 1 2 C0.697070312 2.750234375 0.394140625 3.50046875 0.08203125 4.2734375 C-2.853610811 11.670831573 -1.021240445 19.538616898 1.2734375 26.8515625 C2.378119027 31.638515782 2.495238997 36.438758011 2.620849609 41.338623047 C2.601747056 45.630436869 2.601747056 45.630436869 5 49 C5 49.99 5 50.98 5 52 C5.99 52 6.98 52 8 52 C7.525625 51.071875 7.05125 50.14375 6.5625 49.1875 C4.455950312 44.890138637 3.858165039 42.846651195 4.875 38.25 C5.797467849 33.655867357 6.182578026 29.24316452 6.375 24.5625 C6.712172059 18.437207589 7.88341061 13.30604715 10.0625 7.5859375 C10.97704519 5.063317018 11.542553671 2.639846526 12 0 C12.66 0 13.32 0 14 0 C13.884903389 1.417505631 13.757463422 2.834011693 13.625 4.25 C13.555390625 5.03890625 13.48578125 5.8278125 13.4140625 6.640625 C12.984928871 9.085876997 12.213993622 10.848369028 11 13 C11.99 13.495 11.99 13.495 13 14 C13 18.29 13 22.58 13 27 C10.703661755 23.555492633 10.459835152 21.061877172 10 17 C6.772419625 33.581542137 6.772419625 33.581542137 10 49 C9.625 51.1875 9.625 51.1875 9 53 C7.35 53 5.7 53 4 53 C3.67 52.01 3.34 51.02 3 50 C2.2265625 49.38125 2.2265625 49.38125 1.4375 48.75 C-0.828053635 45.991934705 -0.171415793 43.485454453 0 40 C0.191831473 34.003813198 -0.474817892 28.882500887 -2.34375 23.171875 C-3 21 -3 21 -3 18 C-4.11375 18.2475 -4.11375 18.2475 -5.25 18.5 C-17.379538945 20.117271859 -25.954418663 17.709791027 -37 13 C-37.10828125 13.564609375 -37.2165625 14.12921875 -37.328125 14.7109375 C-38.106182464 17.361761185 -39.247268632 19.308934644 -40.75 21.625 C-41.23984375 22.401015625 -41.7296875 23.17703125 -42.234375 23.9765625 C-44.296498662 26.339792714 -46.041335439 27.064095904 -49 28 C-49.213332982 36.268557458 -49.213332982 36.268557458 -46.890625 43.97265625 C-45.443362039 45.435300569 -45.443362039 45.435300569 -43 47 C-41 49 -41 49 -41 52 C-41.66 52 -42.32 52 -43 52 C-44.366393415 50.360327902 -45.694941895 48.688898724 -47 47 C-47.698671875 46.4225 -48.39734375 45.845 -49.1171875 45.25 C-51.691020338 42.174216359 -51.407947826 40.198695645 -51.25 36.25 C-51.21390625 35.07953125 -51.1778125 33.9090625 -51.140625 32.703125 C-51.09421875 31.81109375 -51.0478125 30.9190625 -51 30 C-51.99 29.67 -52.98 29.34 -54 29 C-53.855625 29.6290625 -53.71125 30.258125 -53.5625 30.90625 C-52.369855526 36.405666185 -51.791728497 41.376669426 -52 47 C-52.66 46.67 -53.32 46.34 -54 46 C-55.588573039 38.772973274 -56.295568657 31.389216417 -56 24 C-59.526926722 25.130162546 -59.526926722 25.130162546 -63 27 C-64.083749956 30.459663321 -64.162157003 33.891157239 -64.1875 37.5 C-64.201679688 38.4178125 -64.215859375 39.335625 -64.23046875 40.28125 C-63.983425211 43.195526329 -63.212938848 45.353587967 -62 48 C-65.117742241 45.584673995 -65.940971704 44.452216778 -66.4609375 40.46875 C-66.432578125 39.1590625 -66.40421875 37.849375 -66.375 36.5 C-66.362109375 35.1903125 -66.34921875 33.880625 -66.3359375 32.53125 C-65.844319164 27.363540982 -65.844319164 27.363540982 -64 25 C-61.42578125 23.54296875 -61.42578125 23.54296875 -58.3125 22.1875 C-53.37447243 19.86372232 -49.916217661 17.48767811 -46.3046875 13.41796875 C-44.332941957 11.275023744 -43.099471708 11.011052412 -40.1875 10.6875 C-35.001463887 10.73154277 -25.729144171 12.270855829 -22 16 C-19.530182311 16.1002074 -17.094487761 16.138770378 -14.625 16.125 C-13.93921875 16.128867187 -13.2534375 16.132734375 -12.546875 16.13671875 C-9.427773619 16.130650459 -6.980243651 15.99341455 -4 15 C-3.962617188 14.336132813 -3.925234375 13.672265625 -3.88671875 12.98828125 C-3.510089703 7.929636212 -3.187947052 4.158191807 0 0 Z " fill="#30281E" transform="translate(153,137)" />
<path d="M0 0 C5.999323741 1.833126699 11.449205631 4.073217515 17 7 C14.562268648 9.437731352 13.389110935 9.614873757 10 10 C8.694824219 9.771835938 8.694824219 9.771835938 7.36328125 9.5390625 C-3.507999985 7.79662718 -13.866455646 8.438160816 -24.24609375 12.1015625 C-29.641224357 13.861676031 -34.27066767 13.198332586 -39.75 12 C-52.852444512 9.331721026 -61.881219618 11.847328241 -73 19 C-73.495 20.485 -73.495 20.485 -74 22 C-74.99 22.33 -75.98 22.66 -77 23 C-80.476933195 30.756235588 -80.679799516 38.619580427 -81 47 C-81.33 47 -81.66 47 -82 47 C-82.33 42.38 -82.66 37.76 -83 33 C-86.936450435 40.992187247 -89.783144924 49.057326545 -92.412353516 57.561279297 C-94.692724706 64.730522868 -97.274938797 70.933683924 -104 75 C-109.985507246 75.507246377 -109.985507246 75.507246377 -113 74 C-112.80078125 72.1796875 -112.80078125 72.1796875 -112 70 C-109.614122318 68.339881103 -107.123140256 67.091726868 -104.54296875 65.7578125 C-98.286906835 61.433345739 -96.727018731 54.662043576 -94.625 47.75 C-89.539000495 31.882280377 -81.817071441 20.575501904 -67.05859375 12.36328125 C-57.569327839 7.557029685 -50.299349188 6.653848285 -40.15625 9.54296875 C-32.855478028 11.090414983 -25.913755966 10.358138467 -19.0078125 7.734375 C-12.918878237 5.507293985 -6.384052744 5.884393411 0 6 C-0.495 4.515 -0.495 4.515 -1 3 C-0.34 3 0.32 3 1 3 C1.99 4.485 1.99 4.485 3 6 C6.083658708 6.250215697 6.083658708 6.250215697 9 6 C4.545 4.02 4.545 4.02 0 2 C0 1.34 0 0.68 0 0 Z " fill="#383025" transform="translate(168,87)" />
<path d="M0 0 C1.32 0.33 2.64 0.66 4 1 C4.063164062 1.617460937 4.126328125 2.234921875 4.19140625 2.87109375 C5.119034413 9.286374834 7.099329495 12.932990608 11.25390625 17.84765625 C15.662836159 23.282377457 17.552486231 29.244935745 19 36 C15.04 35.34 11.08 34.68 7 34 C7.33 35.65 7.66 37.3 8 39 C7.01 38.34 6.02 37.68 5 37 C5 36.01 5 35.02 5 34 C4.34 33.67 3.68 33.34 3 33 C5.64 33 8.28 33 11 33 C8.229776285 26.616441005 4.556267901 21.786358024 0.0234375 16.515625 C-1.699266296 14.373885146 -2.911648396 12.50437896 -4 10 C-4.66 10 -5.32 10 -6 10 C-6.66 9.01 -7.32 8.02 -8 7 C-8.992936282 9.978808847 -9.134064105 12.016011978 -9.125 15.125 C-9.127578125 16.014453125 -9.13015625 16.90390625 -9.1328125 17.8203125 C-9.24301985 19.97791088 -9.24301985 19.97791088 -8 21 C-8.33 19.68 -8.66 18.36 -9 17 C-5.838842244 18.369835027 -5.007290803 18.989063796 -3 22 C-3 23.32 -3 24.64 -3 26 C-4.32 26.33 -5.64 26.66 -7 27 C-12.896102819 21.103897181 -12.034710336 14.292711561 -12.0625 6.4375 C-12.046659983 4.624949484 -12.027600146 2.812409587 -12 1 C-8.218509242 1 -7.035651001 1.077421033 -4 3 C-3.01 4.485 -3.01 4.485 -2 6 C-1.34 4.02 -0.68 2.04 0 0 Z " fill="#65635A" transform="translate(183,59)" />
<path d="M0 0 C1.9375 0.3125 1.9375 0.3125 4 1 C4.33 1.99 4.66 2.98 5 4 C5.99 4.33 6.98 4.66 8 5 C8.774997476 8.099989902 9.026477877 10.888955711 8.9375 14.0625 C8.993277372 17.576474413 9.104208673 19.156313009 11 22 C10.01 22 9.02 22 8 22 C10.46278801 24.46278801 12.706769819 24.997712554 16 26 C16.33 25.01 16.66 24.02 17 23 C17.66 23.33 18.32 23.66 19 24 C17.076083508 18.685885059 17.076083508 18.685885059 13 15 C13.515625 15.78375 14.03125 16.5675 14.5625 17.375 C15.2740625 18.674375 15.2740625 18.674375 16 20 C15.67 20.66 15.34 21.32 15 22 C12.318012356 18.942958675 11.607128026 17.055693453 11.6875 13 C11.691367187 12.154375 11.695234375 11.30875 11.69921875 10.4375 C12.014237262 7.884622709 12.716030039 6.20986065 14 4 C14.66 5.32 15.32 6.64 16 8 C16.66 8 17.32 8 18 8 C21.211526997 11.489144262 24.081193273 15.264532323 27 19 C27.550429688 19.697382812 28.100859375 20.394765625 28.66796875 21.11328125 C31.164794296 24.415534391 32.340793567 26.948627128 33 31 C26.258434166 31.453638075 21.121622938 31.182182301 15.06640625 28.0625 C13.128853775 27.066253737 11.245134743 26.386484201 9.1875 25.6875 C5.932073165 23.964038734 4.311532823 22.475942314 2.63671875 19.17578125 C1.583931456 15.57821976 1.819177143 12.067316773 2.0546875 8.35546875 C2.266727695 5.806391943 2.266727695 5.806391943 0 4 C0 2.68 0 1.36 0 0 Z " fill="#E3DFD4" transform="translate(161,61)" />
<path d="M0 0 C-1.98 0.99 -1.98 0.99 -4 2 C-3.390031738 1.909121094 -2.780063477 1.818242188 -2.151611328 1.724609375 C0.627555601 1.312685346 3.407504509 0.906292955 6.1875 0.5 C7.627060547 0.285371094 7.627060547 0.285371094 9.095703125 0.06640625 C10.027050781 -0.068945313 10.958398437 -0.204296875 11.91796875 -0.34375 C13.198370361 -0.532275391 13.198370361 -0.532275391 14.504638672 -0.724609375 C17.024696753 -1.002725559 19.466857824 -1.047607997 22 -1 C18.591414135 2.408585865 13.677985352 2.930083944 9 3.125 C8.34 3.08375 7.68 3.0425 7 3 C7 3.66 7 4.32 7 5 C5.065243294 5.530933236 3.127068452 6.049423173 1.1875 6.5625 C0.108554688 6.852539062 -0.970390625 7.142578125 -2.08203125 7.44140625 C-5 8 -5 8 -8 7 C-8.66 7.33 -9.32 7.66 -10 8 C-10 7.34 -10 6.68 -10 6 C-10.99 6 -11.98 6 -13 6 C-13.33 6.66 -13.66 7.32 -14 8 C-16.792562192 7.886383979 -19.583441184 7.7596411 -22.375 7.625 C-23.1690625 7.5940625 -23.963125 7.563125 -24.78125 7.53125 C-30.7734375 7.2265625 -30.7734375 7.2265625 -33 5 C-29.37 5 -25.74 5 -22 5 C-25.712794687 3.762401771 -29.313063456 3.64391103 -33.1875 3.4375 C-33.937089844 3.394316406 -34.686679688 3.351132812 -35.458984375 3.306640625 C-37.305783748 3.200773145 -39.152868343 3.099902403 -41 3 C-28.442116496 -6.661992265 -14.481740882 -2.703258298 0 0 Z " fill="#F0D6B9" transform="translate(141,100)" />
<path d="M0 0 C0.33 0 0.66 0 1 0 C1.66 3.96 2.32 7.92 3 12 C3 10.35 3 8.7 3 7 C4.5 3.6875 4.5 3.6875 6 1 C6.66 1.33 7.32 1.66 8 2 C8.63860769 4.697971021 9.168252418 7.33366623 9.625 10.0625 C9.7590625 10.821113281 9.893125 11.579726563 10.03125 12.361328125 C10.362001225 14.239522581 10.682007336 16.119603379 11 18 C6.069480772 22.366010504 2.357797329 24.169725011 -4 26 C-3.01 21.71 -2.02 17.42 -1 13 C-1.66 13 -2.32 13 -3 13 C-3.0825 14.299375 -3.165 15.59875 -3.25 16.9375 C-3.948705363 23.347362241 -6.44944651 28.674169765 -10 34 C-10.99 34 -11.98 34 -13 34 C-12.442710874 30.656265246 -11.648261114 27.966870005 -10 25 C-9.34 25 -8.68 25 -8 25 C-7.814375 23.2984375 -7.814375 23.2984375 -7.625 21.5625 C-6.556626258 13.376447137 -5.208133487 6.659878013 0 0 Z " fill="#ECDECA" transform="translate(168,124)" />
<path d="M0 0 C4.29 0 8.58 0 13 0 C13.252248941 7.441343761 12.690020986 14.728736867 11 22 C9 24 9 24 6.3125 24.5 C1.589320389 23.787067229 -0.844625048 21.474099695 -4 18 C-7.208451319 13.239072236 -7.557878932 9.578789315 -7 4 C-6.01 3.34 -5.02 2.68 -4 2 C-4.33 3.32 -4.66 4.64 -5 6 C-3.68 6.66 -2.36 7.32 -1 8 C-1.99 9.485 -1.99 9.485 -3 11 C0.930756442 10.425472537 0.930756442 10.425472537 4 8 C4.194914519 9.457360865 4.380693578 10.915945928 4.5625 12.375 C4.666914063 13.187109375 4.771328125 13.99921875 4.87890625 14.8359375 C5 17 5 17 4 19 C5.98 19.33 7.96 19.66 10 20 C10 19.34 10 18.68 10 18 C9.01 17.67 8.02 17.34 7 17 C5.9375 14.3828125 5.9375 14.3828125 5 11.125 C3.856128448 7.169110884 3.056629148 4.76138656 0 2 C0 1.34 0 0.68 0 0 Z " fill="#DED8CB" transform="translate(188,104)" />
<path d="M0 0 C0 0.99 0 1.98 0 3 C-0.99012085 3.460557861 -0.99012085 3.460557861 -2.000244141 3.930419922 C-5.02445119 5.342176084 -8.04345833 6.764733236 -11.0625 8.1875 C-12.100839844 8.670253906 -13.139179687 9.153007812 -14.208984375 9.650390625 C-20.509916947 12.630831746 -26.6469344 15.545563864 -31.566650391 20.614013672 C-33.336331602 22.325217937 -34.625072828 22.441193607 -37 23 C-40.66533601 24.828790564 -40.66533601 24.828790564 -43 28 C-42.21625 27.34 -41.4325 26.68 -40.625 26 C-38 24 -38 24 -36 24 C-36 24.99 -36 25.98 -36 27 C-36.99 27 -37.98 27 -39 27 C-39.020625 27.5775 -39.04125 28.155 -39.0625 28.75 C-40.557549971 32.338119931 -43.598714791 33.522242333 -47 35 C-50.301741922 36.128886043 -53.636128015 37.076699473 -57 38 C-58.485 38.495 -58.485 38.495 -60 39 C-60 38.34 -60 37.68 -60 37 C-55.494598844 33.315583055 -50.661777822 30.451737903 -45 29 C-45.99 28.67 -46.98 28.34 -48 28 C-46.848266448 25.531999531 -45.952164345 23.952164345 -44 22 C-44.33 21.34 -44.66 20.68 -45 20 C-44.360625 19.896875 -43.72125 19.79375 -43.0625 19.6875 C-42.381875 19.460625 -41.70125 19.23375 -41 19 C-40.67 18.01 -40.34 17.02 -40 16 C-39.34 16 -38.68 16 -38 16 C-38.165 16.639375 -38.33 17.27875 -38.5 17.9375 C-39.039266671 19.808268208 -39.039266671 19.808268208 -39 21 C-37.457691063 19.771639325 -35.916187407 18.542267532 -34.375 17.3125 C-33.45203125 16.5803125 -32.5290625 15.848125 -31.578125 15.09375 C-29.701554251 13.569747089 -27.891018113 11.963343019 -26.125 10.3125 C-19.658248863 5.527104159 -8.286083881 0 0 0 Z " fill="#F2DBC4" transform="translate(146,117)" />
<path d="M0 0 C0.807597656 -0.012246094 1.615195312 -0.024492188 2.447265625 -0.037109375 C6.816022552 -0.047843422 10.210040588 0.146329146 14.1875 2.1875 C14.1875 2.5175 14.1875 2.8475 14.1875 3.1875 C10.5575 3.1875 6.9275 3.1875 3.1875 3.1875 C5.937152283 3.382617247 8.686921316 3.568864331 11.4375 3.75 C12.603457031 3.834111328 12.603457031 3.834111328 13.79296875 3.919921875 C14.547070312 3.968261719 15.301171875 4.016601562 16.078125 4.06640625 C16.769384766 4.113537598 17.460644531 4.160668945 18.172851562 4.209228516 C20.323670723 4.186031363 22.128348715 3.787076404 24.1875 3.1875 C24.1875 4.1775 24.1875 5.1675 24.1875 6.1875 C14.2875 7.6725 14.2875 7.6725 4.1875 9.1875 C14.725925775 8.533008772 14.725925775 8.533008772 25.1875 7.1875 C20.040222986 11.34491605 16.282735818 13.498981844 9.5625 12.9375 C7.436622464 12.695075369 5.311635791 12.444739466 3.1875 12.1875 C0.938256128 11.99113744 -1.311748386 11.803251014 -3.5625 11.625 C-5.3125 11.479166667 -7.0625 11.333333333 -8.8125 11.1875 C-8.1525 9.8675 -7.4925 8.5475 -6.8125 7.1875 C-5.1625 7.1875 -3.5125 7.1875 -1.8125 7.1875 C-6.2675 6.1975 -6.2675 6.1975 -10.8125 5.1875 C-10.8125 3.8675 -10.8125 2.5475 -10.8125 1.1875 C-7.452280435 -0.492609783 -3.691521881 0.002904423 0 0 Z " fill="#F4E1CB" transform="translate(106.8125,102.8125)" />
<path d="M0 0 C1 2 1 2 0.28515625 4.23046875 C-0.118320313 5.206289063 -0.521796875 6.182109375 -0.9375 7.1875 C-2.740849507 11.680761901 -4.424264053 16.178949126 -5.9765625 20.765625 C-6.492952881 22.288934326 -6.492952881 22.288934326 -7.019775391 23.843017578 C-7.705191753 25.877120223 -8.384261198 27.913374603 -9.056396484 29.951904297 C-11.538744993 37.276349423 -14.080106561 43.815878386 -21 48 C-26.985507246 48.507246377 -26.985507246 48.507246377 -30 47 C-29.80078125 45.1796875 -29.80078125 45.1796875 -29 43 C-26.614122318 41.339881103 -24.123140256 40.091726868 -21.54296875 38.7578125 C-14.478982872 33.874872953 -12.979156646 25.305522153 -10.64453125 17.5234375 C-9.128607973 12.694433035 -8.054678872 9.280004453 -4 6 C-2.63178949 4.02369593 -1.290488077 2.027909835 0 0 Z " fill="#5F5C54" transform="translate(85,114)" />
<path d="M0 0 C0.33 0 0.66 0 1 0 C1.074939359 4.374152763 1.12896881 8.747951553 1.164794922 13.122558594 C1.179751837 14.606348891 1.200124946 16.090095992 1.226318359 17.573730469 C1.524352974 34.90648864 1.524352974 34.90648864 -2 42 C-2.99 42.495 -2.99 42.495 -4 43 C-5.192874115 39.123159128 -6 36.083780765 -6 32 C-9.184900065 31.722649902 -9.184900065 31.722649902 -12 34 C-9.026067462 22.370231293 -5.818749345 10.559952516 0 0 Z " fill="#E6E0D4" transform="translate(85,118)" />
<path d="M0 0 C0.99 0.99 1.98 1.98 3 3 C3 2.01 3 1.02 3 0 C7.548056354 -0.178355151 10.879425398 0.002145648 15 2 C15 4.31 15 6.62 15 9 C10.126738996 10.591268899 6.19209404 11.211922206 1 11 C2.1446875 12.423125 2.1446875 12.423125 3.3125 13.875 C6.066044221 17.670846271 7.211441294 21.441559121 8.32421875 25.9609375 C8.547226562 26.633828125 8.770234375 27.30671875 9 28 C9.66 28.33 10.32 28.66 11 29 C11 29.66 11 30.32 11 31 C8.69 31 6.38 31 4 31 C4.309375 29.6078125 4.309375 29.6078125 4.625 28.1875 C5.366929662 24.848265977 5.366929662 24.848265977 3 22 C0.416198225 21.749690229 0.416198225 21.749690229 -2 22 C-2 20.68 -2 19.36 -2 18 C-2.66 17.67 -3.32 17.34 -4 17 C-4.220368641 13.143548789 -3.603551015 10.507767845 -2 7 C-2.99 6.67 -3.98 6.34 -5 6 C-5 5.34 -5 4.68 -5 4 C-3.35 3.67 -1.7 3.34 0 3 C0 2.01 0 1.02 0 0 Z " fill="#8D887D" transform="translate(187,93)" />
<path d="M0 0 C0.66 0.33 1.32 0.66 2 1 C3.334207079 0.670181322 4.667348439 0.336048667 6 0 C8.024687111 -0.080910924 10.05184619 -0.107588989 12.078125 -0.09765625 C13.23828125 -0.094433594 14.3984375 -0.091210937 15.59375 -0.087890625 C17.40359375 -0.075322266 17.40359375 -0.075322266 19.25 -0.0625 C21.083046875 -0.055732422 21.083046875 -0.055732422 22.953125 -0.048828125 C25.968799462 -0.037048147 28.984374976 -0.020598532 32 0 C31.01 1.32 30.02 2.64 29 4 C29.33 4.66 29.66 5.32 30 6 C28.02 6.99 28.02 6.99 26 8 C26.33 8.66 26.66 9.32 27 10 C25.35 10 23.7 10 22 10 C22 9.34 22 8.68 22 8 C22.99 7.34 23.98 6.68 25 6 C24.01 6 23.02 6 22 6 C22 6.33 22 6.66 22 7 C21.070585937 7.060585937 20.141171875 7.121171875 19.18359375 7.18359375 C10.058531148 7.795715525 10.058531148 7.795715525 1 9 C1.33 9.66 1.66 10.32 2 11 C3.7634375 10.505 3.7634375 10.505 5.5625 10 C9.501167603 9.003046703 12.95139129 8.83130797 17 9 C17 9.33 17 9.66 17 10 C14.89679937 10.504048083 12.792402088 11.003105081 10.6875 11.5 C9.515742187 11.7784375 8.343984375 12.056875 7.13671875 12.34375 C4 13 4 13 1 13 C0.67 16.96 0.34 20.92 0 25 C-0.33 25 -0.66 25 -1 25 C-0.67 16.75 -0.34 8.5 0 0 Z " fill="#C2AB91" transform="translate(87,119)" />
<path d="M0 0 C1.653712804 3.307425609 1.53363009 5.323881601 1 9 C-0.854493021 11.306499293 -2.851881381 13.229284392 -5.0546875 15.203125 C-7.196599132 17.040502613 -7.196599132 17.040502613 -9 20 C-9.99 20 -10.98 20 -12 20 C-11.400721735 16.644041717 -10.153775645 14.621987741 -8 12 C-12.004234301 15.490870929 -13.626710655 17.649519387 -14 23 C-14.99 23.33 -15.98 23.66 -17 24 C-18.68538601 25.996653141 -18.68538601 25.996653141 -20 28 C-20.99 27.67 -21.98 27.34 -23 27 C-21.35 25.02 -19.7 23.04 -18 21 C-18.33 20.34 -18.66 19.68 -19 19 C-22.107125476 19 -23.569612332 20.882723706 -25.9375 22.8125 C-26.812773437 23.520195312 -27.688046875 24.227890625 -28.58984375 24.95703125 C-30.495149177 26.572063241 -32.276433167 28.196796416 -34 30 C-34.66 29.67 -35.32 29.34 -36 29 C-34.584261791 25.608127208 -32.957690341 23.903024587 -30 21.75 C-29.29875 21.22921875 -28.5975 20.7084375 -27.875 20.171875 C-26 19 -26 19 -24 19 C-24 18.34 -24 17.68 -24 17 C-22.35 16.34 -20.7 15.68 -19 15 C-19 12.69 -19 10.38 -19 8 C-18.2575 7.7525 -17.515 7.505 -16.75 7.25 C-13.798759384 5.908526993 -12.151850263 4.390944736 -10 2 C-10.952327622 4.637214952 -11.828151963 6.780034513 -13.5625 9 C-15.24060492 11.334754671 -15.515887067 13.196755589 -16 16 C-15.112480469 15.095078125 -15.112480469 15.095078125 -14.20703125 14.171875 C-10.281064093 10.201076244 -6.389773981 6.458609804 -2 3 C-1.34 2.01 -0.68 1.02 0 0 Z " fill="#F2DBC0" transform="translate(166,110)" />
<path d="M0 0 C0.33 0.99 0.66 1.98 1 3 C1.626484375 3.048984375 2.25296875 3.09796875 2.8984375 3.1484375 C3.715703125 3.223203125 4.53296875 3.29796875 5.375 3.375 C6.593164062 3.479414062 6.593164062 3.479414062 7.8359375 3.5859375 C10 4 10 4 12 6 C10.88625 5.938125 9.7725 5.87625 8.625 5.8125 C6.830625 5.9053125 6.830625 5.9053125 5 6 C4.01 7.485 4.01 7.485 3 9 C4.090546875 8.982597656 4.090546875 8.982597656 5.203125 8.96484375 C11.669267883 8.906814263 17.976814622 9.178927398 24.40625 9.87890625 C26.873672881 9.994102198 28.662079087 9.744385196 31 9 C31 9.66 31 10.32 31 11 C26.72387505 13.413159446 23.583113397 14.385632147 18.68359375 14.4765625 C16.919189453 14.52296875 16.919189453 14.52296875 15.119140625 14.5703125 C13.904199219 14.588359375 12.689257813 14.60640625 11.4375 14.625 C9.0194538 14.676148518 6.601476694 14.730704382 4.18359375 14.7890625 C3.116813965 14.806625977 2.05003418 14.824189453 0.950927734 14.842285156 C-1.799900588 14.989305517 -4.319793276 15.38265771 -7 16 C-6.970614973 9.52060152 -5.801736777 5.909566867 -1.27734375 1.21484375 C-0.645058594 0.613496094 -0.645058594 0.613496094 0 0 Z " fill="#D9C4AD" transform="translate(95,105)" />
<path d="M0 0 C0.33 0.66 0.66 1.32 1 2 C0.697070312 2.750234375 0.394140625 3.50046875 0.08203125 4.2734375 C-2.853610811 11.670831573 -1.021240445 19.538616898 1.2734375 26.8515625 C2.378119027 31.638515782 2.495238997 36.438758011 2.620849609 41.338623047 C2.601747056 45.630436869 2.601747056 45.630436869 5 49 C5 49.99 5 50.98 5 52 C5.99 52 6.98 52 8 52 C7.525625 51.071875 7.05125 50.14375 6.5625 49.1875 C4.455950312 44.890138637 3.858165039 42.846651195 4.875 38.25 C5.797467849 33.655867357 6.182578026 29.24316452 6.375 24.5625 C6.712172059 18.437207589 7.88341061 13.30604715 10.0625 7.5859375 C10.97704519 5.063317018 11.542553671 2.639846526 12 0 C12.66 0 13.32 0 14 0 C13.884903389 1.417505631 13.757463422 2.834011693 13.625 4.25 C13.555390625 5.03890625 13.48578125 5.8278125 13.4140625 6.640625 C12.984928871 9.085876997 12.213993622 10.848369028 11 13 C11.66 13.33 12.32 13.66 13 14 C13 18.29 13 22.58 13 27 C10.703661755 23.555492633 10.459835152 21.061877172 10 17 C6.772419625 33.581542137 6.772419625 33.581542137 10 49 C9.625 51.1875 9.625 51.1875 9 53 C7.35 53 5.7 53 4 53 C3.67 52.01 3.34 51.02 3 50 C2.2265625 49.38125 2.2265625 49.38125 1.4375 48.75 C-0.828053635 45.991934705 -0.171415793 43.485454453 0 40 C0.191831473 34.003813198 -0.474817892 28.882500887 -2.34375 23.171875 C-3 21 -3 21 -3 18 C-4.11375 18.2475 -4.11375 18.2475 -5.25 18.5 C-19.403800475 20.387173397 -19.403800475 20.387173397 -25 17 C-20.835845444 15.611948481 -16.784719226 15.956481539 -12.44921875 16.0390625 C-9.337347406 16.07588938 -6.978889421 15.99296314 -4 15 C-3.962617188 14.336132813 -3.925234375 13.672265625 -3.88671875 12.98828125 C-3.510089703 7.929636212 -3.187947052 4.158191807 0 0 Z " fill="#3C3429" transform="translate(153,137)" />
<path d="M0 0 C0.66 0.33 1.32 0.66 2 1 C0.857649957 5.292601682 -0.289466318 9.583915199 -1.4375 13.875 C-1.762988281 15.098320312 -2.088476563 16.321640625 -2.423828125 17.58203125 C-2.736425781 18.748632813 -3.049023438 19.915234375 -3.37109375 21.1171875 C-3.803131104 22.73536377 -3.803131104 22.73536377 -4.243896484 24.386230469 C-5 27 -5 27 -6 29 C-6.99 29 -7.98 29 -9 29 C-12.444191344 13.255125285 -12.444191344 13.255125285 -12 6 C-11.301328125 5.734453125 -10.60265625 5.46890625 -9.8828125 5.1953125 C-8.972734375 4.842109375 -8.06265625 4.48890625 -7.125 4.125 C-6.220078125 3.776953125 -5.31515625 3.42890625 -4.3828125 3.0703125 C-1.877829934 2.114691053 -1.877829934 2.114691053 0 0 Z " fill="#DACCB9" transform="translate(177,145)" />
<path d="M0 0 C0 3 0 3 -1.9375 5 C-2.618125 5.66 -3.29875 6.32 -4 7 C-4.33 7.99 -4.66 8.98 -5 10 C-3.68 9.67 -2.36 9.34 -1 9 C-2.369835027 12.161157756 -2.989063796 12.992709197 -6 15 C-7.1875 12.3125 -7.1875 12.3125 -8 9 C-6.313728846 4.833918324 -3.580876013 2.613071685 0 0 Z M-14 13 C-14 13.99 -14 14.98 -14 16 C-13.34 16 -12.68 16 -12 16 C-11.34 15.01 -10.68 14.02 -10 13 C-9.01 13.33 -8.02 13.66 -7 14 C-7.493710937 14.554296875 -7.987421875 15.10859375 -8.49609375 15.6796875 C-9.457089844 16.766367188 -9.457089844 16.766367188 -10.4375 17.875 C-11.075585937 18.594296875 -11.713671875 19.31359375 -12.37109375 20.0546875 C-14.050144651 21.907504911 -14.050144651 21.907504911 -15 24 C-13.108207966 24.681482296 -13.108207966 24.681482296 -11 25 C-10.34 24.34 -9.68 23.68 -9 23 C-9 25.97 -9 28.94 -9 32 C-13.248020767 34.124010383 -16.16761063 34.237610703 -20.75 34.125 C-21.447382812 34.115976563 -22.144765625 34.106953125 -22.86328125 34.09765625 C-24.575669576 34.074198876 -26.287880039 34.038331044 -28 34 C-28 33.67 -28 33.34 -28 33 C-26.88625 32.7525 -25.7725 32.505 -24.625 32.25 C-20.953848017 31.389946615 -20.953848017 31.389946615 -19.5625 28.875 C-19.376875 28.25625 -19.19125 27.6375 -19 27 C-20.32 27.99 -21.64 28.98 -23 30 C-21.55746343 26.634081336 -19.667352726 24.489529211 -17 22 C-17.99 21.67 -18.98 21.34 -20 21 C-18.55746343 17.634081336 -16.667352726 15.489529211 -14 13 Z " fill="#C3AB92" transform="translate(159,120)" />
<path d="M0 0 C-2.772861561 6.771619811 -10.876871172 10.31215939 -17.203125 13.38671875 C-19.723187791 14.246827137 -21.539832527 13.922562802 -24 13 C-23.814375 13.86625 -23.62875 14.7325 -23.4375 15.625 C-22.993320668 19.051526276 -23.28045508 21.642123709 -24 25 C-28.316492196 25.761733917 -31.744334528 26.160636038 -36 25 C-35.0843974 23.770040508 -34.167457971 22.541076145 -33.25 21.3125 C-32.73953125 20.628007813 -32.2290625 19.943515625 -31.703125 19.23828125 C-30.860078125 18.130332031 -30.860078125 18.130332031 -30 17 C-29.421210938 16.16984375 -28.842421875 15.3396875 -28.24609375 14.484375 C-25.492966422 11.439176773 -22.429765215 9.749064672 -18.8125 7.9375 C-17.815369873 7.423164063 -17.815369873 7.423164063 -16.798095703 6.8984375 C-3.307781495 0 -3.307781495 0 0 0 Z " fill="#F0DFCD" transform="translate(145,122)" />
<path d="M0 0 C0.8353125 0.4640625 0.8353125 0.4640625 1.6875 0.9375 C1.6875 3.2475 1.6875 5.5575 1.6875 7.9375 C2.6775 7.6075 3.6675 7.2775 4.6875 6.9375 C4.6875 8.5875 4.6875 10.2375 4.6875 11.9375 C3.0375 12.5975 1.3875 13.2575 -0.3125 13.9375 C-0.3125 12.9475 -0.3125 11.9575 -0.3125 10.9375 C-2.2925 11.9275 -2.2925 11.9275 -4.3125 12.9375 C-4.3125 12.2775 -4.3125 11.6175 -4.3125 10.9375 C-5.9625 11.5975 -7.6125 12.2575 -9.3125 12.9375 C-10.8125 11.625 -10.8125 11.625 -12.3125 9.9375 C-12.3125 8.9475 -12.3125 7.9575 -12.3125 6.9375 C-13.3025 6.9375 -14.2925 6.9375 -15.3125 6.9375 C-15.3125 5.2875 -15.3125 3.6375 -15.3125 1.9375 C-14.6525 1.9375 -13.9925 1.9375 -13.3125 1.9375 C-12.9825 1.2775 -12.6525 0.6175 -12.3125 -0.0625 C-7.664030887 -2.515858699 -4.681917457 -2.151151264 0 0 Z " fill="#D8A898" transform="translate(121.3125,75.0625)" />
<path d="M0 0 C0.66 0 1.32 0 2 0 C1.482835013 2.585824937 0.712443082 4.600118786 -0.4375 7 C-1.926172055 10.313726737 -2.439099859 13.471348983 -2.9375 17.0625 C-3.677408599 22.102732077 -4.752056265 25.102467518 -8 29 C-9.27351308 26.45297384 -8.80191925 25.571705499 -8.0625 22.875 C-7.867851562 22.150546875 -7.673203125 21.42609375 -7.47265625 20.6796875 C-7.316679687 20.125390625 -7.160703125 19.57109375 -7 19 C-7.99 19 -8.98 19 -10 19 C-10.33 19.99 -10.66 20.98 -11 22 C-10.67 19.36 -10.34 16.72 -10 14 C-11.65 16.64 -13.3 19.28 -15 22 C-15.99 21.67 -16.98 21.34 -18 21 C-18.33 20.01 -18.66 19.02 -19 18 C-17.70703125 15.9921875 -17.70703125 15.9921875 -15.8125 13.875 C-15.200195312 13.171171875 -14.587890625 12.46734375 -13.95703125 11.7421875 C-12 10 -12 10 -10.01953125 9.54296875 C-7.004346873 8.732309894 -5.829394325 6.811754703 -3.875 4.4375 C-2.623649322 2.924073991 -1.339906415 1.435614016 0 0 Z " fill="#EFDBC5" transform="translate(163,124)" />
<path d="M0 0 C1.9375 0.3125 1.9375 0.3125 4 1 C4.33 1.99 4.66 2.98 5 4 C5.99 4.33 6.98 4.66 8 5 C8.774997476 8.099989902 9.026477877 10.888955711 8.9375 14.0625 C8.993277372 17.576474413 9.104208673 19.156313009 11 22 C10.01 22 9.02 22 8 22 C9.901056595 24.323215122 9.901056595 24.323215122 13.125 24.3125 C17.937934883 25.166407802 21.056525146 27.224203414 25 30 C21.454431543 31.181856152 20.982044377 30.809517916 17.75 29.25 C14.918483455 27.891792877 12.154626973 26.706448572 9.1875 25.6875 C5.932073165 23.964038734 4.311532823 22.475942314 2.63671875 19.17578125 C1.583931456 15.57821976 1.819177143 12.067316773 2.0546875 8.35546875 C2.266727695 5.806391943 2.266727695 5.806391943 0 4 C0 2.68 0 1.36 0 0 Z " fill="#6C695F" transform="translate(161,61)" />
<path d="M0 0 C-1.08203125 1.51953125 -1.08203125 1.51953125 -3 3 C-6.13671875 3.07421875 -6.13671875 3.07421875 -9.6875 2.6875 C-11.456738281 2.507675781 -11.456738281 2.507675781 -13.26171875 2.32421875 C-14.165351563 2.217226563 -15.068984375 2.110234375 -16 2 C-15.4225 2.349335938 -14.845 2.698671875 -14.25 3.05859375 C-13.13625 3.741152344 -13.13625 3.741152344 -12 4.4375 C-11.2575 4.889960938 -10.515 5.342421875 -9.75 5.80859375 C-9.1725 6.201757813 -8.595 6.594921875 -8 7 C-8 7.33 -8 7.66 -8 8 C-10.458624007 8.053838482 -12.916075499 8.09359038 -15.375 8.125 C-16.423007813 8.150136719 -16.423007813 8.150136719 -17.4921875 8.17578125 C-19.32897486 8.193442667 -21.166019626 8.103032605 -23 8 C-23.66 7.34 -24.32 6.68 -25 6 C-21.37 6 -17.74 6 -14 6 C-17.712794687 4.762401771 -21.313063456 4.64391103 -25.1875 4.4375 C-25.937089844 4.394316406 -26.686679688 4.351132812 -27.458984375 4.306640625 C-29.305783748 4.200773145 -31.152868343 4.099902403 -33 4 C-22.694337741 -3.929141005 -12.203507489 -3.023877962 0 0 Z " fill="#C9B5A0" transform="translate(133,99)" />
<path d="M0 0 C0.99 0 1.98 0 3 0 C5 4 7 8 9 12 C7.444444444 16.555555556 7.444444444 16.555555556 6 18 C5.632392689 20.328179637 5.297584191 22.661838499 5 25 C4.01 25 3.02 25 2 25 C1.34 19.72 0.68 14.44 0 9 C-0.99 9 -1.98 9 -3 9 C-2.01 6.03 -1.02 3.06 0 0 Z " fill="#EBDFCD" transform="translate(177,114)" />
<path d="M0 0 C1.9375 0.3125 1.9375 0.3125 4 1 C4.33 1.99 4.66 2.98 5 4 C6.75901116 4.886755578 6.75901116 4.886755578 8.9375 5.4375 C12.489530419 6.532186742 16.011229005 7.652427518 19.5 8.9375 C20.3353125 9.235273437 21.170625 9.533046875 22.03125 9.83984375 C24 11 24 11 24.78125 13.12890625 C24.8534375 13.746367187 24.925625 14.363828125 25 15 C23.35 15.33 21.7 15.66 20 16 C20.515625 16.391875 21.03125 16.78375 21.5625 17.1875 C22.036875 17.785625 22.51125 18.38375 23 19 C22.6875 21.6875 22.6875 21.6875 22 24 C20.35 24.33 18.7 24.66 17 25 C17 24.34 17 23.68 17 23 C17.66 23 18.32 23 19 23 C19 22.01 19 21.02 19 20 C18.01 19.67 17.02 19.34 16 19 C16 18.01 16 17.02 16 16 C17.98 15.01 19.96 14.02 22 13 C20.25197854 12.183252042 18.501498108 11.371765487 16.75 10.5625 C15.288203125 9.883808594 15.288203125 9.883808594 13.796875 9.19140625 C11.507483055 8.216176441 9.426212536 7.502572597 7 7 C8.570147234 8.570147234 10.539212087 9.179092601 12.5625 10.0625 C13.388789062 10.424726562 14.215078125 10.786953125 15.06640625 11.16015625 C15.704492187 11.437304688 16.342578125 11.714453125 17 12 C17 12.33 17 12.66 17 13 C14.36 13 11.72 13 9 13 C8.5978125 12.0409375 8.5978125 12.0409375 8.1875 11.0625 C7.113322478 8.668683138 7.113322478 8.668683138 4 8 C2.294134247 6.37347684 0.622245395 4.709934336 -1 3 C-0.67 2.01 -0.34 1.02 0 0 Z " fill="#D8D2C7" transform="translate(162,81)" />
<path d="M0 0 C0.33 0.99 0.66 1.98 1 3 C0.3503125 3.614882813 0.3503125 3.614882813 -0.3125 4.2421875 C-0.869375 4.781015625 -1.42625 5.31984375 -2 5.875 C-2.556875 6.408671875 -3.11375 6.94234375 -3.6875 7.4921875 C-5.218855218 8.918249882 -5.218855218 8.918249882 -5 11 C-4.34 11.33 -3.68 11.66 -3 12 C-4 15 -4 15 -5 16 C-4.67 16.99 -4.34 17.98 -4 19 C-5.5625 21 -5.5625 21 -8 23 C-12.419409104 23.473508118 -15.15286149 23.109176815 -19 21 C-18.217539062 20.373515625 -17.435078125 19.74703125 -16.62890625 19.1015625 C-15.616992187 18.284296875 -14.605078125 17.46703125 -13.5625 16.625 C-12.553164063 15.812890625 -11.543828125 15.00078125 -10.50390625 14.1640625 C-7.96471245 12.249656592 -7.96471245 12.249656592 -7 10 C-7.99 10 -8.98 10 -10 10 C-8.789348345 6.368045035 -7.463088744 5.571038077 -4.4375 3.3125 C-3.198066406 2.378574219 -3.198066406 2.378574219 -1.93359375 1.42578125 C-1.295507813 0.955273438 -0.657421875 0.484765625 0 0 Z " fill="#ECD5BA" transform="translate(145,130)" />
<path d="M0 0 C-2.475 3.465 -2.475 3.465 -5 7 C-4.01 6.67 -3.02 6.34 -2 6 C-2 6.66 -2 7.32 -2 8 C-4.51953125 9.7265625 -4.51953125 9.7265625 -7.8125 11.625 C-8.891445312 12.256640625 -9.970390625 12.88828125 -11.08203125 13.5390625 C-14 15 -14 15 -17 15 C-16.34 11.04 -15.68 7.08 -15 3 C-4.955357143 -0.214285714 -4.955357143 -0.214285714 0 0 Z " fill="#D4C0AA" transform="translate(103,138)" />
<path d="M0 0 C0.33 0.66 0.66 1.32 1 2 C-2.733668457 5.974550293 -6.751421849 9.106632399 -11.20703125 12.25390625 C-11.798710938 12.830117188 -12.390390625 13.406328125 -13 14 C-13 15.32 -13 16.64 -13 18 C-15.08203125 20.2890625 -15.08203125 20.2890625 -17.8125 22.625 C-19.152480469 23.789023437 -19.152480469 23.789023437 -20.51953125 24.9765625 C-23 27 -23 27 -26 29 C-25.626537815 22.775630245 -24.029345033 20.432279536 -20 16 C-19.67 15.01 -19.34 14.02 -19 13 C-19.66 12.67 -20.32 12.34 -21 12 C-20.67 10.68 -20.34 9.36 -20 8 C-18.02 8 -16.04 8 -14 8 C-14.99 8.99 -15.98 9.98 -17 11 C-16.34 11.33 -15.68 11.66 -15 12 C-13.63875 11.071875 -13.63875 11.071875 -12.25 10.125 C-9.850511826 8.556103886 -7.590383882 7.195561792 -5 6 C-5 5.34 -5 4.68 -5 4 C-4.34 4 -3.68 4 -3 4 C-3 3.34 -3 2.68 -3 2 C-2.01 1.34 -1.02 0.68 0 0 Z " fill="#D7B795" transform="translate(175,98)" />
<path d="M0 0 C-1.281972656 0.597480469 -1.281972656 0.597480469 -2.58984375 1.20703125 C-3.694570313 1.736835937 -4.799296875 2.266640625 -5.9375 2.8125 C-7.039648438 3.334570313 -8.141796875 3.856640625 -9.27734375 4.39453125 C-12.287407769 5.767947213 -12.287407769 5.767947213 -13 9 C-14.074473004 19.163972596 -14.074473004 19.163972596 -10.5 28.3125 C-9.675 29.199375 -8.85 30.08625 -8 31 C-8 31.66 -8 32.32 -8 33 C-10.375 32.8125 -10.375 32.8125 -13 32 C-14.1875 29.5625 -14.1875 29.5625 -15 27 C-15.66 26.34 -16.32 25.68 -17 25 C-17.318847656 22.937011719 -17.318847656 22.937011719 -17.4140625 20.4296875 C-17.452734375 19.533789063 -17.49140625 18.637890625 -17.53125 17.71484375 C-17.5621875 16.777695312 -17.593125 15.840546875 -17.625 14.875 C-17.663671875 13.930117188 -17.70234375 12.985234375 -17.7421875 12.01171875 C-17.83661346 9.674676246 -17.922183942 7.337644993 -18 5 C-15.378316893 3.969839781 -12.753261185 2.950616064 -10.125 1.9375 C-9.378632813 1.642949219 -8.632265625 1.348398438 -7.86328125 1.044921875 C-2.2265625 -1.11328125 -2.2265625 -1.11328125 0 0 Z " fill="#E0D8CB" transform="translate(101,157)" />
<path d="M0 0 C1.225898438 0.152753906 1.225898438 0.152753906 2.4765625 0.30859375 C3.416289062 0.434277344 3.416289062 0.434277344 4.375 0.5625 C4.375 1.8825 4.375 3.2025 4.375 4.5625 C5.695 4.8925 7.015 5.2225 8.375 5.5625 C8.045 6.8825 7.715 8.2025 7.375 9.5625 C6.715 9.2325 6.055 8.9025 5.375 8.5625 C5.375 9.2225 5.375 9.8825 5.375 10.5625 C6.695 10.8925 8.015 11.2225 9.375 11.5625 C9.045 11.8925 8.715 12.2225 8.375 12.5625 C8.109171256 17.7904653 8.403468593 21.633671483 10.375 26.5625 C7.260608376 24.014361398 6.287794817 21.441877971 5.375 17.5625 C5.75 14.1875 5.75 14.1875 6.375 11.5625 C2.5797869 13.053476575 0.764572692 15.31950849 -1.625 18.5625 C-1.625 14.766921191 -1.123210593 12.933473833 0.375 9.5625 C-0.945 9.8925 -2.265 10.2225 -3.625 10.5625 C-2.25 8.5625 -2.25 8.5625 -0.625 6.5625 C0.035 6.5625 0.695 6.5625 1.375 6.5625 C1.375 5.5725 1.375 4.5825 1.375 3.5625 C0.385 3.8925 -0.605 4.2225 -1.625 4.5625 C-4.3125 2.625 -4.3125 2.625 -6.625 0.5625 C-4.104464046 -0.697767977 -2.770790202 -0.356244455 0 0 Z " fill="#87715A" transform="translate(173.625,95.4375)" />
<path d="M0 0 C0.33 0.66 0.66 1.32 1 2 C0.67 2.66 0.34 3.32 0 4 C1.32 4.66 2.64 5.32 4 6 C3.01 7.485 3.01 7.485 2 9 C5.930756442 8.425472537 5.930756442 8.425472537 9 6 C10.452954048 14.035010941 10.452954048 14.035010941 8.5625 18.0625 C8.046875 18.701875 7.53125 19.34125 7 20 C2.176231229 17.959174751 0.068401629 14.713648333 -2 10 C-2.507130857 7.069910604 -2.363298986 5.010191595 -2 2 C-1.34 1.34 -0.68 0.68 0 0 Z " fill="#E7E0D3" transform="translate(183,106)" />
<path d="M0 0 C1.9296875 1.52734375 1.9296875 1.52734375 3 3 C-3.550952553 4.694211867 -9.806252142 5.314018756 -16.5546875 5.71484375 C-20.408685571 6.03382545 -24.059037866 6.705525455 -27.81640625 7.59765625 C-30.249507906 8.045973729 -32.531301642 8.065079922 -35 8 C-32 6 -32 6 -28 6 C-28 5.34 -28 4.68 -28 4 C-18.720532642 0.494771183 -9.897858074 -1.376769732 0 0 Z " fill="#D0B699" transform="translate(169,95)" />
<path d="M0 0 C-1.741103442 6.093862045 -4.000110562 11.010374033 -9.5 14.4375 C-13 16 -13 16 -15.4375 15.75 C-15.953125 15.5025 -16.46875 15.255 -17 15 C-15.617397095 10.762021532 -13.688649976 8.33512238 -10.5 5.25 C-9.7059375 4.47140625 -8.911875 3.6928125 -8.09375 2.890625 C-4.997971749 0.095183445 -4.36016548 0 0 0 Z " fill="#DCD4C8" transform="translate(115,149)" />
<path d="M0 0 C0.33 0 0.66 0 1 0 C1.246504845 8.860479719 0.80434015 16.586979551 -2 25 C-1.34 25.33 -0.68 25.66 0 26 C-1.32 26.33 -2.64 26.66 -4 27 C-3.842734375 27.667734375 -3.68546875 28.33546875 -3.5234375 29.0234375 C-2.675706686 33.84411571 -2.658908407 38.71661163 -2.4765625 43.6015625 C-1.968606477 47.223871843 -1.584119644 47.719894432 1 50 C1 51.32 1 52.64 1 54 C2.65 54.33 4.3 54.66 6 55 C5.34 53.35 4.68 51.7 4 50 C4.99 50.33 5.98 50.66 7 51 C7.75 53 7.75 53 8 55 C7 56 7 56 4.0625 56.1875 C1 56 1 56 -1 54 C-1.666666667 52.333333333 -2.333333333 50.666666667 -3 49 C-3.66 48.34 -4.32 47.68 -5 47 C-5.601810986 43.617669901 -5.653295769 40.178659246 -5.8125 36.75 C-5.876308594 35.807695313 -5.940117187 34.865390625 -6.005859375 33.89453125 C-6.289027615 28.207236737 -5.752727879 25.066615081 -3 20 C-2.220060491 16.570999004 -1.767411858 13.110171722 -1.3125 9.625 C-1.182949219 8.698164063 -1.053398437 7.771328125 -0.919921875 6.81640625 C-0.60385268 4.545390553 -0.297501331 2.273509635 0 0 Z " fill="#443D32" transform="translate(87,135)" />
<path d="M0 0 C1.0828125 0.2475 1.0828125 0.2475 2.1875 0.5 C4.864275448 0.975871191 7.289494874 1.077443004 10 1 C10 1.99 10 2.98 10 4 C9.01 3.67 8.02 3.34 7 3 C6.67 3.99 6.34 4.98 6 6 C5.01 5.01 4.02 4.02 3 3 C3.33 3.99 3.66 4.98 4 6 C3.968791073 8.417273264 3.901529768 10.834165211 3.8125 13.25 C3.685329351 19.333117179 4.257910358 23.1239438 8 28 C8.33 28.66 8.66 29.32 9 30 C2.25 28.375 2.25 28.375 0 25 C0.99 25 1.98 25 3 25 C2.34 24.01 1.68 23.02 1 22 C0.98046875 19.51171875 0.98046875 19.51171875 1.1875 16.6875 C1.288897802 12.663608259 1.148039981 10.413006196 -1.5 7.3125 C-2.325 6.549375 -3.15 5.78625 -4 5 C-3.34 4.34 -2.68 3.68 -2 3 C-1.01 3 -0.02 3 1 3 C0.67 2.01 0.34 1.02 0 0 Z " fill="#D3D0C6" transform="translate(168,57)" />
<path d="M0 0 C0.99 0.33 1.98 0.66 3 1 C2.34 2.32 1.68 3.64 1 5 C1.66 5 2.32 5 3 5 C3.33 4.34 3.66 3.68 4 3 C4.33 6.3 4.66 9.6 5 13 C4.34 13 3.68 13 3 13 C3.33 14.32 3.66 15.64 4 17 C-0.75 18.125 -0.75 18.125 -3 17 C-3.33 18.65 -3.66 20.3 -4 22 C-4.99 22.33 -5.98 22.66 -7 23 C-4.978108339 15.218780578 -2.613695925 7.602272919 0 0 Z " fill="#DEDBCD" transform="translate(80,129)" />
<path d="M0 0 C-0.309375 0.763125 -0.61875 1.52625 -0.9375 2.3125 C-1.933439139 4.831640175 -2.840274907 7.292646017 -3.4375 9.9375 C-4.392660217 13.439754128 -5.108579497 15.430481345 -8.25 17.4375 C-9.1575 17.953125 -10.065 18.46875 -11 19 C-13.057319272 20.607129407 -15.020140221 22.296399725 -17 24 C-15.827911878 20.952570882 -14.291316782 19.335782883 -11.875 17.25 C-9.933179557 15.411868998 -9.088798755 14.491945104 -8.609375 11.8359375 C-8.591374195 9.384167063 -8.591374195 9.384167063 -9 6 C-9.99 6.99 -10.98 7.98 -12 9 C-12.66 8.34 -13.32 7.68 -14 7 C-12.758038779 5.84545838 -11.506071554 4.701674384 -10.25 3.5625 C-9.55390625 2.924414063 -8.8578125 2.286328125 -8.140625 1.62890625 C-5.291930753 -0.538804518 -3.320662642 -1.660331321 0 0 Z " fill="#C4A786" transform="translate(175,105)" />
<path d="M0 0 C-4.556107885 5.254808135 -8.183551667 7.219150074 -14.875 8.875 C-15.65875 9.08640625 -16.4425 9.2978125 -17.25 9.515625 C-19.161888252 10.028570628 -21.080357404 10.516882821 -23 11 C-23.33 10.34 -23.66 9.68 -24 9 C-20.072598073 4.425731874 -16.619218867 2.757237055 -10.875 1.125 C-10.159570312 0.900703125 -9.444140625 0.67640625 -8.70703125 0.4453125 C-3.413446736 -1.137815579 -3.413446736 -1.137815579 0 0 Z " fill="#CBB49A" transform="translate(108,150)" />
<path d="M0 0 C-0.33 3.96 -0.66 7.92 -1 12 C-1.99 12.33 -2.98 12.66 -4 13 C-4 13.66 -4 14.32 -4 15 C-4.99 15.33 -5.98 15.66 -7 16 C-7.66 16.99 -8.32 17.98 -9 19 C-9.394908726 6.670072015 -9.394908726 6.670072015 -7 2 C-4.410247593 0.162111195 -3.215180975 0 0 0 Z " fill="#DFDCCE" transform="translate(97,161)" />
<path d="M0 0 C0 0.99 0 1.98 0 3 C-1.65 3.66 -3.3 4.32 -5 5 C-5.213332982 13.268557458 -5.213332982 13.268557458 -2.890625 20.97265625 C-1.443362039 22.435300569 -1.443362039 22.435300569 1 24 C3 26 3 26 3 29 C2.34 29 1.68 29 1 29 C-0.366393415 27.360327902 -1.694941895 25.688898724 -3 24 C-3.698671875 23.4225 -4.39734375 22.845 -5.1171875 22.25 C-7.691020338 19.174216359 -7.407947826 17.198695645 -7.25 13.25 C-7.21390625 12.07953125 -7.1778125 10.9090625 -7.140625 9.703125 C-7.071015625 8.365078125 -7.071015625 8.365078125 -7 7 C-7.99 6.67 -8.98 6.34 -10 6 C-9.855625 6.6290625 -9.71125 7.258125 -9.5625 7.90625 C-8.369855526 13.405666185 -7.791728497 18.376669426 -8 24 C-8.66 23.67 -9.32 23.34 -10 23 C-10.533272234 20.35141457 -10.933632333 17.800167773 -11.25 15.125 C-11.353125 14.391523438 -11.45625 13.658046875 -11.5625 12.90234375 C-12.247575845 7.371363767 -12.247575845 7.371363767 -10 4 C-8.002396951 3.652590774 -6.002122292 3.320339567 -4 3 C-1.677803423 1.552699072 -1.677803423 1.552699072 0 0 Z " fill="#49453B" transform="translate(109,160)" />
</svg>