<?xml version='1.0' encoding='utf-8'?>
<svg xmlns="http://www.w3.org/2000/svg" version="1.1" width="157" height="164" viewBox="34.736241957 23.586762708000002 157.26849807899998 164.901518542">
<path d="M0 0 C2.625 0.25 2.625 0.25 4.125 1.8125 C4.8675 2.5240625 4.8675 2.5240625 5.625 3.25 C8.498684917 2.962631508 10.882901437 2.164032854 13.625 1.25 C19.088036395 0.784298537 24.043121836 0.804266813 29.1875 2.8125 C34.143019863 4.733661686 38.474949401 4.142388726 43.625 3.25 C44.285 4.57 44.945 5.89 45.625 7.25 C46.505429687 6.828476563 47.385859375 6.406953125 48.29296875 5.97265625 C49.454414063 5.424804688 50.615859375 4.876953125 51.8125 4.3125 C52.961054687 3.767226562 54.109609375 3.221953125 55.29296875 2.66015625 C65.797540341 -1.785506522 81.551959745 -1.546227179 92.3125 1.875 C94.106134031 2.613555189 95.879126006 3.404712591 97.625 4.25 C98.551835938 4.674101562 99.478671875 5.098203125 100.43359375 5.53515625 C115.260096608 12.917561973 125.51132588 25.62860957 131.66796875 40.82421875 C133.629740036 46.691112219 133.978552032 52.095575747 133.625 58.25 C131.158379764 55.783379764 131.038459284 53.730873216 130.434082031 50.384033203 C127.419786508 33.829142434 119.569408231 20.841799792 105.6875 11.109375 C92.931906082 3.364907264 78.065120239 0.159662189 63.514160156 3.538574219 C57.87052135 4.920821295 52.830193875 6.594596748 47.625 9.25 C44.75 9.4375 44.75 9.4375 42.625 9.25 C40.905883055 13.834311853 40.007560464 17.592826437 41.39453125 22.38671875 C44.397299771 26.933768224 50.729854906 28.397540611 55.734375 29.87109375 C59.88801153 30.703537435 64.131270857 30.523189401 68.2734375 29.765625 C78.390119935 28.209212318 90.703110021 27.158582994 99.65234375 32.76171875 C100.303320313 33.252851562 100.954296875 33.743984375 101.625 34.25 C102.286289063 34.730820313 102.947578125 35.211640625 103.62890625 35.70703125 C110.09787005 40.825480687 113.085938531 46.467610097 114.625 54.4375 C114.787421875 55.215610352 114.94984375 55.993720703 115.1171875 56.795410156 C115.633204535 59.277749795 116.131014684 61.763189155 116.625 64.25 C119.979315753 84.945259112 119.979315753 84.945259112 130.0234375 102.796875 C131.297436383 104.218685908 132.469005152 105.730692486 133.625 107.25 C133.4375 109.625 133.4375 109.625 132.625 111.25 C130.375 112 130.375 112 127.625 112.25 C123.831233248 109.290007957 122.616232309 106.187938069 121.15234375 101.68359375 C120.943158112 101.049460602 120.733972473 100.415327454 120.518447876 99.761978149 C119.855116155 97.740651802 119.208934813 95.71428459 118.5625 93.6875 C118.125395462 92.353172353 117.687253092 91.019184212 117.248046875 89.685546875 C114.821066052 82.265292343 112.582924361 74.80935086 110.625 67.25 C108.376406063 78.18184861 108.376406063 78.18184861 108.625 89.25 C109.305625 90.24 109.98625 91.23 110.6875 92.25 C112.826333199 95.561741728 112.815872529 96.091276974 112.35546875 99.796875 C112.190992432 101.128154297 112.190992432 101.128154297 112.023193359 102.486328125 C111.395262102 106.84450215 110.695265797 111.173759423 109.875 115.5 C109.6584375 116.787773437 109.6584375 116.787773437 109.4375 118.1015625 C108.348108711 123.812081352 106.95313001 127.275580466 102.625 131.25 C100.38671875 131.8359375 100.38671875 131.8359375 98.3125 131.625 C97.095625 131.50125 95.87875 131.3775 94.625 131.25 C94.3125 129 94.3125 129 94.625 126.25 C96.254352409 124.871317193 97.922496068 123.537259071 99.625 122.25 C102.134284649 115.447722338 101.43520152 105.76455807 98.625 99.25 C96.775621515 96.761208741 94.778913899 94.478420354 92.625 92.25 C92.79 93.384375 92.955 94.51875 93.125 95.6875 C93.244882813 96.795449219 93.244882813 96.795449219 93.3671875 97.92578125 C93.591410841 100.211230659 93.591410841 100.211230659 94.0078125 102.29296875 C94.953377868 110.421780707 89.403343817 117.149824984 84.625 123.25 C80.587322015 127.082055495 80.587322015 127.082055495 77.38671875 127.640625 C75.466145833 127.510416667 73.545572917 127.380208333 71.625 127.25 C71.75 125 71.75 125 72.625 122.25 C73.57375 121.651875 74.5225 121.05375 75.5 120.4375 C79.608245841 117.561727911 80.612391226 115.064041712 81.625 110.25 C82.659036676 103.218550601 81.249681758 98.48937982 77.71875 92.37890625 C76.625 90.25 76.625 90.25 76.625 87.25 C70.355 87.25 64.085 87.25 57.625 87.25 C57.295 90.22 56.965 93.19 56.625 96.25 C56.445820312 97.452695312 56.266640625 98.655390625 56.08203125 99.89453125 C55.601295066 103.66294285 55.519132486 107.40224904 55.44921875 111.19921875 C55.425371094 112.459277344 55.401523438 113.719335938 55.376953125 115.017578125 C55.333794465 117.642409337 55.302648414 120.267464138 55.283203125 122.892578125 C55.255488281 124.148769531 55.227773437 125.404960937 55.19921875 126.69921875 C55.18463623 127.837058105 55.170053711 128.974897461 55.155029297 130.147216797 C54.516155296 133.887175192 53.279679468 135.583350073 50.625 138.25 C48.265625 138.73828125 48.265625 138.73828125 45.875 138.5625 C45.07578125 138.517382812 44.2765625 138.472265625 43.453125 138.42578125 C42.84984375 138.367773438 42.2465625 138.309765625 41.625 138.25 C40.48046875 136.5 40.48046875 136.5 39.625 134.25 C40.48828125 132.25 40.48828125 132.25 41.9375 130.25 C45.198054225 125.67629106 45.778878908 122.389561429 45.5390625 116.78515625 C45.495234375 115.737792969 45.45140625 114.690429688 45.40625 113.611328125 C45.3546875 112.522714844 45.303125 111.434101563 45.25 110.3125 C45.206171875 109.227753906 45.16234375 108.143007813 45.1171875 107.025390625 C44.909055846 102.322193381 44.64904865 97.856126893 43.625 93.25 C42.533776357 96.740961698 42.567038999 99.87784807 42.66796875 103.51953125 C42.699873047 105.347744141 42.699873047 105.347744141 42.732421875 107.212890625 C42.785569279 109.767854838 42.850567583 112.322601532 42.927734375 114.876953125 C43.027728933 121.902496726 42.94565715 126.571179502 38.625 132.25 C38.295 131.59 37.965 130.93 37.625 130.25 C37.931071777 129.664685059 38.237143555 129.079370117 38.552490234 128.476318359 C39.894169936 125.691256398 39.837829329 123.711919558 39.78515625 120.62890625 C39.773554687 119.533686523 39.761953125 118.438466797 39.75 117.310058594 C39.729375 116.155864258 39.70875 115.001669922 39.6875 113.8125 C39.599012829 104.89127259 39.618896769 96.125267788 40.625 87.25 C40.044921875 86.86328125 39.46484375 86.4765625 38.8671875 86.078125 C37.250901331 85.000600887 35.635034193 83.922448028 34.01953125 82.84375 C32.603543721 81.901298268 31.185205719 80.962335816 29.76171875 80.03125 C27.508267178 78.555043511 25.536935693 77.161935693 23.625 75.25 C24.978429232 79.679404759 26.343798914 83.892754998 28.625 87.9375 C33.7655929 97.765683361 36.131189473 113.178529331 34.625 124.25 C32.625 126.875 32.625 126.875 30.625 128.25 C29.635 127.755 29.635 127.755 28.625 127.25 C29.615 126.92 30.605 126.59 31.625 126.25 C32.469136962 109.038985266 29.269006225 95.079532855 21.772705078 79.588867188 C18.657062392 72.930212024 17.632038899 67.174869649 17.0859375 59.8984375 C16.465854351 54.990321726 14.744995963 50.955424962 12.6484375 46.5078125 C11.625 44.25 11.625 44.25 11.625 42.25 C10.94953125 42.140429688 10.2740625 42.030859375 9.578125 41.91796875 C8.240078125 41.680136719 8.240078125 41.680136719 6.875 41.4375 C5.99328125 41.286679687 5.1115625 41.135859375 4.203125 40.98046875 C1.248359532 40.143285201 -0.299988221 39.534898028 -2.375 37.25 C-2.87109375 33.9921875 -2.87109375 33.9921875 -2.8125 30.125 C-2.804362793 29.45355957 -2.796225586 28.782119141 -2.787841797 28.090332031 C-2.642372145 23.276503637 -1.620069833 19.449918281 0.15234375 15.03125 C0.881334009 13.058950113 0.881334009 13.058950113 -0.625 10.625 C-1.2025 9.84125 -1.78 9.0575 -2.375 8.25 C-3.125 4.5 -3.125 4.5 -3.375 1.25 C-2.375 0.25 -2.375 0.25 0 0 Z " fill="#E1CEB8" transform="translate(48.375,39.75)" />
<path d="M0 0 C4.507801865 0.032383634 8.13192149 0.711646605 12.375 2.1875 C11.17118552 4.681115709 9.920712781 6.868930828 8.375 9.1875 C8.705 8.8575 9.035 8.5275 9.375 8.1875 C10.703486914 7.18107052 12.036503286 6.180578207 13.375 5.1875 C13.375 6.5075 13.375 7.8275 13.375 9.1875 C14.035 8.5275 14.695 7.8675 15.375 7.1875 C19.474555379 13.849277491 20.323139841 19.406214405 19.375 27.1875 C18.608565912 29.543737366 17.759171687 31.11124247 16.375 33.1875 C15.385 33.1875 14.395 33.1875 13.375 33.1875 C13.705 33.8475 14.035 34.5075 14.375 35.1875 C12.065 35.8475 9.755 36.5075 7.375 37.1875 C13.198189978 36.624897583 13.198189978 36.624897583 18.375 34.1875 C19.217964738 31.812772845 19.217964738 31.812772845 19.5 29.125 C19.8828125 26.40234375 19.8828125 26.40234375 20.375 24.1875 C21.035 23.8575 21.695 23.5275 22.375 23.1875 C24.421637395 23.90984261 26.438886738 24.716303508 28.4375 25.5625 C32.534986019 27.221437924 36.017428381 28.466496419 40.4375 28.6875 C44.375 29.1875 44.375 29.1875 46.9375 31.75 C47.411875 32.554375 47.88625 33.35875 48.375 34.1875 C46.395 35.1775 46.395 35.1775 44.375 36.1875 C44.894492188 36.877148437 45.413984375 37.566796875 45.94921875 38.27734375 C50.229422883 44.044938598 54.092511409 49.796115964 57.375 56.1875 C56.675345574 54.923317539 55.99065237 53.650845984 55.3125 52.375 C54.929648438 51.667304688 54.546796875 50.959609375 54.15234375 50.23046875 C53.375 48.1875 53.375 48.1875 54.375 45.1875 C53.358306905 43.396545819 53.358306905 43.396545819 51.875 41.6875 C50.40625 39.90625 50.40625 39.90625 49.375 38.1875 C49.705 37.1975 50.035 36.2075 50.375 35.1875 C52.025 37.4975 53.675 39.8075 55.375 42.1875 C55.375 41.1975 55.375 40.2075 55.375 39.1875 C59.790386386 40.659295462 60.58167565 43.640517518 62.625 47.625 C63.375 50.1875 63.375 50.1875 62.8984375 52.8828125 C62.309832405 56.598931234 62.466058323 59.87620246 62.75 63.625 C62.840234375 64.881835938 62.93046875 66.138671875 63.0234375 67.43359375 C63.361993565 71.048620174 63.828700758 74.59951769 64.375 78.1875 C58.661737945 82.123302749 55.302549068 83.326932394 48.375 83.3125 C47.1375 83.315078125 45.9 83.31765625 44.625 83.3203125 C41.375 83.1875 41.375 83.1875 38.375 82.1875 C38.375 76.5775 38.375 70.9675 38.375 65.1875 C38.189375 68.8690625 38.189375 68.8690625 38 72.625 C37.658251298 78.671559165 36.947382239 84.317272974 35.375 90.1875 C34.715 90.1875 34.055 90.1875 33.375 90.1875 C31.725 94.4775 30.075 98.7675 28.375 103.1875 C25.737407192 100.549907192 25.924670086 98.862196257 25.5 95.1875 C24.470495546 87.817555419 22.517433686 81.401150529 18.375 75.1875 C18.375 77.271782094 19.594766007 79.285679642 20.375 81.1875 C18.397537286 80.220849492 16.427344561 79.242864812 14.46484375 78.24609375 C12.90379174 77.455355255 11.329915811 76.689840862 9.75 75.9375 C6.216610698 73.333949988 3.515984786 70.020672073 1.375 66.1875 C1.375 64.8675 1.375 63.5475 1.375 62.1875 C0.715 62.1875 0.055 62.1875 -0.625 62.1875 C-1.12 55.7525 -1.12 55.7525 -1.625 49.1875 C-2.285 49.1875 -2.945 49.1875 -3.625 49.1875 C-5.659355305 45.457848607 -6.625 43.518449583 -6.625 39.1875 C-5.0471875 38.94 -5.0471875 38.94 -3.4375 38.6875 C0.847609371 37.488017052 2.28819755 34.987692347 4.4296875 31.2578125 C5.443202778 29.219523402 5.443202778 29.219523402 5.87890625 27.01953125 C6.375 25.1875 6.375 25.1875 8.4375 23.75 C9.076875 23.234375 9.71625 22.71875 10.375 22.1875 C10.709257354 19.561248615 10.709257354 19.561248615 10.375 17.1875 C8.725 16.8575 7.075 16.5275 5.375 16.1875 C5.705 18.4975 6.035 20.8075 6.375 23.1875 C3.375 22.1875 3.375 22.1875 2.125 19.75 C1.375 17.1875 1.375 17.1875 2.375 15.1875 C0.725 15.5175 -0.925 15.8475 -2.625 16.1875 C-1.861875 16.950625 -1.09875 17.71375 -0.3125 18.5 C0.574375 19.386875 1.46125 20.27375 2.375 21.1875 C2.99375 21.661875 3.6125 22.13625 4.25 22.625 C5.375 24.1875 5.375 24.1875 5.3125 27 C3.844556516 31.991007844 1.709663751 35.297724166 -2.625 38.1875 C-5.3125 37.8125 -5.3125 37.8125 -7.625 37.1875 C-7.625 36.1975 -7.625 35.2075 -7.625 34.1875 C-6.965 34.1875 -6.305 34.1875 -5.625 34.1875 C-5.625 34.8475 -5.625 35.5075 -5.625 36.1875 C-4.965 35.5275 -4.305 34.8675 -3.625 34.1875 C-5.935 33.5275 -8.245 32.8675 -10.625 32.1875 C-9.965 33.8375 -9.305 35.4875 -8.625 37.1875 C-12.802578836 37.00897099 -16.462815706 36.811111085 -20.1875 34.8125 C-22.902771611 29.854177928 -22.593534564 24.677641731 -21.099121094 19.292480469 C-20.437142513 17.271729926 -19.710915844 15.293193185 -18.9375 13.3125 C-18.69402832 12.682390137 -18.450556641 12.052280273 -18.199707031 11.403076172 C-16.388133092 7.113017635 -14.184495088 4.177250233 -10.625 1.1875 C-7.875 0.9375 -7.875 0.9375 -5.625 1.1875 C-4.004787345 -0.432712655 -2.23132066 0.016852875 0 0 Z " fill="#CEB8A0" transform="translate(68.625,42.8125)" />
<path d="M0 0 C4.507801865 0.032383634 8.13192149 0.711646605 12.375 2.1875 C11.17118552 4.681115709 9.920712781 6.868930828 8.375 9.1875 C8.705 8.8575 9.035 8.5275 9.375 8.1875 C10.703486914 7.18107052 12.036503286 6.180578207 13.375 5.1875 C13.375 6.5075 13.375 7.8275 13.375 9.1875 C14.035 8.5275 14.695 7.8675 15.375 7.1875 C19.474555379 13.849277491 20.323139841 19.406214405 19.375 27.1875 C18.608565912 29.543737366 17.759171687 31.11124247 16.375 33.1875 C15.385 33.1875 14.395 33.1875 13.375 33.1875 C13.705 33.8475 14.035 34.5075 14.375 35.1875 C12.065 35.8475 9.755 36.5075 7.375 37.1875 C9.355 37.5175 11.335 37.8475 13.375 38.1875 C13.375 39.8375 13.375 41.4875 13.375 43.1875 C12.385 42.8575 11.395 42.5275 10.375 42.1875 C10.375 53.0775 10.375 63.9675 10.375 75.1875 C6.767432555 73.383716278 5.778878563 72.857180191 3.625 69.8125 C3.19703125 69.227265625 2.7690625 68.64203125 2.328125 68.0390625 C1.375 66.1875 1.375 66.1875 1.375 62.1875 C0.715 62.1875 0.055 62.1875 -0.625 62.1875 C-1.12 55.7525 -1.12 55.7525 -1.625 49.1875 C-2.285 49.1875 -2.945 49.1875 -3.625 49.1875 C-5.659355305 45.457848607 -6.625 43.518449583 -6.625 39.1875 C-5.0471875 38.94 -5.0471875 38.94 -3.4375 38.6875 C0.847609371 37.488017052 2.28819755 34.987692347 4.4296875 31.2578125 C5.443202778 29.219523402 5.443202778 29.219523402 5.87890625 27.01953125 C6.375 25.1875 6.375 25.1875 8.4375 23.75 C9.076875 23.234375 9.71625 22.71875 10.375 22.1875 C10.709257354 19.561248615 10.709257354 19.561248615 10.375 17.1875 C8.725 16.8575 7.075 16.5275 5.375 16.1875 C5.705 18.4975 6.035 20.8075 6.375 23.1875 C3.375 22.1875 3.375 22.1875 2.125 19.75 C1.375 17.1875 1.375 17.1875 2.375 15.1875 C0.725 15.5175 -0.925 15.8475 -2.625 16.1875 C-1.861875 16.950625 -1.09875 17.71375 -0.3125 18.5 C0.574375 19.386875 1.46125 20.27375 2.375 21.1875 C2.99375 21.661875 3.6125 22.13625 4.25 22.625 C5.375 24.1875 5.375 24.1875 5.3125 27 C3.844556516 31.991007844 1.709663751 35.297724166 -2.625 38.1875 C-5.3125 37.8125 -5.3125 37.8125 -7.625 37.1875 C-7.625 36.1975 -7.625 35.2075 -7.625 34.1875 C-6.965 34.1875 -6.305 34.1875 -5.625 34.1875 C-5.625 34.8475 -5.625 35.5075 -5.625 36.1875 C-4.965 35.5275 -4.305 34.8675 -3.625 34.1875 C-5.935 33.5275 -8.245 32.8675 -10.625 32.1875 C-9.965 33.8375 -9.305 35.4875 -8.625 37.1875 C-12.802578836 37.00897099 -16.462815706 36.811111085 -20.1875 34.8125 C-22.902771611 29.854177928 -22.593534564 24.677641731 -21.099121094 19.292480469 C-20.437142513 17.271729926 -19.710915844 15.293193185 -18.9375 13.3125 C-18.69402832 12.682390137 -18.450556641 12.052280273 -18.199707031 11.403076172 C-16.388133092 7.113017635 -14.184495088 4.177250233 -10.625 1.1875 C-7.875 0.9375 -7.875 0.9375 -5.625 1.1875 C-4.004787345 -0.432712655 -2.23132066 0.016852875 0 0 Z " fill="#E4D8C8" transform="translate(68.625,42.8125)" />
<path d="M0 0 C2.625 0.25 2.625 0.25 4.125 1.8125 C4.8675 2.5240625 4.8675 2.5240625 5.625 3.25 C8.498684917 2.962631508 10.882901437 2.164032854 13.625 1.25 C19.088036395 0.784298537 24.043121836 0.804266813 29.1875 2.8125 C34.143019863 4.733661686 38.474949401 4.142388726 43.625 3.25 C44.285 4.57 44.945 5.89 45.625 7.25 C46.505429687 6.828476563 47.385859375 6.406953125 48.29296875 5.97265625 C49.454414063 5.424804688 50.615859375 4.876953125 51.8125 4.3125 C52.961054687 3.767226562 54.109609375 3.221953125 55.29296875 2.66015625 C65.797540341 -1.785506522 81.551959745 -1.546227179 92.3125 1.875 C94.106134031 2.613555189 95.879126006 3.404712591 97.625 4.25 C98.551835938 4.674101562 99.478671875 5.098203125 100.43359375 5.53515625 C115.260096608 12.917561973 125.51132588 25.62860957 131.66796875 40.82421875 C133.629740036 46.691112219 133.978552032 52.095575747 133.625 58.25 C131.158379764 55.783379764 131.038459284 53.730873216 130.434082031 50.384033203 C127.419786508 33.829142434 119.569408231 20.841799792 105.6875 11.109375 C92.931906082 3.364907264 78.065120239 0.159662189 63.514160156 3.538574219 C57.87052135 4.920821295 52.830193875 6.594596748 47.625 9.25 C44.75 9.4375 44.75 9.4375 42.625 9.25 C40.905883055 13.834311853 40.007560464 17.592826437 41.39453125 22.38671875 C44.397299771 26.933768224 50.729854906 28.397540611 55.734375 29.87109375 C59.88801153 30.703537435 64.131270857 30.523189401 68.2734375 29.765625 C78.390119935 28.209212318 90.703110021 27.158582994 99.65234375 32.76171875 C100.303320313 33.252851562 100.954296875 33.743984375 101.625 34.25 C102.286289063 34.730820313 102.947578125 35.211640625 103.62890625 35.70703125 C110.09787005 40.825480687 113.085938531 46.467610097 114.625 54.4375 C114.787421875 55.215610352 114.94984375 55.993720703 115.1171875 56.795410156 C115.633204535 59.277749795 116.131014684 61.763189155 116.625 64.25 C119.979315753 84.945259112 119.979315753 84.945259112 130.0234375 102.796875 C131.297436383 104.218685908 132.469005152 105.730692486 133.625 107.25 C133.4375 109.625 133.4375 109.625 132.625 111.25 C130.375 112 130.375 112 127.625 112.25 C123.810384297 109.278814592 122.595559144 106.135886599 121.1171875 101.61328125 C120.905630188 100.974404755 120.694072876 100.335528259 120.476104736 99.67729187 C120.031962263 98.328458484 119.593577695 96.977717029 119.160644531 95.625244141 C118.506377328 93.582412063 117.835000058 91.545881292 117.16015625 89.509765625 C111.625 72.661092498 111.625 72.661092498 111.625 65.25 C110.965 65.25 110.305 65.25 109.625 65.25 C109.802890625 63.513632812 109.802890625 63.513632812 109.984375 61.7421875 C110.115749921 60.203224141 110.245893223 58.664155297 110.375 57.125 C110.496816406 55.984179688 110.496816406 55.984179688 110.62109375 54.8203125 C110.936448978 50.755734003 110.844623517 48.681055948 108.94921875 44.9609375 C106.676017542 42.309506175 104.435215596 40.150754272 101.6875 38 C100.853476563 37.33484375 100.019453125 36.6696875 99.16015625 35.984375 C95.15683098 33.245582365 92.50478716 32.25 87.625 32.25 C87.625 33.24 87.625 34.23 87.625 35.25 C87.233125 34.775625 86.84125 34.30125 86.4375 33.8125 C84.216916261 31.898203673 82.491242907 31.637330123 79.625 31.25 C79.625 31.91 79.625 32.57 79.625 33.25 C78.14 32.755 78.14 32.755 76.625 32.25 C75.16012915 32.225530137 73.693871558 32.258142123 72.23046875 32.328125 C60.868425609 32.708091143 52.003348554 32.133928731 41.625 27.25 C41.489648437 27.92546875 41.354296875 28.6009375 41.21484375 29.296875 C39.235820379 37.497379027 39.235820379 37.497379027 35.25 39.9375 C31.650181758 41.240882467 30.162074761 41.536209004 26.625 40.25 C26.625 39.92 26.625 39.59 26.625 39.25 C28.935 38.59 31.245 37.93 33.625 37.25 C32.965 36.59 32.305 35.93 31.625 35.25 C33.625 34.25 33.625 34.25 36.625 34.25 C37.285 33.92 37.945 33.59 38.625 33.25 C39.282781394 21.835545751 39.282781394 21.835545751 35.625 11.25 C34.305 12.57 32.985 13.89 31.625 15.25 C31.955 13.27 32.285 11.29 32.625 9.25 C31.635 10.57 30.645 11.89 29.625 13.25 C28.965 12.92 28.305 12.59 27.625 12.25 C29.275 9.94 30.925 7.63 32.625 5.25 C26.098992498 4.115042173 18.996714841 3.126095053 12.625 5.25 C11.803867188 5.318320312 10.982734375 5.386640625 10.13671875 5.45703125 C7.389287436 6.041548149 7.389287436 6.041548149 5.89453125 8.76171875 C5.413710937 9.809726563 4.932890625 10.857734375 4.4375 11.9375 C3.704667969 13.490175781 3.704667969 13.490175781 2.95703125 15.07421875 C0.839753157 20.12215743 -0.664438821 24.425878333 -0.6875 29.9375 C-0.704257813 30.869492188 -0.721015625 31.801484375 -0.73828125 32.76171875 C-0.563389824 35.267816105 -0.563389824 35.267816105 0.8828125 37.0390625 C2.946459781 38.473436171 4.321779241 38.733342561 6.8125 38.9375 C8.070625 39.040625 9.32875 39.14375 10.625 39.25 C10.295 37.93 9.965 36.61 9.625 35.25 C11.935 35.58 14.245 35.91 16.625 36.25 C16.625 37.24 16.625 38.23 16.625 39.25 C15.965 39.25 15.305 39.25 14.625 39.25 C14.625 38.59 14.625 37.93 14.625 37.25 C13.965 37.25 13.305 37.25 12.625 37.25 C12.955 38.24 13.285 39.23 13.625 40.25 C18.111842011 39.911325384 18.111842011 39.911325384 21.5 37.1875 C21.87125 36.548125 22.2425 35.90875 22.625 35.25 C21.965 34.92 21.305 34.59 20.625 34.25 C22.11 33.755 22.11 33.755 23.625 33.25 C24.850202639 30.241525816 24.850202639 30.241525816 25.625 27.25 C24.635 26.92 23.645 26.59 22.625 26.25 C19.625 22.805555556 19.625 22.805555556 19.625 20.25 C18.635 19.92 17.645 19.59 16.625 19.25 C16.625 18.92 16.625 18.59 16.625 18.25 C18.605 18.25 20.585 18.25 22.625 18.25 C22.728125 19.013125 22.83125 19.77625 22.9375 20.5625 C23.668640387 23.420594241 24.39451913 24.407428846 26.625 26.25 C26.295 23.94 25.965 21.63 25.625 19.25 C27.291119052 19.207278999 28.958828849 19.209361679 30.625 19.25 C31.625 20.25 31.625 20.25 31.875 22.625 C31.625 25.25 31.625 25.25 30.25 27.0625 C28.625 28.25 28.625 28.25 26.625 28.25 C26.5425 29.11625 26.46 29.9825 26.375 30.875 C25.324529393 35.602117733 23.023522303 38.851477697 19.625 42.25 C16.5 42.375 16.5 42.375 13.625 42.25 C15.11 47.2 15.11 47.2 16.625 52.25 C17.285 52.25 17.945 52.25 18.625 52.25 C18.625 50.6 18.625 48.95 18.625 47.25 C18.955 47.25 19.285 47.25 19.625 47.25 C19.625 53.19 19.625 59.13 19.625 65.25 C20.285 65.25 20.945 65.25 21.625 65.25 C22.016875 66.260625 22.40875 67.27125 22.8125 68.3125 C24.551933431 72.410203755 26.948290783 75.705168875 29.625 79.25 C27.156999531 78.098266448 25.577164345 77.202164345 23.625 75.25 C24.978429232 79.679404759 26.343798914 83.892754998 28.625 87.9375 C33.7655929 97.765683361 36.131189473 113.178529331 34.625 124.25 C32.625 126.875 32.625 126.875 30.625 128.25 C29.635 127.755 29.635 127.755 28.625 127.25 C29.615 126.92 30.605 126.59 31.625 126.25 C32.469136962 109.038985266 29.269006225 95.079532855 21.772705078 79.588867188 C18.657062392 72.930212024 17.632038899 67.174869649 17.0859375 59.8984375 C16.465854351 54.990321726 14.744995963 50.955424962 12.6484375 46.5078125 C11.625 44.25 11.625 44.25 11.625 42.25 C10.94953125 42.140429688 10.2740625 42.030859375 9.578125 41.91796875 C8.240078125 41.680136719 8.240078125 41.680136719 6.875 41.4375 C5.99328125 41.286679687 5.1115625 41.135859375 4.203125 40.98046875 C1.248359532 40.143285201 -0.299988221 39.534898028 -2.375 37.25 C-2.87109375 33.9921875 -2.87109375 33.9921875 -2.8125 30.125 C-2.804362793 29.45355957 -2.796225586 28.782119141 -2.787841797 28.090332031 C-2.642372145 23.276503637 -1.620069833 19.449918281 0.15234375 15.03125 C0.881334009 13.058950113 0.881334009 13.058950113 -0.625 10.625 C-1.2025 9.84125 -1.78 9.0575 -2.375 8.25 C-3.125 4.5 -3.125 4.5 -3.375 1.25 C-2.375 0.25 -2.375 0.25 0 0 Z " fill="#453C2F" transform="translate(48.375,39.75)" />
<path d="M0 0 C0.66 0 1.32 0 2 0 C2.798429635 2.495092611 2.985205131 4.355076858 2.875 7 C2.7868057 20.758310847 10.34615874 30.967322384 18.6171875 41.22265625 C21.586110986 45.038645477 21.372942291 48.775645381 21.71875 53.46875 C21.851326118 55.990740035 21.851326118 55.990740035 23 58 C21.395441915 63.099147778 19.181117177 67.565510891 15 71 C15.99 70.67 16.98 70.34 18 70 C18.33 70.66 18.66 71.32 19 72 C22.416698938 69.02620648 23.651331867 66.842468482 24.625 62.4375 C24.860898437 61.381757812 25.096796875 60.326015625 25.33984375 59.23828125 C25.666621094 57.635332031 25.666621094 57.635332031 26 56 C26.207539063 55.003554688 26.415078125 54.007109375 26.62890625 52.98046875 C28.651323823 43.944786575 28.651323823 43.944786575 25.9375 35.5 C22.132478632 28.508441303 24.255662117 19.536991901 26.0625 12.125 C26.5265625 10.578125 26.5265625 10.578125 27 9 C27.33 9 27.66 9 28 9 C27.9278125 9.822421875 27.855625 10.64484375 27.78125 11.4921875 C27.490169507 14.993238985 27.236259782 18.494834387 27 22 C26.931679687 22.950039062 26.863359375 23.900078125 26.79296875 24.87890625 C26.565522483 30.274849052 26.565522483 30.274849052 29.0625 35 C31.201333199 38.311741728 31.190872529 38.841276974 30.73046875 42.546875 C30.565992432 43.878154297 30.565992432 43.878154297 30.398193359 45.236328125 C29.770262102 49.59450215 29.070265797 53.923759423 28.25 58.25 C28.105625 59.108515625 27.96125 59.96703125 27.8125 60.8515625 C26.723108711 66.562081352 25.32813001 70.025580466 21 74 C18.76171875 74.5859375 18.76171875 74.5859375 16.6875 74.375 C15.470625 74.25125 14.25375 74.1275 13 74 C12.6875 71.75 12.6875 71.75 13 69 C14.629352409 67.621317193 16.297496068 66.287259071 18 65 C20.509284649 58.197722338 19.81020152 48.51455807 17 42 C15.150621515 39.511208741 13.153913899 37.228420354 11 35 C11.2475 36.7015625 11.2475 36.7015625 11.5 38.4375 C11.579921875 39.176132812 11.65984375 39.914765625 11.7421875 40.67578125 C11.966410841 42.961230659 11.966410841 42.961230659 12.3828125 45.04296875 C13.328377868 53.171780707 7.778343817 59.899824984 3 66 C-1.037677985 69.832055495 -1.037677985 69.832055495 -4.23828125 70.390625 C-6.158854167 70.260416667 -8.079427083 70.130208333 -10 70 C-9.875 67.75 -9.875 67.75 -9 65 C-8.05125 64.401875 -7.1025 63.80375 -6.125 63.1875 C-2.016754159 60.311727911 -1.012608774 57.814041712 0 53 C1.034036676 45.968550601 -0.375318242 41.23937982 -3.90625 35.12890625 C-5 33 -5 33 -5 30 C-11.27 30 -17.54 30 -24 30 C-24.33 32.97 -24.66 35.94 -25 39 C-25.268769531 40.804042969 -25.268769531 40.804042969 -25.54296875 42.64453125 C-26.023704934 46.41294285 -26.105867514 50.15224904 -26.17578125 53.94921875 C-26.199628906 55.209277344 -26.223476562 56.469335938 -26.248046875 57.767578125 C-26.291205535 60.392409337 -26.322351586 63.017464138 -26.341796875 65.642578125 C-26.369511719 66.898769531 -26.397226562 68.154960937 -26.42578125 69.44921875 C-26.44036377 70.587058105 -26.454946289 71.724897461 -26.469970703 72.897216797 C-27.108844704 76.637175192 -28.345320532 78.333350073 -31 81 C-33.359375 81.48828125 -33.359375 81.48828125 -35.75 81.3125 C-36.54921875 81.267382812 -37.3484375 81.222265625 -38.171875 81.17578125 C-38.77515625 81.117773438 -39.3784375 81.059765625 -40 81 C-41.14453125 79.25 -41.14453125 79.25 -42 77 C-41.13671875 75 -41.13671875 75 -39.6875 73 C-36.426945775 68.42629106 -35.846121092 65.139561429 -36.0859375 59.53515625 C-36.129765625 58.487792969 -36.17359375 57.440429688 -36.21875 56.361328125 C-36.2703125 55.272714844 -36.321875 54.184101562 -36.375 53.0625 C-36.440742188 51.435380859 -36.440742188 51.435380859 -36.5078125 49.775390625 C-36.715944154 45.072193381 -36.97595135 40.606126893 -38 36 C-39.091223643 39.490961698 -39.057961001 42.62784807 -38.95703125 46.26953125 C-38.935761719 47.488339844 -38.914492188 48.707148437 -38.892578125 49.962890625 C-38.839430721 52.517854838 -38.774432417 55.072601532 -38.697265625 57.626953125 C-38.597271067 64.652496726 -38.67934285 69.321179502 -43 75 C-43.33 74.34 -43.66 73.68 -44 73 C-43.693928223 72.414685059 -43.387856445 71.829370117 -43.072509766 71.226318359 C-41.730830064 68.441256398 -41.787170671 66.461919558 -41.83984375 63.37890625 C-41.851445313 62.283686523 -41.863046875 61.188466797 -41.875 60.060058594 C-41.895625 58.905864258 -41.91625 57.751669922 -41.9375 56.5625 C-42.025987171 47.64127259 -42.006103231 38.875267788 -41 30 C-41.626484375 29.590078125 -42.25296875 29.18015625 -42.8984375 28.7578125 C-43.715703125 28.218984375 -44.53296875 27.68015625 -45.375 27.125 C-46.187109375 26.591328125 -46.99921875 26.05765625 -47.8359375 25.5078125 C-50 24 -50 24 -52 22 C-51.01 21.67 -50.02 21.34 -49 21 C-48.67 21.66 -48.34 22.32 -48 23 C-46.024771542 24.048080406 -44.025184913 25.052041104 -42 26 C-42.32484375 25.456015625 -42.6496875 24.91203125 -42.984375 24.3515625 C-44.198832112 21.539627187 -44.266463277 19.4289378 -44.25 16.375 C-44.257734375 14.932539062 -44.257734375 14.932539062 -44.265625 13.4609375 C-44 11 -44 11 -42 9 C-42.058007812 9.750234375 -42.116015625 10.50046875 -42.17578125 11.2734375 C-42.482819015 18.238808504 -41.659589479 22.703115274 -38.2421875 28.765625 C-35.086433738 34.442012271 -34.547249147 40.649029633 -34 47 C-32.198119412 44.297179117 -31.146445688 42.009419931 -30 39 C-28.853554312 35.990580069 -27.801880588 33.702820883 -26 31 C-25.121664759 28.217955502 -24.82889607 25.577921392 -24.68359375 22.671875 C-24.641699219 21.87265625 -24.599804687 21.0734375 -24.556640625 20.25 C-24.517324219 19.425 -24.478007812 18.6 -24.4375 17.75 C-24.394316406 16.90953125 -24.351132812 16.0690625 -24.306640625 15.203125 C-24.200914572 13.135593293 -24.099987045 11.067817195 -24 9 C-22 11 -22 11 -21.76953125 12.8828125 C-21.790800781 13.992695313 -21.790800781 13.992695313 -21.8125 15.125 C-21.818945313 15.849453125 -21.825390625 16.57390625 -21.83203125 17.3203125 C-22.056859913 20.907113955 -22.52921143 24.437072104 -23 28 C-20.332204936 28.109137071 -17.668976891 28.187827493 -15 28.25 C-13.884316406 28.300273437 -13.884316406 28.300273437 -12.74609375 28.3515625 C-6.803336835 28.454914794 -3.141073595 26.967801575 2 24 C1.939414062 23.34402832 1.878828125 22.688056641 1.81640625 22.012207031 C1.543333261 19.049890239 1.271649475 16.087447655 1 13.125 C0.904609375 12.092460937 0.80921875 11.059921875 0.7109375 9.99609375 C0.620703125 9.009960937 0.53046875 8.023828125 0.4375 7.0078125 C0.353710938 6.096606445 0.269921875 5.185400391 0.18359375 4.246582031 C0 2 0 2 0 0 Z " fill="#473D30" transform="translate(130,97)" />
<path d="M0 0 C1.374785156 0.017402344 1.374785156 0.017402344 2.77734375 0.03515625 C3.696445313 0.044179687 4.615546875 0.053203125 5.5625 0.0625 C6.272773438 0.074101562 6.983046875 0.085703125 7.71484375 0.09765625 C6.72484375 0.42765625 5.73484375 0.75765625 4.71484375 1.09765625 C4.960410156 1.925234375 4.960410156 1.925234375 5.2109375 2.76953125 C5.772447893 5.36379632 5.812233828 7.696010356 5.77734375 10.34765625 C5.768320312 11.2396875 5.759296875 12.13171875 5.75 13.05078125 C5.738398437 13.72625 5.726796875 14.40171875 5.71484375 15.09765625 C3.73484375 15.42765625 1.75484375 15.75765625 -0.28515625 16.09765625 C0.47796875 16.86078125 1.24109375 17.62390625 2.02734375 18.41015625 C2.91421875 19.29703125 3.80109375 20.18390625 4.71484375 21.09765625 C5.33359375 21.57203125 5.95234375 22.04640625 6.58984375 22.53515625 C7.71484375 24.09765625 7.71484375 24.09765625 7.65234375 26.91015625 C6.184400266 31.901164094 4.049507501 35.207880416 -0.28515625 38.09765625 C-2.97265625 37.72265625 -2.97265625 37.72265625 -5.28515625 37.09765625 C-5.28515625 36.10765625 -5.28515625 35.11765625 -5.28515625 34.09765625 C-4.62515625 34.09765625 -3.96515625 34.09765625 -3.28515625 34.09765625 C-3.28515625 34.75765625 -3.28515625 35.41765625 -3.28515625 36.09765625 C-2.62515625 35.43765625 -1.96515625 34.77765625 -1.28515625 34.09765625 C-3.59515625 33.43765625 -5.90515625 32.77765625 -8.28515625 32.09765625 C-7.62515625 33.74765625 -6.96515625 35.39765625 -6.28515625 37.09765625 C-10.462735086 36.91912724 -14.122971956 36.721267335 -17.84765625 34.72265625 C-20.562927861 29.764334178 -20.253690814 24.587797981 -18.759277344 19.202636719 C-18.097298763 17.181886176 -17.371072094 15.203349435 -16.59765625 13.22265625 C-16.35418457 12.592546387 -16.110712891 11.962436523 -15.859863281 11.313232422 C-14.048289342 7.023173885 -11.844651338 4.087406483 -8.28515625 1.09765625 C-5.53515625 0.84765625 -5.53515625 0.84765625 -3.28515625 1.09765625 C-2.28515625 0.09765625 -2.28515625 0.09765625 0 0 Z " fill="#C9B499" transform="translate(66.28515625,42.90234375)" />
<path d="M0 0 C3.709865719 -0.287834409 7.299987054 -0.452519569 11 0 C13.6875 2.5 13.6875 2.5 15 5 C13.02 5.99 13.02 5.99 11 7 C11.519492187 7.689648437 12.038984375 8.379296875 12.57421875 9.08984375 C16.854422883 14.857438598 20.717511409 20.608615964 24 27 C23.300345574 25.735817539 22.61565237 24.463345984 21.9375 23.1875 C21.554648437 22.479804688 21.171796875 21.772109375 20.77734375 21.04296875 C20 19 20 19 21 16 C19.983306905 14.209045819 19.983306905 14.209045819 18.5 12.5 C17.03125 10.71875 17.03125 10.71875 16 9 C16.33 8.01 16.66 7.02 17 6 C18.65 8.31 20.3 10.62 22 13 C22 12.01 22 11.02 22 10 C26.415386386 11.471795462 27.20667565 14.453017518 29.25 18.4375 C30 21 30 21 29.5234375 23.6953125 C28.934832405 27.411431234 29.091058323 30.68870246 29.375 34.4375 C29.465234375 35.694335938 29.55546875 36.951171875 29.6484375 38.24609375 C29.986993565 41.861120174 30.453700758 45.41201769 31 49 C29.35 49 27.7 49 26 49 C21.419963533 41.112790799 16.944706142 33.230781085 13 25 C12.67 26.32 12.34 27.64 12 29 C7.756398253 27.585466084 7.141354608 25.090274044 5.1328125 21.265625 C1.754371154 14.508742308 -0.187071979 7.589777418 0 0 Z " fill="#DAC5AB" transform="translate(102,72)" />
<path d="M0 0 C3 1 3 1 4.25 3.4375 C4.8275 4.613125 5.405 5.78875 6 7 C7.60050525 9.422622702 9.279750956 11.778889048 10.96875 14.140625 C12.431834801 16.20019822 13.867161148 18.266809173 15.28125 20.359375 C15.670385742 20.932282715 16.059521484 21.50519043 16.460449219 22.095458984 C17.572510249 23.735107878 18.680878938 25.37725922 19.7890625 27.01953125 C22.013994842 30.018865838 24.300066668 32.437431698 27 35 C26.34 36.32 25.68 37.64 25 39 C24.01 38.01 23.02 37.02 22 36 C22 38.97 22 41.94 22 45 C19 43 19 43 18 42 C17.67 42.99 17.34 43.98 17 45 C14.36 40.71 11.72 36.42 9 32 C10.0209375 34.1346875 10.0209375 34.1346875 11.0625 36.3125 C13.125 40.625 13.125 40.625 12 44 C11.34 43.01 10.68 42.02 10 41 C9.67 41.66 9.34 42.32 9 43 C8.01 43 7.02 43 6 43 C5.147016236 39.326125047 4.892105293 35.955260696 4.9375 32.1875 C4.946523437 31.211679687 4.955546875 30.235859375 4.96484375 29.23046875 C4.976445313 28.494414062 4.988046875 27.758359375 5 27 C4.34 27 3.68 27 3 27 C3.319042969 26.170488281 3.319042969 26.170488281 3.64453125 25.32421875 C4.128293839 22.161155665 3.159480752 20.619629491 1.6875 17.8125 C1.012675781 16.491855469 1.012675781 16.491855469 0.32421875 15.14453125 C-0.820079156 12.870765317 -0.820079156 12.870765317 -3 12 C-2.67 13.65 -2.34 15.3 -2 17 C-4.615273811 14.633799885 -6.264405623 12.057951998 -8 9 C-7.01750889 11.720744614 -6.121205968 13.847370262 -4.3125 16.125 C-3.879375 16.74375 -3.44625 17.3625 -3 18 C-3.33 18.99 -3.66 19.98 -4 21 C-3.212744504 22.81180306 -3.212744504 22.81180306 -2 24.5625 C-1.34 25.696875 -0.68 26.83125 0 28 C-0.33 28.66 -0.66 29.32 -1 30 C-1.680625 28.906875 -2.36125 27.81375 -3.0625 26.6875 C-5.817920734 22.270954195 -8.629859662 17.89157037 -11.44921875 13.515625 C-12.764252173 11.382422167 -13.92715023 9.261968973 -15 7 C-13.68 6.67 -12.36 6.34 -11 6 C-11.99 4.68 -12.98 3.36 -14 2 C-11.512452137 0.756226068 -9.773446989 0.866937654 -7 0.875 C-6.113125 0.872421875 -5.22625 0.86984375 -4.3125 0.8671875 C-2 1 -2 1 0 2 C0 1.34 0 0.68 0 0 Z " fill="#D2BCA4" transform="translate(127,70)" />
<path d="M0 0 C0.33 0 0.66 0 1 0 C0.941992188 0.750234375 0.883984375 1.50046875 0.82421875 2.2734375 C0.517180985 9.238808504 1.340410521 13.703115274 4.7578125 19.765625 C7.913566262 25.442012271 8.452750853 31.649029633 9 38 C10.827291098 35.259063353 11.936981781 32.861746763 13.125 29.8125 C13.478203125 28.911445313 13.83140625 28.010390625 14.1953125 27.08203125 C14.460859375 26.394960938 14.72640625 25.707890625 15 25 C17 27 17 27 17.198730469 30.819580078 C17.18345819 32.469716998 17.155370045 34.119765452 17.1171875 35.76953125 C17.101648254 36.642684784 17.086109009 37.515838318 17.070098877 38.41545105 C17.033244648 40.26577078 16.990842505 42.11598697 16.943359375 43.966064453 C16.875526396 46.790581227 16.839215068 49.614358223 16.8046875 52.439453125 C16.764956332 54.237022989 16.72335028 56.034552587 16.6796875 57.83203125 C16.672184753 58.674901886 16.664682007 59.517772522 16.656951904 60.386184692 C16.523944391 64.42101034 16.285423869 66.541747971 14.104980469 70.042480469 C12 72 12 72 9.640625 72.48828125 C8.85171875 72.430273438 8.0628125 72.372265625 7.25 72.3125 C6.45078125 72.267382812 5.6515625 72.222265625 4.828125 72.17578125 C4.22484375 72.117773438 3.6215625 72.059765625 3 72 C1.85546875 70.25 1.85546875 70.25 1 68 C1.86328125 66 1.86328125 66 3.3125 64 C6.573054225 59.42629106 7.153878908 56.139561429 6.9140625 50.53515625 C6.870234375 49.487792969 6.82640625 48.440429688 6.78125 47.361328125 C6.7296875 46.272714844 6.678125 45.184101562 6.625 44.0625 C6.559257812 42.435380859 6.559257812 42.435380859 6.4921875 40.775390625 C6.284055846 36.072193381 6.02404865 31.606126893 5 27 C3.908776357 30.490961698 3.942038999 33.62784807 4.04296875 37.26953125 C4.064238281 38.488339844 4.085507812 39.707148437 4.107421875 40.962890625 C4.160569279 43.517854838 4.225567583 46.072601532 4.302734375 48.626953125 C4.402728933 55.652496726 4.32065715 60.321179502 0 66 C-0.33 65.34 -0.66 64.68 -1 64 C-0.693928223 63.414685059 -0.387856445 62.829370117 -0.072509766 62.226318359 C1.269169936 59.441256398 1.212829329 57.461919558 1.16015625 54.37890625 C1.148554687 53.283686523 1.136953125 52.188466797 1.125 51.060058594 C1.104375 49.905864258 1.08375 48.751669922 1.0625 47.5625 C0.974012829 38.64127259 0.993896769 29.875267788 2 21 C1.373515625 20.590078125 0.74703125 20.18015625 0.1015625 19.7578125 C-0.715703125 19.218984375 -1.53296875 18.68015625 -2.375 18.125 C-3.187109375 17.591328125 -3.99921875 17.05765625 -4.8359375 16.5078125 C-7 15 -7 15 -9 13 C-8.01 12.67 -7.02 12.34 -6 12 C-5.67 12.66 -5.34 13.32 -5 14 C-3.024771542 15.048080406 -1.025184913 16.052041104 1 17 C0.673867188 16.456015625 0.347734375 15.91203125 0.01171875 15.3515625 C-1.202264714 12.529871206 -1.232884365 10.436381726 -1.1875 7.375 C-1.181054687 6.413359375 -1.174609375 5.45171875 -1.16796875 4.4609375 C-1 2 -1 2 0 0 Z " fill="#534B3F" transform="translate(87,106)" />
<path d="M0 0 C2.13615789 1.42410526 4.27139023 2.849357302 6.40234375 4.28125 C8.107866586 5.409716238 9.829091759 6.514869768 11.56640625 7.59375 C12.771035156 8.35171875 12.771035156 8.35171875 14 9.125 C14.7425 9.581328125 15.485 10.03765625 16.25 10.5078125 C18.394240487 12.336160415 18.544735887 13.257991765 19 16 C18.872314453 18.116699219 18.872314453 18.116699219 18.55078125 20.4296875 C18.088691467 24.449205322 17.96249429 28.337306924 18.04296875 32.3828125 C18.064238281 33.487539062 18.085507812 34.592265625 18.107421875 35.73046875 C18.160998697 38.001603291 18.226186885 40.272492355 18.302734375 42.54296875 C18.413267816 49.543420043 17.843242238 54.075297547 14 60 C11.594543619 61.20272819 10.050030473 61.100714721 7.375 61.0625 C6.149101562 61.048964844 6.149101562 61.048964844 4.8984375 61.03515625 C4.271953125 61.023554687 3.64546875 61.011953125 3 61 C2.375 58.625 2.375 58.625 2 56 C4 54 4 54 7.0625 53 C10.121508056 52.342474443 10.121508056 52.342474443 11 50 C12.435487415 37.632723812 9.355485215 23.10914777 4 12 C3.245169717 10.35637638 2.495057102 8.710576841 1.75 7.0625 C1.41484375 6.352226562 1.0796875 5.641953125 0.734375 4.91015625 C0 3 0 3 0 0 Z " fill="#DAC6AC" transform="translate(71,114)" />
<path d="M0 0 C3.578462025 1.934303797 5.669325039 3.691945217 8 7 C7.662265625 7.652265625 7.32453125 8.30453125 6.9765625 8.9765625 C2.736461135 17.285200435 -0.392660927 24.461021395 1 34 C2.5323927 36.179614461 3.458242684 36.864301705 6.04296875 37.51171875 C7.104511719 37.598730469 7.104511719 37.598730469 8.1875 37.6875 C9.445625 37.790625 10.70375 37.89375 12 38 C11.67 36.68 11.34 35.36 11 34 C13.31 34.33 15.62 34.66 18 35 C18 35.99 18 36.98 18 38 C17.34 38 16.68 38 16 38 C16 37.34 16 36.68 16 36 C15.34 36 14.68 36 14 36 C14.33 36.99 14.66 37.98 15 39 C19.486842011 38.661325384 19.486842011 38.661325384 22.875 35.9375 C23.24625 35.298125 23.6175 34.65875 24 34 C23.34 33.67 22.68 33.34 22 33 C23.485 32.505 23.485 32.505 25 32 C26.225202639 28.991525816 26.225202639 28.991525816 27 26 C26.01 25.67 25.02 25.34 24 25 C21 21.555555556 21 21.555555556 21 19 C20.01 18.67 19.02 18.34 18 18 C18 17.67 18 17.34 18 17 C19.98 17 21.96 17 24 17 C24.103125 17.763125 24.20625 18.52625 24.3125 19.3125 C25.043640387 22.170594241 25.76951913 23.157428846 28 25 C27.67 22.69 27.34 20.38 27 18 C28.666119052 17.957278999 30.333828849 17.959361679 32 18 C33 19 33 19 33.25 21.375 C33 24 33 24 31.625 25.8125 C30 27 30 27 28 27 C27.9175 27.86625 27.835 28.7325 27.75 29.625 C26.699529393 34.352117733 24.398522303 37.601477697 21 41 C17.875 41.125 17.875 41.125 15 41 C16.485 45.95 16.485 45.95 18 51 C18.66 51 19.32 51 20 51 C20 49.35 20 47.7 20 46 C20.33 46 20.66 46 21 46 C21 51.94 21 57.88 21 64 C21.66 64 22.32 64 23 64 C23.391875 65.010625 23.78375 66.02125 24.1875 67.0625 C25.926933431 71.160203755 28.323290783 74.455168875 31 78 C28.531999531 76.848266448 26.952164345 75.952164345 25 74 C26.353429232 78.429404759 27.718798914 82.642754998 30 86.6875 C35.1405929 96.515683361 37.506189473 111.928529331 36 123 C34 125.625 34 125.625 32 127 C31.01 126.505 31.01 126.505 30 126 C31.485 125.505 31.485 125.505 33 125 C33.844136962 107.788985266 30.644006225 93.829532855 23.147705078 78.338867188 C20.032062392 71.680212024 19.007038899 65.924869649 18.4609375 58.6484375 C17.840854351 53.740321726 16.119995963 49.705424962 14.0234375 45.2578125 C13 43 13 43 13 41 C12.32453125 40.890429688 11.6490625 40.780859375 10.953125 40.66796875 C9.615078125 40.430136719 9.615078125 40.430136719 8.25 40.1875 C7.36828125 40.036679687 6.4865625 39.885859375 5.578125 39.73046875 C2.623359532 38.893285201 1.075011779 38.284898028 -1 36 C-2.263758043 27.700990492 -1.24531883 19.707632222 2 12 C1.34 11.34 0.68 10.68 0 10 C-0.1953125 7.6171875 -0.1953125 7.6171875 -0.125 4.875 C-0.106953125 3.964921875 -0.08890625 3.05484375 -0.0703125 2.1171875 C-0.047109375 1.418515625 -0.02390625 0.71984375 0 0 Z " fill="#50483D" transform="translate(47,41)" />
<path d="M0 0 C0.33 0 0.66 0 1 0 C2.694923436 6.378289781 3.286195548 12.288370796 3.1875 18.875 C3.186855469 19.71546875 3.186210937 20.5559375 3.185546875 21.421875 C3.160261975 24.939285536 3.122455799 27.632632604 2 31 C1.34 31 0.68 31 0 31 C-0.054348004 33.062204804 -0.092949605 35.124828157 -0.125 37.1875 C-0.159804687 38.910332031 -0.159804687 38.910332031 -0.1953125 40.66796875 C-0.004841517 43.917403725 0.606398725 46.086605209 2 49 C0.72791378 48.377554011 -0.542618819 47.751932331 -1.8125 47.125 C-2.874042969 46.602929687 -2.874042969 46.602929687 -3.95703125 46.0703125 C-6 45 -6 45 -9 43 C-9.266862128 40.304596853 -9.348180732 37.841525358 -9.29296875 35.1484375 C-9.288723907 34.374405823 -9.284479065 33.600374146 -9.280105591 32.802886963 C-9.263289978 30.326573232 -9.225633948 27.851068417 -9.1875 25.375 C-9.172456823 23.697928406 -9.158767779 22.020844078 -9.146484375 20.34375 C-9.113377212 16.228854187 -9.061576365 12.114564312 -9 8 C-8.67 8.66 -8.34 9.32 -8 10 C-7.34 10 -6.68 10 -6 10 C-5.67 8.68 -5.34 7.36 -5 6 C-5.66 5.67 -6.32 5.34 -7 5 C-2.25 2 -2.25 2 0 2 C0 1.34 0 0.68 0 0 Z " fill="#DAC7AD" transform="translate(87,75)" />
<path d="M0 0 C7.768611306 0.757913298 13.414793281 4.787140396 19 10 C22.576098691 14.625087641 23.918075201 18.584850783 25 24.1875 C25.243632813 25.354665527 25.243632813 25.354665527 25.4921875 26.545410156 C26.008204535 29.027749795 26.506014684 31.513189155 27 34 C30.354315753 54.695259112 30.354315753 54.695259112 40.3984375 72.546875 C41.672436383 73.968685908 42.844005152 75.480692486 44 77 C43.8125 79.375 43.8125 79.375 43 81 C40.75 81.75 40.75 81.75 38 82 C34.185384297 79.028814592 32.970559144 75.885886599 31.4921875 71.36328125 C31.280630188 70.724404755 31.069072876 70.085528259 30.851104736 69.42729187 C30.406962263 68.078458484 29.968577695 66.727717029 29.535644531 65.375244141 C28.881377328 63.332412063 28.210000058 61.295881292 27.53515625 59.259765625 C22 42.411092498 22 42.411092498 22 35 C21.34 35 20.68 35 20 35 C20.11859375 33.842421875 20.2371875 32.68484375 20.359375 31.4921875 C20.490749921 29.953224141 20.620893223 28.414155297 20.75 26.875 C20.831210938 26.114453125 20.912421875 25.35390625 20.99609375 24.5703125 C21.419165254 19.117390895 20.686242281 16.307868298 17 12 C11.929515809 7.150340916 6.637357167 3.308645971 0 1 C0 0.67 0 0.34 0 0 Z " fill="#332C24" transform="translate(138,70)" />
<path d="M0 0 C8.807206525 0 14.50778771 4.82372352 20.77734375 10.65234375 C24.774668114 15.020434432 25.058782932 19.122738636 24.87890625 24.8671875 C24.780635203 26.203673737 24.675073748 27.53964244 24.5625 28.875 C24.510292969 29.563359375 24.458085938 30.25171875 24.404296875 30.9609375 C24.275949022 32.641127579 24.138877752 34.320647493 24 36 C16.023653837 32.70241966 11.977607753 22.43085233 7.75 15.3125 C7.113605957 14.244068604 7.113605957 14.244068604 6.464355469 13.154052734 C3.960727462 8.872838903 1.856729678 4.599625793 0 0 Z " fill="#C8B39A" transform="translate(135,71)" />
<path d="M0 0 C0.33 0.99 0.66 1.98 1 3 C1.33 3.33 1.66 3.66 2 4 C2 4.66 2 5.32 2 6 C3.65 6.33 5.3 6.66 7 7 C7.33 5.35 7.66 3.7 8 2 C8.66 2.33 9.32 2.66 10 3 C10 14.55 10 26.1 10 38 C6.392432555 36.196216278 5.403878563 35.669680191 3.25 32.625 C2.82203125 32.039765625 2.3940625 31.45453125 1.953125 30.8515625 C1 29 1 29 1 25 C0.34 25 -0.32 25 -1 25 C-1.33 20.71 -1.66 16.42 -2 12 C-2.66 12 -3.32 12 -4 12 C-6.034355305 8.270348607 -7 6.330949583 -7 2 C-4.69 1.34 -2.38 0.68 0 0 Z " fill="#ECDEC9" transform="translate(69,80)" />
<path d="M0 0 C5.37109375 1.5625 5.37109375 1.5625 7 3 C8.400768594 9.577522091 8.116999934 16.300700442 8.0625 23 C8.057988281 24.060898438 8.053476562 25.121796875 8.048828125 26.21484375 C8.03713843 28.809955983 8.020752761 31.404947094 8 34 C7.01 34 6.02 34 5 34 C5 31.69 5 29.38 5 27 C4.34 27 3.68 27 3 27 C3.020625 28.256835938 3.04125 29.513671875 3.0625 30.80859375 C3.0625 36.267244584 2.55880986 41.636758317 2 47.0625 C1.904609375 48.023496094 1.80921875 48.984492187 1.7109375 49.974609375 C1.477880798 52.316829231 1.240836506 54.658569551 1 57 C-2.953125 52.4140625 -2.953125 52.4140625 -3.375 48.6875 C-3 45 -3 45 -1.98828125 41.37890625 C-0.773782321 36.645964604 -0.739982151 32.112512628 -0.8125 27.25 C-0.813466797 25.995097656 -0.813466797 25.995097656 -0.814453125 24.71484375 C-0.841616412 20.93009241 -1.068751501 17.670561546 -2 14 C-2.254364276 8.743138296 -1.982567315 4.956418287 0 0 Z " fill="#DCC8B1" transform="translate(90,66)" />
<path d="M0 0 C4.009363878 3.778193348 7.17270443 7.795845928 10.3125 12.3125 C10.766894531 12.957675781 11.221289063 13.602851563 11.689453125 14.267578125 C12.797359518 15.84197142 13.899305248 17.420556463 15 19 C15.33 18.67 15.66 18.34 16 18 C15.699648438 17.445703125 15.399296875 16.89140625 15.08984375 16.3203125 C14.519433594 15.233632813 14.519433594 15.233632813 13.9375 14.125 C13.554648437 13.405703125 13.171796875 12.68640625 12.77734375 11.9453125 C12.392558594 10.982382812 12.392558594 10.982382812 12 10 C12.33 9.34 12.66 8.68 13 8 C13.779238281 9.104082031 13.779238281 9.104082031 14.57421875 10.23046875 C19.797939838 17.543121908 19.797939838 17.543121908 26 24 C25.34 25.32 24.68 26.64 24 28 C23.01 27.01 22.02 26.02 21 25 C21 27.97 21 30.94 21 34 C18 32 18 32 17 31 C16.67 31.99 16.34 32.98 16 34 C13.36 29.71 10.72 25.42 8 21 C9.0209375 23.1346875 9.0209375 23.1346875 10.0625 25.3125 C12.125 29.625 12.125 29.625 11 33 C10.34 32.01 9.68 31.02 9 30 C8.67 30.66 8.34 31.32 8 32 C7.01 32 6.02 32 5 32 C4.147016236 28.326125047 3.892105293 24.955260696 3.9375 21.1875 C3.946523437 20.211679687 3.955546875 19.235859375 3.96484375 18.23046875 C3.976445313 17.494414062 3.988046875 16.758359375 4 16 C3.34 16 2.68 16 2 16 C2.20625 15.4225 2.4125 14.845 2.625 14.25 C3.098285347 11.410287916 2.449416786 10.441123009 1 8 C-1.082191781 4.493150685 -1.082191781 4.493150685 -0.625 1.75 C-0.41875 1.1725 -0.2125 0.595 0 0 Z " fill="#C4A88B" transform="translate(128,81)" />
<path d="M0 0 C2.5625 2.0625 2.5625 2.0625 5 5 C4.883550087 8.43527244 4.537455805 10.925088389 3 14 C5.947295372 15.158113883 5.947295372 15.158113883 9 15 C9.33 13.35 9.66 11.7 10 10 C11.89453125 10.2578125 11.89453125 10.2578125 14 11 C15.01171875 12.7421875 15.01171875 12.7421875 15.6875 14.875 C15.918242187 15.573671875 16.148984375 16.27234375 16.38671875 16.9921875 C16.589101563 17.654765625 16.791484375 18.31734375 17 19 C17.33 19.99 17.66 20.98 18 22 C18.66 22 19.32 22 20 22 C18.630164973 25.161157756 18.010936204 25.992709197 15 28 C12.3125 27.625 12.3125 27.625 10 27 C10 26.01 10 25.02 10 24 C10.66 24 11.32 24 12 24 C12 24.66 12 25.32 12 26 C12.66 25.34 13.32 24.68 14 24 C11.69 23.34 9.38 22.68 7 22 C7.66 23.65 8.32 25.3 9 27 C4.822421164 26.82147099 1.162184294 26.623611085 -2.5625 24.625 C-5.460099802 19.333730797 -4.712399626 13.487257314 -3.09375 7.8359375 C-2.135037744 5.185782908 -1.120241079 2.585556419 0 0 Z " fill="#8A8479" transform="translate(51,53)" />
<path d="M0 0 C0.66 0.99 1.32 1.98 2 3 C2.33 3.33 2.66 3.66 3 4 C3.746992916 11.785964628 2.398073104 18.620215506 0 26 C0.99 23.03 1.98 20.06 3 17 C3.66 17 4.32 17 5 17 C6.339943343 24.065155807 6.339943343 24.065155807 4.75 28.4375 C3 31 3 31 0 32 C0.33 32.66 0.66 33.32 1 34 C0.096743836 35.321764854 -0.823179025 36.632150657 -1.75 37.9375 C-2.26046875 38.668398438 -2.7709375 39.399296875 -3.296875 40.15234375 C-5.22342358 42.242383837 -6.237981287 42.5990618 -9 43 C-9.7425 43.185625 -10.485 43.37125 -11.25 43.5625 C-11.8275 43.706875 -12.405 43.85125 -13 44 C-12.875 42.25 -12.875 42.25 -12 40 C-11.05125 39.443125 -10.1025 38.88625 -9.125 38.3125 C-4.84918933 35.148400104 -4.040985206 32.086439911 -3 27 C-1.959551394 19.948070558 -4.321825804 15.770190584 -7.78515625 9.63671875 C-9 7 -9 7 -8 4 C-2.628571429 0 -2.628571429 0 0 0 Z " fill="#DBCFBD" transform="translate(135,122)" />
<path d="M0 0 C1.17046875 0.018046875 2.3409375 0.03609375 3.546875 0.0546875 C4.884921875 0.089492187 4.884921875 0.089492187 6.25 0.125 C6.937075553 2.615648881 7.25 4.503862916 7.25 7.125 C8.874638419 7.178954781 10.49978541 7.217771949 12.125 7.25 C13.029921875 7.273203125 13.93484375 7.29640625 14.8671875 7.3203125 C17.438069942 7.368248357 17.438069942 7.368248357 19.25 5.125 C20.24 5.62 20.24 5.62 21.25 6.125 C20.9715625 7.7646875 20.9715625 7.7646875 20.6875 9.4375 C19.992193201 13.061241329 19.992193201 13.061241329 21.25 16.125 C22.24 16.125 23.23 16.125 24.25 16.125 C23.92 17.445 23.59 18.765 23.25 20.125 C22.727929687 19.749882813 22.205859375 19.374765625 21.66796875 18.98828125 C10.316302074 11.095791459 -0.695502316 6.765236886 -14.5625 6.8125 C-15.496425781 6.796386719 -16.430351562 6.780273438 -17.392578125 6.763671875 C-25.859210269 6.75779635 -33.216022344 8.730074967 -40.875 12.3125 C-41.620078125 12.656679688 -42.36515625 13.000859375 -43.1328125 13.35546875 C-43.666484375 13.609414063 -44.20015625 13.863359375 -44.75 14.125 C-44.42 12.475 -44.09 10.825 -43.75 9.125 C-36.190218362 6.25749662 -28.761090598 5.093624041 -20.75 4.125 C-20.75 3.795 -20.75 3.465 -20.75 3.125 C-20.07453125 3.076015625 -19.3990625 3.02703125 -18.703125 2.9765625 C-17.81109375 2.901796875 -16.9190625 2.82703125 -16 2.75 C-15.11828125 2.680390625 -14.2365625 2.61078125 -13.328125 2.5390625 C-10.776122869 2.274793364 -10.776122869 2.274793364 -8.84375 1.09375 C-5.856874241 -0.288237292 -3.267974448 -0.065359489 0 0 Z " fill="#F2DED0" transform="translate(137.75,33.875)" />
<path d="M0 0 C0.926835938 0.424101562 1.853671875 0.848203125 2.80859375 1.28515625 C17.635096608 8.667561973 27.88632588 21.37860957 34.04296875 36.57421875 C36.004740036 42.441112219 36.353552032 47.845575747 36 54 C33.533379764 51.533379764 33.413459284 49.480873216 32.809082031 46.134033203 C29.794786508 29.579142434 21.944408231 16.591799792 8.0625 6.859375 C-4.693093918 -0.885092736 -19.559879761 -4.090337811 -34.110839844 -0.711425781 C-39.747387132 0.669084431 -44.822034708 2.29685169 -50 5 C-52.32108669 5.708128143 -54.65377147 6.38024152 -57 7 C-57.99 7.33 -58.98 7.66 -60 8 C-59.67 7.01 -59.34 6.02 -59 5 C-59.66 4.67 -60.32 4.34 -61 4 C-61 2.68 -61 1.36 -61 0 C-57.535 -0.495 -57.535 -0.495 -54 -1 C-53.34 0.32 -52.68 1.64 -52 3 C-51.119570313 2.578476563 -50.239140625 2.156953125 -49.33203125 1.72265625 C-48.170585937 1.174804688 -47.009140625 0.626953125 -45.8125 0.0625 C-44.663945313 -0.482773438 -43.515390625 -1.028046875 -42.33203125 -1.58984375 C-29.992326908 -6.812157077 -11.878315994 -5.751039871 0 0 Z " fill="#9A6960" transform="translate(146,44)" />
<path d="M0 0 C0.33 0 0.66 0 1 0 C0.763857549 5.66058512 0.515390889 11.320441792 0.255371094 16.979980469 C0.168625066 18.906262106 0.085278234 20.832699895 0.005371094 22.759277344 C-0.109922213 25.524893332 -0.237338338 28.289721532 -0.3671875 31.0546875 C-0.400612488 31.919316101 -0.434037476 32.783944702 -0.468475342 33.67477417 C-0.772256586 39.772256586 -0.772256586 39.772256586 -3 42 C-3.99 42 -4.98 42 -6 42 C-6 41.01 -6 40.02 -6 39 C-8.475 39.495 -8.475 39.495 -11 40 C-9 35 -9 35 -7.95703125 32.82421875 C-6.521416922 28.587691568 -6.607283136 24.311662827 -6.521484375 19.8828125 C-6.346454778 15.35765707 -5.534416804 12.713361935 -3 9 C-2.387396844 7.414290595 -1.820924527 5.809616348 -1.3125 4.1875 C-1.061132813 3.397304687 -0.809765625 2.607109375 -0.55078125 1.79296875 C-0.369023438 1.201289062 -0.187265625 0.609609375 0 0 Z " fill="#D6D0BF" transform="translate(102,134)" />
<path d="M0 0 C2 2 2 2 2.23046875 3.8828125 C2.216289062 4.622734375 2.202109375 5.36265625 2.1875 6.125 C2.181054687 6.849453125 2.174609375 7.57390625 2.16796875 8.3203125 C1.943140087 11.907113955 1.47078857 15.437072104 1 19 C14.51685079 19.676433964 14.51685079 19.676433964 27 15 C27 15.66 27 16.32 27 17 C25.038521261 18.389380774 23.038334244 19.726041097 21 21 C22.061517016 24.538390053 23.334230471 27.661775243 25.125 30.875 C27.692075607 35.970548574 27.759946629 40.173681637 26.3046875 45.5859375 C24.302641299 51.322893421 22.461691085 54.269154458 17 57 C18.046372102 58.249028021 18.046372102 58.249028021 20.35546875 58.3125 C23.097329566 58.260197079 23.097329566 58.260197079 24.80078125 56.25 C25.549082031 55.13625 25.549082031 55.13625 26.3125 54 C27.080136719 52.88625 27.080136719 52.88625 27.86328125 51.75 C28.238398437 51.1725 28.613515625 50.595 29 50 C28.67 49.34 28.34 48.68 28 48 C28.66 47.34 29.32 46.68 30 46 C30.99 46 31.98 46 33 46 C31.114089036 52.034915086 27.243981612 57.504012259 22 61 C19.95703125 61.1953125 19.95703125 61.1953125 17.8125 61.125 C16.554375 61.08375 15.29625 61.0425 14 61 C14.125 58.75 14.125 58.75 15 56 C15.94875 55.401875 16.8975 54.80375 17.875 54.1875 C21.983245841 51.311727911 22.987391226 48.814041712 24 44 C25.034036676 36.968550601 23.624681758 32.23937982 20.09375 26.12890625 C19 24 19 24 19 21 C12.73 21 6.46 21 0 21 C-0.33 23.97 -0.66 26.94 -1 30 C-1.33 30 -1.66 30 -2 30 C-2.125330313 22.4801812 -2.125330313 22.4801812 -1.513671875 20.13671875 C-0.98597796 17.941672577 -0.796227271 15.924545418 -0.68359375 13.671875 C-0.641699219 12.87265625 -0.599804687 12.0734375 -0.556640625 11.25 C-0.497666016 10.0125 -0.497666016 10.0125 -0.4375 8.75 C-0.394316406 7.90953125 -0.351132812 7.0690625 -0.306640625 6.203125 C-0.200914572 4.135593293 -0.099987045 2.067817195 0 0 Z " fill="#3B3125" transform="translate(106,106)" />
<path d="M0 0 C1.452244291 2.727911064 2.466497795 5.314820371 3.25390625 8.30078125 C3.468535156 9.113535156 3.683164062 9.926289063 3.904296875 10.763671875 C4.121503906 11.604785156 4.338710937 12.445898438 4.5625 13.3125 C4.783574219 14.142011719 5.004648438 14.971523437 5.232421875 15.826171875 C6.464551264 20.542510051 7.41864333 25.159715816 8 30 C7.34 30 6.68 30 6 30 C5.01 32.475 5.01 32.475 4 35 C3.34 35 2.68 35 2 35 C1.731875 34.113125 1.46375 33.22625 1.1875 32.3125 C0.187281423 29.040012698 0.187281423 29.040012698 -1.625 26.75 C-5.276836884 19.446326232 -2.654782811 9.633742603 -1 2 C-0.67 1.34 -0.34 0.68 0 0 Z " fill="#E4E0D6" transform="translate(159,105)" />
<path d="M0 0 C2.333333333 2.333333333 4.666666667 4.666666667 7 7 C7 4.69 7 2.38 7 0 C10.710812874 4.360205127 12.705065592 9.63264524 15.0390625 14.80078125 C16.752356948 18.534716859 18.452431008 21.751849535 21 25 C21 25.66 21 26.32 21 27 C22.32 27.33 23.64 27.66 25 28 C23.02 28.99 21.04 29.98 19 31 C13.914554934 27.639812496 11.827835425 23.548243798 9.1875 18.25 C8.577451172 17.060839844 8.577451172 17.060839844 7.955078125 15.84765625 C6.959561985 13.903471789 5.975027565 11.954517498 5 10 C4.34 10 3.68 10 3 10 C1.87119943 6.688851661 0.786973253 3.410217431 0 0 Z " fill="#CEB9A3" transform="translate(107,94)" />
<path d="M0 0 C1.32 0.33 2.64 0.66 4 1 C4.33 2.65 4.66 4.3 5 6 C6.121484375 6.112148437 6.121484375 6.112148437 7.265625 6.2265625 C15.427918446 7.316292777 15.427918446 7.316292777 18.5625 11.0625 C19.036875 12.031875 19.51125 13.00125 20 14 C20.66 14.33 21.32 14.66 22 15 C21.67 16.98 21.34 18.96 21 21 C19.1875 21.6875 19.1875 21.6875 17 22 C14.143431522 20.242111706 13.902359019 18.646051444 13 15.375 C12.67 14.26125 12.34 13.1475 12 12 C11.01 11.67 10.02 11.34 9 11 C9 12.32 9 13.64 9 15 C9.99 15.66 10.98 16.32 12 17 C8.664111722 18.111962759 7.294275808 18.098091936 4 17 C2.5625 15.375 2.5625 15.375 2 13 C2.875 9.25 2.875 9.25 4 6 C2.68 5.34 1.36 4.68 0 4 C0 2.68 0 1.36 0 0 Z " fill="#ECE1D0" transform="translate(52,52)" />
<path d="M0 0 C2.332046094 2.130413929 3.708856808 4.085767398 5.04296875 6.94140625 C5.394238281 7.689707031 5.745507812 8.438007812 6.107421875 9.208984375 C6.463847656 9.985644531 6.820273437 10.762304688 7.1875 11.5625 C7.555527344 12.343027344 7.923554688 13.123554687 8.302734375 13.927734375 C11 19.727606099 11 19.727606099 11 22 C11.66 22 12.32 22 13 22 C12.581805707 28.777631652 11.948773432 35.795052045 9 42 C6.89453125 43.78515625 6.89453125 43.78515625 5 45 C4.34 44.67 3.68 44.34 3 44 C2.01 43.67 1.02 43.34 0 43 C0.763125 42.360625 1.52625 41.72125 2.3125 41.0625 C5.75063236 37.682972168 6.779136738 33.555904366 8 29 C7.67 29 7.34 29 7 29 C6.97421875 28.203359375 6.9484375 27.40671875 6.921875 26.5859375 C6.576247301 20.128983676 6.198563483 15.985794136 2 11 C0.758931099 8.517862197 1 6.758599748 1 4 C0.709550858 2.656672719 0.390442063 1.317741964 0 0 Z " fill="#D0C2B2" transform="translate(144,125)" />
<path d="M0 0 C0.33 0 0.66 0 1 0 C2.694923436 6.378289781 3.286195548 12.288370796 3.1875 18.875 C3.186855469 19.71546875 3.186210937 20.5559375 3.185546875 21.421875 C3.160261975 24.939285536 3.122455799 27.632632604 2 31 C1.34 31 0.68 31 0 31 C0 31.66 0 32.32 0 33 C-0.66 33 -1.32 33 -2 33 C-2.048984375 32.165976562 -2.09796875 31.331953125 -2.1484375 30.47265625 C-2.548500821 24.451013502 -3.133620137 18.736161227 -4.58984375 12.87890625 C-5.096473534 10.558059333 -5.152660041 8.36623064 -5 6 C-5.66 5.67 -6.32 5.34 -7 5 C-2.25 2 -2.25 2 0 2 C0 1.34 0 0.68 0 0 Z " fill="#C5AD91" transform="translate(87,75)" />
<path d="M0 0 C4.715585297 0.73489641 6.187638848 3.244786362 8.93359375 6.921875 C11.991230322 11.476539686 14.740746863 16.200665143 17.447753906 20.970703125 C19.711820084 24.938934362 22.126772856 28.43323527 25 32 C25 32.66 25 33.32 25 34 C25.66 34 26.32 34 27 34 C26.67 36.31 26.34 38.62 26 41 C24.5 39.75 24.5 39.75 23 38 C23 36.68 23 35.36 23 34 C21.384932242 32.283284621 19.709563323 30.622636374 18 29 C16.536302536 27.03415815 15.121215859 25.031430903 13.75 23 C12.975685162 21.856483109 12.200931706 20.71326312 11.42578125 19.5703125 C11.030844727 18.985400391 10.635908203 18.400488281 10.229003906 17.797851562 C8.980391242 15.971315277 7.704277888 14.167340989 6.41796875 12.3671875 C6.002568359 11.781953125 5.587167969 11.19671875 5.159179688 10.59375 C3.99331991 8.953531608 2.822943635 7.316526314 1.65234375 5.6796875 C0 3 0 3 0 0 Z " fill="#F3DFC7" transform="translate(130,71)" />
<path d="M0 0 C0.33 0 0.66 0 1 0 C0.941992188 0.750234375 0.883984375 1.50046875 0.82421875 2.2734375 C0.516963405 9.24374447 1.351299448 13.700796465 4.75390625 19.7734375 C8.404310395 26.296103213 8.236008775 32.749285981 8 40 C7.67 40 7.34 40 7 40 C6.34 35.71 5.68 31.42 5 27 C4.059547126 30.761811496 3.936668636 33.43407805 4.04296875 37.26953125 C4.064238281 38.488339844 4.085507812 39.707148437 4.107421875 40.962890625 C4.160569279 43.517854838 4.225567583 46.072601532 4.302734375 48.626953125 C4.402728933 55.652496726 4.32065715 60.321179502 0 66 C-0.33 65.34 -0.66 64.68 -1 64 C-0.693928223 63.414685059 -0.387856445 62.829370117 -0.072509766 62.226318359 C1.269169936 59.441256398 1.212829329 57.461919558 1.16015625 54.37890625 C1.148554687 53.283686523 1.136953125 52.188466797 1.125 51.060058594 C1.104375 49.905864258 1.08375 48.751669922 1.0625 47.5625 C0.974012829 38.64127259 0.993896769 29.875267788 2 21 C1.373515625 20.590078125 0.74703125 20.18015625 0.1015625 19.7578125 C-0.715703125 19.218984375 -1.53296875 18.68015625 -2.375 18.125 C-3.187109375 17.591328125 -3.99921875 17.05765625 -4.8359375 16.5078125 C-7 15 -7 15 -9 13 C-8.01 12.67 -7.02 12.34 -6 12 C-5.67 12.66 -5.34 13.32 -5 14 C-3.024771542 15.048080406 -1.025184913 16.052041104 1 17 C0.673867188 16.456015625 0.347734375 15.91203125 0.01171875 15.3515625 C-1.202264714 12.529871206 -1.232884365 10.436381726 -1.1875 7.375 C-1.181054687 6.413359375 -1.174609375 5.45171875 -1.16796875 4.4609375 C-1 2 -1 2 0 0 Z " fill="#4B3F33" transform="translate(87,106)" />
<path d="M0 0 C2.789079823 2.399721101 3.825588104 4.689690039 5.0625 8.125 C6.156248593 11.813742422 6.156248593 11.813742422 9 14 C9.474375 14.804375 9.94875 15.60875 10.4375 16.4375 C11.896640453 19.235597199 11.896640453 19.235597199 15 21 C12.729231583 21.026997247 10.458371786 21.046394526 8.1875 21.0625 C6.290644531 21.079902344 6.290644531 21.079902344 4.35546875 21.09765625 C1 21 1 21 -2 20 C-2 14.06 -2 8.12 -2 2 C-1.34 2 -0.68 2 0 2 C0 1.34 0 0.68 0 0 Z " fill="#D1BCA4" transform="translate(109,105)" />
<path d="M0 0 C3.51855159 1.407420636 4.386128338 2.664665232 6 6 C6.99 6.33 7.98 6.66 9 7 C11.63109975 11.250238057 12.50569398 15.0569398 13 20 C14.32 19.67 15.64 19.34 17 19 C17.66 22.3 18.32 25.6 19 29 C17.35 29 15.7 29 14 29 C0 5.299492386 0 5.299492386 0 0 Z " fill="#EEDAC5" transform="translate(114,92)" />
<path d="M0 0 C4.148954274 4.148954274 4.247347268 10.774047873 4.27734375 16.395263672 C4.268320312 17.15170166 4.259296875 17.908139648 4.25 18.6875 C4.246132812 19.489699707 4.242265625 20.291899414 4.23828125 21.118408203 C4.104263036 30.792848007 3.070759735 40.391843448 2 50 C-1.953125 45.4140625 -1.953125 45.4140625 -2.375 41.6875 C-2 38 -2 38 -0.98828125 34.35546875 C0.193147149 29.745029419 0.263451227 25.362636914 0.1875 20.625 C0.181779785 19.79371582 0.17605957 18.962431641 0.170166016 18.105957031 C0.102083545 12.352144306 -0.354419986 6.71799441 -1 1 C-0.67 0.67 -0.34 0.34 0 0 Z " fill="#EFDBC2" transform="translate(89,73)" />
<path d="M0 0 C0.33 0 0.66 0 1 0 C1.048984375 0.638085937 1.09796875 1.276171875 1.1484375 1.93359375 C1.223203125 2.759882812 1.29796875 3.586171875 1.375 4.4375 C1.444609375 5.261210937 1.51421875 6.084921875 1.5859375 6.93359375 C1.722578125 7.615507812 1.85921875 8.297421875 2 9 C2.66 9.33 3.32 9.66 4 10 C4.699922863 11.666483008 5.396629503 13.334456442 6.0703125 15.01171875 C7.62131195 18.328772195 9.798016006 21.083859035 12 24 C9.531999531 22.848266448 7.952164345 21.952164345 6 20 C7.353429232 24.429404759 8.718798914 28.642754998 11 32.6875 C16.1405929 42.515683361 18.506189473 57.928529331 17 69 C15 71.625 15 71.625 13 73 C12.34 72.67 11.68 72.34 11 72 C12.485 71.505 12.485 71.505 14 71 C14.946057738 51.710933893 10.381581862 36.252530978 1.876220703 19.004394531 C-0.004772541 14.701537319 -0.109303749 10.930374867 -0.0625 6.25 C-0.053476562 5.07953125 -0.044453125 3.9090625 -0.03515625 2.703125 C-0.023554687 1.81109375 -0.011953125 0.9190625 0 0 Z " fill="#40362A" transform="translate(66,95)" />
<path d="M0 0 C0 0.66 0 1.32 0 2 C0.99 2 1.98 2 3 2 C3 2.66 3 3.32 3 4 C3.66 4 4.32 4 5 4 C5 3.34 5 2.68 5 2 C8.915934459 2.783186892 12.364066349 4.391798577 16 6 C14.630164973 9.161157756 14.010936204 9.992709197 11 12 C8.3125 11.625 8.3125 11.625 6 11 C6 10.01 6 9.02 6 8 C6.66 8 7.32 8 8 8 C8 8.66 8 9.32 8 10 C8.66 9.34 9.32 8.68 10 8 C7.69 7.34 5.38 6.68 3 6 C3.66 7.65 4.32 9.3 5 11 C3.561632493 10.885413071 2.124290344 10.757908836 0.6875 10.625 C-0.513261719 10.520585938 -0.513261719 10.520585938 -1.73828125 10.4140625 C-4 10 -4 10 -7 8 C-7.1875 5.375 -7.1875 5.375 -7 3 C-6.01 3 -5.02 3 -4 3 C-4 2.34 -4 1.68 -4 1 C-2 0 -2 0 0 0 Z " fill="#DAD6CA" transform="translate(55,69)" />
<path d="M0 0 C0.887519531 0.597480469 0.887519531 0.597480469 1.79296875 1.20703125 C2.583164063 1.736835938 3.373359375 2.266640625 4.1875 2.8125 C4.964804688 3.334570313 5.742109375 3.856640625 6.54296875 4.39453125 C8.992969791 5.995406334 11.481215134 7.510203623 14 9 C13.885215867 11.063093758 13.757738018 13.125483543 13.625 15.1875 C13.555390625 16.336054687 13.48578125 17.484609375 13.4140625 18.66796875 C13.024904262 21.799591172 12.319014898 24.152858086 11 27 C9 26 9 26 8.10546875 23.41015625 C7.802539063 22.305429688 7.499609375 21.200703125 7.1875 20.0625 C5.617082424 14.67567141 3.658925853 9.929739046 0.953125 5.0234375 C0 3 0 3 0 0 Z " fill="#D3C3AD" transform="translate(71,114)" />
<path d="M0 0 C4.481352008 4.481352008 3.452868119 12.815508984 3.75 18.8125 C3.818320312 19.867597656 3.886640625 20.922695312 3.95703125 22.009765625 C4.323754801 29.55580792 4.001753217 35.569424895 -1.1875 41.5 C-1.785625 41.995 -2.38375 42.49 -3 43 C-3.66 42.34 -4.32 41.68 -5 41 C-4.343867187 40.135039062 -3.687734375 39.270078125 -3.01171875 38.37890625 C0.243355984 32.676428477 -0.618967036 26.297846038 -0.8125 19.9375 C-0.865005252 17.446702058 -0.913330058 14.955811714 -0.95703125 12.46484375 C-0.987727051 11.367770996 -1.018422852 10.270698242 -1.050048828 9.140380859 C-0.999886879 5.992902083 -0.597656886 3.086394205 0 0 Z " fill="#E3DED0" transform="translate(91,131)" />
<path d="M0 0 C0.99 0 1.98 0 3 0 C13.657575972 23.797053198 13.657575972 23.797053198 12 29 C7.756398253 27.585466084 7.141354608 25.090274044 5.1328125 21.265625 C1.844458047 14.688916094 -0.480020371 7.440315756 0 0 Z " fill="#F2E1C9" transform="translate(102,72)" />
<path d="M0 0 C5.700539714 0.950089952 7.020573098 1.371699001 11 5 C9 6 9 6 7 6 C7.33 6.66 7.66 7.32 8 8 C5.69 8.66 3.38 9.32 1 10 C3.97 10.495 3.97 10.495 7 11 C7 12.65 7 14.3 7 16 C6.01 15.67 5.02 15.34 4 15 C4 14.01 4 13.02 4 12 C3.01 12.495 3.01 12.495 2 13 C1.347867083 15.024632551 1.347867083 15.024632551 1 17 C-2.374627148 16.452763165 -4.082349995 15.945100003 -7 14 C-4.69 9.38 -2.38 4.76 0 0 Z " fill="#EFE9D8" transform="translate(75,70)" />
<path d="M0 0 C0.33 0 0.66 0 1 0 C1.498929399 7.539377583 1.066185659 12.541940425 -3 19 C-5.405456381 20.20272819 -6.949969527 20.100714721 -9.625 20.0625 C-10.850898438 20.048964844 -10.850898438 20.048964844 -12.1015625 20.03515625 C-12.728046875 20.023554687 -13.35453125 20.011953125 -14 20 C-14.625 17.625 -14.625 17.625 -15 15 C-12.532641156 12.532641156 -10.278284793 12.092761598 -7 11 C-6.34 10.34 -5.68 9.68 -5 9 C-4.34 9.33 -3.68 9.66 -3 10 C-2.67 7.36 -2.34 4.72 -2 2 C-1.34 2 -0.68 2 0 2 C0 1.34 0 0.68 0 0 Z " fill="#B1ACA2" transform="translate(88,155)" />
<path d="M0 0 C5.992233555 5.825782623 9.829321038 9.558754679 10.09765625 18.11328125 C10.086054687 19.169023438 10.074453125 20.224765625 10.0625 21.3125 C10.053476563 22.381132812 10.044453125 23.449765625 10.03515625 24.55078125 C10.023554687 25.359023438 10.011953125 26.167265625 10 27 C9.87625 26.360625 9.7525 25.72125 9.625 25.0625 C9.41875 24.381875 9.2125 23.70125 9 23 C7.223606798 21.925464401 7.223606798 21.925464401 6 22 C4.68 22 3.36 22 2 22 C1.186253556 19.170959629 0.914407076 16.749407191 1 13.8125 C1.062208765 9.13129047 0.589499046 4.642304988 0 0 Z " fill="#E5E0D2" transform="translate(140,131)" />
<path d="M0 0 C0.66 0 1.32 0 2 0 C2.146953125 1.13953125 2.29390625 2.2790625 2.4453125 3.453125 C4.343723143 17.179981584 7.522606417 30.468484882 12.75 43.33203125 C13.981197479 46.944826351 14.099505319 47.632300641 13 51 C12.505 49.515 12.505 49.515 12 48 C11.34 48 10.68 48 10 48 C-2.149198578 11.332137957 -2.149198578 11.332137957 0 0 Z " fill="#706B63" transform="translate(160,95)" />
<path d="M0 0 C4.166869077 1.388956359 5.110240492 4.304640314 7 8 C7.303654785 8.612546387 7.60730957 9.225092773 7.920166016 9.856201172 C9.815629245 13.619272078 11.850531692 17.305197781 13.875 21 C14.309414062 21.806953125 14.743828125 22.61390625 15.19140625 23.4453125 C17.416239999 27.494109052 19.438812013 30.95228563 23 34 C18.503472222 34.364583333 18.503472222 34.364583333 16.1875 32.6875 C15 31 15 31 15 28 C14.01 27.67 13.02 27.34 12 27 C10.61328125 24.27734375 10.61328125 24.27734375 9.3125 20.9375 C8.657011719 19.280410156 8.657011719 19.280410156 7.98828125 17.58984375 C7.662148437 16.735195312 7.336015625 15.880546875 7 15 C6.01 15.33 5.02 15.66 4 16 C-0.592255125 5.62642369 -0.592255125 5.62642369 0 0 Z " fill="#F5E2CC" transform="translate(103,91)" />
<path d="M0 0 C8.82299358 0 14.537246952 4.845023025 20.8125 10.6875 C22.993015965 13.06624469 23.961227813 14.643295884 24.3125 17.875 C24.209375 18.57625 24.10625 19.2775 24 20 C23.01 20 22.02 20 21 20 C20.34 19.01 19.68 18.02 19 17 C17.630708604 15.100039448 16.255124454 13.204606107 14.875 11.3125 C14.150546875 10.318632812 13.42609375 9.324765625 12.6796875 8.30078125 C12.125390625 7.541523438 11.57109375 6.782265625 11 6 C11.33 7.65 11.66 9.3 12 11 C9.666666667 8.666666667 7.333333333 6.333333333 5 4 C4.67 4.66 4.34 5.32 4 6 C2.68 4.02 1.36 2.04 0 0 Z " fill="#E8D7C3" transform="translate(135,71)" />
<path d="M0 0 C2 1 2 1 3.1484375 4.16796875 C3.77138233 6.170576648 4.3724125 8.1787757 4.96875 10.189453125 C6.791168147 16.031572057 9.586874511 20.656815948 13.8125 25.125 C16 28 16 28 15.8125 30.375 C15.544375 30.91125 15.27625 31.4475 15 32 C12.75 32.75 12.75 32.75 10 33 C7.181811516 30.96464165 6.166920049 29.612040179 5.25 26.25 C5.1675 25.5075 5.085 24.765 5 24 C5.66 24.66 6.32 25.32 7 26 C6.082945291 20.265505994 3.98261146 14.883581732 2.083984375 9.41796875 C1.817792969 8.638085937 1.551601562 7.858203125 1.27734375 7.0546875 C1.032341309 6.348120117 0.787338867 5.641552734 0.534912109 4.913574219 C0 3 0 3 0 0 Z " fill="#25211C" transform="translate(166,119)" />
<path d="M0 0 C0.99 0 1.98 0 3 0 C3.984534028 3.751872916 3.973598355 6.079204936 2.75 9.75 C2.46640625 10.617539063 2.1828125 11.485078125 1.890625 12.37890625 C1.59671875 13.243867188 1.3028125 14.108828125 1 15 C0.621015625 16.189160156 0.621015625 16.189160156 0.234375 17.40234375 C-1.263432245 22.063073741 -3.003103425 26.530755286 -5 31 C-5.66 30.67 -6.32 30.34 -7 30 C-6.801372503 22.325755805 -4.708930582 15.577004444 -2.15625 8.41796875 C-1.200811227 5.593614268 -0.491615037 2.932930618 0 0 Z " fill="#F0DFC9" transform="translate(101,105)" />
<path d="M0 0 C0.33 0 0.66 0 1 0 C1 1.65 1 3.3 1 5 C1.99 4.67 2.98 4.34 4 4 C4.33 10.93 4.66 17.86 5 25 C3 22 3 22 2 20 C1.67 20.66 1.34 21.32 1 22 C0.01 21.67 -0.98 21.34 -2 21 C-2 19.68 -2 18.36 -2 17 C-2.66 16.67 -3.32 16.34 -4 16 C-3.525461287 13.519863706 -3.045610153 11.040967438 -2.5625 8.5625 C-2.427792969 7.855449219 -2.293085937 7.148398438 -2.154296875 6.419921875 C-1.11328125 1.11328125 -1.11328125 1.11328125 0 0 Z " fill="#C7B496" transform="translate(72,88)" />
<path d="M0 0 C11.27672017 3.903480059 17.075439084 15.039507752 22.119628906 25.145019531 C25.583617961 32.443796247 26.461051921 38.974281384 26 47 C23.533379764 44.533379764 23.413459284 42.480873216 22.809082031 39.134033203 C19.925477285 23.296912645 12.520756692 11.135850656 0 1 C0 0.67 0 0.34 0 0 Z " fill="#B16561" transform="translate(156,51)" />
<path d="M0 0 C4.206260339 1.502235835 5.739000207 4.285500339 8 8 C7.67 6.35 7.34 4.7 7 3 C10.394177653 6.126216259 12.606271798 8.565410267 14 13 C13.01 13.33 12.02 13.66 11 14 C10.67 15.98 10.34 17.96 10 20 C7.062770082 17.397162411 5.283674143 14.37207149 3.3125 11 C2.689882813 9.948125 2.067265625 8.89625 1.42578125 7.8125 C-0.071068568 4.859809948 0 3.217863156 0 0 Z " fill="#BA9D80" transform="translate(138,73)" />
</svg>