<?xml version='1.0' encoding='utf-8'?>
<svg xmlns="http://www.w3.org/2000/svg" version="1.1" width="153" height="149" viewBox="47.311488529 26.185033141000005 153.028511471 149.00246685899998">
<path d="M0 0 C7.36962545 2.380000008 14.971139493 3.434757642 22.60546875 4.640625 C30.9539495 6.07448836 38.638907337 8.004088272 44.9609375 13.9296875 C52.769445441 25.743595887 54.195469231 37.687032057 55.555664062 51.509765625 C56.118255841 57.16255346 56.885289744 62.298420553 58.59375 67.7109375 C59.017992424 74.074573864 59.017992424 74.074573864 56.59375 77.7109375 C55.975 77.8140625 55.35625 77.9171875 54.71875 78.0234375 C51.389932069 79.100408007 50.450685822 81.841127593 48.59375 84.7109375 C46.28125 87.1484375 46.28125 87.1484375 43.59375 88.7109375 C39.78125 88.4609375 39.78125 88.4609375 36.59375 87.7109375 C36.59375 87.3809375 36.59375 87.0509375 36.59375 86.7109375 C37.645625 86.6284375 38.6975 86.5459375 39.78125 86.4609375 C44.404530011 85.551439793 46.994539905 83.982037948 49.71875 80.11328125 C51.04768409 76.464645244 50.842610726 72.93551569 50.78125 69.0859375 C50.780605469 68.309921875 50.779960937 67.53390625 50.779296875 66.734375 C50.839450252 62.589528765 50.839450252 62.589528765 49.59375 58.7109375 C49.463051431 56.712223654 49.391008278 54.70954461 49.34765625 52.70703125 C49.314785156 51.490800781 49.281914062 50.274570313 49.248046875 49.021484375 C49.187498825 46.466871979 49.130136408 43.912181822 49.076171875 41.357421875 C48.76278462 30.116871457 48.251691487 21.122881531 39.71875 12.9609375 C34.975950261 9.546121688 30.03450736 8.49522786 24.34765625 7.45703125 C23.180410156 7.242402344 22.013164062 7.027773438 20.810546875 6.806640625 C19.604628906 6.589433594 18.398710937 6.372226563 17.15625 6.1484375 C15.954199219 5.927363281 14.752148438 5.706289062 13.513671875 5.478515625 C10.209337596 4.87524224 6.902651766 4.28856268 3.59375 3.7109375 C2.827805176 3.572121582 2.061860352 3.433305664 1.272705078 3.290283203 C-2.40939411 2.649406182 -2.40939411 2.649406182 -5.84375 4.0234375 C-7.632719344 5.572225027 -7.632719344 5.572225027 -7.40625 7.7109375 C-6.236592074 8.755911079 -5.018569083 9.747033495 -3.78125 10.7109375 C6.511143488 19.512206843 10.445062789 32.750960955 12.59375 45.7109375 C12.903125 47.5053125 12.903125 47.5053125 13.21875 49.3359375 C13.3425 50.1196875 13.46625 50.9034375 13.59375 51.7109375 C12.93375 51.0509375 12.27375 50.3909375 11.59375 49.7109375 C10.93375 52.0209375 10.27375 54.3309375 9.59375 56.7109375 C11.0478125 56.4634375 11.0478125 56.4634375 12.53125 56.2109375 C16.080055366 55.695788334 19.510230866 55.664758551 23.08984375 55.7734375 C26.60791693 55.685622881 30.101756477 55.14743669 33.59375 54.7109375 C32.60375 49.4309375 31.61375 44.1509375 30.59375 38.7109375 C31.58375 38.3809375 32.57375 38.0509375 33.59375 37.7109375 C33.573125 38.307773438 33.5525 38.904609375 33.53125 39.51953125 C33.71437337 47.222158006 36.241802708 52.925594307 39.798828125 59.607177734 C42.867078202 65.539081646 43.378764833 70.514047213 41.78125 77.0859375 C41.389375 78.2821875 40.9975 79.4784375 40.59375 80.7109375 C39.10875 81.2059375 39.10875 81.2059375 37.59375 81.7109375 C37.92375 80.7621875 38.25375 79.8134375 38.59375 78.8359375 C39.958195799 74.156464937 39.768743407 69.542699908 39.59375 64.7109375 C39.230234375 65.815019531 39.230234375 65.815019531 38.859375 66.94140625 C34.655950957 79.179837022 34.655950957 79.179837022 29.59375 81.7109375 C26.921387905 81.845092224 24.271245116 81.754122905 21.59375 81.7109375 C21.26375 80.0609375 20.93375 78.4109375 20.59375 76.7109375 C21.398125 76.0921875 22.2025 75.4734375 23.03125 74.8359375 C25.632495193 72.969297091 25.632495193 72.969297091 26.59375 70.7109375 C26.737160733 66.265204781 26.678018679 63.048012218 25.59375 58.7109375 C19.98375 58.7109375 14.37375 58.7109375 8.59375 58.7109375 C7.92220364 62.74021566 7.456540905 65.980772624 7.46875 69.9609375 C7.466171875 70.81171875 7.46359375 71.6625 7.4609375 72.5390625 C7.454312773 74.758551843 7.454312773 74.758551843 8.59375 76.7109375 C9.09375 79.4609375 9.09375 79.4609375 8.59375 82.7109375 C5.334995817 86.404760959 1.715547743 89.526433348 -3.28125 89.9609375 C-6.701588219 89.687310442 -7.929327409 88.997327584 -10.40625 86.7109375 C-10.15625 84.3359375 -10.15625 84.3359375 -9.40625 81.7109375 C-7.359375 80.546875 -7.359375 80.546875 -5.40625 79.7109375 C-5.550625 78.8653125 -5.695 78.0196875 -5.84375 77.1484375 C-6.862782668 70.921015638 -7.653683496 65.020491652 -7.40625 58.7109375 C-10.183297278 61.109296513 -11.300882219 63.22005378 -12.40625 66.7109375 C-12.586603193 70.096028207 -12.677350137 73.440240389 -12.62109375 76.828125 C-12.691776285 79.709797598 -12.833398653 82.023175407 -14.720703125 84.2890625 C-18.247624803 87.271732595 -20.84860823 88.85654741 -25.40625 88.8984375 C-26.458125 88.919707031 -26.458125 88.919707031 -27.53125 88.94140625 C-29.40625 88.7109375 -29.40625 88.7109375 -31.40625 86.7109375 C-31.34375 84.3359375 -31.34375 84.3359375 -30.40625 81.7109375 C-29.568359375 81.197890625 -28.73046875 80.68484375 -27.8671875 80.15625 C-25.085858622 77.392580353 -25.038897782 76.891653413 -24.91796875 73.1640625 C-24.951080364 71.429013945 -25.01053808 69.694305795 -25.09375 67.9609375 C-25.127587891 66.628691406 -25.127587891 66.628691406 -25.162109375 65.26953125 C-25.220924479 63.081609382 -25.303037323 60.897140786 -25.40625 58.7109375 C-27.05625 58.7109375 -28.70625 58.7109375 -30.40625 58.7109375 C-30.715625 59.8246875 -30.715625 59.8246875 -31.03125 60.9609375 C-32.823091661 64.544620823 -34.967363182 65.745859318 -38.40625 67.7109375 C-43.657365838 69.461309446 -49.112604416 69.498887088 -54.28125 67.3984375 C-56.992864363 65.934165744 -58.526243946 65.058196521 -60.40625 62.7109375 C-61.094761471 59.647061452 -60.998019863 56.789226603 -60.40625 53.7109375 C-58.09375 50.8984375 -58.09375 50.8984375 -55.40625 48.7109375 C-52.543339123 45.547770117 -51.893602763 43.031901303 -51.34375 38.8359375 C-50.726861961 34.595480223 -49.967557614 30.725728506 -48.40625 26.7109375 C-49.334375 26.6284375 -50.2625 26.5459375 -51.21875 26.4609375 C-54.40625 25.7109375 -54.40625 25.7109375 -56.34375 23.8984375 C-57.40625 21.7109375 -57.40625 21.7109375 -57.09375 19.4609375 C-56.7534375 18.5946875 -56.7534375 18.5946875 -56.40625 17.7109375 C-55.54 18.0409375 -54.67375 18.3709375 -53.78125 18.7109375 C-50.22282453 19.765285787 -48.071787652 20.309392627 -44.40625 19.7109375 C-42.839248156 18.348327201 -41.280152337 16.97539456 -39.765625 15.5546875 C-34.305582191 11.28789908 -27.647366936 8.650636998 -21.40625 5.7109375 C-20.766552734 5.40559082 -20.126855469 5.100244141 -19.467773438 4.785644531 C-5.424371606 -1.917393441 -5.424371606 -1.917393441 0 0 Z " fill="#E6E0D2" transform="translate(118.40625,57.2890625)" />
<path d="M0 0 C2.657241157 2.033700813 4.963899421 4.132533527 7.1640625 6.65625 C7.9684375 7.56375 8.7728125 8.47125 9.6015625 9.40625 C20.743864854 23.168215917 26.620201755 38.806801069 25.1640625 56.65625 C22.97139706 74.675973249 15.090685327 89.501892111 0.987304688 101.122314453 C-13.379612726 112.335680216 -31.088463137 115.395794813 -48.81640625 113.3046875 C-51.2734375 112.84375 -51.2734375 112.84375 -54.8359375 111.65625 C-55.1659375 110.66625 -55.4959375 109.67625 -55.8359375 108.65625 C-55.059921875 108.800625 -54.28390625 108.945 -53.484375 109.09375 C-42.357567515 111.005755105 -31.757868981 111.833539158 -20.8359375 108.65625 C-17.8359375 108.53125 -17.8359375 108.53125 -15.8359375 108.65625 C-15.8359375 107.99625 -15.8359375 107.33625 -15.8359375 106.65625 C-16.4959375 106.32625 -17.1559375 105.99625 -17.8359375 105.65625 C-15.8359375 103.65625 -15.8359375 103.65625 -12.2734375 102.71875 C-11.1390625 102.368125 -10.0046875 102.0175 -8.8359375 101.65625 C-8.3409375 100.17125 -8.3409375 100.17125 -7.8359375 98.65625 C-5.8559375 98.65625 -3.8759375 98.65625 -1.8359375 98.65625 C-1.7946875 97.769375 -1.7534375 96.8825 -1.7109375 95.96875 C-0.717581565 92.208188246 0.603928957 91.215350956 3.6640625 88.95703125 C5.98583261 86.943621233 6.995841709 84.446999667 8.1640625 81.65625 C9.4840625 81.65625 10.8040625 81.65625 12.1640625 81.65625 C14.086122593 77.812129815 13.493555434 73.705900487 12.23828125 69.70703125 C10.615609325 64.283493203 10.340830963 58.642163099 9.7890625 53.03125 C7.814921612 33.900802331 7.814921612 33.900802331 -1.8359375 17.65625 C-9.007309602 12.768470449 -16.913269423 11.361638061 -25.3359375 10.03125 C-27.659758993 9.648685394 -29.982702348 9.260744306 -32.3046875 8.8671875 C-33.967698975 8.585970459 -33.967698975 8.585970459 -35.664306641 8.299072266 C-38.649951685 7.693945378 -41.418618928 6.870003284 -44.30078125 5.89453125 C-48.483259925 4.571337834 -50.800438973 4.602948745 -54.8984375 6.46875 C-56.532324219 7.193847656 -56.532324219 7.193847656 -58.19921875 7.93359375 C-59.06861084 8.347141113 -59.06861084 8.347141113 -59.955566406 8.769042969 C-61.996770412 9.732135069 -64.059457733 10.634456484 -66.12890625 11.53515625 C-73.466662927 14.78913785 -80.123540832 18.008533451 -86.171875 23.40625 C-87.8359375 24.65625 -87.8359375 24.65625 -90.8359375 24.65625 C-90.5059375 23.66625 -90.1759375 22.67625 -89.8359375 21.65625 C-89.768528852 20.095065721 -89.750792938 18.5312248 -89.7734375 16.96875 C-89.782460938 16.160507813 -89.791484375 15.352265625 -89.80078125 14.51953125 C-89.812382813 13.904648438 -89.823984375 13.289765625 -89.8359375 12.65625 C-88.8459375 12.65625 -87.8559375 12.65625 -86.8359375 12.65625 C-86.5059375 12.32625 -86.1759375 11.99625 -85.8359375 11.65625 C-85.1759375 11.511875 -84.5159375 11.3675 -83.8359375 11.21875 C-83.1759375 11.033125 -82.5159375 10.8475 -81.8359375 10.65625 C-81.5059375 9.99625 -81.1759375 9.33625 -80.8359375 8.65625 C-80.1759375 8.65625 -79.5159375 8.65625 -78.8359375 8.65625 C-78.5059375 7.66625 -78.1759375 6.67625 -77.8359375 5.65625 C-71.460057961 -0.612696549 -63.987294869 -4.826833716 -55.8359375 -8.34375 C-55.083125 -8.685351563 -54.3303125 -9.026953125 -53.5546875 -9.37890625 C-35.643373892 -16.158716859 -15.154819376 -10.438969238 0 0 Z " fill="#F0E2D5" transform="translate(162.8359375,52.34375)" />
<path d="M0 0 C0.975014648 0.162260742 1.950029297 0.324521484 2.954589844 0.491699219 C6.432045679 1.077499856 9.903379536 1.693105676 13.375 2.3125 C14.55578125 2.512949219 15.7365625 2.713398437 16.953125 2.919921875 C28.223307684 4.946797714 36.244305303 7.395750274 43 17 C46.562849545 23.801803677 46.128366535 31.39661493 46.0625 38.875 C46.057988281 39.84953125 46.053476563 40.8240625 46.048828125 41.828125 C46.03710906 44.218814336 46.020702193 46.609374395 46 49 C45.34 49 44.68 49 44 49 C43.896875 49.928125 43.79375 50.85625 43.6875 51.8125 C42.962376778 56.994998323 41.443309946 61.980186161 40 67 C39.709396973 66.417504883 39.418793945 65.835009766 39.119384766 65.234863281 C38.435319643 63.869120178 37.74784676 62.505068699 37.054443359 61.144042969 C29 45.263477601 29 45.263477601 29 36 C28.34 36 27.68 36 27 36 C27.2165625 36.903632813 27.433125 37.807265625 27.65625 38.73828125 C27.9346875 39.917773438 28.213125 41.097265625 28.5 42.3125 C28.7784375 43.484257813 29.056875 44.656015625 29.34375 45.86328125 C30 49 30 49 30 52 C22.093886453 54.635371182 14.231348366 54.179811008 6 54 C6.33 51.03 6.66 48.06 7 45 C7.66 45.33 8.32 45.66 9 46 C8.688046875 45.28328125 8.37609375 44.5665625 8.0546875 43.828125 C7.029657442 41.079525883 6.539773716 38.644951243 6.125 35.75 C5.181934562 30.331000908 3.560281594 25.85194348 1 21 C0.555273438 20.151796875 0.110546875 19.30359375 -0.34765625 18.4296875 C-3.531468473 12.741276328 -6.810894743 8.943719995 -12 5 C-9.791666208 -1.625001375 -5.979138803 -1.060346112 0 0 Z " fill="#C8C1B1" transform="translate(122,60)" />
<path d="M0 0 C11.625134989 9.915556314 14.73546791 25.65796343 17 40 C16.34 39.34 15.68 38.68 15 38 C14.34 40.31 13.68 42.62 13 45 C14.4540625 44.7525 14.4540625 44.7525 15.9375 44.5 C19.486305366 43.984850834 22.916480866 43.953821051 26.49609375 44.0625 C30.01416693 43.974685381 33.508006477 43.43649919 37 43 C36.01 37.72 35.02 32.44 34 27 C34.99 26.67 35.98 26.34 37 26 C36.979375 26.596835938 36.95875 27.193671875 36.9375 27.80859375 C37.12062337 35.511220506 39.648052708 41.214656807 43.205078125 47.896240234 C46.273328202 53.828144146 46.785014833 58.803109713 45.1875 65.375 C44.795625 66.57125 44.40375 67.7675 44 69 C42.515 69.495 42.515 69.495 41 70 C41.33 69.05125 41.66 68.1025 42 67.125 C43.364445799 62.445527437 43.174993407 57.831762408 43 53 C42.636484375 54.104082031 42.636484375 54.104082031 42.265625 55.23046875 C38.062200957 67.468899522 38.062200957 67.468899522 33 70 C30.327637905 70.134154724 27.677495116 70.043185405 25 70 C24.67 68.35 24.34 66.7 24 65 C24.804375 64.38125 25.60875 63.7625 26.4375 63.125 C29.038745193 61.258359591 29.038745193 61.258359591 30 59 C30.143410733 54.554267281 30.084268679 51.337074718 29 47 C23.39 47 17.78 47 12 47 C11.32845364 51.02927816 10.862790905 54.269835124 10.875 58.25 C10.872421875 59.10078125 10.86984375 59.9515625 10.8671875 60.828125 C10.860562773 63.047614343 10.860562773 63.047614343 12 65 C12.5 67.75 12.5 67.75 12 71 C8.741245817 74.693823459 5.121797743 77.815495848 0.125 78.25 C-3.295338219 77.976372942 -4.523077409 77.286390084 -7 75 C-6.75 72.625 -6.75 72.625 -6 70 C-3.953125 68.8359375 -3.953125 68.8359375 -2 68 C-2.144375 67.154375 -2.28875 66.30875 -2.4375 65.4375 C-3.456532668 59.210078138 -4.247433496 53.309554152 -4 47 C-6.777047278 49.398359013 -7.894632219 51.50911628 -9 55 C-9.180353193 58.385090707 -9.271100137 61.729302889 -9.21484375 65.1171875 C-9.285526285 67.998860098 -9.427148653 70.312237907 -11.314453125 72.578125 C-14.841374803 75.560795095 -17.44235823 77.14560991 -22 77.1875 C-23.051875 77.208769531 -23.051875 77.208769531 -24.125 77.23046875 C-26 77 -26 77 -28 75 C-27.9375 72.625 -27.9375 72.625 -27 70 C-26.162109375 69.486953125 -25.32421875 68.97390625 -24.4609375 68.4453125 C-21.679608622 65.681642853 -21.632647782 65.180715913 -21.51171875 61.453125 C-21.544830364 59.718076445 -21.60428808 57.983368295 -21.6875 56.25 C-21.721337891 54.917753906 -21.721337891 54.917753906 -21.755859375 53.55859375 C-21.814674479 51.370671882 -21.896787323 49.186203286 -22 47 C-23.65 47 -25.3 47 -27 47 C-27.309375 48.11375 -27.309375 48.11375 -27.625 49.25 C-29.416841661 52.833683323 -31.561113182 54.034921818 -35 56 C-40.251115838 57.750371946 -45.706354416 57.787949588 -50.875 55.6875 C-53.586605782 54.223232878 -55.139999914 53.366272299 -57 51 C-57.328125 48.80859375 -57.328125 48.80859375 -57.25 46.4375 C-57.23453125 45.652460937 -57.2190625 44.867421875 -57.203125 44.05859375 C-57 42 -57 42 -56 40 C-55.34 40.33 -54.68 40.66 -54 41 C-54.99 43.475 -54.99 43.475 -56 46 C-55.01 46.33 -54.02 46.66 -53 47 C-52.67 48.98 -52.34 50.96 -52 53 C-48.71000718 53.418314039 -48.71000718 53.418314039 -45 53 C-42.186686223 50.604163488 -42.186686223 50.604163488 -40 48 C-39.34 48 -38.68 48 -38 48 C-38 49.65 -38 51.3 -38 53 C-40.475 53.495 -40.475 53.495 -43 54 C-38.00245633 54.293973157 -35.01581652 54.097915601 -31 51 C-28.515781893 47.273672839 -28.577597375 44.313380653 -29 40 C-29.897971135 36.631787285 -29.897971135 36.631787285 -31 34 C-27.877298739 36.518307468 -27.054769021 37.726154897 -26.25 41.75 C-26.12625 43.35875 -26.12625 43.35875 -26 45 C-21.261361381 44.033214243 -21.261361381 44.033214243 -17.34375 41.40625 C-15.522681065 38.145266094 -15.188776313 34.902296688 -14.8125 31.25 C-14.689716797 30.203925781 -14.689716797 30.203925781 -14.564453125 29.13671875 C-14.365228669 27.425732245 -14.181100707 25.712999632 -14 24 C-13.67 24 -13.34 24 -13 24 C-12.972946915 26.416742237 -12.953135623 28.833179403 -12.9375 31.25 C-12.929121094 31.931914062 -12.920742187 32.613828125 -12.912109375 33.31640625 C-12.895716077 36.693425544 -12.943712323 39.772916387 -14 43 C-11.69 42.34 -9.38 41.68 -7 41 C-7 37.7 -7 34.4 -7 31 C-6.67 31 -6.34 31 -6 31 C-5.878828125 31.70125 -5.75765625 32.4025 -5.6328125 33.125 C-5.381445313 34.548125 -5.381445313 34.548125 -5.125 36 C-4.881367188 37.3921875 -4.881367188 37.3921875 -4.6328125 38.8125 C-4.167712072 41.15522808 -3.615613938 43.481106613 -3.015625 45.79296875 C-1.880606724 50.263898284 -1.19344856 54.738383922 -0.625 59.3125 C-0.505117187 60.109785156 -0.385234375 60.907070312 -0.26171875 61.728515625 C0.0234375 64.05078125 0.0234375 64.05078125 0 68 C-1.9609375 69.85546875 -1.9609375 69.85546875 -4 71 C-4 71.99 -4 72.98 -4 74 C-3.34 74 -2.68 74 -2 74 C-2 74.66 -2 75.32 -2 76 C4.218212912 74.709582707 4.218212912 74.709582707 9 71 C9.018783593 68.783536022 8.71519823 66.713463603 8.375 64.5234375 C7.484825694 58.533306234 7.48251258 53.072560497 9.4375 47.3125 C13.396342918 35.091724036 12.486597728 24.52880029 7 13 C5.499609067 10.257041874 3.94182744 7.606668369 2.234375 4.98828125 C1 3 1 3 0 0 Z " fill="#3E3A2F" transform="translate(115,69)" />
<path d="M0 0 C0.66 0.33 1.32 0.66 2 1 C3.373428306 1.068947204 4.750021017 1.08467708 6.125 1.0625 C8.043125 1.0315625 8.043125 1.0315625 10 1 C10 3.64 10 6.28 10 9 C10.99 8.67 11.98 8.34 13 8 C13.12375 8.61875 13.2475 9.2375 13.375 9.875 C13.871973562 12.191208316 13.871973562 12.191208316 16 14 C15.67 14.33 15.34 14.66 15 15 C14.619443692 18.089665072 14.279604342 21.175794302 14.013671875 24.27734375 C13.492506146 28.9724474 12.425952901 31.722732216 9 35 C5.25 35.8125 5.25 35.8125 2 36 C1.01 33.03 0.02 30.06 -1 27 C-0.67 28.32 -0.34 29.64 0 31 C0.561685055 38.077231695 0.561685055 38.077231695 -1.75 41.875 C-5.293623953 45.221755955 -7.415022994 46.09946315 -12.25 46.125 C-13.4875 46.08375 -14.725 46.0425 -16 46 C-15.67 45.34 -15.34 44.68 -15 44 C-13.35 44 -11.7 44 -10 44 C-10 42.35 -10 40.7 -10 39 C-10.66 39 -11.32 39 -12 39 C-12.268125 39.61875 -12.53625 40.2375 -12.8125 40.875 C-14 43 -14 43 -17 45 C-19.331993877 45.07905064 -21.668326221 45.08798769 -24 45 C-24.28875 43.865625 -24.5775 42.73125 -24.875 41.5625 C-25.24625 40.386875 -25.6175 39.21125 -26 38 C-26.66 37.67 -27.32 37.34 -28 37 C-27.918480675 34.228342942 -27.521028316 32.511430426 -25.515625 30.54296875 C-24.268924136 29.533354161 -23.017395731 28.529678756 -21.76171875 27.53125 C-19.284941943 25.378486124 -17.788411772 22.738505525 -16 20 C-14.919216047 18.872935626 -13.81266908 17.770256942 -12.6875 16.6875 C-7.654482781 11.806341059 -2.961624106 6.399997459 0 0 Z " fill="#E9E5D8" transform="translate(87,78)" />
<path d="M0 0 C0.33 0.66 0.66 1.32 1 2 C1.99 2.33 2.98 2.66 4 3 C4 3.66 4 4.32 4 5 C4.99 5.33 5.98 5.66 7 6 C7.33 6.66 7.66 7.32 8 8 C8.99 8.33 9.98 8.66 11 9 C12.09765625 11.21484375 12.09765625 11.21484375 13.0625 13.9375 C14.428322551 17.837794114 14.428322551 17.837794114 17 21 C17.719272952 23.317657289 18.390989302 25.650958736 19 28 C19.66 27.34 20.32 26.68 21 26 C25.962153377 37.516811791 28.664219322 52.490138958 23.99609375 64.60546875 C23.667382812 65.395664063 23.338671875 66.185859375 23 67 C22.618692604 69.325975113 22.275397462 71.659121576 22 74 C21.34 74 20.68 74 20 74 C19.67 74.99 19.34 75.98 19 77 C16.544918235 68.398507859 15.483801691 59.873821821 14.5625 51 C12.684404824 32.005876444 12.684404824 32.005876444 3 16 C-0.205138781 13.960802422 -3.468236764 12.388974079 -7 11 C-6.95875 10.21625 -6.9175 9.4325 -6.875 8.625 C-6.712712661 5.83883881 -6.712712661 5.83883881 -9 4 C-7.68 3.34 -6.36 2.68 -5 2 C-5 1.67 -5 1.34 -5 1 C-3.35 0.67 -1.7 0.34 0 0 Z " fill="#ECE7DA" transform="translate(158,54)" />
<path d="M0 0 C1.32 0.33 2.64 0.66 4 1 C3.374703099 6.523455956 2.483477655 11.933700293 1.40234375 17.38671875 C1.004604052 19.970096015 0.929485008 22.39094529 1 25 C1.66 25.33 2.32 25.66 3 26 C3.110698242 25.374321289 3.221396484 24.748642578 3.335449219 24.104003906 C3.840480811 21.276142307 4.357581246 18.450620144 4.875 15.625 C5.136035156 14.147734375 5.136035156 14.147734375 5.40234375 12.640625 C5.576367187 11.699609375 5.750390625 10.75859375 5.9296875 9.7890625 C6.165344238 8.485095215 6.165344238 8.485095215 6.405761719 7.154785156 C7 5 7 5 9 3 C12.168349032 7.224465376 12.665258307 10.879261713 12 16 C11.346787789 18.684032224 10.585634197 21.320336264 9.80078125 23.96875 C8.410277963 29.232313663 7.728222572 34.611152965 7 40 C7.66 40.33 8.32 40.66 9 41 C9.33 40.34 9.66 39.68 10 39 C12.749199573 51.420490928 12.749199573 51.420490928 12 55 C9.095397622 58.075941283 6.283932253 59.863411462 2.0625 60.3125 C1.381875 60.209375 0.70125 60.10625 0 60 C0 59.34 0 58.68 0 58 C-1.485 58.495 -1.485 58.495 -3 59 C-2.6875 56.625 -2.6875 56.625 -2 54 C-1.01 53.34 -0.02 52.68 1 52 C0.033938415 41.771112631 -1.088704939 31.898403206 -4 22 C-4.33 22.99 -4.66 23.98 -5 25 C-6.98 25.66 -8.96 26.32 -11 27 C-10.01 22.05 -9.02 17.1 -8 12 C-6.68 12 -5.36 12 -4 12 C-3.67 10.35 -3.34 8.7 -3 7 C-2.01 8.485 -2.01 8.485 -1 10 C-0.34 9.67 0.32 9.34 1 9 C1 7.35 1 5.7 1 4 C0.01 4.66 -0.98 5.32 -2 6 C-1.49396008 3.831257484 -1.000161867 2.000323734 0 0 Z " fill="#C9C3B4" transform="translate(113,85)" />
<path d="M0 0 C0.826933594 0.186269531 1.653867187 0.372539063 2.505859375 0.564453125 C4.525290038 1.0197005 6.543973875 1.478258606 8.5625 1.9375 C7.5725 3.5875 6.5825 5.2375 5.5625 6.9375 C6.5525 6.6075 7.5425 6.2775 8.5625 5.9375 C8.357539062 6.615546875 8.152578125 7.29359375 7.94140625 7.9921875 C6.395328016 13.333185035 5.302021086 18.365841115 4.87890625 23.90234375 C4.14331403 30.958580228 2.772802808 37.949713979 1.5625 44.9375 C-1.278955914 43.516772043 -1.44104682 41.901738871 -2.4375 38.9375 C-2.770190861 37.194833585 -3.060879953 35.443705226 -3.3125 33.6875 C-4.255565438 28.268500908 -5.877218406 23.78944348 -8.4375 18.9375 C-8.882226562 18.089296875 -9.326953125 17.24109375 -9.78515625 16.3671875 C-12.968968473 10.678776328 -16.248394743 6.881219995 -21.4375 2.9375 C-18.236210853 -6.666367442 -7.492314044 -1.708561543 0 0 Z " fill="#D8D1C3" transform="translate(131.4375,62.0625)" />
<path d="M0 0 C2.657241157 2.033700813 4.963899421 4.132533527 7.1640625 6.65625 C7.9684375 7.56375 8.7728125 8.47125 9.6015625 9.40625 C20.743864854 23.168215917 26.620201755 38.806801069 25.1640625 56.65625 C22.97139706 74.675973249 15.090685327 89.501892111 0.987304688 101.122314453 C-13.379612726 112.335680216 -31.088463137 115.395794813 -48.81640625 113.3046875 C-51.2734375 112.84375 -51.2734375 112.84375 -54.8359375 111.65625 C-55.1659375 110.66625 -55.4959375 109.67625 -55.8359375 108.65625 C-55.059921875 108.800625 -54.28390625 108.945 -53.484375 109.09375 C-33.425669588 112.54059198 -16.619637084 110.395321543 0.1640625 98.65625 C12.793569906 88.389682689 20.404377824 73.85623367 22.1640625 57.65625 C23.207563714 40.759557269 19.433944282 24.821335794 8.252441406 11.762207031 C-1.406638272 1.120049184 -14.035538724 -7.564781643 -28.8359375 -8.34375 C-30.30546875 -8.4365625 -30.30546875 -8.4365625 -31.8046875 -8.53125 C-49.439027248 -9.166721703 -63.484988919 -3.869708653 -76.4296875 8.1328125 C-80.391372335 12.287436532 -83.648761518 16.893291479 -86.8359375 21.65625 C-87.1659375 20.99625 -87.4959375 20.33625 -87.8359375 19.65625 C-85.828354065 15.784481946 -83.729873263 11.944813368 -80.8359375 8.65625 C-80.1759375 8.65625 -79.5159375 8.65625 -78.8359375 8.65625 C-78.5059375 7.66625 -78.1759375 6.67625 -77.8359375 5.65625 C-71.460057961 -0.612696549 -63.987294869 -4.826833716 -55.8359375 -8.34375 C-55.083125 -8.685351563 -54.3303125 -9.026953125 -53.5546875 -9.37890625 C-35.643373892 -16.158716859 -15.154819376 -10.438969238 0 0 Z " fill="#AE675F" transform="translate(162.8359375,52.34375)" />
<path d="M0 0 C7.36962545 2.380000008 14.971139493 3.434757642 22.60546875 4.640625 C30.9539495 6.07448836 38.638907337 8.004088272 44.9609375 13.9296875 C52.769445441 25.743595887 54.195469231 37.687032057 55.555664062 51.509765625 C56.118255841 57.16255346 56.885289744 62.298420553 58.59375 67.7109375 C59.017992424 74.074573864 59.017992424 74.074573864 56.59375 77.7109375 C55.975 77.8140625 55.35625 77.9171875 54.71875 78.0234375 C51.389932069 79.100408007 50.450685822 81.841127593 48.59375 84.7109375 C46.28125 87.1484375 46.28125 87.1484375 43.59375 88.7109375 C39.78125 88.4609375 39.78125 88.4609375 36.59375 87.7109375 C36.59375 87.3809375 36.59375 87.0509375 36.59375 86.7109375 C37.645625 86.6284375 38.6975 86.5459375 39.78125 86.4609375 C44.404530011 85.551439793 46.994539905 83.982037948 49.71875 80.11328125 C51.04768409 76.464645244 50.842610726 72.93551569 50.78125 69.0859375 C50.780605469 68.309921875 50.779960937 67.53390625 50.779296875 66.734375 C50.839450252 62.589528765 50.839450252 62.589528765 49.59375 58.7109375 C49.463051431 56.712223654 49.391008278 54.70954461 49.34765625 52.70703125 C49.314785156 51.490800781 49.281914062 50.274570313 49.248046875 49.021484375 C49.187498825 46.466871979 49.130136408 43.912181822 49.076171875 41.357421875 C48.76278462 30.116871457 48.251691487 21.122881531 39.71875 12.9609375 C34.975950261 9.546121688 30.03450736 8.49522786 24.34765625 7.45703125 C23.180410156 7.242402344 22.013164063 7.027773438 20.810546875 6.806640625 C19.604628906 6.589433594 18.398710937 6.372226563 17.15625 6.1484375 C15.954199219 5.927363281 14.752148438 5.706289062 13.513671875 5.478515625 C10.209337596 4.87524224 6.902651766 4.28856268 3.59375 3.7109375 C2.827805176 3.572121582 2.061860352 3.433305664 1.272705078 3.290283203 C-2.40939411 2.649406182 -2.40939411 2.649406182 -5.84375 4.0234375 C-7.632719344 5.572225027 -7.632719344 5.572225027 -7.40625 7.7109375 C-6.11391393 9.084044574 -4.781878544 10.42128574 -3.40625 11.7109375 C-8.15625 9.8359375 -8.15625 9.8359375 -10.40625 8.7109375 C-9.74625 7.0609375 -9.08625 5.4109375 -8.40625 3.7109375 C-12.362029148 3.7109375 -15.232199611 5.33945738 -18.71875 7.0234375 C-19.370371094 7.332167969 -20.021992188 7.640898437 -20.693359375 7.958984375 C-23.742276789 9.408669832 -26.732199213 10.888411627 -29.69921875 12.50390625 C-32.40625 13.7109375 -32.40625 13.7109375 -35.40625 12.7109375 C-6.043480513 -2.136234524 -6.043480513 -2.136234524 0 0 Z " fill="#302B21" transform="translate(118.40625,57.2890625)" />
<path d="M0 0 C1.358147767 4.074443301 -0.052542377 6.814681164 -1.4375 10.6875 C-1.680488281 11.389394531 -1.923476563 12.091289062 -2.173828125 12.814453125 C-2.774494395 14.545785316 -3.38619719 16.273281368 -4 18 C-2.35 13.71 -0.7 9.42 1 5 C1.66 5 2.32 5 3 5 C2.67 7.64 2.34 10.28 2 13 C2.66 10.36 3.32 7.72 4 5 C4.66 5.33 5.32 5.66 6 6 C7.436208269 11.509981411 7.112271178 17.224056978 7.0625 22.875 C7.057988281 23.84953125 7.053476563 24.8240625 7.048828125 25.828125 C7.03710906 28.218814336 7.020702193 30.609374395 7 33 C6.34 33 5.68 33 5 33 C4.896875 33.928125 4.79375 34.85625 4.6875 35.8125 C3.962376778 40.994998323 2.443309946 45.980186161 1 51 C0.71012207 50.416779785 0.420244141 49.83355957 0.121582031 49.232666016 C-0.881190275 47.236507387 -1.910650304 45.257065882 -2.9453125 43.27734375 C-11.168479565 27.16060667 -11.168479565 27.16060667 -9 19 C-3.225105189 3.225105189 -3.225105189 3.225105189 0 0 Z " fill="#CECABC" transform="translate(161,76)" />
<path d="M0 0 C-0.020625 0.596835938 -0.04125 1.193671875 -0.0625 1.80859375 C0.12062337 9.511220506 2.648052708 15.214656807 6.205078125 21.896240234 C9.273328202 27.828144146 9.785014833 32.803109713 8.1875 39.375 C7.795625 40.57125 7.40375 41.7675 7 43 C5.515 43.495 5.515 43.495 4 44 C4.33 43.05125 4.66 42.1025 5 41.125 C6.364445799 36.445527437 6.174993407 31.831762408 6 27 C5.75765625 27.736054688 5.5153125 28.472109375 5.265625 29.23046875 C1.062200957 41.468899522 1.062200957 41.468899522 -4 44 C-6.672362095 44.134154724 -9.322504884 44.043185405 -12 44 C-12.33 42.35 -12.66 40.7 -13 39 C-11.7934375 38.071875 -11.7934375 38.071875 -10.5625 37.125 C-7.961254807 35.258359591 -7.961254807 35.258359591 -7 33 C-6.856589267 28.554267281 -6.915731321 25.337074718 -8 21 C-13.61 21 -19.22 21 -25 21 C-25 20.67 -25 20.34 -25 20 C-19.976627201 18.538655186 -15.696751512 17.796105222 -10.46875 18.02734375 C-6.962619033 17.988510021 -3.479269584 17.434908698 0 17 C-0.99 11.72 -1.98 6.44 -3 1 C-1 0 -1 0 0 0 Z " fill="#413C31" transform="translate(152,95)" />
<path d="M0 0 C0.66 0 1.32 0 2 0 C3.722623217 5.921517307 4.269310672 11.552895065 4.375 17.6875 C4.40078125 18.411872559 4.4265625 19.136245117 4.453125 19.882568359 C4.475374866 25.946352087 2.380319982 29.35520002 -1.6875 33.875 C-5.334252256 35.649095692 -9.016280156 35.229829991 -13 35 C-13 34.01 -13 33.02 -13 32 C-13.99 31.67 -14.98 31.34 -16 31 C-15.01 30.67 -14.02 30.34 -13 30 C-13.061875 29.154375 -13.12375 28.30875 -13.1875 27.4375 C-12.966830413 23.391890908 -11.667733164 20.669012961 -10 17 C-9.308594783 14.221113872 -9.308594783 14.221113872 -9 12 C-8.34 12.33 -7.68 12.66 -7 13 C-6.795866393 18.738422506 -6.728585461 23.605390471 -9 29 C-8.34 29 -7.68 29 -7 29 C-6.913632812 28.414765625 -6.827265625 27.82953125 -6.73828125 27.2265625 C-5.220414696 17.9522586 -2.59875865 9.016303867 0 0 Z " fill="#E8E2D7" transform="translate(166,109)" />
<path d="M0 0 C0.66 0 1.32 0 2 0 C1.34 2.31 0.68 4.62 0 7 C0.515625 6.505 1.03125 6.01 1.5625 5.5 C4.910343492 3.43978862 7.140142474 3.508745406 11 4 C13 5.6875 13 5.6875 14 8 C13.809440186 11.811196272 12.579363147 14.214287801 10 17 C9.34 17 8.68 17 8 17 C8 14.36 8 11.72 8 9 C7.34 9.33 6.68 9.66 6 10 C4.000433887 10.041657627 1.999566113 10.041657627 0 10 C-0.66 10 -1.32 10 -2 10 C-2.953759623 11.411564242 -3.901272159 12.827833285 -4.813476562 14.266601562 C-6.854988125 17.249056726 -9.381309064 19.770122907 -11.875 22.375 C-15.825222089 26.557482728 -19.5133316 30.713864927 -22.71875 35.51171875 C-24.269608954 37.313173816 -25.834148123 38.068500146 -28 39 C-26.824375 37.63875 -26.824375 37.63875 -25.625 36.25 C-22.575811441 32.032671599 -22.070977042 27.899463832 -21.40234375 22.82421875 C-20.96029685 19.721307016 -20.135268313 16.919261376 -19 14 C-19.928125 13.9175 -20.85625 13.835 -21.8125 13.75 C-25 13 -25 13 -26.9375 11.1875 C-28 9 -28 9 -27.6875 6.75 C-27.3471875 5.88375 -27.3471875 5.88375 -27 5 C-26.13375 5.33 -25.2675 5.66 -24.375 6 C-20.81657453 7.054348287 -18.665537652 7.598455127 -15 7 C-12.439608857 5.220657468 -10.208639664 3.19557079 -8 1 C-7.34 1.33 -6.68 1.66 -6 2 C-6.554296875 2.45890625 -7.10859375 2.9178125 -7.6796875 3.390625 C-8.766367188 4.311015625 -8.766367188 4.311015625 -9.875 5.25 C-10.594296875 5.85328125 -11.31359375 6.4565625 -12.0546875 7.078125 C-14.89961623 9.88877748 -15.915362231 11.787987155 -16.1953125 15.796875 C-16.172109375 16.77140625 -16.14890625 17.7459375 -16.125 18.75 C-16.097929687 20.227265625 -16.097929687 20.227265625 -16.0703125 21.734375 C-16.047109375 22.48203125 -16.02390625 23.2296875 -16 24 C-13.708188308 21.708188308 -13.141841406 20.02252137 -12 17 C-11.014586861 14.660250575 -10.00560746 12.331180929 -9 10 C-8.34 11.32 -7.68 12.64 -7 14 C-4.69 9.38 -2.38 4.76 0 0 Z " fill="#544F45" transform="translate(89,70)" />
<path d="M0 0 C0.99 0.33 1.98 0.66 3 1 C2.03182875 2.96239195 1.057420898 4.900325988 -0.03515625 6.796875 C-2.824082502 12.099016163 -3.188533435 16.451365652 -3.25 22.3125 C-3.39441597 29.298722267 -3.39441597 29.298722267 -5.65625 31.91796875 C-9.278717571 33.790027551 -12.920978418 34.509877698 -17 34 C-17.75 32.25 -17.75 32.25 -18 30 C-16.1875 27.75 -16.1875 27.75 -14 26 C-13.34 26 -12.68 26 -12 26 C-12 18.74 -12 11.48 -12 4 C-7.751953125 2.876953125 -7.751953125 2.876953125 -3.50390625 1.75390625 C-1.082479986 1.240219229 -1.082479986 1.240219229 0 0 Z " fill="#D7D4C8" transform="translate(107,111)" />
<path d="M0 0 C0 0.66 0 1.32 0 2 C-0.99 2.33 -1.98 2.66 -3 3 C-4.017548684 4.8653245 -4.017548684 4.8653245 -4.6875 7.0625 C-4.938867187 7.795976563 -5.190234375 8.529453125 -5.44921875 9.28515625 C-5.630976562 9.851054687 -5.812734375 10.416953125 -6 11 C-7.0725 11.103125 -8.145 11.20625 -9.25 11.3125 C-12.858208715 11.974004931 -14.363950228 12.57483421 -17 15 C-17.33 14.01 -17.66 13.02 -18 12 C-16.5625 9.3125 -16.5625 9.3125 -15 7 C-15.66 7 -16.32 7 -17 7 C-17.17015625 7.580078125 -17.3403125 8.16015625 -17.515625 8.7578125 C-19.080975112 13.803568711 -20.846844914 17.759550057 -24 22 C-24.66 21.01 -25.32 20.02 -26 19 C-26.268125 19.70125 -26.53625 20.4025 -26.8125 21.125 C-30.28 29.52 -30.28 29.52 -34 32 C-34.62090376 21.341152121 -34.62090376 21.341152121 -32.4375 16.625 C-26.570134245 10.306298418 -20.65455283 6.500518226 -12.75 3.0625 C-11.40421875 2.446650391 -11.40421875 2.446650391 -10.03125 1.818359375 C-3.389280698 -1.129760233 -3.389280698 -1.129760233 0 0 Z " fill="#D2CFC1" transform="translate(106,63)" />
<path d="M0 0 C1.720797603 2.581196404 2.610510024 4.426624627 3.5625 7.3125 C3.811289063 8.051132813 4.060078125 8.789765625 4.31640625 9.55078125 C8.788563093 25.57388034 5.705493564 42.277847555 -1.9765625 56.734375 C-5.088936856 61.757434772 -8.768834533 65.897972438 -13 70 C-13.563320312 70.57234375 -14.126640625 71.1446875 -14.70703125 71.734375 C-19.701741999 76.449576388 -25.819679926 79.138176911 -32 82 C-32.99 81.34 -33.98 80.68 -35 80 C-33 78 -33 78 -29.4375 77.0625 C-28.303125 76.711875 -27.16875 76.36125 -26 76 C-25.67 75.01 -25.34 74.02 -25 73 C-23.02 73 -21.04 73 -19 73 C-18.95875 72.113125 -18.9175 71.22625 -18.875 70.3125 C-17.881644065 66.551938246 -16.560133543 65.559100956 -13.5 63.30078125 C-11.17822989 61.287371233 -10.168220791 58.790749667 -9 56 C-7.68 56 -6.36 56 -5 56 C-4.01 54.02 -3.02 52.04 -2 50 C-1.34 50 -0.68 50 0 50 C-0.04125 48.948125 -0.0825 47.89625 -0.125 46.8125 C0 43 0 43 0.9609375 40.84375 C2.430198829 36.822613732 2.544865793 32.939071878 2.75 28.6875 C2.805429688 27.870878906 2.860859375 27.054257812 2.91796875 26.212890625 C3.238940237 20.109569175 2.785014637 14.570029274 0 9 C-0.069505413 7.459760039 -0.084523573 5.916650123 -0.0625 4.375 C-0.053476563 3.557734375 -0.044453125 2.74046875 -0.03515625 1.8984375 C-0.023554687 1.271953125 -0.011953125 0.64546875 0 0 Z " fill="#F8D2C4" transform="translate(180,78)" />
<path d="M0 0 C0.33 0 0.66 0 1 0 C1 1.98 1 3.96 1 6 C1.99 4.02 2.98 2.04 4 0 C4.33 0 4.66 0 5 0 C4.474931717 5.217450661 3.220144103 9.226511107 0.9375 13.9375 C0.389648438 15.080898437 -0.158203125 16.224296875 -0.72265625 17.40234375 C-1.144179688 18.259570313 -1.565703125 19.116796875 -2 20 C-2.66 20 -3.32 20 -4 20 C-3.7834375 20.903632813 -3.566875 21.807265625 -3.34375 22.73828125 C-3.0653125 23.917773438 -2.786875 25.097265625 -2.5 26.3125 C-2.2215625 27.484257813 -1.943125 28.656015625 -1.65625 29.86328125 C-1 33 -1 33 -1 36 C-2.645072179 36.194064776 -4.291095943 36.380079354 -5.9375 36.5625 C-7.312285156 36.719121094 -7.312285156 36.719121094 -8.71484375 36.87890625 C-9.468945313 36.918867187 -10.223046875 36.958828125 -11 37 C-12 36 -12 36 -12.09765625 34.15234375 C-12.065104167 32.1015625 -12.032552083 30.05078125 -12 28 C-10 31 -10 31 -9 34 C-9.005236816 33.405742188 -9.010473633 32.811484375 -9.015869141 32.19921875 C-9.03685591 29.466156902 -9.049728448 26.733112101 -9.0625 24 C-9.070878906 23.065429688 -9.079257813 22.130859375 -9.087890625 21.16796875 C-9.107088921 15.677255988 -8.813419302 10.431335185 -8 5 C-7.34 5 -6.68 5 -6 5 C-5.67 4.34 -5.34 3.68 -5 3 C-3.666679048 5.666641905 -4.328979666 7.166803034 -5 10 C-4.806640625 9.445703125 -4.61328125 8.89140625 -4.4140625 8.3203125 C-4.153671875 7.595859375 -3.89328125 6.87140625 -3.625 6.125 C-3.369765625 5.405703125 -3.11453125 4.68640625 -2.8515625 3.9453125 C-2 2 -2 2 0 0 Z " fill="#DBD4C5" transform="translate(153,76)" />
<path d="M0 0 C4 1 4 1 5 2 C5.141151613 4.67058851 5.042471073 7.324322377 5 10 C5.66 9.01 6.32 8.02 7 7 C7.66 7 8.32 7 9 7 C9.33 5.68 9.66 4.36 10 3 C11.32 3 12.64 3 14 3 C14.66 2.01 15.32 1.02 16 0 C16.329455298 6.747732582 16.457463473 12.072919761 13 18 C10.651530906 20.426751397 9.62888101 20.957121749 6.25 21.1875 C5.13625 21.0946875 5.13625 21.0946875 4 21 C3.01 18.03 2.02 15.06 1 12 C1 12.66 1 13.32 1 14 C0.67 14.66 0.34 15.32 0 16 C-0.99 16 -1.98 16 -3 16 C-3.66 15.34 -4.32 14.68 -5 14 C-5 11 -5 11 -3 9 C-3.66 8.34 -4.32 7.68 -5 7 C-3.35 4.69 -1.7 2.38 0 0 Z " fill="#E7E4D6" transform="translate(85,93)" />
<path d="M0 0 C5.28 0 10.56 0 16 0 C18 5 18 5 18 6 C19.32 6.66 20.64 7.32 22 8 C21.67 8.66 21.34 9.32 21 10 C20.34 10 19.68 10 19 10 C19 11.65 19 13.3 19 15 C14.966290098 16.344569967 11.218138173 16.581812162 7 16 C4.625 14.0625 4.625 14.0625 3 12 C2.01 11.67 1.02 11.34 0 11 C-0.179421631 7.052724119 -0.093506894 4.401948703 2 1 C1.34 0.67 0.68 0.34 0 0 Z " fill="#EDE8DB" transform="translate(128,46)" />
<path d="M0 0 C1.358147767 4.074443301 -0.052542377 6.814681164 -1.4375 10.6875 C-1.680488281 11.389394531 -1.923476563 12.091289062 -2.173828125 12.814453125 C-2.774494395 14.545785316 -3.38619719 16.273281368 -4 18 C-2.35 13.71 -0.7 9.42 1 5 C1.66 5 2.32 5 3 5 C2.078355783 12.720125678 1.144565173 19.85326097 -2 27 C-1.01 27 -0.02 27 1 27 C0.689502739 28.437933917 0.376522398 29.8753318 0.0625 31.3125 C-0.111523438 32.113007813 -0.285546875 32.913515625 -0.46484375 33.73828125 C-1.071987957 36.304241072 -1.819415568 38.638831136 -3 41 C-3.81642254 39.731683065 -4.627991053 38.460240695 -5.4375 37.1875 C-5.889960938 36.479804688 -6.342421875 35.772109375 -6.80859375 35.04296875 C-9.797768803 29.917268578 -9.913805174 24.743011682 -9 19 C-3.79118711 3.79118711 -3.79118711 3.79118711 0 0 Z " fill="#D6CFC0" transform="translate(161,76)" />
<path d="M0 0 C3.897647193 1.303695785 6.087670888 2.753242413 8.75 5.875 C9.34296875 6.553046875 9.9359375 7.23109375 10.546875 7.9296875 C12.081472461 10.116076356 12.739194684 11.352580002 13 14 C12.44140625 16.796875 12.44140625 16.796875 11.5625 19.75 C11.131308594 21.227265625 11.131308594 21.227265625 10.69140625 22.734375 C10.349160156 23.855859375 10.349160156 23.855859375 10 25 C8.684616733 20.842285058 9.655669324 18.112070304 11 14 C10.34 14 9.68 14 9 14 C8.7525 15.11375 8.505 16.2275 8.25 17.375 C6.995092481 22.449191274 5.029070359 27.193270218 3 32 C1.890394275 28.671182824 2.058710404 28.126357476 3.21484375 24.98828125 C3.488769531 24.230957031 3.762695312 23.473632812 4.044921875 22.693359375 C4.339472656 21.907675781 4.634023437 21.121992187 4.9375 20.3125 C5.228183594 19.515214844 5.518867188 18.717929688 5.818359375 17.896484375 C6.537393021 15.927982425 7.267637029 13.963581878 8 12 C5.774837892 14.225162108 4.750847033 17.709546147 3.4375 20.5625 C2.943466797 21.628876953 2.943466797 21.628876953 2.439453125 22.716796875 C1.624344349 24.476959303 0.81192091 26.238364815 0 28 C-1 25 -1 25 -0.00390625 22.44140625 C0.471757812 21.491367188 0.947421875 20.541328125 1.4375 19.5625 C3.280527402 15.871423323 4 14.217252614 4 10 C3.01 12.31 2.02 14.62 1 17 C0.67 16.01 0.34 15.02 0 14 C-0.33 13.34 -0.66 12.68 -1 12 C-3.459469231 17.254320631 -4.903018329 22.30860098 -6 28 C-6.33 28 -6.66 28 -7 28 C-6.679208886 18.055475455 -3.305925474 9.280855002 0 0 Z " fill="#B9B2A4" transform="translate(153,67)" />
<path d="M0 0 C2 3 2 3 2 5 C2.99 5 3.98 5 5 5 C5.99 6.485 5.99 6.485 7 8 C7.99 8.33 8.98 8.66 10 9 C9.34 9 8.68 9 8 9 C8.2784375 9.928125 8.2784375 9.928125 8.5625 10.875 C9 13 9 13 8 15 C8.66 15.33 9.32 15.66 10 16 C9.25 21.75 9.25 21.75 7 24 C7.66 24 8.32 24 9 24 C9 31.92 9 39.84 9 48 C8.34 48 7.68 48 7 48 C6.67 49.32 6.34 50.64 6 52 C6.99 52 7.98 52 9 52 C9.33 53.98 9.66 55.96 10 58 C8.68 58 7.36 58 6 58 C6 57.34 6 56.68 6 56 C5.01 56 4.02 56 3 56 C2.818242188 56.759257813 2.636484375 57.518515625 2.44921875 58.30078125 C2.197851563 59.294648438 1.946484375 60.288515625 1.6875 61.3125 C1.443867187 62.298632812 1.200234375 63.284765625 0.94921875 64.30078125 C-0.000495888 67.001410119 -0.818476766 68.209562164 -3 70 C-3 69.34 -3 68.68 -3 68 C-3.66 67.67 -4.32 67.34 -5 67 C-4.601679687 66.3709375 -4.203359375 65.741875 -3.79296875 65.09375 C6.131927357 49.059367968 7.863777097 33.008189 3.93359375 14.6171875 C2.709490071 9.874425966 1.057912798 5.439659589 -1 1 C-0.67 0.67 -0.34 0.34 0 0 Z " fill="#F4D8C9" transform="translate(181,72)" />
<path d="M0 0 C1.32 0.33 2.64 0.66 4 1 C3.374703099 6.523455956 2.483477655 11.933700293 1.40234375 17.38671875 C1.004604052 19.970096015 0.929485008 22.39094529 1 25 C1.66 25.33 2.32 25.66 3 26 C2.67 29.63 2.34 33.26 2 37 C-1.296961048 33.703038952 -1.688462749 32.236807826 -2.6875 27.8125 C-2.938867187 26.725820313 -3.190234375 25.639140625 -3.44921875 24.51953125 C-3.721855469 23.272363281 -3.721855469 23.272363281 -4 22 C-4.33 22.99 -4.66 23.98 -5 25 C-6.98 25.66 -8.96 26.32 -11 27 C-10.01 22.05 -9.02 17.1 -8 12 C-6.68 12 -5.36 12 -4 12 C-3.67 10.35 -3.34 8.7 -3 7 C-2.01 8.485 -2.01 8.485 -1 10 C-0.34 9.67 0.32 9.34 1 9 C1 7.35 1 5.7 1 4 C0.01 4.66 -0.98 5.32 -2 6 C-1.49396008 3.831257484 -1.000161867 2.000323734 0 0 Z " fill="#B9B4A6" transform="translate(113,85)" />
<path d="M0 0 C1.782491804 3.333114755 2.487928559 6.244809434 3 10 C3.33 10 3.66 10 4 10 C4.199160156 11.463730469 4.199160156 11.463730469 4.40234375 12.95703125 C4.578945312 14.229335937 4.755546875 15.501640625 4.9375 16.8125 C5.111523438 18.077070312 5.285546875 19.341640625 5.46484375 20.64453125 C5.903924553 23.983217033 5.903924553 23.983217033 7 27 C7.347107438 33.479338843 7.347107438 33.479338843 5 37 C4.071875 37.1546875 4.071875 37.1546875 3.125 37.3125 C-0.203817931 38.389470507 -1.143064178 41.130190093 -3 44 C-5.3125 46.4375 -5.3125 46.4375 -8 48 C-11.8125 47.75 -11.8125 47.75 -15 47 C-15 46.67 -15 46.34 -15 46 C-13.948125 45.9175 -12.89625 45.835 -11.8125 45.75 C-7.199764144 44.842576553 -4.578981464 43.283450118 -1.889160156 39.393554688 C-0.565853483 35.831309047 -0.640924259 32.269969406 -0.5859375 28.515625 C-0.56657135 27.700031128 -0.5472052 26.884437256 -0.527252197 26.044128418 C-0.467604248 23.446191076 -0.421130585 20.848209068 -0.375 18.25 C-0.336806577 16.485658056 -0.297754047 14.721334485 -0.2578125 12.95703125 C-0.161914955 8.638170545 -0.07782953 4.319222561 0 0 Z " fill="#767269" transform="translate(170,98)" />
<path d="M0 0 C2.544065621 2.544065621 2.325801059 3.592516061 2.375 7.125 C2.27414885 13.520643751 0.549235461 18.450764539 -4 23 C-7.358968919 23.972333108 -9.677786181 24.107404606 -13 23 C-12.25 21.0625 -12.25 21.0625 -11 19 C-8.875 18.25 -8.875 18.25 -7 18 C-6.855625 17.071875 -6.71125 16.14375 -6.5625 15.1875 C-6 12 -6 12 -5 9 C-5.950121242 6.975828657 -6.949913469 4.974162678 -8 3 C-8 2.34 -8 1.68 -8 1 C-5.031049435 0.010349812 -3.091338601 -0.237795277 0 0 Z " fill="#DBD7CB" transform="translate(153,114)" />
<path d="M0 0 C1.769596019 4.0048752 2.829601394 7.667637164 2 12 C-0.88292829 15.085381119 -3.728919903 16.864778713 -7.9375 17.3125 C-8.618125 17.209375 -9.29875 17.10625 -10 17 C-10 16.34 -10 15.68 -10 15 C-10.99 15.33 -11.98 15.66 -13 16 C-12.6875 13.625 -12.6875 13.625 -12 11 C-11.01 10.34 -10.02 9.68 -9 9 C-8.636371824 6.792749266 -8.636371824 6.792749266 -8.8125 4.375 C-8.839570313 3.557734375 -8.866640625 2.74046875 -8.89453125 1.8984375 C-8.929335937 1.271953125 -8.964140625 0.64546875 -9 0 C-3.375 -1.125 -3.375 -1.125 0 0 Z " fill="#E5E1D5" transform="translate(123,128)" />
<path d="M0 0 C0.66 0.33 1.32 0.66 2 1 C1.34 2.32 0.68 3.64 0 5 C0.66 4.67 1.32 4.34 2 4 C1.795039062 4.678046875 1.590078125 5.35609375 1.37890625 6.0546875 C-0.167171984 11.395685035 -1.260478914 16.428341115 -1.68359375 21.96484375 C-2.41918597 29.021080228 -3.789697192 36.012213979 -5 43 C-7 42 -7 42 -8.125 39.9375 C-10.39769577 32.307735628 -8.403336364 26.306150147 -5.97265625 18.953125 C-5.211050782 16.640780688 -4.546384082 14.369581491 -4 12 C-4.99 12 -5.98 12 -7 12 C-5.638559668 6.801773279 -3.532698289 3.904561267 0 0 Z " fill="#DDD8C7" transform="translate(138,64)" />
<path d="M0 0 C5.929950846 7.16826411 8.492038224 16.261544404 8.125 25.4375 C7.283386261 33.370334447 4.845727614 40.596907868 2 48 C1.01 47.67 0.02 47.34 -1 47 C-0.546393638 44.311626295 -0.087260258 41.62438775 0.375 38.9375 C0.564492187 37.809248047 0.564492187 37.809248047 0.7578125 36.658203125 C1.564909288 31.997219173 2.696969946 27.552287975 4 23 C4.466718435 19.387478089 4.76663677 16.11510803 2.625 13 C1.034120926 11.825300858 1.034120926 11.825300858 -1 12 C-1.33 12.66 -1.66 13.32 -2 14 C-2 2 -2 2 0 0 Z " fill="#DDD7C8" transform="translate(120,78)" />
<path d="M0 0 C1.32 0.66 2.64 1.32 4 2 C3.377382813 2.98484375 2.754765625 3.9696875 2.11328125 4.984375 C-0.158037461 8.979972274 -1.108534951 12.736400732 -1.8125 17.25 C-1.937216797 18.017797852 -2.061933594 18.785595703 -2.190429688 19.576660156 C-3.609100366 29.517402146 -3.439372675 40.242509301 -1 50 C-4.63 50 -8.26 50 -12 50 C-11.67 47.03 -11.34 44.06 -11 41 C-10.01 41.66 -9.02 42.32 -8 43 C-7.32340219 39.314251423 -6.66052239 35.626160508 -6 31.9375 C-5.80921875 30.899160156 -5.6184375 29.860820312 -5.421875 28.791015625 C-4.468211237 23.426656959 -3.943694033 18.461678838 -4 13 C-3.238866407 10.177462925 -2.139836062 7.707110647 -1 5 C-1.99 5 -2.98 5 -4 5 C-2.68 3.35 -1.36 1.7 0 0 Z " fill="#C5C0B0" transform="translate(140,64)" />
<path d="M0 0 C0.66 0 1.32 0 2 0 C1.34 2.31 0.68 4.62 0 7 C0.515625 6.505 1.03125 6.01 1.5625 5.5 C4.910343492 3.43978862 7.140142474 3.508745406 11 4 C13 5.6875 13 5.6875 14 8 C13.809440186 11.811196272 12.579363147 14.214287801 10 17 C9.34 17 8.68 17 8 17 C8 14.36 8 11.72 8 9 C7.01 9.495 7.01 9.495 6 10 C4.000433887 10.041657627 1.999566113 10.041657627 0 10 C-0.66 10 -1.32 10 -2 10 C-2.936374143 11.438003148 -3.869601013 12.878227372 -4.78125 14.33203125 C-6.787253252 17.077426726 -9.319211653 18.928481732 -12 21 C-12.33 20.01 -12.66 19.02 -13 18 C-12.34 17.34 -11.68 16.68 -11 16 C-10.285916662 14.016435171 -9.613822582 12.016845627 -9 10 C-8.34 11.32 -7.68 12.64 -7 14 C-4.69 9.38 -2.38 4.76 0 0 Z " fill="#7F7A6B" transform="translate(89,70)" />
<path d="M0 0 C0 0.33 0 0.66 0 1 C-0.644370117 1.075168457 -1.288740234 1.150336914 -1.952636719 1.227783203 C-4.927925061 1.580183067 -7.901384301 1.946264243 -10.875 2.3125 C-11.888203125 2.430449219 -12.90140625 2.548398437 -13.9453125 2.669921875 C-31.024231218 4.804786715 -44.494883983 11.313376953 -55.40625 25.0234375 C-57.324220115 27.650516284 -59.191194382 30.296896632 -61 33 C-61.33 32.34 -61.66 31.68 -62 31 C-59.992416565 27.128231946 -57.893935763 23.288563368 -55 20 C-54.34 20 -53.68 20 -53 20 C-52.67 19.01 -52.34 18.02 -52 17 C-45.624120461 10.731053451 -38.151357369 6.516916284 -30 3 C-29.2471875 2.658398437 -28.494375 2.316796875 -27.71875 1.96484375 C-19.015019591 -1.329702092 -9.151875308 -0.259769386 0 0 Z " fill="#AF6E65" transform="translate(137,41)" />
<path d="M0 0 C0 0.66 0 1.32 0 2 C-0.99 2.33 -1.98 2.66 -3 3 C-4.017548684 4.8653245 -4.017548684 4.8653245 -4.6875 7.0625 C-4.938867187 7.795976563 -5.190234375 8.529453125 -5.44921875 9.28515625 C-5.630976562 9.851054687 -5.812734375 10.416953125 -6 11 C-7.0725 11.103125 -8.145 11.20625 -9.25 11.3125 C-12.858208715 11.974004931 -14.363950228 12.57483421 -17 15 C-17.33 14.01 -17.66 13.02 -18 12 C-16.5625 9.3125 -16.5625 9.3125 -15 7 C-15.66 7 -16.32 7 -17 7 C-17.66 8.98 -18.32 10.96 -19 13 C-20.32 12.67 -21.64 12.34 -23 12 C-19.936888566 6.361635611 -16.809317424 4.424968396 -10.9375 2.0625 C-10.217558594 1.747324219 -9.497617187 1.432148438 -8.755859375 1.107421875 C-3.415900169 -1.13863339 -3.415900169 -1.13863339 0 0 Z " fill="#CAC5B6" transform="translate(106,63)" />
<path d="M0 0 C0.66 0.99 1.32 1.98 2 3 C0.68 4.32 -0.64 5.64 -2 7 C-1.67 7 -1.34 7 -1 7 C-0.01 7 0.98 7 2 7 C2 6.34 2 5.68 2 5 C4.97 5.495 4.97 5.495 8 6 C5.45581093 8.54418907 2.522427902 9.738053365 -0.6875 11.25 C-6.174080662 13.897944692 -10.632548255 16.736535201 -15 21 C-15.66 20.67 -16.32 20.34 -17 20 C-16.505 18.515 -16.505 18.515 -16 17 C-15.932591352 15.438815721 -15.914855438 13.8749748 -15.9375 12.3125 C-15.946523438 11.504257813 -15.955546875 10.696015625 -15.96484375 9.86328125 C-15.976445313 9.248398438 -15.988046875 8.633515625 -16 8 C-15.01 8 -14.02 8 -13 8 C-11.68 7.67 -10.36 7.34 -9 7 C-10.32 9.64 -11.64 12.28 -13 15 C-12.43796875 14.284570312 -11.8759375 13.569140625 -11.296875 12.83203125 C-9.027633141 10.034071474 -6.669488457 7.356053446 -4.25 4.6875 C-3.45078125 3.804492188 -2.6515625 2.921484375 -1.828125 2.01171875 C-1.22484375 1.347851562 -0.6215625 0.683984375 0 0 Z " fill="#E9CFC3" transform="translate(89,57)" />
<path d="M0 0 C0.33 0 0.66 0 1 0 C1.302023298 5.134396068 0.913654169 7.787013566 -2 12 C-7.957611005 18.564756075 -14.982714923 22.418674686 -23 26 C-23.99 25.34 -24.98 24.68 -26 24 C-24 22 -24 22 -20.4375 21.0625 C-19.303125 20.711875 -18.16875 20.36125 -17 20 C-16.67 19.01 -16.34 18.02 -16 17 C-14.02 17 -12.04 17 -10 17 C-9.95875 16.113125 -9.9175 15.22625 -9.875 14.3125 C-8.881644065 10.551938246 -7.560133543 9.559100956 -4.5 7.30078125 C-2.17822989 5.287371233 -1.168220791 2.790749667 0 0 Z " fill="#F5DCCF" transform="translate(171,134)" />
<path d="M0 0 C0 3.38023517 -0.874556219 5.834689366 -2 9 C-0.68 7.68 0.64 6.36 2 5 C1.18720764 9.673556068 -0.374835326 13.863539529 -2.0625 18.28125 C-2.948294906 20.850055229 -3.535054344 23.326562479 -4 26 C-4.66 26 -5.32 26 -6 26 C-6.813817951 24.063053216 -7.626009159 22.125422887 -8.4375 20.1875 C-8.889960938 19.108554688 -9.342421875 18.029609375 -9.80859375 16.91796875 C-10.603750125 14.970487398 -11.334796477 12.99561057 -12 11 C-10.0625 8.3125 -10.0625 8.3125 -8 6 C-8.875 10.75 -8.875 10.75 -10 13 C-9.01 13 -8.02 13 -7 13 C-6.578476563 12.145351562 -6.156953125 11.290703125 -5.72265625 10.41015625 C-5.174804688 9.305429687 -4.626953125 8.200703125 -4.0625 7.0625 C-3.244589844 5.409277344 -3.244589844 5.409277344 -2.41015625 3.72265625 C-1 1 -1 1 0 0 Z " fill="#BFB8A7" transform="translate(134,67)" />
<path d="M0 0 C5.40860454 1.757191937 10.830976833 2.78150291 16.4375 3.6875 C13.830426819 5.431800761 12.744568161 5.741141893 9.59765625 5.19140625 C8.575429687 4.880742187 7.553203125 4.570078125 6.5 4.25 C2.361752334 2.999631868 -0.386919651 2.380423241 -4.5625 3.6875 C-5.5525 4.3475 -6.5425 5.0075 -7.5625 5.6875 C-7.7909549 7.931125733 -7.7909549 7.931125733 -5.5625 9.8125 C-4.9025 10.43125 -4.2425 11.05 -3.5625 11.6875 C-8.3125 9.8125 -8.3125 9.8125 -10.5625 8.6875 C-9.9025 7.0375 -9.2425 5.3875 -8.5625 3.6875 C-12.518279148 3.6875 -15.388449611 5.31601988 -18.875 7 C-19.526621094 7.308730469 -20.178242188 7.617460937 -20.849609375 7.935546875 C-23.898526789 9.385232332 -26.888449213 10.864974127 -29.85546875 12.48046875 C-32.5625 13.6875 -32.5625 13.6875 -35.5625 12.6875 C-6.205093777 -2.15696011 -6.205093777 -2.15696011 0 0 Z " fill="#433D33" transform="translate(118.5625,57.3125)" />
<path d="M0 0 C0.66 0 1.32 0 2 0 C-0.785145889 8.522546419 -0.785145889 8.522546419 -2.125 11.5 C-4.875644802 19.358985148 -4.121520373 28.358668195 -4.0625 36.5625 C-4.057988281 37.761972656 -4.053476563 38.961445312 -4.048828125 40.197265625 C-4.037137695 43.131563593 -4.020751383 46.065754487 -4 49 C-6 48 -6 48 -7 45 C-8.497011513 31.457590297 -9.667177084 15.081784156 -2.4375 2.875 C-1.633125 1.92625 -0.82875 0.9775 0 0 Z " fill="#E9E2D2" transform="translate(144,65)" />
<path d="M0 0 C4 1 4 1 5 2 C5.141151613 4.67058851 5.042471073 7.324322377 5 10 C5.66 10.33 6.32 10.66 7 11 C7 11.66 7 12.32 7 13 C6.34 13 5.68 13 5 13 C4.34 14.32 3.68 15.64 3 17 C2.01 15.02 1.02 13.04 0 11 C0.33 12.65 0.66 14.3 1 16 C-0.32 16 -1.64 16 -3 16 C-3.66 15.34 -4.32 14.68 -5 14 C-5 11 -5 11 -3 9 C-3.66 8.34 -4.32 7.68 -5 7 C-3.35 4.69 -1.7 2.38 0 0 Z " fill="#B2AEA3" transform="translate(85,93)" />
<path d="M0 0 C-2 2 -2 2 -4.135498047 2.211181641 C-5.002150879 2.194343262 -5.868803711 2.177504883 -6.76171875 2.16015625 C-7.716269531 2.149199219 -8.670820312 2.138242187 -9.654296875 2.126953125 C-11.155732422 2.095048828 -11.155732422 2.095048828 -12.6875 2.0625 C-20.366484448 1.926365673 -27.545803226 1.912824903 -35 4 C-35.66 3.01 -36.32 2.02 -37 1 C-24.447309358 -2.503076458 -12.687557739 -3.274208449 0 0 Z " fill="#F7DBC9" transform="translate(144,45)" />
<path d="M0 0 C0.66 0.33 1.32 0.66 2 1 C2.204133607 6.738422506 2.271414539 11.605390471 0 17 C0.66 17 1.32 17 2 17 C2.33 16.01 2.66 15.02 3 14 C3.981204635 17.052636642 3.981204635 18.947363358 3 22 C3.66 22.33 4.32 22.66 5 23 C2.03 23 -0.94 23 -4 23 C-4 22.01 -4 21.02 -4 20 C-4.99 19.67 -5.98 19.34 -7 19 C-6.01 18.67 -5.02 18.34 -4 18 C-4.061875 17.154375 -4.12375 16.30875 -4.1875 15.4375 C-3.966830413 11.391890908 -2.667733164 8.669012961 -1 5 C-0.308594783 2.221113872 -0.308594783 2.221113872 0 0 Z " fill="#CECABE" transform="translate(157,121)" />
<path d="M0 0 C0.66 0.33 1.32 0.66 2 1 C1.34 2.65 0.68 4.3 0 6 C0.99 6.33 1.98 6.66 3 7 C3.33 8.98 3.66 10.96 4 13 C7.28999282 13.418314039 7.28999282 13.418314039 11 13 C13.813313777 10.604163488 13.813313777 10.604163488 16 8 C16.66 8 17.32 8 18 8 C18 9.65 18 11.3 18 13 C16.35 13.33 14.7 13.66 13 14 C17.966822323 14.292166019 21.103493337 14.247088886 25 11 C26.826297942 7.93319201 26.826297942 7.93319201 28 5 C28.75 6.6875 28.75 6.6875 29 9 C26.261266778 13.678669254 23.104227318 15.410158704 18 17 C11.909410265 17.786925753 7.379531329 16.904946918 2 14 C-0.148388287 12.311266881 -0.918436526 11.544727485 -1.328125 8.80859375 C-1.30234375 8.026132812 -1.2765625 7.243671875 -1.25 6.4375 C-1.23453125 5.652460937 -1.2190625 4.867421875 -1.203125 4.05859375 C-1 2 -1 2 0 0 Z " fill="#454137" transform="translate(59,109)" />
<path d="M0 0 C-0.286171875 0.56203125 -0.57234375 1.1240625 -0.8671875 1.703125 C-2.014159312 4.028709226 -3.078397945 6.377702008 -4.125 8.75 C-4.654804688 9.948828125 -4.654804688 9.948828125 -5.1953125 11.171875 C-5.460859375 11.77515625 -5.72640625 12.3784375 -6 13 C-6.66 12.67 -7.32 12.34 -8 12 C-8 11.34 -8 10.68 -8 10 C-8.99 10 -9.98 10 -11 10 C-10.976796875 11.10859375 -10.95359375 12.2171875 -10.9296875 13.359375 C-10.910924232 14.822909917 -10.892724628 16.286452136 -10.875 17.75 C-10.858242187 18.479609375 -10.841484375 19.20921875 -10.82421875 19.9609375 C-10.786270782 24.135213975 -11.084852732 26.169705464 -13 30 C-12.67 21.09 -12.34 12.18 -12 3 C-3 -1 -3 -1 0 0 Z " fill="#C4C0B4" transform="translate(110,112)" />
<path d="M0 0 C1.32 0.66 2.64 1.32 4 2 C4 1.34 4 0.68 4 0 C6.3125 -0.3125 6.3125 -0.3125 9 0 C10.875 2.125 10.875 2.125 12 5 C11.6875 8.3125 11.6875 8.3125 11 11 C9.68 10.34 8.36 9.68 7 9 C6.34 10.32 5.68 11.64 5 13 C4.34 13 3.68 13 3 13 C3 13.99 3 14.98 3 16 C1.68 15.34 0.36 14.68 -1 14 C-0.34 14 0.32 14 1 14 C0.418251547 8.691315097 0.418251547 8.691315097 -2 4 C-1.34 2.68 -0.68 1.36 0 0 Z M7 3 C7 3.99 7 4.98 7 6 C7.99 5.67 8.98 5.34 10 5 C10 4.34 10 3.68 10 3 C9.01 3 8.02 3 7 3 Z " fill="#EFECDF" transform="translate(89,88)" />
<path d="M0 0 C11.625134989 9.915556314 14.73546791 25.65796343 17 40 C16.34 39.34 15.68 38.68 15 38 C14.34 40.31 13.68 42.62 13 45 C14.32 45.33 15.64 45.66 17 46 C15.35 46 13.7 46 12 46 C11.67 46.66 11.34 47.32 11 48 C11.056477051 47.437163086 11.112954102 46.874326172 11.171142578 46.294433594 C12.683983649 30.068179749 11.346250541 18.96138936 2.234375 4.98828125 C1 3 1 3 0 0 Z " fill="#373124" transform="translate(115,69)" />
</svg>