<?xml version='1.0' encoding='utf-8'?>
<svg xmlns="http://www.w3.org/2000/svg" version="1.1" width="156" height="152" viewBox="43.64328759599999 49.215206072 156.620851808 152.140695826">
<path d="M0 0 C14.031619005 9.64207054 24.924116208 23.547087185 28.6015625 40.453125 C29.333789977 45.299773539 29.489651638 50.122355747 29.5390625 55.015625 C29.553201904 56.066774902 29.553201904 56.066774902 29.567626953 57.139160156 C29.463741997 73.803875199 20.583174266 87.846461077 9.4765625 99.640625 C4.577187495 104.374936835 -0.538065431 107.507761037 -6.7109375 110.328125 C-7.96390625 110.912070312 -7.96390625 110.912070312 -9.2421875 111.5078125 C-25.794623629 118.684026898 -42.281342618 117.433997871 -58.90625 111.11328125 C-70.133625635 106.05656507 -80.191752243 96.772594338 -86.7109375 86.328125 C-86.7109375 85.668125 -86.7109375 85.008125 -86.7109375 84.328125 C-87.8246875 84.369375 -88.9384375 84.410625 -90.0859375 84.453125 C-96.262336114 84.453125 -102.518693168 83.789621221 -107.7109375 80.328125 C-107.067649904 76.657097118 -105.45288349 74.157594364 -103.3984375 71.078125 C-98.258437226 63.362549752 -95.279815971 57.435947625 -94.7734375 48.140625 C-93.264672296 29.728332943 -84.666339861 15.302877807 -70.7109375 3.328125 C-49.597903339 -12.80905085 -22.496518593 -13.963356368 0 0 Z " fill="#E9E4D7" transform="translate(160.7109375,72.671875)" />
<path d="M0 0 C7.387377334 2.462459111 11.384692443 13.296673184 14.73828125 19.84765625 C19.983141183 32.951687104 20.135812499 49.969495865 15.25390625 63.15234375 C11.136964966 72.502032835 6.238311552 79.748669902 -1 87 C-1.57234375 87.583945313 -2.1446875 88.167890625 -2.734375 88.76953125 C-4.25 90.1875 -4.25 90.1875 -7 92 C-7.78375 91.825976562 -8.5675 91.651953125 -9.375 91.47265625 C-12.691670591 90.875458123 -13.857375479 91.605174292 -16.75 93.25 C-24.812098959 97.788267626 -32.097471436 99.521967458 -41.3125 99.375 C-42.235307617 99.364848633 -43.158115234 99.354697266 -44.108886719 99.344238281 C-61.077248847 98.959474928 -73.94729674 92.609221878 -85.685546875 80.451171875 C-95.572209409 69.536178913 -99.373626496 55.528170199 -99.2109375 41.09765625 C-98.847335192 35.758089029 -97.1906821 33.163538891 -93.4296875 29.48828125 C-89.709809721 26.456811455 -85.890756709 25.581131308 -81.25 24.6875 C-80.449411621 24.52652832 -79.648823242 24.365556641 -78.823974609 24.199707031 C-69.075889745 22.330211304 -62.431226264 21.75322294 -53.60546875 27.03125 C-49.184491799 30.371838281 -46.180945462 34.513338934 -43 39 C-42.409609375 39.729609375 -41.81921875 40.45921875 -41.2109375 41.2109375 C-40.666953125 41.883828125 -40.12296875 42.55671875 -39.5625 43.25 C-39.089414062 43.83265625 -38.616328125 44.4153125 -38.12890625 45.015625 C-35.481112642 49.669878124 -35.908226904 55.172806762 -36.0078125 60.375 C-36.025323327 61.786451212 -36.042232131 63.197909999 -36.05859375 64.609375 C-36.089541802 66.808160429 -36.125137964 69.006558349 -36.171386719 71.205078125 C-36.213938538 73.345099945 -36.237215513 75.484669 -36.2578125 77.625 C-36.279887695 78.896015625 -36.301962891 80.16703125 -36.324707031 81.4765625 C-35.970798415 85.316870132 -34.826216355 87.644425099 -33 91 C-33 91.99 -33 92.98 -33 94 C-37.261709682 94.250688805 -40.909794861 94.417525372 -44.9375 92.875 C-47.658753221 90.401133435 -48.241224616 88.586938178 -49 85 C-48.95875 83.845 -48.9175 82.69 -48.875 81.5 C-48.690970539 77.874618941 -48.690970539 77.874618941 -51.0625 75 C-53 72 -53 72 -52.8125 68.4375 C-52.544375 67.303125 -52.27625 66.16875 -52 65 C-51.67 63.35 -51.34 61.7 -51 60 C-52.98 64.95 -52.98 64.95 -55 70 C-56.60875 69.54625 -58.2175 69.0925 -59.875 68.625 C-65.210251819 67.164898659 -70.561964097 66.002674733 -76 65 C-75.208505555 61.267478829 -73.663250861 58.322364557 -71.83984375 55 C-70.741885832 52.746857953 -70.741885832 52.746857953 -71 49 C-71.146953125 49.545273437 -71.29390625 50.090546875 -71.4453125 50.65234375 C-73.800081769 58.56924043 -77.756619488 65.477009547 -84 71 C-81.950085137 68.608432659 -80.790500338 67.322363966 -78 66 C-73.839085297 66.011956651 -70.015447428 66.969621037 -66 68 C-65.068007812 68.20109375 -64.136015625 68.4021875 -63.17578125 68.609375 C-58.615202445 69.727364423 -54.822404492 70.918596204 -51.95703125 74.91796875 C-49.7702341 79.675368264 -49.008830253 84.894500951 -48 90 C-47.67 90.99 -47.34 91.98 -47 93 C-41.892770001 94.980354489 -37.453948426 95.369759215 -32 95 C-31.34 94.34 -30.68 93.68 -30 93 C-27.6171875 92.3671875 -27.6171875 92.3671875 -24.875 91.875 C-23.964921875 91.707421875 -23.05484375 91.53984375 -22.1171875 91.3671875 C-21.418515625 91.246015625 -20.71984375 91.12484375 -20 91 C-21.928938748 87.537349384 -21.928938748 87.537349384 -24.53125 84.58984375 C-28.444924336 80.353499455 -28.391697913 72.633428409 -28.2578125 67.125 C-27.847516275 63.743164447 -26.513206097 61.026412193 -25 58 C-23.213508676 54.14117874 -21.857039924 50.598380128 -21.0625 46.4375 C-20.159749506 42.19818368 -18.967463284 39.279827841 -16 36 C-14.06640625 35.1796875 -14.06640625 35.1796875 -11.9375 34.5 C-8.895873952 33.497452867 -8.119798612 33.146004559 -6 30.5625 C-4.330518727 24.614972966 -4.28756945 18.28742463 -5.59765625 12.2421875 C-5.730429688 11.502265625 -5.863203125 10.76234375 -6 10 C-4.6875 8.1875 -4.6875 8.1875 -3 7 C-2.34 7 -1.68 7 -1 7 C-1.020625 6.030625 -1.04125 5.06125 -1.0625 4.0625 C-1 1 -1 1 0 0 Z " fill="#EBE6D9" transform="translate(170,84)" />
<path d="M0 0 C2.282478345 1.154895026 4.201186131 2.426037622 6.2109375 4.00390625 C7.947597211 5.217465702 7.947597211 5.217465702 9.91796875 4.66015625 C10.605039062 4.442304687 11.292109375 4.224453125 12 4 C17.157871304 3.714849391 21.944155114 3.959090759 27 5 C28.341640786 4.701857603 29.678511734 4.377568076 31 4 C31.495 4.495 31.495 4.495 32 5 C31.979375 6.0725 31.95875 7.145 31.9375 8.25 C31.766760116 11.849592032 31.766760116 11.849592032 32.984375 14.36328125 C35.219148675 20.165097522 34.800458859 26.889699372 32.625 32.625 C31 35 31 35 29 37 C27.88625 37.20625 26.7725 37.4125 25.625 37.625 C21.850809414 39.056589533 21.428975964 39.243838257 19.6875 42.5625 C18.109407042 46.238058281 17.315468932 49.914103777 16.56640625 53.828125 C15.665421988 57.282933617 13.84856841 59.958806809 12 63 C9.833347074 69.8888452 10.405264078 78.298018775 13 85 C15.49958655 87.83459483 15.49958655 87.83459483 18 90 C18 90.99 18 91.98 18 93 C16.951992187 93.290039062 16.951992187 93.290039062 15.8828125 93.5859375 C14.517695312 93.976523437 14.517695312 93.976523437 13.125 94.375 C12.220078125 94.630234375 11.31515625 94.88546875 10.3828125 95.1484375 C7.854302741 95.860431497 7.854302741 95.860431497 6 98 C0.46735445 98.476952203 -5.272042638 98.251857998 -10 95 C-12.415730048 90.326267983 -13.096469666 85.078202924 -14.12109375 79.9609375 C-15.04127245 76.860957701 -15.569060728 75.990586843 -18 74 C-20.035871181 73.130107169 -20.035871181 73.130107169 -22.30859375 72.578125 C-23.552861328 72.247480469 -23.552861328 72.247480469 -24.822265625 71.91015625 C-25.685292969 71.692304687 -26.548320313 71.474453125 -27.4375 71.25 C-28.296660156 71.016679688 -29.155820312 70.783359375 -30.041015625 70.54296875 C-35.515366777 69.046980391 -35.515366777 69.046980391 -41 70 C-42.622571965 71.200299073 -42.622571965 71.200299073 -44.0625 72.625 C-45.5165625 73.800625 -45.5165625 73.800625 -47 75 C-47.99 74.67 -48.98 74.34 -50 74 C-44.25 69 -44.25 69 -42 69 C-41.7215625 68.428945312 -41.443125 67.857890625 -41.15625 67.26953125 C-40.012244358 65.02403369 -38.768401476 62.864664729 -37.5 60.6875 C-35.336023636 56.831919693 -34.005259174 53.295198287 -33 49 C-32.67 49 -32.34 49 -32 49 C-31.639795721 53.997834371 -32.65610065 56.980188719 -35 61.375 C-35.556875 62.434609375 -36.11375 63.49421875 -36.6875 64.5859375 C-37.120625 65.382578125 -37.55375 66.17921875 -38 67 C-36.605878906 67.181757812 -36.605878906 67.181757812 -35.18359375 67.3671875 C-33.947382812 67.534765625 -32.711171875 67.70234375 -31.4375 67.875 C-30.219335938 68.037421875 -29.001171875 68.19984375 -27.74609375 68.3671875 C-24 69 -24 69 -17 71 C-15.35 66.38 -13.7 61.76 -12 57 C-10.96349482 61.14602072 -11.016301083 61.74743847 -12.5 65.4375 C-13.810131058 69.070136115 -14.287450338 71.244936515 -13 75 C-12.855625 75.7425 -12.71125 76.485 -12.5625 77.25 C-12.376875 77.8275 -12.19125 78.405 -12 79 C-11.01 79.495 -11.01 79.495 -10 80 C-10.0928125 81.5159375 -10.0928125 81.5159375 -10.1875 83.0625 C-9.965832615 87.717515082 -9.710600852 90.159982127 -7 94 C-3.040325569 95.217532546 0.87817102 95.686868806 5 96 C4.712700195 95.537387695 4.425400391 95.074775391 4.129394531 94.598144531 C0.025002666 86.948644498 0.614690085 79.275219973 0.875 70.875 C0.930649948 68.724976369 0.980043965 66.575257535 1.017364502 64.424835205 C1.052652389 62.479384845 1.107515453 60.53431813 1.163574219 58.589355469 C0.912485605 53.079646802 -0.242636121 48.371277669 -3.75 44.0625 C-5.37220679 42.051274795 -6.937136186 40.097319782 -8.33984375 37.92578125 C-12.629527452 31.398001703 -18.597708657 27.192356324 -26.30078125 25.4921875 C-31.993638853 25.197220785 -37.691080767 26.569786341 -43.25 27.6875 C-44.019006348 27.835581055 -44.788012695 27.983662109 -45.580322266 28.136230469 C-50.967511163 29.335724032 -54.142262139 31.00782582 -58 35 C-62.253188005 42.695074251 -60.35336002 52.551494419 -58.375 60.6875 C-54.216268103 74.801105811 -45.452764395 86.001789771 -32.7734375 93.53125 C-19.763275757 100.421138473 -3.151774346 103.000415265 11.27734375 98.98828125 C16.736218368 97.048254305 21.839476398 94.622561175 27 92 C27 92.66 27 93.32 27 94 C11.678019397 102.262638755 -3.755076132 106.269635643 -20.9375 101.375 C-37.626095685 95.357880702 -51.281511845 84.080509557 -58.93359375 67.8671875 C-62.428219166 58.471381437 -65.252791015 46.508062933 -61.875 36.75 C-55.953405886 28.0649953 -49.929395153 26.287373348 -39.947265625 24.343261719 C-35.981846789 23.6442423 -32.020885524 23.193311804 -28 23 C-28.019335938 22.227851563 -28.038671875 21.455703125 -28.05859375 20.66015625 C-27.992453181 17.657374437 -27.192532871 15.735810704 -26 13 C-25.866582031 12.046738281 -25.866582031 12.046738281 -25.73046875 11.07421875 C-24.672376529 8.069689502 -22.863733928 7.13037752 -20.25 5.375 C-19.38890625 4.784609375 -18.5278125 4.19421875 -17.640625 3.5859375 C-11.851325122 0.108931952 -6.701777498 -1.060859756 0 0 Z " fill="#CBC5B3" transform="translate(132,82)" />
<path d="M0 0 C4.649474915 2.656842809 7.40332864 5.483484983 10.48046875 9.8515625 C11.501520469 11.29520889 12.568341487 12.707446047 13.67578125 14.0859375 C14.485957031 15.095273437 14.485957031 15.095273437 15.3125 16.125 C16.049199219 17.026054687 16.049199219 17.026054687 16.80078125 17.9453125 C19.525822781 22.614276166 19.092698293 28.124475939 18.9921875 33.375 C18.974676673 34.786451212 18.957767869 36.197909999 18.94140625 37.609375 C18.910458198 39.808160429 18.874862036 42.006558349 18.828613281 44.205078125 C18.786061462 46.345099945 18.762784487 48.484669 18.7421875 50.625 C18.720112305 51.896015625 18.698037109 53.16703125 18.675292969 54.4765625 C19.029201585 58.316870132 20.173783645 60.644425099 22 64 C22 64.99 22 65.98 22 67 C17.738290318 67.250688805 14.090205139 67.417525372 10.0625 65.875 C7.341246779 63.401133435 6.758775384 61.586938178 6 58 C6.04125 56.845 6.0825 55.69 6.125 54.5 C6.309029461 50.874618941 6.309029461 50.874618941 3.9375 48 C2 45 2 45 2.1875 41.4375 C2.455625 40.303125 2.72375 39.16875 3 38 C3.33 36.35 3.66 34.7 4 33 C2.02 37.95 2.02 37.95 0 43 C-1.60875 42.54625 -3.2175 42.0925 -4.875 41.625 C-10.210251819 40.164898659 -15.561964097 39.002674733 -21 38 C-20.225514904 34.323233911 -18.709631793 31.520182987 -16.83984375 28.29296875 C-15.789445487 25.885066063 -15.789445487 25.885066063 -16.16015625 22.671875 C-15.953759921 17.939861596 -14.303548267 15.729002314 -11.5 12.0625 C-11.070742188 11.474042969 -10.641484375 10.885585937 -10.19921875 10.279296875 C-9.147525362 8.841982578 -8.07575316 7.419396531 -7 6 C-6.855625 6.598125 -6.71125 7.19625 -6.5625 7.8125 C-6.112756103 9.561504045 -5.571076591 11.286770228 -5 13 C-5.970107849 14.778531056 -6.947266601 16.555120123 -8.0078125 18.28125 C-9.087027902 20.150756996 -9.659006746 21.868792164 -10 24 C-10.66 24 -11.32 24 -12 24 C-12 25.32 -12 26.64 -12 28 C-7.402773093 20.484675162 -2.941907424 12.883814848 1 5 C-0.65 6.32 -2.3 7.64 -4 9 C-3.398162512 6.979545575 -2.726939039 4.978889607 -2 3 C-1.34 2.67 -0.68 2.34 0 2 C0 1.34 0 0.68 0 0 Z " fill="#D9D3C5" transform="translate(115,111)" />
<path d="M0 0 C0 0.66 0 1.32 0 2 C-1.32 2.33 -2.64 2.66 -4 3 C-3.754270253 9.905005879 -3.35927127 14.550910913 1 20 C1.495 21.485 1.495 21.485 2 23 C5.542205456 24.821705663 9.07765636 25.452696236 13 26 C12.67 26.825 12.34 27.65 12 28.5 C10.797788858 31.995784291 10.797788858 31.995784291 11.1875 35.75 C11.349032712 40.416500569 9.426211612 43.704669822 7.19140625 47.703125 C3.638374691 54.552903874 4.479408997 62.688363245 6.22265625 69.9921875 C7.406724252 73.050533999 9.594720449 74.84790777 12 77 C12 77.99 12 78.98 12 80 C10.951992187 80.290039062 10.951992187 80.290039062 9.8828125 80.5859375 C8.517695312 80.976523437 8.517695312 80.976523437 7.125 81.375 C6.220078125 81.630234375 5.31515625 81.88546875 4.3828125 82.1484375 C1.854302741 82.860431497 1.854302741 82.860431497 0 85 C-5.53264555 85.476952203 -11.272042638 85.251857998 -16 82 C-18.415730048 77.326267983 -19.096469666 72.078202924 -20.12109375 66.9609375 C-21.04127245 63.860957701 -21.569060728 62.990586843 -24 61 C-26.035871181 60.130107169 -26.035871181 60.130107169 -28.30859375 59.578125 C-29.552861328 59.247480469 -29.552861328 59.247480469 -30.822265625 58.91015625 C-32.116806641 58.583378906 -32.116806641 58.583378906 -33.4375 58.25 C-34.726240234 57.900019531 -34.726240234 57.900019531 -36.041015625 57.54296875 C-41.515366777 56.046980391 -41.515366777 56.046980391 -47 57 C-48.622571965 58.200299073 -48.622571965 58.200299073 -50.0625 59.625 C-51.031875 60.40875 -52.00125 61.1925 -53 62 C-53.99 61.67 -54.98 61.34 -56 61 C-50.25 56 -50.25 56 -48 56 C-47.7215625 55.428945312 -47.443125 54.857890625 -47.15625 54.26953125 C-46.012244358 52.02403369 -44.768401476 49.864664729 -43.5 47.6875 C-41.336023636 43.831919693 -40.005259174 40.295198287 -39 36 C-38.67 36 -38.34 36 -38 36 C-37.639795721 40.997834371 -38.65610065 43.980188719 -41 48.375 C-41.556875 49.434609375 -42.11375 50.49421875 -42.6875 51.5859375 C-43.120625 52.382578125 -43.55375 53.17921875 -44 54 C-42.605878906 54.181757812 -42.605878906 54.181757812 -41.18359375 54.3671875 C-39.947382812 54.534765625 -38.711171875 54.70234375 -37.4375 54.875 C-35.610253906 55.118632812 -35.610253906 55.118632812 -33.74609375 55.3671875 C-30 56 -30 56 -23 58 C-21.35 53.38 -19.7 48.76 -18 44 C-16.96349482 48.14602072 -17.016301083 48.74743847 -18.5 52.4375 C-19.810131058 56.070136115 -20.287450338 58.244936515 -19 62 C-18.855625 62.7425 -18.71125 63.485 -18.5625 64.25 C-18.376875 64.8275 -18.19125 65.405 -18 66 C-17.01 66.495 -17.01 66.495 -16 67 C-16.0928125 68.5159375 -16.0928125 68.5159375 -16.1875 70.0625 C-15.965832615 74.717515082 -15.710600852 77.159982127 -13 81 C-9.040325569 82.217532546 -5.12182898 82.686868806 -1 83 C-1.287299805 82.535212402 -1.574599609 82.070424805 -1.870605469 81.591552734 C-5.92418254 74.018228398 -5.385839197 66.391266924 -5.125 58.0625 C-4.03964607 40.891042063 -4.03964607 40.891042063 -11.5625 26.1875 C-14.683066094 22.807302807 -16.653422625 20.671260266 -17 16 C-15.966646701 10.081703832 -14.348074626 5.348074626 -10 1 C-3 0 -3 0 0 0 Z " fill="#D3CDBF" transform="translate(138,95)" />
<path d="M0 0 C14.031619005 9.64207054 24.924116208 23.547087185 28.6015625 40.453125 C29.333789977 45.299773539 29.489651638 50.122355747 29.5390625 55.015625 C29.553201904 56.066774902 29.553201904 56.066774902 29.567626953 57.139160156 C29.463741997 73.803875199 20.583174266 87.846461077 9.4765625 99.640625 C4.577187495 104.374936835 -0.538065431 107.507761037 -6.7109375 110.328125 C-7.96390625 110.912070312 -7.96390625 110.912070312 -9.2421875 111.5078125 C-25.794623629 118.684026898 -42.281342618 117.433997871 -58.90625 111.11328125 C-70.133625635 106.05656507 -80.191752243 96.772594338 -86.7109375 86.328125 C-86.7109375 85.668125 -86.7109375 85.008125 -86.7109375 84.328125 C-87.8246875 84.369375 -88.9384375 84.410625 -90.0859375 84.453125 C-96.262336114 84.453125 -102.518693168 83.789621221 -107.7109375 80.328125 C-107.067649904 76.657097118 -105.45288349 74.157594364 -103.3984375 71.078125 C-98.258437226 63.362549752 -95.279815971 57.435947625 -94.7734375 48.140625 C-93.264672296 29.728332943 -84.666339861 15.302877807 -70.7109375 3.328125 C-49.597903339 -12.80905085 -22.496518593 -13.963356368 0 0 Z M-79.7109375 14.55078125 C-91.717279583 29.22232427 -94.040825839 45.896767348 -92.7109375 64.328125 C-92.181392835 68.278241957 -91.234923964 71.651985607 -89.7109375 75.328125 C-89.258476562 76.432851562 -88.806015625 77.537578125 -88.33984375 78.67578125 C-81.528019427 93.687931257 -70.646198753 104.714750042 -55.0234375 110.640625 C-53.257802901 111.21923662 -51.48733059 111.783437442 -49.7109375 112.328125 C-48.4734375 112.740625 -47.2359375 113.153125 -45.9609375 113.578125 C-30.082879948 117.237265835 -13.774250447 112.821196261 0 104.86328125 C14.491997559 95.144245344 23.418704136 81.205652009 27.2890625 64.328125 C27.675500779 60.835393306 27.720346282 57.40189199 27.6640625 53.890625 C27.653911133 52.969025879 27.643759766 52.047426758 27.633300781 51.097900391 C27.481904152 44.459334237 26.87337836 38.505031468 24.2890625 32.328125 C23.68578125 30.875996094 23.68578125 30.875996094 23.0703125 29.39453125 C15.059537682 11.926591716 1.806884847 1.194502706 -15.7109375 -5.671875 C-39.549706463 -13.456668928 -63.672410537 -3.273284848 -79.7109375 14.55078125 Z " fill="#312C23" transform="translate(160.7109375,72.671875)" />
<path d="M0 0 C3.46755141 2.053742895 5.697902708 4.093708124 7 8 C7.094167784 10.019068077 7.129911924 12.041243127 7.125 14.0625 C7.128867187 15.657714844 7.128867187 15.657714844 7.1328125 17.28515625 C7 20 7 20 6 22 C5.34 22 4.68 22 4 22 C3.34 20.02 2.68 18.04 2 16 C1.753493714 18.92417515 1.753493714 18.92417515 3.0625 20.875 C4.269539978 23.610957283 3.784952671 25.174170385 3 28 C1.68 28 0.36 28 -1 28 C-1.33 28.99 -1.66 29.98 -2 31 C-6.222025419 31.153180061 -9.662335878 30.971745132 -13.15625 28.43359375 C-16.44007767 24.994995513 -18.420177196 22.359046649 -18.4375 17.5 C-18.293125 16.345 -18.14875 15.19 -18 14 C-17.01 14.33 -16.02 14.66 -15 15 C-14.67 16.65 -14.34 18.3 -14 20 C-13.34 19.67 -12.68 19.34 -12 19 C-12 18.34 -12 17.68 -12 17 C-12.66 16.67 -13.32 16.34 -14 16 C-14 15.34 -14 14.68 -14 14 C-12.68 13.67 -11.36 13.34 -10 13 C-10.33 12.34 -10.66 11.68 -11 11 C-9.02 10.67 -7.04 10.34 -5 10 C-3.666666667 7 -3.666666667 7 -5 4 C-4.34 3.67 -3.68 3.34 -3 3 C-5.97 2.67 -8.94 2.34 -12 2 C-9.741086495 -2.517827011 -4.15051565 -1.159011917 0 0 Z " fill="#D9D5CA" transform="translate(154,88)" />
<path d="M0 0 C-0.66 0.66 -1.32 1.32 -2 2 C-2.678046875 1.662265625 -3.35609375 1.32453125 -4.0546875 0.9765625 C-19.385679389 -6.370422533 -34.983302662 -6.924879096 -51.130859375 -1.684570312 C-65.998271262 3.760599872 -78.183437891 15.910295629 -84.824951172 30.121337891 C-88.720554535 39.664878147 -89.479805586 49.423922919 -89.375 59.625 C-89.386601563 60.761953125 -89.398203125 61.89890625 -89.41015625 63.0703125 C-89.384635455 70.488356906 -88.338380236 76.960001796 -86 84 C-92.101250865 84.179344719 -97.204493308 84.015828415 -103 82 C-103 78.44206755 -102.209998557 77.536713296 -100.1875 74.6875 C-94.941360661 67.265184342 -93.4724435 61.372232078 -92.625 52.4375 C-90.447036058 32.860774244 -83.180703001 18.026150101 -68 5 C-48.360881598 -10.010628258 -21.596514481 -12.866008627 0 0 Z " fill="#38342A" transform="translate(158,71)" />
<path d="M0 0 C0.33 0 0.66 0 1 0 C1.360204279 4.997834371 0.34389935 7.980188719 -2 12.375 C-2.556875 13.434609375 -3.11375 14.49421875 -3.6875 15.5859375 C-4.120625 16.382578125 -4.55375 17.17921875 -5 18 C-4.070585937 18.121171875 -3.141171875 18.24234375 -2.18359375 18.3671875 C-0.947382812 18.534765625 0.288828125 18.70234375 1.5625 18.875 C3.389746094 19.118632813 3.389746094 19.118632813 5.25390625 19.3671875 C9 20 9 20 16 22 C17.65 17.38 19.3 12.76 21 8 C22.03650518 12.14602072 21.983698917 12.74743847 20.5 16.4375 C19.189868942 20.070136115 18.712549662 22.244936515 20 26 C20.144375 26.7425 20.28875 27.485 20.4375 28.25 C20.623125 28.8275 20.80875 29.405 21 30 C21.66 30.33 22.32 30.66 23 31 C22.938125 32.010625 22.87625 33.02125 22.8125 34.0625 C23.034167385 38.717515082 23.289399148 41.159982127 26 45 C29.959674431 46.217532546 33.87817102 46.686868806 38 47 C37.34515625 45.918476562 36.6903125 44.836953125 36.015625 43.72265625 C32.509341566 35.833518523 33.584943899 26.882610966 33.75 18.4375 C33.770092531 16.647806408 33.788338439 14.858091079 33.8046875 13.068359375 C33.84847279 8.711697218 33.917347758 4.356091057 34 0 C36 3 36 3 37 5 C38.32 3.68 39.64 2.36 41 1 C40.566875 1.928125 40.566875 1.928125 40.125 2.875 C37.331013459 10.636073724 36.516351213 18.810429597 36 27 C35.934257812 27.796640625 35.868515625 28.59328125 35.80078125 29.4140625 C35.506303465 35.323927008 37.031549525 38.897975746 40 44 C41.32 44 42.64 44 44 44 C43.505 42.02 43.505 42.02 43 40 C44.98 40.99 46.96 41.98 49 43 C48.590078125 42.608125 48.18015625 42.21625 47.7578125 41.8125 C41.723101635 35.113682197 41.60640259 27.615098867 41 19 C39.68 20.32 38.36 21.64 37 23 C38.040976117 19.13351728 39.036984081 15.50538557 41 12 C41.495 12.495 41.495 12.495 42 13 C42.66 11.02 43.32 9.04 44 7 C44.66 7.33 45.32 7.66 46 8 C46.66 6.02 47.32 4.04 48 2 C48.33 2 48.66 2 49 2 C48.525365431 6.841272604 47.634388465 9.938651116 45 14 C42.862452071 20.91475236 43.396374884 29.275058745 46 36 C48.49958655 38.83459483 48.49958655 38.83459483 51 41 C51 41.99 51 42.98 51 44 C49.951992187 44.290039062 49.951992187 44.290039062 48.8828125 44.5859375 C47.517695312 44.976523437 47.517695312 44.976523437 46.125 45.375 C45.220078125 45.630234375 44.31515625 45.88546875 43.3828125 46.1484375 C40.854302741 46.860431497 40.854302741 46.860431497 39 49 C33.46735445 49.476952203 27.727957362 49.251857998 23 46 C20.584269952 41.326267983 19.903530334 36.078202924 18.87890625 30.9609375 C17.95872755 27.860957701 17.430939272 26.990586843 15 25 C12.964128819 24.130107169 12.964128819 24.130107169 10.69140625 23.578125 C9.861894531 23.357695312 9.032382813 23.137265625 8.177734375 22.91015625 C7.314707031 22.692304687 6.451679688 22.474453125 5.5625 22.25 C4.703339844 22.016679688 3.844179688 21.783359375 2.958984375 21.54296875 C-2.515366777 20.046980391 -2.515366777 20.046980391 -8 21 C-9.622571965 22.200299073 -9.622571965 22.200299073 -11.0625 23.625 C-12.031875 24.40875 -13.00125 25.1925 -14 26 C-14.99 25.67 -15.98 25.34 -17 25 C-11.25 20 -11.25 20 -9 20 C-8.7215625 19.428945312 -8.443125 18.857890625 -8.15625 18.26953125 C-7.012244358 16.02403369 -5.768401476 13.864664729 -4.5 11.6875 C-2.336023636 7.831919693 -1.005259174 4.295198287 0 0 Z " fill="#3B372C" transform="translate(99,131)" />
<path d="M0 0 C3 1 3 1 4.181884766 2.764160156 C5.105329724 5.287857239 5.186376105 7.094204356 5.08984375 9.7734375 C5.069863281 10.6809375 5.049882812 11.5884375 5.029296875 12.5234375 C4.968346006 14.416804929 4.903275307 16.310044443 4.833984375 18.203125 C4.72094938 23.706759948 5.120778218 27.143662478 8 32 C8 32.99 8 33.98 8 35 C3.738290318 35.250688805 0.090205139 35.417525372 -3.9375 33.875 C-6.658753221 31.401133435 -7.241224616 29.586938178 -8 26 C-8 23.666666667 -8 21.333333333 -8 19 C-8.6496875 17.7934375 -8.6496875 17.7934375 -9.3125 16.5625 C-10 14 -10 14 -9.1953125 12.125 C-6.531943815 7.757737063 -3.363007075 3.843436657 0 0 Z " fill="#C6C3B1" transform="translate(129,143)" />
<path d="M0 0 C2.08984375 1.40625 2.08984375 1.40625 3.92578125 2.84765625 C5.662440961 4.061215702 5.662440961 4.061215702 7.6328125 3.50390625 C8.319882812 3.286054687 9.006953125 3.068203125 9.71484375 2.84375 C14.872715054 2.558599391 19.658998864 2.802840759 24.71484375 3.84375 C26.056484536 3.545607603 27.393355484 3.221318076 28.71484375 2.84375 C29.20984375 3.33875 29.20984375 3.33875 29.71484375 3.84375 C29.69421875 4.91625 29.67359375 5.98875 29.65234375 7.09375 C29.481603866 10.693342032 29.481603866 10.693342032 30.69921875 13.20703125 C32.933992425 19.008847522 32.515302609 25.733449372 30.33984375 31.46875 C28.71484375 33.84375 28.71484375 33.84375 26.71484375 35.84375 C25.60109375 36.05 24.48734375 36.25625 23.33984375 36.46875 C19.410049015 37.959361796 19.115268091 38.245515605 17.40234375 41.78125 C17.117460937 42.470898437 16.832578125 43.160546875 16.5390625 43.87109375 C15.71484375 45.84375 15.71484375 45.84375 13.71484375 48.84375 C14.173068434 45.374334537 14.606160579 42.169799514 15.71484375 38.84375 C14.66296875 38.616875 13.61109375 38.39 12.52734375 38.15625 C7.299957504 36.64916082 4.772241594 33.129774405 1.40234375 29.03125 C-0.77726813 24.914205337 -0.60232366 22.442677447 -0.28515625 17.84375 C0.70484375 18.17375 1.69484375 18.50375 2.71484375 18.84375 C2.59109375 20.019375 2.46734375 21.195 2.33984375 22.40625 C2.363591758 26.862959497 3.748250837 29.240580242 6.78125 32.43359375 C10.095631093 34.850748446 13.701866495 35.406781366 17.71484375 35.84375 C17.71484375 34.85375 17.71484375 33.86375 17.71484375 32.84375 C16.72484375 32.34875 16.72484375 32.34875 15.71484375 31.84375 C18.68484375 32.33875 18.68484375 32.33875 21.71484375 32.84375 C22.501549258 30.58614143 22.501549258 30.58614143 22.71484375 27.84375 C21.750522989 26.156188668 20.752739565 24.48708504 19.71484375 22.84375 C20.20984375 21.35875 20.20984375 21.35875 20.71484375 19.84375 C21.37484375 20.17375 22.03484375 20.50375 22.71484375 20.84375 C23.33984375 23.90625 23.33984375 23.90625 23.71484375 26.84375 C24.37484375 26.84375 25.03484375 26.84375 25.71484375 26.84375 C25.796265949 24.615194256 25.854224539 22.385773451 25.90234375 20.15625 C25.937148438 18.914882812 25.971953125 17.673515625 26.0078125 16.39453125 C25.695094796 12.604392674 25.005847936 10.831781403 22.71484375 7.84375 C18.448976157 4.867563307 15.544024596 4.588677146 10.6171875 5.44921875 C9.989414063 5.579414063 9.361640625 5.709609375 8.71484375 5.84375 C7.72484375 6.029375 6.73484375 6.215 5.71484375 6.40625 C5.05484375 6.550625 4.39484375 6.695 3.71484375 6.84375 C3.38484375 5.85375 3.05484375 4.86375 2.71484375 3.84375 C-3.086984257 0.942835997 -7.990658718 -0.127254278 -14.28515625 1.84375 C-17.483880171 3.603534285 -20.39885462 5.612495549 -23.28515625 7.84375 C-23.94515625 7.51375 -24.60515625 7.18375 -25.28515625 6.84375 C-17.944609553 1.051457569 -9.565632858 -4.840046711 0 0 Z " fill="#5F5A51" transform="translate(134.28515625,83.15625)" />
<path d="M0 0 C0.99 0.33 1.98 0.66 3 1 C2.231749034 6.816757317 1.242312233 11.071685406 -2 16 C-2.66 16.33 -3.32 16.66 -4 17 C-5.133505337 19.016698274 -5.133505337 19.016698274 -6 21 C-6.66 21 -7.32 21 -8 21 C-8.702666127 23.975742764 -8.702666127 23.975742764 -9 27 C-8.01 26.01 -7.02 25.02 -6 24 C-5.962617188 24.929414063 -5.925234375 25.858828125 -5.88671875 26.81640625 C-5.448112113 38.603614261 -5.448112113 38.603614261 1 48 C1 48.66 1 49.32 1 50 C0.360625 49.835 -0.27875 49.67 -0.9375 49.5 C-2.808268208 48.960733329 -2.808268208 48.960733329 -4 49 C-4 49.66 -4 50.32 -4 51 C-5.98 51.495 -5.98 51.495 -8 52 C-14.327165424 42.815405029 -13.271967202 34.958046228 -12.1875 24.25 C-12.117246094 23.426289062 -12.046992187 22.602578125 -11.974609375 21.75390625 C-11.503889638 17.076834947 -10.787582032 13.917286329 -8 10 C-7.690625 9.13375 -7.38125 8.2675 -7.0625 7.375 C-5.817906731 4.592967987 -4.597745905 3.542411631 -2 2 C-1.34 2 -0.68 2 0 2 C0 1.34 0 0.68 0 0 Z " fill="#BAB5A9" transform="translate(147,124)" />
<path d="M0 0 C20.207552083 0.363802083 20.207552083 0.363802083 23.07421875 3.23046875 C22.08421875 3.56046875 21.09421875 3.89046875 20.07421875 4.23046875 C20.28046875 4.84921875 20.48671875 5.46796875 20.69921875 6.10546875 C20.82296875 6.80671875 20.94671875 7.50796875 21.07421875 8.23046875 C19.07421875 10.23046875 19.07421875 10.23046875 16.07421875 12.23046875 C15.57921875 11.73546875 15.57921875 11.73546875 15.07421875 11.23046875 C14.08421875 12.22046875 13.09421875 13.21046875 12.07421875 14.23046875 C11.41421875 13.90046875 10.75421875 13.57046875 10.07421875 13.23046875 C10.07421875 13.89046875 10.07421875 14.55046875 10.07421875 15.23046875 C11.06421875 15.56046875 12.05421875 15.89046875 13.07421875 16.23046875 C12.57921875 17.71546875 12.57921875 17.71546875 12.07421875 19.23046875 C11.41421875 19.23046875 10.75421875 19.23046875 10.07421875 19.23046875 C9.57921875 16.75546875 9.57921875 16.75546875 9.07421875 14.23046875 C8.41421875 14.23046875 7.75421875 14.23046875 7.07421875 14.23046875 C7.07421875 13.57046875 7.07421875 12.91046875 7.07421875 12.23046875 C6.08421875 12.23046875 5.09421875 12.23046875 4.07421875 12.23046875 C4.07421875 11.24046875 4.07421875 10.25046875 4.07421875 9.23046875 C5.39421875 8.90046875 6.71421875 8.57046875 8.07421875 8.23046875 C8.07421875 7.57046875 8.07421875 6.91046875 8.07421875 6.23046875 C1.677419641 6.68566282 1.677419641 6.68566282 -3.66796875 9.86328125 C-6.731627349 14.485961384 -8.013507728 18.703700627 -7.92578125 24.23046875 C-5.783313614 29.115294961 -2.837547517 32.691152128 0.8046875 36.5546875 C2.226416258 38.431369461 2.65864514 39.932296617 3.07421875 42.23046875 C0.160412209 39.420494959 -2.378480965 36.486306145 -4.86328125 33.29296875 C-10.019055901 26.82688673 -14.362823049 22.589698323 -21.92578125 19.23046875 C-18.92578125 18.23046875 -18.92578125 18.23046875 -16.6640625 19.2265625 C-15.863554687 19.702226563 -15.063046875 20.177890625 -14.23828125 20.66796875 C-13.430039063 21.141054688 -12.621796875 21.614140625 -11.7890625 22.1015625 C-10.866738281 22.660371094 -10.866738281 22.660371094 -9.92578125 23.23046875 C-9.8278125 22.494414062 -9.72984375 21.758359375 -9.62890625 21 C-8.735872513 15.172185009 -7.897396777 11.731633013 -3.92578125 7.23046875 C-3.758645556 4.60515351 -3.758645556 4.60515351 -3.92578125 2.23046875 C-1.92578125 0.23046875 -1.92578125 0.23046875 0 0 Z " fill="#958F80" transform="translate(129.92578125,88.76953125)" />
<path d="M0 0 C0.66 0.66 1.32 1.32 2 2 C0.68 4.64 -0.64 7.28 -2 10 C-1.01 10.33 -0.02 10.66 1 11 C0.175 11.09796875 -0.65 11.1959375 -1.5 11.296875 C-8.25030345 12.170798215 -14.921739846 13.25814551 -21.5625 14.75 C-22.228300781 14.882451172 -22.894101562 15.014902344 -23.580078125 15.151367188 C-28.97809695 16.436479283 -30.966598836 18.593942443 -34 23 C-37.610364714 33.831094142 -34.297865049 46.762739922 -29.71484375 56.8203125 C-21.990354299 70.547956705 -10.101880995 80.402700712 5 85 C21.962795934 88.675686381 36.780072899 85.734717051 52 78 C52 78.66 52 79.32 52 80 C36.678019397 88.262638755 21.244923868 92.269635643 4.0625 87.375 C-12.626095685 81.357880702 -26.281511845 70.080509557 -33.93359375 53.8671875 C-37.428219166 44.471381437 -40.252791015 32.508062933 -36.875 22.75 C-30.953405886 14.0649953 -24.929395153 12.287373348 -14.947265625 10.343261719 C-10.981846789 9.6442423 -7.020885524 9.193311804 -3 9 C-3.0309375 8.222695313 -3.061875 7.445390625 -3.09375 6.64453125 C-2.981250586 3.471110285 -2.071357525 2.330277216 0 0 Z " fill="#38342C" transform="translate(107,96)" />
<path d="M0 0 C0 0.66 0 1.32 0 2 C-1.32 2.33 -2.64 2.66 -4 3 C-3.67 7.29 -3.34 11.58 -3 16 C-7 18 -7 18 -10 19 C-9.67 19.99 -9.34 20.98 -9 22 C-8.21625 21.484375 -7.4325 20.96875 -6.625 20.4375 C-5.75875 19.963125 -4.8925 19.48875 -4 19 C-3.34 19.33 -2.68 19.66 -2 20 C-2.78375 20.598125 -3.5675 21.19625 -4.375 21.8125 C-7.145743232 23.91085249 -7.145743232 23.91085249 -9 27 C-12.694198082 25.812579188 -14.569117039 23.519755663 -16.3671875 20.12890625 C-17.785688555 15.356788503 -16.230242107 10.374319397 -13.99609375 6.0625 C-12.80803218 4.23875973 -11.542628134 2.542628134 -10 1 C-3 0 -3 0 0 0 Z " fill="#D2CBBC" transform="translate(138,95)" />
<path d="M0 0 C0.33 0 0.66 0 1 0 C1.135351563 0.931992187 1.270703125 1.863984375 1.41015625 2.82421875 C4.140607102 18.994373797 11.489761846 31.948576479 24.875 41.8125 C38.253396187 50.62063662 53.410059827 54.657588301 69.307128906 51.548828125 C76.011543109 49.862146336 82.083574521 47.622084539 88 44 C88.66 44 89.32 44 90 44 C90.495 43.01 90.495 43.01 91 42 C91.66 42.33 92.32 42.66 93 43 C93 43.66 93 44.32 93 45 C75.134843828 54.34066541 58.326963831 58.209799737 38.49609375 52.24609375 C23.927586846 47.053519781 12.004055983 36.858692104 5 23 C-2.266100849 6.798302546 -2.266100849 6.798302546 0 0 Z " fill="#D1CCC4" transform="translate(69,132)" />
<path d="M0 0 C2.290643555 2.290643555 2.54352981 3.470466052 3.2890625 6.5703125 C3.617773438 7.914160156 3.617773438 7.914160156 3.953125 9.28515625 C4.17484375 10.222304688 4.3965625 11.159453125 4.625 12.125 C4.969179688 13.542324219 4.969179688 13.542324219 5.3203125 14.98828125 C5.886563446 17.324066402 6.446167585 19.661244829 7 22 C5.419367683 22.027206676 3.838597868 22.046489152 2.2578125 22.0625 C0.937409668 22.079902344 0.937409668 22.079902344 -0.409667969 22.09765625 C-3.897633287 21.966158971 -6.714574327 21.142756756 -10 20 C-10 16.465058815 -9.265188873 15.630771568 -7.25 12.8125 C-4.394019074 8.684186339 -2.143864964 4.535098962 0 0 Z " fill="#CFC9BF" transform="translate(65,133)" />
<path d="M0 0 C0.33 0 0.66 0 1 0 C1.360204279 4.997834371 0.34389935 7.980188719 -2 12.375 C-2.556875 13.434609375 -3.11375 14.49421875 -3.6875 15.5859375 C-4.120625 16.382578125 -4.55375 17.17921875 -5 18 C-4.070585937 18.121171875 -3.141171875 18.24234375 -2.18359375 18.3671875 C-0.947382812 18.534765625 0.288828125 18.70234375 1.5625 18.875 C3.389746094 19.118632813 3.389746094 19.118632813 5.25390625 19.3671875 C9 20 9 20 16 22 C17.65 17.38 19.3 12.76 21 8 C22.03650518 12.14602072 21.983698917 12.74743847 20.5 16.4375 C19.189868942 20.070136115 18.712549662 22.244936515 20 26 C20.144375 26.7425 20.28875 27.485 20.4375 28.25 C20.623125 28.8275 20.80875 29.405 21 30 C21.66 30.33 22.32 30.66 23 31 C22.938125 32.010625 22.87625 33.02125 22.8125 34.0625 C23.034167385 38.717515082 23.289399148 41.159982127 26 45 C29.959674431 46.217532546 33.87817102 46.686868806 38 47 C38.495 46.01 38.495 46.01 39 45 C39.33 45.99 39.66 46.98 40 48 C39 49 39 49 35.4375 49.25 C31.065146093 49.179096964 26.661931208 48.518652216 23 46 C20.584269952 41.326267983 19.903530334 36.078202924 18.87890625 30.9609375 C17.95872755 27.860957701 17.430939272 26.990586843 15 25 C12.964128819 24.130107169 12.964128819 24.130107169 10.69140625 23.578125 C9.861894531 23.357695312 9.032382813 23.137265625 8.177734375 22.91015625 C7.314707031 22.692304687 6.451679688 22.474453125 5.5625 22.25 C4.703339844 22.016679688 3.844179688 21.783359375 2.958984375 21.54296875 C-2.515366777 20.046980391 -2.515366777 20.046980391 -8 21 C-9.622571965 22.200299073 -9.622571965 22.200299073 -11.0625 23.625 C-12.031875 24.40875 -13.00125 25.1925 -14 26 C-14.99 25.67 -15.98 25.34 -17 25 C-11.25 20 -11.25 20 -9 20 C-8.7215625 19.428945312 -8.443125 18.857890625 -8.15625 18.26953125 C-7.012244358 16.02403369 -5.768401476 13.864664729 -4.5 11.6875 C-2.336023636 7.831919693 -1.005259174 4.295198287 0 0 Z " fill="#423D32" transform="translate(99,131)" />
<path d="M0 0 C0.144375 0.598125 0.28875 1.19625 0.4375 1.8125 C0.887243897 3.561504045 1.428923409 5.286770228 2 7 C1.029892151 8.778531056 0.052733399 10.555120123 -1.0078125 12.28125 C-2.087027902 14.150756996 -2.659006746 15.868792164 -3 18 C-3.66 18 -4.32 18 -5 18 C-5 19.32 -5 20.64 -5 22 C-3.02 18.7 -1.04 15.4 1 12 C1.33 12.66 1.66 13.32 2 14 C1.195556641 15.971191406 1.195556641 15.971191406 -0.08984375 18.3515625 C-0.544238281 19.20234375 -0.998632813 20.053125 -1.466796875 20.9296875 C-1.952128906 21.819140625 -2.437460937 22.70859375 -2.9375 23.625 C-3.418964844 24.5221875 -3.900429688 25.419375 -4.396484375 26.34375 C-5.590587155 28.566436363 -6.79199381 30.784848258 -8 33 C-9.98 32.67 -11.96 32.34 -14 32 C-13.225514904 28.323233911 -11.709631793 25.520182987 -9.83984375 22.29296875 C-8.789445487 19.885066063 -8.789445487 19.885066063 -9.16015625 16.671875 C-8.953759921 11.939861596 -7.303548267 9.729002314 -4.5 6.0625 C-4.070742188 5.474042969 -3.641484375 4.885585937 -3.19921875 4.279296875 C-2.147525362 2.841982578 -1.07575316 1.419396531 0 0 Z " fill="#B9B2A2" transform="translate(108,117)" />
<path d="M0 0 C0.99 0.33 1.98 0.66 3 1 C-0.248625614 11.188871244 -3.682050212 20.281229293 -10 29 C-11.98 28.67 -13.96 28.34 -16 28 C-14.421958459 22.395231768 -11.735836148 17.64949374 -8.875 12.625 C-8.173105469 11.377832031 -8.173105469 11.377832031 -7.45703125 10.10546875 C-6.309294511 8.067650459 -5.156867176 6.032644312 -4 4 C-3.34 4.33 -2.68 4.66 -2 5 C-1.34 3.35 -0.68 1.7 0 0 Z " fill="#E2DBCB" transform="translate(116,122)" />
<path d="M0 0 C0.33 0 0.66 0 1 0 C1.037382812 1.013203125 1.074765625 2.02640625 1.11328125 3.0703125 C1.178983876 4.421909388 1.245429705 5.77347029 1.3125 7.125 C1.335058594 7.79015625 1.357617188 8.4553125 1.380859375 9.140625 C1.631937773 13.79698802 2.802513461 16.934944472 5 21 C5 21.99 5 22.98 5 24 C0.738311633 24.250687551 -2.940151684 24.375362945 -7 22.9375 C-9 21 -9 21 -10 17.5625 C-10 13.761109299 -9.631031879 12.631031879 -7 10 C-6.34 10.33 -5.68 10.66 -5 11 C-4.67 11 -4.34 11 -4 11 C-3.34 11 -2.68 11 -2 11 C-2 9.68 -2 8.36 -2 7 C-2.33 7.66 -2.66 8.32 -3 9 C-3.99 8.67 -4.98 8.34 -6 8 C-5.024712629 6.663826477 -4.044666809 5.331124899 -3.0625 4 C-2.517226563 3.2575 -1.971953125 2.515 -1.41015625 1.75 C-0.712128906 0.88375 -0.712128906 0.88375 0 0 Z " fill="#E6E4D5" transform="translate(132,154)" />
<path d="M0 0 C0.99 0.33 1.98 0.66 3 1 C2.87625 2.175625 2.7525 3.35125 2.625 4.5625 C2.648748008 9.019209497 4.033407087 11.396830242 7.06640625 14.58984375 C10.380787343 17.006998446 13.987022745 17.563031366 18 18 C18 17.01 18 16.02 18 15 C17.34 14.67 16.68 14.34 16 14 C18.97 14.495 18.97 14.495 22 15 C22.786705508 12.74239143 22.786705508 12.74239143 23 10 C22.035679239 8.312438668 21.037895815 6.64333504 20 5 C20.33 4.01 20.66 3.02 21 2 C21.66 2.33 22.32 2.66 23 3 C23.625 6.0625 23.625 6.0625 24 9 C24.66 9 25.32 9 26 9 C26.33 8.34 26.66 7.68 27 7 C26.34 9.97 25.68 12.94 25 16 C25.66 15.67 26.32 15.34 27 15 C27.33 14.01 27.66 13.02 28 12 C28.66 12 29.32 12 30 12 C30.33 8.04 30.66 4.08 31 0 C31.33 0 31.66 0 32 0 C32.325465002 6.099455218 32.448741856 10.694243299 29 16 C27 18 27 18 23.625 18.625 C19.695205265 20.115611796 19.400424341 20.401765605 17.6875 23.9375 C17.402617187 24.627148437 17.117734375 25.316796875 16.82421875 26.02734375 C16 28 16 28 14 31 C14.458224684 27.530584537 14.891316829 24.326049514 16 21 C14.4221875 20.6596875 14.4221875 20.6596875 12.8125 20.3125 C7.585113754 18.80541082 5.057397844 15.286024405 1.6875 11.1875 C-0.49211188 7.070455337 -0.31716741 4.598927447 0 0 Z " fill="#2F2B22" transform="translate(134,101)" />
<path d="M0 0 C1.2065625 0.9590625 1.2065625 0.9590625 2.4375 1.9375 C1.7775 2.5975 1.1175 3.2575 0.4375 3.9375 C-0.861875 3.89625 -2.16125 3.855 -3.5 3.8125 C-8.603878676 3.655330316 -12.524081992 5.190476996 -17.1796875 7.16015625 C-19.5625 7.9375 -19.5625 7.9375 -22.5625 6.9375 C-21.5725 5.9475 -20.5825 4.9575 -19.5625 3.9375 C-21.5425 4.9275 -23.5225 5.9175 -25.5625 6.9375 C-25.5625 5.9475 -25.5625 4.9575 -25.5625 3.9375 C-23.734375 2.3671875 -23.734375 2.3671875 -21.3125 0.8125 C-20.129140625 0.035195312 -20.129140625 0.035195312 -18.921875 -0.7578125 C-12.921137884 -4.076100905 -5.746673159 -3.849315512 0 0 Z " fill="#D6D0C0" transform="translate(136.5625,86.0625)" />
<path d="M0 0 C0.33 0.66 0.66 1.32 1 2 C-0.328125 4.8984375 -0.328125 4.8984375 -2.25 8.375 C-2.87390625 9.517109375 -3.4978125 10.65921875 -4.140625 11.8359375 C-5.637116349 14.382487905 -7.161739863 16.696501186 -9 19 C-3.513248037 20.867830456 1.221929762 21.235839602 7 21 C6.657753906 19.986796875 6.657753906 19.986796875 6.30859375 18.953125 C6.021132812 18.06109375 5.733671875 17.1690625 5.4375 16.25 C5.147460938 15.36828125 4.857421875 14.4865625 4.55859375 13.578125 C3.983025648 10.921656838 4.107516285 9.529688939 5 7 C5.351914063 7.955195312 5.703828125 8.910390625 6.06640625 9.89453125 C12.286548155 26.356219067 20.263680062 37.244971309 35 47 C34.01 47.495 34.01 47.495 33 48 C23.902744969 42.594384692 15.166749297 35.394089631 10 26 C10 25.34 10 24.68 10 24 C8.329375 24.061875 8.329375 24.061875 6.625 24.125 C0.448601386 24.125 -5.807755668 23.461496221 -11 20 C-10.352422003 16.280802046 -8.684264712 13.694841472 -6.625 10.5625 C-4.347147599 7.077870476 -2.120045875 3.583267721 0 0 Z " fill="#2A251D" transform="translate(64,133)" />
<path d="M0 0 C1.98 1.32 3.96 2.64 6 4 C5.67 6.31 5.34 8.62 5 11 C5.66 11.33 6.32 11.66 7 12 C7.33 11.34 7.66 10.68 8 10 C7.717583593 11.460152913 7.423733862 12.918097932 7.125 14.375 C6.962578125 15.187109375 6.80015625 15.99921875 6.6328125 16.8359375 C6 19 6 19 4 21 C3.67 20.34 3.34 19.68 3 19 C2.780859375 19.689648438 2.56171875 20.379296875 2.3359375 21.08984375 C-3.03960396 37.01980198 -3.03960396 37.01980198 -9 40 C-7.671960267 37.277215341 -6.224839361 34.671470055 -4.6875 32.0625 C0.749939313 22.499551794 0.749939313 22.499551794 3 12 C2.34 11.67 1.68 11.34 1 11 C0.34 13.31 -0.32 15.62 -1 18 C-1.99 18 -2.98 18 -4 18 C-5 15 -5 15 -4.0390625 13.02734375 C-3.572421875 12.337695313 -3.10578125 11.648046875 -2.625 10.9375 C-1.932773438 9.899160156 -1.932773438 9.899160156 -1.2265625 8.83984375 C-0.619414062 7.929121094 -0.619414062 7.929121094 0 7 C0.33 6.34 0.66 5.68 1 5 C-0.65 6.32 -2.3 7.64 -4 9 C-3.398162512 6.979545575 -2.726939039 4.978889607 -2 3 C-1.34 2.67 -0.68 2.34 0 2 C0 1.34 0 0.68 0 0 Z " fill="#B7B2A2" transform="translate(115,111)" />
<path d="M0 0 C0.66 0.33 1.32 0.66 2 1 C1.67 1.99 1.34 2.98 1 4 C1.66 4 2.32 4 3 4 C3 4.66 3 5.32 3 6 C-8.669004032 11.491296015 -19.28072848 11.591721048 -32 11 C-30.6875 9.5 -30.6875 9.5 -29 8 C-28.01 8 -27.02 8 -26 8 C-26 7.34 -26 6.68 -26 6 C-25.175 6.165 -24.35 6.33 -23.5 6.5 C-19.535162004 7.066405428 -16.00274224 7.200137112 -12 7 C-11.34 6.34 -10.68 5.68 -10 5 C-7.6171875 4.3671875 -7.6171875 4.3671875 -4.875 3.875 C-3.509882812 3.623632813 -3.509882812 3.623632813 -2.1171875 3.3671875 C-1.418515625 3.246015625 -0.71984375 3.12484375 0 3 C0 2.01 0 1.02 0 0 Z " fill="#E3E0D7" transform="translate(150,172)" />
<path d="M0 0 C1.049769644 3.149308933 1.101315946 5.388144563 1.0625 8.6875 C1.053476563 9.681367188 1.044453125 10.675234375 1.03515625 11.69921875 C1.023554687 12.458476563 1.011953125 13.217734375 1 14 C0.01 14.495 0.01 14.495 -1 15 C-1.33 13.35 -1.66 11.7 -2 10 C-7.949444222 12.337281659 -10.419468697 17.451857698 -13 23 C-14 21 -14 21 -13.534423828 18.96875 C-12.642296846 16.306847361 -11.738300851 13.650404026 -10.8125 11 C-10.507636719 10.071875 -10.202773437 9.14375 -9.888671875 8.1875 C-9.581230469 7.300625 -9.273789063 6.41375 -8.95703125 5.5 C-8.678352051 4.6853125 -8.399672852 3.870625 -8.112548828 3.03125 C-6.05326751 -0.728508738 -3.96636999 -1.32212333 0 0 Z " fill="#EDE9DC" transform="translate(133,134)" />
<path d="M0 0 C2.720920504 1.401332449 3.87724857 2.618376444 6 5 C6.875 8.8125 6.875 8.8125 7 12 C5.35 12.66 3.7 13.32 2 14 C-2.214222419 11.116584661 -3.760758549 8.956965806 -5 4 C-4.34 3.67 -3.68 3.34 -3 3 C-5.97 2.67 -8.94 2.34 -12 2 C-9.732653927 -2.534692145 -4.162836168 -1.131034733 0 0 Z " fill="#AEA79A" transform="translate(154,88)" />
<path d="M0 0 C0.99 0.99 0.99 0.99 2 2 C-11.315756788 12.012623321 -27.405677487 16.545823534 -44 15 C-51.377785939 13.659427184 -58.364638359 11.535482767 -65 8 C-64.67 7.34 -64.34 6.68 -64 6 C-62.948125 6.398320313 -62.948125 6.398320313 -61.875 6.8046875 C-45.062560902 13.063666186 -29.301102948 14.232940481 -12.46875 7.1484375 C-5.799533609 4.243286833 -5.799533609 4.243286833 0 0 Z " fill="#3A342C" transform="translate(164,174)" />
<path d="M0 0 C0.33 0 0.66 0 1 0 C1.135351563 0.931992187 1.270703125 1.863984375 1.41015625 2.82421875 C3.954082316 17.889744974 10.362718198 30.502761657 22.65625 40.06640625 C25.071864127 41.76799326 27.524269461 43.387995832 30 45 C31.341242672 45.9893664 32.677274015 46.986010973 34 48 C31 49 31 49 28.58203125 47.84765625 C13.520782149 38.139629679 3.799365978 25.355770829 -0.5625 7.7265625 C-1.072591577 4.704269904 -0.982083 2.946249001 0 0 Z " fill="#C8C5BC" transform="translate(69,132)" />
<path d="M0 0 C0.66 0.33 1.32 0.66 2 1 C0.515 2.485 0.515 2.485 -1 4 C-0.113125 3.690625 0.77375 3.38125 1.6875 3.0625 C4.467091548 2.1709329 7.131363751 1.506229926 10 1 C7.292105288 3.082995932 4.52116129 4.94116944 1.625 6.75 C-2.243918437 9.282614372 -4.967873483 11.97414488 -7.7109375 15.6796875 C-8.136328125 16.115390625 -8.56171875 16.55109375 -9 17 C-9.99 17 -10.98 17 -12 17 C-11.442710874 13.656265246 -10.648261114 10.966870005 -9 8 C-9.66 7.34 -10.32 6.68 -11 6 C-10.625 3.875 -10.625 3.875 -10 2 C-9.278125 2.226875 -8.55625 2.45375 -7.8125 2.6875 C-4.233027978 3.085219114 -2.949515449 1.91319921 0 0 Z " fill="#ADA798" transform="translate(117,89)" />
<path d="M0 0 C0.78375 0.04125 1.5675 0.0825 2.375 0.125 C2.705 0.785 3.035 1.445 3.375 2.125 C1.725 2.125 0.075 2.125 -1.625 2.125 C-1.625 3.115 -1.625 4.105 -1.625 5.125 C-0.305 5.455 1.015 5.785 2.375 6.125 C1.4675 6.475625 0.56 6.82625 -0.375 7.1875 C-4.925938974 9.900559773 -6.73575971 13.204849628 -8.23046875 18.11328125 C-9.112927295 22.612946108 -8.437548704 25.58165618 -5.9453125 29.3984375 C-4.056484456 31.868443404 -2.027067217 34.187110977 0.10546875 36.44921875 C1.527197508 38.325900711 1.95942639 39.826827867 2.375 42.125 C-0.538806541 39.315026209 -3.077699715 36.380837395 -5.5625 33.1875 C-10.718274651 26.72141798 -15.062041799 22.484229573 -22.625 19.125 C-19.625 18.125 -19.625 18.125 -17.36328125 19.12109375 C-16.562773437 19.596757813 -15.762265625 20.072421875 -14.9375 20.5625 C-14.129257813 21.035585938 -13.321015625 21.508671875 -12.48828125 21.99609375 C-11.565957031 22.554902344 -11.565957031 22.554902344 -10.625 23.125 C-10.52703125 22.388945312 -10.4290625 21.652890625 -10.328125 20.89453125 C-9.435091263 15.066716259 -8.596615527 11.626164263 -4.625 7.125 C-4.457864306 4.49968476 -4.457864306 4.49968476 -4.625 2.125 C-2.625 0.125 -2.625 0.125 0 0 Z " fill="#302A1F" transform="translate(130.625,88.875)" />
<path d="M0 0 C0.33 0 0.66 0 1 0 C1.19564163 5.380144825 0.727180634 9.912407294 -0.66015625 15.1171875 C-1.208802184 17.081543021 -1.208802184 17.081543021 0 19 C-0.935789949 21.359818132 -1.933478076 23.696312645 -3 26 C-5.64 25.01 -8.28 24.02 -11 23 C-10.457304687 22.093789063 -9.914609375 21.187578125 -9.35546875 20.25390625 C-5.451051238 13.639299488 -2.057473249 7.458340526 0 0 Z " fill="#CEC7B9" transform="translate(118,128)" />
<path d="M0 0 C0.66 1.32 1.32 2.64 2 4 C2.99 4 3.98 4 5 4 C3.753253412 6.493493176 2.300398939 7.466400707 0 9 C-0.66 9 -1.32 9 -2 9 C-1.67 9.99 -1.34 10.98 -1 12 C-0.21625 11.484375 0.5675 10.96875 1.375 10.4375 C2.24125 9.963125 3.1075 9.48875 4 9 C4.66 9.33 5.32 9.66 6 10 C5.21625 10.598125 4.4325 11.19625 3.625 11.8125 C0.854256768 13.91085249 0.854256768 13.91085249 -1 17 C-4.277230563 15.946604462 -5.604600942 14.362367411 -7.3125 11.5 C-7.869375 10.345 -8.42625 9.19 -9 8 C-7.737622691 5.475245382 -6.2095347 4.533945972 -3.9375 2.875 C-2.837285156 2.066757813 -2.837285156 2.066757813 -1.71484375 1.2421875 C-1.148945312 0.832265625 -0.583046875 0.42234375 0 0 Z " fill="#AEA99B" transform="translate(130,105)" />
</svg>