<?xml version='1.0' encoding='utf-8'?>
<svg xmlns="http://www.w3.org/2000/svg" version="1.1" width="118" height="170" viewBox="70.759138648 30.096800741000003 118.91086135200001 170.773790586">
<path d="M0 0 C0 0.66 0 1.32 0 2 C0.533671875 2.135351562 1.06734375 2.270703125 1.6171875 2.41015625 C8.38541631 4.365682567 13.477517039 7.686466899 19 12 C19.969375 12.7425 20.93875 13.485 21.9375 14.25 C26.553833956 20.405111941 27.037950349 28.043061208 27.8125 35.5 C28.554923298 41.682701585 30.186498373 45.793887779 33.398193359 51.060058594 C39.556645813 62.363226472 39.475648886 73.912887419 39.125 86.375 C39.069271935 88.766460896 39.019935881 91.157647518 38.982635498 93.549468994 C38.958611828 95.021198706 38.923919372 96.492812964 38.87600708 97.96395874 C38.77810214 103.023085183 39.56645445 107.191773224 41 112 C42.66342837 113.66342837 44.782570896 113.360480965 47.0625 113.5625 C48.441152344 113.688183594 48.441152344 113.688183594 49.84765625 113.81640625 C50.557929688 113.876992187 51.268203125 113.937578125 52 114 C51.67 115.65 51.34 117.3 51 119 C43.186884071 120.412829242 43.186884071 120.412829242 39.125 119 C34.944296426 115.065220166 33.696673806 109.351048157 32 104 C31.697070312 104.678046875 31.394140625 105.35609375 31.08203125 106.0546875 C28.919870115 110.858011622 26.708676436 115.590700632 24.25 120.25 C22.581874499 123.468921074 21.991634559 125.102058379 21.6875 128.8125 C20.880727053 132.552992752 20.269630873 132.909185933 17.1875 134.9375 C13.992139171 136.801960071 12.898359936 137 9 137 C9.495 140.465 9.495 140.465 10 144 C2.085289094 148.870591327 -5.466440604 149.103902115 -14.5 147.25 C-18.023878409 145.991471997 -19.686613381 144.891733274 -22 142 C-21.67 141.01 -21.34 140.02 -21 139 C-22.372851563 138.692558594 -22.372851563 138.692558594 -23.7734375 138.37890625 C-25.556210937 137.974785156 -25.556210937 137.974785156 -27.375 137.5625 C-28.558359375 137.295664063 -29.74171875 137.028828125 -30.9609375 136.75390625 C-34 136 -34 136 -36 135 C-36.375 132.75 -36.375 132.75 -36 130 C-35.01 129.443125 -34.02 128.88625 -33 128.3125 C-29.769826226 126.368423771 -29.769826226 126.368423771 -29.6015625 123.52734375 C-29.622932078 120.995048708 -29.740462985 118.518470296 -30 116 C-30.33 116 -30.66 116 -31 116 C-30.912988281 114.909453125 -30.912988281 114.909453125 -30.82421875 113.796875 C-30.490630095 106.362613536 -31.730982408 101.11942057 -34.90625 94.3984375 C-36 92 -36 92 -36 90 C-36.66 90 -37.32 90 -38 90 C-42.428953987 77.01741732 -45.388654396 65.847688792 -46 52 C-46.065742188 50.950703125 -46.131484375 49.90140625 -46.19921875 48.8203125 C-46.723534729 35.188097037 -41.414185793 23.45916094 -33 13 C-30.777308639 10.709846761 -28.526866556 8.648224076 -26.04296875 6.6484375 C-23.914321774 5.00667049 -23.914321774 5.00667049 -21.95703125 2.8359375 C-16.905313131 -1.903199259 -6.489733882 -0.097346008 0 0 Z " fill="#403C32" transform="translate(128,42)" />
<path d="M0 0 C4.565484293 1.931551047 8.764223031 4.837390305 11.25 9.1875 C11.4975 10.115625 11.745 11.04375 12 12 C12.183046875 12.605859375 12.36609375 13.21171875 12.5546875 13.8359375 C14.101997043 19.876803526 14.305442345 25.983611971 14.4375 32.1875 C14.471821289 33.042873535 14.506142578 33.89824707 14.541503906 34.779541016 C14.584862462 41.156345754 13.127194754 44.150389117 9 49 C8.505 49.680625 8.01 50.36125 7.5 51.0625 C7.005 51.701875 6.51 52.34125 6 53 C5.319375 53.969375 4.63875 54.93875 3.9375 55.9375 C0.590267174 59.96239346 -4.12340394 62.265140163 -9 64 C-9.99 63.505 -9.99 63.505 -11 63 C-10.662265625 62.526914062 -10.32453125 62.053828125 -9.9765625 61.56640625 C-6.567686376 56.512205523 -4.932307043 52.011293175 -4 46 C-4.24234375 46.81984375 -4.4846875 47.6396875 -4.734375 48.484375 C-5.06953125 49.56203125 -5.4046875 50.6396875 -5.75 51.75 C-6.07484375 52.81734375 -6.3996875 53.8846875 -6.734375 54.984375 C-8.096286628 58.229423695 -9.220836976 59.862182289 -12 62 C-16.567087165 63.510375283 -21.017938864 63.690718275 -25.578125 62.1015625 C-31.515497926 58.700352181 -33.510846108 54.630512974 -35.44140625 48.1953125 C-35.625742187 47.470859375 -35.810078125 46.74640625 -36 46 C-36.66 46.99 -37.32 47.98 -38 49 C-41.453044887 43.595234089 -42.139681855 39.901288934 -42.125 33.5 C-42.128867187 31.81390625 -42.128867187 31.81390625 -42.1328125 30.09375 C-42.022663666 27.527930105 -41.752706621 25.437335726 -41 23 C-44.082998467 30.707496168 -43.488927631 38.21057834 -41 46 C-39.277735039 49.248499772 -39.277735039 49.248499772 -36 50 C-34.114200628 53.212843375 -33 55.246335831 -33 59 C-32.29875 59.268125 -31.5975 59.53625 -30.875 59.8125 C-28 61 -28 61 -25.25 62.625 C-21.048399467 64.402600225 -17.493921913 64.269635315 -13 64 C-14.335860537 66.881642015 -15.836373307 69.252767085 -17.875 71.6875 C-18.367421875 72.289492188 -18.85984375 72.891484375 -19.3671875 73.51171875 C-21.399268926 75.36392694 -22.22492349 75.956336209 -25 76 C-27.452257764 74.717735097 -29.605878495 73.426289012 -31.875 71.875 C-32.474414063 71.483125 -33.073828125 71.09125 -33.69140625 70.6875 C-35.489401896 69.494036513 -37.249843924 68.262468259 -39 67 C-39.560581055 66.595637207 -40.121162109 66.191274414 -40.698730469 65.774658203 C-46.242746685 61.501886769 -47.575561779 56.642043389 -49 50 C-50.424118444 38.86862522 -47.106375434 28.803070318 -42 19 C-47.335007422 29.120224003 -49.347183963 37.57571935 -50 49 C-52.811974574 46.188025426 -52.699025571 43.15988755 -53.125 39.375 C-53.211367188 38.66859375 -53.297734375 37.9621875 -53.38671875 37.234375 C-53.598811826 35.490498594 -53.800409915 33.745351595 -54 32 C-54.99 33.32 -55.98 34.64 -57 36 C-56.483798214 23.869258035 -52.16492412 15.617940014 -45 6 C-44.34 5.01 -43.68 4.02 -43 3 C-39.888019349 4.498361054 -36.946538499 6.199337584 -34 8 C-33.67 6.35 -33.34 4.7 -33 3 C-26.115097749 2.426258146 -21.973321228 3.524613104 -16 7 C-16.33 7.99 -16.66 8.98 -17 10 C-21.95 10.33 -26.9 10.66 -32 11 C-31.67 12.65 -31.34 14.3 -31 16 C-29.02 15.67 -27.04 15.34 -25 15 C-24.01 17.97 -23.02 20.94 -22 24 C-22.99 24.495 -22.99 24.495 -24 25 C-24 25.99 -24 26.98 -24 28 C-22.68 28.66 -21.36 29.32 -20 30 C-20.33 31.32 -20.66 32.64 -21 34 C-20.01 34 -19.02 34 -18 34 C-17.67 32.35 -17.34 30.7 -17 29 C-16.01 29 -15.02 29 -14 29 C-13.665016995 26.668349662 -13.665016995 26.668349662 -14 24 C-15.937500603 21.812225344 -15.937500603 21.812225344 -18 20 C-18 19.34 -18 18.68 -18 18 C-16.02 17.67 -14.04 17.34 -12 17 C-12 16.34 -12 15.68 -12 15 C-11.360625 14.87625 -10.72125 14.7525 -10.0625 14.625 C-9.381875 14.41875 -8.70125 14.2125 -8 14 C-7.67 13.34 -7.34 12.68 -7 12 C-8.98 11.34 -10.96 10.68 -13 10 C-12.79375 9.38125 -12.5875 8.7625 -12.375 8.125 C-12.189375 7.073125 -12.189375 7.073125 -12 6 C-12.66 5.34 -13.32 4.68 -14 4 C-12 2 -12 2 -9.375 1.875 C-8.59125 1.91625 -7.8075 1.9575 -7 2 C-6.505 4.475 -6.505 4.475 -6 7 C-2.08396696 4.205795084 -2.08396696 4.205795084 0 0 Z " fill="#E7E3D6" transform="translate(140,52)" />
<path d="M0 0 C0.33 0 0.66 0 1 0 C1.583439138 8.673795191 1.028206391 16.448357073 -1.125 24.875 C-1.312800293 25.646262207 -1.500600586 26.417524414 -1.694091797 27.212158203 C-3.113035359 32.378440437 -5.321304856 36.141111402 -8.395019531 40.49609375 C-11.517458331 45.367364259 -13.618882615 50.750201865 -15.875 56.0625 C-16.621367187 57.790166016 -16.621367187 57.790166016 -17.3828125 59.552734375 C-18.596486309 62.365190028 -19.80198082 65.180849152 -21 68 C-21.66 68 -22.32 68 -23 68 C-22.382219531 70.606073919 -21.756127888 73.209656971 -21.125 75.8125 C-20.950976562 76.550488281 -20.776953125 77.288476562 -20.59765625 78.048828125 C-19.755074887 81.49717037 -18.987144253 84.01928362 -17 87 C-17 87.99 -17 88.98 -17 90 C-23.883413101 94.029314986 -31.213512886 93.666680565 -39 93 C-41.714165131 92.270069965 -43.563887888 91.426016846 -46 90 C-44.878925096 86.738691188 -43.421269667 84.083731072 -41.5 81.25 C-37.561314096 75.029193145 -37.022469234 68.928352572 -36.625 61.6875 C-35.84937038 50.240276648 -32.037333128 39.602322128 -23.5625 31.6875 C-20.562178537 28.862521999 -18.812388636 26.041339819 -16.9375 22.375 C-14.932100711 18.464735951 -13.302097691 16.098595453 -9.65234375 13.5234375 C-6.30843706 10.440402963 -4.056709173 6.270498866 -1.63671875 2.44921875 C-0.826542969 1.236855469 -0.826542969 1.236855469 0 0 Z " fill="#EAE5D8" transform="translate(154,95)" />
<path d="M0 0 C0.33 0 0.66 0 1 0 C1.09796875 0.7734375 1.1959375 1.546875 1.296875 2.34375 C2.131991828 8.160770661 3.09398098 13.079662299 6.015625 18.203125 C7 20 7 20 8.1875 23.5625 C11.893102281 30.590366394 19.152133993 34.346247409 26.0546875 37.859375 C29.828554207 40.072164314 30.79543227 41.374341554 32.203125 45.6796875 C33.136119652 49.92074825 33.10604299 53.818239533 32.75 58.125 C32.696262207 58.857832031 32.642524414 59.590664062 32.587158203 60.345703125 C30.976949148 80.867539913 30.976949148 80.867539913 26 90 C19.184016131 90.332787639 14.078779342 90.242015649 8 87 C10.333333333 84.666666667 12.666666667 82.333333333 15 80 C16.221676503 67.300246585 14.126349791 57.291803797 8.467285156 45.843994141 C1.811202353 32.278588471 -2.630783837 17.236180422 -1 2 C-0.67 1.34 -0.34 0.68 0 0 Z " fill="#EAE6D8" transform="translate(85,88)" />
<path d="M0 0 C7.48015173 9.350189662 9.839139386 20.175763195 9 32 C5.794471154 56.205528846 5.794471154 56.205528846 -1 63 C-1.99 63 -2.98 63 -4 63 C-4.66 60.36 -5.32 57.72 -6 55 C-5.976796875 56.157578125 -5.95359375 57.31515625 -5.9296875 58.5078125 C-5.910918524 60.046868512 -5.892719538 61.585931548 -5.875 63.125 C-5.849863281 64.265820313 -5.849863281 64.265820313 -5.82421875 65.4296875 C-5.784179785 70.07420742 -6.370681385 73.595748119 -8 78 C-8.083071355 79.373120629 -8.130569311 80.749380106 -8.125 82.125 C-9 86 -9 86 -10.69921875 87.3984375 C-14.426923123 89.341529243 -16.711458309 90 -21 90 C-23.061844018 82.525815434 -24.023953296 77.335363023 -20.4375 70.125 C-19.889648438 68.998359375 -19.341796875 67.87171875 -18.77734375 66.7109375 C-18.340109863 65.813266602 -18.340109863 65.813266602 -17.894042969 64.897460938 C-16.642392074 62.241035282 -15.515659827 59.536785056 -14.377929688 56.830078125 C-11.187206994 49.270301331 -7.886781859 41.886781859 -2 36 C-1.34 40.95 -0.68 45.9 0 51 C0 34.17 0 17.34 0 0 Z " fill="#EAE7DD" transform="translate(156,88)" />
<path d="M0 0 C0 0.66 0 1.32 0 2 C0.533671875 2.135351562 1.06734375 2.270703125 1.6171875 2.41015625 C8.38541631 4.365682567 13.477517039 7.686466899 19 12 C19.969375 12.7425 20.93875 13.485 21.9375 14.25 C29.310444158 24.080592211 28.207228051 39.303127783 28 51 C25.611393359 47.417090038 25.679449908 44.705522993 25.5625 40.5625 C25.153428946 31.586341367 24.256209523 22.562891399 19 15 C17.230455364 13.395915307 17.230455364 13.395915307 15.3125 12.1875 C13.6728125 11.1046875 13.6728125 11.1046875 12 10 C11.796972656 10.935859375 11.796972656 10.935859375 11.58984375 11.890625 C10.892298503 14.38515767 10.005500879 15.395599297 8 17 C7.34 17 6.68 17 6 17 C5.505 14.525 5.505 14.525 5 12 C3.02 12.66 1.04 13.32 -1 14 C-0.34 14.33 0.32 14.66 1 15 C1.12375 15.804375 1.2475 16.60875 1.375 17.4375 C1.725671643 20.159833988 1.725671643 20.159833988 4.0625 21.3125 C4.701875 21.539375 5.34125 21.76625 6 22 C5.34 22.99 4.68 23.98 4 25 C2.68 25 1.36 25 0 25 C0 25.66 0 26.32 0 27 C-0.66 27 -1.32 27 -2 27 C-3.223606798 29.074535599 -3.223606798 29.074535599 -3 32 C-1.562498093 33.687988266 -1.562498093 33.687988266 0 35 C-0.66 35 -1.32 35 -2 35 C-2 36.32 -2 37.64 -2 39 C-2.99 39.33 -3.98 39.66 -5 40 C-5.733237961 42.015083582 -5.733237961 42.015083582 -6 44 C-9.465 44.495 -9.465 44.495 -13 45 C-11.68 44.34 -10.36 43.68 -9 43 C-9.347867083 41.024632551 -9.347867083 41.024632551 -10 39 C-10.99 38.505 -10.99 38.505 -12 38 C-12 37.01 -12 36.02 -12 35 C-12.66 34.67 -13.32 34.34 -14 34 C-12.68 34 -11.36 34 -10 34 C-10.495 33.071875 -10.99 32.14375 -11.5 31.1875 C-13 28 -13 28 -13 25 C-14.98 25.33 -16.96 25.66 -19 26 C-19.495 23.525 -19.495 23.525 -20 21 C-15.590852169 19.897713042 -11.516175988 19.923454644 -7 20 C-6.67 19.34 -6.34 18.68 -6 18 C-5.67 18.33 -5.34 18.66 -5 19 C-4.67 18.34 -4.34 17.68 -4 17 C-4.5775 16.87625 -5.155 16.7525 -5.75 16.625 C-8 16 -8 16 -9.84375 15 C-12.226281212 13.895057988 -14.143032517 13.605026543 -16.75 13.375 C-17.54921875 13.300234375 -18.3484375 13.22546875 -19.171875 13.1484375 C-19.77515625 13.099453125 -20.3784375 13.05046875 -21 13 C-21 14.65 -21 16.3 -21 18 C-21.66 18.33 -22.32 18.66 -23 19 C-25.64 17.02 -28.28 15.04 -31 13 C-31.66 14.32 -32.32 15.64 -33 17 C-33.943324733 18.385339751 -34.90274288 19.759809951 -35.875 21.125 C-39.058864045 25.814956596 -41.110239857 30.675322893 -43 36 C-44.09698741 33.251001788 -44.048452263 32.135002072 -43.03125 29.30078125 C-38.429431621 20.320191812 -33.497687345 12.613755407 -25.546875 6.28125 C-23.827760513 4.935866334 -23.827760513 4.935866334 -22.0625 2.6875 C-16.607720474 -1.77550143 -6.667324253 -0.100009864 0 0 Z " fill="#48463B" transform="translate(128,42)" />
<path d="M0 0 C1 3 1 3 0.08203125 5.29296875 C-2.42617883 11.568021405 -1.862099387 19.543421058 0.5 25.8125 C0.995 26.864375 1.49 27.91625 2 29 C2.33 25.7 2.66 22.4 3 19 C3.33 19 3.66 19 4 19 C4.146953125 20.16015625 4.146953125 20.16015625 4.296875 21.34375 C5.47320245 29.537479132 6.526999421 36.094019923 13.0625 41.5625 C17.758188157 43.864507643 23.058825066 43.313974863 28 42 C33.022044115 38.447540223 34.314001723 30.37376202 35.4765625 24.65625 C35.698329847 23.110214781 35.858595869 21.555445443 36 20 C36.33 20 36.66 20 37 20 C37.71039898 29.274653347 35.131895049 35.847882741 31 44 C39.226262216 40.39002862 44.021466029 37.22230354 48 29 C48.66 28.195625 49.32 27.39125 50 26.5625 C51.937000091 24.080718634 52.985704394 21.958362184 54 19 C56.45262374 22.678935609 57.125619727 25.153757343 57.113525391 29.471435547 C57.11344986 30.372142792 57.113374329 31.272850037 57.113296509 32.20085144 C57.108135223 33.169687653 57.102973938 34.138523865 57.09765625 35.13671875 C57.096241302 36.131295929 57.094826355 37.125873108 57.09336853 38.150588989 C57.087767605 41.329589823 57.075214959 44.508520425 57.0625 47.6875 C57.057485119 49.841795858 57.052922192 51.99609282 57.048828125 54.150390625 C57.037797881 59.433617744 57.021058864 64.716803854 57 70 C54.278933056 67.278933056 54.393444279 65.152236892 53.875 61.375 C53.623632813 59.592226563 53.623632813 59.592226563 53.3671875 57.7734375 C53.246015625 56.858203125 53.12484375 55.94296875 53 55 C52.01 56.65 51.02 58.3 50 60 C48.271241847 56.542483694 50.386091357 52.807053954 51.4375 49.25 C53.788980172 40.926029294 54.63702496 33.677695572 54 25 C53.575898438 25.724453125 53.151796875 26.44890625 52.71484375 27.1953125 C47.33915194 36.056342956 47.33915194 36.056342956 43.4375 39 C39.485513184 42.038638752 37.834921428 45.844810125 35.62109375 50.23046875 C33.106989517 54.525649235 29.70219042 57.720648587 26 61 C26 57.261351578 26.859628908 56.763572941 29.375 54.125 C32.027037806 51.221152544 33.914786396 48.858537258 35 45 C28.737769793 47.699237158 25.057889816 50.527997067 21 56 C20.34 55.67 19.68 55.34 19 55 C21.64 51.7 24.28 48.4 27 45 C25.741875 45.28875 24.48375 45.5775 23.1875 45.875 C17.70237557 46.466106912 13.986439465 44.725294538 9.31640625 41.96484375 C6.161405277 39.28867935 5.351248523 36.86112008 4.66015625 32.85546875 C4.442304687 32.243164062 4.224453125 31.630859375 4 31 C2.042303497 30.372551327 2.042303497 30.372551327 0 30 C-3.760104116 24.011686037 -4.942583798 17.002051069 -4 10 C-2.876376529 6.565343103 -1.506873593 3.282831757 0 0 Z " fill="#39362B" transform="translate(100,71)" />
<path d="M0 0 C2.429578429 3.644367643 2.26845889 5.479275481 2.25 9.8125 C2.25515625 11.015195312 2.2603125 12.217890625 2.265625 13.45703125 C2.001431762 16.980902818 1.170180035 19.68756124 0 23 C-0.083071355 24.373120629 -0.130569311 25.749380106 -0.125 27.125 C-1 31 -1 31 -2.69921875 32.3984375 C-6.426923123 34.341529243 -8.711458309 35 -13 35 C-15.175984455 27.112056351 -15.879228621 22.044752732 -12.125 14.4375 C-10.28330672 10.660694215 -8.505483715 6.924489101 -7 3 C-6.01 3.33 -5.02 3.66 -4 4 C-2.68 2.68 -1.36 1.36 0 0 Z " fill="#EBE6DA" transform="translate(148,143)" />
<path d="M0 0 C4.565484293 1.931551047 8.764223031 4.837390305 11.25 9.1875 C11.4975 10.115625 11.745 11.04375 12 12 C12.183046875 12.663867188 12.36609375 13.327734375 12.5546875 14.01171875 C14.394554429 21.635824861 14.186937969 29.210917946 14 37 C13.34 36.34 12.68 35.68 12 35 C8.88214887 35.646446609 8.88214887 35.646446609 8 38 C6.515 38.495 6.515 38.495 5 39 C4.90203125 38.238164063 4.8040625 37.476328125 4.703125 36.69140625 C3.952818856 31.510412959 3.221523269 27.025805611 0.75 22.375 C-1.764538986 17.336677399 -0.607783764 13.203570426 1 8 C-0.65 8 -2.3 8 -4 8 C-2.666666667 5.333333333 -1.333333333 2.666666667 0 0 Z " fill="#EBE6D9" transform="translate(140,52)" />
<path d="M0 0 C1.333333333 0.666666667 2.666666667 1.333333333 4 2 C4.12375 2.804375 4.2475 3.60875 4.375 4.4375 C4.725671643 7.159833988 4.725671643 7.159833988 7.0625 8.3125 C7.701875 8.539375 8.34125 8.76625 9 9 C8.01 10.485 8.01 10.485 7 12 C5.68 12 4.36 12 3 12 C3 12.66 3 13.32 3 14 C2.34 14 1.68 14 1 14 C-0.223606798 16.074535599 -0.223606798 16.074535599 0 19 C1.437501907 20.687988266 1.437501907 20.687988266 3 22 C2.34 22 1.68 22 1 22 C1 23.32 1 24.64 1 26 C0.01 26.33 -0.98 26.66 -2 27 C-2.733237961 29.015083582 -2.733237961 29.015083582 -3 31 C-5.31 31.33 -7.62 31.66 -10 32 C-8.68 31.34 -7.36 30.68 -6 30 C-6.347867083 28.024632551 -6.347867083 28.024632551 -7 26 C-7.66 25.67 -8.32 25.34 -9 25 C-9 24.01 -9 23.02 -9 22 C-9.66 21.67 -10.32 21.34 -11 21 C-9.68 21 -8.36 21 -7 21 C-7.495 20.071875 -7.99 19.14375 -8.5 18.1875 C-10 15 -10 15 -10 12 C-11.98 12.33 -13.96 12.66 -16 13 C-16.33 11.35 -16.66 9.7 -17 8 C-12.590852169 6.897713042 -8.516175988 6.923454644 -4 7 C-3.67 6.34 -3.34 5.68 -3 5 C-2.67 5.33 -2.34 5.66 -2 6 C-1.67 5.34 -1.34 4.68 -1 4 C-1.99 3.67 -2.98 3.34 -4 3 C-2.68 2.01 -1.36 1.02 0 0 Z " fill="#A19D92" transform="translate(125,55)" />
<path d="M0 0 C0 0.66 0 1.32 0 2 C-10.180990759 6.454183457 -21.421902205 7.62913597 -32.0625 3.9375 C-32.701875 3.628125 -33.34125 3.31875 -34 3 C-32.391761016 -0.587610041 -30.829375222 -3.280004933 -27.0546875 -4.765625 C-16.596369268 -7.089695718 -9.455829853 -4.789775496 0 0 Z " fill="#E4E1D5" transform="translate(137,49)" />
<path d="M0 0 C5.467803186 5.467803186 7.565685504 14.471882073 8 22 C10.31 20.68 12.62 19.36 15 18 C16.556855612 24.826213067 16.556855612 24.826213067 15.05859375 27.984375 C13.786030778 29.762164465 12.481355409 31.392485201 11 33 C10.48953125 33.560742187 9.9790625 34.121484375 9.453125 34.69921875 C8 36 8 36 6 36 C4.515 36.495 4.515 36.495 3 37 C3 36.34 3 35.68 3 35 C2.01 35 1.02 35 0 35 C0.0721875 34.46375 0.144375 33.9275 0.21875 33.375 C1.527544827 22.322954792 1.574658208 11.022607457 0 0 Z " fill="#E1DDD1" transform="translate(138,68)" />
<path d="M0 0 C0.33 0 0.66 0 1 0 C1.66 4.95 2.32 9.9 3 15 C3.66 12.36 4.32 9.72 5 7 C5.66 7.33 6.32 7.66 7 8 C7.33 7.34 7.66 6.68 8 6 C8.66 6 9.32 6 10 6 C6.88 22.12 6.88 22.12 2 27 C1.01 27 0.02 27 -1 27 C-1.66 24.36 -2.32 21.72 -3 19 C-5.495524842 19.781300713 -5.495524842 19.781300713 -8 21 C-8.33 21.99 -8.66 22.98 -9 24 C-9.66 23.34 -10.32 22.68 -11 22 C-10.66509512 18.099343167 -9.253511318 15.399235658 -7.1875 12.125 C-6.652539063 11.26390625 -6.117578125 10.4028125 -5.56640625 9.515625 C-5.049492187 8.68546875 -4.532578125 7.8553125 -4 7 C-2.645491982 4.677986255 -1.322782052 2.340306707 0 0 Z " fill="#E0DDD2" transform="translate(153,124)" />
<path d="M0 0 C0.050112305 0.559855957 0.100224609 1.119711914 0.151855469 1.696533203 C0.384135868 4.236079563 0.629417852 6.774206907 0.875 9.3125 C0.953632812 10.193574219 1.032265625 11.074648438 1.11328125 11.982421875 C1.197070312 12.829980469 1.280859375 13.677539062 1.3671875 14.55078125 C1.477160645 15.721209717 1.477160645 15.721209717 1.589355469 16.915283203 C1.919702115 19.294942327 1.919702115 19.294942327 4 22 C6.425214943 22.581892656 6.425214943 22.581892656 9.125 22.6875 C10.490117188 22.786113281 10.490117188 22.786113281 11.8828125 22.88671875 C12.581484375 22.924101562 13.28015625 22.961484375 14 23 C13.67 24.65 13.34 26.3 13 28 C5.186884071 29.412829242 5.186884071 29.412829242 1.125 28 C-1.68676108 25.353636631 -2.862208593 22.601842737 -4 19 C-4.241054687 18.29359375 -4.482109375 17.5871875 -4.73046875 16.859375 C-6.416766351 11.013543318 -5.853542187 6.416893643 -3 1 C-1 0 -1 0 0 0 Z " fill="#7A7870" transform="translate(166,133)" />
<path d="M0 0 C0 3.656310582 -1.078845501 6.046637071 -2.4375 9.4375 C-6.882148486 20.56811544 -6.810903305 29.90050934 -4.046875 41.6015625 C-2.76952324 44.528032577 -1.903213519 44.853575649 1 46 C2.33397246 46.928211454 3.646344759 47.888097182 4.9375 48.875 C5.627148437 49.4009375 6.316796875 49.926875 7.02734375 50.46875 C9.37144461 52.288329281 11.696920603 54.12874799 14 56 C8.514186254 55.657136641 5.110819921 52.285320586 1 49 C0.071875 48.360625 -0.85625 47.72125 -1.8125 47.0625 C-4.091221391 44.91399126 -5.089277653 43.035120065 -6.1796875 40.12109375 C-7.541604661 36.599565091 -9.266276354 33.23918812 -10.9140625 29.84375 C-12 27 -12 27 -13 20 C-13.33 25.28 -13.66 30.56 -14 36 C-14.33 36 -14.66 36 -15 36 C-17.240861352 13.431324954 -17.240861352 13.431324954 -14 8 C-14 10.64 -14 13.28 -14 16 C-13.01 15.01 -12.02 14.02 -11 13 C-10.34 18.28 -9.68 23.56 -9 29 C-8.773125 26.7725 -8.54625 24.545 -8.3125 22.25 C-7.386806708 14.519485257 -5.673875557 5.673875557 0 0 Z " fill="#312E23" transform="translate(98,70)" />
<path d="M0 0 C0.33 0.99 0.66 1.98 1 3 C0.03125 4.76171875 0.03125 4.76171875 -1.5 6.6875 C-2.05171875 7.38875 -2.6034375 8.09 -3.171875 8.8125 C-4.985501213 10.982651024 -6.856396223 13.087031945 -8.75 15.1875 C-11.23942564 17.973678366 -12.969770521 20.336961853 -14 24 C-14.66 24 -15.32 24 -16 24 C-17.099901895 20.527022097 -17.509388653 17.623387212 -17 14 C-12.84168387 7.465503224 -7.542585529 2.131600258 0 0 Z " fill="#E1DED2" transform="translate(135,115)" />
<path d="M0 0 C7.75457967 9.693224588 9.215128196 19.905014755 9 32 C8.01 32 7.02 32 6 32 C6 29.03 6 26.06 6 23 C5.01 23.33 4.02 23.66 3 24 C2.67 23.34 2.34 22.68 2 22 C1.34 22.33 0.68 22.66 0 23 C0 15.41 0 7.82 0 0 Z " fill="#E3DDD1" transform="translate(156,88)" />
<path d="M0 0 C12.729014567 19.093521851 13.235947345 37.012893488 10 59 C9.34 58.01 8.68 57.02 8 56 C7.734453125 56.710273438 7.46890625 57.420546875 7.1953125 58.15234375 C6.842109375 59.071445313 6.48890625 59.990546875 6.125 60.9375 C5.776953125 61.854023437 5.42890625 62.770546875 5.0703125 63.71484375 C4 66 4 66 2 67 C2.181757812 66.405742187 2.363515625 65.811484375 2.55078125 65.19921875 C10.65936128 38.60064265 10.65936128 38.60064265 4.46484375 12.125 C3.419063029 10.463617861 2.336863101 8.824155842 1.20703125 7.21875 C-0.207420989 4.618721288 -0.231051721 2.916386166 0 0 Z " fill="#2E2B22" transform="translate(155,82)" />
<path d="M0 0 C0.680625 0.309375 1.36125 0.61875 2.0625 0.9375 C6.075737175 2.389096425 9.777003479 2.165607707 14 2 C12.664139463 4.881642015 11.163626693 7.252767085 9.125 9.6875 C8.632578125 10.289492188 8.14015625 10.891484375 7.6328125 11.51171875 C5.717796193 13.257224044 4.57623788 13.779466018 2 14 C-1.25 12.0625 -1.25 12.0625 -4 10 C-2.848266448 7.531999531 -1.952164345 5.952164345 0 4 C-0.66 4 -1.32 4 -2 4 C-2 3.01 -2 2.02 -2 1 C-1.34 0.67 -0.68 0.34 0 0 Z " fill="#DDD9CD" transform="translate(113,114)" />
<path d="M0 0 C0.78375 0.04125 1.5675 0.0825 2.375 0.125 C2.705 1.775 3.035 3.425 3.375 5.125 C4.695 5.455 6.015 5.785 7.375 6.125 C7.705 5.465 8.035 4.805 8.375 4.125 C8.375 4.785 8.375 5.445 8.375 6.125 C9.035 6.125 9.695 6.125 10.375 6.125 C9.759615385 12.648076923 9.759615385 12.648076923 7.8125 15.0625 C7.338125 15.413125 6.86375 15.76375 6.375 16.125 C3.9 15.135 3.9 15.135 1.375 14.125 C1.705 12.805 2.035 11.485 2.375 10.125 C0.395 9.465 -1.585 8.805 -3.625 8.125 C-3.41875 7.50625 -3.2125 6.8875 -3 6.25 C-2.87625 5.54875 -2.7525 4.8475 -2.625 4.125 C-3.285 3.465 -3.945 2.805 -4.625 2.125 C-2.625 0.125 -2.625 0.125 0 0 Z " fill="#E1DED1" transform="translate(130.625,53.875)" />
<path d="M0 0 C4.97305801 4.97305801 6.315084019 11.062334709 6.5625 17.9375 C6.395645591 24.618930895 4.596796898 29.424964808 1 35 C0.67 35 0.34 35 0 35 C0.0721875 34.46375 0.144375 33.9275 0.21875 33.375 C1.527544827 22.322954792 1.574658208 11.022607457 0 0 Z " fill="#555248" transform="translate(138,68)" />
</svg>