<?xml version='1.0' encoding='utf-8'?>
<svg xmlns="http://www.w3.org/2000/svg" version="1.1" width="162" height="241" viewBox="34.0 17.0 162.667302356 241.815737507">
<path d="M0 0 C0.66 0 1.32 0 2 0 C2.146953125 1.320644531 2.146953125 1.320644531 2.296875 2.66796875 C2.44640625 3.829414062 2.5959375 4.990859375 2.75 6.1875 C2.88921875 7.336054688 3.0284375 8.484609375 3.171875 9.66796875 C4.114256119 13.459719194 5.23752971 15.261635035 8 18 C14.987123878 21.952198109 22.13165931 22.547892195 30 22 C29.175 21.154375 28.35 20.30875 27.5 19.4375 C25.390508668 16.884536058 25.000659576 16.004534582 24.5 12.5625 C25.070452763 8.498024061 26.202358607 5.670184511 28 2 C28.33 2 28.66 2 29 2 C29.495 8.435 29.495 8.435 30 15 C31.98 15.66 33.96 16.32 36 17 C36.99 17.99 36.99 17.99 38 19 C34.041791413 18.43454163 31.334094698 17.190976516 28 15 C30.577848464 17.647520044 32.916480977 19.944320651 36 22 C35.67 25.96 35.34 29.92 35 34 C37.97 34 40.94 34 44 34 C43.855625 32.5975 43.71125 31.195 43.5625 29.75 C43.481289062 28.96109375 43.400078125 28.1721875 43.31640625 27.359375 C43.02365007 25.176353608 42.579355813 23.122681803 42 21 C42.66 21 43.32 21 44 21 C44 14.4 44 7.8 44 1 C46.94503125 3.94503125 47.890548666 5.158642258 48.1328125 9.234375 C48.117200931 14.261300331 47.82860295 19.028382302 47 24 C46.829239013 25.437019385 46.662641901 26.874539069 46.5 28.3125 C46 32 46 32 45 34 C45.66 34 46.32 34 47 34 C47 32.35 47 30.7 47 29 C47.2475 29.53625 47.495 30.0725 47.75 30.625 C49.29696975 33.564242525 51.130143688 36.257544075 53 39 C48.125 37.125 48.125 37.125 47 36 C45.502618757 35.902094303 44.000571078 35.870251357 42.5 35.875 C41.27796875 35.871132813 41.27796875 35.871132813 40.03125 35.8671875 C38.004696227 35.775482198 38.004696227 35.775482198 37 37 C41.396901224 40.324451095 41.396901224 40.324451095 46.1875 43 C48.818805849 44.451754951 50.23899686 46.610067167 52 49 C52.66 48.67 53.32 48.34 54 48 C54.99 50.97 54.99 50.97 56 54 C56.66 54 57.32 54 58 54 C59.667302356 56.549991838 60.009526018 57.850759047 59.8125 60.9375 C58.69539827 65.148114213 57.611537326 68.05993656 53.75 70.3125 C48.615503617 71.596124096 44.630540765 71.553383529 40 69 C39.887851563 70.202695312 39.775703125 71.405390625 39.66015625 72.64453125 C38.315898652 84.860852332 35.385594686 95.931231702 31.224853516 107.495361328 C26.372433127 121.069339485 23.973182788 133.380958507 30 147 C30.717950548 148.145718993 31.465916014 149.273484089 32.25 150.375 C32.8275 151.24125 33.405 152.1075 34 153 C33.67 153.99 33.34 154.98 33 156 C28.123179796 157.625606735 23.772789302 157.809316855 19.125 155.6875 C17 154 17 154 15 151 C14.566875 152.134375 14.13375 153.26875 13.6875 154.4375 C13.130625 155.613125 12.57375 156.78875 12 158 C8.077035674 159.307654775 5.139975675 159.197141699 1 159 C0.01 158.01 0.01 158.01 -1 157 C-0.9765625 154.1796875 -0.9765625 154.1796875 -0.625 150.875 C-0.514140625 149.779296875 -0.40328125 148.68359375 -0.2890625 147.5546875 C-0.145976562 146.290117188 -0.145976562 146.290117188 0 145 C-0.66 145.33 -1.32 145.66 -2 146 C-4.05859375 146.2734375 -4.05859375 146.2734375 -6.4375 146.375 C-7.219960937 146.423984375 -8.002421875 146.47296875 -8.80859375 146.5234375 C-11 146 -11 146 -12.71875 144.16015625 C-14.591364032 139.541422251 -14.753811653 135.004762899 -15.0625 130.0625 C-15.465835886 124.012461713 -15.949028123 118.746182811 -18 113 C-18.098457791 108.003267088 -17.010875236 103.557983869 -15 99 C-15 98.01 -15 97.02 -15 96 C-15.99 95.34 -16.98 94.68 -18 94 C-18.99 96.64 -19.98 99.28 -21 102 C-21.33 102 -21.66 102 -22 102 C-21.95359375 101.20078125 -21.9071875 100.4015625 -21.859375 99.578125 C-21.620093455 92.297129415 -22.419419367 86.614464076 -24.984375 79.8046875 C-25.941631112 77.161187929 -26.579565935 74.628562295 -27.125 71.875 C-27.635661032 68.00834364 -27.635661032 68.00834364 -30 66 C-30.125 63.375 -30.125 63.375 -30 61 C-28.68 61.33 -27.36 61.66 -26 62 C-26 62.66 -26 63.32 -26 64 C-24.35 63.34 -22.7 62.68 -21 62 C-21 62.99 -21 63.98 -21 65 C-20.01 64.67 -19.02 64.34 -18 64 C-18 63.01 -18 62.02 -18 61 C-15.981770833 61.29296875 -13.963541667 61.5859375 -11.9453125 61.87890625 C-9.918593333 62.168429699 -9.918593333 62.168429699 -8 61 C-7.01 61.495 -7.01 61.495 -6 62 C-5.67 60.68 -5.34 59.36 -5 58 C-4.67 58 -4.34 58 -4 58 C-3.962617188 57.287148438 -3.925234375 56.574296875 -3.88671875 55.83984375 C-3.479049182 49.900657695 -2.71337774 45.308782534 0 40 C-2.336830545 39.602241609 -4.647762669 39.278268372 -7 39 C-8.030605469 38.8453125 -8.030605469 38.8453125 -9.08203125 38.6875 C-16.454727913 38.04986137 -21.370810286 41.550842291 -27 46 C-32.901569849 51.32848352 -37.051231732 58.395388323 -37.5625 66.4375 C-37.310723315 73.099091447 -35.098164795 79.486723973 -33.19140625 85.828125 C-31.7073321 90.854408145 -30.85797556 95.685460146 -30.875 100.9375 C-30.871132813 102.126660156 -30.871132813 102.126660156 -30.8671875 103.33984375 C-31 106 -31 106 -31.5625 109.37109375 C-32.026378817 113.218802863 -31.72726305 116.305167232 -31.125 120.125 C-30.099379027 127.075661056 -29.449176365 133.990484626 -29 141 C-27.68 141.33 -26.36 141.66 -25 142 C-25 141.34 -25 140.68 -25 140 C-23.68 140.33 -22.36 140.66 -21 141 C-21.277148438 140.457304687 -21.554296875 139.914609375 -21.83984375 139.35546875 C-22.202070312 138.640039062 -22.564296875 137.924609375 -22.9375 137.1875 C-23.476972656 136.125957031 -23.476972656 136.125957031 -24.02734375 135.04296875 C-26.406875736 130.044995944 -26.183643342 125.54746103 -26.1875 120.125 C-26.199746094 119.226523438 -26.211992188 118.328046875 -26.224609375 117.40234375 C-26.234729759 112.834677295 -26.190707692 109.13896552 -24 105 C-23.67 105 -23.34 105 -23 105 C-22.826014492 118.590201324 -22.826014492 118.590201324 -23.8125 123.625 C-24.546967035 128.766269244 -22.293506181 132.833313939 -20.12890625 137.3984375 C-19 140 -19 140 -19 143 C-20.791339777 143.053919926 -22.583138995 143.092755715 -24.375 143.125 C-25.372734375 143.148203125 -26.37046875 143.17140625 -27.3984375 143.1953125 C-30 143 -30 143 -32 141 C-32.410644531 138.513183594 -32.410644531 138.513183594 -32.6328125 135.3984375 C-32.716601563 134.267929687 -32.800390625 133.137421875 -32.88671875 131.97265625 C-32.965351563 130.785429687 -33.043984375 129.598203125 -33.125 128.375 C-33.211367188 127.210976562 -33.297734375 126.046953125 -33.38671875 124.84765625 C-34.037114458 115.731792601 -34.17653722 107.076144271 -33 98 C-33.120043945 98.56807373 -33.240087891 99.136147461 -33.363769531 99.721435547 C-39.602267765 128.751286451 -39.602267765 128.751286451 -46.51171875 133.85546875 C-49.495187668 135.22777078 -50.917921881 134.968653123 -54 134 C-54.3125 131.25 -54.3125 131.25 -54 128 C-51.625 125.625 -51.625 125.625 -49 124 C-48.34 124 -47.68 124 -47 124 C-45.933194624 121.012944948 -44.947676975 118.026195381 -44 115 C-43.651953125 113.9171875 -43.30390625 112.834375 -42.9453125 111.71875 C-39.026133059 98.101746979 -38.507569191 83.789622267 -39.16015625 69.671875 C-39.520280846 61.287435682 -38.234458593 55.707938078 -33 49 C-29.854726289 45.740982114 -26.548675792 42.810832311 -23 40 C-22.391240234 39.473256836 -21.782480469 38.946513672 -21.155273438 38.403808594 C-18.587500891 36.73132421 -17.186532685 36.643594101 -14.1484375 36.6640625 C-12.753953857 36.649439697 -12.753953857 36.649439697 -11.331298828 36.634521484 C-10.355720215 36.631379395 -9.380141602 36.628237305 -8.375 36.625 C-0.990639619 36.472021537 4.938006672 36.220563349 11.29296875 32.05859375 C13 31 13 31 16 31 C13.310037149 28.065495071 10.969514561 25.857352485 7.4375 24 C3.399082779 21.650375435 1.080612135 19.161224271 -1 15 C-1.096728318 13.022759388 -1.129799029 11.042099398 -1.125 9.0625 C-1.128867187 7.471152344 -1.128867187 7.471152344 -1.1328125 5.84765625 C-1 3 -1 3 0 0 Z " fill="#E9E5D7" transform="translate(127,27)" />
<path d="M0 0 C0.66 0 1.32 0 2 0 C2.146953125 1.320644531 2.146953125 1.320644531 2.296875 2.66796875 C2.44640625 3.829414062 2.5959375 4.990859375 2.75 6.1875 C2.88921875 7.336054688 3.0284375 8.484609375 3.171875 9.66796875 C4.114256119 13.459719194 5.23752971 15.261635035 8 18 C14.987123878 21.952198109 22.13165931 22.547892195 30 22 C29.175 21.154375 28.35 20.30875 27.5 19.4375 C25.390508668 16.884536058 25.000659576 16.004534582 24.5 12.5625 C25.070452763 8.498024061 26.202358607 5.670184511 28 2 C28.33 2 28.66 2 29 2 C29.495 8.435 29.495 8.435 30 15 C31.98 15.66 33.96 16.32 36 17 C36.99 17.99 36.99 17.99 38 19 C34.041791413 18.43454163 31.334094698 17.190976516 28 15 C30.577848464 17.647520044 32.916480977 19.944320651 36 22 C35.67 25.96 35.34 29.92 35 34 C37.97 34 40.94 34 44 34 C43.855625 32.5975 43.71125 31.195 43.5625 29.75 C43.481289062 28.96109375 43.400078125 28.1721875 43.31640625 27.359375 C43.02365007 25.176353608 42.579355813 23.122681803 42 21 C42.66 21 43.32 21 44 21 C44 14.4 44 7.8 44 1 C46.94503125 3.94503125 47.890548666 5.158642258 48.1328125 9.234375 C48.117200931 14.261300331 47.82860295 19.028382302 47 24 C46.829239013 25.437019385 46.662641901 26.874539069 46.5 28.3125 C46 32 46 32 45 34 C45.66 34 46.32 34 47 34 C47 32.35 47 30.7 47 29 C47.2475 29.53625 47.495 30.0725 47.75 30.625 C49.29696975 33.564242525 51.130143688 36.257544075 53 39 C48.125 37.125 48.125 37.125 47 36 C45.502618757 35.902094303 44.000571078 35.870251357 42.5 35.875 C41.27796875 35.871132813 41.27796875 35.871132813 40.03125 35.8671875 C38.004696227 35.775482198 38.004696227 35.775482198 37 37 C41.396901224 40.324451095 41.396901224 40.324451095 46.1875 43 C48.818805849 44.451754951 50.23899686 46.610067167 52 49 C52.66 48.67 53.32 48.34 54 48 C54.99 50.97 54.99 50.97 56 54 C56.66 54 57.32 54 58 54 C59.667302356 56.549991838 60.009526018 57.850759047 59.8125 60.9375 C58.69539827 65.148114213 57.611537326 68.05993656 53.75 70.3125 C48.615503617 71.596124096 44.630540765 71.553383529 40 69 C39.887851563 70.202695312 39.775703125 71.405390625 39.66015625 72.64453125 C38.315898652 84.860852332 35.385594686 95.931231702 31.224853516 107.495361328 C26.372433127 121.069339485 23.973182788 133.380958507 30 147 C30.717950548 148.145718993 31.465916014 149.273484089 32.25 150.375 C32.8275 151.24125 33.405 152.1075 34 153 C33.67 153.99 33.34 154.98 33 156 C28.472588275 157.509137242 23.935732021 157.774292809 19.5 156 C19.005 155.67 18.51 155.34 18 155 C18 153.02 18 151.04 18 149 C17.01 148.67 16.02 148.34 15 148 C15.115626059 146.603358919 15.242991999 145.20768801 15.375 143.8125 C15.479414062 142.646542969 15.479414062 142.646542969 15.5859375 141.45703125 C16 139 16 139 17.013671875 136.759765625 C18.186733303 133.477516521 18.227108025 130.868328711 18.1953125 127.38671875 C18.188867187 126.139550781 18.182421875 124.892382812 18.17578125 123.607421875 C18.159023437 122.313847656 18.142265625 121.020273438 18.125 119.6875 C18.115976563 118.374589844 18.106953125 117.061679688 18.09765625 115.708984375 C18.07411797 112.472470866 18.041235196 109.236328512 18 106 C16.02 106 14.04 106 12 106 C12.04125 107.03125 12.0825 108.0625 12.125 109.125 C12 113 12 113 11.0390625 115.859375 C8.266225458 124.240431322 8.757500724 132.81099687 10.52734375 141.34375 C10.992382093 143.957188622 11.081546288 146.352144071 11 149 C6.762480487 144.762480487 6.881130614 136.841613488 6.75 131.0625 C6.846449098 126.351332511 7.639641694 121.850988395 8.5 117.2265625 C9.220543085 112.576807904 9.39117385 107.925120993 9.55859375 103.2265625 C10.050421403 99.631432931 11.320211139 97.188446417 13 94 C12.808081931 89.585884421 11.249272216 85.845784466 9.5234375 81.83203125 C9 80 9 80 10 77 C16.021655606 90.097100943 16.021655606 90.097100943 15 96 C13.848586364 98.782171145 12.513522153 101.3986338 11 104 C17.368285926 103.051832984 21.688800669 101.942106551 26 97 C27.030430967 94.033155283 27.606807992 91.111640198 28 88 C28.66 89.32 29.32 90.64 30 92 C35.637253301 83.446926026 37.507676172 74.15352344 37 64 C36.175 64.103125 35.35 64.20625 34.5 64.3125 C29.835506823 63.896027395 26.452683343 62.165573215 23 59 C20.072033828 54.399869661 19.54210853 50.272535021 19.4375 44.9375 C19.320429058 40.267670215 19.075908615 36.276871966 17 32 C16.431523438 32.253945313 15.863046875 32.507890625 15.27734375 32.76953125 C14.505195313 33.113710938 13.733046875 33.457890625 12.9375 33.8125 C12.183398437 34.148945312 11.429296875 34.485390625 10.65234375 34.83203125 C9.777070313 35.217460938 8.901796875 35.602890625 8 36 C6.913320312 36.545273438 5.826640625 37.090546875 4.70703125 37.65234375 C0.35321255 39.235133478 -2.721604556 39.079964929 -7.25 38.75 C-16.608257929 38.416102716 -21.977637153 41.389133269 -28.859375 47.70703125 C-33.743760597 52.869488305 -37.107632485 59.282556933 -37.5625 66.4375 C-37.310723315 73.099091447 -35.098164795 79.486723973 -33.19140625 85.828125 C-31.7073321 90.854408145 -30.85797556 95.685460146 -30.875 100.9375 C-30.871132813 102.126660156 -30.871132813 102.126660156 -30.8671875 103.33984375 C-31 106 -31 106 -31.5625 109.37109375 C-32.026378817 113.218802863 -31.72726305 116.305167232 -31.125 120.125 C-30.099379027 127.075661056 -29.449176365 133.990484626 -29 141 C-27.68 141.33 -26.36 141.66 -25 142 C-25 141.34 -25 140.68 -25 140 C-23.68 140.33 -22.36 140.66 -21 141 C-21.277148438 140.457304687 -21.554296875 139.914609375 -21.83984375 139.35546875 C-22.202070312 138.640039062 -22.564296875 137.924609375 -22.9375 137.1875 C-23.476972656 136.125957031 -23.476972656 136.125957031 -24.02734375 135.04296875 C-26.406875736 130.044995944 -26.183643342 125.54746103 -26.1875 120.125 C-26.199746094 119.226523438 -26.211992188 118.328046875 -26.224609375 117.40234375 C-26.234729759 112.834677295 -26.190707692 109.13896552 -24 105 C-23.67 105 -23.34 105 -23 105 C-22.826014492 118.590201324 -22.826014492 118.590201324 -23.8125 123.625 C-24.546967035 128.766269244 -22.293506181 132.833313939 -20.12890625 137.3984375 C-19 140 -19 140 -19 143 C-20.791339777 143.053919926 -22.583138995 143.092755715 -24.375 143.125 C-25.372734375 143.148203125 -26.37046875 143.17140625 -27.3984375 143.1953125 C-30 143 -30 143 -32 141 C-32.410644531 138.513183594 -32.410644531 138.513183594 -32.6328125 135.3984375 C-32.716601563 134.267929687 -32.800390625 133.137421875 -32.88671875 131.97265625 C-32.965351563 130.785429687 -33.043984375 129.598203125 -33.125 128.375 C-33.211367188 127.210976562 -33.297734375 126.046953125 -33.38671875 124.84765625 C-34.037114458 115.731792601 -34.17653722 107.076144271 -33 98 C-33.120043945 98.56807373 -33.240087891 99.136147461 -33.363769531 99.721435547 C-39.602267765 128.751286451 -39.602267765 128.751286451 -46.51171875 133.85546875 C-49.495187668 135.22777078 -50.917921881 134.968653123 -54 134 C-54.3125 131.25 -54.3125 131.25 -54 128 C-51.625 125.625 -51.625 125.625 -49 124 C-48.34 124 -47.68 124 -47 124 C-45.933194624 121.012944948 -44.947676975 118.026195381 -44 115 C-43.651953125 113.9171875 -43.30390625 112.834375 -42.9453125 111.71875 C-39.026133059 98.101746979 -38.507569191 83.789622267 -39.16015625 69.671875 C-39.520280846 61.287435682 -38.234458593 55.707938078 -33 49 C-29.854726289 45.740982114 -26.548675792 42.810832311 -23 40 C-22.391240234 39.473256836 -21.782480469 38.946513672 -21.155273438 38.403808594 C-18.587500891 36.73132421 -17.186532685 36.643594101 -14.1484375 36.6640625 C-12.753953857 36.649439697 -12.753953857 36.649439697 -11.331298828 36.634521484 C-10.355720215 36.631379395 -9.380141602 36.628237305 -8.375 36.625 C-0.990639619 36.472021537 4.938006672 36.220563349 11.29296875 32.05859375 C13 31 13 31 16 31 C13.310037149 28.065495071 10.969514561 25.857352485 7.4375 24 C3.399082779 21.650375435 1.080612135 19.161224271 -1 15 C-1.096728318 13.022759388 -1.129799029 11.042099398 -1.125 9.0625 C-1.128867187 7.471152344 -1.128867187 7.471152344 -1.1328125 5.84765625 C-1 3 -1 3 0 0 Z " fill="#433B30" transform="translate(127,27)" />
<path d="M0 0 C0.66 0 1.32 0 2 0 C5.24078382 4.072769887 5.383438481 7.874018857 5.4375 12.875 C5.671701775 18.953944018 5.941032888 23.282822005 10 28 C13.941621413 30.570622661 17.418057711 31.254102418 22 32 C24.494136144 36.988272287 22.632582538 44.686825048 21.21484375 49.87109375 C19.259971508 55.070895624 16.818716512 58.908518023 13 63 C12.512734375 63.609726563 12.02546875 64.219453125 11.5234375 64.84765625 C8.692775828 68.382354286 6.589995766 70.967250953 2 72 C-1.3125 72.125 -1.3125 72.125 -4 72 C-3.452763165 68.625372852 -2.945100003 66.917650005 -1 64 C-0.302355082 58.302566507 -1.870625863 54.248198999 -4.125 49.13671875 C-5 47 -5 47 -5 45 C-5.66 45 -6.32 45 -7 45 C-11.53320781 31.31942643 -12.916391006 19.523179441 -7 6 C-8.791328867 7.791328867 -9.215896204 10.386157675 -10 12.75 C-10.350625 13.79671875 -10.70125 14.8434375 -11.0625 15.921875 C-11.881573549 18.611166487 -12.508449092 21.235026144 -13 24 C-13.33 24 -13.66 24 -14 24 C-14.345487136 17.666069181 -13.29342747 12.897384923 -11 7 C-11.66 7 -12.32 7 -13 7 C-13.144375 7.94875 -13.28875 8.8975 -13.4375 9.875 C-14 13 -14 13 -15 15 C-15.083421588 16.448485818 -15.107328609 17.900708692 -15.09765625 19.3515625 C-15.094433594 20.20234375 -15.091210937 21.053125 -15.087890625 21.9296875 C-15.079511719 22.819140625 -15.071132812 23.70859375 -15.0625 24.625 C-15.057988281 25.5221875 -15.053476562 26.419375 -15.048828125 27.34375 C-15.03702591 29.562566483 -15.020561554 31.781250184 -15 34 C-19.086557719 27.870163422 -18.818846236 19.620632334 -17.5625 12.53125 C-16.196740937 8.263252929 -14.912498582 6.477921133 -10.875 4.36328125 C-7.611540032 3.114435275 -4.333856385 2.041539512 -1 1 C-0.67 0.67 -0.34 0.34 0 0 Z " fill="#C7B59E" transform="translate(142,59)" />
<path d="M0 0 C0.66 0 1.32 0 2 0 C1.984289551 0.883531494 1.984289551 0.883531494 1.968261719 1.784912109 C1.926204463 4.502396458 1.900518198 7.219811958 1.875 9.9375 C1.858242187 10.863691406 1.841484375 11.789882812 1.82421875 12.744140625 C1.683366768 23.265591582 1.683366768 23.265591582 6 32.5 C7.925464401 34.0372678 7.925464401 34.0372678 10 35 C9.771835938 33.854023437 9.543671875 32.708046875 9.30859375 31.52734375 C9.017643231 29.997507153 8.727311487 28.467552784 8.4375 26.9375 C8.286035156 26.185332031 8.134570313 25.433164062 7.978515625 24.658203125 C7.067955252 19.766588099 7.020515499 15.884449198 8 11 C8.33 11 8.66 11 9 11 C9.112752686 11.838092041 9.112752686 11.838092041 9.227783203 12.693115234 C9.580451048 15.275880731 9.946402713 17.856605193 10.3125 20.4375 C10.430449219 21.315996094 10.548398437 22.194492188 10.669921875 23.099609375 C11.421672259 28.323310759 12.591493446 33.059584037 14.360107422 38.028076172 C15.165880538 40.511185466 15.40254669 42.834684517 15.5 45.4375 C15.638243192 49.118224987 16.350978756 52.100384623 17.54296875 55.5546875 C19.446585517 61.667108664 19.187731436 67.354048182 18.8125 73.6875 C18.745791016 75.320419922 18.745791016 75.320419922 18.677734375 76.986328125 C18.400049486 82.625731123 17.856547536 87.659560793 16 93 C15.67 93 15.34 93 15 93 C15.33 89.04 15.66 85.08 16 81 C15.01 81.495 15.01 81.495 14 82 C11.94140625 82.2734375 11.94140625 82.2734375 9.5625 82.375 C8.780039062 82.423984375 7.997578125 82.47296875 7.19140625 82.5234375 C5 82 5 82 3.28125 80.16015625 C1.408635968 75.541422251 1.246188347 71.004762899 0.9375 66.0625 C0.534164114 60.012461713 0.050971877 54.746182811 -2 49 C-2.098457791 44.003267088 -1.010875236 39.557983869 1 35 C1 34.01 1 33.02 1 32 C0.01 31.34 -0.98 30.68 -2 30 C-2.99 32.64 -3.98 35.28 -5 38 C-5.33 38 -5.66 38 -6 38 C-5.95359375 37.20078125 -5.9071875 36.4015625 -5.859375 35.578125 C-5.620991332 28.324450534 -6.427758781 22.724045796 -8.9765625 15.9453125 C-10.556108086 11.399597339 -11.289684821 6.747896195 -12 2 C-10 3 -10 3 -9.285644531 4.961914062 C-9.070209961 5.804638672 -8.854775391 6.647363281 -8.6328125 7.515625 C-8.386601563 8.437304688 -8.140390625 9.358984375 -7.88671875 10.30859375 C-7.383188431 12.252995442 -6.883126192 14.198298897 -6.38671875 16.14453125 C-5.018274737 21.242516978 -3.881748468 25.196829436 0 29 C0.66 29.33 1.32 29.66 2 30 C1.5359375 28.9790625 1.5359375 28.9790625 1.0625 27.9375 C-2.162333398 19.021784134 -1.366049249 9.220832429 0 0 Z " fill="#3E3B30" transform="translate(111,91)" />
<path d="M0 0 C2.94503125 2.94503125 3.890548666 4.158642258 4.1328125 8.234375 C4.117200931 13.261300331 3.82860295 18.028382302 3 23 C2.829239013 24.437019385 2.662641901 25.874539069 2.5 27.3125 C2 31 2 31 1 33 C1.66 33 2.32 33 3 33 C3 31.35 3 29.7 3 28 C3.2475 28.53625 3.495 29.0725 3.75 29.625 C5.29696975 32.564242525 7.130143688 35.257544075 9 38 C4.125 36.125 4.125 36.125 3 35 C1.502618757 34.902094303 0.000571078 34.870251357 -1.5 34.875 C-2.3146875 34.872421875 -3.129375 34.86984375 -3.96875 34.8671875 C-5.995303773 34.775482198 -5.995303773 34.775482198 -7 36 C-6.175 36.804375 -5.35 37.60875 -4.5 38.4375 C-2 41 -2 41 -2 42 C-7.529679407 42.710334311 -12.499830356 43.302671758 -18 42 C-16.35 42.33 -14.7 42.66 -13 43 C-12.67 44.65 -12.34 46.3 -12 48 C-12.66 48 -13.32 48 -14 48 C-14 47.34 -14 46.68 -14 46 C-14.66 46 -15.32 46 -16 46 C-16 46.66 -16 47.32 -16 48 C-16.99 48.495 -16.99 48.495 -18 49 C-15.69 49 -13.38 49 -11 49 C-11 47.35 -11 45.7 -11 44 C-6.05 43.505 -6.05 43.505 -1 43 C-1.573301633 46.693886659 -2.585272811 49.362011239 -4.5 52.5625 C-6.178446254 55.377800838 -7.356689897 57.776139141 -8 61 C-15.189325277 60.634441088 -15.189325277 60.634441088 -18.875 57.75 C-22.315324381 53.297815507 -23.259847563 49.783673855 -23.125 44.1875 C-23.106953125 43.211679688 -23.08890625 42.235859375 -23.0703125 41.23046875 C-23.047109375 40.494414062 -23.02390625 39.758359375 -23 39 C-20.69 38.34 -18.38 37.68 -16 37 C-18.31 37 -20.62 37 -23 37 C-23 35 -23 35 -22 34 C-22.66 33.01 -23.32 32.02 -24 31 C-24 30.34 -24 29.68 -24 29 C-24.33 28.34 -24.66 27.68 -25 27 C-22.506384291 28.20381448 -20.318569172 29.454287219 -18 31 C-18.99 29.68 -19.98 28.36 -21 27 C-19.68 26.67 -18.36 26.34 -17 26 C-18.423125 26.0928125 -18.423125 26.0928125 -19.875 26.1875 C-27.171324551 26.172700153 -34.405389425 23.662175479 -40 19 C-42.718459366 15.709233398 -43.933067307 13.903591357 -44.25 9.625 C-44.1675 8.75875 -44.085 7.8925 -44 7 C-43.7525 7.53625 -43.505 8.0725 -43.25 8.625 C-39.959454572 14.877036314 -37.27742051 18.888018041 -30.5 21.1875 C-25.063266588 22.433418073 -19.542541493 22.166276245 -14 22 C-15.368239515 19.011381519 -15.368239515 19.011381519 -17.625 16.6875 C-19.905905706 13.888206633 -19.348880586 11.488805856 -19 8 C-18.168047235 5.53761107 -17.147920497 3.343671014 -16 1 C-15.67 1 -15.34 1 -15 1 C-14.67 5.29 -14.34 9.58 -14 14 C-12.02 14.66 -10.04 15.32 -8 16 C-7.34 16.66 -6.68 17.32 -6 18 C-9.958208587 17.43454163 -12.665905302 16.190976516 -16 14 C-13.422151536 16.647520044 -11.083519023 18.944320651 -8 21 C-8.33 24.96 -8.66 28.92 -9 33 C-6.03 33 -3.06 33 0 33 C-0.144375 31.5975 -0.28875 30.195 -0.4375 28.75 C-0.518710938 27.96109375 -0.599921875 27.1721875 -0.68359375 26.359375 C-0.97634993 24.176353608 -1.420644187 22.122681803 -2 20 C-1.34 20 -0.68 20 0 20 C0 13.4 0 6.8 0 0 Z " fill="#8C8980" transform="translate(171,28)" />
<path d="M0 0 C-0.474375 1.093125 -0.94875 2.18625 -1.4375 3.3125 C-3.117546757 7.696249911 -3.433774181 11.818413616 -3.59375 16.484375 C-4.075934898 19.470212256 -4.901104885 20.842531068 -7 23 C-11.681046914 24.213604756 -14.686641239 24.222033301 -19 22 C-18.67 23.65 -18.34 25.3 -18 27 C-19.32 26.67 -20.64 26.34 -22 26 C-22 25.01 -22 24.02 -22 23 C-23.65 23.66 -25.3 24.32 -27 25 C-27 24.34 -27 23.68 -27 23 C-27.66 23 -28.32 23 -29 23 C-29.934236446 26.010317436 -30.044499108 26.866502676 -29 30 C-29.66 30 -30.32 30 -31 30 C-31 30.99 -31 31.98 -31 33 C-32.485 33.495 -32.485 33.495 -34 34 C-35.5625 32.875 -35.5625 32.875 -37 31 C-36.6875 28 -36.6875 28 -36 25 C-36 24.01 -36 23.02 -36 22 C-34.897395578 14.155032906 -32.581262563 9.571894949 -26.328125 4.66015625 C-25.55984375 4.112304688 -24.7915625 3.564453125 -24 3 C-23.39671875 2.544960937 -22.7934375 2.089921875 -22.171875 1.62109375 C-15.436802153 -2.895181734 -7.557833791 -1.099321279 0 0 Z " fill="#EDE6D9" transform="translate(128,66)" />
<path d="M0 0 C0.99 0.33 1.98 0.66 3 1 C-1.715629901 4.802927339 -1.715629901 4.802927339 -4.125 6.47265625 C-10.925204259 11.331585982 -15.33910004 17.01730012 -18 25 C-19.230916288 33.317477204 -16.551583635 40.965133458 -14.19140625 48.828125 C-12.7073321 53.854408145 -11.85797556 58.685460146 -11.875 63.9375 C-11.871132813 65.126660156 -11.871132813 65.126660156 -11.8671875 66.33984375 C-12 69 -12 69 -12.5625 72.37109375 C-13.026378817 76.218802863 -12.72726305 79.305167232 -12.125 83.125 C-11.099379027 90.075661056 -10.449176365 96.990484626 -10 104 C-8.68 104.33 -7.36 104.66 -6 105 C-6 104.34 -6 103.68 -6 103 C-4.68 103.33 -3.36 103.66 -2 104 C-2.277148438 103.457304687 -2.554296875 102.914609375 -2.83984375 102.35546875 C-3.202070312 101.640039062 -3.564296875 100.924609375 -3.9375 100.1875 C-4.297148437 99.479804688 -4.656796875 98.772109375 -5.02734375 98.04296875 C-7.406875736 93.044995944 -7.183643342 88.54746103 -7.1875 83.125 C-7.199746094 82.226523438 -7.211992188 81.328046875 -7.224609375 80.40234375 C-7.234729759 75.834677295 -7.190707692 72.13896552 -5 68 C-4.67 68 -4.34 68 -4 68 C-3.826014492 81.590201324 -3.826014492 81.590201324 -4.8125 86.625 C-5.546967035 91.766269244 -3.293506181 95.833313939 -1.12890625 100.3984375 C0 103 0 103 0 106 C-1.791339777 106.053919926 -3.583138995 106.092755715 -5.375 106.125 C-6.372734375 106.148203125 -7.37046875 106.17140625 -8.3984375 106.1953125 C-11 106 -11 106 -13 104 C-13.410644531 101.513183594 -13.410644531 101.513183594 -13.6328125 98.3984375 C-13.716601563 97.267929687 -13.800390625 96.137421875 -13.88671875 94.97265625 C-13.965351563 93.785429687 -14.043984375 92.598203125 -14.125 91.375 C-14.211367188 90.210976562 -14.297734375 89.046953125 -14.38671875 87.84765625 C-15.037114458 78.731792601 -15.17653722 70.076144271 -14 61 C-14.180065918 61.852110596 -14.180065918 61.852110596 -14.363769531 62.721435547 C-20.602267765 91.751286451 -20.602267765 91.751286451 -27.51171875 96.85546875 C-30.495187668 98.22777078 -31.917921881 97.968653123 -35 97 C-35.3125 94.25 -35.3125 94.25 -35 91 C-32.625 88.625 -32.625 88.625 -30 87 C-29.34 87 -28.68 87 -28 87 C-26.933194624 84.012944948 -25.947676975 81.026195381 -25 78 C-24.651953125 76.9171875 -24.30390625 75.834375 -23.9453125 74.71875 C-20.026133059 61.101746979 -19.507569191 46.789622267 -20.16015625 32.671875 C-20.520280846 24.287435682 -19.234458593 18.707938078 -14 12 C-10.854726289 8.740982114 -7.548675792 5.810832311 -4 3 C-3.301328125 2.401875 -2.60265625 1.80375 -1.8828125 1.1875 C-1.261484375 0.795625 -0.64015625 0.40375 0 0 Z " fill="#767369" transform="translate(108,64)" />
<path d="M0 0 C0.33 0 0.66 0 1 0 C0.442174761 6.115159188 -0.948183512 11.414346531 -3 17.1875 C-7.354316503 29.624003031 -9.034715405 41.339481345 -4 54 C-1.96300095 56.904955317 -1.96300095 56.904955317 0 59 C0 59.99 0 60.98 0 62 C-0.66 62 -1.32 62 -2 62 C-2.33 61.34 -2.66 60.68 -3 60 C-3.33 60.66 -3.66 61.32 -4 62 C-10.75 62.125 -10.75 62.125 -13 61 C-14.916446068 55.6765387 -16.379882763 50.089773434 -13.981201172 44.71875 C-12.759660171 41.334057145 -12.886018879 38.714552098 -13.05078125 35.125 C-13.088808594 33.81015625 -13.126835938 32.4953125 -13.166015625 31.140625 C-13.2341128 29.06575078 -13.312842652 26.99325775 -13.418212891 24.919921875 C-13.980353121 13.262763283 -13.980353121 13.262763283 -11.489746094 10.0546875 C-9.60546875 8.75 -9.60546875 8.75 -7.715576172 7.859375 C-5.640106615 6.996947839 -5.640106615 6.996947839 -4 4 C-3.34 4 -2.68 4 -2 4 C-1.34 2.68 -0.68 1.36 0 0 Z " fill="#E7E3D6" transform="translate(159,120)" />
<path d="M0 0 C0.66 0 1.32 0 2 0 C2.66 1.32 3.32 2.64 4 4 C3.34 4 2.68 4 2 4 C0.080196972 17.198645816 -0.277466598 28.904671523 5.00390625 41.2421875 C6 44 6 44 5 47 C4.34 45.68 3.68 44.36 3 43 C3.33 45.64 3.66 48.28 4 51 C0.611948776 48.291587794 -0.607454041 44.611004503 -2.125 40.6875 C-2.389257813 40.035878906 -2.653515625 39.384257813 -2.92578125 38.712890625 C-7.516534149 27.072885177 -6.878011627 15.726368491 -3 4 C-3.66 4 -4.32 4 -5 4 C-5.12375 4.845625 -5.2475 5.69125 -5.375 6.5625 C-6 10 -6 10 -7.0234375 13.18359375 C-8.109665427 17.428572489 -8.296706087 21.148549596 -8.25 25.5 C-8.257734375 26.220585938 -8.26546875 26.941171875 -8.2734375 27.68359375 C-8.256140583 32.466191363 -7.322976123 36.380795233 -6 41 C-6.375 43.4375 -6.375 43.4375 -7 45 C-11.53320781 31.31942643 -12.916391006 19.523179441 -7 6 C-8.791328867 7.791328867 -9.215896204 10.386157675 -10 12.75 C-10.350625 13.79671875 -10.70125 14.8434375 -11.0625 15.921875 C-11.881573549 18.611166487 -12.508449092 21.235026144 -13 24 C-13.33 24 -13.66 24 -14 24 C-14.345487136 17.666069181 -13.29342747 12.897384923 -11 7 C-11.66 7 -12.32 7 -13 7 C-13.144375 7.94875 -13.28875 8.8975 -13.4375 9.875 C-14 13 -14 13 -15 15 C-15.083421588 16.448485818 -15.107328609 17.900708692 -15.09765625 19.3515625 C-15.094433594 20.20234375 -15.091210937 21.053125 -15.087890625 21.9296875 C-15.079511719 22.819140625 -15.071132812 23.70859375 -15.0625 24.625 C-15.057988281 25.5221875 -15.053476562 26.419375 -15.048828125 27.34375 C-15.03702591 29.562566483 -15.020561554 31.781250184 -15 34 C-19.086557719 27.870163422 -18.818846236 19.620632334 -17.5625 12.53125 C-16.196740937 8.263252929 -14.912498582 6.477921133 -10.875 4.36328125 C-7.611540032 3.114435275 -4.333856385 2.041539512 -1 1 C-0.67 0.67 -0.34 0.34 0 0 Z " fill="#CFB191" transform="translate(142,59)" />
<path d="M0 0 C1.98 0 3.96 0 6 0 C6.371904167 5.664897405 6.70641692 11.33049868 7 17 C7.05671875 18.076367188 7.1134375 19.152734375 7.171875 20.26171875 C7.327687514 25.722947351 6.619537091 29.947384227 4.66796875 35.05078125 C3.853399829 37.427798159 3.758721826 39.506792198 4 42 C4.66 42.33 5.32 42.66 6 43 C6 44.65 6 46.3 6 48 C5.01 47.01 4.02 46.02 3 45 C2.3503125 46.7015625 2.3503125 46.7015625 1.6875 48.4375 C1.130625 49.613125 0.57375 50.78875 0 52 C-2.750788839 52.916929613 -4.359489127 53.108860834 -7.1875 53.0625 C-8.445625 53.041875 -9.70375 53.02125 -11 53 C-11.33 52.34 -11.66 51.68 -12 51 C-10.35 51 -8.7 51 -7 51 C-6.67 49.35 -6.34 47.7 -6 46 C-5.67 46.66 -5.34 47.32 -5 48 C-5.33 48.99 -5.66 49.98 -6 51 C-5.34 51 -4.68 51 -4 51 C-3.67 49.68 -3.34 48.36 -3 47 C-2.34 47.33 -1.68 47.66 -1 48 C-1.096115723 47.401633301 -1.192231445 46.803266602 -1.291259766 46.186767578 C-5.419223155 19.960725617 -5.419223155 19.960725617 -1 7 C-0.624685542 4.673050363 -0.280827978 2.340233151 0 0 Z " fill="#E3E0D3" transform="translate(139,133)" />
<path d="M0 0 C0.66 0 1.32 0 2 0 C1.7834375 0.982265625 1.7834375 0.982265625 1.5625 1.984375 C-2.248206617 20.7203492 2.179195375 35.487208653 11 52 C11.66 52.99 12.32 53.98 13 55 C13 53.02 13 51.04 13 49 C13.66 49.66 14.32 50.32 15 51 C15.99 50.505 15.99 50.505 17 50 C18.042075697 59.295976848 18.042075697 59.295976848 15.7578125 63.03125 C11.361565236 67.164127612 6.902312962 67.973232141 1 68 C1.547236835 64.625372852 2.054899997 62.917650005 4 60 C4.545544295 54.292767379 3.251630522 50.163261081 1.125 45 C-2.006647815 37.178372444 -4.374673696 30.129405131 -4.3125 21.625 C-4.31048584 20.878391113 -4.30847168 20.131782227 -4.306396484 19.362548828 C-4.204420652 13.756320572 -3.208328756 9.160395176 -1 4 C-0.644285053 2.672462518 -0.30471694 1.340162854 0 0 Z " fill="#F0DCC4" transform="translate(137,63)" />
<path d="M0 0 C1.65 0.99 3.3 1.98 5 3 C4.272467338 6.807185484 3.387234277 10.554855687 2.4375 14.3125 C2.168085937 15.381132812 1.898671875 16.449765625 1.62109375 17.55078125 C1.416132812 18.359023438 1.211171875 19.167265625 1 20 C0.67 20 0.34 20 0 20 C-0.33 18.35 -0.66 16.7 -1 15 C-1.99 15.33 -2.98 15.66 -4 16 C-4.33 15.34 -4.66 14.68 -5 14 C-7.341323977 23.517577143 -7.819405799 35.816039852 -2.875 44.46875 C-2 46 -2 46 -2 48 C-3.32 47.67 -4.64 47.34 -6 47 C-6 47.66 -6 48.32 -6 49 C-7.65 48.67 -9.3 48.34 -11 48 C-11.134160581 46.59766065 -11.26826203 45.195315643 -11.40234375 43.79296875 C-11.530444336 42.455284424 -11.530444336 42.455284424 -11.661132812 41.090576172 C-11.845918784 39.149507274 -12.028850889 37.20826103 -12.209960938 35.266845703 C-12.579351432 31.317901293 -12.955078419 27.375857629 -13.42578125 23.4375 C-14.099304374 17.724725553 -13.764139702 13.499964954 -12 8 C-11.34 8.66 -10.68 9.32 -10 10 C-9.4225 9.649375 -8.845 9.29875 -8.25 8.9375 C-6 8 -6 8 -2 9 C-1.34 6.03 -0.68 3.06 0 0 Z " fill="#DCD8CD" transform="translate(108,120)" />
<path d="M0 0 C0.886875 0.66 1.77375 1.32 2.6875 2 C2.6875 2.33 2.6875 2.66 2.6875 3 C-2.842179407 3.710334311 -7.812330356 4.302671758 -13.3125 3 C-11.6625 3.33 -10.0125 3.66 -8.3125 4 C-7.9825 5.65 -7.6525 7.3 -7.3125 9 C-7.9725 9 -8.6325 9 -9.3125 9 C-9.3125 8.34 -9.3125 7.68 -9.3125 7 C-9.9725 7 -10.6325 7 -11.3125 7 C-11.3125 7.66 -11.3125 8.32 -11.3125 9 C-12.3025 9.495 -12.3025 9.495 -13.3125 10 C-11.0025 10 -8.6925 10 -6.3125 10 C-6.3125 8.35 -6.3125 6.7 -6.3125 5 C-3.0125 4.67 0.2875 4.34 3.6875 4 C3.114198367 7.693886659 2.102227189 10.362011239 0.1875 13.5625 C-1.490946254 16.377800838 -2.669189897 18.776139141 -3.3125 22 C-10.501825277 21.634441088 -10.501825277 21.634441088 -14.1875 18.75 C-17.627824381 14.297815507 -18.572347563 10.783673855 -18.4375 5.1875 C-18.419453125 4.211679687 -18.40140625 3.235859375 -18.3828125 2.23046875 C-18.359609375 1.494414062 -18.33640625 0.758359375 -18.3125 0 C-16.754906568 -0.535328228 -15.19111955 -1.052653782 -13.625 -1.5625 C-12.754882812 -1.852539062 -11.884765625 -2.142578125 -10.98828125 -2.44140625 C-6.450623038 -3.388683804 -3.921601338 -2.367759298 0 0 Z " fill="#E9E4D8" transform="translate(166.3125,67)" />
<path d="M0 0 C0.736054688 0.7425 1.472109375 1.485 2.23046875 2.25 C3.873293681 3.881239423 5.535751191 5.49367649 7.23828125 7.0625 C8.265019531 8.0215625 8.265019531 8.0215625 9.3125 9 C10.009882812 9.639375 10.707265625 10.27875 11.42578125 10.9375 C13.359678764 13.471241656 13.318866826 14.886995054 13 18 C8.208624122 19.629067799 4.943674543 20.205774279 0 19 C-0.33 17.68 -0.66 16.36 -1 15 C-1.66 15 -2.32 15 -3 15 C-2.34 16.98 -1.68 18.96 -1 21 C2.96 21 6.92 21 11 21 C10.67 21.99 10.34 22.98 10 24 C5.939487688 25.353504104 2.245361229 25.536256155 -2 25 C-5.080237051 23.267366659 -6.53044989 22.145449596 -7.87109375 18.875 C-8.066937667 14.507087175 -6.104155582 11.463719168 -4.0625 7.6875 C-3.676425781 6.946933594 -3.290351563 6.206367188 -2.892578125 5.443359375 C-1.940926387 3.622297407 -0.972116042 1.810220463 0 0 Z " fill="#CCC9BE" transform="translate(172,71)" />
<path d="M0 0 C4.054665689 4.054665689 5.73097243 10.04955012 6.5 15.625 C5.858621072 19.954307761 4.183957477 23.246323086 2 27 C4.64 27 7.28 27 10 27 C10.633434574 34.872686852 11.113747103 42.72606469 11.1875 50.625 C11.201679687 51.916640625 11.215859375 53.20828125 11.23046875 54.5390625 C11.008388401 57.874031807 10.328083269 59.980685692 9 63 C8.749362675 66.66714849 8.749362675 66.66714849 9 70 C9.33 70.33 9.66 70.66 10 71 C10.040807829 72.999583637 10.042543563 75.00045254 10 77 C12.97 77.33 15.94 77.66 19 78 C19.495 76.515 19.495 76.515 20 75 C20.33 75.99 20.66 76.98 21 78 C21.66 78 22.32 78 23 78 C22.38125 76.906875 21.7625 75.81375 21.125 74.6875 C20.776953125 74.072617187 20.42890625 73.457734375 20.0703125 72.82421875 C19.105714191 71.180177107 18.057329411 69.585994117 17 68 C11.889589578 53.141954886 16.291099348 37.986806596 22 24 C23.405801108 28.441694171 22.043354189 31.724661757 20.625 36 C17.081382913 47.452259754 15.570464084 57.476545663 20 69 C21.522186698 71.481252306 23.226573779 73.684693544 25 76 C24.67 76.99 24.34 77.98 24 79 C19.472588275 80.509137242 14.935732021 80.774292809 10.5 79 C9.7575 78.505 9.7575 78.505 9 78 C9 76.02 9 74.04 9 72 C8.01 71.67 7.02 71.34 6 71 C6.115626059 69.603358919 6.242991999 68.20768801 6.375 66.8125 C6.479414063 65.646542969 6.479414063 65.646542969 6.5859375 64.45703125 C7 62 7 62 8.013671875 59.759765625 C9.186733303 56.477516521 9.227108025 53.868328711 9.1953125 50.38671875 C9.188867187 49.139550781 9.182421875 47.892382812 9.17578125 46.607421875 C9.159023437 45.313847656 9.142265625 44.020273438 9.125 42.6875 C9.115976563 41.374589844 9.106953125 40.061679688 9.09765625 38.708984375 C9.07411797 35.472470866 9.041235196 32.236328512 9 29 C7.02 29 5.04 29 3 29 C3.061875 30.546875 3.061875 30.546875 3.125 32.125 C3 36 3 36 2.0390625 38.859375 C-0.733774542 47.240431322 -0.242499276 55.81099687 1.52734375 64.34375 C1.992382093 66.957188622 2.081546288 69.352144071 2 72 C-2.237519513 67.762480487 -2.118869386 59.841613488 -2.25 54.0625 C-2.153550902 49.351332511 -1.360358306 44.850988395 -0.5 40.2265625 C0.220543085 35.576807904 0.39117385 30.925120993 0.55859375 26.2265625 C1.050421403 22.631432931 2.320211139 20.188446417 4 17 C3.809465321 12.617702382 2.275840928 8.846178711 0.62109375 4.83203125 C0 3 0 3 0 0 Z " fill="#383429" transform="translate(136,104)" />
<path d="M0 0 C1.98 0.66 3.96 1.32 6 2 C5.526079672 4.685548525 4.953029565 7.126233044 4 9.6875 C0.512546877 21.239688469 3.714378944 29.146954244 8 40 C8.33 40.99 8.66 41.98 9 43 C7.68 43 6.36 43 5 43 C5 43.66 5 44.32 5 45 C3.333880948 45.042721001 1.666171151 45.040638321 0 45 C-1.610349099 43.389650901 -1.33600732 41.527368419 -1.53515625 39.30078125 C-1.622167969 38.338496094 -1.709179687 37.376210937 -1.798828125 36.384765625 C-1.929345703 34.863994141 -1.929345703 34.863994141 -2.0625 33.3125 C-2.153378906 32.317988281 -2.244257812 31.323476562 -2.337890625 30.298828125 C-2.760887479 25.518645634 -3.122769313 20.804372439 -3 16 C-2.34 16 -1.68 16 -1 16 C-1.350625 15.443125 -1.70125 14.88625 -2.0625 14.3125 C-3.264513647 11.347533005 -2.85522695 10.064563238 -2 7 C-1.649375 5.741875 -1.29875 4.48375 -0.9375 3.1875 C-0.4734375 1.6096875 -0.4734375 1.6096875 0 0 Z " fill="#E3E0D4" transform="translate(116,126)" />
<path d="M0 0 C0.99 0.33 1.98 0.66 3 1 C2.835 2.03125 2.67 3.0625 2.5 4.125 C0.810713409 18.42090294 2.93370471 30.157211769 9.16796875 43.09765625 C10.818029345 46.870330005 11.116487801 50.146927128 11.0625 54.25 C11.053476563 55.14203125 11.044453125 56.0340625 11.03515625 56.953125 C11.023554687 57.62859375 11.011953125 58.3040625 11 59 C10.67 59 10.34 59 10 59 C9.67 56.36 9.34 53.72 9 51 C8.01 51.495 8.01 51.495 7 52 C7 53.98 7 55.96 7 58 C2.370368354 53.370368354 0.149900082 46.522651916 -0.125 40.0625 C-0.08375 39.381875 -0.0425 38.70125 0 38 C0.99 38.66 1.98 39.32 3 40 C2.6390625 39.186601563 2.278125 38.373203125 1.90625 37.53515625 C-3.103903741 25.162859929 -3.767355338 12.950283976 0 0 Z " fill="#ECD2B5" transform="translate(144,63)" />
<path d="M0 0 C0.66 0 1.32 0 2 0 C1.984289551 0.883531494 1.984289551 0.883531494 1.968261719 1.784912109 C1.926204463 4.502396458 1.900518198 7.219811958 1.875 9.9375 C1.858242187 10.863691406 1.841484375 11.789882812 1.82421875 12.744140625 C1.776229874 19.582555523 2.079670815 26.342230124 5.3125 32.5 C6.299457918 36.088937885 4.956072038 38.452786294 3.67578125 41.859375 C2.811453041 44.597247016 3.099285866 46.297857597 4 49 C4.333333333 50.666666667 4.666666667 52.333333333 5 54 C4.34 53.34 3.68 52.68 3 52 C2.67 52.99 2.34 53.98 2 55 C1.34 55 0.68 55 0 55 C-2.674810797 48.863669348 -2.221535098 43.305330266 0.0625 37.125 C0.371875 36.42375 0.68125 35.7225 1 35 C1 34.01 1 33.02 1 32 C0.01 31.34 -0.98 30.68 -2 30 C-2.99 32.64 -3.98 35.28 -5 38 C-5.33 38 -5.66 38 -6 38 C-5.95359375 37.20078125 -5.9071875 36.4015625 -5.859375 35.578125 C-5.620991332 28.324450534 -6.427758781 22.724045796 -8.9765625 15.9453125 C-10.556108086 11.399597339 -11.289684821 6.747896195 -12 2 C-10 3 -10 3 -9.285644531 4.961914062 C-9.070209961 5.804638672 -8.854775391 6.647363281 -8.6328125 7.515625 C-8.386601563 8.437304688 -8.140390625 9.358984375 -7.88671875 10.30859375 C-7.383188431 12.252995442 -6.883126192 14.198298897 -6.38671875 16.14453125 C-5.018274737 21.242516978 -3.881748468 25.196829436 0 29 C0.66 29.33 1.32 29.66 2 30 C1.5359375 28.9790625 1.5359375 28.9790625 1.0625 27.9375 C-2.162333398 19.021784134 -1.366049249 9.220832429 0 0 Z " fill="#575349" transform="translate(111,91)" />
<path d="M0 0 C0.33 0 0.66 0 1 0 C1 2.64 1 5.28 1 8 C1.66 8 2.32 8 3 8 C3.33 7.34 3.66 6.68 4 6 C4.24234375 7.096992188 4.4846875 8.193984375 4.734375 9.32421875 C5.072215295 10.778808911 5.410796246 12.233227187 5.75 13.6875 C5.907265625 14.408730469 6.06453125 15.129960937 6.2265625 15.873046875 C7.335612168 20.543852206 8.824154547 23.297070953 12 27 C12 27.99 12 28.98 12 30 C11.34 30 10.68 30 10 30 C9.67 29.34 9.34 28.68 9 28 C8.67 28.66 8.34 29.32 8 30 C1.25 30.125 1.25 30.125 -1 29 C-2.932925327 23.630762981 -4.278448729 18.153506865 -2.0625 12.6875 C-0.443522024 8.592438061 -0.32209531 4.365239068 0 0 Z " fill="#E0DCD2" transform="translate(147,152)" />
<path d="M0 0 C0.33 0 0.66 0 1 0 C1.121171875 0.857226562 1.24234375 1.714453125 1.3671875 2.59765625 C2.389143033 9.719072811 2.389143033 9.719072811 4.125 16.6875 C5.895692019 23.390834071 5.176281153 30.23638337 4 37 C-1.473410903 32.650163183 -3.410625591 22.701071504 -4.4609375 16.10546875 C-4.710154597 10.01882042 -2.870306249 5.304941013 0 0 Z " fill="#E4E1D6" transform="translate(123,131)" />
<path d="M0 0 C4.188797912 4.188797912 4.126537607 11.500579626 4.1875 17.1875 C4.163453769 20.010527515 3.905282175 22.56112146 3.43359375 25.35546875 C2.975239335 29.208123423 3.272087935 32.301050878 3.875 36.125 C4.900620973 43.075661056 5.550823635 49.990484626 6 57 C7.32 57.33 8.64 57.66 10 58 C10 57.34 10 56.68 10 56 C11.32 56.33 12.64 56.66 14 57 C13.722851562 56.457304687 13.445703125 55.914609375 13.16015625 55.35546875 C12.797929688 54.640039062 12.435703125 53.924609375 12.0625 53.1875 C11.702851563 52.479804688 11.343203125 51.772109375 10.97265625 51.04296875 C8.593124264 46.044995944 8.816356658 41.54746103 8.8125 36.125 C8.800253906 35.226523437 8.788007812 34.328046875 8.775390625 33.40234375 C8.765270241 28.834677295 8.809292308 25.13896552 11 21 C11.33 21 11.66 21 12 21 C12.173985508 34.590201324 12.173985508 34.590201324 11.1875 39.625 C10.453032965 44.766269244 12.706493819 48.833313939 14.87109375 53.3984375 C16 56 16 56 16 59 C14.208660223 59.053919926 12.416861005 59.092755715 10.625 59.125 C9.627265625 59.148203125 8.62953125 59.17140625 7.6015625 59.1953125 C5 59 5 59 3 57 C2.589355469 54.513183594 2.589355469 54.513183594 2.3671875 51.3984375 C2.283398437 50.267929687 2.199609375 49.137421875 2.11328125 47.97265625 C2.034648437 46.785429687 1.956015625 45.598203125 1.875 44.375 C1.788632812 43.210976563 1.702265625 42.046953125 1.61328125 40.84765625 C1.0677957 33.202200043 0.545822015 25.633423884 1.5 18 C1.63921875 16.8553125 1.63921875 16.8553125 1.78125 15.6875 C1.88953125 14.8521875 1.88953125 14.8521875 2 14 C1.34 14 0.68 14 0 14 C0 9.38 0 4.76 0 0 Z " fill="#38332B" transform="translate(92,111)" />
<path d="M0 0 C0.66 0.66 1.32 1.32 2 2 C2.66 1.67 3.32 1.34 4 1 C5.042075697 10.295976848 5.042075697 10.295976848 2.7578125 14.03125 C-1.638434764 18.164127612 -6.097687038 18.973232141 -12 19 C-11.452763165 15.625372852 -10.945100003 13.917650005 -9 11 C-8.548605408 8.950790604 -8.548605408 8.950790604 -8.375 6.8125 C-8.25125 5.554375 -8.1275 4.29625 -8 3 C-6.35 2.67 -4.7 2.34 -3 2 C-2.01 3.32 -1.02 4.64 0 6 C0 4.02 0 2.04 0 0 Z " fill="#ECE6D8" transform="translate(150,112)" />
<path d="M0 0 C0.66 0.33 1.32 0.66 2 1 C0.02 3.97 0.02 3.97 -2 7 C-2.33 6.01 -2.66 5.02 -3 4 C-3.66 4 -4.32 4 -5 4 C-5.12375 4.845625 -5.2475 5.69125 -5.375 6.5625 C-6 10 -6 10 -7.0234375 13.18359375 C-8.109665427 17.428572489 -8.296706087 21.148549596 -8.25 25.5 C-8.257734375 26.220585938 -8.26546875 26.941171875 -8.2734375 27.68359375 C-8.256140583 32.466191363 -7.322976123 36.380795233 -6 41 C-6.375 43.4375 -6.375 43.4375 -7 45 C-11.53320781 31.31942643 -12.916391006 19.523179441 -7 6 C-8.791328867 7.791328867 -9.215896204 10.386157675 -10 12.75 C-10.350625 13.79671875 -10.70125 14.8434375 -11.0625 15.921875 C-11.881573549 18.611166487 -12.508449092 21.235026144 -13 24 C-13.33 24 -13.66 24 -14 24 C-14.345487136 17.666069181 -13.29342747 12.897384923 -11 7 C-11.66 7 -12.32 7 -13 7 C-13.144375 7.94875 -13.28875 8.8975 -13.4375 9.875 C-14 13 -14 13 -15 15 C-15.083421588 16.448485818 -15.107328609 17.900708692 -15.09765625 19.3515625 C-15.094433594 20.20234375 -15.091210937 21.053125 -15.087890625 21.9296875 C-15.079511719 22.819140625 -15.071132812 23.70859375 -15.0625 24.625 C-15.057988281 25.5221875 -15.053476562 26.419375 -15.048828125 27.34375 C-15.03702591 29.562566483 -15.020561554 31.781250184 -15 34 C-19.086557719 27.870163422 -18.818846236 19.620632334 -17.5625 12.53125 C-16.196740937 8.263252929 -14.912498582 6.477921133 -10.875 4.36328125 C-7.611540032 3.114435275 -4.333856385 2.041539512 -1 1 C-0.67 0.67 -0.34 0.34 0 0 Z " fill="#AE9476" transform="translate(142,59)" />
<path d="M0 0 C0.66 0 1.32 0 2 0 C2.146953125 1.320644531 2.146953125 1.320644531 2.296875 2.66796875 C2.44640625 3.829414062 2.5959375 4.990859375 2.75 6.1875 C2.88921875 7.336054688 3.0284375 8.484609375 3.171875 9.66796875 C4.113396289 13.456259598 5.242772108 15.26208719 8 18 C15.396272369 22.198218039 23.666888366 22.735036196 32 23 C32 23.33 32 23.66 32 24 C12.173619937 24.771343317 12.173619937 24.771343317 6.0546875 19.2421875 C4.583314782 17.551819773 3.251629587 15.85709268 2 14 C2.566504096 16.77471394 2.881060698 17.873131412 4.875 20 C9.294152439 22.828257561 14.03570142 24.365519907 19 26 C18.825976562 26.777304687 18.651953125 27.554609375 18.47265625 28.35546875 C17.996947513 31.017078792 18.157513027 32.472539081 19 35 C18.01 34.505 18.01 34.505 17 34 C17 33.34 17 32.68 17 32 C16.431523438 32.253945313 15.863046875 32.507890625 15.27734375 32.76953125 C14.505195313 33.113710938 13.733046875 33.457890625 12.9375 33.8125 C12.183398437 34.148945312 11.429296875 34.485390625 10.65234375 34.83203125 C9.777070313 35.217460938 8.901796875 35.602890625 8 36 C6.9378125 36.5465625 5.875625 37.093125 4.78125 37.65625 C0.36609784 39.543675236 -3.743789909 39.11488859 -8.4375 38.6875 C-9.264433594 38.626269531 -10.091367187 38.565039063 -10.943359375 38.501953125 C-12.963465636 38.350153233 -14.981967135 38.177245215 -17 38 C-17 37.67 -17 37.34 -17 37 C-16.446508789 36.995891113 -15.893017578 36.991782227 -15.322753906 36.987548828 C-1.43977695 37.079790735 -1.43977695 37.079790735 11.22265625 32.05859375 C13 31 13 31 16 31 C13.310037149 28.065495071 10.969514561 25.857352485 7.4375 24 C3.399082779 21.650375435 1.080612135 19.161224271 -1 15 C-1.096728318 13.022759388 -1.129799029 11.042099398 -1.125 9.0625 C-1.127578125 8.001601562 -1.13015625 6.940703125 -1.1328125 5.84765625 C-1 3 -1 3 0 0 Z " fill="#2E281F" transform="translate(127,27)" />
<path d="M0 0 C1.333333333 0.666666667 2.666666667 1.333333333 4 2 C4.66 2.268125 5.32 2.53625 6 2.8125 C8.675463501 4.401056454 10.170057315 6.516506356 12 9 C12.66 8.67 13.32 8.34 14 8 C14.66 9.98 15.32 11.96 16 14 C16.66 14 17.32 14 18 14 C19.667302356 16.549991838 20.009526018 17.850759047 19.8125 20.9375 C18.931922268 24.256600682 18.204439184 26.354672979 16 29 C12.5625 30.4375 12.5625 30.4375 9 31 C7.68 30.34 6.36 29.68 5 29 C8.3 28.67 11.6 28.34 15 28 C15 27.34 15 26.68 15 26 C14.077675781 26.052207031 14.077675781 26.052207031 13.13671875 26.10546875 C12.328476562 26.132539063 11.520234375 26.159609375 10.6875 26.1875 C9.486738281 26.239707031 9.486738281 26.239707031 8.26171875 26.29296875 C6 26 6 26 4.25 24.625 C2.824592228 22.771969896 2.394262908 21.286724865 2 19 C2.66 19 3.32 19 4 19 C4.33 19.99 4.66 20.98 5 22 C9.629215247 23.016169201 13.344626069 22.837967308 18 22 C16.727384003 17.187703442 15.06656682 14.628585482 11.4375 11.25 C7.070996979 7.141993958 7.070996979 7.141993958 6 5 C4.68 6.32 3.36 7.64 2 9 C2 7.68 2 6.36 2 5 C-0.97 5 -3.94 5 -7 5 C-7 6.65 -7 8.3 -7 10 C-9.31 10.33 -11.62 10.66 -14 11 C-14 10.01 -14 9.02 -14 8 C-13.34 8.33 -12.68 8.66 -12 9 C-12 8.34 -12 7.68 -12 7 C-11.34 7 -10.68 7 -10 7 C-10 7.66 -10 8.32 -10 9 C-9.34 9 -8.68 9 -8 9 C-9.391959151 6.216081698 -11.155757785 6.021010026 -14 5 C-14 4.34 -14 3.68 -14 3 C-10.989682564 2.065763554 -10.133497324 1.955500892 -7 3 C-4.933812508 2.907314951 -4.933812508 2.907314951 -2.8125 2.5625 C-1.554375 2.376875 -0.29625 2.19125 1 2 C0.67 1.34 0.34 0.68 0 0 Z " fill="#4A463D" transform="translate(167,67)" />
<path d="M0 0 C4.8 3.446153846 4.8 3.446153846 5.8125 6.25 C5.874375 6.8275 5.93625 7.405 6 8 C6.66 8 7.32 8 8 8 C11.28601555 13.347353717 13.489849808 17.6231226 14 24 C14.33 24.99 14.66 25.98 15 27 C14.29296875 28.7890625 14.29296875 28.7890625 13.1875 30.625 C12.830429687 31.236015625 12.473359375 31.84703125 12.10546875 32.4765625 C11 34 11 34 9 35 C8.936835938 34.186601563 8.873671875 33.373203125 8.80859375 32.53515625 C7.912810895 24.15251459 5.84024849 17.340518738 2.388427734 9.687744141 C0.802158712 6.146510243 0 3.950009812 0 0 Z " fill="#F1E0CA" transform="translate(147,85)" />
<path d="M0 0 C0.507890625 0.3609375 1.01578125 0.721875 1.5390625 1.09375 C4.820600329 3.306022694 7.309701623 4.880525281 11.25 5.5625 C14.621967213 4.872779434 15.859207309 3.634821774 18 1 C17.67 3.31 17.34 5.62 17 8 C16.34 8 15.68 8 15 8 C15.327421875 8.56203125 15.65484375 9.1240625 15.9921875 9.703125 C17.638524193 13.455241184 17.119434526 16.939226126 17 21 C14.03 21 11.06 21 8 21 C7.071556113 16.667261862 7.071556113 13.332738138 8 9 C7.05125 8.38125 6.1025 7.7625 5.125 7.125 C2 5 2 5 0 3 C0 2.01 0 1.02 0 0 Z " fill="#B2B0A5" transform="translate(154,40)" />
<path d="M0 0 C0.33 0.66 0.66 1.32 1 2 C1.99 2 2.98 2 4 2 C4 1.34 4 0.68 4 0 C7.875 0.875 7.875 0.875 9 2 C9.214900789 3.499082238 9.370749705 5.006743207 9.5 6.515625 C9.62375 7.898144531 9.62375 7.898144531 9.75 9.30859375 C9.87375 10.764589844 9.87375 10.764589844 10 12.25 C10.164210989 14.151255361 10.33080339 16.052306833 10.5 17.953125 C10.5721875 18.800361328 10.644375 19.647597656 10.71875 20.520507812 C11.006150604 23.05422355 11.465239887 25.507795057 12 28 C8.546761261 26.571073625 6.959846151 25.179750388 5 22 C3.926745598 19.045681225 3.115503735 16.037343432 2.3125 13 C2.087558594 12.193046875 1.862617188 11.38609375 1.630859375 10.5546875 C0.616301458 6.81716715 0 3.926082973 0 0 Z " fill="#E8E4D6" transform="translate(101,93)" />
<path d="M0 0 C0.66 0 1.32 0 2 0 C2 2.64 2 5.28 2 8 C2.99 8 3.98 8 5 8 C5 7.34 5 6.68 5 6 C5.78375 5.938125 6.5675 5.87625 7.375 5.8125 C8.24125 5.544375 9.1075 5.27625 10 5 C11.374666253 2.523639882 11.374666253 2.523639882 12 0 C12.66 0 13.32 0 14 0 C15.625 2 15.625 2 17 4 C17.37125 3.525625 17.7425 3.05125 18.125 2.5625 C20.626469621 0.477941982 22.815934183 0.353785091 26 0 C26.33 0.66 26.66 1.32 27 2 C25.68 2 24.36 2 23 2 C23 3.98 23 5.96 23 8 C23.99 8 24.98 8 26 8 C25.34 6.68 24.68 5.36 24 4 C24.99 4 25.98 4 27 4 C27 5.65 27 7.3 27 9 C21.037261751 11.815737507 15.332201403 10.758224763 9 10 C9 9.34 9 8.68 9 8 C6.833333333 8.833333333 6.833333333 8.833333333 6 11 C3.03 10.505 3.03 10.505 0 10 C0 6.7 0 3.4 0 0 Z " fill="#858175" transform="translate(44,237)" />
<path d="M0 0 C0.66 0.33 1.32 0.66 2 1 C2 1.66 2 2.32 2 3 C2.99 3.33 3.98 3.66 5 4 C5.506886045 6.540464585 6.005668744 9.082088763 6.5 11.625 C6.643085938 12.337851562 6.786171875 13.050703125 6.93359375 13.78515625 C7.730494255 17.921449348 8.160340563 21.764336791 8 26 C4.487629427 25.050710656 3.237040169 24.372491694 1.25 21.25 C-1.281241636 14.668771747 -1.404939554 7.9911623 -1 1 C-0.67 0.67 -0.34 0.34 0 0 Z " fill="#DBD8CC" transform="translate(113,100)" />
<path d="M0 0 C0.33 0 0.66 0 1 0 C0.95359375 1.122773438 0.9071875 2.245546875 0.859375 3.40234375 C0.455437012 14.306709516 0.455437012 14.306709516 4.125 24.43359375 C5 26 5 26 5 28 C3.68 27.67 2.36 27.34 1 27 C1 27.66 1 28.32 1 29 C-0.65 28.67 -2.3 28.34 -4 28 C-4.71413279 19.97875848 -5.145254975 12.053581379 -5 4 C-4.01 4.33 -3.02 4.66 -2 5 C-1.34 3.35 -0.68 1.7 0 0 Z " fill="#E5E0D5" transform="translate(101,140)" />
<path d="M0 0 C1.028269308 3.136679077 0.993866746 4.831847419 -0.21484375 7.890625 C-0.488769531 8.599609375 -0.762695312 9.30859375 -1.044921875 10.0390625 C-1.339472656 10.768671875 -1.634023438 11.49828125 -1.9375 12.25 C-2.373525391 13.367617188 -2.373525391 13.367617188 -2.818359375 14.5078125 C-3.53573722 16.342418137 -4.266574388 18.171750649 -5 20 C-1.734355522 17.347262403 -0.735299206 14.196357293 0.6875 10.3125 C1.342988281 8.543261719 1.342988281 8.543261719 2.01171875 6.73828125 C2.337851562 5.834648437 2.663984375 4.931015625 3 4 C4.462797291 8.530782517 2.923579146 11.797943966 1.25 16.0625 C0.984453125 16.782441406 0.71890625 17.502382813 0.4453125 18.244140625 C-0.925380425 21.827238392 -1.981676008 24.49508791 -5 27 C-10.369863014 28.315068493 -10.369863014 28.315068493 -13 27 C-13.3125 24.25 -13.3125 24.25 -13 21 C-10.625 18.625 -10.625 18.625 -8 17 C-7.34 17 -6.68 17 -6 17 C-5.818242188 16.443125 -5.636484375 15.88625 -5.44921875 15.3125 C-3.751378154 10.158030087 -1.935777651 5.069893847 0 0 Z " fill="#2A2720" transform="translate(86,134)" />
<path d="M0 0 C0.886875 0.66 1.77375 1.32 2.6875 2 C2.6875 2.33 2.6875 2.66 2.6875 3 C-2.842179407 3.710334311 -7.812330356 4.302671758 -13.3125 3 C-11.6625 3.33 -10.0125 3.66 -8.3125 4 C-7.9825 5.65 -7.6525 7.3 -7.3125 9 C-7.9725 9 -8.6325 9 -9.3125 9 C-9.3125 8.34 -9.3125 7.68 -9.3125 7 C-9.9725 7 -10.6325 7 -11.3125 7 C-11.3125 7.66 -11.3125 8.32 -11.3125 9 C-13.25 9.5625 -13.25 9.5625 -15.3125 10 C-15.6425 9.67 -15.9725 9.34 -16.3125 9 C-16.9725 9.66 -17.6325 10.32 -18.3125 11 C-18.3125 7.37 -18.3125 3.74 -18.3125 0 C-6.513842282 -3.932885906 -6.513842282 -3.932885906 0 0 Z " fill="#DDD7CC" transform="translate(166.3125,67)" />
<path d="M0 0 C2.975869184 1.402139352 5.319495154 3.050541931 8 5 C7.34 8.3 6.68 11.6 6 15 C1.125 11.25 1.125 11.25 0 9 C-1.731926052 8.019664499 -3.465183975 7.041432227 -5.2109375 6.0859375 C-7.497930887 4.697762475 -9.224503805 2.988555738 -11 1 C-7.497419138 -0.751290431 -3.821250447 -0.569251255 0 0 Z " fill="#BDBAB0" transform="translate(174,62)" />
<path d="M0 0 C0 3.63 0 7.26 0 11 C0.66 11.33 1.32 11.66 2 12 C2 13.65 2 15.3 2 17 C1.01 16.01 0.02 15.02 -1 14 C-1.6496875 15.7015625 -1.6496875 15.7015625 -2.3125 17.4375 C-2.869375 18.613125 -3.42625 19.78875 -4 21 C-6.750788839 21.916929613 -8.359489127 22.108860834 -11.1875 22.0625 C-13.0746875 22.0315625 -13.0746875 22.0315625 -15 22 C-15.33 21.34 -15.66 20.68 -16 20 C-14.35 20 -12.7 20 -11 20 C-10.67 18.35 -10.34 16.7 -10 15 C-9.67 15.66 -9.34 16.32 -9 17 C-9.33 17.99 -9.66 18.98 -10 20 C-9.34 20 -8.68 20 -8 20 C-7.67 18.68 -7.34 17.36 -7 16 C-6.34 16.33 -5.68 16.66 -5 17 C-5.33 12.71 -5.66 8.42 -6 4 C-5.34 4 -4.68 4 -4 4 C-3.67 3.01 -3.34 2.02 -3 1 C-1 0 -1 0 0 0 Z " fill="#A39F95" transform="translate(143,164)" />
<path d="M0 0 C2.94503125 2.94503125 3.890548666 4.158642258 4.1328125 8.234375 C4.117200931 13.261300331 3.82860295 18.028382302 3 23 C2.829239013 24.437019385 2.662641901 25.874539069 2.5 27.3125 C2 31 2 31 1 33 C1.66 33 2.32 33 3 33 C3 31.35 3 29.7 3 28 C3.2475 28.53625 3.495 29.0725 3.75 29.625 C5.29696975 32.564242525 7.130143688 35.257544075 9 38 C4.125 36.125 4.125 36.125 3 35 C1.485305516 34.768071355 -0.037545616 34.587847615 -1.5625 34.4375 C-2.388789062 34.353710937 -3.215078125 34.269921875 -4.06640625 34.18359375 C-5.023535156 34.092714844 -5.023535156 34.092714844 -6 34 C-6 33.67 -6 33.34 -6 33 C-4.02 33 -2.04 33 0 33 C-0.142308079 31.582974871 -0.289007458 30.166390402 -0.4375 28.75 C-0.518710938 27.96109375 -0.599921875 27.1721875 -0.68359375 26.359375 C-0.97634993 24.176353608 -1.420644187 22.122681803 -2 20 C-1.34 20 -0.68 20 0 20 C0 13.4 0 6.8 0 0 Z " fill="#332F26" transform="translate(171,28)" />
<path d="M0 0 C0.66 0.33 1.32 0.66 2 1 C1.251302083 2.627604167 0.502604167 4.255208333 -0.24609375 5.8828125 C-2.10660479 11.107667337 -2.131583377 16.390842714 -2.0625 21.875 C-2.055732422 22.907539063 -2.055732422 22.907539063 -2.048828125 23.9609375 C-2.037163362 25.640663353 -2.019232705 27.320343752 -2 29 C-3.98 29.33 -5.96 29.66 -8 30 C-8.088209268 26.833513451 -8.140790498 23.667349079 -8.1875 20.5 C-8.212636719 19.613125 -8.237773437 18.72625 -8.263671875 17.8125 C-8.329801658 11.816732979 -7.441318754 7.48495762 -5 2 C-4.34 2 -3.68 2 -3 2 C-3.66 5.96 -4.32 9.92 -5 14 C-3.35 9.38 -1.7 4.76 0 0 Z " fill="#F0D5B7" transform="translate(134,64)" />
<path d="M0 0 C2 2 2 2 2 5 C2.66 5.33 3.32 5.66 4 6 C3.34 6 2.68 6 2 6 C2.66 7.98 3.32 9.96 4 12 C7.96 12 11.92 12 16 12 C15.67 12.99 15.34 13.98 15 15 C10.939487688 16.353504104 7.245361229 16.536256155 3 16 C-0.186276622 14.2077194 -1.554236934 13.030827091 -3 9.6875 C-3 5.875243549 -1.67327821 3.413487548 0 0 Z " fill="#D7D4C7" transform="translate(167,80)" />
</svg>