<?xml version='1.0' encoding='utf-8'?>
<svg xmlns="http://www.w3.org/2000/svg" version="1.1" width="200" height="168" viewBox="38.105564908 24.937486051 200.894435092 168.062513949">
<path d="M0 0 C3 1 3 1 4.16796875 3.06640625 C4.504414063 3.890117188 4.840859375 4.713828125 5.1875 5.5625 C5.531679688 6.388789063 5.875859375 7.215078125 6.23046875 8.06640625 C6.484414063 8.704492188 6.738359375 9.342578125 7 10 C7.507890625 9.361914062 8.01578125 8.723828125 8.5390625 8.06640625 C14.162666896 1.315974756 14.162666896 1.315974756 18.3125 -0.25 C21 0 21 0 22.875 1.25 C24 3 24 3 24 6 C26.31 6 28.62 6 31 6 C32.130581335 9.391744006 31.907426014 9.823249096 30.5625 12.9375 C29.218472566 16.065527975 29 17.396653248 29 21 C30.097270933 22.807076809 30.097270933 22.807076809 31.75 24.5 C32.380351563 25.187070312 33.010703125 25.874140625 33.66015625 26.58203125 C36.970341301 30.002740009 40.329899227 33.373262778 43.735351562 36.69921875 C46.04316273 38.966330439 48.132684599 41.179514458 50.05859375 43.78515625 C52.338467216 46.386138655 53.503302752 46.766828432 56.875 47.25 C57.697421875 47.37890625 58.51984375 47.5078125 59.3671875 47.640625 C60.236015625 47.75921875 61.10484375 47.8778125 62 48 C62.919101563 48.174023437 63.838203125 48.348046875 64.78515625 48.52734375 C75.638960101 50.12310349 85.756648819 49.520214804 96.12109375 45.9140625 C104.58226409 43.227612216 110.489375958 45.190900016 118.23828125 49.1015625 C125.237127152 53.912650348 127.2100145 59.5149308 129.5625 67.375 C133.342256821 79.739923957 133.342256821 79.739923957 140.5 90.375 C141.0671875 91.022109375 141.634375 91.66921875 142.21875 92.3359375 C145.353490072 95.264444672 148.323535233 96.233307387 152.546875 96.6328125 C153.813378906 96.758496094 153.813378906 96.758496094 155.10546875 96.88671875 C155.978164063 96.965351563 156.850859375 97.043984375 157.75 97.125 C159.082246094 97.254550781 159.082246094 97.254550781 160.44140625 97.38671875 C162.627029362 97.598230664 164.813082384 97.802402272 167 98 C167 98.99 167 99.98 167 101 C159.595805538 103.224905725 150.724648307 103.255900806 143.625 100.125 C132.236643057 93.513009867 127.267435088 81.079608508 124 69 C123.67 69 123.34 69 123 69 C122.882620599 72.49971199 122.81236039 75.998909551 122.75 79.5 C122.699726562 80.973398437 122.699726562 80.973398437 122.6484375 82.4765625 C122.550584994 89.815500437 123.711812922 95.22989766 128.610839844 100.846923828 C130.440271612 103.68238231 130.387644441 105.622028456 130.3984375 108.98046875 C130.402304687 110.145136719 130.406171875 111.309804687 130.41015625 112.509765625 C130.392753906 114.330244141 130.392753906 114.330244141 130.375 116.1875 C130.386601563 117.381816406 130.398203125 118.576132813 130.41015625 119.806640625 C130.386860599 126.861340243 129.657537188 132.454584332 127 139 C124.03 139 121.06 139 118 139 C119.065507503 135.981062074 120.091703778 133.886718863 122.125 131.375 C125.362090486 125.548237126 124.357091797 119.678188478 123.5 113.25 C121.340150722 108.570326564 117.979504006 106.154484882 114 103 C112.493375335 101.695109824 110.993067069 100.382881376 109.5 99.0625 C108.8296875 98.475976562 108.159375 97.889453125 107.46875 97.28515625 C106.9840625 96.861054688 106.499375 96.436953125 106 96 C105.287243234 97.819298256 105.287243234 97.819298256 105 100 C105.89855879 101.820859575 105.89855879 101.820859575 107.1875 103.58203125 C108.630685667 106.267476304 109.08848517 107.496740594 108.5546875 110.532714844 C107.510536714 113.338870081 106.31223866 115.996459849 105 118.6875 C104.379316406 120.072919922 104.379316406 120.072919922 103.74609375 121.486328125 C98.439731816 133.038893527 98.439731816 133.038893527 93.9375 134.8125 C90.909965097 135.105487249 88.915897282 134.971965761 86 134 C86 133.34 86 132.68 86 132 C87.0725 131.525625 88.145 131.05125 89.25 130.5625 C94.526109119 127.58267319 95.998013796 122.51026955 97.58984375 116.93359375 C98.657819473 111.898851057 98.234612516 107.608888314 96 103 C98.495088619 104.715373425 99.832957526 106.119814655 100.40625 109.140625 C100.727244877 117.646989235 97.676570843 124.985143736 93 132 C96.163670871 131.301488402 96.163670871 131.301488402 97.46484375 128.62890625 C103.53356318 118.158879541 103.53356318 118.158879541 105.66015625 106.828125 C105.046625722 104.965304978 105.046625722 104.965304978 104 103.25 C102.989875775 100.977220494 102.748046428 99.328887882 102.5 96.875 C102.400132818 92.992930516 102.400132818 92.992930516 100 91 C97.452865963 91.009227021 97.452865963 91.009227021 95 92 C93.5 93.75 93.5 93.75 93 96 C93.29805007 98.197471305 93.29805007 98.197471305 94 100 C92.333333333 98.333333333 90.666666667 96.666666667 89 95 C88.333554687 95.2165625 87.667109375 95.433125 86.98046875 95.65625 C78.029733506 98.360248339 70.335686591 98.725952526 61.15625 96.98046875 C60.184941406 96.797663574 59.213632812 96.614858398 58.212890625 96.426513672 C57.117509766 96.215389404 57.117509766 96.215389404 56 96 C56.110901383 100.312981839 56.241284339 104.625169939 56.375 108.9375 C56.4059375 110.149863281 56.436875 111.362226562 56.46875 112.611328125 C56.643049833 117.971047985 56.861836161 123.037685017 58.1640625 128.25390625 C58.439921875 129.490117188 58.71578125 130.726328125 59 132 C58.34 132.66 57.68 133.32 57 134 C56.280727048 136.317657289 55.609010698 138.650958736 55 141 C52.36 141 49.72 141 47 141 C47.612776117 138.038248769 48.253725218 136.619412173 50 134 C51.422815902 122.587518766 48.668112021 112.703026862 45 102 C43.377601843 109.856896737 41.906390867 117.529795408 41.5 125.5625 C41.221295633 130.751145132 40.491883511 134.449604023 38 139 C35.03 139 32.06 139 29 139 C31 135 31 135 32.5625 132.5 C37.974500111 123.087825894 34.487749291 110.182113941 33 100 C32.890429688 99.116992187 32.780859375 98.233984375 32.66796875 97.32421875 C31.959463849 92.940831285 30.630932282 90.34959943 27.875 86.875 C22.095364708 79.233306476 19.800088657 69.648594245 16.884765625 60.643554688 C16.075066764 58.224288886 15.192668645 55.852790298 14.265625 53.4765625 C13 50 13 50 13 47 C14.485 46.505 14.485 46.505 16 46 C15.95875 46.845625 15.9175 47.69125 15.875 48.5625 C16.01535028 52.422132693 16.827801642 55.336880133 18 59 C18.66 59 19.32 59 20 59 C20.12375 60.134375 20.2475 61.26875 20.375 62.4375 C20.58125 63.613125 20.7875 64.78875 21 66 C21.99 66.495 21.99 66.495 23 67 C23.35840222 69.329614432 23.688487124 71.663653432 24 74 C24.975497607 76.818622027 24.975497607 76.818622027 26 79 C26.99 77.515 26.99 77.515 28 76 C27.34 76 26.68 76 26 76 C26.165 75.21625 26.33 74.4325 26.5 73.625 C27.062370703 71.11791961 27.062370703 71.11791961 27 69 C26.01 69.66 25.02 70.32 24 71 C25.408447177 67.784756949 27.103447857 65.678161323 29.625 63.25 C30.256640625 62.63640625 30.88828125 62.0228125 31.5390625 61.390625 C32.262226563 60.702265625 32.262226563 60.702265625 33 60 C33.33 60.66 33.66 61.32 34 62 C33.369714133 63.680762312 32.702118937 65.347955442 32 67 C32 67.66 32 68.32 32 69 C35.095928354 65.491281199 36.741946229 62.508026014 38 58 C38.66 59.32 39.32 60.64 40 62 C40.66 60.35 41.32 58.7 42 57 C42.495 58.98 42.495 58.98 43 61 C45.959291193 58.244797855 48.036818264 55.533727124 50 52 C50.33 52.66 50.66 53.32 51 54 C50.505 54.99 50.505 54.99 50 56 C50.87140625 55.79375 51.7428125 55.5875 52.640625 55.375 C61.925314372 54.338569559 70.983975541 61.613804232 78 67 C78 66.34 78 65.68 78 65 C75.982086643 63.410307531 75.982086643 63.410307531 73.5 61.875 C72.6646875 61.336171875 71.829375 60.79734375 70.96875 60.2421875 C70.3190625 59.832265625 69.669375 59.42234375 69 59 C69.495 58.01 69.495 58.01 70 57 C75 57 75 57 78 58.5625 C80.949313841 60.403075645 80.949313841 60.403075645 84 59 C82.35 58.67 80.7 58.34 79 58 C78.67 57.01 78.34 56.02 78 55 C88.55808656 58.075170843 88.55808656 58.075170843 93 60 C92.401875 60.144375 91.80375 60.28875 91.1875 60.4375 C89.438495955 60.887243897 87.713229772 61.428923409 86 62 C91.445 64.97 91.445 64.97 97 68 C96.01 68.495 96.01 68.495 95 69 C92.384542907 67.815642071 89.921315653 66.421818388 87.41015625 65.03125 C84.929943834 63.654504823 84.929943834 63.654504823 82 65 C85.681796061 66.969196917 89.37136792 68.923366946 93.0625 70.875 C94.100839844 71.430585937 95.139179688 71.986171875 96.208984375 72.55859375 C101.438487558 75.314458919 106.256616058 77.609496519 112 79 C114.021567044 79.955649876 116.029665742 80.942747471 118 82 C117.01 82.495 117.01 82.495 116 83 C116 83.66 116 84.32 116 85 C116.99 85.33 117.98 85.66 119 86 C119 83.69 119 81.38 119 79 C114.71 77.35 110.42 75.7 106 74 C109.778656928 72.740447691 111.034117861 73.519128111 114.6875 74.9375 C115.681367188 75.317773437 116.675234375 75.698046875 117.69921875 76.08984375 C118.458476563 76.390195312 119.217734375 76.690546875 120 77 C120 75.02 120 73.04 120 71 C119.191757812 70.806640625 118.383515625 70.61328125 117.55078125 70.4140625 C116.482148438 70.153671875 115.413515625 69.89328125 114.3125 69.625 C112.728886719 69.242148437 112.728886719 69.242148437 111.11328125 68.8515625 C108.295932343 68.080945108 105.683316749 67.145014568 103 66 C107.074443301 64.641852233 109.814681164 66.052542377 113.6875 67.4375 C114.389394531 67.680488281 115.091289063 67.923476562 115.814453125 68.173828125 C117.545785316 68.774494395 119.273281368 69.38619719 121 70 C120.745430604 62.961156211 120.309152355 57.706715281 116 52 C110.654017256 47.854135831 106.745291098 46.55768583 100 47 C98.063076039 47.710205452 96.127004874 48.424811846 94.21484375 49.19921875 C83.058421539 53.232845828 71.021686537 52.727282633 59.5 50.8125 C58.829445801 50.711711426 58.158891602 50.610922852 57.468017578 50.507080078 C52.526852877 49.582129923 50.224012819 47.765909711 47 44 C46.281992188 43.209804687 45.563984375 42.419609375 44.82421875 41.60546875 C43.766542969 40.408574219 43.766542969 40.408574219 42.6875 39.1875 C36.624570202 32.314130275 36.624570202 32.314130275 30 26 C29.34 26 28.68 26 28 26 C26.962104185 24.35666496 25.964320761 22.687561332 25 21 C24.34 20.34 23.68 19.68 23 19 C23.66 18.401875 24.32 17.80375 25 17.1875 C27.3373846 15.124981665 27.3373846 15.124981665 27 12 C27.33 11.01 27.66 10.02 28 9 C25.169991442 8.953829091 25.169991442 8.953829091 22 10 C20.006353459 12.143041243 18.484678929 14.483929072 17 17 C16.67 16.01 16.34 15.02 16 14 C16.92578125 12.17578125 16.92578125 12.17578125 18.3125 10.3125 C18.762382812 9.689882813 19.212265625 9.067265625 19.67578125 8.42578125 C20.112773438 7.955273437 20.549765625 7.484765625 21 7 C21.66 7 22.32 7 23 7 C22.505 5.515 22.505 5.515 22 4 C19.627663887 4.037802983 19.627663887 4.037802983 17 5 C14.242543933 8.204611105 13.064226831 10.132937777 12.75 14.375 C12.87375 15.674375 12.87375 15.674375 13 17 C12.34 17.12375 11.68 17.2475 11 17.375 C10.01 17.58125 9.02 17.7875 8 18 C7.337421875 18.064453125 6.67484375 18.12890625 5.9921875 18.1953125 C3.711060568 18.52359276 2.026565797 18.88894419 0 20 C-1.124742312 22.149709097 -1.643049461 24.199349434 -2.21484375 26.5546875 C-3.33215534 30.034473845 -5.406937432 32.36118423 -7.79296875 35.078125 C-9.334925009 37.533278655 -9.291458289 39.152309179 -9 42 C-6.918584456 44.081415544 -2.813930468 43.730887606 0.0625 44.0625 C0.821113281 44.153378906 1.579726562 44.244257812 2.361328125 44.337890625 C4.240430099 44.562437402 6.120160948 44.781709783 8 45 C5.165460607 47.834539393 3.200987124 47.299996876 -0.75 47.3125 C-1.96171875 47.329257813 -3.1734375 47.346015625 -4.421875 47.36328125 C-8.255676165 46.974041612 -10.691850603 45.922988683 -14 44 C-13.894435092 38.932884416 -13.026409536 36.692273379 -9.5 33 C-6.022683622 29.353745175 -5.559262221 27.033359993 -5 22 C-3.8125 20.3359375 -3.8125 20.3359375 -2.375 18.75 C-1.59125 17.8425 -0.8075 16.935 0 16 C-0.33 15.01 -0.66 14.02 -1 13 C-1.093576918 11.147727477 -1.12993909 9.292128196 -1.125 7.4375 C-1.128867187 5.981503906 -1.128867187 5.981503906 -1.1328125 4.49609375 C-1 2 -1 2 0 0 Z " fill="#A7A296" transform="translate(62,42)" />
<path d="M0 0 C0 0.99 0 1.98 0 3 C-1.333333333 4.333333333 -2.666666667 5.666666667 -4 7 C-5.254361866 9.632229617 -5.254361866 9.632229617 -6 12 C-5.662265625 11.506289063 -5.32453125 11.012578125 -4.9765625 10.50390625 C-4.530546875 9.863242187 -4.08453125 9.222578125 -3.625 8.5625 C-3.184140625 7.924414062 -2.74328125 7.286328125 -2.2890625 6.62890625 C-1 5 -1 5 1 4 C2.99960012 3.960007998 5.000472422 3.956532009 7 4 C6.34 4.33 5.68 4.66 5 5 C4.171959312 7.484122065 4 9.352203073 4 12 C2.5 13.6875 2.5 13.6875 1 15 C3.540654669 18.233560488 6.019937095 21.122874368 9.1875 23.75 C15.680436996 29.146541933 21.997524745 35.180533733 27 42 C27 42.66 27 43.32 27 44 C43.398348105 47.091944424 61.470959542 50.090184433 77 42 C82.946832616 41.313827006 87.152004632 42.676531477 92 46 C95.589908805 49.394901413 97.914059489 52.624604268 98.09765625 57.69921875 C98.065104167 60.466145833 98.032552083 63.233072917 98 66 C94.04 65.01 90.08 64.02 86 63 C89.63 64.32 93.26 65.64 97 67 C97 68.98 97 70.96 97 73 C94.03 72.34 91.06 71.68 88 71 C90.97 72.32 93.94 73.64 97 75 C97 77.64 97 80.28 97 83 C95.0625 82.25 95.0625 82.25 93 81 C92.825251465 80.015921631 92.825251465 80.015921631 92.646972656 79.011962891 C92.43347168 78.348015137 92.219970703 77.684067383 92 77 C90.034390914 76.02836253 90.034390914 76.02836253 87.5859375 75.55859375 C81.871300119 74.052118499 76.878146254 71.736756754 71.625 69.0625 C70.312089844 68.417646484 70.312089844 68.417646484 68.97265625 67.759765625 C64.71788469 65.619388176 61.098787717 63.730663425 58 60 C60.169676888 59.045342169 61.563287932 58.855987883 63.82421875 59.6015625 C65.568474297 60.358703853 67.286271313 61.176091977 69 62 C66.69 60.68 64.38 59.36 62 58 C63.32 57.34 64.64 56.68 66 56 C62.774842368 54.26337666 59.48670834 53.109407199 56 52 C58.31 52.99 60.62 53.98 63 55 C62.01 55.99 62.01 55.99 61 57 C56.86736741 56.655613951 53.618917963 54.935700306 50 53 C50.33 53.66 50.66 54.32 51 55 C49.02 54.505 49.02 54.505 47 54 C48.641260314 55.641260314 50.6312201 56.784047108 52.5625 58.0625 C53.388789062 58.610351562 54.215078125 59.158203125 55.06640625 59.72265625 C55.704492187 60.144179687 56.342578125 60.565703125 57 61 C56.34 61.99 55.68 62.98 55 64 C53.62328125 63.077675781 53.62328125 63.077675781 52.21875 62.13671875 C40.642220541 54.071391876 40.642220541 54.071391876 27 52 C27 51.01 27 50.02 27 49 C26.673867188 49.554296875 26.347734375 50.10859375 26.01171875 50.6796875 C25.574726562 51.404140625 25.137734375 52.12859375 24.6875 52.875 C24.258242188 53.594296875 23.828984375 54.31359375 23.38671875 55.0546875 C22 57 22 57 19 59 C19 57.68 19 56.36 19 55 C18.34 56.65 17.68 58.3 17 60 C16.34 59.01 15.68 58.02 15 57 C14.38125 58.3921875 14.38125 58.3921875 13.75 59.8125 C12.065582141 62.880546815 10.915459169 64.190404654 8 66 C8 62.61976483 8.874556219 60.165310634 10 57 C7.36 59.64 4.72 62.28 2 65 C3.98 64.01 3.98 64.01 6 63 C5.300584041 66.147371816 4.239213017 69.02588876 3 72 C3.66 72 4.32 72 5 72 C4.67 73.65 4.34 75.3 4 77 C-1.279165179 70.760986607 -1.925529311 62.828286449 -3 55 C-3.66 55 -4.32 55 -5 55 C-8.428571429 47.714285714 -8.428571429 47.714285714 -8 43 C-8.66 43 -9.32 43 -10 43 C-9.34 45.64 -8.68 48.28 -8 51 C-8.66 51 -9.32 51 -10 51 C-10 50.01 -10 49.02 -10 48 C-10.66 48 -11.32 48 -12 48 C-11.870712471 69.35779283 -9.863765933 86.255505953 3.86328125 103.37109375 C5 105 5 105 5 107 C-1.159920052 104.946693316 -4.602227553 97.000297966 -7.625 91.5 C-12.863991354 80.449544728 -15.476859113 68.50423322 -15.859375 56.33203125 C-16.007035751 52.833291784 -16.485944003 49.461586757 -17 46 C-17 44.666666667 -17 43.333333333 -17 42 C-17.89203125 41.951015625 -18.7840625 41.90203125 -19.703125 41.8515625 C-20.87359375 41.776796875 -22.0440625 41.70203125 -23.25 41.625 C-24.41015625 41.555390625 -25.5703125 41.48578125 -26.765625 41.4140625 C-29.706943342 41.037516915 -31.499490114 40.522587703 -34 39 C-33.01 38.505 -33.01 38.505 -32 38 C-32.28875 37.34 -32.5775 36.68 -32.875 36 C-33.04917941 31.81969415 -31.138633352 30.329494557 -28.55859375 27.1953125 C-26.477517999 24.264072971 -25.622952526 21.337243198 -24.73828125 17.8828125 C-24 16 -24 16 -21 14 C-18.51953125 13.5859375 -18.51953125 13.5859375 -15.8125 13.375 C-14.911445313 13.300234375 -14.010390625 13.22546875 -13.08203125 13.1484375 C-12.394960938 13.099453125 -11.707890625 13.05046875 -11 13 C-11.103125 12.154375 -11.20625 11.30875 -11.3125 10.4375 C-10.902449271 5.926941979 -9.006614738 3.307276211 -6 0 C-3.509071894 -1.245464053 -2.589192669 -0.776757801 0 0 Z " fill="#DBD7CA" transform="translate(85,46)" />
<path d="M0 0 C3 1 3 1 4.16796875 3.06640625 C4.504414063 3.890117188 4.840859375 4.713828125 5.1875 5.5625 C5.531679688 6.388789063 5.875859375 7.215078125 6.23046875 8.06640625 C6.484414063 8.704492188 6.738359375 9.342578125 7 10 C7.507890625 9.361914062 8.01578125 8.723828125 8.5390625 8.06640625 C14.162666896 1.315974756 14.162666896 1.315974756 18.3125 -0.25 C21 0 21 0 22.875 1.25 C24 3 24 3 24 6 C26.31 6 28.62 6 31 6 C32.130581335 9.391744006 31.907426014 9.823249096 30.5625 12.9375 C29.218472566 16.065527975 29 17.396653248 29 21 C30.097270933 22.807076809 30.097270933 22.807076809 31.75 24.5 C32.380351563 25.187070312 33.010703125 25.874140625 33.66015625 26.58203125 C36.970341301 30.002740009 40.329899227 33.373262778 43.735351562 36.69921875 C46.04316273 38.966330439 48.132684599 41.179514458 50.05859375 43.78515625 C52.338467216 46.386138655 53.503302752 46.766828432 56.875 47.25 C57.697421875 47.37890625 58.51984375 47.5078125 59.3671875 47.640625 C60.236015625 47.75921875 61.10484375 47.8778125 62 48 C62.919101563 48.174023437 63.838203125 48.348046875 64.78515625 48.52734375 C75.638960101 50.12310349 85.756648819 49.520214804 96.12109375 45.9140625 C104.58226409 43.227612216 110.489375958 45.190900016 118.23828125 49.1015625 C125.237127152 53.912650348 127.2100145 59.5149308 129.5625 67.375 C133.342256821 79.739923957 133.342256821 79.739923957 140.5 90.375 C141.0671875 91.022109375 141.634375 91.66921875 142.21875 92.3359375 C145.353490072 95.264444672 148.323535233 96.233307387 152.546875 96.6328125 C153.813378906 96.758496094 153.813378906 96.758496094 155.10546875 96.88671875 C155.978164063 96.965351563 156.850859375 97.043984375 157.75 97.125 C159.082246094 97.254550781 159.082246094 97.254550781 160.44140625 97.38671875 C162.627029362 97.598230664 164.813082384 97.802402272 167 98 C167 98.99 167 99.98 167 101 C159.595805538 103.224905725 150.724648307 103.255900806 143.625 100.125 C132.236643057 93.513009867 127.267435088 81.079608508 124 69 C123.67 69 123.34 69 123 69 C122.882620599 72.49971199 122.81236039 75.998909551 122.75 79.5 C122.699726562 80.973398437 122.699726562 80.973398437 122.6484375 82.4765625 C122.550584994 89.815500437 123.711812922 95.22989766 128.610839844 100.846923828 C130.440271612 103.68238231 130.387644441 105.622028456 130.3984375 108.98046875 C130.402304687 110.145136719 130.406171875 111.309804687 130.41015625 112.509765625 C130.392753906 114.330244141 130.392753906 114.330244141 130.375 116.1875 C130.386601563 117.381816406 130.398203125 118.576132813 130.41015625 119.806640625 C130.386860599 126.861340243 129.657537188 132.454584332 127 139 C124.03 139 121.06 139 118 139 C119.065507503 135.981062074 120.091703778 133.886718863 122.125 131.375 C125.362090486 125.548237126 124.357091797 119.678188478 123.5 113.25 C121.340150722 108.570326564 117.979504006 106.154484882 114 103 C112.493375335 101.695109824 110.993067069 100.382881376 109.5 99.0625 C108.8296875 98.475976562 108.159375 97.889453125 107.46875 97.28515625 C106.9840625 96.861054688 106.499375 96.436953125 106 96 C109.803458775 96 110.777010154 97.137863313 113.6875 99.5 C114.495742188 100.1496875 115.303984375 100.799375 116.13671875 101.46875 C116.751601563 101.9740625 117.366484375 102.479375 118 103 C118.340551971 99.754341417 118.340551971 99.754341417 115.5 97.3125 C114.675 96.549375 113.85 95.78625 113 95 C113.8971875 95.495 113.8971875 95.495 114.8125 96 C117.053864709 97.20787988 117.053864709 97.20787988 120 97 C119.67 95.68 119.34 94.36 119 93 C119.66 93 120.32 93 121 93 C120.360625 92.05125 119.72125 91.1025 119.0625 90.125 C117 87 117 87 116 85 C116.99 85.33 117.98 85.66 119 86 C119 83.69 119 81.38 119 79 C114.71 77.35 110.42 75.7 106 74 C109.778656928 72.740447691 111.034117861 73.519128111 114.6875 74.9375 C115.681367188 75.317773437 116.675234375 75.698046875 117.69921875 76.08984375 C118.458476563 76.390195312 119.217734375 76.690546875 120 77 C120 75.02 120 73.04 120 71 C119.191757812 70.806640625 118.383515625 70.61328125 117.55078125 70.4140625 C116.482148438 70.153671875 115.413515625 69.89328125 114.3125 69.625 C112.728886719 69.242148437 112.728886719 69.242148437 111.11328125 68.8515625 C108.295932343 68.080945108 105.683316749 67.145014568 103 66 C107.074443301 64.641852233 109.814681164 66.052542377 113.6875 67.4375 C114.389394531 67.680488281 115.091289063 67.923476562 115.814453125 68.173828125 C117.545785316 68.774494395 119.273281368 69.38619719 121 70 C120.745430604 62.961156211 120.309152355 57.706715281 116 52 C110.654017256 47.854135831 106.745291098 46.55768583 100 47 C98.063076039 47.710205452 96.127004874 48.424811846 94.21484375 49.19921875 C83.058421539 53.232845828 71.021686537 52.727282633 59.5 50.8125 C58.829445801 50.711711426 58.158891602 50.610922852 57.468017578 50.507080078 C52.526852877 49.582129923 50.224012819 47.765909711 47 44 C46.281992188 43.209804687 45.563984375 42.419609375 44.82421875 41.60546875 C43.766542969 40.408574219 43.766542969 40.408574219 42.6875 39.1875 C36.624570202 32.314130275 36.624570202 32.314130275 30 26 C29.34 26 28.68 26 28 26 C26.962104185 24.35666496 25.964320761 22.687561332 25 21 C24.34 20.34 23.68 19.68 23 19 C23.66 18.401875 24.32 17.80375 25 17.1875 C27.3373846 15.124981665 27.3373846 15.124981665 27 12 C27.33 11.01 27.66 10.02 28 9 C25.169991442 8.953829091 25.169991442 8.953829091 22 10 C20.006353459 12.143041243 18.484678929 14.483929072 17 17 C16.67 16.01 16.34 15.02 16 14 C16.92578125 12.17578125 16.92578125 12.17578125 18.3125 10.3125 C18.762382812 9.689882813 19.212265625 9.067265625 19.67578125 8.42578125 C20.112773438 7.955273437 20.549765625 7.484765625 21 7 C21.66 7 22.32 7 23 7 C22.505 5.515 22.505 5.515 22 4 C19.627663887 4.037802983 19.627663887 4.037802983 17 5 C14.242543933 8.204611105 13.064226831 10.132937777 12.75 14.375 C12.87375 15.674375 12.87375 15.674375 13 17 C12.34 17.12375 11.68 17.2475 11 17.375 C10.01 17.58125 9.02 17.7875 8 18 C7.337421875 18.064453125 6.67484375 18.12890625 5.9921875 18.1953125 C3.711060568 18.52359276 2.026565797 18.88894419 0 20 C-1.124742312 22.149709097 -1.643049461 24.199349434 -2.21484375 26.5546875 C-3.33215534 30.034473845 -5.406937432 32.36118423 -7.79296875 35.078125 C-9.334925009 37.533278655 -9.291458289 39.152309179 -9 42 C-6.918584456 44.081415544 -2.813930468 43.730887606 0.0625 44.0625 C0.821113281 44.153378906 1.579726562 44.244257812 2.361328125 44.337890625 C4.240430099 44.562437402 6.120160948 44.781709783 8 45 C5.165460607 47.834539393 3.200987124 47.299996876 -0.75 47.3125 C-1.96171875 47.329257813 -3.1734375 47.346015625 -4.421875 47.36328125 C-8.255676165 46.974041612 -10.691850603 45.922988683 -14 44 C-13.894435092 38.932884416 -13.026409536 36.692273379 -9.5 33 C-6.022683622 29.353745175 -5.559262221 27.033359993 -5 22 C-3.8125 20.3359375 -3.8125 20.3359375 -2.375 18.75 C-1.59125 17.8425 -0.8075 16.935 0 16 C-0.33 15.01 -0.66 14.02 -1 13 C-1.093576918 11.147727477 -1.12993909 9.292128196 -1.125 7.4375 C-1.128867187 5.981503906 -1.128867187 5.981503906 -1.1328125 4.49609375 C-1 2 -1 2 0 0 Z " fill="#4A4842" transform="translate(62,42)" />
<path d="M0 0 C1.307476001 2.614952002 1.547528441 5.115493814 2 8 C2.326356976 9.668046766 2.657255941 11.335243141 3 13 C3.66 13 4.32 13 5 13 C5.12375 14.134375 5.2475 15.26875 5.375 16.4375 C5.684375 18.2009375 5.684375 18.2009375 6 20 C6.66 20.33 7.32 20.66 8 21 C8.20404695 22.632375602 8.406619508 24.264949669 8.6015625 25.8984375 C10.06238259 33.603547389 13.957672537 39.155399192 20.3203125 43.6328125 C22.528012485 45.120760766 24.751586585 46.574535286 27 48 C27 45.03 27 42.06 27 39 C29.675502923 41.675502923 29.832093889 43.948798938 30.625 47.625 C31.015585937 49.407773437 31.015585937 49.407773437 31.4140625 51.2265625 C31.607421875 52.141796875 31.80078125 53.05703125 32 54 C31.994763184 53.222856445 31.989526367 52.445712891 31.984130859 51.645019531 C31.963398444 48.138354515 31.950351789 44.631702371 31.9375 41.125 C31.929121094 39.901679688 31.920742187 38.678359375 31.912109375 37.41796875 C31.908886719 36.251367187 31.905664062 35.084765625 31.90234375 33.8828125 C31.897106934 32.80402832 31.891870117 31.725244141 31.886474609 30.613769531 C32 28 32 28 33 26 C29.025024557 29.407121808 27.132062117 33.327608552 25 38 C24.67 37.34 24.34 36.68 24 36 C27.112063884 27.971159386 31.284664262 21.179140191 39 17 C41.375 17.25 41.375 17.25 43 18 C43.495 19.98 43.495 19.98 44 22 C42.68 21.01 41.36 20.02 40 19 C39.34 19.66 38.68 20.32 38 21 C39.32 21.66 40.64 22.32 42 23 C41.67 24.32 41.34 25.64 41 27 C41 26.01 41 25.02 41 24 C39.02 24.99 39.02 24.99 37 26 C37.495 26.99 37.495 26.99 38 28 C38.097574266 30.142767708 38.13077146 32.288606565 38.1328125 34.43359375 C38.134746094 36.366220703 38.134746094 36.366220703 38.13671875 38.337890625 C38.134624023 39.010539551 38.132529297 39.683188477 38.130371094 40.376220703 C38.125029914 42.426019646 38.130315459 44.475598591 38.13671875 46.525390625 C38.135429687 47.815097656 38.134140625 49.104804688 38.1328125 50.43359375 C38.13168457 51.620095215 38.130556641 52.80659668 38.129394531 54.029052734 C38 57 38 57 37 60 C36.34 60 35.68 60 35 60 C35.2165625 61.038984375 35.433125 62.07796875 35.65625 63.1484375 C39.41588065 81.75235805 39.41588065 81.75235805 37 89 C38.32 88.01 39.64 87.02 41 86 C40.858525391 85.343706055 40.717050781 84.687412109 40.571289062 84.011230469 C39.160610732 76.981391442 38.684889329 70.28486899 38.75 63.125 C38.754592285 62.073608398 38.75918457 61.022216797 38.763916016 59.938964844 C38.840441774 53.384102833 39.26829635 47.160863259 40.48828125 40.71484375 C41.281418678 36.506977243 41.634325151 32.262998898 42 28 C42.33 28 42.66 28 43 28 C43.048984375 28.60328125 43.09796875 29.2065625 43.1484375 29.828125 C43.223203125 30.62734375 43.29796875 31.4265625 43.375 32.25 C43.479414062 33.433359375 43.479414062 33.433359375 43.5859375 34.640625 C44.015071129 37.085876997 44.786006378 38.848369028 46 41 C45.34 41.99 44.68 42.98 44 44 C43.01 43.505 43.01 43.505 42 43 C42 44.65 42 46.3 42 48 C47.61 48.66 53.22 49.32 59 50 C59 49.34 59 48.68 59 48 C58.34 48 57.68 48 57 48 C57.33 46.68 57.66 45.36 58 44 C58.66 45.65 59.32 47.3 60 49 C60.99 48.67 61.98 48.34 63 48 C65.1875 48.4375 65.1875 48.4375 67 49 C66.01 47.68 65.02 46.36 64 45 C64.495 44.01 64.495 44.01 65 43 C66.5 44.375 66.5 44.375 68 46 C68 46.66 68 47.32 68 48 C69.32 47.34 70.64 46.68 72 46 C71.01 44.02 71.01 44.02 70 42 C73 43 73 43 74 45 C77.724333824 43.787426197 81.378028062 42.49140021 85 41 C87.189554532 43.557653555 89.260744229 46.112076866 91 49 C90.625 51.5 90.625 51.5 90 54 C90.69939305 55.185748473 91.443185971 56.345605588 92.2109375 57.48828125 C93.628607451 60.202141821 94.089389093 61.492094106 93.553222656 64.538574219 C92.509184215 67.342401457 91.311269734 69.99844685 90 72.6875 C89.379316406 74.072919922 89.379316406 74.072919922 88.74609375 75.486328125 C83.439731816 87.038893527 83.439731816 87.038893527 78.9375 88.8125 C75.909965097 89.105487249 73.915897282 88.971965761 71 88 C71 87.34 71 86.68 71 86 C72.0725 85.525625 73.145 85.05125 74.25 84.5625 C79.526109119 81.58267319 80.998013796 76.51026955 82.58984375 70.93359375 C83.657819473 65.898851057 83.234612516 61.608888314 81 57 C83.495088619 58.715373425 84.832957526 60.119814655 85.40625 63.140625 C85.727244877 71.646989235 82.676570843 78.985143736 78 86 C81.163670871 85.301488402 81.163670871 85.301488402 82.46484375 82.62890625 C88.53356318 72.158879541 88.53356318 72.158879541 90.66015625 60.828125 C90.046625722 58.965304978 90.046625722 58.965304978 89 57.25 C87.989875775 54.977220494 87.748046428 53.328887882 87.5 50.875 C87.400132818 46.992930516 87.400132818 46.992930516 85 45 C82.452865963 45.009227021 82.452865963 45.009227021 80 46 C78.5 47.75 78.5 47.75 78 50 C78.29805007 52.197471305 78.29805007 52.197471305 79 54 C77.333333333 52.333333333 75.666666667 50.666666667 74 49 C73.333554687 49.2165625 72.667109375 49.433125 71.98046875 49.65625 C63.029733506 52.360248339 55.335686591 52.725952526 46.15625 50.98046875 C45.184941406 50.797663574 44.213632813 50.614858398 43.212890625 50.426513672 C42.482636719 50.28576416 41.752382813 50.145014648 41 50 C41.110901383 54.312981839 41.241284339 58.625169939 41.375 62.9375 C41.4059375 64.149863281 41.436875 65.362226562 41.46875 66.611328125 C41.643049833 71.971047985 41.861836161 77.037685017 43.1640625 82.25390625 C43.439921875 83.490117188 43.71578125 84.726328125 44 86 C43.34 86.66 42.68 87.32 42 88 C41.280727048 90.317657289 40.609010698 92.650958736 40 95 C37.36 95 34.72 95 32 95 C32.612776117 92.038248769 33.253725218 90.619412173 35 88 C36.422815902 76.587518766 33.668112021 66.703026862 30 56 C28.377601843 63.856896737 26.906390867 71.529795408 26.5 79.5625 C26.221295633 84.751145132 25.491883511 88.449604023 23 93 C20.03 93 17.06 93 14 93 C16 89 16 89 17.5625 86.5 C22.974500111 77.087825894 19.487749291 64.182113941 18 54 C17.890429688 53.116992187 17.780859375 52.233984375 17.66796875 51.32421875 C16.959463849 46.940831285 15.630932282 44.34959943 12.875 40.875 C7.095364708 33.233306476 4.800088657 23.648594245 1.884765625 14.643554688 C1.075066764 12.224288886 0.192668645 9.852790298 -0.734375 7.4765625 C-2 4 -2 4 -2 1 C-1.34 0.67 -0.68 0.34 0 0 Z " fill="#3D3931" transform="translate(77,88)" />
<path d="M0 0 C5.889363712 1.970585577 9.462831899 4.962215129 13 10 C14.545675702 14.637027107 14.057356276 19.124716509 14 24 C10.04 23.01 6.08 22.02 2 21 C5.63 22.32 9.26 23.64 13 25 C13 26.98 13 28.96 13 31 C8.545 30.01 8.545 30.01 4 29 C8.455 30.98 8.455 30.98 13 33 C13 35.64 13 38.28 13 41 C11.0625 40.25 11.0625 40.25 9 39 C8.825251465 38.015921631 8.825251465 38.015921631 8.646972656 37.011962891 C8.43347168 36.348015137 8.219970703 35.684067383 8 35 C6.034390914 34.02836253 6.034390914 34.02836253 3.5859375 33.55859375 C-2.128699881 32.052118499 -7.121853746 29.736756754 -12.375 27.0625 C-13.250273437 26.632597656 -14.125546875 26.202695312 -15.02734375 25.759765625 C-19.28211531 23.619388176 -22.901212283 21.730663425 -26 18 C-23.830323112 17.045342169 -22.436712068 16.855987883 -20.17578125 17.6015625 C-18.431525703 18.358703853 -16.713728687 19.176091977 -15 20 C-18.465 18.02 -18.465 18.02 -22 16 C-20.68 15.34 -19.36 14.68 -18 14 C-18.33 13.67 -18.66 13.34 -19 13 C-19.33 12.01 -19.66 11.02 -20 10 C-23.008474184 8.774797361 -23.008474184 8.774797361 -26 8 C-26 7.01 -26 6.02 -26 5 C-24.96359375 4.806640625 -23.9271875 4.61328125 -22.859375 4.4140625 C-21.489523909 4.151351332 -20.119735478 3.88831329 -18.75 3.625 C-18.068085938 3.498671875 -17.386171875 3.37234375 -16.68359375 3.2421875 C-10.544405744 2.050112159 -6.372705543 -0.637270554 0 0 Z " fill="#D6D1C4" transform="translate(169,88)" />
<path d="M0 0 C3.082545801 0.89231589 4.629716401 1.382860668 6.3125 4.1875 C7.797094624 10.260841643 6.892274179 15.204910327 5 21 C5.99 21 6.98 21 8 21 C11.671551789 17.210011056 13.794369206 12.728027713 16 8 C18 11 18 11 17.7578125 13.69921875 C17.444570312 15.178417969 17.444570312 15.178417969 17.125 16.6875 C16.921328125 17.681367188 16.71765625 18.675234375 16.5078125 19.69921875 C16.340234375 20.458476562 16.17265625 21.217734375 16 22 C16.66 22 17.32 22 18 22 C18.33 20.02 18.66 18.04 19 16 C19.33 16 19.66 16 20 16 C19.824824325 26.160189166 14.973198875 36.595325745 8 44 C7.01 44 6.02 44 5 44 C4.67 41.69 4.34 39.38 4 37 C3.34 37 2.68 37 2 37 C-1.428571429 29.714285714 -1.428571429 29.714285714 -1 25 C-1.66 25 -2.32 25 -3 25 C-2.34 27.64 -1.68 30.28 -1 33 C-1.66 33 -2.32 33 -3 33 C-3 32.01 -3 31.02 -3 30 C-3.66 30 -4.32 30 -5 30 C-4.870712471 51.35779283 -2.863765933 68.255505953 10.86328125 85.37109375 C12 87 12 87 12 89 C5.840079948 86.946693316 2.397772447 79.000297966 -0.625 73.5 C-5.863991354 62.449544728 -8.476859113 50.50423322 -8.859375 38.33203125 C-9.007035751 34.833291784 -9.485944003 31.461586757 -10 28 C-10 27.01 -10 26.02 -10 25 C-9.34 24.67 -8.68 24.34 -8 24 C-8 23.34 -8 22.68 -8 22 C-7.071875 21.443125 -6.14375 20.88625 -5.1875 20.3125 C-1.225673682 17.438233848 -0.56773903 15.529023866 1 11 C0.34 11 -0.32 11 -1 11 C-1.33 10.34 -1.66 9.68 -2 9 C-2.99 11.64 -3.98 14.28 -5 17 C-5.66 17 -6.32 17 -7 17 C-7.28875 16.0925 -7.5775 15.185 -7.875 14.25 C-8.862891798 11.127896798 -8.862891798 11.127896798 -10.125 8.875 C-11 7 -11 7 -11 3 C-9.02 2.67 -7.04 2.34 -5 2 C-5 2.66 -5 3.32 -5 4 C-4.01 4.33 -3.02 4.66 -2 5 C-1.67 5.33 -1.34 5.66 -1 6 C-0.67 4.02 -0.34 2.04 0 0 Z " fill="#E1D2C2" transform="translate(78,64)" />
<path d="M0 0 C1 2 1 2 1 5 C1.99 4.67 2.98 4.34 4 4 C7.1875 4.9375 7.1875 4.9375 10 6 C10 7.65 10 9.3 10 11 C10.66 10.67 11.32 10.34 12 10 C17.75 14.625 17.75 14.625 20 18 C20 18.99 20 19.98 20 21 C19.01 21 18.02 21 17 21 C17.524003906 21.814042969 17.524003906 21.814042969 18.05859375 22.64453125 C18.513632812 23.359960938 18.968671875 24.075390625 19.4375 24.8125 C20.116191406 25.874042969 20.116191406 25.874042969 20.80859375 26.95703125 C22 29 22 29 23 32 C24.499856093 33.667103464 24.499856093 33.667103464 26 35 C23.67578125 35.2265625 23.67578125 35.2265625 21 35 C19.48046875 33.5234375 19.48046875 33.5234375 18.1875 31.375 C17.693789063 30.569335938 17.200078125 29.763671875 16.69140625 28.93359375 C16.133242188 27.965507812 15.575078125 26.997421875 15 26 C14.654370117 25.40590332 14.308740234 24.811806641 13.952636719 24.199707031 C11.600219725 20.152393722 9.288700838 16.083646418 7 12 C1.204046618 12.977280954 -1.614511472 15.17907222 -5.1875 19.875 C-6.932460408 22.883552427 -8.047131289 25.664959511 -9 29 C-8.769257813 28.445703125 -8.538515625 27.89140625 -8.30078125 27.3203125 C-5.603773585 21.329331046 -5.603773585 21.329331046 -2.25 19.5 C-1.13625 19.2525 -1.13625 19.2525 0 19 C-0.66 19.99 -1.32 20.98 -2 22 C-2.277103632 25.104799492 -2.277103632 25.104799492 -2.1953125 28.63671875 C-2.188867187 29.935449219 -2.182421875 31.234179688 -2.17578125 32.572265625 C-2.159070604 33.94401307 -2.142140713 35.315757861 -2.125 36.6875 C-2.114966739 38.070957184 -2.105841491 39.454421273 -2.09765625 40.837890625 C-2.074049672 44.225434521 -2.041120367 47.612630718 -2 51 C-4.110443823 47.834334265 -4.755520767 45.488025847 -5.625 41.8125 C-5.885390625 40.725820312 -6.14578125 39.639140625 -6.4140625 38.51953125 C-6.607421875 37.688085938 -6.80078125 36.856640625 -7 36 C-7 38.31 -7 40.62 -7 43 C-14.01498846 39.749151689 -20.543413565 36.213745603 -24 29 C-23.25 26.125 -23.25 26.125 -22 24 C-22.66 24 -23.32 24 -24 24 C-23.835 23.21625 -23.67 22.4325 -23.5 21.625 C-22.937629297 19.11791961 -22.937629297 19.11791961 -23 17 C-23.99 17.66 -24.98 18.32 -26 19 C-24.591552823 15.784756949 -22.896552143 13.678161323 -20.375 11.25 C-19.427539063 10.329609375 -19.427539063 10.329609375 -18.4609375 9.390625 C-17.737773437 8.702265625 -17.737773437 8.702265625 -17 8 C-16.67 8.66 -16.34 9.32 -16 10 C-16.630285867 11.680762312 -17.297881063 13.347955442 -18 15 C-18 15.66 -18 16.32 -18 17 C-14.904071646 13.491281199 -13.258053771 10.508026014 -12 6 C-11.34 7.32 -10.68 8.64 -10 10 C-9.34 8.35 -8.68 6.7 -8 5 C-7.67 6.32 -7.34 7.64 -7 9 C-4.040708807 6.244797855 -1.963181736 3.533727124 0 0 Z " fill="#C3C0B1" transform="translate(112,94)" />
<path d="M0 0 C0 0.99 0 1.98 0 3 C-1.333333333 4.333333333 -2.666666667 5.666666667 -4 7 C-5.254361866 9.632229617 -5.254361866 9.632229617 -6 12 C-5.662265625 11.506289063 -5.32453125 11.012578125 -4.9765625 10.50390625 C-4.530546875 9.863242187 -4.08453125 9.222578125 -3.625 8.5625 C-3.184140625 7.924414062 -2.74328125 7.286328125 -2.2890625 6.62890625 C-1 5 -1 5 1 4 C2.99960012 3.960007998 5.000472422 3.956532009 7 4 C6.34 4.33 5.68 4.66 5 5 C4.171959312 7.484122065 4 9.352203073 4 12 C-0.016528926 17.578512397 -0.016528926 17.578512397 -3.1875 18.9375 C-5 19 -5 19 -7 18 C-7 20.31 -7 22.62 -7 25 C-9.5 23.625 -9.5 23.625 -12 22 C-12 21.34 -12 20.68 -12 20 C-13.98 20.66 -15.96 21.32 -18 22 C-16.730250282 26.415221086 -16.730250282 26.415221086 -14 30 C-13.875 32.625 -13.875 32.625 -14 35 C-13.34 35 -12.68 35 -12 35 C-11.87625 34.071875 -11.7525 33.14375 -11.625 32.1875 C-11 29 -11 29 -9 26 C-8.34 26.33 -7.68 26.66 -7 27 C-7.33 27.66 -7.66 28.32 -8 29 C-7.34 29 -6.68 29 -6 29 C-6.137898918 31.964826744 -6.289443358 34.212344837 -8.33203125 36.4765625 C-13.193012245 40.521466394 -16.235544508 41.181686122 -22.375 41.1875 C-23.384335937 41.205869141 -23.384335937 41.205869141 -24.4140625 41.224609375 C-28.118618426 41.235548024 -30.854906427 41.040278651 -34 39 C-33.01 38.505 -33.01 38.505 -32 38 C-32.28875 37.34 -32.5775 36.68 -32.875 36 C-33.04917941 31.81969415 -31.138633352 30.329494557 -28.55859375 27.1953125 C-26.477517999 24.264072971 -25.622952526 21.337243198 -24.73828125 17.8828125 C-24 16 -24 16 -21 14 C-18.51953125 13.5859375 -18.51953125 13.5859375 -15.8125 13.375 C-14.911445313 13.300234375 -14.010390625 13.22546875 -13.08203125 13.1484375 C-12.394960938 13.099453125 -11.707890625 13.05046875 -11 13 C-11.103125 12.154375 -11.20625 11.30875 -11.3125 10.4375 C-10.902449271 5.926941979 -9.006614738 3.307276211 -6 0 C-3.509071894 -1.245464053 -2.589192669 -0.776757801 0 0 Z " fill="#D8D4C8" transform="translate(85,46)" />
<path d="M0 0 C0.33 0 0.66 0 1 0 C1.073476563 0.904921875 1.073476563 0.904921875 1.1484375 1.828125 C1.223203125 2.62734375 1.29796875 3.4265625 1.375 4.25 C1.444609375 5.03890625 1.51421875 5.8278125 1.5859375 6.640625 C2.015071129 9.085876997 2.786006378 10.848369028 4 13 C3.01 14.485 3.01 14.485 2 16 C1.34 15.67 0.68 15.34 0 15 C0 16.65 0 18.3 0 20 C5.61 20.66 11.22 21.32 17 22 C17 21.34 17 20.68 17 20 C16.34 20 15.68 20 15 20 C15.33 18.68 15.66 17.36 16 16 C16.66 17.65 17.32 19.3 18 21 C18.99 20.67 19.98 20.34 21 20 C23.1875 20.4375 23.1875 20.4375 25 21 C24.01 19.68 23.02 18.36 22 17 C22.33 16.34 22.66 15.68 23 15 C24.5 16.375 24.5 16.375 26 18 C26 18.66 26 19.32 26 20 C27.32 19.34 28.64 18.68 30 18 C29.34 16.68 28.68 15.36 28 14 C31 15 31 15 32 17 C35.724333824 15.787426197 39.378028062 14.49140021 43 13 C45.189554532 15.557653555 47.260744229 18.112076866 49 21 C48.625 23.5 48.625 23.5 48 26 C48.69939305 27.185748473 49.443185971 28.345605588 50.2109375 29.48828125 C51.628607451 32.202141821 52.089389093 33.492094106 51.553222656 36.538574219 C50.509184215 39.342401457 49.311269734 41.99844685 48 44.6875 C47.379316406 46.072919922 47.379316406 46.072919922 46.74609375 47.486328125 C41.439731816 59.038893527 41.439731816 59.038893527 36.9375 60.8125 C33.909965097 61.105487249 31.915897282 60.971965761 29 60 C29 59.34 29 58.68 29 58 C30.0725 57.525625 31.145 57.05125 32.25 56.5625 C37.526109119 53.58267319 38.998013796 48.51026955 40.58984375 42.93359375 C41.657819473 37.898851057 41.234612516 33.608888314 39 29 C41.495088619 30.715373425 42.832957526 32.119814655 43.40625 35.140625 C43.727244877 43.646989235 40.676570843 50.985143736 36 58 C39.163670871 57.301488402 39.163670871 57.301488402 40.46484375 54.62890625 C46.53356318 44.158879541 46.53356318 44.158879541 48.66015625 32.828125 C48.046625722 30.965304978 48.046625722 30.965304978 47 29.25 C45.989875775 26.977220494 45.748046428 25.328887882 45.5 22.875 C45.400132818 18.992930516 45.400132818 18.992930516 43 17 C40.452865963 17.009227021 40.452865963 17.009227021 38 18 C36.5 19.75 36.5 19.75 36 22 C36.29805007 24.197471305 36.29805007 24.197471305 37 26 C35.333333333 24.333333333 33.666666667 22.666666667 32 21 C31.333554687 21.2165625 30.667109375 21.433125 29.98046875 21.65625 C21.029733506 24.360248339 13.335686591 24.725952526 4.15625 22.98046875 C2.699287109 22.706260986 2.699287109 22.706260986 1.212890625 22.426513672 C0.482636719 22.28576416 -0.247617187 22.145014648 -1 22 C-0.889098617 26.312981839 -0.758715661 30.625169939 -0.625 34.9375 C-0.5940625 36.149863281 -0.563125 37.362226562 -0.53125 38.611328125 C-0.356950167 43.971047985 -0.138163839 49.037685017 1.1640625 54.25390625 C1.439921875 55.490117188 1.71578125 56.726328125 2 58 C1.34 58.66 0.68 59.32 0 60 C-0.719272952 62.317657289 -1.390989302 64.650958736 -2 67 C-4.64 67 -7.28 67 -10 67 C-9.387223883 64.038248769 -8.746274782 62.619412173 -7 60 C-6.629791991 57.130887927 -6.49536321 54.286669146 -6.34375 51.3984375 C-6.2303125 50.606953125 -6.116875 49.81546875 -6 49 C-5.01 48.505 -5.01 48.505 -4 48 C-3.972914335 49.60407328 -3.953565165 51.208278496 -3.9375 52.8125 C-3.925898437 53.705820313 -3.914296875 54.599140625 -3.90234375 55.51953125 C-4 58 -4 58 -5 61 C-3.68 60.01 -2.36 59.02 -1 58 C-1.141474609 57.343706055 -1.282949219 56.687412109 -1.428710938 56.011230469 C-2.839389268 48.981391442 -3.315110671 42.28486899 -3.25 35.125 C-3.243111572 33.547912598 -3.243111572 33.547912598 -3.236083984 31.938964844 C-3.159558226 25.384102833 -2.73170365 19.160863259 -1.51171875 12.71484375 C-0.718581322 8.506977243 -0.365674849 4.262998898 0 0 Z " fill="#4C473F" transform="translate(119,116)" />
<path d="M0 0 C1.313887518 0.26401995 2.626023394 0.536753637 3.9375 0.8125 C4.668398438 0.963320313 5.399296875 1.114140625 6.15234375 1.26953125 C10.173171756 2.300937062 14.075316164 3.653247551 18 5 C18.059458008 5.891386719 18.059458008 5.891386719 18.120117188 6.80078125 C18.312561679 9.535406849 18.531097734 12.267370048 18.75 15 C18.811875 15.934570312 18.87375 16.869140625 18.9375 17.83203125 C19.519254387 24.764604365 20.963102333 30.505860524 25.606933594 35.848876953 C27.442340863 38.683046853 27.387638292 40.620115263 27.3984375 43.98046875 C27.404238281 45.727470703 27.404238281 45.727470703 27.41015625 47.509765625 C27.398554687 48.723417969 27.386953125 49.937070312 27.375 51.1875 C27.386601563 52.381816406 27.398203125 53.576132812 27.41015625 54.806640625 C27.386860599 61.861340243 26.657537188 67.454584332 24 74 C21.03 74 18.06 74 15 74 C16.065507503 70.981062074 17.091703778 68.886718863 19.125 66.375 C22.362090486 60.548237126 21.357091797 54.678188478 20.5 48.25 C18.340150722 43.570326564 14.979504006 41.154484882 11 38 C9.493375335 36.695109824 7.993067069 35.382881376 6.5 34.0625 C5.8296875 33.475976562 5.159375 32.889453125 4.46875 32.28515625 C3.9840625 31.861054688 3.499375 31.436953125 3 31 C6.803458775 31 7.777010154 32.137863313 10.6875 34.5 C11.899863281 35.47453125 11.899863281 35.47453125 13.13671875 36.46875 C13.751601563 36.9740625 14.366484375 37.479375 15 38 C15.340551971 34.754341417 15.340551971 34.754341417 12.5 32.3125 C11.675 31.549375 10.85 30.78625 10 30 C10.598125 30.33 11.19625 30.66 11.8125 31 C14.053864709 32.20787988 14.053864709 32.20787988 17 32 C16.67 30.68 16.34 29.36 16 28 C16.66 28 17.32 28 18 28 C17.360625 27.05125 16.72125 26.1025 16.0625 25.125 C14 22 14 22 13 20 C13.99 20.33 14.98 20.66 16 21 C16 18.69 16 16.38 16 14 C11.71 12.35 7.42 10.7 3 9 C6.778656928 7.740447691 8.034117861 8.519128111 11.6875 9.9375 C13.178300781 10.507910156 13.178300781 10.507910156 14.69921875 11.08984375 C15.458476563 11.390195312 16.217734375 11.690546875 17 12 C17 10.02 17 8.04 17 6 C16.191757812 5.806640625 15.383515625 5.61328125 14.55078125 5.4140625 C13.482148438 5.153671875 12.413515625 4.89328125 11.3125 4.625 C10.256757813 4.369765625 9.201015625 4.11453125 8.11328125 3.8515625 C5.295932343 3.080945108 2.683316749 2.145014568 0 1 C0 0.67 0 0.34 0 0 Z " fill="#676359" transform="translate(165,107)" />
<path d="M0 0 C5.821356711 1.947830382 9.719426946 4.830612157 13 10 C13.661064614 12.73305818 13.853623455 15.170053455 14 18 C7.905665564 16.942819537 1.853720936 15.766959623 -4.1875 14.4375 C-8.065660453 13.585157043 -11.861677668 12.833998299 -15.8125 12.4375 C-16.864375 12.293125 -17.91625 12.14875 -19 12 C-19.33 11.34 -19.66 10.68 -20 10 C-21.978889607 9.273060961 -23.979545575 8.601837488 -26 8 C-26 7.01 -26 6.02 -26 5 C-24.96359375 4.806640625 -23.9271875 4.61328125 -22.859375 4.4140625 C-21.489523909 4.151351332 -20.119735478 3.88831329 -18.75 3.625 C-18.068085938 3.498671875 -17.386171875 3.37234375 -16.68359375 3.2421875 C-10.544405744 2.050112159 -6.372705543 -0.637270554 0 0 Z " fill="#B0AB9D" transform="translate(169,88)" />
<path d="M0 0 C6.038810642 6.038810642 7.357018819 18.897533518 7.5625 27.125 C7.372432231 32.882214044 6.540904622 36.463215953 3 41 C2.34 41 1.68 41 1 41 C0.67 40.67 0.34 40.34 0 40 C-0.99 40 -1.98 40 -3 40 C-3.99 39.67 -4.98 39.34 -6 39 C-5.690625 38.044804688 -5.38125 37.089609375 -5.0625 36.10546875 C-3.764689555 31.557419999 -3.392309707 27.011280043 -3 22.3125 C-2.316245791 14.795347664 -1.417443503 7.418959612 0 0 Z " fill="#E4E0D3" transform="translate(106,142)" />
<path d="M0 0 C3.595922784 2.876738228 4.571723086 5.380122288 5.49609375 9.84375 C6.020378981 12.087203082 6.767967609 14.113398317 7.625 16.25 C9 20 9 20 9 24 C8.38125 23.814375 7.7625 23.62875 7.125 23.4375 C4.958398218 22.763138241 4.958398218 22.763138241 3 24 C2.67 22.68 2.34 21.36 2 20 C0.166549234 28.381489216 -0.218323726 36.572406119 -0.25 45.125 C-0.259023438 46.1253125 -0.268046875 47.125625 -0.27734375 48.15625 C-0.253323196 54.257470665 0.392694237 59.78962117 1.864257812 65.718261719 C2 68 2 68 0.674804688 69.809082031 C-1 71 -1 71 -3 71 C-2.976796875 70.165976563 -2.95359375 69.331953125 -2.9296875 68.47265625 C-2.831964646 62.378938304 -3.006754167 56.909126729 -4.5546875 51.01171875 C-5.230113707 47.960451238 -5.132464992 45.112927317 -5 42 C-4.34 42 -3.68 42 -3 42 C-3 41.046335449 -3 40.092670898 -3 39.110107422 C-3 28.406738281 -3 17.703369141 -3 7 C-1.68 6.34 -0.36 5.68 1 5 C-0.32 4.67 -1.64 4.34 -3 4 C-2.67 3.01 -2.34 2.02 -2 1 C-1.34 0.67 -0.68 0.34 0 0 Z " fill="#E2DDD1" transform="translate(117,106)" />
<path d="M0 0 C5.44429437 1.319828938 9.019286379 5.447325017 12 10 C12 14 12 14 11 17 C9.68 16.67 8.36 16.34 7 16 C8.32 17.32 9.64 18.64 11 20 C10.34 20.99 9.68 21.98 9 23 C-3.913043478 13.231267345 -3.913043478 13.231267345 -9 8 C-9 7.34 -9 6.68 -9 6 C-10.65 6.66 -12.3 7.32 -14 8 C-14.33 6.68 -14.66 5.36 -15 4 C-14.01 3.67 -13.02 3.34 -12 3 C-11.67 2.34 -11.34 1.68 -11 1 C-9.394829026 1.087335757 -7.790783379 1.195522243 -6.1875 1.3125 C-4.847519531 1.399511719 -4.847519531 1.399511719 -3.48046875 1.48828125 C-0.693960004 2.06313581 0.241357545 2.820685595 2 5 C1.34 3.35 0.68 1.7 0 0 Z " fill="#C1BEB3" transform="translate(171,123)" />
<path d="M0 0 C0.53625 0.2475 1.0725 0.495 1.625 0.75 C1.955 2.07 2.285 3.39 2.625 4.75 C1.305 3.76 -0.015 2.77 -1.375 1.75 C-2.035 2.41 -2.695 3.07 -3.375 3.75 C-2.055 4.41 -0.735 5.07 0.625 5.75 C0.295 7.07 -0.035 8.39 -0.375 9.75 C-0.375 8.76 -0.375 7.77 -0.375 6.75 C-2.355 7.74 -2.355 7.74 -4.375 8.75 C-4.045 9.41 -3.715 10.07 -3.375 10.75 C-3.277425734 12.892767708 -3.24422854 15.038606565 -3.2421875 17.18359375 C-3.240253906 19.116220703 -3.240253906 19.116220703 -3.23828125 21.087890625 C-3.24142334 22.096864014 -3.24142334 22.096864014 -3.244628906 23.126220703 C-3.249970086 25.176019646 -3.244684541 27.225598591 -3.23828125 29.275390625 C-3.239570313 30.565097656 -3.240859375 31.854804688 -3.2421875 33.18359375 C-3.24331543 34.370095215 -3.244443359 35.55659668 -3.245605469 36.779052734 C-3.375 39.75 -3.375 39.75 -4.375 42.75 C-5.035 42.75 -5.695 42.75 -6.375 42.75 C-6.705 44.07 -7.035 45.39 -7.375 46.75 C-8.924446061 41.931249617 -9.62348584 37.903816703 -9.60546875 32.79296875 C-9.603535156 31.516152344 -9.601601562 30.239335938 -9.599609375 28.923828125 C-9.587363281 27.608339844 -9.575117187 26.292851563 -9.5625 24.9375 C-9.56104132 23.58919334 -9.560383424 22.240885564 -9.560546875 20.892578125 C-9.515516993 11.031033986 -9.515516993 11.031033986 -8.375 8.75 C-12.349975443 12.157121808 -14.242937883 16.077608552 -16.375 20.75 C-16.705 20.09 -17.035 19.43 -17.375 18.75 C-14.708214066 11.869935833 -8.888884473 -0.93567205 0 0 Z " fill="#999488" transform="translate(118.375,105.25)" />
<path d="M0 0 C2.375 0.8125 2.375 0.8125 4.375 2.8125 C4.999275099 5.621737946 5.393022766 8.434797343 5.8125 11.28125 C6.171674386 13.967091381 6.171674386 13.967091381 8.375 15.8125 C8.052601757 20.955519594 6.080591007 25.303456394 4 29.9375 C3.69578125 30.640039062 3.3915625 31.342578125 3.078125 32.06640625 C-0.063651363 39.168969054 -0.063651363 39.168969054 -2.625 41.8125 C-3.615 41.8125 -4.605 41.8125 -5.625 41.8125 C-4.654367787 39.342197295 -3.665062077 36.899496115 -2.5546875 34.48828125 C0.039189304 28.676075819 1.739828423 23.189345406 0.375 16.8125 C-1.979127662 14.208352858 -1.979127662 14.208352858 -4.625 11.8125 C-5.624702479 8.858605237 -6.175161784 5.894227477 -6.625 2.8125 C-4.265033699 0.627346018 -3.281188806 -0.234370629 0 0 Z " fill="#BCB9AC" transform="translate(160.625,132.1875)" />
<path d="M0 0 C6.509343916 2.712226632 12.466332693 5.494832555 17 11 C16.01 11 15.02 11 14 11 C14.495 11.45375 14.99 11.9075 15.5 12.375 C17 14 17 14 17 16 C17.66 16 18.32 16 19 16 C19 16.66 19 17.32 19 18 C19.66 18 20.32 18 21 18 C21 18.66 21 19.32 21 20 C20.01 20 19.02 20 18 20 C18.61875 20.721875 19.2375 21.44375 19.875 22.1875 C21.836663532 24.783819381 22.953159998 26.946716661 24 30 C21.125 30.125 21.125 30.125 18 30 C17.34 29.34 16.68 28.68 16 28 C15.01 28 14.02 28 13 28 C12.54625 26.9275 12.0925 25.855 11.625 24.75 C10.499114626 22.119376827 9.320797942 19.539996042 8 17 C8.99 17 9.98 17 11 17 C8.022704325 11.093576235 8.022704325 11.093576235 3 7 C2.01 7 1.02 7 0 7 C0.33 5.35 0.66 3.7 1 2 C-4.050095945 1.062139176 -4.050095945 1.062139176 -9 2 C-9 1.34 -9 0.68 -9 0 C-5.873651766 -1.563174117 -3.241053155 -0.910847697 0 0 Z " fill="#ADA99A" transform="translate(121,98)" />
<path d="M0 0 C2 3 2 3 1.7578125 5.69921875 C1.548984375 6.685351563 1.34015625 7.671484375 1.125 8.6875 C0.921328125 9.681367188 0.71765625 10.675234375 0.5078125 11.69921875 C0.256445313 12.838105469 0.256445313 12.838105469 0 14 C0.66 14 1.32 14 2 14 C2.33 12.02 2.66 10.04 3 8 C3.33 8 3.66 8 4 8 C3.824824325 18.160189166 -1.026801125 28.595325745 -8 36 C-8.99 36 -9.98 36 -11 36 C-12 33 -12 33 -10.96875 30.87890625 C-9.990760769 29.336492383 -9.011596367 27.794823014 -8.03125 26.25390625 C-6.805120345 23.574069845 -7.148093598 22.729463276 -8 20 C-7.67 19.01 -7.34 18.02 -7 17 C-7.66 17 -8.32 17 -9 17 C-10.382324432 18.626264038 -11.719375153 20.292500203 -13 22 C-13.66 21.67 -14.32 21.34 -15 21 C-14.3125 18.125 -14.3125 18.125 -13 15 C-10.625 13.9375 -10.625 13.9375 -8 13 C-4.324116077 9.212725655 -2.207604188 4.732257914 0 0 Z " fill="#AAA899" transform="translate(94,72)" />
<path d="M0 0 C6.836632398 6.097537003 8.486632348 13.29062147 11.03515625 21.81640625 C11.353554688 22.866992188 11.671953125 23.917578125 12 25 C12.308085938 26.102148438 12.616171875 27.204296875 12.93359375 28.33984375 C13.285507812 29.217695312 13.637421875 30.095546875 14 31 C14.99 31.33 15.98 31.66 17 32 C18.540394885 33.885581414 19.852561918 35.872312332 21.20703125 37.89453125 C25.550784093 42.995365198 29.838847689 44.46781671 36.28125 45.0625 C37.56515625 45.1553125 37.56515625 45.1553125 38.875 45.25 C39.754140625 45.32734375 40.63328125 45.4046875 41.5390625 45.484375 C43.691433637 45.671537708 45.845597388 45.837886536 48 46 C48 46.99 48 47.98 48 49 C40.320772404 51.307551149 31.528039836 51.226196267 24.3125 47.6875 C19.313746532 44.889878311 17.000085125 42.382300879 14.8671875 37.0390625 C13.949442779 34.88112221 12.865100594 32.875071687 11.75 30.8125 C7.906820292 23.266317351 5.457581344 15.126377254 2.740722656 7.126464844 C1.902000807 4.718664149 0.984422873 2.351946273 0 0 Z " fill="#45423C" transform="translate(181,94)" />
<path d="M0 0 C2.69164132 1.875992435 4.79664141 4.063743382 7.0625 6.4375 C7.880410156 7.172265625 7.880410156 7.172265625 8.71484375 7.921875 C12.981586053 11.817159738 12.981586053 11.817159738 13.4375 15.3125 C13.31375 16.01375 13.19 16.715 13.0625 17.4375 C12.4025 16.7775 11.7425 16.1175 11.0625 15.4375 C10.4025 18.0775 9.7425 20.7175 9.0625 23.4375 C8.4025 23.4375 7.7425 23.4375 7.0625 23.4375 C7.146289063 22.83421875 7.230078125 22.2309375 7.31640625 21.609375 C7.469160156 20.410546875 7.469160156 20.410546875 7.625 19.1875 C7.729414062 18.39859375 7.833828125 17.6096875 7.94140625 16.796875 C8.062773495 14.432171262 7.758832569 12.686396298 7.0625 10.4375 C6.759570313 11.11296875 6.456640625 11.7884375 6.14453125 12.484375 C3.768346995 17.543819628 1.947421703 21.366977787 -2.9375 24.4375 C-3.5975 23.7775 -4.2575 23.1175 -4.9375 22.4375 C-4.6075 21.426875 -4.2775 20.41625 -3.9375 19.375 C-2.024364925 12.534509838 -2.881226772 7.677391173 -5.9375 1.4375 C-2.549845679 -0.740277778 -2.549845679 -0.740277778 0 0 Z " fill="#E6E3D5" transform="translate(86.9375,62.5625)" />
<path d="M0 0 C0.66 0.99 1.32 1.98 2 3 C1.5390625 5.04296875 1.5390625 5.04296875 0.625 7.1875 C0.180273438 8.260644531 0.180273438 8.260644531 -0.2734375 9.35546875 C-0.513203125 9.898164063 -0.75296875 10.440859375 -1 11 C2.133479212 3.472647702 2.133479212 3.472647702 5.75 1.5 C6.4925 1.335 7.235 1.17 8 1 C7.01 2.485 7.01 2.485 6 4 C5.722896368 7.104799492 5.722896368 7.104799492 5.8046875 10.63671875 C5.811132813 11.935449219 5.817578125 13.234179688 5.82421875 14.572265625 C5.840929396 15.94401307 5.857859287 17.315757861 5.875 18.6875 C5.885033261 20.070957184 5.894158509 21.454421273 5.90234375 22.837890625 C5.925950328 26.225434521 5.958879633 29.612630718 6 33 C3.889556177 29.834334265 3.244479233 27.488025847 2.375 23.8125 C1.984414063 22.182480469 1.984414063 22.182480469 1.5859375 20.51953125 C1.295898438 19.272363281 1.295898438 19.272363281 1 18 C1 20.31 1 22.62 1 25 C-2.14191424 23.463953038 -5.085967383 21.942688411 -8 20 C-6.751402947 12.383557977 -3.929959691 6.611724637 0 0 Z " fill="#DCD8CB" transform="translate(104,112)" />
<path d="M0 0 C6.683912677 3.373189575 10.167272091 7.463202082 12.671875 14.37890625 C13.274402194 16.22727024 13.862692032 18.080328964 14.4375 19.9375 C14.740429688 20.870136719 15.043359375 21.802773438 15.35546875 22.763671875 C16.698261625 26.950201661 17.881183149 31.048503912 18.6875 35.375 C13.682087416 29.146674115 11.544137664 21.444447684 9.59375 13.796875 C8.413998569 10.644091002 6.620605186 8.116206535 4.6875 5.375 C5.051015625 6.2721875 5.41453125 7.169375 5.7890625 8.09375 C6.297262348 9.354010538 6.805040651 10.614441109 7.3125 11.875 C7.58175293 12.542653809 7.851005859 13.210307617 8.128417969 13.898193359 C9.566427115 17.488202829 10.961952572 21.087204195 12.28125 24.72265625 C12.538256836 25.427773438 12.795263672 26.132890625 13.060058594 26.859375 C13.549008452 28.209777722 14.031482869 29.562548922 14.506347656 30.91796875 C16.077181065 35.246388518 18.024694817 38.666500936 20.6875 42.375 C20.1925 43.365 20.1925 43.365 19.6875 44.375 C15.811936185 39.026721935 12.826325591 33.845222335 10.546875 27.63671875 C9.603094946 25.038920668 9.603094946 25.038920668 7.6875 21.375 C7.3575 24.345 7.0275 27.315 6.6875 30.375 C6.3575 30.375 6.0275 30.375 5.6875 30.375 C5.66171875 29.084648437 5.6359375 27.794296875 5.609375 26.46484375 C5.553064169 24.747363394 5.495717518 23.029916782 5.4375 21.3125 C5.423320313 20.464941406 5.409140625 19.617382812 5.39453125 18.744140625 C5.166168318 12.829540689 4.125325367 9.228032166 0.6875 4.375 C-4.658482744 0.229135831 -8.567208902 -1.06731417 -15.3125 -0.625 C-17.409615733 0.012742284 -19.398846148 0.76985469 -21.41796875 1.62109375 C-25.784638849 3.358758346 -29.61366746 3.465362164 -34.3125 3.375 C-34.3125 3.045 -34.3125 2.715 -34.3125 2.375 C-33.264492187 2.097851562 -32.216484375 1.820703125 -31.13671875 1.53515625 C-29.757799326 1.169320485 -28.378893801 0.803432331 -27 0.4375 C-25.964560547 0.163896484 -25.964560547 0.163896484 -24.908203125 -0.115234375 C-9.117117659 -4.310933412 -9.117117659 -4.310933412 0 0 Z " fill="#312E25" transform="translate(177.3125,89.625)" />
<path d="M0 0 C0.99 0.66 1.98 1.32 3 2 C3 2.66 3 3.32 3 4 C3.66 4 4.32 4 5 4 C6.7265625 5.6796875 6.7265625 5.6796875 8.625 7.875 C9.572460938 8.953945312 9.572460938 8.953945312 10.5390625 10.0546875 C12 12 12 12 12 14 C12.66 14 13.32 14 14 14 C14.495 15.98 14.495 15.98 15 18 C11.332960035 16.777653345 10.728938012 15.530623724 8.5 12.4375 C1.849405068 3.91109624 -7.062566409 -1.88150319 -17 -6 C-17.769570313 -6.3196875 -18.539140625 -6.639375 -19.33203125 -6.96875 C-34.12515177 -12.000740602 -49.893632576 -9.728950818 -64 -4 C-65.325242402 -3.635827698 -66.655707748 -3.285949697 -68 -3 C-67 -6 -67 -6 -64.99609375 -7.09765625 C-64.151757812 -7.416054688 -63.307421875 -7.734453125 -62.4375 -8.0625 C-61.611210938 -8.383476563 -60.784921875 -8.704453125 -59.93359375 -9.03515625 C-38.567012245 -16.062513949 -18.420556974 -12.455447893 0 0 Z " fill="#AF7065" transform="translate(166,51)" />
<path d="M0 0 C3.428353955 1.238016706 6.421832648 2.374635076 9 5 C9.42578125 7.70703125 9.42578125 7.70703125 9.3125 10.8125 C9.288007812 11.829570313 9.263515625 12.846640625 9.23828125 13.89453125 C9 17 9 17 8.50390625 19.84375 C8.102992384 22.354900416 7.886648466 24.670186508 7.7890625 27.19921875 C7.760703125 27.933339844 7.73234375 28.667460938 7.703125 29.423828125 C7.650646234 30.944400357 7.60649714 32.465280918 7.5703125 33.986328125 C7.336865548 39.496648877 7.336865548 39.496648877 5.6484375 42.01953125 C4 43 4 43 1 43 C1.323554688 42.37609375 1.647109375 41.7521875 1.98046875 41.109375 C3.396548036 36.790604456 3.3386076 32.767838635 3.3125 28.25 C3.311210937 27.330012207 3.309921875 26.410024414 3.30859375 25.462158203 C3.188651516 16.762598038 1.866669187 8.477789224 0 0 Z " fill="#D3CFC7" transform="translate(95,133)" />
<path d="M0 0 C3.082545801 0.89231589 4.629716401 1.382860668 6.3125 4.1875 C7.822176253 10.363448308 7.207244103 14.520957991 4 20 C2.739732023 17.479464046 3.081255545 16.145790202 3.4375 13.375 C3.539335937 12.557734375 3.641171875 11.74046875 3.74609375 10.8984375 C3.829882813 10.271953125 3.913671875 9.64546875 4 9 C3.853046875 9.591679688 3.70609375 10.183359375 3.5546875 10.79296875 C1.8857616 16.672575511 0.238558444 19.725900972 -5 23 C-5.99 22.67 -6.98 22.34 -8 22 C-7.071875 21.484375 -6.14375 20.96875 -5.1875 20.4375 C-1.408269794 17.962684948 -0.451181808 15.192303002 1 11 C0.34 11 -0.32 11 -1 11 C-1.33 10.34 -1.66 9.68 -2 9 C-2.99 11.64 -3.98 14.28 -5 17 C-5.66 17 -6.32 17 -7 17 C-7.28875 16.0925 -7.5775 15.185 -7.875 14.25 C-8.862891798 11.127896798 -8.862891798 11.127896798 -10.125 8.875 C-11 7 -11 7 -11 3 C-9.02 2.67 -7.04 2.34 -5 2 C-5 2.66 -5 3.32 -5 4 C-4.01 4.33 -3.02 4.66 -2 5 C-1.67 5.33 -1.34 5.66 -1 6 C-0.67 4.02 -0.34 2.04 0 0 Z " fill="#888275" transform="translate(78,64)" />
<path d="M0 0 C4.950074774 0.489251576 9.295981038 2.743221376 13.75 4.8125 C14.529882813 5.156035156 15.309765625 5.499570312 16.11328125 5.853515625 C16.854492188 6.197050781 17.595703125 6.540585937 18.359375 6.89453125 C19.034521484 7.202375488 19.709667969 7.510219727 20.405273438 7.827392578 C22 9 22 9 22.727539062 11.131591797 C22.862407227 12.056453857 22.862407227 12.056453857 23 13 C23.33 12.34 23.66 11.68 24 11 C25.772606308 11.451427752 27.543036796 11.911405231 29.3125 12.375 C30.298632812 12.630234375 31.284765625 12.88546875 32.30078125 13.1484375 C35 14 35 14 38 16 C38.408439235 18.712036518 38.133368668 21.243714204 38 24 C36.0625 23.25 36.0625 23.25 34 22 C33.825251465 21.015921631 33.825251465 21.015921631 33.646972656 20.011962891 C33.43347168 19.348015137 33.219970703 18.684067383 33 18 C31.034390914 17.02836253 31.034390914 17.02836253 28.5859375 16.55859375 C22.871300119 15.052118499 17.878146254 12.736756754 12.625 10.0625 C11.749726563 9.632597656 10.874453125 9.202695312 9.97265625 8.759765625 C5.71788469 6.619388176 2.098787717 4.730663425 -1 1 C-0.67 0.67 -0.34 0.34 0 0 Z " fill="#E5E1D5" transform="translate(144,105)" />
<path d="M0 0 C0.99 0 1.98 0 3 0 C2.715176323 1.418058307 2.42181856 2.83440379 2.125 4.25 C1.962578125 5.03890625 1.80015625 5.8278125 1.6328125 6.640625 C1.00849925 8.968311438 0.151614576 10.890319516 -1 13 C-0.0409375 13.928125 -0.0409375 13.928125 0.9375 14.875 C3.44350212 17.38100212 5.819604866 19.988407546 8.1875 22.625 C8.96609375 23.483515625 9.7446875 24.34203125 10.546875 25.2265625 C12.224045445 27.122726538 13.858137875 29.057641267 15.453125 31.0234375 C21.360093843 38.168307606 21.360093843 38.168307606 29.86328125 40.80859375 C31.415957031 40.903339844 31.415957031 40.903339844 33 41 C34.619258591 41.171264422 36.23769405 41.350399902 37.85546875 41.53515625 C42.566551947 42.068262898 47.280800245 42.544553617 52 43 C52 43.66 52 44.32 52 45 C44.712046982 45.336943033 37.683495458 45.03499245 30.5 43.8125 C29.830332031 43.711550293 29.160664062 43.610600586 28.470703125 43.506591797 C23.528033173 42.58388541 21.224503482 40.766482845 18 37 C17.281992187 36.209804687 16.563984375 35.419609375 15.82421875 34.60546875 C14.766542969 33.408574219 14.766542969 33.408574219 13.6875 32.1875 C7.624570202 25.314130275 7.624570202 25.314130275 1 19 C0.34 19 -0.32 19 -1 19 C-2.037895815 17.35666496 -3.035679239 15.687561332 -4 14 C-4.66 13.34 -5.32 12.68 -6 12 C-5.01 11.1028125 -5.01 11.1028125 -4 10.1875 C-1.6626154 8.124981665 -1.6626154 8.124981665 -2 5 C-1.374003829 3.31763529 -0.71247732 1.647603803 0 0 Z " fill="#3E3B32" transform="translate(91,49)" />
<path d="M0 0 C4.922932638 2.235228606 5.84750822 3.231524117 8.875 8.27734375 C-1.025 8.27734375 -10.925 8.27734375 -21.125 8.27734375 C-18.207349995 6.332243747 -16.499627148 5.824580585 -13.125 5.27734375 C-13.125 3.95734375 -13.125 2.63734375 -13.125 1.27734375 C-8.931615916 -1.406422064 -4.701248516 -1.598770176 0 0 Z " fill="#DCD4CB" transform="translate(171.125,88.72265625)" />
<path d="M0 0 C0 0.66 0 1.32 0 2 C-1.65 1.67 -3.3 1.34 -5 1 C-4.67 1.66 -4.34 2.32 -4 3 C-2.72125 2.814375 -1.4425 2.62875 -0.125 2.4375 C3.75 1.875 3.75 1.875 6 3 C6 3.66 6 4.32 6 5 C5.34 5 4.68 5 4 5 C3.67 8.63 3.34 12.26 3 16 C1.68 15.34 0.36 14.68 -1 14 C-1.99 14.495 -1.99 14.495 -3 15 C-3 11.7 -3 8.4 -3 5 C-4.98 5 -6.96 5 -9 5 C-9 5.66 -9 6.32 -9 7 C-7.68 6.67 -6.36 6.34 -5 6 C-4.375 8.8125 -4.375 8.8125 -4 12 C-4.99 13.485 -4.99 13.485 -6 15 C-6 13.02 -6 11.04 -6 9 C-6.99 9 -7.98 9 -9 9 C-8.67 10.98 -8.34 12.96 -8 15 C-8.99 15 -9.98 15 -11 15 C-11.33 11.04 -11.66 7.08 -12 3 C-3.964285714 -1.419642857 -3.964285714 -1.419642857 0 0 Z " fill="#BB7062" transform="translate(134,55)" />
<path d="M0 0 C0.33 0.66 0.66 1.32 1 2 C0.01 2.66 -0.98 3.32 -2 4 C-1.67 4.99 -1.34 5.98 -1 7 C-1.99 7 -2.98 7 -4 7 C-4 7.66 -4 8.32 -4 9 C-3.34 9 -2.68 9 -2 9 C-2 9.66 -2 10.32 -2 11 C-1.34 11 -0.68 11 0 11 C0 12.32 0 13.64 0 15 C-1.65 15.33 -3.3 15.66 -5 16 C-5 15.34 -5 14.68 -5 14 C-4.34 14 -3.68 14 -3 14 C-3 13.34 -3 12.68 -3 12 C-6.3 12.33 -9.6 12.66 -13 13 C-13.33 12.01 -13.66 11.02 -14 10 C-12.35 10.33 -10.7 10.66 -9 11 C-9 10.34 -9 9.68 -9 9 C-10.32 8.34 -11.64 7.68 -13 7 C-13 5.68 -13 4.36 -13 3 C-13.66 3 -14.32 3 -15 3 C-15 2.01 -15 1.02 -15 0 C-10.110522085 -1.466843375 -4.948774219 -1.053905621 0 0 Z " fill="#EEDCCE" transform="translate(143,46)" />
<path d="M0 0 C2.567942423 1.805884696 4.93791358 3.621508786 7 6 C6.6875 8.875 6.6875 8.875 6 12 C6.950773877 13.73820978 6.950773877 13.73820978 8.20703125 15.52734375 C9.632039184 18.229443484 10.088771247 19.495814261 9.553466797 22.536132812 C8.50971346 25.341075261 7.31168157 27.997602289 6 30.6875 C5.586210937 31.611113281 5.172421875 32.534726562 4.74609375 33.486328125 C-0.560268184 45.038893527 -0.560268184 45.038893527 -5.0625 46.8125 C-8.090034903 47.105487249 -10.084102718 46.971965761 -13 46 C-13 45.34 -13 44.68 -13 44 C-11.9275 43.525625 -10.855 43.05125 -9.75 42.5625 C-4.473890881 39.58267319 -3.001986204 34.51026955 -1.41015625 28.93359375 C-0.342180527 23.898851057 -0.765387484 19.608888314 -3 15 C-0.504911381 16.715373425 0.832957526 18.119814655 1.40625 21.140625 C1.727244877 29.646989235 -1.323429157 36.985143736 -6 44 C-2.836329129 43.301488402 -2.836329129 43.301488402 -1.53515625 40.62890625 C4.53356318 30.158879541 4.53356318 30.158879541 6.66015625 18.828125 C6.046625722 16.965304978 6.046625722 16.965304978 5 15.25 C3.989201373 12.975703089 3.782370362 11.391971188 3.5625 8.9375 C2.953723976 4.671593728 2.953723976 4.671593728 0 2 C0 1.34 0 0.68 0 0 Z " fill="#2F2B23" transform="translate(161,130)" />
<path d="M0 0 C2.823995623 2.823995623 3.07317173 6.090403225 3.875 9.875 C5.061969602 15.252675856 6.390808373 20.429812051 8.25 25.625 C9.794352395 30.00468687 10.419905285 33.381041866 10 38 C8.596306176 35.338721746 7.542810114 32.780287764 6.7109375 29.890625 C6.491796875 29.136523437 6.27265625 28.382421875 6.046875 27.60546875 C5.82515625 26.828164063 5.6034375 26.050859375 5.375 25.25 C5.030820312 24.060839844 5.030820312 24.060839844 4.6796875 22.84765625 C4.116345192 20.899430769 3.557707078 18.949846121 3 17 C1.377601843 24.856896737 -0.093609133 32.529795408 -0.5 40.5625 C-0.778704367 45.751145132 -1.508116489 49.449604023 -4 54 C-6.64 54 -9.28 54 -12 54 C-12 53.67 -12 53.34 -12 53 C-8.535 52.505 -8.535 52.505 -5 52 C-4.855625 51.195625 -4.71125 50.39125 -4.5625 49.5625 C-4 47 -4 47 -3 46 C-2.808052404 43.516868401 -2.66961305 41.049659541 -2.5625 38.5625 C-2.10155917 29.324767896 -1.105881457 20.179889764 0 11 C-1.32 10.34 -2.64 9.68 -4 9 C-3.34 8.67 -2.68 8.34 -2 8 C-1.34 8.33 -0.68 8.66 0 9 C0 6.03 0 3.06 0 0 Z " fill="#2F2B24" transform="translate(104,127)" />
<path d="M0 0 C0.66 0 1.32 0 2 0 C2.33 0.66 2.66 1.32 3 2 C3.66 1.67 4.32 1.34 5 1 C10.75 5.625 10.75 5.625 13 9 C13 9.99 13 10.98 13 12 C12.01 12 11.02 12 10 12 C10.349335938 12.542695313 10.698671875 13.085390625 11.05859375 13.64453125 C11.513632812 14.359960938 11.968671875 15.075390625 12.4375 15.8125 C13.116191406 16.874042969 13.116191406 16.874042969 13.80859375 17.95703125 C15 20 15 20 16 23 C17.499856093 24.667103464 17.499856093 24.667103464 19 26 C16.67578125 26.2265625 16.67578125 26.2265625 14 26 C12.48046875 24.5234375 12.48046875 24.5234375 11.1875 22.375 C10.446933594 21.160703125 10.446933594 21.160703125 9.69140625 19.921875 C9.133242188 18.95765625 8.575078125 17.9934375 8 17 C7.280531724 15.796525793 6.560446025 14.593420548 5.83984375 13.390625 C5.099695567 12.136516619 4.361406486 10.881309139 3.625 9.625 C3.266882324 9.018334961 2.908764648 8.411669922 2.539794922 7.786621094 C0.925494292 4.967600867 0 3.305444753 0 0 Z " fill="#DAD5C4" transform="translate(119,103)" />
<path d="M0 0 C1.816894531 0.169677734 1.816894531 0.169677734 4.0078125 0.74609375 C5.214858398 1.047492676 5.214858398 1.047492676 6.446289062 1.354980469 C7.289013672 1.567836914 8.131738281 1.780693359 9 2 C10.641394617 2.353676046 12.284660972 2.698777363 13.9296875 3.03515625 C15.15171875 3.289423828 15.15171875 3.289423828 16.3984375 3.548828125 C18.072727008 3.896097952 19.74721185 4.242427138 21.421875 4.587890625 C22.632304688 4.840224609 22.632304688 4.840224609 23.8671875 5.09765625 C24.59019043 5.247268066 25.313193359 5.396879883 26.058105469 5.551025391 C28 6 28 6 31 7 C31 8.98 31 10.96 31 13 C19.528058972 10.719862653 8.839893061 6.285078581 -2 2 C-1.34 1.34 -0.68 0.68 0 0 Z " fill="#E5E2D3" transform="translate(152,99)" />
<path d="M0 0 C0.33 1.32 0.66 2.64 1 4 C1.99 3.67 2.98 3.34 4 3 C3.1875 4.9375 3.1875 4.9375 2 7 C1.01 7.33 0.02 7.66 -1 8 C-1.701511522 9.315334104 -2.365259255 10.651175916 -3 12 C-4.625 13.75 -4.625 13.75 -6 15 C-5.67 13.68 -5.34 12.36 -5 11 C-10.419258657 15.991422447 -11.99429766 19.792466562 -13 27 C-13.99 26.01 -14.98 25.02 -16 24 C-15.34 22.35 -14.68 20.7 -14 19 C-14.66 19 -15.32 19 -16 19 C-15.835 18.21625 -15.67 17.4325 -15.5 16.625 C-14.937629297 14.11791961 -14.937629297 14.11791961 -15 12 C-15.99 12.66 -16.98 13.32 -18 14 C-16.591552823 10.784756949 -14.896552143 8.678161323 -12.375 6.25 C-11.427539063 5.329609375 -11.427539063 5.329609375 -10.4609375 4.390625 C-9.737773437 3.702265625 -9.737773437 3.702265625 -9 3 C-8.67 3.66 -8.34 4.32 -8 5 C-8.630285867 6.680762312 -9.297881063 8.347955442 -10 10 C-10 10.66 -10 11.32 -10 12 C-6.904071646 8.491281199 -5.258053771 5.508026014 -4 1 C-3.34 2.32 -2.68 3.64 -2 5 C-1.34 3.35 -0.68 1.7 0 0 Z " fill="#868375" transform="translate(104,99)" />
<path d="M0 0 C1.465739337 0.904777368 2.922357559 1.82434141 4.375 2.75 C5.187109375 3.26046875 5.99921875 3.7709375 6.8359375 4.296875 C9.085556789 6.067333502 9.959068485 7.369074193 11 10 C11.99 10 12.98 10 14 10 C15.666666667 11.666666667 17.333333333 13.333333333 19 15 C21.173465681 15.861191344 21.173465681 15.861191344 23 16 C23 16.99 23 17.98 23 19 C19.311248035 19.652476267 15.750766219 20.126786464 12 20 C8.532547907 17.523248505 6.602201803 14.932677152 5 11 C5.99 11 6.98 11 8 11 C8 10.34 8 9.68 8 9 C7.34 9 6.68 9 6 9 C6 8.34 6 7.68 6 7 C5.34 7 4.68 7 4 7 C0 2.529411765 0 2.529411765 0 0 Z " fill="#D4D2C3" transform="translate(134,107)" />
<path d="M0 0 C6.368092216 1.894895733 12.157930239 4.887734736 18.099609375 7.810546875 C18.913652344 8.204355469 19.727695313 8.598164063 20.56640625 9.00390625 C21.298029785 9.362990723 22.02965332 9.722075195 22.783447266 10.092041016 C25.027178796 11.094060807 25.027178796 11.094060807 27.663818359 11.527099609 C30.360049884 12.072882916 31.276206266 12.913302322 33 15 C32.34 15 31.68 15 31 15 C30.67 15.66 30.34 16.32 30 17 C28.02 15.68 26.04 14.36 24 13 C25.65 15.64 27.3 18.28 29 21 C25 19 25 19 23 16 C20.679512324 15.379019382 20.679512324 15.379019382 18.0625 15.25 C17.187226563 15.17265625 16.311953125 15.0953125 15.41015625 15.015625 C12.85405197 14.869554183 12.85405197 14.869554183 10 16 C10 15.01 10 14.02 10 13 C9.253632813 13.0825 8.507265625 13.165 7.73828125 13.25 C5 13 5 13 2.98046875 11.25 C2.388789062 10.5075 1.797109375 9.765 1.1875 9 C0.582929688 8.2575 -0.021640625 7.515 -0.64453125 6.75 C-1.091835938 6.1725 -1.539140625 5.595 -2 5 C1.563031852 5 2.184376834 5.686905675 4.875 7.875 C7.806832268 10.150532201 10.346799909 12.060605691 14 13 C14.99 12.67 15.98 12.34 17 12 C17 11.34 17 10.68 17 10 C15.940390625 9.529492187 14.88078125 9.058984375 13.7890625 8.57421875 C12.400836658 7.945765159 11.012826968 7.316833944 9.625 6.6875 C8.576992187 6.224404297 8.576992187 6.224404297 7.5078125 5.751953125 C4.00002215 4.14983734 2.18236807 3.273552105 0 0 Z " fill="#878476" transform="translate(147,110)" />
<path d="M0 0 C0.33 0.99 0.66 1.98 1 3 C1.99 3.33 2.98 3.66 4 4 C5.28125 6.80859375 5.28125 6.80859375 6.5 10.4375 C6.713581543 11.064790039 6.927163086 11.692080078 7.147216797 12.338378906 C8.893730403 17.519152347 10.509304415 22.740147286 12 28 C10.35 28.66 8.7 29.32 7 30 C6 28 6 28 6 25 C5.34 24.67 4.68 24.34 4 24 C1.884031006 19.180292847 1.822139438 15.157956309 2 10 C1.34 10 0.68 10 0 10 C0 6.7 0 3.4 0 0 Z " fill="#EAE4D9" transform="translate(74,94)" />
<path d="M0 0 C0.435703125 0.38671875 0.87140625 0.7734375 1.3203125 1.171875 C5.05744652 4.439845009 8.8076016 7.341405893 13 10 C12.67 10.99 12.34 11.98 12 13 C9 14 9 14 8 14 C8.33 14.99 8.66 15.98 9 17 C8.34 17.99 7.68 18.98 7 20 C7.33 20.66 7.66 21.32 8 22 C7.01 22.33 6.02 22.66 5 23 C3.68 21.68 2.36 20.36 1 19 C1.4125 17.989375 1.825 16.97875 2.25 15.9375 C2.957967606 13.553527448 3.199095737 12.463902876 2.20703125 10.15234375 C1.829335937 9.565820312 1.451640625 8.979296875 1.0625 8.375 C-1 5 -1 5 -0.75 2.0625 C-0.5025 1.381875 -0.255 0.70125 0 0 Z " fill="#E4E0D4" transform="translate(167,137)" />
<path d="M0 0 C5.44429437 1.319828938 9.019286379 5.447325017 12 10 C12 14 12 14 11 17 C6.817611656 16.452306288 4.401314548 14.101111106 1.25 11.4375 C0.26515625 10.611210938 -0.7196875 9.784921875 -1.734375 8.93359375 C-2.48203125 8.295507813 -3.2296875 7.657421875 -4 7 C-3.67 5.68 -3.34 4.36 -3 3 C-1.35 3.99 0.3 4.98 2 6 C2 3.915717906 0.780233993 1.901820358 0 0 Z " fill="#DFDBCF" transform="translate(171,123)" />
<path d="M0 0 C0.33 0 0.66 0 1 0 C1.004108887 0.678771973 1.008217773 1.357543945 1.012451172 2.056884766 C1.230898718 22.704546848 3.627883175 38.868519324 16.86328125 55.37109375 C18 57 18 57 18 59 C11.766503778 56.922167926 8.303214903 48.833285097 5.3125 43.25 C-1.075683148 29.521752109 -2.327730276 16.022581313 -1 1 C-0.67 0.67 -0.34 0.34 0 0 Z " fill="#A5685D" transform="translate(72,94)" />
<path d="M0 0 C5.32921694 5.280450313 8.259500283 8.592469349 8.59375 16.2734375 C8.588465652 18.640825364 8.556472714 21.008279895 8.5 23.375 C8.502578125 24.55578125 8.50515625 25.7365625 8.5078125 26.953125 C8.430135505 33.928519127 7.607049282 39.523978646 5 46 C2.03 46 -0.94 46 -4 46 C-2.549557292 41.890412327 -0.488892476 38.567412549 2 35 C2.33 35.66 2.66 36.32 3 37 C2.0625 39.125 2.0625 39.125 1 41 C1.99 41 2.98 41 4 41 C4 40.01 4 39.02 4 38 C4.66 38 5.32 38 6 38 C7.202153336 19.297271633 7.202153336 19.297271633 0 3 C0 2.01 0 1.02 0 0 Z " fill="#3E3A33" transform="translate(184,135)" />
<path d="M0 0 C1.32 0 2.64 0 4 0 C2.684210526 16.315789474 2.684210526 16.315789474 -2 21 C-2.33 20.01 -2.66 19.02 -3 18 C-3.4125 18.928125 -3.825 19.85625 -4.25 20.8125 C-5.934417859 23.880546815 -7.084540831 25.190404654 -10 27 C-10 23.212868073 -8.731074057 21.166455986 -7 17.8125 C-6.1646875 16.182480469 -6.1646875 16.182480469 -5.3125 14.51953125 C-4.879375 13.688085938 -4.44625 12.856640625 -4 12 C-3.34 12 -2.68 12 -2 12 C-1.939414062 11.385117188 -1.878828125 10.770234375 -1.81640625 10.13671875 C-1.732617187 9.328476563 -1.648828125 8.520234375 -1.5625 7.6875 C-1.481289062 6.886992187 -1.400078125 6.086484375 -1.31640625 5.26171875 C-1 3 -1 3 0 0 Z " fill="#E8E6D7" transform="translate(103,85)" />
<path d="M0 0 C4.43858148 1.493354517 7.895195184 3.91406348 11.5625 6.75 C12.126464844 7.16765625 12.690429688 7.5853125 13.271484375 8.015625 C17.092859602 10.94758073 19.527310698 13.864744541 22 18 C20.68 18 19.36 18 18 18 C18 17.34 18 16.68 18 16 C17.34 16 16.68 16 16 16 C16 15.34 16 14.68 16 14 C14.35 13.67 12.7 13.34 11 13 C11 12.34 11 11.68 11 11 C9.35 10.67 7.7 10.34 6 10 C6 11.32 6 12.64 6 14 C5.01 14 4.02 14 3 14 C2.34 12.35 1.68 10.7 1 9 C2.32 8.67 3.64 8.34 5 8 C5 7.01 5 6.02 5 5 C3.68 4.67 2.36 4.34 1 4 C1 3.34 1 2.68 1 2 C0.34 1.67 -0.32 1.34 -1 1 C-0.67 0.67 -0.34 0.34 0 0 Z " fill="#F6DED1" transform="translate(154,47)" />
<path d="M0 0 C2.886495001 1.4432475 3.646607504 3.099873224 5 6 C4.59963083 11.159474396 2.716514136 15.466627607 0.625 20.125 C0.32078125 20.827539062 0.0165625 21.530078125 -0.296875 22.25390625 C-3.438651363 29.356469054 -3.438651363 29.356469054 -6 32 C-6.99 32 -7.98 32 -9 32 C-8.021757387 29.536924849 -7.034243105 27.080792325 -6 24.640625 C-3.932783205 19.698684849 -2.402366468 14.999454289 -1.4921875 9.71484375 C-1.329765625 9.148945312 -1.16734375 8.583046875 -1 8 C-0.34 7.67 0.32 7.34 1 7 C1 6.34 1 5.68 1 5 C0.34 5 -0.32 5 -1 5 C-0.67 3.35 -0.34 1.7 0 0 Z " fill="#DFDBD0" transform="translate(164,142)" />
<path d="M0 0 C0 0.66 0 1.32 0 2 C-0.99 2.66 -1.98 3.32 -3 4 C-3.834147828 6.21333894 -3.834147828 6.21333894 -4.375 8.75 C-5.321795732 12.268839754 -6.204246519 14.633384273 -8.6875 17.3125 C-11.230347156 19.77273498 -11.230347156 19.77273498 -11.375 22.8125 C-11.221734837 24.970753403 -11.221734837 24.970753403 -10 26 C-7.311373356 26.399936862 -4.636477831 26.751345425 -1.9375 27.0625 C-1.178886719 27.153378906 -0.420273438 27.244257812 0.361328125 27.337890625 C2.240430099 27.562437402 4.120160948 27.781709783 6 28 C3.165460607 30.834539393 1.200987124 30.299996876 -2.75 30.3125 C-3.96171875 30.329257813 -5.1734375 30.346015625 -6.421875 30.36328125 C-10.255676165 29.974041612 -12.691850603 28.922988683 -16 27 C-15.870060895 20.762922983 -13.803814565 18.411077186 -9.5703125 13.98046875 C-7.353330455 11.184424231 -7.394170596 8.481840265 -7 5 C-2.85106383 0 -2.85106383 0 0 0 Z " fill="#3D3932" transform="translate(64,59)" />
<path d="M0 0 C-0.99 0.495 -0.99 0.495 -2 1 C-2.828040688 3.484122065 -3 5.352203073 -3 8 C-7.016528926 13.578512397 -7.016528926 13.578512397 -10.1875 14.9375 C-12 15 -12 15 -14 14 C-14.33 14.99 -14.66 15.98 -15 17 C-15.614334471 9.750853242 -15.614334471 9.750853242 -12.75 6.25 C-11.8425 5.5075 -10.935 4.765 -10 4 C-9.0409375 2.8553125 -9.0409375 2.8553125 -8.0625 1.6875 C-5.308437977 -0.565823474 -3.459688584 -0.314517144 0 0 Z " fill="#B3B0A8" transform="translate(92,50)" />
<path d="M0 0 C0.66 0.33 1.32 0.66 2 1 C1.67 1.763125 1.34 2.52625 1 3.3125 C-0.174366856 5.990691353 -0.174366856 5.990691353 0 9 C1.65 7.02 3.3 5.04 5 3 C7.200827223 6.301240834 7.172281906 7.44946285 6.75 11.25 C5.743783199 14.939461602 3.985371199 17.733744156 2 21 C1.67 19.68 1.34 18.36 1 17 C0.34 17 -0.32 17 -1 17 C-3.401902953 12.196194094 -4.665834686 9.354468632 -3 4 C-1.4375 1.625 -1.4375 1.625 0 0 Z " fill="#DAD7C7" transform="translate(81,84)" />
<path d="M0 0 C5.971667148 5.326081511 7.624787674 10.682273289 9.75 18.125 C11.894688671 25.315525971 15.294945704 31.511592108 19 38 C19.363515625 38.760546875 19.72703125 39.52109375 20.1015625 40.3046875 C21.332858295 42.628089131 22.590491342 42.996038059 25 44 C27 45 29 46 31 47 C29 48 29 48 27.265625 47.46875 C14.959766088 41.554306182 10.51007364 29.493218466 6.185302734 17.262451172 C5.013293287 13.879195501 3.868074882 10.487225127 2.724609375 7.094238281 C1.894710459 4.695696199 0.980579481 2.340893172 0 0 Z " fill="#C8C5BD" transform="translate(181,94)" />
<path d="M0 0 C2.269329422 4.538658843 -0.001553001 11.211636381 -1 16 C-2.111815298 18.925384739 -3.383457723 21.305762872 -5 24 C-5.99 23.34 -6.98 22.68 -8 22 C-7.67 20.35 -7.34 18.7 -7 17 C-7.66 17 -8.32 17 -9 17 C-10.382324432 18.626264038 -11.719375153 20.292500203 -13 22 C-13.66 21.67 -14.32 21.34 -15 21 C-14.3125 18.125 -14.3125 18.125 -13 15 C-10.625 13.9375 -10.625 13.9375 -8 13 C-4.324116077 9.212725655 -2.207604188 4.732257914 0 0 Z " fill="#9D9B8A" transform="translate(94,72)" />
<path d="M0 0 C2.351711307 0.598617423 4.685937803 1.269243517 7 2 C10.733145168 9.466290336 9.421511479 21.805320957 9 30 C8.67 30.66 8.34 31.32 8 32 C7.34 32 6.68 32 6 32 C6 32.99 6 33.98 6 35 C5.01 35 4.02 35 3 35 C3.32484375 34.153085938 3.6496875 33.306171875 3.984375 32.43359375 C6.29336568 24.627429105 5.89973804 15.611812355 3 8 C4.32 8 5.64 8 7 8 C6.2575 7.319375 6.2575 7.319375 5.5 6.625 C4 5 4 5 4 3 C2.68 2.34 1.36 1.68 0 1 C0 0.67 0 0.34 0 0 Z " fill="#DAD6CE" transform="translate(182,141)" />
<path d="M0 0 C11 5.5 11 5.5 22 11 C21.67 12.32 21.34 13.64 21 15 C11.92821613 14.613966644 5.599468092 8.75338244 -1 3 C-0.67 2.01 -0.34 1.02 0 0 Z " fill="#E2DFD0" transform="translate(144,109)" />
<path d="M0 0 C1.748020844 3.274572983 2.953086079 6.628196061 4.1875 10.125 C6.614103428 16.514577073 9.798295558 21.643324669 14 27 C14.804375 28.03125 15.60875 29.0625 16.4375 30.125 C16.953125 30.74375 17.46875 31.3625 18 32 C17.67 32.66 17.34 33.32 17 34 C15.68 34 14.36 34 13 34 C10 29.928571429 10 29.928571429 10 27 C9.34 27 8.68 27 8 27 C7.35089846 25.418003688 6.705853057 23.83434276 6.0625 22.25 C5.702851563 21.36828125 5.343203125 20.4865625 4.97265625 19.578125 C4.146434243 17.388138957 3.506300566 15.281017287 3 13 C2.34 13 1.68 13 1 13 C-0.800981211 9.172914927 -1.281431044 6.221465664 -1 2 C-0.67 1.34 -0.34 0.68 0 0 Z " fill="#F7D8C9" transform="translate(72,122)" />
</svg>