<?xml version='1.0' encoding='utf-8'?>
<svg xmlns="http://www.w3.org/2000/svg" version="1.1" width="148" height="149" viewBox="54.376278346999996 58.246885094999996 148.83309665299998 149.159004036">
<path d="M0 0 C0.886875 -0.014179688 1.77375 -0.028359375 2.6875 -0.04296875 C5 0.1875 5 0.1875 7 2.1875 C9.880979388 2.196283474 12.635992494 2.093680376 15.5 1.875 C16.285039063 1.826660156 17.070078125 1.778320312 17.87890625 1.728515625 C22.074129875 1.521018384 22.074129875 1.521018384 26 0.1875 C31.020766036 -0.565614905 31.020766036 -0.565614905 34 0.1875 C38.779996149 4.111688978 40.425060174 8.937842165 41.4609375 14.828125 C43.116406821 22.07380232 46.939908973 27.75531324 52.44921875 32.6171875 C55.305917907 35.509865236 55.964117749 37.77126589 56.3125 41.8125 C56.1578125 43.483125 56.1578125 43.483125 56 45.1875 C55.01 45.8475 54.02 46.5075 53 47.1875 C53.2784375 46.259375 53.2784375 46.259375 53.5625 45.3125 C54.236861759 43.145898218 54.236861759 43.145898218 53 41.1875 C49.769020472 40.325905459 47.775137256 39.881524768 44.625 41.125 C44.08875 41.475625 43.5525 41.82625 43 42.1875 C43 42.8475 43 43.5075 43 44.1875 C45.463267118 45.832167397 45.463267118 45.832167397 48 47.1875 C47.01 47.6825 47.01 47.6825 46 48.1875 C43.968553591 47.253034652 41.96466413 46.255252245 40 45.1875 C39.67 46.5075 39.34 47.8275 39 49.1875 C40.485 49.6825 40.485 49.6825 42 50.1875 C39.1875 50.4375 39.1875 50.4375 36 50.1875 C34.375 48.25 34.375 48.25 33 46.1875 C30.905841961 45.391261782 30.905841961 45.391261782 29 45.1875 C29 45.8475 29 46.5075 29 47.1875 C28.34 47.1875 27.68 47.1875 27 47.1875 C27.33 48.1775 27.66 49.1675 28 50.1875 C25.69 50.1875 23.38 50.1875 21 50.1875 C21.0825 51.30125 21.165 52.415 21.25 53.5625 C21.18359069 61.173006942 17.762039882 67.093015686 13.649902344 73.324707031 C7.790670384 82.327111352 5.931319373 90.571973492 5 101.1875 C4.864648437 102.339921875 4.729296875 103.49234375 4.58984375 104.6796875 C4.179570796 110.542860991 4.843710866 113.618214731 8.5625 118.25 C9.223789063 118.942226562 9.885078125 119.634453125 10.56640625 120.34765625 C11.039492188 120.954804688 11.512578125 121.561953125 12 122.1875 C11 125.1875 11 125.1875 8.90234375 126.3203125 C5.430160211 127.357761687 2.17481464 127.764202114 -1.4375 128.0625 C-2.714960937 128.183671875 -3.992421875 128.30484375 -5.30859375 128.4296875 C-9.938411392 128.125932268 -12.727860732 126.459639268 -16 123.1875 C-15.957308377 121.328279837 -15.909096591 119.469032606 -15.833984375 117.610839844 C-15.446505627 106.718632018 -17.593758828 97.479214399 -21 87.1875 C-23.125102122 87.1875 -25.250262171 87.210653003 -27.375 87.25 C-30.435360538 87.197235163 -33.041073094 86.904815614 -36 86.1875 C-35.979375 87.445625 -35.95875 88.70375 -35.9375 90 C-35.891139166 92.828010873 -36.083070387 94.436711161 -37 97.1875 C-38.080674135 106.081570347 -38.080674135 106.081570347 -35.625 114.33203125 C-34.116251838 115.655678364 -32.560764235 116.925605512 -31 118.1875 C-30.97265625 120.6953125 -30.97265625 120.6953125 -32 123.1875 C-34.46875 124.515625 -34.46875 124.515625 -37.5 125.4375 C-41.032755135 126.312299219 -41.032755135 126.312299219 -44 128.1875 C-49.175086416 128.593389131 -52.911180025 128.532898161 -57 125.1875 C-60.438940402 116.423628952 -60.465794955 107.154079345 -60.5625 97.875 C-60.597107761 95.253782523 -60.639807772 92.632656818 -60.69140625 90.01171875 C-60.70989624 88.296016846 -60.70989624 88.296016846 -60.728759766 86.545654297 C-61.030331385 82.811975071 -61.864310416 79.74667256 -63 76.1875 C-63.110698242 76.84347168 -63.221396484 77.499443359 -63.335449219 78.175292969 C-63.840375167 81.139171508 -64.357526095 84.100787652 -64.875 87.0625 C-65.049023437 88.095039063 -65.223046875 89.127578125 -65.40234375 90.19140625 C-65.576367187 91.177539062 -65.750390625 92.163671875 -65.9296875 93.1796875 C-66.165344238 94.546496582 -66.165344238 94.546496582 -66.405761719 95.940917969 C-67 98.1875 -67 98.1875 -69 100.1875 C-71.125 99.8125 -71.125 99.8125 -73 99.1875 C-72.540128606 95.891755006 -72.069091987 92.603184575 -71.5234375 89.3203125 C-70.606275008 83.721514601 -69.937289929 78.297209276 -69.75 72.625 C-68.827273948 57.877860414 -63.196339897 36.737352708 -52.117675781 26.4375 C-46.515580086 21.723617387 -41.261826517 19.606342014 -34.25 17.75 C-23.670331547 14.6664429 -12.657840323 11.34084487 -7 1.1875 C-4.522249046 -0.051375477 -2.763462927 0.020083306 0 0 Z " fill="#EBE6D8" transform="translate(137,68.8125)" />
<path d="M0 0 C0.886875 -0.014179688 1.77375 -0.028359375 2.6875 -0.04296875 C5 0.1875 5 0.1875 7 2.1875 C9.880979388 2.196283474 12.635992494 2.093680376 15.5 1.875 C16.285039063 1.826660156 17.070078125 1.778320312 17.87890625 1.728515625 C22.074129875 1.521018384 22.074129875 1.521018384 26 0.1875 C31.020766036 -0.565614905 31.020766036 -0.565614905 34 0.1875 C38.779996149 4.111688978 40.425060174 8.937842165 41.4609375 14.828125 C43.116406821 22.07380232 46.939908973 27.75531324 52.44921875 32.6171875 C55.305917907 35.509865236 55.964117749 37.77126589 56.3125 41.8125 C56.209375 42.92625 56.10625 44.04 56 45.1875 C55.01 45.8475 54.02 46.5075 53 47.1875 C53.2784375 46.259375 53.2784375 46.259375 53.5625 45.3125 C54.236861759 43.145898218 54.236861759 43.145898218 53 41.1875 C49.769020472 40.325905459 47.775137256 39.881524768 44.625 41.125 C44.08875 41.475625 43.5525 41.82625 43 42.1875 C43 42.8475 43 43.5075 43 44.1875 C45.463267118 45.832167397 45.463267118 45.832167397 48 47.1875 C47.01 47.6825 47.01 47.6825 46 48.1875 C43.968553591 47.253034652 41.96466413 46.255252245 40 45.1875 C39.67 46.5075 39.34 47.8275 39 49.1875 C39.99 49.5175 40.98 49.8475 42 50.1875 C39.1875 50.4375 39.1875 50.4375 36 50.1875 C34.375 48.25 34.375 48.25 33 46.1875 C30.905841961 45.391261782 30.905841961 45.391261782 29 45.1875 C29 45.8475 29 46.5075 29 47.1875 C28.34 47.1875 27.68 47.1875 27 47.1875 C27.33 48.1775 27.66 49.1675 28 50.1875 C25.69 50.1875 23.38 50.1875 21 50.1875 C21.0825 51.30125 21.165 52.415 21.25 53.5625 C21.18359069 61.173006942 17.762039882 67.093015686 13.649902344 73.324707031 C7.790670384 82.327111352 5.931319373 90.571973492 5 101.1875 C4.864648437 102.339921875 4.729296875 103.49234375 4.58984375 104.6796875 C4.179570796 110.542860991 4.843710866 113.618214731 8.5625 118.25 C9.223789063 118.942226562 9.885078125 119.634453125 10.56640625 120.34765625 C11.039492188 120.954804688 11.512578125 121.561953125 12 122.1875 C11 125.1875 11 125.1875 9.0625 126.375 C4.700656835 127.532223697 0.486087196 127.344295281 -4 127.1875 C-1.640469059 124.827969059 -0.221043825 124.696085867 3 124.1875 C3 123.5275 3 122.8675 3 122.1875 C2.38640625 121.9709375 1.7728125 121.754375 1.140625 121.53125 C-2.65291153 119.149905901 -3.076269854 115.293207807 -4.26171875 111.16015625 C-5.380870896 106.060075362 -5.145349579 100.99159542 -4.995361328 95.802001953 C-4.850829754 89.199376646 -6.081808514 83.498648154 -8 77.1875 C-8.351888969 75.524652129 -8.690937575 73.85883758 -9 72.1875 C-8.34 72.5175 -7.68 72.8475 -7 73.1875 C-6.67 74.1775 -6.34 75.1675 -6 76.1875 C-5.875309012 70.609199841 -5.875309012 70.609199841 -7 65.1875 C-3.137513758 68.530660361 -2.457876264 72.397335133 -1 77.1875 C-1.33 72.5675 -1.66 67.9475 -2 63.1875 C1.711901873 66.899401873 2.522060082 67.771328311 3.75 72.4375 C4.113515625 73.775546875 4.113515625 73.775546875 4.484375 75.140625 C4.65453125 75.81609375 4.8246875 76.4915625 5 77.1875 C10.143388483 66.530743243 10.143388483 66.530743243 9 55.1875 C9.66 55.1875 10.32 55.1875 11 55.1875 C9.625213725 50.951066206 7.737454645 48.64697471 4.5 45.625 C-2.985274565 38.613630805 -4.067245821 31.018020226 -4.4375 21 C-4.350659019 13.697462971 -4.350659019 13.697462971 -1.625 10.3125 C1 8.1875 1 8.1875 3 8.1875 C3 7.5275 3 6.8675 3 6.1875 C2.01 6.5175 1.02 6.8475 0 7.1875 C0 6.5275 0 5.8675 0 5.1875 C-2.948189309 5.667768481 -2.948189309 5.667768481 -6 7.1875 C-7.8376238 10.530835742 -7.8376238 10.530835742 -9 14.1875 C-9.348046875 14.819140625 -9.69609375 15.45078125 -10.0546875 16.1015625 C-13.151416401 22.934840323 -10.904224451 31.517566528 -8.48828125 38.23828125 C-5.910116997 43.347241908 -2.087129549 47.240101376 2 51.1875 C-1 51.1875 -1 51.1875 -2.90234375 49.5703125 C-7.259733807 44.736202226 -9.98535209 40.505216991 -12.125 34.36328125 C-13.215280461 31.652182068 -14.712533066 29.984795448 -17 28.1875 C-16.67 27.5275 -16.34 26.8675 -16 26.1875 C-15.34 26.5175 -14.68 26.8475 -14 27.1875 C-14.103125 26.07375 -14.20625 24.96 -14.3125 23.8125 C-14.362599799 18.221362476 -11.719719328 13.927582258 -9 9.1875 C-9.66 8.5275 -10.32 7.8675 -11 7.1875 C-7.543137261 1.771748376 -6.421090871 0.046664905 0 0 Z " fill="#7F7A6E" transform="translate(137,68.8125)" />
<path d="M0 0 C0.85078125 0.344179688 0.85078125 0.344179688 1.71875 0.6953125 C1.150273438 1.035625 0.581796875 1.3759375 -0.00390625 1.7265625 C-0.776054687 2.21125 -1.548203125 2.6959375 -2.34375 3.1953125 C-3.474902344 3.89140625 -3.474902344 3.89140625 -4.62890625 4.6015625 C-11.889868661 10.333338424 -15.553795281 16.434778218 -18.28125 25.1953125 C-18.591914062 26.093789063 -18.902578125 26.992265625 -19.22265625 27.91796875 C-21.481939091 34.878180912 -21.374400996 39.92615314 -19.352050781 46.899169922 C-16.477712128 56.857690498 -15.513252639 66.169149124 -15.15625 76.5078125 C-15.038794874 79.535651609 -14.911078958 82.562855797 -14.7734375 85.58984375 C-14.741593628 86.302302551 -14.709749756 87.014761353 -14.676940918 87.748809814 C-14.393262207 93.23693893 -13.565923692 98.360200678 -12.28125 103.6953125 C-8.98125 104.0253125 -5.68125 104.3553125 -2.28125 104.6953125 C-2.057643202 101.769848099 -2.057643202 101.769848099 -3.28125 99.6953125 C-1.28125 100.6953125 0.71875 101.6953125 2.71875 102.6953125 C1.605 101.550625 1.605 101.550625 0.46875 100.3828125 C-4.100636845 94.876115533 -6.988996219 87.168828553 -6.62109375 79.97265625 C-6.166081973 76.923554341 -5.469116834 73.950204458 -4.78125 70.9453125 C-2.212688525 59.460173335 -3.21824979 49.999241846 -6.28125 38.6953125 C-3.676435471 40.941467507 -2.847690378 42.478581974 -2.2890625 45.85546875 C-2.066699219 47.045595703 -2.066699219 47.045595703 -1.83984375 48.259765625 C-1.550348013 49.927626199 -1.269116018 51.596941863 -0.99609375 53.267578125 C-0.252711665 57.980043596 -0.252711665 57.980043596 2.93359375 61.21484375 C6.102519795 61.761516826 9.195190793 62.122596198 12.40625 62.3203125 C13.544492187 62.395078125 14.682734375 62.46984375 15.85546875 62.546875 C17.475142398 62.63084171 19.096901322 62.6953125 20.71875 62.6953125 C20.453203125 62.126835938 20.18765625 61.558359375 19.9140625 60.97265625 C16.298254768 53.068025477 14.362879445 46.414141096 14.71875 37.6953125 C16.818459815 41.612418205 17.712095625 45.381079462 18.71875 49.6953125 C19.04875 48.7053125 19.37875 47.7153125 19.71875 46.6953125 C20.04875 47.3553125 20.37875 48.0153125 20.71875 48.6953125 C21.37875 46.0553125 22.03875 43.4153125 22.71875 40.6953125 C23.04875 40.6953125 23.37875 40.6953125 23.71875 40.6953125 C24.21375 49.6053125 24.21375 49.6053125 24.71875 58.6953125 C24.05875 58.0353125 23.39875 57.3753125 22.71875 56.6953125 C23.593760532 61.547643632 24.576379869 66.295483474 25.96484375 71.02734375 C29.021572589 81.567712787 30.401407103 90.696948058 29.71875 101.6953125 C32.68875 103.0153125 35.65875 104.3353125 38.71875 105.6953125 C38.71875 106.0253125 38.71875 106.3553125 38.71875 106.6953125 C33.460050588 106.282865487 30.340748739 105.636347398 26.71875 101.6953125 C26.474348136 98.805260457 26.487038634 96.423411138 26.71875 93.5703125 C27.171464234 83.5961948 24.830575927 75.097472266 21.71875 65.6953125 C19.593647878 65.6953125 17.468487829 65.718465503 15.34375 65.7578125 C12.283389462 65.705047663 9.677676906 65.412628114 6.71875 64.6953125 C6.739375 65.9534375 6.76 67.2115625 6.78125 68.5078125 C6.827610834 71.335823373 6.635679613 72.944523661 5.71875 75.6953125 C4.638075865 84.589382847 4.638075865 84.589382847 7.09375 92.83984375 C8.602498162 94.163490864 10.157985765 95.433418012 11.71875 96.6953125 C11.74609375 99.203125 11.74609375 99.203125 10.71875 101.6953125 C8.25 103.0234375 8.25 103.0234375 5.21875 103.9453125 C1.685994865 104.820111719 1.685994865 104.820111719 -1.28125 106.6953125 C-6.456336416 107.101201631 -10.192430025 107.040710661 -14.28125 103.6953125 C-17.720190402 94.931441452 -17.747044955 85.661891845 -17.84375 76.3828125 C-17.878357761 73.761595023 -17.921057772 71.140469318 -17.97265625 68.51953125 C-17.99114624 66.803829346 -17.99114624 66.803829346 -18.010009766 65.053466797 C-18.311581385 61.319787571 -19.145560416 58.25448506 -20.28125 54.6953125 C-20.447297363 55.67927002 -20.447297363 55.67927002 -20.616699219 56.683105469 C-21.121625167 59.646984008 -21.638776095 62.608600152 -22.15625 65.5703125 C-22.330273437 66.602851563 -22.504296875 67.635390625 -22.68359375 68.69921875 C-22.857617187 69.685351562 -23.031640625 70.671484375 -23.2109375 71.6875 C-23.446594238 73.054309082 -23.446594238 73.054309082 -23.687011719 74.448730469 C-24.28125 76.6953125 -24.28125 76.6953125 -26.28125 78.6953125 C-28.40625 78.3203125 -28.40625 78.3203125 -30.28125 77.6953125 C-29.821378606 74.399567506 -29.350341987 71.110997075 -28.8046875 67.828125 C-27.887525008 62.229327101 -27.218539929 56.805021776 -27.03125 51.1328125 C-26.091796984 36.118340183 -20.347564922 15.091230896 -9.0625 4.640625 C-7.93328125 3.739570313 -7.93328125 3.739570313 -6.78125 2.8203125 C-5.65203125 1.896054687 -5.65203125 1.896054687 -4.5 0.953125 C-2.28125 -0.3046875 -2.28125 -0.3046875 0 0 Z " fill="#595142" transform="translate(94.28125,90.3046875)" />
<path d="M0 0 C6.206421899 5.043835664 10.931980927 10.068169066 14.9375 17 C17.493791433 21.395493321 20.238093777 24.596370561 24 28 C23.67 28.66 23.34 29.32 23 30 C20.36 29.67 17.72 29.34 15 29 C14.853046875 28.466328125 14.70609375 27.93265625 14.5546875 27.3828125 C12.675740851 21.141254093 10.138217419 15.099417064 6 10 C4.68 9.67 3.36 9.34 2 9 C-1.3 15.27 -4.6 21.54 -8 28 C-7.67 28 -7.34 28 -7 28 C-6.34 28 -5.68 28 -5 28 C-6.449152542 33.555084746 -6.449152542 33.555084746 -8.625 35.3125 C-12.06179418 36.307361473 -15.439438216 36.643943822 -19 37 C-19 36.34 -19 35.68 -19 35 C-19.99 35 -20.98 35 -22 35 C-22.33 35.66 -22.66 36.32 -23 37 C-26.478811601 33.902792733 -29.616449513 31.043604941 -30.5 26.3359375 C-30.5 23.515902921 -30.316586054 20.801786578 -30 18 C-29.87625 16.661953125 -29.87625 16.661953125 -29.75 15.296875 C-29.538359999 13.193702493 -29.274865198 11.095847134 -29 9 C-26.25 7.8125 -26.25 7.8125 -23 7 C-20.75 7.9375 -20.75 7.9375 -19 10 C-18.71125 11.11375 -18.4225 12.2275 -18.125 13.375 C-16.672908674 18.053960939 -14.905914131 19.197931167 -11 22 C-11.33 21.67 -11.66 21.34 -12 21 C-15.658031088 17.341968912 -15.658031088 17.341968912 -17 15 C-16.8125 11.125 -16.8125 11.125 -16 8 C-14.583442069 7.972758501 -13.166729551 7.953495334 -11.75 7.9375 C-10.566640625 7.920097656 -10.566640625 7.920097656 -9.359375 7.90234375 C-7.093089984 7.996146938 -5.171110498 8.367589373 -3 9 C-3.2475 8.443125 -3.495 7.88625 -3.75 7.3125 C-4 5 -4 5 -2.0625 2.25 C-1.381875 1.5075 -0.70125 0.765 0 0 Z " fill="#EAE6DA" transform="translate(167,78)" />
<path d="M0 0 C0.886875 -0.014179688 1.77375 -0.028359375 2.6875 -0.04296875 C5 0.1875 5 0.1875 7 2.1875 C9.880979388 2.196283474 12.635992494 2.093680376 15.5 1.875 C16.285039063 1.826660156 17.070078125 1.778320312 17.87890625 1.728515625 C22.074129875 1.521018384 22.074129875 1.521018384 26 0.1875 C31.020766036 -0.565614905 31.020766036 -0.565614905 34 0.1875 C38.779996149 4.111688978 40.425060174 8.937842165 41.4609375 14.828125 C43.116406821 22.07380232 46.939908973 27.75531324 52.44921875 32.6171875 C55.305917907 35.509865236 55.964117749 37.77126589 56.3125 41.8125 C56.209375 42.92625 56.10625 44.04 56 45.1875 C55.01 45.8475 54.02 46.5075 53 47.1875 C53.2784375 46.259375 53.2784375 46.259375 53.5625 45.3125 C54.236861759 43.145898218 54.236861759 43.145898218 53 41.1875 C49.769020472 40.325905459 47.775137256 39.881524768 44.625 41.125 C44.08875 41.475625 43.5525 41.82625 43 42.1875 C43 42.8475 43 43.5075 43 44.1875 C45.463267118 45.832167397 45.463267118 45.832167397 48 47.1875 C47.01 47.6825 47.01 47.6825 46 48.1875 C43.968553591 47.253034652 41.96466413 46.255252245 40 45.1875 C39.67 46.5075 39.34 47.8275 39 49.1875 C39.99 49.5175 40.98 49.8475 42 50.1875 C39.1875 50.4375 39.1875 50.4375 36 50.1875 C34.953745915 48.890144934 33.952987769 47.554830278 33 46.1875 C30.401442675 45.383279201 30.401442675 45.383279201 28 45.1875 C29.98 44.6925 29.98 44.6925 32 44.1875 C32.185625 42.9809375 32.185625 42.9809375 32.375 41.75 C32.58125 40.904375 32.7875 40.05875 33 39.1875 C33.66 38.8575 34.32 38.5275 35 38.1875 C34.9071875 39.8271875 34.9071875 39.8271875 34.8125 41.5 C34.644020858 45.108760827 34.644020858 45.108760827 36.5 47.125 C36.995 47.475625 37.49 47.82625 38 48.1875 C38.433125 46.82625 38.433125 46.82625 38.875 45.4375 C40 42.1875 40 42.1875 41.125 40.1875 C42.423733012 37.2189674 42.427847215 35.426914624 42 32.1875 C39.971802036 27.631855342 37.682692304 23.589400515 34 20.1875 C33.67 20.8475 33.34 21.5075 33 22.1875 C33.99 22.1875 34.98 22.1875 36 22.1875 C36 22.8475 36 23.5075 36 24.1875 C34.35 23.8575 32.7 23.5275 31 23.1875 C30.375 21.3125 30.375 21.3125 30 19.1875 C30.66 18.5275 31.32 17.8675 32 17.1875 C33.96875 17.3359375 33.96875 17.3359375 36 18.1875 C37.34375 19.7890625 37.34375 19.7890625 38.5 21.8125 C39.124550781 22.893378906 39.124550781 22.893378906 39.76171875 23.99609375 C40.170351563 24.719257813 40.578984375 25.442421875 41 26.1875 C41.398320313 26.817851562 41.796640625 27.448203125 42.20703125 28.09765625 C44.37952226 31.590530488 45.501144157 34.053060707 45 38.1875 C47.64 38.1875 50.28 38.1875 53 38.1875 C52.13375 37.23875 51.2675 36.29 50.375 35.3125 C47.88605031 32.426253176 45.906294893 29.485692751 44 26.1875 C39.467422821 18.388626995 33.410183693 11.40207371 26 6.1875 C25.67 7.5075 25.34 8.8275 25 10.1875 C24.505 7.2175 24.505 7.2175 24 4.1875 C22.830820313 4.294492187 21.661640625 4.401484375 20.45703125 4.51171875 C18.908923124 4.633690905 17.360741754 4.754735923 15.8125 4.875 C14.659111328 4.984248047 14.659111328 4.984248047 13.482421875 5.095703125 C8.578638291 5.45348991 6.162121431 5.041526124 2 2.1875 C-1.730933785 2.409978353 -1.730933785 2.409978353 -5 3.1875 C-2.36 3.8475 0.28 4.5075 3 5.1875 C2.01 5.8475 1.02 6.5075 0 7.1875 C0 6.5275 0 5.8675 0 5.1875 C-2.948189309 5.667768481 -2.948189309 5.667768481 -6 7.1875 C-7.8376238 10.530835742 -7.8376238 10.530835742 -9 14.1875 C-9.348046875 14.819140625 -9.69609375 15.45078125 -10.0546875 16.1015625 C-13.151416401 22.934840323 -10.904224451 31.517566528 -8.48828125 38.23828125 C-5.910116997 43.347241908 -2.087129549 47.240101376 2 51.1875 C-1 51.1875 -1 51.1875 -2.90234375 49.5703125 C-7.259733807 44.736202226 -9.98535209 40.505216991 -12.125 34.36328125 C-13.215280461 31.652182068 -14.712533066 29.984795448 -17 28.1875 C-16.67 27.5275 -16.34 26.8675 -16 26.1875 C-15.34 26.5175 -14.68 26.8475 -14 27.1875 C-14.103125 26.07375 -14.20625 24.96 -14.3125 23.8125 C-14.362599799 18.221362476 -11.719719328 13.927582258 -9 9.1875 C-9.66 8.5275 -10.32 7.8675 -11 7.1875 C-7.543137261 1.771748376 -6.421090871 0.046664905 0 0 Z " fill="#35322A" transform="translate(137,68.8125)" />
<path d="M0 0 C4.18333056 0.224106994 6.492234393 0.661489596 10 3 C11.931376819 3.273568432 11.931376819 3.273568432 14.01171875 3.1953125 C14.769042969 3.188867187 15.526367188 3.182421875 16.306640625 3.17578125 C17.092324219 3.159023437 17.878007813 3.142265625 18.6875 3.125 C19.883427734 3.111464844 19.883427734 3.111464844 21.103515625 3.09765625 C23.069139003 3.07411585 25.03460775 3.038245471 27 3 C27.33 4.32 27.66 5.64 28 7 C28.33 6.34 28.66 5.68 29 5 C30.32 5.66 31.64 6.32 33 7 C32.050661011 10.354331094 31.102511649 13.692465053 30 17 C25.71 16.67 21.42 16.34 17 16 C16.675295413 20.139983489 16.569558703 22.339990011 18.875 25.875 C20.815533803 28.039528471 20.815533803 28.039528471 23 29 C22.67 29.66 22.34 30.32 22 31 C17.896397399 28.031914831 14.893412285 25.61674898 13.3125 20.6875 C12.6628125 18.8621875 12.6628125 18.8621875 12 17 C9.060018197 15.727470563 6.998543997 16.036182287 4 17 C4.011601563 17.556875 4.023203125 18.11375 4.03515625 18.6875 C4.096764331 23.897783426 3.74999344 28.843795097 3 34 C2.67 34 2.34 34 2 34 C-0.171594804 26.806592212 -1.602653624 19.133159347 1.1875 11.9375 C3.292769342 9.687039669 5.066926851 8.87199472 8 8 C8 7.01 8 6.02 8 5 C4.37 4.34 0.74 3.68 -3 3 C-2.01 2.01 -1.02 1.02 0 0 Z " fill="#C2BFB3" transform="translate(134,70)" />
<path d="M0 0 C2.1875 0.3125 2.1875 0.3125 4 1 C2.623917453 8.635909038 -0.25097322 15.064613305 -4.5625 21.5 C-11.940292773 32.669377924 -13.992713432 47.805968949 -12 61 C-10.343499536 64.245388664 -8.813506487 65.596796542 -6 68 C-6 68.99 -6 69.98 -6 71 C-7.98 71.495 -7.98 71.495 -10 72 C-10.33 71.01 -10.66 70.02 -11 69 C-11.928125 68.62875 -11.928125 68.62875 -12.875 68.25 C-16.544422228 66.091516337 -17.363154775 62.100240232 -18.553222656 58.175537109 C-20.866463416 46.911445081 -18.253634868 38.633239177 -12.625 28.9375 C-11.42833816 26.780696021 -10.232974417 24.623171181 -9.0390625 22.46484375 C-8.504907227 21.532770996 -7.970751953 20.600698242 -7.420410156 19.640380859 C-4.744689721 14.666521026 -3.736532299 10.664771845 -3.44140625 5.0859375 C-2.898634075 2.520978728 -2.076353114 1.56486125 0 0 Z " fill="#E1DDD1" transform="translate(153,122)" />
<path d="M0 0 C4.75 0.875 4.75 0.875 7 2 C6.857041088 3.396130655 6.71048442 4.791893083 6.5625 6.1875 C6.481289062 6.964804687 6.400078125 7.742109375 6.31640625 8.54296875 C6 11 6 11 5.4921875 13.43359375 C4.453643318 18.84885984 3.35884772 25.310998305 6.33984375 30.1953125 C7.949303918 32.005423237 7.949303918 32.005423237 9.6875 33.5 C11 35 11 35 11 39 C8.375 39.4375 8.375 39.4375 5 39 C0.794527316 35.594159446 -1.997393456 31.313814686 -3 26 C-3.75991086 16.977785608 -2.170860482 8.735129083 0 0 Z " fill="#E6E3D6" transform="translate(93,152)" />
<path d="M0 0 C0.85078125 0.344179688 0.85078125 0.344179688 1.71875 0.6953125 C1.150273438 1.035625 0.581796875 1.3759375 -0.00390625 1.7265625 C-0.776054687 2.21125 -1.548203125 2.6959375 -2.34375 3.1953125 C-3.474902344 3.89140625 -3.474902344 3.89140625 -4.62890625 4.6015625 C-11.838144857 10.292507851 -15.547601264 16.378065368 -18.28125 25.0703125 C-18.747246094 26.392890625 -18.747246094 26.392890625 -19.22265625 27.7421875 C-21.020101357 33.239306616 -21.349991643 37.354465127 -20.528808594 43.047851562 C-20.047288605 48.197361181 -20.918670256 53.278476519 -21.59375 58.3828125 C-21.790009766 60.015732422 -21.790009766 60.015732422 -21.990234375 61.681640625 C-22.684411897 67.198172137 -23.54922454 72.408474962 -25.28125 77.6953125 C-27.21875 78.2578125 -27.21875 78.2578125 -29.28125 78.6953125 C-29.61125 78.3653125 -29.94125 78.0353125 -30.28125 77.6953125 C-29.904971653 74.384063043 -29.352238217 71.118356105 -28.80078125 67.83203125 C-27.891289455 62.23147651 -27.218566041 56.80581261 -27.03125 51.1328125 C-26.091796984 36.118340183 -20.347564922 15.091230896 -9.0625 4.640625 C-7.93328125 3.739570313 -7.93328125 3.739570313 -6.78125 2.8203125 C-5.65203125 1.896054687 -5.65203125 1.896054687 -4.5 0.953125 C-2.28125 -0.3046875 -2.28125 -0.3046875 0 0 Z " fill="#615E55" transform="translate(94.28125,90.3046875)" />
<path d="M0 0 C0.886875 -0.014179688 1.77375 -0.028359375 2.6875 -0.04296875 C5 0.1875 5 0.1875 7 2.1875 C9.880979388 2.196283474 12.635992494 2.093680376 15.5 1.875 C16.285039063 1.826660156 17.070078125 1.778320312 17.87890625 1.728515625 C22.074129875 1.521018384 22.074129875 1.521018384 26 0.1875 C33.19395466 -0.269259026 33.19395466 -0.269259026 35.875 1.25 C38.405816969 5.608629225 39.302746001 10.192190986 39 15.1875 C35.516685647 12.168627561 34.208428558 9.618404714 33 5.1875 C32.34 6.1775 31.68 7.1675 31 8.1875 C30.319375 7.445 30.319375 7.445 29.625 6.6875 C28.12364481 4.961406632 28.12364481 4.961406632 26 5.1875 C26 6.8375 26 8.4875 26 10.1875 C25.34 9.5275 24.68 8.8675 24 8.1875 C24 6.8675 24 5.5475 24 4.1875 C22.830820313 4.294492187 21.661640625 4.401484375 20.45703125 4.51171875 C18.908923124 4.633690905 17.360741754 4.754735923 15.8125 4.875 C14.659111328 4.984248047 14.659111328 4.984248047 13.482421875 5.095703125 C8.578638291 5.45348991 6.162121431 5.041526124 2 2.1875 C-1.730933785 2.409978353 -1.730933785 2.409978353 -5 3.1875 C-2.36 3.8475 0.28 4.5075 3 5.1875 C2.01 5.8475 1.02 6.5075 0 7.1875 C0 6.5275 0 5.8675 0 5.1875 C-2.948189309 5.667768481 -2.948189309 5.667768481 -6 7.1875 C-7.8376238 10.530835742 -7.8376238 10.530835742 -9 14.1875 C-9.348046875 14.819140625 -9.69609375 15.45078125 -10.0546875 16.1015625 C-13.151416401 22.934840323 -10.904224451 31.517566528 -8.48828125 38.23828125 C-5.910116997 43.347241908 -2.087129549 47.240101376 2 51.1875 C-1 51.1875 -1 51.1875 -2.90234375 49.5703125 C-7.259733807 44.736202226 -9.98535209 40.505216991 -12.125 34.36328125 C-13.215280461 31.652182068 -14.712533066 29.984795448 -17 28.1875 C-16.67 27.5275 -16.34 26.8675 -16 26.1875 C-15.34 26.5175 -14.68 26.8475 -14 27.1875 C-14.103125 26.07375 -14.20625 24.96 -14.3125 23.8125 C-14.362599799 18.221362476 -11.719719328 13.927582258 -9 9.1875 C-9.66 8.5275 -10.32 7.8675 -11 7.1875 C-7.543137261 1.771748376 -6.421090871 0.046664905 0 0 Z " fill="#78756D" transform="translate(137,68.8125)" />
<path d="M0 0 C2.84833454 0.632963231 4.556201273 1.303461659 6.15234375 3.80859375 C6.829980125 5.202223277 7.482256412 6.608541193 8.10546875 8.02734375 C9.047927785 10.246914387 9.047927785 10.246914387 11 13 C12.045454143 19.123374266 8.868950847 23.815395969 6 29 C5.01 28.67 4.02 28.34 3 28 C2.67 25.69 2.34 23.38 2 21 C1.34 22.32 0.68 23.64 0 25 C-1.65 25 -3.3 25 -5 25 C-4.67 24.05125 -4.34 23.1025 -4 22.125 C-2.814313408 18.419729401 -2.775018011 17.674945968 -4 14 C-3.0625 11.3125 -3.0625 11.3125 -2 9 C-2.66 9 -3.32 9 -4 9 C-3.67 7.68 -3.34 6.36 -3 5 C-0.69 5 1.62 5 4 5 C4 4.34 4 3.68 4 3 C3.01 3 2.02 3 1 3 C0.67 2.01 0.34 1.02 0 0 Z " fill="#E3E0D4" transform="translate(169,88)" />
<path d="M0 0 C6.987963061 6.987963061 5.697827767 21.288155758 6.0625 30.5625 C6.629573876 44.384895048 6.629573876 44.384895048 9 58 C12.3 58.33 15.6 58.66 19 59 C19.223606798 56.074535599 19.223606798 56.074535599 18 54 C20 55 22 56 24 57 C23.2575 56.236875 22.515 55.47375 21.75 54.6875 C17.200886873 49.244116771 14.654492338 42.076508777 15 35 C17.545183823 38.817775734 18.5136827 42.712361089 19.8046875 47.08984375 C21.103250701 50.25137834 22.351792301 51.866443986 25 54 C28.144817913 54.803156538 28.144817913 54.803156538 31 55 C29.908104262 51.625049536 28.86618456 49.859812396 26.375 47.25 C23.978904331 44.565810717 23.670682843 42.701448719 23.6875 39.125 C23.767009252 37.748354086 23.862790336 36.372096645 24 35 C24.33 35 24.66 35 25 35 C25.074765625 35.652265625 25.14953125 36.30453125 25.2265625 36.9765625 C25.946893504 41.764645059 26.466410108 45.02309107 30.1875 48.3125 C31.115625 49.199375 32.04375 50.08625 33 51 C33.01953125 53.52734375 33.01953125 53.52734375 32 56 C29.53125 57.328125 29.53125 57.328125 26.5 58.25 C22.967244865 59.124799219 22.967244865 59.124799219 20 61 C14.824913584 61.405889131 11.088819975 61.345398161 7 58 C3.561059598 49.236128952 3.534205045 39.966579345 3.4375 30.6875 C3.402892239 28.066282523 3.360192228 25.445156818 3.30859375 22.82421875 C3.29626709 21.68041748 3.28394043 20.536616211 3.271240234 19.358154297 C2.969668615 15.624475071 2.135689584 12.55917256 1 9 C0.67 10.65 0.34 12.3 0 14 C-0.33 14 -0.66 14 -1 14 C-1.083333572 9.166652798 -0.952614875 4.763074374 0 0 Z " fill="#353228" transform="translate(73,136)" />
<path d="M0 0 C3.362001401 2.269350946 4.060779253 4.790791495 5.51953125 8.48828125 C6.707338086 11.152565109 8.255547856 12.843842882 10.5 14.6875 C9.84 16.0075 9.18 17.3275 8.5 18.6875 C7.51 18.0275 6.52 17.3675 5.5 16.6875 C4.51 16.6875 3.52 16.6875 2.5 16.6875 C2.5 17.6775 2.5 18.6675 2.5 19.6875 C-0.5 18.6875 -0.5 18.6875 -1.5 17.6875 C-1.213951017 16.012070244 -0.882187671 14.343646574 -0.5 12.6875 C-2.314140513 14.501640513 -2.1350454 17.237090541 -2.5 19.6875 C-4.15 20.0175 -5.8 20.3475 -7.5 20.6875 C-7.594026156 15.683219054 -7.599237397 10.682406956 -7.25 5.6875 C-7.20359375 4.965625 -7.1571875 4.24375 -7.109375 3.5 C-6.5 1.6875 -6.5 1.6875 -4.609375 0.41796875 C-2.5 -0.3125 -2.5 -0.3125 0 0 Z " fill="#F0ECE1" transform="translate(144.5,85.3125)" />
<path d="M0 0 C4.18333056 0.224106994 6.492234393 0.661489596 10 3 C12.057095962 3.240554679 12.057095962 3.240554679 14.1875 3.125 C15.445625 3.08375 16.70375 3.0425 18 3 C18 3.66 18 4.32 18 5 C18.66 5.33 19.32 5.66 20 6 C19.0925 6.37125 18.185 6.7425 17.25 7.125 C13.813888995 8.781055992 13.813888995 8.781055992 12 12.0625 C9.629165169 15.544663658 8.026490999 16.084888409 4 17 C4.011601563 17.556875 4.023203125 18.11375 4.03515625 18.6875 C4.096764331 23.897783426 3.74999344 28.843795097 3 34 C2.67 34 2.34 34 2 34 C-0.171594804 26.806592212 -1.602653624 19.133159347 1.1875 11.9375 C3.292769342 9.687039669 5.066926851 8.87199472 8 8 C8 7.01 8 6.02 8 5 C4.37 4.34 0.74 3.68 -3 3 C-2.01 2.01 -1.02 1.02 0 0 Z " fill="#B4B1A8" transform="translate(134,70)" />
<path d="M0 0 C-0.3609375 0.678046875 -0.721875 1.35609375 -1.09375 2.0546875 C-4.373328867 8.632065116 -5.715886155 13.666144055 -5 21 C-12.75988287 15.875549048 -12.75988287 15.875549048 -15 11 C-15 10.34 -15 9.68 -15 9 C-15.96421875 9.300351562 -16.9284375 9.600703125 -17.921875 9.91015625 C-19.816796875 10.480566406 -19.816796875 10.480566406 -21.75 11.0625 C-23.00296875 11.445351563 -24.2559375 11.828203125 -25.546875 12.22265625 C-28.84522223 12.965157493 -29.933065893 12.942994108 -33 12 C-31.224960938 11.454726562 -31.224960938 11.454726562 -29.4140625 10.8984375 C-21.399378933 8.370162202 -13.969257999 6.021877267 -7.04296875 1.1015625 C-4.549270652 -0.243031886 -2.791897635 -0.204641711 0 0 Z " fill="#A7A498" transform="translate(129,77)" />
<path d="M0 0 C0.66 0.33 1.32 0.66 2 1 C1.21625 1.4125 0.4325 1.825 -0.375 2.25 C-3.367739172 5.385250561 -3.424804262 6.401569326 -3.9375 10.5625 C-4.931905653 18.211059365 -8.181765199 24.040889424 -12.62109375 30.27734375 C-18.050947104 38.198700887 -18.999020096 46.651104362 -20 56 C-20.13921875 57.158867187 -20.2784375 58.317734375 -20.421875 59.51171875 C-20.81165771 65.36595522 -20.151219295 68.437029262 -16.4375 73.0625 C-15.776210937 73.754726562 -15.114921875 74.446953125 -14.43359375 75.16015625 C-13.723964844 76.070878906 -13.723964844 76.070878906 -13 77 C-14 80 -14 80 -15.9375 81.1875 C-20.299343165 82.344723697 -24.513912804 82.156795281 -29 82 C-26.640469059 79.640469059 -25.221043825 79.508585867 -22 79 C-22 78.34 -22 77.68 -22 77 C-21.34 77 -20.68 77 -20 77 C-19.67 77.66 -19.34 78.32 -19 79 C-17.68 79 -16.36 79 -15 79 C-16.526077756 76.329363927 -17.932857586 74.069283917 -20.08203125 71.8515625 C-22.600965538 68.106507449 -22.566037249 64.919866654 -22.4375 60.5625 C-22.422111816 59.766987305 -22.406723633 58.971474609 -22.390869141 58.151855469 C-21.977480149 45.296874437 -18.883243333 35.827750358 -12 25 C-10.571251121 22.366018171 -9.283826773 19.710300965 -8 17 C-7.3503125 15.63875 -7.3503125 15.63875 -6.6875 14.25 C-5.876429558 11.595587644 -5.961986439 10.555110303 -7 8 C-7.960181697 6.310080213 -8.953559342 4.637907118 -10 3 C-8.35 2.34 -6.7 1.68 -5 1 C-5.99 2.485 -5.99 2.485 -7 4 C-4.506384291 2.79618552 -2.318569172 1.545712781 0 0 Z " fill="#353128" transform="translate(162,114)" />
<path d="M0 0 C4.948529342 4.948529342 6.870451905 8.963919067 7 16 C5.216953016 20.766611398 2.854864399 24.775618312 0 29 C-0.33 28.01 -0.66 27.02 -1 26 C-1.66 26 -2.32 26 -3 26 C-3.480665347 24.104546084 -3.959467432 22.208619613 -4.4375 20.3125 C-4.837753906 18.728886719 -4.837753906 18.728886719 -5.24609375 17.11328125 C-5.898979321 14.417168297 -6.479411935 11.724242399 -7 9 C-6.01 9.495 -6.01 9.495 -5 10 C-4.67 10.99 -4.34 11.98 -4 13 C-3.875309012 7.421699841 -3.875309012 7.421699841 -5 2 C-1.137513758 5.343160361 -0.457876264 9.209835133 1 14 C0.67 9.38 0.34 4.76 0 0 Z " fill="#B29073" transform="translate(135,132)" />
<path d="M0 0 C2.625 0.125 2.625 0.125 5.625 1.125 C5.625 1.785 5.625 2.445 5.625 3.125 C4.84125 3.723125 4.0575 4.32125 3.25 4.9375 C-1.418983034 8.828319195 -1.687207456 13.278763376 -2.375 19.125 C-3.365 19.125 -4.355 19.125 -5.375 19.125 C-5.045 20.115 -4.715 21.105 -4.375 22.125 C-6.3125 22.6875 -6.3125 22.6875 -8.375 23.125 C-9.915761872 21.584238128 -9.618566986 20.140551499 -9.6875 18 C-9.647213647 12.923919561 -8.124933114 10.330780057 -5.375 6.125 C-4.689719551 4.465899964 -4.016081372 2.801674356 -3.375 1.125 C-2.375 0.125 -2.375 0.125 0 0 Z " fill="#EBE8DD" transform="translate(134.375,73.875)" />
<path d="M0 0 C1.142421915 3.427265746 1.410297041 4.681654021 0 8 C-5.730086404 10.967366173 -10.627183207 11.39830105 -17 11 C-16 9 -15 7 -14 5 C-12.35 5.33 -10.7 5.66 -9 6 C-9.99 5.34 -10.98 4.68 -12 4 C-11.1875 2.0625 -11.1875 2.0625 -10 0 C-6.305817986 -1.231394005 -3.794373904 -0.644327644 0 0 Z " fill="#C1BEB3" transform="translate(191,109)" />
<path d="M0 0 C6.37955381 0.62564756 6.37955381 0.62564756 8.8671875 3.11328125 C7.8771875 3.44328125 6.8871875 3.77328125 5.8671875 4.11328125 C5.8671875 3.45328125 5.8671875 2.79328125 5.8671875 2.11328125 C2.918998191 2.593549731 2.918998191 2.593549731 -0.1328125 4.11328125 C-1.9704363 7.456616992 -1.9704363 7.456616992 -3.1328125 11.11328125 C-3.480859375 11.744921875 -3.82890625 12.3765625 -4.1875 13.02734375 C-7.284228901 19.860621573 -5.037036951 28.443347778 -2.62109375 35.1640625 C-0.042929497 40.273023158 3.780057951 44.165882626 7.8671875 48.11328125 C4.8671875 48.11328125 4.8671875 48.11328125 2.96484375 46.49609375 C-1.392546307 41.661983476 -4.11816459 37.430998241 -6.2578125 31.2890625 C-7.348092961 28.577963318 -8.845345566 26.910576698 -11.1328125 25.11328125 C-10.8028125 24.45328125 -10.4728125 23.79328125 -10.1328125 23.11328125 C-9.4728125 23.44328125 -8.8128125 23.77328125 -8.1328125 24.11328125 C-8.2359375 22.99953125 -8.3390625 21.88578125 -8.4453125 20.73828125 C-8.495412299 15.147143726 -5.852531828 10.853363508 -3.1328125 6.11328125 C-3.7928125 5.45328125 -4.4528125 4.79328125 -5.1328125 4.11328125 C-3.900967411 1.403222055 -3.068541358 0.162981134 0 0 Z " fill="#3D3A30" transform="translate(131.1328125,71.88671875)" />
<path d="M0 0 C2.475 0.495 2.475 0.495 5 1 C5.33 3.31 5.66 5.62 6 8 C7.32 7.67 8.64 7.34 10 7 C9.34 7 8.68 7 8 7 C8.3125 4.625 8.3125 4.625 9 2 C9.99 1.34 10.98 0.68 12 0 C12.433125 0.928125 12.86625 1.85625 13.3125 2.8125 C14.732917317 5.495510487 15.806484229 7.015390493 18 9 C18 9.33 18 9.66 18 10 C8.576681614 12.521973094 8.576681614 12.521973094 4.7109375 11.2421875 C2.8125 10.125 2.8125 10.125 0 8 C0 5.36 0 2.72 0 0 Z " fill="#E3E0D6" transform="translate(123,184)" />
</svg>