<?xml version='1.0' encoding='utf-8'?>
<svg xmlns="http://www.w3.org/2000/svg" version="1.1" width="122" height="180" viewBox="78.454502498 14.0 122.672964419 180.329257813">
<path d="M0 0 C0.66 0 1.32 0 2 0 C2.108529228 2.876024545 2.187551498 5.747908319 2.25 8.625 C2.283515625 9.433242187 2.31703125 10.241484375 2.3515625 11.07421875 C2.444051251 16.762276932 1.304017154 19.25830672 -2 24 C-2.158668488 27.140257609 -2.158668488 27.140257609 -1.5625 30.3125 C-0.944125429 35.647496299 -1.339136627 39.012950567 -3.27734375 43.953125 C-4.564065955 47.597678705 -4.491670215 50.128097054 -4 54 C-2.887613724 56.031134941 -1.619169684 57.883402356 -0.299560547 59.78515625 C4.622297526 68.173489227 3.598758642 80.178874132 3.947265625 89.568359375 C4.34245523 96.748289335 5.490517578 102.252084006 8.819824219 108.654785156 C12.46426561 115.896924999 13.824855475 126.335564218 11.32421875 134.09765625 C10.5 135.75 10.5 135.75 9 138 C10.985677083 137.934895833 12.971354167 137.869791667 14.95703125 137.8046875 C17 138 17 138 20 140 C19.699387311 143.161801317 19.460908763 144.59487583 17.03125 146.73046875 C11.35336618 149.998756813 6.478534784 151.955075035 0 153 C-0.0825 153.78375 -0.165 154.5675 -0.25 155.375 C-1 158 -1 158 -2.734375 159.14453125 C-5.290206589 160.109578005 -7.272559477 160.300026949 -10 160.3125 C-10.845625 160.329257813 -11.69125 160.346015625 -12.5625 160.36328125 C-15.56565144 159.91569618 -16.926176782 159.219184658 -19 157 C-19.171875 154.72265625 -19.171875 154.72265625 -18.75 152.0625 C-17.579263736 142.983320809 -17.92225947 134.206078875 -18.77734375 125.11328125 C-19.161235003 119.745538639 -19.078068055 114.378021581 -19 109 C-19.99 109 -20.98 109 -22 109 C-22.123932589 117.193321153 -21.92654751 125.319717537 -21.5 133.5 C-20.877926106 145.963894967 -20.877926106 145.963894967 -20.75 152.1875 C-20.711328125 153.817519531 -20.711328125 153.817519531 -20.671875 155.48046875 C-20.78015625 156.311914062 -20.8884375 157.143359375 -21 158 C-24.10986207 160.07324138 -24.891083871 160.273921863 -28.4375 160.25 C-29.199335937 160.25515625 -29.961171875 160.2603125 -30.74609375 160.265625 C-33.281879675 159.966780212 -34.878749321 159.420438371 -37 158 C-37.75 154.875 -37.75 154.875 -38 152 C-39.11375 152.103125 -40.2275 152.20625 -41.375 152.3125 C-48.839284698 152.325758055 -55.59966938 147.860297558 -61 143 C-60.6875 141.125 -60.6875 141.125 -60 139 C-56.812376345 136.874917563 -54.734877774 136.497983703 -51 136 C-53.71181135 133.732971433 -53.71181135 133.732971433 -57 132.625 C-60.128759065 131.647262792 -61.23472815 129.678343497 -63 127 C-63.152109375 126.235585937 -63.30421875 125.471171875 -63.4609375 124.68359375 C-64.071946363 121.641832239 -65.165405055 119.139797074 -66.4375 116.3125 C-72.545497502 101.766286296 -73.164809102 86.246933398 -67.625 71.453125 C-64.111825907 63.987630052 -59.129393331 57.516453997 -53 52 C-52.359335937 51.401875 -51.718671875 50.80375 -51.05859375 50.1875 C-45.031907946 44.682461033 -45.031907946 44.682461033 -41 44 C-40.67 45.65 -40.34 47.3 -40 49 C-40 48.34 -40 47.68 -40 47 C-39.34 47 -38.68 47 -38 47 C-38.567398682 42.870263721 -38.567398682 42.870263721 -40 39 C-40.069960137 37.292972647 -40.084401538 35.583319972 -40.0625 33.875 C-40.053476562 32.964921875 -40.044453125 32.05484375 -40.03515625 31.1171875 C-40.023554687 30.418515625 -40.011953125 29.71984375 -40 29 C-39.34 29.33 -38.68 29.66 -38 30 C-37.7265625 32.00390625 -37.7265625 32.00390625 -37.625 34.5625 C-37.273423333 39.18606485 -36.140422913 42.410938143 -33.83984375 46.40625 C-33 48 -33 48 -33 50 C-32.01 50.33 -31.02 50.66 -30 51 C-30.350625 49.7625 -30.70125 48.525 -31.0625 47.25 C-31.955932732 44.096708004 -32.008812942 42.132258365 -31 39 C-30.650664062 39.999023438 -30.301328125 40.998046875 -29.94140625 42.02734375 C-29.481920808 43.330782045 -29.022277213 44.634164596 -28.5625 45.9375 C-28.332402344 46.596855469 -28.102304688 47.256210938 -27.865234375 47.935546875 C-26.880354082 51.223286219 -26.880354082 51.223286219 -25 54 C-19.673269638 54.338568283 -19.673269638 54.338568283 -15 52 C-14.322150082 49.669890909 -13.655832073 47.336401759 -13 45 C-11.5 43.375 -11.5 43.375 -10 42 C-8.809720162 39.400844623 -8.809720162 39.400844623 -8 37 C-10.64 37.66 -13.28 38.32 -16 39 C-15.452763165 35.625372852 -14.945100003 33.917650005 -13 31 C-11.0546875 30.70703125 -11.0546875 30.70703125 -8.875 30.8125 C-7.59625 30.874375 -6.3175 30.93625 -5 31 C-5.33 33.64 -5.66 36.28 -6 39 C-5.01 39 -4.02 39 -3 39 C-3.19078125 37.975195312 -3.3815625 36.950390625 -3.578125 35.89453125 C-3.803307085 34.534056153 -4.027197615 33.17336684 -4.25 31.8125 C-4.443359375 30.802197266 -4.443359375 30.802197266 -4.640625 29.771484375 C-5.226177226 26.020290429 -5.302932844 24.425083184 -3.0625 21.28125 C-2.381875 20.5284375 -1.70125 19.775625 -1 19 C-0.524189963 16.798199113 -0.524189963 16.798199113 -0.75 14.6875 C-0.8325 13.470625 -0.915 12.25375 -1 11 C-2.32 13.97 -3.64 16.94 -5 20 C-6.10191901 15.592323961 -5.587068421 14.107706503 -4 10 C-5.32 10.99 -6.64 11.98 -8 13 C-6.536007702 9.931246913 -4.859903637 7.095652565 -3 4.25 C-2.484375 3.45078125 -1.96875 2.6515625 -1.4375 1.828125 C-0.963125 1.22484375 -0.48875 0.6215625 0 0 Z " fill="#EAE3D6" transform="translate(161,24)" />
<path d="M0 0 C0.66 0 1.32 0 2 0 C2.108529228 2.876024545 2.187551498 5.747908319 2.25 8.625 C2.300273437 9.837363281 2.300273437 9.837363281 2.3515625 11.07421875 C2.444051251 16.762276932 1.304017154 19.25830672 -2 24 C-2.158668488 27.140257609 -2.158668488 27.140257609 -1.5625 30.3125 C-0.944125429 35.647496299 -1.339136627 39.012950567 -3.27734375 43.953125 C-4.564065955 47.597678705 -4.491670215 50.128097054 -4 54 C-2.887613724 56.031134941 -1.619169684 57.883402356 -0.299560547 59.78515625 C4.622297526 68.173489227 3.598758642 80.178874132 3.947265625 89.568359375 C4.34245523 96.748289335 5.490517578 102.252084006 8.819824219 108.654785156 C12.46426561 115.896924999 13.824855475 126.335564218 11.32421875 134.09765625 C10.5 135.75 10.5 135.75 9 138 C10.985677083 137.934895833 12.971354167 137.869791667 14.95703125 137.8046875 C17 138 17 138 20 140 C19.699387311 143.161801317 19.460908763 144.59487583 17.03125 146.73046875 C11.35336618 149.998756813 6.478534784 151.955075035 0 153 C-0.0825 153.78375 -0.165 154.5675 -0.25 155.375 C-1 158 -1 158 -2.734375 159.14453125 C-5.290206589 160.109578005 -7.272559477 160.300026949 -10 160.3125 C-10.845625 160.329257813 -11.69125 160.346015625 -12.5625 160.36328125 C-15.56565144 159.91569618 -16.926176782 159.219184658 -19 157 C-19.171875 154.72265625 -19.171875 154.72265625 -18.75 152.0625 C-17.579263736 142.983320809 -17.92225947 134.206078875 -18.77734375 125.11328125 C-19.161235003 119.745538639 -19.078068055 114.378021581 -19 109 C-19.99 109 -20.98 109 -22 109 C-22.123932589 117.193321153 -21.92654751 125.319717537 -21.5 133.5 C-20.877926106 145.963894967 -20.877926106 145.963894967 -20.75 152.1875 C-20.711328125 153.817519531 -20.711328125 153.817519531 -20.671875 155.48046875 C-20.78015625 156.311914062 -20.8884375 157.143359375 -21 158 C-24.10986207 160.07324138 -24.891083871 160.273921863 -28.4375 160.25 C-29.199335937 160.25515625 -29.961171875 160.2603125 -30.74609375 160.265625 C-33.281879675 159.966780212 -34.878749321 159.420438371 -37 158 C-37.75 154.875 -37.75 154.875 -38 152 C-39.11375 152.103125 -40.2275 152.20625 -41.375 152.3125 C-48.839284698 152.325758055 -55.59966938 147.860297558 -61 143 C-60.6875 141.125 -60.6875 141.125 -60 139 C-56.812376345 136.874917563 -54.734877774 136.497983703 -51 136 C-51.322265625 135.278125 -51.64453125 134.55625 -51.9765625 133.8125 C-55.198255153 124.958993472 -52.44687263 115.403913535 -49 107 C-48.495976563 106.379558105 -47.991953125 105.759116211 -47.47265625 105.119873047 C-45.773472969 102.673916742 -45.514889971 101.178679657 -45.26953125 98.234375 C-45.188964844 97.344921875 -45.108398438 96.45546875 -45.025390625 95.5390625 C-44.955136719 94.618671875 -44.884882812 93.69828125 -44.8125 92.75 C-44.730644531 91.814140625 -44.648789063 90.87828125 -44.564453125 89.9140625 C-44.364619949 87.610103535 -44.176906103 85.305813839 -44 83 C-43.67 83 -43.34 83 -43 83 C-42.863840809 86.001553731 -42.765360196 88.996820999 -42.6875 92 C-42.645605469 92.839179688 -42.603710937 93.678359375 -42.560546875 94.54296875 C-42.448947181 100.301512945 -43.495339081 103.579114265 -46.813232422 108.275390625 C-49.254151422 111.822531505 -49.54589404 115.81011568 -50 120 C-50.106992187 120.97453125 -50.213984375 121.9490625 -50.32421875 122.953125 C-50.721902209 129.846304956 -49.416222773 134.279142949 -45.80078125 140.13671875 C-43.603978831 142.409765939 -42.095681372 142.688849743 -39 143 C-39.433125 142.5875 -39.86625 142.175 -40.3125 141.75 C-43.351680618 138.598257137 -45.43224937 136.326385747 -45.5 131.8125 C-45.080870299 128.616636033 -44.760717068 126.641075602 -43 124 C-37.580814302 128.500142509 -35.149441294 137.523146232 -34.1875 144.3125 C-34.125625 145.199375 -34.06375 146.08625 -34 147 C-32.02 146.67 -30.04 146.34 -28 146 C-28.59438101 143.601355824 -29.200070946 141.206540846 -29.8125 138.8125 C-29.978144531 138.138964844 -30.143789062 137.465429688 -30.314453125 136.771484375 C-31.365419324 132.706426436 -32.800715704 129.547842575 -35 126 C-35 125.01 -35 124.02 -35 123 C-35.791254763 116.998248448 -36.74181339 111.033334833 -38.0625 105.125 C-39.454462453 98.504958098 -39.658517232 91.739791473 -40 85 C-37.221137598 88.416329723 -34.609845865 91.908494543 -32.0625 95.5 C-29.275134592 99.360631341 -26.52476327 102.805683286 -23 106 C-23.656772866 101.988861761 -24.901105434 98.526053733 -26.46875 94.78125 C-27.201582031 93.012011719 -27.201582031 93.012011719 -27.94921875 91.20703125 C-28.465620208 89.97113441 -28.982552255 88.735459143 -29.5 87.5 C-30.515661041 85.075005918 -31.525137191 82.647755858 -32.53125 80.21875 C-32.980488281 79.145605469 -33.429726563 78.072460937 -33.892578125 76.966796875 C-35.800110412 71.856494328 -36.10676553 67.445042046 -36 62 C-35.67 62 -35.34 62 -35 62 C-34.734453125 63.131796875 -34.46890625 64.26359375 -34.1953125 65.4296875 C-33.838915595 66.911548315 -33.482124245 68.393314303 -33.125 69.875 C-32.950976562 70.621367187 -32.776953125 71.367734375 -32.59765625 72.13671875 C-31.610761208 76.488836713 -31.610761208 76.488836713 -29 80 C-28.673867188 79.240742188 -28.347734375 78.481484375 -28.01171875 77.69921875 C-27.574726562 76.705351562 -27.137734375 75.711484375 -26.6875 74.6875 C-26.258242188 73.701367187 -25.828984375 72.715234375 -25.38671875 71.69921875 C-24.132854406 69.258598294 -23.058250561 67.768526142 -21 66 C-17.969010951 67.058544982 -17.043894549 67.92855571 -15.33203125 70.71484375 C-14.830585937 71.778320312 -14.329140625 72.841796875 -13.8125 73.9375 C-13.303320313 74.998398438 -12.794140625 76.059296875 -12.26953125 77.15234375 C-11 80 -11 80 -10 83 C-6.839673425 76.502881914 -4.729317664 70.008976895 -3 63 C-2.67 63 -2.34 63 -2 63 C-2.392019403 70.84038806 -4.773713407 76.921850546 -8 84 C-8.76633134 85.702807295 -9.531897697 87.405958982 -10.296875 89.109375 C-11.514571675 91.819771333 -12.734704268 94.528868447 -13.96484375 97.233642578 C-14.342539063 98.06532959 -14.720234375 98.897016602 -15.109375 99.75390625 C-15.619360352 100.872611084 -15.619360352 100.872611084 -16.139648438 102.013916016 C-17.095423926 104.141393978 -17.095423926 104.141393978 -18 107 C-14.399379891 104.222378773 -11.169528471 101.260086428 -8 98 C-9.323307406 100.968727787 -10.754931247 102.830613056 -13.09765625 105.0546875 C-17.148704263 109.673547351 -16.715645957 114.240841857 -16.4375 120.125 C-16.409462891 121.588730469 -16.409462891 121.588730469 -16.380859375 123.08203125 C-16.268724022 127.525015771 -15.914903466 131.647014465 -15 136 C-14.718810421 140.829844526 -15.003897634 145.268513761 -16 150 C-16.038246227 152.333019861 -16.045742842 154.667115083 -16 157 C-14.68 157.33 -13.36 157.66 -12 158 C-12.165 156.88625 -12.33 155.7725 -12.5 154.625 C-13.313576412 147.998479075 -14.033702143 142.067404286 -11 136 C-11.33 139.96 -11.66 143.92 -12 148 C-9.69 148 -7.38 148 -5 148 C-5 148.66 -5 149.32 -5 150 C3.351698215 150.447412404 8.927101448 148.368554988 16 144 C16.66 144 17.32 144 18 144 C17.67 143.01 17.34 142.02 17 141 C11.988685135 139.79692961 11.988685135 139.79692961 7.1328125 140.82421875 C5.307771315 142.032187084 5.307771315 142.032187084 3 144 C4.005595303 141.908925654 5.049971058 139.920803444 6.2890625 137.95703125 C11.804381841 129.103492309 10.276344329 122.279910574 8.14453125 112.40625 C7.140347676 109.417690012 6.150916906 107.671788042 4.45703125 105.09765625 C0.703630611 98.586641146 1.072499154 91.249117823 0.875 83.9375 C0.628222152 69.03163166 0.628222152 69.03163166 -6 56 C-6.711624428 54.352027641 -7.390319529 52.68834592 -8 51 C-8.66 51.66 -9.32 52.32 -10 53 C-11.660728495 53.681324511 -13.327766996 54.347421267 -15 55 C-15.99 55.66 -16.98 56.32 -18 57 C-24.358078586 58.2406007 -28.937324378 54.361776697 -34 51 C-34.268125 51.86625 -34.53625 52.7325 -34.8125 53.625 C-36 57 -36 57 -37.46875 59.59375 C-39.433844542 63.965082757 -40.037030626 68.154653938 -40.6875 72.875 C-40.817050781 73.754140625 -40.946601563 74.63328125 -41.080078125 75.5390625 C-41.395907328 77.691380033 -41.699227019 79.845526871 -42 82 C-42.33 82 -42.66 82 -43 82 C-43.430975907 71.816198942 -42.600996761 63.715743972 -37.75 54.6875 C-36.470731116 52.236793325 -35.993818533 51.253440138 -36.0625 48.4375 C-37.020804286 45.838621947 -37.020804286 45.838621947 -38.5625 42.8125 C-40.606232549 38.32819363 -40.262469232 33.831378083 -40 29 C-39.34 29.33 -38.68 29.66 -38 30 C-37.7265625 32.00390625 -37.7265625 32.00390625 -37.625 34.5625 C-37.273423333 39.18606485 -36.140422913 42.410938143 -33.83984375 46.40625 C-33 48 -33 48 -33 50 C-31.515 50.495 -31.515 50.495 -30 51 C-30.350625 49.7625 -30.70125 48.525 -31.0625 47.25 C-31.955932732 44.096708004 -32.008812942 42.132258365 -31 39 C-30.650664062 39.999023438 -30.301328125 40.998046875 -29.94140625 42.02734375 C-29.481920808 43.330782045 -29.022277213 44.634164596 -28.5625 45.9375 C-28.332402344 46.596855469 -28.102304688 47.256210938 -27.865234375 47.935546875 C-26.880354082 51.223286219 -26.880354082 51.223286219 -25 54 C-19.673269638 54.338568283 -19.673269638 54.338568283 -15 52 C-14.322150082 49.669890909 -13.655832073 47.336401759 -13 45 C-11.5 43.375 -11.5 43.375 -10 42 C-8.809720162 39.400844623 -8.809720162 39.400844623 -8 37 C-10.64 37.66 -13.28 38.32 -16 39 C-15.452763165 35.625372852 -14.945100003 33.917650005 -13 31 C-11.0546875 30.70703125 -11.0546875 30.70703125 -8.875 30.8125 C-7.59625 30.874375 -6.3175 30.93625 -5 31 C-5.33 33.64 -5.66 36.28 -6 39 C-5.01 39 -4.02 39 -3 39 C-3.19078125 37.975195312 -3.3815625 36.950390625 -3.578125 35.89453125 C-3.803307085 34.534056153 -4.027197615 33.17336684 -4.25 31.8125 C-4.443359375 30.802197266 -4.443359375 30.802197266 -4.640625 29.771484375 C-5.226177226 26.020290429 -5.302932844 24.425083184 -3.0625 21.28125 C-2.381875 20.5284375 -1.70125 19.775625 -1 19 C-0.524189963 16.798199113 -0.524189963 16.798199113 -0.75 14.6875 C-0.8325 13.470625 -0.915 12.25375 -1 11 C-2.32 13.97 -3.64 16.94 -5 20 C-6.10191901 15.592323961 -5.587068421 14.107706503 -4 10 C-5.32 10.99 -6.64 11.98 -8 13 C-6.536007702 9.931246913 -4.859903637 7.095652565 -3 4.25 C-2.484375 3.45078125 -1.96875 2.6515625 -1.4375 1.828125 C-0.963125 1.22484375 -0.48875 0.6215625 0 0 Z " fill="#464438" transform="translate(161,24)" />
<path d="M0 0 C4.448248585 0.520966051 6.875922241 2.122051851 10.3125 4.9375 C11.195507813 5.647773438 12.078515625 6.358046875 12.98828125 7.08984375 C13.652148437 7.720195312 14.316015625 8.350546875 15 9 C15 9.66 15 10.32 15 11 C15.99 11.33 16.98 11.66 18 12 C28.115453422 25.023386644 31.512954823 39.76407912 30 56 C29.127466917 61.98218725 28.037440911 67.658126672 24.875 72.875 C22.765792861 76.390345232 22.440571058 78.961431969 22 83 C21.0625 86.375 21.0625 86.375 20 89 C19.01 89.495 19.01 89.495 18 90 C18 89.34 18 88.68 18 88 C16.35 88 14.7 88 13 88 C13 89.65 13 91.3 13 93 C11.35 93 9.7 93 8 93 C8.33 92.2575 8.66 91.515 9 90.75 C11.477054958 81.461043909 10.150933395 71.98251162 7 63 C6.321443019 61.831374088 5.641638197 60.663472292 4.9609375 59.49609375 C2.019071774 53.770832966 2.151014372 47.630536297 1.875 41.3125 C1.75285478 38.912476368 1.625272367 36.512723125 1.4921875 34.11328125 C1.428701172 32.939750977 1.365214844 31.766220703 1.299804688 30.557128906 C0.902881264 25.847703591 0.057206069 21.261676927 -0.886230469 16.633544922 C-1 14 -1 14 0.452636719 12.137939453 C0.963266602 11.762419434 1.473896484 11.386899414 2 11 C2.33 11.66 2.66 12.32 3 13 C3.33 11.68 3.66 10.36 4 9 C5.65 9 7.3 9 9 9 C9.33 9.99 9.66 10.98 10 12 C12.015083582 12.733237961 12.015083582 12.733237961 14 13 C14 12.67 14 12.34 14 12 C10.432385001 8.550098186 6.667099221 5.326636098 2.5 2.625 C1.675 2.08875 0.85 1.5525 0 1 C0 0.67 0 0.34 0 0 Z " fill="#EDE7D9" transform="translate(162,69)" />
<path d="M0 0 C0.66 0 1.32 0 2 0 C2 0.99 2 1.98 2 3 C2.66 3 3.32 3 4 3 C4.33 2.01 4.66 1.02 5 0 C5.003867187 1.956796875 5.003867187 1.956796875 5.0078125 3.953125 C5.168662786 13.550831775 5.603537951 20.94047478 10.56640625 29.40234375 C12.800618188 33.45071143 13.503091601 37.445006343 14 42 C14.105703125 42.748945312 14.21140625 43.497890625 14.3203125 44.26953125 C14.868726722 51.077020832 11.816296424 55.55950599 8 61 C9.462250164 61.092450033 9.462250164 61.092450033 12 59 C14.739904084 59.031432934 17.284178545 59.554783368 20 60 C20.495 61.98 20.495 61.98 21 64 C14.181102517 68.239124481 8.201313529 71.369139356 0 71 C-0.66 70.67 -1.32 70.34 -2 70 C-2 69.34 -2 68.68 -2 68 C-4.31 68 -6.62 68 -9 68 C-9 71.3 -9 74.6 -9 78 C-10.65 77.67 -12.3 77.34 -14 77 C-14.125560538 70.596412556 -14.125560538 70.596412556 -13.5 67.625 C-12.627521943 63.0444902 -12.533625373 58.243297199 -13.484619141 53.668945312 C-15.104452399 45.280495679 -16.398626325 33.518342612 -12.3203125 25.8359375 C-10.1875 23.625 -10.1875 23.625 -7.96875 21.73828125 C-4.825088015 18.962627315 -4.232177416 15.955938019 -3 12 C-2.443125 10.96875 -1.88625 9.9375 -1.3125 8.875 C0.148239979 5.675283856 0.248312208 3.476370912 0 0 Z " fill="#EAE2D2" transform="translate(158,104)" />
<path d="M0 0 C0.66 0 1.32 0 2 0 C2.942765882 1.414148823 3.879852518 2.832567283 4.78125 4.2734375 C6.111590738 6.158086879 7.585346244 7.656015507 9.25 9.25 C10.1575 10.1575 11.065 11.065 12 12 C12 12.66 12 13.32 12 14 C12.560097656 13.671853027 13.120195312 13.343706055 13.697265625 13.005615234 C16.31820209 11.861039609 18.000188329 11.809268089 20.84375 11.91015625 C21.760273437 11.930136719 22.676796875 11.950117187 23.62109375 11.970703125 C25.540492978 12.031905136 27.459771726 12.09701011 29.37890625 12.166015625 C30.753691406 12.194052734 30.753691406 12.194052734 32.15625 12.22265625 C32.989628906 12.251096191 33.823007813 12.279536133 34.681640625 12.308837891 C37.520781848 11.930624575 38.872042942 10.863186797 41 9 C40.34 11.97 39.68 14.94 39 18 C40.32 15.03 41.64 12.06 43 9 C43.33 9 43.66 9 44 9 C44.638195004 18.129734085 44.638195004 18.129734085 41.9375 21.8125 C41.298125 22.534375 40.65875 23.25625 40 24 C40.21053391 26.314926711 40.21053391 26.314926711 41 29 C41.107736718 32.334707923 41.058291833 35.664411787 41 39 C40.01 39 39.02 39 38 39 C38 36.69 38 34.38 38 32 C35.69 32 33.38 32 31 32 C30.01 34.31 29.02 36.62 28 39 C29.1446875 38.505 29.1446875 38.505 30.3125 38 C33 37 33 37 36 37 C34.25 42.75 34.25 42.75 32 45 C31.566875 46.7015625 31.566875 46.7015625 31.125 48.4375 C30 52 30 52 28.3125 53.9375 C24.973019486 55.471855912 22.621658674 55.526786716 19 55 C17.1875 52.75 17.1875 52.75 16 50 C15.4121875 48.8553125 15.4121875 48.8553125 14.8125 47.6875 C14.544375 47.130625 14.27625 46.57375 14 46 C14.33 47.98 14.66 49.96 15 52 C10.300535507 50.156286851 9.110861637 47.199896163 7.04296875 42.796875 C4.73408818 36.605270174 4.477386264 30.428813553 6 24 C5.38125 23.731875 4.7625 23.46375 4.125 23.1875 C2 22 2 22 0 19 C-0.227050781 16.915283203 -0.227050781 16.915283203 -0.1953125 14.55078125 C-0.188867187 13.703222656 -0.182421875 12.855664062 -0.17578125 11.982421875 C-0.159023437 11.101347656 -0.142265625 10.220273437 -0.125 9.3125 C-0.115976562 8.419824219 -0.106953125 7.527148437 -0.09765625 6.607421875 C-0.07409748 4.404676861 -0.041203286 2.20247412 0 0 Z " fill="#767267" transform="translate(117,24)" />
<path d="M0 0 C0.33 1.65 0.66 3.3 1 5 C1 4.34 1 3.68 1 3 C2.32 2.67 3.64 2.34 5 2 C6.506124065 6.683784663 5.365963405 9.079294644 3.1875 13.375 C0.969458836 17.908861405 -0.858496649 22.09153559 -2 27 C-2.66 27 -3.32 27 -4 27 C-4.33 28.32 -4.66 29.64 -5 31 C-5.33 30.01 -5.66 29.02 -6 28 C-6.750234375 28.245566406 -6.750234375 28.245566406 -7.515625 28.49609375 C-10.9263468 29.187891096 -14.287357565 29.105046646 -17.75 29.0625 C-18.447382812 29.057988281 -19.144765625 29.053476562 -19.86328125 29.048828125 C-21.575558026 29.037100202 -23.287790333 29.019166526 -25 29 C-28.839127026 46.790240417 -28.086705907 62.878425004 -19 79 C-18.011334937 80.341759729 -17.016184601 81.678960018 -16 83 C-16 83.66 -16 84.32 -16 85 C-15.34 85 -14.68 85 -14 85 C-14 85.66 -14 86.32 -14 87 C-19.799185266 84.736282944 -22.198221635 79.258221257 -25 74 C-31.201108103 58.868553581 -32.386235246 42.83824185 -26.625 27.453125 C-23.111825907 19.987630052 -18.129393331 13.516453997 -12 8 C-11.004199219 7.1028125 -11.004199219 7.1028125 -9.98828125 6.1875 C-3.039818548 0 -3.039818548 0 0 0 Z " fill="#EDE2D5" transform="translate(120,68)" />
<path d="M0 0 C0.33 0 0.66 0 1 0 C1.136159191 3.001553731 1.234639804 5.996820999 1.3125 9 C1.354394531 9.839179688 1.396289063 10.678359375 1.439453125 11.54296875 C1.551052819 17.301512945 0.504660919 20.579114265 -2.813232422 25.275390625 C-5.254151422 28.822531505 -5.54589404 32.81011568 -6 37 C-6.106992187 37.97453125 -6.213984375 38.9490625 -6.32421875 39.953125 C-6.721902209 46.846304956 -5.416222773 51.279142949 -1.80078125 57.13671875 C0.396021169 59.409765939 1.904318628 59.688849743 5 60 C4.3503125 59.38125 4.3503125 59.38125 3.6875 58.75 C0.648319382 55.598257137 -1.43224937 53.326385747 -1.5 48.8125 C-1.080870299 45.616636033 -0.760717068 43.641075602 1 41 C6.419185698 45.500142509 8.850558706 54.523146232 9.8125 61.3125 C9.874375 62.199375 9.93625 63.08625 10 64 C12.31 64 14.62 64 17 64 C16.01 64.33 15.02 64.66 14 65 C14.495 65.495 14.495 65.495 15 66 C15.99 66 16.98 66 18 66 C19.75 68.25 19.75 68.25 21 71 C20.578125 73.171875 20.578125 73.171875 20 75 C18.417052181 75.05437607 16.833557441 75.092962711 15.25 75.125 C14.36828125 75.148203125 13.4865625 75.17140625 12.578125 75.1953125 C9.886414199 74.991395015 8.300950264 74.365517213 6 73 C6 71.68 6 70.36 6 69 C4.88625 69.103125 3.7725 69.20625 2.625 69.3125 C-4.839284698 69.325758055 -11.59966938 64.860297558 -17 60 C-16.6875 58.125 -16.6875 58.125 -16 56 C-12.812376345 53.874917563 -10.734877774 53.497983703 -7 53 C-7.322265625 52.278125 -7.64453125 51.55625 -7.9765625 50.8125 C-11.198255153 41.958993472 -8.44687263 32.403913535 -5 24 C-4.495976563 23.379558105 -3.991953125 22.759116211 -3.47265625 22.119873047 C-1.773472969 19.673916742 -1.514889971 18.178679657 -1.26953125 15.234375 C-1.148681641 13.900195313 -1.148681641 13.900195313 -1.025390625 12.5390625 C-0.955136719 11.618671875 -0.884882812 10.69828125 -0.8125 9.75 C-0.730644531 8.814140625 -0.648789063 7.87828125 -0.564453125 6.9140625 C-0.364619949 4.610103535 -0.176906103 2.305813839 0 0 Z " fill="#C9AA8E" transform="translate(117,107)" />
<path d="M0 0 C0.33 0 0.66 0 1 0 C1.265546875 1.131796875 1.53109375 2.26359375 1.8046875 3.4296875 C2.161084405 4.911548315 2.517875755 6.393314303 2.875 7.875 C3.049023438 8.621367187 3.223046875 9.367734375 3.40234375 10.13671875 C4.389238792 14.488836713 4.389238792 14.488836713 7 18 C7.326132812 17.240742188 7.652265625 16.481484375 7.98828125 15.69921875 C8.425273438 14.705351562 8.862265625 13.711484375 9.3125 12.6875 C9.741757812 11.701367187 10.171015625 10.715234375 10.61328125 9.69921875 C11.867145594 7.258598294 12.941749439 5.768526142 15 4 C18.030989049 5.058544982 18.956105451 5.92855571 20.66796875 8.71484375 C21.420136719 10.310058594 21.420136719 10.310058594 22.1875 11.9375 C22.696679687 12.998398438 23.205859375 14.059296875 23.73046875 15.15234375 C25 18 25 18 26 21 C29.160326575 14.502881914 31.270682336 8.008976895 33 1 C33.33 1 33.66 1 34 1 C33.607285616 8.854287688 31.270324215 14.896359047 28 22 C27.696586914 22.660322266 27.393173828 23.320644531 27.080566406 24.000976562 C25.0795803 28.346379 23.049218744 32.67715239 21 37 C20.34 37 19.68 37 19 37 C18.566875 38.4540625 18.566875 38.4540625 18.125 39.9375 C17 43 17 43 15 44 C14.34 41.36 13.68 38.72 13 36 C12.34 36 11.68 36 11 36 C9.346554092 32.107354275 7.703590179 28.210369034 6.0625 24.3125 C5.593925781 23.209707031 5.125351562 22.106914062 4.642578125 20.970703125 C4.194628906 19.904003906 3.746679688 18.837304687 3.28515625 17.73828125 C2.871447754 16.758996582 2.457739258 15.779711914 2.031494141 14.770751953 C0.163388036 9.752731554 -0.104743859 5.341936818 0 0 Z " fill="#A49078" transform="translate(125,86)" />
<path d="M0 0 C4.448248585 0.520966051 6.875922241 2.122051851 10.3125 4.9375 C11.195507813 5.647773438 12.078515625 6.358046875 12.98828125 7.08984375 C13.652148437 7.720195312 14.316015625 8.350546875 15 9 C15 9.66 15 10.32 15 11 C15.99 11.33 16.98 11.66 18 12 C28.115453422 25.023386644 31.512954823 39.76407912 30 56 C29.127466917 61.98218725 28.037440911 67.658126672 24.875 72.875 C22.765792861 76.390345232 22.440571058 78.961431969 22 83 C21.0625 86.375 21.0625 86.375 20 89 C19.01 89.495 19.01 89.495 18 90 C18 89.34 18 88.68 18 88 C16.35 88 14.7 88 13 88 C13 89.65 13 91.3 13 93 C11.35 93 9.7 93 8 93 C8.309375 92.236875 8.61875 91.47375 8.9375 90.6875 C10.338025812 85.826851592 10.659797341 81.031418275 11 76 C14.097732436 75.159376027 16.783327508 74.910647986 20 75 C20.33 72.69 20.66 70.38 21 68 C20.34 67.67 19.68 67.34 19 67 C20.172557087 63.662722138 21.188684041 61.225625135 24 59 C24.66 59 25.32 59 26 59 C25.988398437 57.868203125 25.976796875 56.73640625 25.96484375 55.5703125 C25.955465464 54.088543312 25.946365305 52.606772346 25.9375 51.125 C25.929121094 50.378632813 25.920742187 49.632265625 25.912109375 48.86328125 C25.88671875 43.2265625 25.88671875 43.2265625 27 41 C26.34 41 25.68 41 25 41 C24.67 41.66 24.34 42.32 24 43 C24 41.68 24 40.36 24 39 C24.66 39 25.32 39 26 39 C23.083324175 23.657810904 17.088689288 12.790155132 4.1484375 3.69921875 C2.766256946 2.798508673 1.383229132 1.899098936 0 1 C0 0.67 0 0.34 0 0 Z " fill="#EED8C8" transform="translate(162,69)" />
<path d="M0 0 C0.33 0 0.66 0 1 0 C1.61342022 8.434528023 -0.490561916 15.947671038 -2.525878906 24.055664062 C-3.300007268 27.230307868 -3.898964292 30.432943082 -4.49609375 33.64453125 C-5 36 -5 36 -5.78515625 38.63671875 C-8.470782477 47.792830491 -8.283424007 56.5525331 -8 66 C-9.65 65.67 -11.3 65.34 -13 65 C-13.125560538 58.596412556 -13.125560538 58.596412556 -12.5 55.625 C-11.627521943 51.0444902 -11.533625373 46.243297199 -12.484619141 41.668945312 C-14.108965267 33.257125392 -15.339722637 21.599940136 -11.390625 13.8359375 C-9.377271733 11.69391128 -7.253399774 9.882006107 -5 8 C-3.502670159 5.866668406 -2.20828408 3.691016044 -0.91015625 1.43359375 C-0.609804688 0.960507812 -0.309453125 0.487421875 0 0 Z " fill="#DEDACD" transform="translate(157,116)" />
<path d="M0 0 C3.998884357 3.775233107 6.959925402 8.046265547 10.09765625 12.5390625 C11.936173283 15.187872151 11.936173283 15.187872151 15 17 C15.255801953 19.500127506 15.324322814 21.749834687 15.2578125 24.24609375 C15.251195984 24.971840973 15.244579468 25.697588196 15.237762451 26.445327759 C15.214322195 28.776478366 15.170725774 31.106688815 15.125 33.4375 C15.078211392 36.477798112 15.040169084 39.518109252 15.0078125 42.55859375 C14.99913147 43.290328064 14.990450439 44.022062378 14.981506348 44.775970459 C14.93950864 50.561930914 15.283344992 56.254998639 16 62 C12.907250939 59.460736211 12.173151827 56.980041478 11.1328125 53.171875 C10.806679688 51.98996582 10.480546875 50.808056641 10.14453125 49.590332031 C9.808085938 48.323022461 9.471640625 47.055712891 9.125 45.75 C8.772230107 44.442520021 8.419364703 43.135065808 8.06640625 41.827636719 C5.873546301 33.633723164 3.835957981 25.406633247 2 17.125 C1.79262207 16.200419922 1.585244141 15.275839844 1.371582031 14.323242188 C0.332509735 9.439148654 -0.21766037 4.992584733 0 0 Z " fill="#E5E1D5" transform="translate(123,115)" />
<path d="M0 0 C5.726152393 1.323540842 7.956013833 5.401742204 11.13671875 9.99609375 C15.617467509 17.219774663 17.651936731 24.663292941 19 33 C16.69 33 14.38 33 12 33 C11.673867188 31.914609375 11.347734375 30.82921875 11.01171875 29.7109375 C10.570590939 28.265539992 10.12916904 26.820232216 9.6875 25.375 C9.474160156 24.662148438 9.260820313 23.949296875 9.041015625 23.21484375 C7.716999448 18.906850815 6.14463344 14.987382993 4 11 C1.983037777 14.025443335 1.741889038 14.610673824 1.8125 18 C1.818945313 18.680625 1.825390625 19.36125 1.83203125 20.0625 C1.943022535 22.217582086 1.943022535 22.217582086 3 25 C5.000164663 26.208820964 5.000164663 26.208820964 7 27 C7 27.99 7 28.98 7 30 C3.813343202 29.691089392 2.395031948 29.446595852 0.234375 27.00390625 C-0.25546875 26.198242188 -0.7453125 25.392578125 -1.25 24.5625 C-1.75015625 23.759414063 -2.2503125 22.956328125 -2.765625 22.12890625 C-4.863914275 18.510021267 -5.161740849 16.339197022 -5.1875 12.125 C-5.201679688 11.075703125 -5.215859375 10.02640625 -5.23046875 8.9453125 C-5.000482857 6.006170746 -4.635139999 4.422832025 -3 2 C-2.01 1.34 -1.02 0.68 0 0 Z " fill="#EEE6D5" transform="translate(115,138)" />
<path d="M0 0 C0.66 0 1.32 0 2 0 C2 0.99 2 1.98 2 3 C2.66 3 3.32 3 4 3 C4.33 2.01 4.66 1.02 5 0 C5.002578125 1.30453125 5.00515625 2.6090625 5.0078125 3.953125 C5.173449561 13.731326408 5.538898088 21.283792865 10.72265625 29.78515625 C12 32 12 32 12 35 C11.278125 34.731875 10.55625 34.46375 9.8125 34.1875 C6.860964312 33.679470142 6.860964312 33.679470142 4.5625 35.875 C-0.747325833 41.921836359 -4.502812153 48.3697038 -7 56 C-7.33 56 -7.66 56 -8 56 C-7.165685757 47.466760657 -5.064133759 39.238564871 -3.083984375 30.91015625 C-1.675640981 24.792558069 -0.63467437 19.280491676 -1 13 C-2.485 15.475 -2.485 15.475 -4 18 C-4.33 17.34 -4.66 16.68 -5 16 C-4.00390625 13.828125 -4.00390625 13.828125 -2.5625 11.25 C-0.489960627 7.299579649 0.598548906 4.548971689 0 0 Z " fill="#D5D1C6" transform="translate(158,104)" />
<path d="M0 0 C2.778862402 3.416329723 5.390154135 6.908494543 7.9375 10.5 C10.724865408 14.360631341 13.47523673 17.805683286 17 21 C16.67 18.36 16.34 15.72 16 13 C17.892133693 15.385733786 19.023917827 17.071753482 20 20 C20.99 18.02 21.98 16.04 23 14 C24.207755798 17.623267393 23.543111279 18.641463687 22 22 C25.600620109 19.222378773 28.830471529 16.260086428 32 13 C30.680884671 15.950485012 29.254806978 17.836291085 26.9375 20.0625 C22.970185146 24.483498061 23.020710105 29.273655861 23 35 C22.67 35 22.34 35 22 35 C21.67 31.37 21.34 27.74 21 24 C20.01 24 19.02 24 18 24 C17.876067411 32.193321153 18.07345249 40.319717537 18.5 48.5 C19.122073894 60.963894967 19.122073894 60.963894967 19.25 67.1875 C19.27578125 68.274179688 19.3015625 69.360859375 19.328125 70.48046875 C19.21984375 71.311914062 19.1115625 72.143359375 19 73 C15.89013793 75.07324138 15.108916129 75.273921863 11.5625 75.25 C10.800664063 75.25515625 10.038828125 75.2603125 9.25390625 75.265625 C6.785569819 74.974729199 5.142314002 74.229756557 3 73 C3 72.34 3 71.68 3 71 C3.99 71.33 4.98 71.66 6 72 C7.727953516 72.068029666 9.458353651 72.084956446 11.1875 72.0625 C12.088554687 72.053476563 12.989609375 72.044453125 13.91796875 72.03515625 C14.605039062 72.023554687 15.292109375 72.011953125 16 72 C15.846601563 71.38640625 15.693203125 70.7728125 15.53515625 70.140625 C15.0234375 68.09375 14.51171875 66.046875 14 64 C13.01 64 12.02 64 11 64 C11 64.66 11 65.32 11 66 C10.34 65.67 9.68 65.34 9 65 C9.33 64.34 9.66 63.68 10 63 C10.99 63 11.98 63 13 63 C12.237959922 60.268101381 11.465766435 57.539777507 10.6875 54.8125 C10.474160156 54.043574219 10.260820312 53.274648437 10.041015625 52.482421875 C8.812492034 48.210093567 7.366253579 44.795720551 5 41 C5 40.01 5 39.02 5 38 C4.208745237 31.998248448 3.25818661 26.033334833 1.9375 20.125 C0.545537547 13.504958098 0.341482768 6.739791473 0 0 Z M2 6 C2.068844332 23.3143496 7.837295255 40.559437632 12.75 57 C13.190134277 58.486691895 13.190134277 58.486691895 13.639160156 60.003417969 C13.918081055 60.909790039 14.197001953 61.816162109 14.484375 62.75 C14.728974609 63.54921875 14.973574219 64.3484375 15.225585938 65.171875 C15.849401825 67.195176468 15.849401825 67.195176468 18 68 C17.924912109 67.407514648 17.849824219 66.815029297 17.772460938 66.204589844 C17.125730201 60.325917066 16.956676308 54.566830956 17.078125 48.6640625 C17.090733643 47.931129761 17.103342285 47.198197021 17.116333008 46.443054199 C17.170376573 43.39455088 17.227569635 40.3468637 17.322265625 37.299316406 C17.388926311 35.045709056 17.423609354 32.793422207 17.453125 30.5390625 C17.482068481 29.85566803 17.511011963 29.17227356 17.54083252 28.468170166 C17.562341998 24.621157904 17.137471479 23.161344191 14.607177734 20.191650391 C13.746809082 19.468405762 12.88644043 18.745161133 12 18 C10.578614031 16.291775781 9.181587409 14.562919299 7.8125 12.8125 C5.939132696 10.423329844 4.146728665 8.146728665 2 6 Z " fill="#413D33" transform="translate(121,109)" />
<path d="M0 0 C3.716075477 6.270877368 4.534496519 10.754602744 4 18 C3.01 18 2.02 18 1 18 C1 15.69 1 13.38 1 11 C-1.31 11 -3.62 11 -6 11 C-6.99 13.31 -7.98 15.62 -9 18 C-8.236875 17.67 -7.47375 17.34 -6.6875 17 C-4 16 -4 16 -1 16 C-2.75 21.75 -2.75 21.75 -5 24 C-5.28875 25.134375 -5.5775 26.26875 -5.875 27.4375 C-7 31 -7 31 -8.6875 32.9375 C-12.026980514 34.471855912 -14.378341326 34.526786716 -18 34 C-20.714620918 30.817340993 -21.970674843 27.031523533 -23 23 C-22.625 20.625 -22.625 20.625 -22 19 C-21.01 19.33 -20.02 19.66 -19 20 C-18.200468622 23.286962332 -17.903410641 24.710231922 -19 28 C-18.21625 28.309375 -17.4325 28.61875 -16.625 28.9375 C-14 30 -14 30 -12 31 C-10.26337666 27.774842368 -9.109407199 24.48670834 -8 21 C-8.99 21 -9.98 21 -11 21 C-10.67 18.69 -10.34 16.38 -10 14 C-10.33 14.33 -10.66 14.66 -11 15 C-11.33 15 -11.66 15 -12 15 C-12.456751831 9.290602115 -11.621055564 6.448725408 -8 2 C-4.772084452 -0.151943699 -3.715991908 -0.200864427 0 0 Z " fill="#E4E1D6" transform="translate(154,45)" />
<path d="M0 0 C5.187076281 3.879648835 7.541070854 6.906132116 10 13 C10.980850822 14.220732817 12.004566943 15.407928828 13.0625 16.5625 C17.727062955 21.758176559 18.303916464 27.271192486 19 34 C17.68 33.67 16.36 33.34 15 33 C14.34 30.36 13.68 27.72 13 25 C11.35 25 9.7 25 8 25 C6.665039183 29.004882451 7.735662674 31.007355813 9 35 C11.111111111 41.666666667 11.111111111 41.666666667 10 45 C4.664524426 40.426735223 2.027577478 34.829411986 1.0625 27.9375 C0.720679861 23.085140204 1.919115031 20.328240736 4 16 C4.739250404 11.036461574 3.239328165 7.970462962 0.875 3.734375 C0 2 0 2 0 0 Z " fill="#E1DED2" transform="translate(121,31)" />
<path d="M0 0 C2.671022141 0.992093938 4.987463014 1.991751983 7.375 3.5625 C10.573484734 5.314051164 13.396857989 5.646750783 17 6 C17.6875 8.3125 17.6875 8.3125 18 11 C16.5625 12.8125 16.5625 12.8125 15 14 C14.01 13.67 13.02 13.34 12 13 C11.01 14.485 11.01 14.485 10 16 C8.340518524 17.011878949 6.674194382 18.012654595 5 19 C4.67 19.66 4.34 20.32 4 21 C4.99 21.33 5.98 21.66 7 22 C6.25 28.75 6.25 28.75 4 31 C1.795287195 26.194221526 0.305646613 21.71360164 -0.75 16.5 C-1.01296875 15.2521875 -1.2759375 14.004375 -1.546875 12.71875 C-2.092879287 8.237749296 -2.050386549 4.100773099 0 0 Z " fill="#E9E5D7" transform="translate(127,75)" />
<path d="M0 0 C2 3 2 3 2 5 C3.32 5 4.64 5 6 5 C5.81953125 5.997734375 5.6390625 6.99546875 5.453125 8.0234375 C4.888875018 12.007202445 5.221432571 15.62870989 5.75 19.625 C5.839992676 20.314326172 5.929985352 21.003652344 6.022705078 21.713867188 C6.802979573 27.351561208 8.039278559 32.829154048 9.51171875 38.328125 C9.999150703 40.995352645 9.895859678 42.474757955 9 45 C4 40 4 40 2.5 38.25 C0.467251497 36.556042914 -1.417944566 36.34892641 -4 36 C-4.33 36.66 -4.66 37.32 -5 38 C-6.104887833 34.685336501 -5.961628166 34.156903305 -4.75 31.0625 C-4.49734375 30.393476562 -4.2446875 29.724453125 -3.984375 29.03515625 C-3 27 -3 27 -1.456787109 25.211669922 C0.358199074 22.456188133 0.347562932 20.853775909 0.29296875 17.578125 C0.278466797 16.040917969 0.278466797 16.040917969 0.263671875 14.47265625 C0.238535156 13.409179688 0.213398438 12.345703125 0.1875 11.25 C0.173964844 10.171054688 0.160429687 9.092109375 0.146484375 7.98046875 C0.11116584 5.3198058 0.061841991 2.660157044 0 0 Z " fill="#D0CDC0" transform="translate(117,103)" />
<path d="M0 0 C3 1 3 1 5 4 C5.495632803 9.253707714 4.655390597 12.46370773 2 17 C2.928125 16.38125 3.85625 15.7625 4.8125 15.125 C10.723341244 11.184439171 12.14659232 10.876490544 19 12 C19.33 13.32 19.66 14.64 20 16 C13.181102517 20.239124481 7.201313529 23.369139356 -1 23 C-1.66 22.67 -2.32 22.34 -3 22 C-3 21.34 -3 20.68 -3 20 C-5.31 20 -7.62 20 -10 20 C-10 19.67 -10 19.34 -10 19 C-7.69 19 -5.38 19 -3 19 C-1.640082616 12.675724008 -0.623201208 6.439745814 0 0 Z " fill="#DEDACD" transform="translate(159,152)" />
<path d="M0 0 C0.33 0 0.66 0 1 0 C3.889383816 21.025426875 3.889383816 21.025426875 2 30 C1.961753773 32.333019861 1.954257158 34.667115083 2 37 C3.32 37.33 4.64 37.66 6 38 C5.835 36.88625 5.67 35.7725 5.5 34.625 C4.686423588 27.998479075 3.966297857 22.067404286 7 16 C6.67 19.96 6.34 23.92 6 28 C8.31 28 10.62 28 13 28 C13 28.66 13 29.32 13 30 C13.66 30 14.32 30 15 30 C15.66 30.66 16.32 31.32 17 32 C19.068740342 32.6425235 19.068740342 32.6425235 21 33 C20.01 33 19.02 33 18 33 C17.87625 34.175625 17.87625 34.175625 17.75 35.375 C17 38 17 38 15.265625 39.14453125 C12.709793411 40.109578005 10.727440523 40.300026949 8 40.3125 C7.154375 40.329257813 6.30875 40.346015625 5.4375 40.36328125 C2.43434856 39.91569618 1.073823218 39.219184658 -1 37 C-1.171875 34.72265625 -1.171875 34.72265625 -0.75 32.0625 C0.450590898 22.751795074 0.111926668 13.719606433 -0.87890625 4.3984375 C-1 2 -1 2 0 0 Z " fill="#686459" transform="translate(143,144)" />
<path d="M0 0 C4.742619164 3.161746109 7.21194886 6.664842004 9 12 C9.636182366 16.335465013 9.495167812 20.257248283 7 24 C5 23 5 23 4.18359375 20.99609375 C2.622965576 15.644201322 1.514187621 10.553226303 1 5 C1.0928125 6.5159375 1.0928125 6.5159375 1.1875 8.0625 C1.224080187 14.805447759 -0.565722637 21.443303483 -2 28 C-5.901715742 22.910805555 -6.441348647 19.686679457 -6.43359375 13.265625 C-5.735094982 8.004859507 -3.117782799 4.194160195 0 0 Z " fill="#EFDABF" transform="translate(140,92)" />
<path d="M0 0 C4.448248585 0.520966051 6.875922241 2.122051851 10.3125 4.9375 C11.195507813 5.647773438 12.078515625 6.358046875 12.98828125 7.08984375 C13.652148437 7.720195312 14.316015625 8.350546875 15 9 C15 9.66 15 10.32 15 11 C15.99 11.33 16.98 11.66 18 12 C29.01435042 26.180693457 31.716842306 42.08131416 29.5625 59.546875 C27.642391582 69.579441486 22.74224256 78.357868802 16 86 C15.34 86 14.68 86 14 86 C15.171819416 83.336774054 16.469034716 81.416875758 18.3125 79.125 C26.505406044 67.941804806 27.956090536 53.394924987 27 40 C24.69008207 25.71036977 17.541084262 13.766560975 6 5 C4.024407417 3.624215781 2.01879027 2.312213676 0 1 C0 0.67 0 0.34 0 0 Z " fill="#B16862" transform="translate(162,69)" />
<path d="M0 0 C-1.286752555 3.860257664 -2.914963466 4.551987269 -6.25 6.8125 C-17.168195575 14.574984854 -23.383029009 25.329392932 -26.5546875 38.26171875 C-28.915043729 52.775839071 -26.199380299 66.226905922 -19 79 C-18.011334937 80.341759729 -17.016184601 81.678960018 -16 83 C-16 83.66 -16 84.32 -16 85 C-15.34 85 -14.68 85 -14 85 C-14 85.66 -14 86.32 -14 87 C-19.799185266 84.736282944 -22.198221635 79.258221257 -25 74 C-31.201108103 58.868553581 -32.386235246 42.83824185 -26.625 27.453125 C-23.111825907 19.987630052 -18.129393331 13.516453997 -12 8 C-11.004199219 7.1028125 -11.004199219 7.1028125 -9.98828125 6.1875 C-3.039818548 0 -3.039818548 0 0 0 Z " fill="#AF675F" transform="translate(120,68)" />
<path d="M0 0 C0.99 0 1.98 0 3 0 C4.773855916 3.547711832 4.033531446 7.878478481 3.9609375 11.794921875 C3.910397716 16.305597584 4.315645153 20.528185122 5 25 C5.41716205 32.343992374 5.3905674 39.9611071 3 47 C2.01 47.495 2.01 47.495 1 48 C0.710443919 43.37788404 0.425843868 38.755496843 0.145507812 34.1328125 C0.049809652 32.565674846 -0.047159429 30.998614193 -0.145507812 29.431640625 C-1.768110795 3.536221591 -1.768110795 3.536221591 0 0 Z " fill="#DCD7CB" transform="translate(139,133)" />
<path d="M0 0 C0.33 0 0.66 0 1 0 C1.136159191 3.001553731 1.234639804 5.996820999 1.3125 9 C1.354394531 9.839179688 1.396289063 10.678359375 1.439453125 11.54296875 C1.551052819 17.301512945 0.504660919 20.579114265 -2.813232422 25.275390625 C-7.083208246 31.480514924 -6.868624409 41.818698198 -6 49 C-4.930189488 51.674526279 -3.659847868 53.61396869 -2 56 C-2 56.66 -2 57.32 -2 58 C-2.66 58 -3.32 58 -4 58 C-4 57.34 -4 56.68 -4 56 C-9.445 56.495 -9.445 56.495 -15 57 C-15 57.99 -15 58.98 -15 60 C-12.03 59.505 -12.03 59.505 -9 59 C-10.485 59.495 -10.485 59.495 -12 60 C-8.602474588 63.694808886 -4.831042382 65.679180092 0 67 C3.742440097 67.038532202 7.31537951 66.633616982 11 66 C9.68 68.31 8.36 70.62 7 73 C6.67 71.68 6.34 70.36 6 69 C4.88625 69.103125 3.7725 69.20625 2.625 69.3125 C-4.839284698 69.325758055 -11.59966938 64.860297558 -17 60 C-16.6875 58.125 -16.6875 58.125 -16 56 C-12.812376345 53.874917563 -10.734877774 53.497983703 -7 53 C-7.322265625 52.278125 -7.64453125 51.55625 -7.9765625 50.8125 C-11.198255153 41.958993472 -8.44687263 32.403913535 -5 24 C-4.495976563 23.379558105 -3.991953125 22.759116211 -3.47265625 22.119873047 C-1.773472969 19.673916742 -1.514889971 18.178679657 -1.26953125 15.234375 C-1.148681641 13.900195313 -1.148681641 13.900195313 -1.025390625 12.5390625 C-0.955136719 11.618671875 -0.884882812 10.69828125 -0.8125 9.75 C-0.730644531 8.814140625 -0.648789063 7.87828125 -0.564453125 6.9140625 C-0.364619949 4.610103535 -0.176906103 2.305813839 0 0 Z " fill="#454035" transform="translate(117,107)" />
<path d="M0 0 C0.785039063 -0.003867187 1.570078125 -0.007734375 2.37890625 -0.01171875 C8.246692126 -0.001653937 8.246692126 -0.001653937 10.5 1.125 C11.125 3.1875 11.125 3.1875 11.5 5.125 C10.5925 5.49625 9.685 5.8675 8.75 6.25 C4.167415933 8.8937985 2.154604809 12.161185572 0.5 17.125 C-0.16 17.125 -0.82 17.125 -1.5 17.125 C-1.87125 15.908125 -2.2425 14.69125 -2.625 13.4375 C-3.808478512 10.201515277 -4.957595272 8.416398206 -7.6875 6.3125 C-8.615625 5.590625 -9.54375 4.86875 -10.5 4.125 C-10.5 3.135 -10.5 2.145 -10.5 1.125 C-7.218554814 -0.515722593 -3.602100039 -0.017744335 0 0 Z " fill="#E3E0D3" transform="translate(140.5,37.875)" />
<path d="M0 0 C0.66 0 1.32 0 2 0 C2.942765882 1.414148823 3.879852518 2.832567283 4.78125 4.2734375 C6.111590738 6.158086879 7.585346244 7.656015507 9.25 9.25 C10.1575 10.1575 11.065 11.065 12 12 C12 12.66 12 13.32 12 14 C12.66 13.67 13.32 13.34 14 13 C15.99960012 12.960007998 18.000472422 12.956532009 20 13 C20 13.33 20 13.66 20 14 C17.69 14.33 15.38 14.66 13 15 C12.67 15.99 12.34 16.98 12 18 C11.5875 17.071875 11.175 16.14375 10.75 15.1875 C9.065582141 12.119453185 7.915459169 10.809595346 5 9 C5.28875 9.507890625 5.5775 10.01578125 5.875 10.5390625 C8.188942097 14.829496804 9.759087208 18.011712634 9 23 C7.5 26.375 7.5 26.375 6 29 C5.67 28.34 5.34 27.68 5 27 C5.33 26.01 5.66 25.02 6 24 C5.38125 23.731875 4.7625 23.46375 4.125 23.1875 C2 22 2 22 0 19 C-0.227050781 16.915283203 -0.227050781 16.915283203 -0.1953125 14.55078125 C-0.188867187 13.703222656 -0.182421875 12.855664062 -0.17578125 11.982421875 C-0.159023437 11.101347656 -0.142265625 10.220273437 -0.125 9.3125 C-0.115976562 8.419824219 -0.106953125 7.527148437 -0.09765625 6.607421875 C-0.07409748 4.404676861 -0.041203286 2.20247412 0 0 Z " fill="#69655A" transform="translate(117,24)" />
<path d="M0 0 C0.33 0 0.66 0 1 0 C1.014179687 0.666445313 1.028359375 1.332890625 1.04296875 2.01953125 C1.386059697 8.649531976 2.884410584 13.451490702 5.7890625 19.38671875 C9.268813948 26.896246876 10.900282524 37.101435172 8.32421875 45.09765625 C7.5 46.75 7.5 46.75 6 49 C7.985677083 48.934895833 9.971354167 48.869791667 11.95703125 48.8046875 C14 49 14 49 17 51 C16.8046875 53.296875 16.8046875 53.296875 16 56 C13.8203125 57.765625 13.8203125 57.765625 11.125 59.25 C10.240703125 59.75015625 9.35640625 60.2503125 8.4453125 60.765625 C4.124788361 62.946592457 0.795301412 63.090477385 -4 63 C-4.495 63.99 -4.495 63.99 -5 65 C-5.33 64.01 -5.66 63.02 -6 62 C-5.131171875 61.82984375 -4.26234375 61.6596875 -3.3671875 61.484375 C2.976239111 60.150410567 7.88463602 59.009339336 13 55 C13.66 55 14.32 55 15 55 C14.67 54.01 14.34 53.02 14 52 C8.988685135 50.79692961 8.988685135 50.79692961 4.1328125 51.82421875 C2.307771315 53.032187084 2.307771315 53.032187084 0 55 C1.005595303 52.908925654 2.049971058 50.920803444 3.2890625 48.95703125 C8.246566644 40.998932493 7.597484992 35.345566017 5.75 26.375 C4.851857265 22.65350905 4.006548236 19.638816337 1.8125 16.5 C-0.950107347 11.16530995 -0.319081529 5.894144908 0 0 Z " fill="#363328" transform="translate(164,113)" />
<path d="M0 0 C1.84375 0.25390625 1.84375 0.25390625 4 1 C5.34375 2.77734375 5.34375 2.77734375 6.5 4.9375 C8.109608294 8.064600238 8.109608294 8.064600238 10.98046875 9.88671875 C13.991161954 11.546385216 14.544324122 13.740958103 15.8125 16.875 C16.252070312 17.924296875 16.691640625 18.97359375 17.14453125 20.0546875 C17.994772538 22.982002256 18.095896021 24.216558574 17 27 C10.878627594 21.451015663 5.700286416 15.446826411 2 8 C2 6.68 2 5.36 2 4 C0.68 4 -0.64 4 -2 4 C-1.333333333 2.666666667 -0.666666667 1.333333333 0 0 Z " fill="#EBE6DA" transform="translate(121,104)" />
<path d="M0 0 C0.99 0.99 1.98 1.98 3 3 C3 2.34 3 1.68 3 1 C4.8984375 1.25390625 4.8984375 1.25390625 7 2 C7.9765625 3.71484375 7.9765625 3.71484375 8.625 5.9375 C8.860898437 6.739296875 9.096796875 7.54109375 9.33984375 8.3671875 C10.388475432 12.549304384 11.246778912 16.755377636 12 21 C9.69 21 7.38 21 5 21 C4.157739999 18.440131213 3.326014485 15.877609848 2.5 13.3125 C2.142285156 12.230654297 2.142285156 12.230654297 1.77734375 11.126953125 C0.556010058 7.305923431 -0.320755775 4.065579444 0 0 Z " fill="#E9DECE" transform="translate(122,150)" />
<path d="M0 0 C2.64 0.66 5.28 1.32 8 2 C8 3.32 8 4.64 8 6 C8.99 6.33 9.98 6.66 11 7 C11 8.32 11 9.64 11 11 C11.66 10.34 12.32 9.68 13 9 C14.32 9 15.64 9 17 9 C16.574054117 10.440965858 16.133733672 11.877687117 15.6875 13.3125 C15.322050781 14.513261719 15.322050781 14.513261719 14.94921875 15.73828125 C13.958179773 18.099645726 12.919250571 19.338799926 11 21 C10.75765625 20.275546875 10.5153125 19.55109375 10.265625 18.8046875 C8.36802935 13.330853894 6.501998235 8.627640525 3 4 C-0.291482434 5.134993943 -0.995986903 5.992833756 -2.75 9.125 C-3.1625 10.07375 -3.575 11.0225 -4 12 C-5.32 11.34 -6.64 10.68 -8 10 C-8 7 -8 7 -6.6875 5.3125 C-5 4 -5 4 -2 4 C-1.34 2.68 -0.68 1.36 0 0 Z M8 1 C10 2 10 2 10 2 Z " fill="#E7DAC5" transform="translate(139,87)" />
<path d="M0 0 C1.225898438 0.013535156 1.225898438 0.013535156 2.4765625 0.02734375 C3.416289062 0.044746094 3.416289062 0.044746094 4.375 0.0625 C4.375 0.7225 4.375 1.3825 4.375 2.0625 C5.035 2.0625 5.695 2.0625 6.375 2.0625 C7.138125 2.84625 7.90125 3.63 8.6875 4.4375 C11.273156761 6.963025209 12.983416819 7.996573857 16.375 9.0625 C16.375 9.7225 16.375 10.3825 16.375 11.0625 C9.249163866 12.980994344 5.232528445 10.986178943 -1.18359375 7.60546875 C-3.625 6.0625 -3.625 6.0625 -4.625 4.0625 C-5.285 4.0625 -5.945 4.0625 -6.625 4.0625 C-6.625 3.0725 -6.625 2.0825 -6.625 1.0625 C-4.219543619 -0.14022819 -2.675030473 -0.038214721 0 0 Z " fill="#E1DED1" transform="translate(108.625,162.9375)" />
<path d="M0 0 C1.245464053 2.490928106 0.776757801 3.410807331 0 6 C0.99 4.02 1.98 2.04 3 0 C3.33 0 3.66 0 4 0 C4.766816143 8.622421525 4.766816143 8.622421525 2.88671875 12 C1.5 13.625 1.5 13.625 -1 16 C-1.268125 15.360625 -1.53625 14.72125 -1.8125 14.0625 C-2.886677522 11.668683138 -2.886677522 11.668683138 -6 11 C-6 9.35 -6 7.7 -6 6 C-6.96421875 5.951015625 -7.9284375 5.90203125 -8.921875 5.8515625 C-10.18515625 5.776796875 -11.4484375 5.70203125 -12.75 5.625 C-14.00296875 5.555390625 -15.2559375 5.48578125 -16.546875 5.4140625 C-19.691350172 5.037010047 -21.299484367 4.474419455 -24 3 C-23.069337158 3.023565674 -23.069337158 3.023565674 -22.119873047 3.047607422 C-19.309174722 3.109962145 -16.498621882 3.148991481 -13.6875 3.1875 C-12.711035156 3.212636719 -11.734570313 3.237773438 -10.728515625 3.263671875 C-9.321826172 3.278173828 -9.321826172 3.278173828 -7.88671875 3.29296875 C-7.022644043 3.308679199 -6.158569336 3.324389648 -5.268310547 3.340576172 C-2.549814639 2.932406783 -1.696361706 2.104070957 0 0 Z " fill="#9F9C93" transform="translate(157,33)" />
<path d="M0 0 C3.716075477 6.270877368 4.534496519 10.754602744 4 18 C3.01 18 2.02 18 1 18 C1 15.69 1 13.38 1 11 C0.401875 10.855625 -0.19625 10.71125 -0.8125 10.5625 C-2.561504045 10.112756103 -4.286770228 9.571076591 -6 9 C-6 8.01 -6 7.02 -6 6 C-6.99 7.485 -6.99 7.485 -8 9 C-8.33 8.67 -8.66 8.34 -9 8 C-9.66 8.66 -10.32 9.32 -11 10 C-10.740289052 6.190906095 -10.417019254 4.44018699 -7.75 1.625 C-4.808675573 -0.113055343 -3.345038903 -0.38229016 0 0 Z " fill="#ECEADD" transform="translate(154,45)" />
<path d="M0 0 C7.425 0.99 7.425 0.99 15 2 C14.01 2.33 13.02 2.66 12 3 C12.33 3.33 12.66 3.66 13 4 C13.99 4 14.98 4 16 4 C17.75 6.25 17.75 6.25 19 9 C18.578125 11.171875 18.578125 11.171875 18 13 C16.396206592 13.054161879 14.791885937 13.092866376 13.1875 13.125 C12.294179687 13.148203125 11.400859375 13.17140625 10.48046875 13.1953125 C8 13 8 13 5 11 C6.875 6.125 6.875 6.125 8 5 C5.36 3.68 2.72 2.36 0 1 C0 0.67 0 0.34 0 0 Z " fill="#B9B4A9" transform="translate(119,169)" />
<path d="M0 0 C0.33 0 0.66 0 1 0 C1.373697287 7.473945737 0.040615409 13.821406506 -2 21 C-2.99 21 -3.98 21 -5 21 C-5.66 20.01 -6.32 19.02 -7 18 C-7.99 18 -8.98 18 -10 18 C-10.66 17.34 -11.32 16.68 -12 16 C-11.329042969 15.27296875 -11.329042969 15.27296875 -10.64453125 14.53125 C-6.91541351 10.396620523 -3.743133844 6.286190724 -0.9453125 1.46875 C-0.477382812 0.74171875 -0.477382812 0.74171875 0 0 Z " fill="#E5E0D5" transform="translate(157,116)" />
<path d="M0 0 C3.666666667 3.666666667 7.333333333 7.333333333 11 11 C10.67 8.36 10.34 5.72 10 3 C11.892133693 5.385733786 13.023917827 7.071753482 14 10 C14.99 8.02 15.98 6.04 17 4 C18.207755798 7.623267393 17.543111279 8.641463687 16 12 C19.600620109 9.222378773 22.830471529 6.260086428 26 3 C24.680884671 5.950485012 23.254806978 7.836291085 20.9375 10.0625 C16.970185146 14.483498061 17.020710105 19.273655861 17 25 C16.67 25 16.34 25 16 25 C15.67 21.37 15.34 17.74 15 14 C14.01 14 13.02 14 12 14 C11.67 20.27 11.34 26.54 11 33 C10.67 33 10.34 33 10 33 C10.026184082 32.420324707 10.052368164 31.840649414 10.079345703 31.243408203 C10.183706123 28.600051251 10.248443266 25.957128009 10.3125 23.3125 C10.354394531 22.400488281 10.396289062 21.488476563 10.439453125 20.548828125 C10.567382262 14.849816913 10.567382262 14.849816913 7.65625 10.0546875 C6.7796875 9.376640625 5.903125 8.69859375 5 8 C0 2.530864198 0 2.530864198 0 0 Z " fill="#383226" transform="translate(127,119)" />
<path d="M0 0 C0.66 0 1.32 0 2 0 C1.773271122 13.047216316 -1.005837218 25.342032493 -4 38 C-3.01 37.34 -2.02 36.68 -1 36 C-2.261920764 39.259961973 -3.613137518 42.479086794 -5 45.6875 C-5.33 46.454492187 -5.66 47.221484375 -6 48.01171875 C-7 50 -7 50 -9 52 C-8.165685757 43.466760657 -6.064133759 35.238564871 -4.083984375 26.91015625 C-2.675640981 20.792558069 -1.63467437 15.280491676 -2 9 C-3.485 11.475 -3.485 11.475 -5 14 C-5.33 13.34 -5.66 12.68 -6 12 C-4.78515625 9.1796875 -4.78515625 9.1796875 -3.0625 5.875 C-2.496601562 4.779296875 -1.930703125 3.68359375 -1.34765625 2.5546875 C-0.902929688 1.711640625 -0.458203125 0.86859375 0 0 Z " fill="#434036" transform="translate(159,108)" />
<path d="M0 0 C0.33 0 0.66 0 1 0 C1.265546875 1.131796875 1.53109375 2.26359375 1.8046875 3.4296875 C2.161084405 4.911548315 2.517875755 6.393314303 2.875 7.875 C3.049023438 8.621367187 3.223046875 9.367734375 3.40234375 10.13671875 C4.389238792 14.488836713 4.389238792 14.488836713 7 18 C7.326132812 17.240742188 7.652265625 16.481484375 7.98828125 15.69921875 C8.425273438 14.705351562 8.862265625 13.711484375 9.3125 12.6875 C9.741757812 11.701367187 10.171015625 10.715234375 10.61328125 9.69921875 C11.867145594 7.258598294 12.941749439 5.768526142 15 4 C18.617736033 5.433150249 19.969106997 7.045879641 21.8125 10.4375 C22.252070312 11.219960938 22.691640625 12.002421875 23.14453125 12.80859375 C24 15 24 15 23 18 C22.510800781 17.060273438 22.510800781 17.060273438 22.01171875 16.1015625 C21.574726562 15.284296875 21.137734375 14.46703125 20.6875 13.625 C20.258242188 12.812890625 19.828984375 12.00078125 19.38671875 11.1640625 C18.032212761 8.731659572 18.032212761 8.731659572 15 7 C10.198732537 13.790363984 8.86218175 19.723869363 10 28 C10.359648437 28.694804687 10.719296875 29.389609375 11.08984375 30.10546875 C12.243734196 32.507343713 11.736050906 33.51304501 11 36 C9.346554092 32.107354275 7.703590179 28.210369034 6.0625 24.3125 C5.593925781 23.209707031 5.125351562 22.106914062 4.642578125 20.970703125 C4.194628906 19.904003906 3.746679688 18.837304687 3.28515625 17.73828125 C2.871447754 16.758996582 2.457739258 15.779711914 2.031494141 14.770751953 C0.163388036 9.752731554 -0.104743859 5.341936818 0 0 Z " fill="#72614E" transform="translate(125,86)" />
<path d="M0 0 C1.9453125 -0.29296875 1.9453125 -0.29296875 4.125 -0.1875 C5.40375 -0.125625 6.6825 -0.06375 8 0 C7.67 2.64 7.34 5.28 7 8 C7.99 8.33 8.98 8.66 10 9 C6.866520788 17.507658643 6.866520788 17.507658643 3.25 19.5625 C2.5075 19.706875 1.765 19.85125 1 20 C1.781755148 15.15311808 3.39844278 10.623363295 5 6 C2.36 6.66 -0.28 7.32 -3 8 C-2.452763165 4.625372852 -1.945100003 2.917650005 0 0 Z " fill="#8D8B7E" transform="translate(148,55)" />
<path d="M0 0 C6.286918836 4.547250884 9.076502086 8.641883391 10.39453125 16.2890625 C10.645996747 18.186788785 10.829756303 20.093270593 11 22 C9.68 21.67 8.36 21.34 7 21 C6.7525 19.72125 6.505 18.4425 6.25 17.125 C5.511510638 13.79742895 5.511510638 13.79742895 3 11.625 C2.34 11.41875 1.68 11.2125 1 11 C0.34 10.34 -0.32 9.68 -1 9 C-1 7 -1 7 0 6 C-0.66 6 -1.32 6 -2 6 C-2 4.35 -2 2.7 -2 1 C-1.34 0.67 -0.68 0.34 0 0 Z " fill="#EBE8DB" transform="translate(129,43)" />
<path d="M0 0 C3 1 3 1 5 4 C5.495632803 9.253707714 4.655390597 12.46370773 2 17 C2.99 16.67 3.98 16.34 5 16 C5 16.66 5 17.32 5 18 C1.04 19.98 1.04 19.98 -3 22 C-3 21.34 -3 20.68 -3 20 C-5.31 20 -7.62 20 -10 20 C-10 19.67 -10 19.34 -10 19 C-7.69 19 -5.38 19 -3 19 C-1.640082616 12.675724008 -0.623201208 6.439745814 0 0 Z " fill="#B99C83" transform="translate(159,152)" />
<path d="M0 0 C0.66 0 1.32 0 2 0 C2.108529228 2.876024545 2.187551498 5.747908319 2.25 8.625 C2.300273438 9.837363281 2.300273438 9.837363281 2.3515625 11.07421875 C2.442936979 16.693749215 1.434035831 19.385514352 -2 24 C-2.473968062 26.278129639 -2.473968062 26.278129639 -2.25 28.375 C-2.1675 29.57125 -2.085 30.7675 -2 32 C-4.000477667 28.999283499 -4.830831567 27.552537086 -5 24 C-4.360625 23.236875 -3.72125 22.47375 -3.0625 21.6875 C-0.177747259 17.928579762 -0.68497421 15.646630404 -1 11 C-2.32 13.97 -3.64 16.94 -5 20 C-6.10191901 15.592323961 -5.587068421 14.107706503 -4 10 C-5.32 10.99 -6.64 11.98 -8 13 C-6.536007702 9.931246913 -4.859903637 7.095652565 -3 4.25 C-2.484375 3.45078125 -1.96875 2.6515625 -1.4375 1.828125 C-0.963125 1.22484375 -0.48875 0.6215625 0 0 Z " fill="#3A362C" transform="translate(161,24)" />
</svg>