<?xml version='1.0' encoding='utf-8'?>
<svg xmlns="http://www.w3.org/2000/svg" version="1.1" width="171" height="167" viewBox="43.504999999999995 38.0 171.712153646 167.125">
<path d="M0 0 C3.893211066 3.893211066 3.878798299 6.676448365 4 12 C3.5625 15.0625 3.5625 15.0625 3 17 C3.78375 17.04125 4.5675 17.0825 5.375 17.125 C14.491363375 19.325501504 22.933368447 25.997234921 29 33 C30.217153646 35.734711171 30.249404373 36.944796431 30 40 C28 42 28 42 25.845214844 42.227050781 C24.97590332 42.216577148 24.106591797 42.206103516 23.2109375 42.1953125 C22.269921875 42.188867187 21.32890625 42.182421875 20.359375 42.17578125 C18.882109375 42.150644531 18.882109375 42.150644531 17.375 42.125 C16.382421875 42.115976563 15.38984375 42.106953125 14.3671875 42.09765625 C11.91121866 42.074041165 9.455728317 42.041107994 7 42 C6.012616077 44.962151768 5.666485285 47.706370272 5.354492188 50.800537109 C4.027575293 63.879138198 1.136793509 73.986069652 -6.9921875 84.6015625 C-9.731912114 89.23883957 -10.914025899 93.91871393 -12.1875 99.125 C-12.448696289 100.173652344 -12.709892578 101.222304688 -12.979003906 102.302734375 C-15.299310866 112.192763012 -15.977587126 121.869380912 -16 132 C-15.01 132.33 -14.02 132.66 -13 133 C-12.25 135 -12.25 135 -12 137 C-13 138 -13 138 -16.0625 138.0625 C-17.031875 138.041875 -18.00125 138.02125 -19 138 C-22.984661446 132.116887289 -22.305331384 126.141795072 -22.125 119.25 C-22.08177403 116.984450611 -22.042505138 114.718821127 -22.0078125 112.453125 C-21.983481445 111.454423828 -21.959150391 110.455722656 -21.934082031 109.426757812 C-21.829172747 106.989352543 -21.829172747 106.989352543 -23 105 C-25.852903475 120.059965541 -25.852903475 120.059965541 -24 135 C-23.2265625 135.7425 -23.2265625 135.7425 -22.4375 136.5 C-21 138 -21 138 -21 141 C-27.75 142.125 -27.75 142.125 -30 141 C-31.857475442 136.619436868 -32.21075285 132.962960815 -32.08984375 128.23828125 C-32.069863281 126.953730469 -32.049882813 125.669179687 -32.029296875 124.345703125 C-31.971946647 121.67616343 -31.903503702 119.007170446 -31.833984375 116.337890625 C-31.718592984 108.367926633 -32.358080599 101.545100911 -35 94 C-35.624550781 94.040927734 -36.249101563 94.081855469 -36.892578125 94.124023438 C-44.750231271 94.567434311 -51.607299684 92.386116529 -59 90 C-59.265546875 90.714140625 -59.53109375 91.42828125 -59.8046875 92.1640625 C-61.031963319 95.07583454 -62.514181201 97.659175069 -64.125 100.375 C-68.93296959 109.215081006 -66.579131104 116.653607469 -64 126 C-62.771214968 129.422358313 -61.770916877 131.606935424 -59 134 C-59.33 134.99 -59.66 135.98 -60 137 C-62.31 137 -64.62 137 -67 137 C-67.28875 136.05125 -67.5775 135.1025 -67.875 134.125 C-68.768251092 130.947884217 -68.768251092 130.947884217 -71 129 C-71.5625 126.75 -71.5625 126.75 -72 124 C-72.650897291 120.089450405 -73.337888333 116.198170974 -74.125 112.3125 C-74.292578125 111.483632812 -74.46015625 110.654765625 -74.6328125 109.80078125 C-74.814570312 108.909394531 -74.814570312 108.909394531 -75 108 C-76.921320406 109.60587025 -77.904497449 110.506630218 -78.388183594 113.005371094 C-78.391567383 113.753833008 -78.394951172 114.502294922 -78.3984375 115.2734375 C-78.402304687 116.0984375 -78.406171875 116.9234375 -78.41015625 117.7734375 C-78.398554687 118.631953125 -78.386953125 119.49046875 -78.375 120.375 C-78.386601563 121.22578125 -78.398203125 122.0765625 -78.41015625 122.953125 C-78.387157003 127.874963776 -77.987549937 130.905950086 -75 135 C-75 135.66 -75 136.32 -75 137 C-77.6875 137.4375 -77.6875 137.4375 -81 137 C-86.134214747 131.805823621 -86.602326917 127.557088881 -86.5859375 120.38671875 C-86.557578125 119.227851563 -86.52921875 118.068984375 -86.5 116.875 C-86.502578125 115.708398437 -86.50515625 114.541796875 -86.5078125 113.33984375 C-86.440264079 107.442866555 -86.197460877 104.03024207 -83 99 C-82.81507891 95.840749441 -82.81507891 95.840749441 -83.25 92.5625 C-83.35828125 91.470664063 -83.4665625 90.378828125 -83.578125 89.25390625 C-83.980095757 86.153520688 -84.461234624 83.079322793 -85 80 C-87.014130935 84.615033062 -87.014130935 84.615033062 -88.84375 89.3046875 C-93.01427044 100.557902134 -98.313153161 109.058711023 -109 115 C-111.882113021 115.96070434 -113.698500439 116.105818834 -116.6875 116.0625 C-117.495742187 116.053476563 -118.303984375 116.044453125 -119.13671875 116.03515625 C-119.751601562 116.023554687 -120.366484375 116.011953125 -121 116 C-121.495 113.525 -121.495 113.525 -122 111 C-120.787636719 110.943925781 -120.787636719 110.943925781 -119.55078125 110.88671875 C-118.482148438 110.820976562 -117.413515625 110.755234375 -116.3125 110.6875 C-115.256757812 110.629492188 -114.201015625 110.571484375 -113.11328125 110.51171875 C-108.59257491 109.768666641 -106.037825983 108.281890992 -103.15625 104.72265625 C-98.639883067 97.468774454 -95.318413942 90.133258701 -92.301757812 82.152832031 C-87.986860098 70.766456421 -84.078340105 60.640748571 -73.0625 54.3125 C-66.601176849 51.543361507 -60.030044704 51.876683211 -53.125 51.9375 C-51.663203125 51.944267578 -51.663203125 51.944267578 -50.171875 51.951171875 C-47.781185664 51.96289094 -45.390625605 51.979297807 -43 52 C-43 52.33 -43 52.66 -43 53 C-43.690373535 53.044875488 -44.38074707 53.089750977 -45.092041016 53.135986328 C-48.249880818 53.348591791 -51.406037048 53.580380258 -54.5625 53.8125 C-55.648535156 53.882753906 -56.734570312 53.953007813 -57.853515625 54.025390625 C-67.060348436 54.724997981 -73.236489314 56.551071206 -80 63 C-82.529900415 67.184732536 -82.849596868 71.224110808 -82 76 C-80.568548096 78.448929912 -79.057198564 79.9942314 -77 82 C-77.575303386 80.274089843 -78.163862103 78.552218413 -78.7890625 76.84375 C-79.064921875 76.0703125 -79.34078125 75.296875 -79.625 74.5 C-79.906015625 73.7265625 -80.18703125 72.953125 -80.4765625 72.15625 C-81 70 -81 70 -80 67 C-79.34 68.98 -78.68 70.96 -78 73 C-78.04125 71.72125 -78.0825 70.4425 -78.125 69.125 C-78.1953125 66.9453125 -78.1953125 66.9453125 -78 65 C-77.34 64.34 -76.68 63.68 -76 63 C-76 65.97 -76 68.94 -76 72 C-75.34 72 -74.68 72 -74 72 C-73.505 70.515 -73.505 70.515 -73 69 C-70.9375 68.3125 -70.9375 68.3125 -69 68 C-69 67.01 -69 66.02 -69 65 C-70.65 65 -72.3 65 -74 65 C-74 64.34 -74 63.68 -74 63 C-72.298076154 62.009734702 -70.588119888 61.033267937 -68.875 60.0625 C-67.923671875 59.517226562 -66.97234375 58.971953125 -65.9921875 58.41015625 C-62.937435678 56.970514726 -60.338656134 56.391326164 -57 56 C-57 56.66 -57 57.32 -57 58 C-56.34515625 57.984289551 -55.6903125 57.968579102 -55.015625 57.952392578 C-52.010506692 57.889520664 -49.005527375 57.850845124 -46 57.8125 C-44.970039063 57.787363281 -43.940078125 57.762226562 -42.87890625 57.736328125 C-35.59189318 57.666706981 -30.537267211 58.731366395 -24 62 C-24 62.66 -24 63.32 -24 64 C-24.580078125 63.795039062 -25.16015625 63.590078125 -25.7578125 63.37890625 C-26.538984375 63.109492187 -27.32015625 62.840078125 -28.125 62.5625 C-28.890703125 62.295664063 -29.65640625 62.028828125 -30.4453125 61.75390625 C-35.312621618 60.317529094 -40.125906861 59.806966173 -45.1875 59.6875 C-46.212304687 59.650117188 -47.237109375 59.612734375 -48.29296875 59.57421875 C-53.524345778 60.175082919 -58.130200027 62.058115819 -63 64 C-62.006696777 63.984289551 -61.013393555 63.968579102 -59.989990234 63.952392578 C-56.279461824 63.897798011 -52.568968421 63.863543441 -48.858154297 63.835205078 C-47.256856435 63.82018534 -45.655599247 63.799763373 -44.054443359 63.773681641 C-41.74322429 63.736995624 -39.432552443 63.72020565 -37.12109375 63.70703125 C-36.413514252 63.691547394 -35.705934753 63.676063538 -34.976913452 63.660110474 C-29.855681803 63.658404395 -26.485011045 64.732942151 -22 67 C-21.67 67.33 -21.34 67.66 -21 68 C-20.030774157 64.230788388 -20.192710055 61.767353077 -21 58 C-21.038246227 55.666980139 -21.045742842 53.332884917 -21 51 C-22.5778125 51.7425 -22.5778125 51.7425 -24.1875 52.5 C-29.977152496 54.721974742 -35.895303517 54.251260374 -42 54 C-42 53.67 -42 53.34 -42 53 C-41.321953125 52.97421875 -40.64390625 52.9484375 -39.9453125 52.921875 C-32.543619818 52.470802316 -25.08925442 51.612651341 -19.32421875 46.51953125 C-13.757165387 39.722024044 -7.550114073 28.663264895 -6 20 C-6.972070355 18.324199478 -6.972070355 18.324199478 -8.4375 16.8125 C-11.254670103 13.187061038 -11.530827597 10.426354206 -11.46875 5.91796875 C-11 4 -11 4 -8 2 C-6.35 3.98 -4.7 5.96 -3 8 C-2.01 5.36 -1.02 2.72 0 0 Z " fill="#E5D4BD" transform="translate(175,53)" />
<path d="M0 0 C0.97453125 0.004511719 1.9490625 0.009023438 2.953125 0.013671875 C5.343814336 0.02539094 7.734374395 0.041797807 10.125 0.0625 C10.125 0.3925 10.125 0.7225 10.125 1.0625 C9.434626465 1.107375488 8.74425293 1.152250977 8.032958984 1.198486328 C4.875119182 1.411091791 1.718962952 1.642880258 -1.4375 1.875 C-2.523535156 1.945253906 -3.609570312 2.015507813 -4.728515625 2.087890625 C-13.935348436 2.787497981 -20.111489314 4.613571206 -26.875 11.0625 C-29.404900415 15.247232536 -29.724596868 19.286610808 -28.875 24.0625 C-27.443548096 26.511429912 -25.932198564 28.0567314 -23.875 30.0625 C-24.450303386 28.336589843 -25.038862103 26.614718413 -25.6640625 24.90625 C-25.939921875 24.1328125 -26.21578125 23.359375 -26.5 22.5625 C-26.781015625 21.7890625 -27.06203125 21.015625 -27.3515625 20.21875 C-27.875 18.0625 -27.875 18.0625 -26.875 15.0625 C-26.215 17.0425 -25.555 19.0225 -24.875 21.0625 C-24.91625 19.78375 -24.9575 18.505 -25 17.1875 C-25.0703125 15.0078125 -25.0703125 15.0078125 -24.875 13.0625 C-24.215 12.4025 -23.555 11.7425 -22.875 11.0625 C-22.875 14.0325 -22.875 17.0025 -22.875 20.0625 C-22.215 20.0625 -21.555 20.0625 -20.875 20.0625 C-20.38 18.5775 -20.38 18.5775 -19.875 17.0625 C-17.8125 16.375 -17.8125 16.375 -15.875 16.0625 C-15.875 15.0725 -15.875 14.0825 -15.875 13.0625 C-17.525 13.0625 -19.175 13.0625 -20.875 13.0625 C-20.875 12.4025 -20.875 11.7425 -20.875 11.0625 C-19.173076154 10.072234702 -17.463119888 9.095767937 -15.75 8.125 C-14.798671875 7.579726562 -13.84734375 7.034453125 -12.8671875 6.47265625 C-9.812435678 5.033014726 -7.213656134 4.453826164 -3.875 4.0625 C-3.875 4.7225 -3.875 5.3825 -3.875 6.0625 C-3.22015625 6.046789551 -2.5653125 6.031079102 -1.890625 6.014892578 C1.114493308 5.952020664 4.119472625 5.913345124 7.125 5.875 C8.669941406 5.837294922 8.669941406 5.837294922 10.24609375 5.798828125 C17.53310682 5.729206981 22.587732789 6.793866395 29.125 10.0625 C29.125 10.7225 29.125 11.3825 29.125 12.0625 C28.544921875 11.857539062 27.96484375 11.652578125 27.3671875 11.44140625 C26.586015625 11.171992187 25.80484375 10.902578125 25 10.625 C24.234296875 10.358164062 23.46859375 10.091328125 22.6796875 9.81640625 C17.812378382 8.380029094 12.999093139 7.869466173 7.9375 7.75 C6.912695313 7.712617188 5.887890625 7.675234375 4.83203125 7.63671875 C-0.399345778 8.237582919 -5.005200027 10.120615819 -9.875 12.0625 C-8.385045166 12.038934326 -8.385045166 12.038934326 -6.864990234 12.014892578 C-3.154461824 11.960298011 0.556031579 11.926043441 4.266845703 11.897705078 C5.868143565 11.88268534 7.469400753 11.862263373 9.070556641 11.836181641 C11.38177571 11.799495624 13.692447557 11.78270565 16.00390625 11.76953125 C16.711485748 11.754047394 17.419065247 11.738563538 18.148086548 11.722610474 C23.266632377 11.72090529 26.677076164 12.703110778 31.125 15.0625 C32.0625 17.25 32.0625 17.25 32.125 19.0625 C30.805 18.4025 29.485 17.7425 28.125 17.0625 C28.125 16.4025 28.125 15.7425 28.125 15.0625 C23.528235973 14.623610455 23.528235973 14.623610455 19.38671875 16.21875 C15.533411716 21.849588762 19.356931887 32.888004532 20.5625 39.375 C21.304150483 43.215273968 22.084074899 46.927447166 23.21875 50.671875 C24.747803201 56.666201464 24.294836099 62.862326713 24.1875 69 C24.153255795 71.446558222 24.12307268 73.893177896 24.09765625 76.33984375 C24.079689941 77.414841309 24.061723633 78.489838867 24.043212891 79.597412109 C23.842142622 82.007399391 23.842142622 82.007399391 25.125 83.0625 C25.165638321 84.728671151 25.167721001 86.396380948 25.125 88.0625 C26.775 88.0625 28.425 88.0625 30.125 88.0625 C29.465 86.4125 28.805 84.7625 28.125 83.0625 C29.61 83.5575 29.61 83.5575 31.125 84.0625 C31.455 85.7125 31.785 87.3625 32.125 89.0625 C25.375 90.1875 25.375 90.1875 23.125 89.0625 C21.267524558 84.681936868 20.91424715 81.025460815 21.03515625 76.30078125 C21.055136719 75.016230469 21.075117187 73.731679687 21.095703125 72.408203125 C21.153053353 69.73866343 21.221496298 67.069670446 21.291015625 64.400390625 C21.406407016 56.430426633 20.766919401 49.607600911 18.125 42.0625 C17.500449219 42.103427734 16.875898437 42.144355469 16.232421875 42.186523438 C8.374768729 42.629934311 1.517700316 40.448616529 -5.875 38.0625 C-6.140546875 38.776640625 -6.40609375 39.49078125 -6.6796875 40.2265625 C-7.906963319 43.13833454 -9.389181201 45.721675069 -11 48.4375 C-15.80796959 57.277581006 -13.454131104 64.716107469 -10.875 74.0625 C-9.646214968 77.484858313 -8.645916877 79.669435424 -5.875 82.0625 C-6.37 83.5475 -6.37 83.5475 -6.875 85.0625 C-9.185 85.0625 -11.495 85.0625 -13.875 85.0625 C-14.16375 84.11375 -14.4525 83.165 -14.75 82.1875 C-15.643251092 79.010384217 -15.643251092 79.010384217 -17.875 77.0625 C-18.4375 74.8125 -18.4375 74.8125 -18.875 72.0625 C-19.525897291 68.151950405 -20.212888333 64.260670974 -21 60.375 C-21.167578125 59.546132812 -21.33515625 58.717265625 -21.5078125 57.86328125 C-21.628984375 57.269023438 -21.75015625 56.674765625 -21.875 56.0625 C-23.796320406 57.66837025 -24.779497449 58.569130218 -25.263183594 61.067871094 C-25.266567383 61.816333008 -25.269951172 62.564794922 -25.2734375 63.3359375 C-25.277304687 64.1609375 -25.281171875 64.9859375 -25.28515625 65.8359375 C-25.273554687 66.694453125 -25.261953125 67.55296875 -25.25 68.4375 C-25.261601563 69.28828125 -25.273203125 70.1390625 -25.28515625 71.015625 C-25.262157003 75.937463776 -24.862549937 78.968450086 -21.875 83.0625 C-21.875 83.7225 -21.875 84.3825 -21.875 85.0625 C-24.5625 85.5 -24.5625 85.5 -27.875 85.0625 C-33.009214747 79.868323621 -33.477326917 75.619588881 -33.4609375 68.44921875 C-33.432578125 67.290351563 -33.40421875 66.131484375 -33.375 64.9375 C-33.377578125 63.770898437 -33.38015625 62.604296875 -33.3828125 61.40234375 C-33.315264079 55.505366555 -33.072460877 52.09274207 -29.875 47.0625 C-29.69007891 43.903249441 -29.69007891 43.903249441 -30.125 40.625 C-30.23328125 39.533164062 -30.3415625 38.441328125 -30.453125 37.31640625 C-30.855095757 34.216020688 -31.336234624 31.141822793 -31.875 28.0625 C-33.889130935 32.677533062 -33.889130935 32.677533062 -35.71875 37.3671875 C-39.88927044 48.620402134 -45.188153161 57.121211023 -55.875 63.0625 C-58.757113021 64.02320434 -60.573500439 64.168318834 -63.5625 64.125 C-64.370742187 64.115976563 -65.178984375 64.106953125 -66.01171875 64.09765625 C-66.626601562 64.086054687 -67.241484375 64.074453125 -67.875 64.0625 C-68.205 62.4125 -68.535 60.7625 -68.875 59.0625 C-67.662636719 59.006425781 -67.662636719 59.006425781 -66.42578125 58.94921875 C-65.357148438 58.883476562 -64.288515625 58.817734375 -63.1875 58.75 C-62.131757812 58.691992188 -61.076015625 58.633984375 -59.98828125 58.57421875 C-55.46757491 57.831166641 -52.912825983 56.344390992 -50.03125 52.78515625 C-45.514883067 45.531274454 -42.193413942 38.195758701 -39.176757812 30.215332031 C-34.861860098 18.828956421 -30.953340105 8.703248571 -19.9375 2.375 C-13.476176849 -0.394138493 -6.905044704 -0.060816789 0 0 Z " fill="#D9C3A8" transform="translate(121.875,104.9375)" />
<path d="M0 0 C3.893211066 3.893211066 3.878798299 6.676448365 4 12 C3.5625 15.0625 3.5625 15.0625 3 17 C3.78375 17.04125 4.5675 17.0825 5.375 17.125 C14.491363375 19.325501504 22.933368447 25.997234921 29 33 C30.217153646 35.734711171 30.249404373 36.944796431 30 40 C28 42 28 42 25.845214844 42.227050781 C24.97590332 42.216577148 24.106591797 42.206103516 23.2109375 42.1953125 C22.269921875 42.188867187 21.32890625 42.182421875 20.359375 42.17578125 C18.882109375 42.150644531 18.882109375 42.150644531 17.375 42.125 C16.382421875 42.115976563 15.38984375 42.106953125 14.3671875 42.09765625 C11.91121866 42.074041165 9.455728317 42.041107994 7 42 C6.012616077 44.962151768 5.666485285 47.706370272 5.354492188 50.800537109 C4.027575293 63.879138198 1.136793509 73.986069652 -6.9921875 84.6015625 C-9.731912114 89.23883957 -10.914025899 93.91871393 -12.1875 99.125 C-12.448696289 100.173652344 -12.709892578 101.222304688 -12.979003906 102.302734375 C-15.299310866 112.192763012 -15.977587126 121.869380912 -16 132 C-15.01 132.33 -14.02 132.66 -13 133 C-12.25 135 -12.25 135 -12 137 C-13 138 -13 138 -16.0625 138.0625 C-17.031875 138.041875 -18.00125 138.02125 -19 138 C-22.984661446 132.116887289 -22.305331384 126.141795072 -22.125 119.25 C-22.08177403 116.984450611 -22.042505138 114.718821127 -22.0078125 112.453125 C-21.983481445 111.454423828 -21.959150391 110.455722656 -21.934082031 109.426757812 C-21.829172747 106.989352543 -21.829172747 106.989352543 -23 105 C-24.772031956 115.125896889 -25.239506184 124.754457699 -25 135 C-27.819410982 132.180589018 -27.314734877 130.079074068 -27.379150391 126.219238281 C-27.377780762 125.301264648 -27.376411133 124.383291016 -27.375 123.4375 C-27.375563965 122.498901367 -27.37612793 121.560302734 -27.376708984 120.593261719 C-27.258387437 112.94956045 -26.019315406 106.003645719 -23.97265625 98.6640625 C-23.019519028 95.073529512 -22.451466247 91.678261844 -22 88 C-21.67 88 -21.34 88 -21 88 C-21 89.65 -21 91.3 -21 93 C-20.071875 92.360625 -19.14375 91.72125 -18.1875 91.0625 C-15 89 -15 89 -12 88 C-11.313799686 86.67661368 -10.65213539 85.340500524 -10 84 C-9.21625 83.0925 -8.4325 82.185 -7.625 81.25 C0.731106162 71.301087678 3.743735802 56.997871279 2.9453125 44.2578125 C3 42 3 42 5 40 C4.457304687 39.575898438 3.914609375 39.151796875 3.35546875 38.71484375 C-1.433146851 34.789041771 -4.040107149 31.879678553 -6 26 C-6.33 25.34 -6.66 24.68 -7 24 C-6.708027344 23.046738281 -6.708027344 23.046738281 -6.41015625 22.07421875 C-5.753128612 19.990530357 -5.753128612 19.990530357 -6.99609375 18.39453125 C-7.471757813 17.872460937 -7.947421875 17.350390625 -8.4375 16.8125 C-11.254670103 13.187061038 -11.530827597 10.426354206 -11.46875 5.91796875 C-11 4 -11 4 -8 2 C-6.35 3.98 -4.7 5.96 -3 8 C-2.01 5.36 -1.02 2.72 0 0 Z " fill="#403B31" transform="translate(175,53)" />
<path d="M0 0 C2.31 1.32 4.62 2.64 7 4 C6.71125 4.53625 6.4225 5.0725 6.125 5.625 C4.83288192 8.352804836 3.914414079 11.12612718 3 14 C2.236875 13.175 1.47375 12.35 0.6875 11.5 C-1.754341417 8.659448029 -1.754341417 8.659448029 -5 9 C-5.33 11.31 -5.66 13.62 -6 16 C-6.495 15.01 -6.495 15.01 -7 14 C-7.99 13.67 -8.98 13.34 -10 13 C-9.67 11.68 -9.34 10.36 -9 9 C-9.66 9 -10.32 9 -11 9 C-11 9.99 -11 10.98 -11 12 C-12.32 12 -13.64 12 -15 12 C-15 12.66 -15 13.32 -15 14 C-15.6290625 13.855625 -16.258125 13.71125 -16.90625 13.5625 C-27.64044378 11.173663203 -27.64044378 11.173663203 -38 14 C-38.33 14.66 -38.66 15.32 -39 16 C-38.34 16 -37.68 16 -37 16 C-36.505 17.98 -36.505 17.98 -36 20 C-35.071875 20 -34.14375 20 -33.1875 20 C-31.125 20 -29.0625 20 -27 20 C-27.66 21.65 -28.32 23.3 -29 25 C-28.34 25.33 -27.68 25.66 -27 26 C-27.33 26.66 -27.66 27.32 -28 28 C-28.66 28 -29.32 28 -30 28 C-30 29.65 -30 31.3 -30 33 C-30.66 33 -31.32 33 -32 33 C-32.1546875 34.175625 -32.1546875 34.175625 -32.3125 35.375 C-33 38 -33 38 -36 40 C-36.598125 39.690625 -37.19625 39.38125 -37.8125 39.0625 C-40.089567715 37.897902963 -40.089567715 37.897902963 -43 37 C-43.33 37.33 -43.66 37.66 -44 38 C-44.66 37.67 -45.32 37.34 -46 37 C-45.67 36.34 -45.34 35.68 -45 35 C-46.32 35.66 -47.64 36.32 -49 37 C-48.965195313 36.263945312 -48.930390625 35.527890625 -48.89453125 34.76953125 C-48.480844889 27.306819685 -48.480844889 27.306819685 -52 21 C-57.904980967 21 -60.669301949 22.162903714 -65 26.25 C-66.295507813 27.462363281 -66.295507813 27.462363281 -67.6171875 28.69921875 C-70.10950075 31.105731052 -72.590706711 33.510396935 -75 36 C-72.376007683 27.340825355 -65.01693303 22.103224022 -58 17 C-57.05125 16.278125 -56.1025 15.55625 -55.125 14.8125 C-50.494756127 12.126958554 -44.458618575 9 -39 9 C-38.67 8.01 -38.34 7.02 -38 6 C-30.08 5.505 -30.08 5.505 -22 5 C-22 5.33 -22 5.66 -22 6 C-18.04 6.33 -14.08 6.66 -10 7 C-10.495 5.515 -10.495 5.515 -11 4 C-9.35 3.34 -7.7 2.68 -6 2 C-5.505 2.99 -5.505 2.99 -5 4 C-3.68 4 -2.36 4 -1 4 C-0.67 2.68 -0.34 1.36 0 0 Z " fill="#F0DCCD" transform="translate(170,48)" />
<path d="M0 0 C0.144375 0.99 0.28875 1.98 0.4375 3 C1.937085925 8.513515168 6.697113691 11.59133492 11 15 C10.34 15.99 9.68 16.98 9 18 C8.90937554 20.207407161 8.90937554 20.207407161 9.125 22.6875 C9.310235645 33.431167432 6.128563369 46.047302414 0 55 C-0.99 55.66 -1.98 56.32 -3 57 C-2.691060678 55.374319298 -2.377730504 53.749472523 -2.0625 52.125 C-1.888476562 51.220078125 -1.714453125 50.31515625 -1.53515625 49.3828125 C-1 47 -1 47 0 45 C0.264930603 42.368356006 0.47292319 39.763561129 0.625 37.125 C0.669311523 36.36501709 0.713623047 35.60503418 0.759277344 34.822021484 C1.550532343 24.130165966 1.550532343 24.130165966 -1 14 C-1.002578125 14.738632813 -1.00515625 15.477265625 -1.0078125 16.23828125 C-1.374730106 25.863753117 -4.749949613 32.124924419 -10 40 C-10.66 40 -11.32 40 -12 40 C-12 40.66 -12 41.32 -12 42 C-12.66 42 -13.32 42 -14 42 C-15.385298208 36.545388307 -16.239694297 31.632815991 -16 26 C-17.051875 26.495 -18.10375 26.99 -19.1875 27.5 C-24.977152496 29.721974742 -30.895303517 29.251260374 -37 29 C-37 28.67 -37 28.34 -37 28 C-36.321953125 27.97421875 -35.64390625 27.9484375 -34.9453125 27.921875 C-27.535416244 27.470302375 -20.005273436 26.63035058 -14.2890625 21.44921875 C-10.470504718 16.731582548 -7.922674294 11.131421598 -5.358642578 5.660644531 C-2.680346392 0 -2.680346392 0 0 0 Z " fill="#907C65" transform="translate(170,78)" />
<path d="M0 0 C0 0.66 0 1.32 0 2 C0.65484375 1.984289551 1.3096875 1.968579102 1.984375 1.952392578 C4.989493308 1.889520664 7.994472625 1.850845124 11 1.8125 C12.544941406 1.774794922 12.544941406 1.774794922 14.12109375 1.736328125 C21.40810682 1.666706981 26.462732789 2.731366395 33 6 C33 6.66 33 7.32 33 8 C32.419921875 7.795039062 31.83984375 7.590078125 31.2421875 7.37890625 C30.070429687 6.974785156 30.070429687 6.974785156 28.875 6.5625 C28.109296875 6.295664062 27.34359375 6.028828125 26.5546875 5.75390625 C21.687378382 4.317529094 16.874093139 3.806966173 11.8125 3.6875 C10.787695313 3.650117188 9.762890625 3.612734375 8.70703125 3.57421875 C3.475654222 4.175082919 -1.130200027 6.058115819 -6 8 C-4.510045166 7.976434326 -4.510045166 7.976434326 -2.989990234 7.952392578 C0.720538176 7.897798011 4.431031579 7.863543441 8.141845703 7.835205078 C9.743143565 7.82018534 11.344400753 7.799763373 12.945556641 7.773681641 C15.25677571 7.736995624 17.567447557 7.72020565 19.87890625 7.70703125 C20.586485748 7.691547394 21.294065247 7.676063538 22.023086548 7.660110474 C27.141632377 7.65840529 30.552076164 8.640610778 35 11 C35.9375 13.1875 35.9375 13.1875 36 15 C34.68 14.34 33.36 13.68 32 13 C32 12.34 32 11.68 32 11 C27.403235973 10.561110455 27.403235973 10.561110455 23.26171875 12.15625 C19.408411716 17.787088762 23.231931887 28.825504532 24.4375 35.3125 C25.179150483 39.152773968 25.959074899 42.864947166 27.09375 46.609375 C28.622803201 52.603701464 28.169836099 58.799826713 28.0625 64.9375 C28.028255795 67.384058222 27.99807268 69.830677896 27.97265625 72.27734375 C27.954689941 73.352341309 27.936723633 74.427338867 27.918212891 75.534912109 C27.717142622 77.944899391 27.717142622 77.944899391 29 79 C29.040638321 80.666171151 29.042721001 82.333880948 29 84 C30.65 84 32.3 84 34 84 C33.34 82.35 32.68 80.7 32 79 C32.99 79.33 33.98 79.66 35 80 C35.33 81.65 35.66 83.3 36 85 C29.25 86.125 29.25 86.125 27 85 C25.142524558 80.619436868 24.78924715 76.962960815 24.91015625 72.23828125 C24.930136719 70.953730469 24.950117187 69.669179687 24.970703125 68.345703125 C25.028053353 65.67616343 25.096496298 63.007170446 25.166015625 60.337890625 C25.281407016 52.367926633 24.641919401 45.545100911 22 38 C21.375449219 38.040927734 20.750898437 38.081855469 20.107421875 38.124023438 C12.249768729 38.567434311 5.392700316 36.386116529 -2 34 C-2.99 36.475 -2.99 36.475 -4 39 C-5.333320952 36.333358095 -4.671020334 34.833196966 -4 32 C-4.66 31.67 -5.32 31.34 -6 31 C-6.33 31.66 -6.66 32.32 -7 33 C-7 31.68 -7 30.36 -7 29 C-4.140817718 29.927302362 -1.315428235 30.868821909 1.4609375 32.0234375 C8.185645613 34.740296652 13.771503697 35.503338234 21 35 C21.33 34.01 21.66 33.02 22 32 C20.951992187 32.023203125 19.903984375 32.04640625 18.82421875 32.0703125 C17.445319627 32.089073032 16.066412796 32.10727293 14.6875 32.125 C13.997207031 32.141757813 13.306914062 32.158515625 12.595703125 32.17578125 C8.828646041 32.212177937 7.215682957 32.143788638 4 30 C9.61 30 15.22 30 21 30 C19.995172939 28.766802521 19.995172939 28.766802521 17.9609375 28.9375 C17.107578125 28.958125 16.25421875 28.97875 15.375 29 C12.339710961 29.034297051 9.638765028 28.946483708 6.625 28.5 C1.417591998 27.781736827 -3.751831671 27.922440862 -9 28 C-9.33 27.34 -9.66 26.68 -10 26 C-0.43 26 9.14 26 19 26 C19.33 21.38 19.66 16.76 20 12 C20.33 11.34 20.66 10.68 21 10 C19.02 10.33 17.04 10.66 15 11 C15 10.34 15 9.68 15 9 C4.311060851 9.452524431 -5.095597988 10.921716819 -15 15 C-14.67 14.01 -14.34 13.02 -14 12 C-13.34 12 -12.68 12 -12 12 C-12 11.01 -12 10.02 -12 9 C-13.65 9 -15.3 9 -17 9 C-17 8.34 -17 7.68 -17 7 C-15.208567926 6.0204042 -13.416846955 5.041336704 -11.625 4.0625 C-10.627265625 3.517226562 -9.62953125 2.971953125 -8.6015625 2.41015625 C-4.155124654 0 -4.155124654 0 0 0 Z " fill="#A98F72" transform="translate(118,109)" />
<path d="M0 0 C0 0.66 0 1.32 0 2 C1.98 1.67 3.96 1.34 6 1 C5.859781947 3.646242839 5.713102237 6.29184578 5.5625 8.9375 C5.523183594 9.692246094 5.483867188 10.446992188 5.443359375 11.224609375 C5.11328125 16.88671875 5.11328125 16.88671875 4 18 C-5.59726606 18.612288487 -15.591184763 18.062554896 -25 16 C-25.33 15.34 -25.66 14.68 -26 14 C-24.02 13.67 -22.04 13.34 -20 13 C-20.66 12.01 -21.32 11.02 -22 10 C-23.97747122 9.637020639 -23.97747122 9.637020639 -26.125 9.8125 C-27.40375 9.874375 -28.6825 9.93625 -30 10 C-30.33 8.68 -30.66 7.36 -31 6 C-20.57929681 0.315980078 -11.833286801 -0.302986006 0 0 Z " fill="#F2E3CD" transform="translate(133,118)" />
<path d="M0 0 C4.266524021 3.792465796 6.894809749 7.672339755 9 13 C9 13.66 9 14.32 9 15 C9.652265625 15.02578125 10.30453125 15.0515625 10.9765625 15.078125 C16.735206282 15.451842296 20.465498258 16.129083879 25 20 C26.875 22.25 26.875 22.25 28 24 C22.125 22.125 22.125 22.125 21 21 C18.660552641 21.287300553 16.326085699 21.619367795 14 22 C14 22.66 14 23.32 14 24 C14.66 24.33 15.32 24.66 16 25 C15.67 24.34 15.34 23.68 15 23 C27.38376925 23.525886091 27.38376925 23.525886091 31.265625 27.06640625 C35 32.713288835 35 32.713288835 35 36 C21.606278027 37.073542601 21.606278027 37.073542601 17.66796875 34.44140625 C16.218623012 32.688791087 15.036495245 31.021423563 14 29 C14.66 30.65 15.32 32.3 16 34 C11.309919192 32.659976912 8.527081848 30.085756418 6 26 C5.090694254 23.661115632 4.54194166 21.463371183 4 19 C5.98 19 7.96 19 10 19 C10 18.34 10 17.68 10 17 C9.071875 16.855625 8.14375 16.71125 7.1875 16.5625 C4 15 4 15 2.93359375 12.86328125 C2.19449517 10.588857117 1.546051745 8.327904807 1 6 C0.67 7.32 0.34 8.64 0 10 C-1.491064566 7.017870867 -1.11941467 4.283903423 -1 1 C-0.67 0.67 -0.34 0.34 0 0 Z " fill="#CAC6BC" transform="translate(166,57)" />
<path d="M0 0 C0.97453125 0.004511719 1.9490625 0.009023438 2.953125 0.013671875 C5.343814336 0.02539094 7.734374395 0.041797807 10.125 0.0625 C10.125 0.3925 10.125 0.7225 10.125 1.0625 C9.434626465 1.107375488 8.74425293 1.152250977 8.032958984 1.198486328 C4.875119182 1.411091791 1.718962952 1.642880258 -1.4375 1.875 C-2.523535156 1.945253906 -3.609570312 2.015507813 -4.728515625 2.087890625 C-13.896836056 2.784571509 -20.093364049 4.434992139 -26.875 11.0625 C-30.089596523 15.718122551 -30.286168986 20.073965704 -30.46875 25.57421875 C-30.955317443 28.554444339 -31.772805541 29.006227265 -33.875 31.0625 C-34.697313327 33.202767562 -35.437808436 35.3751015 -36.125 37.5625 C-40.00408041 49.00081403 -45.153284148 57.101825802 -55.875 63.0625 C-58.757113021 64.02320434 -60.573500439 64.168318834 -63.5625 64.125 C-64.370742187 64.115976563 -65.178984375 64.106953125 -66.01171875 64.09765625 C-66.626601562 64.086054687 -67.241484375 64.074453125 -67.875 64.0625 C-68.205 62.4125 -68.535 60.7625 -68.875 59.0625 C-67.662636719 59.006425781 -67.662636719 59.006425781 -66.42578125 58.94921875 C-65.357148438 58.883476562 -64.288515625 58.817734375 -63.1875 58.75 C-62.131757812 58.691992188 -61.076015625 58.633984375 -59.98828125 58.57421875 C-55.46757491 57.831166641 -52.912825983 56.344390992 -50.03125 52.78515625 C-45.514883067 45.531274454 -42.193413942 38.195758701 -39.176757812 30.215332031 C-34.861860098 18.828956421 -30.953340105 8.703248571 -19.9375 2.375 C-13.476176849 -0.394138493 -6.905044704 -0.060816789 0 0 Z " fill="#6F6D65" transform="translate(121.875,104.9375)" />
<path d="M0 0 C1.85463008 1.573840815 2.888648638 2.521540908 3.448242188 4.926025391 C3.480791016 5.642663574 3.513339844 6.359301758 3.546875 7.09765625 C3.587883301 7.894135742 3.628891602 8.690615234 3.671142578 9.511230469 C3.710177002 10.774108887 3.710177002 10.774108887 3.75 12.0625 C3.783112793 12.925043945 3.816225586 13.787587891 3.850341797 14.676269531 C4.242732619 26.862248425 3.636341323 40.54038128 -5 50 C-6.8515625 51.58203125 -6.8515625 51.58203125 -8.625 52.8125 C-9.510585937 53.440917969 -9.510585937 53.440917969 -10.4140625 54.08203125 C-12 55 -12 55 -14 55 C-14.1875 52.1875 -14.1875 52.1875 -14 49 C-13.505 48.5565625 -13.01 48.113125 -12.5 47.65625 C-10.330839374 45.261135142 -10.700768355 43.478229952 -10.8125 40.3125 C-10.839570313 39.318632812 -10.866640625 38.324765625 -10.89453125 37.30078125 C-10.946738281 36.161894531 -10.946738281 36.161894531 -11 35 C-9.9275 34.505 -8.855 34.01 -7.75 33.5 C-3.215196338 30.96124582 -1.958383344 27.700120025 0 23 C-1.98 25.64 -3.96 28.28 -6 31 C-7.12512106 27.624636821 -6.888351017 26.918408034 -5.75 23.6875 C-5.328476562 22.479003906 -5.328476562 22.479003906 -4.8984375 21.24609375 C-4 19 -4 19 -2.375 16.25 C-0.175366957 11.050867352 -0.2406624 5.593326122 0 0 Z " fill="#F1E5CE" transform="translate(168,91)" />
<path d="M0 0 C3.893211066 3.893211066 3.878798299 6.676448365 4 12 C3.5625 15.0625 3.5625 15.0625 3 17 C3.78375 17.04125 4.5675 17.0825 5.375 17.125 C14.491363375 19.325501504 22.933368447 25.997234921 29 33 C30.217153646 35.734711171 30.249404373 36.944796431 30 40 C28 42 28 42 24.0859375 42.1953125 C22.515506495 42.182003763 20.945137786 42.158136025 19.375 42.125 C18.573203125 42.115976563 17.77140625 42.106953125 16.9453125 42.09765625 C14.963414774 42.074062229 12.981670192 42.038190646 11 42 C14.526790988 39.648806008 16.028794853 39.785565481 20.1875 39.875 C21.274179688 39.893046875 22.360859375 39.91109375 23.48046875 39.9296875 C24.311914062 39.952890625 25.143359375 39.97609375 26 40 C24.462322032 36.194422563 22.810859168 33.015557615 20 30 C15.687768978 28.547243641 11.533290644 28.147970911 7 28 C7.99 28.99 8.98 29.98 10 31 C6.730457975 30.436285858 5.174241167 29.500377342 3 27 C5.131292863 25.105517455 6.528951111 24.07437614 9.375 23.625 C12.673792438 24.096256063 15.107207285 25.385418019 18 27 C14.088220833 22.979560301 11.566722898 21.796049303 6 20.9375 C1.930557831 20.090329883 0.459796476 19.638158072 -2.00390625 16.21875 C-3.5625 12.9375 -3.5625 12.9375 -4.81640625 9.71484375 C-5.829450491 6.722952251 -5.829450491 6.722952251 -9 5 C-9 5.99 -9 6.98 -9 8 C-8.34 8.66 -7.68 9.32 -7 10 C-5 15.333333333 -5 15.333333333 -5 18 C-4.34 18.33 -3.68 18.66 -3 19 C-2.67 18.34 -2.34 17.68 -2 17 C-1.67 17.99 -1.34 18.98 -1 20 C-0.34 20.33 0.32 20.66 1 21 C1 21.66 1 22.32 1 23 C-0.98 23 -2.96 23 -5 23 C-5.33 23.99 -5.66 24.98 -6 26 C-7 24 -7 24 -6.41015625 22.07421875 C-5.753128612 19.990530357 -5.753128612 19.990530357 -6.99609375 18.39453125 C-7.471757812 17.872460937 -7.947421875 17.350390625 -8.4375 16.8125 C-11.254670103 13.187061038 -11.530827597 10.426354206 -11.46875 5.91796875 C-11 4 -11 4 -8 2 C-6.35 3.98 -4.7 5.96 -3 8 C-2.01 5.36 -1.02 2.72 0 0 Z " fill="#4F4B43" transform="translate(175,53)" />
<path d="M0 0 C0.33 0 0.66 0 1 0 C3.883661387 9.023069502 4.607826774 15.741215742 0.92578125 24.578125 C-0.411256711 29.520088096 -0.210428579 34.282142403 -0.125 39.375 C-0.115976562 40.397226563 -0.106953125 41.419453125 -0.09765625 42.47265625 C-0.074204297 44.98201522 -0.041383553 47.490883362 0 50 C0.66 50 1.32 50 2 50 C2.268125 50.804375 2.53625 51.60875 2.8125 52.4375 C3.204375 53.283125 3.59625 54.12875 4 55 C4.99 55.33 5.98 55.66 7 56 C6.359335937 55.196914063 5.718671875 54.393828125 5.05859375 53.56640625 C1.178274976 47.695210585 1.654080689 40.132192207 2.432128906 33.366210938 C3.995182748 26.853262601 9.234641791 22.372682044 14 18 C15.336648693 16.669990291 16.671420038 15.338069819 18 14 C16.893258065 17.420838708 15.81347163 19.199541977 13.3125 21.875 C10.626348814 24.786034588 10.626348814 24.786034588 11.26953125 28.2109375 C11.510585937 29.461328125 11.751640625 30.71171875 12 32 C12.213984375 33.27359375 12.42796875 34.5471875 12.6484375 35.859375 C12.888203125 37.14328125 13.12796875 38.4271875 13.375 39.75 C13.609609375 41.04421875 13.84421875 42.3384375 14.0859375 43.671875 C14.999899083 46.99963256 15.554667087 47.81037195 18 50 C17.71125 48.770234375 17.4225 47.54046875 17.125 46.2734375 C16.749658826 44.640703393 16.374677823 43.007886459 16 41.375 C15.80921875 40.566757812 15.6184375 39.758515625 15.421875 38.92578125 C12.947573352 28.056527582 12.947573352 28.056527582 15.53125 23.0078125 C16.1809375 22.056484375 16.830625 21.10515625 17.5 20.125 C18.1496875 19.158203125 18.799375 18.19140625 19.46875 17.1953125 C19.9740625 16.470859375 20.479375 15.74640625 21 15 C21.33 15.66 21.66 16.32 22 17 C21.00390625 18.91796875 21.00390625 18.91796875 19.5625 21.1875 C15.292997852 28.691833859 17.251386138 34.84680368 19.1484375 42.9140625 C20.384573873 47.393639265 21.423078411 50.910840446 25 54 C24.67 54.99 24.34 55.98 24 57 C21.69 57 19.38 57 17 57 C16.71125 56.05125 16.4225 55.1025 16.125 54.125 C15.231748908 50.947884217 15.231748908 50.947884217 13 49 C12.4375 46.75 12.4375 46.75 12 44 C11.349102709 40.089450405 10.662111667 36.198170974 9.875 32.3125 C9.707421875 31.483632812 9.53984375 30.654765625 9.3671875 29.80078125 C9.246015625 29.206523438 9.12484375 28.612265625 9 28 C7.078679594 29.60587025 6.095502551 30.506630218 5.611816406 33.005371094 C5.608432617 33.753833008 5.605048828 34.502294922 5.6015625 35.2734375 C5.597695312 36.0984375 5.593828125 36.9234375 5.58984375 37.7734375 C5.601445313 38.631953125 5.613046875 39.49046875 5.625 40.375 C5.613398437 41.22578125 5.601796875 42.0765625 5.58984375 42.953125 C5.612842997 47.874963776 6.012450063 50.905950086 9 55 C9 55.66 9 56.32 9 57 C6.3125 57.4375 6.3125 57.4375 3 57 C-2.134214747 51.805823621 -2.602326917 47.557088881 -2.5859375 40.38671875 C-2.557578125 39.227851563 -2.52921875 38.068984375 -2.5 36.875 C-2.502578125 35.708398437 -2.50515625 34.541796875 -2.5078125 33.33984375 C-2.439667001 27.390741656 -2.110981095 24.102256103 1 19 C1.3194124 16.687028387 1.3194124 16.687028387 1.07421875 14.35546875 C1.019433594 13.514355469 0.964648438 12.673242187 0.908203125 11.806640625 C0.835371094 10.942324219 0.762539062 10.078007813 0.6875 9.1875 C0.595654297 7.862021484 0.595654297 7.862021484 0.501953125 6.509765625 C0.349395698 4.338756092 0.176684865 2.16917925 0 0 Z " fill="#3F3930" transform="translate(91,133)" />
<path d="M0 0 C0.185625 0.9590625 0.185625 0.9590625 0.375 1.9375 C0.684375 2.9584375 0.684375 2.9584375 1 4 C3.956645193 5.478322596 6.74229737 5.060327826 10 5 C10 5.66 10 6.32 10 7 C11.32 7.66 12.64 8.32 14 9 C11.69 9.66 9.38 10.32 7 11 C9.64 11.33 12.28 11.66 15 12 C15 12.33 15 12.66 15 13 C12.69 13.33 10.38 13.66 8 14 C8.596835938 13.976796875 9.193671875 13.95359375 9.80859375 13.9296875 C18.652140215 13.745720709 27.251679305 14.851334211 36 16 C36.33 15.34 36.66 14.68 37 14 C37 14.99 37 15.98 37 17 C32.362972893 18.545675702 27.875283491 18.057356276 23 18 C27.95 18.33 32.9 18.66 38 19 C37.67 20.32 37.34 21.64 37 23 C26.535934069 23.94365324 18.206530453 20.747463896 9 16 C8.67 17.98 8.34 19.96 8 22 C5.666666667 19.666666667 3.333333333 17.333333333 1 15 C1 14.01 1 13.02 1 12 C0.34 11.67 -0.32 11.34 -1 11 C-0.67 10.67 -0.34 10.34 0 10 C-0.66 9.67 -1.32 9.34 -2 9 C-2.25 3.375 -2.25 3.375 0 0 Z " fill="#E3CEB3" transform="translate(102,122)" />
<path d="M0 0 C3 1 3 1 5 2 C5 2.99 5 3.98 5 5 C4.34 5 3.68 5 3 5 C3 5.66 3 6.32 3 7 C3.99 7 4.98 7 6 7 C5.689856077 9.083685383 5.376794797 11.166936677 5.0625 13.25 C4.888476562 14.41015625 4.714453125 15.5703125 4.53515625 16.765625 C4.127226405 19.231069613 3.660986971 21.594245618 3 24 C1.68 24.33 0.36 24.66 -1 25 C-1 25.66 -1 26.32 -1 27 C-0.34 27 0.32 27 1 27 C1 27.66 1 28.32 1 29 C0.34 29.33 -0.32 29.66 -1 30 C-1 32.97 -1 35.94 -1 39 C-4.465 39.495 -4.465 39.495 -8 40 C-8.66 38.68 -9.32 37.36 -10 36 C-9.34 36 -8.68 36 -8 36 C-7.71125 35.113125 -7.4225 34.22625 -7.125 33.3125 C-6.168512523 30.496175762 -5.132010536 27.749168444 -4 25 C-3.34 25 -2.68 25 -2 25 C-2 23.68 -2 22.36 -2 21 C-2.66 20.67 -3.32 20.34 -4 20 C-4.593556136 17.351395732 -4.742092688 14.708026779 -5 12 C-4.01 11.34 -3.02 10.68 -2 10 C-3.32 10.33 -4.64 10.66 -6 11 C-5.34 8.69 -4.68 6.38 -4 4 C-3.01 4 -2.02 4 -1 4 C-0.67 2.68 -0.34 1.36 0 0 Z " fill="#D9B8A8" transform="translate(198,112)" />
<path d="M0 0 C0.33 0 0.66 0 1 0 C1.144375 0.99 1.28875 1.98 1.4375 3 C2.937085925 8.513515168 7.697113691 11.59133492 12 15 C11.67 15.66 11.34 16.32 11 17 C5.290204503 16.582210086 2.390428579 14.424534292 -2 11 C-2.268125 11.763125 -2.53625 12.52625 -2.8125 13.3125 C-3.958009672 15.904969257 -4.99711522 17.088155438 -7 19 C-7 19.66 -7 20.32 -7 21 C-5.68 19.68 -4.36 18.36 -3 17 C-2.215639004 24.974336788 -4.240657578 30.515251201 -9 37 C-10.485 37.495 -10.485 37.495 -12 38 C-14.615969582 28.517110266 -14.615969582 28.517110266 -14 24 C-13.143417969 23.224628906 -13.143417969 23.224628906 -12.26953125 22.43359375 C-8.9493133 18.873360045 -7.298783596 14.720282544 -5.3125 10.3125 C-4.518614271 8.578653568 -3.723127372 6.845539072 -2.92578125 5.11328125 C-2.406248779 3.965330811 -2.406248779 3.965330811 -1.876220703 2.794189453 C-1 1 -1 1 0 0 Z " fill="#F3DFCA" transform="translate(169,78)" />
<path d="M0 0 C-0.33 3.3 -0.66 6.6 -1 10 C0.32 10 1.64 10 3 10 C3 8.02 3 6.04 3 4 C7.617021277 2.808510638 7.617021277 2.808510638 10 4 C10.042417232 6.332947754 10.040929374 8.667025669 10 11 C8.168056498 12.831943502 5.335302207 12.173739921 2.875 12.1875 C-4.792271051 12.132339777 -12.493207906 11.645602597 -20 10 C-20.33 9.34 -20.66 8.68 -21 8 C-19.02 7.67 -17.04 7.34 -15 7 C-15.66 6.01 -16.32 5.02 -17 4 C-5.452830189 0 -5.452830189 0 0 0 Z " fill="#F2E5D2" transform="translate(128,124)" />
<path d="M0 0 C2.859182282 0.927302362 5.684571765 1.868821909 8.4609375 3.0234375 C15.185645613 5.740296652 20.771503697 6.503338234 28 6 C28.33 4.02 28.66 2.04 29 0 C29.33 0 29.66 0 30 0 C30.115935059 0.559855957 30.231870117 1.119711914 30.351318359 1.696533203 C30.87819053 4.23557785 31.407814306 6.774040877 31.9375 9.3125 C32.211103516 10.634111328 32.211103516 10.634111328 32.490234375 11.982421875 C32.667480469 12.829980469 32.844726562 13.677539062 33.02734375 14.55078125 C33.189685059 15.331066895 33.352026367 16.111352539 33.519287109 16.915283203 C34.005666042 19.175297105 34.005666042 19.175297105 35 22 C35.07153971 24.053547375 35.0839931 26.109381796 35.0625 28.1640625 C35.054765625 29.368046875 35.04703125 30.57203125 35.0390625 31.8125 C35.026171875 33.070625 35.01328125 34.32875 35 35.625 C34.974621738 38.117145362 34.953544354 40.609339568 34.9375 43.1015625 C34.925898437 44.208383789 34.914296875 45.315205078 34.90234375 46.455566406 C34.708954528 48.9354437 34.708954528 48.9354437 36 50 C36.040638321 51.666171151 36.042721001 53.333880948 36 55 C37.65 55 39.3 55 41 55 C40.34 53.35 39.68 51.7 39 50 C39.99 50.33 40.98 50.66 42 51 C42.495 53.475 42.495 53.475 43 56 C36.25 57.125 36.25 57.125 34 56 C32.142524558 51.619436868 31.78924715 47.962960815 31.91015625 43.23828125 C31.930136719 41.953730469 31.950117187 40.669179687 31.970703125 39.345703125 C32.028053353 36.67616343 32.096496298 34.007170446 32.166015625 31.337890625 C32.281407016 23.367926633 31.641919401 16.545100911 29 9 C28.063173828 9.061391602 28.063173828 9.061391602 27.107421875 9.124023438 C19.249768729 9.567434311 12.392700316 7.386116529 5 5 C4.34 6.65 3.68 8.3 3 10 C1.666679048 7.333358095 2.328979666 5.833196966 3 3 C2.34 2.67 1.68 2.34 1 2 C0.67 2.66 0.34 3.32 0 4 C0 2.68 0 1.36 0 0 Z " fill="#3F392F" transform="translate(111,138)" />
<path d="M0 0 C0.97453125 0.004511719 1.9490625 0.009023438 2.953125 0.013671875 C5.343814336 0.02539094 7.734374395 0.041797807 10.125 0.0625 C10.125 0.3925 10.125 0.7225 10.125 1.0625 C9.434626465 1.107375488 8.74425293 1.152250977 8.032958984 1.198486328 C4.875119182 1.411091791 1.718962952 1.642880258 -1.4375 1.875 C-3.066552734 1.980380859 -3.066552734 1.980380859 -4.728515625 2.087890625 C-13.896836056 2.784571509 -20.093364049 4.434992139 -26.875 11.0625 C-30.102313628 15.736540426 -30.256574893 20.054409863 -30.37109375 25.57421875 C-30.875 28.0625 -30.875 28.0625 -32.91015625 29.89453125 C-33.558554687 30.279960937 -34.206953125 30.665390625 -34.875 31.0625 C-34.875 29.4125 -34.875 27.7625 -34.875 26.0625 C-35.082539063 26.777929688 -35.290078125 27.493359375 -35.50390625 28.23046875 C-41.78377118 48.541496325 -41.78377118 48.541496325 -48.09375 52.4296875 C-48.6815625 52.638515625 -49.269375 52.84734375 -49.875 53.0625 C-49.378710938 52.200117187 -48.882421875 51.337734375 -48.37109375 50.44921875 C-44.321582196 43.232575576 -40.985655294 36.066268505 -38.25 28.25 C-34.319522978 17.114754991 -30.378317459 8.439435184 -19.875 2.3125 C-13.422359793 -0.376100086 -6.871203677 -0.060518732 0 0 Z " fill="#332E26" transform="translate(121.875,104.9375)" />
<path d="M0 0 C12.38376925 0.525886091 12.38376925 0.525886091 16.265625 4.06640625 C20 9.713288835 20 9.713288835 20 13 C6.606278027 14.22690583 6.606278027 14.22690583 2.66796875 11.21875 C1.207132153 9.199880932 0.01906382 7.271346225 -1 5 C0.65 5 2.3 5 4 5 C4 4.34 4 3.68 4 3 C2.68 2.34 1.36 1.68 0 1 C0 0.67 0 0.34 0 0 Z " fill="#E6E3D6" transform="translate(181,80)" />
<path d="M0 0 C1.32 0.66 2.64 1.32 4 2 C4 2.99 4 3.98 4 5 C-0.222222222 8 -0.222222222 8 -3 8 C-3 8.66 -3 9.32 -3 10 C-1.35 10 0.3 10 2 10 C2 10.99 2 11.98 2 13 C1.360625 13.28875 0.72125 13.5775 0.0625 13.875 C-2.152060791 14.828234509 -2.152060791 14.828234509 -3 17 C-3.66 17 -4.32 17 -5 17 C-5.33 15.02 -5.66 13.04 -6 11 C-6 14.3 -6 17.6 -6 21 C-6.66 20.01 -7.32 19.02 -8 18 C-6.890592801 21.48670834 -5.73662334 24.774842368 -4 28 C-7.850368514 26.487355227 -9.883484221 24.552722915 -12 21 C-12.840156744 16.446350449 -12.471775755 13.002523479 -10.5 8.8125 C-7.365970275 5.28671656 -3.88030809 2.655939032 0 0 Z " fill="#F0DDC7" transform="translate(104,108)" />
<path d="M0 0 C-0.409850535 4.426385774 -1.040569235 8.299687066 -2.5 12.5 C-4.349737962 18.520410293 -4.554340436 24.362695949 -4.6875 30.625 C-4.721660156 31.724570312 -4.755820312 32.824140625 -4.791015625 33.95703125 C-4.87260785 36.63791863 -4.942040996 39.318515477 -5 42 C-5.99 41.67 -6.98 41.34 -8 41 C-8.316645262 35.96606431 -8.585817876 30.932621723 -8.811767578 25.893798828 C-8.895186235 24.181205704 -8.991421159 22.469185967 -9.100830078 20.758056641 C-9.256160339 18.293530883 -9.364838467 15.830595902 -9.46484375 13.36328125 C-9.522846527 12.601631622 -9.580849304 11.839981995 -9.640609741 11.055252075 C-9.728746151 7.965596866 -9.643140523 5.689046876 -7.478790283 3.37020874 C-2.923178938 0 -2.923178938 0 0 0 Z " fill="#D8D0BF" transform="translate(163,143)" />
<path d="M0 0 C3.893211066 3.893211066 3.878798299 6.676448365 4 12 C3.5625 15.0625 3.5625 15.0625 3 17 C3.99 17.33 4.98 17.66 6 18 C4.02 18.33 2.04 18.66 0 19 C-0.597480469 17.735429688 -0.597480469 17.735429688 -1.20703125 16.4453125 C-1.736835937 15.349609375 -2.266640625 14.25390625 -2.8125 13.125 C-3.334570313 12.034453125 -3.856640625 10.94390625 -4.39453125 9.8203125 C-5.847248974 6.777785985 -5.847248974 6.777785985 -9 5 C-9 5.99 -9 6.98 -9 8 C-8.34 8.66 -7.68 9.32 -7 10 C-5 15.333333333 -5 15.333333333 -5 18 C-4.34 18.33 -3.68 18.66 -3 19 C-2.67 18.34 -2.34 17.68 -2 17 C-1.67 17.99 -1.34 18.98 -1 20 C-0.34 20.33 0.32 20.66 1 21 C1 21.66 1 22.32 1 23 C-0.98 23 -2.96 23 -5 23 C-5.33 23.99 -5.66 24.98 -6 26 C-7 24 -7 24 -6.41015625 22.07421875 C-5.753128612 19.990530357 -5.753128612 19.990530357 -6.99609375 18.39453125 C-7.471757812 17.872460937 -7.947421875 17.350390625 -8.4375 16.8125 C-11.254670103 13.187061038 -11.530827597 10.426354206 -11.46875 5.91796875 C-11 4 -11 4 -8 2 C-6.35 3.98 -4.7 5.96 -3 8 C-2.01 5.36 -1.02 2.72 0 0 Z " fill="#46423A" transform="translate(175,53)" />
<path d="M0 0 C2.64 0.99 5.28 1.98 8 3 C7.7834375 4.042207031 7.7834375 4.042207031 7.5625 5.10546875 C6.225264074 12.432407259 5.7545017 19.56087861 5.6875 27 C5.670097656 27.907741699 5.652695312 28.815483398 5.634765625 29.750732422 C5.638485222 34.748475414 5.929443913 37.851913677 9 42 C9 42.66 9 43.32 9 44 C7.35 44 5.7 44 4 44 C2.402803399 39.784957297 1.773636964 36.392867909 1.875 31.89453125 C1.89046875 30.745332031 1.9059375 29.596132813 1.921875 28.412109375 C1.973534632 26.031891808 2.02561096 23.651683245 2.078125 21.271484375 C2.176408629 13.928878262 1.632361668 7.166177034 0 0 Z " fill="#E1DCCF" transform="translate(143,149)" />
<path d="M0 0 C0.33 0 0.66 0 1 0 C1.759831268 4.017686942 2.102415797 7.758214738 2.02734375 11.84375 C2.015097656 12.925273438 2.002851563 14.006796875 1.990234375 15.12109375 C1.955077121 17.373762252 1.916014269 19.626373184 1.873046875 21.87890625 C1.691698035 29.658308338 1.691698035 29.658308338 4 37 C6.032435479 37.968770574 6.032435479 37.968770574 8 38 C5.03 38.495 5.03 38.495 2 39 C1.896875 38.360625 1.79375 37.72125 1.6875 37.0625 C1.3471875 36.0415625 1.3471875 36.0415625 1 35 C0.01 34.67 -0.98 34.34 -2 34 C-5.403918288 23.788245137 -2.762191004 10.17780289 0 0 Z " fill="#DCDCD2" transform="translate(152,154)" />
<path d="M0 0 C0 0.66 0 1.32 0 2 C0.65484375 1.984289551 1.3096875 1.968579102 1.984375 1.952392578 C4.989493308 1.889520664 7.994472625 1.850845124 11 1.8125 C12.544941406 1.774794922 12.544941406 1.774794922 14.12109375 1.736328125 C21.40810682 1.666706981 26.462732789 2.731366395 33 6 C33 6.66 33 7.32 33 8 C32.419921875 7.795039062 31.83984375 7.590078125 31.2421875 7.37890625 C30.070429687 6.974785156 30.070429687 6.974785156 28.875 6.5625 C28.109296875 6.295664062 27.34359375 6.028828125 26.5546875 5.75390625 C15.716049981 2.555348083 4.121732906 2.707338137 -6 8 C-6.33 8.66 -6.66 9.32 -7 10 C-9.5625 10.625 -9.5625 10.625 -12 11 C-12 10.34 -12 9.68 -12 9 C-13.65 9 -15.3 9 -17 9 C-17 8.34 -17 7.68 -17 7 C-15.208567926 6.0204042 -13.416846955 5.041336704 -11.625 4.0625 C-10.627265625 3.517226562 -9.62953125 2.971953125 -8.6015625 2.41015625 C-4.155124654 0 -4.155124654 0 0 0 Z " fill="#C9AC8A" transform="translate(118,109)" />
<path d="M0 0 C0.8125 2.125 0.8125 2.125 1 4 C0.179995117 3.67402832 -0.640009766 3.348056641 -1.484863281 3.012207031 C-5.478879156 1.862103557 -9.129444972 1.746896547 -13.2421875 1.8046875 C-14.010559387 1.807517395 -14.778931274 1.81034729 -15.570587158 1.813262939 C-18.005555207 1.824386892 -20.440144617 1.849476397 -22.875 1.875 C-24.533848824 1.885039889 -26.19270346 1.894163972 -27.8515625 1.90234375 C-31.90118579 1.924300628 -35.950528871 1.95877594 -40 2 C-38.282220208 -1.435559584 -34.722149229 -1.960880683 -31.23828125 -3.171875 C-21.899440753 -5.560094765 -8.562714073 -4.971898494 0 0 Z " fill="#EFD8B8" transform="translate(151,116)" />
<path d="M0 0 C0.66 0 1.32 0 2 0 C2 0.66 2 1.32 2 2 C2.928125 2.2165625 2.928125 2.2165625 3.875 2.4375 C6 3 6 3 8 4 C8.36270588 5.994882341 8.691690752 7.995989891 9 10 C9.358359375 10.772148437 9.71671875 11.544296875 10.0859375 12.33984375 C11.203184339 15.591318526 10.848166625 17.477898341 10.125 20.8125 C9.921328125 21.788320312 9.71765625 22.764140625 9.5078125 23.76953125 C9.340234375 24.505585938 9.17265625 25.241640625 9 26 C4.732653576 26.129096194 2.340051075 25.862900922 -1 23 C-1.5625 20.125 -1.5625 20.125 -1 17 C1 14.125 1 14.125 3 12 C6 13 6 13 8 16 C7.453869545 11.723260101 5.988563804 9.192647719 3.4375 5.75 C0 1.07444668 0 1.07444668 0 0 Z " fill="#BEAD98" transform="translate(143,126)" />
<path d="M0 0 C0.99 0.33 1.98 0.66 3 1 C2.470445044 5.629335263 0.530879356 8.358648439 -2.125 12.125 C-5.540687959 17.342198647 -6.827668965 21.075445253 -5.70703125 27.2890625 C-4.21347632 33.016254473 -4.21347632 33.016254473 -2.5234375 38.6875 C-2 41 -2 41 -3 44 C-7.08818648 40.670446063 -7.798094733 37.802865551 -8.6875 32.6875 C-8.918242187 31.412617187 -9.148984375 30.137734375 -9.38671875 28.82421875 C-9.589101563 27.562226563 -9.791484375 26.300234375 -10 25 C-10.269414063 23.799882813 -10.538828125 22.599765625 -10.81640625 21.36328125 C-11.051100095 17.063889757 -9.961758722 15.769496332 -7.25 12.5 C-4.01957336 8.40549071 -1.741834306 4.898908987 0 0 Z " fill="#DEDBD2" transform="translate(112,140)" />
<path d="M0 0 C0.681269531 -0.003867187 1.362539062 -0.007734375 2.064453125 -0.01171875 C6.125933536 -0.003915714 9.953475031 0.341868727 13.9375 1.125 C13.9375 1.785 13.9375 2.445 13.9375 3.125 C13.333896484 3.109289551 12.730292969 3.093579102 12.108398438 3.077392578 C-8.265413226 2.617175902 -23.045873467 4.777811222 -39.0625 18.125 C-42.223380335 21.331557796 -45.187570954 24.660887964 -48.0625 28.125 C-48.3925 27.465 -48.7225 26.805 -49.0625 26.125 C-44.223038178 19.202326135 -38.856871461 14.112841256 -32.0625 9.125 C-31.093125 8.3825 -30.12375 7.64 -29.125 6.875 C-19.898569064 1.602753751 -10.538534979 -0.060162902 0 0 Z " fill="#B66D67" transform="translate(144.0625,55.875)" />
<path d="M0 0 C2.97 0.495 2.97 0.495 6 1 C6.517498876 7.784985266 5.801320379 13.931363265 4.1875 20.5 C4.022177734 21.194160156 3.856855469 21.888320312 3.686523438 22.603515625 C2.669683594 26.506189072 1.937661213 28.062338787 -1 31 C-0.67 20.77 -0.34 10.54 0 0 Z " fill="#EBE0CE" transform="translate(173,95)" />
<path d="M0 0 C-0.33 2.97 -0.66 5.94 -1 9 C-5 10 -5 10 -7 9 C-7.33 10.98 -7.66 12.96 -8 15 C-9.32 15 -10.64 15 -12 15 C-12.125 7.25 -12.125 7.25 -11 5 C-11.81984375 5.228164062 -12.6396875 5.456328125 -13.484375 5.69140625 C-15.100859375 6.122597656 -15.100859375 6.122597656 -16.75 6.5625 C-17.81734375 6.852539062 -18.8846875 7.142578125 -19.984375 7.44140625 C-22.932099289 7.987422537 -24.217694326 7.821567619 -27 7 C-25.770234375 6.662265625 -24.54046875 6.32453125 -23.2734375 5.9765625 C-21.640601978 5.526125115 -20.007790759 5.07559962 -18.375 4.625 C-17.566757813 4.40328125 -16.758515625 4.1815625 -15.92578125 3.953125 C-12.447187459 2.991562489 -9.017411563 2.005963961 -5.6015625 0.8359375 C-3 0 -3 0 0 0 Z " fill="#D8C5AD" transform="translate(139,119)" />
<path d="M0 0 C0.33 0 0.66 0 1 0 C1.33 4.95 1.66 9.9 2 15 C2.99 15.33 3.98 15.66 5 16 C5 16.66 5 17.32 5 18 C6.766150235 21.195890902 8.759841441 24.119796138 11 27 C11.66 26.67 12.32 26.34 13 26 C12.67 27.65 12.34 29.3 12 31 C11.67 30.34 11.34 29.68 11 29 C10.434101563 28.722851563 9.868203125 28.445703125 9.28515625 28.16015625 C5.241526244 26.107236401 2.002096871 22.916296532 -1.44140625 19.99609375 C-3.902448194 17.846843085 -3.902448194 17.846843085 -7 17 C-7 13.37 -7 9.74 -7 6 C-6.67 6 -6.34 6 -6 6 C-5.913632812 6.60328125 -5.827265625 7.2065625 -5.73828125 7.828125 C-4.789607113 13.282822669 -4.789607113 13.282822669 -1.375 17.5625 C-0.59125 18.036875 0.1925 18.51125 1 19 C0.360625 18.01 -0.27875 17.02 -0.9375 16 C-3.254063265 11.997175137 -3.678541054 8.58078998 -4 4 C-1.861451504 6.138548496 -1.573449373 7.132753136 -1 10 C-1.020625 8.72125 -1.04125 7.4425 -1.0625 6.125 C-1.125 2.25 -1.125 2.25 0 0 Z " fill="#AD8F70" transform="translate(98,116)" />
<path d="M0 0 C0.33 0 0.66 0 1 0 C0.988398437 0.74765625 0.976796875 1.4953125 0.96484375 2.265625 C0.955820312 3.25046875 0.946796875 4.2353125 0.9375 5.25 C0.925898437 6.22453125 0.914296875 7.1990625 0.90234375 8.203125 C0.988198187 10.661996071 1.398689701 12.638096485 2 15 C1.67 15.33 1.34 15.66 1 16 C0.72199994 19.095488552 0.768206552 22.20600705 0.75 25.3125 C0.729375 26.180683594 0.70875 27.048867188 0.6875 27.943359375 C0.622130412 34.051411849 0.622130412 34.051411849 4 39 C4 39.66 4 40.32 4 41 C2.68 40.67 1.36 40.34 0 40 C-0.33 38.35 -0.66 36.7 -1 35 C-1.66 35 -2.32 35 -3 35 C-3.256183262 31.126293731 -3.475128677 27.251335526 -3.6875 23.375 C-3.760332031 22.280585938 -3.833164063 21.186171875 -3.908203125 20.05859375 C-4.2120094 14.161177833 -4.327099524 10.123733267 -1 5 C-0.300925864 2.264274152 -0.300925864 2.264274152 0 0 Z " fill="#DFD9CE" transform="translate(94,148)" />
<path d="M0 0 C0.66 0 1.32 0 2 0 C2 0.66 2 1.32 2 2 C2.66 2 3.32 2 4 2 C4 3.32 4 4.64 4 6 C3.01 6 2.02 6 1 6 C0.67 7.32 0.34 8.64 0 10 C-0.66 9.34 -1.32 8.68 -2 8 C-2.61875 8.556875 -3.2375 9.11375 -3.875 9.6875 C-8.521464539 13.125883759 -14.084964141 17 -20 17 C-18.875482728 14.028061496 -17.777062086 11.665593129 -16 9 C-14.001161309 8.659772138 -12.001092782 8.326709026 -10 8 C-9.505 7.484375 -9.01 6.96875 -8.5 6.4375 C-7 5 -7 5 -3.8125 4.8125 C-2.884375 4.874375 -1.95625 4.93625 -1 5 C-0.67 3.35 -0.34 1.7 0 0 Z " fill="#D2AB9C" transform="translate(185,152)" />
<path d="M0 0 C0.33 0 0.66 0 1 0 C1.144375 0.99 1.28875 1.98 1.4375 3 C2.937085925 8.513515168 7.697113691 11.59133492 12 15 C11.67 15.66 11.34 16.32 11 17 C5.290204503 16.582210086 2.390428579 14.424534292 -2 11 C-2.4021875 12.1446875 -2.4021875 12.1446875 -2.8125 13.3125 C-3.969213523 15.930325342 -4.934947241 17.107034971 -7 19 C-7.66 19.99 -8.32 20.98 -9 22 C-9.33 21.34 -9.66 20.68 -10 20 C-9.303222656 18.044677734 -9.303222656 18.044677734 -8.1640625 15.68359375 C-7.759296875 14.837324219 -7.35453125 13.991054687 -6.9375 13.119140625 C-6.504375 12.234199219 -6.07125 11.349257812 -5.625 10.4375 C-5.199609375 9.548691406 -4.77421875 8.659882813 -4.3359375 7.744140625 C-1.163648288 1.163648288 -1.163648288 1.163648288 0 0 Z " fill="#E5DBCC" transform="translate(169,78)" />
<path d="M0 0 C0.66 0.99 1.32 1.98 2 3 C1.34 3 0.68 3 0 3 C0 5.64 0 8.28 0 11 C0.66 11.33 1.32 11.66 2 12 C2.33 11.01 2.66 10.02 3 9 C3.66 9.33 4.32 9.66 5 10 C4.773125 9.4225 4.54625 8.845 4.3125 8.25 C4 6 4 6 5.4375 3.75 C5.953125 3.1725 6.46875 2.595 7 2 C8.327098335 5.01613258 7.924570173 6.230480026 6.875 9.4375 C4.323910291 14.864363563 -0.226119223 18.516357271 -5 22 C-5.66 22 -6.32 22 -7 22 C-7.1875 19.1875 -7.1875 19.1875 -7 16 C-6.505 15.5565625 -6.01 15.113125 -5.5 14.65625 C-3.330839374 12.261135142 -3.700768355 10.478229952 -3.8125 7.3125 C-3.839570313 6.318632812 -3.866640625 5.324765625 -3.89453125 4.30078125 C-3.946738281 3.161894531 -3.946738281 3.161894531 -4 2 C-2.68 1.34 -1.36 0.68 0 0 Z " fill="#EADCCA" transform="translate(161,124)" />
<path d="M0 0 C2.280880873 0.513647189 4.501733128 1.103779921 6.73046875 1.80859375 C6.73046875 2.46859375 6.73046875 3.12859375 6.73046875 3.80859375 C6.07046875 3.80859375 5.41046875 3.80859375 4.73046875 3.80859375 C5.06046875 6.44859375 5.39046875 9.08859375 5.73046875 11.80859375 C4.74046875 11.80859375 3.75046875 11.80859375 2.73046875 11.80859375 C2.73046875 11.14859375 2.73046875 10.48859375 2.73046875 9.80859375 C2.07046875 9.80859375 1.41046875 9.80859375 0.73046875 9.80859375 C0.40046875 10.79859375 0.07046875 11.78859375 -0.26953125 12.80859375 C-0.92953125 11.81859375 -1.58953125 10.82859375 -2.26953125 9.80859375 C-2.59953125 10.46859375 -2.92953125 11.12859375 -3.26953125 11.80859375 C-4.25953125 11.80859375 -5.24953125 11.80859375 -6.26953125 11.80859375 C-6.26953125 3.80859375 -6.26953125 3.80859375 -4.83203125 1.49609375 C-2.26953125 -0.19140625 -2.26953125 -0.19140625 0 0 Z " fill="#BF7061" transform="translate(132.26953125,71.19140625)" />
<path d="M0 0 C3.465 1.98 3.465 1.98 7 4 C6.566875 4.804375 6.566875 4.804375 6.125 5.625 C4.83288192 8.352804836 3.914414079 11.12612718 3 14 C2.236875 13.175 1.47375 12.35 0.6875 11.5 C-1.754341417 8.659448029 -1.754341417 8.659448029 -5 9 C-5.33 11.31 -5.66 13.62 -6 16 C-6.33 15.34 -6.66 14.68 -7 14 C-7.99 13.67 -8.98 13.34 -10 13 C-10.33 10.03 -10.66 7.06 -11 4 C-9.35 3.34 -7.7 2.68 -6 2 C-5.67 2.66 -5.34 3.32 -5 4 C-3.68 4 -2.36 4 -1 4 C-0.67 2.68 -0.34 1.36 0 0 Z " fill="#E0DDCD" transform="translate(170,48)" />
<path d="M0 0 C-0.33 1.65 -0.66 3.3 -1 5 C-2.32 5 -3.64 5 -5 5 C-5 5.66 -5 6.32 -5 7 C-5.94359375 6.7834375 -5.94359375 6.7834375 -6.90625 6.5625 C-13.03536927 5.233293411 -19.119673296 3.951263053 -25.3125 5.625 C-25.869375 5.74875 -26.42625 5.8725 -27 6 C-27.99 5.34 -28.98 4.68 -30 4 C-25.310268759 3.076709162 -20.764031853 2.848135159 -16 2.875 C-15.31421875 2.871132813 -14.6284375 2.867265625 -13.921875 2.86328125 C-9.843731914 2.871063966 -6.000228854 3.212454944 -2 4 C-2 3.34 -2 2.68 -2 2 C-10.91 2 -19.82 2 -29 2 C-28.67 1.01 -28.34 0.02 -28 -1 C-18.340496701 -2.353794023 -9.552105328 -1.46675729 0 0 Z " fill="#F7D6C6" transform="translate(160,55)" />
<path d="M0 0 C0.33 0 0.66 0 1 0 C2.46907481 14.953082884 2.094649211 29.994459725 2 45 C1.34 44.67 0.68 44.34 0 44 C0.005236816 43.253149414 0.010473633 42.506298828 0.015869141 41.736816406 C0.036604008 38.366219432 0.049648992 34.995635855 0.0625 31.625 C0.070878906 30.449375 0.079257813 29.27375 0.087890625 28.0625 C0.091113281 26.941015625 0.094335938 25.81953125 0.09765625 24.6640625 C0.102893066 23.627172852 0.108129883 22.590283203 0.113525391 21.521972656 C0.171408146 19.004033203 0.171408146 19.004033203 -1 17 C-2.772031956 27.125896889 -3.239506184 36.754457699 -3 47 C-5.819410982 44.180589018 -5.314734877 42.079074068 -5.379150391 38.219238281 C-5.377780762 37.301264648 -5.376411133 36.383291016 -5.375 35.4375 C-5.375563965 34.498901367 -5.37612793 33.560302734 -5.376708984 32.593261719 C-5.258387437 24.94956045 -4.019315406 18.003645719 -1.97265625 10.6640625 C-1.019519028 7.073529512 -0.451466247 3.678261844 0 0 Z " fill="#26221A" transform="translate(153,141)" />
</svg>