<?xml version='1.0' encoding='utf-8'?>
<svg xmlns="http://www.w3.org/2000/svg" version="1.1" width="166" height="156" viewBox="51.0 43.0 166.8125 156.495">
<path d="M0 0 C3.871320276 0.57352893 6.081727961 2.487043522 9 5 C9.99 4.34 10.98 3.68 12 3 C14.375 3.3125 14.375 3.3125 17 4 C18.3921875 4.2784375 18.3921875 4.2784375 19.8125 4.5625 C20.534375 4.706875 21.25625 4.85125 22 5 C22.598125 4.175 23.19625 3.35 23.8125 2.5 C24.534375 1.675 25.25625 0.85 26 0 C26.99 0 27.98 0 29 0 C29.3125 2.625 29.3125 2.625 29 6 C28.071875 6.825 27.14375 7.65 26.1875 8.5 C24.657582986 9.906387179 24.657582986 9.906387179 24 12 C25.277611498 18.086204223 27.541684725 23.812527087 31 29 C30.8125 32.0625 30.8125 32.0625 30 35 C27 37 27 37 24 36.75 C21 36 21 36 18 34 C15.668006123 33.92094936 13.331673779 33.91201231 11 34 C7.071215437 42.26354353 4.176821956 50.137202446 2.469726562 59.136474609 C1.504830718 63.904762841 -0.148803774 67.090108123 -3 71 C-6.216135492 77.908735502 -7.157649077 83.172060583 -7.16796875 90.74609375 C-7.17129715 91.594221344 -7.174625549 92.442348938 -7.17805481 93.316177368 C-7.183110156 95.107345163 -7.185463565 96.898522344 -7.185302734 98.689697266 C-7.187489324 101.424149167 -7.205659928 104.158197546 -7.224609375 106.892578125 C-7.227543596 108.635415291 -7.2295282 110.378254368 -7.23046875 112.12109375 C-7.241247025 113.343177872 -7.241247025 113.343177872 -7.252243042 114.589950562 C-7.23529978 118.816753718 -7.068039863 122.193921833 -5 126 C-2.986827811 127.803480781 -2.986827811 127.803480781 -1 129 C-1.33 129.99 -1.66 130.98 -2 132 C-7.355631043 132.438986151 -7.355631043 132.438986151 -10 132 C-11.9375 129.5625 -11.9375 129.5625 -13 127 C-13.33 126.67 -13.66 126.34 -14 126 C-14.16427324 123.663669479 -14.280757545 121.339349778 -14.375 119 C-14.860579371 109.338074107 -15.929325116 99.212024653 -19 90 C-23.358098824 110.950730338 -23.358098824 110.950730338 -19 131 C-19 131.66 -19 132.32 -19 133 C-21.64 133 -24.28 133 -27 133 C-28.687497165 127.888818698 -29.26371183 123.371602903 -29.16015625 117.9765625 C-29.154954681 117.230950623 -29.149753113 116.485338745 -29.144393921 115.717132568 C-29.126729492 113.352880906 -29.09561648 110.989081566 -29.0625 108.625 C-29.025742214 105.513053845 -28.995456439 102.401142401 -28.97265625 99.2890625 C-28.967066956 98.552463989 -28.961477661 97.815865479 -28.955718994 97.056945801 C-28.941417074 91.95224912 -29.251875932 87.045487904 -30 82 C-30.78375 82.165 -31.5675 82.33 -32.375 82.5 C-40.566128479 83.629810825 -47.9809152 82.910930846 -56 81 C-56.253945313 81.710273438 -56.507890625 82.420546875 -56.76953125 83.15234375 C-58.104326002 86.241440176 -59.814609021 88.770258885 -61.6875 91.5625 C-65.564140273 98.168941132 -65.690660583 102.652129003 -64 110 C-63.744765625 111.133085937 -63.48953125 112.266171875 -63.2265625 113.43359375 C-61.388997349 120.351948014 -59.469546092 124.400608968 -54 129 C-54 129.66 -54 130.32 -54 131 C-56.97 131.33 -59.94 131.66 -63 132 C-63.433125 131.05125 -63.86625 130.1025 -64.3125 129.125 C-65.793022007 125.799580632 -65.793022007 125.799580632 -69 124 C-69.644287109 122.203369141 -69.644287109 122.203369141 -70.02734375 120.03515625 C-70.177841797 119.239562988 -70.328339844 118.443969727 -70.483398438 117.624267578 C-70.633251953 116.778884277 -70.783105469 115.933500977 -70.9375 115.0625 C-72.340667811 107.748246572 -74.090788363 100.886165842 -77 94 C-78.117892649 94.836122447 -79.218669982 95.695135824 -80.3125 96.5625 C-80.927382812 97.038164063 -81.542265625 97.513828125 -82.17578125 98.00390625 C-87.105202266 103.397769503 -87.478323498 109.224644294 -87.375 116.1875 C-87.386601563 116.980917969 -87.398203125 117.774335937 -87.41015625 118.591796875 C-87.387513999 123.086283711 -87.150775661 125.568052757 -84 129 C-83.8125 131.75 -83.8125 131.75 -84 134 C-86.64 134 -89.28 134 -92 134 C-92.309375 133.030625 -92.61875 132.06125 -92.9375 131.0625 C-93.695233416 128.159342081 -93.695233416 128.159342081 -95 127 C-95.340711342 122.891095278 -95.399967637 118.778130674 -95.459960938 114.656494141 C-95.486352374 113.27625418 -95.527036763 111.896202836 -95.583007812 110.516845703 C-95.987666044 100.418672678 -94.688955097 94.62034142 -88 87 C-86.611875401 84.223750802 -86.830324621 81.91041906 -86.8125 78.8125 C-86.798320312 77.705195312 -86.784140625 76.597890625 -86.76953125 75.45703125 C-87.023308005 71.650379927 -87.836494741 68.619283158 -89 65 C-89.271508789 65.594257813 -89.543017578 66.188515625 -89.822753906 66.80078125 C-91.080369523 69.538476862 -92.352555725 72.269166871 -93.625 75 C-94.051679687 75.934570312 -94.478359375 76.869140625 -94.91796875 77.83203125 C-98.168093668 84.76886503 -101.504748507 91.71738678 -108.0625 96 C-110.934643182 96.97775087 -112.994851684 97.265160146 -116 97 C-116 96.01 -116 95.02 -116 94 C-114.80375 93.525625 -113.6075 93.05125 -112.375 92.5625 C-103.521738016 88.088437362 -99.946921153 77.109023279 -96 68.5625 C-83.373623282 41.320434608 -83.373623282 41.320434608 -69 36 C-62.450108127 34.421705031 -55.902341524 33.847398988 -49.1796875 33.76171875 C-48.503327484 33.752806091 -47.826967468 33.743893433 -47.130111694 33.734710693 C-44.342275661 33.70534538 -41.555086996 33.685215714 -38.767089844 33.694580078 C-26.057641575 33.730371611 -26.057641575 33.730371611 -15 28 C-14.248730584 26.042874284 -14.248730584 26.042874284 -14 24 C-13.505 22.515 -13.505 22.515 -13 21 C-12.01 21 -11.02 21 -10 21 C-9.67 19.68 -9.34 18.36 -9 17 C-8.34 17 -7.68 17 -7 17 C-7 16.34 -7 15.68 -7 15 C-5.68 15 -4.36 15 -3 15 C-2.5978125 14.0409375 -2.5978125 14.0409375 -2.1875 13.0625 C-1 11 -1 11 2 10 C1.67 9.0925 1.34 8.185 1 7.25 C0 4 0 4 0 0 Z " fill="#3C392F" transform="translate(177,53)" />
<path d="M0 0 C-1.447817928 3.44428265 -3.276946086 5.36130962 -6.125 7.75 C-6.849453125 8.36359375 -7.57390625 8.9771875 -8.3203125 9.609375 C-8.874609375 10.06828125 -9.42890625 10.5271875 -10 11 C-9.203359375 10.402519531 -9.203359375 10.402519531 -8.390625 9.79296875 C-4.927083333 7.1953125 -1.463541667 4.59765625 2 2 C1.366682356 6.484573585 -0.363108604 10.24284441 -2.375 14.25 C-2.67921875 14.886796875 -2.9834375 15.52359375 -3.296875 16.1796875 C-4.117910108 17.82877511 -5.052819922 19.419987818 -6 21 C-7.485 21.495 -7.485 21.495 -9 22 C-8.505 23.485 -8.505 23.485 -8 25 C-6.68 25 -5.36 25 -4 25 C-3.34 24.34 -2.68 23.68 -2 23 C-2.285405144 24.563655844 -2.578634984 26.125884339 -2.875 27.6875 C-3.037421875 28.557617188 -3.19984375 29.427734375 -3.3671875 30.32421875 C-4 33 -4 33 -5.0078125 35.234375 C-6.726988813 40.026409761 -6.797689119 45.091684708 -7.2109375 50.138671875 C-7.285703125 50.960449219 -7.36046875 51.782226562 -7.4375 52.62890625 C-7.498085937 53.372131348 -7.558671875 54.115356445 -7.62109375 54.881103516 C-8.037731274 57.210998533 -8.850414644 58.94255637 -10 61 C-12.400369594 57.399445609 -12.702724744 54.489751933 -13.33984375 50.27734375 C-13.838496452 47.642043374 -13.838496452 47.642043374 -17 46 C-16.71125 46.568476562 -16.4225 47.136953125 -16.125 47.72265625 C-13.801461491 52.555293634 -11.929817658 56.542070057 -13 62 C-17.820512821 66 -17.820512821 66 -20 66 C-19.878183594 64.2984375 -19.878183594 64.2984375 -19.75390625 62.5625 C-18.969747779 52.517018339 -18.969747779 52.517018339 -23.5 43.9375 C-25.35145304 42.204131013 -25.35145304 42.204131013 -27 41 C-27.116596547 42.185219866 -27.116596547 42.185219866 -25.72265625 43.3046875 C-24.619859059 44.347803902 -23.515700368 45.389482869 -22.41015625 46.4296875 C-19.651897465 49.501211133 -19.806652108 52.83211843 -19.861816406 56.788574219 C-20.092016732 60.472592862 -20.840600157 63.976966183 -21.6875 67.5625 C-21.836386719 68.278574219 -21.985273437 68.994648438 -22.138671875 69.732421875 C-23.390048084 75.125607968 -25.503764263 78.701719877 -29 83 C-29.33 83 -29.66 83 -30 83 C-29.979375 82.030625 -29.95875 81.06125 -29.9375 80.0625 C-29.64381501 77.125341047 -29.64381501 77.125341047 -31 76 C-31.02067372 74.458331185 -30.991035026 72.915877717 -30.9375 71.375 C-30.878560654 66.817023911 -31.508072503 63.289291554 -33 59 C-33 59.33 -33 59.66 -33 60 C-33 62.333333333 -33 64.666666667 -33 67 C-36.92857754 68.851314833 -39.987751122 69.220049426 -44.3125 69.125 C-45.381132812 69.106953125 -46.449765625 69.08890625 -47.55078125 69.0703125 C-48.359023438 69.047109375 -49.167265625 69.02390625 -50 69 C-50.472062195 66.272863627 -50.903014024 63.549119392 -51.3125 60.8125 C-51.449785156 60.043574219 -51.587070313 59.274648437 -51.728515625 58.482421875 C-52.048932463 56.220084807 -52.255001 54.272883098 -52 52 C-49.54296875 48.94921875 -49.54296875 48.94921875 -47 47 C-48.98 48.32 -50.96 49.64 -53 51 C-53.33 50.01 -53.66 49.02 -54 48 C-56.000164663 46.791179036 -56.000164663 46.791179036 -58 46 C-58 45.34 -58 44.68 -58 44 C-65.335554183 40.95710345 -72.900037362 39.249492765 -80.62890625 41.90234375 C-82.179542183 42.601747758 -83.713930383 43.339262116 -85.22265625 44.125 C-87 45 -87 45 -89 45 C-88.505 42.03 -88.505 42.03 -88 39 C-87.34 39 -86.68 39 -86 39 C-85.87625 38.071875 -85.87625 38.071875 -85.75 37.125 C-85 35 -85 35 -83 33.9375 C-82.34 33.628125 -81.68 33.31875 -81 33 C-80.67 32.01 -80.34 31.02 -80 30 C-79.401875 29.87625 -78.80375 29.7525 -78.1875 29.625 C-75.740066209 29.191880444 -75.740066209 29.191880444 -74.5 26.5625 C-68.729505668 20.64774331 -57.975151838 21.838665351 -50.130554199 21.734512329 C-47.34257093 21.705418652 -44.555231749 21.685215228 -41.767089844 21.694580078 C-29.057641575 21.730371611 -29.057641575 21.730371611 -18 16 C-17.248730584 14.042874284 -17.248730584 14.042874284 -17 12 C-16.67 11.01 -16.34 10.02 -16 9 C-14.012767323 8.296188427 -12.012220474 7.628818898 -10 7 C-9.67 6.34 -9.34 5.68 -9 5 C-7.68 5 -6.36 5 -5 5 C-4.814375 4.0409375 -4.814375 4.0409375 -4.625 3.0625 C-4.41875 2.381875 -4.2125 1.70125 -4 1 C-2 0 -2 0 0 0 Z " fill="#B0ADA1" transform="translate(180,65)" />
<path d="M0 0 C3.822910182 3.822910182 5.854712881 7.684123324 6.1953125 13.11328125 C6.172109375 14.169023438 6.14890625 15.224765625 6.125 16.3125 C6.106953125 17.381132812 6.08890625 18.449765625 6.0703125 19.55078125 C6.047109375 20.359023438 6.02390625 21.167265625 6 22 C5.67 22 5.34 22 5 22 C4.800839844 20.770234375 4.800839844 20.770234375 4.59765625 19.515625 C4.421054688 18.43796875 4.244453125 17.3603125 4.0625 16.25 C3.888476563 15.18265625 3.714453125 14.1153125 3.53515625 13.015625 C3.112958286 10.636524066 2.627971156 8.330847893 2 6 C1.776393202 8.925464401 1.776393202 8.925464401 3 11 C3.069960137 12.707027353 3.084401538 14.416680028 3.0625 16.125 C3.053476563 17.035078125 3.044453125 17.94515625 3.03515625 18.8828125 C3.023554687 19.581484375 3.011953125 20.28015625 3 21 C2.2575 21.186914062 1.515 21.373828125 0.75 21.56640625 C-2.967372974 23.504298127 -4.201789644 26.322804793 -6 29.9375 C-8.288312058 34.509473076 -10.093195561 37.922274995 -15 40 C-16.32 40 -17.64 40 -19 40 C-19.495 37.525 -19.495 37.525 -20 35 C-23.351744557 35.589317724 -25.086951977 36.696134278 -27.5625 39 C-29.848872083 41.118331373 -30.967530586 41.989176862 -34 43 C-33.7215625 43.86625 -33.7215625 43.86625 -33.4375 44.75 C-33 47 -33 47 -33.453125 48.71484375 C-34.988313583 55.129738898 -35.469201504 63.45165261 -32 69.25 C-31.34 70.1575 -30.68 71.065 -30 72 C-30 72.66 -30 73.32 -30 74 C-31.98 74 -33.96 74 -36 74 C-36.12375 73.195625 -36.2475 72.39125 -36.375 71.5625 C-36.58125 70.716875 -36.7875 69.87125 -37 69 C-37.66 68.67 -38.32 68.34 -39 68 C-39.030365449 64.033657342 -39.014131536 60.070322552 -38.957275391 56.104248047 C-38.937890236 54.102790694 -38.953933693 52.101090353 -38.970703125 50.099609375 C-38.832427842 42.257425477 -38.079386122 37.520135141 -32.595947266 31.732177734 C-30.035081096 28.952715371 -29.876726805 26.381520473 -29.90234375 22.76953125 C-29.905566406 21.967089844 -29.908789063 21.164648438 -29.912109375 20.337890625 C-29.924677734 19.087822266 -29.924677734 19.087822266 -29.9375 17.8125 C-29.942011719 16.967519531 -29.946523438 16.122539062 -29.951171875 15.251953125 C-29.962945969 13.167938452 -29.980881099 11.083960233 -30 9 C-30.33 9 -30.66 9 -31 9 C-31.5625 5.875 -31.5625 5.875 -31 2 C-21.453999959 -7.045685573 -10.658152717 -6.897563372 0 0 Z " fill="#767369" transform="translate(122,111)" />
<path d="M0 0 C1.65 0 3.3 0 5 0 C4.01 0.33 3.02 0.66 2 1 C2 1.99 2 2.98 2 4 C2.99 4.495 2.99 4.495 4 5 C2.02 7.97 0.04 10.94 -2 14 C-3 12 -3 12 -3 10 C-7.323718929 12.026330691 -7.323718929 12.026330691 -11 15 C-11 14.34 -11 13.68 -11 13 C-11.66 13.33 -12.32 13.66 -13 14 C-15.88370333 14.071948686 -18.742396638 14.092917081 -21.625 14.0625 C-22.426796875 14.057988281 -23.22859375 14.053476562 -24.0546875 14.048828125 C-26.036490061 14.037031681 -28.018254334 14.01909605 -30 14 C-30.33 17.63 -30.66 21.26 -31 25 C-30.34 25.33 -29.68 25.66 -29 26 C-29.721875 26.226875 -30.44375 26.45375 -31.1875 26.6875 C-35.079886299 28.50394694 -38.061374863 31.122749726 -40 35 C-39.34 35 -38.68 35 -38 35 C-38 34.34 -38 33.68 -38 33 C-36 31.375 -36 31.375 -34 30 C-33.34 30.33 -32.68 30.66 -32 31 C-34.25 33.5 -34.25 33.5 -37 36 C-38.32 36 -39.64 36 -41 36 C-41 35.34 -41 34.68 -41 34 C-48.335554183 30.95710345 -55.900037362 29.249492765 -63.62890625 31.90234375 C-65.179542183 32.601747758 -66.713930383 33.339262116 -68.22265625 34.125 C-70 35 -70 35 -72 35 C-71.505 32.03 -71.505 32.03 -71 29 C-70.34 29 -69.68 29 -69 29 C-68.9175 28.38125 -68.835 27.7625 -68.75 27.125 C-68 25 -68 25 -66 23.9375 C-65.01 23.4734375 -65.01 23.4734375 -64 23 C-63.67 22.01 -63.34 21.02 -63 20 C-62.401875 19.87625 -61.80375 19.7525 -61.1875 19.625 C-58.740066209 19.191880444 -58.740066209 19.191880444 -57.5 16.5625 C-51.729505668 10.64774331 -40.975151838 11.838665351 -33.130554199 11.734512329 C-30.34257093 11.705418652 -27.555231749 11.685215228 -24.767089844 11.694580078 C-12.057641575 11.730371611 -12.057641575 11.730371611 -1 6 C-0.209709572 3.858543122 0 2.273781413 0 0 Z " fill="#7B776C" transform="translate(163,75)" />
<path d="M0 0 C-1.447817928 3.44428265 -3.276946086 5.36130962 -6.125 7.75 C-7.211679688 8.670390625 -7.211679688 8.670390625 -8.3203125 9.609375 C-9.151757812 10.297734375 -9.151757812 10.297734375 -10 11 C-9.46890625 10.601679687 -8.9378125 10.203359375 -8.390625 9.79296875 C-4.927083333 7.1953125 -1.463541667 4.59765625 2 2 C1.366682356 6.484573585 -0.363108604 10.24284441 -2.375 14.25 C-2.831328125 15.205195312 -2.831328125 15.205195312 -3.296875 16.1796875 C-4.117910108 17.82877511 -5.052819922 19.419987818 -6 21 C-6.99 21.33 -7.98 21.66 -9 22 C-8.67 22.99 -8.34 23.98 -8 25 C-6.68 25 -5.36 25 -4 25 C-3.34 24.34 -2.68 23.68 -2 23 C-2.285405144 24.563655844 -2.578634984 26.125884339 -2.875 27.6875 C-3.037421875 28.557617188 -3.19984375 29.427734375 -3.3671875 30.32421875 C-4 33 -4 33 -5.0078125 35.234375 C-6.726988813 40.026409761 -6.797689119 45.091684708 -7.2109375 50.138671875 C-7.285703125 50.960449219 -7.36046875 51.782226562 -7.4375 52.62890625 C-7.528378906 53.743743896 -7.528378906 53.743743896 -7.62109375 54.881103516 C-8.037731274 57.210998533 -8.850414644 58.94255637 -10 61 C-12.018789265 57.971816102 -12.360445961 56.554116691 -12.875 53.0625 C-13.650698779 48.752367269 -14.644876746 46.907773487 -18 44 C-18 42.68 -18 41.36 -18 40 C-18.99 40 -19.98 40 -21 40 C-21.86133501 36.554659959 -21.936883736 34.396203544 -21 31 C-21.33 30.34 -21.66 29.68 -22 29 C-22.66 29.33 -23.32 29.66 -24 30 C-22.663118184 25.989354551 -21.003398604 23.915063351 -18 21 C-15.537863046 18.22383452 -15.537863046 18.22383452 -14 15 C-14.607381218 11.672215755 -14.607381218 11.672215755 -16 9 C-15.030625 8.71125 -14.06125 8.4225 -13.0625 8.125 C-9.893357967 7.357853183 -9.893357967 7.357853183 -9 5 C-7.68 5 -6.36 5 -5 5 C-4.87625 4.360625 -4.7525 3.72125 -4.625 3.0625 C-4.315625 2.0415625 -4.315625 2.0415625 -4 1 C-2 0 -2 0 0 0 Z " fill="#AFACA0" transform="translate(180,65)" />
<path d="M0 0 C3.871320276 0.57352893 6.081727961 2.487043522 9 5 C9.99 4.34 10.98 3.68 12 3 C14.647546635 3.348361399 16.980282728 3.993098955 19.5 4.875 C22.304257078 5.304204665 22.304257078 5.304204665 24.8125 2.5625 C25.534375 1.716875 26.25625 0.87125 27 0 C28 3 28 3 27.375 5.625 C26 8 26 8 23.375 8.8125 C22.199375 8.9053125 22.199375 8.9053125 21 9 C21.33 11.64 21.66 14.28 22 17 C21.34 17.33 20.68 17.66 20 18 C20.350625 18.86625 20.70125 19.7325 21.0625 20.625 C22.088159712 24.317374963 22.157750707 26.36135492 21 30 C18.144893809 32.243297722 15.540129234 32.196673846 12 32 C11.67 31.34 11.34 30.68 11 30 C11.66 29.67 12.32 29.34 13 29 C12.67 28.01 12.34 27.02 12 26 C12.66 26 13.32 26 14 26 C13.67 25.34 13.34 24.68 13 24 C12.01 24 11.02 24 10 24 C10 25.65 10 27.3 10 29 C7.770152154 27.234703788 7.060840986 26.347662779 6.5625 23.5 C7 21 7 21 8.75 19.125 C11 18 11 18 13.25 18.3125 C13.8275 18.539375 14.405 18.76625 15 19 C15 17.68 15 16.36 15 15 C13.68 14.67 12.36 14.34 11 14 C11.99 14.99 12.98 15.98 14 17 C11.36 17.66 8.72 18.32 6 19 C5.34 17.68 4.68 16.36 4 15 C0.7 17.97 -2.6 20.94 -6 24 C-6.66 23.67 -7.32 23.34 -8 23 C-7.289726562 22.373515625 -6.579453125 21.74703125 -5.84765625 21.1015625 C-4.928554687 20.284296875 -4.009453125 19.46703125 -3.0625 18.625 C-2.145976563 17.812890625 -1.229453125 17.00078125 -0.28515625 16.1640625 C2.036013952 14.212906534 2.036013952 14.212906534 3 12 C1.000164663 12.791179036 1.000164663 12.791179036 -1 14 C-1.33 14.99 -1.66 15.98 -2 17 C-3.32 17 -4.64 17 -6 17 C-6.66 18.32 -7.32 19.64 -8 21 C-8.66 20.67 -9.32 20.34 -10 20 C-9.505 18.515 -9.505 18.515 -9 17 C-8.34 17 -7.68 17 -7 17 C-7 16.34 -7 15.68 -7 15 C-5.68 15 -4.36 15 -3 15 C-2.731875 14.360625 -2.46375 13.72125 -2.1875 13.0625 C-1 11 -1 11 2 10 C1.505 8.63875 1.505 8.63875 1 7.25 C0 4 0 4 0 0 Z " fill="#ABA8A0" transform="translate(177,53)" />
<path d="M0 0 C0.993867188 0.009023438 1.987734375 0.018046875 3.01171875 0.02734375 C4.150605469 0.044746094 4.150605469 0.044746094 5.3125 0.0625 C5.6425 1.3825 5.9725 2.7025 6.3125 4.0625 C5.3225 3.7325 4.3325 3.4025 3.3125 3.0625 C-2.406686893 2.389654483 -5.453491557 3.714950024 -10.0859375 6.7734375 C-11.824583505 7.989698591 -11.824583505 7.989698591 -12.6875 10.0625 C-11.6975 10.0625 -10.7075 10.0625 -9.6875 10.0625 C-9.6875 11.0525 -9.6875 12.0425 -9.6875 13.0625 C-8.7284375 11.825 -8.7284375 11.825 -7.75 10.5625 C-4.188997409 7.655559109 -2.39568087 7.194290536 2.08984375 7.44140625 C6.174642358 8.58285261 8.26211253 11.492760663 10.3125 15.0625 C11.1875 18 11.1875 18 11.3125 20.0625 C5.3925 20.0625 5.3925 20.0625 2.625 17.5 C2.191875 17.025625 1.75875 16.55125 1.3125 16.0625 C0.3225 16.3925 -0.6675 16.7225 -1.6875 17.0625 C-2.861456084 20.053186602 -3.666236415 23.085665473 -4.52734375 26.1796875 C-5.797877866 29.336772273 -6.772940016 30.393771538 -9.6875 32.0625 C-10.326875 32.18625 -10.96625 32.31 -11.625 32.4375 C-13.97966695 32.969734233 -13.97966695 32.969734233 -16.0625 35.5 C-18.886985553 38.257235897 -20.911543783 39.096557712 -24.6875 40.0625 C-20.999638728 34.467124277 -20.999638728 34.467124277 -19 31.875 C-15.778314951 27.426006362 -16.657877465 22.252667977 -16.814453125 17.04296875 C-16.89218388 12.132213984 -16.676478804 8.256471049 -13.28515625 4.515625 C-8.658730953 0.889826039 -5.801420131 -0.068252002 0 0 Z " fill="#C9C7BB" transform="translate(108.6875,110.9375)" />
<path d="M0 0 C-0.99 0.33 -1.98 0.66 -3 1 C-3 4.96 -3 8.92 -3 13 C-3.33 13 -3.66 13 -4 13 C-4 9.7 -4 6.4 -4 3 C-7.944639803 4.972319901 -10.078953121 6.763164269 -13 10 C-13.33 10.99 -13.66 11.98 -14 13 C-14.66 13 -15.32 13 -16 13 C-16.33 14.98 -16.66 16.96 -17 19 C-16.333554687 18.6390625 -15.667109375 18.278125 -14.98046875 17.90625 C-8.206984178 14.495824202 -2.585686679 12.741288407 5 14 C8.164812218 15.070248544 11.078451727 16.384131326 14 18 C14 18.66 14 19.32 14 20 C9 18 9 18 6.6875 16.875 C-0.050161353 14.681342815 -5.807697929 16.027147015 -12 19 C-14.500412722 20.203204428 -14.500412722 20.203204428 -16 22 C-16.315287759 24.459244519 -16.212572926 26.296367137 -15.49609375 28.66796875 C-14.775130913 32.057061773 -14.775315007 35.425830342 -14.75 38.875 C-14.729375 39.569804688 -14.70875 40.264609375 -14.6875 40.98046875 C-14.645495219 46.556603437 -15.794339437 50.569384007 -19.5703125 54.73046875 C-20.083359375 55.211289062 -20.59640625 55.692109375 -21.125 56.1875 C-25.073733091 60.527196764 -24.97957742 65.353156687 -25 71 C-25.33 71 -25.66 71 -26 71 C-26.916502541 62.533262237 -25.993489299 57.658538155 -20.62890625 50.9609375 C-20.091367187 50.313828125 -19.553828125 49.66671875 -19 49 C-17.611875401 46.223750802 -17.830324621 43.91041906 -17.8125 40.8125 C-17.798320312 39.705195312 -17.784140625 38.597890625 -17.76953125 37.45703125 C-18.023308005 33.650379927 -18.836494741 30.619283158 -20 27 C-20.271508789 27.594257813 -20.543017578 28.188515625 -20.822753906 28.80078125 C-22.080369523 31.538476862 -23.352555725 34.269166871 -24.625 37 C-25.051679687 37.934570312 -25.478359375 38.869140625 -25.91796875 39.83203125 C-29.168093668 46.76886503 -32.504748507 53.71738678 -39.0625 58 C-41.934643182 58.97775087 -43.994851684 59.265160146 -47 59 C-47 58.01 -47 57.02 -47 56 C-45.80375 55.525625 -44.6075 55.05125 -43.375 54.5625 C-34.521738016 50.088437362 -30.946921153 39.109023279 -27 30.5625 C-11.11709357 -3.705697857 -11.11709357 -3.705697857 0 0 Z " fill="#4E4A42" transform="translate(108,91)" />
<path d="M0 0 C3.822910182 3.822910182 5.854712881 7.684123324 6.1953125 13.11328125 C6.172109375 14.169023438 6.14890625 15.224765625 6.125 16.3125 C6.106953125 17.381132812 6.08890625 18.449765625 6.0703125 19.55078125 C6.047109375 20.359023438 6.02390625 21.167265625 6 22 C5.67 22 5.34 22 5 22 C4.800839844 20.770234375 4.800839844 20.770234375 4.59765625 19.515625 C4.421054688 18.43796875 4.244453125 17.3603125 4.0625 16.25 C3.888476563 15.18265625 3.714453125 14.1153125 3.53515625 13.015625 C3.112958286 10.636524066 2.627971156 8.330847893 2 6 C1.776393202 8.925464401 1.776393202 8.925464401 3 11 C3.069960137 12.707027353 3.084401538 14.416680028 3.0625 16.125 C3.053476563 17.035078125 3.044453125 17.94515625 3.03515625 18.8828125 C3.023554687 19.581484375 3.011953125 20.28015625 3 21 C2.34 21 1.68 21 1 21 C0.97421875 20.419921875 0.9484375 19.83984375 0.921875 19.2421875 C0.514328492 13.629160597 -0.493642105 10.411224448 -4 6 C-3.01 7.485 -3.01 7.485 -2 9 C0.109907162 12.399294873 0.180236104 15.034805713 0 19 C-1.358978139 16.961532792 -2.712973672 14.919736861 -4.0625 12.875 C-5.723142636 10.213120417 -5.723142636 10.213120417 -7 9 C-11.414936126 8.473516987 -16.059535988 7.948915327 -20.0625 10.1171875 C-21.878281279 11.606777844 -21.878281279 11.606777844 -24 14 C-23.67 12.68 -23.34 11.36 -23 10 C-26.074535599 10.776393202 -26.074535599 10.776393202 -28 13 C-27.747306796 9.588641744 -26.764955239 8.780624889 -24.1875 6.375 C-19.066795157 2.559572862 -16.510523713 1.638304238 -10 2 C-9.34 2.33 -8.68 2.66 -8 3 C-8 2.34 -8 1.68 -8 1 C-16.937302247 0.500864186 -16.937302247 0.500864186 -25 4 C-26.018013565 4.981655938 -27.024680302 5.975914317 -28 7 C-28.66 7 -29.32 7 -30 7 C-30.33 7.66 -30.66 8.32 -31 9 C-31.5625 5.875 -31.5625 5.875 -31 2 C-21.453999959 -7.045685573 -10.658152717 -6.897563372 0 0 Z " fill="#BBB8AC" transform="translate(122,111)" />
<path d="M0 0 C2.029515345 1.287961661 4.03501678 2.615580004 6 4 C6.99 3.67 7.98 3.34 9 3 C9.33 2.34 9.66 1.68 10 1 C13.076923077 6.415384615 13.076923077 6.415384615 12.6875 9.375 C12.460625 9.91125 12.23375 10.4475 12 11 C11.67 11 11.34 11 11 11 C10.67 9.35 10.34 7.7 10 6 C9.67 6 9.34 6 9 6 C8.87625 7.27875 8.7525 8.5575 8.625 9.875 C8.25 13.75 8.25 13.75 6 16 C5.01 16 4.02 16 3 16 C2.67 13.36 2.34 10.72 2 8 C2 8.99 2 9.98 2 11 C2 13.333333333 2 15.666666667 2 18 C-1.92857754 19.851314833 -4.987751122 20.220049426 -9.3125 20.125 C-10.381132812 20.106953125 -11.449765625 20.08890625 -12.55078125 20.0703125 C-13.359023438 20.047109375 -14.167265625 20.02390625 -15 20 C-14.34 19.67 -13.68 19.34 -13 19 C-13.069609375 18.047382812 -13.13921875 17.094765625 -13.2109375 16.11328125 C-13.63894654 6.197738496 -13.63894654 6.197738496 -11.91015625 2.95703125 C-8.269403036 -0.336063832 -4.674225429 -0.751214801 0 0 Z " fill="#989588" transform="translate(145,114)" />
<path d="M0 0 C2 1 2 1 3.05859375 3.6640625 C5.630428743 12.777535876 6.276767022 22.321585462 6.482666016 31.757324219 C6.586567964 35.593242528 6.586567964 35.593242528 8.53515625 38.76953125 C9.018554688 39.175585937 9.501953125 39.581640625 10 40 C10 40.99 10 41.98 10 43 C12.64 43 15.28 43 18 43 C18 43.99 18 44.98 18 46 C16.515 45.505 16.515 45.505 15 45 C14.67 45.33 14.34 45.66 14 46 C12.515 46.495 12.515 46.495 11 47 C10.01 47.495 10.01 47.495 9 48 C9 47.34 9 46.68 9 46 C7.7625 45.835 6.525 45.67 5.25 45.5 C1.901338765 44.621273293 0.273202448 43.756734585 -1.5 40.75 C-4.965697854 32.300444612 -3.333035073 22.36781609 -1.51171875 13.6875 C-0.650250321 9.163146724 -0.337278541 4.588763314 0 0 Z " fill="#DDDACE" transform="translate(157,142)" />
<path d="M0 0 C0.33 2.97 0.66 5.94 1 9 C2.20561184 8.017321413 2.20561184 8.017321413 2.09765625 6.15234375 C2.086054687 5.421445312 2.074453125 4.690546875 2.0625 3.9375 C2.041875 2.638125 2.02125 1.33875 2 0 C3.32 0 4.64 0 6 0 C6 5.94 6 11.88 6 18 C3.69 17.34 1.38 16.68 -1 16 C-7.827617812 15.172992772 -13.121495853 15.947542144 -19.22265625 19.125 C-21 20 -21 20 -23 20 C-22.67 18.02 -22.34 16.04 -22 14 C-21.34 14 -20.68 14 -20 14 C-19.9175 13.38125 -19.835 12.7625 -19.75 12.125 C-19 10 -19 10 -17 8.9375 C-16.34 8.628125 -15.68 8.31875 -15 8 C-14.67 7.01 -14.34 6.02 -14 5 C-12.676962831 4.627895796 -11.342620652 4.293698268 -10 4 C-9.67 3.34 -9.34 2.68 -9 2 C-8.01 2 -7.02 2 -6 2 C-5.67 2.66 -5.34 3.32 -5 4 C-5 3.01 -5 2.02 -5 1 C-2 0 -2 0 0 0 Z " fill="#DAD7CB" transform="translate(114,90)" />
<path d="M0 0 C0.33 0 0.66 0 1 0 C3.192325761 8.084201245 5.326502642 17.231580747 1.50390625 25.06640625 C0.301271318 26.904112436 -0.954387728 28.708824814 -2.2734375 30.46484375 C-4.154580487 33.226974516 -5.078373346 35.80223479 -6 39 C-6.66 37.68 -7.32 36.36 -8 35 C-8.99 35 -9.98 35 -11 35 C-11.28875 34.195625 -11.5775 33.39125 -11.875 32.5625 C-12.732625676 29.867353205 -12.732625676 29.867353205 -15 29 C-14.503710938 28.163398438 -14.007421875 27.326796875 -13.49609375 26.46484375 C-8.456109563 17.864435091 -4.075826594 9.094188088 0 0 Z " fill="#E2DFD1" transform="translate(88,116)" />
<path d="M0 0 C4.975274294 2.267492267 8.481487306 5.073983436 11 10 C11.855985974 15.29033944 11.406470713 20.683621154 11 26 C12.98 25.01 14.96 24.02 17 23 C16 26 16 26 12.9375 27.6875 C11.968125 28.120625 10.99875 28.55375 10 29 C9.945529532 30.416232157 9.906994925 31.833081908 9.875 33.25 C9.851796875 34.03890625 9.82859375 34.8278125 9.8046875 35.640625 C10.017162203 38.20731941 10.713458946 39.791606696 12 42 C12.99 42 13.98 42 15 42 C14.34 42.66 13.68 43.32 13 44 C12.541883249 45.97235333 12.541883249 45.97235333 12.375 48.125 C12.25125 49.40375 12.1275 50.6825 12 52 C13.485 51.505 13.485 51.505 15 51 C15 51.66 15 52.32 15 53 C14.34 53 13.68 53 13 53 C13.160649414 53.577419434 13.321298828 54.154838867 13.486816406 54.749755859 C13.977347716 56.900672643 14.153456855 58.804085054 14.2109375 61.00390625 C14.239296875 61.744472656 14.26765625 62.485039062 14.296875 63.248046875 C14.349081835 64.794674373 14.393316161 66.341590979 14.4296875 67.888671875 C14.523134876 72.217245878 14.523134876 72.217245878 16.5390625 75.90234375 C17.021171875 76.264570312 17.50328125 76.626796875 18 77 C18 77.66 18 78.32 18 79 C20.475 78.505 20.475 78.505 23 78 C22.505 77.01 22.505 77.01 22 76 C23.32 76.66 24.64 77.32 26 78 C25.67 78.99 25.34 79.98 25 81 C19.644368957 81.438986151 19.644368957 81.438986151 17 81 C15.0625 78.5625 15.0625 78.5625 14 76 C13.67 75.67 13.34 75.34 13 75 C12.83572676 72.663669479 12.719242455 70.339349778 12.625 68 C12.139420629 58.338074107 11.070674884 48.212024653 8 39 C3.641901176 59.950730338 3.641901176 59.950730338 8 80 C8 80.66 8 81.32 8 82 C5.36 82 2.72 82 0 82 C-0.33 79.69 -0.66 77.38 -1 75 C-0.34 75 0.32 75 1 75 C1.33 76.65 1.66 78.3 2 80 C3.32 80.33 4.64 80.66 6 81 C5.34 79.865625 4.68 78.73125 4 77.5625 C0.290937769 70.052306617 2.105691732 62.968599584 3.5546875 55.01953125 C4.197069438 50.663730916 4.174847726 46.390620672 4 42 C3.01 42.495 3.01 42.495 2 43 C2.287460937 42.506289063 2.574921875 42.012578125 2.87109375 41.50390625 C4.406680499 38.097985468 5.205345717 34.558406496 6.0625 30.9375 C7.906451613 23.280645161 7.906451613 23.280645161 9 20 C9.554791733 11.400728144 6.757307849 7.688996061 1.20703125 1.35546875 C0.808710937 0.908164063 0.410390625 0.460859375 0 0 Z " fill="#353229" transform="translate(150,104)" />
<path d="M0 0 C-0.66 1.32 -1.32 2.64 -2 4 C-1.34 4 -0.68 4 0 4 C-0.015710449 5.663857422 -0.015710449 5.663857422 -0.031738281 7.361328125 C-0.068143212 11.506151618 -0.090974577 15.650961178 -0.109863281 19.795898438 C-0.119874388 21.584334134 -0.133487329 23.372753659 -0.150878906 25.161132812 C-0.175343617 27.742879339 -0.186532213 30.324408045 -0.1953125 32.90625 C-0.205635071 33.69616333 -0.215957642 34.48607666 -0.226593018 35.299926758 C-0.22781228 41.435581273 0.004394257 47.652228537 4.125 52.5 C4.74375 52.995 5.3625 53.49 6 54 C4.02 54 2.04 54 0 54 C-0.103125 53.360625 -0.20625 52.72125 -0.3125 52.0625 C-0.539375 51.381875 -0.76625 50.70125 -1 50 C-1.99 49.67 -2.98 49.34 -4 49 C-4.025056152 48.369084473 -4.050112305 47.738168945 -4.075927734 47.088134766 C-4.19154137 44.246031752 -4.314423158 41.404289175 -4.4375 38.5625 C-4.476816406 37.569277344 -4.516132812 36.576054688 -4.556640625 35.552734375 C-4.598535156 34.608496094 -4.640429687 33.664257813 -4.68359375 32.69140625 C-4.720251465 31.81685791 -4.75690918 30.94230957 -4.794677734 30.041259766 C-4.781810656 28.007259804 -4.781810656 28.007259804 -6 27 C-6.071743789 25.668435268 -6.08392842 24.333323902 -6.0625 23 C-6.053476563 22.278125 -6.044453125 21.55625 -6.03515625 20.8125 C-6.017753906 19.9153125 -6.017753906 19.9153125 -6 19 C-5.907549967 17.537749836 -5.907549967 17.537749836 -8 15 C-9.641791045 6.940298507 -9.641791045 6.940298507 -8 3 C-3.137931034 0 -3.137931034 0 0 0 Z " fill="#CFCCC3" transform="translate(168,129)" />
<path d="M0 0 C0.585234375 0.532382813 1.17046875 1.064765625 1.7734375 1.61328125 C2.363828125 2.132773438 2.95421875 2.652265625 3.5625 3.1875 C6.914950173 6.861983564 7.457606777 9.735432052 7.321777344 14.749511719 C7.030029473 18.412385689 6.30443285 21.917161089 5.4609375 25.48828125 C5.312050781 26.204355469 5.163164062 26.920429687 5.009765625 27.658203125 C3.758389416 33.051389218 1.644673237 36.627501127 -1.8515625 40.92578125 C-2.1815625 40.92578125 -2.5115625 40.92578125 -2.8515625 40.92578125 C-2.8309375 39.95640625 -2.8103125 38.98703125 -2.7890625 37.98828125 C-2.49537751 35.051122297 -2.49537751 35.051122297 -3.8515625 33.92578125 C-4.0546875 31.74609375 -4.0546875 31.74609375 -4.1015625 29.05078125 C-4.12734375 28.166484375 -4.153125 27.2821875 -4.1796875 26.37109375 C-3.785362869 23.432436378 -2.945123703 22.90154617 -0.8515625 20.92578125 C-0.281384422 18.884778872 -0.281384422 18.884778872 -0.1640625 16.73828125 C-0.0609375 15.48015625 0.0421875 14.22203125 0.1484375 12.92578125 C1.1384375 12.92578125 2.1284375 12.92578125 3.1484375 12.92578125 C3.4784375 14.24578125 3.8084375 15.56578125 4.1484375 16.92578125 C3.601817076 13.008334878 3.082627628 9.407323481 1.1484375 5.92578125 C-1.294448775 4.615097917 -1.294448775 4.615097917 -3.8515625 3.92578125 C-4.5115625 3.59578125 -5.1715625 3.26578125 -5.8515625 2.92578125 C-5.8515625 1.93578125 -5.8515625 0.94578125 -5.8515625 -0.07421875 C-3.356324403 -1.014055126 -2.364955193 -1.37207316 0 0 Z " fill="#CAC7BC" transform="translate(152.8515625,107.07421875)" />
<path d="M0 0 C0.66 0 1.32 0 2 0 C2.3125 2.625 2.3125 2.625 2 6 C1.071875 6.825 0.14375 7.65 -0.8125 8.5 C-2.342417014 9.906387179 -2.342417014 9.906387179 -3 12 C-1.722388502 18.086204223 0.541684725 23.812527087 4 29 C3.8125 32.0625 3.8125 32.0625 3 35 C0 37 0 37 -3 36.75 C-6 36 -6 36 -9 34 C-10.655495312 33.61500109 -12.322243302 33.272068654 -14 33 C-12.02 32.505 -12.02 32.505 -10 32 C-9.67 30.68 -9.34 29.36 -9 28 C-9 28.99 -9 29.98 -9 31 C-7.292646987 29.964314053 -7.292646987 29.964314053 -6 28 C-6.18129815 24.562066611 -6.18129815 24.562066611 -7 21 C-7.185625 20.030625 -7.37125 19.06125 -7.5625 18.0625 C-7.706875 17.381875 -7.85125 16.70125 -8 16 C-7.01 16.33 -6.02 16.66 -5 17 C-5.33 14.36 -5.66 11.72 -6 9 C-4.35 8.34 -2.7 7.68 -1 7 C-0.67 4.69 -0.34 2.38 0 0 Z " fill="#6B685F" transform="translate(204,53)" />
<path d="M0 0 C0.33 0 0.66 0 1 0 C1.121171875 0.626484375 1.24234375 1.25296875 1.3671875 1.8984375 C1.534765625 2.715703125 1.70234375 3.53296875 1.875 4.375 C2.118632813 5.593164062 2.118632813 5.593164062 2.3671875 6.8359375 C2.866589316 9.186739226 2.866589316 9.186739226 5 11 C4.654529954 15.739849027 2.982929361 19.808592769 1.125 24.125 C-1.266192572 29.839617053 -3.023404903 35.42123636 -4.26171875 41.51171875 C-5.062927451 44.212088817 -6.187339561 45.867752046 -8 48 C-8.227312162 41.066979072 -7.420021077 34.783136396 -6 28 C-5.34 28 -4.68 28 -4 28 C-2.02 22.72 -0.04 17.44 2 12 C1.01 14.31 0.02 16.62 -1 19 C-1.981204635 15.947363358 -1.981204635 14.052636642 -1 11 C-4.248499772 12.722264961 -4.248499772 12.722264961 -5 16 C-5.66 16 -6.32 16 -7 16 C-5.260170047 10.187386295 -3.188951102 5.168300062 0 0 Z " fill="#DBD8CD" transform="translate(181,73)" />
<path d="M0 0 C0.640625 1.76171875 0.640625 1.76171875 1 4 C0.109375 5.89453125 0.109375 5.89453125 -1.25 7.8125 C-3.688559699 11.432979999 -5.395219568 14.945817855 -7 19 C-7.99 19 -8.98 19 -10 19 C-10.470507812 19.999023438 -10.941015625 20.998046875 -11.42578125 22.02734375 C-12.054155454 23.330985755 -12.683090948 24.634357314 -13.3125 25.9375 C-13.621230469 26.596855469 -13.929960937 27.256210938 -14.248046875 27.935546875 C-15.089509781 29.662760208 -16.039476652 31.336052701 -17 33 C-18.485 33.495 -18.485 33.495 -20 34 C-19.4545559 28.376029074 -17.996494506 23.805087877 -15.625 18.6875 C-15.282109375 17.946369629 -14.93921875 17.205239258 -14.5859375 16.441650391 C-11.052994697 9.312787592 -6.337403872 4.741403265 0 0 Z " fill="#DCDACF" transform="translate(181,67)" />
<path d="M0 0 C1.11375 0.1546875 1.11375 0.1546875 2.25 0.3125 C2.58 0.9725 2.91 1.6325 3.25 2.3125 C2.123447913 4.717599297 0.947053644 6.956120957 -0.375 9.25 C-0.891269531 10.200361328 -0.891269531 10.200361328 -1.41796875 11.169921875 C-3.653213877 15.091911019 -5.567464367 17.524696914 -9.75 19.3125 C-11.07 19.3125 -12.39 19.3125 -13.75 19.3125 C-14.1875 16.8125 -14.1875 16.8125 -13.75 13.3125 C-12.176823297 11.089250279 -10.435930325 9.182971284 -8.5546875 7.21484375 C-6.580907329 5.224604005 -6.580907329 5.224604005 -4.625 2.3125 C-2.75 0.3125 -2.75 0.3125 0 0 Z " fill="#C6C4B8" transform="translate(116.75,131.6875)" />
<path d="M0 0 C1.88671875 0.26953125 1.88671875 0.26953125 4 1 C6.317946181 4.5062074 7.01426701 8.22958144 6.9375 12.375 C6 15 6 15 4.25 16.375 C1.737118538 17.073022628 -0.403730892 17.144237173 -3 17 C-3.33 16.34 -3.66 15.68 -4 15 C-3.34 14.67 -2.68 14.34 -2 14 C-2.33 13.01 -2.66 12.02 -3 11 C-2.34 11 -1.68 11 -1 11 C-1.33 10.34 -1.66 9.68 -2 9 C-2.99 9 -3.98 9 -5 9 C-5 10.65 -5 12.3 -5 14 C-7.229847846 12.234703788 -7.939159014 11.347662779 -8.4375 8.5 C-8 6 -8 6 -6.25 4.125 C-4 3 -4 3 -1.75 3.3125 C-0.88375 3.6528125 -0.88375 3.6528125 0 4 C0 2.68 0 1.36 0 0 Z " fill="#D7D4C9" transform="translate(192,68)" />
<path d="M0 0 C1.281324969 0.646272489 2.556698067 1.305433005 3.8125 2 C3.8125 2.66 3.8125 3.32 3.8125 4 C-1.1875 2 -1.1875 2 -3.5 0.875 C-10.237661353 -1.318657185 -15.995197929 0.027147015 -22.1875 3 C-24.687912722 4.203204428 -24.687912722 4.203204428 -26.1875 6 C-26.502787759 8.459244519 -26.400072926 10.296367137 -25.68359375 12.66796875 C-24.962630913 16.057061773 -24.962815007 19.425830342 -24.9375 22.875 C-24.916875 23.569804688 -24.89625 24.264609375 -24.875 24.98046875 C-24.832995219 30.556603437 -25.981839437 34.569384007 -29.7578125 38.73046875 C-30.270859375 39.211289062 -30.78390625 39.692109375 -31.3125 40.1875 C-35.261233091 44.527196764 -35.16707742 49.353156687 -35.1875 55 C-35.5175 55 -35.8475 55 -36.1875 55 C-37.104002541 46.533262237 -36.180989299 41.658538155 -30.81640625 34.9609375 C-30.278867187 34.313828125 -29.741328125 33.66671875 -29.1875 33 C-25.750466994 26.125933988 -28.405321534 15.540399642 -29.9453125 8.36328125 C-30.025234375 7.583398437 -30.10515625 6.803515625 -30.1875 6 C-21.947654856 -2.239845144 -10.551559552 -4.583333681 0 0 Z " fill="#322F24" transform="translate(118.1875,107)" />
<path d="M0 0 C2 1 2 1 3.125 3.375 C4.309591917 8.282595085 4.160877784 12.977038071 4 18 C3.67 18 3.34 18 3 18 C3 20.31 3 22.62 3 25 C3.66 25 4.32 25 5 25 C5 27.64 5 30.28 5 33 C4.34 33 3.68 33 3 33 C2.505 31.515 2.505 31.515 2 30 C1.34 29.67 0.68 29.34 0 29 C0 28.01 0 27.02 0 26 C-0.66 26 -1.32 26 -2 26 C-1.835 26.70125 -1.67 27.4025 -1.5 28.125 C-0.97584662 31.138881938 -0.929003169 33.947136249 -1 37 C-1.66 36.67 -2.32 36.34 -3 36 C-3.200837411 28.357020763 -3.083867565 21.180294352 -1.51171875 13.6875 C-0.650250321 9.163146724 -0.337278541 4.588763314 0 0 Z " fill="#E3E0D6" transform="translate(157,142)" />
<path d="M0 0 C3.871320276 0.57352893 6.081727961 2.487043522 9 5 C9.99 4.34 10.98 3.68 12 3 C14.6875 3.375 14.6875 3.375 17 4 C17.33 4.99 17.66 5.98 18 7 C17.34 7 16.68 7 16 7 C16.33 8.98 16.66 10.96 17 13 C15.68 11.68 14.36 10.36 13 9 C13.33 8.01 13.66 7.02 14 6 C12.024632551 6.347867083 12.024632551 6.347867083 10 7 C9.67 7.66 9.34 8.32 9 9 C8.34 9 7.68 9 7 9 C5.981337708 7.344673775 4.981891874 5.677398618 4 4 C3.34 3.67 2.68 3.34 2 3 C3.688079083 7.230849032 3.688079083 7.230849032 7 10 C4.38256198 15.895714353 -0.717433432 20.407854734 -6 24 C-6.66 23.67 -7.32 23.34 -8 23 C-7.289726562 22.373515625 -6.579453125 21.74703125 -5.84765625 21.1015625 C-4.928554687 20.284296875 -4.009453125 19.46703125 -3.0625 18.625 C-2.145976563 17.812890625 -1.229453125 17.00078125 -0.28515625 16.1640625 C2.036013952 14.212906534 2.036013952 14.212906534 3 12 C1.000164663 12.791179036 1.000164663 12.791179036 -1 14 C-1.33 14.99 -1.66 15.98 -2 17 C-3.32 17 -4.64 17 -6 17 C-6.66 18.32 -7.32 19.64 -8 21 C-8.66 20.67 -9.32 20.34 -10 20 C-9.505 18.515 -9.505 18.515 -9 17 C-8.34 17 -7.68 17 -7 17 C-7 16.34 -7 15.68 -7 15 C-5.68 15 -4.36 15 -3 15 C-2.731875 14.360625 -2.46375 13.72125 -2.1875 13.0625 C-1 11 -1 11 2 10 C1.505 8.63875 1.505 8.63875 1 7.25 C0 4 0 4 0 0 Z " fill="#2E2B23" transform="translate(177,53)" />
<path d="M0 0 C0.7734375 0.495 0.7734375 0.495 1.5625 1 C1.5625 1.99 1.5625 2.98 1.5625 4 C2.8825 3.67 4.2025 3.34 5.5625 3 C6.2225 4.32 6.8825 5.64 7.5625 7 C5.9375 7.75 5.9375 7.75 3.5625 8 C2.634375 7.360625 1.70625 6.72125 0.75 6.0625 C-3.077702275 3.585751469 -4.958496643 3.348508603 -9.4375 4 C-12.225799441 5.492502014 -12.225799441 5.492502014 -14.4375 8 C-15.25520378 11.486080689 -15.25520378 11.486080689 -15.25 15.25 C-15.297695312 16.51328125 -15.345390625 17.7765625 -15.39453125 19.078125 C-15.408710937 20.04234375 -15.422890625 21.0065625 -15.4375 22 C-16.0975 22 -16.7575 22 -17.4375 22 C-20.403533329 7.729142497 -20.403533329 7.729142497 -18.1171875 3.63671875 C-12.942531079 -0.726014593 -6.508916215 -2.670324601 0 0 Z " fill="#E0DDD0" transform="translate(147.4375,111)" />
<path d="M0 0 C3.73298017 0 5.943048803 0.140404836 8.8828125 2.53125 C14.102093403 8.225010985 17.373435851 14.177958692 18.625 21.8125 C18 25 18 25 15.0625 27.4375 C12 29 12 29 11 29 C11.081210938 27.865625 11.162421875 26.73125 11.24609375 25.5625 C12.049068759 15.677013172 12.049068759 15.677013172 7.75 7.1875 C6.532186404 6.08825649 5.284535948 5.020477167 4 4 C3.195625 3.175 2.39125 2.35 1.5625 1.5 C1.046875 1.005 0.53125 0.51 0 0 Z " fill="#DDDACD" transform="translate(149,102)" />
<path d="M0 0 C-0.66 0.66 -1.32 1.32 -2 2 C-1.687702765 3.338416723 -1.351690685 4.671390746 -1 6 C-1.146953125 6.563320312 -1.29390625 7.126640625 -1.4453125 7.70703125 C-2.996051942 14.117482323 -3.468220565 22.45329213 0 28.25 C0.66 29.1575 1.32 30.065 2 31 C2 31.66 2 32.32 2 33 C0.02 33 -1.96 33 -4 33 C-4.12375 32.195625 -4.2475 31.39125 -4.375 30.5625 C-4.58125 29.716875 -4.7875 28.87125 -5 28 C-5.66 27.67 -6.32 27.34 -7 27 C-6.67 18.09 -6.34 9.18 -6 0 C-3.509071894 -1.245464053 -2.589192669 -0.776757801 0 0 Z " fill="#E3E0D2" transform="translate(90,152)" />
<path d="M0 0 C0.207006817 5.842192389 0.051681105 11.36297254 -1 17.125 C-2.423329166 25.030108748 -3.186713255 30.84769819 1 38 C1 38.66 1 39.32 1 40 C-0.65 39.67 -2.3 39.34 -4 39 C-4 37.35 -4 35.7 -4 34 C-4.66 34 -5.32 34 -6 34 C-5.857804362 31.79142945 -5.711081531 29.583150131 -5.5625 27.375 C-5.440683594 25.530351563 -5.440683594 25.530351563 -5.31640625 23.6484375 C-5.033360563 20.384676122 -4.589610473 17.22056141 -4 14 C-4.33 14 -4.66 14 -5 14 C-5.628024761 5.992684299 -5.628024761 5.992684299 -3.0625 1.9375 C-1 0 -1 0 0 0 Z " fill="#C9C5BB" transform="translate(155,145)" />
<path d="M0 0 C0.66 0 1.32 0 2 0 C1.67 1.98 1.34 3.96 1 6 C1.20625 5.195625 1.4125 4.39125 1.625 3.5625 C2.07875 2.716875 2.5325 1.87125 3 1 C6.125 0.1875 6.125 0.1875 9 0 C11.429451599 3.644177399 11.161795746 5.712412719 11 10 C6.50343896 12.24828052 2.92127034 12.166822723 -2 12 C-2.285714286 3.428571429 -2.285714286 3.428571429 0 0 Z " fill="#CBC8BB" transform="translate(136,122)" />
<path d="M0 0 C0.66 0.33 1.32 0.66 2 1 C-0.64 6.28 -3.28 11.56 -6 17 C-5.34 17 -4.68 17 -4 17 C-3.938125 16.4225 -3.87625 15.845 -3.8125 15.25 C-2.67972699 12.113090126 -0.658024048 10.908324958 2 9 C1.34 11.64 0.68 14.28 0 17 C0.99 15.35 1.98 13.7 3 12 C4 14 4 14 3.502685547 15.831787109 C3.216916504 16.556320801 2.931147461 17.280854492 2.63671875 18.02734375 C2.326699219 18.819472656 2.016679687 19.611601562 1.697265625 20.427734375 C1.364042969 21.255957031 1.030820312 22.084179687 0.6875 22.9375 C0.205068359 24.174033203 0.205068359 24.174033203 -0.287109375 25.435546875 C-1.658532249 28.902120917 -2.920694775 31.881042162 -5 35 C-5.38499891 36.655495312 -5.727931346 38.322243302 -6 40 C-6.66 39.34 -7.32 38.68 -8 38 C-7.86328125 35.96875 -7.86328125 35.96875 -7.3125 33.5 C-7.115273438 32.615703125 -6.918046875 31.73140625 -6.71484375 30.8203125 C-5.620094292 26.501137041 -4.354544255 22.244238666 -3 18 C-3.66 18.66 -4.32 19.32 -5 20 C-5 19.34 -5 18.68 -5 18 C-5.99 18 -6.98 18 -8 18 C-8.66 16.68 -9.32 15.36 -10 14 C-9.34 13.34 -8.68 12.68 -8 12 C-8 12.66 -8 13.32 -8 14 C-7.34 14 -6.68 14 -6 14 C-5.727363281 13.112480469 -5.727363281 13.112480469 -5.44921875 12.20703125 C-4.043329431 7.787492005 -2.624728186 3.874598751 0 0 Z " fill="#79766A" transform="translate(180,72)" />
<path d="M0 0 C3.559557947 0.800445739 5.099166023 2.760166597 7.20703125 5.625 C8.513982559 7.900411632 9.134076687 9.893905955 9.29296875 12.515625 C6.29296875 11.515625 6.29296875 11.515625 4.54296875 8.515625 C2.535090723 5.212872513 2.535090723 5.212872513 -1.14453125 4.515625 C-4.623919361 4.515625 -6.645332928 4.93838647 -9.70703125 6.515625 C-9.89265625 8.2790625 -9.89265625 8.2790625 -10.08203125 10.078125 C-10.571390597 14.056829257 -11.512551746 17.693290587 -12.70703125 21.515625 C-13.36703125 21.185625 -14.02703125 20.855625 -14.70703125 20.515625 C-14.451630401 13.453791525 -13.901021011 8.313199081 -9.70703125 2.515625 C-6.163229738 0.153090659 -4.164740563 -0.081528363 0 0 Z " fill="#E6E3D7" transform="translate(110.70703125,118.484375)" />
<path d="M0 0 C1.229620065 3.688860194 0.6065193 4.470001459 -0.8125 8 C-3.115701894 14.458463043 -3.797905328 20.711332337 -4.315673828 27.5 C-4.37907959 28.28375 -4.442485352 29.0675 -4.5078125 29.875 C-4.579597168 30.923007813 -4.579597168 30.923007813 -4.652832031 31.9921875 C-5.048033219 34.277795493 -5.877337279 35.982034968 -7 38 C-10.33015694 33.00476459 -10.791344371 27.896182425 -10 22 C-8.645862355 17.987454168 -6.860853606 14.23716189 -5 10.4375 C-4.523046875 9.428808594 -4.04609375 8.420117187 -3.5546875 7.380859375 C-2.384989373 4.912796327 -1.200053644 2.453407543 0 0 Z " fill="#DFDBCF" transform="translate(177,88)" />
<path d="M0 0 C1 3 1 3 1.3125 6.875 C2.272773723 16.307366087 4.948169429 26.418291468 12 33 C10.02 33 8.04 33 6 33 C5.9175 32.38125 5.835 31.7625 5.75 31.125 C5.5025 30.42375 5.255 29.7225 5 29 C4.346445312 28.70609375 3.692890625 28.4121875 3.01953125 28.109375 C1 27 1 27 0.27734375 25.2578125 C0.109121094 24.202070312 0.109121094 24.202070312 -0.0625 23.125 C-0.767371984 19.248204085 -1.597751558 15.446888057 -2.5625 11.625 C-2.811289062 10.627265625 -3.060078125 9.62953125 -3.31640625 8.6015625 C-3.811895105 6.715873486 -4.383450548 4.849648355 -5 3 C-3.35 2.01 -1.7 1.02 0 0 Z " fill="#E1DDD4" transform="translate(109,150)" />
<path d="M0 0 C0.66 0.33 1.32 0.66 2 1 C-0.475 5.455 -0.475 5.455 -3 10 C-2.34 9.67 -1.68 9.34 -1 9 C0.158376262 13.054316919 -0.163087434 15.218121188 -2 19 C-4.64 17.68 -7.28 16.36 -10 15 C-8.22655795 5.203843914 -8.22655795 5.203843914 -5.3125 2.34375 C-3.4375 1.25 -3.4375 1.25 0 0 Z " fill="#DCD9CB" transform="translate(160,84)" />
<path d="M0 0 C0.33 0 0.66 0 1 0 C1.181757812 0.941015625 1.363515625 1.88203125 1.55078125 2.8515625 C1.802148437 4.096796875 2.053515625 5.34203125 2.3125 6.625 C2.677949219 8.469648438 2.677949219 8.469648438 3.05078125 10.3515625 C4.719276558 16.764626769 7.301881094 20.428857281 12 25 C12 25.66 12 26.32 12 27 C9.03 27.33 6.06 27.66 3 28 C2.566875 27.05125 2.13375 26.1025 1.6875 25.125 C0.206977993 21.799580632 0.206977993 21.799580632 -3 20 C-3.761758572 17.128082626 -4.340452303 14.418548706 -4.8125 11.5 C-4.958808594 10.714960937 -5.105117187 9.929921875 -5.255859375 9.12109375 C-5.601650159 7.095003027 -5.810726156 5.046653438 -6 3 C-5.34 2.34 -4.68 1.68 -4 1 C-3.935305176 1.565092773 -3.870610352 2.130185547 -3.803955078 2.712402344 C-3.497457388 5.270145301 -3.15548051 7.821904435 -2.8125 10.375 C-2.711308594 11.264453125 -2.610117187 12.15390625 -2.505859375 13.0703125 C-2.16656326 15.491236129 -1.821225276 17.696408198 -1 20 C1.453274259 21.728180889 1.453274259 21.728180889 4 22 C4 23.32 4 24.64 4 26 C5.65 25.67 7.3 25.34 9 25 C8.2575 24.401875 7.515 23.80375 6.75 23.1875 C1.795737257 18.261386477 -0.488584875 9.818868332 -1 3 C-0.67 2.01 -0.34 1.02 0 0 Z " fill="#47443A" transform="translate(111,157)" />
<path d="M0 0 C1.9375 0.625 1.9375 0.625 4 2 C4.75 5.125 4.75 5.125 5 8 C4.67 7.34 4.34 6.68 4 6 C0.181865527 6.275407044 0.181865527 6.275407044 -3 8 C-2.712699447 10.339447359 -2.380632205 12.673914301 -2 15 C-1.67 13.35 -1.34 11.7 -1 10 C0.32 10.33 1.64 10.66 3 11 C3 11.66 3 12.32 3 13 C2.34 13 1.68 13 1 13 C1.66 14.32 2.32 15.64 3 17 C2.34 17.33 1.68 17.66 1 18 C1.33 18.66 1.66 19.32 2 20 C1.550117188 20.408632813 1.100234375 20.817265625 0.63671875 21.23828125 C-1.116558304 23.125460132 -2.084823294 24.868076585 -3.1875 27.1875 C-3.531679688 27.902929688 -3.875859375 28.618359375 -4.23046875 29.35546875 C-4.484414063 29.898164063 -4.738359375 30.440859375 -5 31 C-6 29 -6 29 -5.40625 27.1953125 C-4.803996019 25.819473664 -4.199840357 24.444465636 -3.59375 23.0703125 C-2.882151764 20.58908181 -3.106000838 19.400193402 -4 17 C-4.66 16.01 -5.32 15.02 -6 14 C-6.4140625 11.73828125 -6.4140625 11.73828125 -6.625 9.3125 C-6.699765625 8.504257813 -6.77453125 7.696015625 -6.8515625 6.86328125 C-6.900546875 6.248398438 -6.94953125 5.633515625 -7 5 C-6.34 4.67 -5.68 4.34 -5 4 C-5 4.66 -5 5.32 -5 6 C-2.444960434 4.717112433 -2.444960434 4.717112433 0 3 C0 2.01 0 1.02 0 0 Z " fill="#48453B" transform="translate(188,66)" />
<path d="M0 0 C0.33 0 0.66 0 1 0 C2.322862458 4.960734217 2.088931969 9.911115123 2 15 C1.01 14.34 0.02 13.68 -1 13 C-1.33 13.66 -1.66 14.32 -2 15 C-1.34 15 -0.68 15 0 15 C0.66 16.65 1.32 18.3 2 20 C1.01 20.33 0.02 20.66 -1 21 C-1.66 20.34 -2.32 19.68 -3 19 C-4.65 19.66 -6.3 20.32 -8 21 C-7.424606856 15.797149321 -5.705811066 11.760439643 -3.4375 7.125 C-3.108144531 6.436640625 -2.778789062 5.74828125 -2.439453125 5.0390625 C-1.63304639 3.356126705 -0.817455062 1.677597072 0 0 Z " fill="#EAE7DC" transform="translate(88,116)" />
</svg>