<?xml version="1.0" encoding="UTF-8"?>
<!-- Generator: visioncortex VTracer 0.6.4 -->
<svg version="1.1" xmlns="http://www.w3.org/2000/svg" width="281" height="256">
<path d="M0 0 C0.557 0.227 1.114 0.454 1.688 0.688 C3.266 4.7 2.052 7.73 0.875 11.75 C-0.721 17.313 -1.948 22.767 -2.723 28.516 C-3.418 31.077 -4.187 32.118 -6.312 33.688 C-7.303 33.688 -8.292 33.688 -9.312 33.688 C-9.395 34.678 -9.477 35.667 -9.562 36.688 C-10.063 40.467 -11.508 43.133 -13.57 46.305 C-16.372 55.301 -10.607 66.133 -7.639 74.475 C-4.113 84.637 -1.923 94.465 -2.125 105.25 C-2.128 105.974 -2.131 106.698 -2.134 107.444 C-2.176 111.557 -2.519 115.488 -3.125 119.562 C-3.735 124.899 -2.03 128.518 0.461 133.18 C4.158 140.739 3.289 149.205 0.754 156.98 C-1.245 162.056 -3.757 166.874 -6.312 171.688 C-5.811 172.291 -5.31 172.894 -4.793 173.516 C-3.312 175.688 -3.312 175.688 -3.625 178.438 C-3.965 179.551 -3.965 179.551 -4.312 180.688 C-7.282 181.678 -7.282 181.678 -10.312 182.688 C-10.312 184.667 -10.312 186.648 -10.312 188.688 C-18.183 191.258 -23.816 191.359 -31.312 187.688 C-31.438 181.062 -31.438 181.062 -30.312 177.688 C-32.293 177.688 -34.272 177.688 -36.312 177.688 C-36.086 178.925 -35.859 180.162 -35.625 181.438 C-35.251 184.413 -35.159 185.387 -36.562 188.125 C-40.005 191.198 -43.729 190.894 -48.086 190.852 C-51.195 190.623 -54.059 189.941 -56.312 187.688 C-56.353 186.021 -56.355 184.354 -56.312 182.688 C-57.62 182.533 -57.62 182.533 -58.953 182.375 C-62.501 181.649 -64.935 180.485 -68.062 178.688 C-69.006 178.151 -69.95 177.615 -70.922 177.062 C-71.711 176.609 -72.5 176.155 -73.312 175.688 C-76.36 174.164 -78.663 175.141 -81.98 175.762 C-82.988 175.949 -82.988 175.949 -84.016 176.141 C-85.449 176.409 -86.88 176.681 -88.311 176.956 C-90.445 177.364 -92.58 177.76 -94.717 178.154 C-108.659 180.766 -121.821 183.709 -134.312 190.688 C-134.312 194.454 -134.077 195.599 -132.312 198.688 C-133.438 200.25 -133.438 200.25 -135.312 201.688 C-138.82 201.613 -140.789 201.046 -143.688 199.062 C-146.064 195.588 -146.072 193.83 -145.312 189.688 C-138.65 178.011 -124.079 174.539 -111.992 171.145 C-87.697 164.688 -87.697 164.688 -78.312 164.688 C-78.601 163.565 -78.89 162.442 -79.188 161.285 C-82.732 147.175 -84 137.286 -76.301 124.168 C-74.363 120.97 -72.336 117.832 -70.312 114.688 C-69.21 112.483 -69.109 111.09 -68.953 108.645 C-67.962 95.258 -65.047 83.993 -59.727 71.672 C-59.269 70.604 -58.811 69.535 -58.34 68.435 C-57.421 66.306 -56.484 64.185 -55.527 62.073 C-53.113 56.543 -51.507 52.725 -53.312 46.688 C-54.15 44.42 -54.15 44.42 -55.25 42.5 C-55.759 41.551 -55.759 41.551 -56.277 40.582 C-56.619 39.957 -56.961 39.332 -57.312 38.688 C-57.603 38.031 -57.893 37.375 -58.191 36.699 C-59.263 34.544 -59.263 34.544 -61.344 32.75 C-63.611 30.375 -64.095 28.861 -64.812 25.688 C-66.068 20.45 -67.787 15.529 -69.738 10.512 C-70.454 6.992 -69.679 4.957 -68.312 1.688 C-62.988 1.932 -60.134 4.053 -56.045 7.145 C-48.988 12.649 -48.988 12.649 -40.598 15 C-37.312 14.432 -37.312 14.432 -34.184 13.445 C-31.016 12.609 -29.491 12.932 -26.375 13.75 C-22.64 14.32 -20.757 13.522 -17.758 11.418 C-14.685 9.063 -11.78 6.531 -8.867 3.984 C-3.518 -0.475 -3.518 -0.475 0 0 Z M-2.312 2.688 C-2.766 3.162 -3.22 3.636 -3.688 4.125 C-5.776 6.133 -7.491 6.306 -10.312 6.688 C-10.395 7.203 -10.477 7.719 -10.562 8.25 C-11.272 10.557 -12.142 12.194 -13.375 14.25 C-15.558 17.465 -15.558 17.465 -15.312 20.688 C-11.847 20.193 -11.847 20.193 -8.312 19.688 C-8.312 20.677 -8.312 21.668 -8.312 22.688 C-9.632 23.017 -10.952 23.347 -12.312 23.688 C-11.188 26.659 -10.09 29.022 -8.312 31.688 C-7.653 31.688 -6.993 31.688 -6.312 31.688 C-4.369 28.278 -3.6 24.957 -2.812 21.125 C-2.559 19.894 -2.305 18.663 -2.043 17.395 C-1.079 12.501 -0.165 7.601 0.688 2.688 C-0.303 2.688 -1.292 2.688 -2.312 2.688 Z M-67.312 3.688 C-67.642 4.017 -67.972 4.348 -68.312 4.688 C-68.009 10.349 -66.675 14.375 -64.219 19.445 C-63.29 21.744 -62.993 23.602 -62.812 26.062 C-62.647 27.259 -62.483 28.455 -62.312 29.688 C-60.993 30.677 -59.673 31.668 -58.312 32.688 C-56.332 30.047 -54.352 27.407 -52.312 24.688 C-53.632 24.028 -54.952 23.367 -56.312 22.688 C-56.642 22.028 -56.972 21.367 -57.312 20.688 C-55.332 21.017 -53.352 21.347 -51.312 21.688 C-50.785 18.1 -51.209 16.836 -53.312 13.812 C-56.648 10.153 -60.266 6.549 -64.312 3.688 C-65.302 3.688 -66.293 3.688 -67.312 3.688 Z M-17.812 12.562 C-18.421 13.096 -19.029 13.63 -19.656 14.18 C-20.905 15.317 -22.118 16.493 -23.312 17.688 C-20.64 20.03 -20.64 20.03 -17.312 20.688 C-15.662 17.057 -14.012 13.427 -12.312 9.688 C-15.043 9.688 -15.792 10.774 -17.812 12.562 Z M-53.312 11.688 C-51.993 14.657 -50.673 17.627 -49.312 20.688 C-45.625 20.189 -43.708 19.587 -41.312 16.688 C-42.674 16.285 -42.674 16.285 -44.062 15.875 C-47.047 14.784 -48.854 13.619 -51.312 11.688 C-51.972 11.688 -52.632 11.688 -53.312 11.688 Z M-34.312 14.688 C-34.312 17.987 -34.312 21.288 -34.312 24.688 C-34.972 24.688 -35.632 24.688 -36.312 24.688 C-36.312 21.718 -36.312 18.748 -36.312 15.688 C-36.642 15.688 -36.972 15.688 -37.312 15.688 C-37.642 18.657 -37.972 21.627 -38.312 24.688 C-38.312 22.377 -38.312 20.067 -38.312 17.688 C-45.456 20.679 -51.889 23.702 -56.43 30.184 C-57.89 34.326 -56.478 37.245 -54.727 41.109 C-51.975 46.229 -51.975 46.229 -48.312 50.688 C-48.642 51.017 -48.972 51.347 -49.312 51.688 C-49.809 57.718 -49.295 62.989 -47.312 68.688 C-49.293 63.243 -49.293 63.243 -51.312 57.688 C-54.944 61.319 -56.21 66.579 -58.053 71.307 C-58.801 73.222 -59.562 75.132 -60.324 77.041 C-63.779 85.844 -66.235 93.792 -66.792 103.219 C-67.46 113.434 -70.391 119.285 -76.312 127.688 C-81.869 136.744 -81.411 146.652 -79.188 156.812 C-76.636 165.82 -73.467 173.85 -65.383 178.891 C-61.89 180.771 -59.926 181.721 -55.875 181.5 C-53.405 180.933 -53.405 180.933 -52.312 179.688 C-51.039 170.481 -51.039 170.481 -54.109 162.09 C-56.416 160.081 -58.752 158.358 -61.312 156.688 C-66.266 153.011 -69.317 149.03 -72.312 143.688 C-71.341 144.659 -70.432 145.693 -69.527 146.727 C-64.79 152.105 -60.007 157.3 -54.312 161.688 C-53.983 161.688 -53.653 161.688 -53.312 161.688 C-53.897 155.223 -55.065 149.213 -56.688 142.938 C-59.611 131.191 -62.312 118.843 -62.312 106.688 C-62.218 107.401 -62.123 108.114 -62.025 108.849 C-59.965 124.078 -57.392 138.869 -53.312 153.688 C-51.696 159.875 -51.14 165.985 -51.062 172.375 C-51.037 173.658 -51.011 174.94 -50.984 176.262 C-51.331 179.885 -51.976 181.029 -54.312 183.688 C-54.327 185.881 -54.327 185.881 -53.312 187.688 C-52.322 188.018 -51.332 188.347 -50.312 188.688 C-50.312 187.037 -50.312 185.387 -50.312 183.688 C-49.322 186.163 -49.322 186.163 -48.312 188.688 C-46.993 188.688 -45.673 188.688 -44.312 188.688 C-43.983 187.697 -43.653 186.708 -43.312 185.688 C-42.983 186.347 -42.653 187.007 -42.312 187.688 C-40.993 187.688 -39.673 187.688 -38.312 187.688 C-36.709 180.632 -37.839 173.664 -39.883 166.762 C-40.312 164.688 -40.312 164.688 -40.23 161.535 C-40.331 156.797 -41.378 152.675 -42.625 148.125 C-42.838 147.301 -43.052 146.476 -43.271 145.627 C-44.508 141.008 -45.984 136.9 -48.312 132.688 C-46.993 134.007 -45.673 135.327 -44.312 136.688 C-44.786 132.249 -45.267 127.812 -45.75 123.375 C-45.885 122.112 -46.019 120.85 -46.158 119.549 C-46.29 118.34 -46.422 117.132 -46.559 115.887 C-46.679 114.771 -46.799 113.656 -46.924 112.507 C-47.235 109.615 -47.235 109.615 -48.312 106.688 C-47.653 106.688 -46.993 106.688 -46.312 106.688 C-46.354 107.822 -46.395 108.956 -46.438 110.125 C-46.438 115.018 -45.973 119.83 -45.438 124.688 C-45.359 125.454 -45.281 126.22 -45.2 127.01 C-44.977 128.912 -44.653 130.802 -44.312 132.688 C-43.322 133.183 -43.322 133.183 -42.312 133.688 C-40.156 124.641 -38.761 115.988 -38.312 106.688 C-37.709 115.989 -39.156 125.733 -41.922 134.652 C-43.576 140.097 -43.022 143.996 -41.562 149.438 C-41.173 151.02 -40.787 152.604 -40.402 154.188 C-40.213 154.953 -40.023 155.719 -39.828 156.508 C-38.722 161.186 -38.039 165.939 -37.312 170.688 C-36.981 172.688 -36.649 174.688 -36.312 176.688 C-34.002 176.357 -31.692 176.028 -29.312 175.688 C-28.983 173.377 -28.653 171.067 -28.312 168.688 C-29.241 169.678 -29.241 169.678 -30.188 170.688 C-32.312 172.688 -32.312 172.688 -34.312 172.688 C-33.696 172.133 -33.08 171.579 -32.445 171.008 C-25.195 163.12 -23.854 149.025 -23.977 138.73 C-24.366 132.365 -25.684 126.074 -26.889 119.822 C-27.871 114.674 -28.546 109.93 -28.312 104.688 C-28.191 105.799 -28.07 106.91 -27.945 108.055 C-26.935 120.034 -26.935 120.034 -24.312 131.688 C-23.322 132.183 -23.322 132.183 -22.312 132.688 C-20.519 123.944 -20.075 115.602 -20.312 106.688 C-19.653 106.688 -18.993 106.688 -18.312 106.688 C-18.398 107.357 -18.484 108.026 -18.572 108.716 C-18.967 111.81 -19.358 114.905 -19.75 118 C-19.885 119.053 -20.019 120.105 -20.158 121.189 C-21.019 128.013 -21.74 134.834 -22.312 141.688 C-21.653 141.688 -20.993 141.688 -20.312 141.688 C-21.303 142.183 -21.303 142.183 -22.312 142.688 C-23.086 145.402 -23.734 148.055 -24.312 150.812 C-24.488 151.622 -24.663 152.432 -24.843 153.266 C-26.173 159.593 -27.106 165.903 -27.871 172.324 C-28.382 176.218 -29.153 180.009 -30.043 183.832 C-30.506 185.777 -30.506 185.777 -29.312 187.688 C-26.785 188.343 -26.785 188.343 -24.312 188.688 C-23.983 187.037 -23.653 185.387 -23.312 183.688 C-22.653 185.338 -21.993 186.988 -21.312 188.688 C-20.322 188.357 -19.333 188.028 -18.312 187.688 C-17.983 186.697 -17.653 185.708 -17.312 184.688 C-16.983 186.007 -16.653 187.327 -16.312 188.688 C-14.993 188.028 -13.673 187.368 -12.312 186.688 C-12.86 183.313 -13.367 181.605 -15.312 178.688 C-15.511 175.793 -15.595 173.018 -15.562 170.125 C-15.559 169.316 -15.555 168.507 -15.551 167.673 C-15.476 162.509 -15.046 157.653 -13.75 152.633 C-13.166 150.369 -13.166 150.369 -13.312 146.688 C-15.293 146.688 -17.273 146.688 -19.312 146.688 C-17.002 146.357 -14.692 146.028 -12.312 145.688 C-9.911 132.362 -7.711 119.241 -7.312 105.688 C-6.653 105.688 -5.993 105.688 -5.312 105.688 C-5.477 106.496 -5.477 106.496 -5.645 107.32 C-6.975 114.224 -8.011 121.166 -9 128.125 C-9.143 129.096 -9.287 130.068 -9.435 131.069 C-9.563 131.994 -9.692 132.918 -9.824 133.871 C-9.942 134.702 -10.061 135.533 -10.182 136.388 C-10.444 139.001 -10.444 139.001 -9.312 142.688 C-8.322 139.718 -7.332 136.748 -6.312 133.688 C-6.711 134.98 -7.109 136.273 -7.52 137.605 C-13.259 154.335 -13.259 154.335 -15.312 171.688 C-12.403 171.804 -10.924 171.831 -8.312 170.688 C-5.706 167.649 -4.011 164.296 -2.312 160.688 C-1.798 159.595 -1.798 159.595 -1.273 158.48 C1.23 152.175 1.758 145.357 0.688 138.688 C-0.136 136.876 -0.981 135.075 -1.84 133.281 C-4.865 126.345 -4.766 120.029 -4.459 112.651 C-3.969 100.131 -4.16 88.639 -8.312 76.688 C-8.602 75.822 -8.891 74.956 -9.189 74.064 C-11.14 68.238 -13.182 62.45 -15.312 56.688 C-17.386 58.66 -18.767 60.376 -20.375 62.812 C-22.312 65.688 -22.312 65.688 -24.312 66.688 C-23.854 65.793 -23.395 64.898 -22.922 63.977 C-19.738 57.721 -16.628 51.503 -14.168 44.918 C-13.313 42.688 -13.313 42.688 -12.301 40.613 C-10.444 36.625 -10.093 34.207 -11.375 29.938 C-13.24 25.325 -15.311 22.688 -19.812 20.438 C-22.516 19.496 -22.516 19.496 -26.312 19.688 C-26.972 18.367 -27.632 17.047 -28.312 15.688 C-28.642 16.677 -28.972 17.668 -29.312 18.688 C-29.808 17.203 -29.808 17.203 -30.312 15.688 C-31.632 15.358 -32.952 15.028 -34.312 14.688 Z M-11.312 143.688 C-10.312 145.688 -10.312 145.688 -10.312 145.688 Z M-140.312 185.688 C-143.594 189.555 -143.594 189.555 -144.312 194.375 C-143.074 197.24 -142.105 198.291 -139.312 199.688 C-136.614 199.466 -136.614 199.466 -134.312 198.688 C-134.808 197.202 -134.808 197.202 -135.312 195.688 C-135.972 195.688 -136.632 195.688 -137.312 195.688 C-137.206 191.959 -136.419 190.789 -133.688 188.188 C-121.202 180.181 -104.576 178.431 -90.312 175.688 C-89.441 175.519 -88.569 175.351 -87.671 175.178 C-83.223 174.325 -78.77 173.494 -74.312 172.688 C-75.302 170.377 -76.293 168.067 -77.312 165.688 C-95.162 165.688 -127.528 173.063 -140.312 185.688 Z M-14.312 173.688 C-14.312 175.338 -14.312 176.988 -14.312 178.688 C-11.838 179.183 -11.838 179.183 -9.312 179.688 C-8.982 179.028 -8.653 178.368 -8.312 177.688 C-8.312 178.347 -8.312 179.007 -8.312 179.688 C-7.322 179.688 -6.333 179.688 -5.312 179.688 C-5.643 177.708 -5.972 175.727 -6.312 173.688 C-8.952 173.688 -11.593 173.688 -14.312 173.688 Z " fill="#000000" transform="translate(189.3125,19.3125)"/>
<path d="" fill="#000000" transform="translate(0,0)"/>
<path d="" fill="#000000" transform="translate(0,0)"/>
<path d="M0 0 C0.66 0.99 1.32 1.98 2 3 C0.63 6.161 0.011 6.993 -3 9 C-5.043 9.195 -5.043 9.195 -7.188 9.125 C-9.075 9.063 -9.075 9.063 -11 9 C-10.518 2.614 -10.518 2.614 -8.312 0 C-5.139 -1.372 -3.271 -0.996 0 0 Z M-4 2 C-3.01 3.485 -3.01 3.485 -2 5 C-2 4.01 -2 3.02 -2 2 C-2.66 2 -3.32 2 -4 2 Z M-8 3 C-8 4.32 -8 5.64 -8 7 C-7.01 6.67 -6.02 6.34 -5 6 C-5.33 5.01 -5.66 4.02 -6 3 C-6.66 3 -7.32 3 -8 3 Z " fill="#000000" transform="translate(173,49)"/>
<path d="M0 0 C1.938 1.812 1.938 1.812 3 4 C3 5.32 3 6.64 3 8 C-5.069 8.621 -5.069 8.621 -8.625 6.25 C-10 4 -10 4 -9.875 1.812 C-7.824 -2.435 -3.9 -0.889 0 0 Z M-7 1 C-7.33 2.32 -7.66 3.64 -8 5 C-7.01 5.495 -7.01 5.495 -6 6 C-5.67 4.35 -5.34 2.7 -5 1 C-5.66 1 -6.32 1 -7 1 Z M-3 2 C-3 3.32 -3 4.64 -3 6 C-2.34 6 -1.68 6 -1 6 C-1.33 4.68 -1.66 3.36 -2 2 C-2.33 2 -2.66 2 -3 2 Z " fill="#000000" transform="translate(149,50)"/>
<path d="M0 0 C2.97 0 5.94 0 9 0 C7.875 2.972 6.777 5.334 5 8 C7.31 8 9.62 8 12 8 C12.206 7.216 12.412 6.433 12.625 5.625 C14 3 14 3 17.125 1.688 C18.548 1.347 18.548 1.347 20 1 C18.048 6.564 16.124 10.993 11 14.195 C7.389 15.648 3.803 15.668 0 15 C-2.27 13.973 -2.27 13.973 -4 13 C-4 12.34 -4 11.68 -4 11 C-5.98 10.34 -7.96 9.68 -10 9 C-10 8.01 -10 7.02 -10 6 C-10.626 4.318 -11.288 2.648 -12 1 C-9 2 -9 2 -7.812 4.062 C-7.544 4.702 -7.276 5.341 -7 6 C-6.34 6 -5.68 6 -5 6 C-4.567 6.516 -4.134 7.031 -3.688 7.562 C-2.852 8.274 -2.852 8.274 -2 9 C0.655 8.77 0.655 8.77 3 8 C2.505 7.237 2.01 6.474 1.5 5.688 C0 3 0 3 0 0 Z M2 2 C6 3 6 3 6 3 Z M14 7 C15 9 15 9 15 9 Z M-2 11 C-1.67 11.66 -1.34 12.32 -1 13 C1.839 13.595 4.144 14.069 7 14 C9.03 12.728 9.03 12.728 10 11 C5.225 9.315 2.553 8.517 -2 11 Z " fill="#000000" transform="translate(153,63)"/>
<path d="M0 0 C0.99 0.33 1.98 0.66 3 1 C2.67 1.66 2.34 2.32 2 3 C1.34 2.01 0.68 1.02 0 0 Z " fill="#000000" transform="translate(144,66)"/>
<path d="" fill="#000000" transform="translate(0,0)"/>
<path d="M0 0 C1.98 0 3.96 0 6 0 C6.33 0.66 6.66 1.32 7 2 C4.69 2 2.38 2 0 2 C0 1.34 0 0.68 0 0 Z " fill="#000000" transform="translate(137,162)"/>
<path d="M0 0 C2.31 0 4.62 0 7 0 C7 0.33 7 0.66 7 1 C4.69 1 2.38 1 0 1 C0 0.67 0 0.34 0 0 Z " fill="#000000" transform="translate(136,167)"/>
<path d="M0 0 C1.938 0.812 1.938 0.812 4 2 C4.33 2.99 4.66 3.98 5 5 C4.01 6.485 4.01 6.485 3 8 C2.01 8 1.02 8 0 8 C0 5.36 0 2.72 0 0 Z " fill="#000000" transform="translate(0,188)"/>
<path d="" fill="#000000" transform="translate(0,0)"/>
<path d="M0 0 C4 1 4 1 4 1 Z " fill="#000000" transform="translate(209,255)"/>
</svg>
