<?xml version="1.0" encoding="UTF-8"?>
<!-- Generator: visioncortex VTracer 0.6.4 -->
<svg version="1.1" xmlns="http://www.w3.org/2000/svg" width="281" height="256">
<path d="M0 0 C0 0.66 0 1.32 0 2 C0.66 1.67 1.32 1.34 2 1 C5.506 0.681 7.506 0.729 10.625 2.438 C15.588 4.735 20.589 4.746 26 5 C26.495 6.485 26.495 6.485 27 8 C30 9.709 30 9.709 33 11 C33 11.99 33 12.98 33 14 C35.64 15.32 38.28 16.64 41 18 C41 18.66 41 19.32 41 20 C38.69 20.33 36.38 20.66 34 21 C37.527 29.791 41.487 37.922 46.363 46.039 C47.708 48.471 48.544 50.293 49 53 C48.34 53 47.68 53 47 53 C47 56.96 47 60.92 47 65 C46.01 64.67 45.02 64.34 44 64 C44.186 65.031 44.371 66.062 44.562 67.125 C44.973 70.761 44.778 73.454 44 77 C43.34 77 42.68 77 42 77 C41.853 76.383 41.706 75.765 41.555 75.129 C39.511 67.412 36.468 60.048 29.625 55.438 C28.759 54.963 27.892 54.489 27 54 C27.99 53.67 28.98 53.34 30 53 C35.842 56.765 38.712 61.995 42 68 C41.256 62.449 41.256 62.449 40 57 C40.66 57 41.32 57 42 57 C43.625 59.5 43.625 59.5 45 62 C45.886 55.5 43.409 51.321 40.312 45.672 C39 43 39 43 39 40 C39.66 40.33 40.32 40.66 41 41 C39.758 38.434 38.506 35.872 37.25 33.312 C36.728 32.231 36.728 32.231 36.195 31.127 C34.166 27.011 32.048 23.48 29 20 C29.99 20 30.98 20 32 20 C31.505 19.237 31.01 18.474 30.5 17.688 C29 15 29 15 29 12 C27.352 10.97 25.685 9.969 24 9 C24 8.34 24 7.68 24 7 C23.227 6.963 22.453 6.925 21.656 6.887 C12.105 6.284 12.105 6.284 7.75 4.438 C-0.716 0.894 -7.887 3.916 -15.875 7.172 C-20.815 9.3 -24.221 11.139 -28 15 C-28.66 15 -29.32 15 -30 15 C-30 15.66 -30 16.32 -30 17 C-29.34 17.33 -28.68 17.66 -28 18 C-25.883 17.108 -25.883 17.108 -24 16 C-25.091 18.677 -26.157 20.147 -28.289 22.152 C-31.449 25.472 -33.496 28.88 -35.688 32.875 C-36.077 33.557 -36.467 34.239 -36.869 34.941 C-39.261 39.234 -40.79 43.242 -42 48 C-42.495 48.99 -42.495 48.99 -43 50 C-43.23 52.204 -43.411 54.414 -43.562 56.625 C-43.646 57.814 -43.73 59.002 -43.816 60.227 C-43.877 61.142 -43.938 62.057 -44 63 C-44.99 63 -45.98 63 -47 63 C-47 58.71 -47 54.42 -47 50 C-47.66 50.99 -48.32 51.98 -49 53 C-50.176 53.412 -51.351 53.825 -52.562 54.25 C-63.537 58.157 -76.316 70.083 -81.785 80.352 C-82.703 82.899 -83.47 85.348 -84 88 C-83.34 88.33 -82.68 88.66 -82 89 C-83.375 90.5 -83.375 90.5 -85 92 C-85.66 92 -86.32 92 -87 92 C-86.953 92.731 -86.905 93.462 -86.856 94.215 C-87.018 97.341 -87.759 98.863 -89.301 101.559 C-92.27 107.202 -93.745 112.88 -95.188 119.062 C-95.674 121.118 -96.167 123.171 -96.668 125.223 C-96.877 126.117 -97.086 127.012 -97.302 127.934 C-98 130 -98 130 -100 131 C-98.413 120.031 -95.93 108.024 -90.625 98.188 C-88.792 94.591 -89.107 94.545 -90 91 C-89.092 89.554 -88.167 88.116 -87.149 86.745 C-85.9 84.848 -85.212 83.026 -84.426 80.898 C-81.806 74.895 -77.519 70.823 -72.875 66.312 C-72.071 65.497 -71.266 64.682 -70.438 63.842 C-65.07 58.539 -59.597 54.621 -53 51 C-46.643 47.292 -43.483 43.588 -40.312 36.938 C-40.005 36.313 -39.698 35.688 -39.381 35.045 C-38.086 32.391 -36.935 29.805 -36 27 C-37.32 26.67 -38.64 26.34 -40 26 C-39.495 25.553 -38.989 25.105 -38.469 24.645 C-34.327 21.141 -34.327 21.141 -32.812 16.25 C-32.874 15.507 -32.936 14.765 -33 14 C-31 12.312 -31 12.312 -29 11 C-29 10.34 -29 9.68 -29 9 C-25.7 8.34 -22.4 7.68 -19 7 C-19 6.01 -19 5.02 -19 4 C-18.42 3.963 -17.84 3.925 -17.242 3.887 C-11.041 3.365 -5.976 0 0 0 Z M34 18 C35.98 18.99 35.98 18.99 38 20 C37.67 19.34 37.34 18.68 37 18 C36.01 18 35.02 18 34 18 Z M42 43 C42.66 44.65 43.32 46.3 44 48 C44.33 47.34 44.66 46.68 45 46 C44.01 45.01 43.02 44.02 42 43 Z M45 48 C46 50 46 50 46 50 Z M46 51 C47 53 47 53 47 53 Z " fill="#000000" transform="translate(168,51)"/>
<path d="M0 0 C0.66 0.33 1.32 0.66 2 1 C1.691 2.547 1.691 2.547 1.375 4.125 C0.984 8.166 1.639 10.256 3 14 C2.67 14.99 2.34 15.98 2 17 C-0.36 14.64 -0.491 13.221 -1 10 C-1.083 10.557 -1.165 11.114 -1.25 11.688 C-2.244 14.754 -3.921 16.527 -6 19 C-7.457 21.005 -8.904 23.015 -10.34 25.035 C-12 27 -12 27 -14.406 28.902 C-17.241 31.195 -19.305 33.642 -21.562 36.5 C-24.229 39.864 -26.904 43.024 -30 46 C-28.651 42.163 -26.922 39.348 -24.375 36.188 C-23.743 35.397 -23.112 34.607 -22.461 33.793 C-21.979 33.201 -21.497 32.61 -21 32 C-21.66 32 -22.32 32 -23 32 C-21.699 28.096 -19.883 27.183 -16.562 24.812 C-15.574 24.097 -14.585 23.382 -13.566 22.645 C-11 21 -11 21 -9 21 C-8.34 19.35 -7.68 17.7 -7 16 C-7.99 15.67 -8.98 15.34 -10 15 C-8.68 14.67 -7.36 14.34 -6 14 C-5.248 10.345 -4.6 6.683 -4 3 C-3.34 3.33 -2.68 3.66 -2 4 C-1.34 2.68 -0.68 1.36 0 0 Z M-2 6 C-1 8 -1 8 -1 8 Z " fill="#000000" transform="translate(172,67)"/>
<path d="M0 0 C0.66 0.33 1.32 0.66 2 1 C1.875 3.312 1.875 3.312 1 6 C-2.073 8.095 -4.01 9.045 -7.75 8.875 C-10 8 -10 8 -12 5 C-12 3.68 -12 2.36 -12 1 C-7.991 -1.84 -4.588 -0.814 0 0 Z M-8 1 C-8.66 2.32 -9.32 3.64 -10 5 C-8.02 5.99 -8.02 5.99 -6 7 C-6 5.02 -6 3.04 -6 1 C-6.66 1 -7.32 1 -8 1 Z M-3 2 C-3.66 3.65 -4.32 5.3 -5 7 C-3.35 6.34 -1.7 5.68 0 5 C-0.33 4.01 -0.66 3.02 -1 2 C-1.66 2 -2.32 2 -3 2 Z " fill="#000000" transform="translate(188,79)"/>
<path d="M0 0 C0.66 1.98 1.32 3.96 2 6 C-0.125 8.125 -0.125 8.125 -3 10 C-6.56 9.43 -8.366 8.655 -10.875 6.062 C-12 4 -12 4 -12 1 C-7.538 -0.806 -4.69 -1.117 0 0 Z M-10 3 C-9.34 4.32 -8.68 5.64 -8 7 C-7.34 7 -6.68 7 -6 7 C-5.67 5.02 -5.34 3.04 -5 1 C-7.324 0.815 -7.324 0.815 -10 3 Z M-3 2 C-3.33 2.99 -3.66 3.98 -4 5 C-3.34 5.66 -2.68 6.32 -2 7 C-1.34 6.67 -0.68 6.34 0 6 C-0.66 4.68 -1.32 3.36 -2 2 C-2.33 2 -2.66 2 -3 2 Z " fill="#000000" transform="translate(161,79)"/>
<path d="" fill="#000000" transform="translate(0,0)"/>
<path d="M0 0 C3.63 1.65 7.26 3.3 11 5 C10.01 5.33 9.02 5.66 8 6 C7.67 6.33 7.34 6.66 7 7 C10.465 8.98 10.465 8.98 14 11 C13.34 11.33 12.68 11.66 12 12 C12.99 14.31 13.98 16.62 15 19 C14.34 19 13.68 19 13 19 C11.922 17.426 11.922 17.426 10.75 15.312 C9.005 12.369 7.378 10.243 4.688 8.125 C3.801 7.424 2.914 6.722 2 6 C2 5.34 2 4.68 2 4 C1.34 4 0.68 4 0 4 C0 5.32 0 6.64 0 8 C-0.99 8.33 -1.98 8.66 -3 9 C-2.887 11.409 -2.887 11.409 -2 14 C1.969 17.367 5.992 17.576 11 18 C10.34 18.66 9.68 19.32 9 20 C3.55 19.732 0.655 18.844 -4 16 C-6.693 16.168 -8.041 17.027 -10.312 18.5 C-13.593 20.331 -16.266 20.789 -20 21 C-20.66 20.34 -21.32 19.68 -22 19 C-21.004 18.853 -21.004 18.853 -19.988 18.703 C-14.712 17.81 -10.753 17.116 -7 13 C-6.13 10.871 -6.13 10.871 -6 9 C-8.475 8.01 -8.475 8.01 -11 7 C-10.67 5.35 -10.34 3.7 -10 2 C-8.68 2 -7.36 2 -6 2 C-6 2.66 -6 3.32 -6 4 C-6.99 4.495 -6.99 4.495 -8 5 C-7.01 5.33 -6.02 5.66 -5 6 C-5 4.68 -5 3.36 -5 2 C-3.35 2 -1.7 2 0 2 C0 1.34 0 0.68 0 0 Z " fill="#000000" transform="translate(176,86)"/>
<path d="" fill="#000000" transform="translate(0,0)"/>
<path d="M0 0 C0.66 0.33 1.32 0.66 2 1 C1.693 1.705 1.386 2.41 1.07 3.137 C-0.016 6.043 -0.61 8.758 -1.125 11.812 C-1.293 12.788 -1.46 13.764 -1.633 14.77 C-1.754 15.506 -1.875 16.242 -2 17 C-2.66 16.67 -3.32 16.34 -4 16 C-4.594 13.351 -4.742 10.708 -5 8 C-4.34 8 -3.68 8 -3 8 C-2.01 5.36 -1.02 2.72 0 0 Z " fill="#000000" transform="translate(129,106)"/>
<path d="M0 0 C0.66 0 1.32 0 2 0 C2.33 0.99 2.66 1.98 3 3 C2.01 2.67 1.02 2.34 0 2 C0 1.34 0 0.68 0 0 Z " fill="#000000" transform="translate(161,110)"/>
<path d="M0 0 C0.66 0 1.32 0 2 0 C2 0.99 2 1.98 2 3 C1.01 2.67 0.02 2.34 -1 2 C-0.67 1.34 -0.34 0.68 0 0 Z " fill="#000000" transform="translate(180,111)"/>
<path d="M0 0 C1.034 3.102 0.957 4.413 0.5 7.562 C-0.073 10.901 -0.073 10.901 1 14 C1.66 12.02 2.32 10.04 3 8 C5.282 10.282 5.324 11.043 5.812 14.125 C6.695 18.565 8.4 21.685 10.977 25.371 C12 27 12 27 12 29 C9 28 9 28 7.613 25.715 C7.184 24.798 6.755 23.882 6.312 22.938 C5.876 22.018 5.439 21.099 4.988 20.152 C4.662 19.442 4.336 18.732 4 18 C3.01 20.475 3.01 20.475 2 23 C0 22 0 22 -1.125 19.125 C-2.548 13.669 -3.269 6.914 -0.984 1.668 C-0.66 1.118 -0.335 0.567 0 0 Z " fill="#000000" transform="translate(133,113)"/>
<path d="M0 0 C2.31 0.33 4.62 0.66 7 1 C6.67 1.99 6.34 2.98 6 4 C3.69 3.34 1.38 2.68 -1 2 C-0.67 1.34 -0.34 0.68 0 0 Z " fill="#000000" transform="translate(166,113)"/>
<path d="M0 0 C0.99 0 1.98 0 3 0 C3 0.99 3 1.98 3 3 C2.34 3 1.68 3 1 3 C0.67 2.01 0.34 1.02 0 0 Z " fill="#000000" transform="translate(174,114)"/>
<path d="M0 0 C0.33 0 0.66 0 1 0 C0.977 0.681 0.954 1.361 0.93 2.062 C0.828 7.503 1.036 12.691 1.869 18.06 C3.004 25.421 3.069 31.086 0 38 C-0.362 38.86 -0.724 39.72 -1.098 40.605 C-2.028 42.757 -2.993 44.884 -4 47 C-4.66 47 -5.32 47 -6 47 C-6.33 45.35 -6.66 43.7 -7 42 C-8.876 48.566 -9.69 55.131 -10.438 61.902 C-10.623 62.925 -10.809 63.947 -11 65 C-11.99 65.495 -11.99 65.495 -13 66 C-13.66 65.67 -14.32 65.34 -15 65 C-15.124 65.598 -15.248 66.196 -15.375 66.812 C-16 69 -16 69 -18 72 C-18.667 74.957 -18.667 74.957 -18 78 C-15.093 80.16 -15.093 80.16 -12 82 C-11.125 84.25 -11.125 84.25 -11 86 C-13.615 88.568 -14.945 88.996 -18.672 89.293 C-20.032 89.273 -21.391 89.238 -22.75 89.188 C-23.447 89.174 -24.145 89.16 -24.863 89.146 C-26.576 89.111 -28.288 89.057 -30 89 C-30.464 89.959 -30.464 89.959 -30.938 90.938 C-32 93 -32 93 -33 94 C-34.562 94.047 -36.125 94.037 -37.688 94 C-40.798 93.947 -43.196 94.045 -46.25 94.75 C-50.268 95.115 -51.954 93.504 -55 91 C-56.875 88.75 -56.875 88.75 -58 87 C-58.371 87.474 -58.743 87.949 -59.125 88.438 C-61.626 90.522 -63.816 90.646 -67 91 C-66.34 92.32 -65.68 93.64 -65 95 C-67.31 94.67 -69.62 94.34 -72 94 C-71.257 94.65 -71.257 94.65 -70.5 95.312 C-69 97 -69 97 -69 100 C-69.808 99.859 -70.616 99.718 -71.449 99.573 C-86.48 96.978 -101.37 94.52 -116.627 93.721 C-127.785 93.063 -138.825 91.175 -147 83 C-147.608 79.806 -147.493 77.794 -145.762 75.004 C-144.706 73.618 -143.629 72.248 -142.531 70.895 C-140.299 68.133 -138.584 65.167 -137 62 C-136.34 62.33 -135.68 62.66 -135 63 C-135.592 64.318 -136.199 65.629 -136.812 66.938 C-137.149 67.668 -137.485 68.399 -137.832 69.152 C-139 71 -139 71 -142 72 C-143.198 74.329 -143.198 74.329 -144 77 C-144.464 77.99 -144.464 77.99 -144.938 79 C-145.202 81.226 -145.202 81.226 -143.312 83.5 C-135.461 90.626 -122.712 90.92 -112.711 91.596 C-98.961 92.541 -85.547 94.506 -72 97 C-74.31 94.69 -76.62 92.38 -79 90 C-76 89 -76 89 -73 89 C-74.395 88.374 -75.791 87.749 -77.188 87.125 C-77.965 86.777 -78.742 86.429 -79.543 86.07 C-80.354 85.717 -81.165 85.364 -82 85 C-82.705 84.626 -83.41 84.252 -84.137 83.867 C-88.601 82.515 -92.994 82.885 -97.625 83 C-120.536 83.228 -120.536 83.228 -129 75 C-129.742 72.805 -129.742 72.805 -130 71 C-129.34 71 -128.68 71 -128 71 C-127.75 71.615 -127.5 72.23 -127.242 72.863 C-125.786 75.369 -124.724 75.986 -122.125 77.188 C-121.447 77.511 -120.769 77.835 -120.07 78.168 C-115.84 79.868 -112.144 80.128 -107.582 80.133 C-105.7 80.135 -105.7 80.135 -103.779 80.137 C-102.47 80.133 -101.161 80.129 -99.812 80.125 C-98.523 80.129 -97.233 80.133 -95.904 80.137 C-89.174 80.13 -82.672 79.853 -76 79 C-74.21 78.92 -72.417 78.869 -70.625 78.875 C-69.813 78.872 -69.001 78.87 -68.164 78.867 C-66 79 -66 79 -63 80 C-62.67 79.34 -62.34 78.68 -62 78 C-58.218 79.261 -57.9 80.462 -56 83.875 C-53.615 88.478 -53.615 88.478 -50 92 C-47.387 92.245 -45.039 92.329 -42.438 92.25 C-41.752 92.245 -41.067 92.24 -40.361 92.234 C-36.553 92.214 -36.553 92.214 -33 91 C-33.66 89.02 -34.32 87.04 -35 85 C-34.346 85.338 -33.693 85.675 -33.02 86.023 C-29.142 87.278 -25.678 86.982 -21.688 86.625 C-20.947 86.568 -20.206 86.512 -19.443 86.453 C-17.628 86.313 -15.814 86.158 -14 86 C-14.348 84.025 -14.348 84.025 -15 82 C-17.296 80.852 -19.077 80.692 -21.625 80.438 C-22.851 80.312 -22.851 80.312 -24.102 80.184 C-24.728 80.123 -25.355 80.062 -26 80 C-25.67 79.34 -25.34 78.68 -25 78 C-23.68 78 -22.36 78 -21 78 C-21.124 77.196 -21.248 76.391 -21.375 75.562 C-20.84 70.485 -18.298 66.845 -15 63 C-14.34 63 -13.68 63 -13 63 C-12.853 61.459 -12.853 61.459 -12.703 59.887 C-11.838 51.601 -10.876 43.526 -7 36 C-6.34 35.67 -5.68 35.34 -5 35 C-4.67 36.65 -4.34 38.3 -4 40 C1.043 30.477 0.712 23.241 -2 13 C-2.254 13.566 -2.508 14.132 -2.77 14.715 C-3.286 15.815 -3.286 15.815 -3.812 16.938 C-4.149 17.668 -4.485 18.399 -4.832 19.152 C-6 21 -6 21 -9 22 C-10.671 23.997 -12.338 25.997 -14 28 C-14.66 28 -15.32 28 -16 28 C-16.33 27.34 -16.66 26.68 -17 26 C-19.64 30.29 -22.28 34.58 -25 39 C-26 37 -26 37 -26 34 C-26.619 34.99 -27.238 35.98 -27.875 37 C-28.927 38.485 -28.927 38.485 -30 40 C-30.66 40 -31.32 40 -32 40 C-32.086 39.42 -32.173 38.84 -32.262 38.242 C-33.321 32.353 -34.822 29.278 -39 25 C-40.145 23.824 -40.145 23.824 -41.312 22.625 C-41.869 22.089 -42.426 21.553 -43 21 C-37.817 22.372 -34.936 25.704 -32 30 C-31.29 31.649 -30.613 33.313 -30 35 C-29.481 34.408 -28.961 33.817 -28.426 33.207 C-24.723 29.012 -20.957 24.957 -17 21 C-16.443 20.237 -15.886 19.474 -15.312 18.688 C-14.879 18.131 -14.446 17.574 -14 17 C-13.34 17 -12.68 17 -12 17 C-12.33 18.98 -12.66 20.96 -13 23 C-8.862 18.567 -7.045 13.601 -5 8 C-4.01 8.495 -4.01 8.495 -3 9 C-2.01 6.03 -1.02 3.06 0 0 Z M-5 12 C-4 14 -4 14 -4 14 Z M-83 83 C-80.398 84.006 -77.794 85.005 -75.188 86 C-74.45 86.286 -73.712 86.572 -72.951 86.867 C-71.883 87.273 -71.883 87.273 -70.793 87.688 C-70.138 87.939 -69.484 88.19 -68.809 88.449 C-66.837 89.146 -66.837 89.146 -64 89 C-64.33 87.68 -64.66 86.36 -65 85 C-63.68 85.99 -62.36 86.98 -61 88 C-60.559 84.115 -60.559 84.115 -62.527 82.27 C-65.961 80.507 -68.722 80.639 -72.562 80.688 C-73.235 80.684 -73.907 80.681 -74.6 80.678 C-78.27 80.718 -79.872 80.915 -83 83 Z M-62 81 C-61.01 81.99 -60.02 82.98 -59 84 C-59.33 83.01 -59.66 82.02 -60 81 C-60.66 81 -61.32 81 -62 81 Z " fill="#000000" transform="translate(206,122)"/>
<path d="M0 0 C2 2 2 2 3.75 5.188 C6 9.245 8.885 12.583 12 16 C7.422 13.928 4.038 10.998 1 7 C0.169 4.507 0.054 2.662 0 0 Z " fill="#000000" transform="translate(144,132)"/>
<path d="M0 0 C3.578 1.523 5.943 3.644 8.688 6.375 C9.475 7.146 10.263 7.917 11.074 8.711 C12.944 10.933 13.619 12.168 14 15 C12.903 13.903 11.806 12.806 10.711 11.707 C9.367 10.366 8.017 9.031 6.664 7.699 C5.438 6.487 5.438 6.487 4.188 5.25 C3.397 4.471 2.607 3.693 1.793 2.891 C0 1 0 1 0 0 Z " fill="#000000" transform="translate(154,141)"/>
<path d="M0 0 C2 1 2 1 3.053 3.836 C3.42 5.075 3.786 6.313 4.164 7.59 C4.361 8.25 4.558 8.909 4.761 9.589 C5.176 10.986 5.588 12.384 5.996 13.783 C6.622 15.927 7.259 18.068 7.898 20.209 C11 30.678 11 30.678 11 33 C12.207 33.186 12.207 33.186 13.438 33.375 C14.283 33.581 15.129 33.787 16 34 C16.33 34.66 16.66 35.32 17 36 C15.68 36 14.36 36 13 36 C13.566 36.326 14.132 36.652 14.715 36.988 C15.448 37.425 16.182 37.862 16.938 38.312 C17.668 38.742 18.399 39.171 19.152 39.613 C21 41 21 41 22 44 C21.34 44 20.68 44 20 44 C20 43.34 20 42.68 20 42 C18.35 41.34 16.7 40.68 15 40 C15.33 40.99 15.66 41.98 16 43 C15.67 43.99 15.34 44.98 15 46 C14.602 45.313 14.203 44.626 13.793 43.918 C13.263 43.017 12.733 42.116 12.188 41.188 C11.665 40.294 11.143 39.401 10.605 38.48 C9.215 36.332 7.888 34.706 6 33 C6.99 32.505 6.99 32.505 8 32 C2.717 22.353 -2.011 17.65 -12 13 C-10.277 12.336 -10.277 12.336 -8 12 C-5.816 13.039 -5.816 13.039 -3.562 14.625 C-2.821 15.133 -2.08 15.641 -1.316 16.164 C1.331 18.262 3.653 20.574 6 23 C5.818 22.41 5.636 21.82 5.449 21.212 C4.628 18.538 3.814 15.863 3 13.188 C2.714 12.259 2.428 11.33 2.133 10.373 C1.862 9.48 1.591 8.588 1.312 7.668 C1.061 6.846 0.81 6.024 0.551 5.177 C0 3 0 3 0 0 Z " fill="#000000" transform="translate(119,151)"/>
<path d="M0 0 C2.59 1.295 2.635 2.214 3.586 4.902 C3.875 5.706 4.165 6.51 4.463 7.339 C4.764 8.196 5.065 9.054 5.375 9.938 C5.998 11.672 6.621 13.407 7.246 15.141 C7.546 15.978 7.846 16.815 8.156 17.678 C9.665 21.828 11.323 25.915 13 30 C14.757 27.338 16.504 24.67 18.25 22 C18.741 21.256 19.232 20.512 19.738 19.746 C22.856 14.965 25.541 10.152 28 5 C28.889 7.437 29.177 8.574 28.167 11.011 C27.727 11.706 27.286 12.401 26.832 13.117 C26.11 14.275 26.11 14.275 25.373 15.457 C24.858 16.255 24.343 17.053 23.812 17.875 C23.069 19.06 23.069 19.06 22.311 20.27 C20.171 23.667 17.996 27.006 15.652 30.266 C13.904 33.159 13.549 34.554 13.75 37.875 C13.786 38.656 13.822 39.437 13.859 40.242 C13.906 40.822 13.952 41.402 14 42 C15.32 42.33 16.64 42.66 18 43 C18.33 44.32 18.66 45.64 19 47 C18.402 46.505 17.804 46.01 17.188 45.5 C15.03 43.717 15.03 43.717 12 44 C11.34 43.67 10.68 43.34 10 43 C8.46 42.93 6.917 42.915 5.375 42.938 C4.558 42.947 3.74 42.956 2.898 42.965 C2.272 42.976 1.645 42.988 1 43 C1.33 42.34 1.66 41.68 2 41 C5.3 41 8.6 41 12 41 C10.014 31.146 7.523 21.981 3.375 12.799 C1.453 8.476 0.46 4.718 0 0 Z " fill="#000000" transform="translate(157,162)"/>
<path d="" fill="#000000" transform="translate(0,0)"/>
<path d="M0 0 C2.475 0.99 2.475 0.99 5 2 C3.68 2.33 2.36 2.66 1 3 C0.67 2.01 0.34 1.02 0 0 Z " fill="#000000" transform="translate(140,196)"/>
</svg>
