<?xml version="1.0" encoding="UTF-8"?>
<!-- Generator: visioncortex VTracer 0.6.4 -->
<svg version="1.1" xmlns="http://www.w3.org/2000/svg" width="234" height="256">
<path d="M0 0 C5.998 1.354 10.361 4.775 14.875 8.875 C16.129 10.965 16.129 10.965 17.062 12.875 C18.078 14.709 18.078 14.709 19.875 15.875 C22.957 16.162 25.922 16.116 29.01 15.953 C39.058 15.518 49.057 18.03 58.719 20.645 C61.507 20.943 62.452 20.263 64.688 18.625 C71.202 14.237 76.962 12.07 84.875 12.875 C87.538 14.384 87.89 15.912 89.062 18.75 C91.041 26.547 90.417 34.363 87.875 41.875 C87.856 45.326 88.58 48.692 89.414 52.039 C90.073 56.094 89.98 60.087 89.938 64.188 C89.933 65.023 89.928 65.859 89.924 66.721 C89.912 68.772 89.894 70.824 89.875 72.875 C92.845 73.37 92.845 73.37 95.875 73.875 C95.875 74.535 95.875 75.195 95.875 75.875 C93.565 75.875 91.255 75.875 88.875 75.875 C88.545 77.525 88.215 79.175 87.875 80.875 C89.195 81.205 90.515 81.535 91.875 81.875 C91.875 82.865 91.875 83.855 91.875 84.875 C90.823 84.607 89.771 84.339 88.688 84.062 C84.795 83.44 84.795 83.44 82.25 86.062 C81.466 86.991 80.683 87.919 79.875 88.875 C75.789 92.621 69.649 96.875 63.875 96.875 C64.285 98.07 64.695 99.265 65.117 100.496 C65.662 102.101 66.206 103.707 66.75 105.312 C67.019 106.096 67.289 106.879 67.566 107.686 C71.273 118.67 74.486 129.898 69.523 140.961 C68.769 143.188 68.839 144.853 69 147.188 C68.959 148.404 68.918 149.621 68.875 150.875 C64.193 154.656 59.035 154.61 53.25 155.152 C49.442 155.968 47.808 157.407 44.875 159.875 C41.187 159.812 41.187 159.812 37.875 158.875 C37.215 157.885 36.555 156.895 35.875 155.875 C33.68 155.295 33.68 155.295 31.25 155.188 C30.024 155.089 30.024 155.089 28.773 154.988 C28.147 154.951 27.52 154.914 26.875 154.875 C26.613 155.514 26.352 156.154 26.082 156.812 C24.875 158.875 24.875 158.875 21.562 159.875 C17.875 159.875 17.875 159.875 15.691 157.91 C11.823 155.115 8.777 155.328 4.125 155.312 C-11.118 154.882 -11.118 154.882 -16.125 149.875 C-15.762 147.045 -15.028 144.584 -14.125 141.875 C-14.414 141.153 -14.703 140.431 -15 139.688 C-16.125 136.875 -16.125 136.875 -16 132.938 C-16.091 130.806 -16.091 130.806 -17.125 128.875 C-19.985 127.031 -22.927 125.735 -26.039 124.363 C-34.608 120.23 -38.349 112.936 -41.375 104.312 C-42.83 97.645 -42.507 91.857 -39.125 85.875 C-36.573 83.726 -34.866 83.023 -31.625 82.375 C-27.866 83.127 -26.494 84.922 -24.125 87.875 C-23.777 91.363 -23.777 91.363 -24.062 95.188 C-24.331 101.295 -24.054 105.973 -20.125 110.875 C-17.843 112.994 -15.892 114.492 -13.125 115.875 C-13.001 115.327 -12.877 114.779 -12.75 114.215 C-11.013 107.54 -8.17 101.857 -4.818 95.879 C-2.806 92.58 -2.806 92.58 -2.125 88.875 C-3.6 87.75 -5.133 86.7 -6.688 85.688 C-14.116 80.602 -19.934 75.496 -23.125 66.875 C-23.125 66.215 -23.125 65.555 -23.125 64.875 C-26.095 65.37 -26.095 65.37 -29.125 65.875 C-29.455 64.885 -29.785 63.895 -30.125 62.875 C-27.155 62.38 -27.155 62.38 -24.125 61.875 C-24.125 60.225 -24.125 58.575 -24.125 56.875 C-25.775 56.875 -27.425 56.875 -29.125 56.875 C-29.62 55.39 -29.62 55.39 -30.125 53.875 C-28.145 54.205 -26.165 54.535 -24.125 54.875 C-23.905 53.75 -23.905 53.75 -23.68 52.602 C-22.229 45.981 -20.284 40.778 -16.527 35.129 C-13.955 30.995 -12.936 27.531 -12.75 22.688 C-12.093 14.282 -9.106 2.55 0 0 Z M-2.625 4.812 C-7.684 11.009 -10.428 16.986 -9.75 25 C-9.671 30.94 -11.715 33.763 -15.297 38.32 C-18.216 42.399 -20.061 46.976 -21.125 51.875 C-20.798 54.118 -20.798 54.118 -20.125 55.875 C-19.465 55.875 -18.805 55.875 -18.125 55.875 C-18.125 56.535 -18.125 57.195 -18.125 57.875 C-19.115 57.875 -20.105 57.875 -21.125 57.875 C-20.877 58.741 -20.877 58.741 -20.625 59.625 C-20.125 61.875 -20.125 61.875 -20.125 65.875 C-17.043 75.16 -10.323 80.43 -2.125 85.188 C-1.253 85.694 -1.253 85.694 -0.364 86.211 C3.653 88.44 7.456 89.765 11.875 90.875 C11.875 91.535 11.875 92.195 11.875 92.875 C8.575 92.215 5.275 91.555 1.875 90.875 C-7.054 104.531 -15.288 120.04 -13.125 136.875 C-12.354 139.468 -11.428 141.486 -10.125 143.875 C-11.115 144.865 -12.105 145.855 -13.125 146.875 C-12.795 147.865 -12.465 148.855 -12.125 149.875 C-7.287 152.091 -2.477 152.287 2.75 152.5 C3.926 152.558 3.926 152.558 5.125 152.617 C7.041 152.711 8.958 152.794 10.875 152.875 C9.135 147.363 6.98 142.042 4.812 136.688 C4.092 134.903 3.372 133.118 2.652 131.332 C2.335 130.548 2.018 129.764 1.691 128.956 C1.035 127.282 0.444 125.581 -0.125 123.875 C0.865 123.875 1.855 123.875 2.875 123.875 C2.952 124.648 3.03 125.422 3.109 126.219 C4.158 131.227 6.105 135.688 8.125 140.375 C8.508 141.299 8.891 142.224 9.285 143.176 C11.552 148.475 13.787 152.774 17.875 156.875 C20.506 157.627 20.506 157.627 22.875 156.875 C25.344 153.172 25.218 150.289 25.188 146 C25.185 145.247 25.183 144.494 25.181 143.719 C25.051 136.358 24.206 128.537 20.875 121.875 C21.865 121.875 22.855 121.875 23.875 121.875 C25.78 131.881 27.361 141.686 27.875 151.875 C30.185 151.875 32.495 151.875 34.875 151.875 C34.924 150.726 34.973 149.578 35.023 148.395 C35.458 139.09 36.205 130.051 37.875 120.875 C38.535 120.875 39.195 120.875 39.875 120.875 C39.779 121.448 39.683 122.022 39.584 122.612 C35.715 140.258 35.715 140.258 39.875 156.875 C42.781 156.752 42.781 156.752 45.875 155.875 C51.431 149.084 53.82 138.7 56.515 130.468 C56.794 129.629 57.072 128.79 57.359 127.926 C57.604 127.17 57.849 126.413 58.101 125.634 C58.875 123.875 58.875 123.875 60.875 122.875 C59.586 126.772 58.293 130.667 57 134.562 C56.635 135.665 56.27 136.768 55.895 137.904 C55.54 138.971 55.186 140.038 54.82 141.137 C54.496 142.116 54.171 143.095 53.836 144.104 C52.925 146.731 51.93 149.303 50.875 151.875 C56.314 152.093 60.746 151.979 65.875 149.875 C65.504 148.39 65.504 148.39 65.125 146.875 C64.634 143.594 65.124 142.013 66.812 139.188 C71.625 130.435 68.641 120.506 66.031 111.457 C64.532 106.814 62.805 102.356 60.875 97.875 C56.255 97.875 51.635 97.875 46.875 97.875 C46.875 97.545 46.875 97.215 46.875 96.875 C47.807 96.789 48.739 96.702 49.699 96.613 C61.247 95.341 72.443 93.384 80.801 84.621 C82.224 82.649 82.224 82.649 81.875 78.875 C82.865 78.875 83.855 78.875 84.875 78.875 C85.37 77.39 85.37 77.39 85.875 75.875 C85.215 74.885 84.555 73.895 83.875 72.875 C84.865 72.875 85.855 72.875 86.875 72.875 C88.293 62.438 87.195 53.835 83.875 43.875 C84.349 42.968 84.824 42.06 85.312 41.125 C88.049 35.235 87.57 28.195 86.875 21.875 C85.385 17.572 85.385 17.572 81.953 14.93 C75.57 14.762 69.786 18.27 64.699 21.789 C61.204 23.87 59.484 24.006 55.414 23.133 C54.107 22.765 52.802 22.387 51.5 22 C43.718 19.752 36.699 18.711 28.625 18.75 C27.403 18.744 27.403 18.744 26.156 18.738 C21.881 18.626 21.881 18.626 17.875 19.875 C17.648 19.174 17.421 18.472 17.188 17.75 C14.387 11.615 9.715 7.154 3.875 3.875 C0.444 2.585 0.444 2.585 -2.625 4.812 Z M-36.312 87.688 C-39.345 91.347 -39.473 94.781 -39.398 99.344 C-38.336 109.18 -32.566 116.267 -25.125 122.312 C-21.74 124.076 -18.91 124.572 -15.125 124.875 C-14.795 122.895 -14.465 120.915 -14.125 118.875 C-14.922 118.347 -14.922 118.347 -15.734 117.809 C-21.727 113.62 -24.782 109.905 -27.125 102.875 C-27.116 99.287 -26.994 95.711 -26.867 92.125 C-26.86 88.947 -26.86 88.947 -28.383 86.938 C-31.534 85.016 -33.576 85.42 -36.312 87.688 Z " fill="#000000" transform="translate(100.125,74.125)"/>
<path d="M0 0 C2.899 1.449 3.75 2.366 4.938 5.375 C5.021 8.888 4.249 10.315 2 13 C-1.323 14.662 -3.109 15.202 -6.75 14.375 C-9.392 12.76 -10.173 11.977 -11 9 C-10.812 5.933 -10.461 3.769 -8.875 1.125 C-5.867 -0.68 -3.421 -0.36 0 0 Z " fill="#000000" transform="translate(110,122)"/>
<path d="M0 0 C2.438 1.625 2.438 1.625 4 4 C4.484 7.321 4.338 9.264 2.938 12.312 C0.024 14.85 -2.186 15 -6 15 C-8.938 13.5 -8.938 13.5 -11 11 C-11.637 7.034 -11.62 4.967 -9.438 1.562 C-6.058 -0.604 -3.94 -0.563 0 0 Z " fill="#000000" transform="translate(166,130)"/>
<path d="M0 0 C0.33 1.32 0.66 2.64 1 4 C3.31 4 5.62 4 8 4 C7.34 5.32 6.68 6.64 6 8 C3.69 7.67 1.38 7.34 -1 7 C-1 6.34 -1 5.68 -1 5 C-2.258 5.371 -3.516 5.743 -4.812 6.125 C-6.957 6.758 -6.957 6.758 -9 7 C-9.99 6.34 -10.98 5.68 -12 5 C-11.67 3.68 -11.34 2.36 -11 1 C-8.525 1.99 -8.525 1.99 -6 3 C-5.567 2.505 -5.134 2.01 -4.688 1.5 C-3 0 -3 0 0 0 Z " fill="#000000" transform="translate(136,138)"/>
</svg>
