<?xml version="1.0" encoding="UTF-8"?>
<!-- Generator: visioncortex VTracer 0.6.4 -->
<svg version="1.1" xmlns="http://www.w3.org/2000/svg" width="234" height="256">
<path d="M0 0 C3.868 0.133 3.868 0.133 7.062 -0.625 C10 -1 10 -1 13 1 C14.361 4.811 14.146 7.286 12.5 10.875 C9.986 15.46 6.579 19.22 3 23 C-2.395 22.17 -4.903 18.179 -8 14 C-10.11 10.567 -11.03 7.79 -10.875 3.688 C-8.954 -2.213 -5.119 -0.898 0 0 Z M-6 2 C-7.183 3.776 -7.183 3.776 -8 6 C-6.623 11.369 -3.046 15.404 1 19 C6.575 14.968 9.24 11.71 11 5 C10.67 4.01 10.34 3.02 10 2 C7.555 2.188 7.555 2.188 5 3 C3.64 4.968 3.64 4.968 3 7 C1.535 5.698 0.07 4.396 -1.395 3.094 C-3.089 1.718 -3.089 1.718 -6 2 Z " fill="#000000" transform="translate(117,38)"/>
<path d="" fill="#000000" transform="translate(0,0)"/>
<path d="M0 0 C0.66 0 1.32 0 2 0 C2 0.66 2 1.32 2 2 C1.34 2 0.68 2 0 2 C0 1.34 0 0.68 0 0 Z " fill="#000000" transform="translate(40,50)"/>
<path d="M0 0 C0.99 0.33 1.98 0.66 3 1 C2.34 1 1.68 1 1 1 C0.67 1.66 0.34 2.32 0 3 C0 2.01 0 1.02 0 0 Z " fill="#000000" transform="translate(46,51)"/>
<path d="M0 0 C0.33 0.66 0.66 1.32 1 2 C0.01 1.67 -0.98 1.34 -2 1 C-1.34 0.67 -0.68 0.34 0 0 Z " fill="#000000" transform="translate(44,52)"/>
<path d="" fill="#000000" transform="translate(0,0)"/>
<path d="M0 0 C7.299 1.544 14.234 6.187 19.25 11.688 C19.25 12.347 19.25 13.007 19.25 13.688 C20.003 13.528 20.756 13.368 21.531 13.203 C35.254 11.3 49.946 11.753 63.25 15.688 C63.25 15.028 63.25 14.368 63.25 13.688 C69.006 8.967 75.403 4.218 82.875 3.188 C86.25 3.688 86.25 3.688 88.562 5.875 C93.448 14.017 93.868 23.038 92.562 32.312 C91.95 37.543 93.248 40.974 95.258 45.762 C97.009 50.925 97.078 56.273 97.25 61.688 C99.23 62.017 101.21 62.347 103.25 62.688 C103.25 63.347 103.25 64.007 103.25 64.688 C100.94 64.688 98.63 64.688 96.25 64.688 C96.25 66.007 96.25 67.328 96.25 68.688 C97.9 69.347 99.55 70.007 101.25 70.688 C101.25 71.347 101.25 72.007 101.25 72.688 C99.703 72.409 99.703 72.409 98.125 72.125 C94.289 72.239 94.289 72.239 92.801 74.445 C91.86 76.036 90.923 77.628 89.988 79.223 C86.277 84.485 80.509 88.275 74.25 89.688 C74.744 90.906 75.237 92.124 75.746 93.379 C76.394 95.002 77.041 96.626 77.688 98.25 C78.013 99.05 78.338 99.85 78.674 100.674 C80.541 105.389 81.768 109.635 82.25 114.688 C87.87 111.229 91.497 108.207 93.25 101.688 C93.586 97.792 93.75 93.988 93.781 90.078 C94.25 86.688 94.25 86.688 96.066 84.27 C99.299 81.927 101.358 82.073 105.25 82.688 C108.963 85.674 110.94 87.962 111.488 92.781 C111.794 102.702 108.673 111.063 102.305 118.676 C96.894 123.974 90.851 127.357 83.25 127.688 C83.064 129.08 83.064 129.08 82.875 130.5 C82.25 133.688 82.25 133.688 80.25 136.688 C80.229 138.744 80.44 140.707 80.668 142.75 C80.25 144.688 80.25 144.688 78.309 146.406 C73.517 148.413 68.802 148.158 63.668 148.215 C62.498 148.248 62.498 148.248 61.305 148.281 C60.598 148.288 59.892 148.295 59.164 148.303 C56.715 148.795 55.905 149.873 54.25 151.688 C51.875 152.562 51.875 152.562 49.25 152.688 C46.438 151.375 46.438 151.375 44.25 149.688 C44.25 149.028 44.25 148.368 44.25 147.688 C40.23 147.413 40.23 147.413 36.25 147.688 C34.877 148.98 33.54 150.312 32.25 151.688 C29.25 152.125 29.25 152.125 26.25 151.688 C25.31 150.959 25.31 150.959 24.352 150.215 C21.978 148.49 20.511 148.163 17.625 147.809 C16.754 147.692 15.882 147.575 14.984 147.455 C14.082 147.346 13.18 147.237 12.25 147.125 C10.458 146.901 8.666 146.671 6.875 146.434 C6.084 146.337 5.292 146.241 4.477 146.142 C2.128 145.663 0.336 144.85 -1.75 143.688 C-1.715 143.119 -1.68 142.551 -1.645 141.965 C-1.5 137.856 -1.525 135.185 -3.25 131.375 C-7.793 120.206 -3.518 107.707 0.875 97.125 C1.3 96.154 1.726 95.184 2.164 94.184 C3.317 91.635 3.317 91.635 4.25 88.688 C3.181 88.16 3.181 88.16 2.09 87.621 C-5.889 83.508 -12.718 78.99 -16.75 70.688 C-16.75 70.028 -16.75 69.368 -16.75 68.688 C-20.215 69.183 -20.215 69.183 -23.75 69.688 C-24.08 68.698 -24.41 67.707 -24.75 66.688 C-22.275 66.192 -22.275 66.192 -19.75 65.688 C-19.42 64.037 -19.09 62.388 -18.75 60.688 C-20.73 60.688 -22.71 60.688 -24.75 60.688 C-25.245 59.203 -25.245 59.203 -25.75 57.688 C-23.44 57.688 -21.13 57.688 -18.75 57.688 C-18.746 56.74 -18.746 56.74 -18.742 55.773 C-18.482 49.745 -17.29 45.274 -14.688 39.812 C-11.905 33.78 -11.457 29.482 -11.785 22.93 C-11.71 15.974 -9.49 8.548 -5.375 2.875 C-2.75 0.688 -2.75 0.688 0 0 Z M-3.875 5.562 C-7.946 12.347 -8.896 18.307 -8.625 26.188 C-8.483 32.343 -9.334 35.896 -12.438 41.133 C-15.07 46.257 -16.75 52.894 -16.75 58.688 C-15.76 59.347 -14.77 60.007 -13.75 60.688 C-14.74 61.183 -14.74 61.183 -15.75 61.688 C-15.42 63.007 -15.09 64.328 -14.75 65.688 C-14.09 65.688 -13.43 65.688 -12.75 65.688 C-12.988 66.412 -13.227 67.136 -13.473 67.883 C-14.028 70.742 -14.028 70.742 -12.371 73.117 C-4.478 81.956 4.707 86.863 16.25 89.688 C17.57 89.688 18.89 89.688 20.25 89.688 C19.92 90.347 19.59 91.007 19.25 91.688 C15.62 91.028 11.99 90.368 8.25 89.688 C1.493 102.369 -3.517 113.878 -1.75 128.688 C-0.86 130.937 -0.86 130.937 0.375 132.75 C0.994 133.719 1.612 134.689 2.25 135.688 C1.5 138.625 1.5 138.625 0.25 140.688 C5.419 144.29 10.322 144.739 16.48 144.707 C17.724 144.701 18.968 144.694 20.25 144.688 C19.983 143.956 19.715 143.225 19.44 142.472 C18.227 139.149 17.02 135.825 15.812 132.5 C15.392 131.35 14.971 130.199 14.537 129.014 C14.134 127.902 13.731 126.79 13.316 125.645 C12.759 124.113 12.759 124.113 12.19 122.55 C11.33 119.933 10.722 117.398 10.25 114.688 C11.24 114.192 11.24 114.192 12.25 113.688 C12.456 114.843 12.662 115.998 12.875 117.188 C15.102 127.168 18.886 139.572 25.25 147.688 C27.862 149.325 27.862 149.325 30.25 149.688 C33.535 146.688 34.206 144.619 34.418 140.098 C34.433 138.648 34.439 137.199 34.438 135.75 C34.438 134.996 34.439 134.242 34.439 133.465 C34.38 127.07 33.6 120.943 32.25 114.688 C32.91 114.358 33.57 114.028 34.25 113.688 C35.648 124.015 36.682 134.28 37.25 144.688 C38.9 144.688 40.55 144.688 42.25 144.688 C42.305 144.033 42.361 143.378 42.418 142.703 C42.673 139.698 42.93 136.693 43.188 133.688 C43.318 132.143 43.318 132.143 43.451 130.566 C43.937 124.92 44.501 119.305 45.25 113.688 C46.24 114.678 46.24 114.678 47.25 115.688 C47.008 117.402 47.008 117.402 46.375 119.625 C45.168 124.962 45.015 130.116 45 135.562 C44.991 136.395 44.982 137.228 44.973 138.086 C44.979 139.277 44.979 139.277 44.984 140.492 C44.987 141.204 44.989 141.915 44.991 142.648 C45.297 145.056 45.939 146.648 47.25 148.688 C49.805 149.499 49.805 149.499 52.25 149.688 C56.503 145.098 58.743 140.788 60.875 134.938 C61.175 134.144 61.475 133.351 61.784 132.533 C63.65 127.534 65.326 122.515 66.645 117.34 C67.25 115.688 67.25 115.688 69.25 114.688 C68.983 115.484 68.715 116.281 68.44 117.103 C67.445 120.069 66.452 123.036 65.46 126.003 C65.031 127.286 64.601 128.568 64.171 129.85 C63.551 131.696 62.934 133.544 62.316 135.391 C61.759 137.056 61.759 137.056 61.19 138.755 C60.451 141.059 59.794 143.332 59.25 145.688 C61.856 145.601 64.458 145.494 67.062 145.375 C67.8 145.352 68.538 145.33 69.299 145.307 C73.581 145.132 73.581 145.132 77.262 143.145 C77.588 142.664 77.914 142.183 78.25 141.688 C77.858 141.131 77.466 140.574 77.062 140 C76.66 138.855 76.66 138.855 76.25 137.688 C77.563 135.062 77.563 135.062 79.25 132.688 C82.863 125.462 80.351 114.598 78 107.25 C76.189 101.821 74.057 96.678 71.25 91.688 C65.97 92.347 60.69 93.007 55.25 93.688 C55.58 93.028 55.91 92.368 56.25 91.688 C58.547 91.175 60.865 90.753 63.188 90.375 C73.211 88.573 82.178 84.97 88.562 76.688 C90.577 73.68 90.577 73.68 90.25 69.688 C91.24 69.358 92.23 69.028 93.25 68.688 C93.044 68.069 92.838 67.45 92.625 66.812 C92.501 66.111 92.377 65.41 92.25 64.688 C93.24 63.698 93.24 63.698 94.25 62.688 C95.786 53.882 92.546 44.945 89.062 36.969 C87.905 33.718 89.149 31.929 90.25 28.688 C91.007 21.754 90.1 15.078 87.25 8.688 C85.74 6.936 85.74 6.936 84.25 5.688 C77.538 7.496 71.556 10.1 66.25 14.688 C64.995 16.773 64.995 16.773 64.25 18.688 C63.425 18.483 62.6 18.278 61.75 18.066 C46.88 14.598 33.238 14.276 18.25 16.688 C17.856 15.792 17.856 15.792 17.453 14.879 C14.538 9.568 8.775 5.85 3.25 3.688 C-0.235 3.024 -1.197 3.199 -3.875 5.562 Z M99 85.312 C96.784 87.053 96.714 87.942 96.25 90.688 C96.28 92.438 96.345 94.189 96.438 95.938 C96.494 103.004 94.389 107.282 89.75 112.5 C87.25 114.688 87.25 114.688 84.938 116.062 C82.833 117.725 82.833 117.725 83 121.375 C83.082 122.468 83.165 123.561 83.25 124.688 C88.328 124.192 92.038 122.443 96.25 119.688 C97.116 119.131 97.983 118.574 98.875 118 C104.922 112.112 108.292 103.926 108.5 95.562 C108.522 92.043 108.156 89.684 106.25 86.688 C103.488 85.088 102.112 84.448 99 85.312 Z " fill="#000000" transform="translate(67.75,57.3125)"/>
<path d="M0 0 C2.936 1.376 3.609 3.031 5 5.938 C5.293 9.488 5.293 9.488 5.188 13.25 C5.16 14.504 5.133 15.759 5.105 17.051 C5.071 18.003 5.036 18.956 5 19.938 C2.542 21.516 1.326 21.973 -1.621 21.652 C-11.714 18.867 -11.714 18.867 -15 13.938 C-14.92 10.491 -14.444 9.382 -12 6.938 C-8.875 6.812 -8.875 6.812 -6 6.938 C-5.897 6.154 -5.794 5.37 -5.688 4.562 C-4.828 1.281 -3.543 -0.111 0 0 Z M-2 2.938 C-2.66 4.918 -3.32 6.897 -4 8.938 C-6.31 9.267 -8.62 9.597 -11 9.938 C-11.33 10.927 -11.66 11.918 -12 12.938 C-9.629 15.683 -7.469 16.889 -4 17.938 C-2 17.97 0 17.973 2 17.938 C2.054 16 2.093 14.063 2.125 12.125 C2.148 11.046 2.171 9.967 2.195 8.855 C2.23 5.743 2.23 5.743 0 2.938 C-0.66 2.938 -1.32 2.938 -2 2.938 Z " fill="#000000" transform="translate(40,64.0625)"/>
<path d="M0 0 C2.438 1.562 2.438 1.562 4 4 C4.454 7.63 4.437 10.023 2.938 13.375 C0.072 15.779 -2.319 15.871 -6 16 C-8.648 15.213 -9.629 14.477 -11.312 12.312 C-12.329 8.893 -11.873 6.429 -11 3 C-7.922 -0.67 -4.567 -0.571 0 0 Z M-8 2 C-8.66 3.32 -9.32 4.64 -10 6 C-8.68 6.33 -7.36 6.66 -6 7 C-5.67 5.68 -5.34 4.36 -5 3 C-5.99 2.67 -6.98 2.34 -8 2 Z " fill="#000000" transform="translate(83,104)"/>
<path d="M0 0 C3.018 0.054 4.049 0.226 6.688 1.875 C8.771 5.261 8.746 7.406 8.188 11.312 C6.258 14.029 4.845 15.059 1.75 16.25 C-1.631 16.332 -3.143 15.332 -5.812 13.312 C-8.103 9.877 -7.991 8.327 -7.812 4.312 C-7.153 3.983 -6.493 3.653 -5.812 3.312 C-5.482 4.302 -5.153 5.293 -4.812 6.312 C-4.153 6.312 -3.493 6.312 -2.812 6.312 C-2.812 5.323 -2.812 4.332 -2.812 3.312 C-3.472 2.653 -4.132 1.993 -4.812 1.312 C-3.812 0.312 -3.812 0.312 0 0 Z " fill="#000000" transform="translate(134.8125,104.6875)"/>
<path d="" fill="#000000" transform="translate(0,0)"/>
<path d="M0 0 C1.938 0.312 1.938 0.312 4 1 C4.33 1.99 4.66 2.98 5 4 C7.31 4 9.62 4 12 4 C11.34 5.32 10.68 6.64 10 8 C8.907 7.835 7.814 7.67 6.688 7.5 C3.097 7.013 0.534 6.889 -3 7.625 C-6 8 -6 8 -9 6 C-9 5.01 -9 4.02 -9 3 C-6.69 3.33 -4.38 3.66 -2 4 C-1.34 2.68 -0.68 1.36 0 0 Z " fill="#000000" transform="translate(105,116)"/>
<path d="M0 0 C0.33 0 0.66 0 1 0 C1 3.63 1 7.26 1 11 C-1 9 -1 9 -1.188 5.5 C-1 2 -1 2 0 0 Z " fill="#000000" transform="translate(233,143)"/>
<path d="M0 0 C0.557 0.289 1.114 0.577 1.688 0.875 C4.085 2.041 6.516 3.034 9 4 C9.66 3.01 10.32 2.02 11 1 C12.32 1 13.64 1 15 1 C15.33 2.32 15.66 3.64 16 5 C19.3 3.68 22.6 2.36 26 1 C25 5 25 5 22.438 6.75 C21.633 7.162 20.829 7.575 20 8 C20.464 8.897 20.464 8.897 20.938 9.812 C23.186 14.442 23.186 14.442 22 18 C19.028 19.486 16.304 19.132 13 19.125 C11.113 19.129 11.113 19.129 9.188 19.133 C6 19 6 19 4 18 C3.188 15.188 3.188 15.188 3 12 C4.438 9.625 4.438 9.625 6 8 C5.01 7.237 4.02 6.474 3 5.688 C1.312 4.387 1.312 4.387 0 3 C0 2.01 0 1.02 0 0 Z M12 6 C10.943 7.475 9.929 8.981 8.938 10.5 C8.116 11.753 8.116 11.753 7.277 13.031 C6.645 14.006 6.645 14.006 6 15 C7.086 16.313 7.086 16.313 9.723 16.098 C10.825 16.086 11.927 16.074 13.062 16.062 C14.167 16.053 15.272 16.044 16.41 16.035 C17.265 16.024 18.119 16.012 19 16 C18.141 11.508 16.038 9.342 13 6 C12.67 6 12.34 6 12 6 Z " fill="#000000" transform="translate(94,149)"/>
</svg>
