<?xml version="1.0" encoding="UTF-8"?>
<!-- Generator: visioncortex VTracer 0.6.4 -->
<svg version="1.1" xmlns="http://www.w3.org/2000/svg" width="234" height="256">
<path d="M0 0 C4.205 2.883 5.776 7.206 7 12 C7.837 17.087 8.345 21.873 7.25 26.938 C6.442 31.813 8.736 35.608 10.719 39.965 C13.193 45.825 14.123 51.666 14 58 C16.31 58.66 18.62 59.32 21 60 C21 60.66 21 61.32 21 62 C18.36 62 15.72 62 13 62 C12.67 63.65 12.34 65.3 12 67 C13.98 67.33 15.96 67.66 18 68 C18 68.66 18 69.32 18 70 C15.36 69.67 12.72 69.34 10 69 C9.743 69.743 9.487 70.485 9.223 71.25 C5.885 78.756 -1.642 83.825 -9 87 C-9.66 87 -10.32 87 -11 87 C-10.541 87.944 -10.082 88.887 -9.609 89.859 C0 109.871 0 109.871 0 116 C4.822 113.107 7.778 110.658 9.586 105.246 C10.32 101.263 9.845 97.22 9.645 93.191 C10.082 89.261 11.162 87.709 14 85 C17.34 84.417 18.88 84.152 22 85 C25.867 88.126 27.25 90.682 28.062 95.562 C28.485 104.626 25.64 112.653 19.75 119.5 C15.205 124.105 10.47 127.997 4.188 129.812 C1.084 131.497 0.497 133.567 -0.59 136.84 C-1.172 139.258 -1.172 139.258 -0.438 142.75 C0 146 0 146 -1.383 148.109 C-5.172 150.847 -8.866 151.008 -13.438 151.5 C-19.584 152.165 -23.276 152.699 -28 157 C-31.063 157 -31.063 157 -34 156 C-34.598 155.319 -35.196 154.639 -35.812 153.938 C-38.867 151.232 -41.225 151.681 -45.172 151.859 C-45.775 151.906 -46.378 151.952 -47 152 C-47.262 152.639 -47.523 153.279 -47.793 153.938 C-49 156 -49 156 -52.312 157 C-56 157 -56 157 -58.27 155.039 C-61.78 152.418 -64.035 152.472 -68.375 152.375 C-73.68 152.235 -77.992 151.618 -83 150 C-83.8 146.713 -84.097 145.29 -83 142 C-83.639 140.928 -84.279 139.855 -84.938 138.75 C-89.21 130.622 -87.697 120.622 -85.438 112.062 C-82.917 104.119 -79.493 96.554 -76 89 C-78.699 87.2 -81.365 85.783 -84.25 84.312 C-90.735 80.799 -95.893 76.808 -99 70 C-101.31 70 -103.62 70 -106 70 C-105.67 69.01 -105.34 68.02 -105 67 C-102.938 66.312 -102.938 66.312 -101 66 C-101 64.68 -101 63.36 -101 62 C-103.31 62 -105.62 62 -108 62 C-107.67 61.01 -107.34 60.02 -107 59 C-105.35 59 -103.7 59 -102 59 C-101.914 58.224 -101.827 57.448 -101.738 56.648 C-100.932 50.45 -99.748 45.044 -97.375 39.25 C-95.215 33.639 -94.724 29.153 -94.938 23.25 C-95.236 14.913 -94.287 8.624 -88.562 2.312 C-85.382 0.683 -84.386 1.072 -81 2 C-67.706 7.588 -67.706 7.588 -65 13 C-63.805 12.856 -62.61 12.711 -61.379 12.562 C-59.773 12.375 -58.168 12.187 -56.562 12 C-55.388 11.857 -55.388 11.857 -54.189 11.711 C-46.043 10.772 -38.516 10.901 -30.375 11.938 C-25.356 12.431 -25.356 12.431 -20.832 10.684 C-19.161 8.892 -19.161 8.892 -17.672 6.926 C-13.613 2.25 -6.177 -1.324 0 0 Z M-20 13 C-20.66 13.66 -21.32 14.32 -22 15 C-23.933 15.119 -23.933 15.119 -26.297 14.941 C-27.602 14.856 -27.602 14.856 -28.933 14.769 C-29.862 14.701 -30.792 14.633 -31.75 14.562 C-41.087 13.993 -50.378 13.63 -59.605 15.539 C-61.893 15.991 -63.687 16.308 -66 16 C-67.994 14.495 -69.484 12.821 -71.113 10.93 C-74.383 7.585 -78.544 5.376 -83 4 C-85.669 3.927 -85.669 3.927 -88 5 C-89.44 7.112 -89.44 7.112 -90.25 9.75 C-90.565 10.611 -90.879 11.472 -91.203 12.359 C-93.037 18.436 -93.972 24.634 -92.188 30.812 C-91.973 34.463 -92.701 35.772 -94.312 39 C-97.52 45.46 -98.304 51.882 -99 59 C-98.01 59.33 -97.02 59.66 -96 60 C-96 60.66 -96 61.32 -96 62 C-96.66 62 -97.32 62 -98 62 C-97.67 63.32 -97.34 64.64 -97 66 C-96.34 66 -95.68 66 -95 66 C-95.33 66.99 -95.66 67.98 -96 69 C-91.367 78.265 -82.431 82.734 -73.027 86.059 C-66.996 88.162 -66.996 88.162 -61 87 C-57.856 85.428 -55.328 86.246 -52 87 C-50.184 90.631 -50.348 94.105 -51 98 C-53.873 105.58 -56.649 111.895 -64 116 C-64.99 116.33 -65.98 116.66 -67 117 C-67 116.01 -67 115.02 -67 114 C-66.443 113.938 -65.886 113.876 -65.312 113.812 C-60.23 112.027 -57.681 107.778 -55.188 103.25 C-52.787 98.231 -52.475 94.509 -53 89 C-54.133 87.636 -54.133 87.636 -57.125 87.938 C-61.668 88.64 -63.784 91.468 -66.555 94.922 C-68.13 97.187 -69.251 99.337 -70 102 C-70.99 102 -71.98 102 -73 102 C-70.71 97.972 -68.402 93.963 -66 90 C-67.98 89.67 -69.96 89.34 -72 89 C-79.716 103.589 -86.02 117.09 -84 134 C-82.619 137.238 -82.619 137.238 -81 140 C-79.956 143.133 -80.066 143.99 -81 147 C-77.296 149.376 -74.07 149.205 -69.75 149.125 C-68.487 149.107 -67.223 149.089 -65.922 149.07 C-64.958 149.047 -63.993 149.024 -63 149 C-65.158 142.454 -67.402 135.94 -69.688 129.438 C-70.008 128.524 -70.328 127.611 -70.658 126.67 C-71.438 124.446 -72.219 122.223 -73 120 C-72.01 120 -71.02 120 -70 120 C-69.75 121.274 -69.5 122.547 -69.242 123.859 C-68.049 129.213 -66.181 134.175 -64.125 139.25 C-63.786 140.121 -63.447 140.993 -63.098 141.891 C-61.262 146.469 -59.52 150.429 -56 154 C-53.456 154.834 -53.456 154.834 -51 154 C-46.652 148.276 -47.363 141.858 -48 135 C-48.749 129.618 -49.842 124.307 -51 119 C-50.01 119.495 -50.01 119.495 -49 120 C-48.345 122.64 -47.82 125.198 -47.375 127.875 C-47.242 128.641 -47.11 129.408 -46.973 130.197 C-46.102 135.536 -45.747 140.678 -45.992 146.094 C-45.995 146.723 -45.997 147.352 -46 148 C-44.816 149.416 -44.816 149.416 -41.438 149.062 C-39.736 149.032 -39.736 149.032 -38 149 C-37.962 148.116 -37.962 148.116 -37.924 147.215 C-37.807 144.497 -37.685 141.78 -37.562 139.062 C-37.523 138.136 -37.484 137.21 -37.443 136.256 C-37.179 130.465 -36.702 124.755 -36 119 C-35.01 119 -34.02 119 -33 119 C-33.464 120.763 -33.464 120.763 -33.938 122.562 C-36.183 131.705 -38.375 143.25 -34 152 C-32.198 154.247 -32.198 154.247 -29.688 154.125 C-25.503 152.373 -24.049 148.925 -22 145 C-20.721 141.843 -19.714 138.64 -18.75 135.375 C-18.495 134.555 -18.24 133.735 -17.977 132.891 C-16.671 128.615 -15.604 124.442 -15 120 C-14.01 120 -13.02 120 -12 120 C-12.273 120.807 -12.545 121.615 -12.826 122.447 C-13.835 125.439 -14.841 128.432 -15.845 131.426 C-16.281 132.722 -16.717 134.018 -17.155 135.313 C-17.783 137.174 -18.407 139.036 -19.031 140.898 C-19.408 142.019 -19.785 143.14 -20.174 144.294 C-21.097 146.847 -21.097 146.847 -21 149 C-14.666 149.345 -9.897 148.293 -4 146 C-4.248 145.196 -4.495 144.391 -4.75 143.562 C-5.05 139.286 -3.94 137.214 -1.91 133.539 C1.883 122.958 -3.649 109.546 -8.094 99.861 C-10.507 94.051 -10.507 94.051 -14 89 C-15.666 88.959 -17.334 88.957 -19 89 C-19.33 89.66 -19.66 90.32 -20 91 C-19.368 91.922 -19.368 91.922 -18.723 92.863 C-18.175 93.672 -17.627 94.48 -17.062 95.312 C-16.517 96.113 -15.972 96.914 -15.41 97.738 C-14 100 -14 100 -13 103 C-15.688 100.519 -17.824 97.903 -19.938 94.938 C-22.29 91.775 -24.179 89.372 -28 88 C-30.782 88.695 -30.782 88.695 -33 90 C-33.583 98.013 -31.481 104.1 -26.5 110.438 C-24.293 112.7 -22.835 113.785 -20 115 C-19.67 115.66 -19.34 116.32 -19 117 C-27.289 113.713 -30.77 108.968 -34.375 100.938 C-35.299 96.593 -36.105 92.08 -33.938 88 C-30.935 86.45 -28.317 86.763 -25 87 C-23.515 87.495 -23.515 87.495 -22 88 C-19.579 87.457 -17.343 86.845 -15 86.062 C-14.335 85.841 -13.67 85.619 -12.985 85.391 C-5.232 82.618 2.515 78.11 7 71 C7.251 68.332 7.251 68.332 7 66 C7.99 65.67 8.98 65.34 10 65 C10 64.01 10 63.02 10 62 C9.34 62 8.68 62 8 62 C8 61.34 8 60.68 8 60 C8.99 59.67 9.98 59.34 11 59 C11.669 50.471 9.268 42.37 5.344 34.809 C3.566 31.093 4.252 29.012 5 25 C5.668 17.381 4.808 9.469 -0.125 3.375 C-6.145 -1.04 -15.867 8.976 -20 13 Z M14.312 88.148 C12.473 90.743 12.805 92.482 13 95.625 C13.165 102.823 12.291 108.298 7.562 113.875 C5 116 5 116 2.688 117.438 C0.662 118.967 0.662 118.967 0.688 122.062 C0.819 124.93 0.819 124.93 2 127 C9.079 125.525 14.389 122.499 18.77 116.629 C23.077 109.743 25.751 103.264 25 95 C23.423 91.019 22.59 89.393 19 87 C16.073 86.719 16.073 86.719 14.312 88.148 Z " fill="#000000" transform="translate(146,76)"/>
<path d="M0 0 C2.438 1.562 2.438 1.562 4 4 C4.457 7.66 4.461 10.026 2.875 13.375 C0.233 15.665 -1.519 15.932 -5 16 C-10.612 13.776 -10.612 13.776 -12 11 C-12.375 7.625 -12.375 7.625 -12 4 C-8.465 -0.177 -5.328 -0.775 0 0 Z M-9 3 C-9.99 4.485 -9.99 4.485 -11 6 C-10.67 6.66 -10.34 7.32 -10 8 C-8.68 7.34 -7.36 6.68 -6 6 C-6.33 5.01 -6.66 4.02 -7 3 C-7.66 3 -8.32 3 -9 3 Z " fill="#000000" transform="translate(135,121)"/>
<path d="M0 0 C2.978 0.092 4.021 0.31 6.625 1.938 C8.709 5.324 8.683 7.469 8.125 11.375 C6.097 14.339 4.633 15.198 1.25 16.375 C-3.063 16.375 -4.8 15.377 -7.875 12.375 C-8.396 9.526 -8.168 7.303 -7.875 4.375 C-6.885 5.86 -6.885 5.86 -5.875 7.375 C-4.885 7.045 -3.895 6.715 -2.875 6.375 C-2.875 5.715 -2.875 5.055 -2.875 4.375 C-3.865 3.715 -4.855 3.055 -5.875 2.375 C-3.875 0.375 -3.875 0.375 0 0 Z " fill="#000000" transform="translate(74.875,121.625)"/>
<path d="" fill="#000000" transform="translate(0,0)"/>
<path d="M0 0 C1.938 0.312 1.938 0.312 4 1 C4.33 1.99 4.66 2.98 5 4 C8.465 3.505 8.465 3.505 12 3 C11.125 6.875 11.125 6.875 10 8 C7.663 7.697 5.329 7.361 3 7 C-0.026 6.888 -0.026 6.888 -3 7.688 C-6 8 -6 8 -7.875 6.562 C-8.432 5.789 -8.432 5.789 -9 5 C-8.34 4.34 -7.68 3.68 -7 3 C-4.375 3.375 -4.375 3.375 -2 4 C-1.34 2.68 -0.68 1.36 0 0 Z " fill="#000000" transform="translate(100,132)"/>
</svg>
