<?xml version="1.0" encoding="UTF-8"?>
<!-- Generator: visioncortex VTracer 0.6.4 -->
<svg version="1.1" xmlns="http://www.w3.org/2000/svg" width="234" height="256">
<path d="M0 0 C4.555 4.229 7.015 8.854 8 15 C8.059 17.982 7.963 20.957 7.875 23.938 C7.685 30.572 8.217 34.91 11.754 40.691 C14.583 45.933 15 52.134 15 58 C17.31 58 19.62 58 22 58 C22 58.66 22 59.32 22 60 C19.69 60.66 17.38 61.32 15 62 C15 62.99 15 63.98 15 65 C16.65 65.66 18.3 66.32 20 67 C20 67.66 20 68.32 20 69 C18.969 68.794 17.938 68.588 16.875 68.375 C12.978 68.545 12.978 68.545 11.48 71.016 C10.51 72.801 9.55 74.592 8.598 76.387 C5.068 82.161 -0.96 85.282 -7 88 C-6.711 88.846 -6.423 89.691 -6.125 90.562 C-4.992 94.024 -3.982 97.494 -3 101 C-5.23 101.324 -5.23 101.324 -8 101 C-10.176 98.77 -10.176 98.77 -12.312 95.812 C-15.948 91.125 -19.309 87.091 -25 85 C-27.895 85.021 -27.895 85.021 -30 86 C-31.403 89.051 -31.403 89.051 -29.562 92 C-22.828 103.003 -22.828 103.003 -13 111 C-13 111.66 -13 112.32 -13 113 C-15.254 113.246 -15.254 113.246 -18 113 C-23.844 108.237 -28.012 101.325 -32 95 C-32.66 94.01 -33.32 93.02 -34 92 C-34.533 86.032 -34.533 86.032 -33 83.062 C-29.702 81.31 -26.575 81.276 -23 82 C-21.49 82.866 -20.011 83.786 -18.562 84.75 C-15.324 86.752 -15.324 86.752 -11.641 86.582 C-9.28 85.548 -7.169 84.389 -5 83 C-4.408 82.624 -3.817 82.247 -3.207 81.859 C-1.793 80.924 -0.395 79.963 1 79 C1.99 78.67 2.98 78.34 4 78 C5.067 76.201 5.067 76.201 6 74 C6.516 73.175 7.031 72.35 7.562 71.5 C8.87 69.226 9.492 67.538 10 65 C10.495 63.515 10.495 63.515 11 62 C10.34 61.34 9.68 60.68 9 60 C9.99 59.67 10.98 59.34 12 59 C10.84 49.266 8.69 41.194 4.188 32.5 C3.6 31.263 3.6 31.263 3 30 C3.33 29.34 3.66 28.68 4 28 C4.628 20.251 4.625 13.6 0.875 6.672 C0 5 0 5 0 3 C-6.984 4.882 -15.266 7.72 -19.337 14.094 C-21 16 -21 16 -23.103 16.331 C-23.911 16.255 -24.718 16.179 -25.551 16.102 C-26.467 16.034 -27.382 15.966 -28.326 15.896 C-29.804 15.762 -29.804 15.762 -31.312 15.625 C-40.66 14.933 -49.398 15.216 -58.64 16.854 C-62.482 17.387 -64.904 17.699 -68.258 15.561 C-70.371 13.688 -70.371 13.688 -72.201 11.785 C-76.514 7.505 -82.032 5.597 -88 5 C-88.681 6.995 -89.344 8.996 -90 11 C-90.371 12.052 -90.743 13.104 -91.125 14.188 C-92.476 20.073 -92.642 26.075 -91.344 31.992 C-90.926 35.645 -91.698 37.292 -93.312 40.562 C-96.191 46.936 -97.252 53.082 -98 60 C-97.01 60.33 -96.02 60.66 -95 61 C-95.495 63.475 -95.495 63.475 -96 66 C-95.34 66.33 -94.68 66.66 -94 67 C-93.979 67.846 -93.959 68.691 -93.938 69.562 C-92.432 75.082 -88.6 77.811 -84 81 C-77.244 84.819 -77.244 84.819 -69.789 85.723 C-67.826 85.008 -67.826 85.008 -65.688 83.375 C-62.018 81.498 -59.92 81.911 -56 83 C-55.563 83.674 -55.126 84.348 -54.676 85.043 C-53.106 87.316 -53.106 87.316 -50.082 87.391 C-49.003 87.344 -47.924 87.298 -46.812 87.25 C-45.726 87.214 -44.639 87.178 -43.52 87.141 C-42.688 87.094 -41.857 87.048 -41 87 C-41.375 88.934 -41.375 88.934 -42 91 C-43.316 91.699 -44.65 92.367 -46 93 C-46.495 94.485 -46.495 94.485 -47 96 C-47.99 96.33 -48.98 96.66 -50 97 C-51.062 95.125 -51.062 95.125 -52 93 C-51.67 92.34 -51.34 91.68 -51 91 C-51.66 91 -52.32 91 -53 91 C-53.093 91.99 -53.093 91.99 -53.188 93 C-54.332 97.227 -56.6 100.374 -59 104 C-59.48 104.807 -59.959 105.614 -60.453 106.445 C-64.244 112.65 -64.244 112.65 -68.375 114.562 C-69.674 114.779 -69.674 114.779 -71 115 C-71 114.01 -71 113.02 -71 112 C-70.274 111.604 -69.549 111.209 -68.801 110.801 C-64.917 108.304 -63.362 105.178 -61.188 101.188 C-60.781 100.488 -60.374 99.789 -59.955 99.068 C-57.643 94.914 -56.379 91.883 -57 87 C-58.126 85.648 -58.126 85.648 -61.062 85.875 C-66.706 86.746 -69.755 91.704 -73 96 C-73.765 97.157 -74.519 98.321 -75.25 99.5 C-77 102 -77 102 -79.25 102.875 C-79.828 102.916 -80.405 102.957 -81 103 C-80.519 97.226 -78.815 93.041 -76 88 C-77.454 87.722 -77.454 87.722 -78.938 87.438 C-86.513 85.271 -92.412 79.164 -97 73 C-97.33 72.34 -97.66 71.68 -98 71 C-100.31 71 -102.62 71 -105 71 C-105 70.34 -105 69.68 -105 69 C-102.525 68.01 -102.525 68.01 -100 67 C-100 65.68 -100 64.36 -100 63 C-102.31 62.67 -104.62 62.34 -107 62 C-107 61.34 -107 60.68 -107 60 C-105.02 60 -103.04 60 -101 60 C-100.902 58.961 -100.804 57.922 -100.703 56.852 C-99.383 44.175 -99.383 44.175 -96.812 38.75 C-94.604 33.92 -95.109 30.2 -95.754 25.02 C-96.41 16.973 -94.059 9.849 -90 3 C-87.035 1.517 -85.339 1.642 -82 2 C-76.784 3.994 -72.431 6.397 -68.5 10.375 C-66.562 12.14 -65.595 12.988 -62.934 13.042 C-62.166 12.92 -61.397 12.798 -60.605 12.672 C-54.328 11.855 -48.135 11.853 -41.812 11.875 C-40.676 11.871 -39.54 11.867 -38.369 11.863 C-32.808 11.87 -27.476 12.002 -22 13 C-21.67 12.01 -21.34 11.02 -21 10 C-16.152 5.466 -7.026 -1.899 0 0 Z M-48 88 C-48.66 89.32 -49.32 90.64 -50 92 C-49.01 92 -48.02 92 -47 92 C-47.33 90.68 -47.66 89.36 -48 88 Z M-10 92 C-9 94 -9 94 -9 94 Z " fill="#000000" transform="translate(166,82)"/>
<path d="M0 0 C2.5 1.5 2.5 1.5 4 4 C4.604 6.809 4.66 9.198 4 12 C1.458 14.991 -0.157 15.842 -4 16.562 C-8.136 15.787 -9.55 14.387 -12 11 C-12.625 7.042 -12.61 4.991 -10.5 1.562 C-6.974 -0.641 -4.05 -0.797 0 0 Z M-10 3 C-10.33 4.32 -10.66 5.64 -11 7 C-9.68 7.33 -8.36 7.66 -7 8 C-6.67 6.68 -6.34 5.36 -6 4 C-7.32 3.67 -8.64 3.34 -10 3 Z " fill="#000000" transform="translate(99,129)"/>
<path d="M0 0 C2.486 2.32 2.945 3.622 3.438 7 C3 10 3 10 1.375 12.312 C-1.559 14.397 -3.402 14.927 -7 15 C-9.898 13.749 -11.51 12.668 -13.375 10.125 C-14.205 7.302 -13.972 5.776 -13 3 C-8.834 -1.999 -5.947 -2.602 0 0 Z M-11 2 C-11.33 3.32 -11.66 4.64 -12 6 C-10.68 6 -9.36 6 -8 6 C-8 4.68 -8 3.36 -8 2 C-8.99 2 -9.98 2 -11 2 Z " fill="#000000" transform="translate(156,130)"/>
<path d="M0 0 C0.99 0 1.98 0 3 0 C3.66 1.32 4.32 2.64 5 4 C6.98 3.67 8.96 3.34 11 3 C11 4.32 11 5.64 11 7 C5.585 8.231 5.585 8.231 2.625 7.062 C2.089 6.712 1.552 6.361 1 6 C0.01 6.66 -0.98 7.32 -2 8 C-4.688 8.125 -4.688 8.125 -7 8 C-7.66 6.68 -8.32 5.36 -9 4 C-6.69 4 -4.38 4 -2 4 C-1.34 2.68 -0.68 1.36 0 0 Z " fill="#000000" transform="translate(121,141)"/>
<path d="M0 0 C4.097 3.095 6.067 5.964 7 11 C7.132 21.465 4.212 30.564 -3 38.242 C-7.365 42.078 -12.311 44.78 -18 46 C-17.761 48.982 -17.761 48.982 -16 52 C-10.754 54.648 -4.812 55.338 0.992 55.691 C3.363 56.056 4.964 56.735 7 58 C9.48 61.721 9.463 63.598 9 68 C6.658 70.966 4.664 72.788 0.855 73.273 C-7.296 73.584 -13.61 71.29 -21 68 C-21 70.31 -21 72.62 -21 75 C-28.831 79.618 -37.158 79.166 -46 79 C-46 79.66 -46 80.32 -46 81 C-49.491 83.327 -50.892 83.503 -55 83 C-55.639 82.34 -56.279 81.68 -56.938 81 C-58.942 78.666 -58.942 78.666 -62.438 78.5 C-66.072 78.694 -66.072 78.694 -68.5 81.062 C-71 83 -71 83 -74.625 82.938 C-78 82 -78 82 -79.462 80.48 C-81.367 78.646 -82.379 78.559 -84.984 78.375 C-85.755 78.308 -86.526 78.241 -87.32 78.172 C-88.523 78.087 -88.523 78.087 -89.75 78 C-95.813 77.563 -100.515 76.698 -106 74 C-105.965 73.112 -105.965 73.112 -105.93 72.207 C-105.822 67.504 -106.191 64.363 -108 60 C-110.284 50.111 -108.007 39.187 -104 30 C-103.34 30 -102.68 30 -102 30 C-102.487 34.384 -103.112 38.629 -104.062 42.938 C-105.694 51.085 -105.565 56.433 -101.824 63.914 C-100.664 66.85 -101.088 69.036 -102 72 C-95.662 73.533 -89.499 74.484 -83 75 C-83.303 74.38 -83.606 73.76 -83.918 73.121 C-86.56 67.537 -88.866 61.9 -90.875 56.062 C-91.306 54.816 -91.736 53.569 -92.18 52.285 C-92.944 49.224 -93.163 47.864 -92 45 C-89.762 47.238 -89.27 48.686 -88.266 51.656 C-87.938 52.597 -87.611 53.538 -87.273 54.508 C-86.602 56.47 -85.936 58.433 -85.273 60.398 C-81.854 70.374 -81.854 70.374 -76 79 C-73.372 79.358 -73.372 79.358 -71 79 C-65.533 70.061 -69.555 54.932 -71 45 C-70.01 45.33 -69.02 45.66 -68 46 C-67.492 48.832 -66.993 51.665 -66.5 54.5 C-66.357 55.291 -66.214 56.083 -66.066 56.898 C-65.021 62.972 -64.012 69.037 -66 75 C-64.02 75 -62.04 75 -60 75 C-60.023 73.984 -60.046 72.968 -60.07 71.922 C-60.387 51.774 -60.387 51.774 -57 45 C-56.34 45 -55.68 45 -55 45 C-55.072 45.646 -55.144 46.292 -55.219 46.957 C-55.879 53.661 -56.136 60.331 -56.188 67.062 C-56.2 67.896 -56.213 68.729 -56.227 69.587 C-56.228 70.374 -56.229 71.162 -56.23 71.973 C-56.235 72.677 -56.239 73.38 -56.243 74.106 C-56.1 76.331 -56.1 76.331 -54 79 C-50.916 79.25 -50.916 79.25 -48 79 C-46.081 74.317 -44.361 69.565 -42.625 64.812 C-40.188 58.165 -37.708 51.543 -35 45 C-34.34 45.33 -33.68 45.66 -33 46 C-35.203 56.205 -38.312 66.623 -43 76 C-40.394 75.718 -37.791 75.425 -35.188 75.125 C-34.45 75.046 -33.712 74.968 -32.951 74.887 C-29.285 74.455 -27.12 74.08 -24 72 C-24.369 71.41 -24.737 70.819 -25.117 70.211 C-25.409 69.481 -25.7 68.752 -26 68 C-25.381 66.886 -24.762 65.772 -24.125 64.625 C-20.327 57.648 -21.118 49.632 -22.941 42.125 C-23.659 39.724 -24.416 37.334 -25.223 34.961 C-25.986 32.054 -26.067 30.753 -25 28 C-23.5 29.375 -23.5 29.375 -22 31 C-22 31.66 -22 32.32 -22 33 C-16.451 29.721 -13.102 26.305 -11 20 C-11.04 16.625 -11.124 13.263 -11.303 9.893 C-11.391 6.379 -11.3 4.413 -9.203 1.531 C-5.945 -0.733 -3.874 -0.612 0 0 Z M-6.812 3.688 C-9.759 8.15 -8.875 10.854 -8.219 15.996 C-7.803 21.71 -9.946 25.874 -13.375 30.312 C-15.801 32.796 -17.929 34.421 -21 36 C-20.34 38.31 -19.68 40.62 -19 43 C-11.823 41.903 -6.171 37.839 -1.625 32.25 C2.924 25.628 4.913 17.959 4 10 C2.711 6.589 1.208 3.779 -1.938 1.75 C-4.246 1.888 -4.246 1.888 -6.812 3.688 Z M-18 55 C-18.66 58.3 -19.32 61.6 -20 65 C-18.577 65.639 -17.154 66.279 -15.688 66.938 C-14.887 67.297 -14.086 67.657 -13.262 68.027 C-9.522 69.636 -6.549 70.185 -2.5 70.25 C-1.061 70.289 -1.061 70.289 0.406 70.328 C3.016 70.2 3.016 70.2 4.863 68.715 C6.37 66.828 6.37 66.828 5.688 63.312 C5.347 61.673 5.347 61.673 5 60 C4.429 59.89 3.858 59.781 3.27 59.668 C-3.859 58.274 -10.929 56.662 -18 55 Z " fill="#000000" transform="translate(187,157)"/>
<path d="M0 0 C0.99 0.33 1.98 0.66 3 1 C2.67 2.98 2.34 4.96 2 7 C0.35 6.67 -1.3 6.34 -3 6 C-2.67 5.01 -2.34 4.02 -2 3 C-1.34 3 -0.68 3 0 3 C0 2.01 0 1.02 0 0 Z " fill="#000000" transform="translate(127,170)"/>
<path d="M0 0 C1.32 0.33 2.64 0.66 4 1 C3.67 2.32 3.34 3.64 3 5 C-0.837 5.904 -4.375 6.106 -8.312 6.062 C-9.381 6.053 -10.45 6.044 -11.551 6.035 C-12.359 6.024 -13.167 6.012 -14 6 C-14.66 4.68 -15.32 3.36 -16 2 C-11.05 2.33 -6.1 2.66 -1 3 C-0.67 2.01 -0.34 1.02 0 0 Z " fill="#000000" transform="translate(129,177)"/>
</svg>
