<?xml version="1.0" encoding="UTF-8"?>
<!-- Generator: visioncortex VTracer 0.6.4 -->
<svg version="1.1" xmlns="http://www.w3.org/2000/svg" width="234" height="256">
<path d="M0 0 C2.523 1.518 3.535 2.667 4.992 5.199 C5.388 5.866 5.784 6.532 6.191 7.219 C8.861 12.417 9.398 16.14 9.055 21.949 C8.824 28.994 10.289 33.532 13.84 39.715 C17.304 46.034 17.632 53.324 18.305 60.387 C21.275 60.882 21.275 60.882 24.305 61.387 C24.305 62.047 24.305 62.707 24.305 63.387 C20.84 63.882 20.84 63.882 17.305 64.387 C16.975 65.707 16.645 67.027 16.305 68.387 C19.275 69.377 19.275 69.377 22.305 70.387 C21.975 71.047 21.645 71.707 21.305 72.387 C18.995 72.057 16.685 71.727 14.305 71.387 C14.075 72.116 13.846 72.846 13.609 73.598 C12.048 76.935 10.209 78.612 7.43 81.012 C6.566 81.767 5.702 82.522 4.812 83.301 C2.687 85.069 0.537 86.757 -1.695 88.387 C-1.262 88.944 -0.829 89.5 -0.383 90.074 C4.739 97.093 4.739 97.093 4.93 101.574 C4.235 105.813 2.76 107.929 0.305 111.387 C1.341 111.906 2.377 112.426 3.445 112.961 C4.815 113.665 6.185 114.369 7.555 115.074 C8.237 115.414 8.919 115.754 9.621 116.104 C13.81 118.279 16.736 120.275 19.305 124.387 C19.305 127.512 19.305 127.512 18.305 130.387 C13.895 134.498 9.083 134.276 3.305 134.387 C-0.873 134.233 -5.01 133.851 -9.168 133.426 C-10.912 133.261 -10.912 133.261 -12.691 133.092 C-16.381 132.742 -20.069 132.377 -23.758 132.012 C-28.602 131.541 -33.448 131.076 -38.293 130.613 C-40.039 130.445 -40.039 130.445 -41.821 130.273 C-49.268 129.568 -56.703 129.008 -64.179 128.751 C-74.3 128.341 -81.837 124.795 -88.695 117.387 C-89.355 116.397 -90.015 115.407 -90.695 114.387 C-93.241 114.27 -95.601 114.305 -98.133 114.449 C-107.733 114.69 -114.961 112.934 -122.57 106.762 C-127.758 101.77 -130.984 96.159 -132.32 89.074 C-131.416 85.185 -129.908 83.711 -126.695 81.387 C-123.133 80.824 -123.133 80.824 -119.695 81.387 C-116.588 84.013 -114.819 86.749 -112.945 90.324 C-110.056 95.239 -107.128 98.418 -101.695 100.387 C-98.879 100.747 -96.549 100.642 -93.695 100.387 C-93.468 99.355 -93.242 98.324 -93.008 97.262 C-91.809 93.019 -89.719 90.561 -86.695 87.387 C-86.035 87.057 -85.375 86.727 -84.695 86.387 C-84.695 85.727 -84.695 85.067 -84.695 84.387 C-86.068 83.248 -87.495 82.175 -88.945 81.137 C-91.901 78.941 -94.075 77.201 -95.82 73.949 C-96.439 73.104 -97.058 72.258 -97.695 71.387 C-101.364 70.885 -101.364 70.885 -104.695 71.387 C-104.695 70.727 -104.695 70.067 -104.695 69.387 C-101.725 68.892 -101.725 68.892 -98.695 68.387 C-99.025 66.737 -99.355 65.087 -99.695 63.387 C-103.16 62.892 -103.16 62.892 -106.695 62.387 C-106.695 61.727 -106.695 61.067 -106.695 60.387 C-104.385 60.387 -102.075 60.387 -99.695 60.387 C-99.742 59.804 -99.788 59.221 -99.836 58.621 C-100.204 50.27 -98.164 42.765 -94.055 35.477 C-92.416 31.752 -92.524 29.242 -92.758 25.199 C-92.933 16.72 -91.21 10.443 -86.758 3.262 C-84.287 1.016 -82.991 0.704 -79.695 0.387 C-72.765 2.526 -67.261 6.844 -62.695 12.387 C-62.2 13.377 -62.2 13.377 -61.695 14.387 C-60.521 14.213 -59.347 14.039 -58.137 13.859 C-53.897 13.382 -49.797 13.414 -45.535 13.57 C-44.247 13.61 -42.958 13.649 -41.631 13.689 C-39.626 13.751 -37.625 13.825 -35.622 13.935 C-27.519 14.541 -27.519 14.541 -20.198 11.702 C-18.13 9.624 -18.13 9.624 -16.34 7.384 C-14.113 4.68 -11.624 3.302 -8.508 1.762 C-7.032 1 -7.032 1 -5.527 0.223 C-2.695 -0.613 -2.695 -0.613 0 0 Z M-13.695 8.387 C-14.751 9.842 -15.773 11.321 -16.758 12.824 C-18.422 14.887 -18.422 14.887 -20.695 16.387 C-24.949 16.678 -28.906 16.306 -33.129 15.828 C-37.546 15.332 -41.77 15.43 -46.195 15.762 C-47.504 15.851 -48.812 15.94 -50.16 16.031 C-53.112 16.328 -55.864 16.837 -58.758 17.449 C-62.695 17.387 -62.695 17.387 -64.473 15.879 C-65.642 14.484 -66.776 13.057 -67.875 11.605 C-70.789 8.053 -74.45 5.179 -78.695 3.387 C-81.319 3.357 -81.319 3.357 -83.695 4.387 C-88.527 9.756 -90.216 17.36 -90.695 24.387 C-90.51 25.913 -90.283 27.436 -90.008 28.949 C-89.239 33.831 -91.079 36.842 -93.418 41.047 C-96.457 46.614 -97.528 53.082 -97.695 59.387 C-97.365 60.047 -97.035 60.707 -96.695 61.387 C-95.705 61.387 -94.715 61.387 -93.695 61.387 C-93.695 62.047 -93.695 62.707 -93.695 63.387 C-95.18 63.882 -95.18 63.882 -96.695 64.387 C-96.347 66.362 -96.347 66.362 -95.695 68.387 C-95.035 68.717 -94.375 69.047 -93.695 69.387 C-93.559 70.16 -93.422 70.934 -93.281 71.73 C-92.239 76.455 -88.524 78.716 -84.695 81.387 C-81.126 83.336 -77.481 84.907 -73.695 86.387 C-72.479 86.886 -72.479 86.886 -71.238 87.395 C-65.638 89.513 -61.617 89.465 -55.777 87.859 C-50.997 86.774 -46.352 86.401 -42.07 88.949 C-40.695 91.387 -40.695 91.387 -40.633 94.824 C-42.06 99.61 -44.515 101.995 -48.684 104.656 C-51.295 106.903 -52.195 109.18 -53.57 112.324 C-56.004 117.412 -57.562 120.043 -62.695 122.387 C-65.07 123.137 -65.07 123.137 -66.695 123.387 C-64.827 121.31 -63.216 120.112 -60.758 118.699 C-56.907 115.792 -55.502 112.766 -53.695 108.387 C-54.492 108.482 -55.289 108.577 -56.109 108.676 C-66.634 109.777 -66.634 109.777 -71.695 107.387 C-71.365 107.057 -71.035 106.727 -70.695 106.387 C-69.21 106.882 -69.21 106.882 -67.695 107.387 C-60.998 107.964 -56.559 106.597 -50.695 103.387 C-50.006 103.013 -49.316 102.639 -48.605 102.254 C-44.847 99.933 -43.858 99.047 -42.758 94.574 C-42.737 93.522 -42.717 92.47 -42.695 91.387 C-44.284 89.666 -44.284 89.666 -46.695 88.387 C-49.965 88.646 -49.965 88.646 -53.445 89.637 C-58.557 90.88 -63.466 91.864 -68.695 92.387 C-69.025 91.397 -69.355 90.407 -69.695 89.387 C-74.361 87.557 -77.872 86.919 -82.695 88.387 C-87.348 91.2 -89.044 94.258 -90.695 99.387 C-91.392 105.768 -90.072 111.138 -86.289 116.309 C-79.76 123.516 -71.497 125.715 -62.043 126.247 C-60.959 126.293 -59.875 126.339 -58.758 126.387 C-56.302 126.525 -53.846 126.668 -51.391 126.816 C-50.394 126.875 -50.394 126.875 -49.377 126.935 C-38.665 127.597 -27.985 128.733 -17.306 129.792 C-1.074 132.438 -1.074 132.438 14.492 129.887 C15.09 129.392 15.688 128.897 16.305 128.387 C16.039 125.201 15.681 123.746 13.336 121.508 C9.413 118.763 5.313 116.74 0.992 114.699 C0.176 114.296 -0.641 113.894 -1.482 113.479 C-6.643 111.023 -10.988 109.774 -16.695 109.387 C-16.885 109.97 -17.074 110.554 -17.269 111.155 C-18.658 115.353 -19.637 118.148 -23.695 120.387 C-22.503 118.002 -21.3 115.627 -20.07 113.262 C-18.551 110.617 -18.551 110.617 -18.695 108.387 C-19.466 107.988 -20.237 107.59 -21.031 107.18 C-22.034 106.65 -23.037 106.12 -24.07 105.574 C-25.068 105.052 -26.066 104.53 -27.094 103.992 C-29.695 102.387 -29.695 102.387 -31.695 99.387 C-32.147 93.064 -32.147 93.064 -29.695 89.387 C-26.256 88.24 -23.811 88.426 -20.195 88.574 C-8.717 88.633 -0.24 84.697 7.941 76.809 C9.563 75.128 9.563 75.128 11.305 72.387 C11.271 70.065 11.271 70.065 10.305 68.387 C11.295 68.387 12.285 68.387 13.305 68.387 C13.305 66.737 13.305 65.087 13.305 63.387 C12.645 63.387 11.985 63.387 11.305 63.387 C11.305 62.727 11.305 62.067 11.305 61.387 C12.295 61.387 13.285 61.387 14.305 61.387 C14.988 51.914 13.858 42.092 7.992 34.324 C5.618 30.192 6.563 27.108 7.125 22.488 C7.534 15.434 4.827 8.732 0.305 3.387 C-5.013 1.046 -9.555 5.21 -13.695 8.387 Z M-128.695 86.387 C-129.19 91.351 -127.991 95.532 -125.133 99.574 C-120.346 105.325 -114.993 109.488 -107.695 111.387 C-105.027 111.521 -102.479 111.579 -99.82 111.512 C-99.132 111.503 -98.444 111.494 -97.734 111.484 C-96.055 111.461 -94.375 111.425 -92.695 111.387 C-91.411 109.356 -91.411 109.356 -92.312 106.82 C-93.449 104.172 -93.449 104.172 -96.016 103.672 C-96.941 103.598 -97.867 103.525 -98.82 103.449 C-104.8 102.582 -108.564 100.834 -112.695 96.387 C-114.448 93.842 -115.996 91.274 -117.469 88.559 C-118.633 86.27 -118.633 86.27 -120.695 84.387 C-125.2 83.876 -125.2 83.876 -128.695 86.387 Z M-9.695 89.387 C-9.695 90.047 -9.695 90.707 -9.695 91.387 C-9.035 92.047 -8.375 92.707 -7.695 93.387 C-10.828 92.939 -13.65 92.403 -16.633 91.324 C-20.231 90.223 -22.952 89.971 -26.695 90.387 C-29.303 91.909 -29.303 91.909 -30.695 94.387 C-30.779 97.719 -30.053 98.994 -27.82 101.449 C-22.092 105.001 -15.792 107.321 -9.07 108.012 C-7.957 108.135 -6.843 108.259 -5.695 108.387 C-5.365 109.047 -5.035 109.707 -4.695 110.387 C-2.286 108.781 -0.526 107.571 1.305 105.387 C2.175 100.482 1.834 97.66 -0.82 93.449 C-2.921 90.801 -3.587 90.417 -7.008 89.449 C-7.895 89.429 -8.782 89.408 -9.695 89.387 Z " fill="#000000" transform="translate(182.6953125,71.61328125)"/>
<path d="M0 0 C4.123 1.374 5.367 2.27 7.375 6.125 C8.899 13.416 6.071 18.982 2.375 25.125 C1.756 26.177 1.138 27.229 0.5 28.312 C-1.625 30.125 -1.625 30.125 -4.75 30.25 C-11.696 28.663 -19.486 24.999 -23.625 19.125 C-24.904 14.718 -25.166 11.362 -23.312 7.125 C-21.625 5.125 -21.625 5.125 -19.625 4.125 C-14.205 3.889 -14.205 3.889 -11.625 4.938 C-10.635 5.03 -10.635 5.03 -9.625 5.125 C-8.169 3.831 -6.713 2.535 -5.27 1.227 C-3.625 0.125 -3.625 0.125 0 0 Z M-3.625 3.125 C-6.985 6.54 -6.985 6.54 -7.625 11.125 C-8.677 10.444 -9.729 9.764 -10.812 9.062 C-13.421 7.568 -14.354 7.113 -17.438 7.25 C-19.785 8.022 -19.785 8.022 -21.625 10.125 C-22.109 13.752 -22.019 15.531 -19.977 18.609 C-17.375 21.393 -15.023 22.859 -11.625 24.562 C-10.594 25.097 -9.562 25.632 -8.5 26.184 C-5.753 27.367 -5.753 27.367 -3.418 26.566 C-1.225 24.804 -0.223 23.122 1.062 20.625 C1.479 19.831 1.895 19.037 2.324 18.219 C4.335 14.212 4.77 11.71 4.375 7.125 C2.77 4.602 2.77 4.602 0.375 3.125 C-0.945 3.125 -2.265 3.125 -3.625 3.125 Z " fill="#000000" transform="translate(57.625,97.875)"/>
<path d="M0 0 C2.5 1.562 2.5 1.562 4 4 C4.454 7.63 4.437 10.023 2.938 13.375 C0.033 15.811 -2.26 15.936 -6 16 C-8.948 14.654 -10.543 13.914 -12 11 C-12.352 7.201 -12.527 4.856 -10.5 1.562 C-6.979 -0.638 -4.046 -0.804 0 0 Z M-10 3 C-10.33 3.99 -10.66 4.98 -11 6 C-9.515 6.99 -9.515 6.99 -8 8 C-7.34 7.67 -6.68 7.34 -6 7 C-6.33 5.68 -6.66 4.36 -7 3 C-7.99 3 -8.98 3 -10 3 Z " fill="#000000" transform="translate(173,119)"/>
<path d="M0 0 C2.562 2.062 2.562 2.062 4 5 C4 8.779 3.833 11.007 1.375 13.938 C-2.026 15.459 -4.313 15.517 -8 15 C-11 12.938 -11 12.938 -13 10 C-13.065 6.213 -12.838 4.039 -10.438 1.062 C-6.903 -0.478 -3.784 -0.813 0 0 Z M-10 3 C-10.33 4.32 -10.66 5.64 -11 7 C-9.68 7 -8.36 7 -7 7 C-7 5.68 -7 4.36 -7 3 C-7.99 3 -8.98 3 -10 3 Z " fill="#000000" transform="translate(118,122)"/>
<path d="M0 0 C1.708 1.634 2.935 2.869 4 5 C6.025 5.652 6.025 5.652 8 6 C8.33 5.01 8.66 4.02 9 3 C9.66 3 10.32 3 11 3 C10.67 4.65 10.34 6.3 10 8 C4.585 9.231 4.585 9.231 1.625 8.062 C1.089 7.712 0.553 7.361 0 7 C-0.99 7.66 -1.98 8.32 -3 9 C-5.688 9.125 -5.688 9.125 -8 9 C-8.66 7.68 -9.32 6.36 -10 5 C-9.01 5 -8.02 5 -7 5 C-4.425 4.835 -4.425 4.835 -2 4 C-0.64 2.032 -0.64 2.032 0 0 Z " fill="#000000" transform="translate(141,131)"/>
</svg>
