<?xml version="1.0" encoding="UTF-8"?>
<!-- Generator: visioncortex VTracer 0.6.4 -->
<svg version="1.1" xmlns="http://www.w3.org/2000/svg" width="234" height="256">
<path d="M0 0 C5.35 4.499 6.813 10.263 8 17 C8.334 20.946 8.387 24.582 7.34 28.418 C6.897 31.783 7.798 33.429 9.312 36.438 C9.778 37.407 10.243 38.376 10.723 39.375 C11.355 40.674 11.355 40.674 12 42 C14.466 47.794 14.618 53.78 15 60 C16.98 60 18.96 60 21 60 C21 60.66 21 61.32 21 62 C19.02 62.33 17.04 62.66 15 63 C14.505 64.98 14.505 64.98 14 67 C15.65 67.66 17.3 68.32 19 69 C19 69.66 19 70.32 19 71 C17.453 70.722 17.453 70.722 15.875 70.438 C12.034 70.558 12.034 70.558 10.48 72.793 C9.51 74.39 8.552 75.994 7.605 77.605 C4.302 82.532 -0.73 85.482 -6 88 C-4.733 87.965 -3.466 87.93 -2.16 87.895 C-0.461 87.866 1.238 87.839 2.938 87.812 C3.768 87.787 4.599 87.762 5.455 87.736 C10.789 87.674 15.091 88.39 20.086 90.283 C22.353 91.132 24.613 91.615 27 92 C32.84 84.929 35.353 79.358 35 70 C34.267 66.399 33.372 62.865 32.461 59.305 C31.959 55.708 32.239 54.131 34 51 C36.613 48.881 38.118 48 41.5 48 C46.23 49.892 48.446 52.968 50.812 57.375 C53.651 65.99 53.257 76.383 49.402 84.586 C45.474 91.348 41.298 97.29 35 102 C35.133 102.592 35.266 103.183 35.402 103.793 C35.767 105.426 36.129 107.061 36.488 108.695 C36.849 110.322 37.23 111.944 37.625 113.562 C38.909 121.91 37.826 130.025 33.309 137.273 C25.978 146.946 15.673 149.978 4.074 151.691 C-8.994 153.003 -8.994 153.003 -13 151 C-16.415 150.416 -16.415 150.416 -20 151 C-22.372 153.85 -22.372 153.85 -24 157 C-26.799 158.399 -28.905 158.253 -32 158 C-34.559 156.147 -34.979 155.062 -36 152 C-39.711 151.708 -43.298 151.555 -47 152 C-49.876 154.375 -49.876 154.375 -52 157 C-54.5 157.625 -54.5 157.625 -57 157 C-57.66 156.216 -58.32 155.433 -59 154.625 C-63.091 151.045 -66.742 151.009 -72.039 150.457 C-75 150 -75 150 -78 148 C-78 146.06 -77.989 144.118 -77.906 142.18 C-77.884 139.7 -77.884 139.7 -79.5 136.5 C-85.538 121.549 -78.467 103.109 -73 89 C-73.58 88.83 -74.16 88.66 -74.758 88.484 C-79.766 86.931 -83.76 85.18 -88 82 C-89.33 81.041 -89.33 81.041 -90.688 80.062 C-93 78 -93 78 -94.375 75.25 C-94.911 74.507 -95.448 73.765 -96 73 C-99.626 72.583 -99.626 72.583 -103 73 C-103 72.34 -103 71.68 -103 71 C-100.525 70.505 -100.525 70.505 -98 70 C-98 68.35 -98 66.7 -98 65 C-100.31 65 -102.62 65 -105 65 C-105 64.01 -105 63.02 -105 62 C-103.02 62 -101.04 62 -99 62 C-99.062 60.928 -99.124 59.855 -99.188 58.75 C-99.199 52.37 -97.704 45.474 -94.891 39.738 C-93.551 35.62 -93.967 31.667 -94.125 27.375 C-94.287 18.988 -93.98 11.13 -88.621 4.223 C-86.506 2.627 -85.483 2.701 -82.875 3 C-76.001 4.027 -70.7 7.582 -65.438 11.938 C-63.842 13.165 -63.842 13.165 -62 14 C-60.204 13.504 -58.41 13.004 -56.62 12.487 C-53.277 11.866 -50.187 11.988 -46.789 12.121 C-46.132 12.144 -45.475 12.167 -44.797 12.191 C-42.049 12.289 -39.304 12.394 -36.56 12.569 C-27.907 13.163 -27.907 13.163 -20.007 10.071 C-17.397 7.732 -17.397 7.732 -15.224 5.246 C-10.851 0.83 -6.164 -1.009 0 0 Z M-17.062 10.75 C-21.561 14.92 -21.561 14.92 -25.438 15.625 C-26.613 15.419 -27.789 15.212 -29 15 C-40.108 13.349 -51.451 14.451 -62.426 16.703 C-63.7 16.85 -63.7 16.85 -65 17 C-67.375 14.875 -67.375 14.875 -70 12 C-74.729 8.464 -79.259 6.316 -85 5 C-88.258 7.637 -89.874 11.04 -91 15 C-91.257 18.41 -91.092 21.775 -90.938 25.188 C-90.753 32.595 -91.143 38.679 -94.027 45.625 C-95.654 49.596 -96.151 53.418 -96.188 57.688 C-96.202 58.454 -96.216 59.221 -96.23 60.012 C-96.182 62.232 -96.182 62.232 -94 64 C-94.5 66.5 -94.5 66.5 -95 69 C-94.34 69.66 -93.68 70.32 -93 71 C-92.709 71.794 -92.417 72.588 -92.117 73.406 C-89.355 79.819 -82.117 83.161 -76 85.812 C-69.698 88.256 -63.777 90 -57 90 C-57.33 90.66 -57.66 91.32 -58 92 C-61.96 91.67 -65.92 91.34 -70 91 C-75.955 104.518 -82.155 120.308 -77 135 C-76.443 135.846 -75.886 136.691 -75.312 137.562 C-73.48 140.966 -74.205 143.314 -75 147 C-72.475 148.262 -70.688 148.099 -67.875 148.062 C-66.965 148.053 -66.055 148.044 -65.117 148.035 C-64.419 148.024 -63.72 148.012 -63 148 C-63.237 147.304 -63.474 146.609 -63.719 145.892 C-64.796 142.721 -65.867 139.548 -66.938 136.375 C-67.311 135.281 -67.684 134.186 -68.068 133.059 C-68.426 131.995 -68.784 130.932 -69.152 129.836 C-69.482 128.862 -69.812 127.888 -70.152 126.884 C-71.019 123.934 -71.556 121.04 -72 118 C-69.213 120.787 -68.745 124.045 -67.75 127.75 C-64.229 142.304 -64.229 142.304 -56 154 C-53.345 153.77 -53.345 153.77 -51 153 C-46.569 141.243 -49.407 128.884 -52 117 C-51.01 117.495 -51.01 117.495 -50 118 C-49.344 120.785 -48.818 123.492 -48.375 126.312 C-48.243 127.123 -48.111 127.933 -47.975 128.767 C-46.983 135.237 -46.748 141.45 -47 148 C-43.37 148 -39.74 148 -36 148 C-35.67 137.77 -35.34 127.54 -35 117 C-34.01 117 -33.02 117 -32 117 C-32.144 118.076 -32.289 119.153 -32.438 120.262 C-34.769 137.749 -34.769 137.749 -32 155 C-30.124 155.656 -30.124 155.656 -28 156 C-19.921 150.614 -17.988 138.917 -16.188 129.938 C-15.468 126.151 -15 122.862 -15 119 C-14.01 119 -13.02 119 -12 119 C-12.182 119.742 -12.364 120.483 -12.551 121.247 C-13.371 124.602 -14.185 127.957 -15 131.312 C-15.286 132.48 -15.572 133.647 -15.867 134.85 C-16.138 135.968 -16.409 137.086 -16.688 138.238 C-16.939 139.27 -17.19 140.302 -17.449 141.365 C-18.102 144.041 -18.102 144.041 -18 147 C-17.34 147 -16.68 147 -16 147 C-15.526 145.948 -15.051 144.896 -14.562 143.812 C-11.915 139.075 -7.785 137.219 -3 135 C-3.16 133.84 -3.16 133.84 -3.324 132.656 C-4.067 126.205 -4.652 120.635 -1 115 C1.361 112.488 3.9 110.55 7 109 C7 109.99 7 110.98 7 112 C6.423 112.227 5.845 112.454 5.25 112.688 C1.439 114.91 -0.619 117.858 -2 122 C-2.457 127.833 -1.225 131.716 1 137 C0.408 137.159 -0.183 137.317 -0.793 137.48 C-6.216 139.082 -9.36 140.655 -13 145 C-12.34 146.32 -11.68 147.64 -11 149 C2.266 149.595 17.159 148.447 27.812 139.688 C34.189 131.854 35.714 124.955 35 115 C33.633 107.108 30.403 100.353 23.938 95.43 C19.065 92.295 15.351 90.868 9.492 90.938 C8.424 90.945 7.355 90.953 6.254 90.961 C5.139 90.974 4.024 90.987 2.875 91 C0.664 91.025 -1.547 91.046 -3.758 91.062 C-4.739 91.074 -5.72 91.086 -6.731 91.098 C-9 91 -9 91 -10 90 C-12.007 90.065 -12.007 90.065 -14.312 90.375 C-15.092 90.465 -15.872 90.555 -16.676 90.648 C-18.834 90.975 -20.894 91.431 -23 92 C-22.67 91.34 -22.34 90.68 -22 90 C-19.526 89.205 -17.067 88.495 -14.562 87.812 C-4.512 84.861 3.748 80.418 9 71 C8.67 70.01 8.34 69.02 8 68 C8.99 67.67 9.98 67.34 11 67 C11 65.68 11 64.36 11 63 C10.34 63 9.68 63 9 63 C9.495 62.616 9.99 62.232 10.5 61.836 C12.576 59.296 12.277 57.859 12 54.625 C11.135 46.628 8.078 39.575 4.777 32.309 C4 30 4 30 5 27 C5.818 19.066 4.605 12.137 1 5 C-0.407 3.189 -0.407 3.189 -2 2 C-8.125 2 -12.955 6.768 -17.062 10.75 Z M36.203 52.715 C34.719 55.534 34.93 56.529 35.75 59.562 C37.921 68.861 39.167 77.076 35 86 C33.509 88.225 31.95 90.277 30.207 92.309 C28.71 94.061 28.71 94.061 29 97 C29.66 97.99 30.32 98.98 31 100 C36.654 98.629 39.715 94.511 43 90 C48.557 80.781 51.064 72.676 49 62 C47.997 58.152 46.886 54.915 44.062 52 C40.91 50.472 38.801 50.235 36.203 52.715 Z " fill="#000000" transform="translate(165,48)"/>
<path d="M0 0 C4.411 2.753 7.94 6.763 10.266 11.414 C10.8 16.282 10.77 20.28 8.766 24.789 C4.634 29.128 1.06 31.144 -4.969 31.727 C-10.51 31.827 -14.607 31.512 -19.734 29.414 C-22.172 29.175 -22.172 29.175 -24.547 29.289 C-25.732 29.316 -25.732 29.316 -26.941 29.344 C-27.533 29.367 -28.125 29.39 -28.734 29.414 C-29.734 26.414 -29.734 26.414 -29.109 24.039 C-28.434 21.346 -28.434 21.346 -30.172 19.164 C-32.406 15.232 -32.415 11.839 -31.734 7.414 C-29.59 2.679 -26.797 0.173 -22.133 -1.891 C-14.664 -4.056 -7.032 -3.153 0 0 Z M-27.234 4.664 C-29.125 8.13 -29.734 10.45 -29.734 14.414 C-28.599 16.886 -27.158 19.085 -25.734 21.414 C-25.484 24.352 -25.484 24.352 -25.734 26.414 C-24.93 26.352 -24.126 26.29 -23.297 26.227 C-20.083 26.396 -18.343 26.849 -15.422 27.977 C-9.881 29.932 -5.212 29.721 0.281 27.656 C3.405 26.094 5.248 24.439 7.266 21.602 C8.545 17.523 8.54 15.519 7.266 11.414 C3.111 5.089 -1.417 1.656 -8.859 -0.082 C-15.778 -1.247 -21.945 -0.096 -27.234 4.664 Z " fill="#000000" transform="translate(205.734375,54.5859375)"/>
<path d="M0 0 C0.99 0 1.98 0 3 0 C3.66 3.3 4.32 6.6 5 10 C8.534 8.037 11.245 5.959 14 3 C14.99 3.33 15.98 3.66 17 4 C10.275 12.227 10.275 12.227 6 15 C5.01 14.67 4.02 14.34 3 14 C2.051 11.855 2.051 11.855 1.312 9.188 C1.061 8.315 0.81 7.442 0.551 6.543 C0 4 0 4 0 0 Z " fill="#000000" transform="translate(187,62)"/>
<path d="M0 0 C3 1.5 3 1.5 5 3 C4.67 3.66 4.34 4.32 4 5 C3.348 4.905 2.695 4.809 2.023 4.711 C-3.215 4.046 -7.042 3.782 -12 6 C-12 6.66 -12 7.32 -12 8 C-12.99 8 -13.98 8 -15 8 C-14.768 4.751 -13.937 3.944 -11.438 1.75 C-7.017 -0.5 -4.914 -0.546 0 0 Z " fill="#000000" transform="translate(158,97)"/>
<path d="M0 0 C3.062 1.25 3.062 1.25 5 3 C5 4.32 5 5.64 5 7 C3.989 6.484 2.979 5.969 1.938 5.438 C-2.01 3.739 -4.786 4.064 -9 5 C-9.969 5.186 -10.939 5.371 -11.938 5.562 C-12.618 5.707 -13.299 5.851 -14 6 C-14 5.01 -14 4.02 -14 3 C-9.81 -0.65 -5.28 -0.707 0 0 Z " fill="#000000" transform="translate(99,100)"/>
<path d="M0 0 C0.99 0 1.98 0 3 0 C3.66 1.32 4.32 2.64 5 4 C8.465 3.505 8.465 3.505 12 3 C11.67 4.32 11.34 5.64 11 7 C5.585 8.231 5.585 8.231 2.625 7.062 C2.089 6.712 1.552 6.361 1 6 C0.34 6.66 -0.32 7.32 -1 8 C-4.625 7.625 -4.625 7.625 -8 7 C-8.33 6.01 -8.66 5.02 -9 4 C-8.01 3.67 -7.02 3.34 -6 3 C-6 3.66 -6 4.32 -6 5 C-3.504 4.219 -3.504 4.219 -1 3 C-0.67 2.01 -0.34 1.02 0 0 Z " fill="#000000" transform="translate(122,109)"/>
</svg>
