<?xml version="1.0" encoding="UTF-8"?>
<!-- Generator: visioncortex VTracer 0.6.4 -->
<svg version="1.1" xmlns="http://www.w3.org/2000/svg" width="234" height="256">
<path d="M0 0 C2.438 0.188 2.438 0.188 5 1 C5.667 2.333 6.333 3.667 7 5 C8.011 5.495 9.021 5.99 10.062 6.5 C13 8 13 8 14.062 10 C14 12 14 12 12.625 13.312 C10.176 15.856 10.38 18.584 10 22 C9 23 9 23 6.75 23.125 C4 23 4 23 1.562 22.438 C-1.504 21.914 -3.961 22.447 -7 23 C-8.883 21.117 -8.406 18.429 -8.621 15.91 C-8.862 13.767 -8.862 13.767 -11 12 C-10.625 9.375 -10.625 9.375 -10 7 C-6.535 6.505 -6.535 6.505 -3 6 C-2.691 5.196 -2.381 4.391 -2.062 3.562 C-1 1 -1 1 0 0 Z M1 3 C0.402 3.804 -0.196 4.609 -0.812 5.438 C-3.254 8.297 -4.344 8.695 -8 9 C-7.67 9.516 -7.34 10.031 -7 10.562 C-5.68 13.78 -5.868 16.557 -6 20 C-5.397 19.905 -4.793 19.809 -4.172 19.711 C-2.973 19.545 -2.973 19.545 -1.75 19.375 C-0.567 19.201 -0.567 19.201 0.641 19.023 C3.322 18.997 4.727 19.634 7 21 C7.103 19.886 7.206 18.773 7.312 17.625 C7.539 16.429 7.766 15.233 8 14 C8.99 13.34 9.98 12.68 11 12 C11 11.34 11 10.68 11 10 C8.03 9.505 8.03 9.505 5 9 C4.34 7.02 3.68 5.04 3 3 C2.34 3 1.68 3 1 3 Z " fill="#000000" transform="translate(148,76)"/>
<path d="M0 0 C5.657 6.771 7.273 13.919 6.75 22.625 C6.513 29.764 8.154 34.506 11.531 40.871 C13.811 45.727 14.446 50.703 15 56 C16.98 56.33 18.96 56.66 21 57 C21 57.66 21 58.32 21 59 C19.546 59.371 19.546 59.371 18.062 59.75 C16.547 60.369 16.547 60.369 15 61 C14.031 63.032 14.031 63.032 14 65 C15.98 65.33 17.96 65.66 20 66 C20 66.66 20 67.32 20 68 C18.948 67.835 17.896 67.67 16.812 67.5 C13.071 67.569 13.071 67.569 11.562 69.605 C10.745 70.966 9.968 72.352 9.238 73.762 C6.309 79.057 3.022 81.89 -2.25 84.812 C-3.328 85.417 -4.405 86.022 -5.516 86.645 C-6.335 87.092 -7.155 87.539 -8 88 C-7.469 89.065 -6.938 90.13 -6.391 91.227 C4 112.437 4 112.437 4 121 C10.409 121.662 16.525 122.196 22.938 121.375 C27.484 120.858 30.164 121.246 34 124 C36.345 127.518 36.58 128.858 36 133 C33.45 136.102 31.823 137.726 28 139 C25.279 139.124 22.596 139.19 19.875 139.188 C19.113 139.188 18.351 139.189 17.567 139.189 C12.12 139.138 7.251 138.528 2 137 C2.33 139.64 2.66 142.28 3 145 C-0.985 148.273 -4.134 149.086 -9.223 149.211 C-10.008 149.239 -10.794 149.268 -11.604 149.297 C-13.247 149.349 -14.89 149.393 -16.533 149.43 C-17.71 149.476 -17.71 149.476 -18.91 149.523 C-19.623 149.543 -20.336 149.563 -21.071 149.583 C-23.508 150.11 -24.271 151.263 -26 153 C-29.687 153.188 -29.687 153.188 -33 153 C-33.66 151.68 -34.32 150.36 -35 149 C-38.63 149 -42.26 149 -46 149 C-46.66 150.32 -47.32 151.64 -48 153 C-54.503 153.375 -54.503 153.375 -56.932 151.541 C-59.352 149.737 -60.867 149.481 -63.844 149.156 C-65.219 148.988 -65.219 148.988 -66.621 148.816 C-67.571 148.712 -68.521 148.608 -69.5 148.5 C-71.387 148.293 -73.272 148.074 -75.156 147.844 C-76.406 147.707 -76.406 147.707 -77.682 147.568 C-80.37 146.909 -81.911 145.782 -84 144 C-83.66 142.422 -83.66 142.422 -83.312 140.812 C-82.96 136.506 -83.591 135.428 -86 132 C-90.4 117.826 -83.316 102.485 -77 90 C-77.797 89.625 -78.593 89.25 -79.414 88.863 C-93.096 82.255 -93.096 82.255 -96.938 75.688 C-97.618 74.801 -98.299 73.914 -99 73 C-102.669 72.499 -102.669 72.499 -106 73 C-106 72.34 -106 71.68 -106 71 C-103.525 70.01 -103.525 70.01 -101 69 C-101 67.68 -101 66.36 -101 65 C-103.31 64.67 -105.62 64.34 -108 64 C-107.67 63.34 -107.34 62.68 -107 62 C-105.02 62 -103.04 62 -101 62 C-101.046 61.285 -101.093 60.569 -101.141 59.832 C-101.443 51.496 -99.707 44.828 -97 37 C-95.971 33.497 -96.267 31.585 -97 28 C-97.564 19.961 -96.174 11.387 -92.25 4.25 C-90 2 -90 2 -86.875 1.312 C-80.025 2.528 -74.402 5.37 -69.625 10.438 C-67.489 12.354 -66.612 13.018 -63.711 12.934 C-61.776 12.535 -59.846 12.107 -57.922 11.66 C-52.676 10.777 -47.559 10.786 -42.25 10.812 C-41.268 10.812 -40.285 10.812 -39.273 10.812 C-33.763 10.85 -28.451 11.193 -23 12 C-23 11.34 -23 10.68 -23 10 C-7.094 -3.547 -7.094 -3.547 0 0 Z M-20 11 C-20.814 12.075 -20.814 12.075 -21.645 13.172 C-24 15 -24 15 -27.617 14.918 C-29.039 14.692 -30.459 14.447 -31.875 14.188 C-40.82 12.844 -49.371 12.676 -58.254 14.766 C-65.984 16.584 -65.984 16.584 -69.242 14.711 C-71.25 12.875 -71.25 12.875 -73.125 10.891 C-76.763 7.223 -81.899 4.841 -87 4 C-90.81 6.54 -92.178 10.064 -93.469 14.293 C-94.612 20.118 -94.877 26.72 -93.336 32.484 C-92.864 36.015 -94.018 38.231 -95.375 41.5 C-98.004 48.39 -98.866 54.66 -99 62 C-98.01 62.33 -97.02 62.66 -96 63 C-96 63.66 -96 64.32 -96 65 C-96.66 65 -97.32 65 -98 65 C-97.67 66.32 -97.34 67.64 -97 69 C-96.34 69 -95.68 69 -95 69 C-95.268 69.536 -95.536 70.072 -95.812 70.625 C-96.256 73.229 -96.256 73.229 -94.188 75.875 C-86.352 84.446 -74.098 88.742 -62.934 90.605 C-61 91 -61 91 -60 92 C-64.29 91.67 -68.58 91.34 -73 91 C-80.473 100.559 -85.003 113.315 -84.445 125.574 C-83.813 129.02 -82.414 131.883 -80.824 134.984 C-79.64 137.881 -80.098 140.069 -81 143 C-77.184 145.47 -73.149 145.438 -68.75 145.625 C-66.192 145.749 -63.635 145.873 -61 146 C-65.95 131.15 -65.95 131.15 -71 116 C-70.01 116 -69.02 116 -68 116 C-67.794 117.134 -67.588 118.269 -67.375 119.438 C-65.047 129.84 -61.677 141.566 -55 150 C-53.033 150.842 -53.033 150.842 -51 151 C-48.332 149.476 -47.283 147.968 -46.422 145.02 C-44.968 135.078 -47.37 124.808 -49 115 C-48.34 115 -47.68 115 -47 115 C-45.121 125.323 -44.446 135.534 -44 146 C-41.69 146 -39.38 146 -37 146 C-36.951 144.768 -36.902 143.535 -36.852 142.266 C-36.448 133.047 -35.863 124.064 -34 115 C-33.34 115 -32.68 115 -32 115 C-32.091 115.564 -32.182 116.128 -32.275 116.709 C-32.69 119.305 -33.095 121.902 -33.5 124.5 C-33.643 125.387 -33.786 126.274 -33.934 127.188 C-35.197 135.37 -36.247 142.569 -32 150 C-30.201 151.492 -30.201 151.492 -28 151 C-22.947 146.938 -21.076 142.216 -18.812 136.25 C-18.47 135.394 -18.128 134.538 -17.775 133.656 C-15.632 128.162 -14.142 122.786 -13 117 C-12.01 117 -11.02 117 -10 117 C-11.1 120.189 -12.206 123.376 -13.312 126.562 C-13.621 127.458 -13.93 128.353 -14.248 129.275 C-15.625 133.234 -17.018 137.138 -18.73 140.965 C-20.193 143.913 -20.193 143.913 -20 147 C-17.603 146.885 -15.208 146.759 -12.812 146.625 C-11.802 146.579 -11.802 146.579 -10.771 146.531 C-6.803 146.299 -3.593 145.716 0 144 C-0.66 143.01 -1.32 142.02 -2 141 C-1.712 138.765 -1.137 137.229 0.02 135.297 C3.79 126.463 0.706 115.164 -2.43 106.672 C-6.209 96.5 -6.209 96.5 -13 89 C-15.057 89.407 -17.098 89.898 -19.125 90.438 C-20.221 90.725 -21.316 91.012 -22.445 91.309 C-23.71 91.651 -23.71 91.651 -25 92 C-25 91.01 -25 90.02 -25 89 C-23.763 88.938 -22.525 88.876 -21.25 88.812 C-11.062 87.657 -1.33 82.751 5.633 75.238 C7.868 72.423 9.045 70.71 8.812 67.062 C8.544 66.382 8.276 65.701 8 65 C8.99 65 9.98 65 11 65 C11 63.68 11 62.36 11 61 C10.34 61 9.68 61 9 61 C9.495 60.595 9.99 60.19 10.5 59.773 C12.172 58.125 12.172 58.125 12.25 55.977 C11.35 47.511 8.746 39.118 4 32 C3.959 29.122 4.009 26.309 4.125 23.438 C4.284 16.277 3.84 10.278 0 4 C-0.99 3.01 -0.99 3.01 -2 2 C-8.988 2 -14.868 6.455 -20 11 Z M4 124 C4 126.97 4 129.94 4 133 C12.13 136.667 19.829 138.753 28.5 135.5 C29.655 135.005 30.81 134.51 32 134 C32.33 131.69 32.66 129.38 33 127 C30.46 124.511 29.301 124.004 25.68 123.961 C24.424 124.098 23.169 124.234 21.875 124.375 C15.735 124.961 10.113 124.846 4 124 Z " fill="#000000" transform="translate(125,85)"/>
<path d="M0 0 C0.124 0.928 0.124 0.928 0.25 1.875 C0.813 4.184 0.813 4.184 3.062 5.25 C3.702 5.498 4.341 5.745 5 6 C5 6.99 5 7.98 5 9 C4.01 9.495 4.01 9.495 3 10 C2.273 11.979 1.602 13.98 1 16 C-0.605 15.913 -2.209 15.804 -3.812 15.688 C-4.706 15.629 -5.599 15.571 -6.52 15.512 C-9.385 14.921 -10.364 14.411 -12 12 C-12.293 9.738 -12.293 9.738 -12.188 7.312 C-12.16 6.504 -12.133 5.696 -12.105 4.863 C-12.071 4.248 -12.036 3.634 -12 3 C-10.758 2.298 -9.506 1.614 -8.25 0.938 C-7.206 0.363 -7.206 0.363 -6.141 -0.223 C-3.639 -1.131 -2.467 -0.883 0 0 Z M-4 2 C-4.33 2.66 -4.66 3.32 -5 4 C-5.99 4.33 -6.98 4.66 -8 5 C-8.33 7.31 -8.66 9.62 -9 12 C-8.237 12 -7.474 12 -6.688 12 C-4.792 12 -2.896 12 -1 12 C0.305 9.782 0.305 9.782 1 7 C-0.119 4.161 -0.119 4.161 -2 2 C-2.66 2 -3.32 2 -4 2 Z " fill="#000000" transform="translate(165,103)"/>
<path d="M0 0 C2.5 2.062 2.5 2.062 4 4 C0.25 5.125 0.25 5.125 -2 4 C-6.899 3.637 -9.273 3.805 -13 7 C-13.99 7 -14.98 7 -16 7 C-15.621 4.254 -15.222 3.2 -13.125 1.312 C-8.779 -1.372 -4.829 -1.302 0 0 Z " fill="#000000" transform="translate(116,136)"/>
<path d="M0 0 C2.938 1.25 2.938 1.25 5 3 C5.812 5.188 5.812 5.188 6 7 C5.299 6.691 4.597 6.381 3.875 6.062 C-1.491 4.079 -4.76 3.592 -10 6 C-10.99 6 -11.98 6 -13 6 C-10.357 -0.1 -6.254 -0.792 0 0 Z " fill="#000000" transform="translate(56,139)"/>
<path d="M0 0 C3 1 3 1 5 4 C8.465 3.505 8.465 3.505 12 3 C11.125 6.875 11.125 6.875 10 8 C7.663 7.697 5.329 7.361 3 7 C-0.411 7 -3.631 7.491 -7 8 C-7.66 6.68 -8.32 5.36 -9 4 C-6.69 4 -4.38 4 -2 4 C-1.34 2.68 -0.68 1.36 0 0 Z " fill="#000000" transform="translate(80,144)"/>
</svg>
