<?xml version="1.0" encoding="UTF-8"?>
<!-- Generator: visioncortex VTracer 0.6.4 -->
<svg version="1.1" xmlns="http://www.w3.org/2000/svg" width="234" height="256">
<path d="M0 0 C5.859 1.164 12.476 4.15 16.363 8.738 C18.428 10.85 18.428 10.85 21.785 10.441 C23.079 10.209 24.374 9.977 25.707 9.738 C36.398 8.054 46.675 7.565 57.332 9.926 C61.036 10.594 62.786 10.811 66.203 9.168 C67.899 7.934 69.56 6.65 71.18 5.316 C75.271 2.032 79.543 0.901 84.645 -0.199 C88.041 0.631 88.411 1.387 90.27 4.238 C93.317 9.564 93.594 13.857 93.582 19.988 C93.586 21.953 93.586 21.953 93.59 23.957 C93.457 27.488 93.457 27.488 92.801 29.555 C92.241 32.705 93.619 35.027 94.832 37.926 C98.423 46.582 99.922 55.243 97.457 64.488 C99.107 64.818 100.757 65.148 102.457 65.488 C101.962 66.973 101.962 66.973 101.457 68.488 C100.591 68.323 99.725 68.158 98.832 67.988 C95.491 68.123 95.491 68.123 94.004 70.059 C93.025 71.474 92.054 72.895 91.09 74.32 C87.194 79.493 81.342 82.966 75.457 85.488 C74.797 85.488 74.137 85.488 73.457 85.488 C74.011 86.657 74.566 87.827 75.137 89.031 C75.869 90.579 76.6 92.128 77.332 93.676 C77.697 94.445 78.062 95.214 78.438 96.006 C80.226 99.795 81.965 103.57 83.457 107.488 C88.35 106.09 90.543 103.584 93.457 99.488 C96.324 93.482 96.127 86.654 94.77 80.238 C94.342 76.472 95.398 74.613 97.457 71.488 C99.964 69.5 101.24 69.484 104.457 69.551 C108.315 70.757 109.368 72.056 111.457 75.488 C114.864 84.345 114.068 92.837 110.457 101.488 C105.005 111.866 97.498 117.846 86.457 121.488 C86.408 122.164 86.359 122.839 86.309 123.535 C86.234 124.427 86.159 125.319 86.082 126.238 C86.012 127.12 85.943 128.002 85.871 128.91 C85.457 131.488 85.457 131.488 84.406 133.562 C83.291 135.826 83.391 137.071 83.645 139.551 C83.552 141.5 83.552 141.5 83.457 143.488 C78.84 147.429 73.295 147.231 67.52 147.66 C63.25 147.964 63.25 147.964 59.605 149.988 C59.226 150.483 58.847 150.978 58.457 151.488 C55.707 152.488 55.707 152.488 52.457 152.488 C50.758 151.395 50.758 151.395 49.02 149.988 C46.125 147.678 45.679 147.488 41.707 147.488 C38.504 148.186 38.504 148.186 36.957 150.051 C35.457 151.488 35.457 151.488 31.957 151.801 C28.457 151.488 28.457 151.488 25.457 149.488 C25.457 148.828 25.457 148.168 25.457 147.488 C24.432 147.511 23.407 147.535 22.352 147.559 C20.991 147.577 19.63 147.596 18.27 147.613 C17.596 147.63 16.922 147.647 16.229 147.664 C12.173 147.704 9.067 147.376 5.457 145.488 C4.797 144.828 4.137 144.168 3.457 143.488 C3.663 142.478 3.87 141.467 4.082 140.426 C4.467 136.38 4.281 135.677 2.52 132.301 C-2.774 121.344 1.383 108.443 5.137 97.507 C6.482 93.795 7.935 90.131 9.457 86.488 C8.063 85.835 8.063 85.835 6.641 85.168 C-8.735 77.818 -8.735 77.818 -13.043 71.176 C-15.412 68.51 -18.128 68.746 -21.543 68.488 C-21.213 67.498 -20.883 66.508 -20.543 65.488 C-18.893 65.488 -17.243 65.488 -15.543 65.488 C-15.894 64.581 -16.244 63.673 -16.605 62.738 C-18.959 54.338 -16.737 45.889 -13.48 38.059 C-11.499 32.627 -11.501 27.444 -11.668 21.738 C-11.767 14.823 -11.692 7.399 -7.152 1.762 C-4.9 -0.021 -2.81 -0.099 0 0 Z M-3.543 2.488 C-8.906 8.826 -9.979 16.348 -9.543 24.488 C-9.421 25.187 -9.298 25.886 -9.172 26.605 C-8.242 32.148 -8.972 35.236 -11.484 40.234 C-14.807 47.308 -15.688 55.481 -13.543 62.988 C-13.213 63.813 -12.883 64.638 -12.543 65.488 C-11.883 65.488 -11.223 65.488 -10.543 65.488 C-10.873 66.478 -11.203 67.468 -11.543 68.488 C-6.846 77.265 3.847 81.682 12.762 84.742 C16.672 85.825 20.412 86.223 24.457 86.488 C24.457 87.478 24.457 88.468 24.457 89.488 C22.504 88.967 20.551 88.447 18.598 87.926 C16.168 87.355 16.168 87.355 12.457 87.488 C3.188 108.129 3.188 108.129 4.359 130.016 C5.331 131.873 6.388 133.685 7.457 135.488 C7.457 138.155 7.457 140.822 7.457 143.488 C10.742 144.583 13.194 144.588 16.645 144.551 C17.731 144.542 18.818 144.533 19.938 144.523 C20.769 144.512 21.6 144.5 22.457 144.488 C22.278 143.954 22.099 143.419 21.915 142.869 C19.989 137.104 18.076 131.335 16.207 125.551 C15.926 124.702 15.645 123.853 15.355 122.979 C15.095 122.168 14.835 121.358 14.566 120.523 C14.21 119.431 14.21 119.431 13.847 118.317 C13.457 116.488 13.457 116.488 14.457 114.488 C14.673 115.133 14.889 115.777 15.112 116.441 C16.115 119.418 17.13 122.39 18.145 125.363 C18.484 126.376 18.824 127.39 19.174 128.434 C22.399 138.408 22.399 138.408 27.457 147.488 C30.015 148.792 30.015 148.792 32.457 149.488 C36.114 146.185 37.213 144.132 37.66 139.289 C37.826 130.48 36.152 122.093 34.457 113.488 C35.447 113.983 35.447 113.983 36.457 114.488 C39.173 124.234 39.097 134.434 39.457 144.488 C41.437 144.488 43.417 144.488 45.457 144.488 C46.443 141.531 46.503 139.92 46.395 136.863 C46.299 128.999 47.435 121.269 48.457 113.488 C49.447 113.488 50.437 113.488 51.457 113.488 C50.969 115.344 50.48 117.199 49.992 119.055 C48.744 124.731 48.278 130.309 48.207 136.113 C48.181 137.384 48.155 138.655 48.129 139.965 C48.476 143.695 49.206 145.536 51.457 148.488 C53.328 149.727 53.328 149.727 55.457 149.488 C64.174 141.943 66.724 128.281 69.457 117.488 C69.457 116.498 69.457 115.508 69.457 114.488 C70.447 114.488 71.437 114.488 72.457 114.488 C72.184 115.326 71.912 116.164 71.631 117.027 C70.622 120.131 69.616 123.236 68.612 126.341 C68.176 127.686 67.74 129.03 67.302 130.375 C66.674 132.305 66.05 134.236 65.426 136.168 C65.049 137.331 64.672 138.493 64.283 139.691 C63.363 142.322 63.363 142.322 63.457 144.488 C72.146 144.805 72.146 144.805 80.457 142.488 C80.23 141.601 80.003 140.715 79.77 139.801 C79.457 136.488 79.457 136.488 80.832 134.301 C85.073 126.96 83.519 118.704 81.503 110.85 C79.155 102.644 75.322 95.068 71.457 87.488 C70.04 87.631 68.623 87.777 67.207 87.926 C66.418 88.007 65.629 88.088 64.816 88.172 C62.633 88.465 60.58 88.909 58.457 89.488 C58.457 88.498 58.457 87.508 58.457 86.488 C59.695 86.426 60.932 86.365 62.207 86.301 C73.758 84.975 83.11 78.962 91.082 70.801 C92.703 68.601 92.703 68.601 92.207 66.176 C91.96 65.619 91.712 65.062 91.457 64.488 C92.447 64.158 93.437 63.828 94.457 63.488 C97.185 55.303 95.622 46.331 92.457 38.488 C91.859 37.478 91.261 36.467 90.645 35.426 C89.108 31.626 89.865 29.567 90.895 25.707 C92.602 18.972 90.867 12.812 88.457 6.488 C87.467 5.003 87.467 5.003 86.457 3.488 C80.512 2.299 75.385 5.453 70.457 8.488 C69.519 9.447 68.599 10.424 67.707 11.426 C63.037 14.39 59.873 13.098 54.586 12.117 C44.638 10.406 33.201 10.4 23.465 13.148 C20.041 13.728 17.424 13.127 14.535 11.219 C13.932 10.71 13.329 10.2 12.707 9.676 C7.98 5.953 2.616 2.488 -3.543 2.488 Z M99.145 73.988 C97.071 77.06 97.454 78.734 98.078 82.289 C99.403 89.979 98.495 96.717 94.457 103.488 C91.512 106.695 88.368 109.533 84.457 111.488 C84.787 113.798 85.117 116.108 85.457 118.488 C94.437 116.316 101.085 111.696 106.164 103.852 C110.061 96.338 112.221 87.743 109.855 79.355 C108.718 76.609 107.566 74.597 105.457 72.488 C101.557 72.125 101.557 72.125 99.145 73.988 Z " fill="#000000" transform="translate(59.54296875,80.51171875)"/>
<path d="M0 0 C2.657 1.497 4.847 2.847 7 5 C8.393 5.132 9.79 5.231 11.188 5.312 C16.753 5.888 20.101 7.911 23.875 12.062 C25.902 17.355 26.159 23.018 24.086 28.352 C20.979 33.703 17.114 36.684 11.402 39.098 C7.017 40.261 3.01 40.178 -1.5 40.062 C-6.806 39.951 -11.771 39.905 -17 41 C-16.881 40.348 -16.763 39.695 -16.641 39.023 C-15.741 33.084 -15.741 33.084 -17.875 27.562 C-18.576 26.717 -19.278 25.871 -20 25 C-21.675 19.974 -22.001 14.745 -20.164 9.707 C-15.753 1.817 -8.803 -1.136 0 0 Z M-16.375 8.625 C-18.714 13.482 -18.954 17.845 -17.387 23.027 C-16.199 25.909 -14.728 28.407 -13 31 C-13.375 34.188 -13.375 34.188 -14 37 C3.006 38.487 3.006 38.487 18 32 C21.628 27.93 22.904 24.45 23 19 C21.529 14.356 20.227 11.482 16 9 C13.573 8.824 13.573 8.824 11.062 9.125 C6.969 9.276 6.352 9.286 3 6.562 C2.34 5.717 1.68 4.871 1 4 C-5.487 0.757 -11.877 3.653 -16.375 8.625 Z " fill="#000000" transform="translate(178,87)"/>
<path d="M0 0 C4.556 1.556 4.556 1.556 6 3 C7.114 3.103 8.227 3.206 9.375 3.312 C13 4 13 4 15 5.75 C16 8 16 8 16.062 10.438 C14.283 14.729 10.764 16.878 6.938 19.312 C4.545 20.161 2.519 20.14 0 20 C-4.888 11.043 -4.888 11.043 -5 6 C-2.87 1.435 -2.87 1.435 0 0 Z M-1 4 C-1.274 9.394 -1.361 12.519 2 17 C6.993 15.723 9.576 13.827 13 10 C12.67 9.01 12.34 8.02 12 7 C9.108 5.667 9.108 5.667 6.812 6.938 C6.214 7.288 5.616 7.639 5 8 C4.34 6.68 3.68 5.36 3 4 C1.68 4 0.36 4 -1 4 Z " fill="#000000" transform="translate(174,98)"/>
<path d="M0 0 C3 2.562 3 2.562 5 5 C4.67 5.66 4.34 6.32 4 7 C2 6 -0 5 -2 4 C-7.026 3.621 -9.899 4.017 -14 7 C-14.33 5.68 -14.66 4.36 -15 3 C-10.135 -0.859 -6.056 -1.779 0 0 Z " fill="#000000" transform="translate(78,130)"/>
<path d="M0 0 C5.594 2.955 5.594 2.955 6.875 6.25 C6.916 6.827 6.958 7.405 7 8 C4.038 7.387 2.619 6.746 0 5 C-3.5 4.583 -3.5 4.583 -7 5 C-8.751 6.417 -8.751 6.417 -10 8 C-10.99 8 -11.98 8 -13 8 C-12.875 6.25 -12.875 6.25 -12 4 C-8.02 0.668 -5.195 -0.866 0 0 Z " fill="#000000" transform="translate(130,129)"/>
<path d="M0 0 C3 1 3 1 5 4 C8.584 4.25 8.584 4.25 12 4 C8.631 17.43 8.631 17.43 6 21 C2.562 22.125 2.562 22.125 -1 22 C-5.176 19.291 -5.99 15.715 -7 11 C-7 9.68 -7 8.36 -7 7 C-7.66 7 -8.32 7 -9 7 C-9 6.01 -9 5.02 -9 4 C-6.69 4 -4.38 4 -2 4 C-1.34 2.68 -0.68 1.36 0 0 Z M0 6 C-0.99 6.66 -1.98 7.32 -3 8 C-3.619 12.639 -2.668 15.22 0 19 C1.95 18.805 1.95 18.805 4 18 C6.355 14.82 6.175 11.849 6 8 C3.163 6.804 3.163 6.804 0 6 Z " fill="#000000" transform="translate(99,136)"/>
</svg>
