<?xml version="1.0" encoding="UTF-8"?>
<!-- Generator: visioncortex VTracer 0.6.4 -->
<svg version="1.1" xmlns="http://www.w3.org/2000/svg" width="234" height="256">
<path d="M0 0 C5.176 2.903 7.311 8.316 9.059 13.762 C9.669 17.006 9.524 19.955 9.375 23.25 C9.177 30.006 10.903 34.313 14.25 40.109 C15.562 42.438 15.562 42.438 15.562 44.438 C16.841 44.499 18.12 44.561 19.438 44.625 C28.755 45.694 35.526 50.502 41.562 57.438 C44.899 55.869 46.672 54.679 48.562 51.438 C49.974 46.55 49.365 43.158 47.562 38.438 C45.826 35.973 44.124 33.937 41.875 31.938 C39.998 29.792 39.697 28.272 39.562 25.438 C41.184 21.951 42.327 20.594 45.562 18.438 C51.444 18.322 54.644 20.458 58.766 24.332 C63.634 30.037 65.975 37.646 65.836 45.098 C64.735 54.517 60.155 61.941 52.848 67.816 C49.112 70.438 49.112 70.438 46.562 70.438 C46.82 71.23 46.82 71.23 47.082 72.039 C47.689 75.071 47.491 77.731 47.25 80.812 C47.171 81.913 47.093 83.014 47.012 84.148 C46.561 87.452 45.717 90.317 44.562 93.438 C45.068 93.729 45.573 94.02 46.094 94.32 C51.374 97.652 51.374 97.652 52.312 101.562 C51.562 104.438 51.562 104.438 49.625 106.188 C42.492 109.099 35.975 109.63 28.375 109.688 C27.603 109.697 26.83 109.706 26.034 109.716 C24.913 109.709 24.913 109.709 23.77 109.703 C23.104 109.701 22.439 109.699 21.753 109.696 C19.562 109.438 19.562 109.438 16.666 108.422 C13.415 107.391 11.092 107.268 7.703 107.426 C6.043 107.495 6.043 107.495 4.35 107.565 C3.182 107.626 2.015 107.687 0.812 107.75 C-0.396 107.807 -1.604 107.864 -2.85 107.923 C-5.272 108.038 -7.694 108.158 -10.115 108.282 C-12.927 108.414 -15.733 108.503 -18.547 108.559 C-27.342 108.783 -35.126 110.208 -43.587 112.622 C-60.031 117.241 -60.031 117.241 -67.75 114.082 C-70.438 112.438 -70.438 112.438 -71.625 110.125 C-71.342 106.075 -69.204 104.268 -66.438 101.438 C-65.778 101.108 -65.118 100.778 -64.438 100.438 C-65.144 100.705 -65.85 100.972 -66.577 101.248 C-69.78 102.459 -72.984 103.667 -76.188 104.875 C-77.299 105.296 -78.41 105.717 -79.555 106.15 C-80.625 106.553 -81.695 106.956 -82.797 107.371 C-84.274 107.929 -84.274 107.929 -85.78 108.498 C-91.01 110.347 -95.892 111.169 -101.438 110.438 C-104.062 108.75 -104.062 108.75 -105.438 106.438 C-105.527 102.96 -104.658 101.683 -102.34 99.102 C-99.065 96.095 -95.649 93.679 -91.938 91.25 C-90.961 90.594 -90.961 90.594 -89.965 89.924 C-86.556 87.669 -83.33 85.777 -79.438 84.438 C-79.438 83.778 -79.438 83.118 -79.438 82.438 C-80.118 82.231 -80.799 82.025 -81.5 81.812 C-86.504 79.47 -90.381 76.022 -93.438 71.438 C-97.021 71.187 -97.021 71.187 -100.438 71.438 C-100.108 70.447 -99.778 69.457 -99.438 68.438 C-97.787 68.438 -96.138 68.438 -94.438 68.438 C-94.933 65.963 -94.933 65.963 -95.438 63.438 C-97.748 63.108 -100.058 62.778 -102.438 62.438 C-102.438 61.778 -102.438 61.118 -102.438 60.438 C-100.127 60.438 -97.817 60.438 -95.438 60.438 C-95.496 59.89 -95.554 59.342 -95.613 58.777 C-95.941 53.012 -94.974 48.722 -92.938 43.312 C-90.582 37.035 -90.146 31.75 -90.386 25.09 C-90.627 17.099 -88.896 9.52 -83.438 3.438 C-80.477 2.227 -78.661 2.062 -75.59 3.004 C-69.744 5.596 -64.784 9.789 -60.438 14.438 C-60.438 15.097 -60.438 15.757 -60.438 16.438 C-59.495 16.224 -59.495 16.224 -58.534 16.007 C-49.482 14.139 -40.595 14.162 -31.381 14.311 C-25.029 14.444 -25.029 14.444 -19.431 11.944 C-17.884 10.132 -17.884 10.132 -16.618 8.181 C-14.939 5.701 -12.832 4.512 -10.25 3.062 C-9.411 2.58 -8.572 2.098 -7.707 1.602 C-3.162 -0.73 -3.162 -0.73 0 0 Z M-13.438 8.438 C-14.516 9.869 -15.559 11.327 -16.562 12.812 C-18.878 15.617 -19.895 16.361 -23.547 16.875 C-25.474 16.843 -27.403 16.807 -29.326 16.687 C-33.923 16.406 -38.214 16.568 -42.793 17.133 C-43.9 17.263 -45.007 17.392 -46.147 17.526 C-48.35 17.796 -50.549 18.097 -52.744 18.431 C-60.334 19.287 -60.334 19.287 -63.575 16.791 C-65.322 14.745 -66.871 12.624 -68.438 10.438 C-70.776 8.526 -70.776 8.526 -73.062 7.375 C-73.777 6.972 -74.491 6.568 -75.227 6.152 C-78.074 5.232 -79.635 5.415 -82.438 6.438 C-83.856 8.153 -83.856 8.153 -84.688 10.312 C-85.002 11.011 -85.317 11.71 -85.641 12.43 C-87.203 16.365 -87.457 19.366 -87.322 23.595 C-87.106 30.822 -87.113 36.8 -90.465 43.395 C-92.456 47.577 -92.555 51.68 -92.5 56.25 C-92.491 57.226 -92.482 58.202 -92.473 59.207 C-92.461 59.943 -92.449 60.679 -92.438 61.438 C-91.447 61.438 -90.457 61.438 -89.438 61.438 C-89.438 62.097 -89.438 62.757 -89.438 63.438 C-90.428 63.438 -91.418 63.438 -92.438 63.438 C-90.566 71.457 -87.521 75.122 -80.73 79.551 C-62.258 89.974 -32.019 90.89 -11.688 85.812 C-1.46 82.355 7.225 77.959 12.738 68.398 C13.84 65.778 13.308 64.122 12.562 61.438 C13.222 61.438 13.882 61.438 14.562 61.438 C14.562 60.118 14.562 58.797 14.562 57.438 C13.903 57.438 13.243 57.438 12.562 57.438 C12.562 56.778 12.562 56.118 12.562 55.438 C13.222 55.438 13.882 55.438 14.562 55.438 C14.24 47.869 13.198 39.461 7.918 33.617 C5.95 30.452 6.498 27.512 6.75 23.938 C7.039 16.159 5.51 9.713 0.562 3.438 C-4.546 0.836 -9.439 5.38 -13.438 8.438 Z M43.562 22.562 C42.396 24.414 42.396 24.414 42.5 26.688 C43.791 30.028 45.656 32.102 48.09 34.691 C51.678 38.945 51.94 42.556 51.812 47.973 C51.201 54.004 47.876 57.474 43.562 61.438 C44.222 63.417 44.882 65.398 45.562 67.438 C52.535 65.182 57.04 60.727 60.562 54.438 C63.206 47.433 63.788 40.797 60.938 33.812 C58.782 29.501 56.363 25.481 52.562 22.438 C47.934 21.005 47.934 21.005 43.562 22.562 Z M16.562 47.438 C17.058 50.407 17.058 50.407 17.562 53.438 C21.028 52.942 21.028 52.942 24.562 52.438 C24.562 53.428 24.562 54.418 24.562 55.438 C22.252 55.767 19.942 56.097 17.562 56.438 C18.058 58.912 18.058 58.912 18.562 61.438 C20.213 61.438 21.863 61.438 23.562 61.438 C23.562 62.097 23.562 62.757 23.562 63.438 C21.252 63.438 18.942 63.438 16.562 63.438 C16.199 64.246 15.835 65.054 15.461 65.887 C10.26 76.943 3.868 81.944 -7.438 86.438 C-14.415 88.35 -21.276 89.447 -28.5 89.688 C-34.697 90.101 -39.223 92.531 -44.625 95.461 C-49.514 98.084 -54.668 100.05 -59.841 102.04 C-64.756 103.879 -64.756 103.879 -68.438 107.438 C-68.442 109.585 -68.442 109.585 -67.438 111.438 C-61.134 113.539 -54.831 112.367 -48.5 110.875 C-47.755 110.705 -47.01 110.535 -46.243 110.36 C-35.21 107.772 -24.324 104.575 -13.438 101.438 C-14.428 102.757 -15.417 104.077 -16.438 105.438 C-8.384 105.583 -0.459 105.152 7.562 104.438 C8.794 100.744 8.223 98.274 7.621 94.496 C7.602 93.817 7.582 93.137 7.562 92.438 C8.553 91.447 8.553 91.447 9.562 90.438 C9.504 91.029 9.446 91.621 9.387 92.23 C9.135 96.634 9.038 98.733 11.75 102.375 C20.458 108.761 30.142 107.628 40.363 106.105 C43.3 105.492 45.828 104.653 48.562 103.438 C48.233 101.787 47.903 100.137 47.562 98.438 C46.105 97.934 44.647 97.435 43.188 96.938 C42.375 96.659 41.563 96.381 40.727 96.094 C38.62 95.341 38.62 95.341 36.562 95.438 C36.067 93.457 36.067 93.457 35.562 91.438 C37.213 92.097 38.863 92.757 40.562 93.438 C44.967 85.012 45.888 77.452 43.312 68.188 C40.531 59.971 35.201 53.386 27.441 49.328 C23.779 47.86 20.502 47.068 16.562 47.438 Z M-83.062 88.938 C-83.67 89.296 -84.277 89.655 -84.903 90.025 C-95.499 95.455 -95.499 95.455 -102.23 104.176 C-102.299 104.922 -102.367 105.669 -102.438 106.438 C-98.979 108.743 -98.501 108.617 -94.605 107.883 C-87.695 106.464 -81.281 103.931 -74.75 101.312 C-73.56 100.845 -72.369 100.377 -71.143 99.895 C-68.237 98.751 -65.336 97.599 -62.438 96.438 C-62.438 95.118 -62.438 93.798 -62.438 92.438 C-61.736 93.283 -61.035 94.129 -60.312 95 C-57.731 97.691 -57.731 97.691 -54.812 97.562 C-49.842 95.906 -45.153 93.711 -40.438 91.438 C-40.438 91.108 -40.438 90.778 -40.438 90.438 C-41.473 90.317 -41.473 90.317 -42.53 90.194 C-45.687 89.823 -48.844 89.443 -52 89.062 C-53.086 88.936 -54.172 88.81 -55.291 88.68 C-64.368 87.576 -64.368 87.576 -68.402 86.336 C-74.459 84.543 -77.772 85.754 -83.062 88.938 Z " fill="#000000" transform="translate(143.4375,63.5625)"/>
<path d="" fill="#000000" transform="translate(0,0)"/>
<path d="M0 0 C2.438 1.562 2.438 1.562 4 3 C3.67 3.99 3.34 4.98 3 6 C1.979 5.505 1.979 5.505 0.938 5 C-3.563 3.468 -7.502 3.501 -12 5 C-12 5.66 -12 6.32 -12 7 C-12.99 7 -13.98 7 -15 7 C-14.621 4.254 -14.222 3.2 -12.125 1.312 C-7.806 -1.355 -4.865 -1.024 0 0 Z " fill="#000000" transform="translate(138,117)"/>
<path d="M0 0 C0.99 0 1.98 0 3 0 C2.736 3.257 2.433 4.62 -0.062 6.812 C-3.849 8.343 -6.969 8.61 -11 8 C-14 6.688 -14 6.688 -16 5 C-16 4.01 -16 3.02 -16 2 C-15.464 2.144 -14.927 2.289 -14.375 2.438 C-13.591 2.623 -12.808 2.809 -12 3 C-11.051 3.227 -10.103 3.454 -9.125 3.688 C-5.546 4.045 -3.304 3.337 0 2 C0 1.34 0 0.68 0 0 Z " fill="#000000" transform="translate(85,119)"/>
<path d="M0 0 C3 1 3 1 4 3 C5.98 2.67 7.96 2.34 10 2 C10.33 2.66 10.66 3.32 11 4 C10 5.562 10 5.562 8 7 C6.015 6.772 4.03 6.535 2.062 6.188 C-0.895 5.919 -3.232 7.035 -6 8 C-6.99 7.34 -7.98 6.68 -9 6 C-9 5.01 -9 4.02 -9 3 C-6.03 3.495 -6.03 3.495 -3 4 C-2.01 2.68 -1.02 1.36 0 0 Z " fill="#000000" transform="translate(106,126)"/>
</svg>
