<?xml version="1.0" encoding="UTF-8"?>
<!-- Generator: visioncortex VTracer 0.6.4 -->
<svg version="1.1" xmlns="http://www.w3.org/2000/svg" width="234" height="256">
<path d="M0 0 C4.932 2.789 7.1 7.217 8.762 12.438 C9.397 16.022 9.225 19.477 9.078 23.094 C8.836 29.942 10.295 34.345 13.73 40.242 C16.432 45.59 17.276 51.413 18.266 57.281 C20.246 57.281 22.226 57.281 24.266 57.281 C24.266 58.271 24.266 59.261 24.266 60.281 C21.296 60.776 21.296 60.776 18.266 61.281 C17.936 62.931 17.606 64.581 17.266 66.281 C20.236 66.776 20.236 66.776 23.266 67.281 C23.266 67.941 23.266 68.601 23.266 69.281 C22.214 69.116 21.162 68.951 20.078 68.781 C16.354 68.833 16.354 68.833 15.004 70.781 C14.228 72.174 13.464 73.573 12.707 74.977 C9.39 80.28 4.428 84.371 -1.297 86.781 C-2.101 86.946 -2.906 87.111 -3.734 87.281 C-2.084 89.921 -0.434 92.561 1.266 95.281 C1.946 94.456 2.627 93.631 3.328 92.781 C6.266 90.281 6.266 90.281 9.703 89.656 C14.256 90.455 16.126 91.922 19.266 95.281 C22.21 102.527 22.646 110.129 20.168 117.582 C17.191 123.956 13.965 128.178 8.266 132.281 C9.586 132.645 9.586 132.645 10.934 133.016 C12.095 133.351 13.256 133.686 14.453 134.031 C15.602 134.356 16.75 134.681 17.934 135.016 C21.949 136.541 25.294 138.339 27.266 142.281 C27.553 145.512 27.422 147.843 26.328 150.906 C20.993 157.049 12.389 158.073 4.703 158.969 C3.828 159.085 2.954 159.202 2.053 159.322 C-11.592 161.051 -25.246 161.448 -38.98 161.412 C-41.365 161.406 -43.749 161.412 -46.133 161.418 C-54.405 161.42 -62.532 161.191 -70.769 160.355 C-73.927 160.276 -76.349 160.799 -79.359 161.719 C-91.679 165.293 -107.679 164.713 -119.734 160.281 C-122.385 158.584 -122.385 158.584 -124.734 156.281 C-126.477 147.708 -124.171 137.986 -122.734 129.469 C-122.544 128.287 -122.353 127.106 -122.156 125.889 C-121.691 123.018 -121.217 120.149 -120.734 117.281 C-121.724 116.951 -122.714 116.621 -123.734 116.281 C-124.045 111.779 -124.14 109.16 -122.234 105.031 C-117.053 99.332 -110.872 97.578 -103.306 97.141 C-100.469 97.039 -97.636 96.997 -94.797 96.969 C-93.352 96.925 -93.352 96.925 -91.877 96.881 C-85.583 96.825 -81.901 97.638 -76.734 101.281 C-76.611 100.539 -76.487 99.796 -76.359 99.031 C-75.777 96.467 -74.948 94.59 -73.734 92.281 C-74.268 92.146 -74.802 92.011 -75.352 91.871 C-83.702 89.458 -92.002 84.81 -96.734 77.281 C-96.734 76.621 -96.734 75.961 -96.734 75.281 C-100.199 75.776 -100.199 75.776 -103.734 76.281 C-103.734 75.291 -103.734 74.301 -103.734 73.281 C-101.259 72.786 -101.259 72.786 -98.734 72.281 C-99.064 70.631 -99.394 68.981 -99.734 67.281 C-102.044 67.281 -104.354 67.281 -106.734 67.281 C-106.239 65.796 -106.239 65.796 -105.734 64.281 C-104.084 64.281 -102.434 64.281 -100.734 64.281 C-100.709 63.41 -100.683 62.538 -100.656 61.641 C-100.369 55.6 -99.975 50.343 -97.672 44.719 C-95.49 38.942 -95.572 33.795 -95.734 27.719 C-96.101 12.562 -96.101 12.562 -91.734 6.281 C-89.166 4.285 -87.698 3.233 -84.41 3.398 C-78.484 5.299 -73.961 7.917 -69.059 11.758 C-65.854 13.858 -63.17 14.493 -59.358 13.93 C-58.529 13.73 -57.699 13.53 -56.844 13.324 C-48.654 11.68 -40.419 12.358 -32.121 12.799 C-25.494 13.156 -25.494 13.156 -19.502 10.826 C-17.707 9.02 -17.707 9.02 -16.176 7.056 C-14.07 4.463 -11.567 3.198 -8.609 1.719 C-7.617 1.202 -6.624 0.685 -5.602 0.152 C-2.734 -0.719 -2.734 -0.719 0 0 Z M-16.609 10.969 C-17.661 12.113 -17.661 12.113 -18.734 13.281 C-22.094 16.256 -22.094 16.256 -24.645 16.355 C-25.355 16.228 -26.065 16.1 -26.797 15.969 C-37.446 14.545 -49.281 14.069 -59.727 16.844 C-62.2 17.383 -64.209 17.552 -66.734 17.281 C-68.656 15.891 -68.656 15.891 -70.484 14.031 C-75.194 9.651 -80.071 6.688 -86.547 5.969 C-90.432 8.3 -91.516 12.06 -92.734 16.281 C-93.72 21.736 -94.45 26.881 -92.484 32.156 C-90.808 37.372 -93.511 42.088 -95.473 46.914 C-97.647 52.716 -98.041 58.154 -97.734 64.281 C-97.074 64.941 -96.414 65.601 -95.734 66.281 C-96.068 67.615 -96.401 68.948 -96.734 70.281 C-96.074 70.941 -95.414 71.601 -94.734 72.281 C-94.322 73.374 -93.909 74.468 -93.484 75.594 C-90.661 82.364 -84.212 85.592 -77.734 88.281 C-70.653 90.945 -66.025 91.712 -58.734 89.281 C-51.577 88.589 -51.577 88.589 -47.922 91.594 C-46.759 93.022 -45.598 94.452 -44.449 95.891 C-42.079 97.812 -40.121 97.872 -37.109 98.219 C-32.933 98.798 -29.669 99.603 -25.922 101.531 C-22.77 103.096 -21.082 103.513 -17.672 102.531 C-16.703 102.119 -15.733 101.706 -14.734 101.281 C-14.404 101.941 -14.074 102.601 -13.734 103.281 C-14.498 103.529 -15.261 103.776 -16.047 104.031 C-19.026 105.417 -20.205 106.392 -21.734 109.281 C-21.892 111.402 -21.892 111.402 -20.734 113.281 C-17.354 116.15 -14.34 116.759 -9.93 116.566 C-6.041 116.061 -2.109 115.333 1.266 113.281 C2.951 110.436 3.383 108.938 2.797 105.668 C0.382 99.347 -2.407 94.494 -6.734 89.281 C-12.674 90.271 -12.674 90.271 -18.734 91.281 C-15.543 89.154 -12.747 88.22 -9.109 87.031 C0.124 83.846 7.371 79.965 12.266 71.281 C12.689 68.485 12.689 68.485 12.266 66.281 C12.926 66.281 13.586 66.281 14.266 66.281 C13.956 64.889 13.956 64.889 13.641 63.469 C13.266 60.281 13.266 60.281 15.266 57.281 C14.673 50.24 12.915 43.902 9.078 37.969 C5.703 32.39 5.963 27.794 6.237 21.5 C6.499 13.981 4.421 8.515 0.266 2.281 C-6.472 2.281 -11.789 6.462 -16.609 10.969 Z M-67.422 96.969 C-68.734 98.281 -68.734 98.281 -71.734 99.281 C-71.404 97.961 -71.074 96.641 -70.734 95.281 C-74.544 98.052 -74.803 101.91 -75.734 106.281 C-74.958 105.883 -74.182 105.485 -73.383 105.074 C-65.172 101.047 -57.769 98.825 -48.734 97.281 C-48.734 95.961 -48.734 94.641 -48.734 93.281 C-55.765 88.594 -61.902 91.449 -67.422 96.969 Z M7.141 93.406 C5.024 95.149 5.024 95.149 4.891 97.844 C5.208 100.754 5.762 103.326 6.453 106.156 C7.552 111.293 6.833 114.733 4.266 119.281 C3.399 120.302 3.399 120.302 2.516 121.344 C0.558 124.378 1.548 126.89 2.266 130.281 C7.081 130.281 8.134 129.361 11.516 126.227 C17.714 119.336 18.816 112.56 18.734 103.48 C18.088 99.069 16.533 96.395 13.203 93.469 C10.58 91.861 9.853 91.97 7.141 93.406 Z M-105.734 100.281 C-106.945 102.703 -106.68 103.764 -106.297 106.406 C-106.111 107.685 -105.926 108.964 -105.734 110.281 C-101.611 110.535 -97.486 110.755 -93.359 110.969 C-92.184 111.042 -91.008 111.114 -89.797 111.189 C-88.115 111.272 -88.115 111.272 -86.398 111.355 C-85.362 111.413 -84.325 111.471 -83.256 111.53 C-82.008 111.407 -82.008 111.407 -80.734 111.281 C-78.473 108.534 -78.473 108.534 -78.859 105.781 C-79.938 102.698 -80.9 101.856 -83.734 100.281 C-90.6 98.123 -98.759 99.036 -105.734 100.281 Z M-74.734 109.281 C-75.638 110.003 -76.542 110.725 -77.473 111.469 C-78.592 112.366 -78.592 112.366 -79.734 113.281 C-79.311 115.296 -78.888 117.311 -78.464 119.326 C-78.1 121.059 -77.737 122.791 -77.374 124.523 C-76.548 128.456 -75.718 132.388 -74.836 136.309 C-73.482 142.377 -72.371 148.28 -71.945 154.488 C-71.92 156.303 -71.92 156.303 -70.734 157.281 C-64.93 158.202 -59.259 158.441 -53.391 158.449 C-52.512 158.453 -51.633 158.458 -50.728 158.462 C-47.897 158.472 -45.066 158.472 -42.234 158.469 C-40.787 158.468 -40.787 158.468 -39.311 158.467 C-9.07 158.78 -9.07 158.78 20.266 152.281 C20.761 151.291 20.761 151.291 21.266 150.281 C18.912 149.942 16.558 149.61 14.203 149.281 C13.546 149.186 12.89 149.09 12.213 148.992 C3.856 147.584 3.856 147.584 -3.734 150.281 C-3.446 149.592 -3.157 148.902 -2.859 148.191 C1.017 138.381 1.459 132.106 -2.664 122.348 C-3.677 120.137 -3.677 120.137 -5.734 118.281 C-7.94 118.114 -7.94 118.114 -10.422 118.281 C-13.984 118.379 -16.061 118.18 -19.547 117.094 C-22.715 115.9 -22.715 115.9 -25.234 117.656 C-26.059 118.192 -26.884 118.729 -27.734 119.281 C-31.422 119.656 -31.422 119.656 -34.734 119.281 C-35.394 118.291 -36.054 117.301 -36.734 116.281 C-36.131 116.388 -35.528 116.495 -34.906 116.605 C-30.009 117.364 -30.009 117.364 -25.234 116.406 C-22.851 113.03 -22.904 109.329 -22.734 105.281 C-39.265 96.265 -59.852 97.007 -74.734 109.281 Z M-117.734 104.281 C-120.763 107.31 -121.258 110.086 -121.734 114.281 C-117.798 115.594 -115.955 114.621 -112.047 113.344 C-110.278 112.773 -110.278 112.773 -108.473 112.191 C-107.117 111.741 -107.117 111.741 -105.734 111.281 C-106.394 110.291 -107.054 109.301 -107.734 108.281 C-107.813 105.949 -107.822 103.613 -107.734 101.281 C-112.149 101.281 -113.992 102.052 -117.734 104.281 Z M-117.734 117.281 C-118.378 119.599 -118.378 119.599 -118.77 122.426 C-118.939 123.496 -119.109 124.567 -119.283 125.67 C-119.453 126.8 -119.622 127.93 -119.797 129.094 C-120.057 130.725 -120.057 130.725 -120.322 132.389 C-121.451 139.67 -122.222 146.932 -122.734 154.281 C-115.017 160.374 -105.835 160.65 -96.297 160.594 C-95.384 160.592 -94.471 160.591 -93.531 160.59 C-86.93 160.496 -80.923 159.716 -74.734 157.281 C-73.766 153.499 -73.795 150.803 -74.625 147 C-74.945 145.498 -74.945 145.498 -75.271 143.965 C-75.507 142.915 -75.742 141.864 -75.984 140.781 C-76.22 139.709 -76.455 138.636 -76.697 137.531 C-77.164 135.407 -77.634 133.285 -78.107 131.163 C-78.634 128.741 -79.117 126.321 -79.562 123.883 C-79.784 122.736 -80.006 121.588 -80.234 120.406 C-80.41 119.439 -80.585 118.473 -80.766 117.477 C-81.56 115.117 -81.56 115.117 -83.824 113.98 C-87.502 113.097 -91.036 112.941 -94.797 112.969 C-95.543 112.971 -96.29 112.973 -97.059 112.975 C-104.147 113.102 -111.326 114.077 -117.734 117.281 Z M-1.734 117.281 C-1.734 118.271 -1.734 119.261 -1.734 120.281 C-0.414 119.951 0.906 119.621 2.266 119.281 C2.596 117.961 2.926 116.641 3.266 115.281 C0.942 115.096 0.942 115.096 -1.734 117.281 Z M3.266 135.281 C2.606 138.581 1.946 141.881 1.266 145.281 C4.724 145.783 8.182 146.283 11.641 146.781 C12.625 146.924 13.61 147.067 14.625 147.215 C16.037 147.418 16.037 147.418 17.477 147.625 C18.346 147.751 19.215 147.876 20.111 148.006 C22.234 148.324 22.234 148.324 24.266 148.281 C25.221 146.556 25.221 146.556 25.266 144.281 C21.224 138.936 16.187 136.908 9.75 135.879 C7.594 135.631 5.43 135.45 3.266 135.281 Z " fill="#000000" transform="translate(137.734375,15.71875)"/>
<path d="M0 0 C2.438 1 2.438 1 4 3 C4.562 7.422 4.799 9.722 2.438 13.5 C-0.924 15.569 -3.12 15.485 -7 15 C-9.375 13.875 -9.375 13.875 -11 12 C-12.193 8.341 -12.327 6.7 -10.688 3.188 C-7.652 -0.747 -4.774 -0.329 0 0 Z " fill="#000000" transform="translate(128,62)"/>
<path d="M0 0 C3.375 1 3.375 1 5.375 2.625 C6.831 6.084 6.288 8.413 5.375 12 C3.787 14.383 2.684 14.886 0 15.875 C-3.444 16.039 -4.907 15.057 -7.625 13 C-9.625 10 -9.625 10 -9.562 7.062 C-7.955 1.812 -5.473 0 0 0 Z " fill="#000000" transform="translate(69.625,64)"/>
<path d="M0 0 C2.867 0.573 3.861 0.861 6 3 C9.099 2.678 9.099 2.678 12 2 C11.551 6.83 10.611 9.674 7 13 C3.625 14.125 3.625 14.125 0 14 C-3.602 11.732 -5.595 10.301 -6.875 6.188 C-6.916 5.466 -6.957 4.744 -7 4 C-5.02 3.67 -3.04 3.34 -1 3 C-0.67 2.01 -0.34 1.02 0 0 Z M-2 7 C-1.34 8.32 -0.68 9.64 0 11 C1.98 10.67 3.96 10.34 6 10 C6 8.68 6 7.36 6 6 C1.822 4.811 1.822 4.811 -2 7 Z " fill="#000000" transform="translate(95,76)"/>
<path d="M0 0 C0.66 0 1.32 0 2 0 C2.845 3.378 3.108 5.675 2 9 C1.34 9 0.68 9 0 9 C-1.125 3.375 -1.125 3.375 0 0 Z " fill="#000000" transform="translate(43,116)"/>
</svg>
