<?xml version="1.0" encoding="UTF-8"?>
<!-- Generator: visioncortex VTracer 0.6.4 -->
<svg version="1.1" xmlns="http://www.w3.org/2000/svg" width="234" height="256">
<path d="M0 0 C9.4 0.336 15.546 4.361 22 11 C24.47 12.08 25.622 12.081 28.257 11.516 C31.197 10.963 33.903 10.871 36.895 10.867 C38.015 10.866 39.136 10.865 40.291 10.863 C41.453 10.867 42.615 10.871 43.812 10.875 C44.963 10.871 46.113 10.867 47.299 10.863 C52.126 10.869 56.758 10.877 61.516 11.738 C65.001 12.326 65.001 12.326 67.652 10.488 C68.406 9.77 69.161 9.052 69.938 8.312 C75.121 3.759 80.01 0.798 86.812 -0.562 C90.231 0.317 91.152 2.044 93 5 C96.248 12.138 96.222 17.856 95.795 25.578 C95.625 30.98 96.271 34.564 99.011 39.26 C101.912 44.366 102.397 50.27 103 56 C104.65 56 106.3 56 108 56 C108.33 56.99 108.66 57.98 109 59 C106.69 59 104.38 59 102 59 C102 60.65 102 62.3 102 64 C103.65 64.33 105.3 64.66 107 65 C107 65.66 107 66.32 107 67 C105.907 67.041 104.814 67.082 103.688 67.125 C102.471 67.414 101.254 67.703 100 68 C98.208 70.749 98.208 70.749 97 74 C94.291 77.838 91.532 80.261 87.562 82.75 C86.172 83.639 86.172 83.639 84.754 84.547 C82.096 85.95 79.959 86.592 77 87 C77.554 88.158 78.109 89.315 78.68 90.508 C79.412 92.047 80.143 93.586 80.875 95.125 C81.422 96.266 81.422 96.266 81.98 97.43 C87 108.016 87 108.016 87 114 C94.744 110.733 98.943 106.924 102.125 99.125 C103.053 96.655 103.939 94.175 104.809 91.684 C107.054 85.365 107.054 85.365 110 83 C113.438 82.562 113.438 82.562 117 83 C119.794 85.205 121.763 87.194 122.238 90.812 C122.577 100.802 118.562 108.228 112.207 115.738 C106.739 121.342 100.438 124.731 93 127 C91.68 127 90.36 127 89 127 C86.786 133.216 85.922 137.395 87 144 C85.366 146.365 84.176 146.951 81.398 147.73 C76.555 148.463 71.967 149.098 67.062 148.875 C62.801 148.737 61.22 150.215 58 153 C54.645 153.47 52.891 153.654 50.125 151.625 C49 150 49 150 49 148 C42.731 148.371 42.731 148.371 38 152 C35.062 152.375 35.062 152.375 32 152 C31.452 151.518 30.904 151.036 30.34 150.539 C26.907 148.281 23.532 148.301 19.5 148 C9.884 147.282 9.884 147.282 7 144 C6.967 142.013 6.946 140.023 7.055 138.039 C6.972 134.958 5.387 132.718 4 130 C0.128 115.219 7.001 99.26 13 86 C11.917 85.84 11.917 85.84 10.812 85.676 C3.191 83.844 -4.706 78.099 -9.312 71.875 C-11 69 -11 69 -11 67 C-14.465 67.495 -14.465 67.495 -18 68 C-18 67.01 -18 66.02 -18 65 C-16.02 64.505 -16.02 64.505 -14 64 C-14 62.68 -14 61.36 -14 60 C-16.31 59.34 -18.62 58.68 -21 58 C-19 56 -19 56 -16.375 55.875 C-15.591 55.916 -14.807 55.958 -14 56 C-13.902 55.178 -13.804 54.355 -13.703 53.508 C-12.971 48.039 -12.26 43.131 -9.875 38.125 C-7.447 32.656 -7.882 27.585 -8.043 21.695 C-7.95 13.701 -5.782 5.782 0 0 Z M-1.188 5.562 C-4.483 11.812 -5.17 17.168 -4.812 24.125 C-4.609 31.247 -5.902 36.408 -8.812 42.98 C-10.583 47.482 -11.344 52.161 -11 57 C-10.34 57.66 -9.68 58.32 -9 59 C-9.375 61.125 -9.375 61.125 -10 63 C-9.01 63.33 -8.02 63.66 -7 64 C-7.227 64.557 -7.454 65.114 -7.688 65.688 C-8.136 69.008 -6.899 70.288 -5 73 C3.823 81.116 15.002 86.294 27 87 C27 87.99 27 88.98 27 90 C25.948 89.649 24.896 89.299 23.812 88.938 C20.077 88.019 18.536 87.723 15 89 C11.079 94.876 9.46 102.451 7.688 109.25 C7.516 109.898 7.344 110.547 7.168 111.215 C5.651 117.448 5.092 123.572 7.375 129.688 C7.781 130.813 7.781 130.813 8.195 131.961 C8.84 133.595 9.537 135.208 10.25 136.812 C11.111 139.323 10.91 140.544 10 143 C13.772 144.752 16.667 145.225 20.812 145.125 C21.788 145.107 22.764 145.089 23.77 145.07 C24.506 145.047 25.242 145.024 26 145 C25.798 144.411 25.597 143.822 25.389 143.215 C24.463 140.499 23.544 137.781 22.625 135.062 C22.308 134.136 21.991 133.21 21.664 132.256 C19.74 126.545 18.2 120.907 17 115 C18.858 117.787 19.742 119.896 20.77 123.043 C21.101 124.035 21.433 125.027 21.775 126.049 C22.46 128.12 23.14 130.193 23.814 132.268 C26.746 141.255 26.746 141.255 32 149 C33.991 149.868 33.991 149.868 36 150 C37.958 148.477 38.891 147.218 40 145 C40.127 142.03 40.19 139.095 40.188 136.125 C40.188 135.273 40.189 134.42 40.189 133.542 C40.134 126.881 39.456 120.511 38 114 C38.66 114 39.32 114 40 114 C41.687 124.336 42.519 134.549 43 145 C44.65 145 46.3 145 48 145 C47.977 144.368 47.954 143.737 47.93 143.086 C47.751 134.235 48.14 124.459 51 116 C51.66 115.67 52.32 115.34 53 115 C52.783 115.993 52.567 116.985 52.344 118.008 C48.896 133.069 48.896 133.069 51.211 147.895 C52.809 150.242 52.809 150.242 55.422 150.366 C58.057 150.244 58.057 150.244 59.647 148.451 C63.555 142.261 66.103 136.008 68.375 129.062 C68.729 128.023 69.084 126.983 69.449 125.912 C71.275 121.059 71.275 121.059 72 116 C72.66 116 73.32 116 74 116 C71.124 126.218 68.02 136.164 64 146 C70.651 146.25 76.57 145.74 83 144 C83.151 141.133 83.151 141.133 82.379 139.035 C81.891 136.413 82.519 135.648 83.938 133.438 C88.002 125.692 86.355 118.187 83.875 110.125 C81.504 102.806 78.431 95.886 75 89 C67.958 89.719 67.958 89.719 61 91 C61.33 90.34 61.66 89.68 62 89 C64.313 88.316 66.591 87.732 68.938 87.188 C80.882 84.171 89.981 79.529 97 69 C97 67.68 97 66.36 97 65 C97.66 64.67 98.32 64.34 99 64 C99 62.68 99 61.36 99 60 C98.34 60 97.68 60 97 60 C97 59.34 97 58.68 97 58 C97.66 58 98.32 58 99 58 C99.644 49.756 98.256 42.238 93.832 35.121 C92.589 31.952 93.177 29.294 93.562 25.938 C94.356 17.412 93.553 9.786 88 3 C80.377 3.331 74.306 7.02 68.699 12.074 C66.779 13.822 66.779 13.822 67 16 C65.984 15.783 64.968 15.567 63.922 15.344 C53.989 13.3 44.784 12.095 34.656 13.633 C33.897 13.743 33.138 13.853 32.355 13.966 C30.857 14.192 29.362 14.445 27.873 14.727 C25.785 15.051 25.785 15.051 22 15 C19.148 12.676 19.148 12.676 17 10 C12.864 6.395 8.808 3.602 3.375 2.438 C0.718 2.82 0.718 2.82 -1.188 5.562 Z M109.457 87.637 C107.723 90.45 107.017 93.054 106.188 96.25 C102.959 107.06 97.405 112.052 88 118 C88.33 119.98 88.66 121.96 89 124 C96.952 123.654 103.027 119.649 108.875 114.438 C109.576 113.633 110.278 112.829 111 112 C111.681 111.257 112.361 110.515 113.062 109.75 C117.267 103.782 119.447 98.277 119.434 90.945 C118.881 88.467 117.984 87.546 116 86 C112.935 85.464 111.639 85.322 109.457 87.637 Z " fill="#000000" transform="translate(57,18)"/>
<path d="M0 0 C3 2.062 3 2.062 5 5 C5 8.572 4.746 10.881 2.75 13.875 C0.379 15.399 -1.166 15.868 -4 16 C-9.639 13.723 -9.639 13.723 -11 11 C-11.355 7.164 -11.547 4.854 -9.438 1.562 C-6.017 -0.63 -3.99 -0.63 0 0 Z M-8 3 C-8.33 4.32 -8.66 5.64 -9 7 C-7.68 7 -6.36 7 -5 7 C-5 5.68 -5 4.36 -5 3 C-5.99 3 -6.98 3 -8 3 Z " fill="#000000" transform="translate(77,62)"/>
<path d="M0 0 C2.411 1.776 3.608 3.216 4.938 5.875 C5.034 9.14 3.651 11.249 2 14 C-1.092 15.546 -3.594 15.294 -7 15 C-9.716 13.07 -10.747 11.658 -11.938 8.562 C-12.019 5.209 -10.988 3.651 -9 1 C-5.908 -0.546 -3.406 -0.294 0 0 Z M-9 3 C-8.67 4.65 -8.34 6.3 -8 8 C-7.01 7.34 -6.02 6.68 -5 6 C-5 5.01 -5 4.02 -5 3 C-6.32 3 -7.64 3 -9 3 Z " fill="#000000" transform="translate(133,63)"/>
<path d="M0 0 C0.99 0 1.98 0 3 0 C3.33 1.32 3.66 2.64 4 4 C6.64 3.67 9.28 3.34 12 3 C11.67 3.99 11.34 4.98 11 6 C6.91 6.708 3.979 6.995 0 6 C-2.341 6.273 -4.678 6.598 -7 7 C-7.66 5.68 -8.32 4.36 -9 3 C-7.886 3.062 -6.772 3.124 -5.625 3.188 C-4.429 3.126 -3.233 3.064 -2 3 C-1.34 2.01 -0.68 1.02 0 0 Z " fill="#000000" transform="translate(100,75)"/>
</svg>
