<?xml version="1.0" encoding="UTF-8"?>
<!-- Generator: visioncortex VTracer 0.6.4 -->
<svg version="1.1" xmlns="http://www.w3.org/2000/svg" width="234" height="256">
<path d="M0 0 C7.652 2.423 13.494 6.123 18.75 12.188 C18.75 12.847 18.75 13.508 18.75 14.188 C19.396 14.028 20.042 13.868 20.707 13.703 C24.638 13.037 28.457 12.956 32.438 12.938 C33.68 12.926 33.68 12.926 34.948 12.915 C41.006 12.95 46.587 13.817 52.5 15.062 C57.823 16.263 57.823 16.263 63.043 15.227 C64.721 13.721 64.721 13.721 66.117 11.961 C68.25 9.644 70.462 8.627 73.312 7.312 C74.201 6.903 75.089 6.493 76.004 6.07 C79.112 5.071 81.505 4.88 84.75 5.188 C89.077 9.274 90.604 13.914 90.98 19.773 C90.966 21.024 90.952 22.274 90.938 23.562 C90.934 24.228 90.93 24.894 90.927 25.579 C90.886 28.928 90.67 32.096 90 35.375 C89.684 40.192 91.162 43.46 92.824 47.934 C94.357 53.32 94.072 58.64 93.75 64.188 C95.73 64.188 97.71 64.188 99.75 64.188 C100.08 65.177 100.41 66.168 100.75 67.188 C98.44 67.188 96.13 67.188 93.75 67.188 C93.75 68.507 93.75 69.828 93.75 71.188 C95.4 71.847 97.05 72.507 98.75 73.188 C98.255 74.672 98.255 74.672 97.75 76.188 C95.44 75.528 93.13 74.868 90.75 74.188 C90.523 74.889 90.296 75.59 90.062 76.312 C86.942 83.147 82.555 86.212 76.152 89.793 C73.873 91.116 71.823 92.564 69.75 94.188 C70.564 95.711 70.564 95.711 71.395 97.266 C75.662 105.42 79.088 113.046 80.75 122.188 C88.013 119.482 92.584 115.721 95.984 108.637 C97.254 104.577 97.241 100.468 97.281 96.238 C97.858 92.485 99.093 90.854 101.75 88.188 C104.838 87.222 106.803 86.944 109.938 87.75 C113.303 90.419 114.515 93.413 115.074 97.641 C115.493 107.76 112.295 116.446 105.789 124.184 C100.543 129.339 94.968 132.054 87.812 133.5 C84.01 134.381 84.01 134.381 81.355 137.051 C79.27 142.563 79.752 147.473 80.75 153.188 C74.222 157.603 67.227 157.418 59.584 157.617 C55.087 157.822 52.49 158.778 48.75 161.188 C45.5 160.562 45.5 160.562 42.75 159.188 C42.42 158.197 42.09 157.208 41.75 156.188 C40.311 156.275 38.874 156.383 37.438 156.5 C36.237 156.587 36.237 156.587 35.012 156.676 C32.356 157.277 31.513 158.175 29.75 160.188 C27.875 161.062 27.875 161.062 25.75 161.188 C23.506 160.04 21.54 158.978 19.75 157.188 C16.016 156.772 12.284 156.416 8.539 156.113 C3.881 155.666 0.616 155.063 -3.25 152.188 C-3.023 150.991 -2.796 149.795 -2.562 148.562 C-2.008 144.254 -3.067 141.966 -5.25 138.188 C-9.842 122.741 -2.514 102.916 4.75 89.188 C3.946 88.981 3.141 88.775 2.312 88.562 C-5.761 85.446 -12.289 80.291 -17.25 73.188 C-18.688 69.688 -18.688 69.688 -19.25 67.188 C-21.56 67.188 -23.87 67.188 -26.25 67.188 C-26.25 66.528 -26.25 65.868 -26.25 65.188 C-23.28 64.692 -23.28 64.692 -20.25 64.188 C-20.281 62.22 -20.281 62.22 -21.25 60.188 C-24.246 58.883 -24.246 58.883 -27.25 58.188 C-27.25 57.528 -27.25 56.868 -27.25 56.188 C-24.94 56.188 -22.63 56.188 -20.25 56.188 C-20.353 55.301 -20.456 54.414 -20.562 53.5 C-20.606 46.506 -17.064 38.908 -13.25 33.188 C-13.048 30.482 -12.932 27.833 -12.875 25.125 C-12.523 16.532 -10.882 9.681 -5.938 2.5 C-3.25 0.188 -3.25 0.188 0 0 Z M-3.25 3.188 C-8.185 11.155 -10.478 17.597 -10 27 C-9.86 33.128 -11.832 36.942 -14.781 42.207 C-16.993 46.696 -17.686 51.251 -18.25 56.188 C-17.26 56.517 -16.27 56.847 -15.25 57.188 C-15.25 57.847 -15.25 58.507 -15.25 59.188 C-16.735 59.683 -16.735 59.683 -18.25 60.188 C-17.92 61.507 -17.59 62.828 -17.25 64.188 C-16.59 64.188 -15.93 64.188 -15.25 64.188 C-15.539 64.847 -15.828 65.507 -16.125 66.188 C-16.327 71.039 -13.392 73.71 -10.25 77.188 C-3.891 83.941 4.87 87.805 13.75 90.188 C15.07 90.188 16.39 90.188 17.75 90.188 C17.75 91.177 17.75 92.168 17.75 93.188 C14.45 92.528 11.15 91.868 7.75 91.188 C0.539 104.527 -6.508 121.114 -2.648 136.602 C-1.635 139.334 -0.437 141.876 1.062 144.375 C1.75 146.188 1.75 146.188 0.875 148.938 C0.504 149.68 0.132 150.423 -0.25 151.188 C5.82 153.346 11.344 153.396 17.75 153.188 C17.363 152.256 16.977 151.324 16.578 150.363 C9.584 133.319 9.584 133.319 7.75 125.188 C8.08 124.528 8.41 123.868 8.75 123.188 C9.021 124.002 9.021 124.002 9.297 124.833 C14.315 143.66 14.315 143.66 25.75 158.188 C27.917 158.354 27.917 158.354 29.75 157.188 C35.023 146.774 31.115 133.025 28.75 122.188 C29.74 122.683 29.74 122.683 30.75 123.188 C31.409 125.787 31.932 128.3 32.375 130.938 C32.507 131.698 32.639 132.458 32.775 133.242 C33.859 139.941 34.069 146.401 33.75 153.188 C36.06 153.188 38.37 153.188 40.75 153.188 C40.727 152.374 40.704 151.561 40.68 150.723 C40.527 141.052 41.452 131.757 42.75 122.188 C43.74 122.188 44.73 122.188 45.75 122.188 C45.533 123.18 45.317 124.173 45.094 125.195 C41.388 141.447 41.388 141.447 44.75 157.188 C47.298 158.081 47.298 158.081 49.75 158.188 C53.506 154.025 55.777 150.426 57.812 145.125 C58.063 144.48 58.313 143.836 58.571 143.171 C60.645 137.732 62.335 132.211 63.891 126.602 C64.75 124.188 64.75 124.188 66.75 123.188 C65.844 126.336 64.923 129.481 64 132.625 C63.747 133.503 63.495 134.382 63.234 135.287 C61.686 140.533 59.867 145.456 57.511 150.395 C56.62 152.17 56.62 152.17 56.75 154.188 C66.939 154.513 66.939 154.513 76.75 152.188 C76.961 148.293 76.961 148.293 75.75 145.188 C76.214 144.277 76.678 143.367 77.156 142.43 C81.453 133.69 78.971 122.94 76.024 114.063 C72.314 102.64 72.314 102.64 64.895 94.281 C62.136 94.161 59.705 94.578 57 95.125 C56.015 95.32 55.03 95.514 54.016 95.715 C53.268 95.871 52.52 96.027 51.75 96.188 C51.75 95.198 51.75 94.207 51.75 93.188 C52.393 93.173 53.036 93.159 53.699 93.145 C65.364 92.529 76.433 88.634 84.75 80.188 C87.138 76.437 87.138 76.437 87.75 72.188 C88.75 71.188 89.75 70.188 90.75 69.188 C90.75 68.528 90.75 67.868 90.75 67.188 C89.76 67.188 88.77 67.188 87.75 67.188 C87.75 66.528 87.75 65.868 87.75 65.188 C89.07 64.858 90.39 64.528 91.75 64.188 C92.204 56.323 90.69 48.797 87.629 41.523 C86.363 38.158 87.115 35.708 87.75 32.188 C89.151 24.352 88.455 17.719 85.75 10.188 C84.76 9.197 84.76 9.197 83.75 8.188 C76.561 8.188 71.498 11.014 65.75 15.188 C65.122 15.927 64.494 16.667 63.848 17.43 C61.75 19.188 61.75 19.188 58.762 19.176 C57.116 18.841 57.116 18.841 55.438 18.5 C54.348 18.29 53.259 18.08 52.137 17.863 C51.019 17.64 49.901 17.417 48.75 17.188 C44.425 16.356 40.443 16.178 36.062 16.371 C35.034 16.41 34.005 16.45 32.945 16.49 C30.814 16.58 28.683 16.697 26.555 16.842 C18.858 17.068 18.858 17.068 15.604 14.481 C13.875 12.448 12.321 10.343 10.75 8.188 C8.41 6.309 8.41 6.309 6.125 5.188 C5.411 4.796 4.697 4.404 3.961 4 C1.432 3.071 -0.576 3.037 -3.25 3.188 Z M102.594 91.305 C100.023 93.93 100.284 95.688 100.25 99.312 C99.867 107.305 97.706 114.545 91.75 120.188 C88.496 122.04 85.165 123.656 81.75 125.188 C81.75 127.167 81.75 129.148 81.75 131.188 C88.452 131.916 93.144 129.811 98.75 126.188 C105.308 120.912 109.111 115.103 111.75 107.188 C112.45 99.263 112.45 99.263 109.938 91.938 C107.119 89.683 105.785 89.652 102.594 91.305 Z " fill="#000000" transform="translate(79.25,22.8125)"/>
<path d="M0 0 C3.381 2.446 4.769 3.893 5.625 8 C4.769 12.107 3.381 13.554 0 16 C-3.965 16.626 -5.998 16.659 -9.375 14.438 C-11.57 11.145 -12.069 8.958 -12 5 C-8.674 0.114 -5.798 -1.035 0 0 Z M-9 3 C-9 4.32 -9 5.64 -9 7 C-7.68 7 -6.36 7 -5 7 C-5 5.68 -5 4.36 -5 3 C-6.32 3 -7.64 3 -9 3 Z " fill="#000000" transform="translate(92,67)"/>
<path d="M0 0 C0.99 0.66 1.98 1.32 3 2 C3 2.99 3 3.98 3 5 C2.096 4.905 1.193 4.809 0.262 4.711 C-0.918 4.6 -2.097 4.489 -3.312 4.375 C-5.07 4.201 -5.07 4.201 -6.863 4.023 C-10.166 3.706 -10.166 3.706 -13 6 C-13.99 6 -14.98 6 -16 6 C-15.875 4.188 -15.875 4.188 -15 2 C-10.12 -1.538 -5.641 -1.429 0 0 Z " fill="#000000" transform="translate(150,77)"/>
<path d="M0 0 C0.99 0 1.98 0 3 0 C3.66 1.32 4.32 2.64 5 4 C7.31 4 9.62 4 12 4 C11.34 5.32 10.68 6.64 10 8 C3.25 7.125 3.25 7.125 1 6 C-0.423 6.526 -0.423 6.526 -1.875 7.062 C-5 8 -5 8 -7.375 7.125 C-7.911 6.754 -8.448 6.382 -9 6 C-9 5.01 -9 4.02 -9 3 C-6.36 3.33 -3.72 3.66 -1 4 C-0.67 2.68 -0.34 1.36 0 0 Z " fill="#000000" transform="translate(114,83)"/>
</svg>
