<?xml version="1.0" encoding="UTF-8"?>
<!-- Generator: visioncortex VTracer 0.6.4 -->
<svg version="1.1" xmlns="http://www.w3.org/2000/svg" width="234" height="256">
<path d="M0 0 C4.086 2.108 7.892 4.463 10.602 8.223 C14.578 11.169 18.806 10.056 23.562 9.625 C31.449 9.037 38.576 9.172 46.375 10.438 C52.274 11.318 52.274 11.318 57.859 9.496 C60.15 7.425 60.15 7.425 62.086 5.117 C65.717 1.1 70.578 -0.45 75.75 -1.625 C79.424 -0.605 81.172 1.834 83 5 C85.748 11.568 86.987 18.008 85.59 25.074 C84.419 31.403 86.07 35.525 88.773 41.301 C91.082 46.38 91.092 50.486 91 56 C93.31 56 95.62 56 98 56 C98 56.66 98 57.32 98 58 C94.535 58.495 94.535 58.495 91 59 C91.113 60.959 91.113 60.959 92 63 C94.49 64.297 94.49 64.297 97 65 C97 65.66 97 66.32 97 67 C95.989 66.773 94.979 66.546 93.938 66.312 C89.955 66.546 89.955 66.546 88.363 69.168 C87.565 70.57 87.565 70.57 86.75 72 C83.082 78.424 78.465 82.434 72 86 C69.164 86.711 69.164 86.711 67 87 C67.531 88.065 68.062 89.13 68.609 90.227 C73.076 99.347 76.613 108.092 79 118 C79.99 118 80.98 118 82 118 C86.677 112.989 88.02 109.838 88.312 103.125 C88.618 99.414 88.935 97.136 90.562 93.75 C93.379 91.728 95.552 91.206 99.027 91.473 C101.781 92.209 103.528 93.573 105.152 95.902 C107.586 101.926 106.799 108.848 104.375 114.75 C103.621 116.187 102.829 117.605 102 119 C101.611 119.7 101.221 120.4 100.82 121.121 C96.464 127.94 89.42 131.629 81.668 133.59 C79.75 133.875 79.75 133.875 77 134 C77.058 134.759 77.116 135.519 77.176 136.301 C77.31 139.265 77.348 142.052 77 145 C71.747 150.103 63.055 149.247 56.18 149.523 C52.781 150.033 52.102 150.459 50 153 C47.062 153.875 47.062 153.875 44 154 C41.625 152.687 41.625 152.687 40 151 C40 150.34 40 149.68 40 149 C33.823 149.269 30.868 150.053 26 154 C22.875 153.938 22.875 153.938 20 153 C19.528 152.499 19.056 151.997 18.569 151.48 C16.64 149.661 15.629 149.559 13.016 149.375 C12.245 149.308 11.474 149.241 10.68 149.172 C9.878 149.115 9.076 149.058 8.25 149 C2.23 148.566 -2.622 147.869 -8 145 C-9.217 141.835 -9 139.432 -9 136 C-9.322 135.256 -9.645 134.512 -9.977 133.746 C-13.847 123.361 -10.851 109.884 -7 100 C-5.482 96.716 -3.891 93.511 -2.172 90.328 C-0.85 88.137 -0.85 88.137 -1 86 C-2.069 85.472 -2.069 85.472 -3.16 84.934 C-11.139 80.82 -17.968 76.302 -22 68 C-22 67.34 -22 66.68 -22 66 C-25.465 66.495 -25.465 66.495 -29 67 C-29 66.34 -29 65.68 -29 65 C-26.03 64.505 -26.03 64.505 -23 64 C-23.547 61.463 -23.547 61.463 -25 59 C-28.053 58.102 -28.053 58.102 -31 58 C-31 57.34 -31 56.68 -31 56 C-28.69 56 -26.38 56 -24 56 C-23.979 54.909 -23.979 54.909 -23.957 53.797 C-23.679 47.942 -22.935 43.333 -20.438 38 C-18.02 32.703 -17.697 28.706 -17.938 22.945 C-18.117 14.484 -15.991 6.878 -11 0 C-7.435 -1.783 -3.766 -0.959 0 0 Z M-9.062 2.5 C-13.851 8.678 -15.16 15.091 -14.884 22.723 C-14.673 28.875 -14.649 33.908 -17.977 39.277 C-20.906 44.209 -21.561 50.395 -21 56 C-20.01 56.66 -19.02 57.32 -18 58 C-19.485 58.495 -19.485 58.495 -21 59 C-18.689 68.477 -15.827 74.395 -7.367 79.629 C-0.095 83.498 7.827 86.736 16 88 C18.099 87.133 18.099 87.133 20 86 C22.548 85.906 25.019 86.064 27.562 86.223 C30.556 85.949 31.684 84.838 34 83 C38.389 82.615 40.29 82.527 44 85 C46.146 85.382 46.146 85.382 48.438 85.5 C51.038 85.676 52.665 85.805 54.934 87.125 C58.737 88.735 62.135 86.679 65.828 85.328 C73.904 81.946 80.861 78.016 85 70 C85.688 67.557 85.893 65.557 86 63 C86.66 63 87.32 63 88 63 C88 61.68 88 60.36 88 59 C87.34 59 86.68 59 86 59 C86 58.34 86 57.68 86 57 C86.66 57 87.32 57 88 57 C88.765 49.47 87.149 43.899 84.191 36.98 C82.424 32.56 81.66 29.58 83 25 C83.746 16.827 82.607 8.91 78 2 C70.9 2.258 66.483 4.511 61 9 C60.257 9.99 59.515 10.98 58.75 12 C56 14 56 14 53.406 13.863 C51.198 13.478 48.995 13.064 46.797 12.629 C42.645 11.941 38.698 11.747 34.5 11.75 C33.422 11.747 33.422 11.747 32.322 11.744 C27.674 11.799 23.432 12.447 18.875 13.438 C13.615 14.377 13.615 14.377 10.961 12.75 C9.25 10.938 9.25 10.938 7.684 8.957 C4.317 5.043 -4.215 -1.025 -9.062 2.5 Z M32.625 86.562 C30.7 88.962 30.7 88.962 31 92.25 C31 97.616 29.205 101.669 25.504 105.582 C23.086 107.674 21.043 108.986 18 110 C18 109.01 18 108.02 18 107 C18.722 106.794 19.444 106.588 20.188 106.375 C23.769 104.624 26.048 102.431 28 99 C28.894 96.116 29 94.098 29 91 C28.102 88.852 28.102 88.852 26 88 C22.901 87.437 20.907 87.463 18.16 89.09 C16.957 89.968 15.773 90.873 14.613 91.809 C13 93 13 93 10 94 C10 93.01 10 92.02 10 91 C10.66 91 11.32 91 12 91 C12 90.34 12 89.68 12 89 C9.36 88.34 6.72 87.68 4 87 C-4.914 98.855 -10.343 113.463 -8.625 128.406 C-7.634 132.518 -5.572 135.688 -3 139 C-3.66 139 -4.32 139 -5 139 C-5.33 140.32 -5.66 141.64 -6 143 C-0.576 145.393 4.319 146.052 10.207 146.023 C11.105 146.02 12.004 146.017 12.929 146.013 C13.612 146.009 14.296 146.004 15 146 C14.768 145.375 14.536 144.751 14.297 144.107 C13.236 141.24 12.18 138.37 11.125 135.5 C10.76 134.518 10.395 133.535 10.02 132.523 C8.015 127.057 6.285 121.68 5 116 C7 117 7 117 7.79 118.883 C8.041 119.693 8.292 120.504 8.551 121.34 C8.835 122.234 9.119 123.128 9.411 124.049 C9.709 125.002 10.006 125.956 10.312 126.938 C14.02 140.2 14.02 140.2 22 151 C24.591 150.998 24.591 150.998 27 150 C31.72 142.919 29.878 133.849 28.562 125.875 C28.415 124.919 28.267 123.962 28.115 122.977 C27.754 120.649 27.383 118.324 27 116 C27.66 116 28.32 116 29 116 C30.791 125.997 31.539 135.869 32 146 C33.98 146 35.96 146 38 146 C38.049 144.912 38.098 143.824 38.148 142.703 C39.333 118.667 39.333 118.667 42 116 C41.928 116.562 41.856 117.124 41.781 117.703 C41.056 124.275 40.831 130.832 40.75 137.438 C40.729 138.314 40.707 139.19 40.686 140.093 C40.622 145.078 40.622 145.078 42.516 149.598 C43.925 151.25 43.925 151.25 46.188 151 C50.634 149.419 52.057 146.051 54 142 C57.634 133.599 60.731 125.103 62 116 C62.99 116 63.98 116 65 116 C61.667 126 58.333 136 55 146 C61.705 146.198 67.652 146.308 74 144 C73.773 142.969 73.546 141.938 73.312 140.875 C73 137 73 137 74.438 134.375 C78.667 125.24 75.753 115.03 72.578 105.969 C70.313 99.998 67.258 94.483 64 89 C62.35 89.33 60.7 89.66 59 90 C59.99 92.475 59.99 92.475 61 95 C60.336 94.411 59.672 93.822 58.988 93.215 C57.664 92.088 57.664 92.088 56.312 90.938 C55.442 90.183 54.572 89.429 53.676 88.652 C51.139 86.738 51.139 86.738 48.293 87.129 C45.848 87.878 45.848 87.878 44 90 C43.497 95.232 44.127 98.594 47 103 C48.911 104.847 50.872 106.392 53 108 C52.01 108.495 52.01 108.495 51 109 C46.673 105.731 43.857 103.261 42 98 C41.602 94.127 41.758 90.726 43 87 C41.126 84.719 41.126 84.719 38.125 84.625 C34.968 84.768 34.968 84.768 32.625 86.562 Z M93.895 95.023 C91.146 97.891 91.384 100.277 91.125 104.188 C90.494 110.811 89.072 115.486 84 120 C83.051 120.495 82.103 120.99 81.125 121.5 C80.424 121.995 79.722 122.49 79 123 C78.558 125.79 78.767 128.151 79 131 C87.3 129.061 94.02 126.616 98.793 119.223 C101.802 113.555 104.111 108.464 104 102 C102.753 98.258 101.888 96.569 98.562 94.438 C96.005 93.745 96.005 93.745 93.895 95.023 Z " fill="#000000" transform="translate(101,25)"/>
<path d="M0 0 C2.648 1.677 2.955 2.851 3.875 5.875 C4.028 9.699 3.489 11.11 1 14 C-2.293 15.647 -4.082 16.214 -7.688 15.375 C-10.332 13.803 -11.562 12.724 -13 10 C-13.438 7 -13.438 7 -13 4 C-8.891 -1.067 -6.296 -1.325 0 0 Z M-11 3 C-11 4.32 -11 5.64 -11 7 C-9.35 6.67 -7.7 6.34 -6 6 C-6.66 4.68 -7.32 3.36 -8 2 C-9.224 1.925 -9.224 1.925 -11 3 Z " fill="#000000" transform="translate(113,70)"/>
<path d="M0 0 C2.375 1.625 2.375 1.625 4 4 C4.558 7.906 4.584 10.051 2.5 13.438 C-1.007 15.63 -3.968 15.828 -8 15 C-10.48 13.22 -11.587 11.826 -12.938 9.125 C-13.035 5.796 -11.749 3.774 -10 1 C-6.683 -1.63 -3.943 -1.15 0 0 Z M-10 3 C-10 4.32 -10 5.64 -10 7 C-8.68 7 -7.36 7 -6 7 C-6 5.68 -6 4.36 -6 3 C-7.32 3 -8.64 3 -10 3 Z " fill="#000000" transform="translate(167,70)"/>
<path d="M0 0 C1.32 0 2.64 0 4 0 C4.66 1.32 5.32 2.64 6 4 C7.98 3.67 9.96 3.34 12 3 C12 4.32 12 5.64 12 7 C7.448 8.059 5.253 7.724 1 6 C0.01 6.66 -0.98 7.32 -2 8 C-5.188 7.625 -5.188 7.625 -8 7 C-8.33 5.68 -8.66 4.36 -9 3 C-6.69 3.33 -4.38 3.66 -2 4 C-1.34 2.68 -0.68 1.36 0 0 Z " fill="#000000" transform="translate(133,82)"/>
</svg>
