<?xml version="1.0" encoding="UTF-8"?>
<!-- Generator: visioncortex VTracer 0.6.4 -->
<svg version="1.1" xmlns="http://www.w3.org/2000/svg" width="234" height="256">
<path d="M0 0 C1.645 1.926 1.645 1.926 2.812 4.312 C3.211 5.092 3.609 5.872 4.02 6.676 C5.855 11.027 6.018 14.504 5.833 19.245 C5.569 26.788 5.756 32.285 9.754 38.91 C13.255 44.782 13.277 51.348 13 58 C15.31 58 17.62 58 20 58 C20 58.99 20 59.98 20 61 C17.69 61 15.38 61 13 61 C13 62.32 13 63.64 13 65 C14.98 65.99 16.96 66.98 19 68 C19 68.33 19 68.66 19 69 C16.36 69 13.72 69 11 69 C10.526 69.99 10.051 70.98 9.562 72 C5.738 78.696 -0.836 84.204 -8 87 C-8.66 87 -9.32 87 -10 87 C-9.613 87.848 -9.227 88.696 -8.828 89.57 C-4.212 99.967 0.381 110.421 0 122 C1.125 122.238 1.125 122.238 2.273 122.48 C11.222 124.52 21.393 127.15 27 135 C27.625 138.562 27.625 138.562 27 142 C25.062 144.5 25.062 144.5 22 146 C15.097 146.817 9.393 143.474 3.504 140.277 C1.172 138.849 1.172 138.849 -1 139 C-1.598 139.639 -2.196 140.279 -2.812 140.938 C-7.48 145.338 -14.652 144.199 -20.723 144.328 C-24.835 145.171 -25.69 146.614 -28 150 C-30.438 151.062 -30.438 151.062 -33 151 C-35.812 149.187 -35.812 149.187 -38 147 C-38 146.34 -38 145.68 -38 145 C-45.033 145.01 -45.033 145.01 -50.75 148.625 C-51.864 149.801 -51.864 149.801 -53 151 C-56.385 151 -58.185 150.625 -60.875 148.562 C-62 147 -62 147 -62 145 C-63.901 144.853 -63.901 144.853 -65.84 144.703 C-83.315 143.209 -83.315 143.209 -90 139 C-90.836 137.055 -90.836 137.055 -91 135 C-90.34 134.01 -89.68 133.02 -89 132 C-89.237 128.915 -89.237 128.915 -89.938 125.562 C-91.268 118.559 -91.268 118.559 -90 115 C-90.804 114.835 -91.609 114.67 -92.438 114.5 C-100.796 110.981 -106.52 104.266 -110 96 C-112.174 89.267 -112.266 80.717 -109.188 74.312 C-107 71 -107 71 -104 69 C-102.68 69 -101.36 69 -100 69 C-100.66 67.35 -101.32 65.7 -102 64 C-103.65 64 -105.3 64 -107 64 C-107.33 63.01 -107.66 62.02 -108 61 C-106.02 61 -104.04 61 -102 61 C-101.974 60.189 -101.948 59.378 -101.922 58.543 C-101.633 52.912 -101.268 48.109 -98.938 42.938 C-96.712 37.532 -96.802 32.681 -96.938 26.938 C-97.134 18.131 -96.812 11.301 -91.875 3.75 C-88.765 1.857 -88.224 1.741 -84.812 2.312 C-79.106 3.976 -72.543 7.016 -68.632 11.605 C-67.102 13.189 -67.102 13.189 -64.998 13.157 C-64.246 13.057 -63.494 12.958 -62.719 12.855 C-61.882 12.755 -61.045 12.655 -60.183 12.552 C-59.298 12.432 -58.412 12.311 -57.5 12.188 C-55.679 11.973 -53.857 11.762 -52.035 11.555 C-51.161 11.454 -50.288 11.353 -49.387 11.249 C-43.944 10.681 -38.549 10.575 -33.145 11.477 C-27.912 12.513 -27.912 12.513 -23.176 10.719 C-22.073 9.501 -20.997 8.258 -19.945 6.996 C-14.851 1.768 -7.221 -2.384 0 0 Z M-20.625 11.938 C-21.325 12.848 -21.325 12.848 -22.039 13.777 C-24.718 15.447 -26.683 14.852 -29.694 14.344 C-33.879 13.72 -38.089 13.81 -42.312 13.812 C-43.238 13.811 -44.164 13.81 -45.117 13.808 C-50.859 13.849 -56.255 14.235 -61.844 15.66 C-64.532 16.084 -66.399 15.789 -69 15 C-70.703 13.73 -70.703 13.73 -72.25 12.188 C-75.996 8.801 -80.072 6.263 -85 5 C-87.635 5.024 -87.635 5.024 -90 6 C-95.575 13.044 -94.585 23.556 -94 32 C-93.67 32.99 -93.34 33.98 -93 35 C-93.713 36.988 -94.52 38.943 -95.375 40.875 C-98.032 47.47 -99.421 53.858 -99 61 C-98.34 61.66 -97.68 62.32 -97 63 C-97.248 63.928 -97.248 63.928 -97.5 64.875 C-98.169 67.719 -97.523 68.533 -96 71 C-95.464 71.949 -94.928 72.897 -94.375 73.875 C-88.254 81.929 -78.717 86.89 -68.785 88.531 C-66.184 88.772 -63.611 88.943 -61 89 C-61 89.99 -61 90.98 -61 92 C-66.28 91.01 -71.56 90.02 -77 89 C-86.763 106.978 -86.763 106.978 -87 127 C-86.071 129.964 -86.071 129.964 -85 132 C-85.495 132.454 -85.99 132.907 -86.5 133.375 C-88.226 134.876 -88.226 134.876 -88 137 C-81.117 140.693 -73.643 141.164 -66 142 C-64.719 139.028 -65.051 137.849 -66.109 134.715 C-66.647 133.452 -67.194 132.193 -67.75 130.938 C-70.378 124.73 -72.443 118.571 -74 112 C-73.34 112 -72.68 112 -72 112 C-71.876 112.574 -71.752 113.147 -71.625 113.738 C-70.019 120.354 -67.683 126.546 -65.062 132.812 C-64.727 133.624 -64.391 134.436 -64.045 135.273 C-62.083 139.88 -59.927 143.934 -57 148 C-54.563 147.73 -54.563 147.73 -52 147 C-46.574 138.861 -49.246 127.038 -51 118 C-51.57 115.608 -52.222 113.334 -53 111 C-51 112 -51 112 -50.184 114.344 C-48.002 123.572 -47.328 132.546 -47 142 C-44.69 142 -42.38 142 -40 142 C-39.951 140.756 -39.902 139.512 -39.852 138.23 C-38.979 118.079 -38.979 118.079 -37 112 C-36.34 111.67 -35.68 111.34 -35 111 C-35.144 111.574 -35.289 112.147 -35.438 112.738 C-36.836 119.139 -37.22 125.347 -37.25 131.875 C-37.259 132.695 -37.268 133.515 -37.277 134.361 C-37.251 139.767 -37.004 143.996 -33 148 C-30.468 147.796 -29.345 147.38 -27.628 145.489 C-24.509 140.318 -22.498 135.224 -20.812 129.438 C-20.566 128.626 -20.319 127.815 -20.064 126.979 C-18.659 122.334 -17.322 117.669 -16 113 C-14.872 116.383 -15.131 117.171 -16.18 120.457 C-16.449 121.323 -16.719 122.188 -16.996 123.08 C-17.431 124.433 -17.431 124.433 -17.875 125.812 C-20.428 133.786 -20.428 133.786 -22 142 C-19.916 141.858 -17.833 141.712 -15.75 141.562 C-14.59 141.481 -13.43 141.4 -12.234 141.316 C-8.53 141.008 -8.53 141.008 -5 140 C-4.67 139.01 -4.34 138.02 -4 137 C-4.371 136.402 -4.743 135.804 -5.125 135.188 C-5.414 134.466 -5.702 133.744 -6 133 C-5.319 131.793 -5.319 131.793 -4.625 130.562 C-0.305 121.092 -3.358 110.974 -6.637 101.633 C-8.192 97.487 -9.631 93.745 -12 90 C-15.165 88.699 -17.489 89.122 -20.75 89.938 C-21.549 90.132 -22.348 90.327 -23.172 90.527 C-23.775 90.683 -24.378 90.839 -25 91 C-24.67 90.34 -24.34 89.68 -24 89 C-21.505 88.18 -19.029 87.449 -16.5 86.75 C-6.718 83.856 1.131 79.657 7 71 C7.495 69.515 7.495 69.515 8 68 C7.67 67.34 7.34 66.68 7 66 C7.99 65.67 8.98 65.34 10 65 C9.794 64.237 9.588 63.474 9.375 62.688 C9 60 9 60 11 57 C10.903 48.545 8.159 41.955 4.199 34.648 C2.569 31.049 2.986 28.764 4 25 C4.506 17.282 3.246 8.054 -2 2 C-9.518 1.092 -15.932 6.578 -20.625 11.938 Z M-105 73.375 C-108.442 77.893 -109.14 82.946 -108.883 88.559 C-107.521 97.467 -102.62 104.331 -95.68 109.914 C-93.512 111.316 -91.568 111.844 -89 112 C-87.961 108.837 -87.961 108.837 -88 105 C-89.296 103.022 -90.793 101.455 -92.43 99.75 C-95.716 96.088 -96.911 92.266 -97.25 87.438 C-97 84 -97 84 -96.188 80.938 C-95.975 77.607 -96.312 77.123 -98.312 74.625 C-101.467 71.382 -101.467 71.382 -105 73.375 Z M-93 80 C-95.359 83.686 -95.431 86.693 -95 91 C-93.411 95.258 -91.502 99.022 -88 102 C-87.34 102 -86.68 102 -86 102 C-84.993 100.066 -83.994 98.128 -83 96.188 C-82.443 95.109 -81.886 94.03 -81.312 92.918 C-79.795 90.077 -79.795 90.077 -80 87 C-80.519 86.746 -81.039 86.492 -81.574 86.23 C-85.487 84.3 -89.296 82.315 -93 80 Z M0 125 C-1.485 128.96 -1.485 128.96 -3 133 C7.975 140.383 7.975 140.383 20.562 142.812 C22.921 142.228 22.921 142.228 24 141 C24.586 138.672 24.586 138.672 24 136 C18.023 129.359 8.673 126.187 0 125 Z " fill="#000000" transform="translate(182,83)"/>
<path d="M0 0 C3.065 2.043 3.822 3.441 4.938 6.938 C5.013 10.629 4.246 12.113 2 15 C-1.513 17.342 -2.865 17.496 -7 17 C-9.7 15.2 -11.542 13.916 -13 11 C-13.53 7.026 -13.319 5.458 -11 2.125 C-6.854 -0.811 -5.007 -0.715 0 0 Z M-10 4 C-10.33 5.32 -10.66 6.64 -11 8 C-9.68 8 -8.36 8 -7 8 C-7 6.68 -7 5.36 -7 4 C-7.99 4 -8.98 4 -10 4 Z " fill="#000000" transform="translate(170,127)"/>
<path d="M0 0 C2.818 2.596 3.856 4.23 4.562 8 C3.781 12.17 2.447 13.559 -1 16 C-4.02 16.688 -5.812 16.455 -9 16 C-12.065 13.957 -12.822 12.559 -13.938 9.062 C-14.014 5.325 -13.382 3.859 -11 1 C-7.138 -1.296 -4.257 -1.359 0 0 Z M-12 4 C-11.67 5.32 -11.34 6.64 -11 8 C-9.68 7.67 -8.36 7.34 -7 7 C-7.33 5.68 -7.66 4.36 -8 3 C-10.075 2.851 -10.075 2.851 -12 4 Z " fill="#000000" transform="translate(115,129)"/>
<path d="M0 0 C0.99 0 1.98 0 3 0 C3.33 1.32 3.66 2.64 4 4 C6.64 3.67 9.28 3.34 12 3 C11.67 4.32 11.34 5.64 11 7 C6.707 8.263 4.122 7.63 0 6 C-0.66 6.66 -1.32 7.32 -2 8 C-4.625 8.125 -4.625 8.125 -7 8 C-7.66 6.68 -8.32 5.36 -9 4 C-6.69 4 -4.38 4 -2 4 C-1.34 2.68 -0.68 1.36 0 0 Z " fill="#000000" transform="translate(136,141)"/>
</svg>
