<?xml version="1.0" encoding="UTF-8"?>
<!-- Generator: visioncortex VTracer 0.6.4 -->
<svg version="1.1" xmlns="http://www.w3.org/2000/svg" width="234" height="256">
<path d="M0 0 C6.201 1.404 12.699 5.797 16.867 10.496 C18.754 12.501 18.754 12.501 21.434 12.422 C22.859 12.213 22.859 12.213 24.312 12 C32.31 11.063 40.185 10.56 48.16 11.945 C56.039 13.56 56.039 13.56 63.676 11.965 C65.882 10.17 67.857 8.252 69.875 6.25 C74.681 3.08 79.025 1.237 84.875 2.25 C89.695 6.4 91.606 12.835 92.094 19.031 C92.139 23.118 91.969 26.804 91.125 30.812 C90.81 35.147 92.094 37.773 93.816 41.695 C96.172 47.38 97.19 53.099 96.875 59.25 C98.855 59.25 100.835 59.25 102.875 59.25 C102.875 60.24 102.875 61.23 102.875 62.25 C100.895 62.58 98.915 62.91 96.875 63.25 C96.38 65.23 96.38 65.23 95.875 67.25 C97.855 67.58 99.835 67.91 101.875 68.25 C101.875 68.91 101.875 69.57 101.875 70.25 C100.328 69.972 100.328 69.972 98.75 69.688 C94.919 69.812 94.919 69.812 93.355 72.008 C92.377 73.597 91.413 75.196 90.461 76.801 C86.019 83.661 79.026 87.658 71.875 91.25 C72.346 92.277 72.816 93.305 73.301 94.363 C76.84 102.201 79.999 109.817 81.875 118.25 C86.39 115.787 88.974 113.501 91.145 108.805 C92.398 104.421 92.367 99.959 92.406 95.422 C92.875 92.25 92.875 92.25 94.691 89.863 C96.875 88.25 96.875 88.25 100.312 87.688 C104.753 88.389 106.124 89.771 108.875 93.25 C111.571 101.339 109.436 108.75 105.875 116.25 C101.412 124.119 94.423 129.36 85.875 132.25 C84.555 132.25 83.235 132.25 81.875 132.25 C81.566 133.343 81.256 134.436 80.938 135.562 C80.292 137.804 79.613 140.037 78.875 142.25 C79.184 143.209 79.184 143.209 79.5 144.188 C79.875 146.25 79.875 146.25 78.684 148.32 C76.498 150.652 75.446 150.857 72.312 151.191 C71.433 151.3 70.554 151.409 69.648 151.521 C68.276 151.666 68.276 151.666 66.875 151.812 C65.061 152.01 63.249 152.22 61.438 152.441 C60.634 152.526 59.831 152.61 59.004 152.698 C56.472 153.355 55.681 154.424 53.875 156.25 C50.867 156.584 48.771 156.81 45.875 156.25 C44.502 154.958 43.165 153.626 41.875 152.25 C38.875 151.583 38.875 151.583 35.875 152.25 C34.916 153.24 34.916 153.24 33.938 154.25 C31.875 156.25 31.875 156.25 28.312 156.688 C24.875 156.25 24.875 156.25 23.455 154.775 C21.386 152.778 19.997 152.716 17.164 152.406 C15.791 152.238 15.791 152.238 14.391 152.066 C13.437 151.962 12.483 151.858 11.5 151.75 C0.109 150.493 0.109 150.493 -4.125 147.25 C-3.898 146.219 -3.671 145.188 -3.438 144.125 C-3.073 139.6 -4.103 138.216 -6.125 134.25 C-9.708 118.534 -2.234 103.346 3.875 89.25 C2.806 88.722 2.806 88.722 1.715 88.184 C-7.493 83.437 -13.406 78.499 -18.125 69.25 C-20.435 69.25 -22.745 69.25 -25.125 69.25 C-25.125 68.59 -25.125 67.93 -25.125 67.25 C-22.155 66.755 -22.155 66.755 -19.125 66.25 C-19.125 64.6 -19.125 62.95 -19.125 61.25 C-21.435 60.92 -23.745 60.59 -26.125 60.25 C-26.125 59.59 -26.125 58.93 -26.125 58.25 C-23.815 58.25 -21.505 58.25 -19.125 58.25 C-19.207 57.198 -19.29 56.146 -19.375 55.062 C-19.398 48.519 -17.335 41.008 -14.016 35.363 C-12.633 32.082 -12.825 28.696 -12.75 25.188 C-12.389 16.461 -10.97 9.249 -5.812 2 C-3.125 0.25 -3.125 0.25 0 0 Z M-7.055 8.902 C-9.898 15.14 -11.706 23.525 -9.473 30.199 C-8.989 33.052 -9.938 34.273 -11.375 36.75 C-14.957 43.474 -17.125 50.604 -17.125 58.25 C-16.135 58.91 -15.145 59.57 -14.125 60.25 C-15.115 60.745 -15.115 60.745 -16.125 61.25 C-16.125 62.57 -16.125 63.89 -16.125 65.25 C-15.465 65.91 -14.805 66.57 -14.125 67.25 C-13.979 68.035 -13.834 68.82 -13.684 69.629 C-12.521 75.082 -8.043 78.873 -3.648 82.027 C1.421 85.16 6.346 88.164 12.438 88.312 C15.696 86.892 16.773 84.812 18.703 81.91 C20.262 79.702 21.216 78.858 23.875 78.25 C26.6 78.408 29.173 78.8 31.875 79.25 C33.871 89.062 31.251 97.788 26.125 106.312 C22.253 111.641 17.686 113.648 11.375 115 C10.55 115.082 9.725 115.165 8.875 115.25 C8.875 114.26 8.875 113.27 8.875 112.25 C9.7 112.353 10.525 112.456 11.375 112.562 C16.841 112.074 20.811 109.649 24.391 105.488 C28.659 99.15 31.816 90.966 30.875 83.25 C29.242 80.1 29.242 80.1 26.688 79.625 C19.472 81.228 15.208 89.403 11.453 95.211 C9.875 97.25 9.875 97.25 6.875 98.25 C8.195 95.94 9.515 93.63 10.875 91.25 C9.555 91.25 8.235 91.25 6.875 91.25 C-3.448 110.908 -3.448 110.908 -3.48 132.438 C-2.98 133.78 -2.449 135.112 -1.879 136.426 C-0.368 140.083 0.105 142.422 -1.125 146.25 C5.676 148.154 11.794 149.659 18.875 149.25 C17.36 144.668 15.827 140.094 14.234 135.539 C13.698 133.984 13.161 132.43 12.625 130.875 C12.344 130.082 12.063 129.289 11.773 128.473 C11.513 127.711 11.253 126.949 10.984 126.164 C10.628 125.142 10.628 125.142 10.265 124.1 C9.875 122.25 9.875 122.25 10.875 119.25 C11.227 120.387 11.579 121.524 11.941 122.695 C16.783 140.54 16.783 140.54 27.875 154.25 C30.618 153.244 31.672 152.661 32.988 149.996 C36.237 139.936 32.88 128.322 30.875 118.25 C31.535 118.25 32.195 118.25 32.875 118.25 C33.386 121.561 33.882 124.874 34.375 128.188 C34.518 129.114 34.661 130.04 34.809 130.994 C35.471 135.491 35.957 139.828 35.906 144.379 C35.896 145.656 35.886 146.934 35.875 148.25 C36.941 149.546 36.941 149.546 39.438 149.312 C40.644 149.282 40.644 149.282 41.875 149.25 C41.924 148.006 41.973 146.762 42.023 145.48 C42.896 125.329 42.896 125.329 44.875 119.25 C45.535 118.92 46.195 118.59 46.875 118.25 C46.742 118.882 46.609 119.513 46.473 120.164 C43.26 136.307 43.26 136.307 45.875 152.25 C48.345 153.926 48.345 153.926 50.875 154.25 C59.807 147.104 62.775 132.894 65.875 122.25 C65.875 121.26 65.875 120.27 65.875 119.25 C66.535 119.91 67.195 120.57 67.875 121.25 C67.519 122.309 67.519 122.309 67.156 123.39 C66.082 126.593 65.01 129.796 63.938 133 C63.378 134.667 63.378 134.667 62.807 136.367 C62.27 137.972 62.27 137.972 61.723 139.609 C61.393 140.594 61.063 141.578 60.723 142.593 C60.018 144.802 59.402 146.993 58.875 149.25 C65.592 149.57 70.632 148.729 76.875 146.25 C76.463 145.59 76.05 144.93 75.625 144.25 C74.875 141.25 74.875 141.25 76.75 137.875 C81.144 129.867 79.671 120.176 77.224 111.734 C74.71 102.515 74.71 102.515 68.492 95.852 C64.524 93.423 62.325 89.628 59.801 85.812 C57.444 82.505 56.147 81.325 52.18 80.227 C48.793 79.864 48.793 79.864 46.875 82.25 C46.219 90.698 49.46 99.989 54.703 106.531 C59.201 110.852 62.676 112.139 68.875 112.25 C68.545 112.91 68.215 113.57 67.875 114.25 C61.322 113.726 57.242 111.939 52.867 106.969 C48.119 100.488 44.23 91.455 44.875 83.25 C45.664 81.055 45.664 81.055 46.875 79.25 C50.492 78.295 53.044 78.047 56.688 78.938 C59.284 80.495 59.7 81.509 60.875 84.25 C62.18 85.939 63.509 87.61 64.875 89.25 C75.033 86.832 84.086 82.306 89.875 73.25 C90.645 71.223 90.645 71.223 90.875 69.25 C90.545 68.59 90.215 67.93 89.875 67.25 C90.865 67.25 91.855 67.25 92.875 67.25 C93.205 66.26 93.535 65.27 93.875 64.25 C92.39 63.755 92.39 63.755 90.875 63.25 C91.37 62.92 91.865 62.59 92.375 62.25 C94.241 59.762 94.347 57.838 94.238 54.773 C93.372 48.758 91.548 42.437 88.719 37.047 C87.604 34.672 88.127 32.947 88.57 30.43 C89.643 22.754 89.813 14.171 85.875 7.25 C84.152 5.322 84.152 5.322 81.875 4.25 C75.293 5.313 68.595 9.629 63.875 14.25 C63.545 15.24 63.215 16.23 62.875 17.25 C61.917 17.033 60.959 16.817 59.973 16.594 C48.567 14.156 37.298 13.143 25.688 14.828 C21.271 15.317 18.492 15.458 14.883 12.762 C14.261 12.16 13.64 11.558 13 10.938 C8.761 7.058 4.871 4.106 -0.75 2.5 C-4.251 3.606 -5.301 5.775 -7.055 8.902 Z M95.875 92.25 C94.902 95.095 94.839 97.522 95 100.5 C95.069 107.496 92.777 113.208 87.875 118.25 C86.803 118.869 85.73 119.488 84.625 120.125 C83.718 120.826 82.81 121.528 81.875 122.25 C81.374 125.919 81.374 125.919 81.875 129.25 C89.251 128.936 94.613 125.682 99.676 120.355 C105.032 113.617 107.456 107.161 107.164 98.523 C106.773 95.445 105.956 93.554 103.875 91.25 C100.686 89.707 98.709 90.198 95.875 92.25 Z " fill="#000000" transform="translate(95.125,23.75)"/>
<path d="M0 0 C1.237 0.743 1.237 0.743 2.5 1.5 C2.223 4.83 1.689 6.288 -0.562 8.812 C-4.521 11.086 -6.987 10.806 -11.5 10.5 C-12.16 9.18 -12.82 7.86 -13.5 6.5 C-12.578 6.57 -12.578 6.57 -11.637 6.641 C-10.828 6.677 -10.02 6.713 -9.188 6.75 C-7.987 6.82 -7.987 6.82 -6.762 6.891 C-4.311 6.709 -4.311 6.709 -2.707 4.484 C-2.309 3.83 -1.91 3.175 -1.5 2.5 C-3.271 2.641 -5.042 2.788 -6.812 2.938 C-7.799 3.019 -8.785 3.1 -9.801 3.184 C-12.594 3.418 -12.594 3.418 -15.5 4.5 C-16.16 4.17 -16.82 3.84 -17.5 3.5 C-16.5 0.5 -16.5 0.5 -14.438 -0.688 C-9.06 -2.175 -5.058 -2.168 0 0 Z " fill="#000000" transform="translate(112.5,77.5)"/>
<path d="M0 0 C1.034 0.004 2.068 0.008 3.133 0.012 C5.875 0.312 5.875 0.312 8.875 2.312 C8.875 3.302 8.875 4.293 8.875 5.312 C7.628 5.169 7.628 5.169 6.355 5.023 C5.269 4.913 4.182 4.802 3.062 4.688 C1.984 4.571 0.905 4.455 -0.207 4.336 C-3.321 4.038 -3.321 4.038 -6.125 6.312 C-2.921 8.448 -2.106 8.544 1.562 8.438 C2.371 8.419 3.179 8.401 4.012 8.383 C4.627 8.36 5.241 8.336 5.875 8.312 C4.875 11.312 4.875 11.312 2.875 12.312 C-1.165 12.694 -3.418 12.737 -6.938 10.625 C-9.188 8.246 -10.175 6.421 -11.125 3.312 C-7.276 0.621 -4.679 -0.076 0 0 Z " fill="#000000" transform="translate(162.125,75.6875)"/>
<path d="M0 0 C0.99 0.33 1.98 0.66 3 1 C3.33 1.99 3.66 2.98 4 4 C6.31 4 8.62 4 11 4 C11 4.99 11 5.98 11 7 C8.229 8.386 6.067 8.188 3 8 C2.01 7.34 1.02 6.68 0 6 C-0.66 6.66 -1.32 7.32 -2 8 C-5.625 7.625 -5.625 7.625 -9 7 C-8.67 5.68 -8.34 4.36 -8 3 C-6.35 3.33 -4.7 3.66 -3 4 C-2.01 2.68 -1.02 1.36 0 0 Z " fill="#000000" transform="translate(132,83)"/>
</svg>
