<?xml version="1.0" encoding="UTF-8"?>
<!-- Generator: visioncortex VTracer 0.6.4 -->
<svg version="1.1" xmlns="http://www.w3.org/2000/svg" width="234" height="256">
<path d="M0 0 C3.904 0.558 5.431 1.505 8.062 4.438 C9.228 8.446 9.495 10.49 7.75 14.312 C6.062 16.438 6.062 16.438 4.062 17.438 C1.058 17.573 -1.928 17.48 -4.938 17.438 C-4.938 20.737 -4.938 24.038 -4.938 27.438 C-4.32 27.028 -3.703 26.618 -3.066 26.195 C2.274 22.798 7.542 19.451 14.062 19.438 C17.976 21.6 19.269 25.536 20.531 29.664 C21.72 35.869 21.926 42.882 20.43 49.043 C19.961 52.1 20.682 53.699 21.938 56.5 C24.301 61.863 25.189 65.785 25.125 71.688 C25.116 72.765 25.107 73.843 25.098 74.953 C25.086 75.773 25.074 76.593 25.062 77.438 C27.373 77.438 29.683 77.438 32.062 77.438 C32.062 78.097 32.062 78.757 32.062 79.438 C31.114 79.499 30.165 79.561 29.188 79.625 C27.641 80.027 27.641 80.027 26.062 80.438 C24.61 82.9 24.61 82.9 24.062 85.438 C26.043 85.767 28.022 86.097 30.062 86.438 C30.062 87.097 30.062 87.757 30.062 88.438 C27.423 88.108 24.782 87.778 22.062 87.438 C21.856 88.118 21.65 88.799 21.438 89.5 C17.83 97.208 11.68 101.858 4.062 105.438 C3.072 105.438 2.082 105.438 1.062 105.438 C1.605 106.621 2.148 107.804 2.707 109.023 C12.062 129.614 12.062 129.614 12.062 136.438 C17.235 133.263 21.1 130.325 23.062 124.438 C23.257 120.887 23.38 117.339 23.488 113.785 C24.148 109.938 24.944 108.716 28.062 106.438 C31.562 105.938 31.562 105.938 35.062 106.438 C38.481 109.025 40.672 112.144 41.398 116.41 C41.57 125.57 38.744 132.908 32.812 139.875 C27.658 145.198 22.974 147.915 15.75 149.312 C11.914 150.093 11.914 150.093 10 153.125 C8.912 156.969 9.315 159.55 10.062 163.438 C9.062 165.438 9.062 165.438 6.102 166.535 C0.79 167.925 -4.628 167.827 -10.086 167.916 C-14.984 168.076 -17.783 168.635 -21.938 171.438 C-25.125 170.813 -25.125 170.813 -27.938 169.438 C-28.597 168.447 -29.257 167.458 -29.938 166.438 C-33.003 165.704 -33.003 165.704 -35.938 165.438 C-36.247 166.077 -36.556 166.716 -36.875 167.375 C-37.937 169.437 -37.937 169.437 -38.938 170.438 C-42.312 170.688 -42.312 170.688 -45.938 170.438 C-46.413 169.955 -46.889 169.472 -47.379 168.975 C-49.397 166.985 -50.711 166.909 -53.5 166.594 C-54.819 166.426 -54.819 166.426 -56.164 166.254 C-57.079 166.149 -57.995 166.045 -58.938 165.938 C-60.751 165.731 -62.564 165.512 -64.375 165.281 C-65.178 165.19 -65.981 165.099 -66.809 165.006 C-69.36 164.325 -70.407 163.582 -71.938 161.438 C-71.773 160.324 -71.608 159.21 -71.438 158.062 C-70.852 153.817 -71.549 152.837 -73.938 149.438 C-78.704 134.787 -71.478 117.518 -64.938 104.438 C-65.742 104.231 -66.546 104.025 -67.375 103.812 C-76.169 100.418 -82.695 94.922 -86.938 86.438 C-89.248 86.438 -91.558 86.438 -93.938 86.438 C-93.938 85.778 -93.938 85.118 -93.938 84.438 C-91.463 83.448 -91.463 83.448 -88.938 82.438 C-88.969 80.47 -88.969 80.47 -89.938 78.438 C-92.934 77.133 -92.934 77.133 -95.938 76.438 C-94.947 75.448 -94.947 75.448 -93.938 74.438 C-91.312 74.812 -91.312 74.812 -88.938 75.438 C-88.923 74.71 -88.909 73.983 -88.895 73.234 C-88.62 67.449 -87.94 62.973 -85.375 57.75 C-82.978 52.555 -82.665 48.529 -82.875 42.938 C-83.179 34.69 -82.453 26.779 -77.059 20.117 C-74.938 18.438 -74.938 18.438 -72.895 18.09 C-66.744 18.908 -62.144 21.102 -56.938 24.438 C-56.514 23.492 -56.514 23.492 -56.082 22.527 C-54.558 19.744 -52.663 19.022 -49.938 17.438 C-49.195 16.695 -48.453 15.953 -47.688 15.188 C-39.977 7.477 -32.419 2.46 -21.441 1.41 C-17.406 1.454 -13.557 2.346 -9.637 3.258 C-5.464 3.536 -4.034 0.601 0 0 Z M-3.812 4.5 C-5.585 7.553 -4.63 10.102 -3.938 13.438 C-1.72 14.743 -1.72 14.743 1.062 15.438 C3.973 14.608 3.973 14.608 6.062 12.438 C6.603 9.196 6.652 7.368 4.875 4.562 C1.811 2.661 -0.696 2.734 -3.812 4.5 Z M-45.938 16.438 C-47.244 18.555 -47.244 18.555 -47.938 20.438 C-35.541 25.871 -24.353 27.07 -10.938 26.438 C-10.278 26.108 -9.618 25.778 -8.938 25.438 C-8.581 20.472 -8.581 20.472 -10.438 16 C-10.933 15.484 -11.428 14.969 -11.938 14.438 C-9.463 15.428 -9.463 15.428 -6.938 16.438 C-7.433 11.983 -7.433 11.983 -7.938 7.438 C-22.744 1.97 -34.271 5.902 -45.938 16.438 Z M-74.938 21.438 C-75.588 22.685 -76.233 23.936 -76.875 25.188 C-77.235 25.884 -77.594 26.58 -77.965 27.297 C-79.875 31.501 -79.953 34.965 -79.771 39.582 C-79.446 48.742 -80.797 55.156 -84.938 63.438 C-86.217 67.514 -86.14 71.185 -85.938 75.438 C-85.278 76.428 -84.618 77.417 -83.938 78.438 C-84.597 78.438 -85.257 78.438 -85.938 78.438 C-85.608 80.088 -85.278 81.737 -84.938 83.438 C-84.278 83.438 -83.618 83.438 -82.938 83.438 C-83.267 84.428 -83.597 85.417 -83.938 86.438 C-79.528 95.796 -69.506 100.198 -60.344 103.691 C-56.864 104.77 -53.566 105.169 -49.938 105.438 C-50.267 106.097 -50.597 106.757 -50.938 107.438 C-54.567 106.778 -58.198 106.118 -61.938 105.438 C-69.077 118.431 -73.775 131.402 -71.938 146.438 C-70.855 149.326 -69.46 151.737 -67.938 154.438 C-68.188 157.938 -68.188 157.938 -68.938 160.438 C-64.518 163.384 -60.422 163.489 -55.227 163.461 C-54.422 163.458 -53.617 163.454 -52.788 163.451 C-52.177 163.446 -51.567 163.442 -50.938 163.438 C-51.205 162.641 -51.472 161.844 -51.748 161.022 C-52.742 158.056 -53.736 155.089 -54.728 152.122 C-55.157 150.839 -55.587 149.557 -56.017 148.275 C-56.636 146.429 -57.254 144.581 -57.871 142.734 C-58.243 141.624 -58.615 140.514 -58.998 139.37 C-59.736 137.066 -60.394 134.793 -60.938 132.438 C-58.938 133.438 -58.938 133.438 -58.055 135.611 C-57.763 136.554 -57.47 137.497 -57.168 138.469 C-56.836 139.508 -56.504 140.547 -56.162 141.617 C-55.481 143.799 -54.801 145.981 -54.123 148.164 C-50.974 158.56 -50.974 158.56 -44.938 167.438 C-43.271 167.478 -41.604 167.48 -39.938 167.438 C-34.02 156.342 -37.631 144.149 -39.938 132.438 C-37.938 133.438 -37.938 133.438 -37.34 135.055 C-35.481 144.083 -35.296 153.252 -34.938 162.438 C-32.991 163.028 -32.991 163.028 -30.938 163.438 C-29.004 161.504 -29.667 157.843 -29.562 155.188 C-29.196 147.649 -27.924 140.734 -25.938 133.438 C-24.706 135.9 -25.019 136.83 -25.496 139.508 C-25.704 140.73 -25.704 140.73 -25.916 141.977 C-26.218 143.677 -26.52 145.378 -26.822 147.078 C-28.812 157.569 -28.812 157.569 -25.938 167.438 C-23.39 168.331 -23.39 168.331 -20.938 168.438 C-13.667 160.739 -4.938 145.442 -4.938 134.438 C-3.947 134.438 -2.957 134.438 -1.938 134.438 C-8.989 153.092 -8.989 153.092 -13.09 160.688 C-14.083 162.413 -14.083 162.413 -13.938 164.438 C-11.187 164.492 -8.438 164.531 -5.688 164.562 C-4.522 164.588 -4.522 164.588 -3.332 164.613 C2.146 164.697 2.146 164.697 7.062 162.438 C6.836 161.386 6.609 160.334 6.375 159.25 C6.024 154.971 6.619 153.821 9.062 150.438 C12.697 139.534 7.756 126.479 2.92 116.607 C1.346 113.524 -0.274 110.473 -1.938 107.438 C-6.228 107.767 -10.517 108.097 -14.938 108.438 C-14.938 108.108 -14.938 107.778 -14.938 107.438 C-13.91 107.218 -12.883 106.999 -11.824 106.773 C-0.059 104.137 9.749 100.82 17.918 91.465 C19.325 88.972 19.282 87.255 19.062 84.438 C20.053 84.108 21.043 83.778 22.062 83.438 C22.062 82.447 22.062 81.458 22.062 80.438 C21.403 80.438 20.743 80.438 20.062 80.438 C20.062 79.778 20.062 79.118 20.062 78.438 C20.722 78.438 21.382 78.438 22.062 78.438 C23.802 70.608 22.637 63.116 18.812 56.062 C16.345 51.029 17.547 46.988 18.594 41.656 C19.485 35.534 18.32 29.996 14.938 24.812 C14.319 24.029 13.7 23.245 13.062 22.438 C6.937 22.76 1.671 25.502 -2.938 29.438 C-4.245 32.194 -4.521 34.367 -4.938 37.438 C-15.56 42.749 -35.542 38.828 -46.703 35.703 C-51.392 33.868 -55.73 31.996 -58.875 27.938 C-61.68 24.538 -64.803 22.887 -68.938 21.438 C-72.273 21.099 -72.273 21.099 -74.938 21.438 Z M-52.938 22.438 C-54.712 24.358 -54.712 24.358 -55.938 26.438 C-54.98 28.852 -54.337 30.183 -52.117 31.598 C-41.112 35.907 -29.956 37.688 -18.188 37.75 C-17.044 37.758 -17.044 37.758 -15.877 37.767 C-12.097 37.717 -9.142 37.554 -5.938 35.438 C-6.433 31.972 -6.433 31.972 -6.938 28.438 C-7.835 28.461 -8.732 28.484 -9.656 28.508 C-22.363 28.692 -34.846 28.287 -46.703 23.242 C-49.169 22.212 -49.169 22.212 -52.938 22.438 Z M27.062 110.438 C26.066 113.519 26.092 115.874 26.312 119.125 C26.385 124.574 23.981 128.953 21.062 133.438 C18.438 135.938 18.438 135.938 16.062 137.438 C15.072 138.097 14.082 138.757 13.062 139.438 C12.326 143.005 12.326 143.005 12.062 146.438 C18.498 147.081 23.059 144.844 27.988 140.895 C33.69 135.559 37.533 129.125 38.266 121.254 C38.363 116.556 38.38 113.098 35.062 109.438 C31.252 108.009 30.543 108.117 27.062 110.438 Z " fill="#000000" transform="translate(150.9375,34.5625)"/>
<path d="M0 0 C2.375 1.125 2.375 1.125 4 3 C5.164 6.569 5.309 8.284 3.812 11.75 C1.89 14.137 0.934 15.162 -2 16 C-5.861 15.92 -7.509 15.428 -10.438 12.875 C-12 10 -12 10 -12 6.375 C-11 3 -11 3 -9.375 1.062 C-6.056 -0.422 -3.597 -0.385 0 0 Z M-9 3 C-9.33 4.32 -9.66 5.64 -10 7 C-8.35 6.67 -6.7 6.34 -5 6 C-5.33 5.01 -5.66 4.02 -6 3 C-6.99 3 -7.98 3 -9 3 Z " fill="#000000" transform="translate(95,96)"/>
<path d="M0 0 C3 2 3 2 5 5 C5.375 7.918 5.065 10.26 4 13 C1.875 15.062 1.875 15.062 -1 16 C-4.449 15.881 -6.933 15.676 -9.875 13.812 C-11.493 11.206 -11.813 9.047 -12 6 C-10.017 0.051 -5.8 -0.7 0 0 Z M-8 3 C-8.33 4.32 -8.66 5.64 -9 7 C-7.68 7 -6.36 7 -5 7 C-5.33 5.68 -5.66 4.36 -6 3 C-6.66 3 -7.32 3 -8 3 Z " fill="#000000" transform="translate(151,97)"/>
<path d="M0 0 C0.99 0.33 1.98 0.66 3 1 C3.33 1.99 3.66 2.98 4 4 C7.629 4.151 7.629 4.151 11 3 C9.5 11.75 9.5 11.75 5.75 14.875 C2.273 16.297 0.562 16.137 -3 15 C-7.064 12.065 -7.898 8.776 -9 4 C-6.69 4 -4.38 4 -2 4 C-1.34 2.68 -0.68 1.36 0 0 Z M-2.688 8.5 C-3.121 8.995 -3.554 9.49 -4 10 C-2.305 11.668 -2.305 11.668 0 13 C2.698 12.778 2.698 12.778 5 12 C5.33 11.01 5.66 10.02 6 9 C1.593 6.494 1.593 6.494 -2.688 8.5 Z " fill="#000000" transform="translate(118,108)"/>
</svg>
