<?xml version="1.0" encoding="UTF-8"?>
<!-- Generator: visioncortex VTracer 0.6.4 -->
<svg version="1.1" xmlns="http://www.w3.org/2000/svg" width="234" height="256">
<path d="M0 0 C2.5 0.875 2.5 0.875 3.75 2.938 C4.503 5.886 4.899 8.781 5.215 11.805 C5.647 14.945 6.556 17.853 7.5 20.875 C8.273 20.381 9.047 19.888 9.844 19.379 C20.985 12.526 20.985 12.526 27.5 12.875 C32.934 17.104 33.976 23.449 35.5 29.875 C35.78 33.173 35.651 35.948 35.121 39.199 C34.27 45.046 34.761 48.394 37.441 53.652 C40.201 59.447 40.77 65.541 40.5 71.875 C42.48 71.545 44.46 71.215 46.5 70.875 C46.5 71.865 46.5 72.855 46.5 73.875 C44.52 73.875 42.54 73.875 40.5 73.875 C40.17 75.525 39.84 77.175 39.5 78.875 C41.48 79.535 43.46 80.195 45.5 80.875 C45.5 81.535 45.5 82.195 45.5 82.875 C44.448 82.71 43.396 82.545 42.312 82.375 C38.584 82.435 38.584 82.435 37.168 84.41 C36.36 85.813 35.569 87.227 34.793 88.648 C30.539 95.975 24.07 99.57 16.5 102.875 C16.971 103.914 17.441 104.953 17.926 106.023 C26.5 125.153 26.5 125.153 26.5 131.875 C32.247 129.469 35.688 126.252 38.645 120.742 C40.048 116.039 39.543 111.333 39.334 106.469 C39.219 101.709 39.451 98.787 42.5 94.875 C43.5 93.875 43.5 93.875 47.312 93.562 C50.392 93.607 51.282 93.72 53.875 95.562 C58.32 101.889 58.2 108.391 57.5 115.875 C54.999 126.049 49.507 135.42 40.516 141.137 C37.199 142.866 34.378 143.901 30.688 144.688 C27.201 145.614 27.201 145.614 25.5 149.125 C24.463 153.014 24.812 155.006 25.5 158.875 C23.788 162.042 22.963 162.721 19.5 163.875 C18.151 163.975 16.798 164.029 15.445 164.051 C14.665 164.075 13.886 164.098 13.082 164.123 C11.452 164.166 9.822 164.197 8.191 164.217 C2.963 164.402 0.423 165.143 -3.5 168.875 C-6.062 169.375 -6.062 169.375 -8.5 168.875 C-9.098 168.215 -9.696 167.555 -10.312 166.875 C-12.759 164.638 -13.382 164.536 -16.562 164.438 C-20.82 164.911 -20.831 165.09 -23.5 167.875 C-29.622 168.543 -29.622 168.543 -32.434 166.404 C-34.794 164.657 -36.234 164.363 -39.125 164.031 C-39.996 163.919 -40.868 163.807 -41.766 163.691 C-42.668 163.587 -43.57 163.483 -44.5 163.375 C-46.293 163.168 -48.085 162.949 -49.875 162.719 C-50.666 162.628 -51.458 162.537 -52.273 162.443 C-54.899 161.773 -56.447 160.611 -58.5 158.875 C-58.273 157.844 -58.046 156.812 -57.812 155.75 C-57.448 151.225 -58.478 149.841 -60.5 145.875 C-64.008 132.204 -57.84 118.221 -52.5 105.875 C-51.828 104.211 -51.159 102.545 -50.5 100.875 C-51.604 100.705 -51.604 100.705 -52.73 100.531 C-61.195 98.526 -67.329 91.471 -72.5 84.875 C-72.83 84.215 -73.16 83.555 -73.5 82.875 C-75.822 82.468 -78.157 82.131 -80.5 81.875 C-80.5 81.215 -80.5 80.555 -80.5 79.875 C-77.53 79.38 -77.53 79.38 -74.5 78.875 C-75.125 76.351 -75.125 76.351 -76.5 73.875 C-79.048 72.981 -79.048 72.981 -81.5 72.875 C-81.5 72.215 -81.5 71.555 -81.5 70.875 C-79.52 70.875 -77.54 70.875 -75.5 70.875 C-75.486 70.316 -75.472 69.756 -75.457 69.18 C-75.047 62.279 -73.112 56.415 -70.656 49.977 C-68.884 45.222 -68.441 41.845 -68.625 36.75 C-68.684 27.953 -66.883 20.873 -61.5 13.875 C-61.17 13.545 -60.84 13.215 -60.5 12.875 C-52.341 12.875 -46.851 15.846 -40.5 20.875 C-38.68 23.105 -38.68 23.105 -37.5 24.875 C-30.974 24.569 -27.51 22.156 -22.5 18.125 C-21.146 17.067 -19.792 16.01 -18.438 14.953 C-17.458 14.176 -17.458 14.176 -16.458 13.384 C-14.551 11.914 -12.599 10.548 -10.613 9.188 C-7.22 6.667 -6.149 4.695 -4.5 0.875 C-2.5 -0.125 -2.5 -0.125 0 0 Z M-2.5 2.875 C-2.5 3.865 -2.5 4.855 -2.5 5.875 C-1.18 5.875 0.14 5.875 1.5 5.875 C1.17 4.885 0.84 3.895 0.5 2.875 C-0.49 2.875 -1.48 2.875 -2.5 2.875 Z M-13.375 14.312 C-14.408 15.106 -14.408 15.106 -15.461 15.916 C-17.153 17.22 -18.828 18.546 -20.5 19.875 C-13.825 27.046 -1.768 27.541 7.5 27.875 C6.711 25.624 5.919 23.374 5.125 21.125 C4.903 20.491 4.682 19.857 4.453 19.203 C3.822 17.42 3.162 15.647 2.5 13.875 C2.109 12.692 2.109 12.692 1.711 11.484 C0.525 9.624 0.525 9.624 -2.133 8.785 C-7.061 8.917 -9.624 11.306 -13.375 14.312 Z M-58.5 14.875 C-63.838 20.766 -65.889 26.64 -65.509 34.42 C-65.465 35.169 -65.421 35.917 -65.375 36.688 C-65.156 43.582 -65.917 48.378 -69.254 54.551 C-72.014 59.699 -72.791 65.058 -72.5 70.875 C-71.51 71.205 -70.52 71.535 -69.5 71.875 C-69.5 72.535 -69.5 73.195 -69.5 73.875 C-70.985 74.37 -70.985 74.37 -72.5 74.875 C-72.17 76.195 -71.84 77.515 -71.5 78.875 C-70.51 78.875 -69.52 78.875 -68.5 78.875 C-68.835 79.991 -68.835 79.991 -69.176 81.129 C-69.762 83.849 -69.762 83.849 -68.418 85.902 C-60.716 94.404 -51.608 99.106 -40.5 101.875 C-39.18 101.875 -37.86 101.875 -36.5 101.875 C-36.5 102.865 -36.5 103.855 -36.5 104.875 C-40.13 104.215 -43.76 103.555 -47.5 102.875 C-53.708 114.36 -61.85 130.573 -57.863 144.023 C-57.352 145.364 -56.818 146.696 -56.254 148.016 C-54.77 151.676 -54.276 154.068 -55.5 157.875 C-51.366 159.82 -47.73 160.245 -43.188 160.5 C-41.933 160.575 -40.679 160.65 -39.387 160.727 C-37.958 160.8 -37.958 160.8 -36.5 160.875 C-38.018 156.315 -39.539 151.755 -41.07 147.199 C-41.589 145.654 -42.107 144.108 -42.625 142.562 C-42.889 141.778 -43.154 140.994 -43.426 140.186 C-43.68 139.427 -43.934 138.668 -44.195 137.887 C-44.422 137.211 -44.649 136.535 -44.883 135.839 C-45.503 133.866 -46.019 131.886 -46.5 129.875 C-44.5 130.875 -44.5 130.875 -43.726 132.742 C-43.481 133.546 -43.236 134.351 -42.984 135.18 C-42.706 136.069 -42.427 136.958 -42.14 137.874 C-41.846 138.823 -41.553 139.772 -41.25 140.75 C-37.072 155.055 -37.072 155.055 -27.5 165.875 C-24.782 164.878 -23.707 164.288 -22.387 161.656 C-19.15 151.504 -22.317 139.998 -24.5 129.875 C-23.51 130.37 -23.51 130.37 -22.5 130.875 C-21.846 133.847 -21.319 136.746 -20.875 139.75 C-20.743 140.61 -20.611 141.469 -20.475 142.355 C-19.573 148.554 -19.12 154.607 -19.5 160.875 C-17.52 160.875 -15.54 160.875 -13.5 160.875 C-13.451 159.726 -13.402 158.578 -13.352 157.395 C-12.917 148.09 -12.17 139.051 -10.5 129.875 C-9.84 129.875 -9.18 129.875 -8.5 129.875 C-8.596 130.448 -8.692 131.022 -8.791 131.612 C-11.879 147.25 -11.879 147.25 -10.5 162.875 C-9.191 164.701 -9.191 164.701 -7.5 165.875 C-5.008 166.264 -5.008 166.264 -2.5 164.875 C1.686 159.636 4.005 153.515 6.188 147.25 C6.482 146.43 6.777 145.61 7.08 144.766 C8.316 141.31 9.504 137.861 10.582 134.352 C11.5 131.875 11.5 131.875 13.5 130.875 C13.268 131.565 13.036 132.256 12.797 132.967 C11.738 136.123 10.682 139.28 9.625 142.438 C9.26 143.524 8.895 144.61 8.52 145.729 C6.729 151.083 4.985 156.427 3.5 161.875 C9.86 162.077 15.352 161.503 21.5 159.875 C21.273 158.803 21.046 157.73 20.812 156.625 C20.5 152.875 20.5 152.875 21.875 150.625 C22.411 150.048 22.947 149.47 23.5 148.875 C28.609 133.547 20.224 117.36 13.5 103.875 C6.57 104.865 6.57 104.865 -0.5 105.875 C-0.17 105.215 0.16 104.555 0.5 103.875 C3.001 103.193 5.47 102.608 8 102.062 C19.378 99.393 27.872 94.817 34.5 84.875 C34.667 82.25 34.667 82.25 34.5 79.875 C35.16 79.875 35.82 79.875 36.5 79.875 C36.83 78.225 37.16 76.575 37.5 74.875 C36.84 74.545 36.18 74.215 35.5 73.875 C36.16 73.545 36.82 73.215 37.5 72.875 C38.072 64.437 36.366 56.23 32.344 48.715 C31.145 46.101 31.777 43.904 32.191 41.137 C33.466 31.794 31.711 24.296 27.5 15.875 C20.638 16.125 15.584 18.124 10.5 22.875 C9.277 25.49 9.419 26.603 10.25 29.383 C12.455 34.405 12.455 34.405 16.395 37.969 C18.499 38.604 18.499 38.604 21.5 38.875 C21.995 41.845 21.995 41.845 22.5 44.875 C19.5 46.875 19.5 46.875 16.125 46.75 C12.5 45.875 12.5 45.875 10.309 43.914 C6.593 41.217 3.414 40.923 -1.062 40.375 C-11.551 38.857 -21.25 36.185 -30.5 30.875 C-31.16 29.885 -31.82 28.895 -32.5 27.875 C-33.449 27.916 -34.398 27.957 -35.375 28 C-36.406 27.959 -37.438 27.918 -38.5 27.875 C-39.885 26.251 -41.208 24.574 -42.5 22.875 C-47.489 18.89 -52.255 16.204 -58.5 14.875 Z M-29.5 26.875 C-28.821 29.947 -28.821 29.947 -26.594 31.121 C-14.946 36.471 -2.302 39.322 10.5 39.875 C11.583 37.217 11.547 36.022 10.66 33.254 C7.356 29.615 3.66 29.52 -1.062 28.812 C-7.637 27.683 -13.642 26.468 -19.723 23.609 C-24.225 21.749 -26.167 23.992 -29.5 26.875 Z M15.5 38.875 C14.51 39.535 13.52 40.195 12.5 40.875 C13.16 42.195 13.82 43.515 14.5 44.875 C16.15 44.875 17.8 44.875 19.5 44.875 C19.83 43.555 20.16 42.235 20.5 40.875 C18.171 39.677 18.171 39.677 15.5 38.875 Z M44.336 97.344 C41.711 100.963 42.279 104.241 42.562 108.5 C42.804 116.028 42.333 121.74 37.5 127.875 C34.433 131.13 31.767 133.453 27.5 134.875 C27.5 137.185 27.5 139.495 27.5 141.875 C36.869 140.617 43.317 136.184 49.18 128.832 C54.564 120.852 55.749 112.372 54.5 102.875 C52.809 98.361 52.809 98.361 49.062 95.75 C46.418 95.656 46.418 95.656 44.336 97.344 Z " fill="#000000" transform="translate(121.5,11.125)"/>
<path d="M0 0 C3.738 0.701 5.394 1.808 8 4.562 C9.174 7.615 9.129 9.1 8.25 12.25 C7 14.562 7 14.562 4 16.562 C-0.402 17.133 -2.298 17.07 -5.938 14.438 C-8 11.562 -8 11.562 -8.625 8.562 C-7.584 3.563 -5.036 0.944 0 0 Z M-5 3.562 C-5.33 4.882 -5.66 6.203 -6 7.562 C-4.68 7.562 -3.36 7.562 -2 7.562 C-2 6.243 -2 4.922 -2 3.562 C-2.99 3.562 -3.98 3.562 -5 3.562 Z " fill="#000000" transform="translate(76,69.4375)"/>
<path d="M0 0 C3.027 2.151 3.874 3.26 4.5 6.938 C3.862 10.848 3.028 12.426 0 15 C-2.799 15.66 -5.196 15.622 -8 15 C-10.781 13.075 -11.732 11.697 -12.938 8.562 C-13.021 5.153 -12.087 3.662 -10 1 C-6.621 -1.564 -3.97 -1.158 0 0 Z M-9 2 C-9.66 3.32 -10.32 4.64 -11 6 C-9.68 6.33 -8.36 6.66 -7 7 C-6.67 5.68 -6.34 4.36 -6 3 C-6.99 2.67 -7.98 2.34 -9 2 Z " fill="#000000" transform="translate(136,71)"/>
<path d="M0 0 C1.875 0.312 1.875 0.312 4 1 C4.66 1.99 5.32 2.98 6 4 C7.98 3.67 9.96 3.34 12 3 C12 3.99 12 4.98 12 6 C11.34 6.66 10.68 7.32 10 8 C7.989 7.738 5.988 7.398 4 7 C0.132 6.867 0.132 6.867 -3.062 7.625 C-6 8 -6 8 -9 6 C-9 5.01 -9 4.02 -9 3 C-6.69 3.33 -4.38 3.66 -2 4 C-1.34 2.68 -0.68 1.36 0 0 Z " fill="#000000" transform="translate(102,83)"/>
</svg>
