<?xml version="1.0" encoding="UTF-8"?>
<!-- Generator: visioncortex VTracer 0.6.4 -->
<svg version="1.1" xmlns="http://www.w3.org/2000/svg" width="234" height="256">
<path d="M0 0 C5.442 2.988 7.879 9 9.883 14.742 C10.285 17.39 9.97 19.832 9.75 22.5 C9.636 30.907 13.33 36.813 17.26 43.963 C19.055 47.422 20.121 51.016 21.188 54.75 C23.167 54.75 25.148 54.75 27.188 54.75 C26.857 55.74 26.528 56.73 26.188 57.75 C23.712 58.245 23.712 58.245 21.188 58.75 C21.188 60.07 21.188 61.39 21.188 62.75 C22.838 63.08 24.488 63.41 26.188 63.75 C26.188 64.41 26.188 65.07 26.188 65.75 C24.548 65.781 24.548 65.781 22.875 65.812 C21.658 66.122 20.441 66.431 19.188 66.75 C17.718 69.571 17.718 69.571 17.066 71.707 C15.648 75.004 13.231 77.349 10.809 79.953 C9.009 81.861 9.009 81.861 7.188 84.75 C8.095 85.307 9.002 85.864 9.938 86.438 C15.3 90.253 17.682 94.425 20.16 100.371 C21.18 102.85 21.18 102.85 22.723 105.453 C24.58 109.634 25.022 113.552 25.562 118.062 C26.425 124.472 27.359 129.642 31.297 134.961 C32.575 137.529 32.042 139.075 31.188 141.75 C29.188 143.75 29.188 143.75 25.495 143.961 C23.896 143.954 22.298 143.936 20.699 143.91 C19.418 143.902 19.418 143.902 18.111 143.894 C15.365 143.877 12.62 143.845 9.875 143.812 C6.296 143.776 2.716 143.745 -0.863 143.723 C-1.734 143.717 -2.604 143.712 -3.501 143.706 C-9.347 143.693 -15.106 143.984 -20.931 144.516 C-25.703 144.903 -30.465 144.899 -35.25 144.875 C-36.752 144.871 -36.752 144.871 -38.285 144.867 C-44.573 144.827 -50.798 144.592 -57.062 144.023 C-60.177 143.796 -63.254 143.674 -66.375 143.602 C-67.364 143.574 -68.352 143.546 -69.371 143.517 C-71.335 143.465 -73.299 143.428 -75.264 143.406 C-79.514 143.279 -82.159 143.13 -85.887 140.961 C-87.819 138.743 -88.556 137.542 -89.062 134.688 C-89.191 134.016 -89.32 133.344 -89.453 132.652 C-89.572 132.025 -89.69 131.397 -89.812 130.75 C-90.142 129.76 -90.472 128.77 -90.812 127.75 C-91.075 122.418 -90.642 118.82 -88.812 113.75 C-89.635 113.724 -90.457 113.698 -91.305 113.672 C-106.064 112.922 -115.913 107.666 -125.812 96.75 C-127.297 93.781 -127.022 91.051 -127.062 87.75 C-127.088 86.492 -127.114 85.234 -127.141 83.938 C-126.978 82.36 -126.978 82.36 -126.812 80.75 C-123.011 78.216 -121.316 78.063 -116.812 78.75 C-113.805 81.212 -111.717 84.362 -109.609 87.598 C-104.972 94.631 -98.927 97.89 -90.812 99.75 C-90.606 98.863 -90.4 97.976 -90.188 97.062 C-88.429 92.827 -86.459 91.445 -82.812 88.75 C-83.534 88.049 -84.256 87.347 -85 86.625 C-87.002 84.668 -88.617 82.645 -90.25 80.375 C-91.096 79.509 -91.941 78.642 -92.812 77.75 C-96.07 77.722 -96.07 77.722 -98.812 78.75 C-98.812 77.76 -98.812 76.77 -98.812 75.75 C-96.338 75.255 -96.338 75.255 -93.812 74.75 C-94.142 73.1 -94.472 71.45 -94.812 69.75 C-97.123 69.75 -99.433 69.75 -101.812 69.75 C-101.812 69.09 -101.812 68.43 -101.812 67.75 C-98.843 67.255 -98.843 67.255 -95.812 66.75 C-95.865 65.768 -95.865 65.768 -95.918 64.766 C-96.11 58.289 -95.306 52.714 -93.566 46.477 C-92.25 41.717 -91.71 38.597 -92.812 33.75 C-93.438 25.245 -92.999 16.925 -88.43 9.504 C-86.812 7.75 -86.812 7.75 -83.25 7.188 C-76.619 7.529 -70.417 10.892 -65.938 15.688 C-62.168 18.175 -61.145 17.844 -56.812 17.125 C-54.809 16.682 -52.809 16.223 -50.812 15.75 C-46.921 14.849 -43.439 14.758 -39.477 14.969 C-28.737 15.975 -28.737 15.975 -18.809 12.926 C-16.837 10.614 -16.837 10.614 -15.305 8.082 C-12.205 3.238 -5.792 -0.515 0 0 Z M-14.18 10.016 C-18.182 13.847 -18.182 13.847 -19.812 18.75 C-20.802 18.255 -20.802 18.255 -21.812 17.75 C-25.159 17.477 -28.518 17.511 -31.875 17.5 C-33.35 17.494 -33.35 17.494 -34.855 17.488 C-41.932 17.544 -48.622 18.259 -55.531 19.771 C-61.728 21.111 -61.728 21.111 -64.812 19.75 C-66.383 18.48 -66.383 18.48 -67.938 16.938 C-71.981 13.322 -76.534 11.032 -81.812 9.75 C-83.99 9.906 -83.99 9.906 -85.812 10.75 C-89.794 16.206 -89.974 21.105 -89.938 27.688 C-89.941 28.391 -89.945 29.094 -89.949 29.818 C-89.944 32.774 -89.873 35.496 -89.184 38.379 C-88.676 41.622 -89.614 43.69 -90.75 46.75 C-93.012 53.552 -93.231 59.64 -92.812 66.75 C-91.822 67.08 -90.833 67.41 -89.812 67.75 C-89.812 68.41 -89.812 69.07 -89.812 69.75 C-90.472 69.75 -91.132 69.75 -91.812 69.75 C-90.637 75.865 -87.9 80.402 -83.113 84.297 C-75.179 89.308 -65.234 92.641 -55.812 91.75 C-53.826 91.3 -51.848 90.818 -49.875 90.312 C-39.882 87.878 -29.756 87.28 -19.531 88.3 C-11.013 89.14 -5.226 88.021 2.188 83.75 C2.948 83.314 3.709 82.879 4.492 82.43 C10.552 78.428 15.045 72.44 16.777 65.328 C17.121 62.937 17.121 62.937 17.188 59.75 C16.528 59.75 15.868 59.75 15.188 59.75 C15.188 58.76 15.188 57.77 15.188 56.75 C15.847 56.75 16.507 56.75 17.188 56.75 C16.69 48.121 13.55 40.213 8.812 33 C7.016 29.407 7.281 27.832 8.004 23.984 C8.587 16.894 5.13 9.969 1.469 4.113 C1.046 3.663 0.623 3.214 0.188 2.75 C-5.516 2.75 -10.157 6.165 -14.18 10.016 Z M-125.812 83.75 C-126.547 88.339 -125.961 91.05 -123.312 94.75 C-116.054 103.501 -108.193 108.918 -96.812 110.75 C-95.209 110.814 -93.604 110.836 -92 110.812 C-91.21 110.803 -90.42 110.794 -89.605 110.785 C-89.014 110.774 -88.422 110.762 -87.812 110.75 C-88.101 110.173 -88.39 109.595 -88.688 109 C-89.812 106.75 -89.812 106.75 -90.574 104.652 C-92.391 101.862 -94.53 101.415 -97.625 100.312 C-106.164 97.268 -110.206 91.06 -115.434 83.98 C-117.662 81.463 -117.662 81.463 -120.973 81.301 C-123.939 81.485 -123.939 81.485 -125.812 83.75 Z M-5.812 89.75 C-5.812 90.41 -5.812 91.07 -5.812 91.75 C-5.125 91.981 -4.438 92.211 -3.73 92.449 C1.698 94.414 4.472 95.463 7.188 100.75 C9.626 101.905 9.626 101.905 12.188 101.75 C14.023 100.416 14.023 100.416 15.188 98.75 C13.703 92.813 11.239 90.599 6.125 87.5 C1.392 85.668 -1.676 87.494 -5.812 89.75 Z M-76.367 104.328 C-77.552 105.773 -78.686 107.259 -79.812 108.75 C-80.803 109.41 -81.792 110.07 -82.812 110.75 C-82.782 114.35 -82.457 117.795 -82.051 121.365 C-81.605 126.209 -81.837 128.673 -84.812 132.75 C-85.23 135.377 -85.23 135.377 -84.812 137.75 C-82.063 140.499 -80.272 140.145 -76.418 140.383 C-75.441 140.445 -75.441 140.445 -74.445 140.509 C-72.297 140.642 -70.149 140.76 -68 140.875 C-67.266 140.917 -66.531 140.959 -65.775 141.002 C-55.224 141.602 -44.695 141.93 -34.125 141.938 C-32.989 141.938 -31.853 141.939 -30.682 141.94 C-25.138 141.903 -19.656 141.689 -14.129 141.242 C-5.563 140.579 2.977 140.641 11.562 140.688 C13.185 140.693 14.807 140.697 16.43 140.701 C20.349 140.712 24.268 140.729 28.188 140.75 C29.185 137.781 29.185 137.781 28.262 134.918 C27.804 134.264 27.346 133.611 26.875 132.938 C23.669 127.604 23.297 122.395 22.648 116.293 C21.926 110.741 20.308 106.431 17.188 101.75 C16.156 102.142 15.125 102.534 14.062 102.938 C10.188 103.75 10.188 103.75 7.062 102.688 C4.188 100.75 4.188 100.75 2 98.312 C-6.637 90.444 -21.249 89.265 -32.484 89.5 C-46.873 90.581 -65.838 93.64 -76.367 104.328 Z M-85.812 94.75 C-87.899 97.913 -88.884 99.701 -88.625 103.5 C-87.934 105.911 -87.934 105.911 -85.812 107.75 C-83.328 107.771 -83.328 107.771 -80.812 106.75 C-78.89 104.732 -78.89 104.732 -77.312 102.25 C-74.383 97.884 -74.383 97.884 -71.281 97.156 C-70.467 97.022 -69.652 96.888 -68.812 96.75 C-67.019 95.292 -67.019 95.292 -65.812 93.75 C-76.247 89.814 -76.247 89.814 -85.812 94.75 Z M-86.812 116.75 C-88.075 119.275 -87.911 121.062 -87.875 123.875 C-87.866 124.785 -87.857 125.695 -87.848 126.633 C-87.836 127.331 -87.824 128.03 -87.812 128.75 C-86.822 128.75 -85.833 128.75 -84.812 128.75 C-82.932 126.869 -83.689 124.251 -83.68 121.758 C-83.741 119.542 -83.741 119.542 -84.812 116.75 C-85.472 116.75 -86.132 116.75 -86.812 116.75 Z " fill="#000000" transform="translate(126.8125,61.25)"/>
<path d="M0 0 C2.249 -0.108 4.499 -0.186 6.75 -0.25 C8.003 -0.296 9.256 -0.343 10.547 -0.391 C14 0 14 0 16.391 1.828 C18 4 18 4 19 7 C19.516 7.412 20.031 7.825 20.562 8.25 C22 10 22 10 22.438 13.5 C22 17 22 17 20.312 18.938 C17.677 20.148 15.868 20.239 13 20 C13 20.66 13 21.32 13 22 C6.375 23.125 6.375 23.125 3 22 C2.34 25.3 1.68 28.6 1 32 C0.34 31.67 -0.32 31.34 -1 31 C-1.286 23.571 -1.286 23.571 1 20 C0.031 19.443 -0.939 18.886 -1.938 18.312 C-5 16 -5 16 -6.062 13.5 C-5.983 10.301 -5.017 9.449 -3 7 C-1.891 4.702 -0.956 2.368 0 0 Z M1 3 C1.33 4.98 1.66 6.96 2 9 C0.35 9.66 -1.3 10.32 -3 11 C-2.34 12.65 -1.68 14.3 -1 16 C0.65 16 2.3 16 4 16 C4.66 17.32 5.32 18.64 6 20 C7.65 20 9.3 20 11 20 C11.33 18.68 11.66 17.36 12 16 C12.969 16.186 13.939 16.371 14.938 16.562 C15.948 16.707 16.959 16.851 18 17 C19.356 15.875 19.356 15.875 19.062 12.938 C19.042 11.968 19.021 10.999 19 10 C18.01 9.67 17.02 9.34 16 9 C15.01 9.495 15.01 9.495 14 10 C14.33 8.02 14.66 6.04 15 4 C13.208 3.217 13.208 3.217 11 3 C8.752 4.352 8.752 4.352 7 6 C6.34 4.68 5.68 3.36 5 2 C2.925 1.851 2.925 1.851 1 3 Z " fill="#000000" transform="translate(150,63)"/>
<path d="M0 0 C2.5 1.625 2.5 1.625 4 4 C4.562 6.938 4.562 6.938 4 10 C1.544 13.323 0.074 14.776 -4 15.625 C-8.113 14.768 -9.597 13.423 -12 10 C-12 6.48 -11.631 4.151 -9.938 1.062 C-6.738 -0.692 -3.501 -0.627 0 0 Z " fill="#000000" transform="translate(121,110)"/>
<path d="M0 0 C3 1.5 3 1.5 5 3 C4.67 3.99 4.34 4.98 4 6 C3.359 5.821 2.719 5.642 2.059 5.457 C-4.143 3.932 -7.41 3.841 -13 7 C-13 5.68 -13 4.36 -13 3 C-9.093 -0.419 -4.963 -0.78 0 0 Z " fill="#000000" transform="translate(65,120)"/>
<path d="M0 0 C0.99 0 1.98 0 3 0 C3 0.99 3 1.98 3 3 C5.97 3.495 5.97 3.495 9 4 C9 3.34 9 2.68 9 2 C9.99 2 10.98 2 12 2 C11.67 3.32 11.34 4.64 11 6 C5.492 7.127 5.492 7.127 2.812 6.438 C2.214 6.293 1.616 6.149 1 6 C0.01 6.66 -0.98 7.32 -2 8 C-5.188 7.625 -5.188 7.625 -8 7 C-8.33 6.01 -8.66 5.02 -9 4 C-6.36 4 -3.72 4 -1 4 C-0.67 2.68 -0.34 1.36 0 0 Z " fill="#000000" transform="translate(88,123)"/>
<path d="M0 0 C3.339 0.037 4.417 0.128 7.25 2.062 C8.688 4.312 8.688 4.312 8.688 8.312 C10.338 8.972 11.988 9.632 13.688 10.312 C14.596 15.258 14.845 19.391 13.688 24.312 C10.688 26.312 10.688 26.312 7.688 26.25 C6.202 26.281 6.202 26.281 4.688 26.312 C4.234 26.808 3.78 27.303 3.312 27.812 C0.973 29.972 -1.298 29.787 -4.371 29.668 C-6.312 29.312 -6.312 29.312 -8.812 27.562 C-10.312 25.312 -10.312 25.312 -10.312 21.312 C-10.952 21.024 -11.591 20.735 -12.25 20.438 C-14.312 19.312 -14.312 19.312 -15.312 17.312 C-15.594 14.074 -15.621 11.946 -14.188 9 C-11.689 6.752 -9.603 6.605 -6.312 6.312 C-6.168 5.508 -6.024 4.704 -5.875 3.875 C-4.99 -0.155 -3.884 0.121 0 0 Z M-3.312 4.312 C-3.563 7.396 -3.563 7.396 -3.312 10.312 C-4.241 10.106 -5.169 9.9 -6.125 9.688 C-9.464 8.946 -9.464 8.946 -12.312 11.312 C-12.563 14.396 -12.563 14.396 -12.312 17.312 C-9.838 18.303 -9.838 18.303 -7.312 19.312 C-7.312 21.292 -7.312 23.273 -7.312 25.312 C-4.74 26.932 -3.636 27.357 -0.562 26.938 C0.18 26.731 0.923 26.525 1.688 26.312 C2.017 24.993 2.347 23.673 2.688 22.312 C4.998 22.642 7.308 22.972 9.688 23.312 C12.012 19.68 11.927 16.546 11.688 12.312 C10.643 11.045 10.643 11.045 8.312 11.188 C5.577 11.199 5.577 11.199 2.688 12.312 C2.358 11.653 2.028 10.993 1.688 10.312 C2.678 10.312 3.667 10.312 4.688 10.312 C5.457 7.967 5.457 7.967 5.688 5.312 C4.541 3.416 4.541 3.416 2.688 2.312 C-0.497 2.035 -0.497 2.035 -3.312 4.312 Z " fill="#000000" transform="translate(157.3125,127.6875)"/>
</svg>
