<?xml version="1.0" encoding="UTF-8"?>
<!-- Generator: visioncortex VTracer 0.6.4 -->
<svg version="1.1" xmlns="http://www.w3.org/2000/svg" width="281" height="256">
<path d="M0 0 C2 2 2 2 2.082 4.066 C1.62 8.344 1.056 12.125 -0.562 16.125 C-2.164 20.418 -2.083 24.423 -1.938 28.938 C-1.75 34.937 -2.554 39.226 -5.098 44.656 C-7.586 51.12 -6.15 57.809 -4.5 64.312 C-1.382 76.906 -2.752 87.405 -7.956 99.16 C-10.76 105.705 -12.156 112.034 -13.188 119.062 C-13.353 120.154 -13.519 121.246 -13.69 122.371 C-16.509 140.278 -16.509 140.278 -14 158 C-11.982 158.456 -9.964 158.911 -7.945 159.367 C-6 160 -6 160 -4 162 C-3.73 164.688 -3.913 167.291 -4 170 C-10.383 173.711 -16.858 173.708 -24 172 C-28.379 168.905 -29.985 164.103 -32 159.312 C-32.33 158.547 -32.66 157.782 -33 156.994 C-33.665 155.453 -34.326 153.91 -34.984 152.366 C-36.618 148.56 -38.309 144.78 -40 141 C-40.814 142.247 -40.814 142.247 -41.645 143.52 C-42.36 144.606 -43.075 145.693 -43.812 146.812 C-44.52 147.891 -45.228 148.97 -45.957 150.082 C-47.536 152.337 -48.968 154.173 -51 156 C-50.169 156.182 -49.337 156.364 -48.48 156.551 C-47.394 156.802 -46.307 157.054 -45.188 157.312 C-44.109 157.556 -43.03 157.8 -41.918 158.051 C-39.011 158.997 -37.751 159.54 -36 162 C-35.312 165.688 -35.312 165.688 -35 169 C-37.576 171.713 -39.671 172.229 -43.271 172.356 C-45.022 172.363 -46.773 172.352 -48.523 172.328 C-49.93 172.325 -49.93 172.325 -51.365 172.322 C-53.354 172.316 -55.343 172.302 -57.332 172.281 C-60.329 172.25 -63.326 172.24 -66.324 172.234 C-95.511 172.121 -95.511 172.121 -99.11 169.411 C-100.872 167.781 -100.872 167.781 -102.977 168.109 C-103.668 168.321 -104.359 168.532 -105.07 168.75 C-110.327 170.147 -115.461 170.601 -120.875 171 C-122.416 171.123 -122.416 171.123 -123.988 171.248 C-129.682 171.697 -135.378 172.095 -141.078 172.465 C-158.29 173.21 -158.29 173.21 -175 177 C-175.33 177.66 -175.66 178.32 -176 179 C-175.287 179.037 -174.574 179.075 -173.84 179.113 C-167.901 179.521 -163.309 180.287 -158 183 C-158.33 183.99 -158.66 184.98 -159 186 C-167.462 189.922 -176.533 187.981 -185 185 C-188.411 183.124 -190.49 181.073 -192.188 177.5 C-192 175 -192 175 -190.125 172.438 C-183.814 167.515 -176.664 165.345 -168.875 163.938 C-167.563 163.691 -167.563 163.691 -166.225 163.44 C-156.559 161.739 -146.79 160.901 -137.013 160.127 C-122.986 159.04 -122.986 159.04 -110 154 C-107.255 149.495 -107.759 144.416 -107.688 139.312 C-106.82 114.768 -96.201 88.424 -78.312 71.312 C-72.265 66.1 -65.176 61.171 -57.793 58.074 C-53.97 55.784 -52.459 51.042 -51 47 C-51.066 43.592 -51.82 41.455 -53.062 38.312 C-53.968 35.114 -54.01 33.085 -53.875 29.812 C-53.752 24.463 -55.055 20.566 -57.035 15.648 C-58.405 11.889 -59.251 8.016 -59 4 C-58.34 3.01 -57.68 2.02 -57 1 C-51.52 1 -49.489 2.312 -45.562 6.125 C-41.651 9.508 -39.091 10.437 -33.883 10.154 C-31.825 9.945 -29.783 9.684 -27.734 9.402 C-24 9 -24 9 -20.844 9.715 C-17.852 10.322 -17.852 10.322 -15.297 8.164 C-14.456 7.326 -13.616 6.488 -12.75 5.625 C-8.227 1.198 -6.475 -0.405 0 0 Z M-9.25 5.812 C-9.936 6.52 -10.622 7.228 -11.328 7.957 C-13.195 9.99 -13.195 9.99 -14 13 C-12.714 14.173 -11.421 15.338 -10.125 16.5 C-9.406 17.15 -8.686 17.799 -7.945 18.469 C-6.151 20.206 -6.151 20.206 -4 20 C-1.13 13.748 0.511 8.904 0 2 C-4.556 1.514 -6.148 2.526 -9.25 5.812 Z M-56 3 C-57.315 4.106 -57.315 4.106 -57.312 6.875 C-57.279 12.24 -54.986 17.098 -53 22 C-49.673 20.41 -47.288 18.967 -45 16 C-45.317 11.918 -46.683 9.703 -49.375 6.688 C-50.284 5.641 -50.284 5.641 -51.211 4.574 C-52.978 2.67 -52.978 2.67 -56 3 Z M-47 8 C-43.523 11.78 -43.523 11.78 -39 14 C-39 14.99 -39 15.98 -39 17 C-40.98 15.515 -40.98 15.515 -43 14 C-44.13 15.245 -45.254 16.496 -46.375 17.75 C-47.001 18.446 -47.628 19.142 -48.273 19.859 C-52.079 24.578 -52.44 28.278 -52.312 34.246 C-51.689 39.745 -49.021 43.282 -44.938 46.938 C-42.189 49.287 -42.189 49.287 -39 49 C-39 49.66 -39 50.32 -39 51 C-41.97 49.35 -44.94 47.7 -48 46 C-49.323 48.537 -50.633 51.079 -51.938 53.625 C-52.311 54.338 -52.684 55.051 -53.068 55.785 C-55.148 59.869 -56.54 63.37 -57 68 C-57 65.36 -57 62.72 -57 60 C-70.431 65.735 -81.616 74.228 -89 87 C-89.35 87.595 -89.7 88.19 -90.061 88.804 C-96.235 99.415 -100.645 110.202 -104 122 C-104.383 123.313 -104.383 123.313 -104.773 124.652 C-105.763 128.731 -106.043 132.687 -106.156 136.871 C-106.198 138.208 -106.198 138.208 -106.241 139.573 C-106.288 141.368 -106.311 143.163 -106.308 144.958 C-106.404 149.345 -106.549 151.399 -109.25 155 C-117.383 160.915 -128.577 160.758 -138.297 161.728 C-164.783 163.439 -164.783 163.439 -189 173 C-190.052 176.127 -190.052 176.127 -190 179 C-182.832 185.706 -175.198 186.336 -165.723 186.203 C-163.035 186.176 -163.035 186.176 -161 185 C-161 184.34 -161 183.68 -161 183 C-162.143 182.746 -163.287 182.492 -164.465 182.23 C-165.956 181.883 -167.447 181.536 -168.938 181.188 C-169.692 181.022 -170.447 180.856 -171.225 180.686 C-173.176 180.222 -175.093 179.619 -177 179 C-177.33 178.01 -177.66 177.02 -178 176 C-167.33 173.045 -156.876 172.153 -145.875 171.438 C-135.808 170.752 -125.742 170.047 -115.695 169.098 C-114.925 169.033 -114.154 168.968 -113.36 168.902 C-107.071 168.273 -102.314 166.543 -97 163 C-97.66 164.65 -98.32 166.3 -99 168 C-95.722 169.951 -93.288 170.244 -89.497 170.227 C-88.396 170.227 -87.295 170.227 -86.161 170.227 C-84.388 170.211 -84.388 170.211 -82.578 170.195 C-81.363 170.192 -80.148 170.19 -78.896 170.187 C-75.014 170.176 -71.132 170.15 -67.25 170.125 C-64.618 170.115 -61.987 170.106 -59.355 170.098 C-52.904 170.076 -46.452 170.042 -40 170 C-40 169.01 -40 168.02 -40 167 C-39.34 167.66 -38.68 168.32 -38 169 C-37.661 166.014 -37.661 166.014 -39.438 164.438 C-48.062 159.599 -58.452 160.818 -68 161 C-68.99 161 -69.98 161 -71 161 C-70.371 160.66 -69.742 160.319 -69.094 159.969 C-61.129 155.459 -53.107 150.199 -50.336 141.004 C-49.398 135.411 -50.64 130.389 -53.629 125.605 C-57.1 121.542 -61.822 119.086 -67 118 C-62.448 118.552 -58.641 120.25 -55 123 C-50.248 129.127 -49.072 134.4 -50 142 C-52.298 149.13 -57.095 153.132 -62.988 157.469 C-63.652 157.974 -64.316 158.479 -65 159 C-65 159.33 -65 159.66 -65 160 C-60.897 160.615 -58.46 159.988 -55.125 157.688 C-49.401 153.075 -43.514 145.99 -41 139 C-41.324 134.631 -43.329 130.988 -45.25 127.125 C-54 108.987 -54 108.987 -54 101 C-53.718 101.977 -53.436 102.955 -53.146 103.962 C-50.229 113.817 -46.541 123.015 -42.188 132.312 C-40.941 135.01 -39.701 137.71 -38.461 140.41 C-38.009 141.392 -38.009 141.392 -37.548 142.393 C-34.65 148.706 -31.96 155.1 -29.397 161.556 C-27.53 166.389 -27.53 166.389 -24 170 C-20.857 171.155 -17.765 171.165 -14.438 171.188 C-13.012 171.209 -13.012 171.209 -11.559 171.23 C-8.758 171.184 -8.758 171.184 -6 169 C-6.699 166.986 -6.699 166.986 -8 165 C-9.991 164.318 -9.991 164.318 -12.25 163.875 C-15.862 162.396 -17.305 160.844 -18.785 157.34 C-20.477 152.64 -21.751 147.833 -23 143 C-23.406 141.544 -23.812 140.088 -24.219 138.633 C-28.157 123.937 -28.87 109.965 -26 95 C-26.072 95.666 -26.144 96.333 -26.219 97.02 C-26.892 103.705 -27.117 110.283 -27 117 C-17.358 108.235 -11.16 97.055 -10 84 C-10.744 95.154 -13.879 105.24 -21 114 C-21.949 114.825 -22.898 115.65 -23.875 116.5 C-26.466 119.548 -26.341 121.47 -26.245 125.37 C-25.796 130.194 -24.53 134.776 -23.25 139.438 C-22.997 140.41 -22.745 141.383 -22.484 142.385 C-20.175 152.919 -20.175 152.919 -15 162 C-12.667 162.041 -10.333 162.042 -8 162 C-9.856 159.828 -9.856 159.828 -12.5 159.25 C-15 158 -15 158 -16.133 155.34 C-20.887 137.028 -15.441 111.922 -8 95 C-3.255 83.909 -3.854 74.867 -6.526 63.257 C-8.384 55.063 -8.765 48.979 -5.438 41 C-2.696 33.73 -2.541 30.135 -5.125 22.812 C-7.208 19.689 -9.262 18.089 -12.379 16.078 C-14 15 -14 15 -16 13 C-19.738 11.157 -22.73 10.753 -26.875 10.812 C-27.926 10.824 -28.976 10.836 -30.059 10.848 C-32.458 10.972 -34.599 11.252 -36.938 11.75 C-40 12 -40 12 -42.812 10.062 C-43.534 9.382 -44.256 8.701 -45 8 C-45.66 8 -46.32 8 -47 8 Z M-54 159 C-54 159.33 -54 159.66 -54 160 C-52.662 160.273 -52.662 160.273 -51.297 160.551 C-50.126 160.802 -48.956 161.054 -47.75 161.312 C-46.59 161.556 -45.43 161.8 -44.234 162.051 C-41.146 162.957 -39.385 163.893 -37 166 C-37.04 164.077 -37.04 164.077 -38 162 C-43.073 158.358 -48.028 158.681 -54 159 Z " fill="#000000" transform="translate(216,44)"/>
<path d="M0 0 C0.66 0 1.32 0 2 0 C2 2.64 2 5.28 2 8 C1.67 8 1.34 8 1 8 C0.67 5.36 0.34 2.72 0 0 Z " fill="#000000" transform="translate(186,56)"/>
<path d="M0 0 C1.5 1.188 1.5 1.188 3 3 C3.188 5.688 3.188 5.688 3 8 C2.01 8.495 2.01 8.495 1 9 C0.639 7.689 0.286 6.376 -0.062 5.062 C-0.358 3.966 -0.358 3.966 -0.66 2.848 C-0.772 2.238 -0.884 1.628 -1 1 C-0.67 0.67 -0.34 0.34 0 0 Z M1 3 C2 6 2 6 2 6 Z " fill="#000000" transform="translate(190,56)"/>
<path d="M0 0 C0.66 0.33 1.32 0.66 2 1 C1.34 2.98 0.68 4.96 0 7 C-0.33 7 -0.66 7 -1 7 C-0.67 4.69 -0.34 2.38 0 0 Z " fill="#000000" transform="translate(184,57)"/>
<path d="M0 0 C2.762 3.452 3.495 6.658 4 11 C6.64 11 9.28 11 12 11 C11.835 11.578 11.67 12.155 11.5 12.75 C10.855 15.267 10.855 15.267 11 19 C13.31 19.33 15.62 19.66 18 20 C18 19.01 18 18.02 18 17 C18.66 17 19.32 17 20 17 C19.625 18.938 19.625 18.938 19 21 C15.541 22.729 11.96 22.196 8.25 21.438 C5.976 20.758 5.976 20.758 4 22 C1.062 22.375 1.062 22.375 -2 22 C-3.875 19.5 -3.875 19.5 -5 17 C-4.34 16.67 -3.68 16.34 -3 16 C-2.67 16.99 -2.34 17.98 -2 19 C-0.02 19 1.96 19 4 19 C4 15.459 3.887 14.254 2.5 11.25 C2.005 10.177 1.51 9.105 1 8 C0.093 8.062 -0.815 8.124 -1.75 8.188 C-5.312 7.982 -6.592 7.593 -9 5 C-9 3.68 -9 2.36 -9 1 C-5.691 -1.084 -3.687 -1.418 0 0 Z M-2 1 C-2 2.65 -2 4.3 -2 6 C-1.34 6 -0.68 6 0 6 C-0.33 4.35 -0.66 2.7 -1 1 C-1.33 1 -1.66 1 -2 1 Z M-7 2 C-7 2.99 -7 3.98 -7 5 C-6.01 5.33 -5.02 5.66 -4 6 C-4.33 4.68 -4.66 3.36 -5 2 C-5.66 2 -6.32 2 -7 2 Z M5 13 C6.485 13.99 6.485 13.99 8 15 C8.33 14.34 8.66 13.68 9 13 C7.68 13 6.36 13 5 13 Z " fill="#000000" transform="translate(180,67)"/>
<path d="M0 0 C1.875 1.5 1.875 1.5 3 3 C1.63 6.161 1.011 6.993 -2 9 C-4.332 9.079 -6.668 9.088 -9 9 C-9.36 3.6 -9.36 3.6 -7.875 1.125 C-5.119 -0.529 -3.149 -0.394 0 0 Z M-2 2 C-2 3.32 -2 4.64 -2 6 C-1.01 5.67 -0.02 5.34 1 5 C0.67 4.01 0.34 3.02 0 2 C-0.66 2 -1.32 2 -2 2 Z M-7 4 C-7 4.99 -7 5.98 -7 7 C-5.68 6.67 -4.36 6.34 -3 6 C-3.66 6 -4.32 6 -5 6 C-5 5.34 -5 4.68 -5 4 C-5.66 4 -6.32 4 -7 4 Z " fill="#000000" transform="translate(201,66)"/>
<path d="M0 0 C0 0.66 0 1.32 0 2 C-4.938 3.975 -8.763 4.262 -14 4 C-14.66 3.67 -15.32 3.34 -16 3 C-16 2.34 -16 1.68 -16 1 C-13.708 0.832 -11.417 0.666 -9.125 0.5 C-7.849 0.407 -6.573 0.314 -5.258 0.219 C-3.508 0.101 -1.754 0 0 0 Z " fill="#000000" transform="translate(198,92)"/>
<path d="" fill="#000000" transform="translate(0,0)"/>
</svg>
