<?xml version="1.0" encoding="UTF-8"?>
<!-- Generator: visioncortex VTracer 0.6.4 -->
<svg version="1.1" xmlns="http://www.w3.org/2000/svg" width="281" height="256">
<path d="M0 0 C1.091 3.31 0.881 5.458 0.039 8.816 C-0.185 9.746 -0.41 10.677 -0.641 11.635 C-1.004 13.084 -1.004 13.084 -1.375 14.562 C-2.817 20.334 -4.079 25.898 -4.508 31.844 C-4.821 36.016 -5.555 39.177 -7.5 42.938 C-11.57 50.971 -11.774 58.585 -10.5 67.5 C-8.235 83.357 -12.525 95.326 -22 108 C-22.735 108.904 -23.47 109.807 -24.227 110.738 C-29.768 117.701 -31.572 123.137 -32 132 C-32.053 133.028 -32.053 133.028 -32.108 134.076 C-32.606 145.079 -31.453 155.281 -29 166 C-27.113 166.371 -27.113 166.371 -25.188 166.75 C-22.45 167.448 -21.159 167.861 -19 169.75 C-17.674 172.734 -17.596 174.765 -18 178 C-19.137 180.16 -19.137 180.16 -21 182 C-28.403 183.286 -35.274 182.165 -42 179 C-42 178.34 -42 177.68 -42 177 C-43.238 176.959 -44.475 176.917 -45.75 176.875 C-49.054 176.421 -49.82 176.175 -52.312 173.75 C-57.319 164.465 -57.786 152.327 -59 142 C-62.319 145.714 -65.339 149.389 -68.062 153.562 C-71.789 159.268 -75.587 163.776 -81 168 C-80.138 168.014 -80.138 168.014 -79.259 168.028 C-76.63 168.082 -74.003 168.166 -71.375 168.25 C-70.471 168.264 -69.568 168.278 -68.637 168.293 C-62.87 168.503 -59.357 169.096 -55 173 C-54.125 176.25 -54.125 176.25 -54 179 C-56.598 181.598 -58.491 182.224 -62.062 182.25 C-66 182 -66 182 -69 181 C-69 181.66 -69 182.32 -69 183 C-68.037 182.955 -67.074 182.91 -66.082 182.863 C-61.42 182.869 -57.165 183.974 -52.688 185.188 C-51.435 185.52 -51.435 185.52 -50.157 185.86 C-44.048 187.552 -38.447 189.709 -33 193 C-33 193.99 -33 194.98 -33 196 C-42.363 200.302 -53.588 196.421 -63.211 194.46 C-73.58 192.379 -83.724 191.853 -94.29 191.612 C-138.294 190.565 -138.294 190.565 -149 182 C-151.409 178.387 -151.554 177.272 -151 173 C-150.209 171.62 -149.376 170.264 -148.516 168.926 C-145.607 163.829 -145.302 159.589 -145.312 153.812 C-145.265 151.949 -145.213 150.086 -145.156 148.223 C-145.133 147.326 -145.11 146.429 -145.086 145.504 C-144.185 119.25 -130.419 95.18 -111.73 77.273 C-103.105 70.091 -93.252 66.044 -82.748 62.433 C-72.708 59.242 -72.708 59.242 -64.938 52.562 C-62.915 49.937 -61.179 48.399 -58.312 46.75 C-54.352 44.016 -53.255 40.84 -52.234 36.23 C-51.645 28.106 -54.258 20.152 -56.75 12.5 C-58.126 8.235 -58.038 5.341 -57 1 C-51.47 1.425 -48.701 2.644 -44.438 6.125 C-38.394 10.41 -34.321 10.523 -27.129 9.402 C-24 9 -24 9 -21.301 9.641 C-18.952 10.285 -18.952 10.285 -17.227 8.707 C-16.698 8.082 -16.17 7.457 -15.625 6.812 C-11.313 2.135 -6.759 -2.458 0 0 Z M-7.5 4.812 C-8.294 5.335 -9.088 5.857 -9.906 6.395 C-12.233 8 -12.233 8 -14 11 C-13.842 14.158 -13.481 15.536 -11.188 17.75 C-9.088 18.95 -7.369 19.577 -5 20 C-2.926 14.075 -1 8.32 -1 2 C-3.817 2 -5.172 3.259 -7.5 4.812 Z M-56 3 C-56.809 10.119 -53.933 15.621 -51 22 C-48.347 21.452 -47.212 21.212 -45.25 19.25 C-43.702 16.464 -43.546 15.155 -44 12 C-46.101 9.436 -46.101 9.436 -48.875 7.188 C-49.78 6.397 -50.685 5.607 -51.617 4.793 C-53.769 2.8 -53.769 2.8 -56 3 Z M-11 4 C-11.33 4.66 -11.66 5.32 -12 6 C-11.01 5.67 -10.02 5.34 -9 5 C-9.66 4.67 -10.32 4.34 -11 4 Z M-47 7 C-46.67 7.66 -46.34 8.32 -46 9 C-45.34 8.67 -44.68 8.34 -44 8 C-44.99 7.67 -45.98 7.34 -47 7 Z M-15 8 C-15.598 8.681 -16.196 9.361 -16.812 10.062 C-17.534 10.702 -18.256 11.341 -19 12 C-20.824 11.629 -20.824 11.629 -23 11 C-24.665 10.909 -26.333 10.87 -28 10.875 C-28.846 10.872 -29.691 10.87 -30.562 10.867 C-32.88 10.993 -34.812 11.23 -37 12 C-38.284 13.984 -38.284 13.984 -39 16 C-39 14.68 -39 13.36 -39 12 C-40.32 11.34 -41.64 10.68 -43 10 C-42.01 13.96 -42.01 13.96 -41 18 C-41.99 18 -42.98 18 -44 18 C-44.227 18.619 -44.454 19.237 -44.688 19.875 C-46.379 22.614 -47.992 23.05 -51 24 C-50.117 37.739 -50.117 37.739 -43 49 C-46.394 45.874 -48.606 43.435 -50 39 C-50.66 39.33 -51.32 39.66 -52 40 C-52.165 40.866 -52.33 41.733 -52.5 42.625 C-54.49 47.103 -57.302 48.568 -61.395 51.094 C-64.173 52.918 -64.173 52.918 -66.105 55.941 C-69.717 60.478 -75.183 61.658 -80.5 63.438 C-107.016 72.882 -123.141 88.542 -135.793 113.543 C-142.659 128.546 -143.512 143.606 -144.102 159.789 C-144.404 164.296 -145.545 167.217 -147.75 171.188 C-149.853 175.032 -149.853 175.032 -149.312 179.375 C-144.377 184.977 -137.597 186.681 -130.422 187.691 C-129.607 187.813 -128.793 187.934 -127.954 188.059 C-118.742 189.327 -109.5 189.596 -100.216 189.853 C-82.847 190.35 -65.819 191.047 -48.937 195.55 C-46.346 196.152 -43.906 196.094 -41.25 196.062 C-40.265 196.053 -39.28 196.044 -38.266 196.035 C-37.518 196.024 -36.77 196.012 -36 196 C-36 195.01 -36 194.02 -36 193 C-52.262 185.22 -69.137 183.393 -86.938 182.438 C-97.544 181.846 -108.06 181.162 -118.566 179.535 C-119.358 179.415 -120.149 179.294 -120.965 179.17 C-124.609 178.567 -127.826 177.948 -131 176 C-131 174.68 -131 173.36 -131 172 C-130.01 172 -129.02 172 -128 172 C-128.66 172.99 -129.32 173.98 -130 175 C-125.134 178.768 -119.732 179.014 -113.812 179.688 C-112.199 179.877 -112.199 179.877 -110.553 180.071 C-101.31 181.091 -92.281 181.353 -83 181 C-81.464 180.945 -81.464 180.945 -79.897 180.889 C-72.93 180.632 -65.964 180.333 -59 180 C-59.33 178.68 -59.66 177.36 -60 176 C-59.67 176 -59.34 176 -59 176 C-58.67 176.99 -58.34 177.98 -58 179 C-57.34 179 -56.68 179 -56 179 C-56.33 175.952 -56.569 174.416 -58.812 172.25 C-66.567 167.819 -78.533 169.548 -87 171 C-89.237 171.812 -90.968 172.737 -93 174 C-93 173.34 -93 172.68 -93 172 C-92.273 171.732 -91.546 171.464 -90.797 171.188 C-81.167 167.099 -71.69 158.916 -66.938 149.5 C-64.902 141.903 -65.515 135.971 -69 129 C-69 128.34 -69 127.68 -69 127 C-65.794 132.392 -64.931 137.844 -64 144 C-62.845 143.095 -61.701 142.176 -60.562 141.25 C-59.924 140.74 -59.286 140.229 -58.629 139.703 C-56.741 137.73 -56.205 136.715 -56 134 C-56.757 131.81 -56.757 131.81 -57.938 129.562 C-61.354 121.61 -60.537 113.349 -59 105 C-57.092 106.908 -57.896 109.739 -57.863 112.283 C-57.661 122.954 -55.664 131.7 -51.887 141.618 C-50.264 145.976 -48.834 150.398 -47.375 154.812 C-47.077 155.697 -46.78 156.582 -46.473 157.493 C-45.176 161.36 -43.91 165.221 -42.809 169.148 C-42.48 170.316 -42.151 171.484 -41.812 172.688 C-41.551 173.681 -41.289 174.675 -41.02 175.699 C-40.191 178.08 -40.191 178.08 -38.262 179.285 C-35.488 180.162 -32.899 180.504 -30 180.75 C-28.453 180.897 -28.453 180.897 -26.875 181.047 C-23.937 180.999 -22.461 180.538 -20 179 C-21.22 176.309 -21.22 176.309 -23 174 C-24.666 173.959 -26.334 173.957 -28 174 C-28 173.34 -28 172.68 -28 172 C-25.03 172.66 -22.06 173.32 -19 174 C-19.66 172.68 -20.32 171.36 -21 170 C-24.062 169.344 -26.872 169 -30 169 C-30.484 167.001 -30.962 165.001 -31.438 163 C-31.704 161.886 -31.971 160.773 -32.246 159.625 C-36.262 140.317 -35.401 119.327 -28 101 C-28 100.01 -28 99.02 -28 98 C-27.34 98 -26.68 98 -26 98 C-26.349 98.869 -26.699 99.738 -27.059 100.633 C-27.514 101.785 -27.969 102.938 -28.438 104.125 C-28.89 105.262 -29.342 106.399 -29.809 107.57 C-30.91 110.742 -31.561 113.679 -32 117 C-24.118 109.62 -16.309 99.345 -13 89 C-12.809 88.412 -12.618 87.824 -12.422 87.219 C-11.815 84.026 -11.869 80.936 -11.875 77.688 C-11.875 76.986 -11.875 76.285 -11.874 75.562 C-11.902 70.69 -12.242 65.914 -12.688 61.062 C-13.257 53.431 -11.718 48.572 -8.465 41.809 C-6.685 37.65 -6.23 33.536 -5.812 29.062 C-5.69 27.894 -5.69 27.894 -5.564 26.701 C-5.366 24.802 -5.182 22.901 -5 21 C-5.626 20.841 -6.253 20.683 -6.898 20.52 C-13.561 18.617 -13.561 18.617 -15.688 15.625 C-16.061 12.487 -15.431 10.783 -14 8 C-14.33 8 -14.66 8 -15 8 Z M-60 114 C-60 115.98 -60 117.96 -60 120 C-59.67 120 -59.34 120 -59 120 C-59 118.02 -59 116.04 -59 114 C-59.33 114 -59.66 114 -60 114 Z M-59 122 C-58 126 -58 126 -58 126 Z M-56 138 C-56.352 145.501 -55.962 152.553 -54.688 159.938 C-54.57 160.646 -54.452 161.355 -54.331 162.086 C-53.52 166.48 -52.387 170.208 -50 174 C-46.431 175.45 -46.431 175.45 -43 176 C-43.597 169.766 -44.965 164.1 -46.812 158.125 C-47.079 157.247 -47.346 156.37 -47.622 155.466 C-49.457 149.521 -51.457 143.685 -54 138 C-54.66 138 -55.32 138 -56 138 Z " fill="#000000" transform="translate(208,15)"/>
<path d="" fill="#000000" transform="translate(0,0)"/>
<path d="M0 0 C0.66 0 1.32 0 2 0 C2 1.98 2 3.96 2 6 C1.34 5.67 0.68 5.34 0 5 C0 3.35 0 1.7 0 0 Z " fill="#000000" transform="translate(189,29)"/>
<path d="M0 0 C1.312 2.062 1.312 2.062 2 4 C0.585 6.034 -0.55 6.904 -2.98 7.422 C-4.982 7.663 -6.991 7.835 -9 8 C-9.33 7.01 -9.66 6.02 -10 5 C-7.422 -0.156 -5.707 -1.855 0 0 Z M-3 1 C-2.34 2.32 -1.68 3.64 -1 5 C-0.67 4.01 -0.34 3.02 0 2 C-0.99 1.67 -1.98 1.34 -3 1 Z M-7 3 C-7 3.66 -7 4.32 -7 5 C-6.34 4.67 -5.68 4.34 -5 4 C-5.66 3.67 -6.32 3.34 -7 3 Z " fill="#000000" transform="translate(195,39)"/>
<path d="M0 0 C3.125 0.312 3.125 0.312 5 2.062 C6.125 4.312 6.125 4.312 6.125 8.312 C-1.304 8.598 -1.304 8.598 -4.875 6.312 C-3.816 0.415 -3.816 0.415 0 0 Z M-2.875 2.312 C-1.875 5.312 -1.875 5.312 -1.875 5.312 Z M2.125 4.312 C1.795 4.972 1.465 5.633 1.125 6.312 C1.785 6.312 2.445 6.312 3.125 6.312 C2.795 5.653 2.465 4.992 2.125 4.312 Z " fill="#000000" transform="translate(168.875,38.6875)"/>
<path d="M0 0 C2.97 0 5.94 0 9 0 C8.224 3.104 7.473 5.25 6 8 C8.954 10.37 8.954 10.37 13 10 C14.751 8.583 14.751 8.583 16 7 C16 11 16 11 14.566 12.738 C10.927 15.597 8.185 17.503 3.438 17.25 C-1.383 16.338 -4.9 13.758 -8 10 C-8 9.34 -8 8.68 -8 8 C-7.34 8 -6.68 8 -6 8 C-5.67 8.66 -5.34 9.32 -5 10 C-3.128 10.843 -3.128 10.843 -1 11 C-0.01 10.34 0.98 9.68 2 9 C1.856 8.443 1.711 7.886 1.562 7.312 C0.972 4.886 0.477 2.451 0 0 Z M1 2 C1.33 2.66 1.66 3.32 2 4 C3.32 4 4.64 4 6 4 C6 3.34 6 2.68 6 2 C4.35 2 2.7 2 1 2 Z M4 10 C2.68 11.32 1.36 12.64 0 14 C0.983 15.206 0.983 15.206 2.848 15.098 C4.898 15.065 6.949 15.033 9 15 C9 14.01 9 13.02 9 12 C6.525 11.01 6.525 11.01 4 10 Z " fill="#000000" transform="translate(176,50)"/>
<path d="M0 0 C0 3 0 3 0 3 Z " fill="#000000" transform="translate(160,181)"/>
</svg>
