<?xml version="1.0" encoding="UTF-8"?>
<!-- Generator: visioncortex VTracer 0.6.4 -->
<svg version="1.1" xmlns="http://www.w3.org/2000/svg" width="281" height="256">
<path d="M0 0 C4.099 0.277 6.144 1.647 9.062 4.438 C12.718 7.905 15.041 9.924 20.207 10.125 C21.397 10.084 22.587 10.043 23.812 10 C29.03 9.913 33.136 10.147 38 12 C38.412 11.258 38.825 10.515 39.25 9.75 C42.051 5.349 45.259 2.252 50 0 C52.312 0.312 52.312 0.312 54 1 C54.402 6.225 53.832 9.785 51.938 14.688 C49.467 21.474 50.073 26.895 51 34 C55.29 34.99 59.58 35.98 64 37 C60.412 37.897 57.654 38.083 54 38 C57.63 38.99 61.26 39.98 65 41 C60.801 42.05 58.206 41.728 54 41 C54.66 41.66 55.32 42.32 56 43 C55.113 42.711 54.226 42.422 53.312 42.125 C49.822 41.641 49.822 41.641 47.062 44.25 C44.315 48.093 44.776 51.445 45.402 55.965 C46.011 59.056 46.773 62.076 47.562 65.125 C51.158 80.294 48.479 93.397 44 108 C39.319 123.417 36.744 137.797 36.5 153.938 C36.469 155.082 36.439 156.226 36.407 157.405 C36.407 159.013 36.407 159.013 36.406 160.652 C36.399 161.611 36.392 162.57 36.385 163.558 C36.783 166.248 36.783 166.248 39.475 167.772 C40.308 168.177 41.141 168.582 42 169 C43 170 43 170 43.125 173 C43 176 43 176 42 177 C40.004 177.203 40.004 177.203 37.562 177.25 C36.358 177.289 36.358 177.289 35.129 177.328 C34.426 177.22 33.724 177.112 33 177 C32.34 176.01 31.68 175.02 31 174 C30.907 175.145 30.907 175.145 30.812 176.312 C30 179 30 179 28.125 180.875 C23.432 182.564 18.822 182.179 14 181 C11.081 178.715 10.403 176.616 9.605 173.055 C9.375 172.068 9.145 171.082 8.908 170.066 C8.67 169.013 8.432 167.96 8.188 166.875 C5.752 156.618 2.721 146.851 -1 137 C-1.948 134.441 -2.882 131.878 -3.812 129.312 C-4.211 128.236 -4.609 127.16 -5.02 126.051 C-6.573 121.217 -7.131 116.687 -7.062 111.625 C-7.053 110.751 -7.044 109.877 -7.035 108.977 C-7.024 108.324 -7.012 107.672 -7 107 C-7.66 107 -8.32 107 -9 107 C-7.729 119.464 -4.231 130.393 0.292 142.055 C3.701 150.922 6.238 159.675 8 169 C6.35 169 4.7 169 3 169 C3.227 169.763 3.454 170.526 3.688 171.312 C4 174 4 174 2.748 175.651 C-2.698 179.853 -15.475 176.489 -22.229 175.883 C-24.428 175.688 -26.629 175.509 -28.83 175.33 C-38.069 174.535 -46.681 173.335 -55 169 C-52.454 172.145 -50.073 172.714 -46.18 173.543 C-45.015 173.791 -43.851 174.039 -42.651 174.294 C-36.827 175.42 -30.981 176.372 -25.125 177.312 C-15.715 178.884 -6.426 180.674 2.812 183.062 C3.73 183.296 4.647 183.529 5.591 183.769 C11.133 185.26 16.015 187.133 21 190 C22.5 192.75 22.5 192.75 23 195 C21.938 196.5 21.938 196.5 20 198 C13.865 198.553 8.771 196.955 2.938 195.188 C-7.328 192.237 -17.423 190.638 -28.008 189.374 C-33.602 188.675 -39.175 187.839 -44.75 187 C-45.821 186.846 -46.892 186.692 -47.995 186.533 C-66.424 183.75 -66.424 183.75 -72 178 C-73.852 175.475 -74.01 174.288 -73.902 171.133 C-72.693 166.934 -70.773 166.161 -67.188 163.75 C-60.581 158.521 -59.603 152.732 -58.625 144.625 C-58.363 142.334 -58.104 140.042 -57.848 137.75 C-55.38 115.811 -46.376 89.514 -28.797 75.207 C-25.231 72.602 -21.803 70.353 -17.75 68.57 C-7.2 63.857 -4.088 57.288 0 47 C-0.949 47.516 -1.897 48.031 -2.875 48.562 C-3.906 49.037 -4.938 49.511 -6 50 C-6.66 49.67 -7.32 49.34 -8 49 C-5.03 47.35 -2.06 45.7 1 44 C-0.98 44 -2.96 44 -5 44 C-2 42 -2 42 1 41 C-1.97 41 -4.94 41 -8 41 C-5 39 -5 39 -2.375 38.5 C-1.591 38.335 -0.808 38.17 0 38 C0.495 37.01 0.495 37.01 1 36 C0.505 36.165 0.01 36.33 -0.5 36.5 C-4.034 37.207 -7.397 37.06 -11 37 C-11 36.67 -11 36.34 -11 36 C-7.37 35.67 -3.74 35.34 0 35 C0.206 33.309 0.412 31.617 0.625 29.875 C0.799 28.448 0.799 28.448 0.977 26.992 C1.003 23.572 0.098 21.229 -1 18 C-1.414 15.257 -1.593 12.518 -1.75 9.75 C-1.805 9.031 -1.861 8.311 -1.918 7.57 C-2.033 5.717 -2.025 3.857 -2 2 C-1.34 1.34 -0.68 0.68 0 0 Z M4 3 C4.375 3.436 4.75 3.871 5.137 4.32 C8.459 8.186 11.746 12.077 15 16 C15 12.301 14.156 11.642 11.75 8.938 C11.147 8.245 10.543 7.553 9.922 6.84 C8.03 5.029 6.394 4.022 4 3 Z M36 13 C37 15 37 15 37 15 Z M35 15 C36 17 36 17 36 17 Z M34 17 C32.203 20.805 31.927 21.706 33 26 C33.66 23.03 34.32 20.06 35 17 C34.67 17 34.34 17 34 17 Z M14 26 C14 27.32 14 28.64 14 30 C14.66 30.33 15.32 30.66 16 31 C16 29.35 16 27.7 16 26 C15.34 26 14.68 26 14 26 Z M37 26 C37 27.65 37 29.3 37 31 C38.32 30.34 39.64 29.68 41 29 C41 28.34 41 27.68 41 27 C39.68 26.67 38.36 26.34 37 26 Z M18 27 C17.67 28.32 17.34 29.64 17 31 C18.32 30.67 19.64 30.34 21 30 C20.67 29.01 20.34 28.02 20 27 C19.34 27 18.68 27 18 27 Z M33 27 C33 28.32 33 29.64 33 31 C33.99 31 34.98 31 36 31 C35.67 29.68 35.34 28.36 35 27 C34.34 27 33.68 27 33 27 Z M4 36 C4 36.66 4 37.32 4 38 C4.99 37.67 5.98 37.34 7 37 C6.01 36.67 5.02 36.34 4 36 Z M23 36 C22.67 36.66 22.34 37.32 22 38 C22.99 38.99 23.98 39.98 25 41 C26.65 40.34 28.3 39.68 30 39 C29.67 38.01 29.34 37.02 29 36 C27.02 36 25.04 36 23 36 Z M44 36 C48 37 48 37 48 37 Z M43 39 C47 40 47 40 47 40 Z M4 40 C8 41 8 41 8 41 Z M42 41 C46 42 46 42 46 42 Z M13 42 C13.66 43.32 14.32 44.64 15 46 C15.33 45.34 15.66 44.68 16 44 C15.67 43.34 15.34 42.68 15 42 C14.34 42 13.68 42 13 42 Z M5 43 C6.65 44.32 8.3 45.64 10 47 C10.66 46.67 11.32 46.34 12 46 C10.751 44.417 10.751 44.417 9 43 C7.68 43 6.36 43 5 43 Z M37 43 C36.01 44.485 36.01 44.485 35 46 C32.375 46.688 32.375 46.688 30 47 C31.98 47.99 31.98 47.99 34 49 C35.32 48.01 36.64 47.02 38 46 C37.67 45.01 37.34 44.02 37 43 Z M42 43 C42.33 43.66 42.66 44.32 43 45 C43.33 44.34 43.66 43.68 44 43 C43.34 43 42.68 43 42 43 Z M25 44 C25.33 44.66 25.66 45.32 26 46 C26.66 45.67 27.32 45.34 28 45 C27.01 44.67 26.02 44.34 25 44 Z M16 46 C16.33 46.66 16.66 47.32 17 48 C18.65 48 20.3 48 22 48 C19.158 46.427 19.158 46.427 16 46 Z M12 47 C12.99 47.99 13.98 48.98 15 50 C15.66 49.67 16.32 49.34 17 49 C14.525 48.01 14.525 48.01 12 47 Z M39 48 C38.121 48.471 37.242 48.941 36.336 49.426 C32.461 51.254 29.88 51.308 25.625 51.188 C24.38 51.16 23.135 51.133 21.852 51.105 C20.911 51.071 19.97 51.036 19 51 C21.83 53.83 23.803 53.333 27.75 53.375 C33.532 53.316 36.783 52.969 41 49 C40.34 48.67 39.68 48.34 39 48 Z M18 126 C16.281 127.719 16.833 129.945 16.82 132.289 C16.876 138.791 17.733 144.986 18.875 151.375 C19.049 152.415 19.223 153.456 19.402 154.527 C20.261 159.508 21.191 164.258 23 169 C23.99 168.505 23.99 168.505 25 168 C24.841 167.006 24.683 166.012 24.52 164.988 C24.055 161.742 23.867 158.531 23.76 155.252 C23.408 145.178 21.453 135.753 19 126 C18.67 126 18.34 126 18 126 Z " fill="#000000" transform="translate(129,31)"/>
<path d="" fill="#000000" transform="translate(0,0)"/>
<path d="" fill="#000000" transform="translate(0,0)"/>
<path d="" fill="#000000" transform="translate(0,0)"/>
<path d="" fill="#000000" transform="translate(0,0)"/>
<path d="M0 0 C2.475 0.99 2.475 0.99 5 2 C4.01 2.495 4.01 2.495 3 3 C2.01 2.01 1.02 1.02 0 0 Z " fill="#000000" transform="translate(178,74)"/>
<path d="M0 0 C2.475 0.495 2.475 0.495 5 1 C4.01 1.33 3.02 1.66 2 2 C1.34 1.34 0.68 0.68 0 0 Z " fill="#000000" transform="translate(185,74)"/>
<path d="M0 0 C3 1 3 1 3 1 Z " fill="#000000" transform="translate(121,75)"/>
<path d="M0 0 C0.99 0.33 1.98 0.66 3 1 C1.35 1.33 -0.3 1.66 -2 2 C-1.34 1.34 -0.68 0.68 0 0 Z " fill="#000000" transform="translate(118,76)"/>
<path d="M0 0 C1.98 0.99 1.98 0.99 4 2 C3.01 2 2.02 2 1 2 C0.67 1.34 0.34 0.68 0 0 Z " fill="#000000" transform="translate(176,76)"/>
<path d="M0 0 C2 1 2 1 2 1 Z " fill="#000000" transform="translate(190,76)"/>
<path d="M0 0 C4.875 1.75 4.875 1.75 6 4 C1.125 2.25 1.125 2.25 0 0 Z " fill="#000000" transform="translate(183,77)"/>
<path d="M0 0 C2 1 2 1 2 1 Z " fill="#000000" transform="translate(192,77)"/>
<path d="M0 0 C3.875 1.75 3.875 1.75 5 4 C1.125 2.25 1.125 2.25 0 0 Z " fill="#000000" transform="translate(180,79)"/>
<path d="M0 0 C0.66 0 1.32 0 2 0 C1.67 0.66 1.34 1.32 1 2 C0.67 1.34 0.34 0.68 0 0 Z " fill="#000000" transform="translate(189,81)"/>
</svg>
