<?xml version="1.0" encoding="UTF-8"?>
<!-- Generator: visioncortex VTracer 0.6.4 -->
<svg version="1.1" xmlns="http://www.w3.org/2000/svg" width="281" height="256">
<path d="M0 0 C1 1 1 1 1.312 4.312 C1.306 8.202 0.283 11.142 -1.125 14.75 C-2.819 19.393 -3.087 22.246 -2 27.062 C-0.556 33.537 -1.876 38.218 -5 44 C-5.71 44.806 -6.421 45.611 -7.152 46.441 C-9.471 49.652 -9.36 51.111 -8.938 55 C-8.814 56.143 -8.69 57.287 -8.562 58.465 C-8.017 61.892 -7.28 65.197 -6.438 68.562 C-3.745 79.912 -4.919 87.397 -9.215 98.008 C-15.832 115.15 -17.24 135.41 -17.062 153.688 C-17.058 154.592 -17.053 155.496 -17.049 156.428 C-17.037 158.619 -17.019 160.809 -17 163 C-15.329 163.433 -15.329 163.433 -13.625 163.875 C-10 165 -10 165 -8 167 C-7.75 169.5 -7.75 169.5 -8 172 C-10.467 174.467 -12.722 174.907 -16 176 C-16.66 176.66 -17.32 177.32 -18 178 C-20.494 178.28 -22.816 178.416 -25.312 178.438 C-26.629 178.477 -27.945 178.517 -29.301 178.559 C-33.883 177.867 -35.193 176.617 -38 173 C-39.363 170.465 -39.363 170.465 -40.312 167.938 C-40.639 167.101 -40.965 166.264 -41.301 165.402 C-42 163 -42 163 -42 159 C-43.32 159.99 -44.64 160.98 -46 162 C-45.34 162.536 -44.68 163.072 -44 163.625 C-42 166 -42 166 -41.625 169.125 C-42 172 -42 172 -44 174 C-46.025 174.316 -46.025 174.316 -48.542 174.411 C-49.482 174.451 -50.423 174.49 -51.392 174.532 C-52.41 174.565 -53.428 174.598 -54.477 174.633 C-55.517 174.674 -56.557 174.716 -57.629 174.759 C-60.961 174.89 -64.293 175.008 -67.625 175.125 C-69.88 175.211 -72.135 175.299 -74.391 175.387 C-79.927 175.601 -85.463 175.805 -91 176 C-89.125 176.287 -89.125 176.287 -87.211 176.579 C-82.532 177.298 -77.854 178.032 -73.178 178.771 C-71.161 179.087 -69.144 179.4 -67.126 179.708 C-64.21 180.153 -61.296 180.614 -58.383 181.078 C-57.494 181.211 -56.605 181.343 -55.689 181.48 C-49.521 182.482 -43.523 183.988 -38 187 C-36 190 -36 190 -36.25 192.125 C-37 194 -37 194 -39 195 C-44.761 195.439 -50.281 194.752 -55.938 193.688 C-66.736 191.802 -77.633 190.992 -88.554 190.178 C-118.412 187.86 -118.412 187.86 -126.562 179.312 C-128.511 174.822 -128.608 171.632 -127 167 C-125.352 164.498 -123.583 162.281 -121.594 160.043 C-119.131 156.886 -118.894 153.676 -118.605 149.762 C-117.738 139.081 -116.315 129.228 -113 119 C-112.746 118.2 -112.491 117.4 -112.229 116.576 C-105.974 97.122 -105.974 97.122 -100 89 C-99.394 88.165 -98.788 87.329 -98.164 86.469 C-90.637 76.592 -82.561 70.291 -71.471 64.852 C-65.7 61.884 -62.467 58.452 -59 53 C-58.446 52.169 -57.891 51.337 -57.32 50.48 C-52.45 41.138 -52.049 29.338 -55.133 19.32 C-56.432 16.233 -56.432 16.233 -57.906 13.543 C-59.214 10.503 -59.266 8.278 -59 5 C-57.875 3.063 -57.875 3.063 -56 2 C-50.696 2.274 -47.64 4.498 -43.625 7.688 C-39.605 10.839 -39.605 10.839 -34.801 12.113 C-32.915 11.53 -32.915 11.53 -31.094 10.664 C-28.178 9.739 -25.932 10.364 -22.938 10.875 C-18.559 11.414 -18.559 11.414 -14.816 9.398 C-12.982 7.3 -12.982 7.3 -11.5 5.078 C-8.238 0.559 -5.523 -0.491 0 0 Z M-2 1 C-7.267 4.01 -10.94 7.716 -14 13 C-14 13.99 -14 14.98 -14 16 C-12.866 16.268 -11.731 16.536 -10.562 16.812 C-9.387 17.204 -8.211 17.596 -7 18 C-6.67 18.99 -6.34 19.98 -6 21 C-3.539 18.539 -2.972 16.481 -1.875 13.188 C-1.345 11.631 -1.345 11.631 -0.805 10.043 C-0.052 7.195 0.162 4.924 0 2 C-0.66 1.67 -1.32 1.34 -2 1 Z M-57 5 C-58.351 8.057 -57.922 9.22 -56.785 12.453 C-56.223 13.724 -55.648 14.99 -55.062 16.25 C-54.772 16.9 -54.481 17.549 -54.182 18.219 C-53.465 19.817 -52.734 21.409 -52 23 C-50.68 23 -49.36 23 -48 23 C-46.942 21.369 -45.947 19.697 -45 18 C-42.812 16.188 -42.812 16.188 -41 15 C-46.38 9.2 -46.38 9.2 -53 5 C-54.32 5 -55.64 5 -57 5 Z M-44 10 C-43.196 10.949 -42.391 11.898 -41.562 12.875 C-40.118 14.579 -39.003 15.995 -38 18 C-38.907 17.876 -39.815 17.752 -40.75 17.625 C-41.822 17.749 -42.895 17.873 -44 18 C-46.179 20.853 -46.179 20.853 -48 24 C-50.188 25.25 -50.188 25.25 -52 26 C-54.151 30.303 -53.17 35.085 -51.938 39.562 C-50.189 44.41 -47.376 47.338 -43 50 C-40.242 50.942 -40.242 50.942 -38 51 C-42.796 51 -44.255 49.869 -48 47 C-49.023 45.684 -50.031 44.356 -51 43 C-51.66 43 -52.32 43 -53 43 C-53.797 44.663 -53.797 44.663 -54.609 46.359 C-55.322 47.823 -56.036 49.287 -56.75 50.75 C-57.098 51.48 -57.446 52.209 -57.805 52.961 C-61.287 60.054 -65.022 63.245 -72.125 66.75 C-95.452 78.763 -104.392 97.577 -112.117 121.609 C-114.542 129.567 -116.046 137.132 -116.481 145.433 C-116.986 154.201 -118.036 160.021 -124.223 166.711 C-126.392 169.505 -126.753 171.503 -127 175 C-125.737 178.984 -123.375 180.628 -119.875 182.625 C-115.413 184.641 -111.016 185.744 -106.211 186.555 C-105.1 186.746 -105.1 186.746 -103.967 186.941 C-96.66 188.145 -89.337 188.796 -81.955 189.338 C-70.218 190.201 -58.57 191.241 -46.952 193.174 C-42.437 193.924 -42.437 193.924 -38 193 C-38.347 190.483 -38.73 189.26 -40.582 187.477 C-43.73 185.554 -46.865 184.886 -50.438 184.188 C-51.224 184.026 -52.01 183.864 -52.82 183.697 C-58.9 182.493 -65.01 181.507 -71.133 180.551 C-72.349 180.359 -72.349 180.359 -73.59 180.164 C-77.699 179.519 -81.81 178.889 -85.926 178.282 C-105.718 175.282 -105.718 175.282 -111 170 C-111.625 167.875 -111.625 167.875 -112 166 C-109.316 167.491 -107.21 168.762 -105.168 171.079 C-102.449 173.488 -101.149 173.497 -97.561 173.486 C-96.473 173.492 -95.385 173.498 -94.264 173.504 C-93.094 173.49 -91.924 173.476 -90.719 173.461 C-89.513 173.46 -88.307 173.459 -87.065 173.458 C-84.517 173.452 -81.968 173.436 -79.419 173.412 C-75.515 173.375 -71.612 173.371 -67.707 173.371 C-65.232 173.361 -62.757 173.35 -60.281 173.336 C-59.111 173.334 -57.942 173.331 -56.736 173.329 C-55.648 173.316 -54.56 173.304 -53.439 173.291 C-52.483 173.283 -51.527 173.275 -50.542 173.267 C-47.913 172.991 -46.259 172.336 -44 171 C-45.873 166.951 -45.873 166.951 -49 164 C-56.24 162.857 -63.795 163.847 -71 165 C-70.022 164.598 -70.022 164.598 -69.023 164.188 C-61.568 160.845 -57.325 156.996 -53.871 149.574 C-51.688 143.123 -52.275 136.755 -55.125 130.625 C-59.213 123.4 -64.229 120.546 -72 118 C-65.983 118.301 -62.305 121.063 -58 125 C-53.192 130.947 -51.225 137.38 -52 145 C-54.011 151.97 -57.366 157.471 -62 163 C-61.051 162.711 -60.103 162.423 -59.125 162.125 C-55.182 160.964 -51.201 160.343 -47.137 159.758 C-44.892 159.189 -44.892 159.189 -43.771 157.3 C-42.713 154.145 -43.431 152.562 -44.527 149.441 C-44.904 148.343 -45.282 147.244 -45.67 146.112 C-46.088 144.94 -46.507 143.769 -46.938 142.562 C-47.558 140.764 -47.558 140.764 -48.191 138.929 C-49.039 136.472 -49.893 134.016 -50.753 131.562 C-52.557 126.407 -54.317 121.238 -56.062 116.062 C-56.51 114.769 -56.51 114.769 -56.967 113.449 C-57.372 112.254 -57.372 112.254 -57.785 111.035 C-58.021 110.348 -58.257 109.661 -58.5 108.953 C-59 107 -59 107 -59 103 C-58.857 103.656 -58.715 104.312 -58.568 104.988 C-56.135 115.453 -52.422 125.41 -48.767 135.493 C-47.915 137.85 -47.068 140.209 -46.227 142.57 C-45.95 143.344 -45.674 144.118 -45.389 144.915 C-43.188 151.202 -41.371 157.562 -39.792 164.033 C-38.583 168.746 -36.997 172.14 -34 176 C-31.032 177.345 -27.981 177.105 -24.75 177.062 C-23.858 177.053 -22.966 177.044 -22.047 177.035 C-21.371 177.024 -20.696 177.012 -20 177 C-18.895 174.211 -18.895 174.211 -19 172 C-18.34 172.66 -17.68 173.32 -17 174 C-17.495 171.525 -17.495 171.525 -18 169 C-20.64 168.34 -23.28 167.68 -26 167 C-26.102 166.105 -26.204 165.211 -26.309 164.289 C-26.798 160.847 -27.572 157.522 -28.41 154.148 C-32.7 136.73 -35.361 120.619 -31 103 C-31.66 108.28 -32.32 113.56 -33 119 C-24.727 113.63 -20.256 106.801 -16 98 C-18.626 107.098 -24.522 114.346 -32 120 C-35.658 127.316 -30.838 140.386 -29.125 147.938 C-28.868 149.129 -28.612 150.321 -28.348 151.549 C-28.091 152.697 -27.835 153.845 -27.57 155.027 C-27.226 156.57 -27.226 156.57 -26.875 158.144 C-25.949 161.168 -24.858 163.443 -23 166 C-21.008 166.691 -19.008 167.359 -17 168 C-15.625 170.125 -15.625 170.125 -15 172 C-13.35 172 -11.7 172 -10 172 C-9.67 171.01 -9.34 170.02 -9 169 C-9.66 168.01 -10.32 167.02 -11 166 C-14.568 165.264 -14.568 165.264 -18 165 C-19.032 159.246 -19.039 153.829 -18.75 148 C-18.704 147.049 -18.658 146.098 -18.611 145.118 C-17.582 126.568 -15.364 108.407 -8.086 91.203 C-5.448 83.422 -6.164 77.423 -7.875 69.562 C-9.245 63.04 -10.365 56.639 -11 50 C-12.485 49.505 -12.485 49.505 -14 49 C-13.113 48.732 -12.226 48.464 -11.312 48.188 C-6.364 44.92 -4.814 40.526 -3 35 C-2.162 28.611 -3.969 24.661 -7.812 19.625 C-10.663 17.508 -12.533 17.685 -16 18 C-15.67 16.02 -15.34 14.04 -15 12 C-16.145 12.278 -16.145 12.278 -17.312 12.562 C-20 13 -20 13 -23 12 C-29.002 11.6 -32.632 12.316 -38 15 C-38.495 13.515 -38.495 13.515 -39 12 C-41.504 10.781 -41.504 10.781 -44 10 Z M-57 162 C-57 162.33 -57 162.66 -57 163 C-54.03 163 -51.06 163 -48 163 C-48 162.67 -48 162.34 -48 162 C-50.97 162 -53.94 162 -57 162 Z M-47 165 C-46.01 165.99 -45.02 166.98 -44 168 C-44.33 167.01 -44.66 166.02 -45 165 C-45.66 165 -46.32 165 -47 165 Z M-110 168 C-109.34 169.32 -108.68 170.64 -108 172 C-107.34 171.67 -106.68 171.34 -106 171 C-107.32 170.01 -108.64 169.02 -110 168 Z M-44 168 C-43 170 -43 170 -43 170 Z " fill="#000000" transform="translate(214,35)"/>
<path d="M0 0 C0.33 0.66 0.66 1.32 1 2 C3.64 2 6.28 2 9 2 C9.186 2.722 9.371 3.444 9.562 4.188 C11.079 7.155 11.853 7.727 14.562 9.438 C17.293 11.261 17.9 11.739 19.125 14.938 C18.909 20.226 16.25 23.976 13 28 C13.66 28 14.32 28 15 28 C13.509 32.607 11.215 35.464 8 39 C4.881 40.559 2.455 40.283 -1 40 C-5.957 38.1 -8.862 35.259 -12 31 C-12.99 30.34 -13.98 29.68 -15 29 C-14 27 -14 27 -13 26 C-13.99 24.68 -14.98 23.36 -16 22 C-16.66 22.66 -17.32 23.32 -18 24 C-18.332 19.845 -18.225 17.441 -16.312 13.688 C-13.858 10.835 -12.39 10.338 -9 9 C-8.691 8.196 -8.381 7.391 -8.062 6.562 C-6.583 2.993 -4.455 2.47 -1 1 C-0.67 0.67 -0.34 0.34 0 0 Z M10 11 C9.01 11.495 9.01 11.495 8 12 C8 12.99 8 13.98 8 15 C9.65 14.67 11.3 14.34 13 14 C13 13.34 13 12.68 13 12 C12.01 11.67 11.02 11.34 10 11 Z M-11 12 C-11 12.99 -11 13.98 -11 15 C-9.35 15.33 -7.7 15.66 -6 16 C-6 14.68 -6 13.36 -6 12 C-6.99 12.66 -7.98 13.32 -9 14 C-9.66 13.34 -10.32 12.68 -11 12 Z M-7 34 C-4.157 36.843 -1.997 38.328 2 38.562 C5.511 38.403 6.063 37.949 9 35.562 C11.103 33.41 11.103 33.41 11 32 C4.05 30.786 -0.5 31.28 -7 34 Z " fill="#000000" transform="translate(186,50)"/>
</svg>
