<?xml version="1.0" encoding="UTF-8"?>
<!-- Generator: visioncortex VTracer 0.6.4 -->
<svg version="1.1" xmlns="http://www.w3.org/2000/svg" width="281" height="256">
<path d="M0 0 C2 2 2 2 2.047 4.066 C1.9 5.302 1.9 5.302 1.75 6.562 C1.651 7.461 1.551 8.359 1.449 9.285 C1.03 11.817 0.348 14.064 -0.438 16.5 C-1.143 19.428 -1.157 20.642 0.066 23.434 C1.118 25.123 2.207 26.79 3.328 28.434 C6.005 32.542 9 37.984 9 43 C9.58 43.11 10.16 43.219 10.758 43.332 C15.597 44.314 19.654 45.548 24 48 C22 49 22 49 18.961 48.004 C17.778 47.528 16.594 47.053 15.375 46.562 C14.186 46.089 12.998 45.616 11.773 45.129 C10.858 44.756 9.943 44.384 9 44 C9.206 45.093 9.412 46.186 9.625 47.312 C10 51 10 51 8 54 C8 55.32 8 56.64 8 58 C7.01 58.66 6.02 59.32 5 60 C6.164 62.521 7.433 64.604 9.062 66.875 C13.764 74.458 12.092 83.971 11.375 92.5 C10.899 99.322 11.363 104.731 13.805 111.098 C18.264 123.477 17.567 139.11 12.073 151.008 C9.823 155.73 7.443 160.375 5 165 C5.645 165.266 6.289 165.531 6.953 165.805 C7.629 166.199 8.304 166.594 9 167 C9.75 170.125 9.75 170.125 10 173 C7.449 175.354 6.29 175.983 2.75 176.188 C1.843 176.126 0.935 176.064 0 176 C-0.34 177.176 -0.34 177.176 -0.688 178.375 C-2 181 -2 181 -4.176 182.145 C-7.4 183.121 -10.134 183.301 -13.5 183.312 C-14.603 183.329 -15.707 183.346 -16.844 183.363 C-20.336 182.961 -22.21 182.104 -25 180 C-25.812 177.813 -25.812 177.813 -26 176 C-26.371 177.145 -26.371 177.145 -26.75 178.312 C-28.205 181.44 -29.001 182.329 -32 184 C-34.78 184.267 -37.294 184.375 -40.062 184.312 C-40.782 184.316 -41.502 184.319 -42.244 184.322 C-46.016 184.284 -47.793 184.138 -51 182 C-51.188 178.875 -51.188 178.875 -51 176 C-51.66 176.33 -52.32 176.66 -53 177 C-55.658 177.124 -58.279 177.185 -60.938 177.188 C-61.666 177.2 -62.395 177.212 -63.146 177.225 C-66.971 177.235 -68.744 177.171 -72 175 C-73.188 172.375 -73.188 172.375 -74 170 C-75.196 170.144 -76.392 170.289 -77.625 170.438 C-78.298 170.519 -78.971 170.6 -79.664 170.684 C-81.271 170.901 -82.871 171.177 -84.46 171.5 C-89.298 172.183 -94.089 172.236 -98.969 172.316 C-100.04 172.337 -101.111 172.358 -102.215 172.379 C-104.488 172.423 -106.761 172.464 -109.034 172.503 C-112.433 172.561 -115.832 172.627 -119.23 172.693 C-124.748 172.798 -130.265 172.885 -135.783 172.957 C-137.92 172.986 -140.057 173.017 -142.194 173.05 C-145.202 173.095 -148.21 173.126 -151.219 173.152 C-152.551 173.175 -152.551 173.175 -153.911 173.198 C-159.011 173.224 -163.169 172.657 -168 171 C-168.33 169.35 -168.66 167.7 -169 166 C-162.806 162.952 -156.903 161.062 -150.125 159.812 C-149.304 159.648 -148.483 159.484 -147.637 159.314 C-135.451 156.967 -123.189 156.753 -110.822 156.523 C-102.712 156.366 -94.895 156.027 -87 154 C-87.289 153.019 -87.578 152.038 -87.875 151.027 C-93.284 131.756 -90.863 117.022 -82 99.125 C-81.466 98.024 -80.933 96.923 -80.383 95.789 C-76.434 87.696 -76.434 87.696 -74.356 84.367 C-72.53 81.18 -72.487 78.522 -72.312 74.875 C-72.247 73.656 -72.181 72.436 -72.113 71.18 C-72.04 69.121 -72 67.06 -72 65 C-71.01 64.01 -71.01 64.01 -70 63 C-69.833 60.416 -69.833 60.416 -70 58 C-71.114 58.681 -72.228 59.361 -73.375 60.062 C-75.273 61.223 -75.273 61.223 -77 62 C-77.66 61.67 -78.32 61.34 -79 61 C-78.812 59.25 -78.812 59.25 -78 57 C-76.732 56.072 -76.732 56.072 -75.438 55.125 C-74.633 54.424 -73.829 53.722 -73 53 C-72.797 49.911 -72.797 49.911 -73 47 C-73.771 47.433 -74.542 47.866 -75.336 48.312 C-76.339 48.869 -77.342 49.426 -78.375 50 C-79.373 50.557 -80.37 51.114 -81.398 51.688 C-84 53 -84 53 -86 53 C-86 52.34 -86 51.68 -86 51 C-84.044 49.995 -82.085 48.996 -80.125 48 C-79.034 47.443 -77.944 46.886 -76.82 46.312 C-74 45 -74 45 -72 45 C-71.814 43.824 -71.629 42.649 -71.438 41.438 C-70.6 37.445 -69.124 34.126 -67.252 30.509 C-64.135 24.456 -62.09 20.078 -64.238 13.293 C-64.49 12.536 -64.741 11.78 -65 11 C-65.488 7.992 -65.759 5.042 -66 2 C-65 1 -65 1 -62.062 0.625 C-58.481 0.632 -56.272 1.806 -53.188 3.562 C-48.59 6.024 -45.852 6.245 -40.781 5.402 C-37.414 4.915 -34.151 4.879 -30.75 4.875 C-29.61 4.872 -28.471 4.87 -27.297 4.867 C-24 5 -24 5 -20.953 5.691 C-17.092 6.095 -15.335 4.977 -12 3.062 C-7.759 0.638 -4.928 -0.567 0 0 Z M-64 2 C-64 2.66 -64 3.32 -64 4 C-63.325 4.254 -62.649 4.508 -61.953 4.77 C-61.061 5.114 -60.169 5.458 -59.25 5.812 C-58.368 6.149 -57.487 6.485 -56.578 6.832 C-54 8 -54 8 -50 11 C-54.29 9.02 -58.58 7.04 -63 5 C-64.184 8.552 -63.695 9.698 -62.562 13.188 C-62.275 14.089 -61.988 14.99 -61.691 15.918 C-61.349 16.949 -61.349 16.949 -61 18 C-58.69 16.68 -56.38 15.36 -54 14 C-54.743 14.722 -55.485 15.444 -56.25 16.188 C-61.593 21.652 -64.422 26.789 -67.25 33.812 C-67.614 34.696 -67.977 35.58 -68.352 36.49 C-69.242 38.657 -70.124 40.827 -71 43 C-66.935 44.211 -64.197 43.555 -60.062 42.562 C-55.934 41.578 -52.251 40.798 -48 41 C-48.822 41.11 -49.645 41.219 -50.492 41.332 C-57.563 42.336 -64.233 43.709 -71 46 C-71 47.98 -71 49.96 -71 52 C-70.033 51.518 -69.066 51.036 -68.07 50.539 C-60.822 46.997 -54.115 43.936 -46 43 C-48.123 45.328 -50.043 46.676 -52.906 47.973 C-54.022 48.486 -54.022 48.486 -55.16 49.01 C-55.932 49.357 -56.704 49.705 -57.5 50.062 C-59.032 50.76 -60.564 51.459 -62.094 52.16 C-62.771 52.466 -63.449 52.771 -64.146 53.086 C-66.252 54.075 -66.252 54.075 -69 56 C-68.34 57.65 -67.68 59.3 -67 61 C-66.527 60.636 -66.054 60.273 -65.566 59.898 C-60.509 56.054 -55.319 52.472 -50 49 C-50 49.66 -50 50.32 -50 51 C-50.715 51.245 -51.431 51.49 -52.168 51.742 C-55.346 53.154 -57.636 54.913 -60.312 57.125 C-61.196 57.849 -62.079 58.574 -62.988 59.32 C-63.984 60.152 -63.984 60.152 -65 61 C-64.468 65.138 -62.221 67.271 -59.438 70.25 C-58.611 71.142 -57.785 72.034 -56.934 72.953 C-56.296 73.629 -55.657 74.304 -55 75 C-59.252 71.638 -62.638 68.252 -66 64 C-67.485 64.495 -67.485 64.495 -69 65 C-70.65 69.43 -71.23 73.291 -71 78 C-70.34 78.33 -69.68 78.66 -69 79 C-68.797 80.898 -68.797 80.898 -68.75 83.375 C-68.171 90.966 -64.133 96.801 -60 103 C-65.661 96.112 -68.885 89.918 -70 81 C-74.031 86.05 -76.62 91.872 -79.5 97.625 C-80.372 99.332 -80.372 99.332 -81.262 101.074 C-88.946 116.391 -92.047 131.174 -87.062 147.938 C-83.83 156.487 -78.606 163.688 -72 170 C-71.443 169.783 -70.886 169.567 -70.312 169.344 C-64.948 167.386 -60.701 166.689 -55 167 C-55.831 167.121 -56.663 167.242 -57.52 167.367 C-58.606 167.535 -59.693 167.702 -60.812 167.875 C-61.891 168.037 -62.97 168.2 -64.082 168.367 C-67.173 168.851 -67.173 168.851 -70 171 C-70 172.32 -70 173.64 -70 175 C-68.02 175.33 -66.04 175.66 -64 176 C-63.67 174.35 -63.34 172.7 -63 171 C-62.505 172.98 -62.505 172.98 -62 175 C-60.35 175.33 -58.7 175.66 -57 176 C-57 174.02 -57 172.04 -57 170 C-56.505 172.475 -56.505 172.475 -56 175 C-54.35 174.67 -52.7 174.34 -51 174 C-48.615 163.038 -55.177 153.572 -60.272 144.244 C-64.132 137.056 -66.772 129.843 -69 122 C-58.238 131.641 -54.408 150.542 -49.829 163.716 C-49.054 165.988 -49.054 165.988 -48 168 C-47.34 168 -46.68 168 -46 168 C-46.66 168.99 -47.32 169.98 -48 171 C-48 171.99 -48 172.98 -48 174 C-46.866 173.814 -45.731 173.629 -44.562 173.438 C-42.799 173.221 -42.799 173.221 -41 173 C-40.67 173.33 -40.34 173.66 -40 174 C-40.99 174 -41.98 174 -43 174 C-43 176.64 -43 179.28 -43 182 C-41.35 182.33 -39.7 182.66 -38 183 C-37.67 181.35 -37.34 179.7 -37 178 C-36.01 179.98 -36.01 179.98 -35 182 C-31.069 181.425 -31.069 181.425 -28 179 C-27.935 176.384 -28.005 173.915 -28.188 171.312 C-28.236 170.535 -28.284 169.758 -28.334 168.958 C-29.058 158.581 -30.573 148.299 -32 138 C-30.68 146.91 -29.36 155.82 -28 165 C-27.67 165 -27.34 165 -27 165 C-26.985 164.427 -26.971 163.853 -26.956 163.263 C-26.384 143.109 -24.478 131.478 -10 117 C-10.592 117.701 -11.183 118.403 -11.793 119.125 C-14.233 122.055 -16.622 125.02 -19 128 C-19.812 128.965 -19.812 128.965 -20.641 129.949 C-27.241 138.796 -26.238 151.922 -25.812 162.438 C-25.768 163.661 -25.768 163.661 -25.722 164.909 C-25.387 170.656 -24.063 175.635 -22 181 C-19.36 181 -16.72 181 -14 181 C-13.312 178.646 -13.312 178.646 -13 176 C-13.66 175.01 -14.32 174.02 -15 173 C-14.34 173 -13.68 173 -13 173 C-12.67 175.64 -12.34 178.28 -12 181 C-10.35 181 -8.7 181 -7 181 C-6.34 179.35 -5.68 177.7 -5 176 C-4.67 177.32 -4.34 178.64 -4 180 C-2.738 178.954 -2.738 178.954 -2.812 176.625 C-2.8 173.766 -2.8 173.766 -5 171 C-9.658 159.024 -3.213 146.959 1.537 135.949 C4.048 130.113 6.392 124.475 6 118 C6.66 118 7.32 118 8 118 C4.748 130.071 0.584 141.559 -4.231 153.093 C-6.531 158.798 -6.939 163.695 -4.625 169.375 C-3.116 172.037 -3.116 172.037 -1 174 C3.652 174.342 3.652 174.342 8 173 C8.14 170.078 8.14 170.078 7 167 C4.46 165.534 1.829 164.735 -1 164 C-0.381 163.878 0.238 163.755 0.875 163.629 C4.603 162.525 6.132 159.474 8.035 156.242 C15.843 141.576 16.675 125.754 12 110 C11.654 109.258 11.307 108.516 10.95 107.752 C9.773 104.342 9.823 101.581 9.91 97.977 C9.931 96.612 9.951 95.247 9.971 93.883 C10.014 91.754 10.062 89.626 10.116 87.498 C10.165 85.428 10.195 83.359 10.223 81.289 C10.265 79.444 10.265 79.444 10.309 77.561 C9.817 71.891 7.683 67.385 4 63 C-0.095 64.365 -1.717 67.218 -4.188 70.562 C-4.651 71.178 -5.114 71.794 -5.592 72.428 C-6.734 73.947 -7.868 75.473 -9 77 C-6.672 73.467 -4.307 69.996 -1.75 66.625 C-0.969 65.592 -0.969 65.592 -0.172 64.539 C0.215 64.031 0.602 63.523 1 63 C-0.496 58.471 -4.149 56.624 -8 54.25 C-8.963 53.633 -8.963 53.633 -9.945 53.004 C-13.219 50.755 -13.219 50.755 -17 50 C-17 49.34 -17 48.68 -17 48 C-15.891 48.699 -14.783 49.397 -13.641 50.117 C-12.177 51.037 -10.714 51.956 -9.25 52.875 C-8.52 53.335 -7.791 53.795 -7.039 54.27 C-5.976 54.937 -5.976 54.937 -4.891 55.617 C-3.917 56.23 -3.917 56.23 -2.923 56.855 C-0.99 58.006 0.976 59.02 3 60 C3.33 58.68 3.66 57.36 4 56 C-1.924 52.058 -7.682 48.435 -14.32 45.824 C-16 45 -16 45 -17 43 C-8.626 44.128 -0.935 46.102 7 49 C7.33 47.35 7.66 45.7 8 44 C-0.192 41.492 -12.987 37.994 -21 42 C-21 41.01 -21 40.02 -21 39 C-11.76 39.99 -2.52 40.98 7 42 C2.774 29.321 -0.906 21.652 -12 14 C-7.901 17.137 -7.901 17.137 -3 18 C-1.112 12.942 0.549 8.49 0 3 C-0.975 1.797 -0.975 1.797 -2.785 1.945 C-7.35 2.305 -10.281 2.941 -14 5.688 C-16.32 7.302 -17.404 8.031 -20.254 7.883 C-21.795 7.502 -23.327 7.084 -24.848 6.629 C-29.574 5.248 -33.887 5.915 -38.562 7.062 C-45.936 8.773 -50.816 6.321 -57.414 3.059 C-60.151 1.747 -60.151 1.747 -64 2 Z M-60.062 47.188 C-61.162 47.645 -61.162 47.645 -62.283 48.111 C-66.5 49.904 -66.5 49.904 -69.496 53.238 C-69.662 53.82 -69.829 54.401 -70 55 C-65.397 53.275 -61.067 51.09 -56.688 48.875 C-55.947 48.502 -55.206 48.13 -54.443 47.746 C-52.628 46.833 -50.814 45.917 -49 45 C-53.301 43.566 -56.124 45.436 -60.062 47.188 Z M-14 44 C-11.003 46.363 -7.916 48.244 -4.562 50.062 C-3.172 50.822 -3.172 50.822 -1.754 51.598 C0.79 52.893 3.332 53.988 6 55 C6.33 53.35 6.66 51.7 7 50 C4.065 48.993 1.127 47.995 -1.812 47 C-2.646 46.714 -3.479 46.428 -4.338 46.133 C-5.14 45.862 -5.943 45.591 -6.77 45.312 C-7.508 45.061 -8.246 44.81 -9.007 44.551 C-11.137 43.867 -11.137 43.867 -14 44 Z M-73 55 C-73.33 55.66 -73.66 56.32 -74 57 C-73.01 56.67 -72.02 56.34 -71 56 C-71.66 55.67 -72.32 55.34 -73 55 Z M-76 57 C-76.33 57.66 -76.66 58.32 -77 59 C-76.01 58.67 -75.02 58.34 -74 58 C-74.66 57.67 -75.32 57.34 -76 57 Z M-66 127 C-65.465 132.348 -63.533 136.358 -61 141 C-59.695 137.084 -60.678 135.961 -62.438 132.312 C-62.911 131.319 -63.384 130.325 -63.871 129.301 C-64.244 128.542 -64.616 127.782 -65 127 C-65.33 127 -65.66 127 -66 127 Z M-60 141 C-59 143 -59 143 -59 143 Z M-59 143 C-58 145 -58 145 -58 145 Z M-88.987 155.967 C-93.382 157.235 -97.652 157.395 -102.203 157.527 C-104.008 157.598 -105.813 157.669 -107.617 157.74 C-110.414 157.84 -113.21 157.936 -116.007 158.029 C-141.665 158.617 -141.665 158.617 -166 166 C-166.66 166.99 -167.32 167.98 -168 169 C-164.345 171.306 -161.253 171.244 -156.992 171.23 C-155.939 171.23 -155.939 171.23 -154.865 171.23 C-152.535 171.227 -150.205 171.208 -147.875 171.188 C-146.242 171.179 -144.609 171.171 -142.976 171.164 C-137.65 171.132 -132.325 171.07 -127 171 C-125.587 170.982 -125.587 170.982 -124.145 170.964 C-118.399 170.887 -112.654 170.794 -106.909 170.68 C-105.062 170.643 -103.216 170.61 -101.369 170.579 C-98.769 170.534 -96.17 170.476 -93.57 170.414 C-92.805 170.402 -92.04 170.391 -91.252 170.379 C-86.509 170.249 -82.511 169.482 -78 168 C-78 164.18 -79.233 162.887 -81.438 159.812 C-82.076 158.911 -82.714 158.01 -83.371 157.082 C-83.909 156.395 -84.446 155.708 -85 155 C-86.365 154.949 -86.365 154.949 -88.987 155.967 Z M-49 177 C-48.67 178.65 -48.34 180.3 -48 182 C-47.01 182 -46.02 182 -45 182 C-44.67 179.36 -44.34 176.72 -44 174 C-45.968 174 -47.505 175.843 -49 177 Z " fill="#000000" transform="translate(197,20)"/>
<path d="M0 0 C-0.687 0.315 -1.374 0.629 -2.082 0.953 C-2.983 1.381 -3.884 1.809 -4.812 2.25 C-5.706 2.668 -6.599 3.085 -7.52 3.516 C-10.121 5.072 -11.268 6.565 -13 9 C-13.66 9 -14.32 9 -15 9 C-14.062 5.852 -13.441 4.313 -10.723 2.383 C-9.845 1.968 -8.967 1.553 -8.062 1.125 C-7.187 0.694 -6.312 0.264 -5.41 -0.18 C-3 -1 -3 -1 0 0 Z " fill="#000000" transform="translate(196,24)"/>
<path d="M0 0 C0.66 0.33 1.32 0.66 2 1 C1.34 2.32 0.68 3.64 0 5 C0.949 4.959 1.898 4.918 2.875 4.875 C6 5 6 5 8 7 C7.812 9.5 7.812 9.5 7 12 C2.958 14.695 0.795 14.232 -4 14 C-4.33 13.67 -4.66 13.34 -5 13 C-4.714 7.272 -4.122 4.255 0 0 Z M1 6 C1.33 7.98 1.66 9.96 2 12 C3.32 11.34 4.64 10.68 6 10 C5.67 8.68 5.34 7.36 5 6 C3.68 6 2.36 6 1 6 Z M-2 8 C-2.33 8.99 -2.66 9.98 -3 11 C-2.67 11.66 -2.34 12.32 -2 13 C-1.01 12.67 -0.02 12.34 1 12 C0.01 10.68 -0.98 9.36 -2 8 Z " fill="#000000" transform="translate(175,39)"/>
<path d="M0 0 C3.057 0.909 4.723 1.675 6.812 4.125 C8.435 8.053 8.348 10.76 8 15 C6 17 6 17 3.188 17.312 C-0.401 16.961 -2.195 16.244 -5 14 C-6 12 -6 12 -6 10 C-4.938 8.25 -4.938 8.25 -3 7 C0.432 6.714 2.724 6.908 6 8 C5.257 7.072 5.257 7.072 4.5 6.125 C3 4 3 4 3 2 C2.01 1.67 1.02 1.34 0 1 C0 0.67 0 0.34 0 0 Z M0 8 C-0.99 8.66 -1.98 9.32 -3 10 C-2.67 11.32 -2.34 12.64 -2 14 C-1.34 14 -0.68 14 0 14 C0 12.68 0 11.36 0 10 C0.99 9.67 1.98 9.34 3 9 C2.01 8.67 1.02 8.34 0 8 Z M3 10 C2.34 11.65 1.68 13.3 1 15 C2.32 14.67 3.64 14.34 5 14 C4.67 12.68 4.34 11.36 4 10 C3.67 10 3.34 10 3 10 Z " fill="#000000" transform="translate(151,37)"/>
<path d="M0 0 C3.63 0 7.26 0 11 0 C11.33 0.66 11.66 1.32 12 2 C10.68 3.65 9.36 5.3 8 7 C8.579 8.999 8.579 8.999 10 11 C13.042 12.292 13.042 12.292 16 13 C15.67 13.66 15.34 14.32 15 15 C12.332 14.555 10.312 14.195 8 12.75 C7.34 12.502 6.68 12.255 6 12 C4.307 12.955 2.641 13.959 1 15 C-1.812 15.188 -1.812 15.188 -4 15 C-4 14.34 -4 13.68 -4 13 C-1.69 12.34 0.62 11.68 3 11 C3.86 8.707 3.86 8.707 4 6 C2.125 3.791 2.125 3.791 0 2 C0 1.34 0 0.68 0 0 Z M4 2 C4 2.66 4 3.32 4 4 C5.65 3.67 7.3 3.34 9 3 C9 2.67 9 2.34 9 2 C7.35 2 5.7 2 4 2 Z " fill="#000000" transform="translate(158,56)"/>
<path d="M0 0 C2 1 2 1 2 1 Z " fill="#000000" transform="translate(155,61)"/>
<path d="M0 0 C3.403 1.059 6.014 2.009 9 4 C8.67 4.66 8.34 5.32 8 6 C6.664 5.192 5.331 4.378 4 3.562 C3.257 3.11 2.515 2.658 1.75 2.191 C1.173 1.798 0.595 1.405 0 1 C0 0.67 0 0.34 0 0 Z " fill="#000000" transform="translate(207,71)"/>
<path d="M0 0 C0.57 0.162 1.14 0.325 1.727 0.492 C7.391 1.757 13.364 1.156 19 0 C18 2 18 2 15.562 3.188 C10.538 4.333 4.71 4.355 0 2 C0 1.34 0 0.68 0 0 Z " fill="#000000" transform="translate(156,77)"/>
<path d="" fill="#000000" transform="translate(0,0)"/>
<path d="M0 0 C1.98 0.99 1.98 0.99 4 2 C3.01 2 2.02 2 1 2 C0.67 1.34 0.34 0.68 0 0 Z " fill="#000000" transform="translate(206,79)"/>
<path d="M0 0 C0.33 0 0.66 0 1 0 C1.49 8.043 1.085 13.991 -3 21 C-3.412 21.739 -3.825 22.477 -4.25 23.238 C-8.147 29.648 -13.308 34.196 -19 39 C-20.461 40.268 -21.919 41.539 -23.375 42.812 C-24.33 43.644 -24.33 43.644 -25.305 44.492 C-27.284 46.252 -29.166 48.089 -31 50 C-29.649 45.947 -27.938 43.581 -24.875 40.625 C-23.67 39.457 -23.67 39.457 -22.441 38.266 C-20.27 36.25 -18.063 34.3 -15.812 32.375 C-5.08 23.072 -1.65 14.049 0 0 Z " fill="#000000" transform="translate(202,97)"/>
<path d="M0 0 C3.311 1.104 3.882 1.806 6 4.438 C9.773 8.919 14.019 12.686 18.449 16.508 C22.506 20.471 25.328 24.291 26 30 C23.678 27.852 22.2 25.729 20.625 23 C17.414 18.021 13.328 14.635 8.67 11.07 C4.556 7.83 2.369 4.681 0 0 Z " fill="#000000" transform="translate(143,124)"/>
<path d="M0 0 C3 1 3 1 3 1 Z " fill="#000000" transform="translate(158,193)"/>
<path d="" fill="#000000" transform="translate(0,0)"/>
</svg>
