<?xml version="1.0" encoding="UTF-8"?>
<!-- Generator: visioncortex VTracer 0.6.4 -->
<svg version="1.1" xmlns="http://www.w3.org/2000/svg" width="281" height="256">
<path d="M0 0 C6.417 0.117 10.353 2.06 15.703 5.527 C16.461 6.013 17.219 6.499 18 7 C18.634 7.414 19.268 7.828 19.922 8.254 C22.846 9.304 24.972 8.577 28 8 C30.272 8.077 32.543 8.183 34.812 8.312 C42.041 8.396 45.534 6.414 51 2 C54.759 -0.193 57.637 -0.404 62 0 C64 3 64 3 63.816 6.25 C62.698 11.387 60.521 15.77 58.277 20.5 C56.9 24.275 56.874 27.016 57 31 C56.038 35.554 54.548 39.27 51.75 43 C48.944 47.81 50.366 52.374 51.636 57.635 C52.386 60.373 53.182 63.094 54 65.812 C54.542 67.652 55.084 69.492 55.625 71.332 C55.865 72.134 56.105 72.935 56.352 73.761 C60.377 87.661 56.309 100.761 51.5 113.938 C46.495 128.521 39.688 154.215 46 169 C46.701 169.516 47.403 170.031 48.125 170.562 C50 172 50 172 50.438 174.562 C50.293 175.367 50.149 176.171 50 177 C46.46 179.36 44.287 179.345 40.156 179.559 C37.914 179.794 37.914 179.794 36.652 181.508 C34.028 183.878 31.511 183.434 28.062 183.438 C26.837 183.457 25.611 183.476 24.348 183.496 C21 183 21 183 18.699 181.582 C16.164 177.73 15.56 173.742 14.75 169.25 C14.577 168.362 14.405 167.474 14.227 166.559 C13.804 164.375 13.4 162.188 13 160 C11.02 162.31 9.04 164.62 7 167 C7.969 167.474 8.939 167.949 9.938 168.438 C13 170 13 170 14 171 C14.312 173.875 14.312 173.875 14 177 C11.88 179.123 10.688 179.974 7.66 180.09 C6.803 179.966 5.946 179.842 5.062 179.715 C0.901 179.206 -3.183 178.871 -7.375 178.754 C-8.463 178.721 -9.551 178.688 -10.672 178.654 C-12.891 178.593 -15.109 178.536 -17.328 178.482 C-37.341 177.854 -37.341 177.854 -43 172 C-43.33 173.32 -43.66 174.64 -44 176 C-40.794 177.853 -38.121 178.372 -34.449 178.711 C-33.365 178.819 -32.281 178.927 -31.164 179.039 C-30.016 179.15 -28.869 179.261 -27.688 179.375 C-13.245 180.92 -0.09 182.542 11.438 192 C13.293 194.375 13.842 195.998 14 199 C12 201 12 201 9.336 201.332 C5.298 200.93 2.206 199.457 -1.375 197.688 C-11.138 193.174 -20.932 191.633 -31.512 190.301 C-56.155 187.183 -56.155 187.183 -60.742 182.051 C-62.529 179.137 -62.472 177.369 -62 174 C-59.515 168.813 -55.994 166.387 -51.219 163.492 C-48.717 161.81 -46.85 160.397 -45 158 C-44.665 154.939 -44.665 154.939 -45 151.5 C-45.842 128.049 -36.374 100.68 -20.5 83.5 C-15.023 77.722 -9.106 72.595 -2.994 67.508 C1.064 64.05 3.801 60.864 6.016 55.945 C7.691 52.634 10.274 50.473 13 48 C12.368 47.186 12.368 47.186 11.723 46.355 C11.175 45.64 10.627 44.925 10.062 44.188 C9.517 43.48 8.972 42.772 8.41 42.043 C5.982 38.525 5.874 35.467 5.688 31.312 C5.324 26.373 4.369 22.999 1.914 18.742 C0.613 16.262 0.375 13.752 0 11 C-0.371 10.34 -0.743 9.68 -1.125 9 C-2.392 6.103 -1.735 4.006 -1 1 C-0.67 0.67 -0.34 0.34 0 0 Z M52 5 C49.984 6.929 48.607 8.663 47 11 C47 14.386 48.901 16.444 51 19 C51.66 18.67 52.32 18.34 53 18 C53.66 19.32 54.32 20.64 55 22 C57.407 19.593 58.294 17.38 59.625 14.25 C60.071 13.224 60.517 12.198 60.977 11.141 C62.034 7.896 62.193 5.387 62 2 C57.667 0 55.456 2.249 52 5 Z M0 2 C-0.186 6.089 0.109 8.428 2 12 C2.536 14.023 2.998 16.052 3.438 18.098 C3.987 20.301 3.987 20.301 6 23 C6.66 23 7.32 23 8 23 C8 25 8 25 7.312 28.562 C6.506 35.108 8.696 40.676 12.625 45.875 C16.076 49.631 20.132 50.864 25 52 C25.495 51.01 25.495 51.01 26 50 C25.01 49.361 24.02 48.721 23 48.062 C22.01 47.382 21.02 46.701 20 46 C20 45.67 20 45.34 20 45 C20.66 45.66 21.32 46.32 22 47 C25.04 46.993 25.04 46.993 28 46 C29.436 44.048 29.436 44.048 30 42 C28.515 41.505 28.515 41.505 27 41 C27.33 39.35 27.66 37.7 28 36 C29.145 36.278 29.145 36.278 30.312 36.562 C33.09 37.228 33.09 37.228 36 36 C35.227 37.114 35.227 37.114 34.438 38.25 C32.768 40.82 32.768 40.82 33.25 43.25 C33.868 44.992 33.868 44.992 35 46 C37.958 46.25 37.958 46.25 41 46 C41.99 45.01 41.99 45.01 43 44 C43 42.68 43 41.36 43 40 C43.66 40 44.32 40 45 40 C44.347 42.005 43.678 44.004 43 46 C42.629 47.361 42.629 47.361 42.25 48.75 C41 51 41 51 38.379 52.129 C34.675 53.084 31.509 53.231 27.688 53.188 C25.719 53.172 25.719 53.172 23.711 53.156 C20.653 53.027 17.819 52.707 14.812 52.188 C12.925 52.095 12.925 52.095 11 52 C7.792 55.281 5.99 58.788 4.25 63 C3.822 64.011 3.394 65.021 2.953 66.062 C2.026 68.919 1.803 71.025 2 74 C1.34 74 0.68 74 0 74 C0.33 71.69 0.66 69.38 1 67 C-22.799 83.934 -36.152 106.139 -42.438 134.625 C-44.118 146.351 -44.701 160.914 -40 172 C-35.972 175.859 -31.838 176.113 -26.449 176.281 C-25.364 176.318 -24.279 176.355 -23.162 176.393 C-22.015 176.428 -20.869 176.464 -19.688 176.5 C-10.107 176.828 -0.558 177.259 9 178 C8.67 176.68 8.34 175.36 8 174 C8.33 174 8.66 174 9 174 C9.33 174.66 9.66 175.32 10 176 C10.66 176 11.32 176 12 176 C11.812 173.555 11.812 173.555 11 171 C7.63 168.633 4.507 168.768 0.484 168.805 C-0.766 168.811 -2.016 168.818 -3.305 168.824 C-4.607 168.841 -5.909 168.858 -7.25 168.875 C-8.567 168.884 -9.885 168.893 -11.242 168.902 C-14.495 168.926 -17.747 168.959 -21 169 C-17.54 167.051 -14.885 166.838 -10.906 166.825 C-3.927 166.927 -3.927 166.927 2.414 164.488 C6.079 160.182 7.378 155.942 7.273 150.242 C6.335 142.544 1.643 136.069 -4 131 C-7.562 128.475 -11.222 126.186 -15 124 C-6.579 127.024 1.316 133.426 5.223 141.539 C7.656 147.529 8.675 151.718 7 158 C5.443 161.41 3.67 164.33 1 167 C3.817 166.917 5.534 166.423 7.633 164.516 C11.424 160.307 11.424 160.307 13 155 C12.492 151.983 12.492 151.983 11.5 148.625 C11.237 147.667 11.237 147.667 10.969 146.69 C9.823 142.604 8.543 138.571 7.207 134.543 C0.861 115.383 0.861 115.383 1 106 C1.112 106.902 1.224 107.805 1.34 108.734 C2.883 119.55 6.022 129.548 9.52 139.88 C12.828 149.881 15.077 159.829 16.884 170.202 C17.197 171.868 17.197 171.868 17.516 173.566 C17.684 174.546 17.851 175.525 18.024 176.533 C18.841 179.201 18.841 179.201 21.405 180.902 C24.04 182.354 24.04 182.354 27 181 C27.733 178.985 27.733 178.985 28 177 C28.99 179.475 28.99 179.475 30 182 C30.66 181.67 31.32 181.34 32 181 C31.835 180.093 31.67 179.185 31.5 178.25 C31 175 31 175 31 171 C30.706 169.661 30.361 168.332 29.977 167.016 C29.761 166.253 29.545 165.491 29.323 164.706 C29.093 163.895 28.862 163.085 28.625 162.25 C23.663 144.034 22.973 126.669 26 108 C26.357 105.336 26.68 102.669 27 100 C27.66 100 28.32 100 29 100 C28.795 100.724 28.59 101.449 28.379 102.195 C28.109 103.162 27.84 104.129 27.562 105.125 C27.296 106.076 27.029 107.028 26.754 108.008 C25.272 113.889 24.867 119.347 24.938 125.375 C24.942 126.111 24.947 126.847 24.951 127.605 C24.963 129.404 24.981 131.202 25 133 C35.562 122.696 42.727 110.741 48 97 C48 96.34 48 95.68 48 95 C48.66 95 49.32 95 50 95 C48.436 104.935 46.049 113.778 40 122 C39.262 122.478 38.524 122.955 37.764 123.447 C34.311 125.764 31.509 127.793 30.532 132.028 C29.981 137.198 30.185 142.346 30.474 147.529 C30.626 150.323 30.701 153.111 30.766 155.908 C30.831 157.685 30.902 159.462 30.977 161.238 C31.001 162.073 31.025 162.907 31.05 163.767 C31.16 166.39 31.16 166.39 32 170 C34.4 171.937 34.4 171.937 37 173 C37.812 175.688 37.812 175.688 38 178 C39.98 177.67 41.96 177.34 44 177 C44 175.68 44 174.36 44 173 C45.98 173.99 45.98 173.99 48 175 C47.67 173.68 47.34 172.36 47 171 C45.68 170.67 44.36 170.34 43 170 C42.259 148.027 45.238 126.597 52.434 105.793 C57.852 90.06 56.221 77.776 51.633 62.191 C50.735 59.083 49.958 55.955 49.188 52.812 C48.838 51.399 48.838 51.399 48.48 49.957 C48.322 49.311 48.163 48.665 48 48 C47.01 48 46.02 48 45 48 C45.471 47.504 45.941 47.007 46.426 46.496 C51.627 40.822 55.343 36.014 55.125 28 C54.473 23.01 52.42 20.691 48.594 17.57 C46.704 15.709 46.25 14.626 46 12 C47.438 8.75 47.438 8.75 49 6 C46.707 7.104 44.662 8.234 42.562 9.688 C39.44 11.287 38.311 10.849 35 10 C32.946 10.409 32.946 10.409 31 11 C28.792 11 26.583 10.99 24.375 10.938 C21.982 10.833 21.982 10.833 20 12 C19.299 11.258 18.597 10.515 17.875 9.75 C15.052 7.05 12.399 4.921 9 3 C8.01 3.33 7.02 3.66 6 4 C6.831 4.671 6.831 4.671 7.68 5.355 C14.875 11.36 14.875 11.36 16 16 C15.34 16.33 14.68 16.66 14 17 C13.936 16.111 13.871 15.221 13.805 14.305 C12.805 10.199 11.298 8.856 8.125 6.125 C7.241 5.344 6.356 4.563 5.445 3.758 C3.096 1.708 3.096 1.708 0 2 Z M29 38 C33 39 33 39 33 39 Z M27.5 46.312 C26.262 47.148 26.262 47.148 25 48 C26.874 49.952 28.223 50.982 30.977 51.047 C35.459 50.583 35.459 50.583 39 48 C33.378 45.146 33.378 45.146 27.5 46.312 Z M47 100 C46.759 100.539 46.518 101.078 46.269 101.633 C45.15 104.115 44.013 106.589 42.875 109.062 C42.496 109.91 42.117 110.758 41.727 111.631 C39.129 117.237 36.226 121.486 32 126 C32.33 126.66 32.66 127.32 33 128 C40.599 121.856 45.995 112.691 47.695 103.062 C47.796 102.052 47.896 101.041 48 100 C47.67 100 47.34 100 47 100 Z M28 132 C26.371 133.131 26.371 133.131 25 135 C24.39 143.984 26.931 153.321 29 162 C29.33 162 29.66 162 30 162 C30.924 152.649 31.516 143.331 30 134 C29.34 133.34 28.68 132.68 28 132 Z M-51.438 165.25 C-52.406 165.853 -53.374 166.457 -54.371 167.078 C-57.695 169.508 -59.54 171.585 -60.812 175.5 C-61.034 178.456 -60.58 179.524 -59 182 C-57.19 183.272 -57.19 183.272 -55 184.125 C-54.299 184.437 -53.597 184.749 -52.875 185.07 C-45.702 187.39 -38.312 188.258 -30.84 189.039 C-17.989 190.383 -7.688 192.791 4.02 198.25 C6.732 199.277 9.139 199.293 12 199 C11.417 195.062 9.757 192.828 7 190 C-3.095 183.426 -15.208 182.237 -26.875 180.875 C-28.978 180.623 -31.081 180.368 -33.184 180.11 C-35.075 179.88 -36.967 179.656 -38.859 179.433 C-41.319 179.094 -43.616 178.675 -46 178 C-45.24 172.427 -45.24 172.427 -43.875 170 C-42.618 167.128 -43.321 164.988 -44 162 C-47.06 162 -48.877 163.631 -51.438 165.25 Z M-14 167 C-14 167.33 -14 167.66 -14 168 C-12.02 168 -10.04 168 -8 168 C-8 167.67 -8 167.34 -8 167 C-9.98 167 -11.96 167 -14 167 Z M32 173 C32 176.204 32.743 178.094 34 181 C34.33 181 34.66 181 35 181 C35 178.36 35 175.72 35 173 C34.01 173 33.02 173 32 173 Z M45 175 C45 175.66 45 176.32 45 177 C45.66 177 46.32 177 47 177 C47 176.34 47 175.68 47 175 C46.34 175 45.68 175 45 175 Z " fill="#000000" transform="translate(138,21)"/>
<path d="M0 0 C2.67 3.293 3 4.681 3 9 C1.561 8.913 0.124 8.804 -1.312 8.688 C-2.113 8.629 -2.914 8.571 -3.738 8.512 C-6.401 7.909 -7.39 7.183 -9 5 C-8.812 2.375 -8.812 2.375 -8 0 C-5.004 -1.498 -3.168 -0.905 0 0 Z M-6 1 C-6.33 2.32 -6.66 3.64 -7 5 C-6.01 5 -5.02 5 -4 5 C-4 3.68 -4 2.36 -4 1 C-4.66 1 -5.32 1 -6 1 Z M-1 3 C-1.33 4.32 -1.66 5.64 -2 7 C-1.01 7 -0.02 7 1 7 C0.67 5.68 0.34 4.36 0 3 C-0.33 3 -0.66 3 -1 3 Z " fill="#000000" transform="translate(162,43)"/>
<path d="M0 0 C0.688 1.812 0.688 1.812 1 4 C-1.185 6.875 -3.208 7.532 -6.688 8.188 C-7.496 8.346 -8.304 8.505 -9.137 8.668 C-9.752 8.778 -10.366 8.887 -11 9 C-10.408 2.725 -10.408 2.725 -8.875 0 C-5.852 -1.612 -3.241 -0.673 0 0 Z M-3 1 C-2.67 2.32 -2.34 3.64 -2 5 C-2 3.68 -2 2.36 -2 1 C-2.33 1 -2.66 1 -3 1 Z M-8 2 C-8.33 2.99 -8.66 3.98 -9 5 C-8.01 5 -7.02 5 -6 5 C-6.66 4.01 -7.32 3.02 -8 2 Z " fill="#000000" transform="translate(185,43)"/>
<path d="" fill="#000000" transform="translate(0,0)"/>
</svg>
