<?xml version="1.0" encoding="UTF-8"?>
<!-- Generator: visioncortex VTracer 0.6.4 -->
<svg version="1.1" xmlns="http://www.w3.org/2000/svg" width="281" height="256">
<path d="M0 0 C0.495 0.495 0.495 0.495 1 1 C0.674 6.05 -0.086 10.435 -1.625 15.25 C-3.245 20.749 -2.759 25.34 -2.137 30.977 C-1.91 35.982 -3.553 39.536 -6.078 43.836 C-9.837 52.66 -6.419 63.553 -3.779 72.25 C-1.466 80.028 -1.658 86.421 -3.312 94.438 C-3.556 95.653 -3.8 96.869 -4.051 98.121 C-4.728 100.889 -5.46 103.303 -6.438 105.945 C-8.809 112.892 -9.66 120.197 -10.688 127.438 C-10.798 128.202 -10.909 128.966 -11.024 129.754 C-13.046 143.89 -13.619 157.714 -13 172 C-12.216 172.268 -11.433 172.536 -10.625 172.812 C-8 174 -8 174 -6 177 C-6.25 179.625 -6.25 179.625 -7 182 C-10.459 183.73 -14.431 183.405 -18.25 183.621 C-21.14 183.737 -21.14 183.737 -23 186 C-28.313 187.244 -33.699 187.272 -39 186 C-41.584 184.129 -42.707 181.885 -44 179 C-44.535 179.49 -45.07 179.98 -45.621 180.484 C-48.679 182.433 -50.446 182.335 -54.062 182.25 C-55.375 182.222 -56.687 182.193 -58.039 182.164 C-59.182 182.126 -59.182 182.126 -60.349 182.087 C-63.469 181.985 -66.59 181.912 -69.711 181.836 C-72.12 181.767 -74.529 181.697 -76.938 181.625 C-78.679 181.579 -78.679 181.579 -80.455 181.532 C-86.554 181.319 -92.218 181.046 -98 179 C-98.33 178.01 -98.66 177.02 -99 176 C-101.97 177.65 -104.94 179.3 -108 181 C-108 181.99 -108 182.98 -108 184 C-102.618 186.184 -97.734 187.574 -91.984 188.281 C-91.247 188.381 -90.51 188.48 -89.751 188.583 C-87.418 188.898 -85.084 189.2 -82.75 189.5 C-54.196 193.203 -54.196 193.203 -47 199 C-47.375 200.938 -47.375 200.938 -48 203 C-54.659 206.33 -65.167 203.521 -72.25 202.625 C-79.85 201.696 -87.437 200.842 -95.07 200.227 C-117.99 198.374 -117.99 198.374 -123.188 193.438 C-126.223 189.355 -126.61 186.004 -126 181 C-123.292 173.983 -118.24 170.884 -112 167 C-111.112 166.438 -110.224 165.876 -109.309 165.297 C-107 164 -107 164 -105 164 C-105.033 163.04 -105.033 163.04 -105.067 162.061 C-105.426 146.966 -103.717 133.706 -99.375 119.312 C-99.167 118.615 -98.96 117.918 -98.746 117.2 C-96.393 109.399 -93.639 101.827 -90.402 94.348 C-90.121 93.697 -89.84 93.046 -89.551 92.375 C-84.043 80.028 -74.671 70.064 -63.812 62.188 C-57.92 57.49 -54.094 52.292 -52 45 C-51.447 36.15 -53.371 27.989 -57 20 C-58.603 14.718 -59.452 9.534 -59 4 C-58.34 3.34 -57.68 2.68 -57 2 C-51.818 2.215 -48.864 4.282 -44.688 7.188 C-37.783 11.471 -32.039 11.92 -24.145 10.32 C-18.451 8.765 -14.119 5.62 -9.539 1.996 C-6.081 -0.722 -4.121 -1.374 0 0 Z M-6.438 3.25 C-7.283 4.157 -8.129 5.065 -9 6 C-9.763 6.66 -10.526 7.32 -11.312 8 C-13.223 9.906 -13.223 9.906 -13.375 12.625 C-13.21 15.182 -13.21 15.182 -11 17 C-7.917 17.167 -7.917 17.167 -5 17 C-1.671 10.258 -1.671 10.258 0 3 C-0.33 2.34 -0.66 1.68 -1 1 C-4.185 0.661 -4.185 0.661 -6.438 3.25 Z M-55 4 C-51.73 6.506 -48.357 8.828 -44.938 11.125 C-43.895 11.829 -42.852 12.533 -41.777 13.258 C-39.072 15.107 -39.072 15.107 -36 16 C-36 16.66 -36 17.32 -36 18 C-37.65 16.68 -39.3 15.36 -41 14 C-41.66 14.33 -42.32 14.66 -43 15 C-43.093 16.609 -43.093 16.609 -43.188 18.25 C-44 22 -44 22 -45.582 23.223 C-46.215 23.582 -46.848 23.942 -47.5 24.312 C-49.909 25.82 -50.837 26.535 -51.789 29.25 C-52.581 35.29 -51.496 39.508 -49 45 C-49 45.33 -49 45.66 -49 46 C-49.895 46.853 -49.895 46.853 -50.809 47.723 C-58.259 55.465 -61.851 67.818 -62.07 78.383 C-62.047 79.246 -62.024 80.11 -62 81 C-62.66 81 -63.32 81 -64 81 C-63.867 80.371 -63.734 79.742 -63.598 79.094 C-62.493 73.737 -61.604 68.436 -61 63 C-82.73 75.233 -91.013 97.364 -97.875 119.875 C-98.125 120.681 -98.376 121.486 -98.634 122.317 C-101.829 132.723 -103.644 141.711 -102.75 152.688 C-102.031 161.648 -102.031 161.648 -104.343 164.875 C-107.884 168.112 -111.844 170.097 -116.187 172.046 C-119.836 173.966 -122.337 176.855 -124.375 180.375 C-125.244 184.025 -125.033 186.385 -124 190 C-117.876 196.561 -110.382 197.259 -101.812 198.035 C-100.52 198.161 -100.52 198.161 -99.202 198.288 C-96.469 198.553 -93.734 198.808 -91 199.062 C-88.266 199.322 -85.532 199.584 -82.798 199.847 C-81.103 200.01 -79.408 200.17 -77.712 200.328 C-74.181 200.662 -70.686 201.045 -67.174 201.55 C-63.437 202.08 -59.834 202.096 -56.062 202.062 C-55.379 202.058 -54.695 202.053 -53.99 202.049 C-52.327 202.037 -50.663 202.019 -49 202 C-49.087 200.041 -49.087 200.041 -50 198 C-59.699 192.992 -72.212 192.413 -82.875 190.938 C-86.332 190.458 -89.788 189.965 -93.242 189.465 C-94.018 189.362 -94.795 189.258 -95.594 189.152 C-100.498 188.441 -104.633 187.402 -109 185 C-109.33 183.68 -109.66 182.36 -110 181 C-106.37 178.36 -102.74 175.72 -99 173 C-98.34 174.32 -97.68 175.64 -97 177 C-94.247 178.816 -91.951 179.273 -88.69 179.411 C-87.85 179.451 -87.009 179.49 -86.143 179.532 C-85.245 179.565 -84.347 179.598 -83.422 179.633 C-82.032 179.695 -82.032 179.695 -80.614 179.759 C-77.66 179.889 -74.705 180.007 -71.75 180.125 C-69.745 180.211 -67.74 180.299 -65.734 180.387 C-60.823 180.601 -55.912 180.803 -51 181 C-51.495 178.525 -51.495 178.525 -52 176 C-50.515 177.98 -50.515 177.98 -49 180 C-48.01 179.67 -47.02 179.34 -46 179 C-46.288 177.656 -46.632 176.324 -47 175 C-47.186 174.278 -47.371 173.556 -47.562 172.812 C-48.985 170.607 -48.985 170.607 -52.465 170.391 C-57.311 169.884 -62.133 169.889 -67 169.938 C-67.87 169.942 -68.74 169.947 -69.637 169.951 C-71.758 169.963 -73.879 169.981 -76 170 C-73.079 169.994 -70.169 169.947 -67.25 169.875 C-66.425 169.878 -65.6 169.88 -64.75 169.883 C-62.363 169.806 -60.299 169.654 -58 169 C-53.233 163.685 -52.7 158.645 -52.781 151.793 C-53.451 143.247 -55.973 135.709 -62.375 129.812 C-66.677 126.842 -69.702 125 -75 125 C-75 124.34 -75 123.68 -75 123 C-67.21 125.664 -60.638 128.258 -56.496 135.703 C-51.902 145.912 -51.243 154.235 -54 165 C-54.33 166.32 -54.66 167.64 -55 169 C-49.555 169.99 -49.555 169.99 -44 171 C-44.324 160.431 -47.559 151.184 -50.875 141.25 C-60 113.794 -60 113.794 -60 103 C-59.876 103.926 -59.752 104.851 -59.625 105.805 C-57.14 122.55 -51.575 138.523 -46.125 154.5 C-43.393 162.594 -41.891 170.354 -41.344 178.871 C-41.104 181.294 -41.104 181.294 -39 184 C-36.503 184.886 -34.679 185 -32 185 C-30.68 185 -29.36 185 -28 185 C-27.67 183.35 -27.34 181.7 -27 180 C-26.67 181.32 -26.34 182.64 -26 184 C-25.01 183.67 -24.02 183.34 -23 183 C-23.353 179.821 -23.582 178.379 -26 176.188 C-28.376 173.589 -28.314 171.951 -28.665 168.553 C-29.539 161.896 -31.273 155.34 -32.74 148.793 C-35.224 137.49 -37.406 126.237 -37.125 114.625 C-37.116 113.877 -37.107 113.13 -37.098 112.359 C-37.075 110.573 -37.039 108.786 -37 107 C-36.975 107.58 -36.95 108.159 -36.924 108.757 C-36.808 111.4 -36.685 114.044 -36.562 116.688 C-36.523 117.6 -36.484 118.512 -36.443 119.451 C-36.401 120.337 -36.36 121.224 -36.316 122.137 C-36.28 122.948 -36.243 123.76 -36.205 124.596 C-35.99 127.121 -35.541 129.526 -35 132 C-28.617 129.945 -26.176 125.676 -23 120 C-19.343 111.505 -16 102.333 -16 93 C-15.34 93 -14.68 93 -14 93 C-14.978 106.133 -16.56 118.309 -25 129 C-25.99 129.66 -26.98 130.32 -28 131 C-28.797 135.405 -28.005 140.185 -27.504 144.605 C-27.124 148.281 -26.909 151.919 -26.824 155.613 C-26.788 157.02 -26.788 157.02 -26.752 158.455 C-26.709 160.379 -26.678 162.304 -26.658 164.229 C-26.492 169.808 -26.153 172.903 -22 177 C-21.25 179.313 -21.25 179.313 -21 181 C-19.35 181.33 -17.7 181.66 -16 182 C-15.67 181.34 -15.34 180.68 -15 180 C-14.67 180.33 -14.34 180.66 -14 181 C-13.34 181 -12.68 181 -12 181 C-12 179.35 -12 177.7 -12 176 C-11.34 176 -10.68 176 -10 176 C-10 177.65 -10 179.3 -10 181 C-9.34 180.67 -8.68 180.34 -8 180 C-8.106 177.548 -8.106 177.548 -9 175 C-10.652 174.298 -12.319 173.63 -14 173 C-21.445 153.53 -12.465 118.447 -6.051 99.223 C-2.399 88.022 -3.415 77.24 -7.027 66.156 C-9.791 57.188 -10.167 49.494 -6 41 C-3.007 33.911 -3.435 26.434 -5 19 C-9.455 18.01 -9.455 18.01 -14 17 C-14.125 10.375 -14.125 10.375 -13 7 C-10.938 5.812 -10.938 5.812 -9 5 C-11.956 4.672 -11.956 4.672 -13.508 6.312 C-14.041 6.869 -14.575 7.426 -15.125 8 C-17.956 10.546 -19.557 11.384 -23.375 11.25 C-24.141 11.183 -24.906 11.116 -25.695 11.047 C-28.257 10.995 -29.866 11.609 -32.25 12.5 C-35.775 13.425 -36.927 13.036 -40.281 11.387 C-42.59 9.98 -44.767 8.474 -46.984 6.918 C-49.828 5.109 -51.694 4.373 -55 4 Z M-58 5 C-57.485 9.529 -56.638 13.93 -55.625 18.375 C-55.273 19.933 -55.273 19.933 -54.914 21.523 C-54.462 22.749 -54.462 22.749 -54 24 C-53.01 24.33 -52.02 24.66 -51 25 C-50.67 24.34 -50.34 23.68 -50 23 C-48.021 22.273 -46.02 21.602 -44 21 C-43.328 17.798 -43.328 17.798 -44 14 C-47.718 9.376 -52.176 6.31 -58 5 Z M-17 105 C-16 108 -16 108 -16 108 Z M-18 109 C-17 112 -17 112 -17 112 Z M-19 112 C-18 115 -18 115 -18 115 Z M-20 115 C-20.398 115.748 -20.797 116.495 -21.207 117.266 C-22.002 118.743 -22.002 118.743 -22.812 120.25 C-23.596 121.712 -23.596 121.712 -24.395 123.203 C-25.79 125.634 -27.262 127.808 -29 130 C-25.176 128.525 -23.75 126.547 -21.688 123.062 C-21.155 122.187 -20.623 121.312 -20.074 120.41 C-18.646 117.936 -18.646 117.936 -20 115 Z M-33 133 C-34.267 134.037 -34.267 134.037 -34.055 136.309 C-33.479 146.33 -30.909 155.435 -28 165 C-26.927 161.608 -27.015 158.776 -27.305 155.246 C-27.394 154.145 -27.483 153.043 -27.574 151.908 C-27.673 150.763 -27.773 149.618 -27.875 148.438 C-27.967 147.288 -28.058 146.139 -28.152 144.955 C-28.588 138.884 -28.588 138.884 -30 133 C-30.99 133 -31.98 133 -33 133 Z M-48 171 C-46.645 173.537 -46.645 173.537 -45 176 C-44.34 176 -43.68 176 -43 176 C-43.33 174.68 -43.66 173.36 -44 172 C-45.32 171.67 -46.64 171.34 -48 171 Z " fill="#000000" transform="translate(196,31)"/>
<path d="M0 0 C0.33 1.65 0.66 3.3 1 5 C-3.286 8.919 -3.286 8.919 -6.75 9.312 C-9 9 -9 9 -10 8 C-10.312 5.125 -10.312 5.125 -10 2 C-6.927 -1.664 -4.389 -1.097 0 0 Z M-4 1 C-3.67 2.32 -3.34 3.64 -3 5 C-2.34 5 -1.68 5 -1 5 C-1.33 3.68 -1.66 2.36 -2 1 C-2.66 1 -3.32 1 -4 1 Z M-8 3 C-8 4.32 -8 5.64 -8 7 C-7.34 7 -6.68 7 -6 7 C-6 5.68 -6 4.36 -6 3 C-6.66 3 -7.32 3 -8 3 Z " fill="#000000" transform="translate(187,53)"/>
<path d="M0 0 C1.812 1.125 1.812 1.125 3 3 C3.688 6.188 3.688 6.188 4 9 C-3.161 10.194 -3.161 10.194 -6.438 9.438 C-8.783 7.28 -8.732 5.078 -9 2 C-5.531 -0.313 -4.078 -0.425 0 0 Z M-6 2 C-6.33 3.32 -6.66 4.64 -7 6 C-5.515 6.99 -5.515 6.99 -4 8 C-4 6.02 -4 4.04 -4 2 C-4.66 2 -5.32 2 -6 2 Z M-2 2 C-2 3.65 -2 5.3 -2 7 C-1.01 6.67 -0.02 6.34 1 6 C0.34 4.68 -0.32 3.36 -1 2 C-1.33 2 -1.66 2 -2 2 Z " fill="#000000" transform="translate(163,54)"/>
<path d="M0 0 C0.536 0.186 1.072 0.371 1.625 0.562 C4.62 1.114 7.037 0.606 10 0 C10 1.32 10 2.64 10 4 C9.34 4.66 8.68 5.32 8 6 C8 6.99 8 7.98 8 9 C10.31 9.33 12.62 9.66 15 10 C15 8.68 15 7.36 15 6 C15.66 6 16.32 6 17 6 C16.71 9.384 16.001 10.999 13.938 13.75 C10.382 16.473 7.415 17.452 3 17 C0.143 15.949 -2.416 14.602 -5 13 C-5 12.34 -5 11.68 -5 11 C-4.093 11.021 -3.185 11.041 -2.25 11.062 C0.427 11.011 2.47 10.778 5 10 C3.794 6.567 2.615 4.496 0 2 C0 1.34 0 0.68 0 0 Z M7 1 C6.34 1.66 5.68 2.32 5 3 C6.32 3 7.64 3 9 3 C9 2.34 9 1.68 9 1 C8.34 1 7.68 1 7 1 Z M3.125 11.25 C2.424 11.828 1.722 12.405 1 13 C1 13.66 1 14.32 1 15 C6.361 15.537 6.361 15.537 11 13.5 C11.33 13.005 11.66 12.51 12 12 C7.613 10.02 7.613 10.02 3.125 11.25 Z " fill="#000000" transform="translate(167,66)"/>
<path d="" fill="#000000" transform="translate(0,0)"/>
</svg>
