<?xml version="1.0" encoding="UTF-8"?>
<!-- Generator: visioncortex VTracer 0.6.4 -->
<svg version="1.1" xmlns="http://www.w3.org/2000/svg" width="281" height="256">
<path d="M0 0 C0.66 0.33 1.32 0.66 2 1 C2.379 3.145 2.379 3.145 2.562 5.812 C2.832 10.496 2.832 10.496 4 15 C4.99 15.33 5.98 15.66 7 16 C6.34 16.33 5.68 16.66 5 17 C4.766 21.79 4.766 21.79 7 26 C7 26.99 7 27.98 7 29 C8.32 28.435 9.631 27.847 10.938 27.25 C12.034 26.763 12.034 26.763 13.152 26.266 C15.188 25.138 15.188 25.138 15.754 22.859 C15.835 22.246 15.916 21.632 16 21 C15.01 21 14.02 21 13 21 C12.67 21.66 12.34 22.32 12 23 C11.34 23 10.68 23 10 23 C10 21.35 10 19.7 10 18 C12.31 18 14.62 18 17 18 C15.097 10.563 10.037 6.934 4.355 2.234 C3.908 1.827 3.461 1.42 3 1 C3 0.67 3 0.34 3 0 C8.706 0.415 11.74 1.819 16.188 5.375 C17.694 6.562 17.694 6.562 19.23 7.773 C20.842 9.069 22.433 10.393 23.965 11.781 C26.843 13.505 29.053 13.257 32.375 13.125 C38.642 12.905 38.642 12.905 41.973 13.789 C46.371 14.096 48.775 11.857 52.062 9.25 C53.261 8.337 54.46 7.425 55.66 6.516 C56.229 6.082 56.798 5.648 57.385 5.2 C61.785 1.93 64.451 0.613 70 1 C71.537 6.893 70.361 10.038 67.906 15.52 C66.996 18.012 66.857 19.516 67.062 22.125 C66.983 27.072 65.249 30.298 62 34 C61.34 34 60.68 34 60 34 C59.899 34.727 59.799 35.454 59.695 36.203 C58.923 39.311 57.708 41.142 55.875 43.75 C53.323 47.944 52.121 50.748 53.035 55.625 C54.736 59.811 57.478 63.207 60.285 66.715 C62 69 62 69 62 71 C62.861 71.257 63.722 71.513 64.609 71.777 C84.875 79.085 99.043 97.142 108 116 C118.188 139.403 118.188 139.403 118.035 149.57 C117.678 165.031 117.678 165.031 125.172 177.855 C127.676 180.793 128.218 183.199 128.293 187.004 C127.676 191.209 125.592 193.536 122.547 196.336 C111.573 204.492 94.638 204.698 81.618 205.874 C69.919 206.637 69.919 206.637 60 212 C60.246 216.259 60.246 216.259 62.625 219.625 C63.079 220.079 63.532 220.532 64 221 C63.688 223.187 63.688 223.187 63 225 C57.17 224.428 53.489 223.317 49.188 219.312 C47.405 215.84 47.174 212.747 48 209 C50.945 203.075 55.692 201.004 61.68 198.933 C68.678 196.967 75.913 196.182 83.103 195.218 C98.519 193.24 98.519 193.24 112 186 C111.67 185.67 111.34 185.34 111 185 C110.3 185.318 109.599 185.637 108.878 185.965 C105.785 187.077 103.233 187.372 99.957 187.562 C98.8 187.637 97.643 187.712 96.451 187.789 C94.65 187.893 94.65 187.893 92.812 188 C85.422 188.435 78.332 189.02 71.097 190.612 C68.426 191.106 66.057 191.008 63.375 190.625 C62.537 190.514 61.699 190.403 60.836 190.289 C60.23 190.194 59.624 190.098 59 190 C58.505 187.525 58.505 187.525 58 185 C56.68 184.67 55.36 184.34 54 184 C54.188 181.688 54.188 181.688 55 179 C57.562 177.188 57.562 177.188 60 176 C58.35 174.02 56.7 172.04 55 170 C52.638 174.228 51.429 178.877 50.119 183.512 C48.692 188.11 47.243 190.647 43 193 C39.449 193.391 39.449 193.391 35.688 193.25 C34.433 193.214 33.179 193.178 31.887 193.141 C30.934 193.094 29.981 193.048 29 193 C28.505 192.01 28.505 192.01 28 191 C26.112 190.315 26.112 190.315 23.938 189.875 C22.837 189.624 22.837 189.624 21.715 189.367 C21.149 189.246 20.583 189.125 20 189 C19.25 186.75 19.25 186.75 19 184 C21.367 180.844 23.224 179.795 27 179 C27.28 153.967 21.801 129.665 12.582 106.426 C6.486 90.63 9.336 75.166 14.133 59.238 C15.794 53.034 15.107 49.512 12 43.938 C9.835 40.043 8.605 37.49 9 33 C18.81 47.715 18.81 47.715 18.188 54.312 C17.843 55.887 17.437 57.448 17 59 C16.349 61.707 15.703 64.415 15.062 67.125 C14.887 67.859 14.711 68.593 14.53 69.35 C10.518 86.283 11.547 98.174 18.156 114.198 C21.109 121.673 23.023 129.383 24.875 137.188 C25.173 138.441 25.471 139.695 25.778 140.986 C27.489 148.368 29.027 155.607 29.246 163.207 C29.279 164.123 29.312 165.039 29.346 165.982 C29.408 167.889 29.465 169.795 29.518 171.701 C29.552 172.611 29.586 173.52 29.621 174.457 C29.646 175.282 29.671 176.107 29.697 176.956 C29.826 179.223 29.826 179.223 32 181 C31.361 181.433 30.721 181.866 30.062 182.312 C27.733 183.912 27.733 183.912 27 187 C30.293 185.913 32.568 184.483 35 182 C38.949 173.212 39.414 163.374 39.938 153.875 C39.995 152.892 40.053 151.908 40.113 150.895 C40.356 144.127 39.538 139.968 35.02 134.684 C34.291 133.942 33.563 133.201 32.812 132.438 C26.252 125.351 20.778 117.325 18 108 C21.362 111.042 23.271 114.724 25.5 118.625 C26.842 120.749 28.147 122.323 30 124 C29.483 123.013 28.966 122.025 28.434 121.008 C27.768 119.714 27.102 118.419 26.438 117.125 C26.095 116.474 25.753 115.823 25.4 115.152 C24.539 113.465 23.763 111.734 23 110 C23.33 109.34 23.66 108.68 24 108 C24.423 108.816 24.423 108.816 24.854 109.649 C26.149 112.143 27.45 114.634 28.75 117.125 C29.193 117.981 29.637 118.837 30.094 119.719 C33.67 126.555 36.808 132.217 43 137 C42.591 135.888 42.591 135.888 42.174 134.753 C40.944 131.399 39.722 128.044 38.5 124.688 C38.071 123.52 37.641 122.353 37.199 121.15 C36.793 120.032 36.387 118.914 35.969 117.762 C35.592 116.73 35.215 115.698 34.826 114.635 C34 112 34 112 34 109 C34.66 109 35.32 109 36 109 C36.202 109.615 36.403 110.23 36.611 110.864 C37.529 113.661 38.452 116.455 39.375 119.25 C39.692 120.218 40.009 121.186 40.336 122.184 C40.645 123.118 40.955 124.053 41.273 125.016 C41.556 125.874 41.839 126.733 42.13 127.618 C42.949 130.002 42.949 130.002 44.089 132.165 C48.152 140.351 44.024 153.79 42.458 162.442 C42.147 164.18 41.849 165.921 41.562 167.664 C41.131 170.281 40.664 172.89 40.188 175.5 C40.059 176.307 39.93 177.114 39.798 177.946 C39.373 180.127 38.959 181.994 38 184 C34.926 185.844 34.926 185.844 32 187 C31.67 187.99 31.34 188.98 31 190 C31.66 190 32.32 190 33 190 C33.33 189.34 33.66 188.68 34 188 C34.66 188.33 35.32 188.66 36 189 C36 189.66 36 190.32 36 191 C39.32 190.908 41.992 190.44 45 189 C46.307 186.873 46.307 186.873 47.047 184.223 C47.37 183.23 47.693 182.238 48.026 181.216 C48.348 180.155 48.669 179.093 49 178 C49.329 176.947 49.658 175.894 49.997 174.809 C52.107 167.947 54.087 161.045 56.081 154.148 C56.857 151.488 57.659 148.839 58.477 146.191 C60.488 139.507 61.711 134.643 59 128 C59.66 128 60.32 128 61 128 C61.99 129.98 61.99 129.98 63 132 C62.858 130.271 62.711 128.541 62.562 126.812 C62.481 125.85 62.4 124.887 62.316 123.895 C62.06 121.066 62.06 121.066 61.469 118.594 C60.866 115.26 60.906 112.072 60.938 108.688 C60.947 107.433 60.956 106.179 60.965 104.887 C60.976 103.934 60.988 102.981 61 102 C61.66 102 62.32 102 63 102 C63.99 110.91 63.99 110.91 65 120 C65.33 116.7 65.66 113.4 66 110 C66.66 110.33 67.32 110.66 68 111 C67.939 111.555 67.879 112.109 67.816 112.681 C67.542 115.204 67.271 117.727 67 120.25 C66.905 121.123 66.809 121.995 66.711 122.895 C66.621 123.739 66.53 124.583 66.438 125.453 C66.354 126.228 66.27 127.003 66.184 127.802 C66.012 129.862 66 131.933 66 134 C68.475 125.585 68.475 125.585 71 117 C71.66 117.33 72.32 117.66 73 118 C68.347 136.533 68.347 136.533 64.199 142.277 C60.783 147.185 58.395 153.032 58 159 C61.018 166.067 65.94 171.424 72 176 C71.67 175.01 71.34 174.02 71 173 C70.652 171.336 70.316 169.67 70 168 C71.954 169.768 73.201 171.338 74.562 173.625 C75.779 176.112 75.779 176.112 78 177 C80.481 177.158 82.954 177.277 85.438 177.375 C92.277 177.708 98.482 178.804 105 181 C105 181.99 105 182.98 105 184 C106.65 184 108.3 184 110 184 C110.103 183.237 110.206 182.474 110.312 181.688 C111 179 111 179 112.469 177.598 C116.814 173.064 116.159 164.547 116.25 158.688 C116.194 156.124 116.112 153.561 116 151 C115.966 150.007 115.933 149.015 115.898 147.992 C113.873 126.288 99.879 100.743 84 86 C78.16 81.346 71.662 77.826 65 74.5 C60.02 71.825 57.803 67.755 55 63 C54.057 61.635 53.1 60.28 52.125 58.938 C51.424 57.968 50.722 56.999 50 56 C49.539 56.568 49.077 57.137 48.602 57.723 C43.651 63.584 38.443 67.869 32 72 C31.01 72.66 30.02 73.32 29 74 C29.768 68.819 33.008 65.773 37.016 62.648 C39.181 61.126 41.348 59.605 43.516 58.086 C44.745 57.053 44.745 57.053 46 56 C46 55.01 46 54.02 46 53 C46.99 52.34 47.98 51.68 49 51 C49.144 50.072 49.289 49.144 49.438 48.188 C50.097 44.448 51.475 42.769 54 40 C54.33 40.33 54.66 40.66 55 41 C56.32 38.36 57.64 35.72 59 33 C57.933 32.625 57.933 32.625 56.844 32.242 C53.702 30.87 51.248 29.171 48.5 27.125 C47.582 26.447 46.664 25.769 45.719 25.07 C43.113 23.086 40.548 21.059 38 19 C37.34 19.99 36.68 20.98 36 22 C35.505 22.495 35.505 22.495 35 23 C35 23.66 35 24.32 35 25 C34.34 25 33.68 25 33 25 C32.505 26.485 32.505 26.485 32 28 C31.505 24.04 31.505 24.04 31 20 C30.01 20 29.02 20 28 20 C27.01 20 26.02 20 25 20 C24.791 20.768 24.582 21.537 24.367 22.328 C22.545 25.888 20.819 26.359 17.125 27.75 C16.076 28.157 15.026 28.565 13.945 28.984 C11.632 29.782 9.385 30.47 7 31 C3.417 26.147 1.528 22.346 1.184 16.301 C0.988 13.85 0.479 11.631 -0.125 9.25 C-0.933 5.856 -1.095 3.396 0 0 Z M62.062 6.812 C60.75 7.874 60.75 7.874 59.41 8.957 C55.501 12.271 53.703 13.796 53 19 C54.98 19.66 56.96 20.32 59 21 C58.25 25.75 58.25 25.75 56 28 C57.295 30.06 57.295 30.06 59 32 C59.99 32 60.98 32 62 32 C64.801 27.372 65.315 23.639 65.684 18.387 C66.104 15.215 67.554 12.83 69 10 C69.251 6.249 69.251 6.249 69 3 C65.893 3 64.43 4.883 62.062 6.812 Z M14 7 C14.639 7.866 15.279 8.732 15.938 9.625 C18.55 13.899 19.315 16.927 18.562 21.875 C18.377 22.576 18.191 23.277 18 24 C22.662 22.502 23.866 19.115 26 15 C24.38 13.661 22.754 12.329 21.125 11 C20.22 10.258 19.315 9.515 18.383 8.75 C16.224 6.803 16.224 6.803 14 7 Z M57 7 C56.67 7.66 56.34 8.32 56 9 C56.99 8.67 57.98 8.34 59 8 C58.34 7.67 57.68 7.34 57 7 Z M48.875 13.5 C48.151 14.15 47.426 14.799 46.68 15.469 C46.125 15.974 45.571 16.479 45 17 C46.785 22.235 46.785 22.235 50.688 25.938 C51.832 26.463 51.832 26.463 53 27 C52.588 26.196 52.175 25.391 51.75 24.562 C50.792 20.011 51.988 17.977 54.055 13.953 C55.145 12.062 55.145 12.062 55 10 C52.056 10 51.024 11.559 48.875 13.5 Z M33 15 C33 16.65 33 18.3 33 20 C33.33 20 33.66 20 34 20 C34 18.35 34 16.7 34 15 C33.67 15 33.34 15 33 15 Z M27 16 C28 18 28 18 28 18 Z M40 16 C40.33 16.99 40.66 17.98 41 19 C41.33 18.01 41.66 17.02 42 16 C41.34 16 40.68 16 40 16 Z M42 17 C42 17.99 42 18.98 42 20 C42.99 20.33 43.98 20.66 45 21 C44.67 19.68 44.34 18.36 44 17 C43.34 17 42.68 17 42 17 Z M54 21 C54.66 22.65 55.32 24.3 56 26 C56.66 25.67 57.32 25.34 58 25 C57.67 23.68 57.34 22.36 57 21 C56.01 21 55.02 21 54 21 Z M53 43 C54 45 54 45 54 45 Z M40 138 C40.66 139.32 41.32 140.64 42 142 C42 141.01 42 140.02 42 139 C41.34 138.67 40.68 138.34 40 138 Z M42 145 C41.67 148.63 41.34 152.26 41 156 C41.33 156 41.66 156 42 156 C42.33 152.37 42.66 148.74 43 145 C42.67 145 42.34 145 42 145 Z M56 161 C55.67 161.33 55.34 161.66 55 162 C55.112 167.601 56.669 170.592 60.379 174.551 C62.469 176.419 64.255 177.407 67 178 C67.99 177.67 68.98 177.34 70 177 C69.299 176.34 68.597 175.68 67.875 175 C65.052 172.193 62.752 169.093 60.43 165.867 C59.066 164.086 57.623 162.546 56 161 Z M117 172 C113.536 178.697 113.536 178.697 114 186 C110.961 190.776 105.176 192.417 100 194 C93.079 195.468 86.019 196.317 79.013 197.279 C63.182 199.206 63.182 199.206 50.312 207.938 C48.711 211.673 48.545 213.201 50 217 C53.749 220.923 56.575 222.612 62 223 C60.796 220.506 59.546 218.319 58 216 C58 213.562 58 213.562 59 211 C63.237 207.672 66.786 206.296 72.062 205.375 C72.742 205.255 73.421 205.135 74.12 205.012 C79.97 204.037 85.845 203.508 91.75 203 C103.298 202.001 115.536 200.817 124.5 192.75 C126.478 189.124 126.792 185.992 126 182 C124.288 178.724 124.288 178.724 122 176 C121.464 175.216 120.928 174.433 120.375 173.625 C119.921 173.089 119.468 172.553 119 172 C118.34 172 117.68 172 117 172 Z M56.188 181 C55.796 181.66 55.404 182.32 55 183 C55.99 183 56.98 183 58 183 C58.33 182.34 58.66 181.68 59 181 C61.062 179.875 61.062 179.875 63 179 C59.088 178.536 59.088 178.536 56.188 181 Z M81 179 C85.395 181.93 89.876 182.31 95 181.562 C95.99 181.284 95.99 181.284 97 181 C97 180.67 97 180.34 97 180 C91.639 178.871 86.447 178.903 81 179 Z M69.375 179.688 C68.248 179.856 67.122 180.025 65.961 180.199 C62.959 181.011 61.701 181.425 60 184 C60 185.32 60 186.64 60 188 C60.66 188 61.32 188 62 188 C62.33 187.67 62.66 187.34 63 187 C63 187.66 63 188.32 63 189 C67.406 189.205 71.401 188.812 75.75 188.062 C84.451 186.628 93.202 186.353 102 186 C102 185.67 102 185.34 102 185 C101.085 184.834 101.085 184.834 100.152 184.665 C97.371 184.157 94.592 183.641 91.812 183.125 C90.373 182.864 90.373 182.864 88.904 182.598 C87.973 182.424 87.042 182.25 86.082 182.07 C85.228 181.913 84.375 181.756 83.495 181.594 C81 181 81 181 78.384 179.925 C75.125 178.661 72.799 179.133 69.375 179.688 Z M24 181 C23.34 182.32 22.68 183.64 22 185 C22.66 185 23.32 185 24 185 C24.33 185.99 24.66 186.98 25 188 C25.99 185.69 26.98 183.38 28 181 C26.68 181 25.36 181 24 181 Z M92 182 C92 182.33 92 182.66 92 183 C95.3 183 98.6 183 102 183 C97.645 180.822 96.534 180.97 92 182 Z " fill="#000000" transform="translate(85,0)"/>
<path d="" fill="#000000" transform="translate(0,0)"/>
<path d="M0 0 C2 3 2 3 2 7 C1.01 6.67 0.02 6.34 -1 6 C-0.67 4.02 -0.34 2.04 0 0 Z " fill="#000000" transform="translate(123,20)"/>
<path d="M0 0 C0.99 0.66 1.98 1.32 3 2 C1.35 2.33 -0.3 2.66 -2 3 C-1.34 2.01 -0.68 1.02 0 0 Z " fill="#000000" transform="translate(110,21)"/>
<path d="" fill="#000000" transform="translate(0,0)"/>
<path d="M0 0 C3.622 3.997 3.674 8.84 4 14 C4.99 13.67 5.98 13.34 7 13 C9.009 13.276 11.012 13.602 13 14 C11.625 16.5 11.625 16.5 10 19 C9.34 19 8.68 19 8 19 C8.66 20.32 9.32 21.64 10 23 C12.917 23.167 12.917 23.167 16 23 C16.66 22.34 17.32 21.68 18 21 C17.8 18.54 17.8 18.54 17.125 15.875 C16.921 14.965 16.718 14.055 16.508 13.117 C16.34 12.419 16.173 11.72 16 11 C16.66 11 17.32 11 18 11 C21.335 18.851 21.335 18.851 20.125 23 C17.149 25.801 15.038 25.93 11 26 C9.333 25.333 7.667 24.667 6 24 C2.275 24.305 2.275 24.305 -1 25 C-1 25.66 -1 26.32 -1 27 C2.311 28.001 5.301 28.104 8.75 28.062 C9.735 28.053 10.72 28.044 11.734 28.035 C12.482 28.024 13.23 28.012 14 28 C11.129 30.871 9.011 30.803 5 31 C-1.131 29.279 -4.555 26.168 -8 21 C-9.605 18.091 -11.099 15.206 -12 12 C-11.67 11.01 -11.34 10.02 -11 9 C-10.01 11.31 -9.02 13.62 -8 16 C-7.01 15.01 -6.02 14.02 -5 13 C-3.393 16.215 -3.943 19.436 -4 23 C0.79 23.234 0.79 23.234 5 21 C3.78 18.309 3.78 18.309 2 16 C1.768 14.485 1.588 12.962 1.438 11.438 C1.354 10.611 1.27 9.785 1.184 8.934 C1.123 8.296 1.062 7.657 1 7 C-0.093 7.227 -1.186 7.454 -2.312 7.688 C-6 8 -6 8 -8 6.875 C-9 5 -9 5 -8.812 2.375 C-7.244 -2.211 -4.057 -1.159 0 0 Z M-6 3 C-6 3.99 -6 4.98 -6 6 C-4.68 6.33 -3.36 6.66 -2 7 C-2 5.68 -2 4.36 -2 3 C-2.33 3.66 -2.66 4.32 -3 5 C-3.66 5 -4.32 5 -5 5 C-5.33 4.34 -5.66 3.68 -6 3 Z M5 15 C5.33 15.66 5.66 16.32 6 17 C7.32 17 8.64 17 10 17 C10 16.34 10 15.68 10 15 C8.35 15 6.7 15 5 15 Z " fill="#000000" transform="translate(112,29)"/>
<path d="M0 0 C0.66 0.66 1.32 1.32 2 2 C1.826 4.698 1.228 5.772 -0.688 7.688 C-3.451 9.256 -5.862 9.643 -9 10 C-9.361 3.622 -9.361 3.622 -7.875 1.062 C-5.151 -0.481 -3.071 -0.327 0 0 Z M-2 2 C-1 4 -1 4 -1 4 Z M-7 4 C-7 4.99 -7 5.98 -7 7 C-5.35 7 -3.7 7 -2 7 C-2.639 6.876 -3.279 6.752 -3.938 6.625 C-4.618 6.419 -5.299 6.212 -6 6 C-6.33 5.34 -6.66 4.68 -7 4 Z " fill="#000000" transform="translate(135,30)"/>
<path d="" fill="#000000" transform="translate(0,0)"/>
<path d="" fill="#000000" transform="translate(0,0)"/>
<path d="" fill="#000000" transform="translate(0,0)"/>
<path d="M0 0 C2 1 2 1 2 1 Z " fill="#000000" transform="translate(128,55)"/>
<path d="M0 0 C2 1 2 1 2 1 Z " fill="#000000" transform="translate(126,56)"/>
<path d="M0 0 C0.66 0.33 1.32 0.66 2 1 C1.407 2.941 0.8 4.878 0.188 6.812 C-0.149 7.891 -0.485 8.97 -0.832 10.082 C-1.928 12.819 -2.753 14.165 -5 16 C-3.411 10.639 -1.81 5.292 0 0 Z " fill="#000000" transform="translate(159,124)"/>
<path d="M0 0 C0 3.912 -1.261 4.729 -3.812 7.625 C-7.602 12.186 -9.666 16.247 -11 22 C-10.576 21.42 -10.152 20.84 -9.715 20.242 C-5.872 15.124 -2.008 10.986 3 7 C3.66 7.33 4.32 7.66 5 8 C4.42 8.473 3.84 8.946 3.242 9.434 C-4.719 16.173 -10.108 22.593 -12 33 C-14.384 29.424 -14.585 27.121 -14 23 C-11.73 13.617 -6.756 6.756 0 0 Z " fill="#000000" transform="translate(165,131)"/>
<path d="M0 0 C0.33 0.66 0.66 1.32 1 2 C-0.215 4.383 -0.215 4.383 -1.938 7.125 C-2.503 8.035 -3.069 8.945 -3.652 9.883 C-4.097 10.581 -4.542 11.28 -5 12 C-5.33 11.01 -5.66 10.02 -6 9 C-4.785 6.738 -4.785 6.738 -3.062 4.312 C-2.497 3.504 -1.931 2.696 -1.348 1.863 C-0.903 1.248 -0.458 0.634 0 0 Z " fill="#000000" transform="translate(153,140)"/>
<path d="M0 0 C4 1 4 1 4 1 Z " fill="#000000" transform="translate(172,180)"/>
</svg>
