<?xml version="1.0" encoding="UTF-8"?>
<!-- Generator: visioncortex VTracer 0.6.4 -->
<svg version="1.1" xmlns="http://www.w3.org/2000/svg" width="281" height="256">
<path d="M0 0 C3.999 1.398 6.959 3.303 10.312 5.875 C13.616 8.34 16.775 10.543 20.5 12.312 C24 14 24 14 25.527 15.625 C26.013 16.079 26.499 16.532 27 17 C29.345 16.761 31.678 16.405 34 16 C42.805 15.602 42.805 15.602 46.625 16.875 C50.225 17.064 51.905 14.977 54.613 12.754 C58.224 10.101 62.204 8.354 66.266 6.492 C69.05 4.972 70.886 3.345 73 1 C73.99 1.33 74.98 1.66 76 2 C77.295 5.885 76.385 7.509 75.125 11.375 C73.285 17.414 72.532 22.861 72.469 29.16 C71.869 32.793 70.563 34.397 68 37 C67.322 37.302 66.644 37.603 65.945 37.914 C62.882 39.624 62.231 42.215 60.875 45.375 C60.377 46.517 59.88 47.659 59.367 48.836 C58.916 49.88 58.465 50.924 58 52 C57.65 52.64 57.3 53.279 56.939 53.938 C54.981 58.237 55.293 62.908 56.787 67.328 C57.874 69.758 59.043 72.128 60.25 74.5 C64.584 83.544 67.19 92.166 69 102 C69.211 103.054 69.423 104.109 69.641 105.195 C70.413 109.335 70.988 113.29 71.059 117.508 C71.229 127.118 73.547 133.33 78.188 141.637 C82.121 148.937 82.172 157.91 80.328 165.918 C79.635 167.975 78.83 169.994 78 172 C84.123 167.728 87.921 162.236 89.449 154.82 C89.791 148.771 86.872 144.72 83.621 139.996 C80.88 135.88 79.089 133.125 80 128 C81.188 125.188 81.188 125.188 83 123 C85.688 122.188 85.688 122.188 88 122 C87.492 124.54 86.995 127.017 86.25 129.5 C85.718 134.824 90.599 139.202 93.695 143.23 C97.481 148.365 96.453 154.898 96 161 C94.373 168.196 90.636 174.235 85 179 C82.099 180.672 79.155 181.893 76 183 C71.741 184.441 71.741 184.441 69 188 C69.021 189.155 69.041 190.31 69.062 191.5 C69 195 69 195 67.938 196.938 C64.988 198.555 62.291 198.186 59 198 C58.67 198.99 58.34 199.98 58 201 C52.35 203.018 46.849 203.719 41 202 C39.238 200.449 39.238 200.449 38 199 C37.653 199.491 37.306 199.982 36.949 200.488 C33.998 202.777 31.48 202.288 27.812 202.188 C26.54 202.16 25.268 202.133 23.957 202.105 C22.981 202.071 22.005 202.036 21 202 C20.34 200.68 19.68 199.36 19 198 C17.701 198.021 16.401 198.041 15.062 198.062 C13.708 198.084 12.352 198.071 11 198 C10 197 10 197 9.625 194.75 C10.151 190.894 12.144 189.499 15 187 C14.481 186.466 13.961 185.933 13.426 185.383 C4.499 175.845 -0.509 165.722 -0.328 152.527 C0.293 145.846 2.47 139.586 5.094 133.438 C7.341 127.394 7.076 120.587 6.883 114.215 C6.423 97.71 9.637 83.589 16.12 68.425 C18.452 62.744 18.979 57.882 16.977 51.988 C16.531 51.105 16.085 50.222 15.625 49.312 C13.013 44.034 13.013 44.034 11.992 41.266 C10.666 38.238 8.813 37.617 6 36 C4.125 33.035 3.741 30.592 3.562 27.125 C3.301 23.903 3.053 22.104 1.562 19.188 C-0.906 14.151 -1.739 8.589 -2 3 C-1.34 2.01 -0.68 1.02 0 0 Z M0 3 C0.368 9.303 1.166 14.333 4 20 C4.701 19.732 5.403 19.464 6.125 19.188 C9 19 9 19 10.562 20.082 C11.078 20.55 11.594 21.018 12.125 21.5 C13.074 22.325 14.023 23.15 15 24 C15.99 23.67 16.98 23.34 18 23 C15.898 14.974 11.218 10.874 4.672 6.297 C3 5 3 5 2 3 C1.34 3 0.68 3 0 3 Z M67.562 8.688 C66.594 9.558 65.626 10.428 64.629 11.324 C60.796 15.225 59 17.46 59 23 C59.66 23.33 60.32 23.66 61 24 C60.67 25.98 60.34 27.96 60 30 C60.99 30.33 61.98 30.66 63 31 C63 31.66 63 32.32 63 33 C61.68 32.34 60.36 31.68 59 31 C59.495 33.475 59.495 33.475 60 36 C59.131 34.761 58.28 33.508 57.438 32.25 C56.962 31.554 56.486 30.858 55.996 30.141 C55 28 55 28 55.16 26.086 C56.246 23.389 57.578 20.911 59 18.375 C59.536 17.413 60.072 16.452 60.625 15.461 C61.079 14.649 61.532 13.837 62 13 C62.33 12.34 62.66 11.68 63 11 C57.707 12.512 52.604 14.375 49.625 19.25 C49.419 19.828 49.213 20.405 49 21 C48.216 20.505 47.433 20.01 46.625 19.5 C44.214 17.835 44.214 17.835 42 18 C42.185 22.619 42.799 25.22 46.062 28.438 C47.032 29.283 48.001 30.129 49 31 C43.737 27.159 41.168 24.488 40 18 C39.67 18 39.34 18 39 18 C38.979 19.279 38.959 20.558 38.938 21.875 C38.926 22.594 38.914 23.314 38.902 24.055 C38.874 26.082 38.874 26.082 40 28 C39.34 28 38.68 28 38 28 C38 24.7 38 21.4 38 18 C37.01 18 36.02 18 35 18 C34.67 20.97 34.34 23.94 34 27 C34 24.03 34 21.06 34 18 C33.01 18.495 33.01 18.495 32 19 C31.67 19.99 31.34 20.98 31 22 C30.67 21.01 30.34 20.02 30 19 C28.35 19.66 26.7 20.32 25 21 C24.927 20.234 24.853 19.469 24.777 18.68 C24.242 15.882 24.242 15.882 22.004 14.383 C21.198 13.968 20.393 13.553 19.562 13.125 C18.759 12.694 17.956 12.264 17.129 11.82 C16.426 11.55 15.724 11.279 15 11 C14.01 11.495 14.01 11.495 13 12 C13.598 12.639 14.196 13.279 14.812 13.938 C17.532 17.745 18.717 21.54 20 26 C20.66 26 21.32 26 22 26 C20.35 27.98 18.7 29.96 17 32 C16.588 30.948 16.175 29.896 15.75 28.812 C14.306 25.413 12.448 22.786 10 20 C8.68 20.33 7.36 20.66 6 21 C5.56 25.746 5.56 25.746 7.375 29.938 C8.955 31.182 8.955 31.182 11 31 C11 31.66 11 32.32 11 33 C9.35 32.01 7.7 31.02 6 30 C6.381 32.763 6.836 33.841 8.875 35.812 C9.576 36.204 10.278 36.596 11 37 C12.485 36.505 12.485 36.505 14 36 C14.159 36.773 14.317 37.547 14.48 38.344 C15.96 44.949 17.615 50.718 22 56 C22.66 56.33 23.32 56.66 24 57 C23.536 55.886 23.536 55.886 23.062 54.75 C22.191 52.493 21.523 50.355 21 48 C21.66 48 22.32 48 23 48 C23.124 48.907 23.248 49.815 23.375 50.75 C23.93 53.637 24.32 55.613 26 58 C27.796 59.095 27.796 59.095 30 59 C32.73 57.646 32.73 57.646 35 56 C34.01 52.535 34.01 52.535 33 49 C35.31 49 37.62 49 40 49 C39.67 49.578 39.34 50.155 39 50.75 C37.729 53.199 37.729 53.199 38 57 C40.826 59.32 40.826 59.32 44.062 58.812 C47.297 58.262 47.297 58.262 49 55 C49.167 51.875 49.167 51.875 49 49 C51.109 52.473 51.109 52.473 50.559 55.141 C50.374 55.754 50.19 56.368 50 57 C55.007 53.466 57.316 50.853 59.438 45.062 C61.433 39.671 63.654 36.892 68.328 33.598 C71.561 30.509 71.115 25.991 71.375 21.75 C71.756 17.134 72.721 13.189 74.379 8.875 C75.157 6.855 75.157 6.855 75 4 C71.651 4 69.966 6.501 67.562 8.688 Z M58 23 C59 25 59 25 59 25 Z M17 27 C17.33 27.66 17.66 28.32 18 29 C18.33 28.34 18.66 27.68 19 27 C18.34 27 17.68 27 17 27 Z M57 27 C57.33 28.32 57.66 29.64 58 31 C58.33 30.01 58.66 29.02 59 28 C58.34 27.67 57.68 27.34 57 27 Z M36 50 C36 50.66 36 51.32 36 52 C36.66 51.67 37.32 51.34 38 51 C37.34 50.67 36.68 50.34 36 50 Z M20 57 C19.915 58.103 19.83 59.207 19.742 60.344 C19.068 65.724 17.095 70.48 15.125 75.5 C7.245 96.413 7.249 113.474 12.125 135.062 C12.538 136.934 12.949 138.806 13.359 140.679 C15.037 148.314 16.757 155.939 18.485 163.563 C18.917 165.472 19.348 167.381 19.779 169.291 C20.286 171.53 20.8 173.768 21.323 176.004 C22.409 180.755 23.326 185.088 23 190 C23.638 190.061 24.276 190.121 24.934 190.184 C25.76 190.267 26.586 190.351 27.438 190.438 C28.673 190.559 28.673 190.559 29.934 190.684 C32 191 32 191 33 192 C29.37 192 25.74 192 22 192 C21.67 194.31 21.34 196.62 21 199 C24.153 199.701 26.727 200 30 200 C30 198.68 30 197.36 30 196 C30.495 197.98 30.495 197.98 31 200 C32.95 199.805 32.95 199.805 35 199 C36.748 196.531 37.017 195.23 36.793 192.188 C36.493 190.61 36.493 190.61 36.188 189 C35.414 184.64 34.854 180.421 34.625 176 C34.122 169.308 32.19 163.313 30 157 C29.689 156.038 29.379 155.077 29.059 154.086 C27.124 148.34 24.656 143.383 21.367 138.289 C19.301 134.83 18 132.058 18 128 C20.31 132.62 22.62 137.24 25 142 C26.263 139.473 25.854 138.583 25.223 135.867 C25.058 135.141 24.893 134.415 24.723 133.667 C24.505 132.746 24.287 131.824 24.062 130.875 C23.382 127.946 22.701 125.017 22 122 C23.65 128.27 25.3 134.54 27 141 C27.33 141 27.66 141 28 141 C28.041 142.072 28.083 143.145 28.125 144.25 C28.662 148.158 28.662 148.158 31.688 150.438 C35.242 152.114 37.134 152.588 41 152 C43.342 151.067 43.342 151.067 45 149 C45.019 146.246 44.824 143.996 44.375 141.312 C44.269 140.568 44.163 139.824 44.053 139.057 C43.831 137.494 43.599 135.933 43.36 134.374 C42.786 130.59 42.299 126.796 41.812 123 C41.717 122.312 41.621 121.624 41.523 120.915 C41.307 119.282 41.147 117.641 41 116 C41.33 115.67 41.66 115.34 42 115 C42.049 115.739 42.098 116.477 42.148 117.238 C42.667 124.27 43.599 131.09 45 138 C45.33 138 45.66 138 46 138 C46.33 136.02 46.66 134.04 47 132 C47 136.29 47 140.58 47 145 C48.394 142.212 49.592 139.599 50.691 136.707 C51.149 135.515 51.149 135.515 51.615 134.299 C52.251 132.63 52.887 130.96 53.521 129.291 C53.825 128.5 54.129 127.709 54.441 126.895 C54.717 126.171 54.992 125.448 55.276 124.702 C56 123 56 123 57 122 C56.377 128.989 53.8 134.775 51.059 141.178 C46.283 152.637 44.266 164.561 42.312 176.75 C42.086 178.141 41.859 179.531 41.631 180.922 C41.083 184.281 40.541 187.64 40 191 C44.62 190.67 49.24 190.34 54 190 C53.938 188.701 53.876 187.401 53.812 186.062 C53.887 172.632 57.743 159.693 61.487 146.906 C69.487 119.485 68.287 96.767 57.086 70.499 C56.703 69.6 56.32 68.7 55.926 67.773 C55.579 66.973 55.233 66.173 54.876 65.349 C53.968 62.913 53.441 60.558 53 58 C50.3 59.543 47.985 61.014 45.688 63.125 C41.056 66.357 36.746 66.241 31.375 65.5 C27.471 63.765 25.771 61.83 23.262 58.461 C22.845 57.979 22.429 57.497 22 57 C21.34 57 20.68 57 20 57 Z M27 60 C28.309 63.122 28.309 63.122 31 65 C32.641 65.146 34.29 65.221 35.938 65.25 C36.813 65.276 37.688 65.302 38.59 65.328 C41.056 65.195 41.056 65.195 42.816 63.609 C44.197 62.064 44.197 62.064 44 60 C37.285 56.703 33.778 56.941 27 60 Z M68 114 C67.888 115.194 67.776 116.387 67.66 117.617 C66.15 131.483 62.958 144.592 59.137 157.968 C56.88 165.967 55.265 173.646 55 182 C61.562 178.915 67.363 175.582 73 171 C68.302 175.289 63.586 178.586 58.039 181.703 C55.866 182.84 55.866 182.84 55 185 C56.603 185.337 58.208 185.669 59.812 186 C61.152 186.278 61.152 186.278 62.52 186.562 C65.073 187.087 65.073 187.087 68 187 C78.957 168.182 78.957 168.182 78.875 147.125 C77.706 143.421 76.163 140.666 73.938 137.5 C69.4 130.497 69.512 122.11 69 114 C68.67 114 68.34 114 68 114 Z M83.438 125 C81.631 127.514 81.348 129.626 81.438 132.695 C82.386 136.581 84.927 139.341 87.297 142.496 C90.375 147.021 91.399 151.117 90.648 156.539 C88.476 165.202 83.72 169.99 76.48 174.801 C74.361 176.517 73.668 178.404 73 181 C79.392 180.734 83.619 178.727 88 174 C92.716 166.354 95.91 159.098 95 150 C93.531 145.247 91.473 142.263 88.312 138.438 C85.989 135.561 85.062 134.408 84.5 130.688 C85.353 126.103 85.353 126.103 86 124 C84.831 123.91 84.831 123.91 83.438 125 Z M9 126 C7.647 129.994 6.321 133.996 5 138 C4.618 139.125 4.237 140.251 3.844 141.41 C0.213 152.496 0.166 160.679 5.102 171.391 C8.213 177.292 11.773 183.24 17.75 186.5 C20.02 187.253 20.02 187.253 22 186 C21.333 177.114 19.171 168.583 17.125 159.938 C14.467 148.667 12.031 137.401 10 126 C9.67 126 9.34 126 9 126 Z M30 150 C30.37 155.463 31.283 160.167 33 165.375 C34.666 170.506 35.463 175.175 35.785 180.543 C36.078 183.894 36.939 186.817 38 190 C40.216 186.676 40.615 184.52 41.289 180.609 C41.508 179.342 41.727 178.075 41.953 176.77 C42.063 176.109 42.174 175.449 42.287 174.768 C42.622 172.769 42.97 170.773 43.32 168.777 C44.344 162.761 45.128 157.119 45 151 C44.484 151.351 43.969 151.701 43.438 152.062 C39.995 153.386 37.564 152.764 34 152 C32.652 151.364 31.314 150.703 30 150 Z M55 187 C56.242 190.439 57.557 193.252 60 196 C60.66 196 61.32 196 62 196 C61.67 194.35 61.34 192.7 61 191 C61.66 191 62.32 191 63 191 C63 192.65 63 194.3 63 196 C63.99 196 64.98 196 66 196 C65.67 190.985 65.67 190.985 63 187 C60.312 186.73 57.709 186.913 55 187 Z M20 188 C18.571 190.354 17.913 191.48 18.375 194.25 C18.581 194.827 18.787 195.405 19 196 C21.201 192.196 21.201 192.196 22 188 C21.34 188 20.68 188 20 188 Z M12 192 C12 193.32 12 194.64 12 196 C13.65 195.67 15.3 195.34 17 195 C17.33 193.02 17.66 191.04 18 189 C15.149 189 14.051 190.086 12 192 Z M40 192 C39.833 194.917 39.833 194.917 40 198 C40.66 198.66 41.32 199.32 42 200 C42.99 200 43.98 200 45 200 C45 198.68 45 197.36 45 196 C45.33 197.65 45.66 199.3 46 201 C47.32 201 48.64 201 50 201 C50.33 199.68 50.66 198.36 51 197 C51.33 198.32 51.66 199.64 52 201 C52.66 201 53.32 201 54 201 C54.66 200.34 55.32 199.68 56 199 C56.66 198.67 57.32 198.34 58 198 C56.912 194.75 56.912 194.75 55 192 C52.47 191.927 49.967 191.908 47.438 191.938 C46.727 191.942 46.016 191.947 45.283 191.951 C43.522 191.963 41.761 191.981 40 192 Z " fill="#000000" transform="translate(115,0)"/>
<path d="M0 0 C1.98 0.66 3.96 1.32 6 2 C6 2.99 6 3.98 6 5 C3.981 3.696 1.981 2.362 0 1 C0 0.67 0 0.34 0 0 Z " fill="#000000" transform="translate(159,24)"/>
<path d="" fill="#000000" transform="translate(0,0)"/>
<path d="" fill="#000000" transform="translate(0,0)"/>
<path d="M0 0 C4.388 -0.662 6.308 -0.501 9.938 2.125 C12.31 5.431 12.462 7.024 12 11 C8.175 12.275 6.518 11.535 2.875 10.102 C-0.026 8.397 -0.904 6.083 -2 3 C-1.34 2.01 -0.68 1.02 0 0 Z M1 2 C0.67 2.99 0.34 3.98 0 5 C0.66 5.66 1.32 6.32 2 7 C2.33 5.35 2.66 3.7 3 2 C2.34 2 1.68 2 1 2 Z M6 3 C6 4.65 6 6.3 6 8 C6.66 7.67 7.32 7.34 8 7 C8 5.68 8 4.36 8 3 C7.34 3 6.68 3 6 3 Z M9 7 C10 9 10 9 10 9 Z " fill="#000000" transform="translate(135,33)"/>
<path d="M0 0 C2.386 3.779 2.132 6.577 1.559 10.871 C0.796 13.779 -0.616 15.231 -3 17 C-2.691 16.319 -2.381 15.639 -2.062 14.938 C-0.857 11.606 -0.332 8.523 0 5 C-0.33 4.34 -0.66 3.68 -1 3 C-1.351 3.804 -1.701 4.609 -2.062 5.438 C-4 8 -4 8 -7.5 8.75 C-8.655 8.832 -9.81 8.915 -11 9 C-11.99 9.33 -12.98 9.66 -14 10 C-14.319 6.486 -14.439 4.624 -12.375 1.688 C-8.671 -0.944 -4.255 -1.976 0 0 Z M-6 3 C-5 5 -5 5 -5 5 Z M-11 4 C-11 4.99 -11 5.98 -11 7 C-10.34 7 -9.68 7 -9 7 C-9.33 6.01 -9.66 5.02 -10 4 C-10.33 4 -10.66 4 -11 4 Z " fill="#000000" transform="translate(171,34)"/>
<path d="" fill="#000000" transform="translate(0,0)"/>
<path d="" fill="#000000" transform="translate(0,0)"/>
<path d="" fill="#000000" transform="translate(0,0)"/>
<path d="" fill="#000000" transform="translate(0,0)"/>
</svg>
