<?xml version="1.0" encoding="UTF-8"?>
<!-- Generator: visioncortex VTracer 0.6.4 -->
<svg version="1.1" xmlns="http://www.w3.org/2000/svg" width="281" height="256">
<path d="M0 0 C4.838 0.801 8.069 4.092 11.668 7.215 C17.848 12.276 25.045 12.286 32.755 11.588 C37.286 10.654 40.849 8.047 44.445 5.239 C48.495 2.096 48.495 2.096 51.828 2.285 C54 3.125 54 3.125 55 4.125 C55.478 9.29 54.915 12.699 52.938 17.5 C50.737 23.105 50.774 27.292 52 33.125 C52.278 34.703 52.278 34.703 52.562 36.312 C55.397 41.858 59.613 45.222 65.429 47.423 C69.457 48.636 73.537 49.639 77.625 50.625 C91.003 53.903 104.284 57.604 114.375 67.562 C114.862 68.039 115.349 68.515 115.851 69.005 C117.243 70.37 118.622 71.747 120 73.125 C121.075 74.076 121.075 74.076 122.172 75.047 C131.59 83.561 138.566 96.349 143 108.125 C143.294 108.898 143.588 109.672 143.891 110.469 C145.392 115.121 146.084 119.638 146.449 124.5 C146.559 125.96 146.559 125.96 146.671 127.45 C146.805 129.41 146.916 131.371 147.003 133.333 C147.404 139.639 148.298 142.799 153 147.125 C162.803 153.709 175.611 153.41 186.944 153.696 C192.883 153.88 198.237 154.664 204 156.125 C204 159.095 204 162.065 204 165.125 C183.243 168.992 161.508 166.383 141.935 158.931 C137.939 157.369 137.939 157.369 133.797 157.77 C132.907 158.44 132.907 158.44 132 159.125 C127.834 162.129 124.055 162.729 119.051 163.074 C118.279 163.137 117.508 163.199 116.713 163.263 C115.077 163.393 113.44 163.516 111.803 163.633 C109.364 163.809 106.928 164.005 104.49 164.205 C96.298 164.85 88.136 165.245 79.918 165.27 C78.767 165.275 78.767 165.275 77.594 165.28 C72.254 165.252 72.254 165.252 70 164.125 C70 162.475 70 160.825 70 159.125 C68.907 159.166 67.814 159.208 66.688 159.25 C63 159.125 63 159.125 60 157.125 C60.303 154.322 60.56 152.602 62.5 150.5 C66.163 148.485 69.629 148.557 73.75 148.438 C74.543 148.403 75.336 148.369 76.152 148.334 C78.101 148.252 80.051 148.187 82 148.125 C82 147.465 82 146.805 82 146.125 C80.618 144.792 80.618 144.792 78.781 143.48 C78.095 142.968 77.41 142.456 76.703 141.928 C75.976 141.395 75.249 140.862 74.5 140.312 C73.804 139.791 73.108 139.27 72.391 138.732 C67.737 135.281 62.959 132.12 58 129.125 C53.993 137.348 50.891 145.764 47.943 154.418 C46.234 159.296 44.739 163.394 41 167.125 C38.813 167.938 38.813 167.938 36 168.125 C35.292 168.175 34.585 168.226 33.855 168.277 C29.094 168.475 25.816 168.326 22 165.125 C22 164.465 22 163.805 22 163.125 C20.35 162.795 18.7 162.465 17 162.125 C16.188 160.438 16.188 160.438 16 158.125 C18.729 154.773 20.736 152.886 25 152.125 C31.626 138.873 22.204 112.469 17.906 99.511 C16.087 94.721 13.429 90.507 10.762 86.152 C5.792 77.613 5.649 68.394 4.911 58.773 C4.377 52.813 3.352 48.114 0.121 42.965 C-3.01 37.826 -2.451 31.507 -1.371 25.805 C-0.951 21.64 -1.636 19.018 -2.938 15.062 C-4.397 10.586 -5.446 6.854 -5 2.125 C-3 0.125 -3 0.125 0 0 Z M-3 2.125 C-3.402 8.291 -1.968 13.302 0 19.125 C4.136 19.125 4.698 18.973 7.75 16.625 C8.364 16.161 8.977 15.697 9.609 15.219 C10.068 14.858 10.527 14.497 11 14.125 C7.964 8.813 4.238 5.322 -1 2.125 C-1.66 2.125 -2.32 2.125 -3 2.125 Z M38.438 13.5 C37.963 14.036 37.489 14.572 37 15.125 C38.262 18.911 39.653 19.166 43 21.125 C43.66 22.115 44.32 23.105 45 24.125 C46.938 24.154 46.938 24.154 49 23.125 C50.167 20.805 51.015 18.755 51.812 16.312 C52.252 15.069 52.692 13.825 53.145 12.543 C53.929 9.41 54.199 8.045 53 5.125 C47.333 5.125 42.464 9.768 38.438 13.5 Z M8 7.125 C8.639 8.032 9.279 8.94 9.938 9.875 C11.669 12.604 12.374 14.096 13 17.125 C12.385 17.318 11.77 17.512 11.137 17.711 C10.328 17.971 9.52 18.232 8.688 18.5 C7.887 18.755 7.086 19.01 6.262 19.273 C3.773 20.113 3.773 20.113 1 22.125 C-1.536 28.725 -0.963 37.753 1.688 44.188 C3.553 47.767 5.523 49.973 9 52.125 C10.299 52.991 10.299 52.991 11.625 53.875 C16.424 55.652 20.938 55.368 26 55.125 C22.767 56.742 19.505 56.582 16 56.125 C12.875 55.019 9.941 53.65 7 52.125 C6.403 69.35 8.511 83.79 20.25 97.25 C24.201 101.462 28.429 105.291 32.836 109.02 C36.68 112.759 38.179 115.447 38.27 120.816 C38.107 125.957 37.497 130.988 36.688 136.062 C36.55 136.93 36.412 137.797 36.271 138.691 C33.847 153.507 33.847 153.507 32 157.125 C28.875 158.75 28.875 158.75 26 159.125 C24.704 160.191 24.704 160.191 24.938 162.688 C24.958 163.492 24.979 164.296 25 165.125 C25.66 165.455 26.32 165.785 27 166.125 C27.33 164.475 27.66 162.825 28 161.125 C28.33 162.775 28.66 164.425 29 166.125 C30.416 166.179 31.833 166.218 33.25 166.25 C34.039 166.273 34.828 166.296 35.641 166.32 C38.372 166.094 39.77 165.732 42 164.125 C43.534 161.573 43.534 161.573 44.75 158.375 C44.999 157.769 45.248 157.162 45.504 156.538 C48.146 149.993 50.501 143.337 52.88 136.694 C56.338 127.07 60.139 117.593 64 108.125 C63.803 108.71 63.606 109.295 63.403 109.898 C61.979 114.145 60.583 118.392 59.312 122.688 C59.061 123.534 58.81 124.381 58.551 125.254 C58.369 125.871 58.187 126.489 58 127.125 C59.091 127.835 59.091 127.835 60.203 128.559 C65.702 132.175 71.031 135.861 76.25 139.875 C80.69 143.239 84.821 146.053 90 148.125 C90.99 147.795 91.98 147.465 93 147.125 C92.469 146.58 91.938 146.034 91.391 145.473 C84.707 138.337 80.892 132.619 80.438 122.688 C80.708 114.708 83.268 109.048 88.688 103.25 C92.912 100.54 97.281 98.794 102 97.125 C101.203 97.477 100.407 97.829 99.586 98.191 C91.066 102.161 85.466 105.64 82.125 114.625 C80.077 121.843 80.534 128.453 84 135.125 C86.784 138.676 89.867 141.882 93 145.125 C94.705 147.097 96.352 149.105 98 151.125 C95.067 153.081 94.251 153.399 90.945 153.652 C89.775 153.758 89.775 153.758 88.582 153.865 C86.952 153.996 85.322 154.124 83.691 154.248 C79.129 154.665 75.669 155.111 72 158.125 C71.582 160.752 71.582 160.752 72 163.125 C72.66 163.125 73.32 163.125 74 163.125 C74.33 162.135 74.66 161.145 75 160.125 C75.33 161.445 75.66 162.765 76 164.125 C81.854 164.179 87.606 164.025 93.438 163.539 C94.202 163.477 94.967 163.415 95.756 163.352 C97.359 163.221 98.962 163.088 100.565 162.953 C102.994 162.751 105.422 162.559 107.852 162.367 C119.066 161.558 119.066 161.558 130 159.125 C130.66 158.135 131.32 157.145 132 156.125 C133.945 155.832 133.945 155.832 136.125 155.938 C137.404 155.999 138.683 156.061 140 156.125 C139.858 155.533 139.716 154.942 139.57 154.332 C139.423 153.542 139.276 152.752 139.125 151.938 C138.963 151.16 138.8 150.383 138.633 149.582 C139.139 146.194 141.016 145.585 143.616 143.615 C145.85 141.21 145.724 138.921 145.733 135.744 C145.697 134.941 145.662 134.139 145.625 133.312 C145.59 132.051 145.59 132.051 145.554 130.764 C144.499 106.587 131.905 86.1 114.734 69.594 C103.273 59.246 90.379 55.059 75.625 51.562 C66.053 49.294 57.594 46.818 51 39.125 C50.161 40.413 49.329 41.706 48.5 43 C48.036 43.719 47.572 44.439 47.094 45.18 C45.837 47.044 45.837 47.044 46 49.125 C42.98 50.691 39.913 52.001 36.75 53.25 C35.858 53.603 34.966 53.956 34.047 54.32 C33.034 54.719 33.034 54.719 32 55.125 C32.652 54.845 33.305 54.566 33.977 54.277 C41.114 51.003 45.579 47.527 49.375 40.625 C50.503 36.112 50.636 32.519 48.688 28.25 C47.101 25.855 47.101 25.855 44 25.125 C43.567 24.3 43.134 23.475 42.688 22.625 C41.18 19.795 41.18 19.795 37.812 19.312 C36.884 19.251 35.956 19.189 35 19.125 C35.33 18.362 35.66 17.599 36 16.812 C37.174 14.134 37.174 14.134 37 11.125 C35.68 12.445 34.36 13.765 33 15.125 C32.34 14.465 31.68 13.805 31 13.125 C26.47 12.188 22.188 11.834 17.688 12.938 C16.801 12.999 15.914 13.061 15 13.125 C12.994 11.315 11.613 9.32 10 7.125 C9.34 7.125 8.68 7.125 8 7.125 Z M20 99.125 C20.254 100.106 20.508 101.087 20.77 102.098 C30.156 138.741 30.156 138.741 27 154.125 C24.36 154.785 21.72 155.445 19 156.125 C18.67 157.445 18.34 158.765 18 160.125 C18.66 160.125 19.32 160.125 20 160.125 C20.495 159.63 20.495 159.63 21 159.125 C21 159.785 21 160.445 21 161.125 C21.66 161.125 22.32 161.125 23 161.125 C23.433 160.671 23.866 160.218 24.312 159.75 C26 158.125 26 158.125 28.469 157.383 C31.213 156.333 31.213 156.333 32.293 153.578 C38.18 133.624 38.18 133.624 35.895 113.648 C33.382 110.302 30.481 107.603 27.375 104.812 C26.777 104.263 26.179 103.713 25.562 103.146 C23.118 100.396 23.118 100.396 20 99.125 Z M80.262 149.578 C75.607 150.704 70.768 150.823 66 151.125 C65.67 153.105 65.34 155.085 65 157.125 C69.79 157.359 69.79 157.359 74 155.125 C75.929 154.73 75.929 154.73 78.09 154.527 C78.874 154.448 79.659 154.369 80.467 154.287 C81.69 154.176 81.69 154.176 82.938 154.062 C84.551 153.907 86.164 153.75 87.777 153.59 C88.491 153.524 89.205 153.458 89.941 153.39 C92.02 153.122 93.979 152.673 96 152.125 C95.67 151.135 95.34 150.145 95 149.125 C89.664 148.211 85.537 147.994 80.262 149.578 Z M63 152.125 C62.67 153.445 62.34 154.765 62 156.125 C62.99 155.135 63.98 154.145 65 153.125 C64.34 152.795 63.68 152.465 63 152.125 Z " fill="#000000" transform="translate(77,31.875)"/>
<path d="M0 0 C2.812 1.75 2.812 1.75 5 4 C5.312 6.75 5.312 6.75 5 9 C5.835 9.093 5.835 9.093 6.688 9.188 C11.089 10.734 13.426 13.921 15.562 17.938 C16 21 16 21 14.375 24.25 C12.129 26.851 10.954 27.57 8 29 C6.959 30.641 5.955 32.307 5 34 C0.644 36.178 -4.412 34.966 -9 34 C-9.846 34.062 -10.691 34.124 -11.562 34.188 C-14 34 -14 34 -16.188 32.438 C-18.426 29.427 -19.08 26.614 -20 23 C-20.66 22.01 -21.32 21.02 -22 20 C-22.301 17.844 -22.301 17.844 -22.312 15.5 C-22.329 14.727 -22.346 13.953 -22.363 13.156 C-21.911 10.469 -21.159 9.621 -19 8 C-15.812 7.312 -15.812 7.312 -13 7 C-12.979 6.237 -12.959 5.474 -12.938 4.688 C-12 2 -12 2 -8.75 0.125 C-5.009 -0.997 -3.563 -1.406 0 0 Z M-16 10 C-16 11.32 -16 12.64 -16 14 C-14.35 14.33 -12.7 14.66 -11 15 C-11.33 14.01 -11.66 13.02 -12 12 C-12 12.66 -12 13.32 -12 14 C-14 13 -14 13 -16 10 Z M7 12 C6.67 13.32 6.34 14.64 6 16 C6.99 15.67 7.98 15.34 9 15 C8.67 14.01 8.34 13.02 8 12 C7.67 12 7.34 12 7 12 Z M3 13 C3 14.32 3 15.64 3 17 C3.99 16.67 4.98 16.34 6 16 C5.01 15.01 4.02 14.02 3 13 Z " fill="#000000" transform="translate(103,50)"/>
<path d="M0 0 C2.97 0.495 2.97 0.495 6 1 C6 1.33 6 1.66 6 2 C3.69 2 1.38 2 -1 2 C-0.67 1.34 -0.34 0.68 0 0 Z " fill="#000000" transform="translate(86,254)"/>
</svg>
